<?xml version="1.0" encoding="UTF-8" standalone="no"?>
<!DOCTYPE svg PUBLIC "-//W3C//DTD SVG 1.1//EN"
 "http://www.w3.org/Graphics/SVG/1.1/DTD/svg11.dtd">
<!-- Generated by graphviz version 2.42.4 (0)
 -->
<!-- Title: l4/sys/__ktrace&#45;impl.h Pages: 1 -->
<svg width="547pt" height="412pt"
 viewBox="0.00 0.00 546.50 412.00" xmlns="http://www.w3.org/2000/svg" xmlns:xlink="http://www.w3.org/1999/xlink">
<g id="graph0" class="graph" transform="scale(1 1) rotate(0) translate(4 408)">
<title>l4/sys/__ktrace&#45;impl.h</title>
<!-- Node1 -->
<g id="Node000001" class="node">
<title>Node1</title>
<g id="a_Node000001"><a xlink:title="L4 kernel event tracing.">
<polygon fill="#999999" stroke="#666666" points="295.5,-404 171.5,-404 171.5,-385 295.5,-385 295.5,-404"/>
<text text-anchor="middle" x="233.5" y="-392" font-family="Helvetica,sans-Serif" font-size="10.00">l4/sys/__ktrace&#45;impl.h</text>
</a>
</g>
</g>
<!-- Node2 -->
<g id="Node000002" class="node">
<title>Node2</title>
<g id="a_Node000002"><a xlink:href="l4_2sys_2types_8h.html" target="_top" xlink:title="Common L4 ABI Data Types.">
<polygon fill="white" stroke="#666666" points="273.5,-184 189.5,-184 189.5,-165 273.5,-165 273.5,-184"/>
<text text-anchor="middle" x="231.5" y="-172" font-family="Helvetica,sans-Serif" font-size="10.00">l4/sys/types.h</text>
</a>
</g>
</g>
<!-- Node1&#45;&gt;Node2 -->
<g id="edge1_Node000001_Node000002" class="edge">
<title>Node1&#45;&gt;Node2</title>
<g id="a_edge1_Node000001_Node000002"><a xlink:title=" ">
<path fill="none" stroke="#63b8ff" d="M232.75,-384.98C232.01,-376.03 230.92,-361.54 230.5,-349 228.6,-292.69 230.01,-226.05 230.91,-194.23"/>
<polygon fill="#63b8ff" stroke="#63b8ff" points="234.41,-194.27 231.21,-184.17 227.41,-194.06 234.41,-194.27"/>
</a>
</g>
</g>
<!-- Node9 -->
<g id="Node000009" class="node">
<title>Node9</title>
<g id="a_Node000009"><a xlink:href="kdebug_8h.html" target="_top" xlink:title="Functionality for invoking the kernel debugger.">
<polygon fill="white" stroke="#666666" points="333,-349 240,-349 240,-330 333,-330 333,-349"/>
<text text-anchor="middle" x="286.5" y="-337" font-family="Helvetica,sans-Serif" font-size="10.00">l4/sys/kdebug.h</text>
</a>
</g>
</g>
<!-- Node1&#45;&gt;Node9 -->
<g id="edge13_Node000001_Node000009" class="edge">
<title>Node1&#45;&gt;Node9</title>
<g id="a_edge13_Node000001_Node000009"><a xlink:title=" ">
<path fill="none" stroke="#63b8ff" d="M242.25,-384.75C249.97,-377.03 261.4,-365.6 270.72,-356.28"/>
<polygon fill="#63b8ff" stroke="#63b8ff" points="273.31,-358.64 277.91,-349.09 268.36,-353.69 273.31,-358.64"/>
</a>
</g>
</g>
<!-- Node3 -->
<g id="Node000003" class="node">
<title>Node3</title>
<g id="a_Node000003"><a xlink:href="l4_2sys_2l4int_8h.html" target="_top" xlink:title="Fixed sized integer types, generic version.">
<polygon fill="white" stroke="#666666" points="79,-74 0,-74 0,-55 79,-55 79,-74"/>
<text text-anchor="middle" x="39.5" y="-62" font-family="Helvetica,sans-Serif" font-size="10.00">l4/sys/l4int.h</text>
</a>
</g>
</g>
<!-- Node2&#45;&gt;Node3 -->
<g id="edge2_Node000002_Node000003" class="edge">
<title>Node2&#45;&gt;Node3</title>
<g id="a_edge2_Node000002_Node000003"><a xlink:title=" ">
<path fill="none" stroke="#63b8ff" d="M189.31,-170.68C134.18,-166.02 42.21,-154.55 21.5,-129 10.83,-115.83 18.49,-96.69 26.87,-82.87"/>
<polygon fill="#63b8ff" stroke="#63b8ff" points="29.95,-84.56 32.57,-74.29 24.12,-80.68 29.95,-84.56"/>
</a>
</g>
</g>
<!-- Node4 -->
<g id="Node000004" class="node">
<title>Node4</title>
<g id="a_Node000004"><a xlink:href="compiler_8h.html" target="_top" xlink:title="L4 compiler related defines.">
<polygon fill="white" stroke="#666666" points="404,-74 305,-74 305,-55 404,-55 404,-74"/>
<text text-anchor="middle" x="354.5" y="-62" font-family="Helvetica,sans-Serif" font-size="10.00">l4/sys/compiler.h</text>
</a>
</g>
</g>
<!-- Node2&#45;&gt;Node4 -->
<g id="edge3_Node000002_Node000004" class="edge">
<title>Node2&#45;&gt;Node4</title>
<g id="a_edge3_Node000002_Node000004"><a xlink:title=" ">
<path fill="none" stroke="#63b8ff" d="M238.6,-164.73C249.19,-151.94 270.04,-127.76 290.5,-110 303.41,-98.79 319.17,-87.81 331.81,-79.56"/>
<polygon fill="#63b8ff" stroke="#63b8ff" points="333.85,-82.41 340.39,-74.07 330.08,-76.51 333.85,-82.41"/>
</a>
</g>
</g>
<!-- Node6 -->
<g id="Node000006" class="node">
<title>Node6</title>
<g id="a_Node000006"><a xlink:href="l4_2sys_2consts_8h.html" target="_top" xlink:title="Common constants.">
<polygon fill="white" stroke="#666666" points="120,-129 31,-129 31,-110 120,-110 120,-129"/>
<text text-anchor="middle" x="75.5" y="-117" font-family="Helvetica,sans-Serif" font-size="10.00">l4/sys/consts.h</text>
</a>
</g>
</g>
<!-- Node2&#45;&gt;Node6 -->
<g id="edge5_Node000002_Node000006" class="edge">
<title>Node2&#45;&gt;Node6</title>
<g id="a_edge5_Node000002_Node000006"><a xlink:title=" ">
<path fill="none" stroke="#63b8ff" d="M206.44,-164.98C180.47,-156.16 139.69,-142.31 110.54,-132.41"/>
<polygon fill="#63b8ff" stroke="#63b8ff" points="111.35,-128.99 100.76,-129.08 109.1,-135.61 111.35,-128.99"/>
</a>
</g>
</g>
<!-- Node7 -->
<g id="Node000007" class="node">
<title>Node7</title>
<g id="a_Node000007"><a xlink:href="____l4__fpage_8h_source.html" target="_top" xlink:title=" ">
<polygon fill="white" stroke="#666666" points="409.5,-129 299.5,-129 299.5,-110 409.5,-110 409.5,-129"/>
<text text-anchor="middle" x="354.5" y="-117" font-family="Helvetica,sans-Serif" font-size="10.00">l4/sys/__l4_fpage.h</text>
</a>
</g>
</g>
<!-- Node2&#45;&gt;Node7 -->
<g id="edge8_Node000002_Node000007" class="edge">
<title>Node2&#45;&gt;Node7</title>
<g id="a_edge8_Node000002_Node000007"><a xlink:title=" ">
<path fill="none" stroke="#63b8ff" d="M251.26,-164.98C271.23,-156.38 302.3,-142.99 325.15,-133.15"/>
<polygon fill="#63b8ff" stroke="#63b8ff" points="326.58,-136.34 334.38,-129.17 323.81,-129.91 326.58,-136.34"/>
</a>
</g>
</g>
<!-- Node8 -->
<g id="Node000008" class="node">
<title>Node8</title>
<g id="a_Node000008"><a xlink:href="____timeout_8h_source.html" target="_top" xlink:title=" ">
<polygon fill="white" stroke="#666666" points="243.5,-129 137.5,-129 137.5,-110 243.5,-110 243.5,-129"/>
<text text-anchor="middle" x="190.5" y="-117" font-family="Helvetica,sans-Serif" font-size="10.00">l4/sys/__timeout.h</text>
</a>
</g>
</g>
<!-- Node2&#45;&gt;Node8 -->
<g id="edge10_Node000002_Node000008" class="edge">
<title>Node2&#45;&gt;Node8</title>
<g id="a_edge10_Node000002_Node000008"><a xlink:title=" ">
<path fill="none" stroke="#63b8ff" d="M224.73,-164.75C218.94,-157.26 210.44,-146.28 203.36,-137.13"/>
<polygon fill="#63b8ff" stroke="#63b8ff" points="206.03,-134.86 197.14,-129.09 200.49,-139.14 206.03,-134.86"/>
</a>
</g>
</g>
<!-- Node5 -->
<g id="Node000005" class="node">
<title>Node5</title>
<g id="a_Node000005"><a xlink:title=" ">
<polygon fill="#e0e0e0" stroke="#999999" points="400.5,-19 308.5,-19 308.5,0 400.5,0 400.5,-19"/>
<text text-anchor="middle" x="354.5" y="-7" font-family="Helvetica,sans-Serif" font-size="10.00">l4/sys/linkage.h</text>
</a>
</g>
</g>
<!-- Node4&#45;&gt;Node5 -->
<g id="edge4_Node000004_Node000005" class="edge">
<title>Node4&#45;&gt;Node5</title>
<g id="a_edge4_Node000004_Node000005"><a xlink:title=" ">
<path fill="none" stroke="#63b8ff" d="M354.5,-54.75C354.5,-47.8 354.5,-37.85 354.5,-29.13"/>
<polygon fill="#63b8ff" stroke="#63b8ff" points="358,-29.09 354.5,-19.09 351,-29.09 358,-29.09"/>
</a>
</g>
</g>
<!-- Node6&#45;&gt;Node3 -->
<g id="edge7_Node000006_Node000003" class="edge">
<title>Node6&#45;&gt;Node3</title>
<g id="a_edge7_Node000006_Node000003"><a xlink:title=" ">
<path fill="none" stroke="#63b8ff" d="M69.56,-109.75C64.52,-102.34 57.16,-91.5 50.99,-82.41"/>
<polygon fill="#63b8ff" stroke="#63b8ff" points="53.85,-80.39 45.33,-74.09 48.06,-84.33 53.85,-80.39"/>
</a>
</g>
</g>
<!-- Node6&#45;&gt;Node4 -->
<g id="edge6_Node000006_Node000004" class="edge">
<title>Node6&#45;&gt;Node4</title>
<g id="a_edge6_Node000006_Node000004"><a xlink:title=" ">
<path fill="none" stroke="#63b8ff" d="M120.02,-110.04C168.77,-100.78 246.99,-85.92 299.53,-75.94"/>
<polygon fill="#63b8ff" stroke="#63b8ff" points="300.51,-79.32 309.68,-74.01 299.2,-72.44 300.51,-79.32"/>
</a>
</g>
</g>
<!-- Node7&#45;&gt;Node4 -->
<g id="edge9_Node000007_Node000004" class="edge">
<title>Node7&#45;&gt;Node4</title>
<g id="a_edge9_Node000007_Node000004"><a xlink:title=" ">
<path fill="none" stroke="#63b8ff" d="M354.5,-109.75C354.5,-102.8 354.5,-92.85 354.5,-84.13"/>
<polygon fill="#63b8ff" stroke="#63b8ff" points="358,-84.09 354.5,-74.09 351,-84.09 358,-84.09"/>
</a>
</g>
</g>
<!-- Node8&#45;&gt;Node3 -->
<g id="edge11_Node000008_Node000003" class="edge">
<title>Node8&#45;&gt;Node3</title>
<g id="a_edge11_Node000008_Node000003"><a xlink:title=" ">
<path fill="none" stroke="#63b8ff" d="M166.24,-109.98C141.18,-101.19 101.87,-87.39 73.67,-77.49"/>
<polygon fill="#63b8ff" stroke="#63b8ff" points="74.8,-74.18 64.2,-74.17 72.48,-80.78 74.8,-74.18"/>
</a>
</g>
</g>
<!-- Node8&#45;&gt;Node4 -->
<g id="edge12_Node000008_Node000004" class="edge">
<title>Node8&#45;&gt;Node4</title>
<g id="a_edge12_Node000008_Node000004"><a xlink:title=" ">
<path fill="none" stroke="#63b8ff" d="M216.85,-109.98C244.26,-101.13 287.39,-87.19 318.06,-77.28"/>
<polygon fill="#63b8ff" stroke="#63b8ff" points="319.5,-80.49 327.94,-74.08 317.35,-73.83 319.5,-80.49"/>
</a>
</g>
</g>
<!-- Node9&#45;&gt;Node4 -->
<g id="edge14_Node000009_Node000004" class="edge">
<title>Node9&#45;&gt;Node4</title>
<g id="a_edge14_Node000009_Node000004"><a xlink:title=" ">
<path fill="none" stroke="#63b8ff" d="M333.01,-338.54C405.83,-335.88 538.5,-318.91 538.5,-230.5 538.5,-230.5 538.5,-230.5 538.5,-173.5 538.5,-114.74 467.85,-87.34 414.11,-74.99"/>
<polygon fill="#63b8ff" stroke="#63b8ff" points="414.81,-71.56 404.29,-72.85 413.32,-78.4 414.81,-71.56"/>
</a>
</g>
</g>
<!-- Node9&#45;&gt;Node6 -->
<g id="edge15_Node000009_Node000006" class="edge">
<title>Node9&#45;&gt;Node6</title>
<g id="a_edge15_Node000009_Node000006"><a xlink:title=" ">
<path fill="none" stroke="#63b8ff" d="M278.23,-329.95C246.59,-297.27 132.93,-179.83 91.1,-136.61"/>
<polygon fill="#63b8ff" stroke="#63b8ff" points="93.41,-133.98 83.94,-129.22 88.38,-138.84 93.41,-133.98"/>
</a>
</g>
</g>
<!-- Node10 -->
<g id="Node000010" class="node">
<title>Node10</title>
<g id="a_Node000010"><a xlink:href="l4_2sys_2ipc_8h.html" target="_top" xlink:title="Common IPC interface.">
<polygon fill="white" stroke="#666666" points="336,-294 265,-294 265,-275 336,-275 336,-294"/>
<text text-anchor="middle" x="300.5" y="-282" font-family="Helvetica,sans-Serif" font-size="10.00">l4/sys/ipc.h</text>
</a>
</g>
</g>
<!-- Node9&#45;&gt;Node10 -->
<g id="edge16_Node000009_Node000010" class="edge">
<title>Node9&#45;&gt;Node10</title>
<g id="a_edge16_Node000009_Node000010"><a xlink:title=" ">
<path fill="none" stroke="#63b8ff" d="M288.81,-329.75C290.67,-322.72 293.34,-312.62 295.65,-303.84"/>
<polygon fill="#63b8ff" stroke="#63b8ff" points="299.06,-304.65 298.23,-294.09 292.29,-302.86 299.06,-304.65"/>
</a>
</g>
</g>
<!-- Node10&#45;&gt;Node2 -->
<g id="edge17_Node000010_Node000002" class="edge">
<title>Node10&#45;&gt;Node2</title>
<g id="a_edge17_Node000010_Node000002"><a xlink:title=" ">
<path fill="none" stroke="#63b8ff" d="M288.53,-274.86C277.99,-266.69 262.88,-253.54 253.5,-239 244.6,-225.21 238.84,-207.41 235.46,-194.17"/>
<polygon fill="#63b8ff" stroke="#63b8ff" points="238.84,-193.24 233.15,-184.3 232.02,-194.83 238.84,-193.24"/>
</a>
</g>
</g>
<!-- Node11 -->
<g id="Node000011" class="node">
<title>Node11</title>
<g id="a_Node000011"><a xlink:href="l4_2sys_2utcb_8h.html" target="_top" xlink:title="UTCB definitions.">
<polygon fill="white" stroke="#666666" points="340.5,-239 262.5,-239 262.5,-220 340.5,-220 340.5,-239"/>
<text text-anchor="middle" x="301.5" y="-227" font-family="Helvetica,sans-Serif" font-size="10.00">l4/sys/utcb.h</text>
</a>
</g>
</g>
<!-- Node10&#45;&gt;Node11 -->
<g id="edge18_Node000010_Node000011" class="edge">
<title>Node10&#45;&gt;Node11</title>
<g id="a_edge18_Node000010_Node000011"><a xlink:title=" ">
<path fill="none" stroke="#63b8ff" d="M300.67,-274.75C300.8,-267.8 300.98,-257.85 301.15,-249.13"/>
<polygon fill="#63b8ff" stroke="#63b8ff" points="304.65,-249.15 301.34,-239.09 297.65,-249.02 304.65,-249.15"/>
</a>
</g>
</g>
<!-- Node12 -->
<g id="Node000012" class="node">
<title>Node12</title>
<g id="a_Node000012"><a xlink:href="err_8h.html" target="_top" xlink:title="Error codes.">
<polygon fill="white" stroke="#666666" points="510.5,-184 440.5,-184 440.5,-165 510.5,-165 510.5,-184"/>
<text text-anchor="middle" x="475.5" y="-172" font-family="Helvetica,sans-Serif" font-size="10.00">l4/sys/err.h</text>
</a>
</g>
</g>
<!-- Node10&#45;&gt;Node12 -->
<g id="edge22_Node000010_Node000012" class="edge">
<title>Node10&#45;&gt;Node12</title>
<g id="a_edge22_Node000010_Node000012"><a xlink:title=" ">
<path fill="none" stroke="#63b8ff" d="M314.53,-274.84C344.73,-256.2 416.17,-212.11 452.87,-189.46"/>
<polygon fill="#63b8ff" stroke="#63b8ff" points="454.74,-192.43 461.41,-184.2 451.06,-186.47 454.74,-192.43"/>
</a>
</g>
</g>
<!-- Node11&#45;&gt;Node2 -->
<g id="edge19_Node000011_Node000002" class="edge">
<title>Node11&#45;&gt;Node2</title>
<g id="a_edge19_Node000011_Node000002"><a xlink:title=" ">
<path fill="none" stroke="#63b8ff" d="M290.25,-219.98C279.7,-212 263.7,-199.88 251.06,-190.31"/>
<polygon fill="#63b8ff" stroke="#63b8ff" points="253.04,-187.42 242.95,-184.17 248.81,-193 253.04,-187.42"/>
</a>
</g>
</g>
<!-- Node11&#45;&gt;Node3 -->
<g id="edge21_Node000011_Node000003" class="edge">
<title>Node11&#45;&gt;Node3</title>
<g id="a_edge21_Node000011_Node000003"><a xlink:title=" ">
<path fill="none" stroke="#63b8ff" d="M262.39,-228.32C197.77,-225.64 70.12,-209.78 12.5,-129 2.13,-114.46 12.99,-95.33 23.87,-81.87"/>
<polygon fill="#63b8ff" stroke="#63b8ff" points="26.52,-84.16 30.46,-74.33 21.25,-79.56 26.52,-84.16"/>
</a>
</g>
</g>
<!-- Node11&#45;&gt;Node4 -->
<g id="edge20_Node000011_Node000004" class="edge">
<title>Node11&#45;&gt;Node4</title>
<g id="a_edge20_Node000011_Node000004"><a xlink:title=" ">
<path fill="none" stroke="#63b8ff" d="M319.17,-219.88C346.48,-205.45 397.91,-173.53 418.5,-129 428.23,-107.96 405.28,-90.01 384.21,-78.62"/>
<polygon fill="#63b8ff" stroke="#63b8ff" points="385.6,-75.4 375.1,-74.01 382.44,-81.65 385.6,-75.4"/>
</a>
</g>
</g>
<!-- Node12&#45;&gt;Node4 -->
<g id="edge23_Node000012_Node000004" class="edge">
<title>Node12&#45;&gt;Node4</title>
<g id="a_edge23_Node000012_Node000004"><a xlink:title=" ">
<path fill="none" stroke="#63b8ff" d="M474.31,-164.58C472.09,-151.16 466.14,-125.68 451.5,-110 437.35,-94.85 417.04,-84.44 398.66,-77.52"/>
<polygon fill="#63b8ff" stroke="#63b8ff" points="399.58,-74.13 388.98,-74.12 397.26,-80.74 399.58,-74.13"/>
</a>
</g>
</g>
</g>
</svg>
