<?xml version="1.0" encoding="UTF-8" standalone="no"?>
<!DOCTYPE svg PUBLIC "-//W3C//DTD SVG 1.1//EN"
 "http://www.w3.org/Graphics/SVG/1.1/DTD/svg11.dtd">
<!-- Generated by graphviz version 2.43.0 (0)
 -->
<!-- Title: l4/sys/__vm&#45;arm.h Pages: 1 -->
<svg width="788pt" height="808pt"
 viewBox="0.00 0.00 788.04 808.00" xmlns="http://www.w3.org/2000/svg" xmlns:xlink="http://www.w3.org/1999/xlink">
<g id="graph0" class="graph" transform="scale(1 1) rotate(0) translate(4 804)">
<title>l4/sys/__vm&#45;arm.h</title>
<!-- Node1 -->
<g id="Node000001" class="node">
<title>Node1</title>
<g id="a_Node000001"><a xlink:title="Virtualization interface.">
<polygon fill="#999999" stroke="#666666" points="142.5,-800 35.5,-800 35.5,-781 142.5,-781 142.5,-800"/>
<text text-anchor="middle" x="89" y="-788" font-family="Helvetica,sans-Serif" font-size="10.00">l4/sys/__vm&#45;arm.h</text>
</a>
</g>
</g>
<!-- Node2 -->
<g id="Node000002" class="node">
<title>Node2</title>
<g id="a_Node000002"><a xlink:href="task.html" target="_top" xlink:title="Common task related definitions.">
<polygon fill="white" stroke="#666666" points="123.5,-745 54.5,-745 54.5,-726 123.5,-726 123.5,-745"/>
<text text-anchor="middle" x="89" y="-733" font-family="Helvetica,sans-Serif" font-size="10.00">l4/sys/task</text>
</a>
</g>
</g>
<!-- Node1&#45;&gt;Node2 -->
<g id="edge1_Node000001_Node000002" class="edge">
<title>Node1&#45;&gt;Node2</title>
<g id="a_edge1_Node000001_Node000002"><a xlink:title=" ">
<path fill="none" stroke="#63b8ff" d="M89,-780.75C89,-773.8 89,-763.85 89,-755.13"/>
<polygon fill="#63b8ff" stroke="#63b8ff" points="92.5,-755.09 89,-745.09 85.5,-755.09 92.5,-755.09"/>
</a>
</g>
</g>
<!-- Node3 -->
<g id="Node000003" class="node">
<title>Node3</title>
<g id="a_Node000003"><a xlink:href="l4_2sys_2task_8h.html" target="_top" xlink:title="Common task related definitions.">
<polygon fill="white" stroke="#666666" points="271,-354.5 193,-354.5 193,-335.5 271,-335.5 271,-354.5"/>
<text text-anchor="middle" x="232" y="-342.5" font-family="Helvetica,sans-Serif" font-size="10.00">l4/sys/task.h</text>
</a>
</g>
</g>
<!-- Node2&#45;&gt;Node3 -->
<g id="edge2_Node000002_Node000003" class="edge">
<title>Node2&#45;&gt;Node3</title>
<g id="a_edge2_Node000002_Node000003"><a xlink:title=" ">
<path fill="none" stroke="#63b8ff" d="M89.08,-725.94C89.57,-700.27 92.73,-621.87 113,-561 139.36,-481.86 194.87,-398.19 219.63,-363.07"/>
<polygon fill="#63b8ff" stroke="#63b8ff" points="222.53,-365.04 225.49,-354.86 216.83,-360.97 222.53,-365.04"/>
</a>
</g>
</g>
<!-- Node14 -->
<g id="Node000014" class="node">
<title>Node14</title>
<g id="a_Node000014"><a xlink:href="capability.html" target="_top" xlink:title="L4::Cap related definitions.">
<polygon fill="white" stroke="#666666" points="220,-690 124,-690 124,-671 220,-671 220,-690"/>
<text text-anchor="middle" x="172" y="-678" font-family="Helvetica,sans-Serif" font-size="10.00">l4/sys/capability</text>
</a>
</g>
</g>
<!-- Node2&#45;&gt;Node14 -->
<g id="edge23_Node000002_Node000014" class="edge">
<title>Node2&#45;&gt;Node14</title>
<g id="a_edge23_Node000002_Node000014"><a xlink:title=" ">
<path fill="none" stroke="#63b8ff" d="M102.34,-725.98C115.09,-717.84 134.55,-705.41 149.67,-695.76"/>
<polygon fill="#63b8ff" stroke="#63b8ff" points="151.88,-698.5 158.42,-690.17 148.11,-692.6 151.88,-698.5"/>
</a>
</g>
</g>
<!-- Node4 -->
<g id="Node000004" class="node">
<title>Node4</title>
<g id="a_Node000004"><a xlink:href="l4_2sys_2types_8h.html" target="_top" xlink:title="Common L4 ABI Data Types.">
<polygon fill="white" stroke="#666666" points="249,-184 165,-184 165,-165 249,-165 249,-184"/>
<text text-anchor="middle" x="207" y="-172" font-family="Helvetica,sans-Serif" font-size="10.00">l4/sys/types.h</text>
</a>
</g>
</g>
<!-- Node3&#45;&gt;Node4 -->
<g id="edge3_Node000003_Node000004" class="edge">
<title>Node3&#45;&gt;Node4</title>
<g id="a_edge3_Node000003_Node000004"><a xlink:title=" ">
<path fill="none" stroke="#63b8ff" d="M230.73,-335.41C226.87,-309.39 215.23,-230.97 209.82,-194.51"/>
<polygon fill="#63b8ff" stroke="#63b8ff" points="213.23,-193.65 208.3,-184.27 206.31,-194.68 213.23,-193.65"/>
</a>
</g>
</g>
<!-- Node11 -->
<g id="Node000011" class="node">
<title>Node11</title>
<g id="a_Node000011"><a xlink:href="l4_2sys_2utcb_8h.html" target="_top" xlink:title="UTCB definitions.">
<polygon fill="white" stroke="#666666" points="354,-239 276,-239 276,-220 354,-220 354,-239"/>
<text text-anchor="middle" x="315" y="-227" font-family="Helvetica,sans-Serif" font-size="10.00">l4/sys/utcb.h</text>
</a>
</g>
</g>
<!-- Node3&#45;&gt;Node11 -->
<g id="edge14_Node000003_Node000011" class="edge">
<title>Node3&#45;&gt;Node11</title>
<g id="a_edge14_Node000003_Node000011"><a xlink:title=" ">
<path fill="none" stroke="#63b8ff" d="M238.24,-335.47C251.88,-316.82 284.57,-272.11 302.58,-247.49"/>
<polygon fill="#63b8ff" stroke="#63b8ff" points="305.61,-249.27 308.69,-239.13 299.96,-245.14 305.61,-249.27"/>
</a>
</g>
</g>
<!-- Node12 -->
<g id="Node000012" class="node">
<title>Node12</title>
<g id="a_Node000012"><a xlink:href="l4_2sys_2ipc_8h.html" target="_top" xlink:title="Common IPC interface.">
<polygon fill="white" stroke="#666666" points="411.5,-294 340.5,-294 340.5,-275 411.5,-275 411.5,-294"/>
<text text-anchor="middle" x="376" y="-282" font-family="Helvetica,sans-Serif" font-size="10.00">l4/sys/ipc.h</text>
</a>
</g>
</g>
<!-- Node3&#45;&gt;Node12 -->
<g id="edge18_Node000003_Node000012" class="edge">
<title>Node3&#45;&gt;Node12</title>
<g id="a_edge18_Node000003_Node000012"><a xlink:title=" ">
<path fill="none" stroke="#63b8ff" d="M252.94,-335.49C277.36,-325.57 317.93,-309.09 345.77,-297.78"/>
<polygon fill="#63b8ff" stroke="#63b8ff" points="347.09,-301.02 355.04,-294.02 344.45,-294.54 347.09,-301.02"/>
</a>
</g>
</g>
<!-- Node5 -->
<g id="Node000005" class="node">
<title>Node5</title>
<g id="a_Node000005"><a xlink:href="l4_2sys_2l4int_8h.html" target="_top" xlink:title="Fixed sized integer types, generic version.">
<polygon fill="white" stroke="#666666" points="210.5,-74 131.5,-74 131.5,-55 210.5,-55 210.5,-74"/>
<text text-anchor="middle" x="171" y="-62" font-family="Helvetica,sans-Serif" font-size="10.00">l4/sys/l4int.h</text>
</a>
</g>
</g>
<!-- Node4&#45;&gt;Node5 -->
<g id="edge4_Node000004_Node000005" class="edge">
<title>Node4&#45;&gt;Node5</title>
<g id="a_edge4_Node000004_Node000005"><a xlink:title=" ">
<path fill="none" stroke="#63b8ff" d="M190.11,-164.95C177.29,-157.43 160.62,-145.15 153,-129 145.99,-114.13 152.48,-95.99 159.55,-82.91"/>
<polygon fill="#63b8ff" stroke="#63b8ff" points="162.73,-84.41 164.86,-74.03 156.72,-80.82 162.73,-84.41"/>
</a>
</g>
</g>
<!-- Node6 -->
<g id="Node000006" class="node">
<title>Node6</title>
<g id="a_Node000006"><a xlink:href="compiler_8h.html" target="_top" xlink:title="L4 compiler related defines.">
<polygon fill="white" stroke="#666666" points="514.5,-74 415.5,-74 415.5,-55 514.5,-55 514.5,-74"/>
<text text-anchor="middle" x="465" y="-62" font-family="Helvetica,sans-Serif" font-size="10.00">l4/sys/compiler.h</text>
</a>
</g>
</g>
<!-- Node4&#45;&gt;Node6 -->
<g id="edge5_Node000004_Node000006" class="edge">
<title>Node4&#45;&gt;Node6</title>
<g id="a_edge5_Node000004_Node000006"><a xlink:title=" ">
<path fill="none" stroke="#63b8ff" d="M249.35,-169.04C304.99,-162.49 398.92,-148.86 427,-129 442.7,-117.9 453.03,-98.07 458.9,-83.52"/>
<polygon fill="#63b8ff" stroke="#63b8ff" points="462.22,-84.65 462.41,-74.05 455.65,-82.22 462.22,-84.65"/>
</a>
</g>
</g>
<!-- Node8 -->
<g id="Node000008" class="node">
<title>Node8</title>
<g id="a_Node000008"><a xlink:href="l4_2sys_2consts_8h.html" target="_top" xlink:title="Common constants.">
<polygon fill="white" stroke="#666666" points="251.5,-129 162.5,-129 162.5,-110 251.5,-110 251.5,-129"/>
<text text-anchor="middle" x="207" y="-117" font-family="Helvetica,sans-Serif" font-size="10.00">l4/sys/consts.h</text>
</a>
</g>
</g>
<!-- Node4&#45;&gt;Node8 -->
<g id="edge7_Node000004_Node000008" class="edge">
<title>Node4&#45;&gt;Node8</title>
<g id="a_edge7_Node000004_Node000008"><a xlink:title=" ">
<path fill="none" stroke="#63b8ff" d="M207,-164.75C207,-157.8 207,-147.85 207,-139.13"/>
<polygon fill="#63b8ff" stroke="#63b8ff" points="210.5,-139.09 207,-129.09 203.5,-139.09 210.5,-139.09"/>
</a>
</g>
</g>
<!-- Node9 -->
<g id="Node000009" class="node">
<title>Node9</title>
<g id="a_Node000009"><a xlink:href="____l4__fpage_8h_source.html" target="_top" xlink:title=" ">
<polygon fill="white" stroke="#666666" points="418,-129 308,-129 308,-110 418,-110 418,-129"/>
<text text-anchor="middle" x="363" y="-117" font-family="Helvetica,sans-Serif" font-size="10.00">l4/sys/__l4_fpage.h</text>
</a>
</g>
</g>
<!-- Node4&#45;&gt;Node9 -->
<g id="edge10_Node000004_Node000009" class="edge">
<title>Node4&#45;&gt;Node9</title>
<g id="a_edge10_Node000004_Node000009"><a xlink:title=" ">
<path fill="none" stroke="#63b8ff" d="M232.06,-164.98C258.03,-156.16 298.81,-142.31 327.96,-132.41"/>
<polygon fill="#63b8ff" stroke="#63b8ff" points="329.4,-135.61 337.74,-129.08 327.15,-128.99 329.4,-135.61"/>
</a>
</g>
</g>
<!-- Node10 -->
<g id="Node000010" class="node">
<title>Node10</title>
<g id="a_Node000010"><a xlink:href="____timeout_8h_source.html" target="_top" xlink:title=" ">
<polygon fill="white" stroke="#666666" points="106,-129 0,-129 0,-110 106,-110 106,-129"/>
<text text-anchor="middle" x="53" y="-117" font-family="Helvetica,sans-Serif" font-size="10.00">l4/sys/__timeout.h</text>
</a>
</g>
</g>
<!-- Node4&#45;&gt;Node10 -->
<g id="edge12_Node000004_Node000010" class="edge">
<title>Node4&#45;&gt;Node10</title>
<g id="a_edge12_Node000004_Node000010"><a xlink:title=" ">
<path fill="none" stroke="#63b8ff" d="M182.26,-164.98C156.63,-156.16 116.37,-142.31 87.59,-132.41"/>
<polygon fill="#63b8ff" stroke="#63b8ff" points="88.53,-129.03 77.94,-129.08 86.25,-135.65 88.53,-129.03"/>
</a>
</g>
</g>
<!-- Node7 -->
<g id="Node000007" class="node">
<title>Node7</title>
<g id="a_Node000007"><a xlink:title=" ">
<polygon fill="#e0e0e0" stroke="#999999" points="511,-19 419,-19 419,0 511,0 511,-19"/>
<text text-anchor="middle" x="465" y="-7" font-family="Helvetica,sans-Serif" font-size="10.00">l4/sys/linkage.h</text>
</a>
</g>
</g>
<!-- Node6&#45;&gt;Node7 -->
<g id="edge6_Node000006_Node000007" class="edge">
<title>Node6&#45;&gt;Node7</title>
<g id="a_edge6_Node000006_Node000007"><a xlink:title=" ">
<path fill="none" stroke="#63b8ff" d="M465,-54.75C465,-47.8 465,-37.85 465,-29.13"/>
<polygon fill="#63b8ff" stroke="#63b8ff" points="468.5,-29.09 465,-19.09 461.5,-29.09 468.5,-29.09"/>
</a>
</g>
</g>
<!-- Node8&#45;&gt;Node5 -->
<g id="edge9_Node000008_Node000005" class="edge">
<title>Node8&#45;&gt;Node5</title>
<g id="a_edge9_Node000008_Node000005"><a xlink:title=" ">
<path fill="none" stroke="#63b8ff" d="M201.06,-109.75C196.02,-102.34 188.66,-91.5 182.49,-82.41"/>
<polygon fill="#63b8ff" stroke="#63b8ff" points="185.35,-80.39 176.83,-74.09 179.56,-84.33 185.35,-80.39"/>
</a>
</g>
</g>
<!-- Node8&#45;&gt;Node6 -->
<g id="edge8_Node000008_Node000006" class="edge">
<title>Node8&#45;&gt;Node6</title>
<g id="a_edge8_Node000008_Node000006"><a xlink:title=" ">
<path fill="none" stroke="#63b8ff" d="M248.45,-109.98C293.27,-100.78 364.77,-86.09 413.25,-76.13"/>
<polygon fill="#63b8ff" stroke="#63b8ff" points="414.13,-79.52 423.22,-74.08 412.72,-72.67 414.13,-79.52"/>
</a>
</g>
</g>
<!-- Node9&#45;&gt;Node6 -->
<g id="edge11_Node000009_Node000006" class="edge">
<title>Node9&#45;&gt;Node6</title>
<g id="a_edge11_Node000009_Node000006"><a xlink:title=" ">
<path fill="none" stroke="#63b8ff" d="M379.39,-109.98C395.57,-101.57 420.57,-88.59 439.38,-78.81"/>
<polygon fill="#63b8ff" stroke="#63b8ff" points="441.05,-81.89 448.31,-74.17 437.83,-75.68 441.05,-81.89"/>
</a>
</g>
</g>
<!-- Node10&#45;&gt;Node5 -->
<g id="edge13_Node000010_Node000005" class="edge">
<title>Node10&#45;&gt;Node5</title>
<g id="a_edge13_Node000010_Node000005"><a xlink:title=" ">
<path fill="none" stroke="#63b8ff" d="M71.96,-109.98C91.03,-101.42 120.66,-88.11 142.55,-78.28"/>
<polygon fill="#63b8ff" stroke="#63b8ff" points="144.01,-81.46 151.7,-74.17 141.14,-75.07 144.01,-81.46"/>
</a>
</g>
</g>
<!-- Node11&#45;&gt;Node4 -->
<g id="edge15_Node000011_Node000004" class="edge">
<title>Node11&#45;&gt;Node4</title>
<g id="a_edge15_Node000011_Node000004"><a xlink:title=" ">
<path fill="none" stroke="#63b8ff" d="M297.65,-219.98C280.43,-211.54 253.8,-198.47 233.85,-188.68"/>
<polygon fill="#63b8ff" stroke="#63b8ff" points="235.19,-185.43 224.67,-184.17 232.1,-191.72 235.19,-185.43"/>
</a>
</g>
</g>
<!-- Node11&#45;&gt;Node5 -->
<g id="edge17_Node000011_Node000005" class="edge">
<title>Node11&#45;&gt;Node5</title>
<g id="a_edge17_Node000011_Node000005"><a xlink:title=" ">
<path fill="none" stroke="#63b8ff" d="M313.1,-219.93C308.02,-198.73 292.24,-143.19 260,-110 245.88,-95.47 226.02,-84.91 208.64,-77.74"/>
<polygon fill="#63b8ff" stroke="#63b8ff" points="209.88,-74.46 199.29,-74.1 207.34,-80.99 209.88,-74.46"/>
</a>
</g>
</g>
<!-- Node11&#45;&gt;Node6 -->
<g id="edge16_Node000011_Node000006" class="edge">
<title>Node11&#45;&gt;Node6</title>
<g id="a_edge16_Node000011_Node000006"><a xlink:title=" ">
<path fill="none" stroke="#63b8ff" d="M334.02,-219.92C363.65,-205.55 420.47,-173.7 450,-129 458.88,-115.56 462.52,-97.46 464.01,-84.02"/>
<polygon fill="#63b8ff" stroke="#63b8ff" points="467.5,-84.29 464.81,-74.04 460.52,-83.72 467.5,-84.29"/>
</a>
</g>
</g>
<!-- Node12&#45;&gt;Node4 -->
<g id="edge19_Node000012_Node000004" class="edge">
<title>Node12&#45;&gt;Node4</title>
<g id="a_edge19_Node000012_Node000004"><a xlink:title=" ">
<path fill="none" stroke="#63b8ff" d="M345.61,-274.95C322.73,-267.64 291.28,-255.64 267,-239 248.11,-226.06 230.64,-206.31 219.48,-192.27"/>
<polygon fill="#63b8ff" stroke="#63b8ff" points="221.98,-189.78 213.11,-184 216.44,-194.06 221.98,-189.78"/>
</a>
</g>
</g>
<!-- Node12&#45;&gt;Node11 -->
<g id="edge20_Node000012_Node000011" class="edge">
<title>Node12&#45;&gt;Node11</title>
<g id="a_edge20_Node000012_Node000011"><a xlink:title=" ">
<path fill="none" stroke="#63b8ff" d="M366.2,-274.98C357.18,-267.15 343.59,-255.34 332.68,-245.86"/>
<polygon fill="#63b8ff" stroke="#63b8ff" points="334.82,-243.09 324.98,-239.17 330.23,-248.37 334.82,-243.09"/>
</a>
</g>
</g>
<!-- Node13 -->
<g id="Node000013" class="node">
<title>Node13</title>
<g id="a_Node000013"><a xlink:href="err_8h.html" target="_top" xlink:title="Error codes.">
<polygon fill="white" stroke="#666666" points="691,-239 621,-239 621,-220 691,-220 691,-239"/>
<text text-anchor="middle" x="656" y="-227" font-family="Helvetica,sans-Serif" font-size="10.00">l4/sys/err.h</text>
</a>
</g>
</g>
<!-- Node12&#45;&gt;Node13 -->
<g id="edge21_Node000012_Node000013" class="edge">
<title>Node12&#45;&gt;Node13</title>
<g id="a_edge21_Node000012_Node000013"><a xlink:title=" ">
<path fill="none" stroke="#63b8ff" d="M411.75,-276.73C462.54,-267.12 555.59,-249.51 611.01,-239.02"/>
<polygon fill="#63b8ff" stroke="#63b8ff" points="611.73,-242.44 620.91,-237.14 610.43,-235.56 611.73,-242.44"/>
</a>
</g>
</g>
<!-- Node13&#45;&gt;Node6 -->
<g id="edge22_Node000013_Node000006" class="edge">
<title>Node13&#45;&gt;Node6</title>
<g id="a_edge22_Node000013_Node000006"><a xlink:title=" ">
<path fill="none" stroke="#63b8ff" d="M648.43,-219.81C630.28,-199.26 582.38,-146.7 536,-110 521.54,-98.56 504,-87.54 489.96,-79.33"/>
<polygon fill="#63b8ff" stroke="#63b8ff" points="491.31,-76.06 480.89,-74.12 487.82,-82.13 491.31,-76.06"/>
</a>
</g>
</g>
<!-- Node14&#45;&gt;Node3 -->
<g id="edge45_Node000014_Node000003" class="edge">
<title>Node14&#45;&gt;Node3</title>
<g id="a_edge45_Node000014_Node000003"><a xlink:title=" ">
<path fill="none" stroke="#63b8ff" d="M178.59,-670.8C191.31,-653.1 218,-611.24 218,-571.5 218,-571.5 218,-571.5 218,-459.5 218,-425.87 224.13,-387.05 228.28,-364.64"/>
<polygon fill="#63b8ff" stroke="#63b8ff" points="231.72,-365.27 230.17,-354.78 224.85,-363.94 231.72,-365.27"/>
</a>
</g>
</g>
<!-- Node14&#45;&gt;Node4 -->
<g id="edge25_Node000014_Node000004" class="edge">
<title>Node14&#45;&gt;Node4</title>
<g id="a_edge25_Node000014_Node000004"><a xlink:title=" ">
<path fill="none" stroke="#63b8ff" d="M165.55,-670.77C153.11,-653.04 127,-611.11 127,-571.5 127,-571.5 127,-571.5 127,-514.5 127,-437.73 89,-422.77 89,-346 89,-346 89,-346 89,-283.5 89,-236.67 140.21,-204.67 175.16,-188.28"/>
<polygon fill="#63b8ff" stroke="#63b8ff" points="176.84,-191.37 184.53,-184.08 173.97,-184.98 176.84,-191.37"/>
</a>
</g>
</g>
<!-- Node14&#45;&gt;Node8 -->
<g id="edge24_Node000014_Node000008" class="edge">
<title>Node14&#45;&gt;Node8</title>
<g id="a_edge24_Node000014_Node000008"><a xlink:title=" ">
<path fill="none" stroke="#63b8ff" d="M162.91,-670.92C134.77,-643.39 51,-553.7 51,-461.5 51,-461.5 51,-461.5 51,-228.5 51,-175.1 113.55,-146.02 159.44,-131.88"/>
<polygon fill="#63b8ff" stroke="#63b8ff" points="160.63,-135.18 169.24,-129 158.66,-128.46 160.63,-135.18"/>
</a>
</g>
</g>
<!-- Node15 -->
<g id="Node000015" class="node">
<title>Node15</title>
<g id="a_Node000015"><a xlink:href="kobject_source.html" target="_top" xlink:title=" ">
<polygon fill="white" stroke="#666666" points="405.5,-525 322.5,-525 322.5,-506 405.5,-506 405.5,-525"/>
<text text-anchor="middle" x="364" y="-513" font-family="Helvetica,sans-Serif" font-size="10.00">l4/sys/kobject</text>
</a>
</g>
</g>
<!-- Node14&#45;&gt;Node15 -->
<g id="edge26_Node000014_Node000015" class="edge">
<title>Node14&#45;&gt;Node15</title>
<g id="a_edge26_Node000014_Node000015"><a xlink:title=" ">
<path fill="none" stroke="#63b8ff" d="M184.2,-670.96C196.51,-662.23 215.93,-648.13 232,-635 275.07,-599.82 323.06,-555.31 347.6,-532.13"/>
<polygon fill="#63b8ff" stroke="#63b8ff" points="350.13,-534.56 354.98,-525.14 345.31,-529.48 350.13,-534.56"/>
</a>
</g>
</g>
<!-- Node22 -->
<g id="Node000022" class="node">
<title>Node22</title>
<g id="a_Node000022"><a xlink:href="sys_2meta.html" target="_top" xlink:title="Meta interface for getting dynamic type information about objects behind capabilities.">
<polygon fill="white" stroke="#666666" points="470,-635 396,-635 396,-616 470,-616 470,-635"/>
<text text-anchor="middle" x="433" y="-623" font-family="Helvetica,sans-Serif" font-size="10.00">l4/sys/meta</text>
</a>
</g>
</g>
<!-- Node14&#45;&gt;Node22 -->
<g id="edge46_Node000014_Node000022" class="edge">
<title>Node14&#45;&gt;Node22</title>
<g id="a_edge46_Node000014_Node000022"><a xlink:title=" ">
<path fill="none" stroke="#63b8ff" d="M213.93,-670.98C260.89,-661.45 336.8,-646.04 385.79,-636.09"/>
<polygon fill="#63b8ff" stroke="#63b8ff" points="386.72,-639.47 395.82,-634.05 385.32,-632.61 386.72,-639.47"/>
</a>
</g>
</g>
<!-- Node15&#45;&gt;Node4 -->
<g id="edge34_Node000015_Node000004" class="edge">
<title>Node15&#45;&gt;Node4</title>
<g id="a_edge34_Node000015_Node000004"><a xlink:title=" ">
<path fill="none" stroke="#63b8ff" d="M325.39,-505.94C258.24,-488.52 127,-442.17 127,-346 127,-346 127,-346 127,-283.5 127,-243.81 162.32,-209.18 186.03,-190.41"/>
<polygon fill="#63b8ff" stroke="#63b8ff" points="188.31,-193.07 194.15,-184.23 184.07,-187.5 188.31,-193.07"/>
</a>
</g>
</g>
<!-- Node16 -->
<g id="Node000016" class="node">
<title>Node16</title>
<g id="a_Node000016"><a xlink:href="kernel__object_8h.html" target="_top" xlink:title="Kernel object system calls.">
<polygon fill="white" stroke="#666666" points="417.5,-415 326.5,-415 326.5,-396 417.5,-396 417.5,-415"/>
<text text-anchor="middle" x="372" y="-403" font-family="Helvetica,sans-Serif" font-size="10.00">kernel_object.h</text>
</a>
</g>
</g>
<!-- Node15&#45;&gt;Node16 -->
<g id="edge27_Node000015_Node000016" class="edge">
<title>Node15&#45;&gt;Node16</title>
<g id="a_edge27_Node000015_Node000016"><a xlink:title=" ">
<path fill="none" stroke="#63b8ff" d="M364.65,-505.66C365.95,-488.17 368.87,-448.8 370.61,-425.27"/>
<polygon fill="#63b8ff" stroke="#63b8ff" points="374.11,-425.39 371.36,-415.16 367.13,-424.87 374.11,-425.39"/>
</a>
</g>
</g>
<!-- Node18 -->
<g id="Node000018" class="node">
<title>Node18</title>
<g id="a_Node000018"><a xlink:href="____typeinfo_8h.html" target="_top" xlink:title="Type information handling.">
<polygon fill="white" stroke="#666666" points="469.5,-470 392.5,-470 392.5,-451 469.5,-451 469.5,-470"/>
<text text-anchor="middle" x="431" y="-458" font-family="Helvetica,sans-Serif" font-size="10.00">__typeinfo.h</text>
</a>
</g>
</g>
<!-- Node15&#45;&gt;Node18 -->
<g id="edge35_Node000015_Node000018" class="edge">
<title>Node15&#45;&gt;Node18</title>
<g id="a_edge35_Node000015_Node000018"><a xlink:title=" ">
<path fill="none" stroke="#63b8ff" d="M374.76,-505.98C384.77,-498.07 399.89,-486.11 411.93,-476.58"/>
<polygon fill="#63b8ff" stroke="#63b8ff" points="414.37,-479.12 420.04,-470.17 410.03,-473.63 414.37,-479.12"/>
</a>
</g>
</g>
<!-- Node16&#45;&gt;Node4 -->
<g id="edge28_Node000016_Node000004" class="edge">
<title>Node16&#45;&gt;Node4</title>
<g id="a_edge28_Node000016_Node000004"><a xlink:title=" ">
<path fill="none" stroke="#63b8ff" d="M326.38,-400.12C276.53,-394.28 201.43,-382.03 184,-360 145,-310.69 178.66,-229.61 196.99,-193.65"/>
<polygon fill="#63b8ff" stroke="#63b8ff" points="200.3,-194.87 201.89,-184.39 194.12,-191.6 200.3,-194.87"/>
</a>
</g>
</g>
<!-- Node16&#45;&gt;Node6 -->
<g id="edge29_Node000016_Node000006" class="edge">
<title>Node16&#45;&gt;Node6</title>
<g id="a_edge29_Node000016_Node000006"><a xlink:title=" ">
<path fill="none" stroke="#63b8ff" d="M417.77,-397.09C439.59,-391.01 463.77,-379.97 477,-360 535.7,-271.37 491.22,-132.63 472.37,-83.49"/>
<polygon fill="#63b8ff" stroke="#63b8ff" points="475.62,-82.19 468.69,-74.18 469.11,-84.76 475.62,-82.19"/>
</a>
</g>
</g>
<!-- Node16&#45;&gt;Node11 -->
<g id="edge30_Node000016_Node000011" class="edge">
<title>Node16&#45;&gt;Node11</title>
<g id="a_edge30_Node000016_Node000011"><a xlink:title=" ">
<path fill="none" stroke="#63b8ff" d="M355.21,-395.9C342.45,-388.35 325.81,-376.06 318,-360 300.53,-324.06 305.87,-275.61 310.77,-249.34"/>
<polygon fill="#63b8ff" stroke="#63b8ff" points="314.26,-249.75 312.84,-239.25 307.4,-248.34 314.26,-249.75"/>
</a>
</g>
</g>
<!-- Node16&#45;&gt;Node12 -->
<g id="edge33_Node000016_Node000012" class="edge">
<title>Node16&#45;&gt;Node12</title>
<g id="a_edge33_Node000016_Node000012"><a xlink:title=" ">
<path fill="none" stroke="#63b8ff" d="M408.29,-395.94C427.21,-389.44 448.7,-378.38 460,-360 466.98,-348.64 466.88,-341.42 460,-330 450.91,-314.89 434.78,-304.65 419.06,-297.83"/>
<polygon fill="#63b8ff" stroke="#63b8ff" points="419.99,-294.44 409.4,-294.02 417.42,-300.95 419.99,-294.44"/>
</a>
</g>
</g>
<!-- Node17 -->
<g id="Node000017" class="node">
<title>Node17</title>
<g id="a_Node000017"><a xlink:href="____kernel__object__impl_8h.html" target="_top" xlink:title="Low&#45;level kernel debugger functions.">
<polygon fill="white" stroke="#666666" points="451,-360 327,-360 327,-330 451,-330 451,-360"/>
<text text-anchor="start" x="335" y="-348" font-family="Helvetica,sans-Serif" font-size="10.00">l4/sys/__kernel_object</text>
<text text-anchor="middle" x="389" y="-337" font-family="Helvetica,sans-Serif" font-size="10.00">_impl.h</text>
</a>
</g>
</g>
<!-- Node16&#45;&gt;Node17 -->
<g id="edge31_Node000016_Node000017" class="edge">
<title>Node16&#45;&gt;Node17</title>
<g id="a_edge31_Node000016_Node000017"><a xlink:title=" ">
<path fill="none" stroke="#63b8ff" d="M374.51,-395.87C376.49,-389.03 379.37,-379.14 382.04,-369.97"/>
<polygon fill="#63b8ff" stroke="#63b8ff" points="385.47,-370.69 384.9,-360.11 378.75,-368.74 385.47,-370.69"/>
</a>
</g>
</g>
<!-- Node17&#45;&gt;Node12 -->
<g id="edge32_Node000017_Node000012" class="edge">
<title>Node17&#45;&gt;Node12</title>
<g id="a_edge32_Node000017_Node000012"><a xlink:title=" ">
<path fill="none" stroke="#63b8ff" d="M385.85,-329.84C384.14,-322.13 382,-312.49 380.15,-304.17"/>
<polygon fill="#63b8ff" stroke="#63b8ff" points="383.53,-303.27 377.95,-294.27 376.7,-304.79 383.53,-303.27"/>
</a>
</g>
</g>
<!-- Node19 -->
<g id="Node000019" class="node">
<title>Node19</title>
<g id="a_Node000019"><a xlink:href="types.html" target="_top" xlink:title=" ">
<polygon fill="white" stroke="#666666" points="761,-354.5 697,-354.5 697,-335.5 761,-335.5 761,-354.5"/>
<text text-anchor="middle" x="729" y="-342.5" font-family="Helvetica,sans-Serif" font-size="10.00">cxx/types</text>
</a>
</g>
</g>
<!-- Node18&#45;&gt;Node19 -->
<g id="edge36_Node000018_Node000019" class="edge">
<title>Node18&#45;&gt;Node19</title>
<g id="a_edge36_Node000018_Node000019"><a xlink:title=" ">
<path fill="none" stroke="#63b8ff" d="M454.81,-450.85C478.03,-442.26 514.25,-428.47 545,-415 562.66,-407.27 566.19,-403.38 584,-396 619.76,-381.19 661.66,-367.08 691.2,-357.64"/>
<polygon fill="#63b8ff" stroke="#63b8ff" points="692.62,-360.87 701.1,-354.51 690.51,-354.19 692.62,-360.87"/>
</a>
</g>
</g>
<!-- Node20 -->
<g id="Node000020" class="node">
<title>Node20</title>
<g id="a_Node000020"><a xlink:href="ipc__basics_source.html" target="_top" xlink:title=" ">
<polygon fill="white" stroke="#666666" points="679.5,-415 592.5,-415 592.5,-396 679.5,-396 679.5,-415"/>
<text text-anchor="middle" x="636" y="-403" font-family="Helvetica,sans-Serif" font-size="10.00">cxx/ipc_basics</text>
</a>
</g>
</g>
<!-- Node18&#45;&gt;Node20 -->
<g id="edge37_Node000018_Node000020" class="edge">
<title>Node18&#45;&gt;Node20</title>
<g id="a_edge37_Node000018_Node000020"><a xlink:title=" ">
<path fill="none" stroke="#63b8ff" d="M463.94,-450.98C498.95,-441.93 554.47,-427.58 592.93,-417.64"/>
<polygon fill="#63b8ff" stroke="#63b8ff" points="594,-420.97 602.81,-415.08 592.25,-414.2 594,-420.97"/>
</a>
</g>
</g>
<!-- Node21 -->
<g id="Node000021" class="node">
<title>Node21</title>
<g id="a_Node000021"><a xlink:href="capability_8h_source.html" target="_top" xlink:title=" ">
<polygon fill="white" stroke="#666666" points="536,-415 444,-415 444,-396 536,-396 536,-415"/>
<text text-anchor="middle" x="490" y="-403" font-family="Helvetica,sans-Serif" font-size="10.00">cxx/capability.h</text>
</a>
</g>
</g>
<!-- Node18&#45;&gt;Node21 -->
<g id="edge41_Node000018_Node000021" class="edge">
<title>Node18&#45;&gt;Node21</title>
<g id="a_edge41_Node000018_Node000021"><a xlink:title=" ">
<path fill="none" stroke="#63b8ff" d="M440.48,-450.98C449.2,-443.15 462.34,-431.34 472.9,-421.86"/>
<polygon fill="#63b8ff" stroke="#63b8ff" points="475.25,-424.46 480.35,-415.17 470.57,-419.25 475.25,-424.46"/>
</a>
</g>
</g>
<!-- Node20&#45;&gt;Node11 -->
<g id="edge39_Node000020_Node000011" class="edge">
<title>Node20&#45;&gt;Node11</title>
<g id="a_edge39_Node000020_Node000011"><a xlink:title=" ">
<path fill="none" stroke="#63b8ff" d="M623.21,-395.97C590.34,-374.23 499.89,-315.63 420,-275 396.23,-262.91 368.41,-251.23 347.38,-242.87"/>
<polygon fill="#63b8ff" stroke="#63b8ff" points="348.53,-239.56 337.95,-239.16 345.97,-246.07 348.53,-239.56"/>
</a>
</g>
</g>
<!-- Node20&#45;&gt;Node13 -->
<g id="edge40_Node000020_Node000013" class="edge">
<title>Node20&#45;&gt;Node13</title>
<g id="a_edge40_Node000020_Node000013"><a xlink:title=" ">
<path fill="none" stroke="#63b8ff" d="M638.09,-395.69C640.14,-386.75 643.21,-372.48 645,-360 650.6,-320.86 653.69,-274.62 655.08,-249.34"/>
<polygon fill="#63b8ff" stroke="#63b8ff" points="658.59,-249.19 655.62,-239.02 651.6,-248.83 658.59,-249.19"/>
</a>
</g>
</g>
<!-- Node20&#45;&gt;Node19 -->
<g id="edge38_Node000020_Node000019" class="edge">
<title>Node20&#45;&gt;Node19</title>
<g id="a_edge38_Node000020_Node000019"><a xlink:title=" ">
<path fill="none" stroke="#63b8ff" d="M649.72,-395.87C664.7,-386.45 688.89,-371.23 706.62,-360.08"/>
<polygon fill="#63b8ff" stroke="#63b8ff" points="708.62,-362.95 715.22,-354.67 704.89,-357.03 708.62,-362.95"/>
</a>
</g>
</g>
<!-- Node21&#45;&gt;Node3 -->
<g id="edge44_Node000021_Node000003" class="edge">
<title>Node21&#45;&gt;Node3</title>
<g id="a_edge44_Node000021_Node000003"><a xlink:title=" ">
<path fill="none" stroke="#63b8ff" d="M452.48,-395.99C406.72,-385.62 329.31,-368.07 279.45,-356.76"/>
<polygon fill="#63b8ff" stroke="#63b8ff" points="280.09,-353.31 269.56,-354.52 278.54,-360.14 280.09,-353.31"/>
</a>
</g>
</g>
<!-- Node21&#45;&gt;Node4 -->
<g id="edge43_Node000021_Node000004" class="edge">
<title>Node21&#45;&gt;Node4</title>
<g id="a_edge43_Node000021_Node000004"><a xlink:title=" ">
<path fill="none" stroke="#63b8ff" d="M501.93,-395.8C511.83,-387.77 525.19,-374.87 531,-360 535.85,-347.58 537.34,-341.73 531,-330 488.56,-251.49 444.17,-257.11 363,-220 329.72,-204.78 290.03,-193.55 259.02,-186.18"/>
<polygon fill="#63b8ff" stroke="#63b8ff" points="259.8,-182.77 249.27,-183.92 258.22,-189.58 259.8,-182.77"/>
</a>
</g>
</g>
<!-- Node21&#45;&gt;Node8 -->
<g id="edge42_Node000021_Node000008" class="edge">
<title>Node21&#45;&gt;Node8</title>
<g id="a_edge42_Node000021_Node000008"><a xlink:title=" ">
<path fill="none" stroke="#63b8ff" d="M508.35,-395.88C521.79,-388.46 539.02,-376.36 547,-360 564.99,-323.13 541.55,-302.38 511,-275 428.94,-201.45 305.49,-153.18 244.23,-132.31"/>
<polygon fill="#63b8ff" stroke="#63b8ff" points="245.19,-128.94 234.59,-129.08 242.96,-135.57 245.19,-128.94"/>
</a>
</g>
</g>
<!-- Node22&#45;&gt;Node15 -->
<g id="edge47_Node000022_Node000015" class="edge">
<title>Node22&#45;&gt;Node15</title>
<g id="a_edge47_Node000022_Node000015"><a xlink:title=" ">
<path fill="none" stroke="#63b8ff" d="M427.35,-615.66C415.92,-597.77 389.88,-557 374.98,-533.69"/>
<polygon fill="#63b8ff" stroke="#63b8ff" points="377.87,-531.7 369.53,-525.16 371.97,-535.47 377.87,-531.7"/>
</a>
</g>
</g>
<!-- Node23 -->
<g id="Node000023" class="node">
<title>Node23</title>
<g id="a_Node000023"><a xlink:href="ipc__iface.html" target="_top" xlink:title="Interface Definition Language.">
<polygon fill="white" stroke="#666666" points="521,-525 441,-525 441,-506 521,-506 521,-525"/>
<text text-anchor="middle" x="481" y="-513" font-family="Helvetica,sans-Serif" font-size="10.00">cxx/ipc_iface</text>
</a>
</g>
</g>
<!-- Node22&#45;&gt;Node23 -->
<g id="edge48_Node000022_Node000023" class="edge">
<title>Node22&#45;&gt;Node23</title>
<g id="a_edge48_Node000022_Node000023"><a xlink:title=" ">
<path fill="none" stroke="#63b8ff" d="M436.93,-615.66C444.81,-597.93 462.68,-557.73 473.08,-534.32"/>
<polygon fill="#63b8ff" stroke="#63b8ff" points="476.29,-535.72 477.15,-525.16 469.89,-532.87 476.29,-535.72"/>
</a>
</g>
</g>
<!-- Node25 -->
<g id="Node000025" class="node">
<title>Node25</title>
<g id="a_Node000025"><a xlink:href="ipc__string_source.html" target="_top" xlink:title=" ">
<polygon fill="white" stroke="#666666" points="741,-580 657,-580 657,-561 741,-561 741,-580"/>
<text text-anchor="middle" x="699" y="-568" font-family="Helvetica,sans-Serif" font-size="10.00">cxx/ipc_string</text>
</a>
</g>
</g>
<!-- Node22&#45;&gt;Node25 -->
<g id="edge55_Node000022_Node000025" class="edge">
<title>Node22&#45;&gt;Node25</title>
<g id="a_edge55_Node000022_Node000025"><a xlink:title=" ">
<path fill="none" stroke="#63b8ff" d="M470.27,-617.07C516.24,-607.91 594.69,-592.28 646.69,-581.92"/>
<polygon fill="#63b8ff" stroke="#63b8ff" points="647.6,-585.31 656.72,-579.92 646.23,-578.45 647.6,-585.31"/>
</a>
</g>
</g>
<!-- Node23&#45;&gt;Node18 -->
<g id="edge54_Node000023_Node000018" class="edge">
<title>Node23&#45;&gt;Node18</title>
<g id="a_edge54_Node000023_Node000018"><a xlink:title=" ">
<path fill="none" stroke="#63b8ff" d="M472.74,-505.75C465.54,-498.11 454.89,-486.82 446.15,-477.56"/>
<polygon fill="#63b8ff" stroke="#63b8ff" points="448.51,-474.96 439.1,-470.09 443.42,-479.76 448.51,-474.96"/>
</a>
</g>
</g>
<!-- Node23&#45;&gt;Node20 -->
<g id="edge49_Node000023_Node000020" class="edge">
<title>Node23&#45;&gt;Node20</title>
<g id="a_edge49_Node000023_Node000020"><a xlink:title=" ">
<path fill="none" stroke="#63b8ff" d="M483.88,-505.85C488.8,-492.33 500.07,-466.16 518,-451 536.79,-435.11 561.82,-424.6 583.99,-417.8"/>
<polygon fill="#63b8ff" stroke="#63b8ff" points="584.98,-421.16 593.61,-415.02 583.04,-414.44 584.98,-421.16"/>
</a>
</g>
</g>
<!-- Node24 -->
<g id="Node000024" class="node">
<title>Node24</title>
<g id="a_Node000024"><a xlink:href="ipc__types.html" target="_top" xlink:title=" ">
<polygon fill="white" stroke="#666666" points="641.5,-470 526.5,-470 526.5,-451 641.5,-451 641.5,-470"/>
<text text-anchor="middle" x="584" y="-458" font-family="Helvetica,sans-Serif" font-size="10.00">l4/sys/cxx/ipc_types</text>
</a>
</g>
</g>
<!-- Node23&#45;&gt;Node24 -->
<g id="edge50_Node000023_Node000024" class="edge">
<title>Node23&#45;&gt;Node24</title>
<g id="a_edge50_Node000023_Node000024"><a xlink:title=" ">
<path fill="none" stroke="#63b8ff" d="M497.55,-505.98C513.89,-497.57 539.13,-484.59 558.13,-474.81"/>
<polygon fill="#63b8ff" stroke="#63b8ff" points="559.86,-477.86 567.15,-470.17 556.66,-471.63 559.86,-477.86"/>
</a>
</g>
</g>
<!-- Node24&#45;&gt;Node19 -->
<g id="edge52_Node000024_Node000019" class="edge">
<title>Node24&#45;&gt;Node19</title>
<g id="a_edge52_Node000024_Node000019"><a xlink:title=" ">
<path fill="none" stroke="#63b8ff" d="M618.77,-450.93C640.86,-444.1 668.96,-432.69 689,-415 704.69,-401.15 715.79,-379.61 722.26,-364.28"/>
<polygon fill="#63b8ff" stroke="#63b8ff" points="725.57,-365.42 725.99,-354.83 719.06,-362.85 725.57,-365.42"/>
</a>
</g>
</g>
<!-- Node24&#45;&gt;Node20 -->
<g id="edge53_Node000024_Node000020" class="edge">
<title>Node24&#45;&gt;Node20</title>
<g id="a_edge53_Node000024_Node000020"><a xlink:title=" ">
<path fill="none" stroke="#63b8ff" d="M592.59,-450.75C600.16,-443.03 611.38,-431.6 620.51,-422.28"/>
<polygon fill="#63b8ff" stroke="#63b8ff" points="623.07,-424.68 627.57,-415.09 618.07,-419.78 623.07,-424.68"/>
</a>
</g>
</g>
<!-- Node24&#45;&gt;Node21 -->
<g id="edge51_Node000024_Node000021" class="edge">
<title>Node24&#45;&gt;Node21</title>
<g id="a_edge51_Node000024_Node000021"><a xlink:title=" ">
<path fill="none" stroke="#63b8ff" d="M568.9,-450.98C554.18,-442.69 531.58,-429.94 514.33,-420.22"/>
<polygon fill="#63b8ff" stroke="#63b8ff" points="515.81,-417.03 505.38,-415.17 512.37,-423.13 515.81,-417.03"/>
</a>
</g>
</g>
<!-- Node25&#45;&gt;Node19 -->
<g id="edge56_Node000025_Node000019" class="edge">
<title>Node25&#45;&gt;Node19</title>
<g id="a_edge56_Node000025_Node000019"><a xlink:title=" ">
<path fill="none" stroke="#63b8ff" d="M723.81,-560.95C739.84,-553.99 759.43,-542.42 769,-525 798.58,-471.15 760.85,-396.78 740.47,-363.42"/>
<polygon fill="#63b8ff" stroke="#63b8ff" points="743.32,-361.39 735.02,-354.8 737.4,-365.13 743.32,-361.39"/>
</a>
</g>
</g>
<!-- Node25&#45;&gt;Node20 -->
<g id="edge57_Node000025_Node000020" class="edge">
<title>Node25&#45;&gt;Node20</title>
<g id="a_edge57_Node000025_Node000020"><a xlink:title=" ">
<path fill="none" stroke="#63b8ff" d="M695.61,-560.74C685.7,-535.09 656.59,-459.78 643.06,-424.78"/>
<polygon fill="#63b8ff" stroke="#63b8ff" points="646.27,-423.37 639.4,-415.31 639.74,-425.9 646.27,-423.37"/>
</a>
</g>
</g>
<!-- Node26 -->
<g id="Node000026" class="node">
<title>Node26</title>
<g id="a_Node000026"><a xlink:href="ipc__array_source.html" target="_top" xlink:title=" ">
<polygon fill="white" stroke="#666666" points="760,-525 698,-525 698,-506 760,-506 760,-525"/>
<text text-anchor="middle" x="729" y="-513" font-family="Helvetica,sans-Serif" font-size="10.00">ipc_array</text>
</a>
</g>
</g>
<!-- Node25&#45;&gt;Node26 -->
<g id="edge58_Node000025_Node000026" class="edge">
<title>Node25&#45;&gt;Node26</title>
<g id="a_edge58_Node000025_Node000026"><a xlink:title=" ">
<path fill="none" stroke="#63b8ff" d="M703.95,-560.75C708.06,-553.49 714.03,-542.95 719.1,-533.98"/>
<polygon fill="#63b8ff" stroke="#63b8ff" points="722.26,-535.52 724.14,-525.09 716.17,-532.07 722.26,-535.52"/>
</a>
</g>
</g>
<!-- Node26&#45;&gt;Node19 -->
<g id="edge59_Node000026_Node000019" class="edge">
<title>Node26&#45;&gt;Node19</title>
<g id="a_edge59_Node000026_Node000019"><a xlink:title=" ">
<path fill="none" stroke="#63b8ff" d="M729,-505.91C729,-479.89 729,-401.47 729,-365.01"/>
<polygon fill="#63b8ff" stroke="#63b8ff" points="732.5,-364.77 729,-354.77 725.5,-364.77 732.5,-364.77"/>
</a>
</g>
</g>
<!-- Node26&#45;&gt;Node20 -->
<g id="edge60_Node000026_Node000020" class="edge">
<title>Node26&#45;&gt;Node20</title>
<g id="a_edge60_Node000026_Node000020"><a xlink:title=" ">
<path fill="none" stroke="#63b8ff" d="M723.7,-505.87C715.77,-493.25 700.03,-469.29 684,-451 674.84,-440.56 663.49,-429.95 654.13,-421.7"/>
<polygon fill="#63b8ff" stroke="#63b8ff" points="656.37,-419.02 646.51,-415.14 651.8,-424.32 656.37,-419.02"/>
</a>
</g>
</g>
<!-- Node26&#45;&gt;Node24 -->
<g id="edge61_Node000026_Node000024" class="edge">
<title>Node26&#45;&gt;Node24</title>
<g id="a_edge61_Node000026_Node000024"><a xlink:title=" ">
<path fill="none" stroke="#63b8ff" d="M705.7,-505.98C681.75,-497.23 644.22,-483.51 617.17,-473.62"/>
<polygon fill="#63b8ff" stroke="#63b8ff" points="618.31,-470.32 607.72,-470.17 615.91,-476.89 618.31,-470.32"/>
</a>
</g>
</g>
</g>
</svg>
