<?xml version="1.0" encoding="UTF-8" standalone="no"?>
<!DOCTYPE svg PUBLIC "-//W3C//DTD SVG 1.1//EN"
 "http://www.w3.org/Graphics/SVG/1.1/DTD/svg11.dtd">
<!-- Generated by graphviz version 2.43.0 (0)
 -->
<!-- Title: l4/sys/__typeinfo.h Pages: 1 -->
<svg width="604pt" height="467pt"
 viewBox="0.00 0.00 603.50 467.00" xmlns="http://www.w3.org/2000/svg" xmlns:xlink="http://www.w3.org/1999/xlink">
<g id="graph0" class="graph" transform="scale(1 1) rotate(0) translate(4 463)">
<title>l4/sys/__typeinfo.h</title>
<!-- Node1 -->
<g id="Node000001" class="node">
<title>Node1</title>
<g id="a_Node000001"><a xlink:title="Type information handling.">
<polygon fill="#999999" stroke="#666666" points="158,-459 50,-459 50,-440 158,-440 158,-459"/>
<text text-anchor="middle" x="104" y="-447" font-family="Helvetica,sans-Serif" font-size="10.00">l4/sys/__typeinfo.h</text>
</a>
</g>
</g>
<!-- Node2 -->
<g id="Node000002" class="node">
<title>Node2</title>
<g id="a_Node000002"><a xlink:href="types.html" target="_top" xlink:title=" ">
<polygon fill="white" stroke="#666666" points="64,-349 0,-349 0,-330 64,-330 64,-349"/>
<text text-anchor="middle" x="32" y="-337" font-family="Helvetica,sans-Serif" font-size="10.00">cxx/types</text>
</a>
</g>
</g>
<!-- Node1&#45;&gt;Node2 -->
<g id="edge1_Node000001_Node000002" class="edge">
<title>Node1&#45;&gt;Node2</title>
<g id="a_edge1_Node000001_Node000002"><a xlink:title=" ">
<path fill="none" stroke="#63b8ff" d="M89.83,-439.99C77.84,-432.09 61.03,-419.26 51,-404 42.11,-390.48 37.25,-372.65 34.68,-359.33"/>
<polygon fill="#63b8ff" stroke="#63b8ff" points="38.12,-358.68 33.02,-349.39 31.22,-359.83 38.12,-358.68"/>
</a>
</g>
</g>
<!-- Node3 -->
<g id="Node000003" class="node">
<title>Node3</title>
<g id="a_Node000003"><a xlink:href="ipc__basics_source.html" target="_top" xlink:title=" ">
<polygon fill="white" stroke="#666666" points="147.5,-404 60.5,-404 60.5,-385 147.5,-385 147.5,-404"/>
<text text-anchor="middle" x="104" y="-392" font-family="Helvetica,sans-Serif" font-size="10.00">cxx/ipc_basics</text>
</a>
</g>
</g>
<!-- Node1&#45;&gt;Node3 -->
<g id="edge2_Node000001_Node000003" class="edge">
<title>Node1&#45;&gt;Node3</title>
<g id="a_edge2_Node000001_Node000003"><a xlink:title=" ">
<path fill="none" stroke="#63b8ff" d="M104,-439.75C104,-432.8 104,-422.85 104,-414.13"/>
<polygon fill="#63b8ff" stroke="#63b8ff" points="107.5,-414.09 104,-404.09 100.5,-414.09 107.5,-414.09"/>
</a>
</g>
</g>
<!-- Node13 -->
<g id="Node000013" class="node">
<title>Node13</title>
<g id="a_Node000013"><a xlink:href="capability_8h_source.html" target="_top" xlink:title=" ">
<polygon fill="white" stroke="#666666" points="346,-404 254,-404 254,-385 346,-385 346,-404"/>
<text text-anchor="middle" x="300" y="-392" font-family="Helvetica,sans-Serif" font-size="10.00">cxx/capability.h</text>
</a>
</g>
</g>
<!-- Node1&#45;&gt;Node13 -->
<g id="edge20_Node000001_Node000013" class="edge">
<title>Node1&#45;&gt;Node13</title>
<g id="a_edge20_Node000001_Node000013"><a xlink:title=" ">
<path fill="none" stroke="#63b8ff" d="M135.49,-439.98C168.82,-430.97 221.6,-416.7 258.35,-406.76"/>
<polygon fill="#63b8ff" stroke="#63b8ff" points="259.52,-410.07 268.26,-404.08 257.7,-403.31 259.52,-410.07"/>
</a>
</g>
</g>
<!-- Node3&#45;&gt;Node2 -->
<g id="edge3_Node000003_Node000002" class="edge">
<title>Node3&#45;&gt;Node2</title>
<g id="a_edge3_Node000003_Node000002"><a xlink:title=" ">
<path fill="none" stroke="#63b8ff" d="M92.43,-384.98C81.58,-377 65.12,-364.88 52.12,-355.31"/>
<polygon fill="#63b8ff" stroke="#63b8ff" points="53.91,-352.28 43.78,-349.17 49.76,-357.92 53.91,-352.28"/>
</a>
</g>
</g>
<!-- Node4 -->
<g id="Node000004" class="node">
<title>Node4</title>
<g id="a_Node000004"><a xlink:href="l4_2sys_2utcb_8h.html" target="_top" xlink:title="UTCB definitions.">
<polygon fill="white" stroke="#666666" points="225,-239 147,-239 147,-220 225,-220 225,-239"/>
<text text-anchor="middle" x="186" y="-227" font-family="Helvetica,sans-Serif" font-size="10.00">l4/sys/utcb.h</text>
</a>
</g>
</g>
<!-- Node3&#45;&gt;Node4 -->
<g id="edge4_Node000003_Node000004" class="edge">
<title>Node3&#45;&gt;Node4</title>
<g id="a_edge4_Node000003_Node000004"><a xlink:title=" ">
<path fill="none" stroke="#63b8ff" d="M106.25,-384.73C111.68,-364.47 126.7,-313.2 149,-275 154.94,-264.82 163.2,-254.63 170.41,-246.58"/>
<polygon fill="#63b8ff" stroke="#63b8ff" points="173.17,-248.75 177.4,-239.04 168.03,-243.99 173.17,-248.75"/>
</a>
</g>
</g>
<!-- Node12 -->
<g id="Node000012" class="node">
<title>Node12</title>
<g id="a_Node000012"><a xlink:href="err_8h.html" target="_top" xlink:title="Error codes.">
<polygon fill="white" stroke="#666666" points="127,-239 57,-239 57,-220 127,-220 127,-239"/>
<text text-anchor="middle" x="92" y="-227" font-family="Helvetica,sans-Serif" font-size="10.00">l4/sys/err.h</text>
</a>
</g>
</g>
<!-- Node3&#45;&gt;Node12 -->
<g id="edge18_Node000003_Node000012" class="edge">
<title>Node3&#45;&gt;Node12</title>
<g id="a_edge18_Node000003_Node000012"><a xlink:title=" ">
<path fill="none" stroke="#63b8ff" d="M103.35,-384.74C101.48,-359.31 96.02,-285.08 93.41,-249.69"/>
<polygon fill="#63b8ff" stroke="#63b8ff" points="96.87,-249.02 92.65,-239.31 89.89,-249.54 96.87,-249.02"/>
</a>
</g>
</g>
<!-- Node5 -->
<g id="Node000005" class="node">
<title>Node5</title>
<g id="a_Node000005"><a xlink:href="l4_2sys_2types_8h.html" target="_top" xlink:title="Common L4 ABI Data Types.">
<polygon fill="white" stroke="#666666" points="358,-184 274,-184 274,-165 358,-165 358,-184"/>
<text text-anchor="middle" x="316" y="-172" font-family="Helvetica,sans-Serif" font-size="10.00">l4/sys/types.h</text>
</a>
</g>
</g>
<!-- Node4&#45;&gt;Node5 -->
<g id="edge5_Node000004_Node000005" class="edge">
<title>Node4&#45;&gt;Node5</title>
<g id="a_edge5_Node000004_Node000005"><a xlink:title=" ">
<path fill="none" stroke="#63b8ff" d="M206.89,-219.98C228.08,-211.34 261.13,-197.87 285.3,-188.02"/>
<polygon fill="#63b8ff" stroke="#63b8ff" points="286.79,-191.19 294.73,-184.17 284.15,-184.7 286.79,-191.19"/>
</a>
</g>
</g>
<!-- Node6 -->
<g id="Node000006" class="node">
<title>Node6</title>
<g id="a_Node000006"><a xlink:href="l4_2sys_2l4int_8h.html" target="_top" xlink:title="Fixed sized integer types, generic version.">
<polygon fill="white" stroke="#666666" points="476.5,-74 397.5,-74 397.5,-55 476.5,-55 476.5,-74"/>
<text text-anchor="middle" x="437" y="-62" font-family="Helvetica,sans-Serif" font-size="10.00">l4/sys/l4int.h</text>
</a>
</g>
</g>
<!-- Node4&#45;&gt;Node6 -->
<g id="edge17_Node000004_Node000006" class="edge">
<title>Node4&#45;&gt;Node6</title>
<g id="a_edge17_Node000004_Node000006"><a xlink:title=" ">
<path fill="none" stroke="#63b8ff" d="M180.79,-219.82C168.66,-198.39 141.58,-142.34 169,-110 182.94,-93.55 313.76,-77.89 387.33,-70.29"/>
<polygon fill="#63b8ff" stroke="#63b8ff" points="387.72,-73.77 397.32,-69.27 387.01,-66.8 387.72,-73.77"/>
</a>
</g>
</g>
<!-- Node7 -->
<g id="Node000007" class="node">
<title>Node7</title>
<g id="a_Node000007"><a xlink:href="compiler_8h.html" target="_top" xlink:title="L4 compiler related defines.">
<polygon fill="white" stroke="#666666" points="282.5,-74 183.5,-74 183.5,-55 282.5,-55 282.5,-74"/>
<text text-anchor="middle" x="233" y="-62" font-family="Helvetica,sans-Serif" font-size="10.00">l4/sys/compiler.h</text>
</a>
</g>
</g>
<!-- Node4&#45;&gt;Node7 -->
<g id="edge16_Node000004_Node000007" class="edge">
<title>Node4&#45;&gt;Node7</title>
<g id="a_edge16_Node000004_Node000007"><a xlink:title=" ">
<path fill="none" stroke="#63b8ff" d="M170.57,-219.8C158.65,-212.11 143.04,-199.69 136,-184 122.54,-153.99 118.24,-137.68 136,-110 146.09,-94.28 163.27,-84.03 180.41,-77.4"/>
<polygon fill="#63b8ff" stroke="#63b8ff" points="181.6,-80.69 189.87,-74.07 179.28,-74.08 181.6,-80.69"/>
</a>
</g>
</g>
<!-- Node5&#45;&gt;Node6 -->
<g id="edge6_Node000005_Node000006" class="edge">
<title>Node5&#45;&gt;Node6</title>
<g id="a_edge6_Node000005_Node000006"><a xlink:title=" ">
<path fill="none" stroke="#63b8ff" d="M358.19,-166.06C395.86,-158.45 446.9,-145.44 459,-129 469.33,-114.97 460.13,-95.71 450.66,-82.09"/>
<polygon fill="#63b8ff" stroke="#63b8ff" points="453.42,-79.94 444.61,-74.06 447.84,-84.15 453.42,-79.94"/>
</a>
</g>
</g>
<!-- Node5&#45;&gt;Node7 -->
<g id="edge7_Node000005_Node000007" class="edge">
<title>Node5&#45;&gt;Node7</title>
<g id="a_edge7_Node000005_Node000007"><a xlink:title=" ">
<path fill="none" stroke="#63b8ff" d="M315.24,-164.9C313.71,-151.9 309.29,-126.96 297,-110 287.61,-97.04 273.23,-86.55 260.48,-79.02"/>
<polygon fill="#63b8ff" stroke="#63b8ff" points="262.02,-75.87 251.58,-74.07 258.62,-81.99 262.02,-75.87"/>
</a>
</g>
</g>
<!-- Node9 -->
<g id="Node000009" class="node">
<title>Node9</title>
<g id="a_Node000009"><a xlink:href="l4_2sys_2consts_8h.html" target="_top" xlink:title="Common constants.">
<polygon fill="white" stroke="#666666" points="595.5,-129 506.5,-129 506.5,-110 595.5,-110 595.5,-129"/>
<text text-anchor="middle" x="551" y="-117" font-family="Helvetica,sans-Serif" font-size="10.00">l4/sys/consts.h</text>
</a>
</g>
</g>
<!-- Node5&#45;&gt;Node9 -->
<g id="edge9_Node000005_Node000009" class="edge">
<title>Node5&#45;&gt;Node9</title>
<g id="a_edge9_Node000005_Node000009"><a xlink:title=" ">
<path fill="none" stroke="#63b8ff" d="M353.76,-164.98C394.32,-155.84 458.89,-141.27 503.03,-131.32"/>
<polygon fill="#63b8ff" stroke="#63b8ff" points="503.96,-134.7 512.95,-129.08 502.42,-127.87 503.96,-134.7"/>
</a>
</g>
</g>
<!-- Node10 -->
<g id="Node000010" class="node">
<title>Node10</title>
<g id="a_Node000010"><a xlink:href="____l4__fpage_8h_source.html" target="_top" xlink:title=" ">
<polygon fill="white" stroke="#666666" points="288,-129 178,-129 178,-110 288,-110 288,-129"/>
<text text-anchor="middle" x="233" y="-117" font-family="Helvetica,sans-Serif" font-size="10.00">l4/sys/__l4_fpage.h</text>
</a>
</g>
</g>
<!-- Node5&#45;&gt;Node10 -->
<g id="edge12_Node000005_Node000010" class="edge">
<title>Node5&#45;&gt;Node10</title>
<g id="a_edge12_Node000005_Node000010"><a xlink:title=" ">
<path fill="none" stroke="#63b8ff" d="M302.66,-164.98C289.91,-156.84 270.45,-144.41 255.33,-134.76"/>
<polygon fill="#63b8ff" stroke="#63b8ff" points="256.89,-131.6 246.58,-129.17 253.12,-137.5 256.89,-131.6"/>
</a>
</g>
</g>
<!-- Node11 -->
<g id="Node000011" class="node">
<title>Node11</title>
<g id="a_Node000011"><a xlink:href="____timeout_8h_source.html" target="_top" xlink:title=" ">
<polygon fill="white" stroke="#666666" points="450,-129 344,-129 344,-110 450,-110 450,-129"/>
<text text-anchor="middle" x="397" y="-117" font-family="Helvetica,sans-Serif" font-size="10.00">l4/sys/__timeout.h</text>
</a>
</g>
</g>
<!-- Node5&#45;&gt;Node11 -->
<g id="edge14_Node000005_Node000011" class="edge">
<title>Node5&#45;&gt;Node11</title>
<g id="a_edge14_Node000005_Node000011"><a xlink:title=" ">
<path fill="none" stroke="#63b8ff" d="M329.01,-164.98C341.46,-156.84 360.46,-144.41 375.21,-134.76"/>
<polygon fill="#63b8ff" stroke="#63b8ff" points="377.3,-137.57 383.75,-129.17 373.46,-131.72 377.3,-137.57"/>
</a>
</g>
</g>
<!-- Node8 -->
<g id="Node000008" class="node">
<title>Node8</title>
<g id="a_Node000008"><a xlink:title=" ">
<polygon fill="#e0e0e0" stroke="#999999" points="279,-19 187,-19 187,0 279,0 279,-19"/>
<text text-anchor="middle" x="233" y="-7" font-family="Helvetica,sans-Serif" font-size="10.00">l4/sys/linkage.h</text>
</a>
</g>
</g>
<!-- Node7&#45;&gt;Node8 -->
<g id="edge8_Node000007_Node000008" class="edge">
<title>Node7&#45;&gt;Node8</title>
<g id="a_edge8_Node000007_Node000008"><a xlink:title=" ">
<path fill="none" stroke="#63b8ff" d="M233,-54.75C233,-47.8 233,-37.85 233,-29.13"/>
<polygon fill="#63b8ff" stroke="#63b8ff" points="236.5,-29.09 233,-19.09 229.5,-29.09 236.5,-29.09"/>
</a>
</g>
</g>
<!-- Node9&#45;&gt;Node6 -->
<g id="edge11_Node000009_Node000006" class="edge">
<title>Node9&#45;&gt;Node6</title>
<g id="a_edge11_Node000009_Node000006"><a xlink:title=" ">
<path fill="none" stroke="#63b8ff" d="M532.68,-109.98C514.34,-101.46 485.89,-88.23 464.77,-78.41"/>
<polygon fill="#63b8ff" stroke="#63b8ff" points="466.19,-75.21 455.65,-74.17 463.24,-81.56 466.19,-75.21"/>
</a>
</g>
</g>
<!-- Node9&#45;&gt;Node7 -->
<g id="edge10_Node000009_Node000007" class="edge">
<title>Node9&#45;&gt;Node7</title>
<g id="a_edge10_Node000009_Node000007"><a xlink:title=" ">
<path fill="none" stroke="#63b8ff" d="M506.45,-111.07C450.67,-101.78 354.91,-85.82 292.79,-75.47"/>
<polygon fill="#63b8ff" stroke="#63b8ff" points="293.18,-71.98 282.74,-73.79 292.03,-78.89 293.18,-71.98"/>
</a>
</g>
</g>
<!-- Node10&#45;&gt;Node7 -->
<g id="edge13_Node000010_Node000007" class="edge">
<title>Node10&#45;&gt;Node7</title>
<g id="a_edge13_Node000010_Node000007"><a xlink:title=" ">
<path fill="none" stroke="#63b8ff" d="M233,-109.75C233,-102.8 233,-92.85 233,-84.13"/>
<polygon fill="#63b8ff" stroke="#63b8ff" points="236.5,-84.09 233,-74.09 229.5,-84.09 236.5,-84.09"/>
</a>
</g>
</g>
<!-- Node11&#45;&gt;Node6 -->
<g id="edge15_Node000011_Node000006" class="edge">
<title>Node11&#45;&gt;Node6</title>
<g id="a_edge15_Node000011_Node000006"><a xlink:title=" ">
<path fill="none" stroke="#63b8ff" d="M403.61,-109.75C409.26,-102.26 417.54,-91.28 424.45,-82.13"/>
<polygon fill="#63b8ff" stroke="#63b8ff" points="427.29,-84.18 430.52,-74.09 421.7,-79.96 427.29,-84.18"/>
</a>
</g>
</g>
<!-- Node12&#45;&gt;Node7 -->
<g id="edge19_Node000012_Node000007" class="edge">
<title>Node12&#45;&gt;Node7</title>
<g id="a_edge19_Node000012_Node000007"><a xlink:title=" ">
<path fill="none" stroke="#63b8ff" d="M91.77,-219.85C91.68,-198.49 94.36,-142.58 123,-110 137.02,-94.05 157.59,-83.73 177.15,-77.09"/>
<polygon fill="#63b8ff" stroke="#63b8ff" points="178.44,-80.36 186.95,-74.03 176.36,-73.67 178.44,-80.36"/>
</a>
</g>
</g>
<!-- Node13&#45;&gt;Node5 -->
<g id="edge22_Node000013_Node000005" class="edge">
<title>Node13&#45;&gt;Node5</title>
<g id="a_edge22_Node000013_Node000005"><a xlink:title=" ">
<path fill="none" stroke="#63b8ff" d="M302.48,-384.72C304.88,-375.81 308.39,-361.57 310,-349 317.18,-293.09 317.07,-226.27 316.49,-194.32"/>
<polygon fill="#63b8ff" stroke="#63b8ff" points="319.99,-194.13 316.27,-184.21 312.99,-194.29 319.99,-194.13"/>
</a>
</g>
</g>
<!-- Node13&#45;&gt;Node9 -->
<g id="edge21_Node000013_Node000009" class="edge">
<title>Node13&#45;&gt;Node9</title>
<g id="a_edge21_Node000013_Node000009"><a xlink:title=" ">
<path fill="none" stroke="#63b8ff" d="M314.7,-384.87C339.98,-368.79 389,-331.66 389,-285.5 389,-285.5 389,-285.5 389,-228.5 389,-174.38 452.37,-145.71 499.84,-131.83"/>
<polygon fill="#63b8ff" stroke="#63b8ff" points="501,-135.14 509.7,-129.08 499.13,-128.39 501,-135.14"/>
</a>
</g>
</g>
<!-- Node14 -->
<g id="Node000014" class="node">
<title>Node14</title>
<g id="a_Node000014"><a xlink:href="l4_2sys_2task_8h.html" target="_top" xlink:title="Common task related definitions.">
<polygon fill="white" stroke="#666666" points="301,-349 223,-349 223,-330 301,-330 301,-349"/>
<text text-anchor="middle" x="262" y="-337" font-family="Helvetica,sans-Serif" font-size="10.00">l4/sys/task.h</text>
</a>
</g>
</g>
<!-- Node13&#45;&gt;Node14 -->
<g id="edge23_Node000013_Node000014" class="edge">
<title>Node13&#45;&gt;Node14</title>
<g id="a_edge23_Node000013_Node000014"><a xlink:title=" ">
<path fill="none" stroke="#63b8ff" d="M293.73,-384.75C288.41,-377.34 280.64,-366.5 274.12,-357.41"/>
<polygon fill="#63b8ff" stroke="#63b8ff" points="276.83,-355.18 268.16,-349.09 271.14,-359.26 276.83,-355.18"/>
</a>
</g>
</g>
<!-- Node14&#45;&gt;Node4 -->
<g id="edge25_Node000014_Node000004" class="edge">
<title>Node14&#45;&gt;Node4</title>
<g id="a_edge25_Node000014_Node000004"><a xlink:title=" ">
<path fill="none" stroke="#63b8ff" d="M260.13,-329.62C257.1,-316.7 250.19,-292.36 238,-275 229.89,-263.45 218.12,-253.04 207.82,-245.2"/>
<polygon fill="#63b8ff" stroke="#63b8ff" points="209.78,-242.3 199.63,-239.25 205.66,-247.96 209.78,-242.3"/>
</a>
</g>
</g>
<!-- Node14&#45;&gt;Node5 -->
<g id="edge24_Node000014_Node000005" class="edge">
<title>Node14&#45;&gt;Node5</title>
<g id="a_edge24_Node000014_Node000005"><a xlink:title=" ">
<path fill="none" stroke="#63b8ff" d="M264.9,-329.74C273.36,-304.2 298.13,-229.43 309.79,-194.23"/>
<polygon fill="#63b8ff" stroke="#63b8ff" points="313.26,-194.9 313.08,-184.31 306.62,-192.7 313.26,-194.9"/>
</a>
</g>
</g>
<!-- Node15 -->
<g id="Node000015" class="node">
<title>Node15</title>
<g id="a_Node000015"><a xlink:href="l4_2sys_2ipc_8h.html" target="_top" xlink:title="Common IPC interface.">
<polygon fill="white" stroke="#666666" points="229.5,-294 158.5,-294 158.5,-275 229.5,-275 229.5,-294"/>
<text text-anchor="middle" x="194" y="-282" font-family="Helvetica,sans-Serif" font-size="10.00">l4/sys/ipc.h</text>
</a>
</g>
</g>
<!-- Node14&#45;&gt;Node15 -->
<g id="edge26_Node000014_Node000015" class="edge">
<title>Node14&#45;&gt;Node15</title>
<g id="a_edge26_Node000014_Node000015"><a xlink:title=" ">
<path fill="none" stroke="#63b8ff" d="M251.07,-329.98C240.92,-322.07 225.58,-310.11 213.35,-300.58"/>
<polygon fill="#63b8ff" stroke="#63b8ff" points="215.16,-297.56 205.12,-294.17 210.86,-303.08 215.16,-297.56"/>
</a>
</g>
</g>
<!-- Node15&#45;&gt;Node4 -->
<g id="edge28_Node000015_Node000004" class="edge">
<title>Node15&#45;&gt;Node4</title>
<g id="a_edge28_Node000015_Node000004"><a xlink:title=" ">
<path fill="none" stroke="#63b8ff" d="M192.68,-274.75C191.63,-267.8 190.13,-257.85 188.81,-249.13"/>
<polygon fill="#63b8ff" stroke="#63b8ff" points="192.25,-248.45 187.3,-239.09 185.33,-249.5 192.25,-248.45"/>
</a>
</g>
</g>
<!-- Node15&#45;&gt;Node5 -->
<g id="edge27_Node000015_Node000005" class="edge">
<title>Node15&#45;&gt;Node5</title>
<g id="a_edge27_Node000015_Node000005"><a xlink:title=" ">
<path fill="none" stroke="#63b8ff" d="M203.98,-274.66C224.73,-256.3 272.72,-213.81 298.64,-190.87"/>
<polygon fill="#63b8ff" stroke="#63b8ff" points="301.05,-193.41 306.22,-184.16 296.41,-188.17 301.05,-193.41"/>
</a>
</g>
</g>
<!-- Node15&#45;&gt;Node12 -->
<g id="edge29_Node000015_Node000012" class="edge">
<title>Node15&#45;&gt;Node12</title>
<g id="a_edge29_Node000015_Node000012"><a xlink:title=" ">
<path fill="none" stroke="#63b8ff" d="M177.61,-274.98C161.43,-266.57 136.43,-253.59 117.62,-243.81"/>
<polygon fill="#63b8ff" stroke="#63b8ff" points="119.17,-240.68 108.69,-239.17 115.95,-246.89 119.17,-240.68"/>
</a>
</g>
</g>
</g>
</svg>
