<?xml version="1.0" encoding="UTF-8" standalone="no"?>
<!DOCTYPE svg PUBLIC "-//W3C//DTD SVG 1.1//EN"
 "http://www.w3.org/Graphics/SVG/1.1/DTD/svg11.dtd">
<!-- Generated by graphviz version 2.42.4 (0)
 -->
<!-- Title: l4/sys/__typeinfo.h Pages: 1 -->
<svg width="558pt" height="467pt"
 viewBox="0.00 0.00 557.50 467.00" xmlns="http://www.w3.org/2000/svg" xmlns:xlink="http://www.w3.org/1999/xlink">
<g id="graph0" class="graph" transform="scale(1 1) rotate(0) translate(4 463)">
<title>l4/sys/__typeinfo.h</title>
<!-- Node1 -->
<g id="Node000001" class="node">
<title>Node1</title>
<g id="a_Node000001"><a xlink:title="Type information handling.">
<polygon fill="#999999" stroke="#666666" points="458.5,-459 350.5,-459 350.5,-440 458.5,-440 458.5,-459"/>
<text text-anchor="middle" x="404.5" y="-447" font-family="Helvetica,sans-Serif" font-size="10.00">l4/sys/__typeinfo.h</text>
</a>
</g>
</g>
<!-- Node2 -->
<g id="Node000002" class="node">
<title>Node2</title>
<g id="a_Node000002"><a xlink:href="types.html" target="_top" xlink:title=" ">
<polygon fill="white" stroke="#666666" points="448.5,-349 384.5,-349 384.5,-330 448.5,-330 448.5,-349"/>
<text text-anchor="middle" x="416.5" y="-337" font-family="Helvetica,sans-Serif" font-size="10.00">cxx/types</text>
</a>
</g>
</g>
<!-- Node1&#45;&gt;Node2 -->
<g id="edge1_Node000001_Node000002" class="edge">
<title>Node1&#45;&gt;Node2</title>
<g id="a_edge1_Node000001_Node000002"><a xlink:title=" ">
<path fill="none" stroke="#63b8ff" d="M405.48,-439.66C407.43,-422.17 411.8,-382.8 414.41,-359.27"/>
<polygon fill="#63b8ff" stroke="#63b8ff" points="417.91,-359.48 415.54,-349.16 410.95,-358.71 417.91,-359.48"/>
</a>
</g>
</g>
<!-- Node3 -->
<g id="Node000003" class="node">
<title>Node3</title>
<g id="a_Node000003"><a xlink:href="ipc__basics_source.html" target="_top" xlink:title=" ">
<polygon fill="white" stroke="#666666" points="520,-404 433,-404 433,-385 520,-385 520,-404"/>
<text text-anchor="middle" x="476.5" y="-392" font-family="Helvetica,sans-Serif" font-size="10.00">cxx/ipc_basics</text>
</a>
</g>
</g>
<!-- Node1&#45;&gt;Node3 -->
<g id="edge2_Node000001_Node000003" class="edge">
<title>Node1&#45;&gt;Node3</title>
<g id="a_edge2_Node000001_Node000003"><a xlink:title=" ">
<path fill="none" stroke="#63b8ff" d="M416.07,-439.98C426.92,-432 443.38,-419.88 456.38,-410.31"/>
<polygon fill="#63b8ff" stroke="#63b8ff" points="458.74,-412.92 464.72,-404.17 454.59,-407.28 458.74,-412.92"/>
</a>
</g>
</g>
<!-- Node13 -->
<g id="Node000013" class="node">
<title>Node13</title>
<g id="a_Node000013"><a xlink:href="capability_8h_source.html" target="_top" xlink:title=" ">
<polygon fill="white" stroke="#666666" points="340.5,-404 248.5,-404 248.5,-385 340.5,-385 340.5,-404"/>
<text text-anchor="middle" x="294.5" y="-392" font-family="Helvetica,sans-Serif" font-size="10.00">cxx/capability.h</text>
</a>
</g>
</g>
<!-- Node1&#45;&gt;Node13 -->
<g id="edge21_Node000001_Node000013" class="edge">
<title>Node1&#45;&gt;Node13</title>
<g id="a_edge21_Node000001_Node000013"><a xlink:title=" ">
<path fill="none" stroke="#63b8ff" d="M386.83,-439.98C369.21,-431.5 341.92,-418.35 321.57,-408.54"/>
<polygon fill="#63b8ff" stroke="#63b8ff" points="323.02,-405.36 312.49,-404.17 319.98,-411.66 323.02,-405.36"/>
</a>
</g>
</g>
<!-- Node3&#45;&gt;Node2 -->
<g id="edge3_Node000003_Node000002" class="edge">
<title>Node3&#45;&gt;Node2</title>
<g id="a_edge3_Node000003_Node000002"><a xlink:title=" ">
<path fill="none" stroke="#63b8ff" d="M466.86,-384.98C457.99,-377.15 444.63,-365.34 433.89,-355.86"/>
<polygon fill="#63b8ff" stroke="#63b8ff" points="436.13,-353.17 426.32,-349.17 431.49,-358.41 436.13,-353.17"/>
</a>
</g>
</g>
<!-- Node4 -->
<g id="Node000004" class="node">
<title>Node4</title>
<g id="a_Node000004"><a xlink:href="l4_2sys_2utcb_8h.html" target="_top" xlink:title="UTCB definitions.">
<polygon fill="white" stroke="#666666" points="446.5,-239 368.5,-239 368.5,-220 446.5,-220 446.5,-239"/>
<text text-anchor="middle" x="407.5" y="-227" font-family="Helvetica,sans-Serif" font-size="10.00">l4/sys/utcb.h</text>
</a>
</g>
</g>
<!-- Node3&#45;&gt;Node4 -->
<g id="edge4_Node000003_Node000004" class="edge">
<title>Node3&#45;&gt;Node4</title>
<g id="a_edge4_Node000003_Node000004"><a xlink:title=" ">
<path fill="none" stroke="#63b8ff" d="M476.32,-384.9C475.56,-364.56 471.63,-312.4 451.5,-275 445.43,-263.72 435.62,-253.39 426.8,-245.53"/>
<polygon fill="#63b8ff" stroke="#63b8ff" points="429.01,-242.82 419.11,-239.05 424.5,-248.17 429.01,-242.82"/>
</a>
</g>
</g>
<!-- Node12 -->
<g id="Node000012" class="node">
<title>Node12</title>
<g id="a_Node000012"><a xlink:href="err_8h.html" target="_top" xlink:title="Error codes.">
<polygon fill="white" stroke="#666666" points="549.5,-239 479.5,-239 479.5,-220 549.5,-220 549.5,-239"/>
<text text-anchor="middle" x="514.5" y="-227" font-family="Helvetica,sans-Serif" font-size="10.00">l4/sys/err.h</text>
</a>
</g>
</g>
<!-- Node3&#45;&gt;Node12 -->
<g id="edge19_Node000003_Node000012" class="edge">
<title>Node3&#45;&gt;Node12</title>
<g id="a_edge19_Node000003_Node000012"><a xlink:title=" ">
<path fill="none" stroke="#63b8ff" d="M479.56,-384.71C482.6,-375.79 487.26,-361.55 490.5,-349 499.51,-314.06 507.24,-272.62 511.35,-249.16"/>
<polygon fill="#63b8ff" stroke="#63b8ff" points="514.81,-249.64 513.06,-239.19 507.92,-248.46 514.81,-249.64"/>
</a>
</g>
</g>
<!-- Node5 -->
<g id="Node000005" class="node">
<title>Node5</title>
<g id="a_Node000005"><a xlink:href="l4_2sys_2types_8h.html" target="_top" xlink:title="Common L4 ABI Data Types.">
<polygon fill="white" stroke="#666666" points="344.5,-184 260.5,-184 260.5,-165 344.5,-165 344.5,-184"/>
<text text-anchor="middle" x="302.5" y="-172" font-family="Helvetica,sans-Serif" font-size="10.00">l4/sys/types.h</text>
</a>
</g>
</g>
<!-- Node4&#45;&gt;Node5 -->
<g id="edge5_Node000004_Node000005" class="edge">
<title>Node4&#45;&gt;Node5</title>
<g id="a_edge5_Node000004_Node000005"><a xlink:title=" ">
<path fill="none" stroke="#63b8ff" d="M390.63,-219.98C373.89,-211.54 348,-198.47 328.61,-188.68"/>
<polygon fill="#63b8ff" stroke="#63b8ff" points="330.18,-185.55 319.68,-184.17 327.03,-191.8 330.18,-185.55"/>
</a>
</g>
</g>
<!-- Node6 -->
<g id="Node000006" class="node">
<title>Node6</title>
<g id="a_Node000006"><a xlink:href="l4_2sys_2l4int_8h.html" target="_top" xlink:title="Fixed sized integer types, generic version.">
<polygon fill="white" stroke="#666666" points="198,-74 119,-74 119,-55 198,-55 198,-74"/>
<text text-anchor="middle" x="158.5" y="-62" font-family="Helvetica,sans-Serif" font-size="10.00">l4/sys/l4int.h</text>
</a>
</g>
</g>
<!-- Node4&#45;&gt;Node6 -->
<g id="edge18_Node000004_Node000006" class="edge">
<title>Node4&#45;&gt;Node6</title>
<g id="a_edge18_Node000004_Node000006"><a xlink:title=" ">
<path fill="none" stroke="#63b8ff" d="M409.08,-219.92C412.52,-198.21 418.21,-140.68 388.5,-110 364.09,-84.8 268.13,-73.35 208.14,-68.57"/>
<polygon fill="#63b8ff" stroke="#63b8ff" points="208.34,-65.08 198.11,-67.81 207.81,-72.06 208.34,-65.08"/>
</a>
</g>
</g>
<!-- Node7 -->
<g id="Node000007" class="node">
<title>Node7</title>
<g id="a_Node000007"><a xlink:href="compiler_8h.html" target="_top" xlink:title="L4 compiler related defines.">
<polygon fill="white" stroke="#666666" points="434,-74 335,-74 335,-55 434,-55 434,-74"/>
<text text-anchor="middle" x="384.5" y="-62" font-family="Helvetica,sans-Serif" font-size="10.00">l4/sys/compiler.h</text>
</a>
</g>
</g>
<!-- Node4&#45;&gt;Node7 -->
<g id="edge17_Node000004_Node000007" class="edge">
<title>Node4&#45;&gt;Node7</title>
<g id="a_edge17_Node000004_Node000007"><a xlink:title=" ">
<path fill="none" stroke="#63b8ff" d="M411.44,-219.94C416.56,-207.81 424.5,-184.87 421.5,-165 417,-135.19 403.14,-102.84 393.72,-83.38"/>
<polygon fill="#63b8ff" stroke="#63b8ff" points="396.75,-81.61 389.15,-74.22 390.49,-84.73 396.75,-81.61"/>
</a>
</g>
</g>
<!-- Node5&#45;&gt;Node6 -->
<g id="edge6_Node000005_Node000006" class="edge">
<title>Node5&#45;&gt;Node6</title>
<g id="a_edge6_Node000005_Node000006"><a xlink:title=" ">
<path fill="none" stroke="#63b8ff" d="M260.17,-168.03C216.11,-161.37 151.48,-148.53 136.5,-129 125.9,-115.18 135.14,-95.88 144.69,-82.2"/>
<polygon fill="#63b8ff" stroke="#63b8ff" points="147.56,-84.21 150.81,-74.13 141.98,-79.98 147.56,-84.21"/>
</a>
</g>
</g>
<!-- Node5&#45;&gt;Node7 -->
<g id="edge7_Node000005_Node000007" class="edge">
<title>Node5&#45;&gt;Node7</title>
<g id="a_edge7_Node000005_Node000007"><a xlink:title=" ">
<path fill="none" stroke="#63b8ff" d="M337.55,-164.88C356.15,-158.33 377.4,-147.24 388.5,-129 396.75,-115.45 394.48,-97.12 390.9,-83.64"/>
<polygon fill="#63b8ff" stroke="#63b8ff" points="394.23,-82.56 387.93,-74.05 387.55,-84.63 394.23,-82.56"/>
</a>
</g>
</g>
<!-- Node9 -->
<g id="Node000009" class="node">
<title>Node9</title>
<g id="a_Node000009"><a xlink:href="l4_2sys_2consts_8h.html" target="_top" xlink:title="Common constants.">
<polygon fill="white" stroke="#666666" points="89,-129 0,-129 0,-110 89,-110 89,-129"/>
<text text-anchor="middle" x="44.5" y="-117" font-family="Helvetica,sans-Serif" font-size="10.00">l4/sys/consts.h</text>
</a>
</g>
</g>
<!-- Node5&#45;&gt;Node9 -->
<g id="edge9_Node000005_Node000009" class="edge">
<title>Node5&#45;&gt;Node9</title>
<g id="a_edge9_Node000005_Node000009"><a xlink:title=" ">
<path fill="none" stroke="#63b8ff" d="M261.05,-164.98C216.23,-155.78 144.73,-141.09 96.25,-131.13"/>
<polygon fill="#63b8ff" stroke="#63b8ff" points="96.78,-127.67 86.28,-129.08 95.37,-134.52 96.78,-127.67"/>
</a>
</g>
</g>
<!-- Node10 -->
<g id="Node000010" class="node">
<title>Node10</title>
<g id="a_Node000010"><a xlink:href="____l4__fpage_8h_source.html" target="_top" xlink:title=" ">
<polygon fill="white" stroke="#666666" points="379.5,-129 269.5,-129 269.5,-110 379.5,-110 379.5,-129"/>
<text text-anchor="middle" x="324.5" y="-117" font-family="Helvetica,sans-Serif" font-size="10.00">l4/sys/__l4_fpage.h</text>
</a>
</g>
</g>
<!-- Node5&#45;&gt;Node10 -->
<g id="edge12_Node000005_Node000010" class="edge">
<title>Node5&#45;&gt;Node10</title>
<g id="a_edge12_Node000005_Node000010"><a xlink:title=" ">
<path fill="none" stroke="#63b8ff" d="M306.13,-164.75C309.08,-157.65 313.33,-147.4 317.01,-138.56"/>
<polygon fill="#63b8ff" stroke="#63b8ff" points="320.33,-139.67 320.93,-129.09 313.87,-136.98 320.33,-139.67"/>
</a>
</g>
</g>
<!-- Node11 -->
<g id="Node000011" class="node">
<title>Node11</title>
<g id="a_Node000011"><a xlink:href="____timeout_8h_source.html" target="_top" xlink:title=" ">
<polygon fill="white" stroke="#666666" points="251.5,-129 145.5,-129 145.5,-110 251.5,-110 251.5,-129"/>
<text text-anchor="middle" x="198.5" y="-117" font-family="Helvetica,sans-Serif" font-size="10.00">l4/sys/__timeout.h</text>
</a>
</g>
</g>
<!-- Node5&#45;&gt;Node11 -->
<g id="edge14_Node000005_Node000011" class="edge">
<title>Node5&#45;&gt;Node11</title>
<g id="a_edge14_Node000005_Node000011"><a xlink:title=" ">
<path fill="none" stroke="#63b8ff" d="M285.79,-164.98C269.29,-156.57 243.8,-143.59 224.62,-133.81"/>
<polygon fill="#63b8ff" stroke="#63b8ff" points="226.01,-130.59 215.51,-129.17 222.83,-136.83 226.01,-130.59"/>
</a>
</g>
</g>
<!-- Node8 -->
<g id="Node000008" class="node">
<title>Node8</title>
<g id="a_Node000008"><a xlink:title=" ">
<polygon fill="#e0e0e0" stroke="#999999" points="430.5,-19 338.5,-19 338.5,0 430.5,0 430.5,-19"/>
<text text-anchor="middle" x="384.5" y="-7" font-family="Helvetica,sans-Serif" font-size="10.00">l4/sys/linkage.h</text>
</a>
</g>
</g>
<!-- Node7&#45;&gt;Node8 -->
<g id="edge8_Node000007_Node000008" class="edge">
<title>Node7&#45;&gt;Node8</title>
<g id="a_edge8_Node000007_Node000008"><a xlink:title=" ">
<path fill="none" stroke="#63b8ff" d="M384.5,-54.75C384.5,-47.8 384.5,-37.85 384.5,-29.13"/>
<polygon fill="#63b8ff" stroke="#63b8ff" points="388,-29.09 384.5,-19.09 381,-29.09 388,-29.09"/>
</a>
</g>
</g>
<!-- Node9&#45;&gt;Node6 -->
<g id="edge11_Node000009_Node000006" class="edge">
<title>Node9&#45;&gt;Node6</title>
<g id="a_edge11_Node000009_Node000006"><a xlink:title=" ">
<path fill="none" stroke="#63b8ff" d="M62.82,-109.98C81.16,-101.46 109.61,-88.23 130.73,-78.41"/>
<polygon fill="#63b8ff" stroke="#63b8ff" points="132.26,-81.56 139.85,-74.17 129.31,-75.21 132.26,-81.56"/>
</a>
</g>
</g>
<!-- Node9&#45;&gt;Node7 -->
<g id="edge10_Node000009_Node000007" class="edge">
<title>Node9&#45;&gt;Node7</title>
<g id="a_edge10_Node000009_Node000007"><a xlink:title=" ">
<path fill="none" stroke="#63b8ff" d="M89.3,-111.52C149.76,-102.09 257.63,-85.28 324.89,-74.79"/>
<polygon fill="#63b8ff" stroke="#63b8ff" points="325.57,-78.23 334.91,-73.23 324.49,-71.31 325.57,-78.23"/>
</a>
</g>
</g>
<!-- Node10&#45;&gt;Node7 -->
<g id="edge13_Node000010_Node000007" class="edge">
<title>Node10&#45;&gt;Node7</title>
<g id="a_edge13_Node000010_Node000007"><a xlink:title=" ">
<path fill="none" stroke="#63b8ff" d="M334.14,-109.98C343.01,-102.15 356.37,-90.34 367.11,-80.86"/>
<polygon fill="#63b8ff" stroke="#63b8ff" points="369.51,-83.41 374.68,-74.17 364.87,-78.17 369.51,-83.41"/>
</a>
</g>
</g>
<!-- Node11&#45;&gt;Node6 -->
<g id="edge15_Node000011_Node000006" class="edge">
<title>Node11&#45;&gt;Node6</title>
<g id="a_edge15_Node000011_Node000006"><a xlink:title=" ">
<path fill="none" stroke="#63b8ff" d="M191.89,-109.75C186.24,-102.26 177.96,-91.28 171.05,-82.13"/>
<polygon fill="#63b8ff" stroke="#63b8ff" points="173.8,-79.96 164.98,-74.09 168.21,-84.18 173.8,-79.96"/>
</a>
</g>
</g>
<!-- Node11&#45;&gt;Node7 -->
<g id="edge16_Node000011_Node000007" class="edge">
<title>Node11&#45;&gt;Node7</title>
<g id="a_edge16_Node000011_Node000007"><a xlink:title=" ">
<path fill="none" stroke="#63b8ff" d="M228.38,-109.98C259.88,-101.01 309.67,-86.82 344.53,-76.89"/>
<polygon fill="#63b8ff" stroke="#63b8ff" points="345.72,-80.19 354.38,-74.08 343.81,-73.46 345.72,-80.19"/>
</a>
</g>
</g>
<!-- Node12&#45;&gt;Node7 -->
<g id="edge20_Node000012_Node000007" class="edge">
<title>Node12&#45;&gt;Node7</title>
<g id="a_edge20_Node000012_Node000007"><a xlink:title=" ">
<path fill="none" stroke="#63b8ff" d="M507.94,-219.77C493.04,-200 455.39,-150.39 422.5,-110 414.8,-100.55 405.97,-90.18 398.76,-81.83"/>
<polygon fill="#63b8ff" stroke="#63b8ff" points="401.39,-79.52 392.19,-74.26 396.1,-84.11 401.39,-79.52"/>
</a>
</g>
</g>
<!-- Node13&#45;&gt;Node5 -->
<g id="edge23_Node000013_Node000005" class="edge">
<title>Node13&#45;&gt;Node5</title>
<g id="a_edge23_Node000013_Node000005"><a xlink:title=" ">
<path fill="none" stroke="#63b8ff" d="M290.64,-384.85C286.94,-376.04 281.61,-361.87 279.5,-349 270.26,-292.67 286.97,-225.59 296.51,-193.86"/>
<polygon fill="#63b8ff" stroke="#63b8ff" points="299.89,-194.78 299.54,-184.19 293.21,-192.69 299.89,-194.78"/>
</a>
</g>
</g>
<!-- Node13&#45;&gt;Node9 -->
<g id="edge22_Node000013_Node000009" class="edge">
<title>Node13&#45;&gt;Node9</title>
<g id="a_edge22_Node000013_Node000009"><a xlink:title=" ">
<path fill="none" stroke="#63b8ff" d="M252.95,-385C204.65,-372.4 131.5,-343.72 131.5,-285.5 131.5,-285.5 131.5,-285.5 131.5,-228.5 131.5,-187.58 93.15,-153.39 67.38,-135.03"/>
<polygon fill="#63b8ff" stroke="#63b8ff" points="69.1,-131.97 58.87,-129.21 65.15,-137.75 69.1,-131.97"/>
</a>
</g>
</g>
<!-- Node14 -->
<g id="Node000014" class="node">
<title>Node14</title>
<g id="a_Node000014"><a xlink:href="l4_2sys_2task_8h.html" target="_top" xlink:title="Common task related definitions.">
<polygon fill="white" stroke="#666666" points="366.5,-349 288.5,-349 288.5,-330 366.5,-330 366.5,-349"/>
<text text-anchor="middle" x="327.5" y="-337" font-family="Helvetica,sans-Serif" font-size="10.00">l4/sys/task.h</text>
</a>
</g>
</g>
<!-- Node13&#45;&gt;Node14 -->
<g id="edge24_Node000013_Node000014" class="edge">
<title>Node13&#45;&gt;Node14</title>
<g id="a_edge24_Node000013_Node000014"><a xlink:title=" ">
<path fill="none" stroke="#63b8ff" d="M299.95,-384.75C304.51,-377.42 311.17,-366.73 316.79,-357.7"/>
<polygon fill="#63b8ff" stroke="#63b8ff" points="319.84,-359.43 322.15,-349.09 313.9,-355.73 319.84,-359.43"/>
</a>
</g>
</g>
<!-- Node14&#45;&gt;Node4 -->
<g id="edge26_Node000014_Node000004" class="edge">
<title>Node14&#45;&gt;Node4</title>
<g id="a_edge26_Node000014_Node000004"><a xlink:title=" ">
<path fill="none" stroke="#63b8ff" d="M331.31,-329.81C337.08,-317.12 348.83,-293.07 362.5,-275 370.41,-264.53 380.74,-254.15 389.5,-246.04"/>
<polygon fill="#63b8ff" stroke="#63b8ff" points="391.9,-248.59 397,-239.31 387.22,-243.39 391.9,-248.59"/>
</a>
</g>
</g>
<!-- Node14&#45;&gt;Node5 -->
<g id="edge25_Node000014_Node000005" class="edge">
<title>Node14&#45;&gt;Node5</title>
<g id="a_edge25_Node000014_Node000005"><a xlink:title=" ">
<path fill="none" stroke="#63b8ff" d="M326.16,-329.74C322.24,-304.2 310.77,-229.43 305.37,-194.23"/>
<polygon fill="#63b8ff" stroke="#63b8ff" points="308.83,-193.66 303.85,-184.31 301.91,-194.72 308.83,-193.66"/>
</a>
</g>
</g>
<!-- Node15 -->
<g id="Node000015" class="node">
<title>Node15</title>
<g id="a_Node000015"><a xlink:href="l4_2sys_2ipc_8h.html" target="_top" xlink:title="Common IPC interface.">
<polygon fill="white" stroke="#666666" points="442,-294 371,-294 371,-275 442,-275 442,-294"/>
<text text-anchor="middle" x="406.5" y="-282" font-family="Helvetica,sans-Serif" font-size="10.00">l4/sys/ipc.h</text>
</a>
</g>
</g>
<!-- Node14&#45;&gt;Node15 -->
<g id="edge27_Node000014_Node000015" class="edge">
<title>Node14&#45;&gt;Node15</title>
<g id="a_edge27_Node000014_Node000015"><a xlink:title=" ">
<path fill="none" stroke="#63b8ff" d="M340.19,-329.98C352.33,-321.84 370.86,-309.41 385.25,-299.76"/>
<polygon fill="#63b8ff" stroke="#63b8ff" points="387.22,-302.65 393.58,-294.17 383.32,-296.84 387.22,-302.65"/>
</a>
</g>
</g>
<!-- Node15&#45;&gt;Node4 -->
<g id="edge29_Node000015_Node000004" class="edge">
<title>Node15&#45;&gt;Node4</title>
<g id="a_edge29_Node000015_Node000004"><a xlink:title=" ">
<path fill="none" stroke="#63b8ff" d="M406.67,-274.75C406.8,-267.8 406.98,-257.85 407.15,-249.13"/>
<polygon fill="#63b8ff" stroke="#63b8ff" points="410.65,-249.15 407.34,-239.09 403.65,-249.02 410.65,-249.15"/>
</a>
</g>
</g>
<!-- Node15&#45;&gt;Node5 -->
<g id="edge28_Node000015_Node000005" class="edge">
<title>Node15&#45;&gt;Node5</title>
<g id="a_edge28_Node000015_Node000005"><a xlink:title=" ">
<path fill="none" stroke="#63b8ff" d="M396.92,-274.85C387.27,-266.04 372.04,-251.88 359.5,-239 344.41,-223.5 327.99,-205.03 316.67,-192.01"/>
<polygon fill="#63b8ff" stroke="#63b8ff" points="319.22,-189.61 310.03,-184.33 313.92,-194.18 319.22,-189.61"/>
</a>
</g>
</g>
<!-- Node15&#45;&gt;Node12 -->
<g id="edge30_Node000015_Node000012" class="edge">
<title>Node15&#45;&gt;Node12</title>
<g id="a_edge30_Node000015_Node000012"><a xlink:title=" ">
<path fill="none" stroke="#63b8ff" d="M423.85,-274.98C441.07,-266.54 467.7,-253.47 487.65,-243.68"/>
<polygon fill="#63b8ff" stroke="#63b8ff" points="489.4,-246.72 496.83,-239.17 486.31,-240.43 489.4,-246.72"/>
</a>
</g>
</g>
</g>
</svg>
