<?xml version="1.0" encoding="UTF-8" standalone="no"?>
<!DOCTYPE svg PUBLIC "-//W3C//DTD SVG 1.1//EN"
 "http://www.w3.org/Graphics/SVG/1.1/DTD/svg11.dtd">
<!-- Generated by graphviz version 2.43.0 (0)
 -->
<!-- Title: fiasco_amd64_set_segment_base Pages: 1 -->
<svg width="374pt" height="64pt"
 viewBox="0.00 0.00 374.00 64.00" xmlns="http://www.w3.org/2000/svg" xmlns:xlink="http://www.w3.org/1999/xlink">
<g id="graph0" class="graph" transform="scale(1 1) rotate(0) translate(4 60)">
<title>fiasco_amd64_set_segment_base</title>
<!-- Node1 -->
<g id="Node000001" class="node">
<title>Node1</title>
<g id="a_Node000001"><a xlink:title="Set the base address for a segment.">
<polygon fill="#999999" stroke="#666666" points="181,-37 0,-37 0,-18 181,-18 181,-37"/>
<text text-anchor="middle" x="90.5" y="-25" font-family="Helvetica,sans-Serif" font-size="10.00">fiasco_amd64_set_segment_base</text>
</a>
</g>
</g>
<!-- Node2 -->
<g id="Node000002" class="node">
<title>Node2</title>
<g id="a_Node000002"><a xlink:href="group__l4__ipc__api.html#gab96d1669dcd54657237ee27b7f6862c6" target="_top" xlink:title="Object call (usual invocation).">
<polygon fill="white" stroke="#666666" points="285,-56 217,-56 217,-37 285,-37 285,-56"/>
<text text-anchor="middle" x="251" y="-44" font-family="Helvetica,sans-Serif" font-size="10.00">l4_ipc_call</text>
</a>
</g>
</g>
<!-- Node1&#45;&gt;Node2 -->
<g id="edge1_Node000001_Node000002" class="edge">
<title>Node1&#45;&gt;Node2</title>
<g id="a_edge1_Node000001_Node000002"><a xlink:title=" ">
<path fill="none" stroke="#63b8ff" d="M171.21,-37.06C183.37,-38.51 195.5,-39.97 206.48,-41.28"/>
<polygon fill="#63b8ff" stroke="#63b8ff" points="206.27,-44.78 216.62,-42.5 207.1,-37.83 206.27,-44.78"/>
</a>
</g>
</g>
<!-- Node4 -->
<g id="Node000004" class="node">
<title>Node4</title>
<g id="a_Node000004"><a xlink:href="group__l4__msgtag__api.html#ga661d71acad9d096fa990f7c94943bc78" target="_top" xlink:title="Create a message tag from the specified values.">
<polygon fill="white" stroke="#666666" points="285,-19 217,-19 217,0 285,0 285,-19"/>
<text text-anchor="middle" x="251" y="-7" font-family="Helvetica,sans-Serif" font-size="10.00">l4_msgtag</text>
</a>
</g>
</g>
<!-- Node1&#45;&gt;Node4 -->
<g id="edge3_Node000001_Node000004" class="edge">
<title>Node1&#45;&gt;Node4</title>
<g id="a_edge3_Node000001_Node000004"><a xlink:title=" ">
<path fill="none" stroke="#63b8ff" d="M175.39,-17.97C186.19,-16.75 196.87,-15.53 206.63,-14.43"/>
<polygon fill="#63b8ff" stroke="#63b8ff" points="207.28,-17.87 216.82,-13.27 206.49,-10.92 207.28,-17.87"/>
</a>
</g>
</g>
<!-- Node3 -->
<g id="Node000003" class="node">
<title>Node3</title>
<g id="a_Node000003"><a xlink:href="group__l4__ipc__api.html#ga1caa56d45e0453b3002e7f5cfdb0dec7" target="_top" xlink:title="Generic L4 object invocation.">
<polygon fill="white" stroke="#666666" points="366,-56 321,-56 321,-37 366,-37 366,-56"/>
<text text-anchor="middle" x="343.5" y="-44" font-family="Helvetica,sans-Serif" font-size="10.00">l4_ipc</text>
</a>
</g>
</g>
<!-- Node2&#45;&gt;Node3 -->
<g id="edge2_Node000002_Node000003" class="edge">
<title>Node2&#45;&gt;Node3</title>
<g id="a_edge2_Node000002_Node000003"><a xlink:title=" ">
<path fill="none" stroke="#63b8ff" d="M285.18,-46.5C293.56,-46.5 302.52,-46.5 310.82,-46.5"/>
<polygon fill="#63b8ff" stroke="#63b8ff" points="310.87,-50 320.87,-46.5 310.87,-43 310.87,-50"/>
</a>
</g>
</g>
</g>
</svg>
