<?xml version="1.0" encoding="UTF-8" standalone="no"?>
<!DOCTYPE svg PUBLIC "-//W3C//DTD SVG 1.1//EN"
 "http://www.w3.org/Graphics/SVG/1.1/DTD/svg11.dtd">
<!-- Generated by graphviz version 2.43.0 (0)
 -->
<!-- Title: amd64/l4/util/rdtsc.h Pages: 1 -->
<svg width="558pt" height="357pt"
 viewBox="0.00 0.00 558.00 357.00" xmlns="http://www.w3.org/2000/svg" xmlns:xlink="http://www.w3.org/1999/xlink">
<g id="graph0" class="graph" transform="scale(1 1) rotate(0) translate(4 353)">
<title>amd64/l4/util/rdtsc.h</title>
<!-- Node1 -->
<g id="Node000001" class="node">
<title>Node1</title>
<g id="a_Node000001"><a xlink:title="Timestamp counter related functions.">
<polygon fill="#999999" stroke="#666666" points="267.5,-349 150.5,-349 150.5,-330 267.5,-330 267.5,-349"/>
<text text-anchor="middle" x="209" y="-337" font-family="Helvetica,sans-Serif" font-size="10.00">amd64/l4/util/rdtsc.h</text>
</a>
</g>
</g>
<!-- Node2 -->
<g id="Node000002" class="node">
<title>Node2</title>
<g id="a_Node000002"><a xlink:href="compiler_8h.html" target="_top" xlink:title="L4 compiler related defines.">
<polygon fill="white" stroke="#666666" points="478.5,-74 379.5,-74 379.5,-55 478.5,-55 478.5,-74"/>
<text text-anchor="middle" x="429" y="-62" font-family="Helvetica,sans-Serif" font-size="10.00">l4/sys/compiler.h</text>
</a>
</g>
</g>
<!-- Node1&#45;&gt;Node2 -->
<g id="edge1_Node000001_Node000002" class="edge">
<title>Node1&#45;&gt;Node2</title>
<g id="a_edge1_Node000001_Node000002"><a xlink:title=" ">
<path fill="none" stroke="#63b8ff" d="M267.62,-332.14C365.12,-319.92 550,-289.03 550,-230.5 550,-230.5 550,-230.5 550,-173.5 550,-126.14 497.77,-94.4 461.94,-78.19"/>
<polygon fill="#63b8ff" stroke="#63b8ff" points="462.9,-74.79 452.33,-74.03 460.12,-81.21 462.9,-74.79"/>
</a>
</g>
</g>
<!-- Node4 -->
<g id="Node000004" class="node">
<title>Node4</title>
<g id="a_Node000004"><a xlink:href="l4_2sys_2l4int_8h.html" target="_top" xlink:title="Fixed sized integer types, generic version.">
<polygon fill="white" stroke="#666666" points="115.5,-74 36.5,-74 36.5,-55 115.5,-55 115.5,-74"/>
<text text-anchor="middle" x="76" y="-62" font-family="Helvetica,sans-Serif" font-size="10.00">l4/sys/l4int.h</text>
</a>
</g>
</g>
<!-- Node1&#45;&gt;Node4 -->
<g id="edge3_Node000001_Node000004" class="edge">
<title>Node1&#45;&gt;Node4</title>
<g id="a_edge3_Node000001_Node000004"><a xlink:title=" ">
<path fill="none" stroke="#63b8ff" d="M150.23,-333.06C88.41,-323.73 0,-298.5 0,-230.5 0,-230.5 0,-230.5 0,-173.5 0,-134.47 33.61,-99.58 56.13,-80.6"/>
<polygon fill="#63b8ff" stroke="#63b8ff" points="58.56,-83.14 64.12,-74.12 54.15,-77.7 58.56,-83.14"/>
</a>
</g>
</g>
<!-- Node5 -->
<g id="Node000005" class="node">
<title>Node5</title>
<g id="a_Node000005"><a xlink:href="sys_2kip_8h.html" target="_top" xlink:title="Kernel Info Page access functions.">
<polygon fill="white" stroke="#666666" points="245,-294 173,-294 173,-275 245,-275 245,-294"/>
<text text-anchor="middle" x="209" y="-282" font-family="Helvetica,sans-Serif" font-size="10.00">l4/sys/kip.h</text>
</a>
</g>
</g>
<!-- Node1&#45;&gt;Node5 -->
<g id="edge4_Node000001_Node000005" class="edge">
<title>Node1&#45;&gt;Node5</title>
<g id="a_edge4_Node000001_Node000005"><a xlink:title=" ">
<path fill="none" stroke="#63b8ff" d="M209,-329.75C209,-322.8 209,-312.85 209,-304.13"/>
<polygon fill="#63b8ff" stroke="#63b8ff" points="212.5,-304.09 209,-294.09 205.5,-304.09 212.5,-304.09"/>
</a>
</g>
</g>
<!-- Node3 -->
<g id="Node000003" class="node">
<title>Node3</title>
<g id="a_Node000003"><a xlink:title=" ">
<polygon fill="#e0e0e0" stroke="#999999" points="475,-19 383,-19 383,0 475,0 475,-19"/>
<text text-anchor="middle" x="429" y="-7" font-family="Helvetica,sans-Serif" font-size="10.00">l4/sys/linkage.h</text>
</a>
</g>
</g>
<!-- Node2&#45;&gt;Node3 -->
<g id="edge2_Node000002_Node000003" class="edge">
<title>Node2&#45;&gt;Node3</title>
<g id="a_edge2_Node000002_Node000003"><a xlink:title=" ">
<path fill="none" stroke="#63b8ff" d="M429,-54.75C429,-47.8 429,-37.85 429,-29.13"/>
<polygon fill="#63b8ff" stroke="#63b8ff" points="432.5,-29.09 429,-19.09 425.5,-29.09 432.5,-29.09"/>
</a>
</g>
</g>
<!-- Node5&#45;&gt;Node2 -->
<g id="edge5_Node000005_Node000002" class="edge">
<title>Node5&#45;&gt;Node2</title>
<g id="a_edge5_Node000005_Node000002"><a xlink:title=" ">
<path fill="none" stroke="#63b8ff" d="M245.11,-277.1C309.92,-263.37 443.8,-224.25 493,-129 503.69,-108.31 480.35,-90.23 458.91,-78.71"/>
<polygon fill="#63b8ff" stroke="#63b8ff" points="460.45,-75.56 449.95,-74.18 457.3,-81.81 460.45,-75.56"/>
</a>
</g>
</g>
<!-- Node5&#45;&gt;Node4 -->
<g id="edge6_Node000005_Node000004" class="edge">
<title>Node5&#45;&gt;Node4</title>
<g id="a_edge6_Node000005_Node000004"><a xlink:title=" ">
<path fill="none" stroke="#63b8ff" d="M172.71,-281.33C143.37,-277.46 103.66,-267 83,-239 48.74,-192.58 61.79,-118.61 70.56,-84.22"/>
<polygon fill="#63b8ff" stroke="#63b8ff" points="74.05,-84.74 73.3,-74.17 67.29,-82.9 74.05,-84.74"/>
</a>
</g>
</g>
<!-- Node6 -->
<g id="Node000006" class="node">
<title>Node6</title>
<g id="a_Node000006"><a xlink:title=" ">
<polygon fill="#e0e0e0" stroke="#999999" points="199.5,-239 92.5,-239 92.5,-220 199.5,-220 199.5,-239"/>
<text text-anchor="middle" x="146" y="-227" font-family="Helvetica,sans-Serif" font-size="10.00">l4/sys/__kip&#45;arch.h</text>
</a>
</g>
</g>
<!-- Node5&#45;&gt;Node6 -->
<g id="edge7_Node000005_Node000006" class="edge">
<title>Node5&#45;&gt;Node6</title>
<g id="a_edge7_Node000005_Node000006"><a xlink:title=" ">
<path fill="none" stroke="#63b8ff" d="M198.88,-274.98C189.56,-267.15 175.53,-255.34 164.26,-245.86"/>
<polygon fill="#63b8ff" stroke="#63b8ff" points="166.21,-242.93 156.31,-239.17 161.71,-248.29 166.21,-242.93"/>
</a>
</g>
</g>
<!-- Node7 -->
<g id="Node000007" class="node">
<title>Node7</title>
<g id="a_Node000007"><a xlink:href="____kip-64bit_8h_source.html" target="_top" xlink:title=" ">
<polygon fill="white" stroke="#666666" points="328.5,-239 217.5,-239 217.5,-220 328.5,-220 328.5,-239"/>
<text text-anchor="middle" x="273" y="-227" font-family="Helvetica,sans-Serif" font-size="10.00">l4/sys/__kip&#45;64bit.h</text>
</a>
</g>
</g>
<!-- Node5&#45;&gt;Node7 -->
<g id="edge8_Node000005_Node000007" class="edge">
<title>Node5&#45;&gt;Node7</title>
<g id="a_edge8_Node000005_Node000007"><a xlink:title=" ">
<path fill="none" stroke="#63b8ff" d="M219.28,-274.98C228.84,-267.07 243.28,-255.11 254.78,-245.58"/>
<polygon fill="#63b8ff" stroke="#63b8ff" points="257.06,-248.24 262.53,-239.17 252.6,-242.85 257.06,-248.24"/>
</a>
</g>
</g>
<!-- Node8 -->
<g id="Node000008" class="node">
<title>Node8</title>
<g id="a_Node000008"><a xlink:href="l4_2sys_2types_8h.html" target="_top" xlink:title="Common L4 ABI Data Types.">
<polygon fill="white" stroke="#666666" points="315,-184 231,-184 231,-165 315,-165 315,-184"/>
<text text-anchor="middle" x="273" y="-172" font-family="Helvetica,sans-Serif" font-size="10.00">l4/sys/types.h</text>
</a>
</g>
</g>
<!-- Node7&#45;&gt;Node8 -->
<g id="edge9_Node000007_Node000008" class="edge">
<title>Node7&#45;&gt;Node8</title>
<g id="a_edge9_Node000007_Node000008"><a xlink:title=" ">
<path fill="none" stroke="#63b8ff" d="M273,-219.75C273,-212.8 273,-202.85 273,-194.13"/>
<polygon fill="#63b8ff" stroke="#63b8ff" points="276.5,-194.09 273,-184.09 269.5,-194.09 276.5,-194.09"/>
</a>
</g>
</g>
<!-- Node8&#45;&gt;Node2 -->
<g id="edge11_Node000008_Node000002" class="edge">
<title>Node8&#45;&gt;Node2</title>
<g id="a_edge11_Node000008_Node000002"><a xlink:title=" ">
<path fill="none" stroke="#63b8ff" d="M285.5,-164.84C312.2,-146.36 375.04,-102.86 407.99,-80.05"/>
<polygon fill="#63b8ff" stroke="#63b8ff" points="410.21,-82.77 416.44,-74.2 406.22,-77.01 410.21,-82.77"/>
</a>
</g>
</g>
<!-- Node8&#45;&gt;Node4 -->
<g id="edge10_Node000008_Node000004" class="edge">
<title>Node8&#45;&gt;Node4</title>
<g id="a_edge10_Node000008_Node000004"><a xlink:title=" ">
<path fill="none" stroke="#63b8ff" d="M230.81,-167.83C184.54,-160.79 114.29,-147.43 95,-129 82.92,-117.46 78.43,-98.58 76.81,-84.41"/>
<polygon fill="#63b8ff" stroke="#63b8ff" points="80.28,-83.98 76.03,-74.27 73.31,-84.51 80.28,-83.98"/>
</a>
</g>
</g>
<!-- Node9 -->
<g id="Node000009" class="node">
<title>Node9</title>
<g id="a_Node000009"><a xlink:href="l4_2sys_2consts_8h.html" target="_top" xlink:title="Common constants.">
<polygon fill="white" stroke="#666666" points="317.5,-129 228.5,-129 228.5,-110 317.5,-110 317.5,-129"/>
<text text-anchor="middle" x="273" y="-117" font-family="Helvetica,sans-Serif" font-size="10.00">l4/sys/consts.h</text>
</a>
</g>
</g>
<!-- Node8&#45;&gt;Node9 -->
<g id="edge12_Node000008_Node000009" class="edge">
<title>Node8&#45;&gt;Node9</title>
<g id="a_edge12_Node000008_Node000009"><a xlink:title=" ">
<path fill="none" stroke="#63b8ff" d="M273,-164.75C273,-157.8 273,-147.85 273,-139.13"/>
<polygon fill="#63b8ff" stroke="#63b8ff" points="276.5,-139.09 273,-129.09 269.5,-139.09 276.5,-139.09"/>
</a>
</g>
</g>
<!-- Node10 -->
<g id="Node000010" class="node">
<title>Node10</title>
<g id="a_Node000010"><a xlink:href="____l4__fpage_8h_source.html" target="_top" xlink:title=" ">
<polygon fill="white" stroke="#666666" points="484,-129 374,-129 374,-110 484,-110 484,-129"/>
<text text-anchor="middle" x="429" y="-117" font-family="Helvetica,sans-Serif" font-size="10.00">l4/sys/__l4_fpage.h</text>
</a>
</g>
</g>
<!-- Node8&#45;&gt;Node10 -->
<g id="edge15_Node000008_Node000010" class="edge">
<title>Node8&#45;&gt;Node10</title>
<g id="a_edge15_Node000008_Node000010"><a xlink:title=" ">
<path fill="none" stroke="#63b8ff" d="M298.06,-164.98C324.03,-156.16 364.81,-142.31 393.96,-132.41"/>
<polygon fill="#63b8ff" stroke="#63b8ff" points="395.4,-135.61 403.74,-129.08 393.15,-128.99 395.4,-135.61"/>
</a>
</g>
</g>
<!-- Node11 -->
<g id="Node000011" class="node">
<title>Node11</title>
<g id="a_Node000011"><a xlink:href="____timeout_8h_source.html" target="_top" xlink:title=" ">
<polygon fill="white" stroke="#666666" points="210,-129 104,-129 104,-110 210,-110 210,-129"/>
<text text-anchor="middle" x="157" y="-117" font-family="Helvetica,sans-Serif" font-size="10.00">l4/sys/__timeout.h</text>
</a>
</g>
</g>
<!-- Node8&#45;&gt;Node11 -->
<g id="edge17_Node000008_Node000011" class="edge">
<title>Node8&#45;&gt;Node11</title>
<g id="a_edge17_Node000008_Node000011"><a xlink:title=" ">
<path fill="none" stroke="#63b8ff" d="M254.36,-164.98C235.7,-156.46 206.75,-143.23 185.26,-133.41"/>
<polygon fill="#63b8ff" stroke="#63b8ff" points="186.53,-130.14 175.98,-129.17 183.62,-136.51 186.53,-130.14"/>
</a>
</g>
</g>
<!-- Node9&#45;&gt;Node2 -->
<g id="edge13_Node000009_Node000002" class="edge">
<title>Node9&#45;&gt;Node2</title>
<g id="a_edge13_Node000009_Node000002"><a xlink:title=" ">
<path fill="none" stroke="#63b8ff" d="M298.06,-109.98C324.03,-101.16 364.81,-87.31 393.96,-77.41"/>
<polygon fill="#63b8ff" stroke="#63b8ff" points="395.4,-80.61 403.74,-74.08 393.15,-73.99 395.4,-80.61"/>
</a>
</g>
</g>
<!-- Node9&#45;&gt;Node4 -->
<g id="edge14_Node000009_Node000004" class="edge">
<title>Node9&#45;&gt;Node4</title>
<g id="a_edge14_Node000009_Node000004"><a xlink:title=" ">
<path fill="none" stroke="#63b8ff" d="M241.35,-109.98C207.84,-100.97 154.8,-86.7 117.86,-76.76"/>
<polygon fill="#63b8ff" stroke="#63b8ff" points="118.47,-73.3 107.9,-74.08 116.65,-80.06 118.47,-73.3"/>
</a>
</g>
</g>
<!-- Node10&#45;&gt;Node2 -->
<g id="edge16_Node000010_Node000002" class="edge">
<title>Node10&#45;&gt;Node2</title>
<g id="a_edge16_Node000010_Node000002"><a xlink:title=" ">
<path fill="none" stroke="#63b8ff" d="M429,-109.75C429,-102.8 429,-92.85 429,-84.13"/>
<polygon fill="#63b8ff" stroke="#63b8ff" points="432.5,-84.09 429,-74.09 425.5,-84.09 432.5,-84.09"/>
</a>
</g>
</g>
<!-- Node11&#45;&gt;Node4 -->
<g id="edge18_Node000011_Node000004" class="edge">
<title>Node11&#45;&gt;Node4</title>
<g id="a_edge18_Node000011_Node000004"><a xlink:title=" ">
<path fill="none" stroke="#63b8ff" d="M143.99,-109.98C131.54,-101.84 112.54,-89.41 97.79,-79.76"/>
<polygon fill="#63b8ff" stroke="#63b8ff" points="99.54,-76.72 89.25,-74.17 95.7,-82.57 99.54,-76.72"/>
</a>
</g>
</g>
</g>
</svg>
