<?xml version="1.0" encoding="UTF-8" standalone="no"?>
<!DOCTYPE svg PUBLIC "-//W3C//DTD SVG 1.1//EN"
 "http://www.w3.org/Graphics/SVG/1.1/DTD/svg11.dtd">
<!-- Generated by graphviz version 2.43.0 (0)
 -->
<!-- Title: l4/sys/arm_smccc Pages: 1 -->
<svg width="747pt" height="753pt"
 viewBox="0.00 0.00 747.29 753.00" xmlns="http://www.w3.org/2000/svg" xmlns:xlink="http://www.w3.org/1999/xlink">
<g id="graph0" class="graph" transform="scale(1 1) rotate(0) translate(4 749)">
<title>l4/sys/arm_smccc</title>
<!-- Node1 -->
<g id="Node000001" class="node">
<title>Node1</title>
<g id="a_Node000001"><a xlink:title="ARM secure monitor call functions.">
<polygon fill="#999999" stroke="#666666" points="354,-745 250,-745 250,-726 354,-726 354,-745"/>
<text text-anchor="middle" x="302" y="-733" font-family="Helvetica,sans-Serif" font-size="10.00">l4/sys/arm_smccc</text>
</a>
</g>
</g>
<!-- Node2 -->
<g id="Node000002" class="node">
<title>Node2</title>
<g id="a_Node000002"><a xlink:href="capability.html" target="_top" xlink:title="L4::Cap related definitions.">
<polygon fill="white" stroke="#666666" points="285,-690 189,-690 189,-671 285,-671 285,-690"/>
<text text-anchor="middle" x="237" y="-678" font-family="Helvetica,sans-Serif" font-size="10.00">l4/sys/capability</text>
</a>
</g>
</g>
<!-- Node1&#45;&gt;Node2 -->
<g id="edge1_Node000001_Node000002" class="edge">
<title>Node1&#45;&gt;Node2</title>
<g id="a_edge1_Node000001_Node000002"><a xlink:title=" ">
<path fill="none" stroke="#63b8ff" d="M291.55,-725.98C281.85,-718.07 267.18,-706.11 255.5,-696.58"/>
<polygon fill="#63b8ff" stroke="#63b8ff" points="257.59,-693.78 247.63,-690.17 253.17,-699.2 257.59,-693.78"/>
</a>
</g>
</g>
<!-- Node22 -->
<g id="Node000022" class="node">
<title>Node22</title>
<g id="a_Node000022"><a xlink:href="ipc__iface.html" target="_top" xlink:title="Interface Definition Language.">
<polygon fill="white" stroke="#666666" points="436,-525 356,-525 356,-506 436,-506 436,-525"/>
<text text-anchor="middle" x="396" y="-513" font-family="Helvetica,sans-Serif" font-size="10.00">cxx/ipc_iface</text>
</a>
</g>
</g>
<!-- Node1&#45;&gt;Node22 -->
<g id="edge60_Node000001_Node000022" class="edge">
<title>Node1&#45;&gt;Node22</title>
<g id="a_edge60_Node000001_Node000022"><a xlink:title=" ">
<path fill="none" stroke="#63b8ff" d="M309.64,-725.87C323.78,-709.41 354.07,-671.88 370,-635 384.42,-601.6 391.22,-559.32 394.11,-535.35"/>
<polygon fill="#63b8ff" stroke="#63b8ff" points="397.62,-535.5 395.24,-525.18 390.66,-534.73 397.62,-535.5"/>
</a>
</g>
</g>
<!-- Node3 -->
<g id="Node000003" class="node">
<title>Node3</title>
<g id="a_Node000003"><a xlink:href="l4_2sys_2consts_8h.html" target="_top" xlink:title="Common constants.">
<polygon fill="white" stroke="#666666" points="228.5,-129 139.5,-129 139.5,-110 228.5,-110 228.5,-129"/>
<text text-anchor="middle" x="184" y="-117" font-family="Helvetica,sans-Serif" font-size="10.00">l4/sys/consts.h</text>
</a>
</g>
</g>
<!-- Node2&#45;&gt;Node3 -->
<g id="edge2_Node000002_Node000003" class="edge">
<title>Node2&#45;&gt;Node3</title>
<g id="a_edge2_Node000002_Node000003"><a xlink:title=" ">
<path fill="none" stroke="#63b8ff" d="M188.79,-675.54C127.06,-667.54 28,-643.49 28,-571.5 28,-571.5 28,-571.5 28,-228.5 28,-175.1 90.55,-146.02 136.43,-131.88"/>
<polygon fill="#63b8ff" stroke="#63b8ff" points="137.62,-135.18 146.23,-129 135.65,-128.46 137.62,-135.18"/>
</a>
</g>
</g>
<!-- Node7 -->
<g id="Node000007" class="node">
<title>Node7</title>
<g id="a_Node000007"><a xlink:href="l4_2sys_2types_8h.html" target="_top" xlink:title="Common L4 ABI Data Types.">
<polygon fill="white" stroke="#666666" points="226,-184 142,-184 142,-165 226,-165 226,-184"/>
<text text-anchor="middle" x="184" y="-172" font-family="Helvetica,sans-Serif" font-size="10.00">l4/sys/types.h</text>
</a>
</g>
</g>
<!-- Node2&#45;&gt;Node7 -->
<g id="edge6_Node000002_Node000007" class="edge">
<title>Node2&#45;&gt;Node7</title>
<g id="a_edge6_Node000002_Node000007"><a xlink:title=" ">
<path fill="none" stroke="#63b8ff" d="M190.27,-670.9C139.64,-658.57 66,-630.49 66,-571.5 66,-571.5 66,-571.5 66,-283.5 66,-236.67 117.21,-204.67 152.15,-188.28"/>
<polygon fill="#63b8ff" stroke="#63b8ff" points="153.84,-191.37 161.52,-184.08 150.97,-184.98 153.84,-191.37"/>
</a>
</g>
</g>
<!-- Node10 -->
<g id="Node000010" class="node">
<title>Node10</title>
<g id="a_Node000010"><a xlink:href="kobject_source.html" target="_top" xlink:title=" ">
<polygon fill="white" stroke="#666666" points="337.5,-525 254.5,-525 254.5,-506 337.5,-506 337.5,-525"/>
<text text-anchor="middle" x="296" y="-513" font-family="Helvetica,sans-Serif" font-size="10.00">l4/sys/kobject</text>
</a>
</g>
</g>
<!-- Node2&#45;&gt;Node10 -->
<g id="edge14_Node000002_Node000010" class="edge">
<title>Node2&#45;&gt;Node10</title>
<g id="a_edge14_Node000002_Node000010"><a xlink:title=" ">
<path fill="none" stroke="#63b8ff" d="M240.17,-670.74C249.45,-645.09 276.71,-569.78 289.38,-534.78"/>
<polygon fill="#63b8ff" stroke="#63b8ff" points="292.7,-535.9 292.81,-525.31 286.11,-533.52 292.7,-535.9"/>
</a>
</g>
</g>
<!-- Node20 -->
<g id="Node000020" class="node">
<title>Node20</title>
<g id="a_Node000020"><a xlink:href="l4_2sys_2task_8h.html" target="_top" xlink:title="Common task related definitions.">
<polygon fill="white" stroke="#666666" points="248,-354.5 170,-354.5 170,-335.5 248,-335.5 248,-354.5"/>
<text text-anchor="middle" x="209" y="-342.5" font-family="Helvetica,sans-Serif" font-size="10.00">l4/sys/task.h</text>
</a>
</g>
</g>
<!-- Node2&#45;&gt;Node20 -->
<g id="edge43_Node000002_Node000020" class="edge">
<title>Node2&#45;&gt;Node20</title>
<g id="a_edge43_Node000002_Node000020"><a xlink:title=" ">
<path fill="none" stroke="#63b8ff" d="M233.63,-670.98C226.8,-652.93 212,-609.41 212,-571.5 212,-571.5 212,-571.5 212,-459.5 212,-426.1 210.68,-387.18 209.79,-364.69"/>
<polygon fill="#63b8ff" stroke="#63b8ff" points="213.28,-364.39 209.38,-354.54 206.29,-364.68 213.28,-364.39"/>
</a>
</g>
</g>
<!-- Node21 -->
<g id="Node000021" class="node">
<title>Node21</title>
<g id="a_Node000021"><a xlink:href="sys_2meta.html" target="_top" xlink:title="Meta interface for getting dynamic type information about objects behind capabilities.">
<polygon fill="white" stroke="#666666" points="361,-635 287,-635 287,-616 361,-616 361,-635"/>
<text text-anchor="middle" x="324" y="-623" font-family="Helvetica,sans-Serif" font-size="10.00">l4/sys/meta</text>
</a>
</g>
</g>
<!-- Node2&#45;&gt;Node21 -->
<g id="edge44_Node000002_Node000021" class="edge">
<title>Node2&#45;&gt;Node21</title>
<g id="a_edge44_Node000002_Node000021"><a xlink:title=" ">
<path fill="none" stroke="#63b8ff" d="M250.98,-670.98C264.47,-662.77 285.13,-650.18 301.04,-640.49"/>
<polygon fill="#63b8ff" stroke="#63b8ff" points="303.05,-643.36 309.76,-635.17 299.4,-637.38 303.05,-643.36"/>
</a>
</g>
</g>
<!-- Node4 -->
<g id="Node000004" class="node">
<title>Node4</title>
<g id="a_Node000004"><a xlink:href="compiler_8h.html" target="_top" xlink:title="L4 compiler related defines.">
<polygon fill="white" stroke="#666666" points="468.5,-74 369.5,-74 369.5,-55 468.5,-55 468.5,-74"/>
<text text-anchor="middle" x="419" y="-62" font-family="Helvetica,sans-Serif" font-size="10.00">l4/sys/compiler.h</text>
</a>
</g>
</g>
<!-- Node3&#45;&gt;Node4 -->
<g id="edge3_Node000003_Node000004" class="edge">
<title>Node3&#45;&gt;Node4</title>
<g id="a_edge3_Node000003_Node000004"><a xlink:title=" ">
<path fill="none" stroke="#63b8ff" d="M221.75,-109.98C262.32,-100.84 326.89,-86.27 371.02,-76.32"/>
<polygon fill="#63b8ff" stroke="#63b8ff" points="371.96,-79.7 380.94,-74.08 370.42,-72.87 371.96,-79.7"/>
</a>
</g>
</g>
<!-- Node6 -->
<g id="Node000006" class="node">
<title>Node6</title>
<g id="a_Node000006"><a xlink:href="l4_2sys_2l4int_8h.html" target="_top" xlink:title="Fixed sized integer types, generic version.">
<polygon fill="white" stroke="#666666" points="165.5,-74 86.5,-74 86.5,-55 165.5,-55 165.5,-74"/>
<text text-anchor="middle" x="126" y="-62" font-family="Helvetica,sans-Serif" font-size="10.00">l4/sys/l4int.h</text>
</a>
</g>
</g>
<!-- Node3&#45;&gt;Node6 -->
<g id="edge5_Node000003_Node000006" class="edge">
<title>Node3&#45;&gt;Node6</title>
<g id="a_edge5_Node000003_Node000006"><a xlink:title=" ">
<path fill="none" stroke="#63b8ff" d="M174.68,-109.98C166.19,-102.23 153.44,-90.58 143.12,-81.14"/>
<polygon fill="#63b8ff" stroke="#63b8ff" points="145.23,-78.33 135.49,-74.17 140.51,-83.5 145.23,-78.33"/>
</a>
</g>
</g>
<!-- Node5 -->
<g id="Node000005" class="node">
<title>Node5</title>
<g id="a_Node000005"><a xlink:title=" ">
<polygon fill="#e0e0e0" stroke="#999999" points="465,-19 373,-19 373,0 465,0 465,-19"/>
<text text-anchor="middle" x="419" y="-7" font-family="Helvetica,sans-Serif" font-size="10.00">l4/sys/linkage.h</text>
</a>
</g>
</g>
<!-- Node4&#45;&gt;Node5 -->
<g id="edge4_Node000004_Node000005" class="edge">
<title>Node4&#45;&gt;Node5</title>
<g id="a_edge4_Node000004_Node000005"><a xlink:title=" ">
<path fill="none" stroke="#63b8ff" d="M419,-54.75C419,-47.8 419,-37.85 419,-29.13"/>
<polygon fill="#63b8ff" stroke="#63b8ff" points="422.5,-29.09 419,-19.09 415.5,-29.09 422.5,-29.09"/>
</a>
</g>
</g>
<!-- Node7&#45;&gt;Node3 -->
<g id="edge9_Node000007_Node000003" class="edge">
<title>Node7&#45;&gt;Node3</title>
<g id="a_edge9_Node000007_Node000003"><a xlink:title=" ">
<path fill="none" stroke="#63b8ff" d="M184,-164.75C184,-157.8 184,-147.85 184,-139.13"/>
<polygon fill="#63b8ff" stroke="#63b8ff" points="187.5,-139.09 184,-129.09 180.5,-139.09 187.5,-139.09"/>
</a>
</g>
</g>
<!-- Node7&#45;&gt;Node4 -->
<g id="edge8_Node000007_Node000004" class="edge">
<title>Node7&#45;&gt;Node4</title>
<g id="a_edge8_Node000007_Node000004"><a xlink:title=" ">
<path fill="none" stroke="#63b8ff" d="M200.69,-164.99C225.3,-152.53 272.86,-128.75 314,-110 338.88,-98.66 367.48,-86.6 388.54,-77.9"/>
<polygon fill="#63b8ff" stroke="#63b8ff" points="390.02,-81.08 397.94,-74.04 387.36,-74.61 390.02,-81.08"/>
</a>
</g>
</g>
<!-- Node7&#45;&gt;Node6 -->
<g id="edge7_Node000007_Node000006" class="edge">
<title>Node7&#45;&gt;Node6</title>
<g id="a_edge7_Node000007_Node000006"><a xlink:title=" ">
<path fill="none" stroke="#63b8ff" d="M141.62,-168.87C94.4,-162.74 22.51,-150.15 6,-129 -16.83,-99.76 33.76,-82.47 76.13,-73.49"/>
<polygon fill="#63b8ff" stroke="#63b8ff" points="77,-76.89 86.12,-71.49 75.63,-70.02 77,-76.89"/>
</a>
</g>
</g>
<!-- Node8 -->
<g id="Node000008" class="node">
<title>Node8</title>
<g id="a_Node000008"><a xlink:href="____l4__fpage_8h_source.html" target="_top" xlink:title=" ">
<polygon fill="white" stroke="#666666" points="433,-129 323,-129 323,-110 433,-110 433,-129"/>
<text text-anchor="middle" x="378" y="-117" font-family="Helvetica,sans-Serif" font-size="10.00">l4/sys/__l4_fpage.h</text>
</a>
</g>
</g>
<!-- Node7&#45;&gt;Node8 -->
<g id="edge10_Node000007_Node000008" class="edge">
<title>Node7&#45;&gt;Node8</title>
<g id="a_edge10_Node000007_Node000008"><a xlink:title=" ">
<path fill="none" stroke="#63b8ff" d="M215.17,-164.98C248.16,-155.97 300.39,-141.7 336.77,-131.76"/>
<polygon fill="#63b8ff" stroke="#63b8ff" points="337.86,-135.09 346.58,-129.08 336.01,-128.34 337.86,-135.09"/>
</a>
</g>
</g>
<!-- Node9 -->
<g id="Node000009" class="node">
<title>Node9</title>
<g id="a_Node000009"><a xlink:href="____timeout_8h_source.html" target="_top" xlink:title=" ">
<polygon fill="white" stroke="#666666" points="121,-129 15,-129 15,-110 121,-110 121,-129"/>
<text text-anchor="middle" x="68" y="-117" font-family="Helvetica,sans-Serif" font-size="10.00">l4/sys/__timeout.h</text>
</a>
</g>
</g>
<!-- Node7&#45;&gt;Node9 -->
<g id="edge12_Node000007_Node000009" class="edge">
<title>Node7&#45;&gt;Node9</title>
<g id="a_edge12_Node000007_Node000009"><a xlink:title=" ">
<path fill="none" stroke="#63b8ff" d="M165.36,-164.98C146.7,-156.46 117.75,-143.23 96.26,-133.41"/>
<polygon fill="#63b8ff" stroke="#63b8ff" points="97.52,-130.14 86.97,-129.17 94.61,-136.51 97.52,-130.14"/>
</a>
</g>
</g>
<!-- Node8&#45;&gt;Node4 -->
<g id="edge11_Node000008_Node000004" class="edge">
<title>Node8&#45;&gt;Node4</title>
<g id="a_edge11_Node000008_Node000004"><a xlink:title=" ">
<path fill="none" stroke="#63b8ff" d="M384.77,-109.75C390.56,-102.26 399.06,-91.28 406.13,-82.13"/>
<polygon fill="#63b8ff" stroke="#63b8ff" points="409,-84.14 412.35,-74.09 403.47,-79.86 409,-84.14"/>
</a>
</g>
</g>
<!-- Node9&#45;&gt;Node6 -->
<g id="edge13_Node000009_Node000006" class="edge">
<title>Node9&#45;&gt;Node6</title>
<g id="a_edge13_Node000009_Node000006"><a xlink:title=" ">
<path fill="none" stroke="#63b8ff" d="M77.32,-109.98C85.81,-102.23 98.56,-90.58 108.88,-81.14"/>
<polygon fill="#63b8ff" stroke="#63b8ff" points="111.49,-83.5 116.51,-74.17 106.77,-78.33 111.49,-83.5"/>
</a>
</g>
</g>
<!-- Node10&#45;&gt;Node7 -->
<g id="edge29_Node000010_Node000007" class="edge">
<title>Node10&#45;&gt;Node7</title>
<g id="a_edge29_Node000010_Node000007"><a xlink:title=" ">
<path fill="none" stroke="#63b8ff" d="M254.34,-509.65C197.87,-500.48 104,-474.96 104,-406.5 104,-406.5 104,-406.5 104,-283.5 104,-243.81 139.32,-209.18 163.02,-190.41"/>
<polygon fill="#63b8ff" stroke="#63b8ff" points="165.3,-193.07 171.14,-184.23 161.07,-187.5 165.3,-193.07"/>
</a>
</g>
</g>
<!-- Node11 -->
<g id="Node000011" class="node">
<title>Node11</title>
<g id="a_Node000011"><a xlink:href="kernel__object_8h.html" target="_top" xlink:title="Kernel object system calls.">
<polygon fill="white" stroke="#666666" points="355.5,-415 264.5,-415 264.5,-396 355.5,-396 355.5,-415"/>
<text text-anchor="middle" x="310" y="-403" font-family="Helvetica,sans-Serif" font-size="10.00">kernel_object.h</text>
</a>
</g>
</g>
<!-- Node10&#45;&gt;Node11 -->
<g id="edge15_Node000010_Node000011" class="edge">
<title>Node10&#45;&gt;Node11</title>
<g id="a_edge15_Node000010_Node000011"><a xlink:title=" ">
<path fill="none" stroke="#63b8ff" d="M297.14,-505.66C299.41,-488.17 304.51,-448.8 307.56,-425.27"/>
<polygon fill="#63b8ff" stroke="#63b8ff" points="311.06,-425.53 308.87,-415.16 304.12,-424.63 311.06,-425.53"/>
</a>
</g>
</g>
<!-- Node16 -->
<g id="Node000016" class="node">
<title>Node16</title>
<g id="a_Node000016"><a xlink:href="____typeinfo_8h.html" target="_top" xlink:title="Type information handling.">
<polygon fill="white" stroke="#666666" points="426.5,-470 349.5,-470 349.5,-451 426.5,-451 426.5,-470"/>
<text text-anchor="middle" x="388" y="-458" font-family="Helvetica,sans-Serif" font-size="10.00">__typeinfo.h</text>
</a>
</g>
</g>
<!-- Node10&#45;&gt;Node16 -->
<g id="edge30_Node000010_Node000016" class="edge">
<title>Node10&#45;&gt;Node16</title>
<g id="a_edge30_Node000010_Node000016"><a xlink:title=" ">
<path fill="none" stroke="#63b8ff" d="M310.78,-505.98C325.18,-497.69 347.31,-484.94 364.19,-475.22"/>
<polygon fill="#63b8ff" stroke="#63b8ff" points="366.03,-478.19 372.95,-470.17 362.53,-472.13 366.03,-478.19"/>
</a>
</g>
</g>
<!-- Node11&#45;&gt;Node4 -->
<g id="edge17_Node000011_Node000004" class="edge">
<title>Node11&#45;&gt;Node4</title>
<g id="a_edge17_Node000011_Node000004"><a xlink:title=" ">
<path fill="none" stroke="#63b8ff" d="M355.71,-398.43C399.34,-391.59 460.52,-378.9 475,-360 489.1,-341.59 548.22,-329.3 457,-110 452.49,-99.17 444.32,-89.05 436.7,-81.21"/>
<polygon fill="#63b8ff" stroke="#63b8ff" points="439.05,-78.61 429.43,-74.18 434.19,-83.65 439.05,-78.61"/>
</a>
</g>
</g>
<!-- Node11&#45;&gt;Node7 -->
<g id="edge16_Node000011_Node000007" class="edge">
<title>Node11&#45;&gt;Node7</title>
<g id="a_edge16_Node000011_Node000007"><a xlink:title=" ">
<path fill="none" stroke="#63b8ff" d="M264.15,-404.42C229.7,-401.64 184.55,-391.61 161,-360 123.44,-309.58 156.34,-229.08 174.23,-193.46"/>
<polygon fill="#63b8ff" stroke="#63b8ff" points="177.49,-194.78 179.01,-184.3 171.29,-191.55 177.49,-194.78"/>
</a>
</g>
</g>
<!-- Node12 -->
<g id="Node000012" class="node">
<title>Node12</title>
<g id="a_Node000012"><a xlink:href="l4_2sys_2utcb_8h.html" target="_top" xlink:title="UTCB definitions.">
<polygon fill="white" stroke="#666666" points="331,-239 253,-239 253,-220 331,-220 331,-239"/>
<text text-anchor="middle" x="292" y="-227" font-family="Helvetica,sans-Serif" font-size="10.00">l4/sys/utcb.h</text>
</a>
</g>
</g>
<!-- Node11&#45;&gt;Node12 -->
<g id="edge18_Node000011_Node000012" class="edge">
<title>Node11&#45;&gt;Node12</title>
<g id="a_edge18_Node000011_Node000012"><a xlink:title=" ">
<path fill="none" stroke="#63b8ff" d="M308.72,-395.92C306.01,-377.37 299.61,-332.12 296,-294 294.58,-279.01 293.54,-261.99 292.87,-249.34"/>
<polygon fill="#63b8ff" stroke="#63b8ff" points="296.36,-248.96 292.37,-239.14 289.37,-249.3 296.36,-248.96"/>
</a>
</g>
</g>
<!-- Node13 -->
<g id="Node000013" class="node">
<title>Node13</title>
<g id="a_Node000013"><a xlink:href="____kernel__object__impl_8h.html" target="_top" xlink:title="Low&#45;level kernel debugger functions.">
<polygon fill="white" stroke="#666666" points="466,-360 342,-360 342,-330 466,-330 466,-360"/>
<text text-anchor="start" x="350" y="-348" font-family="Helvetica,sans-Serif" font-size="10.00">l4/sys/__kernel_object</text>
<text text-anchor="middle" x="404" y="-337" font-family="Helvetica,sans-Serif" font-size="10.00">_impl.h</text>
</a>
</g>
</g>
<!-- Node11&#45;&gt;Node13 -->
<g id="edge22_Node000011_Node000013" class="edge">
<title>Node11&#45;&gt;Node13</title>
<g id="a_edge22_Node000011_Node000013"><a xlink:title=" ">
<path fill="none" stroke="#63b8ff" d="M323.87,-395.87C336.62,-387.93 356,-375.87 372.5,-365.6"/>
<polygon fill="#63b8ff" stroke="#63b8ff" points="374.68,-368.37 381.32,-360.11 370.98,-362.43 374.68,-368.37"/>
</a>
</g>
</g>
<!-- Node14 -->
<g id="Node000014" class="node">
<title>Node14</title>
<g id="a_Node000014"><a xlink:href="l4_2sys_2ipc_8h.html" target="_top" xlink:title="Common IPC interface.">
<polygon fill="white" stroke="#666666" points="375.5,-294 304.5,-294 304.5,-275 375.5,-275 375.5,-294"/>
<text text-anchor="middle" x="340" y="-282" font-family="Helvetica,sans-Serif" font-size="10.00">l4/sys/ipc.h</text>
</a>
</g>
</g>
<!-- Node11&#45;&gt;Node14 -->
<g id="edge28_Node000011_Node000014" class="edge">
<title>Node11&#45;&gt;Node14</title>
<g id="a_edge28_Node000011_Node000014"><a xlink:title=" ">
<path fill="none" stroke="#63b8ff" d="M312.15,-395.94C316.97,-376.82 328.71,-330.27 335.3,-304.12"/>
<polygon fill="#63b8ff" stroke="#63b8ff" points="338.73,-304.85 337.78,-294.3 331.94,-303.14 338.73,-304.85"/>
</a>
</g>
</g>
<!-- Node12&#45;&gt;Node4 -->
<g id="edge20_Node000012_Node000004" class="edge">
<title>Node12&#45;&gt;Node4</title>
<g id="a_edge20_Node000012_Node000004"><a xlink:title=" ">
<path fill="none" stroke="#63b8ff" d="M318.26,-219.96C353.8,-206.81 415.77,-177.88 442,-129 450.11,-113.89 441.44,-95.32 432.53,-82.17"/>
<polygon fill="#63b8ff" stroke="#63b8ff" points="435.28,-80.01 426.51,-74.05 429.65,-84.17 435.28,-80.01"/>
</a>
</g>
</g>
<!-- Node12&#45;&gt;Node6 -->
<g id="edge21_Node000012_Node000006" class="edge">
<title>Node12&#45;&gt;Node6</title>
<g id="a_edge21_Node000012_Node000006"><a xlink:title=" ">
<path fill="none" stroke="#63b8ff" d="M290.35,-219.75C285.86,-198.17 271.41,-141.8 238,-110 220.71,-93.55 196.61,-82.93 175.18,-76.2"/>
<polygon fill="#63b8ff" stroke="#63b8ff" points="176.14,-72.84 165.56,-73.38 174.17,-79.55 176.14,-72.84"/>
</a>
</g>
</g>
<!-- Node12&#45;&gt;Node7 -->
<g id="edge19_Node000012_Node000007" class="edge">
<title>Node12&#45;&gt;Node7</title>
<g id="a_edge19_Node000012_Node000007"><a xlink:title=" ">
<path fill="none" stroke="#63b8ff" d="M274.65,-219.98C257.43,-211.54 230.8,-198.47 210.85,-188.68"/>
<polygon fill="#63b8ff" stroke="#63b8ff" points="212.18,-185.43 201.67,-184.17 209.1,-191.72 212.18,-185.43"/>
</a>
</g>
</g>
<!-- Node13&#45;&gt;Node14 -->
<g id="edge23_Node000013_Node000014" class="edge">
<title>Node13&#45;&gt;Node14</title>
<g id="a_edge23_Node000013_Node000014"><a xlink:title=" ">
<path fill="none" stroke="#63b8ff" d="M388.5,-329.84C379.02,-321.17 366.88,-310.08 357.12,-301.15"/>
<polygon fill="#63b8ff" stroke="#63b8ff" points="359.33,-298.43 349.59,-294.27 354.61,-303.6 359.33,-298.43"/>
</a>
</g>
</g>
<!-- Node14&#45;&gt;Node7 -->
<g id="edge24_Node000014_Node000007" class="edge">
<title>Node14&#45;&gt;Node7</title>
<g id="a_edge24_Node000014_Node000007"><a xlink:title=" ">
<path fill="none" stroke="#63b8ff" d="M314.94,-274.9C294.7,-267.27 266.06,-254.88 244,-239 225.62,-225.77 208.27,-206.38 197,-192.5"/>
<polygon fill="#63b8ff" stroke="#63b8ff" points="199.47,-189.98 190.52,-184.31 193.98,-194.32 199.47,-189.98"/>
</a>
</g>
</g>
<!-- Node14&#45;&gt;Node12 -->
<g id="edge25_Node000014_Node000012" class="edge">
<title>Node14&#45;&gt;Node12</title>
<g id="a_edge25_Node000014_Node000012"><a xlink:title=" ">
<path fill="none" stroke="#63b8ff" d="M332.07,-274.75C325.15,-267.11 314.93,-255.82 306.55,-246.56"/>
<polygon fill="#63b8ff" stroke="#63b8ff" points="309.08,-244.15 299.78,-239.09 303.89,-248.85 309.08,-244.15"/>
</a>
</g>
</g>
<!-- Node15 -->
<g id="Node000015" class="node">
<title>Node15</title>
<g id="a_Node000015"><a xlink:href="err_8h.html" target="_top" xlink:title="Error codes.">
<polygon fill="white" stroke="#666666" points="668,-239 598,-239 598,-220 668,-220 668,-239"/>
<text text-anchor="middle" x="633" y="-227" font-family="Helvetica,sans-Serif" font-size="10.00">l4/sys/err.h</text>
</a>
</g>
</g>
<!-- Node14&#45;&gt;Node15 -->
<g id="edge26_Node000014_Node000015" class="edge">
<title>Node14&#45;&gt;Node15</title>
<g id="a_edge26_Node000014_Node000015"><a xlink:title=" ">
<path fill="none" stroke="#63b8ff" d="M375.63,-277.05C428.86,-267.43 529.13,-249.29 587.56,-238.72"/>
<polygon fill="#63b8ff" stroke="#63b8ff" points="588.39,-242.13 597.61,-236.9 587.15,-235.24 588.39,-242.13"/>
</a>
</g>
</g>
<!-- Node15&#45;&gt;Node4 -->
<g id="edge27_Node000015_Node000004" class="edge">
<title>Node15&#45;&gt;Node4</title>
<g id="a_edge27_Node000015_Node000004"><a xlink:title=" ">
<path fill="none" stroke="#63b8ff" d="M625.96,-219.75C608.62,-198.62 561.69,-144.08 513,-110 494.1,-96.78 470.66,-85.67 451.91,-77.86"/>
<polygon fill="#63b8ff" stroke="#63b8ff" points="453.17,-74.59 442.59,-74.08 450.54,-81.08 453.17,-74.59"/>
</a>
</g>
</g>
<!-- Node17 -->
<g id="Node000017" class="node">
<title>Node17</title>
<g id="a_Node000017"><a xlink:href="types.html" target="_top" xlink:title=" ">
<polygon fill="white" stroke="#666666" points="738,-354.5 674,-354.5 674,-335.5 738,-335.5 738,-354.5"/>
<text text-anchor="middle" x="706" y="-342.5" font-family="Helvetica,sans-Serif" font-size="10.00">cxx/types</text>
</a>
</g>
</g>
<!-- Node16&#45;&gt;Node17 -->
<g id="edge31_Node000016_Node000017" class="edge">
<title>Node16&#45;&gt;Node17</title>
<g id="a_edge31_Node000016_Node000017"><a xlink:title=" ">
<path fill="none" stroke="#63b8ff" d="M412.45,-450.92C436.3,-442.39 473.48,-428.64 505,-415 522.69,-407.34 526.07,-403.09 544,-396 583.94,-380.22 630.97,-366.18 664.04,-357.03"/>
<polygon fill="#63b8ff" stroke="#63b8ff" points="665.11,-360.37 673.84,-354.35 663.27,-353.61 665.11,-360.37"/>
</a>
</g>
</g>
<!-- Node18 -->
<g id="Node000018" class="node">
<title>Node18</title>
<g id="a_Node000018"><a xlink:href="ipc__basics_source.html" target="_top" xlink:title=" ">
<polygon fill="white" stroke="#666666" points="639.5,-415 552.5,-415 552.5,-396 639.5,-396 639.5,-415"/>
<text text-anchor="middle" x="596" y="-403" font-family="Helvetica,sans-Serif" font-size="10.00">cxx/ipc_basics</text>
</a>
</g>
</g>
<!-- Node16&#45;&gt;Node18 -->
<g id="edge32_Node000016_Node000018" class="edge">
<title>Node16&#45;&gt;Node18</title>
<g id="a_edge32_Node000016_Node000018"><a xlink:title=" ">
<path fill="none" stroke="#63b8ff" d="M421.42,-450.98C456.94,-441.93 513.27,-427.58 552.3,-417.64"/>
<polygon fill="#63b8ff" stroke="#63b8ff" points="553.49,-420.94 562.32,-415.08 551.76,-414.16 553.49,-420.94"/>
</a>
</g>
</g>
<!-- Node19 -->
<g id="Node000019" class="node">
<title>Node19</title>
<g id="a_Node000019"><a xlink:href="capability_8h_source.html" target="_top" xlink:title=" ">
<polygon fill="white" stroke="#666666" points="496,-415 404,-415 404,-396 496,-396 496,-415"/>
<text text-anchor="middle" x="450" y="-403" font-family="Helvetica,sans-Serif" font-size="10.00">cxx/capability.h</text>
</a>
</g>
</g>
<!-- Node16&#45;&gt;Node19 -->
<g id="edge36_Node000016_Node000019" class="edge">
<title>Node16&#45;&gt;Node19</title>
<g id="a_edge36_Node000016_Node000019"><a xlink:title=" ">
<path fill="none" stroke="#63b8ff" d="M397.96,-450.98C407.12,-443.15 420.93,-431.34 432.03,-421.86"/>
<polygon fill="#63b8ff" stroke="#63b8ff" points="434.53,-424.33 439.85,-415.17 429.98,-419.01 434.53,-424.33"/>
</a>
</g>
</g>
<!-- Node18&#45;&gt;Node12 -->
<g id="edge34_Node000018_Node000012" class="edge">
<title>Node18&#45;&gt;Node12</title>
<g id="a_edge34_Node000018_Node000012"><a xlink:title=" ">
<path fill="none" stroke="#63b8ff" d="M582.95,-395.82C550.29,-374.23 462.05,-316.84 385,-275 363.83,-263.51 339.23,-251.8 320.64,-243.29"/>
<polygon fill="#63b8ff" stroke="#63b8ff" points="322.07,-240.09 311.52,-239.14 319.18,-246.46 322.07,-240.09"/>
</a>
</g>
</g>
<!-- Node18&#45;&gt;Node15 -->
<g id="edge35_Node000018_Node000015" class="edge">
<title>Node18&#45;&gt;Node15</title>
<g id="a_edge35_Node000018_Node000015"><a xlink:title=" ">
<path fill="none" stroke="#63b8ff" d="M602.63,-395.85C608.82,-387.27 617.73,-373.48 622,-360 633.99,-322.13 634.69,-275.11 633.96,-249.43"/>
<polygon fill="#63b8ff" stroke="#63b8ff" points="637.45,-249.09 633.56,-239.24 630.45,-249.37 637.45,-249.09"/>
</a>
</g>
</g>
<!-- Node18&#45;&gt;Node17 -->
<g id="edge33_Node000018_Node000017" class="edge">
<title>Node18&#45;&gt;Node17</title>
<g id="a_edge33_Node000018_Node000017"><a xlink:title=" ">
<path fill="none" stroke="#63b8ff" d="M612.23,-395.87C630.26,-386.28 659.61,-370.67 680.68,-359.47"/>
<polygon fill="#63b8ff" stroke="#63b8ff" points="682.51,-362.45 689.7,-354.67 679.23,-356.27 682.51,-362.45"/>
</a>
</g>
</g>
<!-- Node19&#45;&gt;Node3 -->
<g id="edge37_Node000019_Node000003" class="edge">
<title>Node19&#45;&gt;Node3</title>
<g id="a_edge37_Node000019_Node000003"><a xlink:title=" ">
<path fill="none" stroke="#63b8ff" d="M477.29,-395.88C494,-389.03 514.03,-377.62 524,-360 544.19,-324.29 518.55,-302.38 488,-275 405.93,-201.45 282.49,-153.18 221.23,-132.31"/>
<polygon fill="#63b8ff" stroke="#63b8ff" points="222.18,-128.94 211.59,-129.08 219.96,-135.57 222.18,-128.94"/>
</a>
</g>
</g>
<!-- Node19&#45;&gt;Node7 -->
<g id="edge38_Node000019_Node000007" class="edge">
<title>Node19&#45;&gt;Node7</title>
<g id="a_edge38_Node000019_Node000007"><a xlink:title=" ">
<path fill="none" stroke="#63b8ff" d="M468.66,-395.97C482.33,-388.59 499.86,-376.5 508,-360 513.89,-348.04 514.34,-341.73 508,-330 465.56,-251.49 421.17,-257.11 340,-220 306.72,-204.78 267.03,-193.55 236.01,-186.18"/>
<polygon fill="#63b8ff" stroke="#63b8ff" points="236.8,-182.77 226.27,-183.92 235.22,-189.58 236.8,-182.77"/>
</a>
</g>
</g>
<!-- Node19&#45;&gt;Node20 -->
<g id="edge39_Node000019_Node000020" class="edge">
<title>Node19&#45;&gt;Node20</title>
<g id="a_edge39_Node000019_Node000020"><a xlink:title=" ">
<path fill="none" stroke="#63b8ff" d="M414.95,-395.99C372.39,-385.66 300.5,-368.21 253.91,-356.9"/>
<polygon fill="#63b8ff" stroke="#63b8ff" points="254.63,-353.47 244.08,-354.52 252.98,-360.28 254.63,-353.47"/>
</a>
</g>
</g>
<!-- Node20&#45;&gt;Node7 -->
<g id="edge40_Node000020_Node000007" class="edge">
<title>Node20&#45;&gt;Node7</title>
<g id="a_edge40_Node000020_Node000007"><a xlink:title=" ">
<path fill="none" stroke="#63b8ff" d="M207.72,-335.41C203.86,-309.39 192.23,-230.97 186.82,-194.51"/>
<polygon fill="#63b8ff" stroke="#63b8ff" points="190.23,-193.65 185.3,-184.27 183.3,-194.68 190.23,-193.65"/>
</a>
</g>
</g>
<!-- Node20&#45;&gt;Node12 -->
<g id="edge41_Node000020_Node000012" class="edge">
<title>Node20&#45;&gt;Node12</title>
<g id="a_edge41_Node000020_Node000012"><a xlink:title=" ">
<path fill="none" stroke="#63b8ff" d="M215.24,-335.47C228.88,-316.82 261.57,-272.11 279.57,-247.49"/>
<polygon fill="#63b8ff" stroke="#63b8ff" points="282.61,-249.27 285.69,-239.13 276.96,-245.14 282.61,-249.27"/>
</a>
</g>
</g>
<!-- Node20&#45;&gt;Node14 -->
<g id="edge42_Node000020_Node000014" class="edge">
<title>Node20&#45;&gt;Node14</title>
<g id="a_edge42_Node000020_Node000014"><a xlink:title=" ">
<path fill="none" stroke="#63b8ff" d="M228.05,-335.49C249.97,-325.7 286.21,-309.52 311.49,-298.23"/>
<polygon fill="#63b8ff" stroke="#63b8ff" points="313.22,-301.29 320.93,-294.02 310.37,-294.9 313.22,-301.29"/>
</a>
</g>
</g>
<!-- Node21&#45;&gt;Node10 -->
<g id="edge45_Node000021_Node000010" class="edge">
<title>Node21&#45;&gt;Node10</title>
<g id="a_edge45_Node000021_Node000010"><a xlink:title=" ">
<path fill="none" stroke="#63b8ff" d="M321.71,-615.66C317.15,-598.09 306.87,-558.45 300.78,-534.95"/>
<polygon fill="#63b8ff" stroke="#63b8ff" points="304.14,-533.96 298.24,-525.16 297.36,-535.72 304.14,-533.96"/>
</a>
</g>
</g>
<!-- Node21&#45;&gt;Node22 -->
<g id="edge46_Node000021_Node000022" class="edge">
<title>Node21&#45;&gt;Node22</title>
<g id="a_edge46_Node000021_Node000022"><a xlink:title=" ">
<path fill="none" stroke="#63b8ff" d="M329.89,-615.66C341.81,-597.77 368.99,-557 384.53,-533.69"/>
<polygon fill="#63b8ff" stroke="#63b8ff" points="387.59,-535.42 390.23,-525.16 381.77,-531.54 387.59,-535.42"/>
</a>
</g>
</g>
<!-- Node24 -->
<g id="Node000024" class="node">
<title>Node24</title>
<g id="a_Node000024"><a xlink:href="ipc__string_source.html" target="_top" xlink:title=" ">
<polygon fill="white" stroke="#666666" points="698,-580 614,-580 614,-561 698,-561 698,-580"/>
<text text-anchor="middle" x="656" y="-568" font-family="Helvetica,sans-Serif" font-size="10.00">cxx/ipc_string</text>
</a>
</g>
</g>
<!-- Node21&#45;&gt;Node24 -->
<g id="edge53_Node000021_Node000024" class="edge">
<title>Node21&#45;&gt;Node24</title>
<g id="a_edge53_Node000021_Node000024"><a xlink:title=" ">
<path fill="none" stroke="#63b8ff" d="M361.12,-618.57C420.34,-609.12 536.41,-590.59 603.92,-579.81"/>
<polygon fill="#63b8ff" stroke="#63b8ff" points="604.59,-583.25 613.92,-578.22 603.49,-576.34 604.59,-583.25"/>
</a>
</g>
</g>
<!-- Node22&#45;&gt;Node16 -->
<g id="edge52_Node000022_Node000016" class="edge">
<title>Node22&#45;&gt;Node16</title>
<g id="a_edge52_Node000022_Node000016"><a xlink:title=" ">
<path fill="none" stroke="#63b8ff" d="M394.68,-505.75C393.63,-498.8 392.12,-488.85 390.81,-480.13"/>
<polygon fill="#63b8ff" stroke="#63b8ff" points="394.25,-479.45 389.29,-470.09 387.33,-480.5 394.25,-479.45"/>
</a>
</g>
</g>
<!-- Node22&#45;&gt;Node18 -->
<g id="edge47_Node000022_Node000018" class="edge">
<title>Node22&#45;&gt;Node18</title>
<g id="a_edge47_Node000022_Node000018"><a xlink:title=" ">
<path fill="none" stroke="#63b8ff" d="M405,-505.6C418.95,-492.21 447.12,-466.77 475,-451 500.17,-436.76 530.75,-425.56 554.87,-417.96"/>
<polygon fill="#63b8ff" stroke="#63b8ff" points="555.91,-421.3 564.44,-415.02 553.86,-414.61 555.91,-421.3"/>
</a>
</g>
</g>
<!-- Node23 -->
<g id="Node000023" class="node">
<title>Node23</title>
<g id="a_Node000023"><a xlink:href="ipc__types.html" target="_top" xlink:title=" ">
<polygon fill="white" stroke="#666666" points="598.5,-470 483.5,-470 483.5,-451 598.5,-451 598.5,-470"/>
<text text-anchor="middle" x="541" y="-458" font-family="Helvetica,sans-Serif" font-size="10.00">l4/sys/cxx/ipc_types</text>
</a>
</g>
</g>
<!-- Node22&#45;&gt;Node23 -->
<g id="edge48_Node000022_Node000023" class="edge">
<title>Node22&#45;&gt;Node23</title>
<g id="a_edge48_Node000022_Node000023"><a xlink:title=" ">
<path fill="none" stroke="#63b8ff" d="M419.29,-505.98C443.25,-497.23 480.78,-483.51 507.83,-473.62"/>
<polygon fill="#63b8ff" stroke="#63b8ff" points="509.09,-476.89 517.28,-470.17 506.68,-470.32 509.09,-476.89"/>
</a>
</g>
</g>
<!-- Node23&#45;&gt;Node17 -->
<g id="edge50_Node000023_Node000017" class="edge">
<title>Node23&#45;&gt;Node17</title>
<g id="a_edge50_Node000023_Node000017"><a xlink:title=" ">
<path fill="none" stroke="#63b8ff" d="M572.87,-450.9C595.56,-443.75 625.99,-431.97 649,-415 668.26,-400.79 684.98,-378.7 695.24,-363.36"/>
<polygon fill="#63b8ff" stroke="#63b8ff" points="698.28,-365.11 700.76,-354.81 692.39,-361.31 698.28,-365.11"/>
</a>
</g>
</g>
<!-- Node23&#45;&gt;Node18 -->
<g id="edge51_Node000023_Node000018" class="edge">
<title>Node23&#45;&gt;Node18</title>
<g id="a_edge51_Node000023_Node000018"><a xlink:title=" ">
<path fill="none" stroke="#63b8ff" d="M550.08,-450.75C558.09,-443.03 569.95,-431.6 579.62,-422.28"/>
<polygon fill="#63b8ff" stroke="#63b8ff" points="582.31,-424.55 587.08,-415.09 577.45,-419.51 582.31,-424.55"/>
</a>
</g>
</g>
<!-- Node23&#45;&gt;Node19 -->
<g id="edge49_Node000023_Node000019" class="edge">
<title>Node23&#45;&gt;Node19</title>
<g id="a_edge49_Node000023_Node000019"><a xlink:title=" ">
<path fill="none" stroke="#63b8ff" d="M526.38,-450.98C512.13,-442.69 490.25,-429.94 473.55,-420.22"/>
<polygon fill="#63b8ff" stroke="#63b8ff" points="475.29,-417.18 464.88,-415.17 471.76,-423.23 475.29,-417.18"/>
</a>
</g>
</g>
<!-- Node24&#45;&gt;Node17 -->
<g id="edge54_Node000024_Node000017" class="edge">
<title>Node24&#45;&gt;Node17</title>
<g id="a_edge54_Node000024_Node000017"><a xlink:title=" ">
<path fill="none" stroke="#63b8ff" d="M680.81,-560.95C696.84,-553.99 716.43,-542.42 726,-525 754.93,-472.32 729.15,-397.85 714.5,-364"/>
<polygon fill="#63b8ff" stroke="#63b8ff" points="717.52,-362.19 710.21,-354.51 711.14,-365.07 717.52,-362.19"/>
</a>
</g>
</g>
<!-- Node24&#45;&gt;Node18 -->
<g id="edge55_Node000024_Node000018" class="edge">
<title>Node24&#45;&gt;Node18</title>
<g id="a_edge55_Node000024_Node000018"><a xlink:title=" ">
<path fill="none" stroke="#63b8ff" d="M652.77,-560.74C643.33,-535.09 615.61,-459.78 602.73,-424.78"/>
<polygon fill="#63b8ff" stroke="#63b8ff" points="605.98,-423.48 599.24,-415.31 599.41,-425.9 605.98,-423.48"/>
</a>
</g>
</g>
<!-- Node25 -->
<g id="Node000025" class="node">
<title>Node25</title>
<g id="a_Node000025"><a xlink:href="ipc__array_source.html" target="_top" xlink:title=" ">
<polygon fill="white" stroke="#666666" points="717,-525 655,-525 655,-506 717,-506 717,-525"/>
<text text-anchor="middle" x="686" y="-513" font-family="Helvetica,sans-Serif" font-size="10.00">ipc_array</text>
</a>
</g>
</g>
<!-- Node24&#45;&gt;Node25 -->
<g id="edge56_Node000024_Node000025" class="edge">
<title>Node24&#45;&gt;Node25</title>
<g id="a_edge56_Node000024_Node000025"><a xlink:title=" ">
<path fill="none" stroke="#63b8ff" d="M660.95,-560.75C665.06,-553.49 671.02,-542.95 676.1,-533.98"/>
<polygon fill="#63b8ff" stroke="#63b8ff" points="679.26,-535.52 681.14,-525.09 673.16,-532.07 679.26,-535.52"/>
</a>
</g>
</g>
<!-- Node25&#45;&gt;Node17 -->
<g id="edge57_Node000025_Node000017" class="edge">
<title>Node25&#45;&gt;Node17</title>
<g id="a_edge57_Node000025_Node000017"><a xlink:title=" ">
<path fill="none" stroke="#63b8ff" d="M687.02,-505.91C690.11,-479.89 699.41,-401.47 703.74,-365.01"/>
<polygon fill="#63b8ff" stroke="#63b8ff" points="707.25,-365.12 704.96,-354.77 700.3,-364.29 707.25,-365.12"/>
</a>
</g>
</g>
<!-- Node25&#45;&gt;Node18 -->
<g id="edge58_Node000025_Node000018" class="edge">
<title>Node25&#45;&gt;Node18</title>
<g id="a_edge58_Node000025_Node000018"><a xlink:title=" ">
<path fill="none" stroke="#63b8ff" d="M680.62,-505.94C672.59,-493.4 656.74,-469.54 641,-451 632.4,-440.87 621.88,-430.37 613.17,-422.12"/>
<polygon fill="#63b8ff" stroke="#63b8ff" points="615.5,-419.51 605.79,-415.25 610.73,-424.63 615.5,-419.51"/>
</a>
</g>
</g>
<!-- Node25&#45;&gt;Node23 -->
<g id="edge59_Node000025_Node000023" class="edge">
<title>Node25&#45;&gt;Node23</title>
<g id="a_edge59_Node000025_Node000023"><a xlink:title=" ">
<path fill="none" stroke="#63b8ff" d="M662.7,-505.98C638.74,-497.23 601.22,-483.51 574.17,-473.62"/>
<polygon fill="#63b8ff" stroke="#63b8ff" points="575.31,-470.32 564.72,-470.17 572.91,-476.89 575.31,-470.32"/>
</a>
</g>
</g>
</g>
</svg>
