<?xml version="1.0" encoding="UTF-8" standalone="no"?>
<!DOCTYPE svg PUBLIC "-//W3C//DTD SVG 1.1//EN"
 "http://www.w3.org/Graphics/SVG/1.1/DTD/svg11.dtd">
<!-- Generated by graphviz version 2.43.0 (0)
 -->
<!-- Title: l4/cxx/avl_set Pages: 1 -->
<svg width="435pt" height="247pt"
 viewBox="0.00 0.00 435.00 247.00" xmlns="http://www.w3.org/2000/svg" xmlns:xlink="http://www.w3.org/1999/xlink">
<g id="graph0" class="graph" transform="scale(1 1) rotate(0) translate(4 243)">
<title>l4/cxx/avl_set</title>
<!-- Node1 -->
<g id="Node000001" class="node">
<title>Node1</title>
<g id="a_Node000001"><a xlink:title="AVL set.">
<polygon fill="#999999" stroke="#666666" points="197,-239 113,-239 113,-220 197,-220 197,-239"/>
<text text-anchor="middle" x="155" y="-227" font-family="Helvetica,sans-Serif" font-size="10.00">l4/cxx/avl_set</text>
</a>
</g>
</g>
<!-- Node2 -->
<g id="Node000002" class="node">
<title>Node2</title>
<g id="a_Node000002"><a xlink:href="std__alloc_source.html" target="_top" xlink:title=" ">
<polygon fill="white" stroke="#666666" points="92,-184 0,-184 0,-165 92,-165 92,-184"/>
<text text-anchor="middle" x="46" y="-172" font-family="Helvetica,sans-Serif" font-size="10.00">l4/cxx/std_alloc</text>
</a>
</g>
</g>
<!-- Node1&#45;&gt;Node2 -->
<g id="edge1_Node000001_Node000002" class="edge">
<title>Node1&#45;&gt;Node2</title>
<g id="a_edge1_Node000001_Node000002"><a xlink:title=" ">
<path fill="none" stroke="#63b8ff" d="M137.49,-219.98C120.03,-211.5 92.99,-198.35 72.83,-188.54"/>
<polygon fill="#63b8ff" stroke="#63b8ff" points="74.36,-185.4 63.83,-184.17 71.29,-191.69 74.36,-185.4"/>
</a>
</g>
</g>
<!-- Node4 -->
<g id="Node000004" class="node">
<title>Node4</title>
<g id="a_Node000004"><a xlink:href="std__ops_source.html" target="_top" xlink:title=" ">
<polygon fill="white" stroke="#666666" points="234,-129 148,-129 148,-110 234,-110 234,-129"/>
<text text-anchor="middle" x="191" y="-117" font-family="Helvetica,sans-Serif" font-size="10.00">l4/cxx/std_ops</text>
</a>
</g>
</g>
<!-- Node1&#45;&gt;Node4 -->
<g id="edge3_Node000001_Node000004" class="edge">
<title>Node1&#45;&gt;Node4</title>
<g id="a_edge3_Node000001_Node000004"><a xlink:title=" ">
<path fill="none" stroke="#63b8ff" d="M157.95,-219.66C163.8,-202.09 177.02,-162.45 184.85,-138.95"/>
<polygon fill="#63b8ff" stroke="#63b8ff" points="188.27,-139.75 188.11,-129.16 181.63,-137.54 188.27,-139.75"/>
</a>
</g>
</g>
<!-- Node5 -->
<g id="Node000005" class="node">
<title>Node5</title>
<g id="a_Node000005"><a xlink:href="type__traits_source.html" target="_top" xlink:title=" ">
<polygon fill="white" stroke="#666666" points="288.5,-74 187.5,-74 187.5,-55 288.5,-55 288.5,-74"/>
<text text-anchor="middle" x="238" y="-62" font-family="Helvetica,sans-Serif" font-size="10.00">l4/cxx/type_traits</text>
</a>
</g>
</g>
<!-- Node1&#45;&gt;Node5 -->
<g id="edge4_Node000001_Node000005" class="edge">
<title>Node1&#45;&gt;Node5</title>
<g id="a_edge4_Node000001_Node000005"><a xlink:title=" ">
<path fill="none" stroke="#63b8ff" d="M150.28,-219.92C139.58,-199.16 116.11,-145.38 139,-110 149.19,-94.25 166.43,-84.02 183.69,-77.4"/>
<polygon fill="#63b8ff" stroke="#63b8ff" points="184.94,-80.67 193.24,-74.08 182.64,-74.05 184.94,-80.67"/>
</a>
</g>
</g>
<!-- Node7 -->
<g id="Node000007" class="node">
<title>Node7</title>
<g id="a_Node000007"><a xlink:href="avl__tree.html" target="_top" xlink:title="AVL tree.">
<polygon fill="white" stroke="#666666" points="314.5,-184 225.5,-184 225.5,-165 314.5,-165 314.5,-184"/>
<text text-anchor="middle" x="270" y="-172" font-family="Helvetica,sans-Serif" font-size="10.00">l4/cxx/avl_tree</text>
</a>
</g>
</g>
<!-- Node1&#45;&gt;Node7 -->
<g id="edge6_Node000001_Node000007" class="edge">
<title>Node1&#45;&gt;Node7</title>
<g id="a_edge6_Node000001_Node000007"><a xlink:title=" ">
<path fill="none" stroke="#63b8ff" d="M173.48,-219.98C191.98,-211.46 220.68,-198.23 241.98,-188.41"/>
<polygon fill="#63b8ff" stroke="#63b8ff" points="243.57,-191.53 251.19,-184.17 240.64,-185.18 243.57,-191.53"/>
</a>
</g>
</g>
<!-- Node3 -->
<g id="Node000003" class="node">
<title>Node3</title>
<g id="a_Node000003"><a xlink:title=" ">
<polygon fill="#e0e0e0" stroke="#999999" points="74,-129 18,-129 18,-110 74,-110 74,-129"/>
<text text-anchor="middle" x="46" y="-117" font-family="Helvetica,sans-Serif" font-size="10.00">stddef.h</text>
</a>
</g>
</g>
<!-- Node2&#45;&gt;Node3 -->
<g id="edge2_Node000002_Node000003" class="edge">
<title>Node2&#45;&gt;Node3</title>
<g id="a_edge2_Node000002_Node000003"><a xlink:title=" ">
<path fill="none" stroke="#63b8ff" d="M46,-164.75C46,-157.8 46,-147.85 46,-139.13"/>
<polygon fill="#63b8ff" stroke="#63b8ff" points="49.5,-139.09 46,-129.09 42.5,-139.09 49.5,-139.09"/>
</a>
</g>
</g>
<!-- Node6 -->
<g id="Node000006" class="node">
<title>Node6</title>
<g id="a_Node000006"><a xlink:href="type__traits_8h_source.html" target="_top" xlink:title=" ">
<polygon fill="white" stroke="#666666" points="287.5,-19 188.5,-19 188.5,0 287.5,0 287.5,-19"/>
<text text-anchor="middle" x="238" y="-7" font-family="Helvetica,sans-Serif" font-size="10.00">bits/type_traits.h</text>
</a>
</g>
</g>
<!-- Node5&#45;&gt;Node6 -->
<g id="edge5_Node000005_Node000006" class="edge">
<title>Node5&#45;&gt;Node6</title>
<g id="a_edge5_Node000005_Node000006"><a xlink:title=" ">
<path fill="none" stroke="#63b8ff" d="M238,-54.75C238,-47.8 238,-37.85 238,-29.13"/>
<polygon fill="#63b8ff" stroke="#63b8ff" points="241.5,-29.09 238,-19.09 234.5,-29.09 241.5,-29.09"/>
</a>
</g>
</g>
<!-- Node7&#45;&gt;Node4 -->
<g id="edge7_Node000007_Node000004" class="edge">
<title>Node7&#45;&gt;Node4</title>
<g id="a_edge7_Node000007_Node000004"><a xlink:title=" ">
<path fill="none" stroke="#63b8ff" d="M257.31,-164.98C245.17,-156.84 226.64,-144.41 212.25,-134.76"/>
<polygon fill="#63b8ff" stroke="#63b8ff" points="214.18,-131.84 203.92,-129.17 210.28,-137.65 214.18,-131.84"/>
</a>
</g>
</g>
<!-- Node8 -->
<g id="Node000008" class="node">
<title>Node8</title>
<g id="a_Node000008"><a xlink:href="pair.html" target="_top" xlink:title="Pair implementation.">
<polygon fill="white" stroke="#666666" points="287.5,-129 252.5,-129 252.5,-110 287.5,-110 287.5,-129"/>
<text text-anchor="middle" x="270" y="-117" font-family="Helvetica,sans-Serif" font-size="10.00">pair</text>
</a>
</g>
</g>
<!-- Node7&#45;&gt;Node8 -->
<g id="edge8_Node000007_Node000008" class="edge">
<title>Node7&#45;&gt;Node8</title>
<g id="a_edge8_Node000007_Node000008"><a xlink:title=" ">
<path fill="none" stroke="#63b8ff" d="M270,-164.75C270,-157.8 270,-147.85 270,-139.13"/>
<polygon fill="#63b8ff" stroke="#63b8ff" points="273.5,-139.09 270,-129.09 266.5,-139.09 273.5,-139.09"/>
</a>
</g>
</g>
<!-- Node9 -->
<g id="Node000009" class="node">
<title>Node9</title>
<g id="a_Node000009"><a xlink:href="bst_8h.html" target="_top" xlink:title="AVL tree.">
<polygon fill="white" stroke="#666666" points="368,-129 306,-129 306,-110 368,-110 368,-129"/>
<text text-anchor="middle" x="337" y="-117" font-family="Helvetica,sans-Serif" font-size="10.00">bits/bst.h</text>
</a>
</g>
</g>
<!-- Node7&#45;&gt;Node9 -->
<g id="edge9_Node000007_Node000009" class="edge">
<title>Node7&#45;&gt;Node9</title>
<g id="a_edge9_Node000007_Node000009"><a xlink:title=" ">
<path fill="none" stroke="#63b8ff" d="M280.76,-164.98C290.77,-157.07 305.89,-145.11 317.93,-135.58"/>
<polygon fill="#63b8ff" stroke="#63b8ff" points="320.37,-138.12 326.04,-129.17 316.03,-132.63 320.37,-138.12"/>
</a>
</g>
</g>
<!-- Node11 -->
<g id="Node000011" class="node">
<title>Node11</title>
<g id="a_Node000011"><a xlink:href="bst__iter_8h.html" target="_top" xlink:title="AVL tree.">
<polygon fill="white" stroke="#666666" points="427,-74 365,-74 365,-55 427,-55 427,-74"/>
<text text-anchor="middle" x="396" y="-62" font-family="Helvetica,sans-Serif" font-size="10.00">bst_iter.h</text>
</a>
</g>
</g>
<!-- Node7&#45;&gt;Node11 -->
<g id="edge14_Node000007_Node000011" class="edge">
<title>Node7&#45;&gt;Node11</title>
<g id="a_edge14_Node000007_Node000011"><a xlink:title=" ">
<path fill="none" stroke="#63b8ff" d="M312.68,-164.99C334.67,-158.55 360.29,-147.53 377,-129 388.08,-116.71 392.7,-98.2 394.63,-84.33"/>
<polygon fill="#63b8ff" stroke="#63b8ff" points="398.15,-84.32 395.7,-74.01 391.19,-83.6 398.15,-84.32"/>
</a>
</g>
</g>
<!-- Node9&#45;&gt;Node5 -->
<g id="edge10_Node000009_Node000005" class="edge">
<title>Node9&#45;&gt;Node5</title>
<g id="a_edge10_Node000009_Node000005"><a xlink:title=" ">
<path fill="none" stroke="#63b8ff" d="M321.09,-109.98C305.45,-101.61 281.34,-88.7 263.12,-78.95"/>
<polygon fill="#63b8ff" stroke="#63b8ff" points="264.66,-75.8 254.2,-74.17 261.36,-81.98 264.66,-75.8"/>
</a>
</g>
</g>
<!-- Node10 -->
<g id="Node000010" class="node">
<title>Node10</title>
<g id="a_Node000010"><a xlink:href="bst__base_8h.html" target="_top" xlink:title="AVL tree.">
<polygon fill="white" stroke="#666666" points="392.5,-19 323.5,-19 323.5,0 392.5,0 392.5,-19"/>
<text text-anchor="middle" x="358" y="-7" font-family="Helvetica,sans-Serif" font-size="10.00">bst_base.h</text>
</a>
</g>
</g>
<!-- Node9&#45;&gt;Node10 -->
<g id="edge11_Node000009_Node000010" class="edge">
<title>Node9&#45;&gt;Node10</title>
<g id="a_edge11_Node000009_Node000010"><a xlink:title=" ">
<path fill="none" stroke="#63b8ff" d="M338.72,-109.66C342.12,-92.17 349.77,-52.8 354.35,-29.27"/>
<polygon fill="#63b8ff" stroke="#63b8ff" points="357.84,-29.64 356.32,-19.16 350.97,-28.31 357.84,-29.64"/>
</a>
</g>
</g>
<!-- Node9&#45;&gt;Node11 -->
<g id="edge12_Node000009_Node000011" class="edge">
<title>Node9&#45;&gt;Node11</title>
<g id="a_edge12_Node000009_Node000011"><a xlink:title=" ">
<path fill="none" stroke="#63b8ff" d="M346.48,-109.98C355.2,-102.15 368.34,-90.34 378.9,-80.86"/>
<polygon fill="#63b8ff" stroke="#63b8ff" points="381.25,-83.46 386.35,-74.17 376.57,-78.25 381.25,-83.46"/>
</a>
</g>
</g>
<!-- Node11&#45;&gt;Node10 -->
<g id="edge13_Node000011_Node000010" class="edge">
<title>Node11&#45;&gt;Node10</title>
<g id="a_edge13_Node000011_Node000010"><a xlink:title=" ">
<path fill="none" stroke="#63b8ff" d="M389.73,-54.75C384.41,-47.34 376.64,-36.5 370.12,-27.41"/>
<polygon fill="#63b8ff" stroke="#63b8ff" points="372.83,-25.18 364.16,-19.09 367.14,-29.26 372.83,-25.18"/>
</a>
</g>
</g>
</g>
</svg>
