<?xml version="1.0" encoding="UTF-8" standalone="no"?>
<!DOCTYPE svg PUBLIC "-//W3C//DTD SVG 1.1//EN"
 "http://www.w3.org/Graphics/SVG/1.1/DTD/svg11.dtd">
<!-- Generated by graphviz version 2.42.4 (0)
 -->
<!-- Title: l4/util/backtrace.h Pages: 1 -->
<svg width="1259pt" height="401pt"
 viewBox="0.00 0.00 1258.85 401.00" xmlns="http://www.w3.org/2000/svg" xmlns:xlink="http://www.w3.org/1999/xlink">
<g id="graph0" class="graph" transform="scale(1 1) rotate(0) translate(4 397)">
<title>l4/util/backtrace.h</title>
<!-- Node1 -->
<g id="Node000001" class="node">
<title>Node1</title>
<g id="a_Node000001"><a xlink:title="Backtrace.">
<polygon fill="#999999" stroke="#666666" points="471.5,-393 367.5,-393 367.5,-374 471.5,-374 471.5,-393"/>
<text text-anchor="middle" x="419.5" y="-381" font-family="Helvetica,sans-Serif" font-size="10.00">l4/util/backtrace.h</text>
</a>
</g>
</g>
<!-- Node2 -->
<g id="Node000002" class="node">
<title>Node2</title>
<g id="a_Node000002"><a xlink:href="exceptions.html" target="_top" xlink:title="Base exceptions.">
<polygon fill="white" stroke="#666666" points="470.5,-338 368.5,-338 368.5,-319 470.5,-319 470.5,-338"/>
<text text-anchor="middle" x="419.5" y="-326" font-family="Helvetica,sans-Serif" font-size="10.00">l4/cxx/exceptions</text>
</a>
</g>
</g>
<!-- Node1&#45;&gt;Node2 -->
<g id="edge1_Node000001_Node000002" class="edge">
<title>Node1&#45;&gt;Node2</title>
<g id="a_edge1_Node000001_Node000002"><a xlink:title=" ">
<path fill="none" stroke="#63b8ff" d="M419.5,-363.66C419.5,-354.93 419.5,-344.99 419.5,-338.09"/>
<polygon fill="#63b8ff" stroke="#63b8ff" points="416,-363.75 419.5,-373.75 423,-363.75 416,-363.75"/>
</a>
</g>
</g>
<!-- Node3 -->
<g id="Node000003" class="node">
<title>Node3</title>
<g id="a_Node000003"><a xlink:href="ipc__helper.html" target="_top" xlink:title="IPC helper.">
<polygon fill="white" stroke="#666666" points="99,-283 0,-283 0,-264 99,-264 99,-283"/>
<text text-anchor="middle" x="49.5" y="-271" font-family="Helvetica,sans-Serif" font-size="10.00">l4/cxx/ipc_helper</text>
</a>
</g>
</g>
<!-- Node2&#45;&gt;Node3 -->
<g id="edge2_Node000002_Node000003" class="edge">
<title>Node2&#45;&gt;Node3</title>
<g id="a_edge2_Node000002_Node000003"><a xlink:title=" ">
<path fill="none" stroke="#63b8ff" d="M358.27,-318.84C295.36,-309.92 194.58,-295.59 107.5,-283 104.78,-282.61 101.99,-282.2 99.17,-281.79"/>
<polygon fill="#63b8ff" stroke="#63b8ff" points="358.03,-322.34 368.42,-320.28 359.01,-315.41 358.03,-322.34"/>
</a>
</g>
</g>
<!-- Node4 -->
<g id="Node000004" class="node">
<title>Node4</title>
<g id="a_Node000004"><a xlink:href="cxx_2ipc__server.html" target="_top" xlink:title="IPC server loop.">
<polygon fill="white" stroke="#666666" points="216,-283 117,-283 117,-264 216,-264 216,-283"/>
<text text-anchor="middle" x="166.5" y="-271" font-family="Helvetica,sans-Serif" font-size="10.00">l4/cxx/ipc_server</text>
</a>
</g>
</g>
<!-- Node2&#45;&gt;Node4 -->
<g id="edge3_Node000002_Node000004" class="edge">
<title>Node2&#45;&gt;Node4</title>
<g id="a_edge3_Node000002_Node000004"><a xlink:title=" ">
<path fill="none" stroke="#63b8ff" d="M368.8,-316.88C321.38,-306.94 251.45,-292.3 207.47,-283.08"/>
<polygon fill="#63b8ff" stroke="#63b8ff" points="368.35,-320.36 378.85,-318.98 369.78,-313.51 368.35,-320.36"/>
</a>
</g>
</g>
<!-- Node5 -->
<g id="Node000005" class="node">
<title>Node5</title>
<g id="a_Node000005"><a xlink:href="std__exc__io.html" target="_top" xlink:title="Base exceptions std stream operator.">
<polygon fill="white" stroke="#666666" points="335,-283 234,-283 234,-264 335,-264 335,-283"/>
<text text-anchor="middle" x="284.5" y="-271" font-family="Helvetica,sans-Serif" font-size="10.00">l4/cxx/std_exc_io</text>
</a>
</g>
</g>
<!-- Node2&#45;&gt;Node5 -->
<g id="edge4_Node000002_Node000005" class="edge">
<title>Node2&#45;&gt;Node5</title>
<g id="a_edge4_Node000002_Node000005"><a xlink:title=" ">
<path fill="none" stroke="#63b8ff" d="M388.4,-315.29C363.38,-305.47 328.84,-291.91 306.58,-283.17"/>
<polygon fill="#63b8ff" stroke="#63b8ff" points="387.22,-318.59 397.81,-318.98 389.78,-312.07 387.22,-318.59"/>
</a>
</g>
</g>
<!-- Node6 -->
<g id="Node000006" class="node">
<title>Node6</title>
<g id="a_Node000006"><a xlink:href="virtio-net_source.html" target="_top" xlink:title=" ">
<polygon fill="white" stroke="#666666" points="673,-162 580,-162 580,-132 673,-132 673,-162"/>
<text text-anchor="start" x="588" y="-150" font-family="Helvetica,sans-Serif" font-size="10.00">l4/l4virtio/client</text>
<text text-anchor="middle" x="626.5" y="-139" font-family="Helvetica,sans-Serif" font-size="10.00">/virtio&#45;net</text>
</a>
</g>
</g>
<!-- Node2&#45;&gt;Node6 -->
<g id="edge5_Node000002_Node000006" class="edge">
<title>Node2&#45;&gt;Node6</title>
<g id="a_edge5_Node000002_Node000006"><a xlink:title=" ">
<path fill="none" stroke="#63b8ff" d="M480.9,-322.69C535.16,-317.01 608.43,-305.36 626.5,-283 654.93,-247.81 640.49,-188.95 631.66,-162.11"/>
<polygon fill="#63b8ff" stroke="#63b8ff" points="480.26,-319.24 470.66,-323.71 480.96,-326.2 480.26,-319.24"/>
</a>
</g>
</g>
<!-- Node7 -->
<g id="Node000007" class="node">
<title>Node7</title>
<g id="a_Node000007"><a xlink:href="virtqueue_source.html" target="_top" xlink:title=" ">
<polygon fill="white" stroke="#666666" points="617,-283 504,-283 504,-264 617,-264 617,-283"/>
<text text-anchor="middle" x="560.5" y="-271" font-family="Helvetica,sans-Serif" font-size="10.00">l4/l4virtio/virtqueue</text>
</a>
</g>
</g>
<!-- Node2&#45;&gt;Node7 -->
<g id="edge6_Node000002_Node000007" class="edge">
<title>Node2&#45;&gt;Node7</title>
<g id="a_edge6_Node000002_Node000007"><a xlink:title=" ">
<path fill="none" stroke="#63b8ff" d="M451.64,-315.42C477.79,-305.59 514.09,-291.95 537.43,-283.17"/>
<polygon fill="#63b8ff" stroke="#63b8ff" points="450.28,-312.19 442.15,-318.98 452.75,-318.74 450.28,-312.19"/>
</a>
</g>
</g>
<!-- Node16 -->
<g id="Node000016" class="node">
<title>Node16</title>
<g id="a_Node000016"><a xlink:href="error__helper.html" target="_top" xlink:title="Error helper.">
<polygon fill="white" stroke="#666666" points="976,-283 875,-283 875,-264 976,-264 976,-283"/>
<text text-anchor="middle" x="925.5" y="-271" font-family="Helvetica,sans-Serif" font-size="10.00">l4/re/error_helper</text>
</a>
</g>
</g>
<!-- Node2&#45;&gt;Node16 -->
<g id="edge20_Node000002_Node000016" class="edge">
<title>Node2&#45;&gt;Node16</title>
<g id="a_edge20_Node000002_Node000016"><a xlink:title=" ">
<path fill="none" stroke="#63b8ff" d="M480.85,-321.07C581.86,-310.49 781.27,-289.61 874.81,-279.81"/>
<polygon fill="#63b8ff" stroke="#63b8ff" points="480.38,-317.6 470.8,-322.13 481.11,-324.57 480.38,-317.6"/>
</a>
</g>
</g>
<!-- Node19 -->
<g id="Node000019" class="node">
<title>Node19</title>
<g id="a_Node000019"><a xlink:href="object__registry_source.html" target="_top" xlink:title=" ">
<polygon fill="white" stroke="#666666" points="486,-283 353,-283 353,-264 486,-264 486,-283"/>
<text text-anchor="middle" x="419.5" y="-271" font-family="Helvetica,sans-Serif" font-size="10.00">l4/re/util/object_registry</text>
</a>
</g>
</g>
<!-- Node2&#45;&gt;Node19 -->
<g id="edge30_Node000002_Node000019" class="edge">
<title>Node2&#45;&gt;Node19</title>
<g id="a_edge30_Node000002_Node000019"><a xlink:title=" ">
<path fill="none" stroke="#63b8ff" d="M419.5,-308.66C419.5,-299.93 419.5,-289.99 419.5,-283.09"/>
<polygon fill="#63b8ff" stroke="#63b8ff" points="416,-308.75 419.5,-318.75 423,-308.75 416,-308.75"/>
</a>
</g>
</g>
<!-- Node7&#45;&gt;Node6 -->
<g id="edge11_Node000007_Node000006" class="edge">
<title>Node7&#45;&gt;Node6</title>
<g id="a_edge11_Node000007_Node000006"><a xlink:title=" ">
<path fill="none" stroke="#63b8ff" d="M572.02,-255.24C577.28,-247.11 583.44,-237.2 588.5,-228 600.87,-205.5 613.27,-178.31 620.4,-162.12"/>
<polygon fill="#63b8ff" stroke="#63b8ff" points="568.96,-253.54 566.39,-263.82 574.81,-257.38 568.96,-253.54"/>
</a>
</g>
</g>
<!-- Node8 -->
<g id="Node000008" class="node">
<title>Node8</title>
<g id="a_Node000008"><a xlink:href="client_2l4virtio_source.html" target="_top" xlink:title=" ">
<polygon fill="white" stroke="#666666" points="579,-228 486,-228 486,-198 579,-198 579,-228"/>
<text text-anchor="start" x="494" y="-216" font-family="Helvetica,sans-Serif" font-size="10.00">l4/l4virtio/client</text>
<text text-anchor="middle" x="532.5" y="-205" font-family="Helvetica,sans-Serif" font-size="10.00">/l4virtio</text>
</a>
</g>
</g>
<!-- Node7&#45;&gt;Node8 -->
<g id="edge7_Node000007_Node000008" class="edge">
<title>Node7&#45;&gt;Node8</title>
<g id="a_edge7_Node000007_Node000008"><a xlink:title=" ">
<path fill="none" stroke="#63b8ff" d="M552.02,-254.78C547.93,-246.23 543.09,-236.13 539.26,-228.11"/>
<polygon fill="#63b8ff" stroke="#63b8ff" points="548.89,-256.36 556.37,-263.87 555.21,-253.34 548.89,-256.36"/>
</a>
</g>
</g>
<!-- Node9 -->
<g id="Node000009" class="node">
<title>Node9</title>
<g id="a_Node000009"><a xlink:href="client_2virtio-block_source.html" target="_top" xlink:title=" ">
<polygon fill="white" stroke="#666666" points="533,-162 440,-162 440,-132 533,-132 533,-162"/>
<text text-anchor="start" x="448" y="-150" font-family="Helvetica,sans-Serif" font-size="10.00">l4/l4virtio/client</text>
<text text-anchor="middle" x="486.5" y="-139" font-family="Helvetica,sans-Serif" font-size="10.00">/virtio&#45;block</text>
</a>
</g>
</g>
<!-- Node7&#45;&gt;Node9 -->
<g id="edge10_Node000007_Node000009" class="edge">
<title>Node7&#45;&gt;Node9</title>
<g id="a_edge10_Node000007_Node000009"><a xlink:title=" ">
<path fill="none" stroke="#63b8ff" d="M517.93,-260.05C502.41,-253.22 486.47,-242.99 477.5,-228 465.3,-207.61 473.27,-179.02 480,-162.12"/>
<polygon fill="#63b8ff" stroke="#63b8ff" points="516.9,-263.4 527.48,-263.87 519.5,-256.9 516.9,-263.4"/>
</a>
</g>
</g>
<!-- Node10 -->
<g id="Node000010" class="node">
<title>Node10</title>
<g id="a_Node000010"><a xlink:href="virtio_source.html" target="_top" xlink:title=" ">
<polygon fill="white" stroke="#666666" points="847,-228 750,-228 750,-198 847,-198 847,-228"/>
<text text-anchor="start" x="758" y="-216" font-family="Helvetica,sans-Serif" font-size="10.00">l4/l4virtio/server</text>
<text text-anchor="middle" x="798.5" y="-205" font-family="Helvetica,sans-Serif" font-size="10.00">/virtio</text>
</a>
</g>
</g>
<!-- Node7&#45;&gt;Node10 -->
<g id="edge12_Node000007_Node000010" class="edge">
<title>Node7&#45;&gt;Node10</title>
<g id="a_edge12_Node000007_Node000010"><a xlink:title=" ">
<path fill="none" stroke="#63b8ff" d="M604.87,-261.59C646.07,-251.47 707.28,-236.42 749.81,-225.97"/>
<polygon fill="#63b8ff" stroke="#63b8ff" points="603.98,-258.21 595.11,-263.99 605.65,-265.01 603.98,-258.21"/>
</a>
</g>
</g>
<!-- Node8&#45;&gt;Node6 -->
<g id="edge9_Node000008_Node000006" class="edge">
<title>Node8&#45;&gt;Node6</title>
<g id="a_edge9_Node000008_Node000006"><a xlink:title=" ">
<path fill="none" stroke="#63b8ff" d="M561.83,-192.03C576.06,-182.34 592.81,-170.94 605.7,-162.16"/>
<polygon fill="#63b8ff" stroke="#63b8ff" points="559.66,-189.28 553.36,-197.8 563.6,-195.06 559.66,-189.28"/>
</a>
</g>
</g>
<!-- Node8&#45;&gt;Node9 -->
<g id="edge8_Node000008_Node000009" class="edge">
<title>Node8&#45;&gt;Node9</title>
<g id="a_edge8_Node000008_Node000009"><a xlink:title=" ">
<path fill="none" stroke="#63b8ff" d="M516.35,-189.53C509.81,-180.43 502.45,-170.19 496.68,-162.16"/>
<polygon fill="#63b8ff" stroke="#63b8ff" points="513.61,-191.72 522.29,-197.8 519.3,-187.63 513.61,-191.72"/>
</a>
</g>
</g>
<!-- Node11 -->
<g id="Node000011" class="node">
<title>Node11</title>
<g id="a_Node000011"><a xlink:href="server_2l4virtio_source.html" target="_top" xlink:title=" ">
<polygon fill="white" stroke="#666666" points="1110,-162 1013,-162 1013,-132 1110,-132 1110,-162"/>
<text text-anchor="start" x="1021" y="-150" font-family="Helvetica,sans-Serif" font-size="10.00">l4/l4virtio/server</text>
<text text-anchor="middle" x="1061.5" y="-139" font-family="Helvetica,sans-Serif" font-size="10.00">/l4virtio</text>
</a>
</g>
</g>
<!-- Node10&#45;&gt;Node11 -->
<g id="edge13_Node000010_Node000011" class="edge">
<title>Node10&#45;&gt;Node11</title>
<g id="a_edge13_Node000010_Node000011"><a xlink:title=" ">
<path fill="none" stroke="#63b8ff" d="M857.05,-197.75C903.88,-186.36 968.77,-170.57 1012.79,-159.85"/>
<polygon fill="#63b8ff" stroke="#63b8ff" points="855.93,-194.42 847.04,-200.19 857.59,-201.22 855.93,-194.42"/>
</a>
</g>
</g>
<!-- Node15 -->
<g id="Node000015" class="node">
<title>Node15</title>
<g id="a_Node000015"><a xlink:href="virtio-scmi-device_source.html" target="_top" xlink:title=" ">
<polygon fill="white" stroke="#666666" points="852.5,-96 744.5,-96 744.5,-66 852.5,-66 852.5,-96"/>
<text text-anchor="start" x="752.5" y="-84" font-family="Helvetica,sans-Serif" font-size="10.00">l4/l4virtio/server</text>
<text text-anchor="middle" x="798.5" y="-73" font-family="Helvetica,sans-Serif" font-size="10.00">/virtio&#45;scmi&#45;device</text>
</a>
</g>
</g>
<!-- Node10&#45;&gt;Node15 -->
<g id="edge19_Node000010_Node000015" class="edge">
<title>Node10&#45;&gt;Node15</title>
<g id="a_edge19_Node000010_Node000015"><a xlink:title=" ">
<path fill="none" stroke="#63b8ff" d="M798.5,-187.68C798.5,-160.7 798.5,-118.11 798.5,-96.14"/>
<polygon fill="#63b8ff" stroke="#63b8ff" points="795,-187.84 798.5,-197.84 802,-187.84 795,-187.84"/>
</a>
</g>
</g>
<!-- Node12 -->
<g id="Node000012" class="node">
<title>Node12</title>
<g id="a_Node000012"><a xlink:href="server_2virtio-block_source.html" target="_top" xlink:title=" ">
<polygon fill="white" stroke="#666666" points="1071,-96 974,-96 974,-66 1071,-66 1071,-96"/>
<text text-anchor="start" x="982" y="-84" font-family="Helvetica,sans-Serif" font-size="10.00">l4/l4virtio/server</text>
<text text-anchor="middle" x="1022.5" y="-73" font-family="Helvetica,sans-Serif" font-size="10.00">/virtio&#45;block</text>
</a>
</g>
</g>
<!-- Node11&#45;&gt;Node12 -->
<g id="edge14_Node000011_Node000012" class="edge">
<title>Node11&#45;&gt;Node12</title>
<g id="a_edge14_Node000011_Node000012"><a xlink:title=" ">
<path fill="none" stroke="#63b8ff" d="M1047.63,-123.24C1042.13,-114.21 1035.97,-104.11 1031.13,-96.16"/>
<polygon fill="#63b8ff" stroke="#63b8ff" points="1044.65,-125.08 1052.84,-131.8 1050.63,-121.44 1044.65,-125.08"/>
</a>
</g>
</g>
<!-- Node13 -->
<g id="Node000013" class="node">
<title>Node13</title>
<g id="a_Node000013"><a xlink:href="virtio-console_source.html" target="_top" xlink:title=" ">
<polygon fill="white" stroke="#666666" points="1225,-96 1128,-96 1128,-66 1225,-66 1225,-96"/>
<text text-anchor="start" x="1136" y="-84" font-family="Helvetica,sans-Serif" font-size="10.00">l4/l4virtio/server</text>
<text text-anchor="middle" x="1176.5" y="-73" font-family="Helvetica,sans-Serif" font-size="10.00">/virtio&#45;console</text>
</a>
</g>
</g>
<!-- Node11&#45;&gt;Node13 -->
<g id="edge15_Node000011_Node000013" class="edge">
<title>Node11&#45;&gt;Node13</title>
<g id="a_edge15_Node000011_Node000013"><a xlink:title=" ">
<path fill="none" stroke="#63b8ff" d="M1095.7,-126.97C1113.55,-117.03 1135.01,-105.09 1151.32,-96.01"/>
<polygon fill="#63b8ff" stroke="#63b8ff" points="1093.77,-124.03 1086.74,-131.95 1097.18,-130.15 1093.77,-124.03"/>
</a>
</g>
</g>
<!-- Node14 -->
<g id="Node000014" class="node">
<title>Node14</title>
<g id="a_Node000014"><a xlink:href="virtio-console-device_source.html" target="_top" xlink:title=" ">
<polygon fill="white" stroke="#666666" points="1237.5,-30 1115.5,-30 1115.5,0 1237.5,0 1237.5,-30"/>
<text text-anchor="start" x="1123.5" y="-18" font-family="Helvetica,sans-Serif" font-size="10.00">l4/l4virtio/server</text>
<text text-anchor="middle" x="1176.5" y="-7" font-family="Helvetica,sans-Serif" font-size="10.00">/virtio&#45;console&#45;device</text>
</a>
</g>
</g>
<!-- Node11&#45;&gt;Node14 -->
<g id="edge17_Node000011_Node000014" class="edge">
<title>Node11&#45;&gt;Node14</title>
<g id="a_edge17_Node000011_Node000014"><a xlink:title=" ">
<path fill="none" stroke="#63b8ff" d="M1075.86,-123.46C1086.91,-106.84 1103.02,-84.08 1119.5,-66 1131.47,-52.87 1146.67,-39.68 1158.36,-30.15"/>
<polygon fill="#63b8ff" stroke="#63b8ff" points="1072.83,-121.7 1070.28,-131.99 1078.68,-125.54 1072.83,-121.7"/>
</a>
</g>
</g>
<!-- Node11&#45;&gt;Node15 -->
<g id="edge18_Node000011_Node000015" class="edge">
<title>Node11&#45;&gt;Node15</title>
<g id="a_edge18_Node000011_Node000015"><a xlink:title=" ">
<path fill="none" stroke="#63b8ff" d="M1003.06,-131.78C958.11,-120.84 896.49,-105.85 852.66,-95.18"/>
<polygon fill="#63b8ff" stroke="#63b8ff" points="1002.41,-135.22 1012.96,-134.19 1004.07,-128.42 1002.41,-135.22"/>
</a>
</g>
</g>
<!-- Node13&#45;&gt;Node14 -->
<g id="edge16_Node000013_Node000014" class="edge">
<title>Node13&#45;&gt;Node14</title>
<g id="a_edge16_Node000013_Node000014"><a xlink:title=" ">
<path fill="none" stroke="#63b8ff" d="M1176.5,-55.54C1176.5,-46.96 1176.5,-37.61 1176.5,-30.16"/>
<polygon fill="#63b8ff" stroke="#63b8ff" points="1173,-55.8 1176.5,-65.8 1180,-55.8 1173,-55.8"/>
</a>
</g>
</g>
<!-- Node16&#45;&gt;Node6 -->
<g id="edge23_Node000016_Node000006" class="edge">
<title>Node16&#45;&gt;Node6</title>
<g id="a_edge23_Node000016_Node000006"><a xlink:title=" ">
<path fill="none" stroke="#63b8ff" d="M864.58,-263.62C827.82,-256.84 780.68,-245.62 741.5,-228 738.91,-226.83 678.74,-184.68 646.49,-162.05"/>
<polygon fill="#63b8ff" stroke="#63b8ff" points="864.19,-267.1 874.65,-265.41 865.42,-260.21 864.19,-267.1"/>
</a>
</g>
</g>
<!-- Node16&#45;&gt;Node8 -->
<g id="edge21_Node000016_Node000008" class="edge">
<title>Node16&#45;&gt;Node8</title>
<g id="a_edge21_Node000016_Node000008"><a xlink:title=" ">
<path fill="none" stroke="#63b8ff" d="M864.67,-263.45C785.92,-251.72 650.36,-231.54 579.21,-220.95"/>
<polygon fill="#63b8ff" stroke="#63b8ff" points="864.52,-266.96 874.93,-264.97 865.55,-260.04 864.52,-266.96"/>
</a>
</g>
</g>
<!-- Node16&#45;&gt;Node9 -->
<g id="edge22_Node000016_Node000009" class="edge">
<title>Node16&#45;&gt;Node9</title>
<g id="a_edge22_Node000016_Node000009"><a xlink:title=" ">
<path fill="none" stroke="#63b8ff" d="M864.78,-263.53C818.46,-255.99 753.33,-243.91 697.5,-228 632.51,-209.48 559.3,-179.6 518.46,-162.07"/>
<polygon fill="#63b8ff" stroke="#63b8ff" points="864.23,-266.99 874.66,-265.11 865.34,-260.07 864.23,-266.99"/>
</a>
</g>
</g>
<!-- Node16&#45;&gt;Node11 -->
<g id="edge24_Node000016_Node000011" class="edge">
<title>Node16&#45;&gt;Node11</title>
<g id="a_edge24_Node000016_Node000011"><a xlink:title=" ">
<path fill="none" stroke="#63b8ff" d="M986.21,-269.44C1047.8,-264.92 1137.02,-253.97 1158.5,-228 1180.69,-201.17 1137.58,-176.72 1101.92,-162.1"/>
<polygon fill="#63b8ff" stroke="#63b8ff" points="985.94,-265.95 976.2,-270.14 986.42,-272.94 985.94,-265.95"/>
</a>
</g>
</g>
<!-- Node16&#45;&gt;Node13 -->
<g id="edge25_Node000016_Node000013" class="edge">
<title>Node16&#45;&gt;Node13</title>
<g id="a_edge25_Node000016_Node000013"><a xlink:title=" ">
<path fill="none" stroke="#63b8ff" d="M986.46,-270.31C1052.53,-266.51 1151.76,-256.15 1175.5,-228 1207.53,-190.03 1191.1,-124.62 1181.64,-96.04"/>
<polygon fill="#63b8ff" stroke="#63b8ff" points="985.95,-266.83 976.15,-270.87 986.33,-273.82 985.95,-266.83"/>
</a>
</g>
</g>
<!-- Node16&#45;&gt;Node14 -->
<g id="edge26_Node000016_Node000014" class="edge">
<title>Node16&#45;&gt;Node14</title>
<g id="a_edge26_Node000016_Node000014"><a xlink:title=" ">
<path fill="none" stroke="#63b8ff" d="M986.28,-269.93C1056.47,-265.73 1166.19,-254.95 1196.5,-228 1251.77,-178.87 1265.31,-133.23 1234.5,-66 1227.58,-50.89 1213.59,-38.62 1201.08,-30.01"/>
<polygon fill="#63b8ff" stroke="#63b8ff" points="986.01,-266.44 976.23,-270.51 986.41,-273.43 986.01,-266.44"/>
</a>
</g>
</g>
<!-- Node17 -->
<g id="Node000017" class="node">
<title>Node17</title>
<g id="a_Node000017"><a xlink:href="mem__alloc__impl_8h.html" target="_top" xlink:title="Memory allocator client stub implementation.">
<polygon fill="white" stroke="#666666" points="985.5,-228 865.5,-228 865.5,-198 985.5,-198 985.5,-228"/>
<text text-anchor="start" x="873.5" y="-216" font-family="Helvetica,sans-Serif" font-size="10.00">l4/re/impl/mem_alloc</text>
<text text-anchor="middle" x="925.5" y="-205" font-family="Helvetica,sans-Serif" font-size="10.00">_impl.h</text>
</a>
</g>
</g>
<!-- Node16&#45;&gt;Node17 -->
<g id="edge27_Node000016_Node000017" class="edge">
<title>Node16&#45;&gt;Node17</title>
<g id="a_edge27_Node000016_Node000017"><a xlink:title=" ">
<path fill="none" stroke="#63b8ff" d="M925.5,-253.65C925.5,-245.36 925.5,-235.78 925.5,-228.11"/>
<polygon fill="#63b8ff" stroke="#63b8ff" points="922,-253.87 925.5,-263.87 929,-253.87 922,-253.87"/>
</a>
</g>
</g>
<!-- Node18 -->
<g id="Node000018" class="node">
<title>Node18</title>
<g id="a_Node000018"><a xlink:href="goos__fb_source.html" target="_top" xlink:title=" ">
<polygon fill="white" stroke="#666666" points="1131.5,-222.5 1003.5,-222.5 1003.5,-203.5 1131.5,-203.5 1131.5,-222.5"/>
<text text-anchor="middle" x="1067.5" y="-210.5" font-family="Helvetica,sans-Serif" font-size="10.00">l4/re/util/video/goos_fb</text>
</a>
</g>
</g>
<!-- Node16&#45;&gt;Node18 -->
<g id="edge28_Node000016_Node000018" class="edge">
<title>Node16&#45;&gt;Node18</title>
<g id="a_edge28_Node000016_Node000018"><a xlink:title=" ">
<path fill="none" stroke="#63b8ff" d="M955.64,-260.08C983.07,-248.78 1022.84,-232.4 1046.83,-222.52"/>
<polygon fill="#63b8ff" stroke="#63b8ff" points="954.06,-256.95 946.15,-263.99 956.73,-263.42 954.06,-256.95"/>
</a>
</g>
</g>
<!-- Node18&#45;&gt;Node18 -->
<g id="edge29_Node000018_Node000018" class="edge">
<title>Node18&#45;&gt;Node18</title>
<g id="a_edge29_Node000018_Node000018"><a xlink:title=" ">
<path fill="none" stroke="#63b8ff" d="M1107.85,-223.77C1129.62,-225.64 1149.5,-222.04 1149.5,-213 1149.5,-202.57 1123.07,-199.39 1097.78,-203.47"/>
<polygon fill="#63b8ff" stroke="#63b8ff" points="1108.13,-220.28 1097.78,-222.53 1107.28,-227.23 1108.13,-220.28"/>
</a>
</g>
</g>
<!-- Node19&#45;&gt;Node8 -->
<g id="edge31_Node000019_Node000008" class="edge">
<title>Node19&#45;&gt;Node8</title>
<g id="a_edge31_Node000019_Node000008"><a xlink:title=" ">
<path fill="none" stroke="#63b8ff" d="M445.44,-259.07C463.33,-249.81 487.07,-237.52 505.24,-228.11"/>
<polygon fill="#63b8ff" stroke="#63b8ff" points="443.44,-256.16 436.17,-263.87 446.66,-262.38 443.44,-256.16"/>
</a>
</g>
</g>
<!-- Node19&#45;&gt;Node9 -->
<g id="edge32_Node000019_Node000009" class="edge">
<title>Node19&#45;&gt;Node9</title>
<g id="a_edge32_Node000019_Node000009"><a xlink:title=" ">
<path fill="none" stroke="#63b8ff" d="M423.33,-253.8C427.03,-238.2 433.55,-215.74 443.5,-198 451,-184.62 462.43,-171.55 471.62,-162.13"/>
<polygon fill="#63b8ff" stroke="#63b8ff" points="419.87,-253.26 421.13,-263.78 426.7,-254.77 419.87,-253.26"/>
</a>
</g>
</g>
<!-- Node19&#45;&gt;Node15 -->
<g id="edge33_Node000019_Node000015" class="edge">
<title>Node19&#45;&gt;Node15</title>
<g id="a_edge33_Node000019_Node000015"><a xlink:title=" ">
<path fill="none" stroke="#63b8ff" d="M414.59,-253.8C407.95,-223.78 400.23,-164.88 431.5,-132 473.32,-88.02 652.98,-81.71 744.49,-81.43"/>
<polygon fill="#63b8ff" stroke="#63b8ff" points="411.25,-254.88 417,-263.78 418.05,-253.24 411.25,-254.88"/>
</a>
</g>
</g>
</g>
</svg>
