<?xml version="1.0" encoding="UTF-8" standalone="no"?>
<!DOCTYPE svg PUBLIC "-//W3C//DTD SVG 1.1//EN"
 "http://www.w3.org/Graphics/SVG/1.1/DTD/svg11.dtd">
<!-- Generated by graphviz version 2.42.4 (0)
 -->
<!-- Title: l4/cxx/bits/bst_base.h Pages: 1 -->
<svg width="280pt" height="423pt"
 viewBox="0.00 0.00 279.50 423.00" xmlns="http://www.w3.org/2000/svg" xmlns:xlink="http://www.w3.org/1999/xlink">
<g id="graph0" class="graph" transform="scale(1 1) rotate(0) translate(4 419)">
<title>l4/cxx/bits/bst_base.h</title>
<!-- Node1 -->
<g id="Node000001" class="node">
<title>Node1</title>
<g id="a_Node000001"><a xlink:title="AVL tree.">
<polygon fill="#999999" stroke="#666666" points="190.5,-415 68.5,-415 68.5,-396 190.5,-396 190.5,-415"/>
<text text-anchor="middle" x="129.5" y="-403" font-family="Helvetica,sans-Serif" font-size="10.00">l4/cxx/bits/bst_base.h</text>
</a>
</g>
</g>
<!-- Node2 -->
<g id="Node000002" class="node">
<title>Node2</title>
<g id="a_Node000002"><a xlink:href="bst_8h.html" target="_top" xlink:title="AVL tree.">
<polygon fill="white" stroke="#666666" points="144.5,-305 50.5,-305 50.5,-286 144.5,-286 144.5,-305"/>
<text text-anchor="middle" x="97.5" y="-293" font-family="Helvetica,sans-Serif" font-size="10.00">l4/cxx/bits/bst.h</text>
</a>
</g>
</g>
<!-- Node1&#45;&gt;Node2 -->
<g id="edge1_Node000001_Node000002" class="edge">
<title>Node1&#45;&gt;Node2</title>
<g id="a_edge1_Node000001_Node000002"><a xlink:title=" ">
<path fill="none" stroke="#63b8ff" d="M118.7,-386.98C114.26,-379.01 109.47,-369.31 106.5,-360 100.47,-341.12 98.48,-317.79 97.82,-305.33"/>
<polygon fill="#63b8ff" stroke="#63b8ff" points="115.73,-388.82 123.81,-395.68 121.77,-385.29 115.73,-388.82"/>
</a>
</g>
</g>
<!-- Node9 -->
<g id="Node000009" class="node">
<title>Node9</title>
<g id="a_Node000009"><a xlink:href="bst__iter_8h.html" target="_top" xlink:title="AVL tree.">
<polygon fill="white" stroke="#666666" points="230,-360 115,-360 115,-341 230,-341 230,-360"/>
<text text-anchor="middle" x="172.5" y="-348" font-family="Helvetica,sans-Serif" font-size="10.00">l4/cxx/bits/bst_iter.h</text>
</a>
</g>
</g>
<!-- Node1&#45;&gt;Node9 -->
<g id="edge8_Node000001_Node000009" class="edge">
<title>Node1&#45;&gt;Node9</title>
<g id="a_edge8_Node000001_Node000009"><a xlink:title=" ">
<path fill="none" stroke="#63b8ff" d="M142.92,-387.96C150.41,-378.72 159.44,-367.6 165.53,-360.09"/>
<polygon fill="#63b8ff" stroke="#63b8ff" points="140.18,-385.78 136.6,-395.75 145.62,-390.19 140.18,-385.78"/>
</a>
</g>
</g>
<!-- Node3 -->
<g id="Node000003" class="node">
<title>Node3</title>
<g id="a_Node000003"><a xlink:href="avl__tree.html" target="_top" xlink:title="AVL tree.">
<polygon fill="white" stroke="#666666" points="179,-250 90,-250 90,-231 179,-231 179,-250"/>
<text text-anchor="middle" x="134.5" y="-238" font-family="Helvetica,sans-Serif" font-size="10.00">l4/cxx/avl_tree</text>
</a>
</g>
</g>
<!-- Node2&#45;&gt;Node3 -->
<g id="edge2_Node000002_Node000003" class="edge">
<title>Node2&#45;&gt;Node3</title>
<g id="a_edge2_Node000002_Node000003"><a xlink:title=" ">
<path fill="none" stroke="#63b8ff" d="M109.45,-277.39C115.81,-268.27 123.37,-257.45 128.5,-250.09"/>
<polygon fill="#63b8ff" stroke="#63b8ff" points="106.46,-275.55 103.61,-285.75 112.2,-279.55 106.46,-275.55"/>
</a>
</g>
</g>
<!-- Node4 -->
<g id="Node000004" class="node">
<title>Node4</title>
<g id="a_Node000004"><a xlink:href="avl__set.html" target="_top" xlink:title="AVL set.">
<polygon fill="white" stroke="#666666" points="111.5,-195 27.5,-195 27.5,-176 111.5,-176 111.5,-195"/>
<text text-anchor="middle" x="69.5" y="-183" font-family="Helvetica,sans-Serif" font-size="10.00">l4/cxx/avl_set</text>
</a>
</g>
</g>
<!-- Node3&#45;&gt;Node4 -->
<g id="edge3_Node000003_Node000004" class="edge">
<title>Node3&#45;&gt;Node4</title>
<g id="a_edge3_Node000003_Node000004"><a xlink:title=" ">
<path fill="none" stroke="#63b8ff" d="M116.23,-224.6C104.58,-215.11 89.9,-203.13 80.13,-195.17"/>
<polygon fill="#63b8ff" stroke="#63b8ff" points="114.09,-227.38 124.06,-230.98 118.52,-221.95 114.09,-227.38"/>
</a>
</g>
</g>
<!-- Node8 -->
<g id="Node000008" class="node">
<title>Node8</title>
<g id="a_Node000008"><a xlink:href="name__space__svr_source.html" target="_top" xlink:title=" ">
<polygon fill="white" stroke="#666666" points="271.5,-195 129.5,-195 129.5,-176 271.5,-176 271.5,-195"/>
<text text-anchor="middle" x="200.5" y="-183" font-family="Helvetica,sans-Serif" font-size="10.00">l4/re/util/name_space_svr</text>
</a>
</g>
</g>
<!-- Node3&#45;&gt;Node8 -->
<g id="edge7_Node000003_Node000008" class="edge">
<title>Node3&#45;&gt;Node8</title>
<g id="a_edge7_Node000003_Node000008"><a xlink:title=" ">
<path fill="none" stroke="#63b8ff" d="M153.05,-224.6C164.88,-215.11 179.79,-203.13 189.7,-195.17"/>
<polygon fill="#63b8ff" stroke="#63b8ff" points="150.71,-221.99 145.1,-230.98 155.09,-227.45 150.71,-221.99"/>
</a>
</g>
</g>
<!-- Node5 -->
<g id="Node000005" class="node">
<title>Node5</title>
<g id="a_Node000005"><a xlink:href="avl__map.html" target="_top" xlink:title="AVL map.">
<polygon fill="white" stroke="#666666" points="115,-140 24,-140 24,-121 115,-121 115,-140"/>
<text text-anchor="middle" x="69.5" y="-128" font-family="Helvetica,sans-Serif" font-size="10.00">l4/cxx/avl_map</text>
</a>
</g>
</g>
<!-- Node4&#45;&gt;Node5 -->
<g id="edge4_Node000004_Node000005" class="edge">
<title>Node4&#45;&gt;Node5</title>
<g id="a_edge4_Node000004_Node000005"><a xlink:title=" ">
<path fill="none" stroke="#63b8ff" d="M69.5,-165.66C69.5,-156.93 69.5,-146.99 69.5,-140.09"/>
<polygon fill="#63b8ff" stroke="#63b8ff" points="66,-165.75 69.5,-175.75 73,-165.75 66,-165.75"/>
</a>
</g>
</g>
<!-- Node6 -->
<g id="Node000006" class="node">
<title>Node6</title>
<g id="a_Node000006"><a xlink:href="region__mapping.html" target="_top" xlink:title="Region handling.">
<polygon fill="white" stroke="#666666" points="139,-85 0,-85 0,-66 139,-66 139,-85"/>
<text text-anchor="middle" x="69.5" y="-73" font-family="Helvetica,sans-Serif" font-size="10.00">l4/re/util/region_mapping</text>
</a>
</g>
</g>
<!-- Node5&#45;&gt;Node6 -->
<g id="edge5_Node000005_Node000006" class="edge">
<title>Node5&#45;&gt;Node6</title>
<g id="a_edge5_Node000005_Node000006"><a xlink:title=" ">
<path fill="none" stroke="#63b8ff" d="M69.5,-110.66C69.5,-101.93 69.5,-91.99 69.5,-85.09"/>
<polygon fill="#63b8ff" stroke="#63b8ff" points="66,-110.75 69.5,-120.75 73,-110.75 66,-110.75"/>
</a>
</g>
</g>
<!-- Node7 -->
<g id="Node000007" class="node">
<title>Node7</title>
<g id="a_Node000007"><a xlink:href="region__mapping__svr__2_source.html" target="_top" xlink:title=" ">
<polygon fill="white" stroke="#666666" points="139,-30 0,-30 0,0 139,0 139,-30"/>
<text text-anchor="start" x="8" y="-18" font-family="Helvetica,sans-Serif" font-size="10.00">l4/re/util/region_mapping</text>
<text text-anchor="middle" x="69.5" y="-7" font-family="Helvetica,sans-Serif" font-size="10.00">_svr_2</text>
</a>
</g>
</g>
<!-- Node6&#45;&gt;Node7 -->
<g id="edge6_Node000006_Node000007" class="edge">
<title>Node6&#45;&gt;Node7</title>
<g id="a_edge6_Node000006_Node000007"><a xlink:title=" ">
<path fill="none" stroke="#63b8ff" d="M69.5,-55.65C69.5,-47.36 69.5,-37.78 69.5,-30.11"/>
<polygon fill="#63b8ff" stroke="#63b8ff" points="66,-55.87 69.5,-65.87 73,-55.87 66,-55.87"/>
</a>
</g>
</g>
<!-- Node9&#45;&gt;Node2 -->
<g id="edge10_Node000009_Node000002" class="edge">
<title>Node9&#45;&gt;Node2</title>
<g id="a_edge10_Node000009_Node000002"><a xlink:title=" ">
<path fill="none" stroke="#63b8ff" d="M152.19,-335.15C138.64,-325.57 121.26,-313.29 109.77,-305.17"/>
<polygon fill="#63b8ff" stroke="#63b8ff" points="150.26,-338.07 160.45,-340.98 154.3,-332.36 150.26,-338.07"/>
</a>
</g>
</g>
<!-- Node9&#45;&gt;Node3 -->
<g id="edge9_Node000009_Node000003" class="edge">
<title>Node9&#45;&gt;Node3</title>
<g id="a_edge9_Node000009_Node000003"><a xlink:title=" ">
<path fill="none" stroke="#63b8ff" d="M167.53,-330.89C163.98,-318.14 158.89,-300.9 153.5,-286 148.93,-273.36 142.65,-259.14 138.58,-250.25"/>
<polygon fill="#63b8ff" stroke="#63b8ff" points="164.22,-332.04 170.22,-340.77 170.97,-330.2 164.22,-332.04"/>
</a>
</g>
</g>
</g>
</svg>
