<?xml version="1.0" encoding="UTF-8" standalone="no"?>
<!DOCTYPE svg PUBLIC "-//W3C//DTD SVG 1.1//EN"
 "http://www.w3.org/Graphics/SVG/1.1/DTD/svg11.dtd">
<!-- Generated by graphviz version 2.42.4 (0)
 -->
<!-- Title: l4/re/util/cap Pages: 1 -->
<svg width="719pt" height="808pt"
 viewBox="0.00 0.00 718.74 808.00" xmlns="http://www.w3.org/2000/svg" xmlns:xlink="http://www.w3.org/1999/xlink">
<g id="graph0" class="graph" transform="scale(1 1) rotate(0) translate(4 804)">
<title>l4/re/util/cap</title>
<!-- Node1 -->
<g id="Node000001" class="node">
<title>Node1</title>
<g id="a_Node000001"><a xlink:title="Capability utility functions.">
<polygon fill="#999999" stroke="#666666" points="672.5,-800 595.5,-800 595.5,-781 672.5,-781 672.5,-800"/>
<text text-anchor="middle" x="634" y="-788" font-family="Helvetica,sans-Serif" font-size="10.00">l4/re/util/cap</text>
</a>
</g>
</g>
<!-- Node2 -->
<g id="Node000002" class="node">
<title>Node2</title>
<g id="a_Node000002"><a xlink:href="task.html" target="_top" xlink:title="Common task related definitions.">
<polygon fill="white" stroke="#666666" points="668.5,-745 599.5,-745 599.5,-726 668.5,-726 668.5,-745"/>
<text text-anchor="middle" x="634" y="-733" font-family="Helvetica,sans-Serif" font-size="10.00">l4/sys/task</text>
</a>
</g>
</g>
<!-- Node1&#45;&gt;Node2 -->
<g id="edge1_Node000001_Node000002" class="edge">
<title>Node1&#45;&gt;Node2</title>
<g id="a_edge1_Node000001_Node000002"><a xlink:title=" ">
<path fill="none" stroke="#63b8ff" d="M634,-780.75C634,-773.8 634,-763.85 634,-755.13"/>
<polygon fill="#63b8ff" stroke="#63b8ff" points="637.5,-755.09 634,-745.09 630.5,-755.09 637.5,-755.09"/>
</a>
</g>
</g>
<!-- Node3 -->
<g id="Node000003" class="node">
<title>Node3</title>
<g id="a_Node000003"><a xlink:href="l4_2sys_2task_8h.html" target="_top" xlink:title="Common task related definitions.">
<polygon fill="white" stroke="#666666" points="568,-354.5 490,-354.5 490,-335.5 568,-335.5 568,-354.5"/>
<text text-anchor="middle" x="529" y="-342.5" font-family="Helvetica,sans-Serif" font-size="10.00">l4/sys/task.h</text>
</a>
</g>
</g>
<!-- Node2&#45;&gt;Node3 -->
<g id="edge2_Node000002_Node000003" class="edge">
<title>Node2&#45;&gt;Node3</title>
<g id="a_edge2_Node000002_Node000003"><a xlink:title=" ">
<path fill="none" stroke="#63b8ff" d="M638.88,-725.98C643.56,-717.26 650.31,-703.17 653,-690 656.61,-672.37 651.05,-627.99 648,-616 622.51,-515.81 563.25,-405.78 539.31,-363.7"/>
<polygon fill="#63b8ff" stroke="#63b8ff" points="542.29,-361.85 534.27,-354.93 536.22,-365.34 542.29,-361.85"/>
</a>
</g>
</g>
<!-- Node14 -->
<g id="Node000014" class="node">
<title>Node14</title>
<g id="a_Node000014"><a xlink:href="capability.html" target="_top" xlink:title="L4::Cap related definitions.">
<polygon fill="white" stroke="#666666" points="644,-690 548,-690 548,-671 644,-671 644,-690"/>
<text text-anchor="middle" x="596" y="-678" font-family="Helvetica,sans-Serif" font-size="10.00">l4/sys/capability</text>
</a>
</g>
</g>
<!-- Node2&#45;&gt;Node14 -->
<g id="edge24_Node000002_Node000014" class="edge">
<title>Node2&#45;&gt;Node14</title>
<g id="a_edge24_Node000002_Node000014"><a xlink:title=" ">
<path fill="none" stroke="#63b8ff" d="M627.73,-725.75C622.41,-718.34 614.64,-707.5 608.12,-698.41"/>
<polygon fill="#63b8ff" stroke="#63b8ff" points="610.83,-696.18 602.16,-690.09 605.14,-700.26 610.83,-696.18"/>
</a>
</g>
</g>
<!-- Node4 -->
<g id="Node000004" class="node">
<title>Node4</title>
<g id="a_Node000004"><a xlink:href="l4_2sys_2types_8h.html" target="_top" xlink:title="Common L4 ABI Data Types.">
<polygon fill="white" stroke="#666666" points="568,-184 484,-184 484,-165 568,-165 568,-184"/>
<text text-anchor="middle" x="526" y="-172" font-family="Helvetica,sans-Serif" font-size="10.00">l4/sys/types.h</text>
</a>
</g>
</g>
<!-- Node3&#45;&gt;Node4 -->
<g id="edge3_Node000003_Node000004" class="edge">
<title>Node3&#45;&gt;Node4</title>
<g id="a_edge3_Node000003_Node000004"><a xlink:title=" ">
<path fill="none" stroke="#63b8ff" d="M528.85,-335.41C528.38,-309.39 526.99,-230.97 526.34,-194.51"/>
<polygon fill="#63b8ff" stroke="#63b8ff" points="529.83,-194.21 526.16,-184.27 522.83,-194.33 529.83,-194.21"/>
</a>
</g>
</g>
<!-- Node11 -->
<g id="Node000011" class="node">
<title>Node11</title>
<g id="a_Node000011"><a xlink:href="l4_2sys_2utcb_8h.html" target="_top" xlink:title="UTCB definitions.">
<polygon fill="white" stroke="#666666" points="504,-239 426,-239 426,-220 504,-220 504,-239"/>
<text text-anchor="middle" x="465" y="-227" font-family="Helvetica,sans-Serif" font-size="10.00">l4/sys/utcb.h</text>
</a>
</g>
</g>
<!-- Node3&#45;&gt;Node11 -->
<g id="edge15_Node000003_Node000011" class="edge">
<title>Node3&#45;&gt;Node11</title>
<g id="a_edge15_Node000003_Node000011"><a xlink:title=" ">
<path fill="none" stroke="#63b8ff" d="M524.19,-335.47C513.77,-316.98 488.91,-272.9 474.95,-248.14"/>
<polygon fill="#63b8ff" stroke="#63b8ff" points="477.83,-246.12 469.87,-239.13 471.73,-249.56 477.83,-246.12"/>
</a>
</g>
</g>
<!-- Node12 -->
<g id="Node000012" class="node">
<title>Node12</title>
<g id="a_Node000012"><a xlink:href="l4_2sys_2ipc_8h.html" target="_top" xlink:title="Common IPC interface.">
<polygon fill="white" stroke="#666666" points="433.5,-294 362.5,-294 362.5,-275 433.5,-275 433.5,-294"/>
<text text-anchor="middle" x="398" y="-282" font-family="Helvetica,sans-Serif" font-size="10.00">l4/sys/ipc.h</text>
</a>
</g>
</g>
<!-- Node3&#45;&gt;Node12 -->
<g id="edge19_Node000003_Node000012" class="edge">
<title>Node3&#45;&gt;Node12</title>
<g id="a_edge19_Node000003_Node000012"><a xlink:title=" ">
<path fill="none" stroke="#63b8ff" d="M509.95,-335.49C488.03,-325.7 451.79,-309.52 426.5,-298.23"/>
<polygon fill="#63b8ff" stroke="#63b8ff" points="427.63,-294.9 417.07,-294.02 424.78,-301.29 427.63,-294.9"/>
</a>
</g>
</g>
<!-- Node5 -->
<g id="Node000005" class="node">
<title>Node5</title>
<g id="a_Node000005"><a xlink:href="l4_2sys_2l4int_8h.html" target="_top" xlink:title="Fixed sized integer types, generic version.">
<polygon fill="white" stroke="#666666" points="708.5,-74 629.5,-74 629.5,-55 708.5,-55 708.5,-74"/>
<text text-anchor="middle" x="669" y="-62" font-family="Helvetica,sans-Serif" font-size="10.00">l4/sys/l4int.h</text>
</a>
</g>
</g>
<!-- Node4&#45;&gt;Node5 -->
<g id="edge4_Node000004_Node000005" class="edge">
<title>Node4&#45;&gt;Node5</title>
<g id="a_edge4_Node000004_Node000005"><a xlink:title=" ">
<path fill="none" stroke="#63b8ff" d="M568.08,-167.99C611.87,-161.3 676.12,-148.43 691,-129 701.59,-115.17 692.35,-95.88 682.8,-82.19"/>
<polygon fill="#63b8ff" stroke="#63b8ff" points="685.52,-79.98 676.69,-74.12 679.94,-84.21 685.52,-79.98"/>
</a>
</g>
</g>
<!-- Node6 -->
<g id="Node000006" class="node">
<title>Node6</title>
<g id="a_Node000006"><a xlink:href="compiler_8h.html" target="_top" xlink:title="L4 compiler related defines.">
<polygon fill="white" stroke="#666666" points="362.5,-74 263.5,-74 263.5,-55 362.5,-55 362.5,-74"/>
<text text-anchor="middle" x="313" y="-62" font-family="Helvetica,sans-Serif" font-size="10.00">l4/sys/compiler.h</text>
</a>
</g>
</g>
<!-- Node4&#45;&gt;Node6 -->
<g id="edge5_Node000004_Node000006" class="edge">
<title>Node4&#45;&gt;Node6</title>
<g id="a_edge5_Node000004_Node000006"><a xlink:title=" ">
<path fill="none" stroke="#63b8ff" d="M483.61,-168.78C433.34,-162.34 353.62,-149.26 332,-129 319.81,-117.58 315.33,-98.69 313.74,-84.47"/>
<polygon fill="#63b8ff" stroke="#63b8ff" points="317.22,-84.02 313,-74.31 310.24,-84.54 317.22,-84.02"/>
</a>
</g>
</g>
<!-- Node8 -->
<g id="Node000008" class="node">
<title>Node8</title>
<g id="a_Node000008"><a xlink:href="l4_2sys_2consts_8h.html" target="_top" xlink:title="Common constants.">
<polygon fill="white" stroke="#666666" points="558.5,-129 469.5,-129 469.5,-110 558.5,-110 558.5,-129"/>
<text text-anchor="middle" x="514" y="-117" font-family="Helvetica,sans-Serif" font-size="10.00">l4/sys/consts.h</text>
</a>
</g>
</g>
<!-- Node4&#45;&gt;Node8 -->
<g id="edge7_Node000004_Node000008" class="edge">
<title>Node4&#45;&gt;Node8</title>
<g id="a_edge7_Node000004_Node000008"><a xlink:title=" ">
<path fill="none" stroke="#63b8ff" d="M524.02,-164.75C522.43,-157.72 520.14,-147.62 518.15,-138.84"/>
<polygon fill="#63b8ff" stroke="#63b8ff" points="521.57,-138.07 515.94,-129.09 514.74,-139.62 521.57,-138.07"/>
</a>
</g>
</g>
<!-- Node9 -->
<g id="Node000009" class="node">
<title>Node9</title>
<g id="a_Node000009"><a xlink:href="____l4__fpage_8h_source.html" target="_top" xlink:title=" ">
<polygon fill="white" stroke="#666666" points="451,-129 341,-129 341,-110 451,-110 451,-129"/>
<text text-anchor="middle" x="396" y="-117" font-family="Helvetica,sans-Serif" font-size="10.00">l4/sys/__l4_fpage.h</text>
</a>
</g>
</g>
<!-- Node4&#45;&gt;Node9 -->
<g id="edge10_Node000004_Node000009" class="edge">
<title>Node4&#45;&gt;Node9</title>
<g id="a_edge10_Node000004_Node000009"><a xlink:title=" ">
<path fill="none" stroke="#63b8ff" d="M505.11,-164.98C483.92,-156.34 450.87,-142.87 426.7,-133.02"/>
<polygon fill="#63b8ff" stroke="#63b8ff" points="427.85,-129.7 417.27,-129.17 425.21,-136.19 427.85,-129.7"/>
</a>
</g>
</g>
<!-- Node10 -->
<g id="Node000010" class="node">
<title>Node10</title>
<g id="a_Node000010"><a xlink:href="____timeout_8h_source.html" target="_top" xlink:title=" ">
<polygon fill="white" stroke="#666666" points="682,-129 576,-129 576,-110 682,-110 682,-129"/>
<text text-anchor="middle" x="629" y="-117" font-family="Helvetica,sans-Serif" font-size="10.00">l4/sys/__timeout.h</text>
</a>
</g>
</g>
<!-- Node4&#45;&gt;Node10 -->
<g id="edge12_Node000004_Node000010" class="edge">
<title>Node4&#45;&gt;Node10</title>
<g id="a_edge12_Node000004_Node000010"><a xlink:title=" ">
<path fill="none" stroke="#63b8ff" d="M542.55,-164.98C558.89,-156.57 584.13,-143.59 603.13,-133.81"/>
<polygon fill="#63b8ff" stroke="#63b8ff" points="604.86,-136.86 612.15,-129.17 601.66,-130.63 604.86,-136.86"/>
</a>
</g>
</g>
<!-- Node7 -->
<g id="Node000007" class="node">
<title>Node7</title>
<g id="a_Node000007"><a xlink:title=" ">
<polygon fill="#e0e0e0" stroke="#999999" points="359,-19 267,-19 267,0 359,0 359,-19"/>
<text text-anchor="middle" x="313" y="-7" font-family="Helvetica,sans-Serif" font-size="10.00">l4/sys/linkage.h</text>
</a>
</g>
</g>
<!-- Node6&#45;&gt;Node7 -->
<g id="edge6_Node000006_Node000007" class="edge">
<title>Node6&#45;&gt;Node7</title>
<g id="a_edge6_Node000006_Node000007"><a xlink:title=" ">
<path fill="none" stroke="#63b8ff" d="M313,-54.75C313,-47.8 313,-37.85 313,-29.13"/>
<polygon fill="#63b8ff" stroke="#63b8ff" points="316.5,-29.09 313,-19.09 309.5,-29.09 316.5,-29.09"/>
</a>
</g>
</g>
<!-- Node8&#45;&gt;Node5 -->
<g id="edge9_Node000008_Node000005" class="edge">
<title>Node8&#45;&gt;Node5</title>
<g id="a_edge9_Node000008_Node000005"><a xlink:title=" ">
<path fill="none" stroke="#63b8ff" d="M538.9,-109.98C564.7,-101.16 605.22,-87.31 634.18,-77.41"/>
<polygon fill="#63b8ff" stroke="#63b8ff" points="635.57,-80.63 643.9,-74.08 633.31,-74.01 635.57,-80.63"/>
</a>
</g>
</g>
<!-- Node8&#45;&gt;Node6 -->
<g id="edge8_Node000008_Node000006" class="edge">
<title>Node8&#45;&gt;Node6</title>
<g id="a_edge8_Node000008_Node000006"><a xlink:title=" ">
<path fill="none" stroke="#63b8ff" d="M481.71,-109.98C447.38,-100.93 392.94,-86.58 355.23,-76.64"/>
<polygon fill="#63b8ff" stroke="#63b8ff" points="356.11,-73.25 345.55,-74.08 354.32,-80.02 356.11,-73.25"/>
</a>
</g>
</g>
<!-- Node9&#45;&gt;Node6 -->
<g id="edge11_Node000009_Node000006" class="edge">
<title>Node9&#45;&gt;Node6</title>
<g id="a_edge11_Node000009_Node000006"><a xlink:title=" ">
<path fill="none" stroke="#63b8ff" d="M382.66,-109.98C369.91,-101.84 350.45,-89.41 335.33,-79.76"/>
<polygon fill="#63b8ff" stroke="#63b8ff" points="336.89,-76.6 326.58,-74.17 333.12,-82.5 336.89,-76.6"/>
</a>
</g>
</g>
<!-- Node10&#45;&gt;Node5 -->
<g id="edge13_Node000010_Node000005" class="edge">
<title>Node10&#45;&gt;Node5</title>
<g id="a_edge13_Node000010_Node000005"><a xlink:title=" ">
<path fill="none" stroke="#63b8ff" d="M635.61,-109.75C641.26,-102.26 649.54,-91.28 656.45,-82.13"/>
<polygon fill="#63b8ff" stroke="#63b8ff" points="659.29,-84.18 662.52,-74.09 653.7,-79.96 659.29,-84.18"/>
</a>
</g>
</g>
<!-- Node10&#45;&gt;Node6 -->
<g id="edge14_Node000010_Node000006" class="edge">
<title>Node10&#45;&gt;Node6</title>
<g id="a_edge14_Node000010_Node000006"><a xlink:title=" ">
<path fill="none" stroke="#63b8ff" d="M578.23,-109.98C522.16,-100.58 431.96,-85.45 372.59,-75.49"/>
<polygon fill="#63b8ff" stroke="#63b8ff" points="373.04,-72.02 362.6,-73.82 371.89,-78.93 373.04,-72.02"/>
</a>
</g>
</g>
<!-- Node11&#45;&gt;Node4 -->
<g id="edge16_Node000011_Node000004" class="edge">
<title>Node11&#45;&gt;Node4</title>
<g id="a_edge16_Node000011_Node000004"><a xlink:title=" ">
<path fill="none" stroke="#63b8ff" d="M474.8,-219.98C483.82,-212.15 497.41,-200.34 508.32,-190.86"/>
<polygon fill="#63b8ff" stroke="#63b8ff" points="510.77,-193.37 516.02,-184.17 506.18,-188.09 510.77,-193.37"/>
</a>
</g>
</g>
<!-- Node11&#45;&gt;Node5 -->
<g id="edge18_Node000011_Node000005" class="edge">
<title>Node11&#45;&gt;Node5</title>
<g id="a_edge18_Node000011_Node000005"><a xlink:title=" ">
<path fill="none" stroke="#63b8ff" d="M504.38,-225.42C560.54,-218.66 661.83,-197.16 707,-129 717.72,-112.83 702.56,-93.63 688.33,-80.62"/>
<polygon fill="#63b8ff" stroke="#63b8ff" points="690.57,-77.92 680.69,-74.08 686.01,-83.24 690.57,-77.92"/>
</a>
</g>
</g>
<!-- Node11&#45;&gt;Node6 -->
<g id="edge17_Node000011_Node000006" class="edge">
<title>Node11&#45;&gt;Node6</title>
<g id="a_edge17_Node000011_Node000006"><a xlink:title=" ">
<path fill="none" stroke="#63b8ff" d="M439.82,-219.95C404.99,-206.64 343.33,-177.33 316,-129 308.36,-115.49 308.21,-97.66 309.62,-84.34"/>
<polygon fill="#63b8ff" stroke="#63b8ff" points="313.09,-84.79 311.05,-74.39 306.17,-83.8 313.09,-84.79"/>
</a>
</g>
</g>
<!-- Node12&#45;&gt;Node4 -->
<g id="edge20_Node000012_Node000004" class="edge">
<title>Node12&#45;&gt;Node4</title>
<g id="a_edge20_Node000012_Node000004"><a xlink:title=" ">
<path fill="none" stroke="#63b8ff" d="M398.29,-274.98C399.18,-261.62 402.77,-235.68 417,-220 431.93,-203.55 453.84,-193.04 474.1,-186.4"/>
<polygon fill="#63b8ff" stroke="#63b8ff" points="475.32,-189.69 483.88,-183.44 473.3,-182.99 475.32,-189.69"/>
</a>
</g>
</g>
<!-- Node12&#45;&gt;Node11 -->
<g id="edge21_Node000012_Node000011" class="edge">
<title>Node12&#45;&gt;Node11</title>
<g id="a_edge21_Node000012_Node000011"><a xlink:title=" ">
<path fill="none" stroke="#63b8ff" d="M408.76,-274.98C418.77,-267.07 433.89,-255.11 445.93,-245.58"/>
<polygon fill="#63b8ff" stroke="#63b8ff" points="448.37,-248.12 454.04,-239.17 444.03,-242.63 448.37,-248.12"/>
</a>
</g>
</g>
<!-- Node13 -->
<g id="Node000013" class="node">
<title>Node13</title>
<g id="a_Node000013"><a xlink:href="err_8h.html" target="_top" xlink:title="Error codes.">
<polygon fill="white" stroke="#666666" points="140,-239 70,-239 70,-220 140,-220 140,-239"/>
<text text-anchor="middle" x="105" y="-227" font-family="Helvetica,sans-Serif" font-size="10.00">l4/sys/err.h</text>
</a>
</g>
</g>
<!-- Node12&#45;&gt;Node13 -->
<g id="edge22_Node000012_Node000013" class="edge">
<title>Node12&#45;&gt;Node13</title>
<g id="a_edge22_Node000012_Node000013"><a xlink:title=" ">
<path fill="none" stroke="#63b8ff" d="M362.37,-277.05C309.13,-267.43 208.87,-249.29 150.44,-238.72"/>
<polygon fill="#63b8ff" stroke="#63b8ff" points="150.85,-235.24 140.39,-236.9 149.6,-242.13 150.85,-235.24"/>
</a>
</g>
</g>
<!-- Node13&#45;&gt;Node6 -->
<g id="edge23_Node000013_Node000006" class="edge">
<title>Node13&#45;&gt;Node6</title>
<g id="a_edge23_Node000013_Node000006"><a xlink:title=" ">
<path fill="none" stroke="#63b8ff" d="M105.99,-219.87C108.98,-198.06 119.86,-140.29 154,-110 181.2,-85.86 220.5,-74.72 253.21,-69.62"/>
<polygon fill="#63b8ff" stroke="#63b8ff" points="253.72,-73.08 263.14,-68.22 252.75,-66.15 253.72,-73.08"/>
</a>
</g>
</g>
<!-- Node14&#45;&gt;Node3 -->
<g id="edge46_Node000014_Node000003" class="edge">
<title>Node14&#45;&gt;Node3</title>
<g id="a_edge46_Node000014_Node000003"><a xlink:title=" ">
<path fill="none" stroke="#63b8ff" d="M588.55,-670.94C574.17,-653.5 544,-612.08 544,-571.5 544,-571.5 544,-571.5 544,-459.5 544,-425.83 537.43,-387.03 532.99,-364.63"/>
<polygon fill="#63b8ff" stroke="#63b8ff" points="536.41,-363.87 530.96,-354.78 529.55,-365.28 536.41,-363.87"/>
</a>
</g>
</g>
<!-- Node14&#45;&gt;Node4 -->
<g id="edge26_Node000014_Node000004" class="edge">
<title>Node14&#45;&gt;Node4</title>
<g id="a_edge26_Node000014_Node000004"><a xlink:title=" ">
<path fill="none" stroke="#63b8ff" d="M600.3,-670.79C616.38,-637.43 672,-514.24 672,-406.5 672,-406.5 672,-406.5 672,-283.5 672,-231.73 611.93,-201.94 568.85,-187.23"/>
<polygon fill="#63b8ff" stroke="#63b8ff" points="569.72,-183.83 559.13,-184.06 567.55,-190.49 569.72,-183.83"/>
</a>
</g>
</g>
<!-- Node14&#45;&gt;Node8 -->
<g id="edge25_Node000014_Node000008" class="edge">
<title>Node14&#45;&gt;Node8</title>
<g id="a_edge25_Node000014_Node000008"><a xlink:title=" ">
<path fill="none" stroke="#63b8ff" d="M604.57,-670.81C631.08,-642.98 710,-552.47 710,-461.5 710,-461.5 710,-461.5 710,-228.5 710,-192.49 607.23,-152 550.53,-132.4"/>
<polygon fill="#63b8ff" stroke="#63b8ff" points="551.44,-129.02 540.84,-129.1 549.18,-135.64 551.44,-129.02"/>
</a>
</g>
</g>
<!-- Node15 -->
<g id="Node000015" class="node">
<title>Node15</title>
<g id="a_Node000015"><a xlink:href="kobject_source.html" target="_top" xlink:title=" ">
<polygon fill="white" stroke="#666666" points="465.5,-525 382.5,-525 382.5,-506 465.5,-506 465.5,-525"/>
<text text-anchor="middle" x="424" y="-513" font-family="Helvetica,sans-Serif" font-size="10.00">l4/sys/kobject</text>
</a>
</g>
</g>
<!-- Node14&#45;&gt;Node15 -->
<g id="edge27_Node000014_Node000015" class="edge">
<title>Node14&#45;&gt;Node15</title>
<g id="a_edge27_Node000014_Node000015"><a xlink:title=" ">
<path fill="none" stroke="#63b8ff" d="M581.09,-670.92C567.2,-662.59 546.25,-649.17 530,-635 492.74,-602.51 455.73,-557.47 436.86,-533.35"/>
<polygon fill="#63b8ff" stroke="#63b8ff" points="439.44,-530.97 430.55,-525.2 433.9,-535.25 439.44,-530.97"/>
</a>
</g>
</g>
<!-- Node22 -->
<g id="Node000022" class="node">
<title>Node22</title>
<g id="a_Node000022"><a xlink:href="sys_2meta.html" target="_top" xlink:title="Meta interface for getting dynamic type information about objects behind capabilities.">
<polygon fill="white" stroke="#666666" points="363,-635 289,-635 289,-616 363,-616 363,-635"/>
<text text-anchor="middle" x="326" y="-623" font-family="Helvetica,sans-Serif" font-size="10.00">l4/sys/meta</text>
</a>
</g>
</g>
<!-- Node14&#45;&gt;Node22 -->
<g id="edge47_Node000014_Node000022" class="edge">
<title>Node14&#45;&gt;Node22</title>
<g id="a_edge47_Node000014_Node000022"><a xlink:title=" ">
<path fill="none" stroke="#63b8ff" d="M552.62,-670.98C503.53,-661.35 423.84,-645.71 373.22,-635.77"/>
<polygon fill="#63b8ff" stroke="#63b8ff" points="373.68,-632.29 363.19,-633.8 372.33,-639.16 373.68,-632.29"/>
</a>
</g>
</g>
<!-- Node15&#45;&gt;Node4 -->
<g id="edge35_Node000015_Node000004" class="edge">
<title>Node15&#45;&gt;Node4</title>
<g id="a_edge35_Node000015_Node000004"><a xlink:title=" ">
<path fill="none" stroke="#63b8ff" d="M454.09,-505.88C512.15,-487.21 634,-437.15 634,-346 634,-346 634,-346 634,-283.5 634,-238.37 586.26,-205.51 554.26,-188.55"/>
<polygon fill="#63b8ff" stroke="#63b8ff" points="555.81,-185.41 545.31,-184 552.64,-191.65 555.81,-185.41"/>
</a>
</g>
</g>
<!-- Node16 -->
<g id="Node000016" class="node">
<title>Node16</title>
<g id="a_Node000016"><a xlink:href="kernel__object_8h.html" target="_top" xlink:title="Kernel object system calls.">
<polygon fill="white" stroke="#666666" points="469.5,-415 378.5,-415 378.5,-396 469.5,-396 469.5,-415"/>
<text text-anchor="middle" x="424" y="-403" font-family="Helvetica,sans-Serif" font-size="10.00">kernel_object.h</text>
</a>
</g>
</g>
<!-- Node15&#45;&gt;Node16 -->
<g id="edge28_Node000015_Node000016" class="edge">
<title>Node15&#45;&gt;Node16</title>
<g id="a_edge28_Node000015_Node000016"><a xlink:title=" ">
<path fill="none" stroke="#63b8ff" d="M424,-505.66C424,-488.17 424,-448.8 424,-425.27"/>
<polygon fill="#63b8ff" stroke="#63b8ff" points="427.5,-425.16 424,-415.16 420.5,-425.16 427.5,-425.16"/>
</a>
</g>
</g>
<!-- Node18 -->
<g id="Node000018" class="node">
<title>Node18</title>
<g id="a_Node000018"><a xlink:href="____typeinfo_8h.html" target="_top" xlink:title="Type information handling.">
<polygon fill="white" stroke="#666666" points="385.5,-470 308.5,-470 308.5,-451 385.5,-451 385.5,-470"/>
<text text-anchor="middle" x="347" y="-458" font-family="Helvetica,sans-Serif" font-size="10.00">__typeinfo.h</text>
</a>
</g>
</g>
<!-- Node15&#45;&gt;Node18 -->
<g id="edge36_Node000015_Node000018" class="edge">
<title>Node15&#45;&gt;Node18</title>
<g id="a_edge36_Node000015_Node000018"><a xlink:title=" ">
<path fill="none" stroke="#63b8ff" d="M411.63,-505.98C399.91,-497.92 382.08,-485.65 368.11,-476.03"/>
<polygon fill="#63b8ff" stroke="#63b8ff" points="369.82,-472.96 359.6,-470.17 365.85,-478.72 369.82,-472.96"/>
</a>
</g>
</g>
<!-- Node16&#45;&gt;Node4 -->
<g id="edge29_Node000016_Node000004" class="edge">
<title>Node16&#45;&gt;Node4</title>
<g id="a_edge29_Node000016_Node000004"><a xlink:title=" ">
<path fill="none" stroke="#63b8ff" d="M469.87,-397.33C510.07,-390.01 564.05,-377.26 577,-360 616.19,-307.79 565.2,-227.06 539.36,-192.33"/>
<polygon fill="#63b8ff" stroke="#63b8ff" points="541.97,-189.99 533.12,-184.18 536.41,-194.24 541.97,-189.99"/>
</a>
</g>
</g>
<!-- Node16&#45;&gt;Node6 -->
<g id="edge30_Node000016_Node000006" class="edge">
<title>Node16&#45;&gt;Node6</title>
<g id="a_edge30_Node000016_Node000006"><a xlink:title=" ">
<path fill="none" stroke="#63b8ff" d="M378.25,-400.01C344.02,-394.83 297.38,-383.71 263,-360 204.24,-319.47 168,-301.88 168,-230.5 168,-230.5 168,-230.5 168,-173.5 168,-121.81 228,-91.93 270.81,-77.19"/>
<polygon fill="#63b8ff" stroke="#63b8ff" points="272.05,-80.47 280.46,-74.02 269.87,-73.82 272.05,-80.47"/>
</a>
</g>
</g>
<!-- Node16&#45;&gt;Node11 -->
<g id="edge31_Node000016_Node000011" class="edge">
<title>Node16&#45;&gt;Node11</title>
<g id="a_edge31_Node000016_Node000011"><a xlink:title=" ">
<path fill="none" stroke="#63b8ff" d="M426.09,-395.63C432.48,-368.52 451.85,-286.32 460.61,-249.13"/>
<polygon fill="#63b8ff" stroke="#63b8ff" points="464.08,-249.68 462.96,-239.14 457.26,-248.07 464.08,-249.68"/>
</a>
</g>
</g>
<!-- Node16&#45;&gt;Node12 -->
<g id="edge34_Node000016_Node000012" class="edge">
<title>Node16&#45;&gt;Node12</title>
<g id="a_edge34_Node000016_Node000012"><a xlink:title=" ">
<path fill="none" stroke="#63b8ff" d="M422.13,-395.94C417.95,-376.82 407.78,-330.27 402.07,-304.12"/>
<polygon fill="#63b8ff" stroke="#63b8ff" points="405.48,-303.32 399.92,-294.3 398.64,-304.82 405.48,-303.32"/>
</a>
</g>
</g>
<!-- Node17 -->
<g id="Node000017" class="node">
<title>Node17</title>
<g id="a_Node000017"><a xlink:href="____kernel__object__impl_8h.html" target="_top" xlink:title="Low&#45;level kernel debugger functions.">
<polygon fill="white" stroke="#666666" points="396,-360 272,-360 272,-330 396,-330 396,-360"/>
<text text-anchor="start" x="280" y="-348" font-family="Helvetica,sans-Serif" font-size="10.00">l4/sys/__kernel_object</text>
<text text-anchor="middle" x="334" y="-337" font-family="Helvetica,sans-Serif" font-size="10.00">_impl.h</text>
</a>
</g>
</g>
<!-- Node16&#45;&gt;Node17 -->
<g id="edge32_Node000016_Node000017" class="edge">
<title>Node16&#45;&gt;Node17</title>
<g id="a_edge32_Node000016_Node000017"><a xlink:title=" ">
<path fill="none" stroke="#63b8ff" d="M410.72,-395.87C398.51,-387.93 379.96,-375.87 364.15,-365.6"/>
<polygon fill="#63b8ff" stroke="#63b8ff" points="366.01,-362.63 355.71,-360.11 362.19,-368.5 366.01,-362.63"/>
</a>
</g>
</g>
<!-- Node17&#45;&gt;Node12 -->
<g id="edge33_Node000017_Node000012" class="edge">
<title>Node17&#45;&gt;Node12</title>
<g id="a_edge33_Node000017_Node000012"><a xlink:title=" ">
<path fill="none" stroke="#63b8ff" d="M349.49,-329.84C358.97,-321.17 371.11,-310.08 380.88,-301.15"/>
<polygon fill="#63b8ff" stroke="#63b8ff" points="383.39,-303.6 388.41,-294.27 378.67,-298.43 383.39,-303.6"/>
</a>
</g>
</g>
<!-- Node19 -->
<g id="Node000019" class="node">
<title>Node19</title>
<g id="a_Node000019"><a xlink:href="types.html" target="_top" xlink:title=" ">
<polygon fill="white" stroke="#666666" points="64,-354.5 0,-354.5 0,-335.5 64,-335.5 64,-354.5"/>
<text text-anchor="middle" x="32" y="-342.5" font-family="Helvetica,sans-Serif" font-size="10.00">cxx/types</text>
</a>
</g>
</g>
<!-- Node18&#45;&gt;Node19 -->
<g id="edge37_Node000018_Node000019" class="edge">
<title>Node18&#45;&gt;Node19</title>
<g id="a_edge37_Node000018_Node000019"><a xlink:title=" ">
<path fill="none" stroke="#63b8ff" d="M323.16,-450.92C299.91,-442.38 263.68,-428.62 233,-415 215.74,-407.34 212.53,-403.02 195,-396 154.78,-379.9 107.27,-365.87 73.95,-356.8"/>
<polygon fill="#63b8ff" stroke="#63b8ff" points="74.66,-353.37 64.09,-354.15 72.84,-360.13 74.66,-353.37"/>
</a>
</g>
</g>
<!-- Node20 -->
<g id="Node000020" class="node">
<title>Node20</title>
<g id="a_Node000020"><a xlink:href="ipc__basics_source.html" target="_top" xlink:title=" ">
<polygon fill="white" stroke="#666666" points="185.5,-415 98.5,-415 98.5,-396 185.5,-396 185.5,-415"/>
<text text-anchor="middle" x="142" y="-403" font-family="Helvetica,sans-Serif" font-size="10.00">cxx/ipc_basics</text>
</a>
</g>
</g>
<!-- Node18&#45;&gt;Node20 -->
<g id="edge38_Node000018_Node000020" class="edge">
<title>Node18&#45;&gt;Node20</title>
<g id="a_edge38_Node000018_Node000020"><a xlink:title=" ">
<path fill="none" stroke="#63b8ff" d="M314.06,-450.98C279.05,-441.93 223.53,-427.58 185.07,-417.64"/>
<polygon fill="#63b8ff" stroke="#63b8ff" points="185.75,-414.2 175.19,-415.08 184,-420.97 185.75,-414.2"/>
</a>
</g>
</g>
<!-- Node21 -->
<g id="Node000021" class="node">
<title>Node21</title>
<g id="a_Node000021"><a xlink:href="capability_8h_source.html" target="_top" xlink:title=" ">
<polygon fill="white" stroke="#666666" points="334,-415 242,-415 242,-396 334,-396 334,-415"/>
<text text-anchor="middle" x="288" y="-403" font-family="Helvetica,sans-Serif" font-size="10.00">cxx/capability.h</text>
</a>
</g>
</g>
<!-- Node18&#45;&gt;Node21 -->
<g id="edge42_Node000018_Node000021" class="edge">
<title>Node18&#45;&gt;Node21</title>
<g id="a_edge42_Node000018_Node000021"><a xlink:title=" ">
<path fill="none" stroke="#63b8ff" d="M337.52,-450.98C328.8,-443.15 315.66,-431.34 305.1,-421.86"/>
<polygon fill="#63b8ff" stroke="#63b8ff" points="307.43,-419.25 297.65,-415.17 302.75,-424.46 307.43,-419.25"/>
</a>
</g>
</g>
<!-- Node20&#45;&gt;Node11 -->
<g id="edge40_Node000020_Node000011" class="edge">
<title>Node20&#45;&gt;Node11</title>
<g id="a_edge40_Node000020_Node000011"><a xlink:title=" ">
<path fill="none" stroke="#63b8ff" d="M154.47,-395.83C186.53,-373.76 274.87,-314.45 354,-275 378.98,-262.55 408.32,-250.91 430.57,-242.65"/>
<polygon fill="#63b8ff" stroke="#63b8ff" points="432.06,-245.83 440.25,-239.11 429.66,-239.26 432.06,-245.83"/>
</a>
</g>
</g>
<!-- Node20&#45;&gt;Node13 -->
<g id="edge41_Node000020_Node000013" class="edge">
<title>Node20&#45;&gt;Node13</title>
<g id="a_edge41_Node000020_Node000013"><a xlink:title=" ">
<path fill="none" stroke="#63b8ff" d="M135.36,-395.85C129.17,-387.27 120.27,-373.48 116,-360 104.01,-322.13 103.31,-275.11 104.04,-249.43"/>
<polygon fill="#63b8ff" stroke="#63b8ff" points="107.54,-249.37 104.44,-239.24 100.55,-249.09 107.54,-249.37"/>
</a>
</g>
</g>
<!-- Node20&#45;&gt;Node19 -->
<g id="edge39_Node000020_Node000019" class="edge">
<title>Node20&#45;&gt;Node19</title>
<g id="a_edge39_Node000020_Node000019"><a xlink:title=" ">
<path fill="none" stroke="#63b8ff" d="M125.77,-395.87C107.73,-386.28 78.38,-370.67 57.32,-359.47"/>
<polygon fill="#63b8ff" stroke="#63b8ff" points="58.77,-356.27 48.3,-354.67 55.48,-362.45 58.77,-356.27"/>
</a>
</g>
</g>
<!-- Node21&#45;&gt;Node3 -->
<g id="edge45_Node000021_Node000003" class="edge">
<title>Node21&#45;&gt;Node3</title>
<g id="a_edge45_Node000021_Node000003"><a xlink:title=" ">
<path fill="none" stroke="#63b8ff" d="M323.04,-395.99C365.61,-385.66 437.49,-368.21 484.09,-356.9"/>
<polygon fill="#63b8ff" stroke="#63b8ff" points="485.02,-360.28 493.91,-354.52 483.37,-353.47 485.02,-360.28"/>
</a>
</g>
</g>
<!-- Node21&#45;&gt;Node4 -->
<g id="edge44_Node000021_Node000004" class="edge">
<title>Node21&#45;&gt;Node4</title>
<g id="a_edge44_Node000021_Node000004"><a xlink:title=" ">
<path fill="none" stroke="#63b8ff" d="M280.94,-395.96C270.15,-381.82 251.95,-352.84 263,-330 303.67,-245.95 413.07,-204.39 477.24,-186.66"/>
<polygon fill="#63b8ff" stroke="#63b8ff" points="478.38,-189.98 487.13,-184.01 476.57,-183.22 478.38,-189.98"/>
</a>
</g>
</g>
<!-- Node21&#45;&gt;Node8 -->
<g id="edge43_Node000021_Node000008" class="edge">
<title>Node21&#45;&gt;Node8</title>
<g id="a_edge43_Node000021_Node000008"><a xlink:title=" ">
<path fill="none" stroke="#63b8ff" d="M278.98,-395.96C270.93,-387.66 259.71,-374.25 255,-360 242.52,-322.23 258.19,-306.09 283,-275 338.88,-204.96 435.25,-155.24 483.95,-133.21"/>
<polygon fill="#63b8ff" stroke="#63b8ff" points="485.6,-136.31 493.31,-129.05 482.75,-129.91 485.6,-136.31"/>
</a>
</g>
</g>
<!-- Node22&#45;&gt;Node15 -->
<g id="edge48_Node000022_Node000015" class="edge">
<title>Node22&#45;&gt;Node15</title>
<g id="a_edge48_Node000022_Node000015"><a xlink:title=" ">
<path fill="none" stroke="#63b8ff" d="M334.02,-615.66C350.47,-597.54 388.24,-555.91 409.24,-532.77"/>
<polygon fill="#63b8ff" stroke="#63b8ff" points="412.02,-534.92 416.14,-525.16 406.83,-530.21 412.02,-534.92"/>
</a>
</g>
</g>
<!-- Node23 -->
<g id="Node000023" class="node">
<title>Node23</title>
<g id="a_Node000023"><a xlink:href="ipc__iface.html" target="_top" xlink:title="Interface Definition Language.">
<polygon fill="white" stroke="#666666" points="342,-525 262,-525 262,-506 342,-506 342,-525"/>
<text text-anchor="middle" x="302" y="-513" font-family="Helvetica,sans-Serif" font-size="10.00">cxx/ipc_iface</text>
</a>
</g>
</g>
<!-- Node22&#45;&gt;Node23 -->
<g id="edge49_Node000022_Node000023" class="edge">
<title>Node22&#45;&gt;Node23</title>
<g id="a_edge49_Node000022_Node000023"><a xlink:title=" ">
<path fill="none" stroke="#63b8ff" d="M324.04,-615.66C320.13,-598.09 311.32,-558.45 306.1,-534.95"/>
<polygon fill="#63b8ff" stroke="#63b8ff" points="309.51,-534.16 303.92,-525.16 302.68,-535.68 309.51,-534.16"/>
</a>
</g>
</g>
<!-- Node25 -->
<g id="Node000025" class="node">
<title>Node25</title>
<g id="a_Node000025"><a xlink:href="ipc__string_source.html" target="_top" xlink:title=" ">
<polygon fill="white" stroke="#666666" points="142,-580 58,-580 58,-561 142,-561 142,-580"/>
<text text-anchor="middle" x="100" y="-568" font-family="Helvetica,sans-Serif" font-size="10.00">cxx/ipc_string</text>
</a>
</g>
</g>
<!-- Node22&#45;&gt;Node25 -->
<g id="edge56_Node000022_Node000025" class="edge">
<title>Node22&#45;&gt;Node25</title>
<g id="a_edge56_Node000022_Node000025"><a xlink:title=" ">
<path fill="none" stroke="#63b8ff" d="M289.69,-615.98C250.76,-606.86 188.84,-592.33 146.4,-582.38"/>
<polygon fill="#63b8ff" stroke="#63b8ff" points="147.13,-578.96 136.6,-580.08 145.53,-585.77 147.13,-578.96"/>
</a>
</g>
</g>
<!-- Node23&#45;&gt;Node18 -->
<g id="edge55_Node000023_Node000018" class="edge">
<title>Node23&#45;&gt;Node18</title>
<g id="a_edge55_Node000023_Node000018"><a xlink:title=" ">
<path fill="none" stroke="#63b8ff" d="M309.43,-505.75C315.85,-498.18 325.31,-487.05 333.12,-477.84"/>
<polygon fill="#63b8ff" stroke="#63b8ff" points="335.9,-479.98 339.71,-470.09 330.57,-475.45 335.9,-479.98"/>
</a>
</g>
</g>
<!-- Node23&#45;&gt;Node20 -->
<g id="edge50_Node000023_Node000020" class="edge">
<title>Node23&#45;&gt;Node20</title>
<g id="a_edge50_Node000023_Node000020"><a xlink:title=" ">
<path fill="none" stroke="#63b8ff" d="M298.56,-505.85C292.76,-492.32 279.81,-466.14 261,-451 241.39,-435.22 215.62,-424.67 193.07,-417.81"/>
<polygon fill="#63b8ff" stroke="#63b8ff" points="193.89,-414.41 183.31,-415.01 191.95,-421.13 193.89,-414.41"/>
</a>
</g>
</g>
<!-- Node24 -->
<g id="Node000024" class="node">
<title>Node24</title>
<g id="a_Node000024"><a xlink:href="ipc__types.html" target="_top" xlink:title=" ">
<polygon fill="white" stroke="#666666" points="251.5,-470 136.5,-470 136.5,-451 251.5,-451 251.5,-470"/>
<text text-anchor="middle" x="194" y="-458" font-family="Helvetica,sans-Serif" font-size="10.00">l4/sys/cxx/ipc_types</text>
</a>
</g>
</g>
<!-- Node23&#45;&gt;Node24 -->
<g id="edge51_Node000023_Node000024" class="edge">
<title>Node23&#45;&gt;Node24</title>
<g id="a_edge51_Node000023_Node000024"><a xlink:title=" ">
<path fill="none" stroke="#63b8ff" d="M284.65,-505.98C267.43,-497.54 240.8,-484.47 220.85,-474.68"/>
<polygon fill="#63b8ff" stroke="#63b8ff" points="222.19,-471.43 211.67,-470.17 219.1,-477.72 222.19,-471.43"/>
</a>
</g>
</g>
<!-- Node24&#45;&gt;Node19 -->
<g id="edge53_Node000024_Node000019" class="edge">
<title>Node24&#45;&gt;Node19</title>
<g id="a_edge53_Node000024_Node000019"><a xlink:title=" ">
<path fill="none" stroke="#63b8ff" d="M164.28,-450.92C142.37,-443.65 112.56,-431.73 90,-415 70.64,-400.64 53.58,-378.58 43.06,-363.29"/>
<polygon fill="#63b8ff" stroke="#63b8ff" points="45.85,-361.16 37.39,-354.77 40.02,-365.03 45.85,-361.16"/>
</a>
</g>
</g>
<!-- Node24&#45;&gt;Node20 -->
<g id="edge54_Node000024_Node000020" class="edge">
<title>Node24&#45;&gt;Node20</title>
<g id="a_edge54_Node000024_Node000020"><a xlink:title=" ">
<path fill="none" stroke="#63b8ff" d="M185.41,-450.75C177.84,-443.03 166.62,-431.6 157.49,-422.28"/>
<polygon fill="#63b8ff" stroke="#63b8ff" points="159.93,-419.78 150.43,-415.09 154.93,-424.68 159.93,-419.78"/>
</a>
</g>
</g>
<!-- Node24&#45;&gt;Node21 -->
<g id="edge52_Node000024_Node000021" class="edge">
<title>Node24&#45;&gt;Node21</title>
<g id="a_edge52_Node000024_Node000021"><a xlink:title=" ">
<path fill="none" stroke="#63b8ff" d="M209.1,-450.98C223.82,-442.69 246.42,-429.94 263.67,-420.22"/>
<polygon fill="#63b8ff" stroke="#63b8ff" points="265.63,-423.13 272.62,-415.17 262.19,-417.03 265.63,-423.13"/>
</a>
</g>
</g>
<!-- Node25&#45;&gt;Node19 -->
<g id="edge57_Node000025_Node000019" class="edge">
<title>Node25&#45;&gt;Node19</title>
<g id="a_edge57_Node000025_Node000019"><a xlink:title=" ">
<path fill="none" stroke="#63b8ff" d="M96.4,-560.71C92.8,-551.79 87.21,-537.54 83,-525 63.58,-467.18 45.07,-397.32 36.69,-364.6"/>
<polygon fill="#63b8ff" stroke="#63b8ff" points="40.02,-363.49 34.16,-354.66 33.23,-365.21 40.02,-363.49"/>
</a>
</g>
</g>
<!-- Node25&#45;&gt;Node20 -->
<g id="edge58_Node000025_Node000020" class="edge">
<title>Node25&#45;&gt;Node20</title>
<g id="a_edge58_Node000025_Node000020"><a xlink:title=" ">
<path fill="none" stroke="#63b8ff" d="M96.21,-560.79C91.38,-548.47 84.17,-525.32 89,-506 96.82,-474.67 116.58,-442.39 129.64,-423.4"/>
<polygon fill="#63b8ff" stroke="#63b8ff" points="132.51,-425.4 135.43,-415.21 126.8,-421.36 132.51,-425.4"/>
</a>
</g>
</g>
<!-- Node26 -->
<g id="Node000026" class="node">
<title>Node26</title>
<g id="a_Node000026"><a xlink:href="ipc__array_source.html" target="_top" xlink:title=" ">
<polygon fill="white" stroke="#666666" points="160,-525 98,-525 98,-506 160,-506 160,-525"/>
<text text-anchor="middle" x="129" y="-513" font-family="Helvetica,sans-Serif" font-size="10.00">ipc_array</text>
</a>
</g>
</g>
<!-- Node25&#45;&gt;Node26 -->
<g id="edge59_Node000025_Node000026" class="edge">
<title>Node25&#45;&gt;Node26</title>
<g id="a_edge59_Node000025_Node000026"><a xlink:title=" ">
<path fill="none" stroke="#63b8ff" d="M104.79,-560.75C108.76,-553.49 114.53,-542.95 119.43,-533.98"/>
<polygon fill="#63b8ff" stroke="#63b8ff" points="122.57,-535.54 124.3,-525.09 116.43,-532.18 122.57,-535.54"/>
</a>
</g>
</g>
<!-- Node26&#45;&gt;Node19 -->
<g id="edge60_Node000026_Node000019" class="edge">
<title>Node26&#45;&gt;Node19</title>
<g id="a_edge60_Node000026_Node000019"><a xlink:title=" ">
<path fill="none" stroke="#63b8ff" d="M122.97,-505.94C111.16,-489 84.41,-449.8 65,-415 55.62,-398.18 46.27,-378.27 39.94,-364.17"/>
<polygon fill="#63b8ff" stroke="#63b8ff" points="42.98,-362.4 35.73,-354.67 36.58,-365.23 42.98,-362.4"/>
</a>
</g>
</g>
<!-- Node26&#45;&gt;Node20 -->
<g id="edge61_Node000026_Node000020" class="edge">
<title>Node26&#45;&gt;Node20</title>
<g id="a_edge61_Node000026_Node000020"><a xlink:title=" ">
<path fill="none" stroke="#63b8ff" d="M127.95,-505.81C126.67,-493.52 125.02,-470.4 128,-451 129.35,-442.19 132.13,-432.74 134.85,-424.82"/>
<polygon fill="#63b8ff" stroke="#63b8ff" points="138.23,-425.77 138.4,-415.18 131.66,-423.35 138.23,-425.77"/>
</a>
</g>
</g>
<!-- Node26&#45;&gt;Node24 -->
<g id="edge62_Node000026_Node000024" class="edge">
<title>Node26&#45;&gt;Node24</title>
<g id="a_edge62_Node000026_Node000024"><a xlink:title=" ">
<path fill="none" stroke="#63b8ff" d="M139.44,-505.98C149.15,-498.07 163.82,-486.11 175.5,-476.58"/>
<polygon fill="#63b8ff" stroke="#63b8ff" points="177.83,-479.2 183.37,-470.17 173.4,-473.78 177.83,-479.2"/>
</a>
</g>
</g>
</g>
</svg>
