<?xml version="1.0" encoding="UTF-8" standalone="no"?>
<!DOCTYPE svg PUBLIC "-//W3C//DTD SVG 1.1//EN"
 "http://www.w3.org/Graphics/SVG/1.1/DTD/svg11.dtd">
<!-- Generated by graphviz version 2.43.0 (0)
 -->
<!-- Title: l4/sys/capability Pages: 1 -->
<svg width="800pt" height="698pt"
 viewBox="0.00 0.00 800.00 698.00" xmlns="http://www.w3.org/2000/svg" xmlns:xlink="http://www.w3.org/1999/xlink">
<g id="graph0" class="graph" transform="scale(1 1) rotate(0) translate(4 694)">
<title>l4/sys/capability</title>
<!-- Node1 -->
<g id="Node000001" class="node">
<title>Node1</title>
<g id="a_Node000001"><a xlink:title="L4::Cap related definitions.">
<polygon fill="#999999" stroke="#666666" points="487,-690 391,-690 391,-671 487,-671 487,-690"/>
<text text-anchor="middle" x="439" y="-678" font-family="Helvetica,sans-Serif" font-size="10.00">l4/sys/capability</text>
</a>
</g>
</g>
<!-- Node2 -->
<g id="Node000002" class="node">
<title>Node2</title>
<g id="a_Node000002"><a xlink:href="l4_2sys_2consts_8h.html" target="_top" xlink:title="Common constants.">
<polygon fill="white" stroke="#666666" points="662.5,-129 573.5,-129 573.5,-110 662.5,-110 662.5,-129"/>
<text text-anchor="middle" x="618" y="-117" font-family="Helvetica,sans-Serif" font-size="10.00">l4/sys/consts.h</text>
</a>
</g>
</g>
<!-- Node1&#45;&gt;Node2 -->
<g id="edge1_Node000001_Node000002" class="edge">
<title>Node1&#45;&gt;Node2</title>
<g id="a_edge1_Node000001_Node000002"><a xlink:title=" ">
<path fill="none" stroke="#63b8ff" d="M487.34,-674.91C584.02,-664.4 792,-634.47 792,-571.5 792,-571.5 792,-571.5 792,-228.5 792,-171.5 723.77,-143.54 672.76,-130.6"/>
<polygon fill="#63b8ff" stroke="#63b8ff" points="673.35,-127.14 662.81,-128.2 671.71,-133.95 673.35,-127.14"/>
</a>
</g>
</g>
<!-- Node6 -->
<g id="Node000006" class="node">
<title>Node6</title>
<g id="a_Node000006"><a xlink:href="l4_2sys_2types_8h.html" target="_top" xlink:title="Common L4 ABI Data Types.">
<polygon fill="white" stroke="#666666" points="460,-184 376,-184 376,-165 460,-165 460,-184"/>
<text text-anchor="middle" x="418" y="-172" font-family="Helvetica,sans-Serif" font-size="10.00">l4/sys/types.h</text>
</a>
</g>
</g>
<!-- Node1&#45;&gt;Node6 -->
<g id="edge5_Node000001_Node000006" class="edge">
<title>Node1&#45;&gt;Node6</title>
<g id="a_edge5_Node000001_Node000006"><a xlink:title=" ">
<path fill="none" stroke="#63b8ff" d="M487.18,-673.18C575.43,-660.26 754,-627.22 754,-571.5 754,-571.5 754,-571.5 754,-459.5 754,-399.88 756.5,-376.35 719,-330 652.67,-248.02 531.33,-205.04 464.77,-186.68"/>
<polygon fill="#63b8ff" stroke="#63b8ff" points="465.53,-183.26 454.96,-184.04 463.71,-190.02 465.53,-183.26"/>
</a>
</g>
</g>
<!-- Node9 -->
<g id="Node000009" class="node">
<title>Node9</title>
<g id="a_Node000009"><a xlink:href="kobject_source.html" target="_top" xlink:title=" ">
<polygon fill="white" stroke="#666666" points="334.5,-525 251.5,-525 251.5,-506 334.5,-506 334.5,-525"/>
<text text-anchor="middle" x="293" y="-513" font-family="Helvetica,sans-Serif" font-size="10.00">l4/sys/kobject</text>
</a>
</g>
</g>
<!-- Node1&#45;&gt;Node9 -->
<g id="edge13_Node000001_Node000009" class="edge">
<title>Node1&#45;&gt;Node9</title>
<g id="a_edge13_Node000001_Node000009"><a xlink:title=" ">
<path fill="none" stroke="#63b8ff" d="M429.57,-670.9C420.07,-662.13 405.14,-647.99 393,-635 360.25,-599.94 324.63,-556.26 306.01,-532.96"/>
<polygon fill="#63b8ff" stroke="#63b8ff" points="308.71,-530.73 299.75,-525.08 303.23,-535.09 308.71,-530.73"/>
</a>
</g>
</g>
<!-- Node19 -->
<g id="Node000019" class="node">
<title>Node19</title>
<g id="a_Node000019"><a xlink:href="l4_2sys_2task_8h.html" target="_top" xlink:title="Common task related definitions.">
<polygon fill="white" stroke="#666666" points="400,-354.5 322,-354.5 322,-335.5 400,-335.5 400,-354.5"/>
<text text-anchor="middle" x="361" y="-342.5" font-family="Helvetica,sans-Serif" font-size="10.00">l4/sys/task.h</text>
</a>
</g>
</g>
<!-- Node1&#45;&gt;Node19 -->
<g id="edge42_Node000001_Node000019" class="edge">
<title>Node1&#45;&gt;Node19</title>
<g id="a_edge42_Node000001_Node000019"><a xlink:title=" ">
<path fill="none" stroke="#63b8ff" d="M390.94,-676.6C326.47,-669.82 220,-647.17 220,-571.5 220,-571.5 220,-571.5 220,-459.5 220,-406.41 281.42,-373.96 323.18,-358.03"/>
<polygon fill="#63b8ff" stroke="#63b8ff" points="324.61,-361.23 332.81,-354.51 322.21,-354.66 324.61,-361.23"/>
</a>
</g>
</g>
<!-- Node20 -->
<g id="Node000020" class="node">
<title>Node20</title>
<g id="a_Node000020"><a xlink:href="sys_2meta.html" target="_top" xlink:title="Meta interface for getting dynamic type information about objects behind capabilities.">
<polygon fill="white" stroke="#666666" points="476,-635 402,-635 402,-616 476,-616 476,-635"/>
<text text-anchor="middle" x="439" y="-623" font-family="Helvetica,sans-Serif" font-size="10.00">l4/sys/meta</text>
</a>
</g>
</g>
<!-- Node1&#45;&gt;Node20 -->
<g id="edge43_Node000001_Node000020" class="edge">
<title>Node1&#45;&gt;Node20</title>
<g id="a_edge43_Node000001_Node000020"><a xlink:title=" ">
<path fill="none" stroke="#63b8ff" d="M439,-670.75C439,-663.8 439,-653.85 439,-645.13"/>
<polygon fill="#63b8ff" stroke="#63b8ff" points="442.5,-645.09 439,-635.09 435.5,-645.09 442.5,-645.09"/>
</a>
</g>
</g>
<!-- Node3 -->
<g id="Node000003" class="node">
<title>Node3</title>
<g id="a_Node000003"><a xlink:href="compiler_8h.html" target="_top" xlink:title="L4 compiler related defines.">
<polygon fill="white" stroke="#666666" points="270.5,-74 171.5,-74 171.5,-55 270.5,-55 270.5,-74"/>
<text text-anchor="middle" x="221" y="-62" font-family="Helvetica,sans-Serif" font-size="10.00">l4/sys/compiler.h</text>
</a>
</g>
</g>
<!-- Node2&#45;&gt;Node3 -->
<g id="edge2_Node000002_Node000003" class="edge">
<title>Node2&#45;&gt;Node3</title>
<g id="a_edge2_Node000002_Node000003"><a xlink:title=" ">
<path fill="none" stroke="#63b8ff" d="M573.23,-111.36C570.1,-110.89 567.01,-110.43 564,-110 464.92,-95.78 349.44,-81.21 280.93,-72.78"/>
<polygon fill="#63b8ff" stroke="#63b8ff" points="281.11,-69.27 270.76,-71.53 280.26,-76.22 281.11,-69.27"/>
</a>
</g>
</g>
<!-- Node5 -->
<g id="Node000005" class="node">
<title>Node5</title>
<g id="a_Node000005"><a xlink:href="l4_2sys_2l4int_8h.html" target="_top" xlink:title="Fixed sized integer types, generic version.">
<polygon fill="white" stroke="#666666" points="500.5,-74 421.5,-74 421.5,-55 500.5,-55 500.5,-74"/>
<text text-anchor="middle" x="461" y="-62" font-family="Helvetica,sans-Serif" font-size="10.00">l4/sys/l4int.h</text>
</a>
</g>
</g>
<!-- Node2&#45;&gt;Node5 -->
<g id="edge4_Node000002_Node000005" class="edge">
<title>Node2&#45;&gt;Node5</title>
<g id="a_edge4_Node000002_Node000005"><a xlink:title=" ">
<path fill="none" stroke="#63b8ff" d="M592.78,-109.98C566.64,-101.16 525.6,-87.31 496.27,-77.41"/>
<polygon fill="#63b8ff" stroke="#63b8ff" points="497.02,-73.96 486.42,-74.08 494.78,-80.6 497.02,-73.96"/>
</a>
</g>
</g>
<!-- Node4 -->
<g id="Node000004" class="node">
<title>Node4</title>
<g id="a_Node000004"><a xlink:title=" ">
<polygon fill="#e0e0e0" stroke="#999999" points="267,-19 175,-19 175,0 267,0 267,-19"/>
<text text-anchor="middle" x="221" y="-7" font-family="Helvetica,sans-Serif" font-size="10.00">l4/sys/linkage.h</text>
</a>
</g>
</g>
<!-- Node3&#45;&gt;Node4 -->
<g id="edge3_Node000003_Node000004" class="edge">
<title>Node3&#45;&gt;Node4</title>
<g id="a_edge3_Node000003_Node000004"><a xlink:title=" ">
<path fill="none" stroke="#63b8ff" d="M221,-54.75C221,-47.8 221,-37.85 221,-29.13"/>
<polygon fill="#63b8ff" stroke="#63b8ff" points="224.5,-29.09 221,-19.09 217.5,-29.09 224.5,-29.09"/>
</a>
</g>
</g>
<!-- Node6&#45;&gt;Node2 -->
<g id="edge8_Node000006_Node000002" class="edge">
<title>Node6&#45;&gt;Node2</title>
<g id="a_edge8_Node000006_Node000002"><a xlink:title=" ">
<path fill="none" stroke="#63b8ff" d="M450.13,-164.98C484.15,-155.97 538,-141.7 575.5,-131.76"/>
<polygon fill="#63b8ff" stroke="#63b8ff" points="576.84,-135.03 585.61,-129.08 575.05,-128.26 576.84,-135.03"/>
</a>
</g>
</g>
<!-- Node6&#45;&gt;Node3 -->
<g id="edge7_Node000006_Node000003" class="edge">
<title>Node6&#45;&gt;Node3</title>
<g id="a_edge7_Node000006_Node000003"><a xlink:title=" ">
<path fill="none" stroke="#63b8ff" d="M407.14,-164.91C390.4,-151.93 356.96,-127.01 326,-110 302.93,-97.32 275.51,-85.81 254.47,-77.67"/>
<polygon fill="#63b8ff" stroke="#63b8ff" points="255.59,-74.36 245,-74.07 253.1,-80.9 255.59,-74.36"/>
</a>
</g>
</g>
<!-- Node6&#45;&gt;Node5 -->
<g id="edge6_Node000006_Node000005" class="edge">
<title>Node6&#45;&gt;Node5</title>
<g id="a_edge6_Node000006_Node000005"><a xlink:title=" ">
<path fill="none" stroke="#63b8ff" d="M420.7,-164.76C424.59,-152.42 432.16,-129.23 440,-110 443.63,-101.1 448.12,-91.43 452.02,-83.38"/>
<polygon fill="#63b8ff" stroke="#63b8ff" points="455.25,-84.76 456.53,-74.24 448.97,-81.66 455.25,-84.76"/>
</a>
</g>
</g>
<!-- Node7 -->
<g id="Node000007" class="node">
<title>Node7</title>
<g id="a_Node000007"><a xlink:href="____l4__fpage_8h_source.html" target="_top" xlink:title=" ">
<polygon fill="white" stroke="#666666" points="317,-129 207,-129 207,-110 317,-110 317,-129"/>
<text text-anchor="middle" x="262" y="-117" font-family="Helvetica,sans-Serif" font-size="10.00">l4/sys/__l4_fpage.h</text>
</a>
</g>
</g>
<!-- Node6&#45;&gt;Node7 -->
<g id="edge9_Node000006_Node000007" class="edge">
<title>Node6&#45;&gt;Node7</title>
<g id="a_edge9_Node000006_Node000007"><a xlink:title=" ">
<path fill="none" stroke="#63b8ff" d="M392.94,-164.98C366.97,-156.16 326.19,-142.31 297.04,-132.41"/>
<polygon fill="#63b8ff" stroke="#63b8ff" points="297.85,-128.99 287.26,-129.08 295.6,-135.61 297.85,-128.99"/>
</a>
</g>
</g>
<!-- Node8 -->
<g id="Node000008" class="node">
<title>Node8</title>
<g id="a_Node000008"><a xlink:href="____timeout_8h_source.html" target="_top" xlink:title=" ">
<polygon fill="white" stroke="#666666" points="555,-129 449,-129 449,-110 555,-110 555,-129"/>
<text text-anchor="middle" x="502" y="-117" font-family="Helvetica,sans-Serif" font-size="10.00">l4/sys/__timeout.h</text>
</a>
</g>
</g>
<!-- Node6&#45;&gt;Node8 -->
<g id="edge11_Node000006_Node000008" class="edge">
<title>Node6&#45;&gt;Node8</title>
<g id="a_edge11_Node000006_Node000008"><a xlink:title=" ">
<path fill="none" stroke="#63b8ff" d="M431.5,-164.98C444.4,-156.84 464.1,-144.41 479.4,-134.76"/>
<polygon fill="#63b8ff" stroke="#63b8ff" points="481.67,-137.47 488.26,-129.17 477.93,-131.55 481.67,-137.47"/>
</a>
</g>
</g>
<!-- Node7&#45;&gt;Node3 -->
<g id="edge10_Node000007_Node000003" class="edge">
<title>Node7&#45;&gt;Node3</title>
<g id="a_edge10_Node000007_Node000003"><a xlink:title=" ">
<path fill="none" stroke="#63b8ff" d="M255.23,-109.75C249.44,-102.26 240.94,-91.28 233.86,-82.13"/>
<polygon fill="#63b8ff" stroke="#63b8ff" points="236.53,-79.86 227.64,-74.09 230.99,-84.14 236.53,-79.86"/>
</a>
</g>
</g>
<!-- Node8&#45;&gt;Node5 -->
<g id="edge12_Node000008_Node000005" class="edge">
<title>Node8&#45;&gt;Node5</title>
<g id="a_edge12_Node000008_Node000005"><a xlink:title=" ">
<path fill="none" stroke="#63b8ff" d="M495.23,-109.75C489.44,-102.26 480.94,-91.28 473.86,-82.13"/>
<polygon fill="#63b8ff" stroke="#63b8ff" points="476.53,-79.86 467.64,-74.09 470.99,-84.14 476.53,-79.86"/>
</a>
</g>
</g>
<!-- Node9&#45;&gt;Node6 -->
<g id="edge28_Node000009_Node000006" class="edge">
<title>Node9&#45;&gt;Node6</title>
<g id="a_edge28_Node000009_Node000006"><a xlink:title=" ">
<path fill="none" stroke="#63b8ff" d="M297.22,-505.87C307.45,-485.45 335.06,-433.15 367,-396 383.03,-377.36 398.19,-382.08 409,-360 436,-304.89 427.66,-229.07 421.73,-194.3"/>
<polygon fill="#63b8ff" stroke="#63b8ff" points="425.12,-193.38 419.87,-184.18 418.23,-194.64 425.12,-193.38"/>
</a>
</g>
</g>
<!-- Node10 -->
<g id="Node000010" class="node">
<title>Node10</title>
<g id="a_Node000010"><a xlink:href="kernel__object_8h.html" target="_top" xlink:title="Kernel object system calls.">
<polygon fill="white" stroke="#666666" points="168.5,-415 77.5,-415 77.5,-396 168.5,-396 168.5,-415"/>
<text text-anchor="middle" x="123" y="-403" font-family="Helvetica,sans-Serif" font-size="10.00">kernel_object.h</text>
</a>
</g>
</g>
<!-- Node9&#45;&gt;Node10 -->
<g id="edge14_Node000009_Node000010" class="edge">
<title>Node9&#45;&gt;Node10</title>
<g id="a_edge14_Node000009_Node000010"><a xlink:title=" ">
<path fill="none" stroke="#63b8ff" d="M279.38,-505.84C250.16,-487.28 181.22,-443.49 145.44,-420.75"/>
<polygon fill="#63b8ff" stroke="#63b8ff" points="147.01,-417.6 136.69,-415.2 143.25,-423.51 147.01,-417.6"/>
</a>
</g>
</g>
<!-- Node15 -->
<g id="Node000015" class="node">
<title>Node15</title>
<g id="a_Node000015"><a xlink:href="____typeinfo_8h.html" target="_top" xlink:title="Type information handling.">
<polygon fill="white" stroke="#666666" points="477.5,-470 400.5,-470 400.5,-451 477.5,-451 477.5,-470"/>
<text text-anchor="middle" x="439" y="-458" font-family="Helvetica,sans-Serif" font-size="10.00">__typeinfo.h</text>
</a>
</g>
</g>
<!-- Node9&#45;&gt;Node15 -->
<g id="edge29_Node000009_Node000015" class="edge">
<title>Node9&#45;&gt;Node15</title>
<g id="a_edge29_Node000009_Node000015"><a xlink:title=" ">
<path fill="none" stroke="#63b8ff" d="M316.46,-505.98C340.58,-497.23 378.37,-483.51 405.6,-473.62"/>
<polygon fill="#63b8ff" stroke="#63b8ff" points="406.91,-476.87 415.12,-470.17 404.52,-470.29 406.91,-476.87"/>
</a>
</g>
</g>
<!-- Node10&#45;&gt;Node3 -->
<g id="edge16_Node000010_Node000003" class="edge">
<title>Node10&#45;&gt;Node3</title>
<g id="a_edge16_Node000010_Node000003"><a xlink:title=" ">
<path fill="none" stroke="#63b8ff" d="M102.41,-395.98C67.4,-379.96 0,-341.8 0,-285.5 0,-285.5 0,-285.5 0,-173.5 0,-101.55 95.73,-77.53 161.18,-69.51"/>
<polygon fill="#63b8ff" stroke="#63b8ff" points="161.86,-72.95 171.4,-68.36 161.07,-66 161.86,-72.95"/>
</a>
</g>
</g>
<!-- Node10&#45;&gt;Node6 -->
<g id="edge15_Node000010_Node000006" class="edge">
<title>Node10&#45;&gt;Node6</title>
<g id="a_edge15_Node000010_Node000006"><a xlink:title=" ">
<path fill="none" stroke="#63b8ff" d="M155.21,-395.93C179.05,-388.66 211.65,-376.74 237,-360 310.9,-311.2 378.44,-227.99 405.49,-192.42"/>
<polygon fill="#63b8ff" stroke="#63b8ff" points="408.55,-194.19 411.75,-184.09 402.95,-189.98 408.55,-194.19"/>
</a>
</g>
</g>
<!-- Node11 -->
<g id="Node000011" class="node">
<title>Node11</title>
<g id="a_Node000011"><a xlink:href="l4_2sys_2utcb_8h.html" target="_top" xlink:title="UTCB definitions.">
<polygon fill="white" stroke="#666666" points="286,-239 208,-239 208,-220 286,-220 286,-239"/>
<text text-anchor="middle" x="247" y="-227" font-family="Helvetica,sans-Serif" font-size="10.00">l4/sys/utcb.h</text>
</a>
</g>
</g>
<!-- Node10&#45;&gt;Node11 -->
<g id="edge17_Node000010_Node000011" class="edge">
<title>Node10&#45;&gt;Node11</title>
<g id="a_edge17_Node000010_Node000011"><a xlink:title=" ">
<path fill="none" stroke="#63b8ff" d="M112.8,-395.64C97.84,-381.54 73.06,-353.21 86,-330 111.63,-284.03 168.22,-256.63 206.99,-242.56"/>
<polygon fill="#63b8ff" stroke="#63b8ff" points="208.63,-245.7 216.93,-239.11 206.33,-239.09 208.63,-245.7"/>
</a>
</g>
</g>
<!-- Node12 -->
<g id="Node000012" class="node">
<title>Node12</title>
<g id="a_Node000012"><a xlink:href="____kernel__object__impl_8h.html" target="_top" xlink:title="Low&#45;level kernel debugger functions.">
<polygon fill="white" stroke="#666666" points="228,-360 104,-360 104,-330 228,-330 228,-360"/>
<text text-anchor="start" x="112" y="-348" font-family="Helvetica,sans-Serif" font-size="10.00">l4/sys/__kernel_object</text>
<text text-anchor="middle" x="166" y="-337" font-family="Helvetica,sans-Serif" font-size="10.00">_impl.h</text>
</a>
</g>
</g>
<!-- Node10&#45;&gt;Node12 -->
<g id="edge21_Node000010_Node000012" class="edge">
<title>Node10&#45;&gt;Node12</title>
<g id="a_edge21_Node000010_Node000012"><a xlink:title=" ">
<path fill="none" stroke="#63b8ff" d="M129.34,-395.87C134.69,-388.59 142.59,-377.85 149.68,-368.2"/>
<polygon fill="#63b8ff" stroke="#63b8ff" points="152.52,-370.25 155.63,-360.11 146.88,-366.1 152.52,-370.25"/>
</a>
</g>
</g>
<!-- Node13 -->
<g id="Node000013" class="node">
<title>Node13</title>
<g id="a_Node000013"><a xlink:href="l4_2sys_2ipc_8h.html" target="_top" xlink:title="Common IPC interface.">
<polygon fill="white" stroke="#666666" points="285.5,-294 214.5,-294 214.5,-275 285.5,-275 285.5,-294"/>
<text text-anchor="middle" x="250" y="-282" font-family="Helvetica,sans-Serif" font-size="10.00">l4/sys/ipc.h</text>
</a>
</g>
</g>
<!-- Node10&#45;&gt;Node13 -->
<g id="edge27_Node000010_Node000013" class="edge">
<title>Node10&#45;&gt;Node13</title>
<g id="a_edge27_Node000010_Node000013"><a xlink:title=" ">
<path fill="none" stroke="#63b8ff" d="M114.81,-395.91C101.8,-381.2 79.37,-350.75 95,-330 108.24,-312.43 163.65,-299.66 204.46,-292.42"/>
<polygon fill="#63b8ff" stroke="#63b8ff" points="205.22,-295.84 214.49,-290.7 204.04,-288.94 205.22,-295.84"/>
</a>
</g>
</g>
<!-- Node11&#45;&gt;Node3 -->
<g id="edge19_Node000011_Node000003" class="edge">
<title>Node11&#45;&gt;Node3</title>
<g id="a_edge19_Node000011_Node000003"><a xlink:title=" ">
<path fill="none" stroke="#63b8ff" d="M241.09,-219.96C230,-203.37 206.43,-165.19 198,-129 194.27,-112.98 201.53,-95.46 208.86,-82.88"/>
<polygon fill="#63b8ff" stroke="#63b8ff" points="211.88,-84.66 214.29,-74.34 205.97,-80.9 211.88,-84.66"/>
</a>
</g>
</g>
<!-- Node11&#45;&gt;Node5 -->
<g id="edge20_Node000011_Node000005" class="edge">
<title>Node11&#45;&gt;Node5</title>
<g id="a_edge20_Node000011_Node000005"><a xlink:title=" ">
<path fill="none" stroke="#63b8ff" d="M258.2,-219.97C292.72,-193.68 397.74,-113.69 441.52,-80.34"/>
<polygon fill="#63b8ff" stroke="#63b8ff" points="443.81,-82.99 449.65,-74.15 439.57,-77.42 443.81,-82.99"/>
</a>
</g>
</g>
<!-- Node11&#45;&gt;Node6 -->
<g id="edge18_Node000011_Node000006" class="edge">
<title>Node11&#45;&gt;Node6</title>
<g id="a_edge18_Node000011_Node000006"><a xlink:title=" ">
<path fill="none" stroke="#63b8ff" d="M274.47,-219.98C303.18,-211.09 348.42,-197.07 380.42,-187.15"/>
<polygon fill="#63b8ff" stroke="#63b8ff" points="381.8,-190.39 390.31,-184.08 379.72,-183.7 381.8,-190.39"/>
</a>
</g>
</g>
<!-- Node12&#45;&gt;Node13 -->
<g id="edge22_Node000012_Node000013" class="edge">
<title>Node12&#45;&gt;Node13</title>
<g id="a_edge22_Node000012_Node000013"><a xlink:title=" ">
<path fill="none" stroke="#63b8ff" d="M186.33,-329.84C199.27,-320.83 215.99,-309.18 229.05,-300.09"/>
<polygon fill="#63b8ff" stroke="#63b8ff" points="231.21,-302.85 237.41,-294.27 227.21,-297.11 231.21,-302.85"/>
</a>
</g>
</g>
<!-- Node13&#45;&gt;Node6 -->
<g id="edge23_Node000013_Node000006" class="edge">
<title>Node13&#45;&gt;Node6</title>
<g id="a_edge23_Node000013_Node000006"><a xlink:title=" ">
<path fill="none" stroke="#63b8ff" d="M261.1,-274.84C277.5,-262.2 309.38,-238.2 338,-220 355.55,-208.84 376.06,-197.47 391.92,-189.01"/>
<polygon fill="#63b8ff" stroke="#63b8ff" points="393.91,-191.91 401.12,-184.15 390.64,-185.72 393.91,-191.91"/>
</a>
</g>
</g>
<!-- Node13&#45;&gt;Node11 -->
<g id="edge24_Node000013_Node000011" class="edge">
<title>Node13&#45;&gt;Node11</title>
<g id="a_edge24_Node000013_Node000011"><a xlink:title=" ">
<path fill="none" stroke="#63b8ff" d="M249.5,-274.75C249.11,-267.8 248.55,-257.85 248.05,-249.13"/>
<polygon fill="#63b8ff" stroke="#63b8ff" points="251.55,-248.88 247.49,-239.09 244.56,-249.27 251.55,-248.88"/>
</a>
</g>
</g>
<!-- Node14 -->
<g id="Node000014" class="node">
<title>Node14</title>
<g id="a_Node000014"><a xlink:href="err_8h.html" target="_top" xlink:title="Error codes.">
<polygon fill="white" stroke="#666666" points="190,-239 120,-239 120,-220 190,-220 190,-239"/>
<text text-anchor="middle" x="155" y="-227" font-family="Helvetica,sans-Serif" font-size="10.00">l4/sys/err.h</text>
</a>
</g>
</g>
<!-- Node13&#45;&gt;Node14 -->
<g id="edge25_Node000013_Node000014" class="edge">
<title>Node13&#45;&gt;Node14</title>
<g id="a_edge25_Node000013_Node000014"><a xlink:title=" ">
<path fill="none" stroke="#63b8ff" d="M234.74,-274.98C219.87,-266.69 197.02,-253.94 179.58,-244.22"/>
<polygon fill="#63b8ff" stroke="#63b8ff" points="180.98,-240.99 170.54,-239.17 177.57,-247.1 180.98,-240.99"/>
</a>
</g>
</g>
<!-- Node14&#45;&gt;Node3 -->
<g id="edge26_Node000014_Node000003" class="edge">
<title>Node14&#45;&gt;Node3</title>
<g id="a_edge26_Node000014_Node000003"><a xlink:title=" ">
<path fill="none" stroke="#63b8ff" d="M156.97,-219.89C161.69,-199.97 174.66,-149.36 193,-110 197.38,-100.6 203.38,-90.79 208.71,-82.77"/>
<polygon fill="#63b8ff" stroke="#63b8ff" points="211.73,-84.55 214.51,-74.32 205.96,-80.59 211.73,-84.55"/>
</a>
</g>
</g>
<!-- Node16 -->
<g id="Node000016" class="node">
<title>Node16</title>
<g id="a_Node000016"><a xlink:href="types.html" target="_top" xlink:title=" ">
<polygon fill="white" stroke="#666666" points="710,-354.5 646,-354.5 646,-335.5 710,-335.5 710,-354.5"/>
<text text-anchor="middle" x="678" y="-342.5" font-family="Helvetica,sans-Serif" font-size="10.00">cxx/types</text>
</a>
</g>
</g>
<!-- Node15&#45;&gt;Node16 -->
<g id="edge30_Node000015_Node000016" class="edge">
<title>Node15&#45;&gt;Node16</title>
<g id="a_edge30_Node000015_Node000016"><a xlink:title=" ">
<path fill="none" stroke="#63b8ff" d="M477.6,-451.23C507.38,-444 549.07,-431.98 583,-415 612.3,-400.34 642.25,-376.9 660.49,-361.47"/>
<polygon fill="#63b8ff" stroke="#63b8ff" points="663.15,-363.8 668.45,-354.62 658.58,-358.49 663.15,-363.8"/>
</a>
</g>
</g>
<!-- Node17 -->
<g id="Node000017" class="node">
<title>Node17</title>
<g id="a_Node000017"><a xlink:href="ipc__basics_source.html" target="_top" xlink:title=" ">
<polygon fill="white" stroke="#666666" points="463.5,-415 376.5,-415 376.5,-396 463.5,-396 463.5,-415"/>
<text text-anchor="middle" x="420" y="-403" font-family="Helvetica,sans-Serif" font-size="10.00">cxx/ipc_basics</text>
</a>
</g>
</g>
<!-- Node15&#45;&gt;Node17 -->
<g id="edge31_Node000015_Node000017" class="edge">
<title>Node15&#45;&gt;Node17</title>
<g id="a_edge31_Node000015_Node000017"><a xlink:title=" ">
<path fill="none" stroke="#63b8ff" d="M435.86,-450.75C433.32,-443.65 429.64,-433.4 426.47,-424.56"/>
<polygon fill="#63b8ff" stroke="#63b8ff" points="429.75,-423.32 423.08,-415.09 423.16,-425.68 429.75,-423.32"/>
</a>
</g>
</g>
<!-- Node18 -->
<g id="Node000018" class="node">
<title>Node18</title>
<g id="a_Node000018"><a xlink:href="capability_8h_source.html" target="_top" xlink:title=" ">
<polygon fill="white" stroke="#666666" points="574,-415 482,-415 482,-396 574,-396 574,-415"/>
<text text-anchor="middle" x="528" y="-403" font-family="Helvetica,sans-Serif" font-size="10.00">cxx/capability.h</text>
</a>
</g>
</g>
<!-- Node15&#45;&gt;Node18 -->
<g id="edge35_Node000015_Node000018" class="edge">
<title>Node15&#45;&gt;Node18</title>
<g id="a_edge35_Node000015_Node000018"><a xlink:title=" ">
<path fill="none" stroke="#63b8ff" d="M453.3,-450.98C467.1,-442.77 488.24,-430.18 504.51,-420.49"/>
<polygon fill="#63b8ff" stroke="#63b8ff" points="506.64,-423.29 513.44,-415.17 503.06,-417.28 506.64,-423.29"/>
</a>
</g>
</g>
<!-- Node17&#45;&gt;Node11 -->
<g id="edge33_Node000017_Node000011" class="edge">
<title>Node17&#45;&gt;Node11</title>
<g id="a_edge33_Node000017_Node000011"><a xlink:title=" ">
<path fill="none" stroke="#63b8ff" d="M420.95,-395.87C422.12,-381.08 422.54,-350.52 409,-330 379.38,-285.11 321.84,-257.06 283.92,-242.59"/>
<polygon fill="#63b8ff" stroke="#63b8ff" points="284.85,-239.2 274.25,-239.04 282.43,-245.77 284.85,-239.2"/>
</a>
</g>
</g>
<!-- Node17&#45;&gt;Node14 -->
<g id="edge34_Node000017_Node000014" class="edge">
<title>Node17&#45;&gt;Node14</title>
<g id="a_edge34_Node000017_Node000014"><a xlink:title=" ">
<path fill="none" stroke="#63b8ff" d="M394.01,-395.98C350.88,-380.87 263.52,-345.97 205,-294 189.49,-280.22 175.21,-261.17 165.92,-247.54"/>
<polygon fill="#63b8ff" stroke="#63b8ff" points="168.77,-245.51 160.33,-239.1 162.93,-249.37 168.77,-245.51"/>
</a>
</g>
</g>
<!-- Node17&#45;&gt;Node16 -->
<g id="edge32_Node000017_Node000016" class="edge">
<title>Node17&#45;&gt;Node16</title>
<g id="a_edge32_Node000017_Node000016"><a xlink:title=" ">
<path fill="none" stroke="#63b8ff" d="M457.52,-395.99C504.98,-385.23 586.48,-366.75 635.98,-355.53"/>
<polygon fill="#63b8ff" stroke="#63b8ff" points="636.76,-358.94 645.74,-353.31 635.21,-352.11 636.76,-358.94"/>
</a>
</g>
</g>
<!-- Node18&#45;&gt;Node2 -->
<g id="edge36_Node000018_Node000002" class="edge">
<title>Node18&#45;&gt;Node2</title>
<g id="a_edge36_Node000018_Node000002"><a xlink:title=" ">
<path fill="none" stroke="#63b8ff" d="M541.28,-395.78C566.31,-378.18 618,-335.75 618,-285.5 618,-285.5 618,-285.5 618,-228.5 618,-197.19 618,-160.77 618,-139.23"/>
<polygon fill="#63b8ff" stroke="#63b8ff" points="621.5,-139.18 618,-129.18 614.5,-139.18 621.5,-139.18"/>
</a>
</g>
</g>
<!-- Node18&#45;&gt;Node6 -->
<g id="edge37_Node000018_Node000006" class="edge">
<title>Node18&#45;&gt;Node6</title>
<g id="a_edge37_Node000018_Node000006"><a xlink:title=" ">
<path fill="none" stroke="#63b8ff" d="M527.78,-395.95C526.69,-368.09 520.07,-278.4 480,-220 471.22,-207.2 457.49,-196.8 445.18,-189.28"/>
<polygon fill="#63b8ff" stroke="#63b8ff" points="446.57,-186.04 436.16,-184.1 443.09,-192.11 446.57,-186.04"/>
</a>
</g>
</g>
<!-- Node18&#45;&gt;Node19 -->
<g id="edge38_Node000018_Node000019" class="edge">
<title>Node18&#45;&gt;Node19</title>
<g id="a_edge38_Node000018_Node000019"><a xlink:title=" ">
<path fill="none" stroke="#63b8ff" d="M503.72,-395.99C475.02,-385.94 427.11,-369.16 394.8,-357.84"/>
<polygon fill="#63b8ff" stroke="#63b8ff" points="395.91,-354.52 385.31,-354.52 393.59,-361.13 395.91,-354.52"/>
</a>
</g>
</g>
<!-- Node19&#45;&gt;Node6 -->
<g id="edge39_Node000019_Node000006" class="edge">
<title>Node19&#45;&gt;Node6</title>
<g id="a_edge39_Node000019_Node000006"><a xlink:title=" ">
<path fill="none" stroke="#63b8ff" d="M363.91,-335.41C372.75,-309.28 399.47,-230.29 411.73,-194.04"/>
<polygon fill="#63b8ff" stroke="#63b8ff" points="415.14,-194.87 415.03,-184.27 408.51,-192.62 415.14,-194.87"/>
</a>
</g>
</g>
<!-- Node19&#45;&gt;Node11 -->
<g id="edge40_Node000019_Node000011" class="edge">
<title>Node19&#45;&gt;Node11</title>
<g id="a_edge40_Node000019_Node000011"><a xlink:title=" ">
<path fill="none" stroke="#63b8ff" d="M352.86,-335.39C340.37,-322.22 315.62,-296.35 294,-275 284.21,-265.33 273.02,-254.72 264.02,-246.29"/>
<polygon fill="#63b8ff" stroke="#63b8ff" points="266.17,-243.51 256.47,-239.25 261.4,-248.63 266.17,-243.51"/>
</a>
</g>
</g>
<!-- Node19&#45;&gt;Node13 -->
<g id="edge41_Node000019_Node000013" class="edge">
<title>Node19&#45;&gt;Node13</title>
<g id="a_edge41_Node000019_Node000013"><a xlink:title=" ">
<path fill="none" stroke="#63b8ff" d="M344.62,-335.37C326.42,-325.78 296.8,-310.17 275.55,-298.97"/>
<polygon fill="#63b8ff" stroke="#63b8ff" points="276.92,-295.73 266.45,-294.17 273.66,-301.93 276.92,-295.73"/>
</a>
</g>
</g>
<!-- Node20&#45;&gt;Node9 -->
<g id="edge44_Node000020_Node000009" class="edge">
<title>Node20&#45;&gt;Node9</title>
<g id="a_edge44_Node000020_Node000009"><a xlink:title=" ">
<path fill="none" stroke="#63b8ff" d="M427.3,-615.84C402.42,-597.44 344.01,-554.23 313.06,-531.34"/>
<polygon fill="#63b8ff" stroke="#63b8ff" points="314.88,-528.33 304.76,-525.2 310.71,-533.96 314.88,-528.33"/>
</a>
</g>
</g>
<!-- Node21 -->
<g id="Node000021" class="node">
<title>Node21</title>
<g id="a_Node000021"><a xlink:href="ipc__iface.html" target="_top" xlink:title="Interface Definition Language.">
<polygon fill="white" stroke="#666666" points="479,-525 399,-525 399,-506 479,-506 479,-525"/>
<text text-anchor="middle" x="439" y="-513" font-family="Helvetica,sans-Serif" font-size="10.00">cxx/ipc_iface</text>
</a>
</g>
</g>
<!-- Node20&#45;&gt;Node21 -->
<g id="edge45_Node000020_Node000021" class="edge">
<title>Node20&#45;&gt;Node21</title>
<g id="a_edge45_Node000020_Node000021"><a xlink:title=" ">
<path fill="none" stroke="#63b8ff" d="M439,-615.66C439,-598.17 439,-558.8 439,-535.27"/>
<polygon fill="#63b8ff" stroke="#63b8ff" points="442.5,-535.16 439,-525.16 435.5,-535.16 442.5,-535.16"/>
</a>
</g>
</g>
<!-- Node23 -->
<g id="Node000023" class="node">
<title>Node23</title>
<g id="a_Node000023"><a xlink:href="ipc__string_source.html" target="_top" xlink:title=" ">
<polygon fill="white" stroke="#666666" points="572,-580 488,-580 488,-561 572,-561 572,-580"/>
<text text-anchor="middle" x="530" y="-568" font-family="Helvetica,sans-Serif" font-size="10.00">cxx/ipc_string</text>
</a>
</g>
</g>
<!-- Node20&#45;&gt;Node23 -->
<g id="edge52_Node000020_Node000023" class="edge">
<title>Node20&#45;&gt;Node23</title>
<g id="a_edge52_Node000020_Node000023"><a xlink:title=" ">
<path fill="none" stroke="#63b8ff" d="M453.62,-615.98C467.86,-607.69 489.75,-594.94 506.45,-585.22"/>
<polygon fill="#63b8ff" stroke="#63b8ff" points="508.23,-588.23 515.11,-580.17 504.71,-582.18 508.23,-588.23"/>
</a>
</g>
</g>
<!-- Node21&#45;&gt;Node15 -->
<g id="edge51_Node000021_Node000015" class="edge">
<title>Node21&#45;&gt;Node15</title>
<g id="a_edge51_Node000021_Node000015"><a xlink:title=" ">
<path fill="none" stroke="#63b8ff" d="M439,-505.75C439,-498.8 439,-488.85 439,-480.13"/>
<polygon fill="#63b8ff" stroke="#63b8ff" points="442.5,-480.09 439,-470.09 435.5,-480.09 442.5,-480.09"/>
</a>
</g>
</g>
<!-- Node21&#45;&gt;Node17 -->
<g id="edge46_Node000021_Node000017" class="edge">
<title>Node21&#45;&gt;Node17</title>
<g id="a_edge46_Node000021_Node000017"><a xlink:title=" ">
<path fill="none" stroke="#63b8ff" d="M424.63,-505.96C413.13,-498.21 397.82,-485.62 391,-470 383.99,-453.94 394.15,-435.76 404.33,-422.98"/>
<polygon fill="#63b8ff" stroke="#63b8ff" points="407.26,-424.94 411.16,-415.09 401.97,-420.35 407.26,-424.94"/>
</a>
</g>
</g>
<!-- Node22 -->
<g id="Node000022" class="node">
<title>Node22</title>
<g id="a_Node000022"><a xlink:href="ipc__types.html" target="_top" xlink:title=" ">
<polygon fill="white" stroke="#666666" points="649.5,-470 534.5,-470 534.5,-451 649.5,-451 649.5,-470"/>
<text text-anchor="middle" x="592" y="-458" font-family="Helvetica,sans-Serif" font-size="10.00">l4/sys/cxx/ipc_types</text>
</a>
</g>
</g>
<!-- Node21&#45;&gt;Node22 -->
<g id="edge47_Node000021_Node000022" class="edge">
<title>Node21&#45;&gt;Node22</title>
<g id="a_edge47_Node000021_Node000022"><a xlink:title=" ">
<path fill="none" stroke="#63b8ff" d="M463.58,-505.98C489.05,-497.16 529.04,-483.31 557.63,-473.41"/>
<polygon fill="#63b8ff" stroke="#63b8ff" points="558.92,-476.66 567.23,-470.08 556.63,-470.05 558.92,-476.66"/>
</a>
</g>
</g>
<!-- Node22&#45;&gt;Node16 -->
<g id="edge49_Node000022_Node000016" class="edge">
<title>Node22&#45;&gt;Node16</title>
<g id="a_edge49_Node000022_Node000016"><a xlink:title=" ">
<path fill="none" stroke="#63b8ff" d="M598.46,-450.97C612.66,-432.24 646.77,-387.22 665.37,-362.66"/>
<polygon fill="#63b8ff" stroke="#63b8ff" points="668.21,-364.71 671.46,-354.63 662.63,-360.49 668.21,-364.71"/>
</a>
</g>
</g>
<!-- Node22&#45;&gt;Node17 -->
<g id="edge50_Node000022_Node000017" class="edge">
<title>Node22&#45;&gt;Node17</title>
<g id="a_edge50_Node000022_Node000017"><a xlink:title=" ">
<path fill="none" stroke="#63b8ff" d="M564.37,-450.98C535.49,-442.09 489.99,-428.07 457.8,-418.15"/>
<polygon fill="#63b8ff" stroke="#63b8ff" points="458.44,-414.68 447.85,-415.08 456.38,-421.37 458.44,-414.68"/>
</a>
</g>
</g>
<!-- Node22&#45;&gt;Node18 -->
<g id="edge48_Node000022_Node000018" class="edge">
<title>Node22&#45;&gt;Node18</title>
<g id="a_edge48_Node000022_Node000018"><a xlink:title=" ">
<path fill="none" stroke="#63b8ff" d="M581.72,-450.98C572.16,-443.07 557.72,-431.11 546.22,-421.58"/>
<polygon fill="#63b8ff" stroke="#63b8ff" points="548.4,-418.85 538.47,-415.17 543.94,-424.24 548.4,-418.85"/>
</a>
</g>
</g>
<!-- Node23&#45;&gt;Node16 -->
<g id="edge53_Node000023_Node000016" class="edge">
<title>Node23&#45;&gt;Node16</title>
<g id="a_edge53_Node000023_Node000016"><a xlink:title=" ">
<path fill="none" stroke="#63b8ff" d="M552.72,-560.93C585.93,-547.15 647.14,-516.77 678,-470 696.53,-441.91 699.19,-429.25 694,-396 692.3,-385.14 688.66,-373.41 685.27,-364.05"/>
<polygon fill="#63b8ff" stroke="#63b8ff" points="688.52,-362.74 681.68,-354.65 681.98,-365.24 688.52,-362.74"/>
</a>
</g>
</g>
<!-- Node23&#45;&gt;Node17 -->
<g id="edge54_Node000023_Node000017" class="edge">
<title>Node23&#45;&gt;Node17</title>
<g id="a_edge54_Node000023_Node000017"><a xlink:title=" ">
<path fill="none" stroke="#63b8ff" d="M487.91,-568.03C455.87,-564.49 413.4,-554.13 390,-525 369.35,-499.3 374.22,-482.15 385,-451 388.67,-440.38 396.04,-430.38 403.08,-422.55"/>
<polygon fill="#63b8ff" stroke="#63b8ff" points="405.7,-424.88 410.12,-415.25 400.66,-420.02 405.7,-424.88"/>
</a>
</g>
</g>
<!-- Node24 -->
<g id="Node000024" class="node">
<title>Node24</title>
<g id="a_Node000024"><a xlink:href="ipc__array_source.html" target="_top" xlink:title=" ">
<polygon fill="white" stroke="#666666" points="602,-525 540,-525 540,-506 602,-506 602,-525"/>
<text text-anchor="middle" x="571" y="-513" font-family="Helvetica,sans-Serif" font-size="10.00">ipc_array</text>
</a>
</g>
</g>
<!-- Node23&#45;&gt;Node24 -->
<g id="edge55_Node000023_Node000024" class="edge">
<title>Node23&#45;&gt;Node24</title>
<g id="a_edge55_Node000023_Node000024"><a xlink:title=" ">
<path fill="none" stroke="#63b8ff" d="M536.77,-560.75C542.56,-553.26 551.06,-542.28 558.14,-533.13"/>
<polygon fill="#63b8ff" stroke="#63b8ff" points="561.01,-535.14 564.36,-525.09 555.47,-530.86 561.01,-535.14"/>
</a>
</g>
</g>
<!-- Node24&#45;&gt;Node16 -->
<g id="edge56_Node000024_Node000016" class="edge">
<title>Node24&#45;&gt;Node16</title>
<g id="a_edge56_Node000024_Node000016"><a xlink:title=" ">
<path fill="none" stroke="#63b8ff" d="M602.33,-506.34C621.42,-499.71 644.63,-488.38 658,-470 680.8,-438.67 681.58,-391.08 679.93,-364.91"/>
<polygon fill="#63b8ff" stroke="#63b8ff" points="683.41,-364.5 679.1,-354.82 676.43,-365.07 683.41,-364.5"/>
</a>
</g>
</g>
<!-- Node24&#45;&gt;Node17 -->
<g id="edge57_Node000024_Node000017" class="edge">
<title>Node24&#45;&gt;Node17</title>
<g id="a_edge57_Node000024_Node000017"><a xlink:title=" ">
<path fill="none" stroke="#63b8ff" d="M559.85,-505.9C543.73,-493.53 512.88,-470.09 486,-451 471.49,-440.7 454.88,-429.5 441.96,-420.92"/>
<polygon fill="#63b8ff" stroke="#63b8ff" points="443.55,-417.78 433.28,-415.18 439.69,-423.61 443.55,-417.78"/>
</a>
</g>
</g>
<!-- Node24&#45;&gt;Node22 -->
<g id="edge58_Node000024_Node000022" class="edge">
<title>Node24&#45;&gt;Node22</title>
<g id="a_edge58_Node000024_Node000022"><a xlink:title=" ">
<path fill="none" stroke="#63b8ff" d="M574.47,-505.75C577.28,-498.65 581.34,-488.4 584.85,-479.56"/>
<polygon fill="#63b8ff" stroke="#63b8ff" points="588.17,-480.68 588.6,-470.09 581.66,-478.1 588.17,-480.68"/>
</a>
</g>
</g>
</g>
</svg>
