<?xml version="1.0" encoding="UTF-8" standalone="no"?>
<!DOCTYPE svg PUBLIC "-//W3C//DTD SVG 1.1//EN"
 "http://www.w3.org/Graphics/SVG/1.1/DTD/svg11.dtd">
<!-- Generated by graphviz version 2.43.0 (0)
 -->
<!-- Title: L4::Element_already_exists Pages: 1 -->
<svg width="123pt" height="428pt"
 viewBox="0.00 0.00 123.00 428.00" xmlns="http://www.w3.org/2000/svg" xmlns:xlink="http://www.w3.org/1999/xlink">
<g id="graph0" class="graph" transform="scale(1 1) rotate(0) translate(4 424)">
<title>L4::Element_already_exists</title>
<!-- Node1 -->
<g id="Node000001" class="node">
<title>Node1</title>
<g id="a_Node000001"><a xlink:title="Exception for duplicate element insertions.">
<polygon fill="#999999" stroke="transparent" points="112.5,-60 2.5,-60 2.5,0 112.5,0 112.5,-60"/>
<text text-anchor="start" x="7.5" y="-48" font-family="Helvetica,sans-Serif" font-size="10.00">L4::Element_already</text>
<text text-anchor="start" x="40" y="-37" font-family="Helvetica,sans-Serif" font-size="10.00">_exists</text>
<text text-anchor="start" x="55.5" y="-22" font-family="Helvetica,sans-Serif" font-size="10.00"> </text>
<text text-anchor="start" x="55.5" y="-7" font-family="Helvetica,sans-Serif" font-size="10.00"> </text>
<polygon fill="#666666" stroke="#666666" points="2.5,-32 2.5,-32 112.5,-32 112.5,-32 2.5,-32"/>
<polygon fill="#666666" stroke="#666666" points="2.5,-17 2.5,-17 112.5,-17 112.5,-17 2.5,-17"/>
<polygon fill="none" stroke="#666666" points="2.5,0 2.5,-60 112.5,-60 112.5,0 2.5,0"/>
</a>
</g>
</g>
<!-- Node2 -->
<g id="Node000002" class="node">
<title>Node2</title>
<g id="a_Node000002"><a xlink:href="classL4_1_1Runtime__error.html" target="_top" xlink:title="Exception for an abstract runtime error.">
<polygon fill="white" stroke="transparent" points="107,-190 8,-190 8,-96 107,-96 107,-190"/>
<text text-anchor="start" x="14" y="-178" font-family="Helvetica,sans-Serif" font-size="10.00">L4::Runtime_error</text>
<text text-anchor="start" x="56" y="-163" font-family="Helvetica,sans-Serif" font-size="10.00"> </text>
<text text-anchor="start" x="12.5" y="-148" font-family="Helvetica,sans-Serif" font-size="10.00">+</text>
<text text-anchor="start" x="25.5" y="-148" font-family="Helvetica,sans-Serif" font-size="10.00">Runtime_error()</text>
<text text-anchor="start" x="12.5" y="-133" font-family="Helvetica,sans-Serif" font-size="10.00">+</text>
<text text-anchor="start" x="25.5" y="-133" font-family="Helvetica,sans-Serif" font-size="10.00">str()</text>
<text text-anchor="start" x="12.5" y="-118" font-family="Helvetica,sans-Serif" font-size="10.00">+</text>
<text text-anchor="start" x="25.5" y="-118" font-family="Helvetica,sans-Serif" font-size="10.00">extra_str()</text>
<text text-anchor="start" x="12.5" y="-103" font-family="Helvetica,sans-Serif" font-size="10.00">+</text>
<text text-anchor="start" x="25.5" y="-103" font-family="Helvetica,sans-Serif" font-size="10.00">err_no()</text>
<polygon fill="#666666" stroke="#666666" points="8.5,-173 8.5,-173 107.5,-173 107.5,-173 8.5,-173"/>
<polygon fill="#666666" stroke="#666666" points="8.5,-158 8.5,-158 107.5,-158 107.5,-158 8.5,-158"/>
<polygon fill="none" stroke="#666666" points="8,-96 8,-190 107,-190 107,-96 8,-96"/>
</a>
</g>
</g>
<!-- Node2&#45;&gt;Node1 -->
<g id="edge1_Node000001_Node000002" class="edge">
<title>Node2&#45;&gt;Node1</title>
<g id="a_edge1_Node000001_Node000002"><a xlink:title=" ">
<path fill="none" stroke="#63b8ff" d="M57.5,-85.83C57.5,-76.89 57.5,-67.97 57.5,-60"/>
<polygon fill="none" stroke="#63b8ff" points="54,-85.89 57.5,-95.89 61,-85.89 54,-85.89"/>
</a>
</g>
</g>
<!-- Node3 -->
<g id="Node000003" class="node">
<title>Node3</title>
<g id="a_Node000003"><a xlink:href="classL4_1_1Base__exception.html" target="_top" xlink:title="Base class for all exceptions, thrown by the L4Re framework.">
<polygon fill="white" stroke="transparent" points="115,-305 0,-305 0,-226 115,-226 115,-305"/>
<text text-anchor="start" x="10.5" y="-292.5" font-family="Helvetica,sans-Serif" font-size="10.00">L4::Base_exception</text>
<text text-anchor="start" x="56" y="-277.5" font-family="Helvetica,sans-Serif" font-size="10.00"> </text>
<text text-anchor="start" x="4.5" y="-262.5" font-family="Helvetica,sans-Serif" font-size="10.00">+</text>
<text text-anchor="start" x="17.5" y="-262.5" font-family="Helvetica,sans-Serif" font-size="10.00">str()</text>
<text text-anchor="start" x="4.5" y="-247.5" font-family="Helvetica,sans-Serif" font-size="10.00">+</text>
<text text-anchor="start" x="17.5" y="-247.5" font-family="Helvetica,sans-Serif" font-size="10.00">~Base_exception()</text>
<text text-anchor="start" x="4.5" y="-232.5" font-family="Helvetica,sans-Serif" font-size="10.00">#</text>
<text text-anchor="start" x="17.5" y="-232.5" font-family="Helvetica,sans-Serif" font-size="10.00">Base_exception()</text>
<polygon fill="#666666" stroke="#666666" points="0.5,-287.5 0.5,-287.5 115.5,-287.5 115.5,-287.5 0.5,-287.5"/>
<polygon fill="#666666" stroke="#666666" points="0.5,-272.5 0.5,-272.5 115.5,-272.5 115.5,-272.5 0.5,-272.5"/>
<polygon fill="none" stroke="#666666" points="0,-226 0,-305 115,-305 115,-226 0,-226"/>
</a>
</g>
</g>
<!-- Node3&#45;&gt;Node2 -->
<g id="edge2_Node000002_Node000003" class="edge">
<title>Node3&#45;&gt;Node2</title>
<g id="a_edge2_Node000002_Node000003"><a xlink:title=" ">
<path fill="none" stroke="#63b8ff" d="M57.5,-215.68C57.5,-207.3 57.5,-198.61 57.5,-190.29"/>
<polygon fill="none" stroke="#63b8ff" points="54,-215.71 57.5,-225.71 61,-215.71 54,-215.71"/>
</a>
</g>
</g>
<!-- Node4 -->
<g id="Node000004" class="node">
<title>Node4</title>
<g id="a_Node000004"><a xlink:href="classL4_1_1Exception__tracer.html" target="_top" xlink:title="Back&#45;trace support for exceptions.">
<polygon fill="white" stroke="transparent" points="113,-420 2,-420 2,-341 113,-341 113,-420"/>
<text text-anchor="start" x="8" y="-407.5" font-family="Helvetica,sans-Serif" font-size="10.00">L4::Exception_tracer</text>
<text text-anchor="start" x="56" y="-392.5" font-family="Helvetica,sans-Serif" font-size="10.00"> </text>
<text text-anchor="start" x="6.5" y="-377.5" font-family="Helvetica,sans-Serif" font-size="10.00">+</text>
<text text-anchor="start" x="19.5" y="-377.5" font-family="Helvetica,sans-Serif" font-size="10.00">pc_array()</text>
<text text-anchor="start" x="6.5" y="-362.5" font-family="Helvetica,sans-Serif" font-size="10.00">+</text>
<text text-anchor="start" x="19.5" y="-362.5" font-family="Helvetica,sans-Serif" font-size="10.00">frame_count()</text>
<text text-anchor="start" x="6.5" y="-347.5" font-family="Helvetica,sans-Serif" font-size="10.00">#</text>
<text text-anchor="start" x="19.5" y="-347.5" font-family="Helvetica,sans-Serif" font-size="10.00">Exception_tracer()</text>
<polygon fill="#666666" stroke="#666666" points="2.5,-402.5 2.5,-402.5 113.5,-402.5 113.5,-402.5 2.5,-402.5"/>
<polygon fill="#666666" stroke="#666666" points="2.5,-387.5 2.5,-387.5 113.5,-387.5 113.5,-387.5 2.5,-387.5"/>
<polygon fill="none" stroke="#666666" points="2,-341 2,-420 113,-420 113,-341 2,-341"/>
</a>
</g>
</g>
<!-- Node4&#45;&gt;Node3 -->
<g id="edge3_Node000003_Node000004" class="edge">
<title>Node4&#45;&gt;Node3</title>
<g id="a_edge3_Node000003_Node000004"><a xlink:title=" ">
<path fill="none" stroke="#63b8ff" d="M57.5,-330.72C57.5,-322.22 57.5,-313.47 57.5,-305.28"/>
<polygon fill="none" stroke="#63b8ff" points="54,-330.93 57.5,-340.93 61,-330.93 54,-330.93"/>
</a>
</g>
</g>
</g>
</svg>
