<?xml version="1.0" encoding="UTF-8" standalone="no"?>
<!DOCTYPE svg PUBLIC "-//W3C//DTD SVG 1.1//EN"
 "http://www.w3.org/Graphics/SVG/1.1/DTD/svg11.dtd">
<!-- Generated by graphviz version 2.43.0 (0)
 -->
<!-- Title: L4Re::Dataspace Pages: 1 -->
<svg width="318pt" height="440pt"
 viewBox="0.00 0.00 318.00 440.00" xmlns="http://www.w3.org/2000/svg" xmlns:xlink="http://www.w3.org/1999/xlink">
<g id="graph0" class="graph" transform="scale(1 1) rotate(0) translate(4 436)">
<title>L4Re::Dataspace</title>
<!-- Node1 -->
<g id="Node000001" class="node">
<title>Node1</title>
<g id="a_Node000001"><a xlink:title="Interface for memory&#45;like objects.">
<polygon fill="#999999" stroke="transparent" points="152,-154 60,-154 60,0 152,0 152,-154"/>
<text text-anchor="start" x="65" y="-142" font-family="Helvetica,sans-Serif" font-size="10.00">L4Re::Dataspace</text>
<text text-anchor="start" x="104" y="-127" font-family="Helvetica,sans-Serif" font-size="10.00"> </text>
<text text-anchor="start" x="65" y="-112" font-family="Helvetica,sans-Serif" font-size="10.00">+</text>
<text text-anchor="start" x="79" y="-112" font-family="Helvetica,sans-Serif" font-size="10.00">map()</text>
<text text-anchor="start" x="65" y="-97" font-family="Helvetica,sans-Serif" font-size="10.00">+</text>
<text text-anchor="start" x="79" y="-97" font-family="Helvetica,sans-Serif" font-size="10.00">map_region()</text>
<text text-anchor="start" x="65" y="-82" font-family="Helvetica,sans-Serif" font-size="10.00">+</text>
<text text-anchor="start" x="79" y="-82" font-family="Helvetica,sans-Serif" font-size="10.00">clear()</text>
<text text-anchor="start" x="65" y="-67" font-family="Helvetica,sans-Serif" font-size="10.00">+</text>
<text text-anchor="start" x="79" y="-67" font-family="Helvetica,sans-Serif" font-size="10.00">allocate()</text>
<text text-anchor="start" x="65" y="-52" font-family="Helvetica,sans-Serif" font-size="10.00">+</text>
<text text-anchor="start" x="79" y="-52" font-family="Helvetica,sans-Serif" font-size="10.00">copy_in()</text>
<text text-anchor="start" x="65" y="-37" font-family="Helvetica,sans-Serif" font-size="10.00">+</text>
<text text-anchor="start" x="79" y="-37" font-family="Helvetica,sans-Serif" font-size="10.00">size()</text>
<text text-anchor="start" x="65" y="-22" font-family="Helvetica,sans-Serif" font-size="10.00">+</text>
<text text-anchor="start" x="79" y="-22" font-family="Helvetica,sans-Serif" font-size="10.00">flags()</text>
<text text-anchor="start" x="65" y="-7" font-family="Helvetica,sans-Serif" font-size="10.00">+</text>
<text text-anchor="start" x="79" y="-7" font-family="Helvetica,sans-Serif" font-size="10.00">info()</text>
<polygon fill="#666666" stroke="#666666" points="60,-137 60,-137 152,-137 152,-137 60,-137"/>
<polygon fill="#666666" stroke="#666666" points="60,-122 60,-122 152,-122 152,-122 60,-122"/>
<polygon fill="none" stroke="#666666" points="60,0 60,-154 152,-154 152,0 60,0"/>
</a>
</g>
</g>
<!-- Node2 -->
<g id="Node000002" class="node">
<title>Node2</title>
<g id="a_Node000002"><a xlink:href="classL4_1_1Kobject__t.html" target="_top" xlink:title=" ">
<polygon fill="white" stroke="transparent" points="177,-288 35,-288 35,-191 177,-191 177,-288"/>
<text text-anchor="start" x="40" y="-275.5" font-family="Helvetica,sans-Serif" font-size="10.00">L4::Kobject_t&lt; Dataspace,</text>
<text text-anchor="start" x="40" y="-264.5" font-family="Helvetica,sans-Serif" font-size="10.00"> L4::Kobject, L4RE_PROTO</text>
<text text-anchor="start" x="40" y="-253.5" font-family="Helvetica,sans-Serif" font-size="10.00">_DATASPACE, L4::Type_info</text>
<text text-anchor="start" x="57.5" y="-242.5" font-family="Helvetica,sans-Serif" font-size="10.00">::Demand_t&lt; 1 &gt; &gt;</text>
<text text-anchor="start" x="104" y="-227.5" font-family="Helvetica,sans-Serif" font-size="10.00"> </text>
<text text-anchor="start" x="42" y="-212.5" font-family="Helvetica,sans-Serif" font-size="10.00">#</text>
<text text-anchor="start" x="58" y="-212.5" font-family="Helvetica,sans-Serif" font-size="10.00">c()</text>
<text text-anchor="start" x="42" y="-197.5" font-family="Helvetica,sans-Serif" font-size="10.00">#</text>
<text text-anchor="start" x="58" y="-197.5" font-family="Helvetica,sans-Serif" font-size="10.00">__check_protocols__()</text>
<polygon fill="#666666" stroke="#666666" points="35,-237.5 35,-237.5 177,-237.5 177,-237.5 35,-237.5"/>
<polygon fill="#666666" stroke="#666666" points="35,-222.5 35,-222.5 177,-222.5 177,-222.5 35,-222.5"/>
<polygon fill="none" stroke="#666666" points="35,-191 35,-288 177,-288 177,-191 35,-191"/>
</a>
</g>
</g>
<!-- Node2&#45;&gt;Node1 -->
<g id="edge1_Node000001_Node000002" class="edge">
<title>Node2&#45;&gt;Node1</title>
<g id="a_edge1_Node000001_Node000002"><a xlink:title=" ">
<path fill="none" stroke="#63b8ff" d="M106,-180.52C106,-171.94 106,-162.98 106,-154.1"/>
<polygon fill="none" stroke="#63b8ff" points="102.5,-180.78 106,-190.78 109.5,-180.78 102.5,-180.78"/>
</a>
</g>
</g>
<!-- Node3 -->
<g id="Node000003" class="node">
<title>Node3</title>
<g id="a_Node000003"><a xlink:href="classL4_1_1Kobject.html" target="_top" xlink:title="Base class for all kinds of kernel objects and remote objects, referenced by capabilities.">
<polygon fill="white" stroke="transparent" points="80,-426.5 0,-426.5 0,-362.5 80,-362.5 80,-426.5"/>
<text text-anchor="start" x="13" y="-414.5" font-family="Helvetica,sans-Serif" font-size="10.00">L4::Kobject</text>
<text text-anchor="start" x="38" y="-399.5" font-family="Helvetica,sans-Serif" font-size="10.00"> </text>
<text text-anchor="start" x="4" y="-384.5" font-family="Helvetica,sans-Serif" font-size="10.00">+</text>
<text text-anchor="start" x="17" y="-384.5" font-family="Helvetica,sans-Serif" font-size="10.00">dec_refcnt()</text>
<text text-anchor="start" x="4" y="-369.5" font-family="Helvetica,sans-Serif" font-size="10.00">#</text>
<text text-anchor="start" x="17" y="-369.5" font-family="Helvetica,sans-Serif" font-size="10.00">cap()</text>
<polygon fill="#666666" stroke="#666666" points="0,-409.5 0,-409.5 80,-409.5 80,-409.5 0,-409.5"/>
<polygon fill="#666666" stroke="#666666" points="0,-394.5 0,-394.5 80,-394.5 80,-394.5 0,-394.5"/>
<polygon fill="none" stroke="#666666" points="0,-362.5 0,-426.5 80,-426.5 80,-362.5 0,-362.5"/>
</a>
</g>
</g>
<!-- Node3&#45;&gt;Node2 -->
<g id="edge2_Node000002_Node000003" class="edge">
<title>Node3&#45;&gt;Node2</title>
<g id="a_edge2_Node000002_Node000003"><a xlink:title=" ">
<path fill="none" stroke="#63b8ff" d="M57.57,-352.77C66.15,-332.87 76.53,-308.81 85.48,-288.07"/>
<polygon fill="none" stroke="#63b8ff" points="54.26,-351.6 53.52,-362.17 60.69,-354.37 54.26,-351.6"/>
</a>
</g>
</g>
<!-- Node4 -->
<g id="Node000004" class="node">
<title>Node4</title>
<g id="a_Node000004"><a xlink:href="classL4_1_1Kobject__t.html" target="_top" xlink:title="Helper class to create an L4Re interface class that is derived from a single base class.">
<polygon fill="white" stroke="transparent" points="248,-432 98,-432 98,-357 248,-357 248,-432"/>
<text text-anchor="start" x="103" y="-419.5" font-family="Helvetica,sans-Serif" font-size="10.00">L4::Kobject_t&lt; Derived,</text>
<text text-anchor="start" x="103" y="-408.5" font-family="Helvetica,sans-Serif" font-size="10.00"> Base, PROTO, S_DEMAND &gt;</text>
<text text-anchor="start" x="171" y="-393.5" font-family="Helvetica,sans-Serif" font-size="10.00"> </text>
<text text-anchor="start" x="107" y="-378.5" font-family="Helvetica,sans-Serif" font-size="10.00">#</text>
<text text-anchor="start" x="125" y="-378.5" font-family="Helvetica,sans-Serif" font-size="10.00">c()</text>
<text text-anchor="start" x="107" y="-363.5" font-family="Helvetica,sans-Serif" font-size="10.00">#</text>
<text text-anchor="start" x="125" y="-363.5" font-family="Helvetica,sans-Serif" font-size="10.00">__check_protocols__()</text>
<polygon fill="#666666" stroke="#666666" points="98,-403.5 98,-403.5 248,-403.5 248,-403.5 98,-403.5"/>
<polygon fill="#666666" stroke="#666666" points="98,-388.5 98,-388.5 248,-388.5 248,-388.5 98,-388.5"/>
<polygon fill="none" stroke="#666666" points="98,-357 98,-432 248,-432 248,-357 98,-357"/>
</a>
</g>
</g>
<!-- Node4&#45;&gt;Node2 -->
<g id="edge3_Node000002_Node000004" class="edge">
<title>Node4&#45;&gt;Node2</title>
<g id="a_edge3_Node000002_Node000004"><a xlink:title=" ">
<path fill="none" stroke="orange" d="M152.91,-347.61C144.68,-328.83 135.17,-307.1 126.86,-288.15"/>
<polygon fill="orange" stroke="orange" points="149.73,-349.1 156.95,-356.85 156.15,-346.29 149.73,-349.1"/>
</a>
</g>
<text text-anchor="start" x="147" y="-331" font-family="Helvetica,sans-Serif" font-size="10.00" fill="grey"> &lt; Dataspace, L4::Kobject,</text>
<text text-anchor="start" x="147" y="-320" font-family="Helvetica,sans-Serif" font-size="10.00" fill="grey"> L4RE_PROTO_DATASPACE,</text>
<text text-anchor="middle" x="228.5" y="-309" font-family="Helvetica,sans-Serif" font-size="10.00" fill="grey"> L4::Type_info::Demand_t&lt; 1 &gt; &gt;</text>
</g>
</g>
</svg>
