<?xml version="1.0" encoding="UTF-8" standalone="no"?>
<!DOCTYPE svg PUBLIC "-//W3C//DTD SVG 1.1//EN"
 "http://www.w3.org/Graphics/SVG/1.1/DTD/svg11.dtd">
<!-- Generated by graphviz version 2.42.4 (0)
 -->
<!-- Title: L4::Ipc_svr::Timeout_queue::handle_expired_timeouts Pages: 1 -->
<svg width="292pt" height="172pt"
 viewBox="0.00 0.00 292.00 172.00" xmlns="http://www.w3.org/2000/svg" xmlns:xlink="http://www.w3.org/1999/xlink">
<g id="graph0" class="graph" transform="scale(1 1) rotate(0) translate(4 168)">
<title>L4::Ipc_svr::Timeout_queue::handle_expired_timeouts</title>
<!-- Node1 -->
<g id="Node000001" class="node">
<title>Node1</title>
<g id="a_Node000001"><a xlink:title="run the callbacks of expired timeouts">
<polygon fill="#999999" stroke="#666666" points="133,-99.5 0,-99.5 0,-58.5 133,-58.5 133,-99.5"/>
<text text-anchor="start" x="8" y="-87.5" font-family="Helvetica,sans-Serif" font-size="10.00">L4::Ipc_svr::Timeout</text>
<text text-anchor="start" x="8" y="-76.5" font-family="Helvetica,sans-Serif" font-size="10.00">_queue::handle_expired</text>
<text text-anchor="middle" x="66.5" y="-65.5" font-family="Helvetica,sans-Serif" font-size="10.00">_timeouts</text>
</a>
</g>
</g>
<!-- Node2 -->
<g id="Node000002" class="node">
<title>Node2</title>
<g id="a_Node000002"><a xlink:href="classcxx_1_1Bits_1_1Basic__list.html#af857846edcaf6cbc84827c585b45fd49" target="_top" xlink:title="Return an iterator to the beginning of the list.">
<polygon fill="white" stroke="#666666" points="282,-164 171,-164 171,-134 282,-134 282,-164"/>
<text text-anchor="start" x="179" y="-152" font-family="Helvetica,sans-Serif" font-size="10.00">cxx::Bits::Basic_list</text>
<text text-anchor="middle" x="226.5" y="-141" font-family="Helvetica,sans-Serif" font-size="10.00">::begin</text>
</a>
</g>
</g>
<!-- Node1&#45;&gt;Node2 -->
<g id="edge1_Node000001_Node000002" class="edge">
<title>Node1&#45;&gt;Node2</title>
<g id="a_edge1_Node000001_Node000002"><a xlink:title=" ">
<path fill="none" stroke="#63b8ff" d="M112.37,-99.61C129.98,-107.63 150.4,-116.84 169,-125 172.63,-126.59 176.4,-128.23 180.18,-129.86"/>
<polygon fill="#63b8ff" stroke="#63b8ff" points="179.01,-133.17 189.58,-133.89 181.77,-126.73 179.01,-133.17"/>
</a>
</g>
</g>
<!-- Node3 -->
<g id="Node000003" class="node">
<title>Node3</title>
<g id="a_Node000003"><a xlink:href="classcxx_1_1Bits_1_1Basic__list.html#a18b55807a5a50a2dc3e3eacb18d9b436" target="_top" xlink:title="Check if the list is empty.">
<polygon fill="white" stroke="#666666" points="282,-116 171,-116 171,-86 282,-86 282,-116"/>
<text text-anchor="start" x="179" y="-104" font-family="Helvetica,sans-Serif" font-size="10.00">cxx::Bits::Basic_list</text>
<text text-anchor="middle" x="226.5" y="-93" font-family="Helvetica,sans-Serif" font-size="10.00">::empty</text>
</a>
</g>
</g>
<!-- Node1&#45;&gt;Node3 -->
<g id="edge2_Node000001_Node000003" class="edge">
<title>Node1&#45;&gt;Node3</title>
<g id="a_edge2_Node000001_Node000003"><a xlink:title=" ">
<path fill="none" stroke="#63b8ff" d="M133.13,-88.14C142.25,-89.41 151.61,-90.71 160.71,-91.98"/>
<polygon fill="#63b8ff" stroke="#63b8ff" points="160.47,-95.48 170.85,-93.39 161.43,-88.55 160.47,-95.48"/>
</a>
</g>
</g>
<!-- Node4 -->
<g id="Node000004" class="node">
<title>Node4</title>
<g id="a_Node000004"><a xlink:href="classcxx_1_1H__list.html#a691a6cd317a699e2cc636ea7f0917c1d" target="_top" xlink:title="Remove the element at the given iterator position.">
<polygon fill="white" stroke="#666666" points="277,-67.5 176,-67.5 176,-48.5 277,-48.5 277,-67.5"/>
<text text-anchor="middle" x="226.5" y="-55.5" font-family="Helvetica,sans-Serif" font-size="10.00">cxx::H_list::erase</text>
</a>
</g>
</g>
<!-- Node1&#45;&gt;Node4 -->
<g id="edge3_Node000001_Node000004" class="edge">
<title>Node1&#45;&gt;Node4</title>
<g id="a_edge3_Node000001_Node000004"><a xlink:title=" ">
<path fill="none" stroke="#63b8ff" d="M133.13,-70.28C143.93,-68.84 155.07,-67.36 165.71,-65.95"/>
<polygon fill="#63b8ff" stroke="#63b8ff" points="166.28,-69.4 175.73,-64.61 165.36,-62.46 166.28,-69.4"/>
</a>
</g>
</g>
<!-- Node5 -->
<g id="Node000005" class="node">
<title>Node5</title>
<g id="a_Node000005"><a xlink:href="classL4_1_1Ipc__svr_1_1Timeout.html#a0309d30e94f93df7a08ab855d59c61fe" target="_top" xlink:title="callback function to be called when timeout happened">
<polygon fill="white" stroke="#666666" points="284,-30 169,-30 169,0 284,0 284,-30"/>
<text text-anchor="start" x="177" y="-18" font-family="Helvetica,sans-Serif" font-size="10.00">L4::Ipc_svr::Timeout</text>
<text text-anchor="middle" x="226.5" y="-7" font-family="Helvetica,sans-Serif" font-size="10.00">::expired</text>
</a>
</g>
</g>
<!-- Node1&#45;&gt;Node5 -->
<g id="edge4_Node000001_Node000005" class="edge">
<title>Node1&#45;&gt;Node5</title>
<g id="a_edge4_Node000001_Node000005"><a xlink:title=" ">
<path fill="none" stroke="#63b8ff" d="M118.36,-58.4C137.81,-50.52 159.87,-41.58 178.9,-33.87"/>
<polygon fill="#63b8ff" stroke="#63b8ff" points="180.31,-37.08 188.26,-30.08 177.68,-30.59 180.31,-37.08"/>
</a>
</g>
</g>
</g>
</svg>
