<?xml version="1.0" encoding="UTF-8" standalone="no"?>
<!DOCTYPE svg PUBLIC "-//W3C//DTD SVG 1.1//EN"
 "http://www.w3.org/Graphics/SVG/1.1/DTD/svg11.dtd">
<!-- Generated by graphviz version 2.42.4 (0)
 -->
<!-- Title: L4::Ipc::Ostream::put Pages: 1 -->
<svg width="236pt" height="101pt"
 viewBox="0.00 0.00 236.00 101.00" xmlns="http://www.w3.org/2000/svg" xmlns:xlink="http://www.w3.org/1999/xlink">
<g id="graph0" class="graph" transform="scale(1 1) rotate(0) translate(4 97)">
<title>L4::Ipc::Ostream::put</title>
<!-- Node1 -->
<g id="Node000001" class="node">
<title>Node1</title>
<g id="a_Node000001"><a xlink:title="Put an array with size elements of type T into the stream.">
<polygon fill="#999999" stroke="#666666" points="228,-56 110,-56 110,-37 228,-37 228,-56"/>
<text text-anchor="middle" x="169" y="-44" font-family="Helvetica,sans-Serif" font-size="10.00">L4::Ipc::Ostream::put</text>
</a>
</g>
</g>
<!-- Node2 -->
<g id="Node000002" class="node">
<title>Node2</title>
<g id="a_Node000002"><a xlink:href="ipc__stream.html#a368b2760283dc1aa10eecba178bd192f" target="_top" xlink:title="Insert an element to type T into the stream s.">
<polygon fill="white" stroke="#666666" points="74,-93 0,-93 0,-74 74,-74 74,-93"/>
<text text-anchor="middle" x="37" y="-81" font-family="Helvetica,sans-Serif" font-size="10.00">operator&lt;&lt;</text>
</a>
</g>
</g>
<!-- Node1&#45;&gt;Node2 -->
<g id="edge1_Node000001_Node000002" class="edge">
<title>Node1&#45;&gt;Node2</title>
<g id="a_edge1_Node000001_Node000002"><a xlink:title=" ">
<path fill="none" stroke="#63b8ff" d="M124.69,-58.83C107.47,-63.73 87.96,-69.28 71.82,-73.88"/>
<polygon fill="#63b8ff" stroke="#63b8ff" points="125.86,-62.13 134.52,-56.03 123.95,-55.4 125.86,-62.13"/>
</a>
</g>
</g>
<!-- Node3 -->
<g id="Node000003" class="node">
<title>Node3</title>
<g id="a_Node000003"><a xlink:href="ipc__stream.html#a2f4df865a76488b2f249dfe2959bffc4" target="_top" xlink:title="Insert a zero terminated character string into the stream s.">
<polygon fill="white" stroke="#666666" points="74,-56 0,-56 0,-37 74,-37 74,-56"/>
<text text-anchor="middle" x="37" y="-44" font-family="Helvetica,sans-Serif" font-size="10.00">operator&lt;&lt;</text>
</a>
</g>
</g>
<!-- Node1&#45;&gt;Node3 -->
<g id="edge2_Node000001_Node000003" class="edge">
<title>Node1&#45;&gt;Node3</title>
<g id="a_edge2_Node000001_Node000003"><a xlink:title=" ">
<path fill="none" stroke="#63b8ff" d="M99.82,-46.5C90.95,-46.5 82.15,-46.5 74.1,-46.5"/>
<polygon fill="#63b8ff" stroke="#63b8ff" points="99.84,-50 109.84,-46.5 99.84,-43 99.84,-50"/>
</a>
</g>
</g>
<!-- Node4 -->
<g id="Node000004" class="node">
<title>Node4</title>
<g id="a_Node000004"><a xlink:href="ipc__stream.html#a078a06f5ecddff6e7a94386d3e9c3ece" target="_top" xlink:title="Insert an array with elements of type T into the stream s.">
<polygon fill="white" stroke="#666666" points="74,-19 0,-19 0,0 74,0 74,-19"/>
<text text-anchor="middle" x="37" y="-7" font-family="Helvetica,sans-Serif" font-size="10.00">operator&lt;&lt;</text>
</a>
</g>
</g>
<!-- Node1&#45;&gt;Node4 -->
<g id="edge3_Node000001_Node000004" class="edge">
<title>Node1&#45;&gt;Node4</title>
<g id="a_edge3_Node000001_Node000004"><a xlink:title=" ">
<path fill="none" stroke="#63b8ff" d="M124.69,-34.17C107.47,-29.27 87.96,-23.72 71.82,-19.12"/>
<polygon fill="#63b8ff" stroke="#63b8ff" points="123.95,-37.6 134.52,-36.97 125.86,-30.87 123.95,-37.6"/>
</a>
</g>
</g>
</g>
</svg>
