<?xml version="1.0" encoding="UTF-8" standalone="no"?>
<!DOCTYPE svg PUBLIC "-//W3C//DTD SVG 1.1//EN"
 "http://www.w3.org/Graphics/SVG/1.1/DTD/svg11.dtd">
<!-- Generated by graphviz version 2.43.0 (0)
 -->
<!-- Title: cxx::Bits::Bst::remove_tree Pages: 1 -->
<svg width="504pt" height="45pt"
 viewBox="0.00 0.00 504.00 45.00" xmlns="http://www.w3.org/2000/svg" xmlns:xlink="http://www.w3.org/1999/xlink">
<g id="graph0" class="graph" transform="scale(1 1) rotate(0) translate(4 41)">
<title>cxx::Bits::Bst::remove_tree</title>
<!-- Node1 -->
<g id="Node000001" class="node">
<title>Node1</title>
<g id="a_Node000001"><a xlink:title="Remove all elements in the subtree of head.">
<polygon fill="#999999" stroke="#666666" points="496,-19 347,-19 347,0 496,0 496,-19"/>
<text text-anchor="middle" x="421.5" y="-7" font-family="Helvetica,sans-Serif" font-size="10.00">cxx::Bits::Bst::remove_tree</text>
</a>
</g>
</g>
<!-- Node1&#45;&gt;Node1 -->
<g id="edge3_Node000001_Node000001" class="edge">
<title>Node1&#45;&gt;Node1</title>
<g id="a_edge3_Node000001_Node000001"><a xlink:title=" ">
<path fill="none" stroke="#63b8ff" d="M455.18,-27.45C454.22,-32.82 442.99,-37 421.5,-37 389.51,-37 380.26,-27.73 393.76,-19.08"/>
<polygon fill="#63b8ff" stroke="#63b8ff" points="457.89,-25.21 449.24,-19.08 452.18,-29.26 457.89,-25.21"/>
</a>
</g>
</g>
<!-- Node2 -->
<g id="Node000002" class="node">
<title>Node2</title>
<g id="a_Node000002"><a xlink:href="classcxx_1_1Bits_1_1Bst.html#ab86f783914505fd36cf3abddda981d4a" target="_top" xlink:title="Clear the tree.">
<polygon fill="white" stroke="#666666" points="311,-19 170,-19 170,0 311,0 311,-19"/>
<text text-anchor="middle" x="240.5" y="-7" font-family="Helvetica,sans-Serif" font-size="10.00">cxx::Bits::Bst::remove_all</text>
</a>
</g>
</g>
<!-- Node1&#45;&gt;Node2 -->
<g id="edge1_Node000001_Node000002" class="edge">
<title>Node1&#45;&gt;Node2</title>
<g id="a_edge1_Node000001_Node000002"><a xlink:title=" ">
<path fill="none" stroke="#63b8ff" d="M336.84,-9.5C328.21,-9.5 319.5,-9.5 311.05,-9.5"/>
<polygon fill="#63b8ff" stroke="#63b8ff" points="336.92,-13 346.92,-9.5 336.92,-6 336.92,-13"/>
</a>
</g>
</g>
<!-- Node3 -->
<g id="Node000003" class="node">
<title>Node3</title>
<g id="a_Node000003"><a xlink:href="classcxx_1_1Avl__tree.html#a76c21afd43e451651a66e95278fd5c26" target="_top" xlink:title="Destroy the tree.">
<polygon fill="white" stroke="#666666" points="134,-19 0,-19 0,0 134,0 134,-19"/>
<text text-anchor="middle" x="67" y="-7" font-family="Helvetica,sans-Serif" font-size="10.00">cxx::Avl_tree::~Avl_tree</text>
</a>
</g>
</g>
<!-- Node2&#45;&gt;Node3 -->
<g id="edge2_Node000002_Node000003" class="edge">
<title>Node2&#45;&gt;Node3</title>
<g id="a_edge2_Node000002_Node000003"><a xlink:title=" ">
<path fill="none" stroke="#63b8ff" d="M159.73,-9.5C151.15,-9.5 142.49,-9.5 134.09,-9.5"/>
<polygon fill="#63b8ff" stroke="#63b8ff" points="159.74,-13 169.74,-9.5 159.74,-6 159.74,-13"/>
</a>
</g>
</g>
</g>
</svg>
