<?xml version="1.0" encoding="UTF-8" standalone="no"?>
<!DOCTYPE svg PUBLIC "-//W3C//DTD SVG 1.1//EN"
 "http://www.w3.org/Graphics/SVG/1.1/DTD/svg11.dtd">
<!-- Generated by graphviz version 2.43.0 (0)
 -->
<!-- Title: L4::Kip::Mem_desc::all Pages: 1 -->
<svg width="284pt" height="86pt"
 viewBox="0.00 0.00 284.00 86.00" xmlns="http://www.w3.org/2000/svg" xmlns:xlink="http://www.w3.org/1999/xlink">
<g id="graph0" class="graph" transform="scale(1 1) rotate(0) translate(4 82)">
<title>L4::Kip::Mem_desc::all</title>
<!-- Node1 -->
<g id="Node000001" class="node">
<title>Node1</title>
<g id="a_Node000001"><a xlink:title="Return enumerable list of memory descriptors.">
<polygon fill="#999999" stroke="#666666" points="126,-48.5 0,-48.5 0,-29.5 126,-29.5 126,-48.5"/>
<text text-anchor="middle" x="63" y="-36.5" font-family="Helvetica,sans-Serif" font-size="10.00">L4::Kip::Mem_desc::all</text>
</a>
</g>
</g>
<!-- Node2 -->
<g id="Node000002" class="node">
<title>Node2</title>
<g id="a_Node000002"><a xlink:href="classL4_1_1Kip_1_1Mem__desc.html#af1dd05e45df7c0e16476f394ce9fb3dd" target="_top" xlink:title="Return number of memory descriptors stored in the kernel info page.">
<polygon fill="white" stroke="#666666" points="276,-78 162,-78 162,-48 276,-48 276,-78"/>
<text text-anchor="start" x="170" y="-66" font-family="Helvetica,sans-Serif" font-size="10.00">L4::Kip::Mem_desc::</text>
<text text-anchor="middle" x="219" y="-55" font-family="Helvetica,sans-Serif" font-size="10.00">count</text>
</a>
</g>
</g>
<!-- Node1&#45;&gt;Node2 -->
<g id="edge1_Node000001_Node000002" class="edge">
<title>Node1&#45;&gt;Node2</title>
<g id="a_edge1_Node000001_Node000002"><a xlink:title=" ">
<path fill="none" stroke="#63b8ff" d="M125.31,-48.55C134.08,-49.92 143.14,-51.33 152,-52.71"/>
<polygon fill="#63b8ff" stroke="#63b8ff" points="151.48,-56.18 161.9,-54.26 152.56,-49.26 151.48,-56.18"/>
</a>
</g>
</g>
<!-- Node3 -->
<g id="Node000003" class="node">
<title>Node3</title>
<g id="a_Node000003"><a xlink:href="classL4_1_1Kip_1_1Mem__desc.html#afa4fa4eb24b82f88d7b7006fcaa89d8f" target="_top" xlink:title="Get first memory descriptor.">
<polygon fill="white" stroke="#666666" points="276,-30 162,-30 162,0 276,0 276,-30"/>
<text text-anchor="start" x="170" y="-18" font-family="Helvetica,sans-Serif" font-size="10.00">L4::Kip::Mem_desc::</text>
<text text-anchor="middle" x="219" y="-7" font-family="Helvetica,sans-Serif" font-size="10.00">first</text>
</a>
</g>
</g>
<!-- Node1&#45;&gt;Node3 -->
<g id="edge2_Node000001_Node000003" class="edge">
<title>Node1&#45;&gt;Node3</title>
<g id="a_edge2_Node000001_Node000003"><a xlink:title=" ">
<path fill="none" stroke="#63b8ff" d="M125.31,-29.45C134.08,-28.08 143.14,-26.67 152,-25.29"/>
<polygon fill="#63b8ff" stroke="#63b8ff" points="152.56,-28.74 161.9,-23.74 151.48,-21.82 152.56,-28.74"/>
</a>
</g>
</g>
</g>
</svg>
