<?xml version="1.0" encoding="UTF-8" standalone="no"?>
<!DOCTYPE svg PUBLIC "-//W3C//DTD SVG 1.1//EN"
 "http://www.w3.org/Graphics/SVG/1.1/DTD/svg11.dtd">
<!-- Generated by graphviz version 2.42.4 (0)
 -->
<!-- Title: L4::Cap_base::is_valid Pages: 1 -->
<svg width="309pt" height="450pt"
 viewBox="0.00 0.00 309.00 449.50" xmlns="http://www.w3.org/2000/svg" xmlns:xlink="http://www.w3.org/1999/xlink">
<g id="graph0" class="graph" transform="scale(1 1) rotate(0) translate(4 445.5)">
<title>L4::Cap_base::is_valid</title>
<!-- Node1 -->
<g id="Node000001" class="node">
<title>Node1</title>
<g id="a_Node000001"><a xlink:title="Test whether the capability is a valid capability index (i.e., not L4_INVALID_CAP).">
<polygon fill="#999999" stroke="#666666" points="301,-232.5 176,-232.5 176,-213.5 301,-213.5 301,-232.5"/>
<text text-anchor="middle" x="238.5" y="-220.5" font-family="Helvetica,sans-Serif" font-size="10.00">L4::Cap_base::is_valid</text>
</a>
</g>
</g>
<!-- Node2 -->
<g id="Node000002" class="node">
<title>Node2</title>
<g id="a_Node000002"><a xlink:href="classL4_1_1Cap__base.html#a1501f9852fda4c01a1591a7c53585d5f" target="_top" xlink:title="Copy a capability.">
<polygon fill="white" stroke="#666666" points="125,-441.5 15,-441.5 15,-422.5 125,-422.5 125,-441.5"/>
<text text-anchor="middle" x="70" y="-429.5" font-family="Helvetica,sans-Serif" font-size="10.00">L4::Cap_base::copy</text>
</a>
</g>
</g>
<!-- Node1&#45;&gt;Node2 -->
<g id="edge1_Node000001_Node000002" class="edge">
<title>Node1&#45;&gt;Node2</title>
<g id="a_edge1_Node000001_Node000002"><a xlink:title=" ">
<path fill="none" stroke="#63b8ff" d="M233.05,-242.59C223.24,-281.22 196.03,-367.44 140,-413 135.28,-416.84 129.83,-419.91 124.12,-422.36"/>
<polygon fill="#63b8ff" stroke="#63b8ff" points="236.51,-243.16 235.46,-232.62 229.71,-241.52 236.51,-243.16"/>
</a>
</g>
</g>
<!-- Node3 -->
<g id="Node000003" class="node">
<title>Node3</title>
<g id="a_Node000003"><a xlink:href="classL4Re_1_1Smart__count__cap.html#a4f5fee6c54e153aba5b2cf33e4c5c5ec" target="_top" xlink:title="Copy operation for L4::Smart_cap (increment ref count).">
<polygon fill="white" stroke="#666666" points="135.5,-404 4.5,-404 4.5,-374 135.5,-374 135.5,-404"/>
<text text-anchor="start" x="12.5" y="-392" font-family="Helvetica,sans-Serif" font-size="10.00">L4Re::Smart_count_cap</text>
<text text-anchor="middle" x="70" y="-381" font-family="Helvetica,sans-Serif" font-size="10.00">::copy</text>
</a>
</g>
</g>
<!-- Node1&#45;&gt;Node3 -->
<g id="edge2_Node000001_Node000003" class="edge">
<title>Node1&#45;&gt;Node3</title>
<g id="a_edge2_Node000001_Node000003"><a xlink:title=" ">
<path fill="none" stroke="#63b8ff" d="M229.14,-242.32C215.07,-272.69 183.81,-331.57 140,-365 135.56,-368.39 130.61,-371.32 125.46,-373.85"/>
<polygon fill="#63b8ff" stroke="#63b8ff" points="232.49,-243.41 233.4,-232.86 226.11,-240.54 232.49,-243.41"/>
</a>
</g>
</g>
<!-- Node4 -->
<g id="Node000004" class="node">
<title>Node4</title>
<g id="a_Node000004"><a xlink:href="classL4Re_1_1Util_1_1Smart__cap__auto.html#a4dfba4f2c4731689f1a53992c83371a6" target="_top" xlink:title="Free the provided capability.">
<polygon fill="white" stroke="#666666" points="131,-356 9,-356 9,-326 131,-326 131,-356"/>
<text text-anchor="start" x="17" y="-344" font-family="Helvetica,sans-Serif" font-size="10.00">L4Re::Util::Smart_cap</text>
<text text-anchor="middle" x="70" y="-333" font-family="Helvetica,sans-Serif" font-size="10.00">_auto::free</text>
</a>
</g>
</g>
<!-- Node1&#45;&gt;Node4 -->
<g id="edge3_Node000001_Node000004" class="edge">
<title>Node1&#45;&gt;Node4</title>
<g id="a_edge3_Node000001_Node000004"><a xlink:title=" ">
<path fill="none" stroke="#63b8ff" d="M223.57,-240.43C206.07,-261.28 174.16,-296.01 140,-317 134.49,-320.39 128.43,-323.38 122.27,-325.99"/>
<polygon fill="#63b8ff" stroke="#63b8ff" points="226.3,-242.61 229.95,-232.67 220.9,-238.17 226.3,-242.61"/>
</a>
</g>
</g>
<!-- Node5 -->
<g id="Node000005" class="node">
<title>Node5</title>
<g id="a_Node000005"><a xlink:href="classL4Re_1_1Util_1_1Smart__cap__auto.html#a19c486ceece95f48ce148fc3235ddca5" target="_top" xlink:title="Invalidate the provided capability.">
<polygon fill="white" stroke="#666666" points="131,-308 9,-308 9,-278 131,-278 131,-308"/>
<text text-anchor="start" x="17" y="-296" font-family="Helvetica,sans-Serif" font-size="10.00">L4Re::Util::Smart_cap</text>
<text text-anchor="middle" x="70" y="-285" font-family="Helvetica,sans-Serif" font-size="10.00">_auto::invalidate</text>
</a>
</g>
</g>
<!-- Node1&#45;&gt;Node5 -->
<g id="edge4_Node000001_Node000005" class="edge">
<title>Node1&#45;&gt;Node5</title>
<g id="a_edge4_Node000001_Node000005"><a xlink:title=" ">
<path fill="none" stroke="#63b8ff" d="M209.58,-237.14C190.27,-246.68 163.86,-259.25 140,-269 132.49,-272.07 124.42,-275.1 116.54,-277.93"/>
<polygon fill="#63b8ff" stroke="#63b8ff" points="211.32,-240.19 218.71,-232.6 208.2,-233.92 211.32,-240.19"/>
</a>
</g>
</g>
<!-- Node6 -->
<g id="Node000006" class="node">
<title>Node6</title>
<g id="a_Node000006"><a xlink:href="classL4Re_1_1Rm_1_1Unique__region.html#a504ecf1b747047eac1774e12971d3449" target="_top" xlink:title="Check if the Unique_region is valid.">
<polygon fill="white" stroke="#666666" points="140,-260 0,-260 0,-230 140,-230 140,-260"/>
<text text-anchor="start" x="8" y="-248" font-family="Helvetica,sans-Serif" font-size="10.00">L4Re::Rm::Unique_region</text>
<text text-anchor="middle" x="70" y="-237" font-family="Helvetica,sans-Serif" font-size="10.00">::is_valid</text>
</a>
</g>
</g>
<!-- Node1&#45;&gt;Node6 -->
<g id="edge5_Node000001_Node000006" class="edge">
<title>Node1&#45;&gt;Node6</title>
<g id="a_edge5_Node000001_Node000006"><a xlink:title=" ">
<path fill="none" stroke="#63b8ff" d="M166,-232.45C157.42,-233.58 148.67,-234.74 140.13,-235.87"/>
<polygon fill="#63b8ff" stroke="#63b8ff" points="166.52,-235.91 175.97,-231.13 165.6,-228.97 166.52,-235.91"/>
</a>
</g>
</g>
<!-- Node7 -->
<g id="Node000007" class="node">
<title>Node7</title>
<g id="a_Node000007"><a xlink:href="classL4_1_1Cap__base.html#ab6cd8e73ebbdb5dfa45355b7c1fde1c2" target="_top" xlink:title="Replace this capability with the contents of src.">
<polygon fill="white" stroke="#666666" points="127.5,-211.5 12.5,-211.5 12.5,-192.5 127.5,-192.5 127.5,-211.5"/>
<text text-anchor="middle" x="70" y="-199.5" font-family="Helvetica,sans-Serif" font-size="10.00">L4::Cap_base::move</text>
</a>
</g>
</g>
<!-- Node1&#45;&gt;Node7 -->
<g id="edge6_Node000001_Node000007" class="edge">
<title>Node1&#45;&gt;Node7</title>
<g id="a_edge6_Node000001_Node000007"><a xlink:title=" ">
<path fill="none" stroke="#63b8ff" d="M165.82,-213.96C153.04,-212.35 139.88,-210.69 127.59,-209.14"/>
<polygon fill="#63b8ff" stroke="#63b8ff" points="165.62,-217.46 175.97,-215.24 166.49,-210.52 165.62,-217.46"/>
</a>
</g>
</g>
<!-- Node8 -->
<g id="Node000008" class="node">
<title>Node8</title>
<g id="a_Node000008"><a xlink:href="classL4Re_1_1Rm_1_1Unique__region.html#a2dd9ea7d4a242dff0651b173c428c281" target="_top" xlink:title="Move&#45;assign a Unique_region">
<polygon fill="white" stroke="#666666" points="140,-174 0,-174 0,-144 140,-144 140,-174"/>
<text text-anchor="start" x="8" y="-162" font-family="Helvetica,sans-Serif" font-size="10.00">L4Re::Rm::Unique_region</text>
<text text-anchor="middle" x="70" y="-151" font-family="Helvetica,sans-Serif" font-size="10.00">::operator=</text>
</a>
</g>
</g>
<!-- Node1&#45;&gt;Node8 -->
<g id="edge7_Node000001_Node000008" class="edge">
<title>Node1&#45;&gt;Node8</title>
<g id="a_edge7_Node000001_Node000008"><a xlink:title=" ">
<path fill="none" stroke="#63b8ff" d="M204.99,-209.68C186.08,-202.02 161.76,-192.29 140,-184 131.43,-180.73 122.22,-177.33 113.41,-174.12"/>
<polygon fill="#63b8ff" stroke="#63b8ff" points="203.76,-212.96 214.34,-213.49 206.39,-206.48 203.76,-212.96"/>
</a>
</g>
</g>
<!-- Node9 -->
<g id="Node000009" class="node">
<title>Node9</title>
<g id="a_Node000009"><a xlink:href="classL4Re_1_1Rm_1_1Unique__region.html#a5f72323368275b109d7b16c50a1c3ae0" target="_top" xlink:title="Set new address and region manager.">
<polygon fill="white" stroke="#666666" points="140,-126 0,-126 0,-96 140,-96 140,-126"/>
<text text-anchor="start" x="8" y="-114" font-family="Helvetica,sans-Serif" font-size="10.00">L4Re::Rm::Unique_region</text>
<text text-anchor="middle" x="70" y="-103" font-family="Helvetica,sans-Serif" font-size="10.00">::reset</text>
</a>
</g>
</g>
<!-- Node1&#45;&gt;Node9 -->
<g id="edge8_Node000001_Node000009" class="edge">
<title>Node1&#45;&gt;Node9</title>
<g id="a_edge8_Node000001_Node000009"><a xlink:title=" ">
<path fill="none" stroke="#63b8ff" d="M222.54,-205.87C204.65,-186.31 172.96,-154.51 140,-135 134.32,-131.64 128.11,-128.66 121.8,-126.03"/>
<polygon fill="#63b8ff" stroke="#63b8ff" points="220.05,-208.33 229.33,-213.43 225.25,-203.65 220.05,-208.33"/>
</a>
</g>
</g>
<!-- Node10 -->
<g id="Node000010" class="node">
<title>Node10</title>
<g id="a_Node000010"><a xlink:href="classL4Re_1_1Video_1_1View.html#aac22679f4bbdd1d3fd9ed856c173dc03" target="_top" xlink:title="Return whether this view is valid.">
<polygon fill="white" stroke="#666666" points="125,-78 15,-78 15,-48 125,-48 125,-78"/>
<text text-anchor="start" x="23" y="-66" font-family="Helvetica,sans-Serif" font-size="10.00">L4Re::Video::View::</text>
<text text-anchor="middle" x="70" y="-55" font-family="Helvetica,sans-Serif" font-size="10.00">valid</text>
</a>
</g>
</g>
<!-- Node1&#45;&gt;Node10 -->
<g id="edge9_Node000001_Node000010" class="edge">
<title>Node1&#45;&gt;Node10</title>
<g id="a_edge9_Node000001_Node000010"><a xlink:title=" ">
<path fill="none" stroke="#63b8ff" d="M228.72,-204.08C214.24,-174.88 182.68,-118.89 140,-87 135.43,-83.58 130.33,-80.63 125.04,-78.07"/>
<polygon fill="#63b8ff" stroke="#63b8ff" points="225.62,-205.71 233.11,-213.2 231.93,-202.67 225.62,-205.71"/>
</a>
</g>
</g>
<!-- Node11 -->
<g id="Node000011" class="node">
<title>Node11</title>
<g id="a_Node000011"><a xlink:href="classL4Re_1_1Rm_1_1Unique__region.html#ab6bf355cf996e46b1b6f2b4638b52777" target="_top" xlink:title="Destructor.">
<polygon fill="white" stroke="#666666" points="140,-30 0,-30 0,0 140,0 140,-30"/>
<text text-anchor="start" x="8" y="-18" font-family="Helvetica,sans-Serif" font-size="10.00">L4Re::Rm::Unique_region</text>
<text text-anchor="middle" x="70" y="-7" font-family="Helvetica,sans-Serif" font-size="10.00">::~Unique_region</text>
</a>
</g>
</g>
<!-- Node1&#45;&gt;Node11 -->
<g id="edge10_Node000001_Node000011" class="edge">
<title>Node1&#45;&gt;Node11</title>
<g id="a_edge10_Node000001_Node000011"><a xlink:title=" ">
<path fill="none" stroke="#63b8ff" d="M232.32,-203.33C221.49,-165.97 192.96,-84.44 140,-39 135.96,-35.53 131.38,-32.55 126.56,-30"/>
<polygon fill="#63b8ff" stroke="#63b8ff" points="229.07,-204.71 235.12,-213.41 235.82,-202.84 229.07,-204.71"/>
</a>
</g>
</g>
</g>
</svg>
