<?xml version="1.0" encoding="UTF-8" standalone="no"?>
<!DOCTYPE svg PUBLIC "-//W3C//DTD SVG 1.1//EN"
 "http://www.w3.org/Graphics/SVG/1.1/DTD/svg11.dtd">
<!-- Generated by graphviz version 2.43.0 (0)
 -->
<!-- Title: cxx::Base_slab::free Pages: 1 -->
<svg width="439pt" height="81pt"
 viewBox="0.00 0.00 439.00 81.00" xmlns="http://www.w3.org/2000/svg" xmlns:xlink="http://www.w3.org/1999/xlink">
<g id="graph0" class="graph" transform="scale(1 1) rotate(0) translate(4 77)">
<title>cxx::Base_slab::free</title>
<!-- Node1 -->
<g id="Node000001" class="node">
<title>Node1</title>
<g id="a_Node000001"><a xlink:title="Free the given object (_o).">
<polygon fill="#999999" stroke="#666666" points="431,-45.5 316,-45.5 316,-26.5 431,-26.5 431,-45.5"/>
<text text-anchor="middle" x="373.5" y="-33.5" font-family="Helvetica,sans-Serif" font-size="10.00">cxx::Base_slab::free</text>
</a>
</g>
</g>
<!-- Node2 -->
<g id="Node000002" class="node">
<title>Node2</title>
<g id="a_Node000002"><a xlink:href="classcxx_1_1Base__slab.html#a5b7c524846e7cde26b2e98cf844778b7" target="_top" xlink:title="Allocate a new object.">
<polygon fill="white" stroke="#666666" points="278.5,-67.5 159.5,-67.5 159.5,-48.5 278.5,-48.5 278.5,-67.5"/>
<text text-anchor="middle" x="219" y="-55.5" font-family="Helvetica,sans-Serif" font-size="10.00">cxx::Base_slab::alloc</text>
</a>
</g>
</g>
<!-- Node1&#45;&gt;Node2 -->
<g id="edge1_Node000001_Node000002" class="edge">
<title>Node1&#45;&gt;Node2</title>
<g id="a_edge1_Node000001_Node000002"><a xlink:title=" ">
<path fill="none" stroke="#63b8ff" d="M305.65,-45.64C296.65,-46.94 287.46,-48.27 278.62,-49.54"/>
<polygon fill="#63b8ff" stroke="#63b8ff" points="306.32,-49.08 315.71,-44.19 305.32,-42.16 306.32,-49.08"/>
</a>
</g>
</g>
<!-- Node4 -->
<g id="Node000004" class="node">
<title>Node4</title>
<g id="a_Node000004"><a xlink:href="classcxx_1_1Base__slab__static.html#aa700df9e1184f95f0a9077b12a60a055" target="_top" xlink:title="Free the given object (p).">
<polygon fill="white" stroke="#666666" points="280,-30 158,-30 158,0 280,0 280,-30"/>
<text text-anchor="start" x="166" y="-18" font-family="Helvetica,sans-Serif" font-size="10.00">cxx::Base_slab_static</text>
<text text-anchor="middle" x="219" y="-7" font-family="Helvetica,sans-Serif" font-size="10.00">::free</text>
</a>
</g>
</g>
<!-- Node1&#45;&gt;Node4 -->
<g id="edge3_Node000001_Node000004" class="edge">
<title>Node1&#45;&gt;Node4</title>
<g id="a_edge3_Node000001_Node000004"><a xlink:title=" ">
<path fill="none" stroke="#63b8ff" d="M305.8,-26.81C297.27,-25.64 288.57,-24.44 280.15,-23.28"/>
<polygon fill="#63b8ff" stroke="#63b8ff" points="305.33,-30.28 315.71,-28.18 306.29,-23.35 305.33,-30.28"/>
</a>
</g>
</g>
<!-- Node3 -->
<g id="Node000003" class="node">
<title>Node3</title>
<g id="a_Node000003"><a xlink:href="classcxx_1_1Base__slab__static.html#a98cad873190ba381e371e17a2d9b4e81" target="_top" xlink:title="Allocate an object.">
<polygon fill="white" stroke="#666666" points="122,-73 0,-73 0,-43 122,-43 122,-73"/>
<text text-anchor="start" x="8" y="-61" font-family="Helvetica,sans-Serif" font-size="10.00">cxx::Base_slab_static</text>
<text text-anchor="middle" x="61" y="-50" font-family="Helvetica,sans-Serif" font-size="10.00">::alloc</text>
</a>
</g>
</g>
<!-- Node2&#45;&gt;Node3 -->
<g id="edge2_Node000002_Node000003" class="edge">
<title>Node2&#45;&gt;Node3</title>
<g id="a_edge2_Node000002_Node000003"><a xlink:title=" ">
<path fill="none" stroke="#63b8ff" d="M149.34,-58C140.29,-58 131.06,-58 122.16,-58"/>
<polygon fill="#63b8ff" stroke="#63b8ff" points="149.47,-61.5 159.47,-58 149.47,-54.5 149.47,-61.5"/>
</a>
</g>
</g>
</g>
</svg>
