<?xml version="1.0" encoding="UTF-8" standalone="no"?>
<!DOCTYPE svg PUBLIC "-//W3C//DTD SVG 1.1//EN"
 "http://www.w3.org/Graphics/SVG/1.1/DTD/svg11.dtd">
<!-- Generated by graphviz version 2.42.4 (0)
 -->
<!-- Title: L4Re::Rm::Unique_region&lt; T &gt; Pages: 1 -->
<svg width="910pt" height="546pt"
 viewBox="0.00 0.00 910.00 546.00" xmlns="http://www.w3.org/2000/svg" xmlns:xlink="http://www.w3.org/1999/xlink">
<g id="graph0" class="graph" transform="scale(1 1) rotate(0) translate(4 542)">
<title>L4Re::Rm::Unique_region&lt; T &gt;</title>
<!-- Node1 -->
<g id="Node000001" class="node">
<title>Node1</title>
<g id="a_Node000001"><a xlink:title="Unique region.">
<polygon fill="#999999" stroke="transparent" points="529,-538 367,-538 367,-309 529,-309 529,-538"/>
<text text-anchor="start" x="372" y="-525.5" font-family="Helvetica,sans-Serif" font-size="10.00">L4Re::Rm::Unique_region&lt; T &gt;</text>
<text text-anchor="start" x="446" y="-510.5" font-family="Helvetica,sans-Serif" font-size="10.00"> </text>
<text text-anchor="start" x="384.5" y="-495.5" font-family="Helvetica,sans-Serif" font-size="10.00">+</text>
<text text-anchor="start" x="411" y="-495.5" font-family="Helvetica,sans-Serif" font-size="10.00">Unique_region()</text>
<text text-anchor="start" x="384.5" y="-480.5" font-family="Helvetica,sans-Serif" font-size="10.00">+</text>
<text text-anchor="start" x="411" y="-480.5" font-family="Helvetica,sans-Serif" font-size="10.00">Unique_region()</text>
<text text-anchor="start" x="384.5" y="-465.5" font-family="Helvetica,sans-Serif" font-size="10.00">+</text>
<text text-anchor="start" x="411" y="-465.5" font-family="Helvetica,sans-Serif" font-size="10.00">Unique_region()</text>
<text text-anchor="start" x="384.5" y="-450.5" font-family="Helvetica,sans-Serif" font-size="10.00">+</text>
<text text-anchor="start" x="411" y="-450.5" font-family="Helvetica,sans-Serif" font-size="10.00">Unique_region()</text>
<text text-anchor="start" x="384.5" y="-435.5" font-family="Helvetica,sans-Serif" font-size="10.00">+</text>
<text text-anchor="start" x="411" y="-435.5" font-family="Helvetica,sans-Serif" font-size="10.00">operator=()</text>
<text text-anchor="start" x="384.5" y="-420.5" font-family="Helvetica,sans-Serif" font-size="10.00">+</text>
<text text-anchor="start" x="411" y="-420.5" font-family="Helvetica,sans-Serif" font-size="10.00">~Unique_region()</text>
<text text-anchor="start" x="384.5" y="-405.5" font-family="Helvetica,sans-Serif" font-size="10.00">+</text>
<text text-anchor="start" x="411" y="-405.5" font-family="Helvetica,sans-Serif" font-size="10.00">get()</text>
<text text-anchor="start" x="384.5" y="-390.5" font-family="Helvetica,sans-Serif" font-size="10.00">+</text>
<text text-anchor="start" x="411" y="-390.5" font-family="Helvetica,sans-Serif" font-size="10.00">release()</text>
<text text-anchor="start" x="384.5" y="-375.5" font-family="Helvetica,sans-Serif" font-size="10.00">+</text>
<text text-anchor="start" x="411" y="-375.5" font-family="Helvetica,sans-Serif" font-size="10.00">reset()</text>
<text text-anchor="start" x="384.5" y="-360.5" font-family="Helvetica,sans-Serif" font-size="10.00">+</text>
<text text-anchor="start" x="411" y="-360.5" font-family="Helvetica,sans-Serif" font-size="10.00">reset()</text>
<text text-anchor="start" x="384.5" y="-345.5" font-family="Helvetica,sans-Serif" font-size="10.00">+</text>
<text text-anchor="start" x="411" y="-345.5" font-family="Helvetica,sans-Serif" font-size="10.00">is_valid()</text>
<text text-anchor="start" x="384.5" y="-330.5" font-family="Helvetica,sans-Serif" font-size="10.00">+</text>
<text text-anchor="start" x="411" y="-330.5" font-family="Helvetica,sans-Serif" font-size="10.00">operator*()</text>
<text text-anchor="start" x="384.5" y="-315.5" font-family="Helvetica,sans-Serif" font-size="10.00">+</text>
<text text-anchor="start" x="411" y="-315.5" font-family="Helvetica,sans-Serif" font-size="10.00">operator&#45;&gt;()</text>
<polygon fill="#666666" stroke="#666666" points="367,-520.5 367,-520.5 529,-520.5 529,-520.5 367,-520.5"/>
<polygon fill="#666666" stroke="#666666" points="367,-505.5 367,-505.5 529,-505.5 529,-505.5 367,-505.5"/>
<polygon fill="none" stroke="#666666" points="367,-309 367,-538 529,-538 529,-309 367,-309"/>
</a>
</g>
</g>
<!-- Node2 -->
<g id="Node000002" class="node">
<title>Node2</title>
<g id="a_Node000002"><a xlink:href="classL4Re_1_1Rm_1_1Unique__region.html" target="_top" xlink:title=" ">
<polygon fill="white" stroke="transparent" points="134,-245.5 0,-245.5 0,-5.5 134,-5.5 134,-245.5"/>
<text text-anchor="start" x="5" y="-233.5" font-family="Helvetica,sans-Serif" font-size="10.00">L4Re::Rm::Unique_region</text>
<text text-anchor="start" x="41" y="-222.5" font-family="Helvetica,sans-Serif" font-size="10.00">&lt; void * &gt;</text>
<text text-anchor="start" x="65" y="-207.5" font-family="Helvetica,sans-Serif" font-size="10.00"> </text>
<text text-anchor="start" x="10.5" y="-192.5" font-family="Helvetica,sans-Serif" font-size="10.00">+</text>
<text text-anchor="start" x="30" y="-192.5" font-family="Helvetica,sans-Serif" font-size="10.00">Unique_region()</text>
<text text-anchor="start" x="10.5" y="-177.5" font-family="Helvetica,sans-Serif" font-size="10.00">+</text>
<text text-anchor="start" x="30" y="-177.5" font-family="Helvetica,sans-Serif" font-size="10.00">Unique_region()</text>
<text text-anchor="start" x="10.5" y="-162.5" font-family="Helvetica,sans-Serif" font-size="10.00">+</text>
<text text-anchor="start" x="30" y="-162.5" font-family="Helvetica,sans-Serif" font-size="10.00">Unique_region()</text>
<text text-anchor="start" x="10.5" y="-147.5" font-family="Helvetica,sans-Serif" font-size="10.00">+</text>
<text text-anchor="start" x="30" y="-147.5" font-family="Helvetica,sans-Serif" font-size="10.00">Unique_region()</text>
<text text-anchor="start" x="10.5" y="-132.5" font-family="Helvetica,sans-Serif" font-size="10.00">+</text>
<text text-anchor="start" x="30" y="-132.5" font-family="Helvetica,sans-Serif" font-size="10.00">operator=()</text>
<text text-anchor="start" x="10.5" y="-117.5" font-family="Helvetica,sans-Serif" font-size="10.00">+</text>
<text text-anchor="start" x="30" y="-117.5" font-family="Helvetica,sans-Serif" font-size="10.00">~Unique_region()</text>
<text text-anchor="start" x="10.5" y="-102.5" font-family="Helvetica,sans-Serif" font-size="10.00">+</text>
<text text-anchor="start" x="30" y="-102.5" font-family="Helvetica,sans-Serif" font-size="10.00">get()</text>
<text text-anchor="start" x="10.5" y="-87.5" font-family="Helvetica,sans-Serif" font-size="10.00">+</text>
<text text-anchor="start" x="30" y="-87.5" font-family="Helvetica,sans-Serif" font-size="10.00">release()</text>
<text text-anchor="start" x="10.5" y="-72.5" font-family="Helvetica,sans-Serif" font-size="10.00">+</text>
<text text-anchor="start" x="30" y="-72.5" font-family="Helvetica,sans-Serif" font-size="10.00">reset()</text>
<text text-anchor="start" x="10.5" y="-57.5" font-family="Helvetica,sans-Serif" font-size="10.00">+</text>
<text text-anchor="start" x="30" y="-57.5" font-family="Helvetica,sans-Serif" font-size="10.00">reset()</text>
<text text-anchor="start" x="10.5" y="-42.5" font-family="Helvetica,sans-Serif" font-size="10.00">+</text>
<text text-anchor="start" x="30" y="-42.5" font-family="Helvetica,sans-Serif" font-size="10.00">is_valid()</text>
<text text-anchor="start" x="10.5" y="-27.5" font-family="Helvetica,sans-Serif" font-size="10.00">+</text>
<text text-anchor="start" x="30" y="-27.5" font-family="Helvetica,sans-Serif" font-size="10.00">operator*()</text>
<text text-anchor="start" x="10.5" y="-12.5" font-family="Helvetica,sans-Serif" font-size="10.00">+</text>
<text text-anchor="start" x="30" y="-12.5" font-family="Helvetica,sans-Serif" font-size="10.00">operator&#45;&gt;()</text>
<polygon fill="#666666" stroke="#666666" points="0,-217.5 0,-217.5 134,-217.5 134,-217.5 0,-217.5"/>
<polygon fill="#666666" stroke="#666666" points="0,-202.5 0,-202.5 134,-202.5 134,-202.5 0,-202.5"/>
<polygon fill="none" stroke="#666666" points="0,-5.5 0,-245.5 134,-245.5 134,-5.5 0,-5.5"/>
</a>
</g>
</g>
<!-- Node1&#45;&gt;Node2 -->
<g id="edge1_Node000001_Node000002" class="edge">
<title>Node1&#45;&gt;Node2</title>
<g id="a_edge1_Node000001_Node000002"><a xlink:title=" ">
<path fill="none" stroke="orange" d="M357.37,-386.4C292.15,-357.12 205.09,-310.9 143,-251 139.99,-248.1 137.06,-245.05 134.2,-241.9"/>
<polygon fill="orange" stroke="orange" points="356.27,-389.74 366.83,-390.6 359.11,-383.35 356.27,-389.74"/>
</a>
</g>
<text text-anchor="middle" x="214.5" y="-277.5" font-family="Helvetica,sans-Serif" font-size="10.00" fill="grey"> &lt; void * &gt;</text>
</g>
<!-- Node3 -->
<g id="Node000003" class="node">
<title>Node3</title>
<g id="a_Node000003"><a xlink:href="classL4Re_1_1Rm_1_1Unique__region.html" target="_top" xlink:title=" ">
<polygon fill="white" stroke="transparent" points="286,-245.5 152,-245.5 152,-5.5 286,-5.5 286,-245.5"/>
<text text-anchor="start" x="157" y="-233.5" font-family="Helvetica,sans-Serif" font-size="10.00">L4Re::Rm::Unique_region</text>
<text text-anchor="start" x="169" y="-222.5" font-family="Helvetica,sans-Serif" font-size="10.00">&lt; unsigned char * &gt;</text>
<text text-anchor="start" x="217" y="-207.5" font-family="Helvetica,sans-Serif" font-size="10.00"> </text>
<text text-anchor="start" x="162.5" y="-192.5" font-family="Helvetica,sans-Serif" font-size="10.00">+</text>
<text text-anchor="start" x="182" y="-192.5" font-family="Helvetica,sans-Serif" font-size="10.00">Unique_region()</text>
<text text-anchor="start" x="162.5" y="-177.5" font-family="Helvetica,sans-Serif" font-size="10.00">+</text>
<text text-anchor="start" x="182" y="-177.5" font-family="Helvetica,sans-Serif" font-size="10.00">Unique_region()</text>
<text text-anchor="start" x="162.5" y="-162.5" font-family="Helvetica,sans-Serif" font-size="10.00">+</text>
<text text-anchor="start" x="182" y="-162.5" font-family="Helvetica,sans-Serif" font-size="10.00">Unique_region()</text>
<text text-anchor="start" x="162.5" y="-147.5" font-family="Helvetica,sans-Serif" font-size="10.00">+</text>
<text text-anchor="start" x="182" y="-147.5" font-family="Helvetica,sans-Serif" font-size="10.00">Unique_region()</text>
<text text-anchor="start" x="162.5" y="-132.5" font-family="Helvetica,sans-Serif" font-size="10.00">+</text>
<text text-anchor="start" x="182" y="-132.5" font-family="Helvetica,sans-Serif" font-size="10.00">operator=()</text>
<text text-anchor="start" x="162.5" y="-117.5" font-family="Helvetica,sans-Serif" font-size="10.00">+</text>
<text text-anchor="start" x="182" y="-117.5" font-family="Helvetica,sans-Serif" font-size="10.00">~Unique_region()</text>
<text text-anchor="start" x="162.5" y="-102.5" font-family="Helvetica,sans-Serif" font-size="10.00">+</text>
<text text-anchor="start" x="182" y="-102.5" font-family="Helvetica,sans-Serif" font-size="10.00">get()</text>
<text text-anchor="start" x="162.5" y="-87.5" font-family="Helvetica,sans-Serif" font-size="10.00">+</text>
<text text-anchor="start" x="182" y="-87.5" font-family="Helvetica,sans-Serif" font-size="10.00">release()</text>
<text text-anchor="start" x="162.5" y="-72.5" font-family="Helvetica,sans-Serif" font-size="10.00">+</text>
<text text-anchor="start" x="182" y="-72.5" font-family="Helvetica,sans-Serif" font-size="10.00">reset()</text>
<text text-anchor="start" x="162.5" y="-57.5" font-family="Helvetica,sans-Serif" font-size="10.00">+</text>
<text text-anchor="start" x="182" y="-57.5" font-family="Helvetica,sans-Serif" font-size="10.00">reset()</text>
<text text-anchor="start" x="162.5" y="-42.5" font-family="Helvetica,sans-Serif" font-size="10.00">+</text>
<text text-anchor="start" x="182" y="-42.5" font-family="Helvetica,sans-Serif" font-size="10.00">is_valid()</text>
<text text-anchor="start" x="162.5" y="-27.5" font-family="Helvetica,sans-Serif" font-size="10.00">+</text>
<text text-anchor="start" x="182" y="-27.5" font-family="Helvetica,sans-Serif" font-size="10.00">operator*()</text>
<text text-anchor="start" x="162.5" y="-12.5" font-family="Helvetica,sans-Serif" font-size="10.00">+</text>
<text text-anchor="start" x="182" y="-12.5" font-family="Helvetica,sans-Serif" font-size="10.00">operator&#45;&gt;()</text>
<polygon fill="#666666" stroke="#666666" points="152,-217.5 152,-217.5 286,-217.5 286,-217.5 152,-217.5"/>
<polygon fill="#666666" stroke="#666666" points="152,-202.5 152,-202.5 286,-202.5 286,-202.5 152,-202.5"/>
<polygon fill="none" stroke="#666666" points="152,-5.5 152,-245.5 286,-245.5 286,-5.5 152,-5.5"/>
</a>
</g>
</g>
<!-- Node1&#45;&gt;Node3 -->
<g id="edge2_Node000001_Node000003" class="edge">
<title>Node1&#45;&gt;Node3</title>
<g id="a_edge2_Node000001_Node000003"><a xlink:title=" ">
<path fill="none" stroke="orange" d="M359.12,-352.8C338.51,-334.1 317.74,-312.94 301,-291 290.35,-277.05 280.5,-261.5 271.58,-245.68"/>
<polygon fill="orange" stroke="orange" points="356.9,-355.52 366.69,-359.57 361.57,-350.3 356.9,-355.52"/>
</a>
</g>
<text text-anchor="middle" x="352.5" y="-277.5" font-family="Helvetica,sans-Serif" font-size="10.00" fill="grey"> &lt; unsigned char * &gt;</text>
</g>
<!-- Node4 -->
<g id="Node000004" class="node">
<title>Node4</title>
<g id="a_Node000004"><a xlink:href="classL4Re_1_1Rm_1_1Unique__region.html" target="_top" xlink:title=" ">
<polygon fill="white" stroke="transparent" points="439.5,-251 304.5,-251 304.5,0 439.5,0 439.5,-251"/>
<text text-anchor="start" x="310" y="-238.5" font-family="Helvetica,sans-Serif" font-size="10.00">L4Re::Rm::Unique_region</text>
<text text-anchor="start" x="310" y="-227.5" font-family="Helvetica,sans-Serif" font-size="10.00">&lt; L4virtio::Device::Config</text>
<text text-anchor="start" x="352" y="-216.5" font-family="Helvetica,sans-Serif" font-size="10.00">_hdr * &gt;</text>
<text text-anchor="start" x="370.5" y="-201.5" font-family="Helvetica,sans-Serif" font-size="10.00"> </text>
<text text-anchor="start" x="315.5" y="-186.5" font-family="Helvetica,sans-Serif" font-size="10.00">+</text>
<text text-anchor="start" x="335" y="-186.5" font-family="Helvetica,sans-Serif" font-size="10.00">Unique_region()</text>
<text text-anchor="start" x="315.5" y="-171.5" font-family="Helvetica,sans-Serif" font-size="10.00">+</text>
<text text-anchor="start" x="335" y="-171.5" font-family="Helvetica,sans-Serif" font-size="10.00">Unique_region()</text>
<text text-anchor="start" x="315.5" y="-156.5" font-family="Helvetica,sans-Serif" font-size="10.00">+</text>
<text text-anchor="start" x="335" y="-156.5" font-family="Helvetica,sans-Serif" font-size="10.00">Unique_region()</text>
<text text-anchor="start" x="315.5" y="-141.5" font-family="Helvetica,sans-Serif" font-size="10.00">+</text>
<text text-anchor="start" x="335" y="-141.5" font-family="Helvetica,sans-Serif" font-size="10.00">Unique_region()</text>
<text text-anchor="start" x="315.5" y="-126.5" font-family="Helvetica,sans-Serif" font-size="10.00">+</text>
<text text-anchor="start" x="335" y="-126.5" font-family="Helvetica,sans-Serif" font-size="10.00">operator=()</text>
<text text-anchor="start" x="315.5" y="-111.5" font-family="Helvetica,sans-Serif" font-size="10.00">+</text>
<text text-anchor="start" x="335" y="-111.5" font-family="Helvetica,sans-Serif" font-size="10.00">~Unique_region()</text>
<text text-anchor="start" x="315.5" y="-96.5" font-family="Helvetica,sans-Serif" font-size="10.00">+</text>
<text text-anchor="start" x="335" y="-96.5" font-family="Helvetica,sans-Serif" font-size="10.00">get()</text>
<text text-anchor="start" x="315.5" y="-81.5" font-family="Helvetica,sans-Serif" font-size="10.00">+</text>
<text text-anchor="start" x="335" y="-81.5" font-family="Helvetica,sans-Serif" font-size="10.00">release()</text>
<text text-anchor="start" x="315.5" y="-66.5" font-family="Helvetica,sans-Serif" font-size="10.00">+</text>
<text text-anchor="start" x="335" y="-66.5" font-family="Helvetica,sans-Serif" font-size="10.00">reset()</text>
<text text-anchor="start" x="315.5" y="-51.5" font-family="Helvetica,sans-Serif" font-size="10.00">+</text>
<text text-anchor="start" x="335" y="-51.5" font-family="Helvetica,sans-Serif" font-size="10.00">reset()</text>
<text text-anchor="start" x="315.5" y="-36.5" font-family="Helvetica,sans-Serif" font-size="10.00">+</text>
<text text-anchor="start" x="335" y="-36.5" font-family="Helvetica,sans-Serif" font-size="10.00">is_valid()</text>
<text text-anchor="start" x="315.5" y="-21.5" font-family="Helvetica,sans-Serif" font-size="10.00">+</text>
<text text-anchor="start" x="335" y="-21.5" font-family="Helvetica,sans-Serif" font-size="10.00">operator*()</text>
<text text-anchor="start" x="315.5" y="-6.5" font-family="Helvetica,sans-Serif" font-size="10.00">+</text>
<text text-anchor="start" x="335" y="-6.5" font-family="Helvetica,sans-Serif" font-size="10.00">operator&#45;&gt;()</text>
<polygon fill="#666666" stroke="#666666" points="305,-211.5 305,-211.5 440,-211.5 440,-211.5 305,-211.5"/>
<polygon fill="#666666" stroke="#666666" points="305,-196.5 305,-196.5 440,-196.5 440,-196.5 305,-196.5"/>
<polygon fill="none" stroke="#666666" points="304.5,0 304.5,-251 439.5,-251 439.5,0 304.5,0"/>
</a>
</g>
</g>
<!-- Node1&#45;&gt;Node4 -->
<g id="edge3_Node000001_Node000004" class="edge">
<title>Node1&#45;&gt;Node4</title>
<g id="a_edge3_Node000001_Node000004"><a xlink:title=" ">
<path fill="none" stroke="orange" d="M414.09,-299.02C413.38,-296.32 412.68,-293.65 412,-291 408.69,-278.19 405.31,-264.81 401.98,-251.44"/>
<polygon fill="orange" stroke="orange" points="410.75,-300.09 416.67,-308.87 417.52,-298.31 410.75,-300.09"/>
</a>
</g>
<text text-anchor="start" x="412" y="-283" font-family="Helvetica,sans-Serif" font-size="10.00" fill="grey"> &lt; L4virtio::Device</text>
<text text-anchor="middle" x="457.5" y="-272" font-family="Helvetica,sans-Serif" font-size="10.00" fill="grey">::Config_hdr * &gt;</text>
</g>
<!-- Node5 -->
<g id="Node000005" class="node">
<title>Node5</title>
<g id="a_Node000005"><a xlink:href="classL4Re_1_1Rm_1_1Unique__region.html" target="_top" xlink:title=" ">
<polygon fill="white" stroke="transparent" points="592,-245.5 458,-245.5 458,-5.5 592,-5.5 592,-245.5"/>
<text text-anchor="start" x="463" y="-233.5" font-family="Helvetica,sans-Serif" font-size="10.00">L4Re::Rm::Unique_region</text>
<text text-anchor="start" x="485.5" y="-222.5" font-family="Helvetica,sans-Serif" font-size="10.00">&lt; l4_uint8_t * &gt;</text>
<text text-anchor="start" x="523" y="-207.5" font-family="Helvetica,sans-Serif" font-size="10.00"> </text>
<text text-anchor="start" x="468.5" y="-192.5" font-family="Helvetica,sans-Serif" font-size="10.00">+</text>
<text text-anchor="start" x="488" y="-192.5" font-family="Helvetica,sans-Serif" font-size="10.00">Unique_region()</text>
<text text-anchor="start" x="468.5" y="-177.5" font-family="Helvetica,sans-Serif" font-size="10.00">+</text>
<text text-anchor="start" x="488" y="-177.5" font-family="Helvetica,sans-Serif" font-size="10.00">Unique_region()</text>
<text text-anchor="start" x="468.5" y="-162.5" font-family="Helvetica,sans-Serif" font-size="10.00">+</text>
<text text-anchor="start" x="488" y="-162.5" font-family="Helvetica,sans-Serif" font-size="10.00">Unique_region()</text>
<text text-anchor="start" x="468.5" y="-147.5" font-family="Helvetica,sans-Serif" font-size="10.00">+</text>
<text text-anchor="start" x="488" y="-147.5" font-family="Helvetica,sans-Serif" font-size="10.00">Unique_region()</text>
<text text-anchor="start" x="468.5" y="-132.5" font-family="Helvetica,sans-Serif" font-size="10.00">+</text>
<text text-anchor="start" x="488" y="-132.5" font-family="Helvetica,sans-Serif" font-size="10.00">operator=()</text>
<text text-anchor="start" x="468.5" y="-117.5" font-family="Helvetica,sans-Serif" font-size="10.00">+</text>
<text text-anchor="start" x="488" y="-117.5" font-family="Helvetica,sans-Serif" font-size="10.00">~Unique_region()</text>
<text text-anchor="start" x="468.5" y="-102.5" font-family="Helvetica,sans-Serif" font-size="10.00">+</text>
<text text-anchor="start" x="488" y="-102.5" font-family="Helvetica,sans-Serif" font-size="10.00">get()</text>
<text text-anchor="start" x="468.5" y="-87.5" font-family="Helvetica,sans-Serif" font-size="10.00">+</text>
<text text-anchor="start" x="488" y="-87.5" font-family="Helvetica,sans-Serif" font-size="10.00">release()</text>
<text text-anchor="start" x="468.5" y="-72.5" font-family="Helvetica,sans-Serif" font-size="10.00">+</text>
<text text-anchor="start" x="488" y="-72.5" font-family="Helvetica,sans-Serif" font-size="10.00">reset()</text>
<text text-anchor="start" x="468.5" y="-57.5" font-family="Helvetica,sans-Serif" font-size="10.00">+</text>
<text text-anchor="start" x="488" y="-57.5" font-family="Helvetica,sans-Serif" font-size="10.00">reset()</text>
<text text-anchor="start" x="468.5" y="-42.5" font-family="Helvetica,sans-Serif" font-size="10.00">+</text>
<text text-anchor="start" x="488" y="-42.5" font-family="Helvetica,sans-Serif" font-size="10.00">is_valid()</text>
<text text-anchor="start" x="468.5" y="-27.5" font-family="Helvetica,sans-Serif" font-size="10.00">+</text>
<text text-anchor="start" x="488" y="-27.5" font-family="Helvetica,sans-Serif" font-size="10.00">operator*()</text>
<text text-anchor="start" x="468.5" y="-12.5" font-family="Helvetica,sans-Serif" font-size="10.00">+</text>
<text text-anchor="start" x="488" y="-12.5" font-family="Helvetica,sans-Serif" font-size="10.00">operator&#45;&gt;()</text>
<polygon fill="#666666" stroke="#666666" points="458,-217.5 458,-217.5 592,-217.5 592,-217.5 458,-217.5"/>
<polygon fill="#666666" stroke="#666666" points="458,-202.5 458,-202.5 592,-202.5 592,-202.5 458,-202.5"/>
<polygon fill="none" stroke="#666666" points="458,-5.5 458,-245.5 592,-245.5 592,-5.5 458,-5.5"/>
</a>
</g>
</g>
<!-- Node1&#45;&gt;Node5 -->
<g id="edge4_Node000001_Node000005" class="edge">
<title>Node1&#45;&gt;Node5</title>
<g id="a_edge4_Node000001_Node000005"><a xlink:title=" ">
<path fill="none" stroke="orange" d="M500.73,-299C501.52,-296.32 502.28,-293.65 503,-291 506.92,-276.54 510.15,-261.16 512.82,-245.85"/>
<polygon fill="orange" stroke="orange" points="497.33,-298.15 497.7,-308.74 504.01,-300.23 497.33,-298.15"/>
</a>
</g>
<text text-anchor="middle" x="550" y="-277.5" font-family="Helvetica,sans-Serif" font-size="10.00" fill="grey"> &lt; l4_uint8_t * &gt;</text>
</g>
<!-- Node6 -->
<g id="Node000006" class="node">
<title>Node6</title>
<g id="a_Node000006"><a xlink:href="classL4Re_1_1Rm_1_1Unique__region.html" target="_top" xlink:title=" ">
<polygon fill="white" stroke="transparent" points="744,-245.5 610,-245.5 610,-5.5 744,-5.5 744,-245.5"/>
<text text-anchor="start" x="615" y="-233.5" font-family="Helvetica,sans-Serif" font-size="10.00">L4Re::Rm::Unique_region</text>
<text text-anchor="start" x="643" y="-222.5" font-family="Helvetica,sans-Serif" font-size="10.00">&lt; l4_addr_t &gt;</text>
<text text-anchor="start" x="675" y="-207.5" font-family="Helvetica,sans-Serif" font-size="10.00"> </text>
<text text-anchor="start" x="620.5" y="-192.5" font-family="Helvetica,sans-Serif" font-size="10.00">+</text>
<text text-anchor="start" x="640" y="-192.5" font-family="Helvetica,sans-Serif" font-size="10.00">Unique_region()</text>
<text text-anchor="start" x="620.5" y="-177.5" font-family="Helvetica,sans-Serif" font-size="10.00">+</text>
<text text-anchor="start" x="640" y="-177.5" font-family="Helvetica,sans-Serif" font-size="10.00">Unique_region()</text>
<text text-anchor="start" x="620.5" y="-162.5" font-family="Helvetica,sans-Serif" font-size="10.00">+</text>
<text text-anchor="start" x="640" y="-162.5" font-family="Helvetica,sans-Serif" font-size="10.00">Unique_region()</text>
<text text-anchor="start" x="620.5" y="-147.5" font-family="Helvetica,sans-Serif" font-size="10.00">+</text>
<text text-anchor="start" x="640" y="-147.5" font-family="Helvetica,sans-Serif" font-size="10.00">Unique_region()</text>
<text text-anchor="start" x="620.5" y="-132.5" font-family="Helvetica,sans-Serif" font-size="10.00">+</text>
<text text-anchor="start" x="640" y="-132.5" font-family="Helvetica,sans-Serif" font-size="10.00">operator=()</text>
<text text-anchor="start" x="620.5" y="-117.5" font-family="Helvetica,sans-Serif" font-size="10.00">+</text>
<text text-anchor="start" x="640" y="-117.5" font-family="Helvetica,sans-Serif" font-size="10.00">~Unique_region()</text>
<text text-anchor="start" x="620.5" y="-102.5" font-family="Helvetica,sans-Serif" font-size="10.00">+</text>
<text text-anchor="start" x="640" y="-102.5" font-family="Helvetica,sans-Serif" font-size="10.00">get()</text>
<text text-anchor="start" x="620.5" y="-87.5" font-family="Helvetica,sans-Serif" font-size="10.00">+</text>
<text text-anchor="start" x="640" y="-87.5" font-family="Helvetica,sans-Serif" font-size="10.00">release()</text>
<text text-anchor="start" x="620.5" y="-72.5" font-family="Helvetica,sans-Serif" font-size="10.00">+</text>
<text text-anchor="start" x="640" y="-72.5" font-family="Helvetica,sans-Serif" font-size="10.00">reset()</text>
<text text-anchor="start" x="620.5" y="-57.5" font-family="Helvetica,sans-Serif" font-size="10.00">+</text>
<text text-anchor="start" x="640" y="-57.5" font-family="Helvetica,sans-Serif" font-size="10.00">reset()</text>
<text text-anchor="start" x="620.5" y="-42.5" font-family="Helvetica,sans-Serif" font-size="10.00">+</text>
<text text-anchor="start" x="640" y="-42.5" font-family="Helvetica,sans-Serif" font-size="10.00">is_valid()</text>
<text text-anchor="start" x="620.5" y="-27.5" font-family="Helvetica,sans-Serif" font-size="10.00">+</text>
<text text-anchor="start" x="640" y="-27.5" font-family="Helvetica,sans-Serif" font-size="10.00">operator*()</text>
<text text-anchor="start" x="620.5" y="-12.5" font-family="Helvetica,sans-Serif" font-size="10.00">+</text>
<text text-anchor="start" x="640" y="-12.5" font-family="Helvetica,sans-Serif" font-size="10.00">operator&#45;&gt;()</text>
<polygon fill="#666666" stroke="#666666" points="610,-217.5 610,-217.5 744,-217.5 744,-217.5 610,-217.5"/>
<polygon fill="#666666" stroke="#666666" points="610,-202.5 610,-202.5 744,-202.5 744,-202.5 610,-202.5"/>
<polygon fill="none" stroke="#666666" points="610,-5.5 610,-245.5 744,-245.5 744,-5.5 610,-5.5"/>
</a>
</g>
</g>
<!-- Node1&#45;&gt;Node6 -->
<g id="edge5_Node000001_Node000006" class="edge">
<title>Node1&#45;&gt;Node6</title>
<g id="a_edge5_Node000001_Node000006"><a xlink:title=" ">
<path fill="none" stroke="orange" d="M536.88,-352.8C557.49,-334.1 578.26,-312.94 595,-291 605.65,-277.05 615.5,-261.5 624.42,-245.68"/>
<polygon fill="orange" stroke="orange" points="534.43,-350.3 529.31,-359.57 539.1,-355.52 534.43,-350.3"/>
</a>
</g>
<text text-anchor="middle" x="645.5" y="-277.5" font-family="Helvetica,sans-Serif" font-size="10.00" fill="grey"> &lt; l4_addr_t &gt;</text>
</g>
<!-- Node7 -->
<g id="Node000007" class="node">
<title>Node7</title>
<g id="a_Node000007"><a xlink:href="classL4Re_1_1Rm_1_1Unique__region.html" target="_top" xlink:title=" ">
<polygon fill="white" stroke="transparent" points="902,-245.5 762,-245.5 762,-5.5 902,-5.5 902,-245.5"/>
<text text-anchor="start" x="767" y="-233.5" font-family="Helvetica,sans-Serif" font-size="10.00">L4Re::Rm::Unique_region</text>
<text text-anchor="start" x="767" y="-222.5" font-family="Helvetica,sans-Serif" font-size="10.00">&lt; l4virtio_config_hdr_t * &gt;</text>
<text text-anchor="start" x="830" y="-207.5" font-family="Helvetica,sans-Serif" font-size="10.00"> </text>
<text text-anchor="start" x="774" y="-192.5" font-family="Helvetica,sans-Serif" font-size="10.00">+</text>
<text text-anchor="start" x="795" y="-192.5" font-family="Helvetica,sans-Serif" font-size="10.00">Unique_region()</text>
<text text-anchor="start" x="774" y="-177.5" font-family="Helvetica,sans-Serif" font-size="10.00">+</text>
<text text-anchor="start" x="795" y="-177.5" font-family="Helvetica,sans-Serif" font-size="10.00">Unique_region()</text>
<text text-anchor="start" x="774" y="-162.5" font-family="Helvetica,sans-Serif" font-size="10.00">+</text>
<text text-anchor="start" x="795" y="-162.5" font-family="Helvetica,sans-Serif" font-size="10.00">Unique_region()</text>
<text text-anchor="start" x="774" y="-147.5" font-family="Helvetica,sans-Serif" font-size="10.00">+</text>
<text text-anchor="start" x="795" y="-147.5" font-family="Helvetica,sans-Serif" font-size="10.00">Unique_region()</text>
<text text-anchor="start" x="774" y="-132.5" font-family="Helvetica,sans-Serif" font-size="10.00">+</text>
<text text-anchor="start" x="795" y="-132.5" font-family="Helvetica,sans-Serif" font-size="10.00">operator=()</text>
<text text-anchor="start" x="774" y="-117.5" font-family="Helvetica,sans-Serif" font-size="10.00">+</text>
<text text-anchor="start" x="795" y="-117.5" font-family="Helvetica,sans-Serif" font-size="10.00">~Unique_region()</text>
<text text-anchor="start" x="774" y="-102.5" font-family="Helvetica,sans-Serif" font-size="10.00">+</text>
<text text-anchor="start" x="795" y="-102.5" font-family="Helvetica,sans-Serif" font-size="10.00">get()</text>
<text text-anchor="start" x="774" y="-87.5" font-family="Helvetica,sans-Serif" font-size="10.00">+</text>
<text text-anchor="start" x="795" y="-87.5" font-family="Helvetica,sans-Serif" font-size="10.00">release()</text>
<text text-anchor="start" x="774" y="-72.5" font-family="Helvetica,sans-Serif" font-size="10.00">+</text>
<text text-anchor="start" x="795" y="-72.5" font-family="Helvetica,sans-Serif" font-size="10.00">reset()</text>
<text text-anchor="start" x="774" y="-57.5" font-family="Helvetica,sans-Serif" font-size="10.00">+</text>
<text text-anchor="start" x="795" y="-57.5" font-family="Helvetica,sans-Serif" font-size="10.00">reset()</text>
<text text-anchor="start" x="774" y="-42.5" font-family="Helvetica,sans-Serif" font-size="10.00">+</text>
<text text-anchor="start" x="795" y="-42.5" font-family="Helvetica,sans-Serif" font-size="10.00">is_valid()</text>
<text text-anchor="start" x="774" y="-27.5" font-family="Helvetica,sans-Serif" font-size="10.00">+</text>
<text text-anchor="start" x="795" y="-27.5" font-family="Helvetica,sans-Serif" font-size="10.00">operator*()</text>
<text text-anchor="start" x="774" y="-12.5" font-family="Helvetica,sans-Serif" font-size="10.00">+</text>
<text text-anchor="start" x="795" y="-12.5" font-family="Helvetica,sans-Serif" font-size="10.00">operator&#45;&gt;()</text>
<polygon fill="#666666" stroke="#666666" points="762,-217.5 762,-217.5 902,-217.5 902,-217.5 762,-217.5"/>
<polygon fill="#666666" stroke="#666666" points="762,-202.5 762,-202.5 902,-202.5 902,-202.5 762,-202.5"/>
<polygon fill="none" stroke="#666666" points="762,-5.5 762,-245.5 902,-245.5 902,-5.5 762,-5.5"/>
</a>
</g>
</g>
<!-- Node1&#45;&gt;Node7 -->
<g id="edge6_Node000001_Node000007" class="edge">
<title>Node1&#45;&gt;Node7</title>
<g id="a_edge6_Node000001_Node000007"><a xlink:title=" ">
<path fill="none" stroke="orange" d="M538.66,-386.44C603.91,-357.18 690.98,-310.97 753,-251 756.04,-248.06 759.01,-244.99 761.92,-241.81"/>
<polygon fill="orange" stroke="orange" points="536.93,-383.38 529.2,-390.64 539.76,-389.78 536.93,-383.38"/>
</a>
</g>
<text text-anchor="start" x="733" y="-283" font-family="Helvetica,sans-Serif" font-size="10.00" fill="grey"> &lt; l4virtio_config_hdr</text>
<text text-anchor="middle" x="785.5" y="-272" font-family="Helvetica,sans-Serif" font-size="10.00" fill="grey">_t * &gt;</text>
</g>
</g>
</svg>
