<?xml version="1.0" encoding="UTF-8" standalone="no"?>
<!DOCTYPE svg PUBLIC "-//W3C//DTD SVG 1.1//EN"
 "http://www.w3.org/Graphics/SVG/1.1/DTD/svg11.dtd">
<!-- Generated by graphviz version 2.42.4 (0)
 -->
<!-- Title: L4virtio::Virtqueue::no_notify_guest Pages: 1 -->
<svg width="303pt" height="86pt"
 viewBox="0.00 0.00 303.00 86.00" xmlns="http://www.w3.org/2000/svg" xmlns:xlink="http://www.w3.org/1999/xlink">
<g id="graph0" class="graph" transform="scale(1 1) rotate(0) translate(4 82)">
<title>L4virtio::Virtqueue::no_notify_guest</title>
<!-- Node1 -->
<g id="Node000001" class="node">
<title>Node1</title>
<g id="a_Node000001"><a xlink:title="Get the no IRQ flag of this queue.">
<polygon fill="#999999" stroke="#666666" points="295,-54 188,-54 188,-24 295,-24 295,-54"/>
<text text-anchor="start" x="196" y="-42" font-family="Helvetica,sans-Serif" font-size="10.00">L4virtio::Virtqueue</text>
<text text-anchor="middle" x="241.5" y="-31" font-family="Helvetica,sans-Serif" font-size="10.00">::no_notify_guest</text>
</a>
</g>
</g>
<!-- Node2 -->
<g id="Node000002" class="node">
<title>Node2</title>
<g id="a_Node000002"><a xlink:href="classL4virtio_1_1Svr_1_1Block__dev__base.html#afd81130f9e38af771d43aabafa05e043" target="_top" xlink:title="Releases resources related to a request and notifies the client.">
<polygon fill="white" stroke="#666666" points="152,-78 0,-78 0,-48 152,-48 152,-78"/>
<text text-anchor="start" x="8" y="-66" font-family="Helvetica,sans-Serif" font-size="10.00">L4virtio::Svr::Block</text>
<text text-anchor="middle" x="76" y="-55" font-family="Helvetica,sans-Serif" font-size="10.00">_dev_base::finalize_request</text>
</a>
</g>
</g>
<!-- Node1&#45;&gt;Node2 -->
<g id="edge1_Node000001_Node000002" class="edge">
<title>Node1&#45;&gt;Node2</title>
<g id="a_edge1_Node000001_Node000002"><a xlink:title=" ">
<path fill="none" stroke="#63b8ff" d="M177.8,-48.2C169.41,-49.44 160.74,-50.71 152.16,-51.97"/>
<polygon fill="#63b8ff" stroke="#63b8ff" points="178.48,-51.64 187.87,-46.73 177.47,-44.72 178.48,-51.64"/>
</a>
</g>
</g>
<!-- Node3 -->
<g id="Node000003" class="node">
<title>Node3</title>
<g id="a_Node000003"><a xlink:href="classL4virtio_1_1Svr_1_1Console_1_1Device.html#a04be7d77cf99a295ec0e4f32693858ed" target="_top" xlink:title="Notify queue of available data.">
<polygon fill="white" stroke="#666666" points="138.5,-30 13.5,-30 13.5,0 138.5,0 138.5,-30"/>
<text text-anchor="start" x="21.5" y="-18" font-family="Helvetica,sans-Serif" font-size="10.00">L4virtio::Svr::Console</text>
<text text-anchor="middle" x="76" y="-7" font-family="Helvetica,sans-Serif" font-size="10.00">::Device::notify_queue</text>
</a>
</g>
</g>
<!-- Node1&#45;&gt;Node3 -->
<g id="edge2_Node000001_Node000003" class="edge">
<title>Node1&#45;&gt;Node3</title>
<g id="a_edge2_Node000001_Node000003"><a xlink:title=" ">
<path fill="none" stroke="#63b8ff" d="M177.75,-29.79C164.92,-27.91 151.44,-25.93 138.65,-24.05"/>
<polygon fill="#63b8ff" stroke="#63b8ff" points="177.47,-33.28 187.87,-31.27 178.48,-26.36 177.47,-33.28"/>
</a>
</g>
</g>
</g>
</svg>
