<?xml version="1.0" encoding="UTF-8" standalone="no"?>
<!DOCTYPE svg PUBLIC "-//W3C//DTD SVG 1.1//EN"
 "http://www.w3.org/Graphics/SVG/1.1/DTD/svg11.dtd">
<!-- Generated by graphviz version 2.43.0 (0)
 -->
<!-- Title: cxx::Ref_ptr&lt; T, CNT &gt; Pages: 1 -->
<svg width="248pt" height="374pt"
 viewBox="0.00 0.00 248.00 374.00" xmlns="http://www.w3.org/2000/svg" xmlns:xlink="http://www.w3.org/1999/xlink">
<g id="graph0" class="graph" transform="scale(1 1) rotate(0) translate(4 370)">
<title>cxx::Ref_ptr&lt; T, CNT &gt;</title>
<!-- Node1 -->
<g id="Node000001" class="node">
<title>Node1</title>
<g id="a_Node000001"><a xlink:title="A reference&#45;counting pointer with automatic cleanup.">
<polygon fill="#999999" stroke="transparent" points="177,-366 53,-366 53,-212 177,-212 177,-366"/>
<text text-anchor="start" x="58" y="-354" font-family="Helvetica,sans-Serif" font-size="10.00">cxx::Ref_ptr&lt; T, CNT &gt;</text>
<text text-anchor="start" x="113" y="-339" font-family="Helvetica,sans-Serif" font-size="10.00"> </text>
<text text-anchor="start" x="71.5" y="-324" font-family="Helvetica,sans-Serif" font-size="10.00">+</text>
<text text-anchor="start" x="99" y="-324" font-family="Helvetica,sans-Serif" font-size="10.00">Ref_ptr()</text>
<text text-anchor="start" x="71.5" y="-309" font-family="Helvetica,sans-Serif" font-size="10.00">+</text>
<text text-anchor="start" x="99" y="-309" font-family="Helvetica,sans-Serif" font-size="10.00">Ref_ptr()</text>
<text text-anchor="start" x="71.5" y="-294" font-family="Helvetica,sans-Serif" font-size="10.00">+</text>
<text text-anchor="start" x="99" y="-294" font-family="Helvetica,sans-Serif" font-size="10.00">Ref_ptr()</text>
<text text-anchor="start" x="71.5" y="-279" font-family="Helvetica,sans-Serif" font-size="10.00">+</text>
<text text-anchor="start" x="99" y="-279" font-family="Helvetica,sans-Serif" font-size="10.00">Ref_ptr()</text>
<text text-anchor="start" x="71.5" y="-264" font-family="Helvetica,sans-Serif" font-size="10.00">+</text>
<text text-anchor="start" x="99" y="-264" font-family="Helvetica,sans-Serif" font-size="10.00">Ref_ptr()</text>
<text text-anchor="start" x="71.5" y="-249" font-family="Helvetica,sans-Serif" font-size="10.00">+</text>
<text text-anchor="start" x="99" y="-249" font-family="Helvetica,sans-Serif" font-size="10.00">get()</text>
<text text-anchor="start" x="71.5" y="-234" font-family="Helvetica,sans-Serif" font-size="10.00">+</text>
<text text-anchor="start" x="99" y="-234" font-family="Helvetica,sans-Serif" font-size="10.00">ptr()</text>
<text text-anchor="start" x="71.5" y="-219" font-family="Helvetica,sans-Serif" font-size="10.00">+</text>
<text text-anchor="start" x="99" y="-219" font-family="Helvetica,sans-Serif" font-size="10.00">release()</text>
<polygon fill="#666666" stroke="#666666" points="53,-349 53,-349 177,-349 177,-349 53,-349"/>
<polygon fill="#666666" stroke="#666666" points="53,-334 53,-334 177,-334 177,-334 53,-334"/>
<polygon fill="none" stroke="#666666" points="53,-212 53,-366 177,-366 177,-212 53,-212"/>
</a>
</g>
</g>
<!-- Node2 -->
<g id="Node000002" class="node">
<title>Node2</title>
<g id="a_Node000002"><a xlink:href="classcxx_1_1Ref__ptr.html" target="_top" xlink:title=" ">
<polygon fill="white" stroke="transparent" points="104,-165 0,-165 0,0 104,0 104,-165"/>
<text text-anchor="start" x="5" y="-152.5" font-family="Helvetica,sans-Serif" font-size="10.00">cxx::Ref_ptr&lt; L4Re</text>
<text text-anchor="start" x="23.5" y="-141.5" font-family="Helvetica,sans-Serif" font-size="10.00">::Vfs::File &gt;</text>
<text text-anchor="start" x="50" y="-126.5" font-family="Helvetica,sans-Serif" font-size="10.00"> </text>
<text text-anchor="start" x="13.5" y="-111.5" font-family="Helvetica,sans-Serif" font-size="10.00">+</text>
<text text-anchor="start" x="36" y="-111.5" font-family="Helvetica,sans-Serif" font-size="10.00">Ref_ptr()</text>
<text text-anchor="start" x="13.5" y="-96.5" font-family="Helvetica,sans-Serif" font-size="10.00">+</text>
<text text-anchor="start" x="36" y="-96.5" font-family="Helvetica,sans-Serif" font-size="10.00">Ref_ptr()</text>
<text text-anchor="start" x="13.5" y="-81.5" font-family="Helvetica,sans-Serif" font-size="10.00">+</text>
<text text-anchor="start" x="36" y="-81.5" font-family="Helvetica,sans-Serif" font-size="10.00">Ref_ptr()</text>
<text text-anchor="start" x="13.5" y="-66.5" font-family="Helvetica,sans-Serif" font-size="10.00">+</text>
<text text-anchor="start" x="36" y="-66.5" font-family="Helvetica,sans-Serif" font-size="10.00">Ref_ptr()</text>
<text text-anchor="start" x="13.5" y="-51.5" font-family="Helvetica,sans-Serif" font-size="10.00">+</text>
<text text-anchor="start" x="36" y="-51.5" font-family="Helvetica,sans-Serif" font-size="10.00">Ref_ptr()</text>
<text text-anchor="start" x="13.5" y="-36.5" font-family="Helvetica,sans-Serif" font-size="10.00">+</text>
<text text-anchor="start" x="36" y="-36.5" font-family="Helvetica,sans-Serif" font-size="10.00">get()</text>
<text text-anchor="start" x="13.5" y="-21.5" font-family="Helvetica,sans-Serif" font-size="10.00">+</text>
<text text-anchor="start" x="36" y="-21.5" font-family="Helvetica,sans-Serif" font-size="10.00">ptr()</text>
<text text-anchor="start" x="13.5" y="-6.5" font-family="Helvetica,sans-Serif" font-size="10.00">+</text>
<text text-anchor="start" x="36" y="-6.5" font-family="Helvetica,sans-Serif" font-size="10.00">release()</text>
<polygon fill="#666666" stroke="#666666" points="0,-136.5 0,-136.5 104,-136.5 104,-136.5 0,-136.5"/>
<polygon fill="#666666" stroke="#666666" points="0,-121.5 0,-121.5 104,-121.5 104,-121.5 0,-121.5"/>
<polygon fill="none" stroke="#666666" points="0,0 0,-165 104,-165 104,0 0,0"/>
</a>
</g>
</g>
<!-- Node1&#45;&gt;Node2 -->
<g id="edge1_Node000001_Node000002" class="edge">
<title>Node1&#45;&gt;Node2</title>
<g id="a_edge1_Node000001_Node000002"><a xlink:title=" ">
<path fill="none" stroke="orange" d="M63.86,-202.35C62.82,-199.57 61.86,-196.78 61,-194 58.14,-184.81 56.06,-174.99 54.56,-165.15"/>
<polygon fill="orange" stroke="orange" points="60.67,-203.82 67.66,-211.78 67.17,-201.2 60.67,-203.82"/>
</a>
</g>
<text text-anchor="middle" x="108.5" y="-186" font-family="Helvetica,sans-Serif" font-size="10.00" fill="grey"> &lt; L4Re::Vfs::File &gt;</text>
</g>
<!-- Node3 -->
<g id="Node000003" class="node">
<title>Node3</title>
<g id="a_Node000003"><a xlink:href="classcxx_1_1Ref__ptr.html" target="_top" xlink:title=" ">
<polygon fill="white" stroke="transparent" points="233.5,-165 122.5,-165 122.5,0 233.5,0 233.5,-165"/>
<text text-anchor="start" x="128" y="-152.5" font-family="Helvetica,sans-Serif" font-size="10.00">cxx::Ref_ptr&lt; Mount</text>
<text text-anchor="start" x="160" y="-141.5" font-family="Helvetica,sans-Serif" font-size="10.00">_tree &gt;</text>
<text text-anchor="start" x="176.5" y="-126.5" font-family="Helvetica,sans-Serif" font-size="10.00"> </text>
<text text-anchor="start" x="138.5" y="-111.5" font-family="Helvetica,sans-Serif" font-size="10.00">+</text>
<text text-anchor="start" x="163" y="-111.5" font-family="Helvetica,sans-Serif" font-size="10.00">Ref_ptr()</text>
<text text-anchor="start" x="138.5" y="-96.5" font-family="Helvetica,sans-Serif" font-size="10.00">+</text>
<text text-anchor="start" x="163" y="-96.5" font-family="Helvetica,sans-Serif" font-size="10.00">Ref_ptr()</text>
<text text-anchor="start" x="138.5" y="-81.5" font-family="Helvetica,sans-Serif" font-size="10.00">+</text>
<text text-anchor="start" x="163" y="-81.5" font-family="Helvetica,sans-Serif" font-size="10.00">Ref_ptr()</text>
<text text-anchor="start" x="138.5" y="-66.5" font-family="Helvetica,sans-Serif" font-size="10.00">+</text>
<text text-anchor="start" x="163" y="-66.5" font-family="Helvetica,sans-Serif" font-size="10.00">Ref_ptr()</text>
<text text-anchor="start" x="138.5" y="-51.5" font-family="Helvetica,sans-Serif" font-size="10.00">+</text>
<text text-anchor="start" x="163" y="-51.5" font-family="Helvetica,sans-Serif" font-size="10.00">Ref_ptr()</text>
<text text-anchor="start" x="138.5" y="-36.5" font-family="Helvetica,sans-Serif" font-size="10.00">+</text>
<text text-anchor="start" x="163" y="-36.5" font-family="Helvetica,sans-Serif" font-size="10.00">get()</text>
<text text-anchor="start" x="138.5" y="-21.5" font-family="Helvetica,sans-Serif" font-size="10.00">+</text>
<text text-anchor="start" x="163" y="-21.5" font-family="Helvetica,sans-Serif" font-size="10.00">ptr()</text>
<text text-anchor="start" x="138.5" y="-6.5" font-family="Helvetica,sans-Serif" font-size="10.00">+</text>
<text text-anchor="start" x="163" y="-6.5" font-family="Helvetica,sans-Serif" font-size="10.00">release()</text>
<polygon fill="#666666" stroke="#666666" points="123,-136.5 123,-136.5 234,-136.5 234,-136.5 123,-136.5"/>
<polygon fill="#666666" stroke="#666666" points="123,-121.5 123,-121.5 234,-121.5 234,-121.5 123,-121.5"/>
<polygon fill="none" stroke="#666666" points="122.5,0 122.5,-165 233.5,-165 233.5,0 122.5,0"/>
</a>
</g>
</g>
<!-- Node1&#45;&gt;Node3 -->
<g id="edge2_Node000001_Node000003" class="edge">
<title>Node1&#45;&gt;Node3</title>
<g id="a_edge2_Node000001_Node000003"><a xlink:title=" ">
<path fill="none" stroke="orange" d="M153.26,-202.31C154.22,-199.52 155.14,-196.75 156,-194 158.9,-184.76 161.5,-174.96 163.81,-165.17"/>
<polygon fill="orange" stroke="orange" points="149.93,-201.23 149.84,-211.82 156.52,-203.6 149.93,-201.23"/>
</a>
</g>
<text text-anchor="middle" x="199" y="-186" font-family="Helvetica,sans-Serif" font-size="10.00" fill="grey"> &lt; Mount_tree &gt;</text>
</g>
</g>
</svg>
