<?xml version="1.0" encoding="UTF-8" standalone="no"?>
<!DOCTYPE svg PUBLIC "-//W3C//DTD SVG 1.1//EN"
 "http://www.w3.org/Graphics/SVG/1.1/DTD/svg11.dtd">
<!-- Generated by graphviz version 2.42.4 (0)
 -->
<!-- Title: cxx::H_list::insert Pages: 1 -->
<svg width="280pt" height="64pt"
 viewBox="0.00 0.00 280.00 64.00" xmlns="http://www.w3.org/2000/svg" xmlns:xlink="http://www.w3.org/1999/xlink">
<g id="graph0" class="graph" transform="scale(1 1) rotate(0) translate(4 60)">
<title>cxx::H_list::insert</title>
<!-- Node1 -->
<g id="Node000001" class="node">
<title>Node1</title>
<g id="a_Node000001"><a xlink:title="Insert an element at the iterator position.">
<polygon fill="#999999" stroke="#666666" points="101,-37 0,-37 0,-18 101,-18 101,-37"/>
<text text-anchor="middle" x="50.5" y="-25" font-family="Helvetica,sans-Serif" font-size="10.00">cxx::H_list::insert</text>
</a>
</g>
</g>
<!-- Node2 -->
<g id="Node000002" class="node">
<title>Node2</title>
<g id="a_Node000002"><a xlink:href="classcxx_1_1Bits_1_1Basic__list.html#a08f2ae0b9f0379ce1778ba1f2d163330" target="_top" xlink:title="Return a const iterator to the end of the list.">
<polygon fill="white" stroke="#666666" points="272,-56 137,-56 137,-37 272,-37 272,-56"/>
<text text-anchor="middle" x="204.5" y="-44" font-family="Helvetica,sans-Serif" font-size="10.00">cxx::Bits::Basic_list::end</text>
</a>
</g>
</g>
<!-- Node1&#45;&gt;Node2 -->
<g id="edge1_Node000001_Node000002" class="edge">
<title>Node1&#45;&gt;Node2</title>
<g id="a_edge1_Node000001_Node000002"><a xlink:title=" ">
<path fill="none" stroke="#63b8ff" d="M101.27,-33.72C109.42,-34.74 118.03,-35.82 126.66,-36.89"/>
<polygon fill="#63b8ff" stroke="#63b8ff" points="126.41,-40.39 136.76,-38.16 127.28,-33.44 126.41,-40.39"/>
</a>
</g>
</g>
<!-- Node3 -->
<g id="Node000003" class="node">
<title>Node3</title>
<g id="a_Node000003"><a xlink:href="classcxx_1_1H__list.html#ae1f01106a65512fc3f78ff7c26989fe1" target="_top" xlink:title="Return an iterator for an arbitrary list element.">
<polygon fill="white" stroke="#666666" points="249.5,-19 159.5,-19 159.5,0 249.5,0 249.5,-19"/>
<text text-anchor="middle" x="204.5" y="-7" font-family="Helvetica,sans-Serif" font-size="10.00">cxx::H_list::iter</text>
</a>
</g>
</g>
<!-- Node1&#45;&gt;Node3 -->
<g id="edge2_Node000001_Node000003" class="edge">
<title>Node1&#45;&gt;Node3</title>
<g id="a_edge2_Node000001_Node000003"><a xlink:title=" ">
<path fill="none" stroke="#63b8ff" d="M101.27,-21.61C116.61,-19.79 133.58,-17.78 149.21,-15.93"/>
<polygon fill="#63b8ff" stroke="#63b8ff" points="149.74,-19.39 159.25,-14.74 148.91,-12.44 149.74,-19.39"/>
</a>
</g>
</g>
</g>
</svg>
