<?xml version="1.0" encoding="UTF-8" standalone="no"?>
<!DOCTYPE svg PUBLIC "-//W3C//DTD SVG 1.1//EN"
 "http://www.w3.org/Graphics/SVG/1.1/DTD/svg11.dtd">
<!-- Generated by graphviz version 2.42.4 (0)
 -->
<!-- Title: L4::Debugger Pages: 1 -->
<svg width="277pt" height="407pt"
 viewBox="0.00 0.00 277.00 407.00" xmlns="http://www.w3.org/2000/svg" xmlns:xlink="http://www.w3.org/1999/xlink">
<g id="graph0" class="graph" transform="scale(1 1) rotate(0) translate(4 403)">
<title>L4::Debugger</title>
<!-- Node1 -->
<g id="Node000001" class="node">
<title>Node1</title>
<g id="a_Node000001"><a xlink:title="C++ kernel debugger API.">
<polygon fill="#999999" stroke="transparent" points="162.5,-154 49.5,-154 49.5,0 162.5,0 162.5,-154"/>
<text text-anchor="start" x="74" y="-142" font-family="Helvetica,sans-Serif" font-size="10.00">L4::Debugger</text>
<text text-anchor="start" x="104.5" y="-127" font-family="Helvetica,sans-Serif" font-size="10.00"> </text>
<text text-anchor="start" x="54" y="-112" font-family="Helvetica,sans-Serif" font-size="10.00">+</text>
<text text-anchor="start" x="67" y="-112" font-family="Helvetica,sans-Serif" font-size="10.00">set_object_name()</text>
<text text-anchor="start" x="54" y="-97" font-family="Helvetica,sans-Serif" font-size="10.00">+</text>
<text text-anchor="start" x="67" y="-97" font-family="Helvetica,sans-Serif" font-size="10.00">global_id()</text>
<text text-anchor="start" x="54" y="-82" font-family="Helvetica,sans-Serif" font-size="10.00">+</text>
<text text-anchor="start" x="67" y="-82" font-family="Helvetica,sans-Serif" font-size="10.00">kobj_to_id()</text>
<text text-anchor="start" x="54" y="-67" font-family="Helvetica,sans-Serif" font-size="10.00">+</text>
<text text-anchor="start" x="67" y="-67" font-family="Helvetica,sans-Serif" font-size="10.00">query_log_typeid()</text>
<text text-anchor="start" x="54" y="-52" font-family="Helvetica,sans-Serif" font-size="10.00">+</text>
<text text-anchor="start" x="67" y="-52" font-family="Helvetica,sans-Serif" font-size="10.00">query_log_name()</text>
<text text-anchor="start" x="54" y="-37" font-family="Helvetica,sans-Serif" font-size="10.00">+</text>
<text text-anchor="start" x="67" y="-37" font-family="Helvetica,sans-Serif" font-size="10.00">switch_log()</text>
<text text-anchor="start" x="54" y="-22" font-family="Helvetica,sans-Serif" font-size="10.00">+</text>
<text text-anchor="start" x="67" y="-22" font-family="Helvetica,sans-Serif" font-size="10.00">get_object_name()</text>
<text text-anchor="start" x="54" y="-7" font-family="Helvetica,sans-Serif" font-size="10.00">+</text>
<text text-anchor="start" x="67" y="-7" font-family="Helvetica,sans-Serif" font-size="10.00">add_image_info()</text>
<polygon fill="#666666" stroke="#666666" points="50,-137 50,-137 163,-137 163,-137 50,-137"/>
<polygon fill="#666666" stroke="#666666" points="50,-122 50,-122 163,-122 163,-122 50,-122"/>
<polygon fill="none" stroke="#666666" points="49.5,0 49.5,-154 162.5,-154 162.5,0 49.5,0"/>
</a>
</g>
</g>
<!-- Node2 -->
<g id="Node000002" class="node">
<title>Node2</title>
<g id="a_Node000002"><a xlink:href="classL4_1_1Kobject__t.html" target="_top" xlink:title=" ">
<polygon fill="white" stroke="transparent" points="195,-266 17,-266 17,-191 195,-191 195,-266"/>
<text text-anchor="start" x="22" y="-253.5" font-family="Helvetica,sans-Serif" font-size="10.00">L4::Kobject_t&lt; Debugger,</text>
<text text-anchor="start" x="22" y="-242.5" font-family="Helvetica,sans-Serif" font-size="10.00"> Kobject, L4_PROTO_DEBUGGER &gt;</text>
<text text-anchor="start" x="104" y="-227.5" font-family="Helvetica,sans-Serif" font-size="10.00"> </text>
<text text-anchor="start" x="33" y="-212.5" font-family="Helvetica,sans-Serif" font-size="10.00">#</text>
<text text-anchor="start" x="58" y="-212.5" font-family="Helvetica,sans-Serif" font-size="10.00">c()</text>
<text text-anchor="start" x="33" y="-197.5" font-family="Helvetica,sans-Serif" font-size="10.00">#</text>
<text text-anchor="start" x="58" y="-197.5" font-family="Helvetica,sans-Serif" font-size="10.00">__check_protocols__()</text>
<polygon fill="#666666" stroke="#666666" points="17,-237.5 17,-237.5 195,-237.5 195,-237.5 17,-237.5"/>
<polygon fill="#666666" stroke="#666666" points="17,-222.5 17,-222.5 195,-222.5 195,-222.5 17,-222.5"/>
<polygon fill="none" stroke="#666666" points="17,-191 17,-266 195,-266 195,-191 17,-191"/>
</a>
</g>
</g>
<!-- Node2&#45;&gt;Node1 -->
<g id="edge1_Node000001_Node000002" class="edge">
<title>Node2&#45;&gt;Node1</title>
<g id="a_edge1_Node000001_Node000002"><a xlink:title=" ">
<path fill="none" stroke="#63b8ff" d="M106,-180.83C106,-172.28 106,-163.16 106,-154.02"/>
<polygon fill="none" stroke="#63b8ff" points="102.5,-180.93 106,-190.93 109.5,-180.93 102.5,-180.93"/>
</a>
</g>
</g>
<!-- Node3 -->
<g id="Node000003" class="node">
<title>Node3</title>
<g id="a_Node000003"><a xlink:href="classL4_1_1Kobject.html" target="_top" xlink:title="Base class for all kinds of kernel objects and remote objects, referenced by capabilities.">
<polygon fill="white" stroke="transparent" points="80,-393.5 0,-393.5 0,-329.5 80,-329.5 80,-393.5"/>
<text text-anchor="start" x="13" y="-381.5" font-family="Helvetica,sans-Serif" font-size="10.00">L4::Kobject</text>
<text text-anchor="start" x="38" y="-366.5" font-family="Helvetica,sans-Serif" font-size="10.00"> </text>
<text text-anchor="start" x="4" y="-351.5" font-family="Helvetica,sans-Serif" font-size="10.00">+</text>
<text text-anchor="start" x="17" y="-351.5" font-family="Helvetica,sans-Serif" font-size="10.00">dec_refcnt()</text>
<text text-anchor="start" x="4" y="-336.5" font-family="Helvetica,sans-Serif" font-size="10.00">#</text>
<text text-anchor="start" x="17" y="-336.5" font-family="Helvetica,sans-Serif" font-size="10.00">cap()</text>
<polygon fill="#666666" stroke="#666666" points="0,-376.5 0,-376.5 80,-376.5 80,-376.5 0,-376.5"/>
<polygon fill="#666666" stroke="#666666" points="0,-361.5 0,-361.5 80,-361.5 80,-361.5 0,-361.5"/>
<polygon fill="none" stroke="#666666" points="0,-329.5 0,-393.5 80,-393.5 80,-329.5 0,-329.5"/>
</a>
</g>
</g>
<!-- Node3&#45;&gt;Node2 -->
<g id="edge2_Node000002_Node000003" class="edge">
<title>Node3&#45;&gt;Node2</title>
<g id="a_edge2_Node000002_Node000003"><a xlink:title=" ">
<path fill="none" stroke="#63b8ff" d="M60.29,-320.23C68.94,-303.06 78.97,-283.16 87.42,-266.37"/>
<polygon fill="none" stroke="#63b8ff" points="57.01,-318.95 55.64,-329.45 63.27,-322.1 57.01,-318.95"/>
</a>
</g>
</g>
<!-- Node4 -->
<g id="Node000004" class="node">
<title>Node4</title>
<g id="a_Node000004"><a xlink:href="classL4_1_1Kobject__t.html" target="_top" xlink:title="Helper class to create an L4Re interface class that is derived from a single base class.">
<polygon fill="white" stroke="transparent" points="248,-399 98,-399 98,-324 248,-324 248,-399"/>
<text text-anchor="start" x="103" y="-386.5" font-family="Helvetica,sans-Serif" font-size="10.00">L4::Kobject_t&lt; Derived,</text>
<text text-anchor="start" x="103" y="-375.5" font-family="Helvetica,sans-Serif" font-size="10.00"> Base, PROTO, S_DEMAND &gt;</text>
<text text-anchor="start" x="171" y="-360.5" font-family="Helvetica,sans-Serif" font-size="10.00"> </text>
<text text-anchor="start" x="107" y="-345.5" font-family="Helvetica,sans-Serif" font-size="10.00">#</text>
<text text-anchor="start" x="125" y="-345.5" font-family="Helvetica,sans-Serif" font-size="10.00">c()</text>
<text text-anchor="start" x="107" y="-330.5" font-family="Helvetica,sans-Serif" font-size="10.00">#</text>
<text text-anchor="start" x="125" y="-330.5" font-family="Helvetica,sans-Serif" font-size="10.00">__check_protocols__()</text>
<polygon fill="#666666" stroke="#666666" points="98,-370.5 98,-370.5 248,-370.5 248,-370.5 98,-370.5"/>
<polygon fill="#666666" stroke="#666666" points="98,-355.5 98,-355.5 248,-355.5 248,-355.5 98,-355.5"/>
<polygon fill="none" stroke="#666666" points="98,-324 98,-399 248,-399 248,-324 98,-324"/>
</a>
</g>
</g>
<!-- Node4&#45;&gt;Node2 -->
<g id="edge3_Node000002_Node000004" class="edge">
<title>Node4&#45;&gt;Node2</title>
<g id="a_edge3_Node000002_Node000004"><a xlink:title=" ">
<path fill="none" stroke="orange" d="M149.49,-314.54C141.37,-298.66 132.38,-281.09 124.7,-266.06"/>
<polygon fill="orange" stroke="orange" points="146.49,-316.35 154.16,-323.66 152.72,-313.16 146.49,-316.35"/>
</a>
</g>
<text text-anchor="start" x="143" y="-298" font-family="Helvetica,sans-Serif" font-size="10.00" fill="grey"> &lt; Debugger, Kobject,</text>
<text text-anchor="middle" x="206" y="-287" font-family="Helvetica,sans-Serif" font-size="10.00" fill="grey"> L4_PROTO_DEBUGGER &gt;</text>
</g>
</g>
</svg>
