<?xml version="1.0" encoding="UTF-8" standalone="no"?>
<!DOCTYPE svg PUBLIC "-//W3C//DTD SVG 1.1//EN"
 "http://www.w3.org/Graphics/SVG/1.1/DTD/svg11.dtd">
<!-- Generated by graphviz version 2.42.4 (0)
 -->
<!-- Title: cxx::String::from_dec Pages: 1 -->
<svg width="261pt" height="64pt"
 viewBox="0.00 0.00 261.00 64.00" xmlns="http://www.w3.org/2000/svg" xmlns:xlink="http://www.w3.org/1999/xlink">
<g id="graph0" class="graph" transform="scale(1 1) rotate(0) translate(4 60)">
<title>cxx::String::from_dec</title>
<!-- Node1 -->
<g id="Node000001" class="node">
<title>Node1</title>
<g id="a_Node000001"><a xlink:title="Convert decimal string to integer.">
<polygon fill="#999999" stroke="#666666" points="120,-37 0,-37 0,-18 120,-18 120,-37"/>
<text text-anchor="middle" x="60" y="-25" font-family="Helvetica,sans-Serif" font-size="10.00">cxx::String::from_dec</text>
</a>
</g>
</g>
<!-- Node2 -->
<g id="Node000002" class="node">
<title>Node2</title>
<g id="a_Node000002"><a xlink:href="classcxx_1_1String.html#a5368753551d0792f7a6688831f11c8ea" target="_top" xlink:title="Check if pointer s points behind string.">
<polygon fill="white" stroke="#666666" points="249.5,-56 159.5,-56 159.5,-37 249.5,-37 249.5,-56"/>
<text text-anchor="middle" x="204.5" y="-44" font-family="Helvetica,sans-Serif" font-size="10.00">cxx::String::eof</text>
</a>
</g>
</g>
<!-- Node1&#45;&gt;Node2 -->
<g id="edge1_Node000001_Node000002" class="edge">
<title>Node1&#45;&gt;Node2</title>
<g id="a_edge1_Node000001_Node000002"><a xlink:title=" ">
<path fill="none" stroke="#63b8ff" d="M120.19,-35.39C129.85,-36.68 139.82,-38.01 149.35,-39.28"/>
<polygon fill="#63b8ff" stroke="#63b8ff" points="149.11,-42.78 159.48,-40.63 150.03,-35.84 149.11,-42.78"/>
</a>
</g>
</g>
<!-- Node3 -->
<g id="Node000003" class="node">
<title>Node3</title>
<g id="a_Node000003"><a xlink:href="classcxx_1_1String.html#a101fd26cc3e799be32f027cd52a5da90" target="_top" xlink:title="Pointer to first character.">
<polygon fill="white" stroke="#666666" points="253,-19 156,-19 156,0 253,0 253,-19"/>
<text text-anchor="middle" x="204.5" y="-7" font-family="Helvetica,sans-Serif" font-size="10.00">cxx::String::start</text>
</a>
</g>
</g>
<!-- Node1&#45;&gt;Node3 -->
<g id="edge2_Node000001_Node000003" class="edge">
<title>Node1&#45;&gt;Node3</title>
<g id="a_edge2_Node000001_Node000003"><a xlink:title=" ">
<path fill="none" stroke="#63b8ff" d="M120.19,-20.02C128.68,-18.95 137.39,-17.85 145.84,-16.78"/>
<polygon fill="#63b8ff" stroke="#63b8ff" points="146.5,-20.23 155.98,-15.5 145.62,-13.28 146.5,-20.23"/>
</a>
</g>
</g>
</g>
</svg>
