<?xml version="1.0" encoding="UTF-8" standalone="no"?>
<!DOCTYPE svg PUBLIC "-//W3C//DTD SVG 1.1//EN"
 "http://www.w3.org/Graphics/SVG/1.1/DTD/svg11.dtd">
<!-- Generated by graphviz version 2.43.0 (0)
 -->
<!-- Title: L4Re::Util::Registry_server&lt; LOOP_HOOKS &gt; Pages: 1 -->
<svg width="518pt" height="786pt"
 viewBox="0.00 0.00 518.00 786.00" xmlns="http://www.w3.org/2000/svg" xmlns:xlink="http://www.w3.org/1999/xlink">
<g id="graph0" class="graph" transform="scale(1 1) rotate(0) translate(4 782)">
<title>L4Re::Util::Registry_server&lt; LOOP_HOOKS &gt;</title>
<!-- Node1 -->
<g id="Node000001" class="node">
<title>Node1</title>
<g id="a_Node000001"><a xlink:title="A server loop object which has a Object_registry included.">
<polygon fill="#999999" stroke="transparent" points="302.5,-135 166.5,-135 166.5,0 302.5,0 302.5,-135"/>
<text text-anchor="start" x="171.5" y="-122.5" font-family="Helvetica,sans-Serif" font-size="10.00">L4Re::Util::Registry</text>
<text text-anchor="start" x="171.5" y="-111.5" font-family="Helvetica,sans-Serif" font-size="10.00">_server&lt; LOOP_HOOKS &gt;</text>
<text text-anchor="start" x="232.5" y="-96.5" font-family="Helvetica,sans-Serif" font-size="10.00"> </text>
<text text-anchor="start" x="178" y="-81.5" font-family="Helvetica,sans-Serif" font-size="10.00">+</text>
<text text-anchor="start" x="198.5" y="-81.5" font-family="Helvetica,sans-Serif" font-size="10.00">Registry_server()</text>
<text text-anchor="start" x="178" y="-66.5" font-family="Helvetica,sans-Serif" font-size="10.00">+</text>
<text text-anchor="start" x="198.5" y="-66.5" font-family="Helvetica,sans-Serif" font-size="10.00">Registry_server()</text>
<text text-anchor="start" x="178" y="-51.5" font-family="Helvetica,sans-Serif" font-size="10.00">+</text>
<text text-anchor="start" x="198.5" y="-51.5" font-family="Helvetica,sans-Serif" font-size="10.00">Registry_server()</text>
<text text-anchor="start" x="178" y="-36.5" font-family="Helvetica,sans-Serif" font-size="10.00">+</text>
<text text-anchor="start" x="198.5" y="-36.5" font-family="Helvetica,sans-Serif" font-size="10.00">registry()</text>
<text text-anchor="start" x="178" y="-21.5" font-family="Helvetica,sans-Serif" font-size="10.00">+</text>
<text text-anchor="start" x="198.5" y="-21.5" font-family="Helvetica,sans-Serif" font-size="10.00">registry()</text>
<text text-anchor="start" x="178" y="-6.5" font-family="Helvetica,sans-Serif" font-size="10.00">+</text>
<text text-anchor="start" x="198.5" y="-6.5" font-family="Helvetica,sans-Serif" font-size="10.00">loop()</text>
<polygon fill="#666666" stroke="#666666" points="166.5,-106.5 166.5,-106.5 302.5,-106.5 302.5,-106.5 166.5,-106.5"/>
<polygon fill="#666666" stroke="#666666" points="166.5,-91.5 166.5,-91.5 302.5,-91.5 302.5,-91.5 166.5,-91.5"/>
<polygon fill="none" stroke="#666666" points="166.5,0 166.5,-135 302.5,-135 302.5,0 166.5,0"/>
</a>
</g>
</g>
<!-- Node2 -->
<g id="Node000002" class="node">
<title>Node2</title>
<g id="a_Node000002"><a xlink:href="classL4_1_1Server.html" target="_top" xlink:title="Basic server loop for handling client requests.">
<polygon fill="white" stroke="transparent" points="309,-295 160,-295 160,-171 309,-171 309,-295"/>
<text text-anchor="start" x="165.5" y="-283" font-family="Helvetica,sans-Serif" font-size="10.00">L4::Server&lt; LOOP_HOOKS &gt;</text>
<text text-anchor="start" x="233" y="-268" font-family="Helvetica,sans-Serif" font-size="10.00"> </text>
<text text-anchor="start" x="178.5" y="-253" font-family="Helvetica,sans-Serif" font-size="10.00">+</text>
<text text-anchor="start" x="205.5" y="-253" font-family="Helvetica,sans-Serif" font-size="10.00">Server()</text>
<text text-anchor="start" x="178.5" y="-238" font-family="Helvetica,sans-Serif" font-size="10.00">+</text>
<text text-anchor="start" x="205.5" y="-238" font-family="Helvetica,sans-Serif" font-size="10.00">Server()</text>
<text text-anchor="start" x="178.5" y="-223" font-family="Helvetica,sans-Serif" font-size="10.00">+</text>
<text text-anchor="start" x="205.5" y="-223" font-family="Helvetica,sans-Serif" font-size="10.00">internal_loop()</text>
<text text-anchor="start" x="178.5" y="-208" font-family="Helvetica,sans-Serif" font-size="10.00">+</text>
<text text-anchor="start" x="205.5" y="-208" font-family="Helvetica,sans-Serif" font-size="10.00">loop_noexc()</text>
<text text-anchor="start" x="178.5" y="-193" font-family="Helvetica,sans-Serif" font-size="10.00">+</text>
<text text-anchor="start" x="205.5" y="-193" font-family="Helvetica,sans-Serif" font-size="10.00">loop()</text>
<text text-anchor="start" x="178.5" y="-178" font-family="Helvetica,sans-Serif" font-size="10.00">#</text>
<text text-anchor="start" x="205.5" y="-178" font-family="Helvetica,sans-Serif" font-size="10.00">reply_n_wait()</text>
<polygon fill="#666666" stroke="#666666" points="160.5,-278 160.5,-278 309.5,-278 309.5,-278 160.5,-278"/>
<polygon fill="#666666" stroke="#666666" points="160.5,-263 160.5,-263 309.5,-263 309.5,-263 160.5,-263"/>
<polygon fill="none" stroke="#666666" points="160,-171 160,-295 309,-295 309,-171 160,-171"/>
</a>
</g>
</g>
<!-- Node2&#45;&gt;Node1 -->
<g id="edge1_Node000001_Node000002" class="edge">
<title>Node2&#45;&gt;Node1</title>
<g id="a_edge1_Node000001_Node000002"><a xlink:title=" ">
<path fill="none" stroke="#63b8ff" d="M234.5,-160.47C234.5,-152.05 234.5,-143.47 234.5,-135.12"/>
<polygon fill="none" stroke="#63b8ff" points="231,-160.65 234.5,-170.65 238,-160.65 231,-160.65"/>
</a>
</g>
</g>
<!-- Node3 -->
<g id="Node000003" class="node">
<title>Node3</title>
<g id="a_Node000003"><a xlink:href="structL4_1_1Ipc__svr_1_1Default__loop__hooks.html" target="_top" xlink:title="Default LOOP_HOOKS.">
<polygon fill="white" stroke="transparent" points="286.5,-391 182.5,-391 182.5,-331 286.5,-331 286.5,-391"/>
<text text-anchor="start" x="187.5" y="-379" font-family="Helvetica,sans-Serif" font-size="10.00">L4::Ipc_svr::Default</text>
<text text-anchor="start" x="204" y="-368" font-family="Helvetica,sans-Serif" font-size="10.00">_loop_hooks</text>
<text text-anchor="start" x="232.5" y="-353" font-family="Helvetica,sans-Serif" font-size="10.00"> </text>
<text text-anchor="start" x="232.5" y="-338" font-family="Helvetica,sans-Serif" font-size="10.00"> </text>
<polygon fill="#666666" stroke="#666666" points="182.5,-363 182.5,-363 286.5,-363 286.5,-363 182.5,-363"/>
<polygon fill="#666666" stroke="#666666" points="182.5,-348 182.5,-348 286.5,-348 286.5,-348 182.5,-348"/>
<polygon fill="none" stroke="#666666" points="182.5,-331 182.5,-391 286.5,-391 286.5,-331 182.5,-331"/>
</a>
</g>
</g>
<!-- Node3&#45;&gt;Node2 -->
<g id="edge2_Node000002_Node000003" class="edge">
<title>Node3&#45;&gt;Node2</title>
<g id="a_edge2_Node000002_Node000003"><a xlink:title=" ">
<path fill="none" stroke="#63b8ff" d="M234.5,-320.55C234.5,-312.46 234.5,-303.77 234.5,-295.13"/>
<polygon fill="none" stroke="#63b8ff" points="231,-320.78 234.5,-330.78 238,-320.78 231,-320.78"/>
</a>
</g>
</g>
<!-- Node4 -->
<g id="Node000004" class="node">
<title>Node4</title>
<g id="a_Node000004"><a xlink:href="structL4_1_1Ipc__svr_1_1Ignore__errors.html" target="_top" xlink:title="Mix in for LOOP_HOOKS to ignore IPC errors.">
<polygon fill="white" stroke="transparent" points="99,-532 0,-532 0,-472 99,-472 99,-532"/>
<text text-anchor="start" x="5.5" y="-520" font-family="Helvetica,sans-Serif" font-size="10.00">L4::Ipc_svr::Ignore</text>
<text text-anchor="start" x="33" y="-509" font-family="Helvetica,sans-Serif" font-size="10.00">_errors</text>
<text text-anchor="start" x="48" y="-494" font-family="Helvetica,sans-Serif" font-size="10.00"> </text>
<text text-anchor="start" x="48" y="-479" font-family="Helvetica,sans-Serif" font-size="10.00"> </text>
<polygon fill="#666666" stroke="#666666" points="0.5,-504 0.5,-504 99.5,-504 99.5,-504 0.5,-504"/>
<polygon fill="#666666" stroke="#666666" points="0.5,-489 0.5,-489 99.5,-489 99.5,-489 0.5,-489"/>
<polygon fill="none" stroke="#666666" points="0,-472 0,-532 99,-532 99,-472 0,-472"/>
</a>
</g>
</g>
<!-- Node4&#45;&gt;Node3 -->
<g id="edge3_Node000003_Node000004" class="edge">
<title>Node4&#45;&gt;Node3</title>
<g id="a_edge3_Node000003_Node000004"><a xlink:title=" ">
<path fill="none" stroke="#63b8ff" d="M74.35,-463.69C84,-451.01 95.79,-437.43 108.5,-427 130.58,-408.89 158.52,-393.85 182.47,-382.81"/>
<polygon fill="none" stroke="#63b8ff" points="71.45,-461.72 68.33,-471.85 77.09,-465.88 71.45,-461.72"/>
</a>
</g>
</g>
<!-- Node5 -->
<g id="Node000005" class="node">
<title>Node5</title>
<g id="a_Node000005"><a xlink:href="structL4_1_1Ipc__svr_1_1Default__timeout.html" target="_top" xlink:title="Mix in for LOOP_HOOKS to use a 0 send and a infinite receive timeout.">
<polygon fill="white" stroke="transparent" points="221.5,-532 117.5,-532 117.5,-472 221.5,-472 221.5,-532"/>
<text text-anchor="start" x="122.5" y="-520" font-family="Helvetica,sans-Serif" font-size="10.00">L4::Ipc_svr::Default</text>
<text text-anchor="start" x="147.5" y="-509" font-family="Helvetica,sans-Serif" font-size="10.00">_timeout</text>
<text text-anchor="start" x="167.5" y="-494" font-family="Helvetica,sans-Serif" font-size="10.00"> </text>
<text text-anchor="start" x="167.5" y="-479" font-family="Helvetica,sans-Serif" font-size="10.00"> </text>
<polygon fill="#666666" stroke="#666666" points="117.5,-504 117.5,-504 221.5,-504 221.5,-504 117.5,-504"/>
<polygon fill="#666666" stroke="#666666" points="117.5,-489 117.5,-489 221.5,-489 221.5,-489 117.5,-489"/>
<polygon fill="none" stroke="#666666" points="117.5,-472 117.5,-532 221.5,-532 221.5,-472 117.5,-472"/>
</a>
</g>
</g>
<!-- Node5&#45;&gt;Node3 -->
<g id="edge4_Node000003_Node000005" class="edge">
<title>Node5&#45;&gt;Node3</title>
<g id="a_edge4_Node000003_Node000005"><a xlink:title=" ">
<path fill="none" stroke="#63b8ff" d="M187.48,-462.55C198.05,-439.96 211.19,-411.85 220.89,-391.1"/>
<polygon fill="none" stroke="#63b8ff" points="184.19,-461.32 183.13,-471.86 190.53,-464.29 184.19,-461.32"/>
</a>
</g>
</g>
<!-- Node6 -->
<g id="Node000006" class="node">
<title>Node6</title>
<g id="a_Node000006"><a xlink:href="structL4_1_1Ipc__svr_1_1Compound__reply.html" target="_top" xlink:title="Mix in for LOOP_HOOKS to always use compound reply and wait.">
<polygon fill="white" stroke="transparent" points="361,-532 240,-532 240,-472 361,-472 361,-532"/>
<text text-anchor="start" x="245.5" y="-520" font-family="Helvetica,sans-Serif" font-size="10.00">L4::Ipc_svr::Compound</text>
<text text-anchor="start" x="285.5" y="-509" font-family="Helvetica,sans-Serif" font-size="10.00">_reply</text>
<text text-anchor="start" x="299" y="-494" font-family="Helvetica,sans-Serif" font-size="10.00"> </text>
<text text-anchor="start" x="299" y="-479" font-family="Helvetica,sans-Serif" font-size="10.00"> </text>
<polygon fill="#666666" stroke="#666666" points="240.5,-504 240.5,-504 361.5,-504 361.5,-504 240.5,-504"/>
<polygon fill="#666666" stroke="#666666" points="240.5,-489 240.5,-489 361.5,-489 361.5,-489 240.5,-489"/>
<polygon fill="none" stroke="#666666" points="240,-472 240,-532 361,-532 361,-472 240,-472"/>
</a>
</g>
</g>
<!-- Node6&#45;&gt;Node3 -->
<g id="edge5_Node000003_Node000006" class="edge">
<title>Node6&#45;&gt;Node3</title>
<g id="a_edge5_Node000003_Node000006"><a xlink:title=" ">
<path fill="none" stroke="#63b8ff" d="M282.24,-462.55C271.52,-439.96 258.17,-411.85 248.32,-391.1"/>
<polygon fill="none" stroke="#63b8ff" points="279.21,-464.33 286.66,-471.86 285.54,-461.33 279.21,-464.33"/>
</a>
</g>
</g>
<!-- Node7 -->
<g id="Node000007" class="node">
<title>Node7</title>
<g id="a_Node000007"><a xlink:href="classL4_1_1Ipc__svr_1_1Br__manager__no__buffers.html" target="_top" xlink:title="Empty implementation of Server_iface.">
<polygon fill="white" stroke="transparent" points="510,-577 379,-577 379,-427 510,-427 510,-577"/>
<text text-anchor="start" x="386" y="-565" font-family="Helvetica,sans-Serif" font-size="10.00">L4::Ipc_svr::Br_manager</text>
<text text-anchor="start" x="416.5" y="-554" font-family="Helvetica,sans-Serif" font-size="10.00">_no_buffers</text>
<text text-anchor="start" x="443" y="-539" font-family="Helvetica,sans-Serif" font-size="10.00"> </text>
<text text-anchor="start" x="383.5" y="-524" font-family="Helvetica,sans-Serif" font-size="10.00">+</text>
<text text-anchor="start" x="396.5" y="-524" font-family="Helvetica,sans-Serif" font-size="10.00">alloc_buffer_demand()</text>
<text text-anchor="start" x="383.5" y="-509" font-family="Helvetica,sans-Serif" font-size="10.00">+</text>
<text text-anchor="start" x="396.5" y="-509" font-family="Helvetica,sans-Serif" font-size="10.00">get_rcv_cap()</text>
<text text-anchor="start" x="383.5" y="-494" font-family="Helvetica,sans-Serif" font-size="10.00">+</text>
<text text-anchor="start" x="396.5" y="-494" font-family="Helvetica,sans-Serif" font-size="10.00">realloc_rcv_cap()</text>
<text text-anchor="start" x="383.5" y="-479" font-family="Helvetica,sans-Serif" font-size="10.00">+</text>
<text text-anchor="start" x="396.5" y="-479" font-family="Helvetica,sans-Serif" font-size="10.00">add_timeout()</text>
<text text-anchor="start" x="383.5" y="-464" font-family="Helvetica,sans-Serif" font-size="10.00">+</text>
<text text-anchor="start" x="396.5" y="-464" font-family="Helvetica,sans-Serif" font-size="10.00">remove_timeout()</text>
<text text-anchor="start" x="383.5" y="-449" font-family="Helvetica,sans-Serif" font-size="10.00">#</text>
<text text-anchor="start" x="396.5" y="-449" font-family="Helvetica,sans-Serif" font-size="10.00">first_free_br()</text>
<text text-anchor="start" x="383.5" y="-434" font-family="Helvetica,sans-Serif" font-size="10.00">#</text>
<text text-anchor="start" x="396.5" y="-434" font-family="Helvetica,sans-Serif" font-size="10.00">setup_wait()</text>
<polygon fill="#666666" stroke="#666666" points="379.5,-549 379.5,-549 510.5,-549 510.5,-549 379.5,-549"/>
<polygon fill="#666666" stroke="#666666" points="379.5,-534 379.5,-534 510.5,-534 510.5,-534 379.5,-534"/>
<polygon fill="none" stroke="#666666" points="379,-427 379,-577 510,-577 510,-427 379,-427"/>
</a>
</g>
</g>
<!-- Node7&#45;&gt;Node3 -->
<g id="edge6_Node000003_Node000007" class="edge">
<title>Node7&#45;&gt;Node3</title>
<g id="a_edge6_Node000003_Node000007"><a xlink:title=" ">
<path fill="none" stroke="#63b8ff" d="M370.76,-427.19C370.68,-427.12 370.59,-427.06 370.5,-427 344.65,-408.71 312.85,-393.19 286.51,-381.91"/>
<polygon fill="none" stroke="#63b8ff" points="368.81,-430.09 378.91,-433.29 373,-424.49 368.81,-430.09"/>
</a>
</g>
</g>
<!-- Node8 -->
<g id="Node000008" class="node">
<title>Node8</title>
<g id="a_Node000008"><a xlink:href="classL4_1_1Ipc__svr_1_1Server__iface.html" target="_top" xlink:title="Interface for server&#45;loop related functions.">
<polygon fill="white" stroke="transparent" points="510,-778 379,-778 379,-613 510,-613 510,-778"/>
<text text-anchor="start" x="400" y="-765.5" font-family="Helvetica,sans-Serif" font-size="10.00">L4::Ipc_svr::Server</text>
<text text-anchor="start" x="430" y="-754.5" font-family="Helvetica,sans-Serif" font-size="10.00">_iface</text>
<text text-anchor="start" x="443" y="-739.5" font-family="Helvetica,sans-Serif" font-size="10.00"> </text>
<text text-anchor="start" x="383.5" y="-724.5" font-family="Helvetica,sans-Serif" font-size="10.00">+</text>
<text text-anchor="start" x="396.5" y="-724.5" font-family="Helvetica,sans-Serif" font-size="10.00">Server_iface()</text>
<text text-anchor="start" x="383.5" y="-709.5" font-family="Helvetica,sans-Serif" font-size="10.00">+</text>
<text text-anchor="start" x="396.5" y="-709.5" font-family="Helvetica,sans-Serif" font-size="10.00">alloc_buffer_demand()</text>
<text text-anchor="start" x="383.5" y="-694.5" font-family="Helvetica,sans-Serif" font-size="10.00">+</text>
<text text-anchor="start" x="396.5" y="-694.5" font-family="Helvetica,sans-Serif" font-size="10.00">get_rcv_cap()</text>
<text text-anchor="start" x="383.5" y="-679.5" font-family="Helvetica,sans-Serif" font-size="10.00">+</text>
<text text-anchor="start" x="396.5" y="-679.5" font-family="Helvetica,sans-Serif" font-size="10.00">realloc_rcv_cap()</text>
<text text-anchor="start" x="383.5" y="-664.5" font-family="Helvetica,sans-Serif" font-size="10.00">+</text>
<text text-anchor="start" x="396.5" y="-664.5" font-family="Helvetica,sans-Serif" font-size="10.00">add_timeout()</text>
<text text-anchor="start" x="383.5" y="-649.5" font-family="Helvetica,sans-Serif" font-size="10.00">+</text>
<text text-anchor="start" x="396.5" y="-649.5" font-family="Helvetica,sans-Serif" font-size="10.00">remove_timeout()</text>
<text text-anchor="start" x="383.5" y="-634.5" font-family="Helvetica,sans-Serif" font-size="10.00">+</text>
<text text-anchor="start" x="396.5" y="-634.5" font-family="Helvetica,sans-Serif" font-size="10.00">rcv_cap()</text>
<text text-anchor="start" x="383.5" y="-619.5" font-family="Helvetica,sans-Serif" font-size="10.00">+</text>
<text text-anchor="start" x="396.5" y="-619.5" font-family="Helvetica,sans-Serif" font-size="10.00">rcv_cap()</text>
<polygon fill="#666666" stroke="#666666" points="379.5,-749.5 379.5,-749.5 510.5,-749.5 510.5,-749.5 379.5,-749.5"/>
<polygon fill="#666666" stroke="#666666" points="379.5,-734.5 379.5,-734.5 510.5,-734.5 510.5,-734.5 379.5,-734.5"/>
<polygon fill="none" stroke="#666666" points="379,-613 379,-778 510,-778 510,-613 379,-613"/>
</a>
</g>
</g>
<!-- Node8&#45;&gt;Node7 -->
<g id="edge7_Node000007_Node000008" class="edge">
<title>Node8&#45;&gt;Node7</title>
<g id="a_edge7_Node000007_Node000008"><a xlink:title=" ">
<path fill="none" stroke="#63b8ff" d="M444.5,-602.73C444.5,-594.18 444.5,-585.59 444.5,-577.22"/>
<polygon fill="none" stroke="#63b8ff" points="441,-602.73 444.5,-612.73 448,-602.73 441,-602.73"/>
</a>
</g>
</g>
</g>
</svg>
