<?xml version="1.0" encoding="UTF-8" standalone="no"?>
<!DOCTYPE svg PUBLIC "-//W3C//DTD SVG 1.1//EN"
 "http://www.w3.org/Graphics/SVG/1.1/DTD/svg11.dtd">
<!-- Generated by graphviz version 2.42.4 (0)
 -->
<!-- Title: L4Re::Video::Goos Pages: 1 -->
<svg width="265pt" height="418pt"
 viewBox="0.00 0.00 265.00 418.00" xmlns="http://www.w3.org/2000/svg" xmlns:xlink="http://www.w3.org/1999/xlink">
<g id="graph0" class="graph" transform="scale(1 1) rotate(0) translate(4 414)">
<title>L4Re::Video::Goos</title>
<!-- Node1 -->
<g id="Node000001" class="node">
<title>Node1</title>
<g id="a_Node000001"><a xlink:title="Class that abstracts framebuffers.">
<polygon fill="#999999" stroke="transparent" points="161.5,-154 50.5,-154 50.5,0 161.5,0 161.5,-154"/>
<text text-anchor="start" x="62" y="-142" font-family="Helvetica,sans-Serif" font-size="10.00">L4Re::Video::Goos</text>
<text text-anchor="start" x="104.5" y="-127" font-family="Helvetica,sans-Serif" font-size="10.00"> </text>
<text text-anchor="start" x="55" y="-112" font-family="Helvetica,sans-Serif" font-size="10.00">+</text>
<text text-anchor="start" x="68" y="-112" font-family="Helvetica,sans-Serif" font-size="10.00">info()</text>
<text text-anchor="start" x="55" y="-97" font-family="Helvetica,sans-Serif" font-size="10.00">+</text>
<text text-anchor="start" x="68" y="-97" font-family="Helvetica,sans-Serif" font-size="10.00">get_static_buffer()</text>
<text text-anchor="start" x="55" y="-82" font-family="Helvetica,sans-Serif" font-size="10.00">+</text>
<text text-anchor="start" x="68" y="-82" font-family="Helvetica,sans-Serif" font-size="10.00">create_buffer()</text>
<text text-anchor="start" x="55" y="-67" font-family="Helvetica,sans-Serif" font-size="10.00">+</text>
<text text-anchor="start" x="68" y="-67" font-family="Helvetica,sans-Serif" font-size="10.00">delete_buffer()</text>
<text text-anchor="start" x="55" y="-52" font-family="Helvetica,sans-Serif" font-size="10.00">+</text>
<text text-anchor="start" x="68" y="-52" font-family="Helvetica,sans-Serif" font-size="10.00">create_view()</text>
<text text-anchor="start" x="55" y="-37" font-family="Helvetica,sans-Serif" font-size="10.00">+</text>
<text text-anchor="start" x="68" y="-37" font-family="Helvetica,sans-Serif" font-size="10.00">delete_view()</text>
<text text-anchor="start" x="55" y="-22" font-family="Helvetica,sans-Serif" font-size="10.00">+</text>
<text text-anchor="start" x="68" y="-22" font-family="Helvetica,sans-Serif" font-size="10.00">view()</text>
<text text-anchor="start" x="55" y="-7" font-family="Helvetica,sans-Serif" font-size="10.00">+</text>
<text text-anchor="start" x="68" y="-7" font-family="Helvetica,sans-Serif" font-size="10.00">refresh()</text>
<polygon fill="#666666" stroke="#666666" points="51,-137 51,-137 162,-137 162,-137 51,-137"/>
<polygon fill="#666666" stroke="#666666" points="51,-122 51,-122 162,-122 162,-122 51,-122"/>
<polygon fill="none" stroke="#666666" points="50.5,0 50.5,-154 161.5,-154 161.5,0 50.5,0"/>
</a>
</g>
</g>
<!-- Node2 -->
<g id="Node000002" class="node">
<title>Node2</title>
<g id="a_Node000002"><a xlink:href="classL4_1_1Kobject__t.html" target="_top" xlink:title=" ">
<polygon fill="white" stroke="transparent" points="174,-277 38,-277 38,-191 174,-191 174,-277"/>
<text text-anchor="start" x="43" y="-265" font-family="Helvetica,sans-Serif" font-size="10.00">L4::Kobject_t&lt; Goos,</text>
<text text-anchor="start" x="43" y="-254" font-family="Helvetica,sans-Serif" font-size="10.00"> L4::Kobject, L4RE_PROTO</text>
<text text-anchor="start" x="83" y="-243" font-family="Helvetica,sans-Serif" font-size="10.00">_GOOS &gt;</text>
<text text-anchor="start" x="104" y="-228" font-family="Helvetica,sans-Serif" font-size="10.00"> </text>
<text text-anchor="start" x="43.5" y="-213" font-family="Helvetica,sans-Serif" font-size="10.00">#</text>
<text text-anchor="start" x="58" y="-213" font-family="Helvetica,sans-Serif" font-size="10.00">c()</text>
<text text-anchor="start" x="43.5" y="-198" font-family="Helvetica,sans-Serif" font-size="10.00">#</text>
<text text-anchor="start" x="58" y="-198" font-family="Helvetica,sans-Serif" font-size="10.00">__check_protocols__()</text>
<polygon fill="#666666" stroke="#666666" points="38,-238 38,-238 174,-238 174,-238 38,-238"/>
<polygon fill="#666666" stroke="#666666" points="38,-223 38,-223 174,-223 174,-223 38,-223"/>
<polygon fill="none" stroke="#666666" points="38,-191 38,-277 174,-277 174,-191 38,-191"/>
</a>
</g>
</g>
<!-- Node2&#45;&gt;Node1 -->
<g id="edge1_Node000001_Node000002" class="edge">
<title>Node2&#45;&gt;Node1</title>
<g id="a_edge1_Node000001_Node000002"><a xlink:title=" ">
<path fill="none" stroke="#63b8ff" d="M106,-180.57C106,-172.1 106,-163.18 106,-154.28"/>
<polygon fill="none" stroke="#63b8ff" points="102.5,-180.65 106,-190.65 109.5,-180.65 102.5,-180.65"/>
</a>
</g>
</g>
<!-- Node3 -->
<g id="Node000003" class="node">
<title>Node3</title>
<g id="a_Node000003"><a xlink:href="classL4_1_1Kobject.html" target="_top" xlink:title="Base class for all kinds of kernel objects and remote objects, referenced by capabilities.">
<polygon fill="white" stroke="transparent" points="80,-404.5 0,-404.5 0,-340.5 80,-340.5 80,-404.5"/>
<text text-anchor="start" x="13" y="-392.5" font-family="Helvetica,sans-Serif" font-size="10.00">L4::Kobject</text>
<text text-anchor="start" x="38" y="-377.5" font-family="Helvetica,sans-Serif" font-size="10.00"> </text>
<text text-anchor="start" x="4" y="-362.5" font-family="Helvetica,sans-Serif" font-size="10.00">+</text>
<text text-anchor="start" x="17" y="-362.5" font-family="Helvetica,sans-Serif" font-size="10.00">dec_refcnt()</text>
<text text-anchor="start" x="4" y="-347.5" font-family="Helvetica,sans-Serif" font-size="10.00">#</text>
<text text-anchor="start" x="17" y="-347.5" font-family="Helvetica,sans-Serif" font-size="10.00">cap()</text>
<polygon fill="#666666" stroke="#666666" points="0,-387.5 0,-387.5 80,-387.5 80,-387.5 0,-387.5"/>
<polygon fill="#666666" stroke="#666666" points="0,-372.5 0,-372.5 80,-372.5 80,-372.5 0,-372.5"/>
<polygon fill="none" stroke="#666666" points="0,-340.5 0,-404.5 80,-404.5 80,-340.5 0,-340.5"/>
</a>
</g>
</g>
<!-- Node3&#45;&gt;Node2 -->
<g id="edge2_Node000002_Node000003" class="edge">
<title>Node3&#45;&gt;Node2</title>
<g id="a_edge2_Node000002_Node000003"><a xlink:title=" ">
<path fill="none" stroke="#63b8ff" d="M59.56,-331.05C67.79,-314.03 77.36,-294.22 85.68,-277.03"/>
<polygon fill="none" stroke="#63b8ff" points="56.34,-329.66 55.14,-340.18 62.65,-332.7 56.34,-329.66"/>
</a>
</g>
</g>
<!-- Node4 -->
<g id="Node000004" class="node">
<title>Node4</title>
<g id="a_Node000004"><a xlink:href="classL4_1_1Kobject__t.html" target="_top" xlink:title="Helper class to create an L4Re interface class that is derived from a single base class.">
<polygon fill="white" stroke="transparent" points="248,-410 98,-410 98,-335 248,-335 248,-410"/>
<text text-anchor="start" x="103" y="-397.5" font-family="Helvetica,sans-Serif" font-size="10.00">L4::Kobject_t&lt; Derived,</text>
<text text-anchor="start" x="103" y="-386.5" font-family="Helvetica,sans-Serif" font-size="10.00"> Base, PROTO, S_DEMAND &gt;</text>
<text text-anchor="start" x="171" y="-371.5" font-family="Helvetica,sans-Serif" font-size="10.00"> </text>
<text text-anchor="start" x="107" y="-356.5" font-family="Helvetica,sans-Serif" font-size="10.00">#</text>
<text text-anchor="start" x="125" y="-356.5" font-family="Helvetica,sans-Serif" font-size="10.00">c()</text>
<text text-anchor="start" x="107" y="-341.5" font-family="Helvetica,sans-Serif" font-size="10.00">#</text>
<text text-anchor="start" x="125" y="-341.5" font-family="Helvetica,sans-Serif" font-size="10.00">__check_protocols__()</text>
<polygon fill="#666666" stroke="#666666" points="98,-381.5 98,-381.5 248,-381.5 248,-381.5 98,-381.5"/>
<polygon fill="#666666" stroke="#666666" points="98,-366.5 98,-366.5 248,-366.5 248,-366.5 98,-366.5"/>
<polygon fill="none" stroke="#666666" points="98,-335 98,-410 248,-410 248,-335 98,-335"/>
</a>
</g>
</g>
<!-- Node4&#45;&gt;Node2 -->
<g id="edge3_Node000002_Node000004" class="edge">
<title>Node4&#45;&gt;Node2</title>
<g id="a_edge3_Node000002_Node000004"><a xlink:title=" ">
<path fill="none" stroke="orange" d="M150.43,-325.51C142.8,-309.98 134.34,-292.73 126.85,-277.49"/>
<polygon fill="orange" stroke="orange" points="147.5,-327.49 155.05,-334.92 153.78,-324.4 147.5,-327.49"/>
</a>
</g>
<text text-anchor="start" x="145" y="-309" font-family="Helvetica,sans-Serif" font-size="10.00" fill="grey"> &lt; Goos, L4::Kobject,</text>
<text text-anchor="middle" x="201" y="-298" font-family="Helvetica,sans-Serif" font-size="10.00" fill="grey"> L4RE_PROTO_GOOS &gt;</text>
</g>
</g>
</svg>
