<?xml version="1.0" encoding="UTF-8" standalone="no"?>
<!DOCTYPE svg PUBLIC "-//W3C//DTD SVG 1.1//EN"
 "http://www.w3.org/Graphics/SVG/1.1/DTD/svg11.dtd">
<!-- Generated by graphviz version 2.43.0 (0)
 -->
<!-- Title: L4virtio::Svr::Device_t::register_driver_irq Pages: 1 -->
<svg width="575pt" height="59pt"
 viewBox="0.00 0.00 575.00 59.00" xmlns="http://www.w3.org/2000/svg" xmlns:xlink="http://www.w3.org/1999/xlink">
<g id="graph0" class="graph" transform="scale(1 1) rotate(0) translate(4 55)">
<title>L4virtio::Svr::Device_t::register_driver_irq</title>
<!-- Node1 -->
<g id="Node000001" class="node">
<title>Node1</title>
<g id="a_Node000001"><a xlink:title="Callback for registering an notification IRQ (multi IRQ).">
<polygon fill="#999999" stroke="#666666" points="121,-51 0,-51 0,-21 121,-21 121,-51"/>
<text text-anchor="start" x="8" y="-39" font-family="Helvetica,sans-Serif" font-size="10.00">L4virtio::Svr::Device</text>
<text text-anchor="middle" x="60.5" y="-28" font-family="Helvetica,sans-Serif" font-size="10.00">_t::register_driver_irq</text>
</a>
</g>
</g>
<!-- Node2 -->
<g id="Node000002" class="node">
<title>Node2</title>
<g id="a_Node000002"><a xlink:href="namespaceL4Re.html#a3f17984019f06676a7e3eecb41bbb0bb" target="_top" xlink:title="Generate C++ exception on error.">
<polygon fill="white" stroke="#666666" points="428,-45.5 348,-45.5 348,-26.5 428,-26.5 428,-45.5"/>
<text text-anchor="middle" x="388" y="-33.5" font-family="Helvetica,sans-Serif" font-size="10.00">L4Re::chksys</text>
</a>
</g>
</g>
<!-- Node1&#45;&gt;Node2 -->
<g id="edge1_Node000001_Node000002" class="edge">
<title>Node1&#45;&gt;Node2</title>
<g id="a_edge1_Node000001_Node000002"><a xlink:title=" ">
<path fill="none" stroke="#63b8ff" d="M121.1,-38.16C132.99,-38.51 145.39,-38.82 157,-39 225.88,-40.08 243.12,-40.38 312,-39 320.24,-38.84 328.99,-38.57 337.5,-38.26"/>
<polygon fill="#63b8ff" stroke="#63b8ff" points="337.84,-41.75 347.7,-37.87 337.57,-34.76 337.84,-41.75"/>
</a>
</g>
</g>
<!-- Node4 -->
<g id="Node000004" class="node">
<title>Node4</title>
<g id="a_Node000004"><a xlink:href="classL4virtio_1_1Svr_1_1Device__t.html#a8047b37ac63d6b5f84bcb1886a06f1b2" target="_top" xlink:title="callback for registering a single guest IRQ for all queues (old&#45;style)">
<polygon fill="white" stroke="#666666" points="312,-30 157,-30 157,0 312,0 312,-30"/>
<text text-anchor="start" x="165" y="-18" font-family="Helvetica,sans-Serif" font-size="10.00">L4virtio::Svr::Device</text>
<text text-anchor="middle" x="234.5" y="-7" font-family="Helvetica,sans-Serif" font-size="10.00">_t::register_single_driver_irq</text>
</a>
</g>
</g>
<!-- Node1&#45;&gt;Node4 -->
<g id="edge3_Node000001_Node000004" class="edge">
<title>Node1&#45;&gt;Node4</title>
<g id="a_edge3_Node000001_Node000004"><a xlink:title=" ">
<path fill="none" stroke="#63b8ff" d="M121.17,-28.71C129.47,-27.7 138.13,-26.64 146.8,-25.58"/>
<polygon fill="#63b8ff" stroke="#63b8ff" points="147.46,-29.03 156.97,-24.34 146.62,-22.08 147.46,-29.03"/>
</a>
</g>
</g>
<!-- Node3 -->
<g id="Node000003" class="node">
<title>Node3</title>
<g id="a_Node000003"><a xlink:href="namespaceL4Re.html#ae27ac6f274f4ad1267d0d1c0c033c00b" target="_top" xlink:title="Generate C++ exception.">
<polygon fill="white" stroke="#666666" points="567,-45.5 464,-45.5 464,-26.5 567,-26.5 567,-45.5"/>
<text text-anchor="middle" x="515.5" y="-33.5" font-family="Helvetica,sans-Serif" font-size="10.00">L4Re::throw_error</text>
</a>
</g>
</g>
<!-- Node2&#45;&gt;Node3 -->
<g id="edge2_Node000002_Node000003" class="edge">
<title>Node2&#45;&gt;Node3</title>
<g id="a_edge2_Node000002_Node000003"><a xlink:title=" ">
<path fill="none" stroke="#63b8ff" d="M428.02,-36C436.19,-36 444.99,-36 453.74,-36"/>
<polygon fill="#63b8ff" stroke="#63b8ff" points="453.95,-39.5 463.95,-36 453.95,-32.5 453.95,-39.5"/>
</a>
</g>
</g>
<!-- Node4&#45;&gt;Node2 -->
<g id="edge4_Node000004_Node000002" class="edge">
<title>Node4&#45;&gt;Node2</title>
<g id="a_edge4_Node000004_Node000002"><a xlink:title=" ">
<path fill="none" stroke="#63b8ff" d="M312.14,-25.62C320.81,-26.82 329.46,-28.02 337.65,-29.16"/>
<polygon fill="#63b8ff" stroke="#63b8ff" points="337.34,-32.65 347.73,-30.56 338.3,-25.72 337.34,-32.65"/>
</a>
</g>
</g>
</g>
</svg>
