<?xml version="1.0" encoding="UTF-8" standalone="no"?>
<!DOCTYPE svg PUBLIC "-//W3C//DTD SVG 1.1//EN"
 "http://www.w3.org/Graphics/SVG/1.1/DTD/svg11.dtd">
<!-- Generated by graphviz version 2.42.4 (0)
 -->
<!-- Title: L4virtio::Driver::Virtqueue::find_next_used Pages: 1 -->
<svg width="689pt" height="110pt"
 viewBox="0.00 0.00 689.00 110.00" xmlns="http://www.w3.org/2000/svg" xmlns:xlink="http://www.w3.org/1999/xlink">
<g id="graph0" class="graph" transform="scale(1 1) rotate(0) translate(4 106)">
<title>L4virtio::Driver::Virtqueue::find_next_used</title>
<!-- Node1 -->
<g id="Node000001" class="node">
<title>Node1</title>
<g id="a_Node000001"><a xlink:title="Return the next finished block.">
<polygon fill="#999999" stroke="#666666" points="681,-78 538,-78 538,-48 681,-48 681,-78"/>
<text text-anchor="start" x="546" y="-66" font-family="Helvetica,sans-Serif" font-size="10.00">L4virtio::Driver::Virtqueue</text>
<text text-anchor="middle" x="609.5" y="-55" font-family="Helvetica,sans-Serif" font-size="10.00">::find_next_used</text>
</a>
</g>
</g>
<!-- Node2 -->
<g id="Node000002" class="node">
<title>Node2</title>
<g id="a_Node000002"><a xlink:href="classL4virtio_1_1Driver_1_1Block__device.html#a9f1a7a08e90ca6c1441bd48abc8b574a" target="_top" xlink:title="Process and free all items in the used queue.">
<polygon fill="white" stroke="#666666" points="502,-102 341,-102 341,-72 502,-72 502,-102"/>
<text text-anchor="start" x="349" y="-90" font-family="Helvetica,sans-Serif" font-size="10.00">L4virtio::Driver::Block</text>
<text text-anchor="middle" x="421.5" y="-79" font-family="Helvetica,sans-Serif" font-size="10.00">_device::process_used_queue</text>
</a>
</g>
</g>
<!-- Node1&#45;&gt;Node2 -->
<g id="edge1_Node000001_Node000002" class="edge">
<title>Node1&#45;&gt;Node2</title>
<g id="a_edge1_Node000001_Node000002"><a xlink:title=" ">
<path fill="none" stroke="#63b8ff" d="M527.93,-73.4C519.35,-74.5 510.63,-75.63 502.06,-76.73"/>
<polygon fill="#63b8ff" stroke="#63b8ff" points="528.45,-76.86 537.92,-72.11 527.55,-69.92 528.45,-76.86"/>
</a>
</g>
</g>
<!-- Node3 -->
<g id="Node000003" class="node">
<title>Node3</title>
<g id="a_Node000003"><a xlink:href="classL4virtio_1_1Driver_1_1Device.html#a3b5274cb8d4e708beea944038b855885" target="_top" xlink:title="Wait for the next item to arrive in the used queue and return it.">
<polygon fill="white" stroke="#666666" points="486,-54 357,-54 357,-24 486,-24 486,-54"/>
<text text-anchor="start" x="365" y="-42" font-family="Helvetica,sans-Serif" font-size="10.00">L4virtio::Driver::Device</text>
<text text-anchor="middle" x="421.5" y="-31" font-family="Helvetica,sans-Serif" font-size="10.00">::wait_for_next_used</text>
</a>
</g>
</g>
<!-- Node1&#45;&gt;Node3 -->
<g id="edge2_Node000001_Node000003" class="edge">
<title>Node1&#45;&gt;Node3</title>
<g id="a_edge2_Node000001_Node000003"><a xlink:title=" ">
<path fill="none" stroke="#63b8ff" d="M527.82,-52.59C513.83,-50.78 499.46,-48.93 486.01,-47.2"/>
<polygon fill="#63b8ff" stroke="#63b8ff" points="527.55,-56.08 537.92,-53.89 528.45,-49.14 527.55,-56.08"/>
</a>
</g>
</g>
<!-- Node4 -->
<g id="Node000004" class="node">
<title>Node4</title>
<g id="a_Node000004"><a xlink:href="classL4virtio_1_1Driver_1_1Device.html#af4aa9ac34ce928b9d437f1bb6a2ec216" target="_top" xlink:title="Send a request to the device and wait for it to be processed.">
<polygon fill="white" stroke="#666666" points="305,-78 176,-78 176,-48 305,-48 305,-78"/>
<text text-anchor="start" x="184" y="-66" font-family="Helvetica,sans-Serif" font-size="10.00">L4virtio::Driver::Device</text>
<text text-anchor="middle" x="240.5" y="-55" font-family="Helvetica,sans-Serif" font-size="10.00">::send_and_wait</text>
</a>
</g>
</g>
<!-- Node3&#45;&gt;Node4 -->
<g id="edge3_Node000003_Node000004" class="edge">
<title>Node3&#45;&gt;Node4</title>
<g id="a_edge3_Node000003_Node000004"><a xlink:title=" ">
<path fill="none" stroke="#63b8ff" d="M346.92,-48.87C333.08,-50.72 318.72,-52.65 305.21,-54.46"/>
<polygon fill="#63b8ff" stroke="#63b8ff" points="347.44,-52.33 356.89,-47.53 346.51,-45.39 347.44,-52.33"/>
</a>
</g>
</g>
<!-- Node6 -->
<g id="Node000006" class="node">
<title>Node6</title>
<g id="a_Node000006"><a xlink:href="classL4virtio_1_1Driver_1_1Virtio__net__device.html#a90e89b3a94f186cb9b3191f35868668e" target="_top" xlink:title="Block until a network packet has been received from the device and return the descriptor number.">
<polygon fill="white" stroke="#666666" points="301.5,-30 179.5,-30 179.5,0 301.5,0 301.5,-30"/>
<text text-anchor="start" x="187.5" y="-18" font-family="Helvetica,sans-Serif" font-size="10.00">L4virtio::Driver::Virtio</text>
<text text-anchor="middle" x="240.5" y="-7" font-family="Helvetica,sans-Serif" font-size="10.00">_net_device::wait_rx</text>
</a>
</g>
</g>
<!-- Node3&#45;&gt;Node6 -->
<g id="edge5_Node000003_Node000006" class="edge">
<title>Node3&#45;&gt;Node6</title>
<g id="a_edge5_Node000003_Node000006"><a xlink:title=" ">
<path fill="none" stroke="#63b8ff" d="M346.63,-29.1C331.64,-27.09 316.05,-25 301.61,-23.06"/>
<polygon fill="#63b8ff" stroke="#63b8ff" points="346.51,-32.61 356.89,-30.47 347.44,-25.67 346.51,-32.61"/>
</a>
</g>
</g>
<!-- Node5 -->
<g id="Node000005" class="node">
<title>Node5</title>
<g id="a_Node000005"><a xlink:href="classL4virtio_1_1Driver_1_1Block__device.html#a63f21e71556accc8c669ef80161ecd8e" target="_top" xlink:title="Process request synchronously.">
<polygon fill="white" stroke="#666666" points="140,-78 0,-78 0,-48 140,-48 140,-78"/>
<text text-anchor="start" x="8" y="-66" font-family="Helvetica,sans-Serif" font-size="10.00">L4virtio::Driver::Block</text>
<text text-anchor="middle" x="70" y="-55" font-family="Helvetica,sans-Serif" font-size="10.00">_device::process_request</text>
</a>
</g>
</g>
<!-- Node4&#45;&gt;Node5 -->
<g id="edge4_Node000004_Node000005" class="edge">
<title>Node4&#45;&gt;Node5</title>
<g id="a_edge4_Node000004_Node000005"><a xlink:title=" ">
<path fill="none" stroke="#63b8ff" d="M165.58,-63C157.12,-63 148.53,-63 140.14,-63"/>
<polygon fill="#63b8ff" stroke="#63b8ff" points="165.8,-66.5 175.8,-63 165.8,-59.5 165.8,-66.5"/>
</a>
</g>
</g>
</g>
</svg>
