<?xml version="1.0" encoding="UTF-8" standalone="no"?>
<!DOCTYPE svg PUBLIC "-//W3C//DTD SVG 1.1//EN"
 "http://www.w3.org/Graphics/SVG/1.1/DTD/svg11.dtd">
<!-- Generated by graphviz version 2.42.4 (0)
 -->
<!-- Title: L4Re::Util::Event_buffer_t&lt; PAYLOAD &gt; Pages: 1 -->
<svg width="141pt" height="362pt"
 viewBox="0.00 0.00 140.50 362.00" xmlns="http://www.w3.org/2000/svg" xmlns:xlink="http://www.w3.org/1999/xlink">
<g id="graph0" class="graph" transform="scale(1 1) rotate(0) translate(4 358)">
<title>L4Re::Util::Event_buffer_t&lt; PAYLOAD &gt;</title>
<!-- Node1 -->
<g id="Node000001" class="node">
<title>Node1</title>
<g id="a_Node000001"><a xlink:title="Event_buffer utility class.">
<polygon fill="#999999" stroke="transparent" points="125,-90 0,-90 0,0 125,0 125,-90"/>
<text text-anchor="start" x="5.5" y="-78" font-family="Helvetica,sans-Serif" font-size="10.00">L4Re::Util::Event_buffer</text>
<text text-anchor="start" x="25" y="-67" font-family="Helvetica,sans-Serif" font-size="10.00">_t&lt; PAYLOAD &gt;</text>
<text text-anchor="start" x="61" y="-52" font-family="Helvetica,sans-Serif" font-size="10.00"> </text>
<text text-anchor="start" x="20" y="-37" font-family="Helvetica,sans-Serif" font-size="10.00">+</text>
<text text-anchor="start" x="48.5" y="-37" font-family="Helvetica,sans-Serif" font-size="10.00">buf()</text>
<text text-anchor="start" x="20" y="-22" font-family="Helvetica,sans-Serif" font-size="10.00">+</text>
<text text-anchor="start" x="48.5" y="-22" font-family="Helvetica,sans-Serif" font-size="10.00">attach()</text>
<text text-anchor="start" x="20" y="-7" font-family="Helvetica,sans-Serif" font-size="10.00">+</text>
<text text-anchor="start" x="48.5" y="-7" font-family="Helvetica,sans-Serif" font-size="10.00">detach()</text>
<polygon fill="#666666" stroke="#666666" points="0.5,-62 0.5,-62 125.5,-62 125.5,-62 0.5,-62"/>
<polygon fill="#666666" stroke="#666666" points="0.5,-47 0.5,-47 125.5,-47 125.5,-47 0.5,-47"/>
<polygon fill="none" stroke="#666666" points="0,0 0,-90 125,-90 125,0 0,0"/>
</a>
</g>
</g>
<!-- Node2 -->
<g id="Node000002" class="node">
<title>Node2</title>
<g id="a_Node000002"><a xlink:href="classL4Re_1_1Event__buffer__t.html" target="_top" xlink:title=" ">
<polygon fill="white" stroke="transparent" points="113.5,-217 11.5,-217 11.5,-127 113.5,-127 113.5,-217"/>
<text text-anchor="start" x="16.5" y="-205" font-family="Helvetica,sans-Serif" font-size="10.00">L4Re::Event_buffer</text>
<text text-anchor="start" x="24.5" y="-194" font-family="Helvetica,sans-Serif" font-size="10.00">_t&lt; PAYLOAD &gt;</text>
<text text-anchor="start" x="60.5" y="-179" font-family="Helvetica,sans-Serif" font-size="10.00"> </text>
<text text-anchor="start" x="16" y="-164" font-family="Helvetica,sans-Serif" font-size="10.00">+</text>
<text text-anchor="start" x="29.5" y="-164" font-family="Helvetica,sans-Serif" font-size="10.00">Event_buffer_t()</text>
<text text-anchor="start" x="16" y="-149" font-family="Helvetica,sans-Serif" font-size="10.00">+</text>
<text text-anchor="start" x="29.5" y="-149" font-family="Helvetica,sans-Serif" font-size="10.00">next()</text>
<text text-anchor="start" x="16" y="-134" font-family="Helvetica,sans-Serif" font-size="10.00">+</text>
<text text-anchor="start" x="29.5" y="-134" font-family="Helvetica,sans-Serif" font-size="10.00">put()</text>
<polygon fill="#666666" stroke="#666666" points="11.5,-189 11.5,-189 113.5,-189 113.5,-189 11.5,-189"/>
<polygon fill="#666666" stroke="#666666" points="11.5,-174 11.5,-174 113.5,-174 113.5,-174 11.5,-174"/>
<polygon fill="none" stroke="#666666" points="11.5,-127 11.5,-217 113.5,-217 113.5,-127 11.5,-127"/>
</a>
</g>
</g>
<!-- Node2&#45;&gt;Node1 -->
<g id="edge1_Node000001_Node000002" class="edge">
<title>Node2&#45;&gt;Node1</title>
<g id="a_edge1_Node000001_Node000002"><a xlink:title=" ">
<path fill="none" stroke="#63b8ff" d="M62.5,-116.66C62.5,-107.78 62.5,-98.68 62.5,-90.09"/>
<polygon fill="none" stroke="#63b8ff" points="59,-116.93 62.5,-126.93 66,-116.93 59,-116.93"/>
</a>
</g>
</g>
<!-- Node3 -->
<g id="Node000003" class="node">
<title>Node3</title>
<g id="a_Node000003"><a xlink:href="classL4Re_1_1Event__buffer__t.html" target="_top" xlink:title="Event buffer class.">
<polygon fill="white" stroke="transparent" points="113.5,-354 11.5,-354 11.5,-264 113.5,-264 113.5,-354"/>
<text text-anchor="start" x="16.5" y="-342" font-family="Helvetica,sans-Serif" font-size="10.00">L4Re::Event_buffer</text>
<text text-anchor="start" x="24.5" y="-331" font-family="Helvetica,sans-Serif" font-size="10.00">_t&lt; PAYLOAD &gt;</text>
<text text-anchor="start" x="60.5" y="-316" font-family="Helvetica,sans-Serif" font-size="10.00"> </text>
<text text-anchor="start" x="16" y="-301" font-family="Helvetica,sans-Serif" font-size="10.00">+</text>
<text text-anchor="start" x="29.5" y="-301" font-family="Helvetica,sans-Serif" font-size="10.00">Event_buffer_t()</text>
<text text-anchor="start" x="16" y="-286" font-family="Helvetica,sans-Serif" font-size="10.00">+</text>
<text text-anchor="start" x="29.5" y="-286" font-family="Helvetica,sans-Serif" font-size="10.00">next()</text>
<text text-anchor="start" x="16" y="-271" font-family="Helvetica,sans-Serif" font-size="10.00">+</text>
<text text-anchor="start" x="29.5" y="-271" font-family="Helvetica,sans-Serif" font-size="10.00">put()</text>
<polygon fill="#666666" stroke="#666666" points="11.5,-326 11.5,-326 113.5,-326 113.5,-326 11.5,-326"/>
<polygon fill="#666666" stroke="#666666" points="11.5,-311 11.5,-311 113.5,-311 113.5,-311 11.5,-311"/>
<polygon fill="none" stroke="#666666" points="11.5,-264 11.5,-354 113.5,-354 113.5,-264 11.5,-264"/>
</a>
</g>
</g>
<!-- Node3&#45;&gt;Node2 -->
<g id="edge2_Node000002_Node000003" class="edge">
<title>Node3&#45;&gt;Node2</title>
<g id="a_edge2_Node000002_Node000003"><a xlink:title=" ">
<path fill="none" stroke="orange" d="M62.5,-253.79C62.5,-241.68 62.5,-228.96 62.5,-217.3"/>
<polygon fill="orange" stroke="orange" points="59,-253.8 62.5,-263.8 66,-253.8 59,-253.8"/>
</a>
</g>
<text text-anchor="middle" x="97.5" y="-238" font-family="Helvetica,sans-Serif" font-size="10.00" fill="grey"> &lt; PAYLOAD &gt;</text>
</g>
</g>
</svg>
