<?xml version="1.0" encoding="UTF-8" standalone="no"?>
<!DOCTYPE svg PUBLIC "-//W3C//DTD SVG 1.1//EN"
 "http://www.w3.org/Graphics/SVG/1.1/DTD/svg11.dtd">
<!-- Generated by graphviz version 2.42.4 (0)
 -->
<!-- Title: L4virtio::Svr::Console::Virtio_con::port_open Pages: 1 -->
<svg width="503pt" height="98pt"
 viewBox="0.00 0.00 503.00 97.50" xmlns="http://www.w3.org/2000/svg" xmlns:xlink="http://www.w3.org/1999/xlink">
<g id="graph0" class="graph" transform="scale(1 1) rotate(0) translate(4 93.5)">
<title>L4virtio::Svr::Console::Virtio_con::port_open</title>
<!-- Node1 -->
<g id="Node000001" class="node">
<title>Node1</title>
<g id="a_Node000001"><a xlink:title="Send a PORT_OPEN message and update the internal state.">
<polygon fill="#999999" stroke="#666666" points="495,-62.5 369,-62.5 369,-32.5 495,-32.5 495,-62.5"/>
<text text-anchor="start" x="377" y="-50.5" font-family="Helvetica,sans-Serif" font-size="10.00">L4virtio::Svr::Console</text>
<text text-anchor="middle" x="432" y="-39.5" font-family="Helvetica,sans-Serif" font-size="10.00">::Virtio_con::port_open</text>
</a>
</g>
</g>
<!-- Node2 -->
<g id="Node000002" class="node">
<title>Node2</title>
<g id="a_Node000002"><a xlink:href="classL4virtio_1_1Svr_1_1Console_1_1Device.html#a718fd3f1885b00a1ac6f0d9d33e4b9f4" target="_top" xlink:title="Callback called on PORT_OPEN event.">
<polygon fill="white" stroke="#666666" points="333,-89.5 179,-89.5 179,-59.5 333,-59.5 333,-89.5"/>
<text text-anchor="start" x="187" y="-77.5" font-family="Helvetica,sans-Serif" font-size="10.00">L4virtio::Svr::Console</text>
<text text-anchor="middle" x="256" y="-66.5" font-family="Helvetica,sans-Serif" font-size="10.00">::Device::process_port_open</text>
</a>
</g>
</g>
<!-- Node1&#45;&gt;Node2 -->
<g id="edge1_Node000001_Node000002" class="edge">
<title>Node1&#45;&gt;Node2</title>
<g id="a_edge1_Node000001_Node000002"><a xlink:title=" ">
<path fill="none" stroke="#63b8ff" d="M358.56,-58.74C350.17,-60.04 341.6,-61.37 333.17,-62.68"/>
<polygon fill="#63b8ff" stroke="#63b8ff" points="359.33,-62.16 368.67,-57.17 358.26,-55.25 359.33,-62.16"/>
</a>
</g>
</g>
<!-- Node3 -->
<g id="Node000003" class="node">
<title>Node3</title>
<g id="a_Node000003"><a xlink:href="classL4virtio_1_1Svr_1_1Console_1_1Device.html#a5f8d5752548def0f7db1cbade7918d6a" target="_top" xlink:title="Try to resend a stalled control message and update the port and global state accordingly.">
<polygon fill="white" stroke="#666666" points="323,-41 189,-41 189,0 323,0 323,-41"/>
<text text-anchor="start" x="197" y="-29" font-family="Helvetica,sans-Serif" font-size="10.00">L4virtio::Svr::Console</text>
<text text-anchor="start" x="197" y="-18" font-family="Helvetica,sans-Serif" font-size="10.00">::Device::resend_stalled</text>
<text text-anchor="middle" x="256" y="-7" font-family="Helvetica,sans-Serif" font-size="10.00">_control_messages</text>
</a>
</g>
</g>
<!-- Node1&#45;&gt;Node3 -->
<g id="edge2_Node000001_Node000003" class="edge">
<title>Node1&#45;&gt;Node3</title>
<g id="a_edge2_Node000001_Node000003"><a xlink:title=" ">
<path fill="none" stroke="#63b8ff" d="M358.46,-36.24C346.71,-34.42 334.59,-32.54 323.01,-30.74"/>
<polygon fill="#63b8ff" stroke="#63b8ff" points="358.26,-39.75 368.67,-37.83 359.33,-32.84 358.26,-39.75"/>
</a>
</g>
</g>
<!-- Node4 -->
<g id="Node000004" class="node">
<title>Node4</title>
<g id="a_Node000004"><a xlink:href="classL4virtio_1_1Svr_1_1Console_1_1Device.html#a7df13c65e5b01e4bd8140a1c9b6b3858" target="_top" xlink:title="Receive new control messages and resend stalled ones.">
<polygon fill="white" stroke="#666666" points="143,-35.5 0,-35.5 0,-5.5 143,-5.5 143,-35.5"/>
<text text-anchor="start" x="8" y="-23.5" font-family="Helvetica,sans-Serif" font-size="10.00">L4virtio::Svr::Console</text>
<text text-anchor="middle" x="71.5" y="-12.5" font-family="Helvetica,sans-Serif" font-size="10.00">::Device::do_control_work</text>
</a>
</g>
</g>
<!-- Node3&#45;&gt;Node4 -->
<g id="edge3_Node000003_Node000004" class="edge">
<title>Node3&#45;&gt;Node4</title>
<g id="a_edge3_Node000003_Node000004"><a xlink:title=" ">
<path fill="none" stroke="#63b8ff" d="M178.6,-20.5C166.82,-20.5 154.69,-20.5 143.04,-20.5"/>
<polygon fill="#63b8ff" stroke="#63b8ff" points="178.86,-24 188.86,-20.5 178.86,-17 178.86,-24"/>
</a>
</g>
</g>
</g>
</svg>
