<?xml version="1.0" encoding="UTF-8" standalone="no"?>
<!DOCTYPE svg PUBLIC "-//W3C//DTD SVG 1.1//EN"
 "http://www.w3.org/Graphics/SVG/1.1/DTD/svg11.dtd">
<!-- Generated by graphviz version 2.42.4 (0)
 -->
<!-- Title: cxx::New_allocator&lt; _Type &gt; Pages: 1 -->
<svg width="356pt" height="175pt"
 viewBox="0.00 0.00 356.00 175.00" xmlns="http://www.w3.org/2000/svg" xmlns:xlink="http://www.w3.org/1999/xlink">
<g id="graph0" class="graph" transform="scale(1 1) rotate(0) translate(4 171)">
<title>cxx::New_allocator&lt; _Type &gt;</title>
<!-- Node1 -->
<g id="Node000001" class="node">
<title>Node1</title>
<g id="a_Node000001"><a xlink:title="Standard allocator based on operator new () .">
<polygon fill="#999999" stroke="transparent" points="226,-167 122,-167 122,-107 226,-107 226,-167"/>
<text text-anchor="start" x="127" y="-155" font-family="Helvetica,sans-Serif" font-size="10.00">cxx::New_allocator</text>
<text text-anchor="start" x="148.5" y="-144" font-family="Helvetica,sans-Serif" font-size="10.00">&lt; _Type &gt;</text>
<text text-anchor="start" x="172" y="-129" font-family="Helvetica,sans-Serif" font-size="10.00"> </text>
<text text-anchor="start" x="172" y="-114" font-family="Helvetica,sans-Serif" font-size="10.00"> </text>
<polygon fill="#666666" stroke="#666666" points="122,-139 122,-139 226,-139 226,-139 122,-139"/>
<polygon fill="#666666" stroke="#666666" points="122,-124 122,-124 226,-124 226,-124 122,-124"/>
<polygon fill="none" stroke="#666666" points="122,-107 122,-167 226,-167 226,-107 122,-107"/>
</a>
</g>
</g>
<!-- Node2 -->
<g id="Node000002" class="node">
<title>Node2</title>
<g id="a_Node000002"><a xlink:href="classcxx_1_1New__allocator.html" target="_top" xlink:title=" ">
<polygon fill="white" stroke="transparent" points="104,-60 0,-60 0,0 104,0 104,-60"/>
<text text-anchor="start" x="5" y="-48" font-family="Helvetica,sans-Serif" font-size="10.00">cxx::New_allocator</text>
<text text-anchor="start" x="25" y="-37" font-family="Helvetica,sans-Serif" font-size="10.00">&lt; _Node &gt;</text>
<text text-anchor="start" x="50" y="-22" font-family="Helvetica,sans-Serif" font-size="10.00"> </text>
<text text-anchor="start" x="50" y="-7" font-family="Helvetica,sans-Serif" font-size="10.00"> </text>
<polygon fill="#666666" stroke="#666666" points="0,-32 0,-32 104,-32 104,-32 0,-32"/>
<polygon fill="#666666" stroke="#666666" points="0,-17 0,-17 104,-17 104,-17 0,-17"/>
<polygon fill="none" stroke="#666666" points="0,0 0,-60 104,-60 104,0 0,0"/>
</a>
</g>
</g>
<!-- Node1&#45;&gt;Node2 -->
<g id="edge1_Node000001_Node000002" class="edge">
<title>Node1&#45;&gt;Node2</title>
<g id="a_edge1_Node000001_Node000002"><a xlink:title=" ">
<path fill="none" stroke="orange" d="M126.84,-100.45C122.11,-96.65 117.42,-92.79 113,-89 102.46,-79.97 91.34,-69.65 81.52,-60.25"/>
<polygon fill="orange" stroke="orange" points="124.78,-103.29 134.8,-106.76 129.13,-97.8 124.78,-103.29"/>
</a>
</g>
<text text-anchor="middle" x="141.5" y="-81" font-family="Helvetica,sans-Serif" font-size="10.00" fill="grey"> &lt; _Node &gt;</text>
</g>
<!-- Node3 -->
<g id="Node000003" class="node">
<title>Node3</title>
<g id="a_Node000003"><a xlink:href="classcxx_1_1New__allocator.html" target="_top" xlink:title=" ">
<polygon fill="white" stroke="transparent" points="226,-60 122,-60 122,0 226,0 226,-60"/>
<text text-anchor="start" x="127" y="-48" font-family="Helvetica,sans-Serif" font-size="10.00">cxx::New_allocator</text>
<text text-anchor="start" x="148" y="-37" font-family="Helvetica,sans-Serif" font-size="10.00">&lt; Slab_i &gt;</text>
<text text-anchor="start" x="172" y="-22" font-family="Helvetica,sans-Serif" font-size="10.00"> </text>
<text text-anchor="start" x="172" y="-7" font-family="Helvetica,sans-Serif" font-size="10.00"> </text>
<polygon fill="#666666" stroke="#666666" points="122,-32 122,-32 226,-32 226,-32 122,-32"/>
<polygon fill="#666666" stroke="#666666" points="122,-17 122,-17 226,-17 226,-17 122,-17"/>
<polygon fill="none" stroke="#666666" points="122,0 122,-60 226,-60 226,0 122,0"/>
</a>
</g>
</g>
<!-- Node1&#45;&gt;Node3 -->
<g id="edge2_Node000001_Node000003" class="edge">
<title>Node1&#45;&gt;Node3</title>
<g id="a_edge2_Node000001_Node000003"><a xlink:title=" ">
<path fill="none" stroke="orange" d="M174,-96.46C174,-84.39 174,-71.34 174,-60.09"/>
<polygon fill="orange" stroke="orange" points="170.5,-96.75 174,-106.75 177.5,-96.75 170.5,-96.75"/>
</a>
</g>
<text text-anchor="middle" x="201.5" y="-81" font-family="Helvetica,sans-Serif" font-size="10.00" fill="grey"> &lt; Slab_i &gt;</text>
</g>
<!-- Node4 -->
<g id="Node000004" class="node">
<title>Node4</title>
<g id="a_Node000004"><a xlink:href="classcxx_1_1New__allocator.html" target="_top" xlink:title=" ">
<polygon fill="white" stroke="transparent" points="348,-60 244,-60 244,0 348,0 348,-60"/>
<text text-anchor="start" x="249" y="-48" font-family="Helvetica,sans-Serif" font-size="10.00">cxx::New_allocator</text>
<text text-anchor="start" x="271.5" y="-37" font-family="Helvetica,sans-Serif" font-size="10.00">&lt; Node &gt;</text>
<text text-anchor="start" x="294" y="-22" font-family="Helvetica,sans-Serif" font-size="10.00"> </text>
<text text-anchor="start" x="294" y="-7" font-family="Helvetica,sans-Serif" font-size="10.00"> </text>
<polygon fill="#666666" stroke="#666666" points="244,-32 244,-32 348,-32 348,-32 244,-32"/>
<polygon fill="#666666" stroke="#666666" points="244,-17 244,-17 348,-17 348,-17 244,-17"/>
<polygon fill="none" stroke="#666666" points="244,0 244,-60 348,-60 348,0 244,0"/>
</a>
</g>
</g>
<!-- Node1&#45;&gt;Node4 -->
<g id="edge3_Node000001_Node000004" class="edge">
<title>Node1&#45;&gt;Node4</title>
<g id="a_edge3_Node000001_Node000004"><a xlink:title=" ">
<path fill="none" stroke="orange" d="M219.3,-100.45C223.97,-96.63 228.6,-92.77 233,-89 243.73,-79.81 255.17,-69.45 265.31,-60.06"/>
<polygon fill="orange" stroke="orange" points="217.03,-97.79 211.47,-106.81 221.44,-103.23 217.03,-97.79"/>
</a>
</g>
<text text-anchor="middle" x="271" y="-81" font-family="Helvetica,sans-Serif" font-size="10.00" fill="grey"> &lt; Node &gt;</text>
</g>
</g>
</svg>
