<?xml version="1.0" encoding="UTF-8" standalone="no"?>
<!DOCTYPE svg PUBLIC "-//W3C//DTD SVG 1.1//EN"
 "http://www.w3.org/Graphics/SVG/1.1/DTD/svg11.dtd">
<!-- Generated by graphviz version 2.42.4 (0)
 -->
<!-- Title: L4Re::Util::Object_registry Pages: 1 -->
<svg width="706pt" height="916pt"
 viewBox="0.00 0.00 706.00 916.00" xmlns="http://www.w3.org/2000/svg" xmlns:xlink="http://www.w3.org/1999/xlink">
<g id="graph0" class="graph" transform="scale(1 1) rotate(0) translate(4 912)">
<title>L4Re::Util::Object_registry</title>
<!-- Node1 -->
<g id="Node000001" class="node">
<title>Node1</title>
<g id="a_Node000001"><a xlink:title="A registry that manages server objects and their attached IPC gates for a single server loop for a sp...">
<polygon fill="#999999" stroke="transparent" points="364,-150 259,-150 259,0 364,0 364,-150"/>
<text text-anchor="start" x="269.5" y="-138" font-family="Helvetica,sans-Serif" font-size="10.00">L4Re::Util::Object</text>
<text text-anchor="start" x="290.5" y="-127" font-family="Helvetica,sans-Serif" font-size="10.00">_registry</text>
<text text-anchor="start" x="310" y="-112" font-family="Helvetica,sans-Serif" font-size="10.00"> </text>
<text text-anchor="start" x="263.5" y="-97" font-family="Helvetica,sans-Serif" font-size="10.00">+</text>
<text text-anchor="start" x="276.5" y="-97" font-family="Helvetica,sans-Serif" font-size="10.00">Object_registry()</text>
<text text-anchor="start" x="263.5" y="-82" font-family="Helvetica,sans-Serif" font-size="10.00">+</text>
<text text-anchor="start" x="276.5" y="-82" font-family="Helvetica,sans-Serif" font-size="10.00">Object_registry()</text>
<text text-anchor="start" x="263.5" y="-67" font-family="Helvetica,sans-Serif" font-size="10.00">+</text>
<text text-anchor="start" x="276.5" y="-67" font-family="Helvetica,sans-Serif" font-size="10.00">register_obj()</text>
<text text-anchor="start" x="263.5" y="-52" font-family="Helvetica,sans-Serif" font-size="10.00">+</text>
<text text-anchor="start" x="276.5" y="-52" font-family="Helvetica,sans-Serif" font-size="10.00">register_obj()</text>
<text text-anchor="start" x="263.5" y="-37" font-family="Helvetica,sans-Serif" font-size="10.00">+</text>
<text text-anchor="start" x="276.5" y="-37" font-family="Helvetica,sans-Serif" font-size="10.00">register_irq_obj()</text>
<text text-anchor="start" x="263.5" y="-22" font-family="Helvetica,sans-Serif" font-size="10.00">+</text>
<text text-anchor="start" x="276.5" y="-22" font-family="Helvetica,sans-Serif" font-size="10.00">register_obj()</text>
<text text-anchor="start" x="263.5" y="-7" font-family="Helvetica,sans-Serif" font-size="10.00">+</text>
<text text-anchor="start" x="276.5" y="-7" font-family="Helvetica,sans-Serif" font-size="10.00">unregister_obj()</text>
<polygon fill="#666666" stroke="#666666" points="259.5,-122 259.5,-122 364.5,-122 364.5,-122 259.5,-122"/>
<polygon fill="#666666" stroke="#666666" points="259.5,-107 259.5,-107 364.5,-107 364.5,-107 259.5,-107"/>
<polygon fill="none" stroke="#666666" points="259,0 259,-150 364,-150 364,0 259,0"/>
</a>
</g>
</g>
<!-- Node2 -->
<g id="Node000002" class="node">
<title>Node2</title>
<g id="a_Node000002"><a xlink:href="classL4_1_1Basic__registry.html" target="_top" xlink:title="This registry returns the corresponding server object based on the label of an Ipc_gate.">
<polygon fill="white" stroke="transparent" points="97,-321 0,-321 0,-257 97,-257 97,-321"/>
<text text-anchor="start" x="5.5" y="-309" font-family="Helvetica,sans-Serif" font-size="10.00">L4::Basic_registry</text>
<text text-anchor="start" x="47" y="-294" font-family="Helvetica,sans-Serif" font-size="10.00"> </text>
<text text-anchor="start" x="11" y="-279" font-family="Helvetica,sans-Serif" font-size="10.00">+</text>
<text text-anchor="start" x="30.5" y="-279" font-family="Helvetica,sans-Serif" font-size="10.00">find()</text>
<text text-anchor="start" x="11" y="-264" font-family="Helvetica,sans-Serif" font-size="10.00">+</text>
<text text-anchor="start" x="30.5" y="-264" font-family="Helvetica,sans-Serif" font-size="10.00">dispatch()</text>
<polygon fill="#666666" stroke="#666666" points="0.5,-304 0.5,-304 97.5,-304 97.5,-304 0.5,-304"/>
<polygon fill="#666666" stroke="#666666" points="0.5,-289 0.5,-289 97.5,-289 97.5,-289 0.5,-289"/>
<polygon fill="none" stroke="#666666" points="0,-257 0,-321 97,-321 97,-257 0,-257"/>
</a>
</g>
</g>
<!-- Node2&#45;&gt;Node1 -->
<g id="edge1_Node000001_Node000002" class="edge">
<title>Node2&#45;&gt;Node1</title>
<g id="a_edge1_Node000001_Node000002"><a xlink:title=" ">
<path fill="none" stroke="#63b8ff" d="M68.27,-247.54C77.89,-230.57 90.61,-211.47 105.5,-197 150.41,-153.35 214.01,-119.09 258.63,-98.34"/>
<polygon fill="none" stroke="#63b8ff" points="64.98,-246.25 63.24,-256.7 71.12,-249.62 64.98,-246.25"/>
</a>
</g>
</g>
<!-- Node3 -->
<g id="Node000003" class="node">
<title>Node3</title>
<g id="a_Node000003"><a xlink:href="classL4_1_1Registry__iface.html" target="_top" xlink:title="Abstract interface for object registries.">
<polygon fill="white" stroke="transparent" points="220,-343.5 115,-343.5 115,-234.5 220,-234.5 220,-343.5"/>
<text text-anchor="start" x="124" y="-331" font-family="Helvetica,sans-Serif" font-size="10.00">L4::Registry_iface</text>
<text text-anchor="start" x="166" y="-316" font-family="Helvetica,sans-Serif" font-size="10.00"> </text>
<text text-anchor="start" x="119.5" y="-301" font-family="Helvetica,sans-Serif" font-size="10.00">+</text>
<text text-anchor="start" x="132.5" y="-301" font-family="Helvetica,sans-Serif" font-size="10.00">register_obj()</text>
<text text-anchor="start" x="119.5" y="-286" font-family="Helvetica,sans-Serif" font-size="10.00">+</text>
<text text-anchor="start" x="132.5" y="-286" font-family="Helvetica,sans-Serif" font-size="10.00">register_obj()</text>
<text text-anchor="start" x="119.5" y="-271" font-family="Helvetica,sans-Serif" font-size="10.00">+</text>
<text text-anchor="start" x="132.5" y="-271" font-family="Helvetica,sans-Serif" font-size="10.00">register_irq_obj()</text>
<text text-anchor="start" x="119.5" y="-256" font-family="Helvetica,sans-Serif" font-size="10.00">+</text>
<text text-anchor="start" x="132.5" y="-256" font-family="Helvetica,sans-Serif" font-size="10.00">register_obj()</text>
<text text-anchor="start" x="119.5" y="-241" font-family="Helvetica,sans-Serif" font-size="10.00">+</text>
<text text-anchor="start" x="132.5" y="-241" font-family="Helvetica,sans-Serif" font-size="10.00">unregister_obj()</text>
<polygon fill="#666666" stroke="#666666" points="115.5,-326 115.5,-326 220.5,-326 220.5,-326 115.5,-326"/>
<polygon fill="#666666" stroke="#666666" points="115.5,-311 115.5,-311 220.5,-311 220.5,-311 115.5,-311"/>
<polygon fill="none" stroke="#666666" points="115,-234.5 115,-343.5 220,-343.5 220,-234.5 115,-234.5"/>
</a>
</g>
</g>
<!-- Node3&#45;&gt;Node1 -->
<g id="edge2_Node000001_Node000003" class="edge">
<title>Node3&#45;&gt;Node1</title>
<g id="a_edge2_Node000001_Node000003"><a xlink:title=" ">
<path fill="none" stroke="#63b8ff" d="M209.83,-225.68C225.92,-201.99 244.4,-174.79 261.15,-150.12"/>
<polygon fill="none" stroke="#63b8ff" points="206.75,-223.99 204.02,-234.23 212.54,-227.92 206.75,-223.99"/>
</a>
</g>
</g>
<!-- Node4 -->
<g id="Node000004" class="node">
<title>Node4</title>
<g id="a_Node000004"><a xlink:href="classL4_1_1Cap.html" target="_top" xlink:title=" ">
<polygon fill="white" stroke="transparent" points="384.5,-381 238.5,-381 238.5,-197 384.5,-197 384.5,-381"/>
<text text-anchor="start" x="256.5" y="-369" font-family="Helvetica,sans-Serif" font-size="10.00">L4::Cap&lt; L4::Thread &gt;</text>
<text text-anchor="start" x="309.5" y="-354" font-family="Helvetica,sans-Serif" font-size="10.00"> </text>
<text text-anchor="start" x="242.5" y="-339" font-family="Helvetica,sans-Serif" font-size="10.00">+</text>
<text text-anchor="start" x="255.5" y="-339" font-family="Helvetica,sans-Serif" font-size="10.00">Cap()</text>
<text text-anchor="start" x="242.5" y="-324" font-family="Helvetica,sans-Serif" font-size="10.00">+</text>
<text text-anchor="start" x="255.5" y="-324" font-family="Helvetica,sans-Serif" font-size="10.00">Cap()</text>
<text text-anchor="start" x="242.5" y="-309" font-family="Helvetica,sans-Serif" font-size="10.00">+</text>
<text text-anchor="start" x="255.5" y="-309" font-family="Helvetica,sans-Serif" font-size="10.00">Cap()</text>
<text text-anchor="start" x="242.5" y="-294" font-family="Helvetica,sans-Serif" font-size="10.00">+</text>
<text text-anchor="start" x="255.5" y="-294" font-family="Helvetica,sans-Serif" font-size="10.00">Cap()</text>
<text text-anchor="start" x="242.5" y="-279" font-family="Helvetica,sans-Serif" font-size="10.00">+</text>
<text text-anchor="start" x="255.5" y="-279" font-family="Helvetica,sans-Serif" font-size="10.00">Cap()</text>
<text text-anchor="start" x="242.5" y="-264" font-family="Helvetica,sans-Serif" font-size="10.00">+</text>
<text text-anchor="start" x="255.5" y="-264" font-family="Helvetica,sans-Serif" font-size="10.00">move()</text>
<text text-anchor="start" x="242.5" y="-249" font-family="Helvetica,sans-Serif" font-size="10.00">+</text>
<text text-anchor="start" x="255.5" y="-249" font-family="Helvetica,sans-Serif" font-size="10.00">copy()</text>
<text text-anchor="start" x="242.5" y="-234" font-family="Helvetica,sans-Serif" font-size="10.00">+</text>
<text text-anchor="start" x="255.5" y="-234" font-family="Helvetica,sans-Serif" font-size="10.00">operator&#45;&gt;()</text>
<text text-anchor="start" x="242.5" y="-219" font-family="Helvetica,sans-Serif" font-size="10.00">+</text>
<text text-anchor="start" x="255.5" y="-219" font-family="Helvetica,sans-Serif" font-size="10.00">check_convertible_from()</text>
<text text-anchor="start" x="242.5" y="-204" font-family="Helvetica,sans-Serif" font-size="10.00">+</text>
<text text-anchor="start" x="255.5" y="-204" font-family="Helvetica,sans-Serif" font-size="10.00">check_castable_from()</text>
<polygon fill="#666666" stroke="#666666" points="238.5,-364 238.5,-364 384.5,-364 384.5,-364 238.5,-364"/>
<polygon fill="#666666" stroke="#666666" points="238.5,-349 238.5,-349 384.5,-349 384.5,-349 238.5,-349"/>
<polygon fill="none" stroke="#666666" points="238.5,-197 238.5,-381 384.5,-381 384.5,-197 238.5,-197"/>
</a>
</g>
</g>
<!-- Node4&#45;&gt;Node1 -->
<g id="edge3_Node000001_Node000004" class="edge">
<title>Node4&#45;&gt;Node1</title>
<g id="a_edge3_Node000001_Node000004"><a xlink:title=" ">
<path fill="none" stroke="#63b8ff" d="M311.5,-196.86C311.5,-185.41 311.5,-173.71 311.5,-162.34"/>
<polygon fill="none" stroke="#63b8ff" points="311.5,-162.14 307.5,-156.14 311.5,-150.14 315.5,-156.14 311.5,-162.14"/>
</a>
</g>
<text text-anchor="middle" x="335.5" y="-171" font-family="Helvetica,sans-Serif" font-size="10.00" fill="grey"> #_server</text>
</g>
<!-- Node5 -->
<g id="Node000005" class="node">
<title>Node5</title>
<g id="a_Node000005"><a xlink:href="classL4_1_1Cap__base.html" target="_top" xlink:title="Base class for all kinds of capabilities.">
<polygon fill="white" stroke="transparent" points="451,-908 364,-908 364,-649 451,-649 451,-908"/>
<text text-anchor="start" x="375.5" y="-895.5" font-family="Helvetica,sans-Serif" font-size="10.00">L4::Cap_base</text>
<text text-anchor="start" x="368.5" y="-880.5" font-family="Helvetica,sans-Serif" font-size="10.00">#</text>
<text text-anchor="start" x="381.5" y="-880.5" font-family="Helvetica,sans-Serif" font-size="10.00">_c</text>
<text text-anchor="start" x="368.5" y="-865.5" font-family="Helvetica,sans-Serif" font-size="10.00">+</text>
<text text-anchor="start" x="381.5" y="-865.5" font-family="Helvetica,sans-Serif" font-size="10.00">cap()</text>
<text text-anchor="start" x="368.5" y="-850.5" font-family="Helvetica,sans-Serif" font-size="10.00">+</text>
<text text-anchor="start" x="381.5" y="-850.5" font-family="Helvetica,sans-Serif" font-size="10.00">is_valid()</text>
<text text-anchor="start" x="368.5" y="-835.5" font-family="Helvetica,sans-Serif" font-size="10.00">+</text>
<text text-anchor="start" x="381.5" y="-835.5" font-family="Helvetica,sans-Serif" font-size="10.00">fpage()</text>
<text text-anchor="start" x="368.5" y="-820.5" font-family="Helvetica,sans-Serif" font-size="10.00">+</text>
<text text-anchor="start" x="381.5" y="-820.5" font-family="Helvetica,sans-Serif" font-size="10.00">snd_base()</text>
<text text-anchor="start" x="368.5" y="-805.5" font-family="Helvetica,sans-Serif" font-size="10.00">+</text>
<text text-anchor="start" x="381.5" y="-805.5" font-family="Helvetica,sans-Serif" font-size="10.00">operator==()</text>
<text text-anchor="start" x="368.5" y="-790.5" font-family="Helvetica,sans-Serif" font-size="10.00">+</text>
<text text-anchor="start" x="381.5" y="-790.5" font-family="Helvetica,sans-Serif" font-size="10.00">operator!=()</text>
<text text-anchor="start" x="368.5" y="-775.5" font-family="Helvetica,sans-Serif" font-size="10.00">+</text>
<text text-anchor="start" x="381.5" y="-775.5" font-family="Helvetica,sans-Serif" font-size="10.00">validate()</text>
<text text-anchor="start" x="368.5" y="-760.5" font-family="Helvetica,sans-Serif" font-size="10.00">+</text>
<text text-anchor="start" x="381.5" y="-760.5" font-family="Helvetica,sans-Serif" font-size="10.00">validate()</text>
<text text-anchor="start" x="368.5" y="-745.5" font-family="Helvetica,sans-Serif" font-size="10.00">+</text>
<text text-anchor="start" x="381.5" y="-745.5" font-family="Helvetica,sans-Serif" font-size="10.00">invalidate()</text>
<text text-anchor="start" x="368.5" y="-730.5" font-family="Helvetica,sans-Serif" font-size="10.00">#</text>
<text text-anchor="start" x="381.5" y="-730.5" font-family="Helvetica,sans-Serif" font-size="10.00">Cap_base()</text>
<text text-anchor="start" x="368.5" y="-715.5" font-family="Helvetica,sans-Serif" font-size="10.00">#</text>
<text text-anchor="start" x="381.5" y="-715.5" font-family="Helvetica,sans-Serif" font-size="10.00">Cap_base()</text>
<text text-anchor="start" x="368.5" y="-700.5" font-family="Helvetica,sans-Serif" font-size="10.00">#</text>
<text text-anchor="start" x="381.5" y="-700.5" font-family="Helvetica,sans-Serif" font-size="10.00">Cap_base()</text>
<text text-anchor="start" x="368.5" y="-685.5" font-family="Helvetica,sans-Serif" font-size="10.00">#</text>
<text text-anchor="start" x="381.5" y="-685.5" font-family="Helvetica,sans-Serif" font-size="10.00">Cap_base()</text>
<text text-anchor="start" x="368.5" y="-670.5" font-family="Helvetica,sans-Serif" font-size="10.00">#</text>
<text text-anchor="start" x="381.5" y="-670.5" font-family="Helvetica,sans-Serif" font-size="10.00">move()</text>
<text text-anchor="start" x="368.5" y="-655.5" font-family="Helvetica,sans-Serif" font-size="10.00">#</text>
<text text-anchor="start" x="381.5" y="-655.5" font-family="Helvetica,sans-Serif" font-size="10.00">copy()</text>
<polygon fill="#666666" stroke="#666666" points="364.5,-890.5 364.5,-890.5 451.5,-890.5 451.5,-890.5 364.5,-890.5"/>
<polygon fill="#666666" stroke="#666666" points="364.5,-875.5 364.5,-875.5 379.5,-875.5 379.5,-875.5 364.5,-875.5"/>
<polygon fill="#666666" stroke="#666666" points="379.5,-875.5 379.5,-875.5 451.5,-875.5 451.5,-875.5 379.5,-875.5"/>
<polygon fill="none" stroke="#666666" points="364,-649 364,-908 451,-908 451,-649 364,-649"/>
</a>
</g>
</g>
<!-- Node5&#45;&gt;Node4 -->
<g id="edge4_Node000004_Node000005" class="edge">
<title>Node5&#45;&gt;Node4</title>
<g id="a_edge4_Node000004_Node000005"><a xlink:title=" ">
<path fill="none" stroke="#63b8ff" d="M359.15,-696.81C345.79,-670.64 332.93,-640.89 325.5,-612 305.95,-536 303.62,-446.62 305.51,-381.34"/>
<polygon fill="none" stroke="#63b8ff" points="356.17,-698.66 363.89,-705.91 362.37,-695.42 356.17,-698.66"/>
</a>
</g>
</g>
<!-- Node6 -->
<g id="Node000006" class="node">
<title>Node6</title>
<g id="a_Node000006"><a xlink:href="classL4_1_1Cap.html" target="_top" xlink:title="C++ interface for capabilities.">
<polygon fill="white" stroke="transparent" points="480.5,-612 334.5,-612 334.5,-428 480.5,-428 480.5,-612"/>
<text text-anchor="start" x="375" y="-600" font-family="Helvetica,sans-Serif" font-size="10.00">L4::Cap&lt; T &gt;</text>
<text text-anchor="start" x="405.5" y="-585" font-family="Helvetica,sans-Serif" font-size="10.00"> </text>
<text text-anchor="start" x="338.5" y="-570" font-family="Helvetica,sans-Serif" font-size="10.00">+</text>
<text text-anchor="start" x="351.5" y="-570" font-family="Helvetica,sans-Serif" font-size="10.00">Cap()</text>
<text text-anchor="start" x="338.5" y="-555" font-family="Helvetica,sans-Serif" font-size="10.00">+</text>
<text text-anchor="start" x="351.5" y="-555" font-family="Helvetica,sans-Serif" font-size="10.00">Cap()</text>
<text text-anchor="start" x="338.5" y="-540" font-family="Helvetica,sans-Serif" font-size="10.00">+</text>
<text text-anchor="start" x="351.5" y="-540" font-family="Helvetica,sans-Serif" font-size="10.00">Cap()</text>
<text text-anchor="start" x="338.5" y="-525" font-family="Helvetica,sans-Serif" font-size="10.00">+</text>
<text text-anchor="start" x="351.5" y="-525" font-family="Helvetica,sans-Serif" font-size="10.00">Cap()</text>
<text text-anchor="start" x="338.5" y="-510" font-family="Helvetica,sans-Serif" font-size="10.00">+</text>
<text text-anchor="start" x="351.5" y="-510" font-family="Helvetica,sans-Serif" font-size="10.00">Cap()</text>
<text text-anchor="start" x="338.5" y="-495" font-family="Helvetica,sans-Serif" font-size="10.00">+</text>
<text text-anchor="start" x="351.5" y="-495" font-family="Helvetica,sans-Serif" font-size="10.00">move()</text>
<text text-anchor="start" x="338.5" y="-480" font-family="Helvetica,sans-Serif" font-size="10.00">+</text>
<text text-anchor="start" x="351.5" y="-480" font-family="Helvetica,sans-Serif" font-size="10.00">copy()</text>
<text text-anchor="start" x="338.5" y="-465" font-family="Helvetica,sans-Serif" font-size="10.00">+</text>
<text text-anchor="start" x="351.5" y="-465" font-family="Helvetica,sans-Serif" font-size="10.00">operator&#45;&gt;()</text>
<text text-anchor="start" x="338.5" y="-450" font-family="Helvetica,sans-Serif" font-size="10.00">+</text>
<text text-anchor="start" x="351.5" y="-450" font-family="Helvetica,sans-Serif" font-size="10.00">check_convertible_from()</text>
<text text-anchor="start" x="338.5" y="-435" font-family="Helvetica,sans-Serif" font-size="10.00">+</text>
<text text-anchor="start" x="351.5" y="-435" font-family="Helvetica,sans-Serif" font-size="10.00">check_castable_from()</text>
<polygon fill="#666666" stroke="#666666" points="334.5,-595 334.5,-595 480.5,-595 480.5,-595 334.5,-595"/>
<polygon fill="#666666" stroke="#666666" points="334.5,-580 334.5,-580 480.5,-580 480.5,-580 334.5,-580"/>
<polygon fill="none" stroke="#666666" points="334.5,-428 334.5,-612 480.5,-612 480.5,-428 334.5,-428"/>
</a>
</g>
</g>
<!-- Node5&#45;&gt;Node6 -->
<g id="edge6_Node000006_Node000005" class="edge">
<title>Node5&#45;&gt;Node6</title>
<g id="a_edge6_Node000006_Node000005"><a xlink:title=" ">
<path fill="none" stroke="#63b8ff" d="M407.5,-638.73C407.5,-629.77 407.5,-620.87 407.5,-612.22"/>
<polygon fill="none" stroke="#63b8ff" points="404,-638.87 407.5,-648.87 411,-638.87 404,-638.87"/>
</a>
</g>
</g>
<!-- Node7 -->
<g id="Node000007" class="node">
<title>Node7</title>
<g id="a_Node000007"><a xlink:href="classL4_1_1Cap.html" target="_top" xlink:title=" ">
<polygon fill="white" stroke="transparent" points="548.5,-381 402.5,-381 402.5,-197 548.5,-197 548.5,-381"/>
<text text-anchor="start" x="419.5" y="-369" font-family="Helvetica,sans-Serif" font-size="10.00">L4::Cap&lt; L4::Factory &gt;</text>
<text text-anchor="start" x="473.5" y="-354" font-family="Helvetica,sans-Serif" font-size="10.00"> </text>
<text text-anchor="start" x="406.5" y="-339" font-family="Helvetica,sans-Serif" font-size="10.00">+</text>
<text text-anchor="start" x="419.5" y="-339" font-family="Helvetica,sans-Serif" font-size="10.00">Cap()</text>
<text text-anchor="start" x="406.5" y="-324" font-family="Helvetica,sans-Serif" font-size="10.00">+</text>
<text text-anchor="start" x="419.5" y="-324" font-family="Helvetica,sans-Serif" font-size="10.00">Cap()</text>
<text text-anchor="start" x="406.5" y="-309" font-family="Helvetica,sans-Serif" font-size="10.00">+</text>
<text text-anchor="start" x="419.5" y="-309" font-family="Helvetica,sans-Serif" font-size="10.00">Cap()</text>
<text text-anchor="start" x="406.5" y="-294" font-family="Helvetica,sans-Serif" font-size="10.00">+</text>
<text text-anchor="start" x="419.5" y="-294" font-family="Helvetica,sans-Serif" font-size="10.00">Cap()</text>
<text text-anchor="start" x="406.5" y="-279" font-family="Helvetica,sans-Serif" font-size="10.00">+</text>
<text text-anchor="start" x="419.5" y="-279" font-family="Helvetica,sans-Serif" font-size="10.00">Cap()</text>
<text text-anchor="start" x="406.5" y="-264" font-family="Helvetica,sans-Serif" font-size="10.00">+</text>
<text text-anchor="start" x="419.5" y="-264" font-family="Helvetica,sans-Serif" font-size="10.00">move()</text>
<text text-anchor="start" x="406.5" y="-249" font-family="Helvetica,sans-Serif" font-size="10.00">+</text>
<text text-anchor="start" x="419.5" y="-249" font-family="Helvetica,sans-Serif" font-size="10.00">copy()</text>
<text text-anchor="start" x="406.5" y="-234" font-family="Helvetica,sans-Serif" font-size="10.00">+</text>
<text text-anchor="start" x="419.5" y="-234" font-family="Helvetica,sans-Serif" font-size="10.00">operator&#45;&gt;()</text>
<text text-anchor="start" x="406.5" y="-219" font-family="Helvetica,sans-Serif" font-size="10.00">+</text>
<text text-anchor="start" x="419.5" y="-219" font-family="Helvetica,sans-Serif" font-size="10.00">check_convertible_from()</text>
<text text-anchor="start" x="406.5" y="-204" font-family="Helvetica,sans-Serif" font-size="10.00">+</text>
<text text-anchor="start" x="419.5" y="-204" font-family="Helvetica,sans-Serif" font-size="10.00">check_castable_from()</text>
<polygon fill="#666666" stroke="#666666" points="402.5,-364 402.5,-364 548.5,-364 548.5,-364 402.5,-364"/>
<polygon fill="#666666" stroke="#666666" points="402.5,-349 402.5,-349 548.5,-349 548.5,-349 402.5,-349"/>
<polygon fill="none" stroke="#666666" points="402.5,-197 402.5,-381 548.5,-381 548.5,-197 402.5,-197"/>
</a>
</g>
</g>
<!-- Node5&#45;&gt;Node7 -->
<g id="edge8_Node000007_Node000005" class="edge">
<title>Node5&#45;&gt;Node7</title>
<g id="a_edge8_Node000007_Node000005"><a xlink:title=" ">
<path fill="none" stroke="#63b8ff" d="M455.82,-695.08C468.88,-669.27 481.57,-640.16 489.5,-612 515.25,-520.55 521.02,-493.04 507.5,-399 506.66,-393.14 505.57,-387.16 504.32,-381.17"/>
<polygon fill="none" stroke="#63b8ff" points="452.66,-693.57 451.2,-704.06 458.89,-696.77 452.66,-693.57"/>
</a>
</g>
</g>
<!-- Node6&#45;&gt;Node4 -->
<g id="edge5_Node000004_Node000006" class="edge">
<title>Node6&#45;&gt;Node4</title>
<g id="a_edge5_Node000004_Node000006"><a xlink:title=" ">
<path fill="none" stroke="orange" d="M349.27,-418.65C347.96,-415.76 346.7,-412.87 345.5,-410 341.65,-400.81 338.09,-391.05 334.83,-381.22"/>
<polygon fill="orange" stroke="orange" points="346.2,-420.35 353.61,-427.92 352.54,-417.38 346.2,-420.35"/>
</a>
</g>
<text text-anchor="middle" x="384" y="-402" font-family="Helvetica,sans-Serif" font-size="10.00" fill="grey"> &lt; L4::Thread &gt;</text>
</g>
<!-- Node6&#45;&gt;Node7 -->
<g id="edge9_Node000007_Node000006" class="edge">
<title>Node6&#45;&gt;Node7</title>
<g id="a_edge9_Node000007_Node000006"><a xlink:title=" ">
<path fill="none" stroke="orange" d="M423.48,-417.68C425.02,-411.32 426.69,-405.05 428.5,-399 430.27,-393.08 432.27,-387.04 434.42,-381.01"/>
<polygon fill="orange" stroke="orange" points="420,-417.2 421.16,-427.73 426.82,-418.77 420,-417.2"/>
</a>
</g>
<text text-anchor="middle" x="468" y="-402" font-family="Helvetica,sans-Serif" font-size="10.00" fill="grey"> &lt; L4::Factory &gt;</text>
</g>
<!-- Node7&#45;&gt;Node1 -->
<g id="edge7_Node000001_Node000007" class="edge">
<title>Node7&#45;&gt;Node1</title>
<g id="a_edge7_Node000001_Node000007"><a xlink:title=" ">
<path fill="none" stroke="#63b8ff" d="M405,-196.86C393.85,-182.46 382.42,-167.68 371.54,-153.61"/>
<polygon fill="none" stroke="#63b8ff" points="371.45,-153.5 364.62,-151.2 364.11,-144.01 370.94,-146.31 371.45,-153.5"/>
</a>
</g>
<text text-anchor="middle" x="415.5" y="-171" font-family="Helvetica,sans-Serif" font-size="10.00" fill="grey"> #_factory</text>
</g>
<!-- Node8 -->
<g id="Node000008" class="node">
<title>Node8</title>
<g id="a_Node000008"><a xlink:href="classL4_1_1Ipc__svr_1_1Server__iface.html" target="_top" xlink:title="Interface for server&#45;loop related functions.">
<polygon fill="white" stroke="transparent" points="698,-371.5 567,-371.5 567,-206.5 698,-206.5 698,-371.5"/>
<text text-anchor="start" x="588" y="-359" font-family="Helvetica,sans-Serif" font-size="10.00">L4::Ipc_svr::Server</text>
<text text-anchor="start" x="618" y="-348" font-family="Helvetica,sans-Serif" font-size="10.00">_iface</text>
<text text-anchor="start" x="631" y="-333" font-family="Helvetica,sans-Serif" font-size="10.00"> </text>
<text text-anchor="start" x="571.5" y="-318" font-family="Helvetica,sans-Serif" font-size="10.00">+</text>
<text text-anchor="start" x="584.5" y="-318" font-family="Helvetica,sans-Serif" font-size="10.00">Server_iface()</text>
<text text-anchor="start" x="571.5" y="-303" font-family="Helvetica,sans-Serif" font-size="10.00">+</text>
<text text-anchor="start" x="584.5" y="-303" font-family="Helvetica,sans-Serif" font-size="10.00">alloc_buffer_demand()</text>
<text text-anchor="start" x="571.5" y="-288" font-family="Helvetica,sans-Serif" font-size="10.00">+</text>
<text text-anchor="start" x="584.5" y="-288" font-family="Helvetica,sans-Serif" font-size="10.00">get_rcv_cap()</text>
<text text-anchor="start" x="571.5" y="-273" font-family="Helvetica,sans-Serif" font-size="10.00">+</text>
<text text-anchor="start" x="584.5" y="-273" font-family="Helvetica,sans-Serif" font-size="10.00">realloc_rcv_cap()</text>
<text text-anchor="start" x="571.5" y="-258" font-family="Helvetica,sans-Serif" font-size="10.00">+</text>
<text text-anchor="start" x="584.5" y="-258" font-family="Helvetica,sans-Serif" font-size="10.00">add_timeout()</text>
<text text-anchor="start" x="571.5" y="-243" font-family="Helvetica,sans-Serif" font-size="10.00">+</text>
<text text-anchor="start" x="584.5" y="-243" font-family="Helvetica,sans-Serif" font-size="10.00">remove_timeout()</text>
<text text-anchor="start" x="571.5" y="-228" font-family="Helvetica,sans-Serif" font-size="10.00">+</text>
<text text-anchor="start" x="584.5" y="-228" font-family="Helvetica,sans-Serif" font-size="10.00">rcv_cap()</text>
<text text-anchor="start" x="571.5" y="-213" font-family="Helvetica,sans-Serif" font-size="10.00">+</text>
<text text-anchor="start" x="584.5" y="-213" font-family="Helvetica,sans-Serif" font-size="10.00">rcv_cap()</text>
<polygon fill="#666666" stroke="#666666" points="567.5,-343 567.5,-343 698.5,-343 698.5,-343 567.5,-343"/>
<polygon fill="#666666" stroke="#666666" points="567.5,-328 567.5,-328 698.5,-328 698.5,-328 567.5,-328"/>
<polygon fill="none" stroke="#666666" points="567,-206.5 567,-371.5 698,-371.5 698,-206.5 567,-206.5"/>
</a>
</g>
</g>
<!-- Node8&#45;&gt;Node1 -->
<g id="edge10_Node000001_Node000008" class="edge">
<title>Node8&#45;&gt;Node1</title>
<g id="a_edge10_Node000001_Node000008"><a xlink:title=" ">
<path fill="none" stroke="#63b8ff" d="M568.38,-206.33C564.83,-203.05 561.19,-199.92 557.5,-197 501.98,-153.07 427.92,-119.34 375.62,-98.79"/>
<polygon fill="none" stroke="#63b8ff" points="375.33,-98.68 368.29,-100.25 364.14,-94.35 371.18,-92.78 375.33,-98.68"/>
</a>
</g>
<text text-anchor="middle" x="541" y="-171" font-family="Helvetica,sans-Serif" font-size="10.00" fill="grey"> #_sif</text>
</g>
</g>
</svg>
