<?xml version="1.0" encoding="UTF-8" standalone="no"?>
<!DOCTYPE svg PUBLIC "-//W3C//DTD SVG 1.1//EN"
 "http://www.w3.org/Graphics/SVG/1.1/DTD/svg11.dtd">
<!-- Generated by graphviz version 2.43.0 (0)
 -->
<!-- Title: L4::Factory Pages: 1 -->
<svg width="265pt" height="362pt"
 viewBox="0.00 0.00 265.00 362.00" xmlns="http://www.w3.org/2000/svg" xmlns:xlink="http://www.w3.org/1999/xlink">
<g id="graph0" class="graph" transform="scale(1 1) rotate(0) translate(4 358)">
<title>L4::Factory</title>
<!-- Node1 -->
<g id="Node000001" class="node">
<title>Node1</title>
<g id="a_Node000001"><a xlink:title="C++ Factory interface, see Factory for the C interface.">
<polygon fill="#999999" stroke="transparent" points="156,-109 56,-109 56,0 156,0 156,-109"/>
<text text-anchor="start" x="79.5" y="-96.5" font-family="Helvetica,sans-Serif" font-size="10.00">L4::Factory</text>
<text text-anchor="start" x="104" y="-81.5" font-family="Helvetica,sans-Serif" font-size="10.00"> </text>
<text text-anchor="start" x="60" y="-66.5" font-family="Helvetica,sans-Serif" font-size="10.00">+</text>
<text text-anchor="start" x="73" y="-66.5" font-family="Helvetica,sans-Serif" font-size="10.00">create()</text>
<text text-anchor="start" x="60" y="-51.5" font-family="Helvetica,sans-Serif" font-size="10.00">+</text>
<text text-anchor="start" x="73" y="-51.5" font-family="Helvetica,sans-Serif" font-size="10.00">create()</text>
<text text-anchor="start" x="60" y="-36.5" font-family="Helvetica,sans-Serif" font-size="10.00">+</text>
<text text-anchor="start" x="73" y="-36.5" font-family="Helvetica,sans-Serif" font-size="10.00">create_task()</text>
<text text-anchor="start" x="60" y="-21.5" font-family="Helvetica,sans-Serif" font-size="10.00">+</text>
<text text-anchor="start" x="73" y="-21.5" font-family="Helvetica,sans-Serif" font-size="10.00">create_factory()</text>
<text text-anchor="start" x="60" y="-6.5" font-family="Helvetica,sans-Serif" font-size="10.00">+</text>
<text text-anchor="start" x="73" y="-6.5" font-family="Helvetica,sans-Serif" font-size="10.00">create_gate()</text>
<polygon fill="#666666" stroke="#666666" points="56,-91.5 56,-91.5 156,-91.5 156,-91.5 56,-91.5"/>
<polygon fill="#666666" stroke="#666666" points="56,-76.5 56,-76.5 156,-76.5 156,-76.5 56,-76.5"/>
<polygon fill="none" stroke="#666666" points="56,0 56,-109 156,-109 156,0 56,0"/>
</a>
</g>
</g>
<!-- Node2 -->
<g id="Node000002" class="node">
<title>Node2</title>
<g id="a_Node000002"><a xlink:href="classL4_1_1Kobject__t.html" target="_top" xlink:title=" ">
<polygon fill="white" stroke="transparent" points="189,-221 23,-221 23,-146 189,-146 189,-221"/>
<text text-anchor="start" x="28" y="-208.5" font-family="Helvetica,sans-Serif" font-size="10.00">L4::Kobject_t&lt; Factory,</text>
<text text-anchor="start" x="28" y="-197.5" font-family="Helvetica,sans-Serif" font-size="10.00"> Kobject, L4_PROTO_FACTORY &gt;</text>
<text text-anchor="start" x="104" y="-182.5" font-family="Helvetica,sans-Serif" font-size="10.00"> </text>
<text text-anchor="start" x="36" y="-167.5" font-family="Helvetica,sans-Serif" font-size="10.00">#</text>
<text text-anchor="start" x="58" y="-167.5" font-family="Helvetica,sans-Serif" font-size="10.00">c()</text>
<text text-anchor="start" x="36" y="-152.5" font-family="Helvetica,sans-Serif" font-size="10.00">#</text>
<text text-anchor="start" x="58" y="-152.5" font-family="Helvetica,sans-Serif" font-size="10.00">__check_protocols__()</text>
<polygon fill="#666666" stroke="#666666" points="23,-192.5 23,-192.5 189,-192.5 189,-192.5 23,-192.5"/>
<polygon fill="#666666" stroke="#666666" points="23,-177.5 23,-177.5 189,-177.5 189,-177.5 23,-177.5"/>
<polygon fill="none" stroke="#666666" points="23,-146 23,-221 189,-221 189,-146 23,-146"/>
</a>
</g>
</g>
<!-- Node2&#45;&gt;Node1 -->
<g id="edge1_Node000001_Node000002" class="edge">
<title>Node2&#45;&gt;Node1</title>
<g id="a_edge1_Node000001_Node000002"><a xlink:title=" ">
<path fill="none" stroke="#63b8ff" d="M106,-135.55C106,-126.96 106,-117.93 106,-109.16"/>
<polygon fill="none" stroke="#63b8ff" points="102.5,-135.77 106,-145.77 109.5,-135.77 102.5,-135.77"/>
</a>
</g>
</g>
<!-- Node3 -->
<g id="Node000003" class="node">
<title>Node3</title>
<g id="a_Node000003"><a xlink:href="classL4_1_1Kobject.html" target="_top" xlink:title="Base class for all kinds of kernel objects and remote objects, referenced by capabilities.">
<polygon fill="white" stroke="transparent" points="80,-348.5 0,-348.5 0,-284.5 80,-284.5 80,-348.5"/>
<text text-anchor="start" x="13" y="-336.5" font-family="Helvetica,sans-Serif" font-size="10.00">L4::Kobject</text>
<text text-anchor="start" x="38" y="-321.5" font-family="Helvetica,sans-Serif" font-size="10.00"> </text>
<text text-anchor="start" x="4" y="-306.5" font-family="Helvetica,sans-Serif" font-size="10.00">+</text>
<text text-anchor="start" x="17" y="-306.5" font-family="Helvetica,sans-Serif" font-size="10.00">dec_refcnt()</text>
<text text-anchor="start" x="4" y="-291.5" font-family="Helvetica,sans-Serif" font-size="10.00">#</text>
<text text-anchor="start" x="17" y="-291.5" font-family="Helvetica,sans-Serif" font-size="10.00">cap()</text>
<polygon fill="#666666" stroke="#666666" points="0,-331.5 0,-331.5 80,-331.5 80,-331.5 0,-331.5"/>
<polygon fill="#666666" stroke="#666666" points="0,-316.5 0,-316.5 80,-316.5 80,-316.5 0,-316.5"/>
<polygon fill="none" stroke="#666666" points="0,-284.5 0,-348.5 80,-348.5 80,-284.5 0,-284.5"/>
</a>
</g>
</g>
<!-- Node3&#45;&gt;Node2 -->
<g id="edge2_Node000002_Node000003" class="edge">
<title>Node3&#45;&gt;Node2</title>
<g id="a_edge2_Node000002_Node000003"><a xlink:title=" ">
<path fill="none" stroke="#63b8ff" d="M60.29,-275.23C68.94,-258.06 78.97,-238.16 87.42,-221.37"/>
<polygon fill="none" stroke="#63b8ff" points="57.01,-273.95 55.64,-284.45 63.27,-277.1 57.01,-273.95"/>
</a>
</g>
</g>
<!-- Node4 -->
<g id="Node000004" class="node">
<title>Node4</title>
<g id="a_Node000004"><a xlink:href="classL4_1_1Kobject__t.html" target="_top" xlink:title="Helper class to create an L4Re interface class that is derived from a single base class.">
<polygon fill="white" stroke="transparent" points="248,-354 98,-354 98,-279 248,-279 248,-354"/>
<text text-anchor="start" x="103" y="-341.5" font-family="Helvetica,sans-Serif" font-size="10.00">L4::Kobject_t&lt; Derived,</text>
<text text-anchor="start" x="103" y="-330.5" font-family="Helvetica,sans-Serif" font-size="10.00"> Base, PROTO, S_DEMAND &gt;</text>
<text text-anchor="start" x="171" y="-315.5" font-family="Helvetica,sans-Serif" font-size="10.00"> </text>
<text text-anchor="start" x="107" y="-300.5" font-family="Helvetica,sans-Serif" font-size="10.00">#</text>
<text text-anchor="start" x="125" y="-300.5" font-family="Helvetica,sans-Serif" font-size="10.00">c()</text>
<text text-anchor="start" x="107" y="-285.5" font-family="Helvetica,sans-Serif" font-size="10.00">#</text>
<text text-anchor="start" x="125" y="-285.5" font-family="Helvetica,sans-Serif" font-size="10.00">__check_protocols__()</text>
<polygon fill="#666666" stroke="#666666" points="98,-325.5 98,-325.5 248,-325.5 248,-325.5 98,-325.5"/>
<polygon fill="#666666" stroke="#666666" points="98,-310.5 98,-310.5 248,-310.5 248,-310.5 98,-310.5"/>
<polygon fill="none" stroke="#666666" points="98,-279 98,-354 248,-354 248,-279 98,-279"/>
</a>
</g>
</g>
<!-- Node4&#45;&gt;Node2 -->
<g id="edge3_Node000002_Node000004" class="edge">
<title>Node4&#45;&gt;Node2</title>
<g id="a_edge3_Node000002_Node000004"><a xlink:title=" ">
<path fill="none" stroke="orange" d="M149.49,-269.54C141.37,-253.66 132.38,-236.09 124.7,-221.06"/>
<polygon fill="orange" stroke="orange" points="146.49,-271.35 154.16,-278.66 152.72,-268.16 146.49,-271.35"/>
</a>
</g>
<text text-anchor="start" x="143" y="-253" font-family="Helvetica,sans-Serif" font-size="10.00" fill="grey"> &lt; Factory, Kobject,</text>
<text text-anchor="middle" x="200" y="-242" font-family="Helvetica,sans-Serif" font-size="10.00" fill="grey"> L4_PROTO_FACTORY &gt;</text>
</g>
</g>
</svg>
