<?xml version="1.0" encoding="UTF-8" standalone="no"?>
<!DOCTYPE svg PUBLIC "-//W3C//DTD SVG 1.1//EN"
 "http://www.w3.org/Graphics/SVG/1.1/DTD/svg11.dtd">
<!-- Generated by graphviz version 2.43.0 (0)
 -->
<!-- Title: L4::Vcon Pages: 1 -->
<svg width="311pt" height="693pt"
 viewBox="0.00 0.00 311.00 693.00" xmlns="http://www.w3.org/2000/svg" xmlns:xlink="http://www.w3.org/1999/xlink">
<g id="graph0" class="graph" transform="scale(1 1) rotate(0) translate(4 689)">
<title>L4::Vcon</title>
<!-- Node1 -->
<g id="Node000001" class="node">
<title>Node1</title>
<g id="a_Node000001"><a xlink:title="C++ L4 Vcon interface, see Virtual Console for the C interface.">
<polygon fill="#999999" stroke="transparent" points="219,-124 113,-124 113,0 219,0 219,-124"/>
<text text-anchor="start" x="145" y="-112" font-family="Helvetica,sans-Serif" font-size="10.00">L4::Vcon</text>
<text text-anchor="start" x="164" y="-97" font-family="Helvetica,sans-Serif" font-size="10.00"> </text>
<text text-anchor="start" x="117" y="-82" font-family="Helvetica,sans-Serif" font-size="10.00">+</text>
<text text-anchor="start" x="130" y="-82" font-family="Helvetica,sans-Serif" font-size="10.00">send()</text>
<text text-anchor="start" x="117" y="-67" font-family="Helvetica,sans-Serif" font-size="10.00">+</text>
<text text-anchor="start" x="130" y="-67" font-family="Helvetica,sans-Serif" font-size="10.00">write()</text>
<text text-anchor="start" x="117" y="-52" font-family="Helvetica,sans-Serif" font-size="10.00">+</text>
<text text-anchor="start" x="130" y="-52" font-family="Helvetica,sans-Serif" font-size="10.00">read()</text>
<text text-anchor="start" x="117" y="-37" font-family="Helvetica,sans-Serif" font-size="10.00">+</text>
<text text-anchor="start" x="130" y="-37" font-family="Helvetica,sans-Serif" font-size="10.00">read_with_flags()</text>
<text text-anchor="start" x="117" y="-22" font-family="Helvetica,sans-Serif" font-size="10.00">+</text>
<text text-anchor="start" x="130" y="-22" font-family="Helvetica,sans-Serif" font-size="10.00">set_attr()</text>
<text text-anchor="start" x="117" y="-7" font-family="Helvetica,sans-Serif" font-size="10.00">+</text>
<text text-anchor="start" x="130" y="-7" font-family="Helvetica,sans-Serif" font-size="10.00">get_attr()</text>
<polygon fill="#666666" stroke="#666666" points="113,-107 113,-107 219,-107 219,-107 113,-107"/>
<polygon fill="#666666" stroke="#666666" points="113,-92 113,-92 219,-92 219,-92 113,-92"/>
<polygon fill="none" stroke="#666666" points="113,0 113,-124 219,-124 219,0 113,0"/>
</a>
</g>
</g>
<!-- Node2 -->
<g id="Node000002" class="node">
<title>Node2</title>
<g id="a_Node000002"><a xlink:href="classL4_1_1Kobject__t.html" target="_top" xlink:title=" ">
<polygon fill="white" stroke="transparent" points="230.5,-236 101.5,-236 101.5,-161 230.5,-161 230.5,-236"/>
<text text-anchor="start" x="111" y="-223.5" font-family="Helvetica,sans-Serif" font-size="10.00">L4::Kobject_t&lt; Vcon,</text>
<text text-anchor="start" x="111" y="-212.5" font-family="Helvetica,sans-Serif" font-size="10.00"> Icu, L4_PROTO_LOG &gt;</text>
<text text-anchor="start" x="164.5" y="-197.5" font-family="Helvetica,sans-Serif" font-size="10.00"> </text>
<text text-anchor="start" x="106" y="-182.5" font-family="Helvetica,sans-Serif" font-size="10.00">#</text>
<text text-anchor="start" x="119" y="-182.5" font-family="Helvetica,sans-Serif" font-size="10.00">c()</text>
<text text-anchor="start" x="106" y="-167.5" font-family="Helvetica,sans-Serif" font-size="10.00">#</text>
<text text-anchor="start" x="119" y="-167.5" font-family="Helvetica,sans-Serif" font-size="10.00">__check_protocols__()</text>
<polygon fill="#666666" stroke="#666666" points="102,-207.5 102,-207.5 231,-207.5 231,-207.5 102,-207.5"/>
<polygon fill="#666666" stroke="#666666" points="102,-192.5 102,-192.5 231,-192.5 231,-192.5 102,-192.5"/>
<polygon fill="none" stroke="#666666" points="101.5,-161 101.5,-236 230.5,-236 230.5,-161 101.5,-161"/>
</a>
</g>
</g>
<!-- Node2&#45;&gt;Node1 -->
<g id="edge1_Node000001_Node000002" class="edge">
<title>Node2&#45;&gt;Node1</title>
<g id="a_edge1_Node000001_Node000002"><a xlink:title=" ">
<path fill="none" stroke="#63b8ff" d="M166,-150.57C166,-142 166,-132.94 166,-124.03"/>
<polygon fill="none" stroke="#63b8ff" points="162.5,-150.75 166,-160.75 169.5,-150.75 162.5,-150.75"/>
</a>
</g>
</g>
<!-- Node3 -->
<g id="Node000003" class="node">
<title>Node3</title>
<g id="a_Node000003"><a xlink:href="classL4_1_1Icu.html" target="_top" xlink:title="C++ Icu interface, see Interrupt controller for the C interface.">
<polygon fill="white" stroke="transparent" points="163.5,-397 86.5,-397 86.5,-273 163.5,-273 163.5,-397"/>
<text text-anchor="start" x="109.5" y="-385" font-family="Helvetica,sans-Serif" font-size="10.00">L4::Icu</text>
<text text-anchor="start" x="123.5" y="-370" font-family="Helvetica,sans-Serif" font-size="10.00"> </text>
<text text-anchor="start" x="91" y="-355" font-family="Helvetica,sans-Serif" font-size="10.00">+</text>
<text text-anchor="start" x="104" y="-355" font-family="Helvetica,sans-Serif" font-size="10.00">bind()</text>
<text text-anchor="start" x="91" y="-340" font-family="Helvetica,sans-Serif" font-size="10.00">+</text>
<text text-anchor="start" x="104" y="-340" font-family="Helvetica,sans-Serif" font-size="10.00">unbind()</text>
<text text-anchor="start" x="91" y="-325" font-family="Helvetica,sans-Serif" font-size="10.00">+</text>
<text text-anchor="start" x="104" y="-325" font-family="Helvetica,sans-Serif" font-size="10.00">info()</text>
<text text-anchor="start" x="91" y="-310" font-family="Helvetica,sans-Serif" font-size="10.00">+</text>
<text text-anchor="start" x="104" y="-310" font-family="Helvetica,sans-Serif" font-size="10.00">msi_info()</text>
<text text-anchor="start" x="91" y="-295" font-family="Helvetica,sans-Serif" font-size="10.00">+</text>
<text text-anchor="start" x="104" y="-295" font-family="Helvetica,sans-Serif" font-size="10.00">mask()</text>
<text text-anchor="start" x="91" y="-280" font-family="Helvetica,sans-Serif" font-size="10.00">+</text>
<text text-anchor="start" x="104" y="-280" font-family="Helvetica,sans-Serif" font-size="10.00">set_mode()</text>
<polygon fill="#666666" stroke="#666666" points="87,-380 87,-380 164,-380 164,-380 87,-380"/>
<polygon fill="#666666" stroke="#666666" points="87,-365 87,-365 164,-365 164,-365 87,-365"/>
<polygon fill="none" stroke="#666666" points="86.5,-273 86.5,-397 163.5,-397 163.5,-273 86.5,-273"/>
</a>
</g>
</g>
<!-- Node3&#45;&gt;Node2 -->
<g id="edge2_Node000002_Node000003" class="edge">
<title>Node3&#45;&gt;Node2</title>
<g id="a_edge2_Node000002_Node000003"><a xlink:title=" ">
<path fill="none" stroke="#63b8ff" d="M146.65,-262.98C149.48,-253.71 152.27,-244.53 154.83,-236.16"/>
<polygon fill="none" stroke="#63b8ff" points="143.27,-262.07 143.7,-272.65 149.96,-264.11 143.27,-262.07"/>
</a>
</g>
</g>
<!-- Node4 -->
<g id="Node000004" class="node">
<title>Node4</title>
<g id="a_Node000004"><a xlink:href="classL4_1_1Kobject__t.html" target="_top" xlink:title=" ">
<polygon fill="white" stroke="transparent" points="156,-541 0,-541 0,-455 156,-455 156,-541"/>
<text text-anchor="start" x="5" y="-529" font-family="Helvetica,sans-Serif" font-size="10.00">L4::Kobject_t&lt; Icu,</text>
<text text-anchor="start" x="5" y="-518" font-family="Helvetica,sans-Serif" font-size="10.00"> Irq_eoi, L4_PROTO_IRQ,</text>
<text text-anchor="start" x="5" y="-507" font-family="Helvetica,sans-Serif" font-size="10.00"> Type_info::Demand_t&lt; 1 &gt; &gt;</text>
<text text-anchor="start" x="76" y="-492" font-family="Helvetica,sans-Serif" font-size="10.00"> </text>
<text text-anchor="start" x="10.5" y="-477" font-family="Helvetica,sans-Serif" font-size="10.00">#</text>
<text text-anchor="start" x="30" y="-477" font-family="Helvetica,sans-Serif" font-size="10.00">c()</text>
<text text-anchor="start" x="10.5" y="-462" font-family="Helvetica,sans-Serif" font-size="10.00">#</text>
<text text-anchor="start" x="30" y="-462" font-family="Helvetica,sans-Serif" font-size="10.00">__check_protocols__()</text>
<polygon fill="#666666" stroke="#666666" points="0,-502 0,-502 156,-502 156,-502 0,-502"/>
<polygon fill="#666666" stroke="#666666" points="0,-487 0,-487 156,-487 156,-487 0,-487"/>
<polygon fill="none" stroke="#666666" points="0,-455 0,-541 156,-541 156,-455 0,-455"/>
</a>
</g>
</g>
<!-- Node4&#45;&gt;Node3 -->
<g id="edge3_Node000003_Node000004" class="edge">
<title>Node4&#45;&gt;Node3</title>
<g id="a_edge3_Node000003_Node000004"><a xlink:title=" ">
<path fill="none" stroke="#63b8ff" d="M93.2,-444.93C97.65,-429.67 102.56,-412.85 107.17,-397.09"/>
<polygon fill="none" stroke="#63b8ff" points="89.79,-444.12 90.35,-454.7 96.51,-446.08 89.79,-444.12"/>
</a>
</g>
</g>
<!-- Node5 -->
<g id="Node000005" class="node">
<title>Node5</title>
<g id="a_Node000005"><a xlink:href="classL4_1_1Irq__eoi.html" target="_top" xlink:title="Interface for sending an unmask message to an object.">
<polygon fill="white" stroke="transparent" points="79,-672 11,-672 11,-623 79,-623 79,-672"/>
<text text-anchor="start" x="19.5" y="-659.5" font-family="Helvetica,sans-Serif" font-size="10.00">L4::Irq_eoi</text>
<text text-anchor="start" x="43" y="-644.5" font-family="Helvetica,sans-Serif" font-size="10.00"> </text>
<text text-anchor="start" x="15" y="-629.5" font-family="Helvetica,sans-Serif" font-size="10.00">+</text>
<text text-anchor="start" x="28" y="-629.5" font-family="Helvetica,sans-Serif" font-size="10.00">unmask()</text>
<polygon fill="#666666" stroke="#666666" points="11,-654.5 11,-654.5 79,-654.5 79,-654.5 11,-654.5"/>
<polygon fill="#666666" stroke="#666666" points="11,-639.5 11,-639.5 79,-639.5 79,-639.5 11,-639.5"/>
<polygon fill="none" stroke="#666666" points="11,-623 11,-672 79,-672 79,-623 11,-623"/>
</a>
</g>
</g>
<!-- Node5&#45;&gt;Node4 -->
<g id="edge4_Node000004_Node000005" class="edge">
<title>Node5&#45;&gt;Node4</title>
<g id="a_edge4_Node000004_Node000005"><a xlink:title=" ">
<path fill="none" stroke="#63b8ff" d="M49.21,-612.74C51.55,-596.4 54.84,-576.56 59,-559 60.39,-553.15 62.05,-547.05 63.82,-541.07"/>
<polygon fill="none" stroke="#63b8ff" points="45.71,-612.53 47.81,-622.92 52.64,-613.49 45.71,-612.53"/>
</a>
</g>
</g>
<!-- Node6 -->
<g id="Node000006" class="node">
<title>Node6</title>
<g id="a_Node000006"><a xlink:href="classL4_1_1Kobject__t.html" target="_top" xlink:title="Helper class to create an L4Re interface class that is derived from a single base class.">
<polygon fill="white" stroke="transparent" points="265,-685 115,-685 115,-610 265,-610 265,-685"/>
<text text-anchor="start" x="120" y="-672.5" font-family="Helvetica,sans-Serif" font-size="10.00">L4::Kobject_t&lt; Derived,</text>
<text text-anchor="start" x="120" y="-661.5" font-family="Helvetica,sans-Serif" font-size="10.00"> Base, PROTO, S_DEMAND &gt;</text>
<text text-anchor="start" x="188" y="-646.5" font-family="Helvetica,sans-Serif" font-size="10.00"> </text>
<text text-anchor="start" x="124" y="-631.5" font-family="Helvetica,sans-Serif" font-size="10.00">#</text>
<text text-anchor="start" x="142" y="-631.5" font-family="Helvetica,sans-Serif" font-size="10.00">c()</text>
<text text-anchor="start" x="124" y="-616.5" font-family="Helvetica,sans-Serif" font-size="10.00">#</text>
<text text-anchor="start" x="142" y="-616.5" font-family="Helvetica,sans-Serif" font-size="10.00">__check_protocols__()</text>
<polygon fill="#666666" stroke="#666666" points="115,-656.5 115,-656.5 265,-656.5 265,-656.5 115,-656.5"/>
<polygon fill="#666666" stroke="#666666" points="115,-641.5 115,-641.5 265,-641.5 265,-641.5 115,-641.5"/>
<polygon fill="none" stroke="#666666" points="115,-610 115,-685 265,-685 265,-610 115,-610"/>
</a>
</g>
</g>
<!-- Node6&#45;&gt;Node2 -->
<g id="edge6_Node000002_Node000006" class="edge">
<title>Node6&#45;&gt;Node2</title>
<g id="a_edge6_Node000002_Node000006"><a xlink:title=" ">
<path fill="none" stroke="orange" d="M193.66,-599.74C193.79,-597.13 193.91,-594.53 194,-592 194.54,-577.34 194.56,-573.66 194,-559 189.46,-440.77 176.36,-301.16 169.82,-236.19"/>
<polygon fill="orange" stroke="orange" points="190.15,-599.69 193.06,-609.88 197.14,-600.1 190.15,-599.69"/>
</a>
</g>
<text text-anchor="start" x="188" y="-429" font-family="Helvetica,sans-Serif" font-size="10.00" fill="grey"> &lt; Vcon, Icu, L4_PROTO</text>
<text text-anchor="middle" x="245.5" y="-418" font-family="Helvetica,sans-Serif" font-size="10.00" fill="grey">_LOG &gt;</text>
</g>
<!-- Node6&#45;&gt;Node4 -->
<g id="edge5_Node000004_Node000006" class="edge">
<title>Node6&#45;&gt;Node4</title>
<g id="a_edge5_Node000004_Node000006"><a xlink:title=" ">
<path fill="none" stroke="orange" d="M106.07,-618.45C95.35,-611.44 85.78,-602.75 79,-592 69.61,-577.11 68.04,-558.04 69.32,-541.05"/>
<polygon fill="orange" stroke="orange" points="104.5,-621.59 114.88,-623.72 108.09,-615.58 104.5,-621.59"/>
</a>
</g>
<text text-anchor="start" x="79" y="-584" font-family="Helvetica,sans-Serif" font-size="10.00" fill="grey"> &lt; Icu, Irq_eoi, L4</text>
<text text-anchor="start" x="79" y="-573" font-family="Helvetica,sans-Serif" font-size="10.00" fill="grey">_PROTO_IRQ, Type_info</text>
<text text-anchor="middle" x="136.5" y="-562" font-family="Helvetica,sans-Serif" font-size="10.00" fill="grey">::Demand_t&lt; 1 &gt; &gt;</text>
</g>
</g>
</svg>
