<?xml version="1.0" encoding="UTF-8" standalone="no"?>
<!DOCTYPE svg PUBLIC "-//W3C//DTD SVG 1.1//EN"
 "http://www.w3.org/Graphics/SVG/1.1/DTD/svg11.dtd">
<!-- Generated by graphviz version 2.42.4 (0)
 -->
<!-- Title: L4virtio::Driver::Virtio_net_device::tx Pages: 1 -->
<svg width="488pt" height="134pt"
 viewBox="0.00 0.00 488.00 134.00" xmlns="http://www.w3.org/2000/svg" xmlns:xlink="http://www.w3.org/1999/xlink">
<g id="graph0" class="graph" transform="scale(1 1) rotate(0) translate(4 130)">
<title>L4virtio::Driver::Virtio_net_device::tx</title>
<!-- Node1 -->
<g id="Node000001" class="node">
<title>Node1</title>
<g id="a_Node000001"><a xlink:title="Attempt to allocate a descriptor in the TX queue and transmit the packet, after calling the prepare c...">
<polygon fill="#999999" stroke="#666666" points="122,-78 0,-78 0,-48 122,-48 122,-78"/>
<text text-anchor="start" x="8" y="-66" font-family="Helvetica,sans-Serif" font-size="10.00">L4virtio::Driver::Virtio</text>
<text text-anchor="middle" x="61" y="-55" font-family="Helvetica,sans-Serif" font-size="10.00">_net_device::tx</text>
</a>
</g>
</g>
<!-- Node2 -->
<g id="Node000002" class="node">
<title>Node2</title>
<g id="a_Node000002"><a xlink:href="classL4virtio_1_1Driver_1_1Virtqueue.html#a60e0cff278a11e1aeb749c17e809e093" target="_top" xlink:title="Allocate and return an unused descriptor from the descriptor table.">
<polygon fill="white" stroke="#666666" points="301,-126 158,-126 158,-96 301,-96 301,-126"/>
<text text-anchor="start" x="166" y="-114" font-family="Helvetica,sans-Serif" font-size="10.00">L4virtio::Driver::Virtqueue</text>
<text text-anchor="middle" x="229.5" y="-103" font-family="Helvetica,sans-Serif" font-size="10.00">::alloc_descriptor</text>
</a>
</g>
</g>
<!-- Node1&#45;&gt;Node2 -->
<g id="edge1_Node000001_Node000002" class="edge">
<title>Node1&#45;&gt;Node2</title>
<g id="a_edge1_Node000001_Node000002"><a xlink:title=" ">
<path fill="none" stroke="#63b8ff" d="M114.22,-78.06C130.81,-82.84 149.31,-88.17 166.51,-93.13"/>
<polygon fill="#63b8ff" stroke="#63b8ff" points="165.88,-96.59 176.46,-96 167.82,-89.86 165.88,-96.59"/>
</a>
</g>
</g>
<!-- Node3 -->
<g id="Node000003" class="node">
<title>Node3</title>
<g id="a_Node000003"><a xlink:href="classL4virtio_1_1Driver_1_1Virtqueue.html#a9ebf7e4518d01a4dc17c5ee6c0e3025b" target="_top" xlink:title="Return a reference to a descriptor in the descriptor table.">
<polygon fill="white" stroke="#666666" points="301,-78 158,-78 158,-48 301,-48 301,-78"/>
<text text-anchor="start" x="166" y="-66" font-family="Helvetica,sans-Serif" font-size="10.00">L4virtio::Driver::Virtqueue</text>
<text text-anchor="middle" x="229.5" y="-55" font-family="Helvetica,sans-Serif" font-size="10.00">::desc</text>
</a>
</g>
</g>
<!-- Node1&#45;&gt;Node3 -->
<g id="edge2_Node000001_Node000003" class="edge">
<title>Node1&#45;&gt;Node3</title>
<g id="a_edge2_Node000001_Node000003"><a xlink:title=" ">
<path fill="none" stroke="#63b8ff" d="M122.11,-63C130.48,-63 139.19,-63 147.86,-63"/>
<polygon fill="#63b8ff" stroke="#63b8ff" points="147.99,-66.5 157.99,-63 147.99,-59.5 147.99,-66.5"/>
</a>
</g>
</g>
<!-- Node4 -->
<g id="Node000004" class="node">
<title>Node4</title>
<g id="a_Node000004"><a xlink:href="classL4virtio_1_1Driver_1_1Device.html#a72090d324268b51f3937197748c26853" target="_top" xlink:title="Send a request to the device.">
<polygon fill="white" stroke="#666666" points="294,-30 165,-30 165,0 294,0 294,-30"/>
<text text-anchor="start" x="173" y="-18" font-family="Helvetica,sans-Serif" font-size="10.00">L4virtio::Driver::Device</text>
<text text-anchor="middle" x="229.5" y="-7" font-family="Helvetica,sans-Serif" font-size="10.00">::send</text>
</a>
</g>
</g>
<!-- Node1&#45;&gt;Node4 -->
<g id="edge3_Node000001_Node000004" class="edge">
<title>Node1&#45;&gt;Node4</title>
<g id="a_edge3_Node000001_Node000004"><a xlink:title=" ">
<path fill="none" stroke="#63b8ff" d="M114.22,-47.94C130.81,-43.16 149.31,-37.83 166.51,-32.87"/>
<polygon fill="#63b8ff" stroke="#63b8ff" points="167.82,-36.14 176.46,-30 165.88,-29.41 167.82,-36.14"/>
</a>
</g>
</g>
<!-- Node5 -->
<g id="Node000005" class="node">
<title>Node5</title>
<g id="a_Node000005"><a xlink:href="classL4virtio_1_1Driver_1_1Virtqueue.html#a20a030dd769eddf44b6cb0bb07b84ee8" target="_top" xlink:title="Enqueue a descriptor in the available ring.">
<polygon fill="white" stroke="#666666" points="480,-30 337,-30 337,0 480,0 480,-30"/>
<text text-anchor="start" x="345" y="-18" font-family="Helvetica,sans-Serif" font-size="10.00">L4virtio::Driver::Virtqueue</text>
<text text-anchor="middle" x="408.5" y="-7" font-family="Helvetica,sans-Serif" font-size="10.00">::enqueue_descriptor</text>
</a>
</g>
</g>
<!-- Node4&#45;&gt;Node5 -->
<g id="edge4_Node000004_Node000005" class="edge">
<title>Node4&#45;&gt;Node5</title>
<g id="a_edge4_Node000004_Node000005"><a xlink:title=" ">
<path fill="none" stroke="#63b8ff" d="M294.4,-15C304.83,-15 315.76,-15 326.53,-15"/>
<polygon fill="#63b8ff" stroke="#63b8ff" points="326.8,-18.5 336.8,-15 326.8,-11.5 326.8,-18.5"/>
</a>
</g>
</g>
</g>
</svg>
