<?xml version="1.0" encoding="UTF-8" standalone="no"?>
<!DOCTYPE svg PUBLIC "-//W3C//DTD SVG 1.1//EN"
 "http://www.w3.org/Graphics/SVG/1.1/DTD/svg11.dtd">
<!-- Generated by graphviz version 2.42.4 (0)
 -->
<!-- Title: cxx::Bitfield&lt; T, LSB, MSB &gt;::Value_base&lt; TT &gt; Pages: 1 -->
<svg width="304pt" height="164pt"
 viewBox="0.00 0.00 304.00 164.00" xmlns="http://www.w3.org/2000/svg" xmlns:xlink="http://www.w3.org/1999/xlink">
<g id="graph0" class="graph" transform="scale(1 1) rotate(0) translate(4 160)">
<title>cxx::Bitfield&lt; T, LSB, MSB &gt;::Value_base&lt; TT &gt;</title>
<!-- Node1 -->
<g id="Node000001" class="node">
<title>Node1</title>
<g id="a_Node000001"><a xlink:title="Internal helper type.">
<polygon fill="#999999" stroke="transparent" points="206.5,-156 63.5,-156 63.5,-96 206.5,-96 206.5,-156"/>
<text text-anchor="start" x="69" y="-144" font-family="Helvetica,sans-Serif" font-size="10.00">cxx::Bitfield&lt; T, LSB,</text>
<text text-anchor="start" x="69" y="-133" font-family="Helvetica,sans-Serif" font-size="10.00"> MSB &gt;::Value_base&lt; TT &gt;</text>
<text text-anchor="start" x="133.5" y="-118" font-family="Helvetica,sans-Serif" font-size="10.00"> </text>
<text text-anchor="start" x="133.5" y="-103" font-family="Helvetica,sans-Serif" font-size="10.00"> </text>
<polygon fill="#666666" stroke="#666666" points="64,-128 64,-128 207,-128 207,-128 64,-128"/>
<polygon fill="#666666" stroke="#666666" points="64,-113 64,-113 207,-113 207,-113 64,-113"/>
<polygon fill="none" stroke="#666666" points="63.5,-96 63.5,-156 206.5,-156 206.5,-96 63.5,-96"/>
</a>
</g>
</g>
<!-- Node2 -->
<g id="Node000002" class="node">
<title>Node2</title>
<g id="a_Node000002"><a xlink:href="classcxx_1_1Bitfield_1_1Value.html" target="_top" xlink:title="Internal helper type.">
<polygon fill="white" stroke="transparent" points="114,-60 0,-60 0,0 114,0 114,-60"/>
<text text-anchor="start" x="5" y="-48" font-family="Helvetica,sans-Serif" font-size="10.00">cxx::Bitfield&lt; T, LSB,</text>
<text text-anchor="start" x="5" y="-37" font-family="Helvetica,sans-Serif" font-size="10.00"> MSB &gt;::Value&lt; TT &gt;</text>
<text text-anchor="start" x="55" y="-22" font-family="Helvetica,sans-Serif" font-size="10.00"> </text>
<text text-anchor="start" x="55" y="-7" font-family="Helvetica,sans-Serif" font-size="10.00"> </text>
<polygon fill="#666666" stroke="#666666" points="0,-32 0,-32 114,-32 114,-32 0,-32"/>
<polygon fill="#666666" stroke="#666666" points="0,-17 0,-17 114,-17 114,-17 0,-17"/>
<polygon fill="none" stroke="#666666" points="0,0 0,-60 114,-60 114,0 0,0"/>
</a>
</g>
</g>
<!-- Node1&#45;&gt;Node2 -->
<g id="edge1_Node000001_Node000002" class="edge">
<title>Node1&#45;&gt;Node2</title>
<g id="a_edge1_Node000001_Node000002"><a xlink:title=" ">
<path fill="none" stroke="#63b8ff" d="M104.19,-87.87C96.56,-78.68 88.5,-68.96 81.24,-60.21"/>
<polygon fill="none" stroke="#63b8ff" points="101.67,-90.31 110.75,-95.77 107.06,-85.84 101.67,-90.31"/>
</a>
</g>
</g>
<!-- Node3 -->
<g id="Node000003" class="node">
<title>Node3</title>
<g id="a_Node000003"><a xlink:href="classcxx_1_1Bitfield_1_1Value__unshifted.html" target="_top" xlink:title="Internal helper type.">
<polygon fill="white" stroke="transparent" points="296,-60 132,-60 132,0 296,0 296,-60"/>
<text text-anchor="start" x="137" y="-48" font-family="Helvetica,sans-Serif" font-size="10.00">cxx::Bitfield&lt; T, LSB,</text>
<text text-anchor="start" x="137" y="-37" font-family="Helvetica,sans-Serif" font-size="10.00"> MSB &gt;::Value_unshifted&lt; TT &gt;</text>
<text text-anchor="start" x="212" y="-22" font-family="Helvetica,sans-Serif" font-size="10.00"> </text>
<text text-anchor="start" x="212" y="-7" font-family="Helvetica,sans-Serif" font-size="10.00"> </text>
<polygon fill="#666666" stroke="#666666" points="132,-32 132,-32 296,-32 296,-32 132,-32"/>
<polygon fill="#666666" stroke="#666666" points="132,-17 132,-17 296,-17 296,-17 132,-17"/>
<polygon fill="none" stroke="#666666" points="132,0 132,-60 296,-60 296,0 132,0"/>
</a>
</g>
</g>
<!-- Node1&#45;&gt;Node3 -->
<g id="edge2_Node000001_Node000003" class="edge">
<title>Node1&#45;&gt;Node3</title>
<g id="a_edge2_Node000001_Node000003"><a xlink:title=" ">
<path fill="none" stroke="#63b8ff" d="M166.21,-87.87C173.93,-78.68 182.1,-68.96 189.45,-60.21"/>
<polygon fill="none" stroke="#63b8ff" points="163.32,-85.87 159.56,-95.77 168.68,-90.37 163.32,-85.87"/>
</a>
</g>
</g>
</g>
</svg>
