<?xml version="1.0" encoding="UTF-8" standalone="no"?>
<!DOCTYPE svg PUBLIC "-//W3C//DTD SVG 1.1//EN"
 "http://www.w3.org/Graphics/SVG/1.1/DTD/svg11.dtd">
<!-- Generated by graphviz version 2.43.0 (0)
 -->
<!-- Title: L4virtio::Svr::Driver_mem_list_t&lt; DATA &gt; Pages: 1 -->
<svg width="141pt" height="415pt"
 viewBox="0.00 0.00 141.00 415.00" xmlns="http://www.w3.org/2000/svg" xmlns:xlink="http://www.w3.org/1999/xlink">
<g id="graph0" class="graph" transform="scale(1 1) rotate(0) translate(4 411)">
<title>L4virtio::Svr::Driver_mem_list_t&lt; DATA &gt;</title>
<!-- Node1 -->
<g id="Node000001" class="node">
<title>Node1</title>
<g id="a_Node000001"><a xlink:title="List of driver memory regions assigned to a single L4&#45;VIRTIO transport instance.">
<polygon fill="#999999" stroke="transparent" points="126,-407 7,-407 7,-227 126,-227 126,-407"/>
<text text-anchor="start" x="12.5" y="-395" font-family="Helvetica,sans-Serif" font-size="10.00">L4virtio::Svr::Driver</text>
<text text-anchor="start" x="12.5" y="-384" font-family="Helvetica,sans-Serif" font-size="10.00">_mem_list_t&lt; DATA &gt;</text>
<text text-anchor="start" x="65" y="-369" font-family="Helvetica,sans-Serif" font-size="10.00"> </text>
<text text-anchor="start" x="11.5" y="-354" font-family="Helvetica,sans-Serif" font-size="10.00">+</text>
<text text-anchor="start" x="24.5" y="-354" font-family="Helvetica,sans-Serif" font-size="10.00">Driver_mem_list_t()</text>
<text text-anchor="start" x="11.5" y="-339" font-family="Helvetica,sans-Serif" font-size="10.00">+</text>
<text text-anchor="start" x="24.5" y="-339" font-family="Helvetica,sans-Serif" font-size="10.00">init()</text>
<text text-anchor="start" x="11.5" y="-324" font-family="Helvetica,sans-Serif" font-size="10.00">+</text>
<text text-anchor="start" x="24.5" y="-324" font-family="Helvetica,sans-Serif" font-size="10.00">full()</text>
<text text-anchor="start" x="11.5" y="-309" font-family="Helvetica,sans-Serif" font-size="10.00">+</text>
<text text-anchor="start" x="24.5" y="-309" font-family="Helvetica,sans-Serif" font-size="10.00">add()</text>
<text text-anchor="start" x="11.5" y="-294" font-family="Helvetica,sans-Serif" font-size="10.00">+</text>
<text text-anchor="start" x="24.5" y="-294" font-family="Helvetica,sans-Serif" font-size="10.00">remove()</text>
<text text-anchor="start" x="11.5" y="-279" font-family="Helvetica,sans-Serif" font-size="10.00">+</text>
<text text-anchor="start" x="24.5" y="-279" font-family="Helvetica,sans-Serif" font-size="10.00">find()</text>
<text text-anchor="start" x="11.5" y="-264" font-family="Helvetica,sans-Serif" font-size="10.00">+</text>
<text text-anchor="start" x="24.5" y="-264" font-family="Helvetica,sans-Serif" font-size="10.00">load_desc()</text>
<text text-anchor="start" x="11.5" y="-249" font-family="Helvetica,sans-Serif" font-size="10.00">+</text>
<text text-anchor="start" x="24.5" y="-249" font-family="Helvetica,sans-Serif" font-size="10.00">load_desc()</text>
<text text-anchor="start" x="11.5" y="-234" font-family="Helvetica,sans-Serif" font-size="10.00">+</text>
<text text-anchor="start" x="24.5" y="-234" font-family="Helvetica,sans-Serif" font-size="10.00">load_desc()</text>
<polygon fill="#666666" stroke="#666666" points="7.5,-379 7.5,-379 126.5,-379 126.5,-379 7.5,-379"/>
<polygon fill="#666666" stroke="#666666" points="7.5,-364 7.5,-364 126.5,-364 126.5,-364 7.5,-364"/>
<polygon fill="none" stroke="#666666" points="7,-227 7,-407 126,-407 126,-227 7,-227"/>
</a>
</g>
</g>
<!-- Node2 -->
<g id="Node000002" class="node">
<title>Node2</title>
<g id="a_Node000002"><a xlink:href="classL4virtio_1_1Svr_1_1Driver__mem__list__t.html" target="_top" xlink:title=" ">
<polygon fill="white" stroke="transparent" points="133,-180 0,-180 0,0 133,0 133,-180"/>
<text text-anchor="start" x="5.5" y="-168" font-family="Helvetica,sans-Serif" font-size="10.00">L4virtio::Svr::Driver</text>
<text text-anchor="start" x="5.5" y="-157" font-family="Helvetica,sans-Serif" font-size="10.00">_mem_list_t&lt; Ds_data &gt;</text>
<text text-anchor="start" x="65" y="-142" font-family="Helvetica,sans-Serif" font-size="10.00"> </text>
<text text-anchor="start" x="8" y="-127" font-family="Helvetica,sans-Serif" font-size="10.00">+</text>
<text text-anchor="start" x="24.5" y="-127" font-family="Helvetica,sans-Serif" font-size="10.00">Driver_mem_list_t()</text>
<text text-anchor="start" x="8" y="-112" font-family="Helvetica,sans-Serif" font-size="10.00">+</text>
<text text-anchor="start" x="24.5" y="-112" font-family="Helvetica,sans-Serif" font-size="10.00">init()</text>
<text text-anchor="start" x="8" y="-97" font-family="Helvetica,sans-Serif" font-size="10.00">+</text>
<text text-anchor="start" x="24.5" y="-97" font-family="Helvetica,sans-Serif" font-size="10.00">full()</text>
<text text-anchor="start" x="8" y="-82" font-family="Helvetica,sans-Serif" font-size="10.00">+</text>
<text text-anchor="start" x="24.5" y="-82" font-family="Helvetica,sans-Serif" font-size="10.00">add()</text>
<text text-anchor="start" x="8" y="-67" font-family="Helvetica,sans-Serif" font-size="10.00">+</text>
<text text-anchor="start" x="24.5" y="-67" font-family="Helvetica,sans-Serif" font-size="10.00">remove()</text>
<text text-anchor="start" x="8" y="-52" font-family="Helvetica,sans-Serif" font-size="10.00">+</text>
<text text-anchor="start" x="24.5" y="-52" font-family="Helvetica,sans-Serif" font-size="10.00">find()</text>
<text text-anchor="start" x="8" y="-37" font-family="Helvetica,sans-Serif" font-size="10.00">+</text>
<text text-anchor="start" x="24.5" y="-37" font-family="Helvetica,sans-Serif" font-size="10.00">load_desc()</text>
<text text-anchor="start" x="8" y="-22" font-family="Helvetica,sans-Serif" font-size="10.00">+</text>
<text text-anchor="start" x="24.5" y="-22" font-family="Helvetica,sans-Serif" font-size="10.00">load_desc()</text>
<text text-anchor="start" x="8" y="-7" font-family="Helvetica,sans-Serif" font-size="10.00">+</text>
<text text-anchor="start" x="24.5" y="-7" font-family="Helvetica,sans-Serif" font-size="10.00">load_desc()</text>
<polygon fill="#666666" stroke="#666666" points="0.5,-152 0.5,-152 133.5,-152 133.5,-152 0.5,-152"/>
<polygon fill="#666666" stroke="#666666" points="0.5,-137 0.5,-137 133.5,-137 133.5,-137 0.5,-137"/>
<polygon fill="none" stroke="#666666" points="0,0 0,-180 133,-180 133,0 0,0"/>
</a>
</g>
</g>
<!-- Node1&#45;&gt;Node2 -->
<g id="edge1_Node000001_Node000002" class="edge">
<title>Node1&#45;&gt;Node2</title>
<g id="a_edge1_Node000001_Node000002"><a xlink:title=" ">
<path fill="none" stroke="orange" d="M66.5,-216.61C66.5,-204.47 66.5,-192.12 66.5,-180.14"/>
<polygon fill="orange" stroke="orange" points="63,-216.75 66.5,-226.75 70,-216.75 63,-216.75"/>
</a>
</g>
<text text-anchor="middle" x="99.5" y="-201" font-family="Helvetica,sans-Serif" font-size="10.00" fill="grey"> &lt; Ds_data &gt;</text>
</g>
</g>
</svg>
