<?xml version="1.0" encoding="UTF-8" standalone="no"?>
<!DOCTYPE svg PUBLIC "-//W3C//DTD SVG 1.1//EN"
 "http://www.w3.org/Graphics/SVG/1.1/DTD/svg11.dtd">
<!-- Generated by graphviz version 2.43.0 (0)
 -->
<!-- Title: L4::Server&lt; LOOP_HOOKS &gt; Pages: 1 -->
<svg width="518pt" height="615pt"
 viewBox="0.00 0.00 518.00 615.00" xmlns="http://www.w3.org/2000/svg" xmlns:xlink="http://www.w3.org/1999/xlink">
<g id="graph0" class="graph" transform="scale(1 1) rotate(0) translate(4 611)">
<title>L4::Server&lt; LOOP_HOOKS &gt;</title>
<!-- Node1 -->
<g id="Node000001" class="node">
<title>Node1</title>
<g id="a_Node000001"><a xlink:title="Basic server loop for handling client requests.">
<polygon fill="#999999" stroke="transparent" points="309,-124 160,-124 160,0 309,0 309,-124"/>
<text text-anchor="start" x="165.5" y="-112" font-family="Helvetica,sans-Serif" font-size="10.00">L4::Server&lt; LOOP_HOOKS &gt;</text>
<text text-anchor="start" x="233" y="-97" font-family="Helvetica,sans-Serif" font-size="10.00"> </text>
<text text-anchor="start" x="178.5" y="-82" font-family="Helvetica,sans-Serif" font-size="10.00">+</text>
<text text-anchor="start" x="205.5" y="-82" font-family="Helvetica,sans-Serif" font-size="10.00">Server()</text>
<text text-anchor="start" x="178.5" y="-67" font-family="Helvetica,sans-Serif" font-size="10.00">+</text>
<text text-anchor="start" x="205.5" y="-67" font-family="Helvetica,sans-Serif" font-size="10.00">Server()</text>
<text text-anchor="start" x="178.5" y="-52" font-family="Helvetica,sans-Serif" font-size="10.00">+</text>
<text text-anchor="start" x="205.5" y="-52" font-family="Helvetica,sans-Serif" font-size="10.00">internal_loop()</text>
<text text-anchor="start" x="178.5" y="-37" font-family="Helvetica,sans-Serif" font-size="10.00">+</text>
<text text-anchor="start" x="205.5" y="-37" font-family="Helvetica,sans-Serif" font-size="10.00">loop_noexc()</text>
<text text-anchor="start" x="178.5" y="-22" font-family="Helvetica,sans-Serif" font-size="10.00">+</text>
<text text-anchor="start" x="205.5" y="-22" font-family="Helvetica,sans-Serif" font-size="10.00">loop()</text>
<text text-anchor="start" x="178.5" y="-7" font-family="Helvetica,sans-Serif" font-size="10.00">#</text>
<text text-anchor="start" x="205.5" y="-7" font-family="Helvetica,sans-Serif" font-size="10.00">reply_n_wait()</text>
<polygon fill="#666666" stroke="#666666" points="160.5,-107 160.5,-107 309.5,-107 309.5,-107 160.5,-107"/>
<polygon fill="#666666" stroke="#666666" points="160.5,-92 160.5,-92 309.5,-92 309.5,-92 160.5,-92"/>
<polygon fill="none" stroke="#666666" points="160,0 160,-124 309,-124 309,0 160,0"/>
</a>
</g>
</g>
<!-- Node2 -->
<g id="Node000002" class="node">
<title>Node2</title>
<g id="a_Node000002"><a xlink:href="structL4_1_1Ipc__svr_1_1Default__loop__hooks.html" target="_top" xlink:title="Default LOOP_HOOKS.">
<polygon fill="white" stroke="transparent" points="286.5,-220 182.5,-220 182.5,-160 286.5,-160 286.5,-220"/>
<text text-anchor="start" x="187.5" y="-208" font-family="Helvetica,sans-Serif" font-size="10.00">L4::Ipc_svr::Default</text>
<text text-anchor="start" x="204" y="-197" font-family="Helvetica,sans-Serif" font-size="10.00">_loop_hooks</text>
<text text-anchor="start" x="232.5" y="-182" font-family="Helvetica,sans-Serif" font-size="10.00"> </text>
<text text-anchor="start" x="232.5" y="-167" font-family="Helvetica,sans-Serif" font-size="10.00"> </text>
<polygon fill="#666666" stroke="#666666" points="182.5,-192 182.5,-192 286.5,-192 286.5,-192 182.5,-192"/>
<polygon fill="#666666" stroke="#666666" points="182.5,-177 182.5,-177 286.5,-177 286.5,-177 182.5,-177"/>
<polygon fill="none" stroke="#666666" points="182.5,-160 182.5,-220 286.5,-220 286.5,-160 182.5,-160"/>
</a>
</g>
</g>
<!-- Node2&#45;&gt;Node1 -->
<g id="edge1_Node000001_Node000002" class="edge">
<title>Node2&#45;&gt;Node1</title>
<g id="a_edge1_Node000001_Node000002"><a xlink:title=" ">
<path fill="none" stroke="#63b8ff" d="M234.5,-149.55C234.5,-141.46 234.5,-132.77 234.5,-124.13"/>
<polygon fill="none" stroke="#63b8ff" points="231,-149.78 234.5,-159.78 238,-149.78 231,-149.78"/>
</a>
</g>
</g>
<!-- Node3 -->
<g id="Node000003" class="node">
<title>Node3</title>
<g id="a_Node000003"><a xlink:href="structL4_1_1Ipc__svr_1_1Ignore__errors.html" target="_top" xlink:title="Mix in for LOOP_HOOKS to ignore IPC errors.">
<polygon fill="white" stroke="transparent" points="99,-361 0,-361 0,-301 99,-301 99,-361"/>
<text text-anchor="start" x="5.5" y="-349" font-family="Helvetica,sans-Serif" font-size="10.00">L4::Ipc_svr::Ignore</text>
<text text-anchor="start" x="33" y="-338" font-family="Helvetica,sans-Serif" font-size="10.00">_errors</text>
<text text-anchor="start" x="48" y="-323" font-family="Helvetica,sans-Serif" font-size="10.00"> </text>
<text text-anchor="start" x="48" y="-308" font-family="Helvetica,sans-Serif" font-size="10.00"> </text>
<polygon fill="#666666" stroke="#666666" points="0.5,-333 0.5,-333 99.5,-333 99.5,-333 0.5,-333"/>
<polygon fill="#666666" stroke="#666666" points="0.5,-318 0.5,-318 99.5,-318 99.5,-318 0.5,-318"/>
<polygon fill="none" stroke="#666666" points="0,-301 0,-361 99,-361 99,-301 0,-301"/>
</a>
</g>
</g>
<!-- Node3&#45;&gt;Node2 -->
<g id="edge2_Node000002_Node000003" class="edge">
<title>Node3&#45;&gt;Node2</title>
<g id="a_edge2_Node000002_Node000003"><a xlink:title=" ">
<path fill="none" stroke="#63b8ff" d="M74.35,-292.69C84,-280.01 95.79,-266.43 108.5,-256 130.58,-237.89 158.52,-222.85 182.47,-211.81"/>
<polygon fill="none" stroke="#63b8ff" points="71.45,-290.72 68.33,-300.85 77.09,-294.88 71.45,-290.72"/>
</a>
</g>
</g>
<!-- Node4 -->
<g id="Node000004" class="node">
<title>Node4</title>
<g id="a_Node000004"><a xlink:href="structL4_1_1Ipc__svr_1_1Default__timeout.html" target="_top" xlink:title="Mix in for LOOP_HOOKS to use a 0 send and a infinite receive timeout.">
<polygon fill="white" stroke="transparent" points="221.5,-361 117.5,-361 117.5,-301 221.5,-301 221.5,-361"/>
<text text-anchor="start" x="122.5" y="-349" font-family="Helvetica,sans-Serif" font-size="10.00">L4::Ipc_svr::Default</text>
<text text-anchor="start" x="147.5" y="-338" font-family="Helvetica,sans-Serif" font-size="10.00">_timeout</text>
<text text-anchor="start" x="167.5" y="-323" font-family="Helvetica,sans-Serif" font-size="10.00"> </text>
<text text-anchor="start" x="167.5" y="-308" font-family="Helvetica,sans-Serif" font-size="10.00"> </text>
<polygon fill="#666666" stroke="#666666" points="117.5,-333 117.5,-333 221.5,-333 221.5,-333 117.5,-333"/>
<polygon fill="#666666" stroke="#666666" points="117.5,-318 117.5,-318 221.5,-318 221.5,-318 117.5,-318"/>
<polygon fill="none" stroke="#666666" points="117.5,-301 117.5,-361 221.5,-361 221.5,-301 117.5,-301"/>
</a>
</g>
</g>
<!-- Node4&#45;&gt;Node2 -->
<g id="edge3_Node000002_Node000004" class="edge">
<title>Node4&#45;&gt;Node2</title>
<g id="a_edge3_Node000002_Node000004"><a xlink:title=" ">
<path fill="none" stroke="#63b8ff" d="M187.48,-291.55C198.05,-268.96 211.19,-240.85 220.89,-220.1"/>
<polygon fill="none" stroke="#63b8ff" points="184.19,-290.32 183.13,-300.86 190.53,-293.29 184.19,-290.32"/>
</a>
</g>
</g>
<!-- Node5 -->
<g id="Node000005" class="node">
<title>Node5</title>
<g id="a_Node000005"><a xlink:href="structL4_1_1Ipc__svr_1_1Compound__reply.html" target="_top" xlink:title="Mix in for LOOP_HOOKS to always use compound reply and wait.">
<polygon fill="white" stroke="transparent" points="361,-361 240,-361 240,-301 361,-301 361,-361"/>
<text text-anchor="start" x="245.5" y="-349" font-family="Helvetica,sans-Serif" font-size="10.00">L4::Ipc_svr::Compound</text>
<text text-anchor="start" x="285.5" y="-338" font-family="Helvetica,sans-Serif" font-size="10.00">_reply</text>
<text text-anchor="start" x="299" y="-323" font-family="Helvetica,sans-Serif" font-size="10.00"> </text>
<text text-anchor="start" x="299" y="-308" font-family="Helvetica,sans-Serif" font-size="10.00"> </text>
<polygon fill="#666666" stroke="#666666" points="240.5,-333 240.5,-333 361.5,-333 361.5,-333 240.5,-333"/>
<polygon fill="#666666" stroke="#666666" points="240.5,-318 240.5,-318 361.5,-318 361.5,-318 240.5,-318"/>
<polygon fill="none" stroke="#666666" points="240,-301 240,-361 361,-361 361,-301 240,-301"/>
</a>
</g>
</g>
<!-- Node5&#45;&gt;Node2 -->
<g id="edge4_Node000002_Node000005" class="edge">
<title>Node5&#45;&gt;Node2</title>
<g id="a_edge4_Node000002_Node000005"><a xlink:title=" ">
<path fill="none" stroke="#63b8ff" d="M282.24,-291.55C271.52,-268.96 258.17,-240.85 248.32,-220.1"/>
<polygon fill="none" stroke="#63b8ff" points="279.21,-293.33 286.66,-300.86 285.54,-290.33 279.21,-293.33"/>
</a>
</g>
</g>
<!-- Node6 -->
<g id="Node000006" class="node">
<title>Node6</title>
<g id="a_Node000006"><a xlink:href="classL4_1_1Ipc__svr_1_1Br__manager__no__buffers.html" target="_top" xlink:title="Empty implementation of Server_iface.">
<polygon fill="white" stroke="transparent" points="510,-406 379,-406 379,-256 510,-256 510,-406"/>
<text text-anchor="start" x="386" y="-394" font-family="Helvetica,sans-Serif" font-size="10.00">L4::Ipc_svr::Br_manager</text>
<text text-anchor="start" x="416.5" y="-383" font-family="Helvetica,sans-Serif" font-size="10.00">_no_buffers</text>
<text text-anchor="start" x="443" y="-368" font-family="Helvetica,sans-Serif" font-size="10.00"> </text>
<text text-anchor="start" x="383.5" y="-353" font-family="Helvetica,sans-Serif" font-size="10.00">+</text>
<text text-anchor="start" x="396.5" y="-353" font-family="Helvetica,sans-Serif" font-size="10.00">alloc_buffer_demand()</text>
<text text-anchor="start" x="383.5" y="-338" font-family="Helvetica,sans-Serif" font-size="10.00">+</text>
<text text-anchor="start" x="396.5" y="-338" font-family="Helvetica,sans-Serif" font-size="10.00">get_rcv_cap()</text>
<text text-anchor="start" x="383.5" y="-323" font-family="Helvetica,sans-Serif" font-size="10.00">+</text>
<text text-anchor="start" x="396.5" y="-323" font-family="Helvetica,sans-Serif" font-size="10.00">realloc_rcv_cap()</text>
<text text-anchor="start" x="383.5" y="-308" font-family="Helvetica,sans-Serif" font-size="10.00">+</text>
<text text-anchor="start" x="396.5" y="-308" font-family="Helvetica,sans-Serif" font-size="10.00">add_timeout()</text>
<text text-anchor="start" x="383.5" y="-293" font-family="Helvetica,sans-Serif" font-size="10.00">+</text>
<text text-anchor="start" x="396.5" y="-293" font-family="Helvetica,sans-Serif" font-size="10.00">remove_timeout()</text>
<text text-anchor="start" x="383.5" y="-278" font-family="Helvetica,sans-Serif" font-size="10.00">#</text>
<text text-anchor="start" x="396.5" y="-278" font-family="Helvetica,sans-Serif" font-size="10.00">first_free_br()</text>
<text text-anchor="start" x="383.5" y="-263" font-family="Helvetica,sans-Serif" font-size="10.00">#</text>
<text text-anchor="start" x="396.5" y="-263" font-family="Helvetica,sans-Serif" font-size="10.00">setup_wait()</text>
<polygon fill="#666666" stroke="#666666" points="379.5,-378 379.5,-378 510.5,-378 510.5,-378 379.5,-378"/>
<polygon fill="#666666" stroke="#666666" points="379.5,-363 379.5,-363 510.5,-363 510.5,-363 379.5,-363"/>
<polygon fill="none" stroke="#666666" points="379,-256 379,-406 510,-406 510,-256 379,-256"/>
</a>
</g>
</g>
<!-- Node6&#45;&gt;Node2 -->
<g id="edge5_Node000002_Node000006" class="edge">
<title>Node6&#45;&gt;Node2</title>
<g id="a_edge5_Node000002_Node000006"><a xlink:title=" ">
<path fill="none" stroke="#63b8ff" d="M370.76,-256.19C370.68,-256.12 370.59,-256.06 370.5,-256 344.65,-237.71 312.85,-222.19 286.51,-210.91"/>
<polygon fill="none" stroke="#63b8ff" points="368.81,-259.09 378.91,-262.29 373,-253.49 368.81,-259.09"/>
</a>
</g>
</g>
<!-- Node7 -->
<g id="Node000007" class="node">
<title>Node7</title>
<g id="a_Node000007"><a xlink:href="classL4_1_1Ipc__svr_1_1Server__iface.html" target="_top" xlink:title="Interface for server&#45;loop related functions.">
<polygon fill="white" stroke="transparent" points="510,-607 379,-607 379,-442 510,-442 510,-607"/>
<text text-anchor="start" x="400" y="-594.5" font-family="Helvetica,sans-Serif" font-size="10.00">L4::Ipc_svr::Server</text>
<text text-anchor="start" x="430" y="-583.5" font-family="Helvetica,sans-Serif" font-size="10.00">_iface</text>
<text text-anchor="start" x="443" y="-568.5" font-family="Helvetica,sans-Serif" font-size="10.00"> </text>
<text text-anchor="start" x="383.5" y="-553.5" font-family="Helvetica,sans-Serif" font-size="10.00">+</text>
<text text-anchor="start" x="396.5" y="-553.5" font-family="Helvetica,sans-Serif" font-size="10.00">Server_iface()</text>
<text text-anchor="start" x="383.5" y="-538.5" font-family="Helvetica,sans-Serif" font-size="10.00">+</text>
<text text-anchor="start" x="396.5" y="-538.5" font-family="Helvetica,sans-Serif" font-size="10.00">alloc_buffer_demand()</text>
<text text-anchor="start" x="383.5" y="-523.5" font-family="Helvetica,sans-Serif" font-size="10.00">+</text>
<text text-anchor="start" x="396.5" y="-523.5" font-family="Helvetica,sans-Serif" font-size="10.00">get_rcv_cap()</text>
<text text-anchor="start" x="383.5" y="-508.5" font-family="Helvetica,sans-Serif" font-size="10.00">+</text>
<text text-anchor="start" x="396.5" y="-508.5" font-family="Helvetica,sans-Serif" font-size="10.00">realloc_rcv_cap()</text>
<text text-anchor="start" x="383.5" y="-493.5" font-family="Helvetica,sans-Serif" font-size="10.00">+</text>
<text text-anchor="start" x="396.5" y="-493.5" font-family="Helvetica,sans-Serif" font-size="10.00">add_timeout()</text>
<text text-anchor="start" x="383.5" y="-478.5" font-family="Helvetica,sans-Serif" font-size="10.00">+</text>
<text text-anchor="start" x="396.5" y="-478.5" font-family="Helvetica,sans-Serif" font-size="10.00">remove_timeout()</text>
<text text-anchor="start" x="383.5" y="-463.5" font-family="Helvetica,sans-Serif" font-size="10.00">+</text>
<text text-anchor="start" x="396.5" y="-463.5" font-family="Helvetica,sans-Serif" font-size="10.00">rcv_cap()</text>
<text text-anchor="start" x="383.5" y="-448.5" font-family="Helvetica,sans-Serif" font-size="10.00">+</text>
<text text-anchor="start" x="396.5" y="-448.5" font-family="Helvetica,sans-Serif" font-size="10.00">rcv_cap()</text>
<polygon fill="#666666" stroke="#666666" points="379.5,-578.5 379.5,-578.5 510.5,-578.5 510.5,-578.5 379.5,-578.5"/>
<polygon fill="#666666" stroke="#666666" points="379.5,-563.5 379.5,-563.5 510.5,-563.5 510.5,-563.5 379.5,-563.5"/>
<polygon fill="none" stroke="#666666" points="379,-442 379,-607 510,-607 510,-442 379,-442"/>
</a>
</g>
</g>
<!-- Node7&#45;&gt;Node6 -->
<g id="edge6_Node000006_Node000007" class="edge">
<title>Node7&#45;&gt;Node6</title>
<g id="a_edge6_Node000006_Node000007"><a xlink:title=" ">
<path fill="none" stroke="#63b8ff" d="M444.5,-431.73C444.5,-423.18 444.5,-414.59 444.5,-406.22"/>
<polygon fill="none" stroke="#63b8ff" points="441,-431.73 444.5,-441.73 448,-431.73 441,-431.73"/>
</a>
</g>
</g>
</g>
</svg>
