<?xml version="1.0" encoding="UTF-8" standalone="no"?>
<!DOCTYPE svg PUBLIC "-//W3C//DTD SVG 1.1//EN"
 "http://www.w3.org/Graphics/SVG/1.1/DTD/svg11.dtd">
<!-- Generated by graphviz version 2.43.0 (0)
 -->
<!-- Title: L4virtio::Virtqueue::used_size Pages: 1 -->
<svg width="448pt" height="158pt"
 viewBox="0.00 0.00 448.00 158.00" xmlns="http://www.w3.org/2000/svg" xmlns:xlink="http://www.w3.org/1999/xlink">
<g id="graph0" class="graph" transform="scale(1 1) rotate(0) translate(4 154)">
<title>L4virtio::Virtqueue::used_size</title>
<!-- Node1 -->
<g id="Node000001" class="node">
<title>Node1</title>
<g id="a_Node000001"><a xlink:title="Calculate the size of the used ring for num entries.">
<polygon fill="#999999" stroke="#666666" points="440,-102 333,-102 333,-72 440,-72 440,-102"/>
<text text-anchor="start" x="341" y="-90" font-family="Helvetica,sans-Serif" font-size="10.00">L4virtio::Virtqueue</text>
<text text-anchor="middle" x="386.5" y="-79" font-family="Helvetica,sans-Serif" font-size="10.00">::used_size</text>
</a>
</g>
</g>
<!-- Node2 -->
<g id="Node000002" class="node">
<title>Node2</title>
<g id="a_Node000002"><a xlink:href="classL4virtio_1_1Svr_1_1Device__t.html#ab906b4cc61026fd815a8056f07bef10e" target="_top" xlink:title="Enable/disable the specified queue.">
<polygon fill="white" stroke="#666666" points="297,-150 182,-150 182,-120 297,-120 297,-150"/>
<text text-anchor="start" x="190" y="-138" font-family="Helvetica,sans-Serif" font-size="10.00">L4virtio::Svr::Device</text>
<text text-anchor="middle" x="239.5" y="-127" font-family="Helvetica,sans-Serif" font-size="10.00">_t::setup_queue</text>
</a>
</g>
</g>
<!-- Node1&#45;&gt;Node2 -->
<g id="edge1_Node000001_Node000002" class="edge">
<title>Node1&#45;&gt;Node2</title>
<g id="a_edge1_Node000001_Node000002"><a xlink:title=" ">
<path fill="none" stroke="#63b8ff" d="M330.5,-105.21C315.75,-110.09 299.98,-115.31 285.82,-120"/>
<polygon fill="#63b8ff" stroke="#63b8ff" points="331.63,-108.52 340.02,-102.06 329.43,-101.88 331.63,-108.52"/>
</a>
</g>
</g>
<!-- Node3 -->
<g id="Node000003" class="node">
<title>Node3</title>
<g id="a_Node000003"><a xlink:href="classL4virtio_1_1Virtqueue.html#a96dfd139f3a022e9e2328e28716acdc9" target="_top" xlink:title="Calculate the total size of this virtqueue.">
<polygon fill="white" stroke="#666666" points="293,-102 186,-102 186,-72 293,-72 293,-102"/>
<text text-anchor="start" x="194" y="-90" font-family="Helvetica,sans-Serif" font-size="10.00">L4virtio::Virtqueue</text>
<text text-anchor="middle" x="239.5" y="-79" font-family="Helvetica,sans-Serif" font-size="10.00">::total_size</text>
</a>
</g>
</g>
<!-- Node1&#45;&gt;Node3 -->
<g id="edge2_Node000001_Node000003" class="edge">
<title>Node1&#45;&gt;Node3</title>
<g id="a_edge2_Node000001_Node000003"><a xlink:title=" ">
<path fill="none" stroke="#63b8ff" d="M322.7,-87C312.95,-87 302.96,-87 293.46,-87"/>
<polygon fill="#63b8ff" stroke="#63b8ff" points="322.74,-90.5 332.74,-87 322.74,-83.5 322.74,-90.5"/>
</a>
</g>
</g>
<!-- Node4 -->
<g id="Node000004" class="node">
<title>Node4</title>
<g id="a_Node000004"><a xlink:href="classL4virtio_1_1Virtqueue.html#a6f8cdc52ebe6322c3023e05e0e055293" target="_top" xlink:title="Calculate the total size for a virtqueue of the given dimensions.">
<polygon fill="white" stroke="#666666" points="293,-54 186,-54 186,-24 293,-24 293,-54"/>
<text text-anchor="start" x="194" y="-42" font-family="Helvetica,sans-Serif" font-size="10.00">L4virtio::Virtqueue</text>
<text text-anchor="middle" x="239.5" y="-31" font-family="Helvetica,sans-Serif" font-size="10.00">::total_size</text>
</a>
</g>
</g>
<!-- Node1&#45;&gt;Node4 -->
<g id="edge3_Node000001_Node000004" class="edge">
<title>Node1&#45;&gt;Node4</title>
<g id="a_edge3_Node000001_Node000004"><a xlink:title=" ">
<path fill="none" stroke="#63b8ff" d="M330.5,-68.79C315.75,-63.91 299.98,-58.69 285.82,-54"/>
<polygon fill="#63b8ff" stroke="#63b8ff" points="329.43,-72.12 340.02,-71.94 331.63,-65.48 329.43,-72.12"/>
</a>
</g>
</g>
<!-- Node5 -->
<g id="Node000005" class="node">
<title>Node5</title>
<g id="a_Node000005"><a xlink:href="classL4virtio_1_1Driver_1_1Virtio__net__device.html#aa5d34e5156db18773cf46c2d06a2aa3a" target="_top" xlink:title="Establish a connection to the device and set up shared memory.">
<polygon fill="white" stroke="#666666" points="146,-78 0,-78 0,-48 146,-48 146,-78"/>
<text text-anchor="start" x="8" y="-66" font-family="Helvetica,sans-Serif" font-size="10.00">L4virtio::Driver::Virtio</text>
<text text-anchor="middle" x="73" y="-55" font-family="Helvetica,sans-Serif" font-size="10.00">_net_device::setup_device</text>
</a>
</g>
</g>
<!-- Node4&#45;&gt;Node5 -->
<g id="edge4_Node000004_Node000005" class="edge">
<title>Node4&#45;&gt;Node5</title>
<g id="a_edge4_Node000004_Node000005"><a xlink:title=" ">
<path fill="none" stroke="#63b8ff" d="M175.99,-48.12C166.22,-49.55 156.06,-51.03 146.1,-52.48"/>
<polygon fill="#63b8ff" stroke="#63b8ff" points="176.61,-51.57 186,-46.66 175.6,-44.64 176.61,-51.57"/>
</a>
</g>
</g>
<!-- Node6 -->
<g id="Node000006" class="node">
<title>Node6</title>
<g id="a_Node000006"><a xlink:href="classL4virtio_1_1Driver_1_1Block__device.html#af509c2785789dd2daf6b13f3369c6581" target="_top" xlink:title="Establish a connection to the device and set up shared memory.">
<polygon fill="white" stroke="#666666" points="135.5,-30 10.5,-30 10.5,0 135.5,0 135.5,-30"/>
<text text-anchor="start" x="18.5" y="-18" font-family="Helvetica,sans-Serif" font-size="10.00">L4virtio::Driver::Block</text>
<text text-anchor="middle" x="73" y="-7" font-family="Helvetica,sans-Serif" font-size="10.00">_device::setup_device</text>
</a>
</g>
</g>
<!-- Node4&#45;&gt;Node6 -->
<g id="edge5_Node000004_Node000006" class="edge">
<title>Node4&#45;&gt;Node6</title>
<g id="a_edge5_Node000004_Node000006"><a xlink:title=" ">
<path fill="none" stroke="#63b8ff" d="M176.07,-29.89C162.87,-27.97 148.94,-25.93 135.76,-24.01"/>
<polygon fill="#63b8ff" stroke="#63b8ff" points="175.6,-33.36 186,-31.34 176.61,-26.43 175.6,-33.36"/>
</a>
</g>
</g>
</g>
</svg>
