<?xml version="1.0" encoding="UTF-8" standalone="no"?>
<!DOCTYPE svg PUBLIC "-//W3C//DTD SVG 1.1//EN"
 "http://www.w3.org/Graphics/SVG/1.1/DTD/svg11.dtd">
<!-- Generated by graphviz version 2.42.4 (0)
 -->
<!-- Title: L4virtio::Svr::Virtqueue::consumed Pages: 1 -->
<svg width="1058pt" height="282pt"
 viewBox="0.00 0.00 1058.00 282.00" xmlns="http://www.w3.org/2000/svg" xmlns:xlink="http://www.w3.org/1999/xlink">
<g id="graph0" class="graph" transform="scale(1 1) rotate(0) translate(4 278)">
<title>L4virtio::Svr::Virtqueue::consumed</title>
<!-- Node1 -->
<g id="Node000001" class="node">
<title>Node1</title>
<g id="a_Node000001"><a xlink:title="Put the given descriptor into the used ring.">
<polygon fill="#999999" stroke="#666666" points="1050,-84 922,-84 922,-54 1050,-54 1050,-84"/>
<text text-anchor="start" x="930" y="-72" font-family="Helvetica,sans-Serif" font-size="10.00">L4virtio::Svr::Virtqueue</text>
<text text-anchor="middle" x="986" y="-61" font-family="Helvetica,sans-Serif" font-size="10.00">::consumed</text>
</a>
</g>
</g>
<!-- Node2 -->
<g id="Node000002" class="node">
<title>Node2</title>
<g id="a_Node000002"><a xlink:href="classL4virtio_1_1Svr_1_1Virtqueue.html#aeba93ed1ee8f9abfe42542187e54cca0" target="_top" xlink:title="Add a descriptor to the used ring, and notify an observer.">
<polygon fill="white" stroke="#666666" points="875.5,-156 747.5,-156 747.5,-126 875.5,-126 875.5,-156"/>
<text text-anchor="start" x="755.5" y="-144" font-family="Helvetica,sans-Serif" font-size="10.00">L4virtio::Svr::Virtqueue</text>
<text text-anchor="middle" x="811.5" y="-133" font-family="Helvetica,sans-Serif" font-size="10.00">::finish</text>
</a>
</g>
</g>
<!-- Node1&#45;&gt;Node2 -->
<g id="edge1_Node000001_Node000002" class="edge">
<title>Node1&#45;&gt;Node2</title>
<g id="a_edge1_Node000001_Node000002"><a xlink:title=" ">
<path fill="none" stroke="#63b8ff" d="M939.52,-87.98C911.12,-99.84 875.05,-114.89 848.61,-125.93"/>
<polygon fill="#63b8ff" stroke="#63b8ff" points="940.96,-91.18 948.84,-84.09 938.26,-84.72 940.96,-91.18"/>
</a>
</g>
</g>
<!-- Node14 -->
<g id="Node000014" class="node">
<title>Node14</title>
<g id="a_Node000014"><a xlink:href="classL4virtio_1_1Svr_1_1Virtqueue.html#ad7102baa13cc3341a1b559f849f57651" target="_top" xlink:title="Add a range of descriptors to the used ring, and notify an observer once.">
<polygon fill="white" stroke="#666666" points="875.5,-30 747.5,-30 747.5,0 875.5,0 875.5,-30"/>
<text text-anchor="start" x="755.5" y="-18" font-family="Helvetica,sans-Serif" font-size="10.00">L4virtio::Svr::Virtqueue</text>
<text text-anchor="middle" x="811.5" y="-7" font-family="Helvetica,sans-Serif" font-size="10.00">::finish</text>
</a>
</g>
</g>
<!-- Node1&#45;&gt;Node14 -->
<g id="edge15_Node000001_Node000014" class="edge">
<title>Node1&#45;&gt;Node14</title>
<g id="a_edge15_Node000001_Node000014"><a xlink:title=" ">
<path fill="none" stroke="#63b8ff" d="M927.22,-50.91C905.59,-44.14 881.26,-36.52 860.59,-30.05"/>
<polygon fill="#63b8ff" stroke="#63b8ff" points="926.36,-54.31 936.95,-53.96 928.45,-47.63 926.36,-54.31"/>
</a>
</g>
</g>
<!-- Node15 -->
<g id="Node000015" class="node">
<title>Node15</title>
<g id="a_Node000015"><a xlink:href="classL4virtio_1_1Svr_1_1Console_1_1Virtio__con.html#ab3766f6b0a63966a6063ae540bb844a1" target="_top" xlink:title="Handle control message received from the driver.">
<polygon fill="white" stroke="#666666" points="886,-89.5 737,-89.5 737,-48.5 886,-48.5 886,-89.5"/>
<text text-anchor="start" x="745" y="-77.5" font-family="Helvetica,sans-Serif" font-size="10.00">L4virtio::Svr::Console</text>
<text text-anchor="start" x="745" y="-66.5" font-family="Helvetica,sans-Serif" font-size="10.00">::Virtio_con::handle_control</text>
<text text-anchor="middle" x="811.5" y="-55.5" font-family="Helvetica,sans-Serif" font-size="10.00">_message</text>
</a>
</g>
</g>
<!-- Node1&#45;&gt;Node15 -->
<g id="edge16_Node000001_Node000015" class="edge">
<title>Node1&#45;&gt;Node15</title>
<g id="a_edge16_Node000001_Node000015"><a xlink:title=" ">
<path fill="none" stroke="#63b8ff" d="M911.61,-69C903.22,-69 894.66,-69 886.27,-69"/>
<polygon fill="#63b8ff" stroke="#63b8ff" points="911.75,-72.5 921.75,-69 911.75,-65.5 911.75,-72.5"/>
</a>
</g>
</g>
<!-- Node3 -->
<g id="Node000003" class="node">
<title>Node3</title>
<g id="a_Node000003"><a xlink:href="classL4virtio_1_1Svr_1_1Console_1_1Device.html#acf4b1bbf927d4d40b2532a7a18bf21bd" target="_top" xlink:title="Read data from port.">
<polygon fill="white" stroke="#666666" points="691,-118 571,-118 571,-88 691,-88 691,-118"/>
<text text-anchor="start" x="579" y="-106" font-family="Helvetica,sans-Serif" font-size="10.00">L4virtio::Svr::Console</text>
<text text-anchor="middle" x="631" y="-95" font-family="Helvetica,sans-Serif" font-size="10.00">::Device::port_read</text>
</a>
</g>
</g>
<!-- Node2&#45;&gt;Node3 -->
<g id="edge2_Node000002_Node000003" class="edge">
<title>Node2&#45;&gt;Node3</title>
<g id="a_edge2_Node000002_Node000003"><a xlink:title=" ">
<path fill="none" stroke="#63b8ff" d="M737.34,-125.43C721.99,-122.16 705.98,-118.75 691.21,-115.61"/>
<polygon fill="#63b8ff" stroke="#63b8ff" points="736.81,-128.89 747.32,-127.55 738.26,-122.04 736.81,-128.89"/>
</a>
</g>
</g>
<!-- Node4 -->
<g id="Node000004" class="node">
<title>Node4</title>
<g id="a_Node000004"><a xlink:href="classL4virtio_1_1Svr_1_1Console_1_1Device.html#a5b906c9cec86e9cf30dff4fe1edf1b11" target="_top" xlink:title="Write data to port.">
<polygon fill="white" stroke="#666666" points="691,-166 571,-166 571,-136 691,-136 691,-166"/>
<text text-anchor="start" x="579" y="-154" font-family="Helvetica,sans-Serif" font-size="10.00">L4virtio::Svr::Console</text>
<text text-anchor="middle" x="631" y="-143" font-family="Helvetica,sans-Serif" font-size="10.00">::Device::port_write</text>
</a>
</g>
</g>
<!-- Node2&#45;&gt;Node4 -->
<g id="edge3_Node000002_Node000004" class="edge">
<title>Node2&#45;&gt;Node4</title>
<g id="a_edge3_Node000002_Node000004"><a xlink:title=" ">
<path fill="none" stroke="#63b8ff" d="M736.9,-145.12C721.69,-145.98 705.84,-146.86 691.21,-147.68"/>
<polygon fill="#63b8ff" stroke="#63b8ff" points="737.53,-148.59 747.32,-144.54 737.14,-141.6 737.53,-148.59"/>
</a>
</g>
</g>
<!-- Node5 -->
<g id="Node000005" class="node">
<title>Node5</title>
<g id="a_Node000005"><a xlink:href="classL4virtio_1_1Svr_1_1Console_1_1Virtio__con.html#ade546fa843dcfb4a0412757fee9834d7" target="_top" xlink:title="Send control message to driver.">
<polygon fill="white" stroke="#666666" points="701,-225.5 561,-225.5 561,-184.5 701,-184.5 701,-225.5"/>
<text text-anchor="start" x="569" y="-213.5" font-family="Helvetica,sans-Serif" font-size="10.00">L4virtio::Svr::Console</text>
<text text-anchor="start" x="569" y="-202.5" font-family="Helvetica,sans-Serif" font-size="10.00">::Virtio_con::send_control</text>
<text text-anchor="middle" x="631" y="-191.5" font-family="Helvetica,sans-Serif" font-size="10.00">_message</text>
</a>
</g>
</g>
<!-- Node2&#45;&gt;Node5 -->
<g id="edge4_Node000002_Node000005" class="edge">
<title>Node2&#45;&gt;Node5</title>
<g id="a_edge4_Node000002_Node000005"><a xlink:title=" ">
<path fill="none" stroke="#63b8ff" d="M759.24,-159.38C737.43,-167.2 711.91,-176.35 689.47,-184.4"/>
<polygon fill="#63b8ff" stroke="#63b8ff" points="760.42,-162.67 768.65,-156.01 758.06,-156.09 760.42,-162.67"/>
</a>
</g>
</g>
<!-- Node6 -->
<g id="Node000006" class="node">
<title>Node6</title>
<g id="a_Node000006"><a xlink:href="classL4virtio_1_1Svr_1_1Console_1_1Virtio__con.html#a88e370a9d1c9e029a8de04f68e380457" target="_top" xlink:title="Send a DEVICE_ADD message and update the internal state.">
<polygon fill="white" stroke="#666666" points="515,-268 395,-268 395,-238 515,-238 515,-268"/>
<text text-anchor="start" x="403" y="-256" font-family="Helvetica,sans-Serif" font-size="10.00">L4virtio::Svr::Console</text>
<text text-anchor="middle" x="455" y="-245" font-family="Helvetica,sans-Serif" font-size="10.00">::Virtio_con::port_add</text>
</a>
</g>
</g>
<!-- Node5&#45;&gt;Node6 -->
<g id="edge5_Node000005_Node000006" class="edge">
<title>Node5&#45;&gt;Node6</title>
<g id="a_edge5_Node000005_Node000006"><a xlink:title=" ">
<path fill="none" stroke="#63b8ff" d="M551.05,-226.78C537.33,-230.57 523.33,-234.43 510.45,-237.98"/>
<polygon fill="#63b8ff" stroke="#63b8ff" points="552.27,-230.07 560.98,-224.04 550.41,-223.33 552.27,-230.07"/>
</a>
</g>
</g>
<!-- Node10 -->
<g id="Node000010" class="node">
<title>Node10</title>
<g id="a_Node000010"><a xlink:href="classL4virtio_1_1Svr_1_1Console_1_1Virtio__con.html#a71decef04824571dd001527b9cff8ccb" target="_top" xlink:title="Send a PORT_OPEN message and update the internal state.">
<polygon fill="white" stroke="#666666" points="518,-220 392,-220 392,-190 518,-190 518,-220"/>
<text text-anchor="start" x="400" y="-208" font-family="Helvetica,sans-Serif" font-size="10.00">L4virtio::Svr::Console</text>
<text text-anchor="middle" x="455" y="-197" font-family="Helvetica,sans-Serif" font-size="10.00">::Virtio_con::port_open</text>
</a>
</g>
</g>
<!-- Node5&#45;&gt;Node10 -->
<g id="edge9_Node000005_Node000010" class="edge">
<title>Node5&#45;&gt;Node10</title>
<g id="a_edge9_Node000005_Node000010"><a xlink:title=" ">
<path fill="none" stroke="#63b8ff" d="M550.95,-205C539.96,-205 528.79,-205 518.16,-205"/>
<polygon fill="#63b8ff" stroke="#63b8ff" points="550.98,-208.5 560.98,-205 550.98,-201.5 550.98,-208.5"/>
</a>
</g>
</g>
<!-- Node12 -->
<g id="Node000012" class="node">
<title>Node12</title>
<g id="a_Node000012"><a xlink:href="classL4virtio_1_1Svr_1_1Console_1_1Virtio__con.html#a8335db1f605263cb6ccf2109b8993944" target="_top" xlink:title="Send a DEVICE_REMOVE message and update the internal state.">
<polygon fill="white" stroke="#666666" points="525,-172 385,-172 385,-142 525,-142 525,-172"/>
<text text-anchor="start" x="393" y="-160" font-family="Helvetica,sans-Serif" font-size="10.00">L4virtio::Svr::Console</text>
<text text-anchor="middle" x="455" y="-149" font-family="Helvetica,sans-Serif" font-size="10.00">::Virtio_con::port_remove</text>
</a>
</g>
</g>
<!-- Node5&#45;&gt;Node12 -->
<g id="edge12_Node000005_Node000012" class="edge">
<title>Node5&#45;&gt;Node12</title>
<g id="a_edge12_Node000005_Node000012"><a xlink:title=" ">
<path fill="none" stroke="#63b8ff" d="M551.05,-183.22C537.33,-179.43 523.33,-175.57 510.45,-172.02"/>
<polygon fill="#63b8ff" stroke="#63b8ff" points="550.41,-186.67 560.98,-185.96 552.27,-179.93 550.41,-186.67"/>
</a>
</g>
</g>
<!-- Node7 -->
<g id="Node000007" class="node">
<title>Node7</title>
<g id="a_Node000007"><a xlink:href="classL4virtio_1_1Svr_1_1Console_1_1Device.html#a7a27d977561bcd659d54644f91b3a307" target="_top" xlink:title="Callback called on DEVICE_READY event.">
<polygon fill="white" stroke="#666666" points="349,-274 179,-274 179,-244 349,-244 349,-274"/>
<text text-anchor="start" x="187" y="-262" font-family="Helvetica,sans-Serif" font-size="10.00">L4virtio::Svr::Console</text>
<text text-anchor="middle" x="264" y="-251" font-family="Helvetica,sans-Serif" font-size="10.00">::Device::process_device_ready</text>
</a>
</g>
</g>
<!-- Node6&#45;&gt;Node7 -->
<g id="edge6_Node000006_Node000007" class="edge">
<title>Node6&#45;&gt;Node7</title>
<g id="a_edge6_Node000006_Node000007"><a xlink:title=" ">
<path fill="none" stroke="#63b8ff" d="M384.93,-255.19C373.31,-255.56 361.14,-255.95 349.2,-256.33"/>
<polygon fill="#63b8ff" stroke="#63b8ff" points="385.09,-258.69 394.98,-254.87 384.87,-251.69 385.09,-258.69"/>
</a>
</g>
</g>
<!-- Node8 -->
<g id="Node000008" class="node">
<title>Node8</title>
<g id="a_Node000008"><a xlink:href="classL4virtio_1_1Svr_1_1Console_1_1Device.html#a5f8d5752548def0f7db1cbade7918d6a" target="_top" xlink:title="Try to resend a stalled control message and update the port and global state accordingly.">
<polygon fill="white" stroke="#666666" points="331,-225.5 197,-225.5 197,-184.5 331,-184.5 331,-225.5"/>
<text text-anchor="start" x="205" y="-213.5" font-family="Helvetica,sans-Serif" font-size="10.00">L4virtio::Svr::Console</text>
<text text-anchor="start" x="205" y="-202.5" font-family="Helvetica,sans-Serif" font-size="10.00">::Device::resend_stalled</text>
<text text-anchor="middle" x="264" y="-191.5" font-family="Helvetica,sans-Serif" font-size="10.00">_control_messages</text>
</a>
</g>
</g>
<!-- Node6&#45;&gt;Node8 -->
<g id="edge7_Node000006_Node000008" class="edge">
<title>Node6&#45;&gt;Node8</title>
<g id="a_edge7_Node000006_Node000008"><a xlink:title=" ">
<path fill="none" stroke="#63b8ff" d="M384.82,-235.43C367.3,-230.98 348.52,-226.21 331.14,-221.8"/>
<polygon fill="#63b8ff" stroke="#63b8ff" points="384.42,-238.94 394.98,-238.01 386.15,-232.16 384.42,-238.94"/>
</a>
</g>
</g>
<!-- Node9 -->
<g id="Node000009" class="node">
<title>Node9</title>
<g id="a_Node000009"><a xlink:href="classL4virtio_1_1Svr_1_1Console_1_1Device.html#a7df13c65e5b01e4bd8140a1c9b6b3858" target="_top" xlink:title="Receive new control messages and resend stalled ones.">
<polygon fill="white" stroke="#666666" points="143,-147 0,-147 0,-117 143,-117 143,-147"/>
<text text-anchor="start" x="8" y="-135" font-family="Helvetica,sans-Serif" font-size="10.00">L4virtio::Svr::Console</text>
<text text-anchor="middle" x="71.5" y="-124" font-family="Helvetica,sans-Serif" font-size="10.00">::Device::do_control_work</text>
</a>
</g>
</g>
<!-- Node8&#45;&gt;Node9 -->
<g id="edge8_Node000008_Node000009" class="edge">
<title>Node8&#45;&gt;Node9</title>
<g id="a_edge8_Node000008_Node000009"><a xlink:title=" ">
<path fill="none" stroke="#63b8ff" d="M194.89,-180.94C189.5,-178.96 184.16,-176.96 179,-175 155.52,-166.07 129.35,-155.51 108.83,-147.1"/>
<polygon fill="#63b8ff" stroke="#63b8ff" points="194,-184.34 204.59,-184.49 196.4,-177.77 194,-184.34"/>
</a>
</g>
</g>
<!-- Node10&#45;&gt;Node8 -->
<g id="edge11_Node000010_Node000008" class="edge">
<title>Node10&#45;&gt;Node8</title>
<g id="a_edge11_Node000010_Node000008"><a xlink:title=" ">
<path fill="none" stroke="#63b8ff" d="M381.65,-205C365.02,-205 347.43,-205 331.08,-205"/>
<polygon fill="#63b8ff" stroke="#63b8ff" points="381.85,-208.5 391.85,-205 381.85,-201.5 381.85,-208.5"/>
</a>
</g>
</g>
<!-- Node11 -->
<g id="Node000011" class="node">
<title>Node11</title>
<g id="a_Node000011"><a xlink:href="classL4virtio_1_1Svr_1_1Console_1_1Device.html#a718fd3f1885b00a1ac6f0d9d33e4b9f4" target="_top" xlink:title="Callback called on PORT_OPEN event.">
<polygon fill="white" stroke="#666666" points="341,-166 187,-166 187,-136 341,-136 341,-166"/>
<text text-anchor="start" x="195" y="-154" font-family="Helvetica,sans-Serif" font-size="10.00">L4virtio::Svr::Console</text>
<text text-anchor="middle" x="264" y="-143" font-family="Helvetica,sans-Serif" font-size="10.00">::Device::process_port_open</text>
</a>
</g>
</g>
<!-- Node10&#45;&gt;Node11 -->
<g id="edge10_Node000010_Node000011" class="edge">
<title>Node10&#45;&gt;Node11</title>
<g id="a_edge10_Node000010_Node000011"><a xlink:title=" ">
<path fill="none" stroke="#63b8ff" d="M391.65,-187.19C367.71,-180.35 340.64,-172.61 317.69,-166.05"/>
<polygon fill="#63b8ff" stroke="#63b8ff" points="390.78,-190.58 401.35,-189.96 392.7,-183.85 390.78,-190.58"/>
</a>
</g>
</g>
<!-- Node12&#45;&gt;Node8 -->
<g id="edge14_Node000012_Node000008" class="edge">
<title>Node12&#45;&gt;Node8</title>
<g id="a_edge14_Node000012_Node000008"><a xlink:title=" ">
<path fill="none" stroke="#63b8ff" d="M384.63,-174.62C367.21,-179.04 348.57,-183.78 331.31,-188.16"/>
<polygon fill="#63b8ff" stroke="#63b8ff" points="385.89,-177.91 394.72,-172.06 384.16,-171.13 385.89,-177.91"/>
</a>
</g>
</g>
<!-- Node13 -->
<g id="Node000013" class="node">
<title>Node13</title>
<g id="a_Node000013"><a xlink:href="classL4virtio_1_1Svr_1_1Console_1_1Device.html#a7dde9e63b6fb498c87b6c1ed9e60198f" target="_top" xlink:title="Callback called on PORT_READY event.">
<polygon fill="white" stroke="#666666" points="343,-118 185,-118 185,-88 343,-88 343,-118"/>
<text text-anchor="start" x="193" y="-106" font-family="Helvetica,sans-Serif" font-size="10.00">L4virtio::Svr::Console</text>
<text text-anchor="middle" x="264" y="-95" font-family="Helvetica,sans-Serif" font-size="10.00">::Device::process_port_ready</text>
</a>
</g>
</g>
<!-- Node12&#45;&gt;Node13 -->
<g id="edge13_Node000012_Node000013" class="edge">
<title>Node12&#45;&gt;Node13</title>
<g id="a_edge13_Node000012_Node000013"><a xlink:title=" ">
<path fill="none" stroke="#63b8ff" d="M391.65,-139.19C367.71,-132.35 340.64,-124.61 317.69,-118.05"/>
<polygon fill="#63b8ff" stroke="#63b8ff" points="390.78,-142.58 401.35,-141.96 392.7,-135.85 390.78,-142.58"/>
</a>
</g>
</g>
<!-- Node15&#45;&gt;Node9 -->
<g id="edge17_Node000015_Node000009" class="edge">
<title>Node15&#45;&gt;Node9</title>
<g id="a_edge17_Node000015_Node000009"><a xlink:title=" ">
<path fill="none" stroke="#63b8ff" d="M726.66,-58.71C604.28,-46.29 370.45,-32.39 179,-79 148.3,-86.47 116.25,-103.95 95.44,-116.79"/>
<polygon fill="#63b8ff" stroke="#63b8ff" points="726.41,-62.21 736.72,-59.76 727.13,-55.24 726.41,-62.21"/>
</a>
</g>
</g>
</g>
</svg>
