<?xml version="1.0" encoding="UTF-8" standalone="no"?>
<!DOCTYPE svg PUBLIC "-//W3C//DTD SVG 1.1//EN"
 "http://www.w3.org/Graphics/SVG/1.1/DTD/svg11.dtd">
<!-- Generated by graphviz version 2.42.4 (0)
 -->
<!-- Title: L4::Bounds_error Pages: 1 -->
<svg width="123pt" height="417pt"
 viewBox="0.00 0.00 123.00 417.00" xmlns="http://www.w3.org/2000/svg" xmlns:xlink="http://www.w3.org/1999/xlink">
<g id="graph0" class="graph" transform="scale(1 1) rotate(0) translate(4 413)">
<title>L4::Bounds_error</title>
<!-- Node1 -->
<g id="Node000001" class="node">
<title>Node1</title>
<g id="a_Node000001"><a xlink:title="Access out of bounds.">
<polygon fill="#999999" stroke="transparent" points="103.5,-49 11.5,-49 11.5,0 103.5,0 103.5,-49"/>
<text text-anchor="start" x="16.5" y="-36.5" font-family="Helvetica,sans-Serif" font-size="10.00">L4::Bounds_error</text>
<text text-anchor="start" x="55.5" y="-21.5" font-family="Helvetica,sans-Serif" font-size="10.00"> </text>
<text text-anchor="start" x="55.5" y="-6.5" font-family="Helvetica,sans-Serif" font-size="10.00"> </text>
<polygon fill="#666666" stroke="#666666" points="11.5,-31.5 11.5,-31.5 103.5,-31.5 103.5,-31.5 11.5,-31.5"/>
<polygon fill="#666666" stroke="#666666" points="11.5,-16.5 11.5,-16.5 103.5,-16.5 103.5,-16.5 11.5,-16.5"/>
<polygon fill="none" stroke="#666666" points="11.5,0 11.5,-49 103.5,-49 103.5,0 11.5,0"/>
</a>
</g>
</g>
<!-- Node2 -->
<g id="Node000002" class="node">
<title>Node2</title>
<g id="a_Node000002"><a xlink:href="classL4_1_1Runtime__error.html" target="_top" xlink:title="Exception for an abstract runtime error.">
<polygon fill="white" stroke="transparent" points="107,-179 8,-179 8,-85 107,-85 107,-179"/>
<text text-anchor="start" x="14" y="-167" font-family="Helvetica,sans-Serif" font-size="10.00">L4::Runtime_error</text>
<text text-anchor="start" x="56" y="-152" font-family="Helvetica,sans-Serif" font-size="10.00"> </text>
<text text-anchor="start" x="12.5" y="-137" font-family="Helvetica,sans-Serif" font-size="10.00">+</text>
<text text-anchor="start" x="25.5" y="-137" font-family="Helvetica,sans-Serif" font-size="10.00">Runtime_error()</text>
<text text-anchor="start" x="12.5" y="-122" font-family="Helvetica,sans-Serif" font-size="10.00">+</text>
<text text-anchor="start" x="25.5" y="-122" font-family="Helvetica,sans-Serif" font-size="10.00">str()</text>
<text text-anchor="start" x="12.5" y="-107" font-family="Helvetica,sans-Serif" font-size="10.00">+</text>
<text text-anchor="start" x="25.5" y="-107" font-family="Helvetica,sans-Serif" font-size="10.00">extra_str()</text>
<text text-anchor="start" x="12.5" y="-92" font-family="Helvetica,sans-Serif" font-size="10.00">+</text>
<text text-anchor="start" x="25.5" y="-92" font-family="Helvetica,sans-Serif" font-size="10.00">err_no()</text>
<polygon fill="#666666" stroke="#666666" points="8.5,-162 8.5,-162 107.5,-162 107.5,-162 8.5,-162"/>
<polygon fill="#666666" stroke="#666666" points="8.5,-147 8.5,-147 107.5,-147 107.5,-147 8.5,-147"/>
<polygon fill="none" stroke="#666666" points="8,-85 8,-179 107,-179 107,-85 8,-85"/>
</a>
</g>
</g>
<!-- Node2&#45;&gt;Node1 -->
<g id="edge1_Node000001_Node000002" class="edge">
<title>Node2&#45;&gt;Node1</title>
<g id="a_edge1_Node000001_Node000002"><a xlink:title=" ">
<path fill="none" stroke="#63b8ff" d="M57.5,-74.59C57.5,-65.62 57.5,-56.79 57.5,-49.15"/>
<polygon fill="none" stroke="#63b8ff" points="54,-74.73 57.5,-84.73 61,-74.73 54,-74.73"/>
</a>
</g>
</g>
<!-- Node3 -->
<g id="Node000003" class="node">
<title>Node3</title>
<g id="a_Node000003"><a xlink:href="classL4_1_1Base__exception.html" target="_top" xlink:title="Base class for all exceptions, thrown by the L4Re framework.">
<polygon fill="white" stroke="transparent" points="115,-294 0,-294 0,-215 115,-215 115,-294"/>
<text text-anchor="start" x="10.5" y="-281.5" font-family="Helvetica,sans-Serif" font-size="10.00">L4::Base_exception</text>
<text text-anchor="start" x="56" y="-266.5" font-family="Helvetica,sans-Serif" font-size="10.00"> </text>
<text text-anchor="start" x="4.5" y="-251.5" font-family="Helvetica,sans-Serif" font-size="10.00">+</text>
<text text-anchor="start" x="17.5" y="-251.5" font-family="Helvetica,sans-Serif" font-size="10.00">str()</text>
<text text-anchor="start" x="4.5" y="-236.5" font-family="Helvetica,sans-Serif" font-size="10.00">+</text>
<text text-anchor="start" x="17.5" y="-236.5" font-family="Helvetica,sans-Serif" font-size="10.00">~Base_exception()</text>
<text text-anchor="start" x="4.5" y="-221.5" font-family="Helvetica,sans-Serif" font-size="10.00">#</text>
<text text-anchor="start" x="17.5" y="-221.5" font-family="Helvetica,sans-Serif" font-size="10.00">Base_exception()</text>
<polygon fill="#666666" stroke="#666666" points="0.5,-276.5 0.5,-276.5 115.5,-276.5 115.5,-276.5 0.5,-276.5"/>
<polygon fill="#666666" stroke="#666666" points="0.5,-261.5 0.5,-261.5 115.5,-261.5 115.5,-261.5 0.5,-261.5"/>
<polygon fill="none" stroke="#666666" points="0,-215 0,-294 115,-294 115,-215 0,-215"/>
</a>
</g>
</g>
<!-- Node3&#45;&gt;Node2 -->
<g id="edge2_Node000002_Node000003" class="edge">
<title>Node3&#45;&gt;Node2</title>
<g id="a_edge2_Node000002_Node000003"><a xlink:title=" ">
<path fill="none" stroke="#63b8ff" d="M57.5,-204.68C57.5,-196.3 57.5,-187.61 57.5,-179.29"/>
<polygon fill="none" stroke="#63b8ff" points="54,-204.71 57.5,-214.71 61,-204.71 54,-204.71"/>
</a>
</g>
</g>
<!-- Node4 -->
<g id="Node000004" class="node">
<title>Node4</title>
<g id="a_Node000004"><a xlink:href="classL4_1_1Exception__tracer.html" target="_top" xlink:title="Back&#45;trace support for exceptions.">
<polygon fill="white" stroke="transparent" points="113,-409 2,-409 2,-330 113,-330 113,-409"/>
<text text-anchor="start" x="8" y="-396.5" font-family="Helvetica,sans-Serif" font-size="10.00">L4::Exception_tracer</text>
<text text-anchor="start" x="56" y="-381.5" font-family="Helvetica,sans-Serif" font-size="10.00"> </text>
<text text-anchor="start" x="6.5" y="-366.5" font-family="Helvetica,sans-Serif" font-size="10.00">+</text>
<text text-anchor="start" x="19.5" y="-366.5" font-family="Helvetica,sans-Serif" font-size="10.00">pc_array()</text>
<text text-anchor="start" x="6.5" y="-351.5" font-family="Helvetica,sans-Serif" font-size="10.00">+</text>
<text text-anchor="start" x="19.5" y="-351.5" font-family="Helvetica,sans-Serif" font-size="10.00">frame_count()</text>
<text text-anchor="start" x="6.5" y="-336.5" font-family="Helvetica,sans-Serif" font-size="10.00">#</text>
<text text-anchor="start" x="19.5" y="-336.5" font-family="Helvetica,sans-Serif" font-size="10.00">Exception_tracer()</text>
<polygon fill="#666666" stroke="#666666" points="2.5,-391.5 2.5,-391.5 113.5,-391.5 113.5,-391.5 2.5,-391.5"/>
<polygon fill="#666666" stroke="#666666" points="2.5,-376.5 2.5,-376.5 113.5,-376.5 113.5,-376.5 2.5,-376.5"/>
<polygon fill="none" stroke="#666666" points="2,-330 2,-409 113,-409 113,-330 2,-330"/>
</a>
</g>
</g>
<!-- Node4&#45;&gt;Node3 -->
<g id="edge3_Node000003_Node000004" class="edge">
<title>Node4&#45;&gt;Node3</title>
<g id="a_edge3_Node000003_Node000004"><a xlink:title=" ">
<path fill="none" stroke="#63b8ff" d="M57.5,-319.72C57.5,-311.22 57.5,-302.47 57.5,-294.28"/>
<polygon fill="none" stroke="#63b8ff" points="54,-319.93 57.5,-329.93 61,-319.93 54,-319.93"/>
</a>
</g>
</g>
</g>
</svg>
