<?xml version="1.0" encoding="UTF-8" standalone="no"?>
<!DOCTYPE svg PUBLIC "-//W3C//DTD SVG 1.1//EN"
 "http://www.w3.org/Graphics/SVG/1.1/DTD/svg11.dtd">
<!-- Generated by graphviz version 2.43.0 (0)
 -->
<!-- Title: L4vbus::Device Pages: 1 -->
<svg width="330pt" height="905pt"
 viewBox="0.00 0.00 329.50 905.00" xmlns="http://www.w3.org/2000/svg" xmlns:xlink="http://www.w3.org/1999/xlink">
<g id="graph0" class="graph" transform="scale(1 1) rotate(0) translate(4 901)">
<title>L4vbus::Device</title>
<!-- Node1 -->
<g id="Node000001" class="node">
<title>Node1</title>
<g id="a_Node000001"><a xlink:title="Device on a L4vbus::Vbus.">
<polygon fill="#999999" stroke="transparent" points="184,-199 85,-199 85,0 184,0 184,-199"/>
<text text-anchor="start" x="97.5" y="-186.5" font-family="Helvetica,sans-Serif" font-size="10.00">L4vbus::Device</text>
<text text-anchor="start" x="89.5" y="-171.5" font-family="Helvetica,sans-Serif" font-size="10.00">#</text>
<text text-anchor="start" x="102.5" y="-171.5" font-family="Helvetica,sans-Serif" font-size="10.00">_dev</text>
<text text-anchor="start" x="89.5" y="-156.5" font-family="Helvetica,sans-Serif" font-size="10.00">+</text>
<text text-anchor="start" x="102.5" y="-156.5" font-family="Helvetica,sans-Serif" font-size="10.00">Device()</text>
<text text-anchor="start" x="89.5" y="-141.5" font-family="Helvetica,sans-Serif" font-size="10.00">+</text>
<text text-anchor="start" x="102.5" y="-141.5" font-family="Helvetica,sans-Serif" font-size="10.00">Device()</text>
<text text-anchor="start" x="89.5" y="-126.5" font-family="Helvetica,sans-Serif" font-size="10.00">+</text>
<text text-anchor="start" x="102.5" y="-126.5" font-family="Helvetica,sans-Serif" font-size="10.00">bus_cap()</text>
<text text-anchor="start" x="89.5" y="-111.5" font-family="Helvetica,sans-Serif" font-size="10.00">+</text>
<text text-anchor="start" x="102.5" y="-111.5" font-family="Helvetica,sans-Serif" font-size="10.00">dev_handle()</text>
<text text-anchor="start" x="89.5" y="-96.5" font-family="Helvetica,sans-Serif" font-size="10.00">+</text>
<text text-anchor="start" x="102.5" y="-96.5" font-family="Helvetica,sans-Serif" font-size="10.00">device_by_hid()</text>
<text text-anchor="start" x="89.5" y="-81.5" font-family="Helvetica,sans-Serif" font-size="10.00">+</text>
<text text-anchor="start" x="102.5" y="-81.5" font-family="Helvetica,sans-Serif" font-size="10.00">next_device()</text>
<text text-anchor="start" x="89.5" y="-66.5" font-family="Helvetica,sans-Serif" font-size="10.00">+</text>
<text text-anchor="start" x="102.5" y="-66.5" font-family="Helvetica,sans-Serif" font-size="10.00">device()</text>
<text text-anchor="start" x="89.5" y="-51.5" font-family="Helvetica,sans-Serif" font-size="10.00">+</text>
<text text-anchor="start" x="102.5" y="-51.5" font-family="Helvetica,sans-Serif" font-size="10.00">get_resource()</text>
<text text-anchor="start" x="89.5" y="-36.5" font-family="Helvetica,sans-Serif" font-size="10.00">+</text>
<text text-anchor="start" x="102.5" y="-36.5" font-family="Helvetica,sans-Serif" font-size="10.00">is_compatible()</text>
<text text-anchor="start" x="89.5" y="-21.5" font-family="Helvetica,sans-Serif" font-size="10.00">+</text>
<text text-anchor="start" x="102.5" y="-21.5" font-family="Helvetica,sans-Serif" font-size="10.00">operator==()</text>
<text text-anchor="start" x="89.5" y="-6.5" font-family="Helvetica,sans-Serif" font-size="10.00">+</text>
<text text-anchor="start" x="102.5" y="-6.5" font-family="Helvetica,sans-Serif" font-size="10.00">operator!=()</text>
<polygon fill="#666666" stroke="#666666" points="85.5,-181.5 85.5,-181.5 184.5,-181.5 184.5,-181.5 85.5,-181.5"/>
<polygon fill="#666666" stroke="#666666" points="85.5,-166.5 85.5,-166.5 100.5,-166.5 100.5,-166.5 85.5,-166.5"/>
<polygon fill="#666666" stroke="#666666" points="100.5,-166.5 100.5,-166.5 184.5,-166.5 184.5,-166.5 100.5,-166.5"/>
<polygon fill="none" stroke="#666666" points="85,0 85,-199 184,-199 184,0 85,0"/>
</a>
</g>
</g>
<!-- Node2 -->
<g id="Node000002" class="node">
<title>Node2</title>
<g id="a_Node000002"><a xlink:href="classL4vbus_1_1Pm.html" target="_top" xlink:title=" ">
<polygon fill="white" stroke="transparent" points="123,-355 0,-355 0,-291 123,-291 123,-355"/>
<text text-anchor="start" x="5.5" y="-343" font-family="Helvetica,sans-Serif" font-size="10.00">L4vbus::Pm&lt; Device &gt;</text>
<text text-anchor="start" x="60" y="-328" font-family="Helvetica,sans-Serif" font-size="10.00"> </text>
<text text-anchor="start" x="12.5" y="-313" font-family="Helvetica,sans-Serif" font-size="10.00">+</text>
<text text-anchor="start" x="33.5" y="-313" font-family="Helvetica,sans-Serif" font-size="10.00">pm_suspend()</text>
<text text-anchor="start" x="12.5" y="-298" font-family="Helvetica,sans-Serif" font-size="10.00">+</text>
<text text-anchor="start" x="33.5" y="-298" font-family="Helvetica,sans-Serif" font-size="10.00">pm_resume()</text>
<polygon fill="#666666" stroke="#666666" points="0.5,-338 0.5,-338 123.5,-338 123.5,-338 0.5,-338"/>
<polygon fill="#666666" stroke="#666666" points="0.5,-323 0.5,-323 123.5,-323 123.5,-323 0.5,-323"/>
<polygon fill="none" stroke="#666666" points="0,-291 0,-355 123,-355 123,-291 0,-291"/>
</a>
</g>
</g>
<!-- Node2&#45;&gt;Node1 -->
<g id="edge1_Node000001_Node000002" class="edge">
<title>Node2&#45;&gt;Node1</title>
<g id="a_edge1_Node000001_Node000002"><a xlink:title=" ">
<path fill="none" stroke="#63b8ff" d="M75.02,-280.97C82.62,-257.9 92.47,-228.04 101.95,-199.27"/>
<polygon fill="none" stroke="#63b8ff" points="71.61,-280.14 71.8,-290.73 78.26,-282.33 71.61,-280.14"/>
</a>
</g>
</g>
<!-- Node3 -->
<g id="Node000003" class="node">
<title>Node3</title>
<g id="a_Node000003"><a xlink:href="classL4vbus_1_1Pm.html" target="_top" xlink:title="Power&#45;management API mixin.">
<polygon fill="white" stroke="transparent" points="116.5,-556 6.5,-556 6.5,-492 116.5,-492 116.5,-556"/>
<text text-anchor="start" x="11.5" y="-544" font-family="Helvetica,sans-Serif" font-size="10.00">L4vbus::Pm&lt; DEC &gt;</text>
<text text-anchor="start" x="59.5" y="-529" font-family="Helvetica,sans-Serif" font-size="10.00"> </text>
<text text-anchor="start" x="15" y="-514" font-family="Helvetica,sans-Serif" font-size="10.00">+</text>
<text text-anchor="start" x="32.5" y="-514" font-family="Helvetica,sans-Serif" font-size="10.00">pm_suspend()</text>
<text text-anchor="start" x="15" y="-499" font-family="Helvetica,sans-Serif" font-size="10.00">+</text>
<text text-anchor="start" x="32.5" y="-499" font-family="Helvetica,sans-Serif" font-size="10.00">pm_resume()</text>
<polygon fill="#666666" stroke="#666666" points="6.5,-539 6.5,-539 116.5,-539 116.5,-539 6.5,-539"/>
<polygon fill="#666666" stroke="#666666" points="6.5,-524 6.5,-524 116.5,-524 116.5,-524 6.5,-524"/>
<polygon fill="none" stroke="#666666" points="6.5,-492 6.5,-556 116.5,-556 116.5,-492 6.5,-492"/>
</a>
</g>
</g>
<!-- Node3&#45;&gt;Node2 -->
<g id="edge2_Node000002_Node000003" class="edge">
<title>Node3&#45;&gt;Node2</title>
<g id="a_edge2_Node000002_Node000003"><a xlink:title=" ">
<path fill="none" stroke="orange" d="M61.5,-481.78C61.5,-444.14 61.5,-389.32 61.5,-355.2"/>
<polygon fill="orange" stroke="orange" points="58,-481.91 61.5,-491.91 65,-481.91 58,-481.91"/>
</a>
</g>
<text text-anchor="middle" x="91.5" y="-421" font-family="Helvetica,sans-Serif" font-size="10.00" fill="grey"> &lt; Device &gt;</text>
</g>
<!-- Node4 -->
<g id="Node000004" class="node">
<title>Node4</title>
<g id="a_Node000004"><a xlink:href="classL4_1_1Cap.html" target="_top" xlink:title=" ">
<polygon fill="white" stroke="transparent" points="275.5,-400 141.5,-400 141.5,-246 275.5,-246 275.5,-400"/>
<text text-anchor="start" x="146.5" y="-388" font-family="Helvetica,sans-Serif" font-size="10.00">L4::Cap&lt; L4vbus::Vbus &gt;</text>
<text text-anchor="start" x="206.5" y="-373" font-family="Helvetica,sans-Serif" font-size="10.00"> </text>
<text text-anchor="start" x="158.5" y="-358" font-family="Helvetica,sans-Serif" font-size="10.00">+</text>
<text text-anchor="start" x="184.5" y="-358" font-family="Helvetica,sans-Serif" font-size="10.00">Cap()</text>
<text text-anchor="start" x="158.5" y="-343" font-family="Helvetica,sans-Serif" font-size="10.00">+</text>
<text text-anchor="start" x="184.5" y="-343" font-family="Helvetica,sans-Serif" font-size="10.00">Cap()</text>
<text text-anchor="start" x="158.5" y="-328" font-family="Helvetica,sans-Serif" font-size="10.00">+</text>
<text text-anchor="start" x="184.5" y="-328" font-family="Helvetica,sans-Serif" font-size="10.00">Cap()</text>
<text text-anchor="start" x="158.5" y="-313" font-family="Helvetica,sans-Serif" font-size="10.00">+</text>
<text text-anchor="start" x="184.5" y="-313" font-family="Helvetica,sans-Serif" font-size="10.00">Cap()</text>
<text text-anchor="start" x="158.5" y="-298" font-family="Helvetica,sans-Serif" font-size="10.00">+</text>
<text text-anchor="start" x="184.5" y="-298" font-family="Helvetica,sans-Serif" font-size="10.00">Cap()</text>
<text text-anchor="start" x="158.5" y="-283" font-family="Helvetica,sans-Serif" font-size="10.00">+</text>
<text text-anchor="start" x="184.5" y="-283" font-family="Helvetica,sans-Serif" font-size="10.00">move()</text>
<text text-anchor="start" x="158.5" y="-268" font-family="Helvetica,sans-Serif" font-size="10.00">+</text>
<text text-anchor="start" x="184.5" y="-268" font-family="Helvetica,sans-Serif" font-size="10.00">copy()</text>
<text text-anchor="start" x="158.5" y="-253" font-family="Helvetica,sans-Serif" font-size="10.00">+</text>
<text text-anchor="start" x="184.5" y="-253" font-family="Helvetica,sans-Serif" font-size="10.00">operator&#45;&gt;()</text>
<polygon fill="#666666" stroke="#666666" points="141.5,-383 141.5,-383 275.5,-383 275.5,-383 141.5,-383"/>
<polygon fill="#666666" stroke="#666666" points="141.5,-368 141.5,-368 275.5,-368 275.5,-368 141.5,-368"/>
<polygon fill="none" stroke="#666666" points="141.5,-246 141.5,-400 275.5,-400 275.5,-246 141.5,-246"/>
</a>
</g>
</g>
<!-- Node4&#45;&gt;Node1 -->
<g id="edge3_Node000001_Node000004" class="edge">
<title>Node4&#45;&gt;Node1</title>
<g id="a_edge3_Node000001_Node000004"><a xlink:title=" ">
<path fill="none" stroke="#63b8ff" d="M183.03,-245.77C179.23,-234.39 175.25,-222.47 171.27,-210.56"/>
<polygon fill="none" stroke="#63b8ff" points="171.27,-210.55 165.57,-206.12 167.46,-199.16 173.16,-203.59 171.27,-210.55"/>
</a>
</g>
<text text-anchor="middle" x="193.5" y="-220" font-family="Helvetica,sans-Serif" font-size="10.00" fill="grey"> #_bus</text>
</g>
<!-- Node5 -->
<g id="Node000005" class="node">
<title>Node5</title>
<g id="a_Node000005"><a xlink:href="classL4_1_1Cap__base.html" target="_top" xlink:title="Base class for all kinds of capabilities.">
<polygon fill="white" stroke="transparent" points="240,-897 153,-897 153,-638 240,-638 240,-897"/>
<text text-anchor="start" x="164.5" y="-884.5" font-family="Helvetica,sans-Serif" font-size="10.00">L4::Cap_base</text>
<text text-anchor="start" x="157.5" y="-869.5" font-family="Helvetica,sans-Serif" font-size="10.00">#</text>
<text text-anchor="start" x="170.5" y="-869.5" font-family="Helvetica,sans-Serif" font-size="10.00">_c</text>
<text text-anchor="start" x="157.5" y="-854.5" font-family="Helvetica,sans-Serif" font-size="10.00">+</text>
<text text-anchor="start" x="170.5" y="-854.5" font-family="Helvetica,sans-Serif" font-size="10.00">cap()</text>
<text text-anchor="start" x="157.5" y="-839.5" font-family="Helvetica,sans-Serif" font-size="10.00">+</text>
<text text-anchor="start" x="170.5" y="-839.5" font-family="Helvetica,sans-Serif" font-size="10.00">is_valid()</text>
<text text-anchor="start" x="157.5" y="-824.5" font-family="Helvetica,sans-Serif" font-size="10.00">+</text>
<text text-anchor="start" x="170.5" y="-824.5" font-family="Helvetica,sans-Serif" font-size="10.00">fpage()</text>
<text text-anchor="start" x="157.5" y="-809.5" font-family="Helvetica,sans-Serif" font-size="10.00">+</text>
<text text-anchor="start" x="170.5" y="-809.5" font-family="Helvetica,sans-Serif" font-size="10.00">snd_base()</text>
<text text-anchor="start" x="157.5" y="-794.5" font-family="Helvetica,sans-Serif" font-size="10.00">+</text>
<text text-anchor="start" x="170.5" y="-794.5" font-family="Helvetica,sans-Serif" font-size="10.00">operator==()</text>
<text text-anchor="start" x="157.5" y="-779.5" font-family="Helvetica,sans-Serif" font-size="10.00">+</text>
<text text-anchor="start" x="170.5" y="-779.5" font-family="Helvetica,sans-Serif" font-size="10.00">operator!=()</text>
<text text-anchor="start" x="157.5" y="-764.5" font-family="Helvetica,sans-Serif" font-size="10.00">+</text>
<text text-anchor="start" x="170.5" y="-764.5" font-family="Helvetica,sans-Serif" font-size="10.00">validate()</text>
<text text-anchor="start" x="157.5" y="-749.5" font-family="Helvetica,sans-Serif" font-size="10.00">+</text>
<text text-anchor="start" x="170.5" y="-749.5" font-family="Helvetica,sans-Serif" font-size="10.00">validate()</text>
<text text-anchor="start" x="157.5" y="-734.5" font-family="Helvetica,sans-Serif" font-size="10.00">+</text>
<text text-anchor="start" x="170.5" y="-734.5" font-family="Helvetica,sans-Serif" font-size="10.00">invalidate()</text>
<text text-anchor="start" x="157.5" y="-719.5" font-family="Helvetica,sans-Serif" font-size="10.00">#</text>
<text text-anchor="start" x="170.5" y="-719.5" font-family="Helvetica,sans-Serif" font-size="10.00">Cap_base()</text>
<text text-anchor="start" x="157.5" y="-704.5" font-family="Helvetica,sans-Serif" font-size="10.00">#</text>
<text text-anchor="start" x="170.5" y="-704.5" font-family="Helvetica,sans-Serif" font-size="10.00">Cap_base()</text>
<text text-anchor="start" x="157.5" y="-689.5" font-family="Helvetica,sans-Serif" font-size="10.00">#</text>
<text text-anchor="start" x="170.5" y="-689.5" font-family="Helvetica,sans-Serif" font-size="10.00">Cap_base()</text>
<text text-anchor="start" x="157.5" y="-674.5" font-family="Helvetica,sans-Serif" font-size="10.00">#</text>
<text text-anchor="start" x="170.5" y="-674.5" font-family="Helvetica,sans-Serif" font-size="10.00">Cap_base()</text>
<text text-anchor="start" x="157.5" y="-659.5" font-family="Helvetica,sans-Serif" font-size="10.00">#</text>
<text text-anchor="start" x="170.5" y="-659.5" font-family="Helvetica,sans-Serif" font-size="10.00">move()</text>
<text text-anchor="start" x="157.5" y="-644.5" font-family="Helvetica,sans-Serif" font-size="10.00">#</text>
<text text-anchor="start" x="170.5" y="-644.5" font-family="Helvetica,sans-Serif" font-size="10.00">copy()</text>
<polygon fill="#666666" stroke="#666666" points="153.5,-879.5 153.5,-879.5 240.5,-879.5 240.5,-879.5 153.5,-879.5"/>
<polygon fill="#666666" stroke="#666666" points="153.5,-864.5 153.5,-864.5 168.5,-864.5 168.5,-864.5 153.5,-864.5"/>
<polygon fill="#666666" stroke="#666666" points="168.5,-864.5 168.5,-864.5 240.5,-864.5 240.5,-864.5 168.5,-864.5"/>
<polygon fill="none" stroke="#666666" points="153,-638 153,-897 240,-897 240,-638 153,-638"/>
</a>
</g>
</g>
<!-- Node5&#45;&gt;Node4 -->
<g id="edge4_Node000004_Node000005" class="edge">
<title>Node5&#45;&gt;Node4</title>
<g id="a_edge4_Node000004_Node000005"><a xlink:title=" ">
<path fill="none" stroke="#63b8ff" d="M198.97,-627.83C200.12,-571.69 201.65,-506.25 203.5,-447 203.97,-431.83 204.57,-415.62 205.18,-400.1"/>
<polygon fill="none" stroke="#63b8ff" points="195.47,-627.77 198.77,-637.84 202.47,-627.92 195.47,-627.77"/>
</a>
</g>
</g>
<!-- Node6 -->
<g id="Node000006" class="node">
<title>Node6</title>
<g id="a_Node000006"><a xlink:href="classL4_1_1Cap.html" target="_top" xlink:title="C++ interface for capabilities.">
<polygon fill="white" stroke="transparent" points="294.5,-601 212.5,-601 212.5,-447 294.5,-447 294.5,-601"/>
<text text-anchor="start" x="221" y="-589" font-family="Helvetica,sans-Serif" font-size="10.00">L4::Cap&lt; T &gt;</text>
<text text-anchor="start" x="251.5" y="-574" font-family="Helvetica,sans-Serif" font-size="10.00"> </text>
<text text-anchor="start" x="216.5" y="-559" font-family="Helvetica,sans-Serif" font-size="10.00">+</text>
<text text-anchor="start" x="229.5" y="-559" font-family="Helvetica,sans-Serif" font-size="10.00">Cap()</text>
<text text-anchor="start" x="216.5" y="-544" font-family="Helvetica,sans-Serif" font-size="10.00">+</text>
<text text-anchor="start" x="229.5" y="-544" font-family="Helvetica,sans-Serif" font-size="10.00">Cap()</text>
<text text-anchor="start" x="216.5" y="-529" font-family="Helvetica,sans-Serif" font-size="10.00">+</text>
<text text-anchor="start" x="229.5" y="-529" font-family="Helvetica,sans-Serif" font-size="10.00">Cap()</text>
<text text-anchor="start" x="216.5" y="-514" font-family="Helvetica,sans-Serif" font-size="10.00">+</text>
<text text-anchor="start" x="229.5" y="-514" font-family="Helvetica,sans-Serif" font-size="10.00">Cap()</text>
<text text-anchor="start" x="216.5" y="-499" font-family="Helvetica,sans-Serif" font-size="10.00">+</text>
<text text-anchor="start" x="229.5" y="-499" font-family="Helvetica,sans-Serif" font-size="10.00">Cap()</text>
<text text-anchor="start" x="216.5" y="-484" font-family="Helvetica,sans-Serif" font-size="10.00">+</text>
<text text-anchor="start" x="229.5" y="-484" font-family="Helvetica,sans-Serif" font-size="10.00">move()</text>
<text text-anchor="start" x="216.5" y="-469" font-family="Helvetica,sans-Serif" font-size="10.00">+</text>
<text text-anchor="start" x="229.5" y="-469" font-family="Helvetica,sans-Serif" font-size="10.00">copy()</text>
<text text-anchor="start" x="216.5" y="-454" font-family="Helvetica,sans-Serif" font-size="10.00">+</text>
<text text-anchor="start" x="229.5" y="-454" font-family="Helvetica,sans-Serif" font-size="10.00">operator&#45;&gt;()</text>
<polygon fill="#666666" stroke="#666666" points="212.5,-584 212.5,-584 294.5,-584 294.5,-584 212.5,-584"/>
<polygon fill="#666666" stroke="#666666" points="212.5,-569 212.5,-569 294.5,-569 294.5,-569 212.5,-569"/>
<polygon fill="none" stroke="#666666" points="212.5,-447 212.5,-601 294.5,-601 294.5,-447 212.5,-447"/>
</a>
</g>
</g>
<!-- Node5&#45;&gt;Node6 -->
<g id="edge6_Node000006_Node000005" class="edge">
<title>Node5&#45;&gt;Node6</title>
<g id="a_edge6_Node000006_Node000005"><a xlink:title=" ">
<path fill="none" stroke="#63b8ff" d="M229.2,-627.95C231.37,-618.76 233.51,-609.71 235.56,-601.02"/>
<polygon fill="none" stroke="#63b8ff" points="225.73,-627.44 226.84,-637.97 232.54,-629.04 225.73,-627.44"/>
</a>
</g>
</g>
<!-- Node6&#45;&gt;Node4 -->
<g id="edge5_Node000004_Node000006" class="edge">
<title>Node6&#45;&gt;Node4</title>
<g id="a_edge5_Node000004_Node000006"><a xlink:title=" ">
<path fill="none" stroke="orange" d="M234.08,-437.1C231.29,-424.78 228.44,-412.16 225.7,-400.04"/>
<polygon fill="orange" stroke="orange" points="230.68,-437.93 236.29,-446.91 237.5,-436.39 230.68,-437.93"/>
</a>
</g>
<text text-anchor="middle" x="276" y="-421" font-family="Helvetica,sans-Serif" font-size="10.00" fill="grey"> &lt; L4vbus::Vbus &gt;</text>
</g>
</g>
</svg>
