<?xml version="1.0" encoding="UTF-8" standalone="no"?>
<!DOCTYPE svg PUBLIC "-//W3C//DTD SVG 1.1//EN"
 "http://www.w3.org/Graphics/SVG/1.1/DTD/svg11.dtd">
<!-- Generated by graphviz version 2.42.4 (0)
 -->
<!-- Title: L4::Icu::bind Pages: 1 -->
<svg width="430pt" height="110pt"
 viewBox="0.00 0.00 430.00 110.00" xmlns="http://www.w3.org/2000/svg" xmlns:xlink="http://www.w3.org/1999/xlink">
<g id="graph0" class="graph" transform="scale(1 1) rotate(0) translate(4 106)">
<title>L4::Icu::bind</title>
<!-- Node1 -->
<g id="Node000001" class="node">
<title>Node1</title>
<g id="a_Node000001"><a xlink:title="Bind an interrupt line of an interrupt controller to an interrupt object.">
<polygon fill="#999999" stroke="#666666" points="422,-72.5 347,-72.5 347,-53.5 422,-53.5 422,-72.5"/>
<text text-anchor="middle" x="384.5" y="-60.5" font-family="Helvetica,sans-Serif" font-size="10.00">L4::Icu::bind</text>
</a>
</g>
</g>
<!-- Node2 -->
<g id="Node000002" class="node">
<title>Node2</title>
<g id="a_Node000002"><a xlink:href="classL4virtio_1_1Driver_1_1Device.html#a1c9b791b723e7e8ad2eae927094b487d" target="_top" xlink:title="Register a triggerable to receive notifications from the device.">
<polygon fill="white" stroke="#666666" points="311,-102 182,-102 182,-72 311,-72 311,-102"/>
<text text-anchor="start" x="190" y="-90" font-family="Helvetica,sans-Serif" font-size="10.00">L4virtio::Driver::Device</text>
<text text-anchor="middle" x="246.5" y="-79" font-family="Helvetica,sans-Serif" font-size="10.00">::bind_notification_irq</text>
</a>
</g>
</g>
<!-- Node1&#45;&gt;Node2 -->
<g id="edge1_Node000001_Node000002" class="edge">
<title>Node1&#45;&gt;Node2</title>
<g id="a_edge1_Node000001_Node000002"><a xlink:title=" ">
<path fill="none" stroke="#63b8ff" d="M336.83,-71.24C328.53,-72.7 319.75,-74.25 311.06,-75.78"/>
<polygon fill="#63b8ff" stroke="#63b8ff" points="337.46,-74.68 346.7,-69.49 336.24,-67.79 337.46,-74.68"/>
</a>
</g>
</g>
<!-- Node3 -->
<g id="Node000003" class="node">
<title>Node3</title>
<g id="a_Node000003"><a xlink:href="classL4virtio_1_1Driver_1_1Device.html#a4f8b3d73188c3b6664755b81b80e441c" target="_top" xlink:title="Contacts the device and starts the initial handshake.">
<polygon fill="white" stroke="#666666" points="311,-54 182,-54 182,-24 311,-24 311,-54"/>
<text text-anchor="start" x="190" y="-42" font-family="Helvetica,sans-Serif" font-size="10.00">L4virtio::Driver::Device</text>
<text text-anchor="middle" x="246.5" y="-31" font-family="Helvetica,sans-Serif" font-size="10.00">::driver_connect</text>
</a>
</g>
</g>
<!-- Node1&#45;&gt;Node3 -->
<g id="edge2_Node000001_Node000003" class="edge">
<title>Node1&#45;&gt;Node3</title>
<g id="a_edge2_Node000001_Node000003"><a xlink:title=" ">
<path fill="none" stroke="#63b8ff" d="M336.83,-54.76C328.53,-53.3 319.75,-51.75 311.06,-50.22"/>
<polygon fill="#63b8ff" stroke="#63b8ff" points="336.24,-58.21 346.7,-56.51 337.46,-51.32 336.24,-58.21"/>
</a>
</g>
</g>
<!-- Node4 -->
<g id="Node000004" class="node">
<title>Node4</title>
<g id="a_Node000004"><a xlink:href="classL4virtio_1_1Driver_1_1Virtio__net__device.html#aa5d34e5156db18773cf46c2d06a2aa3a" target="_top" xlink:title="Establish a connection to the device and set up shared memory.">
<polygon fill="white" stroke="#666666" points="146,-78 0,-78 0,-48 146,-48 146,-78"/>
<text text-anchor="start" x="8" y="-66" font-family="Helvetica,sans-Serif" font-size="10.00">L4virtio::Driver::Virtio</text>
<text text-anchor="middle" x="73" y="-55" font-family="Helvetica,sans-Serif" font-size="10.00">_net_device::setup_device</text>
</a>
</g>
</g>
<!-- Node3&#45;&gt;Node4 -->
<g id="edge3_Node000003_Node000004" class="edge">
<title>Node3&#45;&gt;Node4</title>
<g id="a_edge3_Node000003_Node000004"><a xlink:title=" ">
<path fill="none" stroke="#63b8ff" d="M171.53,-49.35C163.16,-50.52 154.63,-51.72 146.28,-52.88"/>
<polygon fill="#63b8ff" stroke="#63b8ff" points="172.22,-52.79 181.64,-47.94 171.25,-45.86 172.22,-52.79"/>
</a>
</g>
</g>
<!-- Node5 -->
<g id="Node000005" class="node">
<title>Node5</title>
<g id="a_Node000005"><a xlink:href="classL4virtio_1_1Driver_1_1Block__device.html#af509c2785789dd2daf6b13f3369c6581" target="_top" xlink:title="Establish a connection to the device and set up shared memory.">
<polygon fill="white" stroke="#666666" points="135.5,-30 10.5,-30 10.5,0 135.5,0 135.5,-30"/>
<text text-anchor="start" x="18.5" y="-18" font-family="Helvetica,sans-Serif" font-size="10.00">L4virtio::Driver::Block</text>
<text text-anchor="middle" x="73" y="-7" font-family="Helvetica,sans-Serif" font-size="10.00">_device::setup_device</text>
</a>
</g>
</g>
<!-- Node3&#45;&gt;Node5 -->
<g id="edge4_Node000003_Node000005" class="edge">
<title>Node3&#45;&gt;Node5</title>
<g id="a_edge4_Node000003_Node000005"><a xlink:title=" ">
<path fill="none" stroke="#63b8ff" d="M171.65,-28.67C159.64,-26.98 147.31,-25.26 135.64,-23.63"/>
<polygon fill="#63b8ff" stroke="#63b8ff" points="171.25,-32.14 181.64,-30.06 172.22,-25.21 171.25,-32.14"/>
</a>
</g>
</g>
</g>
</svg>
