<?xml version="1.0" encoding="UTF-8" standalone="no"?>
<!DOCTYPE svg PUBLIC "-//W3C//DTD SVG 1.1//EN"
 "http://www.w3.org/Graphics/SVG/1.1/DTD/svg11.dtd">
<!-- Generated by graphviz version 2.43.0 (0)
 -->
<!-- Title: L4Re::Dataspace Pages: 1 -->
<svg width="318pt" height="709pt"
 viewBox="0.00 0.00 318.00 709.00" xmlns="http://www.w3.org/2000/svg" xmlns:xlink="http://www.w3.org/1999/xlink">
<g id="graph0" class="graph" transform="scale(1 1) rotate(0) translate(4 705)">
<title>L4Re::Dataspace</title>
<!-- Node1 -->
<g id="Node000001" class="node">
<title>Node1</title>
<g id="a_Node000001"><a xlink:title="Interface for memory&#45;like objects.">
<polygon fill="#999999" stroke="transparent" points="152,-423 60,-423 60,-269 152,-269 152,-423"/>
<text text-anchor="start" x="65" y="-411" font-family="Helvetica,sans-Serif" font-size="10.00">L4Re::Dataspace</text>
<text text-anchor="start" x="104" y="-396" font-family="Helvetica,sans-Serif" font-size="10.00"> </text>
<text text-anchor="start" x="65" y="-381" font-family="Helvetica,sans-Serif" font-size="10.00">+</text>
<text text-anchor="start" x="79" y="-381" font-family="Helvetica,sans-Serif" font-size="10.00">map()</text>
<text text-anchor="start" x="65" y="-366" font-family="Helvetica,sans-Serif" font-size="10.00">+</text>
<text text-anchor="start" x="79" y="-366" font-family="Helvetica,sans-Serif" font-size="10.00">map_region()</text>
<text text-anchor="start" x="65" y="-351" font-family="Helvetica,sans-Serif" font-size="10.00">+</text>
<text text-anchor="start" x="79" y="-351" font-family="Helvetica,sans-Serif" font-size="10.00">clear()</text>
<text text-anchor="start" x="65" y="-336" font-family="Helvetica,sans-Serif" font-size="10.00">+</text>
<text text-anchor="start" x="79" y="-336" font-family="Helvetica,sans-Serif" font-size="10.00">allocate()</text>
<text text-anchor="start" x="65" y="-321" font-family="Helvetica,sans-Serif" font-size="10.00">+</text>
<text text-anchor="start" x="79" y="-321" font-family="Helvetica,sans-Serif" font-size="10.00">copy_in()</text>
<text text-anchor="start" x="65" y="-306" font-family="Helvetica,sans-Serif" font-size="10.00">+</text>
<text text-anchor="start" x="79" y="-306" font-family="Helvetica,sans-Serif" font-size="10.00">size()</text>
<text text-anchor="start" x="65" y="-291" font-family="Helvetica,sans-Serif" font-size="10.00">+</text>
<text text-anchor="start" x="79" y="-291" font-family="Helvetica,sans-Serif" font-size="10.00">flags()</text>
<text text-anchor="start" x="65" y="-276" font-family="Helvetica,sans-Serif" font-size="10.00">+</text>
<text text-anchor="start" x="79" y="-276" font-family="Helvetica,sans-Serif" font-size="10.00">info()</text>
<polygon fill="#666666" stroke="#666666" points="60,-406 60,-406 152,-406 152,-406 60,-406"/>
<polygon fill="#666666" stroke="#666666" points="60,-391 60,-391 152,-391 152,-391 60,-391"/>
<polygon fill="none" stroke="#666666" points="60,-269 60,-423 152,-423 152,-269 60,-269"/>
</a>
</g>
</g>
<!-- Node5 -->
<g id="Node000005" class="node">
<title>Node5</title>
<g id="a_Node000005"><a xlink:href="structL4_1_1Kobject__3t.html" target="_top" xlink:title=" ">
<polygon fill="white" stroke="transparent" points="172,-232 40,-232 40,-146 172,-146 172,-232"/>
<text text-anchor="start" x="45" y="-220" font-family="Helvetica,sans-Serif" font-size="10.00">L4::Kobject_3t&lt; Vbus,</text>
<text text-anchor="start" x="45" y="-209" font-family="Helvetica,sans-Serif" font-size="10.00"> L4Re::Dataspace, L4Re</text>
<text text-anchor="start" x="45" y="-198" font-family="Helvetica,sans-Serif" font-size="10.00">::Inhibitor, L4Re::Event &gt;</text>
<text text-anchor="start" x="104" y="-183" font-family="Helvetica,sans-Serif" font-size="10.00"> </text>
<text text-anchor="start" x="44.5" y="-168" font-family="Helvetica,sans-Serif" font-size="10.00">#</text>
<text text-anchor="start" x="58" y="-168" font-family="Helvetica,sans-Serif" font-size="10.00">c()</text>
<text text-anchor="start" x="44.5" y="-153" font-family="Helvetica,sans-Serif" font-size="10.00">#</text>
<text text-anchor="start" x="58" y="-153" font-family="Helvetica,sans-Serif" font-size="10.00">__check_protocols__()</text>
<polygon fill="#666666" stroke="#666666" points="40,-193 40,-193 172,-193 172,-193 40,-193"/>
<polygon fill="#666666" stroke="#666666" points="40,-178 40,-178 172,-178 172,-178 40,-178"/>
<polygon fill="none" stroke="#666666" points="40,-146 40,-232 172,-232 172,-146 40,-146"/>
</a>
</g>
</g>
<!-- Node1&#45;&gt;Node5 -->
<g id="edge4_Node000001_Node000005" class="edge">
<title>Node1&#45;&gt;Node5</title>
<g id="a_edge4_Node000001_Node000005"><a xlink:title=" ">
<path fill="none" stroke="#63b8ff" d="M106,-258.58C106,-249.51 106,-240.6 106,-232.37"/>
<polygon fill="none" stroke="#63b8ff" points="102.5,-258.86 106,-268.86 109.5,-258.86 102.5,-258.86"/>
</a>
</g>
</g>
<!-- Node2 -->
<g id="Node000002" class="node">
<title>Node2</title>
<g id="a_Node000002"><a xlink:href="classL4_1_1Kobject__t.html" target="_top" xlink:title=" ">
<polygon fill="white" stroke="transparent" points="177,-557 35,-557 35,-460 177,-460 177,-557"/>
<text text-anchor="start" x="40" y="-544.5" font-family="Helvetica,sans-Serif" font-size="10.00">L4::Kobject_t&lt; Dataspace,</text>
<text text-anchor="start" x="40" y="-533.5" font-family="Helvetica,sans-Serif" font-size="10.00"> L4::Kobject, L4RE_PROTO</text>
<text text-anchor="start" x="40" y="-522.5" font-family="Helvetica,sans-Serif" font-size="10.00">_DATASPACE, L4::Type_info</text>
<text text-anchor="start" x="57.5" y="-511.5" font-family="Helvetica,sans-Serif" font-size="10.00">::Demand_t&lt; 1 &gt; &gt;</text>
<text text-anchor="start" x="104" y="-496.5" font-family="Helvetica,sans-Serif" font-size="10.00"> </text>
<text text-anchor="start" x="42" y="-481.5" font-family="Helvetica,sans-Serif" font-size="10.00">#</text>
<text text-anchor="start" x="58" y="-481.5" font-family="Helvetica,sans-Serif" font-size="10.00">c()</text>
<text text-anchor="start" x="42" y="-466.5" font-family="Helvetica,sans-Serif" font-size="10.00">#</text>
<text text-anchor="start" x="58" y="-466.5" font-family="Helvetica,sans-Serif" font-size="10.00">__check_protocols__()</text>
<polygon fill="#666666" stroke="#666666" points="35,-506.5 35,-506.5 177,-506.5 177,-506.5 35,-506.5"/>
<polygon fill="#666666" stroke="#666666" points="35,-491.5 35,-491.5 177,-491.5 177,-491.5 35,-491.5"/>
<polygon fill="none" stroke="#666666" points="35,-460 35,-557 177,-557 177,-460 35,-460"/>
</a>
</g>
</g>
<!-- Node2&#45;&gt;Node1 -->
<g id="edge1_Node000001_Node000002" class="edge">
<title>Node2&#45;&gt;Node1</title>
<g id="a_edge1_Node000001_Node000002"><a xlink:title=" ">
<path fill="none" stroke="#63b8ff" d="M106,-449.52C106,-440.94 106,-431.98 106,-423.1"/>
<polygon fill="none" stroke="#63b8ff" points="102.5,-449.78 106,-459.78 109.5,-449.78 102.5,-449.78"/>
</a>
</g>
</g>
<!-- Node3 -->
<g id="Node000003" class="node">
<title>Node3</title>
<g id="a_Node000003"><a xlink:href="classL4_1_1Kobject.html" target="_top" xlink:title="Base class for all kinds of kernel objects and remote objects, referenced by capabilities.">
<polygon fill="white" stroke="transparent" points="80,-695.5 0,-695.5 0,-631.5 80,-631.5 80,-695.5"/>
<text text-anchor="start" x="13" y="-683.5" font-family="Helvetica,sans-Serif" font-size="10.00">L4::Kobject</text>
<text text-anchor="start" x="38" y="-668.5" font-family="Helvetica,sans-Serif" font-size="10.00"> </text>
<text text-anchor="start" x="4" y="-653.5" font-family="Helvetica,sans-Serif" font-size="10.00">+</text>
<text text-anchor="start" x="17" y="-653.5" font-family="Helvetica,sans-Serif" font-size="10.00">dec_refcnt()</text>
<text text-anchor="start" x="4" y="-638.5" font-family="Helvetica,sans-Serif" font-size="10.00">#</text>
<text text-anchor="start" x="17" y="-638.5" font-family="Helvetica,sans-Serif" font-size="10.00">cap()</text>
<polygon fill="#666666" stroke="#666666" points="0,-678.5 0,-678.5 80,-678.5 80,-678.5 0,-678.5"/>
<polygon fill="#666666" stroke="#666666" points="0,-663.5 0,-663.5 80,-663.5 80,-663.5 0,-663.5"/>
<polygon fill="none" stroke="#666666" points="0,-631.5 0,-695.5 80,-695.5 80,-631.5 0,-631.5"/>
</a>
</g>
</g>
<!-- Node3&#45;&gt;Node2 -->
<g id="edge2_Node000002_Node000003" class="edge">
<title>Node3&#45;&gt;Node2</title>
<g id="a_edge2_Node000002_Node000003"><a xlink:title=" ">
<path fill="none" stroke="#63b8ff" d="M57.57,-621.77C66.15,-601.87 76.53,-577.81 85.48,-557.07"/>
<polygon fill="none" stroke="#63b8ff" points="54.26,-620.6 53.52,-631.17 60.69,-623.37 54.26,-620.6"/>
</a>
</g>
</g>
<!-- Node4 -->
<g id="Node000004" class="node">
<title>Node4</title>
<g id="a_Node000004"><a xlink:href="classL4_1_1Kobject__t.html" target="_top" xlink:title="Helper class to create an L4Re interface class that is derived from a single base class.">
<polygon fill="white" stroke="transparent" points="248,-701 98,-701 98,-626 248,-626 248,-701"/>
<text text-anchor="start" x="103" y="-688.5" font-family="Helvetica,sans-Serif" font-size="10.00">L4::Kobject_t&lt; Derived,</text>
<text text-anchor="start" x="103" y="-677.5" font-family="Helvetica,sans-Serif" font-size="10.00"> Base, PROTO, S_DEMAND &gt;</text>
<text text-anchor="start" x="171" y="-662.5" font-family="Helvetica,sans-Serif" font-size="10.00"> </text>
<text text-anchor="start" x="107" y="-647.5" font-family="Helvetica,sans-Serif" font-size="10.00">#</text>
<text text-anchor="start" x="125" y="-647.5" font-family="Helvetica,sans-Serif" font-size="10.00">c()</text>
<text text-anchor="start" x="107" y="-632.5" font-family="Helvetica,sans-Serif" font-size="10.00">#</text>
<text text-anchor="start" x="125" y="-632.5" font-family="Helvetica,sans-Serif" font-size="10.00">__check_protocols__()</text>
<polygon fill="#666666" stroke="#666666" points="98,-672.5 98,-672.5 248,-672.5 248,-672.5 98,-672.5"/>
<polygon fill="#666666" stroke="#666666" points="98,-657.5 98,-657.5 248,-657.5 248,-657.5 98,-657.5"/>
<polygon fill="none" stroke="#666666" points="98,-626 98,-701 248,-701 248,-626 98,-626"/>
</a>
</g>
</g>
<!-- Node4&#45;&gt;Node2 -->
<g id="edge3_Node000002_Node000004" class="edge">
<title>Node4&#45;&gt;Node2</title>
<g id="a_edge3_Node000002_Node000004"><a xlink:title=" ">
<path fill="none" stroke="orange" d="M152.91,-616.61C144.68,-597.83 135.17,-576.1 126.86,-557.15"/>
<polygon fill="orange" stroke="orange" points="149.73,-618.1 156.95,-625.85 156.15,-615.29 149.73,-618.1"/>
</a>
</g>
<text text-anchor="start" x="147" y="-600" font-family="Helvetica,sans-Serif" font-size="10.00" fill="grey"> &lt; Dataspace, L4::Kobject,</text>
<text text-anchor="start" x="147" y="-589" font-family="Helvetica,sans-Serif" font-size="10.00" fill="grey"> L4RE_PROTO_DATASPACE,</text>
<text text-anchor="middle" x="228.5" y="-578" font-family="Helvetica,sans-Serif" font-size="10.00" fill="grey"> L4::Type_info::Demand_t&lt; 1 &gt; &gt;</text>
</g>
<!-- Node6 -->
<g id="Node000006" class="node">
<title>Node6</title>
<g id="a_Node000006"><a xlink:href="classL4vbus_1_1Vbus.html" target="_top" xlink:title="The virtual bus (Vbus) interface.">
<polygon fill="white" stroke="transparent" points="171,-109 41,-109 41,0 171,0 171,-109"/>
<text text-anchor="start" x="73.5" y="-96.5" font-family="Helvetica,sans-Serif" font-size="10.00">L4vbus::Vbus</text>
<text text-anchor="start" x="104" y="-81.5" font-family="Helvetica,sans-Serif" font-size="10.00"> </text>
<text text-anchor="start" x="45" y="-66.5" font-family="Helvetica,sans-Serif" font-size="10.00">+</text>
<text text-anchor="start" x="58" y="-66.5" font-family="Helvetica,sans-Serif" font-size="10.00">request_ioport()</text>
<text text-anchor="start" x="45" y="-51.5" font-family="Helvetica,sans-Serif" font-size="10.00">+</text>
<text text-anchor="start" x="58" y="-51.5" font-family="Helvetica,sans-Serif" font-size="10.00">release_ioport()</text>
<text text-anchor="start" x="45" y="-36.5" font-family="Helvetica,sans-Serif" font-size="10.00">+</text>
<text text-anchor="start" x="58" y="-36.5" font-family="Helvetica,sans-Serif" font-size="10.00">root()</text>
<text text-anchor="start" x="45" y="-21.5" font-family="Helvetica,sans-Serif" font-size="10.00">+</text>
<text text-anchor="start" x="58" y="-21.5" font-family="Helvetica,sans-Serif" font-size="10.00">assign_dma_domain()</text>
<text text-anchor="start" x="45" y="-6.5" font-family="Helvetica,sans-Serif" font-size="10.00">+</text>
<text text-anchor="start" x="58" y="-6.5" font-family="Helvetica,sans-Serif" font-size="10.00">assign_dma_domain()</text>
<polygon fill="#666666" stroke="#666666" points="41,-91.5 41,-91.5 171,-91.5 171,-91.5 41,-91.5"/>
<polygon fill="#666666" stroke="#666666" points="41,-76.5 41,-76.5 171,-76.5 171,-76.5 41,-76.5"/>
<polygon fill="none" stroke="#666666" points="41,0 41,-109 171,-109 171,0 41,0"/>
</a>
</g>
</g>
<!-- Node5&#45;&gt;Node6 -->
<g id="edge5_Node000005_Node000006" class="edge">
<title>Node5&#45;&gt;Node6</title>
<g id="a_edge5_Node000005_Node000006"><a xlink:title=" ">
<path fill="none" stroke="#63b8ff" d="M106,-135.64C106,-126.89 106,-117.81 106,-109.03"/>
<polygon fill="none" stroke="#63b8ff" points="102.5,-135.71 106,-145.71 109.5,-135.71 102.5,-135.71"/>
</a>
</g>
</g>
</g>
</svg>
