<?xml version="1.0" encoding="UTF-8" standalone="no"?>
<!DOCTYPE svg PUBLIC "-//W3C//DTD SVG 1.1//EN"
 "http://www.w3.org/Graphics/SVG/1.1/DTD/svg11.dtd">
<!-- Generated by graphviz version 2.42.4 (0)
 -->
<!-- Title: L4virtio::Svr::Request_processor::next Pages: 1 -->
<svg width="285pt" height="230pt"
 viewBox="0.00 0.00 285.00 230.00" xmlns="http://www.w3.org/2000/svg" xmlns:xlink="http://www.w3.org/1999/xlink">
<g id="graph0" class="graph" transform="scale(1 1) rotate(0) translate(4 226)">
<title>L4virtio::Svr::Request_processor::next</title>
<!-- Node1 -->
<g id="Node000001" class="node">
<title>Node1</title>
<g id="a_Node000001"><a xlink:title="Switch to the next descriptor in a descriptor chain.">
<polygon fill="#999999" stroke="#666666" points="277,-126 156,-126 156,-96 277,-96 277,-126"/>
<text text-anchor="start" x="164" y="-114" font-family="Helvetica,sans-Serif" font-size="10.00">L4virtio::Svr::Request</text>
<text text-anchor="middle" x="216.5" y="-103" font-family="Helvetica,sans-Serif" font-size="10.00">_processor::next</text>
</a>
</g>
</g>
<!-- Node2 -->
<g id="Node000002" class="node">
<title>Node2</title>
<g id="a_Node000002"><a xlink:href="classL4virtio_1_1Svr_1_1Block__request.html#a5f6bf664cda7dfe4f82d8726f6c33099" target="_top" xlink:title="Compute the total size of the data in the request.">
<polygon fill="white" stroke="#666666" points="115.5,-222 4.5,-222 4.5,-192 115.5,-192 115.5,-222"/>
<text text-anchor="start" x="12.5" y="-210" font-family="Helvetica,sans-Serif" font-size="10.00">L4virtio::Svr::Block</text>
<text text-anchor="middle" x="60" y="-199" font-family="Helvetica,sans-Serif" font-size="10.00">_request::data_size</text>
</a>
</g>
</g>
<!-- Node1&#45;&gt;Node2 -->
<g id="edge1_Node000001_Node000002" class="edge">
<title>Node1&#45;&gt;Node2</title>
<g id="a_edge1_Node000001_Node000002"><a xlink:title=" ">
<path fill="none" stroke="#63b8ff" d="M190.46,-132.75C171.89,-148.14 145.48,-168.54 120,-183 114.33,-186.22 108.13,-189.23 101.96,-191.96"/>
<polygon fill="#63b8ff" stroke="#63b8ff" points="192.76,-135.39 198.16,-126.28 188.25,-130.03 192.76,-135.39"/>
</a>
</g>
</g>
<!-- Node3 -->
<g id="Node000003" class="node">
<title>Node3</title>
<g id="a_Node000003"><a xlink:href="classL4virtio_1_1Svr_1_1Block__request.html#a7b714611659c91ffd67e9d8c20102ab6" target="_top" xlink:title="Check if the request contains more data blocks.">
<polygon fill="white" stroke="#666666" points="116.5,-174 3.5,-174 3.5,-144 116.5,-144 116.5,-174"/>
<text text-anchor="start" x="11.5" y="-162" font-family="Helvetica,sans-Serif" font-size="10.00">L4virtio::Svr::Block</text>
<text text-anchor="middle" x="60" y="-151" font-family="Helvetica,sans-Serif" font-size="10.00">_request::has_more</text>
</a>
</g>
</g>
<!-- Node1&#45;&gt;Node3 -->
<g id="edge2_Node000001_Node000003" class="edge">
<title>Node1&#45;&gt;Node3</title>
<g id="a_edge2_Node000001_Node000003"><a xlink:title=" ">
<path fill="none" stroke="#63b8ff" d="M157.35,-129.07C141.51,-133.99 124.52,-139.27 109.29,-144"/>
<polygon fill="#63b8ff" stroke="#63b8ff" points="158.53,-132.37 167.04,-126.06 156.45,-125.68 158.53,-132.37"/>
</a>
</g>
</g>
<!-- Node4 -->
<g id="Node000004" class="node">
<title>Node4</title>
<g id="a_Node000004"><a xlink:href="classL4virtio_1_1Svr_1_1Block__request.html#aa2cb429f504f6568d6e25c13936d5be7" target="_top" xlink:title="Return next block in scatter&#45;gather list.">
<polygon fill="white" stroke="#666666" points="119,-126 1,-126 1,-96 119,-96 119,-126"/>
<text text-anchor="start" x="9" y="-114" font-family="Helvetica,sans-Serif" font-size="10.00">L4virtio::Svr::Block</text>
<text text-anchor="middle" x="60" y="-103" font-family="Helvetica,sans-Serif" font-size="10.00">_request::next_block</text>
</a>
</g>
</g>
<!-- Node1&#45;&gt;Node4 -->
<g id="edge3_Node000001_Node000004" class="edge">
<title>Node1&#45;&gt;Node4</title>
<g id="a_edge3_Node000001_Node000004"><a xlink:title=" ">
<path fill="none" stroke="#63b8ff" d="M145.77,-111C136.83,-111 127.77,-111 119.05,-111"/>
<polygon fill="#63b8ff" stroke="#63b8ff" points="145.77,-114.5 155.77,-111 145.77,-107.5 145.77,-114.5"/>
</a>
</g>
</g>
<!-- Node5 -->
<g id="Node000005" class="node">
<title>Node5</title>
<g id="a_Node000005"><a xlink:href="classL4virtio_1_1Svr_1_1Console_1_1Device.html#acf4b1bbf927d4d40b2532a7a18bf21bd" target="_top" xlink:title="Read data from port.">
<polygon fill="white" stroke="#666666" points="120,-78 0,-78 0,-48 120,-48 120,-78"/>
<text text-anchor="start" x="8" y="-66" font-family="Helvetica,sans-Serif" font-size="10.00">L4virtio::Svr::Console</text>
<text text-anchor="middle" x="60" y="-55" font-family="Helvetica,sans-Serif" font-size="10.00">::Device::port_read</text>
</a>
</g>
</g>
<!-- Node1&#45;&gt;Node5 -->
<g id="edge4_Node000001_Node000005" class="edge">
<title>Node1&#45;&gt;Node5</title>
<g id="a_edge4_Node000001_Node000005"><a xlink:title=" ">
<path fill="none" stroke="#63b8ff" d="M157.35,-92.93C141.51,-88.01 124.52,-82.73 109.29,-78"/>
<polygon fill="#63b8ff" stroke="#63b8ff" points="156.45,-96.32 167.04,-95.94 158.53,-89.63 156.45,-96.32"/>
</a>
</g>
</g>
<!-- Node6 -->
<g id="Node000006" class="node">
<title>Node6</title>
<g id="a_Node000006"><a xlink:href="classL4virtio_1_1Svr_1_1Console_1_1Device.html#a5b906c9cec86e9cf30dff4fe1edf1b11" target="_top" xlink:title="Write data to port.">
<polygon fill="white" stroke="#666666" points="120,-30 0,-30 0,0 120,0 120,-30"/>
<text text-anchor="start" x="8" y="-18" font-family="Helvetica,sans-Serif" font-size="10.00">L4virtio::Svr::Console</text>
<text text-anchor="middle" x="60" y="-7" font-family="Helvetica,sans-Serif" font-size="10.00">::Device::port_write</text>
</a>
</g>
</g>
<!-- Node1&#45;&gt;Node6 -->
<g id="edge5_Node000001_Node000006" class="edge">
<title>Node1&#45;&gt;Node6</title>
<g id="a_edge5_Node000001_Node000006"><a xlink:title=" ">
<path fill="none" stroke="#63b8ff" d="M190.46,-89.25C171.89,-73.86 145.48,-53.46 120,-39 114.33,-35.78 108.13,-32.77 101.96,-30.04"/>
<polygon fill="#63b8ff" stroke="#63b8ff" points="188.25,-91.97 198.16,-95.72 192.76,-86.61 188.25,-91.97"/>
</a>
</g>
</g>
</g>
</svg>
