<?xml version="1.0" encoding="UTF-8" standalone="no"?>
<!DOCTYPE svg PUBLIC "-//W3C//DTD SVG 1.1//EN"
 "http://www.w3.org/Graphics/SVG/1.1/DTD/svg11.dtd">
<!-- Generated by graphviz version 2.42.4 (0)
 -->
<!-- Title: L4virtio::Svr::Console::Virtio_con::port_remove Pages: 1 -->
<svg width="521pt" height="98pt"
 viewBox="0.00 0.00 521.00 97.50" xmlns="http://www.w3.org/2000/svg" xmlns:xlink="http://www.w3.org/1999/xlink">
<g id="graph0" class="graph" transform="scale(1 1) rotate(0) translate(4 93.5)">
<title>L4virtio::Svr::Console::Virtio_con::port_remove</title>
<!-- Node1 -->
<g id="Node000001" class="node">
<title>Node1</title>
<g id="a_Node000001"><a xlink:title="Send a DEVICE_REMOVE message and update the internal state.">
<polygon fill="#999999" stroke="#666666" points="513,-62.5 373,-62.5 373,-32.5 513,-32.5 513,-62.5"/>
<text text-anchor="start" x="381" y="-50.5" font-family="Helvetica,sans-Serif" font-size="10.00">L4virtio::Svr::Console</text>
<text text-anchor="middle" x="443" y="-39.5" font-family="Helvetica,sans-Serif" font-size="10.00">::Virtio_con::port_remove</text>
</a>
</g>
</g>
<!-- Node2 -->
<g id="Node000002" class="node">
<title>Node2</title>
<g id="a_Node000002"><a xlink:href="classL4virtio_1_1Svr_1_1Console_1_1Device.html#a7dde9e63b6fb498c87b6c1ed9e60198f" target="_top" xlink:title="Callback called on PORT_READY event.">
<polygon fill="white" stroke="#666666" points="337,-89.5 179,-89.5 179,-59.5 337,-59.5 337,-89.5"/>
<text text-anchor="start" x="187" y="-77.5" font-family="Helvetica,sans-Serif" font-size="10.00">L4virtio::Svr::Console</text>
<text text-anchor="middle" x="258" y="-66.5" font-family="Helvetica,sans-Serif" font-size="10.00">::Device::process_port_ready</text>
</a>
</g>
</g>
<!-- Node1&#45;&gt;Node2 -->
<g id="edge1_Node000001_Node000002" class="edge">
<title>Node1&#45;&gt;Node2</title>
<g id="a_edge1_Node000001_Node000002"><a xlink:title=" ">
<path fill="none" stroke="#63b8ff" d="M362.89,-59.17C354.36,-60.43 345.69,-61.71 337.17,-62.97"/>
<polygon fill="#63b8ff" stroke="#63b8ff" points="363.43,-62.63 372.82,-57.71 362.41,-55.7 363.43,-62.63"/>
</a>
</g>
</g>
<!-- Node3 -->
<g id="Node000003" class="node">
<title>Node3</title>
<g id="a_Node000003"><a xlink:href="classL4virtio_1_1Svr_1_1Console_1_1Device.html#a5f8d5752548def0f7db1cbade7918d6a" target="_top" xlink:title="Try to resend a stalled control message and update the port and global state accordingly.">
<polygon fill="white" stroke="#666666" points="325,-41 191,-41 191,0 325,0 325,-41"/>
<text text-anchor="start" x="199" y="-29" font-family="Helvetica,sans-Serif" font-size="10.00">L4virtio::Svr::Console</text>
<text text-anchor="start" x="199" y="-18" font-family="Helvetica,sans-Serif" font-size="10.00">::Device::resend_stalled</text>
<text text-anchor="middle" x="258" y="-7" font-family="Helvetica,sans-Serif" font-size="10.00">_control_messages</text>
</a>
</g>
</g>
<!-- Node1&#45;&gt;Node3 -->
<g id="edge2_Node000001_Node000003" class="edge">
<title>Node1&#45;&gt;Node3</title>
<g id="a_edge2_Node000001_Node000003"><a xlink:title=" ">
<path fill="none" stroke="#63b8ff" d="M362.85,-35.82C350.31,-33.97 337.46,-32.08 325.26,-30.28"/>
<polygon fill="#63b8ff" stroke="#63b8ff" points="362.41,-39.3 372.82,-37.29 363.43,-32.37 362.41,-39.3"/>
</a>
</g>
</g>
<!-- Node4 -->
<g id="Node000004" class="node">
<title>Node4</title>
<g id="a_Node000004"><a xlink:href="classL4virtio_1_1Svr_1_1Console_1_1Device.html#a7df13c65e5b01e4bd8140a1c9b6b3858" target="_top" xlink:title="Receive new control messages and resend stalled ones.">
<polygon fill="white" stroke="#666666" points="143,-35.5 0,-35.5 0,-5.5 143,-5.5 143,-35.5"/>
<text text-anchor="start" x="8" y="-23.5" font-family="Helvetica,sans-Serif" font-size="10.00">L4virtio::Svr::Console</text>
<text text-anchor="middle" x="71.5" y="-12.5" font-family="Helvetica,sans-Serif" font-size="10.00">::Device::do_control_work</text>
</a>
</g>
</g>
<!-- Node3&#45;&gt;Node4 -->
<g id="edge3_Node000003_Node000004" class="edge">
<title>Node3&#45;&gt;Node4</title>
<g id="a_edge3_Node000003_Node000004"><a xlink:title=" ">
<path fill="none" stroke="#63b8ff" d="M180.6,-20.5C168.19,-20.5 155.38,-20.5 143.12,-20.5"/>
<polygon fill="#63b8ff" stroke="#63b8ff" points="180.91,-24 190.91,-20.5 180.91,-17 180.91,-24"/>
</a>
</g>
</g>
</g>
</svg>
