<?xml version="1.0" encoding="UTF-8" standalone="no"?>
<!DOCTYPE svg PUBLIC "-//W3C//DTD SVG 1.1//EN"
 "http://www.w3.org/Graphics/SVG/1.1/DTD/svg11.dtd">
<!-- Generated by graphviz version 2.43.0 (0)
 -->
<!-- Title: L4virtio::Virtqueue::desc_size Pages: 1 -->
<svg width="448pt" height="182pt"
 viewBox="0.00 0.00 448.00 182.00" xmlns="http://www.w3.org/2000/svg" xmlns:xlink="http://www.w3.org/1999/xlink">
<g id="graph0" class="graph" transform="scale(1 1) rotate(0) translate(4 178)">
<title>L4virtio::Virtqueue::desc_size</title>
<!-- Node1 -->
<g id="Node000001" class="node">
<title>Node1</title>
<g id="a_Node000001"><a xlink:title="Calculate the size of the descriptor table for num entries.">
<polygon fill="#999999" stroke="#666666" points="440,-126 333,-126 333,-96 440,-96 440,-126"/>
<text text-anchor="start" x="341" y="-114" font-family="Helvetica,sans-Serif" font-size="10.00">L4virtio::Virtqueue</text>
<text text-anchor="middle" x="386.5" y="-103" font-family="Helvetica,sans-Serif" font-size="10.00">::desc_size</text>
</a>
</g>
</g>
<!-- Node2 -->
<g id="Node000002" class="node">
<title>Node2</title>
<g id="a_Node000002"><a xlink:href="classL4virtio_1_1Svr_1_1Device__t.html#ab906b4cc61026fd815a8056f07bef10e" target="_top" xlink:title="Enable/disable the specified queue.">
<polygon fill="white" stroke="#666666" points="297,-174 182,-174 182,-144 297,-144 297,-174"/>
<text text-anchor="start" x="190" y="-162" font-family="Helvetica,sans-Serif" font-size="10.00">L4virtio::Svr::Device</text>
<text text-anchor="middle" x="239.5" y="-151" font-family="Helvetica,sans-Serif" font-size="10.00">_t::setup_queue</text>
</a>
</g>
</g>
<!-- Node1&#45;&gt;Node2 -->
<g id="edge1_Node000001_Node000002" class="edge">
<title>Node1&#45;&gt;Node2</title>
<g id="a_edge1_Node000001_Node000002"><a xlink:title=" ">
<path fill="none" stroke="#63b8ff" d="M330.5,-129.21C315.75,-134.09 299.98,-139.31 285.82,-144"/>
<polygon fill="#63b8ff" stroke="#63b8ff" points="331.63,-132.52 340.02,-126.06 329.43,-125.88 331.63,-132.52"/>
</a>
</g>
</g>
<!-- Node3 -->
<g id="Node000003" class="node">
<title>Node3</title>
<g id="a_Node000003"><a xlink:href="classL4virtio_1_1Virtqueue.html#a437c0ed2eb83201cc69c41d011503036" target="_top" xlink:title="Enable this queue.">
<polygon fill="white" stroke="#666666" points="293,-126 186,-126 186,-96 293,-96 293,-126"/>
<text text-anchor="start" x="194" y="-114" font-family="Helvetica,sans-Serif" font-size="10.00">L4virtio::Virtqueue</text>
<text text-anchor="middle" x="239.5" y="-103" font-family="Helvetica,sans-Serif" font-size="10.00">::setup_simple</text>
</a>
</g>
</g>
<!-- Node1&#45;&gt;Node3 -->
<g id="edge2_Node000001_Node000003" class="edge">
<title>Node1&#45;&gt;Node3</title>
<g id="a_edge2_Node000001_Node000003"><a xlink:title=" ">
<path fill="none" stroke="#63b8ff" d="M322.7,-111C312.95,-111 302.96,-111 293.46,-111"/>
<polygon fill="#63b8ff" stroke="#63b8ff" points="322.74,-114.5 332.74,-111 322.74,-107.5 322.74,-114.5"/>
</a>
</g>
</g>
<!-- Node5 -->
<g id="Node000005" class="node">
<title>Node5</title>
<g id="a_Node000005"><a xlink:href="classL4virtio_1_1Virtqueue.html#a6f8cdc52ebe6322c3023e05e0e055293" target="_top" xlink:title="Calculate the total size for a virtqueue of the given dimensions.">
<polygon fill="white" stroke="#666666" points="293,-78 186,-78 186,-48 293,-48 293,-78"/>
<text text-anchor="start" x="194" y="-66" font-family="Helvetica,sans-Serif" font-size="10.00">L4virtio::Virtqueue</text>
<text text-anchor="middle" x="239.5" y="-55" font-family="Helvetica,sans-Serif" font-size="10.00">::total_size</text>
</a>
</g>
</g>
<!-- Node1&#45;&gt;Node5 -->
<g id="edge4_Node000001_Node000005" class="edge">
<title>Node1&#45;&gt;Node5</title>
<g id="a_edge4_Node000001_Node000005"><a xlink:title=" ">
<path fill="none" stroke="#63b8ff" d="M330.5,-92.79C315.75,-87.91 299.98,-82.69 285.82,-78"/>
<polygon fill="#63b8ff" stroke="#63b8ff" points="329.43,-96.12 340.02,-95.94 331.63,-89.48 329.43,-96.12"/>
</a>
</g>
</g>
<!-- Node4 -->
<g id="Node000004" class="node">
<title>Node4</title>
<g id="a_Node000004"><a xlink:href="classL4virtio_1_1Driver_1_1Virtqueue.html#a285bae271e6acfe9c5bfa3df388c6b17" target="_top" xlink:title="Initialize this virtqueue.">
<polygon fill="white" stroke="#666666" points="144.5,-126 1.5,-126 1.5,-96 144.5,-96 144.5,-126"/>
<text text-anchor="start" x="9.5" y="-114" font-family="Helvetica,sans-Serif" font-size="10.00">L4virtio::Driver::Virtqueue</text>
<text text-anchor="middle" x="73" y="-103" font-family="Helvetica,sans-Serif" font-size="10.00">::init_queue</text>
</a>
</g>
</g>
<!-- Node3&#45;&gt;Node4 -->
<g id="edge3_Node000003_Node000004" class="edge">
<title>Node3&#45;&gt;Node4</title>
<g id="a_edge3_Node000003_Node000004"><a xlink:title=" ">
<path fill="none" stroke="#63b8ff" d="M175.93,-111C165.69,-111 155.02,-111 144.61,-111"/>
<polygon fill="#63b8ff" stroke="#63b8ff" points="176,-114.5 186,-111 176,-107.5 176,-114.5"/>
</a>
</g>
</g>
<!-- Node6 -->
<g id="Node000006" class="node">
<title>Node6</title>
<g id="a_Node000006"><a xlink:href="classL4virtio_1_1Driver_1_1Virtio__net__device.html#aa5d34e5156db18773cf46c2d06a2aa3a" target="_top" xlink:title="Establish a connection to the device and set up shared memory.">
<polygon fill="white" stroke="#666666" points="146,-78 0,-78 0,-48 146,-48 146,-78"/>
<text text-anchor="start" x="8" y="-66" font-family="Helvetica,sans-Serif" font-size="10.00">L4virtio::Driver::Virtio</text>
<text text-anchor="middle" x="73" y="-55" font-family="Helvetica,sans-Serif" font-size="10.00">_net_device::setup_device</text>
</a>
</g>
</g>
<!-- Node5&#45;&gt;Node6 -->
<g id="edge5_Node000005_Node000006" class="edge">
<title>Node5&#45;&gt;Node6</title>
<g id="a_edge5_Node000005_Node000006"><a xlink:title=" ">
<path fill="none" stroke="#63b8ff" d="M175.99,-63C166.22,-63 156.06,-63 146.1,-63"/>
<polygon fill="#63b8ff" stroke="#63b8ff" points="176,-66.5 186,-63 176,-59.5 176,-66.5"/>
</a>
</g>
</g>
<!-- Node7 -->
<g id="Node000007" class="node">
<title>Node7</title>
<g id="a_Node000007"><a xlink:href="classL4virtio_1_1Driver_1_1Block__device.html#af509c2785789dd2daf6b13f3369c6581" target="_top" xlink:title="Establish a connection to the device and set up shared memory.">
<polygon fill="white" stroke="#666666" points="135.5,-30 10.5,-30 10.5,0 135.5,0 135.5,-30"/>
<text text-anchor="start" x="18.5" y="-18" font-family="Helvetica,sans-Serif" font-size="10.00">L4virtio::Driver::Block</text>
<text text-anchor="middle" x="73" y="-7" font-family="Helvetica,sans-Serif" font-size="10.00">_device::setup_device</text>
</a>
</g>
</g>
<!-- Node5&#45;&gt;Node7 -->
<g id="edge6_Node000005_Node000007" class="edge">
<title>Node5&#45;&gt;Node7</title>
<g id="a_edge6_Node000005_Node000007"><a xlink:title=" ">
<path fill="none" stroke="#63b8ff" d="M177.06,-45.07C160.06,-40.11 141.78,-34.78 125.41,-30"/>
<polygon fill="#63b8ff" stroke="#63b8ff" points="176.32,-48.5 186.9,-47.94 178.28,-41.78 176.32,-48.5"/>
</a>
</g>
</g>
</g>
</svg>
