<?xml version="1.0" encoding="UTF-8" standalone="no"?>
<!DOCTYPE svg PUBLIC "-//W3C//DTD SVG 1.1//EN"
 "http://www.w3.org/Graphics/SVG/1.1/DTD/svg11.dtd">
<!-- Generated by graphviz version 2.42.4 (0)
 -->
<!-- Title: L4::Kip::Mem_desc Pages: 1 -->
<svg width="110pt" height="252pt"
 viewBox="0.00 0.00 110.00 252.00" xmlns="http://www.w3.org/2000/svg" xmlns:xlink="http://www.w3.org/1999/xlink">
<g id="graph0" class="graph" transform="scale(1 1) rotate(0) translate(4 248)">
<title>L4::Kip::Mem_desc</title>
<!-- Node1 -->
<g id="Node000001" class="node">
<title>Node1</title>
<g id="a_Node000001"><a xlink:title="Memory descriptors stored in the kernel interface page.">
<polygon fill="#999999" stroke="transparent" points="102,-244 0,-244 0,0 102,0 102,-244"/>
<text text-anchor="start" x="5" y="-232" font-family="Helvetica,sans-Serif" font-size="10.00">L4::Kip::Mem_desc</text>
<text text-anchor="start" x="49" y="-217" font-family="Helvetica,sans-Serif" font-size="10.00"> </text>
<text text-anchor="start" x="8.5" y="-202" font-family="Helvetica,sans-Serif" font-size="10.00">+</text>
<text text-anchor="start" x="26" y="-202" font-family="Helvetica,sans-Serif" font-size="10.00">Mem_desc()</text>
<text text-anchor="start" x="8.5" y="-187" font-family="Helvetica,sans-Serif" font-size="10.00">+</text>
<text text-anchor="start" x="26" y="-187" font-family="Helvetica,sans-Serif" font-size="10.00">start()</text>
<text text-anchor="start" x="8.5" y="-172" font-family="Helvetica,sans-Serif" font-size="10.00">+</text>
<text text-anchor="start" x="26" y="-172" font-family="Helvetica,sans-Serif" font-size="10.00">end()</text>
<text text-anchor="start" x="8.5" y="-157" font-family="Helvetica,sans-Serif" font-size="10.00">+</text>
<text text-anchor="start" x="26" y="-157" font-family="Helvetica,sans-Serif" font-size="10.00">size()</text>
<text text-anchor="start" x="8.5" y="-142" font-family="Helvetica,sans-Serif" font-size="10.00">+</text>
<text text-anchor="start" x="26" y="-142" font-family="Helvetica,sans-Serif" font-size="10.00">type()</text>
<text text-anchor="start" x="8.5" y="-127" font-family="Helvetica,sans-Serif" font-size="10.00">+</text>
<text text-anchor="start" x="26" y="-127" font-family="Helvetica,sans-Serif" font-size="10.00">sub_type()</text>
<text text-anchor="start" x="8.5" y="-112" font-family="Helvetica,sans-Serif" font-size="10.00">+</text>
<text text-anchor="start" x="26" y="-112" font-family="Helvetica,sans-Serif" font-size="10.00">is_virtual()</text>
<text text-anchor="start" x="8.5" y="-97" font-family="Helvetica,sans-Serif" font-size="10.00">+</text>
<text text-anchor="start" x="26" y="-97" font-family="Helvetica,sans-Serif" font-size="10.00">eager_map()</text>
<text text-anchor="start" x="8.5" y="-82" font-family="Helvetica,sans-Serif" font-size="10.00">+</text>
<text text-anchor="start" x="26" y="-82" font-family="Helvetica,sans-Serif" font-size="10.00">set()</text>
<text text-anchor="start" x="8.5" y="-67" font-family="Helvetica,sans-Serif" font-size="10.00">+</text>
<text text-anchor="start" x="26" y="-67" font-family="Helvetica,sans-Serif" font-size="10.00">first()</text>
<text text-anchor="start" x="8.5" y="-52" font-family="Helvetica,sans-Serif" font-size="10.00">+</text>
<text text-anchor="start" x="26" y="-52" font-family="Helvetica,sans-Serif" font-size="10.00">count()</text>
<text text-anchor="start" x="8.5" y="-37" font-family="Helvetica,sans-Serif" font-size="10.00">+</text>
<text text-anchor="start" x="26" y="-37" font-family="Helvetica,sans-Serif" font-size="10.00">count()</text>
<text text-anchor="start" x="8.5" y="-22" font-family="Helvetica,sans-Serif" font-size="10.00">+</text>
<text text-anchor="start" x="26" y="-22" font-family="Helvetica,sans-Serif" font-size="10.00">all()</text>
<text text-anchor="start" x="8.5" y="-7" font-family="Helvetica,sans-Serif" font-size="10.00">+</text>
<text text-anchor="start" x="26" y="-7" font-family="Helvetica,sans-Serif" font-size="10.00">all()</text>
<polygon fill="#666666" stroke="#666666" points="0,-227 0,-227 102,-227 102,-227 0,-227"/>
<polygon fill="#666666" stroke="#666666" points="0,-212 0,-212 102,-212 102,-212 0,-212"/>
<polygon fill="none" stroke="#666666" points="0,0 0,-244 102,-244 102,0 0,0"/>
</a>
</g>
</g>
</g>
</svg>
