<?xml version="1.0" encoding="UTF-8" standalone="no"?>
<!DOCTYPE svg PUBLIC "-//W3C//DTD SVG 1.1//EN"
 "http://www.w3.org/Graphics/SVG/1.1/DTD/svg11.dtd">
<!-- Generated by graphviz version 2.42.4 (0)
 -->
<!-- Title: L4virtio::Virtqueue::disable Pages: 1 -->
<svg width="454pt" height="86pt"
 viewBox="0.00 0.00 454.00 86.00" xmlns="http://www.w3.org/2000/svg" xmlns:xlink="http://www.w3.org/1999/xlink">
<g id="graph0" class="graph" transform="scale(1 1) rotate(0) translate(4 82)">
<title>L4virtio::Virtqueue::disable</title>
<!-- Node1 -->
<g id="Node000001" class="node">
<title>Node1</title>
<g id="a_Node000001"><a xlink:title="Completely disable the queue.">
<polygon fill="#999999" stroke="#666666" points="446,-54 339,-54 339,-24 446,-24 446,-54"/>
<text text-anchor="start" x="347" y="-42" font-family="Helvetica,sans-Serif" font-size="10.00">L4virtio::Virtqueue</text>
<text text-anchor="middle" x="392.5" y="-31" font-family="Helvetica,sans-Serif" font-size="10.00">::disable</text>
</a>
</g>
</g>
<!-- Node2 -->
<g id="Node000002" class="node">
<title>Node2</title>
<g id="a_Node000002"><a xlink:href="classL4virtio_1_1Svr_1_1Block__dev__base.html#abccf7d85ecfd3e21953761bedf52ad79" target="_top" xlink:title="reset callback, called for doing a device reset">
<polygon fill="white" stroke="#666666" points="299.5,-78 191.5,-78 191.5,-48 299.5,-48 299.5,-78"/>
<text text-anchor="start" x="199.5" y="-66" font-family="Helvetica,sans-Serif" font-size="10.00">L4virtio::Svr::Block</text>
<text text-anchor="middle" x="245.5" y="-55" font-family="Helvetica,sans-Serif" font-size="10.00">_dev_base::reset</text>
</a>
</g>
</g>
<!-- Node1&#45;&gt;Node2 -->
<g id="edge1_Node000001_Node000002" class="edge">
<title>Node1&#45;&gt;Node2</title>
<g id="a_edge1_Node000001_Node000002"><a xlink:title=" ">
<path fill="none" stroke="#63b8ff" d="M328.83,-49.37C319.21,-50.97 309.35,-52.6 299.95,-54.15"/>
<polygon fill="#63b8ff" stroke="#63b8ff" points="329.45,-52.82 338.74,-47.73 328.3,-45.91 329.45,-52.82"/>
</a>
</g>
</g>
<!-- Node3 -->
<g id="Node000003" class="node">
<title>Node3</title>
<g id="a_Node000003"><a xlink:href="classL4virtio_1_1Svr_1_1Device__t.html#ab906b4cc61026fd815a8056f07bef10e" target="_top" xlink:title="Enable/disable the specified queue.">
<polygon fill="white" stroke="#666666" points="303,-30 188,-30 188,0 303,0 303,-30"/>
<text text-anchor="start" x="196" y="-18" font-family="Helvetica,sans-Serif" font-size="10.00">L4virtio::Svr::Device</text>
<text text-anchor="middle" x="245.5" y="-7" font-family="Helvetica,sans-Serif" font-size="10.00">_t::setup_queue</text>
</a>
</g>
</g>
<!-- Node1&#45;&gt;Node3 -->
<g id="edge2_Node000001_Node000003" class="edge">
<title>Node1&#45;&gt;Node3</title>
<g id="a_edge2_Node000001_Node000003"><a xlink:title=" ">
<path fill="none" stroke="#63b8ff" d="M328.62,-28.59C320.23,-27.2 311.66,-25.79 303.38,-24.41"/>
<polygon fill="#63b8ff" stroke="#63b8ff" points="328.3,-32.09 338.74,-30.27 329.45,-25.18 328.3,-32.09"/>
</a>
</g>
</g>
<!-- Node4 -->
<g id="Node000004" class="node">
<title>Node4</title>
<g id="a_Node000004"><a xlink:href="classL4virtio_1_1Svr_1_1Console_1_1Virtio__con.html#a907c7c33a513325d49c3214f94b2f600" target="_top" xlink:title="callback for client queue&#45;config request">
<polygon fill="white" stroke="#666666" points="152,-30 0,-30 0,0 152,0 152,-30"/>
<text text-anchor="start" x="8" y="-18" font-family="Helvetica,sans-Serif" font-size="10.00">L4virtio::Svr::Console</text>
<text text-anchor="middle" x="76" y="-7" font-family="Helvetica,sans-Serif" font-size="10.00">::Virtio_con::reconfig_queue</text>
</a>
</g>
</g>
<!-- Node3&#45;&gt;Node4 -->
<g id="edge3_Node000003_Node000004" class="edge">
<title>Node3&#45;&gt;Node4</title>
<g id="a_edge3_Node000003_Node000004"><a xlink:title=" ">
<path fill="none" stroke="#63b8ff" d="M177.67,-15C169.25,-15 160.59,-15 152.06,-15"/>
<polygon fill="#63b8ff" stroke="#63b8ff" points="177.79,-18.5 187.79,-15 177.79,-11.5 177.79,-18.5"/>
</a>
</g>
</g>
</g>
</svg>
