<?xml version="1.0" encoding="UTF-8" standalone="no"?>
<!DOCTYPE svg PUBLIC "-//W3C//DTD SVG 1.1//EN"
 "http://www.w3.org/Graphics/SVG/1.1/DTD/svg11.dtd">
<!-- Generated by graphviz version 2.42.4 (0)
 -->
<!-- Title: cxx::Avl_map::insert Pages: 1 -->
<svg width="418pt" height="38pt"
 viewBox="0.00 0.00 418.00 38.00" xmlns="http://www.w3.org/2000/svg" xmlns:xlink="http://www.w3.org/1999/xlink">
<g id="graph0" class="graph" transform="scale(1 1) rotate(0) translate(4 34)">
<title>cxx::Avl_map::insert</title>
<!-- Node1 -->
<g id="Node000001" class="node">
<title>Node1</title>
<g id="a_Node000001"><a xlink:title="Insert a &lt;key, data&gt; pair into the map.">
<polygon fill="#999999" stroke="#666666" points="116,-24.5 0,-24.5 0,-5.5 116,-5.5 116,-24.5"/>
<text text-anchor="middle" x="58" y="-12.5" font-family="Helvetica,sans-Serif" font-size="10.00">cxx::Avl_map::insert</text>
</a>
</g>
</g>
<!-- Node2 -->
<g id="Node000002" class="node">
<title>Node2</title>
<g id="a_Node000002"><a xlink:href="classcxx_1_1Bits_1_1Base__avl__set.html#ac1f7218e9e51bfef71ecb746719a389a" target="_top" xlink:title="Insert an item into the set.">
<polygon fill="white" stroke="#666666" points="261,-30 152,-30 152,0 261,0 261,-30"/>
<text text-anchor="start" x="160" y="-18" font-family="Helvetica,sans-Serif" font-size="10.00">cxx::Bits::Base_avl</text>
<text text-anchor="middle" x="206.5" y="-7" font-family="Helvetica,sans-Serif" font-size="10.00">_set::insert</text>
</a>
</g>
</g>
<!-- Node1&#45;&gt;Node2 -->
<g id="edge1_Node000001_Node000002" class="edge">
<title>Node1&#45;&gt;Node2</title>
<g id="a_edge1_Node000001_Node000002"><a xlink:title=" ">
<path fill="none" stroke="#63b8ff" d="M116.06,-15C124.4,-15 133.03,-15 141.5,-15"/>
<polygon fill="#63b8ff" stroke="#63b8ff" points="141.71,-18.5 151.71,-15 141.71,-11.5 141.71,-18.5"/>
</a>
</g>
</g>
<!-- Node3 -->
<g id="Node000003" class="node">
<title>Node3</title>
<g id="a_Node000003"><a xlink:href="classcxx_1_1Avl__tree.html#a202d84f24c534368f98b0986be0eee1b" target="_top" xlink:title="Insert a new node into this AVL tree.">
<polygon fill="white" stroke="#666666" points="410,-24.5 297,-24.5 297,-5.5 410,-5.5 410,-24.5"/>
<text text-anchor="middle" x="353.5" y="-12.5" font-family="Helvetica,sans-Serif" font-size="10.00">cxx::Avl_tree::insert</text>
</a>
</g>
</g>
<!-- Node2&#45;&gt;Node3 -->
<g id="edge2_Node000002_Node000003" class="edge">
<title>Node2&#45;&gt;Node3</title>
<g id="a_edge2_Node000002_Node000003"><a xlink:title=" ">
<path fill="none" stroke="#63b8ff" d="M261.08,-15C269.34,-15 277.95,-15 286.44,-15"/>
<polygon fill="#63b8ff" stroke="#63b8ff" points="286.71,-18.5 296.71,-15 286.71,-11.5 286.71,-18.5"/>
</a>
</g>
</g>
</g>
</svg>
