<?xml version="1.0" encoding="UTF-8" standalone="no"?>
<!DOCTYPE svg PUBLIC "-//W3C//DTD SVG 1.1//EN"
 "http://www.w3.org/Graphics/SVG/1.1/DTD/svg11.dtd">
<!-- Generated by graphviz version 2.42.4 (0)
 -->
<!-- Title: L4Re::Event Pages: 1 -->
<svg width="306pt" height="973pt"
 viewBox="0.00 0.00 306.00 973.00" xmlns="http://www.w3.org/2000/svg" xmlns:xlink="http://www.w3.org/1999/xlink">
<g id="graph0" class="graph" transform="scale(1 1) rotate(0) translate(4 969)">
<title>L4Re::Event</title>
<!-- Node1 -->
<g id="Node000001" class="node">
<title>Node1</title>
<g id="a_Node000001"><a xlink:title="Event class.">
<polygon fill="#999999" stroke="transparent" points="240,-393 92,-393 92,-269 240,-269 240,-393"/>
<text text-anchor="start" x="137" y="-381" font-family="Helvetica,sans-Serif" font-size="10.00">L4Re::Event</text>
<text text-anchor="start" x="164" y="-366" font-family="Helvetica,sans-Serif" font-size="10.00"> </text>
<text text-anchor="start" x="96" y="-351" font-family="Helvetica,sans-Serif" font-size="10.00">+</text>
<text text-anchor="start" x="109" y="-351" font-family="Helvetica,sans-Serif" font-size="10.00">get_buffer()</text>
<text text-anchor="start" x="96" y="-336" font-family="Helvetica,sans-Serif" font-size="10.00">+</text>
<text text-anchor="start" x="109" y="-336" font-family="Helvetica,sans-Serif" font-size="10.00">get_num_streams()</text>
<text text-anchor="start" x="96" y="-321" font-family="Helvetica,sans-Serif" font-size="10.00">+</text>
<text text-anchor="start" x="109" y="-321" font-family="Helvetica,sans-Serif" font-size="10.00">get_stream_info()</text>
<text text-anchor="start" x="96" y="-306" font-family="Helvetica,sans-Serif" font-size="10.00">+</text>
<text text-anchor="start" x="109" y="-306" font-family="Helvetica,sans-Serif" font-size="10.00">get_stream_info_for_id()</text>
<text text-anchor="start" x="96" y="-291" font-family="Helvetica,sans-Serif" font-size="10.00">+</text>
<text text-anchor="start" x="109" y="-291" font-family="Helvetica,sans-Serif" font-size="10.00">get_axis_info()</text>
<text text-anchor="start" x="96" y="-276" font-family="Helvetica,sans-Serif" font-size="10.00">+</text>
<text text-anchor="start" x="109" y="-276" font-family="Helvetica,sans-Serif" font-size="10.00">get_stream_state_for_id()</text>
<polygon fill="#666666" stroke="#666666" points="92,-376 92,-376 240,-376 240,-376 92,-376"/>
<polygon fill="#666666" stroke="#666666" points="92,-361 92,-361 240,-361 240,-361 92,-361"/>
<polygon fill="none" stroke="#666666" points="92,-269 92,-393 240,-393 240,-269 92,-269"/>
</a>
</g>
</g>
<!-- Node7 -->
<g id="Node000007" class="node">
<title>Node7</title>
<g id="a_Node000007"><a xlink:href="structL4_1_1Kobject__3t.html" target="_top" xlink:title=" ">
<polygon fill="white" stroke="transparent" points="232,-232 100,-232 100,-146 232,-146 232,-232"/>
<text text-anchor="start" x="105" y="-220" font-family="Helvetica,sans-Serif" font-size="10.00">L4::Kobject_3t&lt; Vbus,</text>
<text text-anchor="start" x="105" y="-209" font-family="Helvetica,sans-Serif" font-size="10.00"> L4Re::Dataspace, L4Re</text>
<text text-anchor="start" x="105" y="-198" font-family="Helvetica,sans-Serif" font-size="10.00">::Inhibitor, L4Re::Event &gt;</text>
<text text-anchor="start" x="164" y="-183" font-family="Helvetica,sans-Serif" font-size="10.00"> </text>
<text text-anchor="start" x="104.5" y="-168" font-family="Helvetica,sans-Serif" font-size="10.00">#</text>
<text text-anchor="start" x="118" y="-168" font-family="Helvetica,sans-Serif" font-size="10.00">c()</text>
<text text-anchor="start" x="104.5" y="-153" font-family="Helvetica,sans-Serif" font-size="10.00">#</text>
<text text-anchor="start" x="118" y="-153" font-family="Helvetica,sans-Serif" font-size="10.00">__check_protocols__()</text>
<polygon fill="#666666" stroke="#666666" points="100,-193 100,-193 232,-193 232,-193 100,-193"/>
<polygon fill="#666666" stroke="#666666" points="100,-178 100,-178 232,-178 232,-178 100,-178"/>
<polygon fill="none" stroke="#666666" points="100,-146 100,-232 232,-232 232,-146 100,-146"/>
</a>
</g>
</g>
<!-- Node1&#45;&gt;Node7 -->
<g id="edge7_Node000001_Node000007" class="edge">
<title>Node1&#45;&gt;Node7</title>
<g id="a_edge7_Node000001_Node000007"><a xlink:title=" ">
<path fill="none" stroke="#63b8ff" d="M166,-258.42C166,-249.39 166,-240.4 166,-232.05"/>
<polygon fill="none" stroke="#63b8ff" points="162.5,-258.59 166,-268.59 169.5,-258.59 162.5,-258.59"/>
</a>
</g>
</g>
<!-- Node2 -->
<g id="Node000002" class="node">
<title>Node2</title>
<g id="a_Node000002"><a xlink:href="classL4_1_1Kobject__t.html" target="_top" xlink:title=" ">
<polygon fill="white" stroke="transparent" points="230.5,-516 101.5,-516 101.5,-430 230.5,-430 230.5,-516"/>
<text text-anchor="start" x="114" y="-504" font-family="Helvetica,sans-Serif" font-size="10.00">L4::Kobject_t&lt; Event,</text>
<text text-anchor="start" x="114" y="-493" font-family="Helvetica,sans-Serif" font-size="10.00"> L4::Icu, L4RE_PROTO</text>
<text text-anchor="start" x="142" y="-482" font-family="Helvetica,sans-Serif" font-size="10.00">_EVENT &gt;</text>
<text text-anchor="start" x="164.5" y="-467" font-family="Helvetica,sans-Serif" font-size="10.00"> </text>
<text text-anchor="start" x="106" y="-452" font-family="Helvetica,sans-Serif" font-size="10.00">#</text>
<text text-anchor="start" x="119" y="-452" font-family="Helvetica,sans-Serif" font-size="10.00">c()</text>
<text text-anchor="start" x="106" y="-437" font-family="Helvetica,sans-Serif" font-size="10.00">#</text>
<text text-anchor="start" x="119" y="-437" font-family="Helvetica,sans-Serif" font-size="10.00">__check_protocols__()</text>
<polygon fill="#666666" stroke="#666666" points="102,-477 102,-477 231,-477 231,-477 102,-477"/>
<polygon fill="#666666" stroke="#666666" points="102,-462 102,-462 231,-462 231,-462 102,-462"/>
<polygon fill="none" stroke="#666666" points="101.5,-430 101.5,-516 230.5,-516 230.5,-430 101.5,-430"/>
</a>
</g>
</g>
<!-- Node2&#45;&gt;Node1 -->
<g id="edge1_Node000001_Node000002" class="edge">
<title>Node2&#45;&gt;Node1</title>
<g id="a_edge1_Node000001_Node000002"><a xlink:title=" ">
<path fill="none" stroke="#63b8ff" d="M166,-419.95C166,-411.21 166,-402.07 166,-393.13"/>
<polygon fill="none" stroke="#63b8ff" points="162.5,-420 166,-430 169.5,-420 162.5,-420"/>
</a>
</g>
</g>
<!-- Node3 -->
<g id="Node000003" class="node">
<title>Node3</title>
<g id="a_Node000003"><a xlink:href="classL4_1_1Icu.html" target="_top" xlink:title="C++ Icu interface, see Interrupt controller for the C interface.">
<polygon fill="white" stroke="transparent" points="163.5,-677 86.5,-677 86.5,-553 163.5,-553 163.5,-677"/>
<text text-anchor="start" x="109.5" y="-665" font-family="Helvetica,sans-Serif" font-size="10.00">L4::Icu</text>
<text text-anchor="start" x="123.5" y="-650" font-family="Helvetica,sans-Serif" font-size="10.00"> </text>
<text text-anchor="start" x="91" y="-635" font-family="Helvetica,sans-Serif" font-size="10.00">+</text>
<text text-anchor="start" x="104" y="-635" font-family="Helvetica,sans-Serif" font-size="10.00">bind()</text>
<text text-anchor="start" x="91" y="-620" font-family="Helvetica,sans-Serif" font-size="10.00">+</text>
<text text-anchor="start" x="104" y="-620" font-family="Helvetica,sans-Serif" font-size="10.00">unbind()</text>
<text text-anchor="start" x="91" y="-605" font-family="Helvetica,sans-Serif" font-size="10.00">+</text>
<text text-anchor="start" x="104" y="-605" font-family="Helvetica,sans-Serif" font-size="10.00">info()</text>
<text text-anchor="start" x="91" y="-590" font-family="Helvetica,sans-Serif" font-size="10.00">+</text>
<text text-anchor="start" x="104" y="-590" font-family="Helvetica,sans-Serif" font-size="10.00">msi_info()</text>
<text text-anchor="start" x="91" y="-575" font-family="Helvetica,sans-Serif" font-size="10.00">+</text>
<text text-anchor="start" x="104" y="-575" font-family="Helvetica,sans-Serif" font-size="10.00">mask()</text>
<text text-anchor="start" x="91" y="-560" font-family="Helvetica,sans-Serif" font-size="10.00">+</text>
<text text-anchor="start" x="104" y="-560" font-family="Helvetica,sans-Serif" font-size="10.00">set_mode()</text>
<polygon fill="#666666" stroke="#666666" points="87,-660 87,-660 164,-660 164,-660 87,-660"/>
<polygon fill="#666666" stroke="#666666" points="87,-645 87,-645 164,-645 164,-645 87,-645"/>
<polygon fill="none" stroke="#666666" points="86.5,-553 86.5,-677 163.5,-677 163.5,-553 86.5,-553"/>
</a>
</g>
</g>
<!-- Node3&#45;&gt;Node2 -->
<g id="edge2_Node000002_Node000003" class="edge">
<title>Node3&#45;&gt;Node2</title>
<g id="a_edge2_Node000002_Node000003"><a xlink:title=" ">
<path fill="none" stroke="#63b8ff" d="M145.88,-542.71C148.55,-533.59 151.21,-524.49 153.69,-516.05"/>
<polygon fill="none" stroke="#63b8ff" points="142.43,-542.01 142.98,-552.59 149.15,-543.98 142.43,-542.01"/>
</a>
</g>
</g>
<!-- Node4 -->
<g id="Node000004" class="node">
<title>Node4</title>
<g id="a_Node000004"><a xlink:href="classL4_1_1Kobject__t.html" target="_top" xlink:title=" ">
<polygon fill="white" stroke="transparent" points="156,-821 0,-821 0,-735 156,-735 156,-821"/>
<text text-anchor="start" x="5" y="-809" font-family="Helvetica,sans-Serif" font-size="10.00">L4::Kobject_t&lt; Icu,</text>
<text text-anchor="start" x="5" y="-798" font-family="Helvetica,sans-Serif" font-size="10.00"> Irq_eoi, L4_PROTO_IRQ,</text>
<text text-anchor="start" x="5" y="-787" font-family="Helvetica,sans-Serif" font-size="10.00"> Type_info::Demand_t&lt; 1 &gt; &gt;</text>
<text text-anchor="start" x="76" y="-772" font-family="Helvetica,sans-Serif" font-size="10.00"> </text>
<text text-anchor="start" x="10.5" y="-757" font-family="Helvetica,sans-Serif" font-size="10.00">#</text>
<text text-anchor="start" x="30" y="-757" font-family="Helvetica,sans-Serif" font-size="10.00">c()</text>
<text text-anchor="start" x="10.5" y="-742" font-family="Helvetica,sans-Serif" font-size="10.00">#</text>
<text text-anchor="start" x="30" y="-742" font-family="Helvetica,sans-Serif" font-size="10.00">__check_protocols__()</text>
<polygon fill="#666666" stroke="#666666" points="0,-782 0,-782 156,-782 156,-782 0,-782"/>
<polygon fill="#666666" stroke="#666666" points="0,-767 0,-767 156,-767 156,-767 0,-767"/>
<polygon fill="none" stroke="#666666" points="0,-735 0,-821 156,-821 156,-735 0,-735"/>
</a>
</g>
</g>
<!-- Node4&#45;&gt;Node3 -->
<g id="edge3_Node000003_Node000004" class="edge">
<title>Node4&#45;&gt;Node3</title>
<g id="a_edge3_Node000003_Node000004"><a xlink:title=" ">
<path fill="none" stroke="#63b8ff" d="M93.2,-724.93C97.65,-709.67 102.56,-692.85 107.17,-677.09"/>
<polygon fill="none" stroke="#63b8ff" points="89.79,-724.12 90.35,-734.7 96.51,-726.08 89.79,-724.12"/>
</a>
</g>
</g>
<!-- Node5 -->
<g id="Node000005" class="node">
<title>Node5</title>
<g id="a_Node000005"><a xlink:href="classL4_1_1Irq__eoi.html" target="_top" xlink:title="Interface for sending an unmask message to an object.">
<polygon fill="white" stroke="transparent" points="79,-952 11,-952 11,-903 79,-903 79,-952"/>
<text text-anchor="start" x="19.5" y="-939.5" font-family="Helvetica,sans-Serif" font-size="10.00">L4::Irq_eoi</text>
<text text-anchor="start" x="43" y="-924.5" font-family="Helvetica,sans-Serif" font-size="10.00"> </text>
<text text-anchor="start" x="15" y="-909.5" font-family="Helvetica,sans-Serif" font-size="10.00">+</text>
<text text-anchor="start" x="28" y="-909.5" font-family="Helvetica,sans-Serif" font-size="10.00">unmask()</text>
<polygon fill="#666666" stroke="#666666" points="11,-934.5 11,-934.5 79,-934.5 79,-934.5 11,-934.5"/>
<polygon fill="#666666" stroke="#666666" points="11,-919.5 11,-919.5 79,-919.5 79,-919.5 11,-919.5"/>
<polygon fill="none" stroke="#666666" points="11,-903 11,-952 79,-952 79,-903 11,-903"/>
</a>
</g>
</g>
<!-- Node5&#45;&gt;Node4 -->
<g id="edge4_Node000004_Node000005" class="edge">
<title>Node5&#45;&gt;Node4</title>
<g id="a_edge4_Node000004_Node000005"><a xlink:title=" ">
<path fill="none" stroke="#63b8ff" d="M49.21,-892.74C51.55,-876.4 54.84,-856.56 59,-839 60.39,-833.15 62.05,-827.05 63.82,-821.07"/>
<polygon fill="none" stroke="#63b8ff" points="45.71,-892.53 47.81,-902.92 52.64,-893.49 45.71,-892.53"/>
</a>
</g>
</g>
<!-- Node6 -->
<g id="Node000006" class="node">
<title>Node6</title>
<g id="a_Node000006"><a xlink:href="classL4_1_1Kobject__t.html" target="_top" xlink:title="Helper class to create an L4Re interface class that is derived from a single base class.">
<polygon fill="white" stroke="transparent" points="265,-965 115,-965 115,-890 265,-890 265,-965"/>
<text text-anchor="start" x="120" y="-952.5" font-family="Helvetica,sans-Serif" font-size="10.00">L4::Kobject_t&lt; Derived,</text>
<text text-anchor="start" x="120" y="-941.5" font-family="Helvetica,sans-Serif" font-size="10.00"> Base, PROTO, S_DEMAND &gt;</text>
<text text-anchor="start" x="188" y="-926.5" font-family="Helvetica,sans-Serif" font-size="10.00"> </text>
<text text-anchor="start" x="124" y="-911.5" font-family="Helvetica,sans-Serif" font-size="10.00">#</text>
<text text-anchor="start" x="142" y="-911.5" font-family="Helvetica,sans-Serif" font-size="10.00">c()</text>
<text text-anchor="start" x="124" y="-896.5" font-family="Helvetica,sans-Serif" font-size="10.00">#</text>
<text text-anchor="start" x="142" y="-896.5" font-family="Helvetica,sans-Serif" font-size="10.00">__check_protocols__()</text>
<polygon fill="#666666" stroke="#666666" points="115,-936.5 115,-936.5 265,-936.5 265,-936.5 115,-936.5"/>
<polygon fill="#666666" stroke="#666666" points="115,-921.5 115,-921.5 265,-921.5 265,-921.5 115,-921.5"/>
<polygon fill="none" stroke="#666666" points="115,-890 115,-965 265,-965 265,-890 115,-890"/>
</a>
</g>
</g>
<!-- Node6&#45;&gt;Node2 -->
<g id="edge6_Node000002_Node000006" class="edge">
<title>Node6&#45;&gt;Node2</title>
<g id="a_edge6_Node000002_Node000006"><a xlink:title=" ">
<path fill="none" stroke="orange" d="M193.66,-879.74C193.79,-877.13 193.91,-874.53 194,-872 194.54,-857.34 194.56,-853.66 194,-839 189.51,-721.83 176.95,-583.96 170.28,-516.09"/>
<polygon fill="orange" stroke="orange" points="190.15,-879.69 193.06,-889.88 197.14,-880.1 190.15,-879.69"/>
</a>
</g>
<text text-anchor="start" x="188" y="-709" font-family="Helvetica,sans-Serif" font-size="10.00" fill="grey"> &lt; Event, L4::Icu, L4RE</text>
<text text-anchor="middle" x="243" y="-698" font-family="Helvetica,sans-Serif" font-size="10.00" fill="grey">_PROTO_EVENT &gt;</text>
</g>
<!-- Node6&#45;&gt;Node4 -->
<g id="edge5_Node000004_Node000006" class="edge">
<title>Node6&#45;&gt;Node4</title>
<g id="a_edge5_Node000004_Node000006"><a xlink:title=" ">
<path fill="none" stroke="orange" d="M106.07,-898.45C95.35,-891.44 85.78,-882.75 79,-872 69.61,-857.11 68.04,-838.04 69.32,-821.05"/>
<polygon fill="orange" stroke="orange" points="104.5,-901.59 114.88,-903.72 108.09,-895.58 104.5,-901.59"/>
</a>
</g>
<text text-anchor="start" x="79" y="-864" font-family="Helvetica,sans-Serif" font-size="10.00" fill="grey"> &lt; Icu, Irq_eoi, L4</text>
<text text-anchor="start" x="79" y="-853" font-family="Helvetica,sans-Serif" font-size="10.00" fill="grey">_PROTO_IRQ, Type_info</text>
<text text-anchor="middle" x="136.5" y="-842" font-family="Helvetica,sans-Serif" font-size="10.00" fill="grey">::Demand_t&lt; 1 &gt; &gt;</text>
</g>
<!-- Node8 -->
<g id="Node000008" class="node">
<title>Node8</title>
<g id="a_Node000008"><a xlink:href="classL4vbus_1_1Vbus.html" target="_top" xlink:title="The virtual bus (Vbus) interface.">
<polygon fill="white" stroke="transparent" points="231,-109 101,-109 101,0 231,0 231,-109"/>
<text text-anchor="start" x="133.5" y="-96.5" font-family="Helvetica,sans-Serif" font-size="10.00">L4vbus::Vbus</text>
<text text-anchor="start" x="164" y="-81.5" font-family="Helvetica,sans-Serif" font-size="10.00"> </text>
<text text-anchor="start" x="105" y="-66.5" font-family="Helvetica,sans-Serif" font-size="10.00">+</text>
<text text-anchor="start" x="118" y="-66.5" font-family="Helvetica,sans-Serif" font-size="10.00">request_ioport()</text>
<text text-anchor="start" x="105" y="-51.5" font-family="Helvetica,sans-Serif" font-size="10.00">+</text>
<text text-anchor="start" x="118" y="-51.5" font-family="Helvetica,sans-Serif" font-size="10.00">release_ioport()</text>
<text text-anchor="start" x="105" y="-36.5" font-family="Helvetica,sans-Serif" font-size="10.00">+</text>
<text text-anchor="start" x="118" y="-36.5" font-family="Helvetica,sans-Serif" font-size="10.00">root()</text>
<text text-anchor="start" x="105" y="-21.5" font-family="Helvetica,sans-Serif" font-size="10.00">+</text>
<text text-anchor="start" x="118" y="-21.5" font-family="Helvetica,sans-Serif" font-size="10.00">assign_dma_domain()</text>
<text text-anchor="start" x="105" y="-6.5" font-family="Helvetica,sans-Serif" font-size="10.00">+</text>
<text text-anchor="start" x="118" y="-6.5" font-family="Helvetica,sans-Serif" font-size="10.00">assign_dma_domain()</text>
<polygon fill="#666666" stroke="#666666" points="101,-91.5 101,-91.5 231,-91.5 231,-91.5 101,-91.5"/>
<polygon fill="#666666" stroke="#666666" points="101,-76.5 101,-76.5 231,-76.5 231,-76.5 101,-76.5"/>
<polygon fill="none" stroke="#666666" points="101,0 101,-109 231,-109 231,0 101,0"/>
</a>
</g>
</g>
<!-- Node7&#45;&gt;Node8 -->
<g id="edge8_Node000007_Node000008" class="edge">
<title>Node7&#45;&gt;Node8</title>
<g id="a_edge8_Node000007_Node000008"><a xlink:title=" ">
<path fill="none" stroke="#63b8ff" d="M166,-135.64C166,-126.89 166,-117.81 166,-109.03"/>
<polygon fill="none" stroke="#63b8ff" points="162.5,-135.71 166,-145.71 169.5,-135.71 162.5,-135.71"/>
</a>
</g>
</g>
</g>
</svg>
