<?xml version="1.0" encoding="UTF-8" standalone="no"?>
<!DOCTYPE svg PUBLIC "-//W3C//DTD SVG 1.1//EN"
 "http://www.w3.org/Graphics/SVG/1.1/DTD/svg11.dtd">
<!-- Generated by graphviz version 2.42.4 (0)
 -->
<!-- Title: cxx::Weak_ref_base Pages: 1 -->
<svg width="162pt" height="291pt"
 viewBox="0.00 0.00 162.00 291.00" xmlns="http://www.w3.org/2000/svg" xmlns:xlink="http://www.w3.org/1999/xlink">
<g id="graph0" class="graph" transform="scale(1 1) rotate(0) translate(4 287)">
<title>cxx::Weak_ref_base</title>
<!-- Node1 -->
<g id="Node000001" class="node">
<title>Node1</title>
<g id="a_Node000001"><a xlink:title="Generic (base) weak reference to some object.">
<polygon fill="#999999" stroke="transparent" points="108,-49 0,-49 0,0 108,0 108,-49"/>
<text text-anchor="start" x="5" y="-36.5" font-family="Helvetica,sans-Serif" font-size="10.00">cxx::Weak_ref_base</text>
<text text-anchor="start" x="52" y="-21.5" font-family="Helvetica,sans-Serif" font-size="10.00"> </text>
<text text-anchor="start" x="52" y="-6.5" font-family="Helvetica,sans-Serif" font-size="10.00"> </text>
<polygon fill="#666666" stroke="#666666" points="0,-31.5 0,-31.5 108,-31.5 108,-31.5 0,-31.5"/>
<polygon fill="#666666" stroke="#666666" points="0,-16.5 0,-16.5 108,-16.5 108,-16.5 0,-16.5"/>
<polygon fill="none" stroke="#666666" points="0,0 0,-49 108,-49 108,0 0,0"/>
</a>
</g>
</g>
<!-- Node2 -->
<g id="Node000002" class="node">
<title>Node2</title>
<g id="a_Node000002"><a xlink:href="classcxx_1_1H__list__item__t.html" target="_top" xlink:title=" ">
<polygon fill="white" stroke="transparent" points="107.5,-161 0.5,-161 0.5,-86 107.5,-86 107.5,-161"/>
<text text-anchor="start" x="6" y="-148.5" font-family="Helvetica,sans-Serif" font-size="10.00">cxx::H_list_item_t</text>
<text text-anchor="start" x="6" y="-137.5" font-family="Helvetica,sans-Serif" font-size="10.00">&lt; Weak_ref_base &gt;</text>
<text text-anchor="start" x="52.5" y="-122.5" font-family="Helvetica,sans-Serif" font-size="10.00"> </text>
<text text-anchor="start" x="6" y="-107.5" font-family="Helvetica,sans-Serif" font-size="10.00">+</text>
<text text-anchor="start" x="20" y="-107.5" font-family="Helvetica,sans-Serif" font-size="10.00">H_list_item_t()</text>
<text text-anchor="start" x="6" y="-92.5" font-family="Helvetica,sans-Serif" font-size="10.00">+</text>
<text text-anchor="start" x="20" y="-92.5" font-family="Helvetica,sans-Serif" font-size="10.00">~H_list_item_t()</text>
<polygon fill="#666666" stroke="#666666" points="1,-132.5 1,-132.5 108,-132.5 108,-132.5 1,-132.5"/>
<polygon fill="#666666" stroke="#666666" points="1,-117.5 1,-117.5 108,-117.5 108,-117.5 1,-117.5"/>
<polygon fill="none" stroke="#666666" points="0.5,-86 0.5,-161 107.5,-161 107.5,-86 0.5,-86"/>
</a>
</g>
</g>
<!-- Node2&#45;&gt;Node1 -->
<g id="edge1_Node000001_Node000002" class="edge">
<title>Node2&#45;&gt;Node1</title>
<g id="a_edge1_Node000001_Node000002"><a xlink:title=" ">
<path fill="none" stroke="#63b8ff" d="M54,-75.53C54,-66.32 54,-57.04 54,-49.01"/>
<polygon fill="none" stroke="#63b8ff" points="50.5,-75.83 54,-85.83 57.5,-75.83 50.5,-75.83"/>
</a>
</g>
</g>
<!-- Node3 -->
<g id="Node000003" class="node">
<title>Node3</title>
<g id="a_Node000003"><a xlink:href="classcxx_1_1H__list__item__t.html" target="_top" xlink:title="Basic element type for a double&#45;linked H_list.">
<polygon fill="white" stroke="transparent" points="105,-283 3,-283 3,-208 105,-208 105,-283"/>
<text text-anchor="start" x="10" y="-270.5" font-family="Helvetica,sans-Serif" font-size="10.00">cxx::H_list_item_t</text>
<text text-anchor="start" x="14.5" y="-259.5" font-family="Helvetica,sans-Serif" font-size="10.00">&lt; ELEM_TYPE &gt;</text>
<text text-anchor="start" x="52" y="-244.5" font-family="Helvetica,sans-Serif" font-size="10.00"> </text>
<text text-anchor="start" x="7" y="-229.5" font-family="Helvetica,sans-Serif" font-size="10.00">+</text>
<text text-anchor="start" x="20" y="-229.5" font-family="Helvetica,sans-Serif" font-size="10.00">H_list_item_t()</text>
<text text-anchor="start" x="7" y="-214.5" font-family="Helvetica,sans-Serif" font-size="10.00">+</text>
<text text-anchor="start" x="20" y="-214.5" font-family="Helvetica,sans-Serif" font-size="10.00">~H_list_item_t()</text>
<polygon fill="#666666" stroke="#666666" points="3,-254.5 3,-254.5 105,-254.5 105,-254.5 3,-254.5"/>
<polygon fill="#666666" stroke="#666666" points="3,-239.5 3,-239.5 105,-239.5 105,-239.5 3,-239.5"/>
<polygon fill="none" stroke="#666666" points="3,-208 3,-283 105,-283 105,-208 3,-208"/>
</a>
</g>
</g>
<!-- Node3&#45;&gt;Node2 -->
<g id="edge2_Node000002_Node000003" class="edge">
<title>Node3&#45;&gt;Node2</title>
<g id="a_edge2_Node000002_Node000003"><a xlink:title=" ">
<path fill="none" stroke="orange" d="M54,-197.53C54,-185.51 54,-172.77 54,-161.35"/>
<polygon fill="orange" stroke="orange" points="50.5,-197.84 54,-207.84 57.5,-197.84 50.5,-197.84"/>
</a>
</g>
<text text-anchor="middle" x="104" y="-182" font-family="Helvetica,sans-Serif" font-size="10.00" fill="grey"> &lt; Weak_ref_base &gt;</text>
</g>
</g>
</svg>
