<?xml version="1.0" encoding="UTF-8" standalone="no"?>
<!DOCTYPE svg PUBLIC "-//W3C//DTD SVG 1.1//EN"
 "http://www.w3.org/Graphics/SVG/1.1/DTD/svg11.dtd">
<!-- Generated by graphviz version 2.42.4 (0)
 -->
<!-- Title: L4::Ipc::Gen_fpage Pages: 1 -->
<svg width="224pt" height="232pt"
 viewBox="0.00 0.00 224.00 232.00" xmlns="http://www.w3.org/2000/svg" xmlns:xlink="http://www.w3.org/1999/xlink">
<g id="graph0" class="graph" transform="scale(1 1) rotate(0) translate(4 228)">
<title>L4::Ipc::Gen_fpage</title>
<!-- Node1 -->
<g id="Node000001" class="node">
<title>Node1</title>
<g id="a_Node000001"><a xlink:title="Generic RPC base for L4 flex&#45;pages.">
<polygon fill="#999999" stroke="transparent" points="164.5,-224 50.5,-224 50.5,-85 164.5,-85 164.5,-224"/>
<text text-anchor="start" x="62" y="-211.5" font-family="Helvetica,sans-Serif" font-size="10.00">L4::Ipc::Gen_fpage</text>
<text text-anchor="start" x="105.5" y="-196.5" font-family="Helvetica,sans-Serif" font-size="10.00"> </text>
<text text-anchor="start" x="54.5" y="-181.5" font-family="Helvetica,sans-Serif" font-size="10.00">+</text>
<text text-anchor="start" x="67.5" y="-181.5" font-family="Helvetica,sans-Serif" font-size="10.00">is_valid()</text>
<text text-anchor="start" x="54.5" y="-166.5" font-family="Helvetica,sans-Serif" font-size="10.00">+</text>
<text text-anchor="start" x="67.5" y="-166.5" font-family="Helvetica,sans-Serif" font-size="10.00">cap_received()</text>
<text text-anchor="start" x="54.5" y="-151.5" font-family="Helvetica,sans-Serif" font-size="10.00">+</text>
<text text-anchor="start" x="67.5" y="-151.5" font-family="Helvetica,sans-Serif" font-size="10.00">id_received()</text>
<text text-anchor="start" x="54.5" y="-136.5" font-family="Helvetica,sans-Serif" font-size="10.00">+</text>
<text text-anchor="start" x="67.5" y="-136.5" font-family="Helvetica,sans-Serif" font-size="10.00">local_id_received()</text>
<text text-anchor="start" x="54.5" y="-121.5" font-family="Helvetica,sans-Serif" font-size="10.00">+</text>
<text text-anchor="start" x="67.5" y="-121.5" font-family="Helvetica,sans-Serif" font-size="10.00">is_compound()</text>
<text text-anchor="start" x="54.5" y="-106.5" font-family="Helvetica,sans-Serif" font-size="10.00">+</text>
<text text-anchor="start" x="67.5" y="-106.5" font-family="Helvetica,sans-Serif" font-size="10.00">data()</text>
<text text-anchor="start" x="54.5" y="-91.5" font-family="Helvetica,sans-Serif" font-size="10.00">+</text>
<text text-anchor="start" x="67.5" y="-91.5" font-family="Helvetica,sans-Serif" font-size="10.00">base_x()</text>
<polygon fill="#666666" stroke="#666666" points="50.5,-206.5 50.5,-206.5 164.5,-206.5 164.5,-206.5 50.5,-206.5"/>
<polygon fill="#666666" stroke="#666666" points="50.5,-191.5 50.5,-191.5 164.5,-191.5 164.5,-191.5 50.5,-191.5"/>
<polygon fill="none" stroke="#666666" points="50.5,-85 50.5,-224 164.5,-224 164.5,-85 50.5,-85"/>
</a>
</g>
</g>
<!-- Node2 -->
<g id="Node000002" class="node">
<title>Node2</title>
<g id="a_Node000002"><a xlink:href="classL4_1_1Ipc_1_1Rcv__fpage.html" target="_top" xlink:title="Rcv flex&#45;page.">
<polygon fill="white" stroke="transparent" points="99,-49 0,-49 0,0 99,0 99,-49"/>
<text text-anchor="start" x="5.5" y="-36.5" font-family="Helvetica,sans-Serif" font-size="10.00">L4::Ipc::Rcv_fpage</text>
<text text-anchor="start" x="48" y="-21.5" font-family="Helvetica,sans-Serif" font-size="10.00"> </text>
<text text-anchor="start" x="48" y="-6.5" font-family="Helvetica,sans-Serif" font-size="10.00"> </text>
<polygon fill="#666666" stroke="#666666" points="0.5,-31.5 0.5,-31.5 99.5,-31.5 99.5,-31.5 0.5,-31.5"/>
<polygon fill="#666666" stroke="#666666" points="0.5,-16.5 0.5,-16.5 99.5,-16.5 99.5,-16.5 0.5,-16.5"/>
<polygon fill="none" stroke="#666666" points="0,0 0,-49 99,-49 99,0 0,0"/>
</a>
</g>
</g>
<!-- Node1&#45;&gt;Node2 -->
<g id="edge1_Node000001_Node000002" class="edge">
<title>Node1&#45;&gt;Node2</title>
<g id="a_edge1_Node000001_Node000002"><a xlink:title=" ">
<path fill="none" stroke="#63b8ff" d="M72.12,-75.42C67.81,-65.92 63.71,-56.86 60.2,-49.12"/>
<polygon fill="none" stroke="#63b8ff" points="68.98,-76.97 76.29,-84.63 75.35,-74.08 68.98,-76.97"/>
</a>
</g>
</g>
<!-- Node3 -->
<g id="Node000003" class="node">
<title>Node3</title>
<g id="a_Node000003"><a xlink:href="classL4_1_1Ipc_1_1Snd__fpage.html" target="_top" xlink:title="Send flex&#45;page.">
<polygon fill="white" stroke="transparent" points="216,-49 117,-49 117,0 216,0 216,-49"/>
<text text-anchor="start" x="122.5" y="-36.5" font-family="Helvetica,sans-Serif" font-size="10.00">L4::Ipc::Snd_fpage</text>
<text text-anchor="start" x="165" y="-21.5" font-family="Helvetica,sans-Serif" font-size="10.00"> </text>
<text text-anchor="start" x="165" y="-6.5" font-family="Helvetica,sans-Serif" font-size="10.00"> </text>
<polygon fill="#666666" stroke="#666666" points="117.5,-31.5 117.5,-31.5 216.5,-31.5 216.5,-31.5 117.5,-31.5"/>
<polygon fill="#666666" stroke="#666666" points="117.5,-16.5 117.5,-16.5 216.5,-16.5 216.5,-16.5 117.5,-16.5"/>
<polygon fill="none" stroke="#666666" points="117,0 117,-49 216,-49 216,0 117,0"/>
</a>
</g>
</g>
<!-- Node1&#45;&gt;Node3 -->
<g id="edge2_Node000001_Node000003" class="edge">
<title>Node1&#45;&gt;Node3</title>
<g id="a_edge2_Node000001_Node000003"><a xlink:title=" ">
<path fill="none" stroke="#63b8ff" d="M143.49,-75.42C147.87,-65.92 152.05,-56.86 155.61,-49.12"/>
<polygon fill="none" stroke="#63b8ff" points="140.25,-74.08 139.25,-84.63 146.61,-77.01 140.25,-74.08"/>
</a>
</g>
</g>
</g>
</svg>
