<?xml version="1.0" encoding="UTF-8" standalone="no"?>
<!DOCTYPE svg PUBLIC "-//W3C//DTD SVG 1.1//EN"
 "http://www.w3.org/Graphics/SVG/1.1/DTD/svg11.dtd">
<!-- Generated by graphviz version 2.43.0 (0)
 -->
<!-- Title: L4virtio::Svr::Virtqueue::desc Pages: 1 -->
<svg width="450pt" height="86pt"
 viewBox="0.00 0.00 450.00 86.00" xmlns="http://www.w3.org/2000/svg" xmlns:xlink="http://www.w3.org/1999/xlink">
<g id="graph0" class="graph" transform="scale(1 1) rotate(0) translate(4 82)">
<title>L4virtio::Svr::Virtqueue::desc</title>
<!-- Node1 -->
<g id="Node000001" class="node">
<title>Node1</title>
<g id="a_Node000001"><a xlink:title="Get a descriptor from the descriptor list.">
<polygon fill="#999999" stroke="#666666" points="442,-54 314,-54 314,-24 442,-24 442,-54"/>
<text text-anchor="start" x="322" y="-42" font-family="Helvetica,sans-Serif" font-size="10.00">L4virtio::Svr::Virtqueue</text>
<text text-anchor="middle" x="378" y="-31" font-family="Helvetica,sans-Serif" font-size="10.00">::desc</text>
</a>
</g>
</g>
<!-- Node2 -->
<g id="Node000002" class="node">
<title>Node2</title>
<g id="a_Node000002"><a xlink:href="classL4virtio_1_1Svr_1_1Request__processor.html#abcf6a6b8bf80e0d73d45b5eb9e817abd" target="_top" xlink:title="Start processing a new request.">
<polygon fill="white" stroke="#666666" points="278,-54 157,-54 157,-24 278,-24 278,-54"/>
<text text-anchor="start" x="165" y="-42" font-family="Helvetica,sans-Serif" font-size="10.00">L4virtio::Svr::Request</text>
<text text-anchor="middle" x="217.5" y="-31" font-family="Helvetica,sans-Serif" font-size="10.00">_processor::start</text>
</a>
</g>
</g>
<!-- Node1&#45;&gt;Node2 -->
<g id="edge1_Node000001_Node000002" class="edge">
<title>Node1&#45;&gt;Node2</title>
<g id="a_edge1_Node000001_Node000002"><a xlink:title=" ">
<path fill="none" stroke="#63b8ff" d="M303.83,-39C295.19,-39 286.45,-39 278.03,-39"/>
<polygon fill="#63b8ff" stroke="#63b8ff" points="303.9,-42.5 313.9,-39 303.9,-35.5 303.9,-42.5"/>
</a>
</g>
</g>
<!-- Node3 -->
<g id="Node000003" class="node">
<title>Node3</title>
<g id="a_Node000003"><a xlink:href="classL4virtio_1_1Svr_1_1Block__request.html#a5f6bf664cda7dfe4f82d8726f6c33099" target="_top" xlink:title="Compute the total size of the data in the request.">
<polygon fill="white" stroke="#666666" points="116,-78 5,-78 5,-48 116,-48 116,-78"/>
<text text-anchor="start" x="13" y="-66" font-family="Helvetica,sans-Serif" font-size="10.00">L4virtio::Svr::Block</text>
<text text-anchor="middle" x="60.5" y="-55" font-family="Helvetica,sans-Serif" font-size="10.00">_request::data_size</text>
</a>
</g>
</g>
<!-- Node2&#45;&gt;Node3 -->
<g id="edge2_Node000002_Node000003" class="edge">
<title>Node2&#45;&gt;Node3</title>
<g id="a_edge2_Node000002_Node000003"><a xlink:title=" ">
<path fill="none" stroke="#63b8ff" d="M146.5,-49.84C136.33,-51.41 126,-53.01 116.2,-54.53"/>
<polygon fill="#63b8ff" stroke="#63b8ff" points="147.23,-53.27 156.57,-48.28 146.16,-46.35 147.23,-53.27"/>
</a>
</g>
</g>
<!-- Node4 -->
<g id="Node000004" class="node">
<title>Node4</title>
<g id="a_Node000004"><a xlink:href="classL4virtio_1_1Svr_1_1Request__processor.html#a76dec7903350c50fe5ce0b8f7129f9bd" target="_top" xlink:title="Start processing a new request.">
<polygon fill="white" stroke="#666666" points="121,-30 0,-30 0,0 121,0 121,-30"/>
<text text-anchor="start" x="8" y="-18" font-family="Helvetica,sans-Serif" font-size="10.00">L4virtio::Svr::Request</text>
<text text-anchor="middle" x="60.5" y="-7" font-family="Helvetica,sans-Serif" font-size="10.00">_processor::start</text>
</a>
</g>
</g>
<!-- Node2&#45;&gt;Node4 -->
<g id="edge3_Node000002_Node000004" class="edge">
<title>Node2&#45;&gt;Node4</title>
<g id="a_edge3_Node000002_Node000004"><a xlink:title=" ">
<path fill="none" stroke="#63b8ff" d="M146.62,-28.18C138.07,-26.86 129.39,-25.51 121.01,-24.21"/>
<polygon fill="#63b8ff" stroke="#63b8ff" points="146.16,-31.65 156.57,-29.72 147.23,-24.73 146.16,-31.65"/>
</a>
</g>
</g>
</g>
</svg>
