<?xml version="1.0" encoding="UTF-8" standalone="no"?>
<!DOCTYPE svg PUBLIC "-//W3C//DTD SVG 1.1//EN"
 "http://www.w3.org/Graphics/SVG/1.1/DTD/svg11.dtd">
<!-- Generated by graphviz version 2.43.0 (0)
 -->
<!-- Title: L4::Ipc::Istream::tag Pages: 1 -->
<svg width="278pt" height="150pt"
 viewBox="0.00 0.00 278.00 150.00" xmlns="http://www.w3.org/2000/svg" xmlns:xlink="http://www.w3.org/1999/xlink">
<g id="graph0" class="graph" transform="scale(1 1) rotate(0) translate(4 146)">
<title>L4::Ipc::Istream::tag</title>
<!-- Node1 -->
<g id="Node000001" class="node">
<title>Node1</title>
<g id="a_Node000001"><a xlink:title="Get the message tag of a received IPC.">
<polygon fill="#999999" stroke="#666666" points="270,-83 157,-83 157,-64 270,-64 270,-83"/>
<text text-anchor="middle" x="213.5" y="-71" font-family="Helvetica,sans-Serif" font-size="10.00">L4::Ipc::Istream::tag</text>
</a>
</g>
</g>
<!-- Node2 -->
<g id="Node000002" class="node">
<title>Node2</title>
<g id="a_Node000002"><a xlink:href="classL4_1_1Ipc_1_1Iostream.html#a18ac55dddefc29f84d47935dbc86b7ca" target="_top" xlink:title="Do an IPC call using the message in the output stream and receive the reply in the input stream.">
<polygon fill="white" stroke="#666666" points="121,-142 0,-142 0,-123 121,-123 121,-142"/>
<text text-anchor="middle" x="60.5" y="-130" font-family="Helvetica,sans-Serif" font-size="10.00">L4::Ipc::Iostream::call</text>
</a>
</g>
</g>
<!-- Node1&#45;&gt;Node2 -->
<g id="edge1_Node000001_Node000002" class="edge">
<title>Node1&#45;&gt;Node2</title>
<g id="a_edge1_Node000001_Node000002"><a xlink:title=" ">
<path fill="none" stroke="#63b8ff" d="M183.89,-87.45C166.04,-95.87 142.46,-106.48 121,-114.5 112.91,-117.52 104.07,-120.41 95.73,-122.96"/>
<polygon fill="#63b8ff" stroke="#63b8ff" points="185.65,-90.49 193.17,-83.03 182.63,-84.17 185.65,-90.49"/>
</a>
</g>
</g>
<!-- Node3 -->
<g id="Node000003" class="node">
<title>Node3</title>
<g id="a_Node000003"><a xlink:href="ipc__stream.html#a6504e271fab6d63fc78f0eeb512316bd" target="_top" xlink:title="Extract the L4 message tag from the stream s.">
<polygon fill="white" stroke="#666666" points="97.5,-105 23.5,-105 23.5,-86 97.5,-86 97.5,-105"/>
<text text-anchor="middle" x="60.5" y="-93" font-family="Helvetica,sans-Serif" font-size="10.00">operator&gt;&gt;</text>
</a>
</g>
</g>
<!-- Node1&#45;&gt;Node3 -->
<g id="edge2_Node000001_Node000003" class="edge">
<title>Node1&#45;&gt;Node3</title>
<g id="a_edge2_Node000001_Node000003"><a xlink:title=" ">
<path fill="none" stroke="#63b8ff" d="M146.43,-83.13C129.74,-85.56 112.44,-88.08 97.83,-90.21"/>
<polygon fill="#63b8ff" stroke="#63b8ff" points="147.31,-86.53 156.7,-81.63 146.3,-79.61 147.31,-86.53"/>
</a>
</g>
</g>
<!-- Node4 -->
<g id="Node000004" class="node">
<title>Node4</title>
<g id="a_Node000004"><a xlink:href="classL4_1_1Ipc_1_1Iostream.html#a38428e61e86208016e9653937da01f6d" target="_top" xlink:title="Do an IPC reply and wait.">
<polygon fill="white" stroke="#666666" points="112.5,-67.5 8.5,-67.5 8.5,-37.5 112.5,-37.5 112.5,-67.5"/>
<text text-anchor="start" x="16.5" y="-55.5" font-family="Helvetica,sans-Serif" font-size="10.00">L4::Ipc::Iostream::</text>
<text text-anchor="middle" x="60.5" y="-44.5" font-family="Helvetica,sans-Serif" font-size="10.00">reply_and_wait</text>
</a>
</g>
</g>
<!-- Node1&#45;&gt;Node4 -->
<g id="edge3_Node000001_Node000004" class="edge">
<title>Node1&#45;&gt;Node4</title>
<g id="a_edge3_Node000001_Node000004"><a xlink:title=" ">
<path fill="none" stroke="#63b8ff" d="M146.75,-64.36C135.3,-62.76 123.55,-61.13 112.57,-59.6"/>
<polygon fill="#63b8ff" stroke="#63b8ff" points="146.32,-67.83 156.7,-65.74 147.28,-60.9 146.32,-67.83"/>
</a>
</g>
</g>
<!-- Node5 -->
<g id="Node000005" class="node">
<title>Node5</title>
<g id="a_Node000005"><a xlink:href="classL4_1_1Ipc_1_1Istream.html#aeefe739d106daa026a1d94ade34f1d97" target="_top" xlink:title="Wait for an incoming message from any sender.">
<polygon fill="white" stroke="#666666" points="120,-19 1,-19 1,0 120,0 120,-19"/>
<text text-anchor="middle" x="60.5" y="-7" font-family="Helvetica,sans-Serif" font-size="10.00">L4::Ipc::Istream::wait</text>
</a>
</g>
</g>
<!-- Node1&#45;&gt;Node5 -->
<g id="edge4_Node000001_Node000005" class="edge">
<title>Node1&#45;&gt;Node5</title>
<g id="a_edge4_Node000001_Node000005"><a xlink:title=" ">
<path fill="none" stroke="#63b8ff" d="M185.69,-59.01C167.7,-49.61 143.3,-37.49 121,-28.5 112.55,-25.1 103.24,-21.88 94.54,-19.09"/>
<polygon fill="#63b8ff" stroke="#63b8ff" points="184.49,-62.33 194.97,-63.91 187.77,-56.14 184.49,-62.33"/>
</a>
</g>
</g>
</g>
</svg>
