<?xml version="1.0" encoding="UTF-8" standalone="no"?>
<!DOCTYPE svg PUBLIC "-//W3C//DTD SVG 1.1//EN"
 "http://www.w3.org/Graphics/SVG/1.1/DTD/svg11.dtd">
<!-- Generated by graphviz version 2.43.0 (0)
 -->
<!-- Title: L4Re::Util::Object_registry::unregister_obj Pages: 1 -->
<svg width="305pt" height="113pt"
 viewBox="0.00 0.00 305.00 112.50" xmlns="http://www.w3.org/2000/svg" xmlns:xlink="http://www.w3.org/1999/xlink">
<g id="graph0" class="graph" transform="scale(1 1) rotate(0) translate(4 108.5)">
<title>L4Re::Util::Object_registry::unregister_obj</title>
<!-- Node1 -->
<g id="Node000001" class="node">
<title>Node1</title>
<g id="a_Node000001"><a xlink:title="Remove a server object from the handler list.">
<polygon fill="#999999" stroke="#666666" points="134,-61.5 0,-61.5 0,-31.5 134,-31.5 134,-61.5"/>
<text text-anchor="start" x="8" y="-49.5" font-family="Helvetica,sans-Serif" font-size="10.00">L4Re::Util::Object</text>
<text text-anchor="middle" x="67" y="-38.5" font-family="Helvetica,sans-Serif" font-size="10.00">_registry::unregister_obj</text>
</a>
</g>
</g>
<!-- Node2 -->
<g id="Node000002" class="node">
<title>Node2</title>
<g id="a_Node000002"><a xlink:href="classL4_1_1Thread_1_1Modify__senders.html#ae36dad061d7d4ef1469780b4c74ce7de" target="_top" xlink:title="Add a rule.">
<polygon fill="white" stroke="#666666" points="287,-104.5 180,-104.5 180,-74.5 287,-74.5 287,-104.5"/>
<text text-anchor="start" x="188" y="-92.5" font-family="Helvetica,sans-Serif" font-size="10.00">L4::Thread::Modify</text>
<text text-anchor="middle" x="233.5" y="-81.5" font-family="Helvetica,sans-Serif" font-size="10.00">_senders::add</text>
</a>
</g>
</g>
<!-- Node1&#45;&gt;Node2 -->
<g id="edge1_Node000001_Node000002" class="edge">
<title>Node1&#45;&gt;Node2</title>
<g id="a_edge1_Node000001_Node000002"><a xlink:title=" ">
<path fill="none" stroke="#63b8ff" d="M125.53,-61.54C139.91,-65.3 155.4,-69.35 170.01,-73.16"/>
<polygon fill="#63b8ff" stroke="#63b8ff" points="169.39,-76.62 179.95,-75.76 171.16,-69.85 169.39,-76.62"/>
</a>
</g>
</g>
<!-- Node3 -->
<g id="Node000003" class="node">
<title>Node3</title>
<g id="a_Node000003"><a xlink:href="structL4_1_1Epiface.html#a0d454b9446bdf9e317b09574a5155fe0" target="_top" xlink:title="Get the capability to the kernel object belonging to this object.">
<polygon fill="white" stroke="#666666" points="290,-56 177,-56 177,-37 290,-37 290,-56"/>
<text text-anchor="middle" x="233.5" y="-44" font-family="Helvetica,sans-Serif" font-size="10.00">L4::Epiface::obj_cap</text>
</a>
</g>
</g>
<!-- Node1&#45;&gt;Node3 -->
<g id="edge2_Node000001_Node000003" class="edge">
<title>Node1&#45;&gt;Node3</title>
<g id="a_edge2_Node000001_Node000003"><a xlink:title=" ">
<path fill="none" stroke="#63b8ff" d="M134.43,-46.5C145.11,-46.5 156.16,-46.5 166.82,-46.5"/>
<polygon fill="#63b8ff" stroke="#63b8ff" points="166.89,-50 176.89,-46.5 166.89,-43 166.89,-50"/>
</a>
</g>
</g>
<!-- Node4 -->
<g id="Node000004" class="node">
<title>Node4</title>
<g id="a_Node000004"><a xlink:href="structL4_1_1Epiface.html#af47d6b2877fa4a09e04140a6644631aa" target="_top" xlink:title="Set server registration info for the object.">
<polygon fill="white" stroke="#666666" points="297,-19 170,-19 170,0 297,0 297,-19"/>
<text text-anchor="middle" x="233.5" y="-7" font-family="Helvetica,sans-Serif" font-size="10.00">L4::Epiface::set_server</text>
</a>
</g>
</g>
<!-- Node1&#45;&gt;Node4 -->
<g id="edge3_Node000001_Node000004" class="edge">
<title>Node1&#45;&gt;Node4</title>
<g id="a_edge3_Node000001_Node000004"><a xlink:title=" ">
<path fill="none" stroke="#63b8ff" d="M134.43,-31.56C149.65,-28.14 165.61,-24.54 180.14,-21.28"/>
<polygon fill="#63b8ff" stroke="#63b8ff" points="180.95,-24.68 189.94,-19.07 179.41,-17.85 180.95,-24.68"/>
</a>
</g>
</g>
</g>
</svg>
