<?xml version="1.0" encoding="UTF-8" standalone="no"?>
<!DOCTYPE svg PUBLIC "-//W3C//DTD SVG 1.1//EN"
 "http://www.w3.org/Graphics/SVG/1.1/DTD/svg11.dtd">
<!-- Generated by graphviz version 2.42.4 (0)
 -->
<!-- Title: L4::Ipc::Cap&lt; T &gt; Pages: 1 -->
<svg width="103pt" height="192pt"
 viewBox="0.00 0.00 103.00 192.00" xmlns="http://www.w3.org/2000/svg" xmlns:xlink="http://www.w3.org/1999/xlink">
<g id="graph0" class="graph" transform="scale(1 1) rotate(0) translate(4 188)">
<title>L4::Ipc::Cap&lt; T &gt;</title>
<!-- Node1 -->
<g id="Node000001" class="node">
<title>Node1</title>
<g id="a_Node000001"><a xlink:title="Capability type for RPC interfaces (see L4::Cap&lt;T&gt;).">
<polygon fill="#999999" stroke="transparent" points="95,-184 0,-184 0,0 95,0 95,-184"/>
<text text-anchor="start" x="5.5" y="-172" font-family="Helvetica,sans-Serif" font-size="10.00">L4::Ipc::Cap&lt; T &gt;</text>
<text text-anchor="start" x="46" y="-157" font-family="Helvetica,sans-Serif" font-size="10.00"> </text>
<text text-anchor="start" x="11.5" y="-142" font-family="Helvetica,sans-Serif" font-size="10.00">+</text>
<text text-anchor="start" x="31.5" y="-142" font-family="Helvetica,sans-Serif" font-size="10.00">Cap()</text>
<text text-anchor="start" x="11.5" y="-127" font-family="Helvetica,sans-Serif" font-size="10.00">+</text>
<text text-anchor="start" x="31.5" y="-127" font-family="Helvetica,sans-Serif" font-size="10.00">Cap()</text>
<text text-anchor="start" x="11.5" y="-112" font-family="Helvetica,sans-Serif" font-size="10.00">+</text>
<text text-anchor="start" x="31.5" y="-112" font-family="Helvetica,sans-Serif" font-size="10.00">Cap()</text>
<text text-anchor="start" x="11.5" y="-97" font-family="Helvetica,sans-Serif" font-size="10.00">+</text>
<text text-anchor="start" x="31.5" y="-97" font-family="Helvetica,sans-Serif" font-size="10.00">Cap()</text>
<text text-anchor="start" x="11.5" y="-82" font-family="Helvetica,sans-Serif" font-size="10.00">+</text>
<text text-anchor="start" x="31.5" y="-82" font-family="Helvetica,sans-Serif" font-size="10.00">Cap()</text>
<text text-anchor="start" x="11.5" y="-67" font-family="Helvetica,sans-Serif" font-size="10.00">+</text>
<text text-anchor="start" x="31.5" y="-67" font-family="Helvetica,sans-Serif" font-size="10.00">cap()</text>
<text text-anchor="start" x="11.5" y="-52" font-family="Helvetica,sans-Serif" font-size="10.00">+</text>
<text text-anchor="start" x="31.5" y="-52" font-family="Helvetica,sans-Serif" font-size="10.00">rights()</text>
<text text-anchor="start" x="11.5" y="-37" font-family="Helvetica,sans-Serif" font-size="10.00">+</text>
<text text-anchor="start" x="31.5" y="-37" font-family="Helvetica,sans-Serif" font-size="10.00">fpage()</text>
<text text-anchor="start" x="11.5" y="-22" font-family="Helvetica,sans-Serif" font-size="10.00">+</text>
<text text-anchor="start" x="31.5" y="-22" font-family="Helvetica,sans-Serif" font-size="10.00">is_valid()</text>
<text text-anchor="start" x="11.5" y="-7" font-family="Helvetica,sans-Serif" font-size="10.00">+</text>
<text text-anchor="start" x="31.5" y="-7" font-family="Helvetica,sans-Serif" font-size="10.00">from_ci()</text>
<polygon fill="#666666" stroke="#666666" points="0.5,-167 0.5,-167 95.5,-167 95.5,-167 0.5,-167"/>
<polygon fill="#666666" stroke="#666666" points="0.5,-152 0.5,-152 95.5,-152 95.5,-152 0.5,-152"/>
<polygon fill="none" stroke="#666666" points="0,0 0,-184 95,-184 95,0 0,0"/>
</a>
</g>
</g>
</g>
</svg>
