<?xml version="1.0" encoding="UTF-8" standalone="no"?>
<!DOCTYPE svg PUBLIC "-//W3C//DTD SVG 1.1//EN"
 "http://www.w3.org/Graphics/SVG/1.1/DTD/svg11.dtd">
<!-- Generated by graphviz version 2.42.4 (0)
 -->
<!-- Title: L4::Ipc::Snd_fpage Pages: 1 -->
<svg width="122pt" height="232pt"
 viewBox="0.00 0.00 122.00 232.00" xmlns="http://www.w3.org/2000/svg" xmlns:xlink="http://www.w3.org/1999/xlink">
<g id="graph0" class="graph" transform="scale(1 1) rotate(0) translate(4 228)">
<title>L4::Ipc::Snd_fpage</title>
<!-- Node1 -->
<g id="Node000001" class="node">
<title>Node1</title>
<g id="a_Node000001"><a xlink:title="Send flex&#45;page.">
<polygon fill="#999999" stroke="transparent" points="106.5,-49 7.5,-49 7.5,0 106.5,0 106.5,-49"/>
<text text-anchor="start" x="13" y="-36.5" font-family="Helvetica,sans-Serif" font-size="10.00">L4::Ipc::Snd_fpage</text>
<text text-anchor="start" x="55.5" y="-21.5" font-family="Helvetica,sans-Serif" font-size="10.00"> </text>
<text text-anchor="start" x="55.5" y="-6.5" font-family="Helvetica,sans-Serif" font-size="10.00"> </text>
<polygon fill="#666666" stroke="#666666" points="8,-31.5 8,-31.5 107,-31.5 107,-31.5 8,-31.5"/>
<polygon fill="#666666" stroke="#666666" points="8,-16.5 8,-16.5 107,-16.5 107,-16.5 8,-16.5"/>
<polygon fill="none" stroke="#666666" points="7.5,0 7.5,-49 106.5,-49 106.5,0 7.5,0"/>
</a>
</g>
</g>
<!-- Node2 -->
<g id="Node000002" class="node">
<title>Node2</title>
<g id="a_Node000002"><a xlink:href="classL4_1_1Ipc_1_1Gen__fpage.html" target="_top" xlink:title="Generic RPC base for L4 flex&#45;pages.">
<polygon fill="white" stroke="transparent" points="114,-224 0,-224 0,-85 114,-85 114,-224"/>
<text text-anchor="start" x="11.5" y="-211.5" font-family="Helvetica,sans-Serif" font-size="10.00">L4::Ipc::Gen_fpage</text>
<text text-anchor="start" x="55" y="-196.5" font-family="Helvetica,sans-Serif" font-size="10.00"> </text>
<text text-anchor="start" x="4" y="-181.5" font-family="Helvetica,sans-Serif" font-size="10.00">+</text>
<text text-anchor="start" x="17" y="-181.5" font-family="Helvetica,sans-Serif" font-size="10.00">is_valid()</text>
<text text-anchor="start" x="4" y="-166.5" font-family="Helvetica,sans-Serif" font-size="10.00">+</text>
<text text-anchor="start" x="17" y="-166.5" font-family="Helvetica,sans-Serif" font-size="10.00">cap_received()</text>
<text text-anchor="start" x="4" y="-151.5" font-family="Helvetica,sans-Serif" font-size="10.00">+</text>
<text text-anchor="start" x="17" y="-151.5" font-family="Helvetica,sans-Serif" font-size="10.00">id_received()</text>
<text text-anchor="start" x="4" y="-136.5" font-family="Helvetica,sans-Serif" font-size="10.00">+</text>
<text text-anchor="start" x="17" y="-136.5" font-family="Helvetica,sans-Serif" font-size="10.00">local_id_received()</text>
<text text-anchor="start" x="4" y="-121.5" font-family="Helvetica,sans-Serif" font-size="10.00">+</text>
<text text-anchor="start" x="17" y="-121.5" font-family="Helvetica,sans-Serif" font-size="10.00">is_compound()</text>
<text text-anchor="start" x="4" y="-106.5" font-family="Helvetica,sans-Serif" font-size="10.00">+</text>
<text text-anchor="start" x="17" y="-106.5" font-family="Helvetica,sans-Serif" font-size="10.00">data()</text>
<text text-anchor="start" x="4" y="-91.5" font-family="Helvetica,sans-Serif" font-size="10.00">+</text>
<text text-anchor="start" x="17" y="-91.5" font-family="Helvetica,sans-Serif" font-size="10.00">base_x()</text>
<polygon fill="#666666" stroke="#666666" points="0,-206.5 0,-206.5 114,-206.5 114,-206.5 0,-206.5"/>
<polygon fill="#666666" stroke="#666666" points="0,-191.5 0,-191.5 114,-191.5 114,-191.5 0,-191.5"/>
<polygon fill="none" stroke="#666666" points="0,-85 0,-224 114,-224 114,-85 0,-85"/>
</a>
</g>
</g>
<!-- Node2&#45;&gt;Node1 -->
<g id="edge1_Node000001_Node000002" class="edge">
<title>Node2&#45;&gt;Node1</title>
<g id="a_edge1_Node000001_Node000002"><a xlink:title=" ">
<path fill="none" stroke="#63b8ff" d="M57,-74.54C57,-65.36 57,-56.62 57,-49.12"/>
<polygon fill="none" stroke="#63b8ff" points="53.5,-74.63 57,-84.63 60.5,-74.63 53.5,-74.63"/>
</a>
</g>
</g>
</g>
</svg>
