<?xml version="1.0" encoding="UTF-8" standalone="no"?>
<!DOCTYPE svg PUBLIC "-//W3C//DTD SVG 1.1//EN"
 "http://www.w3.org/Graphics/SVG/1.1/DTD/svg11.dtd">
<!-- Generated by graphviz version 2.43.0 (0)
 -->
<!-- Title: L4drivers::Register_tmpl&lt; BITS, BLOCK &gt; Pages: 1 -->
<svg width="135pt" height="239pt"
 viewBox="0.00 0.00 135.00 239.00" xmlns="http://www.w3.org/2000/svg" xmlns:xlink="http://www.w3.org/1999/xlink">
<g id="graph0" class="graph" transform="scale(1 1) rotate(0) translate(4 235)">
<title>L4drivers::Register_tmpl&lt; BITS, BLOCK &gt;</title>
<!-- Node1 -->
<g id="Node000001" class="node">
<title>Node1</title>
<g id="a_Node000001"><a xlink:title="Single hardware register inside a Register_block_base interface.">
<polygon fill="#999999" stroke="transparent" points="124.5,-120 2.5,-120 2.5,0 124.5,0 124.5,-120"/>
<text text-anchor="start" x="7.5" y="-108" font-family="Helvetica,sans-Serif" font-size="10.00">L4drivers::Register</text>
<text text-anchor="start" x="7.5" y="-97" font-family="Helvetica,sans-Serif" font-size="10.00">_tmpl&lt; BITS, BLOCK &gt;</text>
<text text-anchor="start" x="61.5" y="-82" font-family="Helvetica,sans-Serif" font-size="10.00"> </text>
<text text-anchor="start" x="17" y="-67" font-family="Helvetica,sans-Serif" font-size="10.00">+</text>
<text text-anchor="start" x="40.5" y="-67" font-family="Helvetica,sans-Serif" font-size="10.00">operator=()</text>
<text text-anchor="start" x="17" y="-52" font-family="Helvetica,sans-Serif" font-size="10.00">+</text>
<text text-anchor="start" x="40.5" y="-52" font-family="Helvetica,sans-Serif" font-size="10.00">write()</text>
<text text-anchor="start" x="17" y="-37" font-family="Helvetica,sans-Serif" font-size="10.00">+</text>
<text text-anchor="start" x="40.5" y="-37" font-family="Helvetica,sans-Serif" font-size="10.00">set()</text>
<text text-anchor="start" x="17" y="-22" font-family="Helvetica,sans-Serif" font-size="10.00">+</text>
<text text-anchor="start" x="40.5" y="-22" font-family="Helvetica,sans-Serif" font-size="10.00">clear()</text>
<text text-anchor="start" x="17" y="-7" font-family="Helvetica,sans-Serif" font-size="10.00">+</text>
<text text-anchor="start" x="40.5" y="-7" font-family="Helvetica,sans-Serif" font-size="10.00">modify()</text>
<polygon fill="#666666" stroke="#666666" points="2.5,-92 2.5,-92 124.5,-92 124.5,-92 2.5,-92"/>
<polygon fill="#666666" stroke="#666666" points="2.5,-77 2.5,-77 124.5,-77 124.5,-77 2.5,-77"/>
<polygon fill="none" stroke="#666666" points="2.5,0 2.5,-120 124.5,-120 124.5,0 2.5,0"/>
</a>
</g>
</g>
<!-- Node2 -->
<g id="Node000002" class="node">
<title>Node2</title>
<g id="a_Node000002"><a xlink:href="classL4drivers_1_1Ro__register__tmpl.html" target="_top" xlink:title="Single read only register inside a Register_block_base interface.">
<polygon fill="white" stroke="transparent" points="127,-231 0,-231 0,-156 127,-156 127,-231"/>
<text text-anchor="start" x="8" y="-218.5" font-family="Helvetica,sans-Serif" font-size="10.00">L4drivers::Ro_register</text>
<text text-anchor="start" x="8" y="-207.5" font-family="Helvetica,sans-Serif" font-size="10.00">_tmpl&lt; BITS, BLOCK &gt;</text>
<text text-anchor="start" x="62" y="-192.5" font-family="Helvetica,sans-Serif" font-size="10.00"> </text>
<text text-anchor="start" x="4.5" y="-177.5" font-family="Helvetica,sans-Serif" font-size="10.00">+</text>
<text text-anchor="start" x="17.5" y="-177.5" font-family="Helvetica,sans-Serif" font-size="10.00">operator value_type()</text>
<text text-anchor="start" x="4.5" y="-162.5" font-family="Helvetica,sans-Serif" font-size="10.00">+</text>
<text text-anchor="start" x="17.5" y="-162.5" font-family="Helvetica,sans-Serif" font-size="10.00">read()</text>
<polygon fill="#666666" stroke="#666666" points="0.5,-202.5 0.5,-202.5 127.5,-202.5 127.5,-202.5 0.5,-202.5"/>
<polygon fill="#666666" stroke="#666666" points="0.5,-187.5 0.5,-187.5 127.5,-187.5 127.5,-187.5 0.5,-187.5"/>
<polygon fill="none" stroke="#666666" points="0,-156 0,-231 127,-231 127,-156 0,-156"/>
</a>
</g>
</g>
<!-- Node2&#45;&gt;Node1 -->
<g id="edge1_Node000001_Node000002" class="edge">
<title>Node2&#45;&gt;Node1</title>
<g id="a_edge1_Node000001_Node000002"><a xlink:title=" ">
<path fill="none" stroke="#63b8ff" d="M63.5,-145.67C63.5,-137.39 63.5,-128.68 63.5,-120.12"/>
<polygon fill="none" stroke="#63b8ff" points="60,-145.87 63.5,-155.87 67,-145.87 60,-145.87"/>
</a>
</g>
</g>
</g>
</svg>
