<?xml version="1.0" encoding="UTF-8" standalone="no"?>
<!DOCTYPE svg PUBLIC "-//W3C//DTD SVG 1.1//EN"
 "http://www.w3.org/Graphics/SVG/1.1/DTD/svg11.dtd">
<!-- Generated by graphviz version 2.42.4 (0)
 -->
<!-- Title: cxx::Ref_ptr&lt; T, CNT &gt; Pages: 1 -->
<svg width="132pt" height="162pt"
 viewBox="0.00 0.00 132.00 162.00" xmlns="http://www.w3.org/2000/svg" xmlns:xlink="http://www.w3.org/1999/xlink">
<g id="graph0" class="graph" transform="scale(1 1) rotate(0) translate(4 158)">
<title>cxx::Ref_ptr&lt; T, CNT &gt;</title>
<!-- Node1 -->
<g id="Node000001" class="node">
<title>Node1</title>
<g id="a_Node000001"><a xlink:title="A reference&#45;counting pointer with automatic cleanup.">
<polygon fill="#999999" stroke="transparent" points="124,-154 0,-154 0,0 124,0 124,-154"/>
<text text-anchor="start" x="5" y="-142" font-family="Helvetica,sans-Serif" font-size="10.00">cxx::Ref_ptr&lt; T, CNT &gt;</text>
<text text-anchor="start" x="60" y="-127" font-family="Helvetica,sans-Serif" font-size="10.00"> </text>
<text text-anchor="start" x="18.5" y="-112" font-family="Helvetica,sans-Serif" font-size="10.00">+</text>
<text text-anchor="start" x="46" y="-112" font-family="Helvetica,sans-Serif" font-size="10.00">Ref_ptr()</text>
<text text-anchor="start" x="18.5" y="-97" font-family="Helvetica,sans-Serif" font-size="10.00">+</text>
<text text-anchor="start" x="46" y="-97" font-family="Helvetica,sans-Serif" font-size="10.00">Ref_ptr()</text>
<text text-anchor="start" x="18.5" y="-82" font-family="Helvetica,sans-Serif" font-size="10.00">+</text>
<text text-anchor="start" x="46" y="-82" font-family="Helvetica,sans-Serif" font-size="10.00">Ref_ptr()</text>
<text text-anchor="start" x="18.5" y="-67" font-family="Helvetica,sans-Serif" font-size="10.00">+</text>
<text text-anchor="start" x="46" y="-67" font-family="Helvetica,sans-Serif" font-size="10.00">Ref_ptr()</text>
<text text-anchor="start" x="18.5" y="-52" font-family="Helvetica,sans-Serif" font-size="10.00">+</text>
<text text-anchor="start" x="46" y="-52" font-family="Helvetica,sans-Serif" font-size="10.00">Ref_ptr()</text>
<text text-anchor="start" x="18.5" y="-37" font-family="Helvetica,sans-Serif" font-size="10.00">+</text>
<text text-anchor="start" x="46" y="-37" font-family="Helvetica,sans-Serif" font-size="10.00">get()</text>
<text text-anchor="start" x="18.5" y="-22" font-family="Helvetica,sans-Serif" font-size="10.00">+</text>
<text text-anchor="start" x="46" y="-22" font-family="Helvetica,sans-Serif" font-size="10.00">ptr()</text>
<text text-anchor="start" x="18.5" y="-7" font-family="Helvetica,sans-Serif" font-size="10.00">+</text>
<text text-anchor="start" x="46" y="-7" font-family="Helvetica,sans-Serif" font-size="10.00">release()</text>
<polygon fill="#666666" stroke="#666666" points="0,-137 0,-137 124,-137 124,-137 0,-137"/>
<polygon fill="#666666" stroke="#666666" points="0,-122 0,-122 124,-122 124,-122 0,-122"/>
<polygon fill="none" stroke="#666666" points="0,0 0,-154 124,-154 124,0 0,0"/>
</a>
</g>
</g>
</g>
</svg>
