<?xml version="1.0" encoding="UTF-8" standalone="no"?>
<!DOCTYPE svg PUBLIC "-//W3C//DTD SVG 1.1//EN"
 "http://www.w3.org/Graphics/SVG/1.1/DTD/svg11.dtd">
<!-- Generated by graphviz version 2.43.0 (0)
 -->
<!-- Title: L4::Thread Pages: 1 -->
<svg width="283pt" height="474pt"
 viewBox="0.00 0.00 283.00 474.00" xmlns="http://www.w3.org/2000/svg" xmlns:xlink="http://www.w3.org/1999/xlink">
<g id="graph0" class="graph" transform="scale(1 1) rotate(0) translate(4 470)">
<title>L4::Thread</title>
<!-- Node1 -->
<g id="Node000001" class="node">
<title>Node1</title>
<g id="a_Node000001"><a xlink:title="C++ L4 kernel thread interface, see Thread for the C interface.">
<polygon fill="#999999" stroke="transparent" points="174.5,-199 37.5,-199 37.5,0 174.5,0 174.5,-199"/>
<text text-anchor="start" x="80.5" y="-186.5" font-family="Helvetica,sans-Serif" font-size="10.00">L4::Thread</text>
<text text-anchor="start" x="104.5" y="-171.5" font-family="Helvetica,sans-Serif" font-size="10.00"> </text>
<text text-anchor="start" x="42" y="-156.5" font-family="Helvetica,sans-Serif" font-size="10.00">+</text>
<text text-anchor="start" x="55" y="-156.5" font-family="Helvetica,sans-Serif" font-size="10.00">ex_regs()</text>
<text text-anchor="start" x="42" y="-141.5" font-family="Helvetica,sans-Serif" font-size="10.00">+</text>
<text text-anchor="start" x="55" y="-141.5" font-family="Helvetica,sans-Serif" font-size="10.00">ex_regs()</text>
<text text-anchor="start" x="42" y="-126.5" font-family="Helvetica,sans-Serif" font-size="10.00">+</text>
<text text-anchor="start" x="55" y="-126.5" font-family="Helvetica,sans-Serif" font-size="10.00">control()</text>
<text text-anchor="start" x="42" y="-111.5" font-family="Helvetica,sans-Serif" font-size="10.00">+</text>
<text text-anchor="start" x="55" y="-111.5" font-family="Helvetica,sans-Serif" font-size="10.00">switch_to()</text>
<text text-anchor="start" x="42" y="-96.5" font-family="Helvetica,sans-Serif" font-size="10.00">+</text>
<text text-anchor="start" x="55" y="-96.5" font-family="Helvetica,sans-Serif" font-size="10.00">stats_time()</text>
<text text-anchor="start" x="42" y="-81.5" font-family="Helvetica,sans-Serif" font-size="10.00">+</text>
<text text-anchor="start" x="55" y="-81.5" font-family="Helvetica,sans-Serif" font-size="10.00">vcpu_resume_start()</text>
<text text-anchor="start" x="42" y="-66.5" font-family="Helvetica,sans-Serif" font-size="10.00">+</text>
<text text-anchor="start" x="55" y="-66.5" font-family="Helvetica,sans-Serif" font-size="10.00">vcpu_resume_commit()</text>
<text text-anchor="start" x="42" y="-51.5" font-family="Helvetica,sans-Serif" font-size="10.00">+</text>
<text text-anchor="start" x="55" y="-51.5" font-family="Helvetica,sans-Serif" font-size="10.00">vcpu_control()</text>
<text text-anchor="start" x="42" y="-36.5" font-family="Helvetica,sans-Serif" font-size="10.00">+</text>
<text text-anchor="start" x="55" y="-36.5" font-family="Helvetica,sans-Serif" font-size="10.00">vcpu_control_ext()</text>
<text text-anchor="start" x="42" y="-21.5" font-family="Helvetica,sans-Serif" font-size="10.00">+</text>
<text text-anchor="start" x="55" y="-21.5" font-family="Helvetica,sans-Serif" font-size="10.00">register_del_irq()</text>
<text text-anchor="start" x="42" y="-6.5" font-family="Helvetica,sans-Serif" font-size="10.00">+</text>
<text text-anchor="start" x="55" y="-6.5" font-family="Helvetica,sans-Serif" font-size="10.00">modify_senders()</text>
<polygon fill="#666666" stroke="#666666" points="38,-181.5 38,-181.5 175,-181.5 175,-181.5 38,-181.5"/>
<polygon fill="#666666" stroke="#666666" points="38,-166.5 38,-166.5 175,-166.5 175,-166.5 38,-166.5"/>
<polygon fill="none" stroke="#666666" points="37.5,0 37.5,-199 174.5,-199 174.5,0 37.5,0"/>
</a>
</g>
</g>
<!-- Node2 -->
<g id="Node000002" class="node">
<title>Node2</title>
<g id="a_Node000002"><a xlink:href="classL4_1_1Kobject__t.html" target="_top" xlink:title=" ">
<polygon fill="white" stroke="transparent" points="184,-322 28,-322 28,-236 184,-236 184,-322"/>
<text text-anchor="start" x="33" y="-310" font-family="Helvetica,sans-Serif" font-size="10.00">L4::Kobject_t&lt; Thread,</text>
<text text-anchor="start" x="33" y="-299" font-family="Helvetica,sans-Serif" font-size="10.00"> Kobject, L4_PROTO_THREAD,</text>
<text text-anchor="start" x="33" y="-288" font-family="Helvetica,sans-Serif" font-size="10.00"> Type_info::Demand_t&lt; 1 &gt; &gt;</text>
<text text-anchor="start" x="104" y="-273" font-family="Helvetica,sans-Serif" font-size="10.00"> </text>
<text text-anchor="start" x="38.5" y="-258" font-family="Helvetica,sans-Serif" font-size="10.00">#</text>
<text text-anchor="start" x="58" y="-258" font-family="Helvetica,sans-Serif" font-size="10.00">c()</text>
<text text-anchor="start" x="38.5" y="-243" font-family="Helvetica,sans-Serif" font-size="10.00">#</text>
<text text-anchor="start" x="58" y="-243" font-family="Helvetica,sans-Serif" font-size="10.00">__check_protocols__()</text>
<polygon fill="#666666" stroke="#666666" points="28,-283 28,-283 184,-283 184,-283 28,-283"/>
<polygon fill="#666666" stroke="#666666" points="28,-268 28,-268 184,-268 184,-268 28,-268"/>
<polygon fill="none" stroke="#666666" points="28,-236 28,-322 184,-322 184,-236 28,-236"/>
</a>
</g>
</g>
<!-- Node2&#45;&gt;Node1 -->
<g id="edge1_Node000001_Node000002" class="edge">
<title>Node2&#45;&gt;Node1</title>
<g id="a_edge1_Node000001_Node000002"><a xlink:title=" ">
<path fill="none" stroke="#63b8ff" d="M106,-225.83C106,-217.3 106,-208.23 106,-199.01"/>
<polygon fill="none" stroke="#63b8ff" points="102.5,-225.93 106,-235.93 109.5,-225.94 102.5,-225.93"/>
</a>
</g>
</g>
<!-- Node3 -->
<g id="Node000003" class="node">
<title>Node3</title>
<g id="a_Node000003"><a xlink:href="classL4_1_1Kobject.html" target="_top" xlink:title="Base class for all kinds of kernel objects and remote objects, referenced by capabilities.">
<polygon fill="white" stroke="transparent" points="80,-460.5 0,-460.5 0,-396.5 80,-396.5 80,-460.5"/>
<text text-anchor="start" x="13" y="-448.5" font-family="Helvetica,sans-Serif" font-size="10.00">L4::Kobject</text>
<text text-anchor="start" x="38" y="-433.5" font-family="Helvetica,sans-Serif" font-size="10.00"> </text>
<text text-anchor="start" x="4" y="-418.5" font-family="Helvetica,sans-Serif" font-size="10.00">+</text>
<text text-anchor="start" x="17" y="-418.5" font-family="Helvetica,sans-Serif" font-size="10.00">dec_refcnt()</text>
<text text-anchor="start" x="4" y="-403.5" font-family="Helvetica,sans-Serif" font-size="10.00">#</text>
<text text-anchor="start" x="17" y="-403.5" font-family="Helvetica,sans-Serif" font-size="10.00">cap()</text>
<polygon fill="#666666" stroke="#666666" points="0,-443.5 0,-443.5 80,-443.5 80,-443.5 0,-443.5"/>
<polygon fill="#666666" stroke="#666666" points="0,-428.5 0,-428.5 80,-428.5 80,-428.5 0,-428.5"/>
<polygon fill="none" stroke="#666666" points="0,-396.5 0,-460.5 80,-460.5 80,-396.5 0,-396.5"/>
</a>
</g>
</g>
<!-- Node3&#45;&gt;Node2 -->
<g id="edge2_Node000002_Node000003" class="edge">
<title>Node3&#45;&gt;Node2</title>
<g id="a_edge2_Node000002_Node000003"><a xlink:title=" ">
<path fill="none" stroke="#63b8ff" d="M58.12,-386.99C67.14,-366.85 78.03,-342.52 87.14,-322.15"/>
<polygon fill="none" stroke="#63b8ff" points="54.89,-385.66 54,-396.22 61.28,-388.52 54.89,-385.66"/>
</a>
</g>
</g>
<!-- Node4 -->
<g id="Node000004" class="node">
<title>Node4</title>
<g id="a_Node000004"><a xlink:href="classL4_1_1Kobject__t.html" target="_top" xlink:title="Helper class to create an L4Re interface class that is derived from a single base class.">
<polygon fill="white" stroke="transparent" points="248,-466 98,-466 98,-391 248,-391 248,-466"/>
<text text-anchor="start" x="103" y="-453.5" font-family="Helvetica,sans-Serif" font-size="10.00">L4::Kobject_t&lt; Derived,</text>
<text text-anchor="start" x="103" y="-442.5" font-family="Helvetica,sans-Serif" font-size="10.00"> Base, PROTO, S_DEMAND &gt;</text>
<text text-anchor="start" x="171" y="-427.5" font-family="Helvetica,sans-Serif" font-size="10.00"> </text>
<text text-anchor="start" x="107" y="-412.5" font-family="Helvetica,sans-Serif" font-size="10.00">#</text>
<text text-anchor="start" x="125" y="-412.5" font-family="Helvetica,sans-Serif" font-size="10.00">c()</text>
<text text-anchor="start" x="107" y="-397.5" font-family="Helvetica,sans-Serif" font-size="10.00">#</text>
<text text-anchor="start" x="125" y="-397.5" font-family="Helvetica,sans-Serif" font-size="10.00">__check_protocols__()</text>
<polygon fill="#666666" stroke="#666666" points="98,-437.5 98,-437.5 248,-437.5 248,-437.5 98,-437.5"/>
<polygon fill="#666666" stroke="#666666" points="98,-422.5 98,-422.5 248,-422.5 248,-422.5 98,-422.5"/>
<polygon fill="none" stroke="#666666" points="98,-391 98,-466 248,-466 248,-391 98,-391"/>
</a>
</g>
</g>
<!-- Node4&#45;&gt;Node2 -->
<g id="edge3_Node000002_Node000004" class="edge">
<title>Node4&#45;&gt;Node2</title>
<g id="a_edge3_Node000002_Node000004"><a xlink:title=" ">
<path fill="none" stroke="orange" d="M152.03,-381.33C143.42,-362.39 133.53,-340.61 125.13,-322.1"/>
<polygon fill="orange" stroke="orange" points="148.94,-383 156.27,-390.66 155.32,-380.11 148.94,-383"/>
</a>
</g>
<text text-anchor="start" x="147" y="-365" font-family="Helvetica,sans-Serif" font-size="10.00" fill="grey"> &lt; Thread, Kobject,</text>
<text text-anchor="start" x="147" y="-354" font-family="Helvetica,sans-Serif" font-size="10.00" fill="grey"> L4_PROTO_THREAD, Type</text>
<text text-anchor="middle" x="211" y="-343" font-family="Helvetica,sans-Serif" font-size="10.00" fill="grey">_info::Demand_t&lt; 1 &gt; &gt;</text>
</g>
</g>
</svg>
