<?xml version="1.0" encoding="UTF-8" standalone="no"?>
<!DOCTYPE svg PUBLIC "-//W3C//DTD SVG 1.1//EN"
 "http://www.w3.org/Graphics/SVG/1.1/DTD/svg11.dtd">
<!-- Generated by graphviz version 2.42.4 (0)
 -->
<!-- Title: L4virtio::Driver::Device::send Pages: 1 -->
<svg width="478pt" height="134pt"
 viewBox="0.00 0.00 478.00 134.00" xmlns="http://www.w3.org/2000/svg" xmlns:xlink="http://www.w3.org/1999/xlink">
<g id="graph0" class="graph" transform="scale(1 1) rotate(0) translate(4 130)">
<title>L4virtio::Driver::Device::send</title>
<!-- Node1 -->
<g id="Node000001" class="node">
<title>Node1</title>
<g id="a_Node000001"><a xlink:title="Send a request to the device.">
<polygon fill="#999999" stroke="#666666" points="470,-78 341,-78 341,-48 470,-48 470,-78"/>
<text text-anchor="start" x="349" y="-66" font-family="Helvetica,sans-Serif" font-size="10.00">L4virtio::Driver::Device</text>
<text text-anchor="middle" x="405.5" y="-55" font-family="Helvetica,sans-Serif" font-size="10.00">::send</text>
</a>
</g>
</g>
<!-- Node2 -->
<g id="Node000002" class="node">
<title>Node2</title>
<g id="a_Node000002"><a xlink:href="classL4virtio_1_1Driver_1_1Device.html#af4aa9ac34ce928b9d437f1bb6a2ec216" target="_top" xlink:title="Send a request to the device and wait for it to be processed.">
<polygon fill="white" stroke="#666666" points="305,-126 176,-126 176,-96 305,-96 305,-126"/>
<text text-anchor="start" x="184" y="-114" font-family="Helvetica,sans-Serif" font-size="10.00">L4virtio::Driver::Device</text>
<text text-anchor="middle" x="240.5" y="-103" font-family="Helvetica,sans-Serif" font-size="10.00">::send_and_wait</text>
</a>
</g>
</g>
<!-- Node1&#45;&gt;Node2 -->
<g id="edge1_Node000001_Node000002" class="edge">
<title>Node1&#45;&gt;Node2</title>
<g id="a_edge1_Node000001_Node000002"><a xlink:title=" ">
<path fill="none" stroke="#63b8ff" d="M343.62,-80.93C326.77,-85.89 308.67,-91.22 292.45,-96"/>
<polygon fill="#63b8ff" stroke="#63b8ff" points="344.77,-84.24 353.37,-78.06 342.79,-77.52 344.77,-84.24"/>
</a>
</g>
</g>
<!-- Node4 -->
<g id="Node000004" class="node">
<title>Node4</title>
<g id="a_Node000004"><a xlink:href="classL4virtio_1_1Driver_1_1Block__device.html#a2c2e9924abafe2eff34821b166c6c36f" target="_top" xlink:title="Process request asynchronously.">
<polygon fill="white" stroke="#666666" points="303,-78 178,-78 178,-48 303,-48 303,-78"/>
<text text-anchor="start" x="186" y="-66" font-family="Helvetica,sans-Serif" font-size="10.00">L4virtio::Driver::Block</text>
<text text-anchor="middle" x="240.5" y="-55" font-family="Helvetica,sans-Serif" font-size="10.00">_device::send_request</text>
</a>
</g>
</g>
<!-- Node1&#45;&gt;Node4 -->
<g id="edge3_Node000001_Node000004" class="edge">
<title>Node1&#45;&gt;Node4</title>
<g id="a_edge3_Node000001_Node000004"><a xlink:title=" ">
<path fill="none" stroke="#63b8ff" d="M330.35,-63C321.25,-63 312.02,-63 303.14,-63"/>
<polygon fill="#63b8ff" stroke="#63b8ff" points="330.55,-66.5 340.55,-63 330.55,-59.5 330.55,-66.5"/>
</a>
</g>
</g>
<!-- Node5 -->
<g id="Node000005" class="node">
<title>Node5</title>
<g id="a_Node000005"><a xlink:href="classL4virtio_1_1Driver_1_1Virtio__net__device.html#ae7be0e5112d84bccc6cfabd20aaa29e7" target="_top" xlink:title="Attempt to allocate a descriptor in the TX queue and transmit the packet, after calling the prepare c...">
<polygon fill="white" stroke="#666666" points="301.5,-30 179.5,-30 179.5,0 301.5,0 301.5,-30"/>
<text text-anchor="start" x="187.5" y="-18" font-family="Helvetica,sans-Serif" font-size="10.00">L4virtio::Driver::Virtio</text>
<text text-anchor="middle" x="240.5" y="-7" font-family="Helvetica,sans-Serif" font-size="10.00">_net_device::tx</text>
</a>
</g>
</g>
<!-- Node1&#45;&gt;Node5 -->
<g id="edge4_Node000001_Node000005" class="edge">
<title>Node1&#45;&gt;Node5</title>
<g id="a_edge4_Node000001_Node000005"><a xlink:title=" ">
<path fill="none" stroke="#63b8ff" d="M343.62,-45.07C326.77,-40.11 308.67,-34.78 292.45,-30"/>
<polygon fill="#63b8ff" stroke="#63b8ff" points="342.79,-48.48 353.37,-47.94 344.77,-41.76 342.79,-48.48"/>
</a>
</g>
</g>
<!-- Node3 -->
<g id="Node000003" class="node">
<title>Node3</title>
<g id="a_Node000003"><a xlink:href="classL4virtio_1_1Driver_1_1Block__device.html#a63f21e71556accc8c669ef80161ecd8e" target="_top" xlink:title="Process request synchronously.">
<polygon fill="white" stroke="#666666" points="140,-126 0,-126 0,-96 140,-96 140,-126"/>
<text text-anchor="start" x="8" y="-114" font-family="Helvetica,sans-Serif" font-size="10.00">L4virtio::Driver::Block</text>
<text text-anchor="middle" x="70" y="-103" font-family="Helvetica,sans-Serif" font-size="10.00">_device::process_request</text>
</a>
</g>
</g>
<!-- Node2&#45;&gt;Node3 -->
<g id="edge2_Node000002_Node000003" class="edge">
<title>Node2&#45;&gt;Node3</title>
<g id="a_edge2_Node000002_Node000003"><a xlink:title=" ">
<path fill="none" stroke="#63b8ff" d="M165.58,-111C157.12,-111 148.53,-111 140.14,-111"/>
<polygon fill="#63b8ff" stroke="#63b8ff" points="165.8,-114.5 175.8,-111 165.8,-107.5 165.8,-114.5"/>
</a>
</g>
</g>
</g>
</svg>
