<?xml version="1.0" encoding="UTF-8" standalone="no"?>
<!DOCTYPE svg PUBLIC "-//W3C//DTD SVG 1.1//EN"
 "http://www.w3.org/Graphics/SVG/1.1/DTD/svg11.dtd">
<!-- Generated by graphviz version 2.43.0 (0)
 -->
<!-- Title: cxx::Bits::Base_avl_set::lower_bound_node Pages: 1 -->
<svg width="437pt" height="38pt"
 viewBox="0.00 0.00 437.00 38.00" xmlns="http://www.w3.org/2000/svg" xmlns:xlink="http://www.w3.org/1999/xlink">
<g id="graph0" class="graph" transform="scale(1 1) rotate(0) translate(4 34)">
<title>cxx::Bits::Base_avl_set::lower_bound_node</title>
<!-- Node1 -->
<g id="Node000001" class="node">
<title>Node1</title>
<g id="a_Node000001"><a xlink:title="Find the first node greater or equal to key.">
<polygon fill="#999999" stroke="#666666" points="134,-30 0,-30 0,0 134,0 134,-30"/>
<text text-anchor="start" x="8" y="-18" font-family="Helvetica,sans-Serif" font-size="10.00">cxx::Bits::Base_avl</text>
<text text-anchor="middle" x="67" y="-7" font-family="Helvetica,sans-Serif" font-size="10.00">_set::lower_bound_node</text>
</a>
</g>
</g>
<!-- Node2 -->
<g id="Node000002" class="node">
<title>Node2</title>
<g id="a_Node000002"><a xlink:href="classcxx_1_1Bits_1_1Bst.html#a206a8d12abbe95b955982f9f8ab1cb7b" target="_top" xlink:title="Find the first node with a key not less than the given key.">
<polygon fill="white" stroke="#666666" points="283,-30 170,-30 170,0 283,0 283,-30"/>
<text text-anchor="start" x="178" y="-18" font-family="Helvetica,sans-Serif" font-size="10.00">cxx::Bits::Bst::lower</text>
<text text-anchor="middle" x="226.5" y="-7" font-family="Helvetica,sans-Serif" font-size="10.00">_bound_node</text>
</a>
</g>
</g>
<!-- Node1&#45;&gt;Node2 -->
<g id="edge1_Node000001_Node000002" class="edge">
<title>Node1&#45;&gt;Node2</title>
<g id="a_edge1_Node000001_Node000002"><a xlink:title=" ">
<path fill="none" stroke="#63b8ff" d="M134.34,-15C142.71,-15 151.26,-15 159.62,-15"/>
<polygon fill="#63b8ff" stroke="#63b8ff" points="159.7,-18.5 169.7,-15 159.7,-11.5 159.7,-18.5"/>
</a>
</g>
</g>
<!-- Node3 -->
<g id="Node000003" class="node">
<title>Node3</title>
<g id="a_Node000003"><a xlink:href="classcxx_1_1Bits_1_1Bst__node.html#afab30b3fd2e1e6bf677cc54296581cb3" target="_top" xlink:title="Get next node in direction d.">
<polygon fill="white" stroke="#666666" points="429,-30 319,-30 319,0 429,0 429,-30"/>
<text text-anchor="start" x="327" y="-18" font-family="Helvetica,sans-Serif" font-size="10.00">cxx::Bits::Bst_node</text>
<text text-anchor="middle" x="374" y="-7" font-family="Helvetica,sans-Serif" font-size="10.00">::next</text>
</a>
</g>
</g>
<!-- Node2&#45;&gt;Node3 -->
<g id="edge2_Node000002_Node000003" class="edge">
<title>Node2&#45;&gt;Node3</title>
<g id="a_edge2_Node000002_Node000003"><a xlink:title=" ">
<path fill="none" stroke="#63b8ff" d="M283.34,-15C291.66,-15 300.29,-15 308.76,-15"/>
<polygon fill="#63b8ff" stroke="#63b8ff" points="308.99,-18.5 318.99,-15 308.99,-11.5 308.99,-18.5"/>
</a>
</g>
</g>
</g>
</svg>
