<?xml version="1.0" encoding="UTF-8" standalone="no"?>
<!DOCTYPE svg PUBLIC "-//W3C//DTD SVG 1.1//EN"
 "http://www.w3.org/Graphics/SVG/1.1/DTD/svg11.dtd">
<!-- Generated by graphviz version 2.43.0 (0)
 -->
<!-- Title: cxx::Bitmap&lt; BITS &gt; Pages: 1 -->
<svg width="121pt" height="307pt"
 viewBox="0.00 0.00 121.00 307.00" xmlns="http://www.w3.org/2000/svg" xmlns:xlink="http://www.w3.org/1999/xlink">
<g id="graph0" class="graph" transform="scale(1 1) rotate(0) translate(4 303)">
<title>cxx::Bitmap&lt; BITS &gt;</title>
<!-- Node1 -->
<g id="Node000001" class="node">
<title>Node1</title>
<g id="a_Node000001"><a xlink:title="A static bit map.">
<polygon fill="#999999" stroke="transparent" points="113,-64 0,-64 0,0 113,0 113,-64"/>
<text text-anchor="start" x="5.5" y="-52" font-family="Helvetica,sans-Serif" font-size="10.00">cxx::Bitmap&lt; BITS &gt;</text>
<text text-anchor="start" x="55" y="-37" font-family="Helvetica,sans-Serif" font-size="10.00"> </text>
<text text-anchor="start" x="13" y="-22" font-family="Helvetica,sans-Serif" font-size="10.00">+</text>
<text text-anchor="start" x="34.5" y="-22" font-family="Helvetica,sans-Serif" font-size="10.00">Bitmap()</text>
<text text-anchor="start" x="13" y="-7" font-family="Helvetica,sans-Serif" font-size="10.00">+</text>
<text text-anchor="start" x="34.5" y="-7" font-family="Helvetica,sans-Serif" font-size="10.00">scan_zero()</text>
<polygon fill="#666666" stroke="#666666" points="0.5,-47 0.5,-47 113.5,-47 113.5,-47 0.5,-47"/>
<polygon fill="#666666" stroke="#666666" points="0.5,-32 0.5,-32 113.5,-32 113.5,-32 0.5,-32"/>
<polygon fill="none" stroke="#666666" points="0,0 0,-64 113,-64 113,0 0,0"/>
</a>
</g>
</g>
<!-- Node2 -->
<g id="Node000002" class="node">
<title>Node2</title>
<g id="a_Node000002"><a xlink:href="classcxx_1_1Bitmap__base.html" target="_top" xlink:title="Basic bitmap abstraction.">
<polygon fill="white" stroke="transparent" points="105.5,-299 7.5,-299 7.5,-100 105.5,-100 105.5,-299"/>
<text text-anchor="start" x="12.5" y="-286.5" font-family="Helvetica,sans-Serif" font-size="10.00">cxx::Bitmap_base</text>
<text text-anchor="start" x="14.5" y="-271.5" font-family="Helvetica,sans-Serif" font-size="10.00">#</text>
<text text-anchor="start" x="30.5" y="-271.5" font-family="Helvetica,sans-Serif" font-size="10.00">_bits</text>
<text text-anchor="start" x="14.5" y="-256.5" font-family="Helvetica,sans-Serif" font-size="10.00">+</text>
<text text-anchor="start" x="30.5" y="-256.5" font-family="Helvetica,sans-Serif" font-size="10.00">bit()</text>
<text text-anchor="start" x="14.5" y="-241.5" font-family="Helvetica,sans-Serif" font-size="10.00">+</text>
<text text-anchor="start" x="30.5" y="-241.5" font-family="Helvetica,sans-Serif" font-size="10.00">clear_bit()</text>
<text text-anchor="start" x="14.5" y="-226.5" font-family="Helvetica,sans-Serif" font-size="10.00">+</text>
<text text-anchor="start" x="30.5" y="-226.5" font-family="Helvetica,sans-Serif" font-size="10.00">set_bit()</text>
<text text-anchor="start" x="14.5" y="-211.5" font-family="Helvetica,sans-Serif" font-size="10.00">+</text>
<text text-anchor="start" x="30.5" y="-211.5" font-family="Helvetica,sans-Serif" font-size="10.00">bit()</text>
<text text-anchor="start" x="14.5" y="-196.5" font-family="Helvetica,sans-Serif" font-size="10.00">+</text>
<text text-anchor="start" x="30.5" y="-196.5" font-family="Helvetica,sans-Serif" font-size="10.00">operator[]()</text>
<text text-anchor="start" x="14.5" y="-181.5" font-family="Helvetica,sans-Serif" font-size="10.00">+</text>
<text text-anchor="start" x="30.5" y="-181.5" font-family="Helvetica,sans-Serif" font-size="10.00">operator[]()</text>
<text text-anchor="start" x="14.5" y="-166.5" font-family="Helvetica,sans-Serif" font-size="10.00">+</text>
<text text-anchor="start" x="30.5" y="-166.5" font-family="Helvetica,sans-Serif" font-size="10.00">scan_zero()</text>
<text text-anchor="start" x="14.5" y="-151.5" font-family="Helvetica,sans-Serif" font-size="10.00">+</text>
<text text-anchor="start" x="30.5" y="-151.5" font-family="Helvetica,sans-Serif" font-size="10.00">words()</text>
<text text-anchor="start" x="14.5" y="-136.5" font-family="Helvetica,sans-Serif" font-size="10.00">+</text>
<text text-anchor="start" x="30.5" y="-136.5" font-family="Helvetica,sans-Serif" font-size="10.00">chars()</text>
<text text-anchor="start" x="14.5" y="-121.5" font-family="Helvetica,sans-Serif" font-size="10.00">#</text>
<text text-anchor="start" x="30.5" y="-121.5" font-family="Helvetica,sans-Serif" font-size="10.00">word_index()</text>
<text text-anchor="start" x="14.5" y="-106.5" font-family="Helvetica,sans-Serif" font-size="10.00">#</text>
<text text-anchor="start" x="30.5" y="-106.5" font-family="Helvetica,sans-Serif" font-size="10.00">bit_index()</text>
<polygon fill="#666666" stroke="#666666" points="7.5,-281.5 7.5,-281.5 105.5,-281.5 105.5,-281.5 7.5,-281.5"/>
<polygon fill="#666666" stroke="#666666" points="7.5,-266.5 7.5,-266.5 28.5,-266.5 28.5,-266.5 7.5,-266.5"/>
<polygon fill="#666666" stroke="#666666" points="28.5,-266.5 28.5,-266.5 105.5,-266.5 105.5,-266.5 28.5,-266.5"/>
<polygon fill="none" stroke="#666666" points="7.5,-100 7.5,-299 105.5,-299 105.5,-100 7.5,-100"/>
</a>
</g>
</g>
<!-- Node2&#45;&gt;Node1 -->
<g id="edge1_Node000001_Node000002" class="edge">
<title>Node2&#45;&gt;Node1</title>
<g id="a_edge1_Node000001_Node000002"><a xlink:title=" ">
<path fill="none" stroke="#63b8ff" d="M56.5,-89.72C56.5,-80.54 56.5,-71.83 56.5,-64.12"/>
<polygon fill="none" stroke="#63b8ff" points="53,-89.84 56.5,-99.84 60,-89.84 53,-89.84"/>
</a>
</g>
</g>
</g>
</svg>
