<?xml version="1.0" encoding="UTF-8" standalone="no"?>
<!DOCTYPE svg PUBLIC "-//W3C//DTD SVG 1.1//EN"
 "http://www.w3.org/Graphics/SVG/1.1/DTD/svg11.dtd">
<!-- Generated by graphviz version 2.43.0 (0)
 -->
<!-- Title: L4::Type_info::Demand Pages: 1 -->
<svg width="287pt" height="694pt"
 viewBox="0.00 0.00 287.00 694.00" xmlns="http://www.w3.org/2000/svg" xmlns:xlink="http://www.w3.org/1999/xlink">
<g id="graph0" class="graph" transform="scale(1 1) rotate(0) translate(4 690)">
<title>L4::Type_info::Demand</title>
<!-- Node1 -->
<g id="Node000001" class="node">
<title>Node1</title>
<g id="a_Node000001"><a xlink:title="Data type for expressing the needed receive buffers at the server&#45;side of an interface.">
<polygon fill="#999999" stroke="transparent" points="156,-686 34,-686 34,-562 156,-562 156,-686"/>
<text text-anchor="start" x="39" y="-674" font-family="Helvetica,sans-Serif" font-size="10.00">L4::Type_info::Demand</text>
<text text-anchor="start" x="47" y="-659" font-family="Helvetica,sans-Serif" font-size="10.00">+</text>
<text text-anchor="start" x="69" y="-659" font-family="Helvetica,sans-Serif" font-size="10.00">caps</text>
<text text-anchor="start" x="47" y="-644" font-family="Helvetica,sans-Serif" font-size="10.00">+</text>
<text text-anchor="start" x="69" y="-644" font-family="Helvetica,sans-Serif" font-size="10.00">flags</text>
<text text-anchor="start" x="47" y="-629" font-family="Helvetica,sans-Serif" font-size="10.00">+</text>
<text text-anchor="start" x="69" y="-629" font-family="Helvetica,sans-Serif" font-size="10.00">mem</text>
<text text-anchor="start" x="47" y="-614" font-family="Helvetica,sans-Serif" font-size="10.00">+</text>
<text text-anchor="start" x="69" y="-614" font-family="Helvetica,sans-Serif" font-size="10.00">ports</text>
<text text-anchor="start" x="47" y="-599" font-family="Helvetica,sans-Serif" font-size="10.00">+</text>
<text text-anchor="start" x="69" y="-599" font-family="Helvetica,sans-Serif" font-size="10.00">Demand()</text>
<text text-anchor="start" x="47" y="-584" font-family="Helvetica,sans-Serif" font-size="10.00">+</text>
<text text-anchor="start" x="69" y="-584" font-family="Helvetica,sans-Serif" font-size="10.00">no_demand()</text>
<text text-anchor="start" x="47" y="-569" font-family="Helvetica,sans-Serif" font-size="10.00">+</text>
<text text-anchor="start" x="69" y="-569" font-family="Helvetica,sans-Serif" font-size="10.00">operator|()</text>
<polygon fill="#666666" stroke="#666666" points="34,-669 34,-669 156,-669 156,-669 34,-669"/>
<polygon fill="#666666" stroke="#666666" points="34,-609 34,-609 67,-609 67,-609 34,-609"/>
<polygon fill="#666666" stroke="#666666" points="67,-609 67,-609 156,-609 156,-609 67,-609"/>
<polygon fill="none" stroke="#666666" points="34,-562 34,-686 156,-686 156,-562 34,-562"/>
</a>
</g>
</g>
<!-- Node2 -->
<g id="Node000002" class="node">
<title>Node2</title>
<g id="a_Node000002"><a xlink:href="structL4_1_1Type__info_1_1Demand__t.html" target="_top" xlink:title=" ">
<polygon fill="white" stroke="transparent" points="164,-352 0,-352 0,-248 164,-248 164,-352"/>
<text text-anchor="start" x="5" y="-340" font-family="Helvetica,sans-Serif" font-size="10.00">L4::Type_info::Demand</text>
<text text-anchor="start" x="5" y="-329" font-family="Helvetica,sans-Serif" font-size="10.00">_t&lt; __I::Max&lt; D1::Caps,</text>
<text text-anchor="start" x="5" y="-318" font-family="Helvetica,sans-Serif" font-size="10.00"> D2::Caps &gt;::Res, D1::Flags|</text>
<text text-anchor="start" x="5" y="-307" font-family="Helvetica,sans-Serif" font-size="10.00">D2::Flags, __I::Max&lt; D1::Mem,</text>
<text text-anchor="start" x="5" y="-296" font-family="Helvetica,sans-Serif" font-size="10.00"> D2::Mem &gt;::Res, __I::Max&lt; D1</text>
<text text-anchor="start" x="18" y="-285" font-family="Helvetica,sans-Serif" font-size="10.00">::Ports, D2::Ports &gt;::Res &gt;</text>
<text text-anchor="start" x="80" y="-270" font-family="Helvetica,sans-Serif" font-size="10.00"> </text>
<text text-anchor="start" x="80" y="-255" font-family="Helvetica,sans-Serif" font-size="10.00"> </text>
<polygon fill="#666666" stroke="#666666" points="0,-280 0,-280 164,-280 164,-280 0,-280"/>
<polygon fill="#666666" stroke="#666666" points="0,-265 0,-265 164,-265 164,-265 0,-265"/>
<polygon fill="none" stroke="#666666" points="0,-248 0,-352 164,-352 164,-248 0,-248"/>
</a>
</g>
</g>
<!-- Node1&#45;&gt;Node2 -->
<g id="edge1_Node000001_Node000002" class="edge">
<title>Node1&#45;&gt;Node2</title>
<g id="a_edge1_Node000001_Node000002"><a xlink:title=" ">
<path fill="none" stroke="#63b8ff" d="M86.99,-551.8C86.2,-542.79 85.5,-533.68 85,-525 81.59,-465.79 81.18,-397.63 81.4,-352.2"/>
<polygon fill="none" stroke="#63b8ff" points="83.52,-552.27 87.92,-561.9 90.49,-551.62 83.52,-552.27"/>
</a>
</g>
</g>
<!-- Node5 -->
<g id="Node000005" class="node">
<title>Node5</title>
<g id="a_Node000005"><a xlink:href="structL4_1_1Type__info_1_1Demand__t.html" target="_top" xlink:title="Template type statically describing demand of receive buffers.">
<polygon fill="white" stroke="transparent" points="222,-525 94,-525 94,-454 222,-454 222,-525"/>
<text text-anchor="start" x="99" y="-512.5" font-family="Helvetica,sans-Serif" font-size="10.00">L4::Type_info::Demand</text>
<text text-anchor="start" x="99" y="-501.5" font-family="Helvetica,sans-Serif" font-size="10.00">_t&lt; CAPS, FLAGS, MEM,</text>
<text text-anchor="start" x="135" y="-490.5" font-family="Helvetica,sans-Serif" font-size="10.00"> PORTS &gt;</text>
<text text-anchor="start" x="156" y="-475.5" font-family="Helvetica,sans-Serif" font-size="10.00"> </text>
<text text-anchor="start" x="156" y="-460.5" font-family="Helvetica,sans-Serif" font-size="10.00"> </text>
<polygon fill="#666666" stroke="#666666" points="94,-485.5 94,-485.5 222,-485.5 222,-485.5 94,-485.5"/>
<polygon fill="#666666" stroke="#666666" points="94,-470.5 94,-470.5 222,-470.5 222,-470.5 94,-470.5"/>
<polygon fill="none" stroke="#666666" points="94,-454 94,-525 222,-525 222,-454 94,-454"/>
</a>
</g>
</g>
<!-- Node1&#45;&gt;Node5 -->
<g id="edge5_Node000001_Node000005" class="edge">
<title>Node1&#45;&gt;Node5</title>
<g id="a_edge5_Node000001_Node000005"><a xlink:title=" ">
<path fill="none" stroke="#63b8ff" d="M128.47,-552.61C133.02,-543.05 137.51,-533.6 141.57,-525.06"/>
<polygon fill="none" stroke="#63b8ff" points="125.24,-551.26 124.1,-561.79 131.56,-554.26 125.24,-551.26"/>
</a>
</g>
</g>
<!-- Node3 -->
<g id="Node000003" class="node">
<title>Node3</title>
<g id="a_Node000003"><a xlink:href="structL4_1_1Type__info_1_1Demand__union__t.html" target="_top" xlink:title=" ">
<polygon fill="white" stroke="transparent" points="153.5,-82 18.5,-82 18.5,0 153.5,0 153.5,-82"/>
<text text-anchor="start" x="24" y="-70" font-family="Helvetica,sans-Serif" font-size="10.00">L4::Type_info::Demand</text>
<text text-anchor="start" x="24" y="-59" font-family="Helvetica,sans-Serif" font-size="10.00">_union_t&lt; Kobject_typeid</text>
<text text-anchor="start" x="24" y="-48" font-family="Helvetica,sans-Serif" font-size="10.00">&lt; T1 &gt;::Demand, Kobject</text>
<text text-anchor="start" x="36.5" y="-37" font-family="Helvetica,sans-Serif" font-size="10.00">_demand&lt; T2... &gt; &gt;</text>
<text text-anchor="start" x="84.5" y="-22" font-family="Helvetica,sans-Serif" font-size="10.00"> </text>
<text text-anchor="start" x="84.5" y="-7" font-family="Helvetica,sans-Serif" font-size="10.00"> </text>
<polygon fill="#666666" stroke="#666666" points="19,-32 19,-32 154,-32 154,-32 19,-32"/>
<polygon fill="#666666" stroke="#666666" points="19,-17 19,-17 154,-17 154,-17 19,-17"/>
<polygon fill="none" stroke="#666666" points="18.5,0 18.5,-82 153.5,-82 153.5,0 18.5,0"/>
</a>
</g>
</g>
<!-- Node2&#45;&gt;Node3 -->
<g id="edge2_Node000002_Node000003" class="edge">
<title>Node2&#45;&gt;Node3</title>
<g id="a_edge2_Node000002_Node000003"><a xlink:title=" ">
<path fill="none" stroke="#63b8ff" d="M82.95,-237.91C83.7,-189.67 84.73,-123.76 85.38,-82.03"/>
<polygon fill="none" stroke="#63b8ff" points="79.45,-237.86 82.8,-247.92 86.45,-237.97 79.45,-237.86"/>
</a>
</g>
</g>
<!-- Node4 -->
<g id="Node000004" class="node">
<title>Node4</title>
<g id="a_Node000004"><a xlink:href="structL4_1_1Type__info_1_1Demand__union__t.html" target="_top" xlink:title="Template type statically describing the combination of two Demand object.">
<polygon fill="white" stroke="transparent" points="220,-211 98,-211 98,-151 220,-151 220,-211"/>
<text text-anchor="start" x="103" y="-199" font-family="Helvetica,sans-Serif" font-size="10.00">L4::Type_info::Demand</text>
<text text-anchor="start" x="110.5" y="-188" font-family="Helvetica,sans-Serif" font-size="10.00">_union_t&lt; D1, D2 &gt;</text>
<text text-anchor="start" x="157" y="-173" font-family="Helvetica,sans-Serif" font-size="10.00"> </text>
<text text-anchor="start" x="157" y="-158" font-family="Helvetica,sans-Serif" font-size="10.00"> </text>
<polygon fill="#666666" stroke="#666666" points="98,-183 98,-183 220,-183 220,-183 98,-183"/>
<polygon fill="#666666" stroke="#666666" points="98,-168 98,-168 220,-168 220,-168 98,-168"/>
<polygon fill="none" stroke="#666666" points="98,-151 98,-211 220,-211 220,-151 98,-151"/>
</a>
</g>
</g>
<!-- Node2&#45;&gt;Node4 -->
<g id="edge3_Node000002_Node000004" class="edge">
<title>Node2&#45;&gt;Node4</title>
<g id="a_edge3_Node000002_Node000004"><a xlink:title=" ">
<path fill="none" stroke="#63b8ff" d="M121.4,-239.13C127.82,-229.38 134.2,-219.68 139.84,-211.11"/>
<polygon fill="none" stroke="#63b8ff" points="118.35,-237.4 115.77,-247.68 124.19,-241.25 118.35,-237.4"/>
</a>
</g>
</g>
<!-- Node4&#45;&gt;Node3 -->
<g id="edge4_Node000004_Node000003" class="edge">
<title>Node4&#45;&gt;Node3</title>
<g id="a_edge4_Node000004_Node000003"><a xlink:title=" ">
<path fill="none" stroke="orange" d="M138.74,-141.7C128.95,-123.19 117.2,-100.97 107.27,-82.22"/>
<polygon fill="orange" stroke="orange" points="135.75,-143.53 143.52,-150.73 141.94,-140.26 135.75,-143.53"/>
</a>
</g>
<text text-anchor="start" x="133" y="-125" font-family="Helvetica,sans-Serif" font-size="10.00" fill="grey"> &lt; Kobject_typeid&lt; T1</text>
<text text-anchor="start" x="133" y="-114" font-family="Helvetica,sans-Serif" font-size="10.00" fill="grey"> &gt;::Demand, Kobject_demand</text>
<text text-anchor="middle" x="206" y="-103" font-family="Helvetica,sans-Serif" font-size="10.00" fill="grey">&lt; T2... &gt; &gt;</text>
</g>
<!-- Node5&#45;&gt;Node2 -->
<g id="edge6_Node000005_Node000002" class="edge">
<title>Node5&#45;&gt;Node2</title>
<g id="a_edge6_Node000005_Node000002"><a xlink:title=" ">
<path fill="none" stroke="orange" d="M140.07,-444.28C128.89,-416.69 114.46,-381.09 102.78,-352.27"/>
<polygon fill="orange" stroke="orange" points="136.88,-445.72 143.88,-453.67 143.37,-443.09 136.88,-445.72"/>
</a>
</g>
<text text-anchor="start" x="135" y="-428" font-family="Helvetica,sans-Serif" font-size="10.00" fill="grey"> &lt; __I::Max&lt; D1::Caps,</text>
<text text-anchor="start" x="135" y="-417" font-family="Helvetica,sans-Serif" font-size="10.00" fill="grey"> D2::Caps &gt;::Res, D1</text>
<text text-anchor="start" x="135" y="-406" font-family="Helvetica,sans-Serif" font-size="10.00" fill="grey">::Flags|D2::Flags, __I</text>
<text text-anchor="start" x="135" y="-395" font-family="Helvetica,sans-Serif" font-size="10.00" fill="grey">::Max&lt; D1::Mem, D2::Mem</text>
<text text-anchor="start" x="135" y="-384" font-family="Helvetica,sans-Serif" font-size="10.00" fill="grey"> &gt;::Res, __I::Max&lt; D1::Ports,</text>
<text text-anchor="middle" x="205.5" y="-373" font-family="Helvetica,sans-Serif" font-size="10.00" fill="grey"> D2::Ports &gt;::Res &gt;</text>
</g>
</g>
</svg>
