<?xml version="1.0" encoding="UTF-8" standalone="no"?>
<!DOCTYPE svg PUBLIC "-//W3C//DTD SVG 1.1//EN"
 "http://www.w3.org/Graphics/SVG/1.1/DTD/svg11.dtd">
<!-- Generated by graphviz version 2.42.4 (0)
 -->
<!-- Title: L4virtio::Driver::Block_device::send_request Pages: 1 -->
<svg width="491pt" height="230pt"
 viewBox="0.00 0.00 491.00 230.00" xmlns="http://www.w3.org/2000/svg" xmlns:xlink="http://www.w3.org/1999/xlink">
<g id="graph0" class="graph" transform="scale(1 1) rotate(0) translate(4 226)">
<title>L4virtio::Driver::Block_device::send_request</title>
<!-- Node1 -->
<g id="Node000001" class="node">
<title>Node1</title>
<g id="a_Node000001"><a xlink:title="Process request asynchronously.">
<polygon fill="#999999" stroke="#666666" points="125,-126 0,-126 0,-96 125,-96 125,-126"/>
<text text-anchor="start" x="8" y="-114" font-family="Helvetica,sans-Serif" font-size="10.00">L4virtio::Driver::Block</text>
<text text-anchor="middle" x="62.5" y="-103" font-family="Helvetica,sans-Serif" font-size="10.00">_device::send_request</text>
</a>
</g>
</g>
<!-- Node2 -->
<g id="Node000002" class="node">
<title>Node2</title>
<g id="a_Node000002"><a xlink:href="classL4virtio_1_1Driver_1_1Virtqueue.html#a60e0cff278a11e1aeb749c17e809e093" target="_top" xlink:title="Allocate and return an unused descriptor from the descriptor table.">
<polygon fill="white" stroke="#666666" points="304,-222 161,-222 161,-192 304,-192 304,-222"/>
<text text-anchor="start" x="169" y="-210" font-family="Helvetica,sans-Serif" font-size="10.00">L4virtio::Driver::Virtqueue</text>
<text text-anchor="middle" x="232.5" y="-199" font-family="Helvetica,sans-Serif" font-size="10.00">::alloc_descriptor</text>
</a>
</g>
</g>
<!-- Node1&#45;&gt;Node2 -->
<g id="edge1_Node000001_Node000002" class="edge">
<title>Node1&#45;&gt;Node2</title>
<g id="a_edge1_Node000001_Node000002"><a xlink:title=" ">
<path fill="none" stroke="#63b8ff" d="M80.38,-126.01C99.01,-141.95 130.42,-167 161,-183 164.45,-184.8 168.05,-186.51 171.74,-188.13"/>
<polygon fill="#63b8ff" stroke="#63b8ff" points="170.44,-191.38 181.02,-191.94 173.1,-184.9 170.44,-191.38"/>
</a>
</g>
</g>
<!-- Node3 -->
<g id="Node000003" class="node">
<title>Node3</title>
<g id="a_Node000003"><a xlink:href="classL4virtio_1_1Driver_1_1Virtqueue.html#a9ebf7e4518d01a4dc17c5ee6c0e3025b" target="_top" xlink:title="Return a reference to a descriptor in the descriptor table.">
<polygon fill="white" stroke="#666666" points="304,-174 161,-174 161,-144 304,-144 304,-174"/>
<text text-anchor="start" x="169" y="-162" font-family="Helvetica,sans-Serif" font-size="10.00">L4virtio::Driver::Virtqueue</text>
<text text-anchor="middle" x="232.5" y="-151" font-family="Helvetica,sans-Serif" font-size="10.00">::desc</text>
</a>
</g>
</g>
<!-- Node1&#45;&gt;Node3 -->
<g id="edge2_Node000001_Node000003" class="edge">
<title>Node1&#45;&gt;Node3</title>
<g id="a_edge2_Node000001_Node000003"><a xlink:title=" ">
<path fill="none" stroke="#63b8ff" d="M116.2,-126.06C132.93,-130.84 151.59,-136.17 168.95,-141.13"/>
<polygon fill="#63b8ff" stroke="#63b8ff" points="168.41,-144.62 178.99,-144 170.34,-137.89 168.41,-144.62"/>
</a>
</g>
</g>
<!-- Node4 -->
<g id="Node000004" class="node">
<title>Node4</title>
<g id="a_Node000004"><a xlink:href="structL4virtio_1_1Virtqueue_1_1Desc_1_1Flags.html#a7412bbf6d83eccc67857cf7bddaf6897" target="_top" xlink:title="Get the next bits ( 0 to 0 ) of raw.">
<polygon fill="white" stroke="#666666" points="286,-126 179,-126 179,-96 286,-96 286,-126"/>
<text text-anchor="start" x="187" y="-114" font-family="Helvetica,sans-Serif" font-size="10.00">L4virtio::Virtqueue</text>
<text text-anchor="middle" x="232.5" y="-103" font-family="Helvetica,sans-Serif" font-size="10.00">::Desc::Flags::next</text>
</a>
</g>
</g>
<!-- Node1&#45;&gt;Node4 -->
<g id="edge3_Node000001_Node000004" class="edge">
<title>Node1&#45;&gt;Node4</title>
<g id="a_edge3_Node000001_Node000004"><a xlink:title=" ">
<path fill="none" stroke="#63b8ff" d="M125.1,-111C139.27,-111 154.35,-111 168.58,-111"/>
<polygon fill="#63b8ff" stroke="#63b8ff" points="168.75,-114.5 178.75,-111 168.75,-107.5 168.75,-114.5"/>
</a>
</g>
</g>
<!-- Node5 -->
<g id="Node000005" class="node">
<title>Node5</title>
<g id="a_Node000005"><a xlink:href="classL4virtio_1_1Driver_1_1Device.html#a72090d324268b51f3937197748c26853" target="_top" xlink:title="Send a request to the device.">
<polygon fill="white" stroke="#666666" points="297,-78 168,-78 168,-48 297,-48 297,-78"/>
<text text-anchor="start" x="176" y="-66" font-family="Helvetica,sans-Serif" font-size="10.00">L4virtio::Driver::Device</text>
<text text-anchor="middle" x="232.5" y="-55" font-family="Helvetica,sans-Serif" font-size="10.00">::send</text>
</a>
</g>
</g>
<!-- Node1&#45;&gt;Node5 -->
<g id="edge4_Node000001_Node000005" class="edge">
<title>Node1&#45;&gt;Node5</title>
<g id="a_edge4_Node000001_Node000005"><a xlink:title=" ">
<path fill="none" stroke="#63b8ff" d="M116.2,-95.94C132.93,-91.16 151.59,-85.83 168.95,-80.87"/>
<polygon fill="#63b8ff" stroke="#63b8ff" points="170.34,-84.11 178.99,-78 168.41,-77.38 170.34,-84.11"/>
</a>
</g>
</g>
<!-- Node7 -->
<g id="Node000007" class="node">
<title>Node7</title>
<g id="a_Node000007"><a xlink:href="structL4virtio_1_1Virtqueue_1_1Desc_1_1Flags.html#ae8a176bcd662bb1e50f08fe63147372b" target="_top" xlink:title="Get the write bits ( 1 to 1 ) of raw.">
<polygon fill="white" stroke="#666666" points="287.5,-30 177.5,-30 177.5,0 287.5,0 287.5,-30"/>
<text text-anchor="start" x="185.5" y="-18" font-family="Helvetica,sans-Serif" font-size="10.00">L4virtio::Virtqueue</text>
<text text-anchor="middle" x="232.5" y="-7" font-family="Helvetica,sans-Serif" font-size="10.00">::Desc::Flags::write</text>
</a>
</g>
</g>
<!-- Node1&#45;&gt;Node7 -->
<g id="edge6_Node000001_Node000007" class="edge">
<title>Node1&#45;&gt;Node7</title>
<g id="a_edge6_Node000001_Node000007"><a xlink:title=" ">
<path fill="none" stroke="#63b8ff" d="M80.38,-95.99C99.01,-80.05 130.42,-55 161,-39 164.45,-37.2 168.05,-35.49 171.74,-33.87"/>
<polygon fill="#63b8ff" stroke="#63b8ff" points="173.1,-37.1 181.02,-30.06 170.44,-30.62 173.1,-37.1"/>
</a>
</g>
</g>
<!-- Node6 -->
<g id="Node000006" class="node">
<title>Node6</title>
<g id="a_Node000006"><a xlink:href="classL4virtio_1_1Driver_1_1Virtqueue.html#a20a030dd769eddf44b6cb0bb07b84ee8" target="_top" xlink:title="Enqueue a descriptor in the available ring.">
<polygon fill="white" stroke="#666666" points="483,-78 340,-78 340,-48 483,-48 483,-78"/>
<text text-anchor="start" x="348" y="-66" font-family="Helvetica,sans-Serif" font-size="10.00">L4virtio::Driver::Virtqueue</text>
<text text-anchor="middle" x="411.5" y="-55" font-family="Helvetica,sans-Serif" font-size="10.00">::enqueue_descriptor</text>
</a>
</g>
</g>
<!-- Node5&#45;&gt;Node6 -->
<g id="edge5_Node000005_Node000006" class="edge">
<title>Node5&#45;&gt;Node6</title>
<g id="a_edge5_Node000005_Node000006"><a xlink:title=" ">
<path fill="none" stroke="#63b8ff" d="M297.4,-63C307.83,-63 318.76,-63 329.53,-63"/>
<polygon fill="#63b8ff" stroke="#63b8ff" points="329.8,-66.5 339.8,-63 329.8,-59.5 329.8,-66.5"/>
</a>
</g>
</g>
</g>
</svg>
