<?xml version="1.0" encoding="UTF-8" standalone="no"?>
<!DOCTYPE svg PUBLIC "-//W3C//DTD SVG 1.1//EN"
 "http://www.w3.org/Graphics/SVG/1.1/DTD/svg11.dtd">
<!-- Generated by graphviz version 2.43.0 (0)
 -->
<!-- Title: L4Re::Util::Object_registry Pages: 1 -->
<svg width="656pt" height="867pt"
 viewBox="0.00 0.00 656.00 867.00" xmlns="http://www.w3.org/2000/svg" xmlns:xlink="http://www.w3.org/1999/xlink">
<g id="graph0" class="graph" transform="scale(1 1) rotate(0) translate(4 863)">
<title>L4Re::Util::Object_registry</title>
<!-- Node1 -->
<g id="Node000001" class="node">
<title>Node1</title>
<g id="a_Node000001"><a xlink:title="A registry that manages server objects and their attached IPC gates for a single server loop for a sp...">
<polygon fill="#999999" stroke="transparent" points="351,-150 246,-150 246,0 351,0 351,-150"/>
<text text-anchor="start" x="256.5" y="-138" font-family="Helvetica,sans-Serif" font-size="10.00">L4Re::Util::Object</text>
<text text-anchor="start" x="277.5" y="-127" font-family="Helvetica,sans-Serif" font-size="10.00">_registry</text>
<text text-anchor="start" x="297" y="-112" font-family="Helvetica,sans-Serif" font-size="10.00"> </text>
<text text-anchor="start" x="250.5" y="-97" font-family="Helvetica,sans-Serif" font-size="10.00">+</text>
<text text-anchor="start" x="263.5" y="-97" font-family="Helvetica,sans-Serif" font-size="10.00">Object_registry()</text>
<text text-anchor="start" x="250.5" y="-82" font-family="Helvetica,sans-Serif" font-size="10.00">+</text>
<text text-anchor="start" x="263.5" y="-82" font-family="Helvetica,sans-Serif" font-size="10.00">Object_registry()</text>
<text text-anchor="start" x="250.5" y="-67" font-family="Helvetica,sans-Serif" font-size="10.00">+</text>
<text text-anchor="start" x="263.5" y="-67" font-family="Helvetica,sans-Serif" font-size="10.00">register_obj()</text>
<text text-anchor="start" x="250.5" y="-52" font-family="Helvetica,sans-Serif" font-size="10.00">+</text>
<text text-anchor="start" x="263.5" y="-52" font-family="Helvetica,sans-Serif" font-size="10.00">register_obj()</text>
<text text-anchor="start" x="250.5" y="-37" font-family="Helvetica,sans-Serif" font-size="10.00">+</text>
<text text-anchor="start" x="263.5" y="-37" font-family="Helvetica,sans-Serif" font-size="10.00">register_irq_obj()</text>
<text text-anchor="start" x="250.5" y="-22" font-family="Helvetica,sans-Serif" font-size="10.00">+</text>
<text text-anchor="start" x="263.5" y="-22" font-family="Helvetica,sans-Serif" font-size="10.00">register_obj()</text>
<text text-anchor="start" x="250.5" y="-7" font-family="Helvetica,sans-Serif" font-size="10.00">+</text>
<text text-anchor="start" x="263.5" y="-7" font-family="Helvetica,sans-Serif" font-size="10.00">unregister_obj()</text>
<polygon fill="#666666" stroke="#666666" points="246.5,-122 246.5,-122 351.5,-122 351.5,-122 246.5,-122"/>
<polygon fill="#666666" stroke="#666666" points="246.5,-107 246.5,-107 351.5,-107 351.5,-107 246.5,-107"/>
<polygon fill="none" stroke="#666666" points="246,0 246,-150 351,-150 351,0 246,0"/>
</a>
</g>
</g>
<!-- Node2 -->
<g id="Node000002" class="node">
<title>Node2</title>
<g id="a_Node000002"><a xlink:href="classL4_1_1Basic__registry.html" target="_top" xlink:title="This registry returns the corresponding server object based on the label of an Ipc_gate.">
<polygon fill="white" stroke="transparent" points="97,-311.5 0,-311.5 0,-247.5 97,-247.5 97,-311.5"/>
<text text-anchor="start" x="5.5" y="-299.5" font-family="Helvetica,sans-Serif" font-size="10.00">L4::Basic_registry</text>
<text text-anchor="start" x="47" y="-284.5" font-family="Helvetica,sans-Serif" font-size="10.00"> </text>
<text text-anchor="start" x="11" y="-269.5" font-family="Helvetica,sans-Serif" font-size="10.00">+</text>
<text text-anchor="start" x="30.5" y="-269.5" font-family="Helvetica,sans-Serif" font-size="10.00">find()</text>
<text text-anchor="start" x="11" y="-254.5" font-family="Helvetica,sans-Serif" font-size="10.00">+</text>
<text text-anchor="start" x="30.5" y="-254.5" font-family="Helvetica,sans-Serif" font-size="10.00">dispatch()</text>
<polygon fill="#666666" stroke="#666666" points="0.5,-294.5 0.5,-294.5 97.5,-294.5 97.5,-294.5 0.5,-294.5"/>
<polygon fill="#666666" stroke="#666666" points="0.5,-279.5 0.5,-279.5 97.5,-279.5 97.5,-279.5 0.5,-279.5"/>
<polygon fill="none" stroke="#666666" points="0,-247.5 0,-311.5 97,-311.5 97,-247.5 0,-247.5"/>
</a>
</g>
</g>
<!-- Node2&#45;&gt;Node1 -->
<g id="edge1_Node000001_Node000002" class="edge">
<title>Node2&#45;&gt;Node1</title>
<g id="a_edge1_Node000001_Node000002"><a xlink:title=" ">
<path fill="none" stroke="#63b8ff" d="M71.75,-238.62C81.13,-224.5 92.75,-209.12 105.5,-197 147.49,-157.08 204.62,-123.22 245.82,-101.56"/>
<polygon fill="none" stroke="#63b8ff" points="68.68,-236.91 66.21,-247.21 74.57,-240.71 68.68,-236.91"/>
</a>
</g>
</g>
<!-- Node3 -->
<g id="Node000003" class="node">
<title>Node3</title>
<g id="a_Node000003"><a xlink:href="classL4_1_1Registry__iface.html" target="_top" xlink:title="Abstract interface for object registries.">
<polygon fill="white" stroke="transparent" points="220,-334 115,-334 115,-225 220,-225 220,-334"/>
<text text-anchor="start" x="124" y="-321.5" font-family="Helvetica,sans-Serif" font-size="10.00">L4::Registry_iface</text>
<text text-anchor="start" x="166" y="-306.5" font-family="Helvetica,sans-Serif" font-size="10.00"> </text>
<text text-anchor="start" x="119.5" y="-291.5" font-family="Helvetica,sans-Serif" font-size="10.00">+</text>
<text text-anchor="start" x="132.5" y="-291.5" font-family="Helvetica,sans-Serif" font-size="10.00">register_obj()</text>
<text text-anchor="start" x="119.5" y="-276.5" font-family="Helvetica,sans-Serif" font-size="10.00">+</text>
<text text-anchor="start" x="132.5" y="-276.5" font-family="Helvetica,sans-Serif" font-size="10.00">register_obj()</text>
<text text-anchor="start" x="119.5" y="-261.5" font-family="Helvetica,sans-Serif" font-size="10.00">+</text>
<text text-anchor="start" x="132.5" y="-261.5" font-family="Helvetica,sans-Serif" font-size="10.00">register_irq_obj()</text>
<text text-anchor="start" x="119.5" y="-246.5" font-family="Helvetica,sans-Serif" font-size="10.00">+</text>
<text text-anchor="start" x="132.5" y="-246.5" font-family="Helvetica,sans-Serif" font-size="10.00">register_obj()</text>
<text text-anchor="start" x="119.5" y="-231.5" font-family="Helvetica,sans-Serif" font-size="10.00">+</text>
<text text-anchor="start" x="132.5" y="-231.5" font-family="Helvetica,sans-Serif" font-size="10.00">unregister_obj()</text>
<polygon fill="#666666" stroke="#666666" points="115.5,-316.5 115.5,-316.5 220.5,-316.5 220.5,-316.5 115.5,-316.5"/>
<polygon fill="#666666" stroke="#666666" points="115.5,-301.5 115.5,-301.5 220.5,-301.5 220.5,-301.5 115.5,-301.5"/>
<polygon fill="none" stroke="#666666" points="115,-225 115,-334 220,-334 220,-225 115,-225"/>
</a>
</g>
</g>
<!-- Node3&#45;&gt;Node1 -->
<g id="edge2_Node000001_Node000003" class="edge">
<title>Node3&#45;&gt;Node1</title>
<g id="a_edge2_Node000001_Node000003"><a xlink:title=" ">
<path fill="none" stroke="#63b8ff" d="M207.74,-216.29C221.25,-195.41 236.46,-171.9 250.51,-150.19"/>
<polygon fill="none" stroke="#63b8ff" points="204.75,-214.47 202.26,-224.77 210.63,-218.27 204.75,-214.47"/>
</a>
</g>
</g>
<!-- Node4 -->
<g id="Node000004" class="node">
<title>Node4</title>
<g id="a_Node000004"><a xlink:href="classL4_1_1Cap.html" target="_top" xlink:title=" ">
<polygon fill="white" stroke="transparent" points="358.5,-356.5 238.5,-356.5 238.5,-202.5 358.5,-202.5 358.5,-356.5"/>
<text text-anchor="start" x="243.5" y="-344.5" font-family="Helvetica,sans-Serif" font-size="10.00">L4::Cap&lt; L4::Thread &gt;</text>
<text text-anchor="start" x="296.5" y="-329.5" font-family="Helvetica,sans-Serif" font-size="10.00"> </text>
<text text-anchor="start" x="252" y="-314.5" font-family="Helvetica,sans-Serif" font-size="10.00">+</text>
<text text-anchor="start" x="274.5" y="-314.5" font-family="Helvetica,sans-Serif" font-size="10.00">Cap()</text>
<text text-anchor="start" x="252" y="-299.5" font-family="Helvetica,sans-Serif" font-size="10.00">+</text>
<text text-anchor="start" x="274.5" y="-299.5" font-family="Helvetica,sans-Serif" font-size="10.00">Cap()</text>
<text text-anchor="start" x="252" y="-284.5" font-family="Helvetica,sans-Serif" font-size="10.00">+</text>
<text text-anchor="start" x="274.5" y="-284.5" font-family="Helvetica,sans-Serif" font-size="10.00">Cap()</text>
<text text-anchor="start" x="252" y="-269.5" font-family="Helvetica,sans-Serif" font-size="10.00">+</text>
<text text-anchor="start" x="274.5" y="-269.5" font-family="Helvetica,sans-Serif" font-size="10.00">Cap()</text>
<text text-anchor="start" x="252" y="-254.5" font-family="Helvetica,sans-Serif" font-size="10.00">+</text>
<text text-anchor="start" x="274.5" y="-254.5" font-family="Helvetica,sans-Serif" font-size="10.00">Cap()</text>
<text text-anchor="start" x="252" y="-239.5" font-family="Helvetica,sans-Serif" font-size="10.00">+</text>
<text text-anchor="start" x="274.5" y="-239.5" font-family="Helvetica,sans-Serif" font-size="10.00">move()</text>
<text text-anchor="start" x="252" y="-224.5" font-family="Helvetica,sans-Serif" font-size="10.00">+</text>
<text text-anchor="start" x="274.5" y="-224.5" font-family="Helvetica,sans-Serif" font-size="10.00">copy()</text>
<text text-anchor="start" x="252" y="-209.5" font-family="Helvetica,sans-Serif" font-size="10.00">+</text>
<text text-anchor="start" x="274.5" y="-209.5" font-family="Helvetica,sans-Serif" font-size="10.00">operator&#45;&gt;()</text>
<polygon fill="#666666" stroke="#666666" points="238.5,-339.5 238.5,-339.5 358.5,-339.5 358.5,-339.5 238.5,-339.5"/>
<polygon fill="#666666" stroke="#666666" points="238.5,-324.5 238.5,-324.5 358.5,-324.5 358.5,-324.5 238.5,-324.5"/>
<polygon fill="none" stroke="#666666" points="238.5,-202.5 238.5,-356.5 358.5,-356.5 358.5,-202.5 238.5,-202.5"/>
</a>
</g>
</g>
<!-- Node4&#45;&gt;Node1 -->
<g id="edge3_Node000001_Node000004" class="edge">
<title>Node4&#45;&gt;Node1</title>
<g id="a_edge3_Node000001_Node000004"><a xlink:title=" ">
<path fill="none" stroke="#63b8ff" d="M298.5,-202.23C298.5,-189.18 298.5,-175.55 298.5,-162.26"/>
<polygon fill="none" stroke="#63b8ff" points="298.5,-162.19 294.5,-156.19 298.5,-150.19 302.5,-156.19 298.5,-162.19"/>
</a>
</g>
<text text-anchor="middle" x="322.5" y="-171" font-family="Helvetica,sans-Serif" font-size="10.00" fill="grey"> #_server</text>
</g>
<!-- Node5 -->
<g id="Node000005" class="node">
<title>Node5</title>
<g id="a_Node000005"><a xlink:href="classL4_1_1Cap__base.html" target="_top" xlink:title="Base class for all kinds of capabilities.">
<polygon fill="white" stroke="transparent" points="426,-859 339,-859 339,-600 426,-600 426,-859"/>
<text text-anchor="start" x="350.5" y="-846.5" font-family="Helvetica,sans-Serif" font-size="10.00">L4::Cap_base</text>
<text text-anchor="start" x="343.5" y="-831.5" font-family="Helvetica,sans-Serif" font-size="10.00">#</text>
<text text-anchor="start" x="356.5" y="-831.5" font-family="Helvetica,sans-Serif" font-size="10.00">_c</text>
<text text-anchor="start" x="343.5" y="-816.5" font-family="Helvetica,sans-Serif" font-size="10.00">+</text>
<text text-anchor="start" x="356.5" y="-816.5" font-family="Helvetica,sans-Serif" font-size="10.00">cap()</text>
<text text-anchor="start" x="343.5" y="-801.5" font-family="Helvetica,sans-Serif" font-size="10.00">+</text>
<text text-anchor="start" x="356.5" y="-801.5" font-family="Helvetica,sans-Serif" font-size="10.00">is_valid()</text>
<text text-anchor="start" x="343.5" y="-786.5" font-family="Helvetica,sans-Serif" font-size="10.00">+</text>
<text text-anchor="start" x="356.5" y="-786.5" font-family="Helvetica,sans-Serif" font-size="10.00">fpage()</text>
<text text-anchor="start" x="343.5" y="-771.5" font-family="Helvetica,sans-Serif" font-size="10.00">+</text>
<text text-anchor="start" x="356.5" y="-771.5" font-family="Helvetica,sans-Serif" font-size="10.00">snd_base()</text>
<text text-anchor="start" x="343.5" y="-756.5" font-family="Helvetica,sans-Serif" font-size="10.00">+</text>
<text text-anchor="start" x="356.5" y="-756.5" font-family="Helvetica,sans-Serif" font-size="10.00">operator==()</text>
<text text-anchor="start" x="343.5" y="-741.5" font-family="Helvetica,sans-Serif" font-size="10.00">+</text>
<text text-anchor="start" x="356.5" y="-741.5" font-family="Helvetica,sans-Serif" font-size="10.00">operator!=()</text>
<text text-anchor="start" x="343.5" y="-726.5" font-family="Helvetica,sans-Serif" font-size="10.00">+</text>
<text text-anchor="start" x="356.5" y="-726.5" font-family="Helvetica,sans-Serif" font-size="10.00">validate()</text>
<text text-anchor="start" x="343.5" y="-711.5" font-family="Helvetica,sans-Serif" font-size="10.00">+</text>
<text text-anchor="start" x="356.5" y="-711.5" font-family="Helvetica,sans-Serif" font-size="10.00">validate()</text>
<text text-anchor="start" x="343.5" y="-696.5" font-family="Helvetica,sans-Serif" font-size="10.00">+</text>
<text text-anchor="start" x="356.5" y="-696.5" font-family="Helvetica,sans-Serif" font-size="10.00">invalidate()</text>
<text text-anchor="start" x="343.5" y="-681.5" font-family="Helvetica,sans-Serif" font-size="10.00">#</text>
<text text-anchor="start" x="356.5" y="-681.5" font-family="Helvetica,sans-Serif" font-size="10.00">Cap_base()</text>
<text text-anchor="start" x="343.5" y="-666.5" font-family="Helvetica,sans-Serif" font-size="10.00">#</text>
<text text-anchor="start" x="356.5" y="-666.5" font-family="Helvetica,sans-Serif" font-size="10.00">Cap_base()</text>
<text text-anchor="start" x="343.5" y="-651.5" font-family="Helvetica,sans-Serif" font-size="10.00">#</text>
<text text-anchor="start" x="356.5" y="-651.5" font-family="Helvetica,sans-Serif" font-size="10.00">Cap_base()</text>
<text text-anchor="start" x="343.5" y="-636.5" font-family="Helvetica,sans-Serif" font-size="10.00">#</text>
<text text-anchor="start" x="356.5" y="-636.5" font-family="Helvetica,sans-Serif" font-size="10.00">Cap_base()</text>
<text text-anchor="start" x="343.5" y="-621.5" font-family="Helvetica,sans-Serif" font-size="10.00">#</text>
<text text-anchor="start" x="356.5" y="-621.5" font-family="Helvetica,sans-Serif" font-size="10.00">move()</text>
<text text-anchor="start" x="343.5" y="-606.5" font-family="Helvetica,sans-Serif" font-size="10.00">#</text>
<text text-anchor="start" x="356.5" y="-606.5" font-family="Helvetica,sans-Serif" font-size="10.00">copy()</text>
<polygon fill="#666666" stroke="#666666" points="339.5,-841.5 339.5,-841.5 426.5,-841.5 426.5,-841.5 339.5,-841.5"/>
<polygon fill="#666666" stroke="#666666" points="339.5,-826.5 339.5,-826.5 354.5,-826.5 354.5,-826.5 339.5,-826.5"/>
<polygon fill="#666666" stroke="#666666" points="354.5,-826.5 354.5,-826.5 426.5,-826.5 426.5,-826.5 354.5,-826.5"/>
<polygon fill="none" stroke="#666666" points="339,-600 339,-859 426,-859 426,-600 339,-600"/>
</a>
</g>
</g>
<!-- Node5&#45;&gt;Node4 -->
<g id="edge4_Node000004_Node000005" class="edge">
<title>Node5&#45;&gt;Node4</title>
<g id="a_edge4_Node000004_Node000005"><a xlink:title=" ">
<path fill="none" stroke="#63b8ff" d="M338.74,-589.99C336.46,-580.9 334.35,-571.85 332.5,-563 318.01,-493.86 309.1,-413.82 304.06,-356.62"/>
<polygon fill="none" stroke="#63b8ff" points="335.4,-591.05 341.28,-599.86 342.18,-589.31 335.4,-591.05"/>
</a>
</g>
</g>
<!-- Node6 -->
<g id="Node000006" class="node">
<title>Node6</title>
<g id="a_Node000006"><a xlink:href="classL4_1_1Cap.html" target="_top" xlink:title="C++ interface for capabilities.">
<polygon fill="white" stroke="transparent" points="423.5,-563 341.5,-563 341.5,-409 423.5,-409 423.5,-563"/>
<text text-anchor="start" x="350" y="-551" font-family="Helvetica,sans-Serif" font-size="10.00">L4::Cap&lt; T &gt;</text>
<text text-anchor="start" x="380.5" y="-536" font-family="Helvetica,sans-Serif" font-size="10.00"> </text>
<text text-anchor="start" x="345.5" y="-521" font-family="Helvetica,sans-Serif" font-size="10.00">+</text>
<text text-anchor="start" x="358.5" y="-521" font-family="Helvetica,sans-Serif" font-size="10.00">Cap()</text>
<text text-anchor="start" x="345.5" y="-506" font-family="Helvetica,sans-Serif" font-size="10.00">+</text>
<text text-anchor="start" x="358.5" y="-506" font-family="Helvetica,sans-Serif" font-size="10.00">Cap()</text>
<text text-anchor="start" x="345.5" y="-491" font-family="Helvetica,sans-Serif" font-size="10.00">+</text>
<text text-anchor="start" x="358.5" y="-491" font-family="Helvetica,sans-Serif" font-size="10.00">Cap()</text>
<text text-anchor="start" x="345.5" y="-476" font-family="Helvetica,sans-Serif" font-size="10.00">+</text>
<text text-anchor="start" x="358.5" y="-476" font-family="Helvetica,sans-Serif" font-size="10.00">Cap()</text>
<text text-anchor="start" x="345.5" y="-461" font-family="Helvetica,sans-Serif" font-size="10.00">+</text>
<text text-anchor="start" x="358.5" y="-461" font-family="Helvetica,sans-Serif" font-size="10.00">Cap()</text>
<text text-anchor="start" x="345.5" y="-446" font-family="Helvetica,sans-Serif" font-size="10.00">+</text>
<text text-anchor="start" x="358.5" y="-446" font-family="Helvetica,sans-Serif" font-size="10.00">move()</text>
<text text-anchor="start" x="345.5" y="-431" font-family="Helvetica,sans-Serif" font-size="10.00">+</text>
<text text-anchor="start" x="358.5" y="-431" font-family="Helvetica,sans-Serif" font-size="10.00">copy()</text>
<text text-anchor="start" x="345.5" y="-416" font-family="Helvetica,sans-Serif" font-size="10.00">+</text>
<text text-anchor="start" x="358.5" y="-416" font-family="Helvetica,sans-Serif" font-size="10.00">operator&#45;&gt;()</text>
<polygon fill="#666666" stroke="#666666" points="341.5,-546 341.5,-546 423.5,-546 423.5,-546 341.5,-546"/>
<polygon fill="#666666" stroke="#666666" points="341.5,-531 341.5,-531 423.5,-531 423.5,-531 341.5,-531"/>
<polygon fill="none" stroke="#666666" points="341.5,-409 341.5,-563 423.5,-563 423.5,-409 341.5,-409"/>
</a>
</g>
</g>
<!-- Node5&#45;&gt;Node6 -->
<g id="edge6_Node000006_Node000005" class="edge">
<title>Node5&#45;&gt;Node6</title>
<g id="a_edge6_Node000006_Node000005"><a xlink:title=" ">
<path fill="none" stroke="#63b8ff" d="M382.5,-589.95C382.5,-580.76 382.5,-571.71 382.5,-563.02"/>
<polygon fill="none" stroke="#63b8ff" points="379,-589.97 382.5,-599.97 386,-589.97 379,-589.97"/>
</a>
</g>
</g>
<!-- Node7 -->
<g id="Node000007" class="node">
<title>Node7</title>
<g id="a_Node000007"><a xlink:href="classL4_1_1Cap.html" target="_top" xlink:title=" ">
<polygon fill="white" stroke="transparent" points="498.5,-356.5 376.5,-356.5 376.5,-202.5 498.5,-202.5 498.5,-356.5"/>
<text text-anchor="start" x="381.5" y="-344.5" font-family="Helvetica,sans-Serif" font-size="10.00">L4::Cap&lt; L4::Factory &gt;</text>
<text text-anchor="start" x="435.5" y="-329.5" font-family="Helvetica,sans-Serif" font-size="10.00"> </text>
<text text-anchor="start" x="390.5" y="-314.5" font-family="Helvetica,sans-Serif" font-size="10.00">+</text>
<text text-anchor="start" x="413.5" y="-314.5" font-family="Helvetica,sans-Serif" font-size="10.00">Cap()</text>
<text text-anchor="start" x="390.5" y="-299.5" font-family="Helvetica,sans-Serif" font-size="10.00">+</text>
<text text-anchor="start" x="413.5" y="-299.5" font-family="Helvetica,sans-Serif" font-size="10.00">Cap()</text>
<text text-anchor="start" x="390.5" y="-284.5" font-family="Helvetica,sans-Serif" font-size="10.00">+</text>
<text text-anchor="start" x="413.5" y="-284.5" font-family="Helvetica,sans-Serif" font-size="10.00">Cap()</text>
<text text-anchor="start" x="390.5" y="-269.5" font-family="Helvetica,sans-Serif" font-size="10.00">+</text>
<text text-anchor="start" x="413.5" y="-269.5" font-family="Helvetica,sans-Serif" font-size="10.00">Cap()</text>
<text text-anchor="start" x="390.5" y="-254.5" font-family="Helvetica,sans-Serif" font-size="10.00">+</text>
<text text-anchor="start" x="413.5" y="-254.5" font-family="Helvetica,sans-Serif" font-size="10.00">Cap()</text>
<text text-anchor="start" x="390.5" y="-239.5" font-family="Helvetica,sans-Serif" font-size="10.00">+</text>
<text text-anchor="start" x="413.5" y="-239.5" font-family="Helvetica,sans-Serif" font-size="10.00">move()</text>
<text text-anchor="start" x="390.5" y="-224.5" font-family="Helvetica,sans-Serif" font-size="10.00">+</text>
<text text-anchor="start" x="413.5" y="-224.5" font-family="Helvetica,sans-Serif" font-size="10.00">copy()</text>
<text text-anchor="start" x="390.5" y="-209.5" font-family="Helvetica,sans-Serif" font-size="10.00">+</text>
<text text-anchor="start" x="413.5" y="-209.5" font-family="Helvetica,sans-Serif" font-size="10.00">operator&#45;&gt;()</text>
<polygon fill="#666666" stroke="#666666" points="376.5,-339.5 376.5,-339.5 498.5,-339.5 498.5,-339.5 376.5,-339.5"/>
<polygon fill="#666666" stroke="#666666" points="376.5,-324.5 376.5,-324.5 498.5,-324.5 498.5,-324.5 376.5,-324.5"/>
<polygon fill="none" stroke="#666666" points="376.5,-202.5 376.5,-356.5 498.5,-356.5 498.5,-202.5 376.5,-202.5"/>
</a>
</g>
</g>
<!-- Node5&#45;&gt;Node7 -->
<g id="edge8_Node000007_Node000005" class="edge">
<title>Node5&#45;&gt;Node7</title>
<g id="a_edge8_Node000007_Node000005"><a xlink:title=" ">
<path fill="none" stroke="#63b8ff" d="M429.61,-614.47C453.66,-550.09 480.36,-467.43 492.5,-391 494.33,-379.47 492.89,-367.83 489.49,-356.67"/>
<polygon fill="none" stroke="#63b8ff" points="426.33,-613.24 426.08,-623.83 432.88,-615.71 426.33,-613.24"/>
</a>
</g>
</g>
<!-- Node6&#45;&gt;Node4 -->
<g id="edge5_Node000004_Node000006" class="edge">
<title>Node6&#45;&gt;Node4</title>
<g id="a_edge5_Node000004_Node000006"><a xlink:title=" ">
<path fill="none" stroke="orange" d="M336.6,-412.57C332.91,-405.42 329.46,-398.16 326.5,-391 321.99,-380.12 318.07,-368.33 314.7,-356.64"/>
<polygon fill="orange" stroke="orange" points="333.59,-414.38 341.39,-421.56 339.77,-411.09 333.59,-414.38"/>
</a>
</g>
<text text-anchor="middle" x="365" y="-383" font-family="Helvetica,sans-Serif" font-size="10.00" fill="grey"> &lt; L4::Thread &gt;</text>
</g>
<!-- Node6&#45;&gt;Node7 -->
<g id="edge9_Node000007_Node000006" class="edge">
<title>Node6&#45;&gt;Node7</title>
<g id="a_edge9_Node000007_Node000006"><a xlink:title=" ">
<path fill="none" stroke="orange" d="M405.58,-399.17C409.37,-385.08 413.28,-370.55 417,-356.71"/>
<polygon fill="orange" stroke="orange" points="402.2,-398.29 402.98,-408.85 408.96,-400.1 402.2,-398.29"/>
</a>
</g>
<text text-anchor="middle" x="449" y="-383" font-family="Helvetica,sans-Serif" font-size="10.00" fill="grey"> &lt; L4::Factory &gt;</text>
</g>
<!-- Node7&#45;&gt;Node1 -->
<g id="edge7_Node000001_Node000007" class="edge">
<title>Node7&#45;&gt;Node1</title>
<g id="a_edge7_Node000001_Node000007"><a xlink:title=" ">
<path fill="none" stroke="#63b8ff" d="M385.15,-202.23C375.74,-188.52 365.87,-174.15 356.32,-160.23"/>
<polygon fill="none" stroke="#63b8ff" points="356.21,-160.08 349.52,-157.4 349.42,-150.19 356.12,-152.87 356.21,-160.08"/>
</a>
</g>
<text text-anchor="middle" x="394.5" y="-171" font-family="Helvetica,sans-Serif" font-size="10.00" fill="grey"> #_factory</text>
</g>
<!-- Node8 -->
<g id="Node000008" class="node">
<title>Node8</title>
<g id="a_Node000008"><a xlink:href="classL4_1_1Ipc__svr_1_1Server__iface.html" target="_top" xlink:title="Interface for server&#45;loop related functions.">
<polygon fill="white" stroke="transparent" points="648,-362 517,-362 517,-197 648,-197 648,-362"/>
<text text-anchor="start" x="538" y="-349.5" font-family="Helvetica,sans-Serif" font-size="10.00">L4::Ipc_svr::Server</text>
<text text-anchor="start" x="568" y="-338.5" font-family="Helvetica,sans-Serif" font-size="10.00">_iface</text>
<text text-anchor="start" x="581" y="-323.5" font-family="Helvetica,sans-Serif" font-size="10.00"> </text>
<text text-anchor="start" x="521.5" y="-308.5" font-family="Helvetica,sans-Serif" font-size="10.00">+</text>
<text text-anchor="start" x="534.5" y="-308.5" font-family="Helvetica,sans-Serif" font-size="10.00">Server_iface()</text>
<text text-anchor="start" x="521.5" y="-293.5" font-family="Helvetica,sans-Serif" font-size="10.00">+</text>
<text text-anchor="start" x="534.5" y="-293.5" font-family="Helvetica,sans-Serif" font-size="10.00">alloc_buffer_demand()</text>
<text text-anchor="start" x="521.5" y="-278.5" font-family="Helvetica,sans-Serif" font-size="10.00">+</text>
<text text-anchor="start" x="534.5" y="-278.5" font-family="Helvetica,sans-Serif" font-size="10.00">get_rcv_cap()</text>
<text text-anchor="start" x="521.5" y="-263.5" font-family="Helvetica,sans-Serif" font-size="10.00">+</text>
<text text-anchor="start" x="534.5" y="-263.5" font-family="Helvetica,sans-Serif" font-size="10.00">realloc_rcv_cap()</text>
<text text-anchor="start" x="521.5" y="-248.5" font-family="Helvetica,sans-Serif" font-size="10.00">+</text>
<text text-anchor="start" x="534.5" y="-248.5" font-family="Helvetica,sans-Serif" font-size="10.00">add_timeout()</text>
<text text-anchor="start" x="521.5" y="-233.5" font-family="Helvetica,sans-Serif" font-size="10.00">+</text>
<text text-anchor="start" x="534.5" y="-233.5" font-family="Helvetica,sans-Serif" font-size="10.00">remove_timeout()</text>
<text text-anchor="start" x="521.5" y="-218.5" font-family="Helvetica,sans-Serif" font-size="10.00">+</text>
<text text-anchor="start" x="534.5" y="-218.5" font-family="Helvetica,sans-Serif" font-size="10.00">rcv_cap()</text>
<text text-anchor="start" x="521.5" y="-203.5" font-family="Helvetica,sans-Serif" font-size="10.00">+</text>
<text text-anchor="start" x="534.5" y="-203.5" font-family="Helvetica,sans-Serif" font-size="10.00">rcv_cap()</text>
<polygon fill="#666666" stroke="#666666" points="517.5,-333.5 517.5,-333.5 648.5,-333.5 648.5,-333.5 517.5,-333.5"/>
<polygon fill="#666666" stroke="#666666" points="517.5,-318.5 517.5,-318.5 648.5,-318.5 648.5,-318.5 517.5,-318.5"/>
<polygon fill="none" stroke="#666666" points="517,-197 517,-362 648,-362 648,-197 517,-197"/>
</a>
</g>
</g>
<!-- Node8&#45;&gt;Node1 -->
<g id="edge10_Node000001_Node000008" class="edge">
<title>Node8&#45;&gt;Node1</title>
<g id="a_edge10_Node000001_Node000008"><a xlink:title=" ">
<path fill="none" stroke="#63b8ff" d="M516.9,-204.94C513.79,-202.19 510.65,-199.53 507.5,-197 462.36,-160.81 405.16,-128.48 362.02,-106.36"/>
<polygon fill="none" stroke="#63b8ff" points="361.79,-106.25 354.63,-107.1 351.09,-100.82 358.25,-99.97 361.79,-106.25"/>
</a>
</g>
<text text-anchor="middle" x="495" y="-171" font-family="Helvetica,sans-Serif" font-size="10.00" fill="grey"> #_sif</text>
</g>
</g>
</svg>
