<?xml version="1.0" encoding="UTF-8" standalone="no"?>
<!DOCTYPE svg PUBLIC "-//W3C//DTD SVG 1.1//EN"
 "http://www.w3.org/Graphics/SVG/1.1/DTD/svg11.dtd">
<!-- Generated by graphviz version 2.42.4 (0)
 -->
<!-- Title: L4Re::Util::Counting_cap_alloc::release Pages: 1 -->
<svg width="336pt" height="38pt"
 viewBox="0.00 0.00 336.00 38.00" xmlns="http://www.w3.org/2000/svg" xmlns:xlink="http://www.w3.org/1999/xlink">
<g id="graph0" class="graph" transform="scale(1 1) rotate(0) translate(4 34)">
<title>L4Re::Util::Counting_cap_alloc::release</title>
<!-- Node1 -->
<g id="Node000001" class="node">
<title>Node1</title>
<g id="a_Node000001"><a xlink:title="Decrease the reference counter for a capability.">
<polygon fill="#999999" stroke="#666666" points="113,-30 0,-30 0,0 113,0 113,-30"/>
<text text-anchor="start" x="8" y="-18" font-family="Helvetica,sans-Serif" font-size="10.00">L4Re::Util::Counting</text>
<text text-anchor="middle" x="56.5" y="-7" font-family="Helvetica,sans-Serif" font-size="10.00">_cap_alloc::release</text>
</a>
</g>
</g>
<!-- Node2 -->
<g id="Node000002" class="node">
<title>Node2</title>
<g id="a_Node000002"><a xlink:href="group__l4__task__api.html#gaa5558855716b35c1790b61249cf2974b" target="_top" xlink:title="Revoke rights from the task.">
<polygon fill="white" stroke="#666666" points="240,-24.5 149,-24.5 149,-5.5 240,-5.5 240,-24.5"/>
<text text-anchor="middle" x="194.5" y="-12.5" font-family="Helvetica,sans-Serif" font-size="10.00">l4_task_unmap</text>
</a>
</g>
</g>
<!-- Node1&#45;&gt;Node2 -->
<g id="edge1_Node000001_Node000002" class="edge">
<title>Node1&#45;&gt;Node2</title>
<g id="a_edge1_Node000001_Node000002"><a xlink:title=" ">
<path fill="none" stroke="#63b8ff" d="M113.21,-15C121.66,-15 130.37,-15 138.79,-15"/>
<polygon fill="#63b8ff" stroke="#63b8ff" points="138.9,-18.5 148.9,-15 138.9,-11.5 138.9,-18.5"/>
</a>
</g>
</g>
<!-- Node3 -->
<g id="Node000003" class="node">
<title>Node3</title>
<g id="a_Node000003"><a xlink:href="group__l4__utcb__api.html#gadc099b4a59e1d99638c72c11a8c8b644" target="_top" xlink:title="Get the UTCB address.">
<polygon fill="white" stroke="#666666" points="328,-24.5 276,-24.5 276,-5.5 328,-5.5 328,-24.5"/>
<text text-anchor="middle" x="302" y="-12.5" font-family="Helvetica,sans-Serif" font-size="10.00">l4_utcb</text>
</a>
</g>
</g>
<!-- Node2&#45;&gt;Node3 -->
<g id="edge2_Node000002_Node000003" class="edge">
<title>Node2&#45;&gt;Node3</title>
<g id="a_edge2_Node000002_Node000003"><a xlink:title=" ">
<path fill="none" stroke="#63b8ff" d="M240.24,-15C248.68,-15 257.39,-15 265.49,-15"/>
<polygon fill="#63b8ff" stroke="#63b8ff" points="265.72,-18.5 275.72,-15 265.72,-11.5 265.72,-18.5"/>
</a>
</g>
</g>
</g>
</svg>
