<?xml version="1.0" encoding="UTF-8" standalone="no"?>
<!DOCTYPE svg PUBLIC "-//W3C//DTD SVG 1.1//EN"
 "http://www.w3.org/Graphics/SVG/1.1/DTD/svg11.dtd">
<!-- Generated by graphviz version 2.42.4 (0)
 -->
<!-- Title: L4Re::Dataspace Pages: 1 -->
<svg width="318pt" height="455pt"
 viewBox="0.00 0.00 318.00 455.00" xmlns="http://www.w3.org/2000/svg" xmlns:xlink="http://www.w3.org/1999/xlink">
<g id="graph0" class="graph" transform="scale(1 1) rotate(0) translate(4 451)">
<title>L4Re::Dataspace</title>
<!-- Node1 -->
<g id="Node000001" class="node">
<title>Node1</title>
<g id="a_Node000001"><a xlink:title="Interface for memory&#45;like objects.">
<polygon fill="#999999" stroke="transparent" points="152,-169 60,-169 60,0 152,0 152,-169"/>
<text text-anchor="start" x="65" y="-156.5" font-family="Helvetica,sans-Serif" font-size="10.00">L4Re::Dataspace</text>
<text text-anchor="start" x="104" y="-141.5" font-family="Helvetica,sans-Serif" font-size="10.00"> </text>
<text text-anchor="start" x="65" y="-126.5" font-family="Helvetica,sans-Serif" font-size="10.00">+</text>
<text text-anchor="start" x="79" y="-126.5" font-family="Helvetica,sans-Serif" font-size="10.00">map()</text>
<text text-anchor="start" x="65" y="-111.5" font-family="Helvetica,sans-Serif" font-size="10.00">+</text>
<text text-anchor="start" x="79" y="-111.5" font-family="Helvetica,sans-Serif" font-size="10.00">map_region()</text>
<text text-anchor="start" x="65" y="-96.5" font-family="Helvetica,sans-Serif" font-size="10.00">+</text>
<text text-anchor="start" x="79" y="-96.5" font-family="Helvetica,sans-Serif" font-size="10.00">clear()</text>
<text text-anchor="start" x="65" y="-81.5" font-family="Helvetica,sans-Serif" font-size="10.00">+</text>
<text text-anchor="start" x="79" y="-81.5" font-family="Helvetica,sans-Serif" font-size="10.00">allocate()</text>
<text text-anchor="start" x="65" y="-66.5" font-family="Helvetica,sans-Serif" font-size="10.00">+</text>
<text text-anchor="start" x="79" y="-66.5" font-family="Helvetica,sans-Serif" font-size="10.00">copy_in()</text>
<text text-anchor="start" x="65" y="-51.5" font-family="Helvetica,sans-Serif" font-size="10.00">+</text>
<text text-anchor="start" x="79" y="-51.5" font-family="Helvetica,sans-Serif" font-size="10.00">size()</text>
<text text-anchor="start" x="65" y="-36.5" font-family="Helvetica,sans-Serif" font-size="10.00">+</text>
<text text-anchor="start" x="79" y="-36.5" font-family="Helvetica,sans-Serif" font-size="10.00">flags()</text>
<text text-anchor="start" x="65" y="-21.5" font-family="Helvetica,sans-Serif" font-size="10.00">+</text>
<text text-anchor="start" x="79" y="-21.5" font-family="Helvetica,sans-Serif" font-size="10.00">info()</text>
<text text-anchor="start" x="65" y="-6.5" font-family="Helvetica,sans-Serif" font-size="10.00">+</text>
<text text-anchor="start" x="79" y="-6.5" font-family="Helvetica,sans-Serif" font-size="10.00">map_info()</text>
<polygon fill="#666666" stroke="#666666" points="60,-151.5 60,-151.5 152,-151.5 152,-151.5 60,-151.5"/>
<polygon fill="#666666" stroke="#666666" points="60,-136.5 60,-136.5 152,-136.5 152,-136.5 60,-136.5"/>
<polygon fill="none" stroke="#666666" points="60,0 60,-169 152,-169 152,0 60,0"/>
</a>
</g>
</g>
<!-- Node2 -->
<g id="Node000002" class="node">
<title>Node2</title>
<g id="a_Node000002"><a xlink:href="classL4_1_1Kobject__t.html" target="_top" xlink:title=" ">
<polygon fill="white" stroke="transparent" points="177,-303 35,-303 35,-206 177,-206 177,-303"/>
<text text-anchor="start" x="40" y="-290.5" font-family="Helvetica,sans-Serif" font-size="10.00">L4::Kobject_t&lt; Dataspace,</text>
<text text-anchor="start" x="40" y="-279.5" font-family="Helvetica,sans-Serif" font-size="10.00"> L4::Kobject, L4RE_PROTO</text>
<text text-anchor="start" x="40" y="-268.5" font-family="Helvetica,sans-Serif" font-size="10.00">_DATASPACE, L4::Type_info</text>
<text text-anchor="start" x="57.5" y="-257.5" font-family="Helvetica,sans-Serif" font-size="10.00">::Demand_t&lt; 1 &gt; &gt;</text>
<text text-anchor="start" x="104" y="-242.5" font-family="Helvetica,sans-Serif" font-size="10.00"> </text>
<text text-anchor="start" x="42" y="-227.5" font-family="Helvetica,sans-Serif" font-size="10.00">#</text>
<text text-anchor="start" x="58" y="-227.5" font-family="Helvetica,sans-Serif" font-size="10.00">c()</text>
<text text-anchor="start" x="42" y="-212.5" font-family="Helvetica,sans-Serif" font-size="10.00">#</text>
<text text-anchor="start" x="58" y="-212.5" font-family="Helvetica,sans-Serif" font-size="10.00">__check_protocols__()</text>
<polygon fill="#666666" stroke="#666666" points="35,-252.5 35,-252.5 177,-252.5 177,-252.5 35,-252.5"/>
<polygon fill="#666666" stroke="#666666" points="35,-237.5 35,-237.5 177,-237.5 177,-237.5 35,-237.5"/>
<polygon fill="none" stroke="#666666" points="35,-206 35,-303 177,-303 177,-206 35,-206"/>
</a>
</g>
</g>
<!-- Node2&#45;&gt;Node1 -->
<g id="edge1_Node000001_Node000002" class="edge">
<title>Node2&#45;&gt;Node1</title>
<g id="a_edge1_Node000001_Node000002"><a xlink:title=" ">
<path fill="none" stroke="#63b8ff" d="M106,-195.63C106,-187.1 106,-178.17 106,-169.25"/>
<polygon fill="none" stroke="#63b8ff" points="102.5,-195.81 106,-205.81 109.5,-195.81 102.5,-195.81"/>
</a>
</g>
</g>
<!-- Node3 -->
<g id="Node000003" class="node">
<title>Node3</title>
<g id="a_Node000003"><a xlink:href="classL4_1_1Kobject.html" target="_top" xlink:title="Base class for all kinds of kernel objects and remote objects, referenced by capabilities.">
<polygon fill="white" stroke="transparent" points="80,-441.5 0,-441.5 0,-377.5 80,-377.5 80,-441.5"/>
<text text-anchor="start" x="13" y="-429.5" font-family="Helvetica,sans-Serif" font-size="10.00">L4::Kobject</text>
<text text-anchor="start" x="38" y="-414.5" font-family="Helvetica,sans-Serif" font-size="10.00"> </text>
<text text-anchor="start" x="4" y="-399.5" font-family="Helvetica,sans-Serif" font-size="10.00">+</text>
<text text-anchor="start" x="17" y="-399.5" font-family="Helvetica,sans-Serif" font-size="10.00">dec_refcnt()</text>
<text text-anchor="start" x="4" y="-384.5" font-family="Helvetica,sans-Serif" font-size="10.00">#</text>
<text text-anchor="start" x="17" y="-384.5" font-family="Helvetica,sans-Serif" font-size="10.00">cap()</text>
<polygon fill="#666666" stroke="#666666" points="0,-424.5 0,-424.5 80,-424.5 80,-424.5 0,-424.5"/>
<polygon fill="#666666" stroke="#666666" points="0,-409.5 0,-409.5 80,-409.5 80,-409.5 0,-409.5"/>
<polygon fill="none" stroke="#666666" points="0,-377.5 0,-441.5 80,-441.5 80,-377.5 0,-377.5"/>
</a>
</g>
</g>
<!-- Node3&#45;&gt;Node2 -->
<g id="edge2_Node000002_Node000003" class="edge">
<title>Node3&#45;&gt;Node2</title>
<g id="a_edge2_Node000002_Node000003"><a xlink:title=" ">
<path fill="none" stroke="#63b8ff" d="M57.57,-367.77C66.15,-347.87 76.53,-323.81 85.48,-303.07"/>
<polygon fill="none" stroke="#63b8ff" points="54.26,-366.6 53.52,-377.17 60.69,-369.37 54.26,-366.6"/>
</a>
</g>
</g>
<!-- Node4 -->
<g id="Node000004" class="node">
<title>Node4</title>
<g id="a_Node000004"><a xlink:href="classL4_1_1Kobject__t.html" target="_top" xlink:title="Helper class to create an L4Re interface class that is derived from a single base class.">
<polygon fill="white" stroke="transparent" points="248,-447 98,-447 98,-372 248,-372 248,-447"/>
<text text-anchor="start" x="103" y="-434.5" font-family="Helvetica,sans-Serif" font-size="10.00">L4::Kobject_t&lt; Derived,</text>
<text text-anchor="start" x="103" y="-423.5" font-family="Helvetica,sans-Serif" font-size="10.00"> Base, PROTO, S_DEMAND &gt;</text>
<text text-anchor="start" x="171" y="-408.5" font-family="Helvetica,sans-Serif" font-size="10.00"> </text>
<text text-anchor="start" x="107" y="-393.5" font-family="Helvetica,sans-Serif" font-size="10.00">#</text>
<text text-anchor="start" x="125" y="-393.5" font-family="Helvetica,sans-Serif" font-size="10.00">c()</text>
<text text-anchor="start" x="107" y="-378.5" font-family="Helvetica,sans-Serif" font-size="10.00">#</text>
<text text-anchor="start" x="125" y="-378.5" font-family="Helvetica,sans-Serif" font-size="10.00">__check_protocols__()</text>
<polygon fill="#666666" stroke="#666666" points="98,-418.5 98,-418.5 248,-418.5 248,-418.5 98,-418.5"/>
<polygon fill="#666666" stroke="#666666" points="98,-403.5 98,-403.5 248,-403.5 248,-403.5 98,-403.5"/>
<polygon fill="none" stroke="#666666" points="98,-372 98,-447 248,-447 248,-372 98,-372"/>
</a>
</g>
</g>
<!-- Node4&#45;&gt;Node2 -->
<g id="edge3_Node000002_Node000004" class="edge">
<title>Node4&#45;&gt;Node2</title>
<g id="a_edge3_Node000002_Node000004"><a xlink:title=" ">
<path fill="none" stroke="orange" d="M152.91,-362.61C144.68,-343.83 135.17,-322.1 126.86,-303.15"/>
<polygon fill="orange" stroke="orange" points="149.73,-364.1 156.95,-371.85 156.15,-361.29 149.73,-364.1"/>
</a>
</g>
<text text-anchor="start" x="147" y="-346" font-family="Helvetica,sans-Serif" font-size="10.00" fill="grey"> &lt; Dataspace, L4::Kobject,</text>
<text text-anchor="start" x="147" y="-335" font-family="Helvetica,sans-Serif" font-size="10.00" fill="grey"> L4RE_PROTO_DATASPACE,</text>
<text text-anchor="middle" x="228.5" y="-324" font-family="Helvetica,sans-Serif" font-size="10.00" fill="grey"> L4::Type_info::Demand_t&lt; 1 &gt; &gt;</text>
</g>
</g>
</svg>
