<?xml version="1.0" encoding="UTF-8" standalone="no"?>
<!DOCTYPE svg PUBLIC "-//W3C//DTD SVG 1.1//EN"
 "http://www.w3.org/Graphics/SVG/1.1/DTD/svg11.dtd">
<!-- Generated by graphviz version 2.42.4 (0)
 -->
<!-- Title: L4virtio::Svr::Virtqueue Pages: 1 -->
<svg width="130pt" height="637pt"
 viewBox="0.00 0.00 130.00 637.00" xmlns="http://www.w3.org/2000/svg" xmlns:xlink="http://www.w3.org/1999/xlink">
<g id="graph0" class="graph" transform="scale(1 1) rotate(0) translate(4 633)">
<title>L4virtio::Svr::Virtqueue</title>
<!-- Node1 -->
<g id="Node000001" class="node">
<title>Node1</title>
<g id="a_Node000001"><a xlink:title="Virtqueue implementation for the device.">
<polygon fill="#999999" stroke="transparent" points="122,-169 0,-169 0,0 122,0 122,-169"/>
<text text-anchor="start" x="5" y="-156.5" font-family="Helvetica,sans-Serif" font-size="10.00">L4virtio::Svr::Virtqueue</text>
<text text-anchor="start" x="59" y="-141.5" font-family="Helvetica,sans-Serif" font-size="10.00"> </text>
<text text-anchor="start" x="10" y="-126.5" font-family="Helvetica,sans-Serif" font-size="10.00">+</text>
<text text-anchor="start" x="29" y="-126.5" font-family="Helvetica,sans-Serif" font-size="10.00">next_avail()</text>
<text text-anchor="start" x="10" y="-111.5" font-family="Helvetica,sans-Serif" font-size="10.00">+</text>
<text text-anchor="start" x="29" y="-111.5" font-family="Helvetica,sans-Serif" font-size="10.00">desc_avail()</text>
<text text-anchor="start" x="10" y="-96.5" font-family="Helvetica,sans-Serif" font-size="10.00">+</text>
<text text-anchor="start" x="29" y="-96.5" font-family="Helvetica,sans-Serif" font-size="10.00">consumed()</text>
<text text-anchor="start" x="10" y="-81.5" font-family="Helvetica,sans-Serif" font-size="10.00">+</text>
<text text-anchor="start" x="29" y="-81.5" font-family="Helvetica,sans-Serif" font-size="10.00">consumed()</text>
<text text-anchor="start" x="10" y="-66.5" font-family="Helvetica,sans-Serif" font-size="10.00">+</text>
<text text-anchor="start" x="29" y="-66.5" font-family="Helvetica,sans-Serif" font-size="10.00">finish()</text>
<text text-anchor="start" x="10" y="-51.5" font-family="Helvetica,sans-Serif" font-size="10.00">+</text>
<text text-anchor="start" x="29" y="-51.5" font-family="Helvetica,sans-Serif" font-size="10.00">finish()</text>
<text text-anchor="start" x="10" y="-36.5" font-family="Helvetica,sans-Serif" font-size="10.00">+</text>
<text text-anchor="start" x="29" y="-36.5" font-family="Helvetica,sans-Serif" font-size="10.00">disable_notify()</text>
<text text-anchor="start" x="10" y="-21.5" font-family="Helvetica,sans-Serif" font-size="10.00">+</text>
<text text-anchor="start" x="29" y="-21.5" font-family="Helvetica,sans-Serif" font-size="10.00">enable_notify()</text>
<text text-anchor="start" x="10" y="-6.5" font-family="Helvetica,sans-Serif" font-size="10.00">+</text>
<text text-anchor="start" x="29" y="-6.5" font-family="Helvetica,sans-Serif" font-size="10.00">desc()</text>
<polygon fill="#666666" stroke="#666666" points="0,-151.5 0,-151.5 122,-151.5 122,-151.5 0,-151.5"/>
<polygon fill="#666666" stroke="#666666" points="0,-136.5 0,-136.5 122,-136.5 122,-136.5 0,-136.5"/>
<polygon fill="none" stroke="#666666" points="0,0 0,-169 122,-169 122,0 0,0"/>
</a>
</g>
</g>
<!-- Node2 -->
<g id="Node000002" class="node">
<title>Node2</title>
<g id="a_Node000002"><a xlink:href="classL4virtio_1_1Virtqueue.html" target="_top" xlink:title="Low&#45;level Virtqueue.">
<polygon fill="white" stroke="transparent" points="118.5,-629 3.5,-629 3.5,-205 118.5,-205 118.5,-629"/>
<text text-anchor="start" x="16" y="-617" font-family="Helvetica,sans-Serif" font-size="10.00">L4virtio::Virtqueue</text>
<text text-anchor="start" x="8" y="-602" font-family="Helvetica,sans-Serif" font-size="10.00">#</text>
<text text-anchor="start" x="21" y="-602" font-family="Helvetica,sans-Serif" font-size="10.00">_desc</text>
<text text-anchor="start" x="8" y="-587" font-family="Helvetica,sans-Serif" font-size="10.00">#</text>
<text text-anchor="start" x="21" y="-587" font-family="Helvetica,sans-Serif" font-size="10.00">_avail</text>
<text text-anchor="start" x="8" y="-572" font-family="Helvetica,sans-Serif" font-size="10.00">#</text>
<text text-anchor="start" x="21" y="-572" font-family="Helvetica,sans-Serif" font-size="10.00">_used</text>
<text text-anchor="start" x="8" y="-557" font-family="Helvetica,sans-Serif" font-size="10.00">#</text>
<text text-anchor="start" x="21" y="-557" font-family="Helvetica,sans-Serif" font-size="10.00">_current_avail</text>
<text text-anchor="start" x="8" y="-542" font-family="Helvetica,sans-Serif" font-size="10.00">#</text>
<text text-anchor="start" x="21" y="-542" font-family="Helvetica,sans-Serif" font-size="10.00">_idx_mask</text>
<text text-anchor="start" x="8" y="-527" font-family="Helvetica,sans-Serif" font-size="10.00">+</text>
<text text-anchor="start" x="21" y="-527" font-family="Helvetica,sans-Serif" font-size="10.00">disable()</text>
<text text-anchor="start" x="8" y="-512" font-family="Helvetica,sans-Serif" font-size="10.00">+</text>
<text text-anchor="start" x="21" y="-512" font-family="Helvetica,sans-Serif" font-size="10.00">total_size()</text>
<text text-anchor="start" x="8" y="-497" font-family="Helvetica,sans-Serif" font-size="10.00">+</text>
<text text-anchor="start" x="21" y="-497" font-family="Helvetica,sans-Serif" font-size="10.00">avail_offset()</text>
<text text-anchor="start" x="8" y="-482" font-family="Helvetica,sans-Serif" font-size="10.00">+</text>
<text text-anchor="start" x="21" y="-482" font-family="Helvetica,sans-Serif" font-size="10.00">used_offset()</text>
<text text-anchor="start" x="8" y="-467" font-family="Helvetica,sans-Serif" font-size="10.00">+</text>
<text text-anchor="start" x="21" y="-467" font-family="Helvetica,sans-Serif" font-size="10.00">setup()</text>
<text text-anchor="start" x="8" y="-452" font-family="Helvetica,sans-Serif" font-size="10.00">+</text>
<text text-anchor="start" x="21" y="-452" font-family="Helvetica,sans-Serif" font-size="10.00">setup_simple()</text>
<text text-anchor="start" x="8" y="-437" font-family="Helvetica,sans-Serif" font-size="10.00">+</text>
<text text-anchor="start" x="21" y="-437" font-family="Helvetica,sans-Serif" font-size="10.00">dump()</text>
<text text-anchor="start" x="8" y="-422" font-family="Helvetica,sans-Serif" font-size="10.00">+</text>
<text text-anchor="start" x="21" y="-422" font-family="Helvetica,sans-Serif" font-size="10.00">ready()</text>
<text text-anchor="start" x="8" y="-407" font-family="Helvetica,sans-Serif" font-size="10.00">+</text>
<text text-anchor="start" x="21" y="-407" font-family="Helvetica,sans-Serif" font-size="10.00">num()</text>
<text text-anchor="start" x="8" y="-392" font-family="Helvetica,sans-Serif" font-size="10.00">+</text>
<text text-anchor="start" x="21" y="-392" font-family="Helvetica,sans-Serif" font-size="10.00">no_notify_guest()</text>
<text text-anchor="start" x="8" y="-377" font-family="Helvetica,sans-Serif" font-size="10.00">+</text>
<text text-anchor="start" x="21" y="-377" font-family="Helvetica,sans-Serif" font-size="10.00">no_notify_host()</text>
<text text-anchor="start" x="8" y="-362" font-family="Helvetica,sans-Serif" font-size="10.00">+</text>
<text text-anchor="start" x="21" y="-362" font-family="Helvetica,sans-Serif" font-size="10.00">no_notify_host()</text>
<text text-anchor="start" x="8" y="-347" font-family="Helvetica,sans-Serif" font-size="10.00">+</text>
<text text-anchor="start" x="21" y="-347" font-family="Helvetica,sans-Serif" font-size="10.00">get_avail_idx()</text>
<text text-anchor="start" x="8" y="-332" font-family="Helvetica,sans-Serif" font-size="10.00">+</text>
<text text-anchor="start" x="21" y="-332" font-family="Helvetica,sans-Serif" font-size="10.00">get_tail_avail_idx()</text>
<text text-anchor="start" x="8" y="-317" font-family="Helvetica,sans-Serif" font-size="10.00">+</text>
<text text-anchor="start" x="21" y="-317" font-family="Helvetica,sans-Serif" font-size="10.00">total_size()</text>
<text text-anchor="start" x="8" y="-302" font-family="Helvetica,sans-Serif" font-size="10.00">+</text>
<text text-anchor="start" x="21" y="-302" font-family="Helvetica,sans-Serif" font-size="10.00">desc_size()</text>
<text text-anchor="start" x="8" y="-287" font-family="Helvetica,sans-Serif" font-size="10.00">+</text>
<text text-anchor="start" x="21" y="-287" font-family="Helvetica,sans-Serif" font-size="10.00">desc_align()</text>
<text text-anchor="start" x="8" y="-272" font-family="Helvetica,sans-Serif" font-size="10.00">+</text>
<text text-anchor="start" x="21" y="-272" font-family="Helvetica,sans-Serif" font-size="10.00">avail_size()</text>
<text text-anchor="start" x="8" y="-257" font-family="Helvetica,sans-Serif" font-size="10.00">+</text>
<text text-anchor="start" x="21" y="-257" font-family="Helvetica,sans-Serif" font-size="10.00">avail_align()</text>
<text text-anchor="start" x="8" y="-242" font-family="Helvetica,sans-Serif" font-size="10.00">+</text>
<text text-anchor="start" x="21" y="-242" font-family="Helvetica,sans-Serif" font-size="10.00">used_size()</text>
<text text-anchor="start" x="8" y="-227" font-family="Helvetica,sans-Serif" font-size="10.00">+</text>
<text text-anchor="start" x="21" y="-227" font-family="Helvetica,sans-Serif" font-size="10.00">used_align()</text>
<text text-anchor="start" x="8" y="-212" font-family="Helvetica,sans-Serif" font-size="10.00">#</text>
<text text-anchor="start" x="21" y="-212" font-family="Helvetica,sans-Serif" font-size="10.00">Virtqueue()</text>
<polygon fill="#666666" stroke="#666666" points="4,-612 4,-612 119,-612 119,-612 4,-612"/>
<polygon fill="#666666" stroke="#666666" points="4,-537 4,-537 19,-537 19,-537 4,-537"/>
<polygon fill="#666666" stroke="#666666" points="19,-537 19,-537 119,-537 119,-537 19,-537"/>
<polygon fill="none" stroke="#666666" points="3.5,-205 3.5,-629 118.5,-629 118.5,-205 3.5,-205"/>
</a>
</g>
</g>
<!-- Node2&#45;&gt;Node1 -->
<g id="edge1_Node000001_Node000002" class="edge">
<title>Node2&#45;&gt;Node1</title>
<g id="a_edge1_Node000001_Node000002"><a xlink:title=" ">
<path fill="none" stroke="#63b8ff" d="M61,-194.74C61,-185.9 61,-177.3 61,-169.06"/>
<polygon fill="none" stroke="#63b8ff" points="57.5,-194.82 61,-204.82 64.5,-194.82 57.5,-194.82"/>
</a>
</g>
</g>
</g>
</svg>
