<?xml version="1.0" encoding="UTF-8" standalone="no"?>
<!DOCTYPE svg PUBLIC "-//W3C//DTD SVG 1.1//EN"
 "http://www.w3.org/Graphics/SVG/1.1/DTD/svg11.dtd">
<!-- Generated by graphviz version 2.42.4 (0)
 -->
<!-- Title: L4::Server::internal_loop Pages: 1 -->
<svg width="307pt" height="64pt"
 viewBox="0.00 0.00 307.00 64.00" xmlns="http://www.w3.org/2000/svg" xmlns:xlink="http://www.w3.org/1999/xlink">
<g id="graph0" class="graph" transform="scale(1 1) rotate(0) translate(4 60)">
<title>L4::Server::internal_loop</title>
<!-- Node1 -->
<g id="Node000001" class="node">
<title>Node1</title>
<g id="a_Node000001"><a xlink:title="The server loop.">
<polygon fill="#999999" stroke="#666666" points="135,-37 0,-37 0,-18 135,-18 135,-37"/>
<text text-anchor="middle" x="67.5" y="-25" font-family="Helvetica,sans-Serif" font-size="10.00">L4::Server::internal_loop</text>
</a>
</g>
</g>
<!-- Node2 -->
<g id="Node000002" class="node">
<title>Node2</title>
<g id="a_Node000002"><a xlink:href="structl4__msgtag__t.html#a09c8212b870e6c144fd072dbde5b5262" target="_top" xlink:title="Test if flags indicate an error.">
<polygon fill="white" stroke="#666666" points="299,-56 171,-56 171,-37 299,-37 299,-56"/>
<text text-anchor="middle" x="235" y="-44" font-family="Helvetica,sans-Serif" font-size="10.00">l4_msgtag_t::has_error</text>
</a>
</g>
</g>
<!-- Node1&#45;&gt;Node2 -->
<g id="edge1_Node000001_Node000002" class="edge">
<title>Node1&#45;&gt;Node2</title>
<g id="a_edge1_Node000001_Node000002"><a xlink:title=" ">
<path fill="none" stroke="#63b8ff" d="M135.34,-35.17C143.69,-36.13 152.27,-37.12 160.72,-38.09"/>
<polygon fill="#63b8ff" stroke="#63b8ff" points="160.6,-41.6 170.93,-39.26 161.4,-34.64 160.6,-41.6"/>
</a>
</g>
</g>
<!-- Node3 -->
<g id="Node000003" class="node">
<title>Node3</title>
<g id="a_Node000003"><a xlink:href="group__l4__msgtag__api.html#ga661d71acad9d096fa990f7c94943bc78" target="_top" xlink:title="Create a message tag from the specified values.">
<polygon fill="white" stroke="#666666" points="269,-19 201,-19 201,0 269,0 269,-19"/>
<text text-anchor="middle" x="235" y="-7" font-family="Helvetica,sans-Serif" font-size="10.00">l4_msgtag</text>
</a>
</g>
</g>
<!-- Node1&#45;&gt;Node3 -->
<g id="edge2_Node000001_Node000003" class="edge">
<title>Node1&#45;&gt;Node3</title>
<g id="a_edge2_Node000001_Node000003"><a xlink:title=" ">
<path fill="none" stroke="#63b8ff" d="M135.34,-20.23C153.91,-18.21 173.6,-16.07 190.46,-14.24"/>
<polygon fill="#63b8ff" stroke="#63b8ff" points="190.99,-17.7 200.55,-13.14 190.23,-10.74 190.99,-17.7"/>
</a>
</g>
</g>
</g>
</svg>
