<?xml version="1.0" encoding="UTF-8" standalone="no"?>
<!DOCTYPE svg PUBLIC "-//W3C//DTD SVG 1.1//EN"
 "http://www.w3.org/Graphics/SVG/1.1/DTD/svg11.dtd">
<!-- Generated by graphviz version 2.43.0 (0)
 -->
<!-- Title: L4Re::Parent Pages: 1 -->
<svg width="274pt" height="313pt"
 viewBox="0.00 0.00 274.00 313.00" xmlns="http://www.w3.org/2000/svg" xmlns:xlink="http://www.w3.org/1999/xlink">
<g id="graph0" class="graph" transform="scale(1 1) rotate(0) translate(4 309)">
<title>L4Re::Parent</title>
<!-- Node1 -->
<g id="Node000001" class="node">
<title>Node1</title>
<g id="a_Node000001"><a xlink:title="Parent interface.">
<polygon fill="#999999" stroke="transparent" points="141.5,-49 70.5,-49 70.5,0 141.5,0 141.5,-49"/>
<text text-anchor="start" x="76" y="-36.5" font-family="Helvetica,sans-Serif" font-size="10.00">L4Re::Parent</text>
<text text-anchor="start" x="104.5" y="-21.5" font-family="Helvetica,sans-Serif" font-size="10.00"> </text>
<text text-anchor="start" x="78" y="-6.5" font-family="Helvetica,sans-Serif" font-size="10.00">+</text>
<text text-anchor="start" x="94" y="-6.5" font-family="Helvetica,sans-Serif" font-size="10.00">signal()</text>
<polygon fill="#666666" stroke="#666666" points="71,-31.5 71,-31.5 142,-31.5 142,-31.5 71,-31.5"/>
<polygon fill="#666666" stroke="#666666" points="71,-16.5 71,-16.5 142,-16.5 142,-16.5 71,-16.5"/>
<polygon fill="none" stroke="#666666" points="70.5,0 70.5,-49 141.5,-49 141.5,0 70.5,0"/>
</a>
</g>
</g>
<!-- Node2 -->
<g id="Node000002" class="node">
<title>Node2</title>
<g id="a_Node000002"><a xlink:href="classL4_1_1Kobject__t.html" target="_top" xlink:title=" ">
<polygon fill="white" stroke="transparent" points="174,-172 38,-172 38,-86 174,-86 174,-172"/>
<text text-anchor="start" x="43" y="-160" font-family="Helvetica,sans-Serif" font-size="10.00">L4::Kobject_t&lt; Parent,</text>
<text text-anchor="start" x="43" y="-149" font-family="Helvetica,sans-Serif" font-size="10.00"> L4::Kobject, L4RE_PROTO</text>
<text text-anchor="start" x="78.5" y="-138" font-family="Helvetica,sans-Serif" font-size="10.00">_PARENT &gt;</text>
<text text-anchor="start" x="104" y="-123" font-family="Helvetica,sans-Serif" font-size="10.00"> </text>
<text text-anchor="start" x="43.5" y="-108" font-family="Helvetica,sans-Serif" font-size="10.00">#</text>
<text text-anchor="start" x="58" y="-108" font-family="Helvetica,sans-Serif" font-size="10.00">c()</text>
<text text-anchor="start" x="43.5" y="-93" font-family="Helvetica,sans-Serif" font-size="10.00">#</text>
<text text-anchor="start" x="58" y="-93" font-family="Helvetica,sans-Serif" font-size="10.00">__check_protocols__()</text>
<polygon fill="#666666" stroke="#666666" points="38,-133 38,-133 174,-133 174,-133 38,-133"/>
<polygon fill="#666666" stroke="#666666" points="38,-118 38,-118 174,-118 174,-118 38,-118"/>
<polygon fill="none" stroke="#666666" points="38,-86 38,-172 174,-172 174,-86 38,-86"/>
</a>
</g>
</g>
<!-- Node2&#45;&gt;Node1 -->
<g id="edge1_Node000001_Node000002" class="edge">
<title>Node2&#45;&gt;Node1</title>
<g id="a_edge1_Node000001_Node000002"><a xlink:title=" ">
<path fill="none" stroke="#63b8ff" d="M106,-75.69C106,-66.41 106,-57.18 106,-49.21"/>
<polygon fill="none" stroke="#63b8ff" points="102.5,-75.72 106,-85.72 109.5,-75.72 102.5,-75.72"/>
</a>
</g>
</g>
<!-- Node3 -->
<g id="Node000003" class="node">
<title>Node3</title>
<g id="a_Node000003"><a xlink:href="classL4_1_1Kobject.html" target="_top" xlink:title="Base class for all kinds of kernel objects and remote objects, referenced by capabilities.">
<polygon fill="white" stroke="transparent" points="80,-299.5 0,-299.5 0,-235.5 80,-235.5 80,-299.5"/>
<text text-anchor="start" x="13" y="-287.5" font-family="Helvetica,sans-Serif" font-size="10.00">L4::Kobject</text>
<text text-anchor="start" x="38" y="-272.5" font-family="Helvetica,sans-Serif" font-size="10.00"> </text>
<text text-anchor="start" x="4" y="-257.5" font-family="Helvetica,sans-Serif" font-size="10.00">+</text>
<text text-anchor="start" x="17" y="-257.5" font-family="Helvetica,sans-Serif" font-size="10.00">dec_refcnt()</text>
<text text-anchor="start" x="4" y="-242.5" font-family="Helvetica,sans-Serif" font-size="10.00">#</text>
<text text-anchor="start" x="17" y="-242.5" font-family="Helvetica,sans-Serif" font-size="10.00">cap()</text>
<polygon fill="#666666" stroke="#666666" points="0,-282.5 0,-282.5 80,-282.5 80,-282.5 0,-282.5"/>
<polygon fill="#666666" stroke="#666666" points="0,-267.5 0,-267.5 80,-267.5 80,-267.5 0,-267.5"/>
<polygon fill="none" stroke="#666666" points="0,-235.5 0,-299.5 80,-299.5 80,-235.5 0,-235.5"/>
</a>
</g>
</g>
<!-- Node3&#45;&gt;Node2 -->
<g id="edge2_Node000002_Node000003" class="edge">
<title>Node3&#45;&gt;Node2</title>
<g id="a_edge2_Node000002_Node000003"><a xlink:title=" ">
<path fill="none" stroke="#63b8ff" d="M59.56,-226.05C67.79,-209.03 77.36,-189.22 85.68,-172.03"/>
<polygon fill="none" stroke="#63b8ff" points="56.34,-224.66 55.14,-235.18 62.65,-227.7 56.34,-224.66"/>
</a>
</g>
</g>
<!-- Node4 -->
<g id="Node000004" class="node">
<title>Node4</title>
<g id="a_Node000004"><a xlink:href="classL4_1_1Kobject__t.html" target="_top" xlink:title="Helper class to create an L4Re interface class that is derived from a single base class.">
<polygon fill="white" stroke="transparent" points="248,-305 98,-305 98,-230 248,-230 248,-305"/>
<text text-anchor="start" x="103" y="-292.5" font-family="Helvetica,sans-Serif" font-size="10.00">L4::Kobject_t&lt; Derived,</text>
<text text-anchor="start" x="103" y="-281.5" font-family="Helvetica,sans-Serif" font-size="10.00"> Base, PROTO, S_DEMAND &gt;</text>
<text text-anchor="start" x="171" y="-266.5" font-family="Helvetica,sans-Serif" font-size="10.00"> </text>
<text text-anchor="start" x="107" y="-251.5" font-family="Helvetica,sans-Serif" font-size="10.00">#</text>
<text text-anchor="start" x="125" y="-251.5" font-family="Helvetica,sans-Serif" font-size="10.00">c()</text>
<text text-anchor="start" x="107" y="-236.5" font-family="Helvetica,sans-Serif" font-size="10.00">#</text>
<text text-anchor="start" x="125" y="-236.5" font-family="Helvetica,sans-Serif" font-size="10.00">__check_protocols__()</text>
<polygon fill="#666666" stroke="#666666" points="98,-276.5 98,-276.5 248,-276.5 248,-276.5 98,-276.5"/>
<polygon fill="#666666" stroke="#666666" points="98,-261.5 98,-261.5 248,-261.5 248,-261.5 98,-261.5"/>
<polygon fill="none" stroke="#666666" points="98,-230 98,-305 248,-305 248,-230 98,-230"/>
</a>
</g>
</g>
<!-- Node4&#45;&gt;Node2 -->
<g id="edge3_Node000002_Node000004" class="edge">
<title>Node4&#45;&gt;Node2</title>
<g id="a_edge3_Node000002_Node000004"><a xlink:title=" ">
<path fill="none" stroke="orange" d="M150.43,-220.51C142.8,-204.98 134.34,-187.73 126.85,-172.49"/>
<polygon fill="orange" stroke="orange" points="147.5,-222.49 155.05,-229.92 153.78,-219.4 147.5,-222.49"/>
</a>
</g>
<text text-anchor="start" x="145" y="-204" font-family="Helvetica,sans-Serif" font-size="10.00" fill="grey"> &lt; Parent, L4::Kobject,</text>
<text text-anchor="middle" x="205.5" y="-193" font-family="Helvetica,sans-Serif" font-size="10.00" fill="grey"> L4RE_PROTO_PARENT &gt;</text>
</g>
</g>
</svg>
