<?xml version="1.0" encoding="UTF-8" standalone="no"?>
<!DOCTYPE svg PUBLIC "-//W3C//DTD SVG 1.1//EN"
 "http://www.w3.org/Graphics/SVG/1.1/DTD/svg11.dtd">
<!-- Generated by graphviz version 2.43.0 (0)
 -->
<!-- Title: L4virtio::Driver::Block_device Pages: 1 -->
<svg width="462pt" height="1290pt"
 viewBox="0.00 0.00 461.95 1290.00" xmlns="http://www.w3.org/2000/svg" xmlns:xlink="http://www.w3.org/1999/xlink">
<g id="graph0" class="graph" transform="scale(1 1) rotate(0) translate(4 1286)">
<title>L4virtio::Driver::Block_device</title>
<!-- Node1 -->
<g id="Node000001" class="node">
<title>Node1</title>
<g id="a_Node000001"><a xlink:title="Simple class for accessing a virtio block device synchronously.">
<polygon fill="#999999" stroke="transparent" points="331.5,-150 201.5,-150 201.5,0 331.5,0 331.5,-150"/>
<text text-anchor="start" x="213.5" y="-138" font-family="Helvetica,sans-Serif" font-size="10.00">L4virtio::Driver::Block</text>
<text text-anchor="start" x="247.5" y="-127" font-family="Helvetica,sans-Serif" font-size="10.00">_device</text>
<text text-anchor="start" x="264.5" y="-112" font-family="Helvetica,sans-Serif" font-size="10.00"> </text>
<text text-anchor="start" x="205.5" y="-97" font-family="Helvetica,sans-Serif" font-size="10.00">+</text>
<text text-anchor="start" x="218.5" y="-97" font-family="Helvetica,sans-Serif" font-size="10.00">setup_device()</text>
<text text-anchor="start" x="205.5" y="-82" font-family="Helvetica,sans-Serif" font-size="10.00">+</text>
<text text-anchor="start" x="218.5" y="-82" font-family="Helvetica,sans-Serif" font-size="10.00">device_config()</text>
<text text-anchor="start" x="205.5" y="-67" font-family="Helvetica,sans-Serif" font-size="10.00">+</text>
<text text-anchor="start" x="218.5" y="-67" font-family="Helvetica,sans-Serif" font-size="10.00">start_request()</text>
<text text-anchor="start" x="205.5" y="-52" font-family="Helvetica,sans-Serif" font-size="10.00">+</text>
<text text-anchor="start" x="218.5" y="-52" font-family="Helvetica,sans-Serif" font-size="10.00">add_block()</text>
<text text-anchor="start" x="205.5" y="-37" font-family="Helvetica,sans-Serif" font-size="10.00">+</text>
<text text-anchor="start" x="218.5" y="-37" font-family="Helvetica,sans-Serif" font-size="10.00">send_request()</text>
<text text-anchor="start" x="205.5" y="-22" font-family="Helvetica,sans-Serif" font-size="10.00">+</text>
<text text-anchor="start" x="218.5" y="-22" font-family="Helvetica,sans-Serif" font-size="10.00">process_request()</text>
<text text-anchor="start" x="205.5" y="-7" font-family="Helvetica,sans-Serif" font-size="10.00">+</text>
<text text-anchor="start" x="218.5" y="-7" font-family="Helvetica,sans-Serif" font-size="10.00">process_used_queue()</text>
<polygon fill="#666666" stroke="#666666" points="201.5,-122 201.5,-122 331.5,-122 331.5,-122 201.5,-122"/>
<polygon fill="#666666" stroke="#666666" points="201.5,-107 201.5,-107 331.5,-107 331.5,-107 201.5,-107"/>
<polygon fill="none" stroke="#666666" points="201.5,0 201.5,-150 331.5,-150 331.5,0 201.5,0"/>
</a>
</g>
</g>
<!-- Node2 -->
<g id="Node000002" class="node">
<title>Node2</title>
<g id="a_Node000002"><a xlink:href="classL4virtio_1_1Driver_1_1Device.html" target="_top" xlink:title="Client&#45;side implementation for a general virtio device.">
<polygon fill="white" stroke="transparent" points="250.5,-401 122.5,-401 122.5,-187 250.5,-187 250.5,-401"/>
<text text-anchor="start" x="130" y="-389" font-family="Helvetica,sans-Serif" font-size="10.00">L4virtio::Driver::Device</text>
<text text-anchor="start" x="184.5" y="-374" font-family="Helvetica,sans-Serif" font-size="10.00"> </text>
<text text-anchor="start" x="126.5" y="-359" font-family="Helvetica,sans-Serif" font-size="10.00">+</text>
<text text-anchor="start" x="139.5" y="-359" font-family="Helvetica,sans-Serif" font-size="10.00">driver_connect()</text>
<text text-anchor="start" x="126.5" y="-344" font-family="Helvetica,sans-Serif" font-size="10.00">+</text>
<text text-anchor="start" x="139.5" y="-344" font-family="Helvetica,sans-Serif" font-size="10.00">bind_notification_irq()</text>
<text text-anchor="start" x="126.5" y="-329" font-family="Helvetica,sans-Serif" font-size="10.00">+</text>
<text text-anchor="start" x="139.5" y="-329" font-family="Helvetica,sans-Serif" font-size="10.00">fail_state()</text>
<text text-anchor="start" x="126.5" y="-314" font-family="Helvetica,sans-Serif" font-size="10.00">+</text>
<text text-anchor="start" x="139.5" y="-314" font-family="Helvetica,sans-Serif" font-size="10.00">feature_negotiated()</text>
<text text-anchor="start" x="126.5" y="-299" font-family="Helvetica,sans-Serif" font-size="10.00">+</text>
<text text-anchor="start" x="139.5" y="-299" font-family="Helvetica,sans-Serif" font-size="10.00">driver_acknowledge()</text>
<text text-anchor="start" x="126.5" y="-284" font-family="Helvetica,sans-Serif" font-size="10.00">+</text>
<text text-anchor="start" x="139.5" y="-284" font-family="Helvetica,sans-Serif" font-size="10.00">register_ds()</text>
<text text-anchor="start" x="126.5" y="-269" font-family="Helvetica,sans-Serif" font-size="10.00">+</text>
<text text-anchor="start" x="139.5" y="-269" font-family="Helvetica,sans-Serif" font-size="10.00">config_queue()</text>
<text text-anchor="start" x="126.5" y="-254" font-family="Helvetica,sans-Serif" font-size="10.00">+</text>
<text text-anchor="start" x="139.5" y="-254" font-family="Helvetica,sans-Serif" font-size="10.00">max_queue_size()</text>
<text text-anchor="start" x="126.5" y="-239" font-family="Helvetica,sans-Serif" font-size="10.00">+</text>
<text text-anchor="start" x="139.5" y="-239" font-family="Helvetica,sans-Serif" font-size="10.00">send_and_wait()</text>
<text text-anchor="start" x="126.5" y="-224" font-family="Helvetica,sans-Serif" font-size="10.00">+</text>
<text text-anchor="start" x="139.5" y="-224" font-family="Helvetica,sans-Serif" font-size="10.00">wait()</text>
<text text-anchor="start" x="126.5" y="-209" font-family="Helvetica,sans-Serif" font-size="10.00">+</text>
<text text-anchor="start" x="139.5" y="-209" font-family="Helvetica,sans-Serif" font-size="10.00">wait_for_next_used()</text>
<text text-anchor="start" x="126.5" y="-194" font-family="Helvetica,sans-Serif" font-size="10.00">+</text>
<text text-anchor="start" x="139.5" y="-194" font-family="Helvetica,sans-Serif" font-size="10.00">send()</text>
<polygon fill="#666666" stroke="#666666" points="122.5,-384 122.5,-384 250.5,-384 250.5,-384 122.5,-384"/>
<polygon fill="#666666" stroke="#666666" points="122.5,-369 122.5,-369 250.5,-369 250.5,-369 122.5,-369"/>
<polygon fill="none" stroke="#666666" points="122.5,-187 122.5,-401 250.5,-401 250.5,-187 122.5,-187"/>
</a>
</g>
</g>
<!-- Node2&#45;&gt;Node1 -->
<g id="edge1_Node000001_Node000002" class="edge">
<title>Node2&#45;&gt;Node1</title>
<g id="a_edge1_Node000001_Node000002"><a xlink:title=" ">
<path fill="none" stroke="#63b8ff" d="M229.2,-177.18C232.57,-168.03 235.92,-158.95 239.14,-150.2"/>
<polygon fill="none" stroke="#63b8ff" points="225.85,-176.13 225.68,-186.72 232.42,-178.55 225.85,-176.13"/>
</a>
</g>
</g>
<!-- Node3 -->
<g id="Node000003" class="node">
<title>Node3</title>
<g id="a_Node000003"><a xlink:href="classL4_1_1Cap.html" target="_top" xlink:title=" ">
<polygon fill="white" stroke="transparent" points="101,-656 0,-656 0,-491 101,-491 101,-656"/>
<text text-anchor="start" x="5.5" y="-643.5" font-family="Helvetica,sans-Serif" font-size="10.00">L4::Cap&lt; L4virtio::</text>
<text text-anchor="start" x="28" y="-632.5" font-family="Helvetica,sans-Serif" font-size="10.00">Device &gt;</text>
<text text-anchor="start" x="49" y="-617.5" font-family="Helvetica,sans-Serif" font-size="10.00"> </text>
<text text-anchor="start" x="9" y="-602.5" font-family="Helvetica,sans-Serif" font-size="10.00">+</text>
<text text-anchor="start" x="26.5" y="-602.5" font-family="Helvetica,sans-Serif" font-size="10.00">Cap()</text>
<text text-anchor="start" x="9" y="-587.5" font-family="Helvetica,sans-Serif" font-size="10.00">+</text>
<text text-anchor="start" x="26.5" y="-587.5" font-family="Helvetica,sans-Serif" font-size="10.00">Cap()</text>
<text text-anchor="start" x="9" y="-572.5" font-family="Helvetica,sans-Serif" font-size="10.00">+</text>
<text text-anchor="start" x="26.5" y="-572.5" font-family="Helvetica,sans-Serif" font-size="10.00">Cap()</text>
<text text-anchor="start" x="9" y="-557.5" font-family="Helvetica,sans-Serif" font-size="10.00">+</text>
<text text-anchor="start" x="26.5" y="-557.5" font-family="Helvetica,sans-Serif" font-size="10.00">Cap()</text>
<text text-anchor="start" x="9" y="-542.5" font-family="Helvetica,sans-Serif" font-size="10.00">+</text>
<text text-anchor="start" x="26.5" y="-542.5" font-family="Helvetica,sans-Serif" font-size="10.00">Cap()</text>
<text text-anchor="start" x="9" y="-527.5" font-family="Helvetica,sans-Serif" font-size="10.00">+</text>
<text text-anchor="start" x="26.5" y="-527.5" font-family="Helvetica,sans-Serif" font-size="10.00">move()</text>
<text text-anchor="start" x="9" y="-512.5" font-family="Helvetica,sans-Serif" font-size="10.00">+</text>
<text text-anchor="start" x="26.5" y="-512.5" font-family="Helvetica,sans-Serif" font-size="10.00">copy()</text>
<text text-anchor="start" x="9" y="-497.5" font-family="Helvetica,sans-Serif" font-size="10.00">+</text>
<text text-anchor="start" x="26.5" y="-497.5" font-family="Helvetica,sans-Serif" font-size="10.00">operator&#45;&gt;()</text>
<polygon fill="#666666" stroke="#666666" points="0.5,-627.5 0.5,-627.5 101.5,-627.5 101.5,-627.5 0.5,-627.5"/>
<polygon fill="#666666" stroke="#666666" points="0.5,-612.5 0.5,-612.5 101.5,-612.5 101.5,-612.5 0.5,-612.5"/>
<polygon fill="none" stroke="#666666" points="0,-491 0,-656 101,-656 101,-491 0,-491"/>
</a>
</g>
</g>
<!-- Node3&#45;&gt;Node2 -->
<g id="edge2_Node000002_Node000003" class="edge">
<title>Node3&#45;&gt;Node2</title>
<g id="a_edge2_Node000002_Node000003"><a xlink:title=" ">
<path fill="none" stroke="#63b8ff" d="M89.74,-490.73C96.63,-476.47 103.75,-461.79 110.5,-448 116.19,-436.37 122.15,-424.27 128.12,-412.18"/>
<polygon fill="none" stroke="#63b8ff" points="128.28,-411.85 127.35,-404.7 133.59,-401.09 134.52,-408.25 128.28,-411.85"/>
</a>
</g>
<text text-anchor="middle" x="147" y="-422" font-family="Helvetica,sans-Serif" font-size="10.00" fill="grey"> #_device</text>
</g>
<!-- Node4 -->
<g id="Node000004" class="node">
<title>Node4</title>
<g id="a_Node000004"><a xlink:href="classL4_1_1Cap__base.html" target="_top" xlink:title="Base class for all kinds of capabilities.">
<polygon fill="white" stroke="transparent" points="360,-1282 273,-1282 273,-1023 360,-1023 360,-1282"/>
<text text-anchor="start" x="284.5" y="-1269.5" font-family="Helvetica,sans-Serif" font-size="10.00">L4::Cap_base</text>
<text text-anchor="start" x="277.5" y="-1254.5" font-family="Helvetica,sans-Serif" font-size="10.00">#</text>
<text text-anchor="start" x="290.5" y="-1254.5" font-family="Helvetica,sans-Serif" font-size="10.00">_c</text>
<text text-anchor="start" x="277.5" y="-1239.5" font-family="Helvetica,sans-Serif" font-size="10.00">+</text>
<text text-anchor="start" x="290.5" y="-1239.5" font-family="Helvetica,sans-Serif" font-size="10.00">cap()</text>
<text text-anchor="start" x="277.5" y="-1224.5" font-family="Helvetica,sans-Serif" font-size="10.00">+</text>
<text text-anchor="start" x="290.5" y="-1224.5" font-family="Helvetica,sans-Serif" font-size="10.00">is_valid()</text>
<text text-anchor="start" x="277.5" y="-1209.5" font-family="Helvetica,sans-Serif" font-size="10.00">+</text>
<text text-anchor="start" x="290.5" y="-1209.5" font-family="Helvetica,sans-Serif" font-size="10.00">fpage()</text>
<text text-anchor="start" x="277.5" y="-1194.5" font-family="Helvetica,sans-Serif" font-size="10.00">+</text>
<text text-anchor="start" x="290.5" y="-1194.5" font-family="Helvetica,sans-Serif" font-size="10.00">snd_base()</text>
<text text-anchor="start" x="277.5" y="-1179.5" font-family="Helvetica,sans-Serif" font-size="10.00">+</text>
<text text-anchor="start" x="290.5" y="-1179.5" font-family="Helvetica,sans-Serif" font-size="10.00">operator==()</text>
<text text-anchor="start" x="277.5" y="-1164.5" font-family="Helvetica,sans-Serif" font-size="10.00">+</text>
<text text-anchor="start" x="290.5" y="-1164.5" font-family="Helvetica,sans-Serif" font-size="10.00">operator!=()</text>
<text text-anchor="start" x="277.5" y="-1149.5" font-family="Helvetica,sans-Serif" font-size="10.00">+</text>
<text text-anchor="start" x="290.5" y="-1149.5" font-family="Helvetica,sans-Serif" font-size="10.00">validate()</text>
<text text-anchor="start" x="277.5" y="-1134.5" font-family="Helvetica,sans-Serif" font-size="10.00">+</text>
<text text-anchor="start" x="290.5" y="-1134.5" font-family="Helvetica,sans-Serif" font-size="10.00">validate()</text>
<text text-anchor="start" x="277.5" y="-1119.5" font-family="Helvetica,sans-Serif" font-size="10.00">+</text>
<text text-anchor="start" x="290.5" y="-1119.5" font-family="Helvetica,sans-Serif" font-size="10.00">invalidate()</text>
<text text-anchor="start" x="277.5" y="-1104.5" font-family="Helvetica,sans-Serif" font-size="10.00">#</text>
<text text-anchor="start" x="290.5" y="-1104.5" font-family="Helvetica,sans-Serif" font-size="10.00">Cap_base()</text>
<text text-anchor="start" x="277.5" y="-1089.5" font-family="Helvetica,sans-Serif" font-size="10.00">#</text>
<text text-anchor="start" x="290.5" y="-1089.5" font-family="Helvetica,sans-Serif" font-size="10.00">Cap_base()</text>
<text text-anchor="start" x="277.5" y="-1074.5" font-family="Helvetica,sans-Serif" font-size="10.00">#</text>
<text text-anchor="start" x="290.5" y="-1074.5" font-family="Helvetica,sans-Serif" font-size="10.00">Cap_base()</text>
<text text-anchor="start" x="277.5" y="-1059.5" font-family="Helvetica,sans-Serif" font-size="10.00">#</text>
<text text-anchor="start" x="290.5" y="-1059.5" font-family="Helvetica,sans-Serif" font-size="10.00">Cap_base()</text>
<text text-anchor="start" x="277.5" y="-1044.5" font-family="Helvetica,sans-Serif" font-size="10.00">#</text>
<text text-anchor="start" x="290.5" y="-1044.5" font-family="Helvetica,sans-Serif" font-size="10.00">move()</text>
<text text-anchor="start" x="277.5" y="-1029.5" font-family="Helvetica,sans-Serif" font-size="10.00">#</text>
<text text-anchor="start" x="290.5" y="-1029.5" font-family="Helvetica,sans-Serif" font-size="10.00">copy()</text>
<polygon fill="#666666" stroke="#666666" points="273.5,-1264.5 273.5,-1264.5 360.5,-1264.5 360.5,-1264.5 273.5,-1264.5"/>
<polygon fill="#666666" stroke="#666666" points="273.5,-1249.5 273.5,-1249.5 288.5,-1249.5 288.5,-1249.5 273.5,-1249.5"/>
<polygon fill="#666666" stroke="#666666" points="288.5,-1249.5 288.5,-1249.5 360.5,-1249.5 360.5,-1249.5 288.5,-1249.5"/>
<polygon fill="none" stroke="#666666" points="273,-1023 273,-1282 360,-1282 360,-1023 273,-1023"/>
</a>
</g>
</g>
<!-- Node4&#45;&gt;Node3 -->
<g id="edge3_Node000003_Node000004" class="edge">
<title>Node4&#45;&gt;Node3</title>
<g id="a_edge3_Node000003_Node000004"><a xlink:title=" ">
<path fill="none" stroke="#63b8ff" d="M263.18,-1136.72C197.93,-1115.43 90.39,-1069.26 43.5,-986 -14,-883.9 5.04,-743.73 26.16,-656.18"/>
<polygon fill="none" stroke="#63b8ff" points="262.28,-1140.1 272.87,-1139.8 264.4,-1133.43 262.28,-1140.1"/>
</a>
</g>
</g>
<!-- Node5 -->
<g id="Node000005" class="node">
<title>Node5</title>
<g id="a_Node000005"><a xlink:href="classL4_1_1Cap.html" target="_top" xlink:title="C++ interface for capabilities.">
<polygon fill="white" stroke="transparent" points="357.5,-948.5 275.5,-948.5 275.5,-794.5 357.5,-794.5 357.5,-948.5"/>
<text text-anchor="start" x="284" y="-936.5" font-family="Helvetica,sans-Serif" font-size="10.00">L4::Cap&lt; T &gt;</text>
<text text-anchor="start" x="314.5" y="-921.5" font-family="Helvetica,sans-Serif" font-size="10.00"> </text>
<text text-anchor="start" x="279.5" y="-906.5" font-family="Helvetica,sans-Serif" font-size="10.00">+</text>
<text text-anchor="start" x="292.5" y="-906.5" font-family="Helvetica,sans-Serif" font-size="10.00">Cap()</text>
<text text-anchor="start" x="279.5" y="-891.5" font-family="Helvetica,sans-Serif" font-size="10.00">+</text>
<text text-anchor="start" x="292.5" y="-891.5" font-family="Helvetica,sans-Serif" font-size="10.00">Cap()</text>
<text text-anchor="start" x="279.5" y="-876.5" font-family="Helvetica,sans-Serif" font-size="10.00">+</text>
<text text-anchor="start" x="292.5" y="-876.5" font-family="Helvetica,sans-Serif" font-size="10.00">Cap()</text>
<text text-anchor="start" x="279.5" y="-861.5" font-family="Helvetica,sans-Serif" font-size="10.00">+</text>
<text text-anchor="start" x="292.5" y="-861.5" font-family="Helvetica,sans-Serif" font-size="10.00">Cap()</text>
<text text-anchor="start" x="279.5" y="-846.5" font-family="Helvetica,sans-Serif" font-size="10.00">+</text>
<text text-anchor="start" x="292.5" y="-846.5" font-family="Helvetica,sans-Serif" font-size="10.00">Cap()</text>
<text text-anchor="start" x="279.5" y="-831.5" font-family="Helvetica,sans-Serif" font-size="10.00">+</text>
<text text-anchor="start" x="292.5" y="-831.5" font-family="Helvetica,sans-Serif" font-size="10.00">move()</text>
<text text-anchor="start" x="279.5" y="-816.5" font-family="Helvetica,sans-Serif" font-size="10.00">+</text>
<text text-anchor="start" x="292.5" y="-816.5" font-family="Helvetica,sans-Serif" font-size="10.00">copy()</text>
<text text-anchor="start" x="279.5" y="-801.5" font-family="Helvetica,sans-Serif" font-size="10.00">+</text>
<text text-anchor="start" x="292.5" y="-801.5" font-family="Helvetica,sans-Serif" font-size="10.00">operator&#45;&gt;()</text>
<polygon fill="#666666" stroke="#666666" points="275.5,-931.5 275.5,-931.5 357.5,-931.5 357.5,-931.5 275.5,-931.5"/>
<polygon fill="#666666" stroke="#666666" points="275.5,-916.5 275.5,-916.5 357.5,-916.5 357.5,-916.5 275.5,-916.5"/>
<polygon fill="none" stroke="#666666" points="275.5,-794.5 275.5,-948.5 357.5,-948.5 357.5,-794.5 275.5,-794.5"/>
</a>
</g>
</g>
<!-- Node4&#45;&gt;Node5 -->
<g id="edge5_Node000005_Node000004" class="edge">
<title>Node4&#45;&gt;Node5</title>
<g id="a_edge5_Node000005_Node000004"><a xlink:title=" ">
<path fill="none" stroke="#63b8ff" d="M316.5,-1012.53C316.5,-990.56 316.5,-968.57 316.5,-948.74"/>
<polygon fill="none" stroke="#63b8ff" points="313,-1012.62 316.5,-1022.62 320,-1012.62 313,-1012.62"/>
</a>
</g>
</g>
<!-- Node8 -->
<g id="Node000008" class="node">
<title>Node8</title>
<g id="a_Node000008"><a xlink:href="classL4_1_1Cap.html" target="_top" xlink:title=" ">
<polygon fill="white" stroke="transparent" points="436,-650.5 285,-650.5 285,-496.5 436,-496.5 436,-650.5"/>
<text text-anchor="start" x="290.5" y="-638.5" font-family="Helvetica,sans-Serif" font-size="10.00">L4::Cap&lt; L4Re::Dataspace &gt;</text>
<text text-anchor="start" x="359" y="-623.5" font-family="Helvetica,sans-Serif" font-size="10.00"> </text>
<text text-anchor="start" x="306.5" y="-608.5" font-family="Helvetica,sans-Serif" font-size="10.00">+</text>
<text text-anchor="start" x="336.5" y="-608.5" font-family="Helvetica,sans-Serif" font-size="10.00">Cap()</text>
<text text-anchor="start" x="306.5" y="-593.5" font-family="Helvetica,sans-Serif" font-size="10.00">+</text>
<text text-anchor="start" x="336.5" y="-593.5" font-family="Helvetica,sans-Serif" font-size="10.00">Cap()</text>
<text text-anchor="start" x="306.5" y="-578.5" font-family="Helvetica,sans-Serif" font-size="10.00">+</text>
<text text-anchor="start" x="336.5" y="-578.5" font-family="Helvetica,sans-Serif" font-size="10.00">Cap()</text>
<text text-anchor="start" x="306.5" y="-563.5" font-family="Helvetica,sans-Serif" font-size="10.00">+</text>
<text text-anchor="start" x="336.5" y="-563.5" font-family="Helvetica,sans-Serif" font-size="10.00">Cap()</text>
<text text-anchor="start" x="306.5" y="-548.5" font-family="Helvetica,sans-Serif" font-size="10.00">+</text>
<text text-anchor="start" x="336.5" y="-548.5" font-family="Helvetica,sans-Serif" font-size="10.00">Cap()</text>
<text text-anchor="start" x="306.5" y="-533.5" font-family="Helvetica,sans-Serif" font-size="10.00">+</text>
<text text-anchor="start" x="336.5" y="-533.5" font-family="Helvetica,sans-Serif" font-size="10.00">move()</text>
<text text-anchor="start" x="306.5" y="-518.5" font-family="Helvetica,sans-Serif" font-size="10.00">+</text>
<text text-anchor="start" x="336.5" y="-518.5" font-family="Helvetica,sans-Serif" font-size="10.00">copy()</text>
<text text-anchor="start" x="306.5" y="-503.5" font-family="Helvetica,sans-Serif" font-size="10.00">+</text>
<text text-anchor="start" x="336.5" y="-503.5" font-family="Helvetica,sans-Serif" font-size="10.00">operator&#45;&gt;()</text>
<polygon fill="#666666" stroke="#666666" points="285.5,-633.5 285.5,-633.5 436.5,-633.5 436.5,-633.5 285.5,-633.5"/>
<polygon fill="#666666" stroke="#666666" points="285.5,-618.5 285.5,-618.5 436.5,-618.5 436.5,-618.5 285.5,-618.5"/>
<polygon fill="none" stroke="#666666" points="285,-496.5 285,-650.5 436,-650.5 436,-496.5 285,-496.5"/>
</a>
</g>
</g>
<!-- Node4&#45;&gt;Node8 -->
<g id="edge9_Node000008_Node000004" class="edge">
<title>Node4&#45;&gt;Node8</title>
<g id="a_edge9_Node000008_Node000004"><a xlink:title=" ">
<path fill="none" stroke="#63b8ff" d="M363.96,-1040.15C396.09,-958.48 435.64,-843.99 452.5,-739 457.48,-707.98 445.79,-677.1 429.23,-650.6"/>
<polygon fill="none" stroke="#63b8ff" points="360.51,-1039.35 360.08,-1049.94 367.02,-1041.93 360.51,-1039.35"/>
</a>
</g>
</g>
<!-- Node5&#45;&gt;Node3 -->
<g id="edge4_Node000003_Node000005" class="edge">
<title>Node5&#45;&gt;Node3</title>
<g id="a_edge4_Node000003_Node000005"><a xlink:title=" ">
<path fill="none" stroke="orange" d="M269.81,-796.14C246.3,-759.73 221,-722.51 212.5,-717 173.87,-691.97 147.2,-726.79 110.5,-699 95.96,-687.99 84.77,-672.55 76.22,-656.27"/>
<polygon fill="orange" stroke="orange" points="267.07,-798.34 275.42,-804.86 272.96,-794.56 267.07,-798.34"/>
</a>
</g>
<text text-anchor="middle" x="281" y="-725.5" font-family="Helvetica,sans-Serif" font-size="10.00" fill="grey"> &lt; L4virtio::Device &gt;</text>
</g>
<!-- Node5&#45;&gt;Node8 -->
<g id="edge10_Node000008_Node000005" class="edge">
<title>Node5&#45;&gt;Node8</title>
<g id="a_edge10_Node000008_Node000005"><a xlink:title=" ">
<path fill="none" stroke="orange" d="M331.3,-784.55C333.79,-769.38 336.28,-753.74 338.5,-739 342.83,-710.22 347.17,-678.55 350.83,-650.74"/>
<polygon fill="orange" stroke="orange" points="327.84,-783.99 329.66,-794.43 334.75,-785.13 327.84,-783.99"/>
</a>
</g>
<text text-anchor="middle" x="394.5" y="-725.5" font-family="Helvetica,sans-Serif" font-size="10.00" fill="grey"> &lt; L4Re::Dataspace &gt;</text>
</g>
<!-- Node6 -->
<g id="Node000006" class="node">
<title>Node6</title>
<g id="a_Node000006"><a xlink:href="classL4Re_1_1Rm_1_1Unique__region.html" target="_top" xlink:title=" ">
<polygon fill="white" stroke="transparent" points="254,-699 119,-699 119,-448 254,-448 254,-699"/>
<text text-anchor="start" x="124.5" y="-686.5" font-family="Helvetica,sans-Serif" font-size="10.00">L4Re::Rm::Unique_region</text>
<text text-anchor="start" x="124.5" y="-675.5" font-family="Helvetica,sans-Serif" font-size="10.00">&lt; L4virtio::Device::Config</text>
<text text-anchor="start" x="166.5" y="-664.5" font-family="Helvetica,sans-Serif" font-size="10.00">_hdr * &gt;</text>
<text text-anchor="start" x="185" y="-649.5" font-family="Helvetica,sans-Serif" font-size="10.00"> </text>
<text text-anchor="start" x="130" y="-634.5" font-family="Helvetica,sans-Serif" font-size="10.00">+</text>
<text text-anchor="start" x="149.5" y="-634.5" font-family="Helvetica,sans-Serif" font-size="10.00">Unique_region()</text>
<text text-anchor="start" x="130" y="-619.5" font-family="Helvetica,sans-Serif" font-size="10.00">+</text>
<text text-anchor="start" x="149.5" y="-619.5" font-family="Helvetica,sans-Serif" font-size="10.00">Unique_region()</text>
<text text-anchor="start" x="130" y="-604.5" font-family="Helvetica,sans-Serif" font-size="10.00">+</text>
<text text-anchor="start" x="149.5" y="-604.5" font-family="Helvetica,sans-Serif" font-size="10.00">Unique_region()</text>
<text text-anchor="start" x="130" y="-589.5" font-family="Helvetica,sans-Serif" font-size="10.00">+</text>
<text text-anchor="start" x="149.5" y="-589.5" font-family="Helvetica,sans-Serif" font-size="10.00">Unique_region()</text>
<text text-anchor="start" x="130" y="-574.5" font-family="Helvetica,sans-Serif" font-size="10.00">+</text>
<text text-anchor="start" x="149.5" y="-574.5" font-family="Helvetica,sans-Serif" font-size="10.00">operator=()</text>
<text text-anchor="start" x="130" y="-559.5" font-family="Helvetica,sans-Serif" font-size="10.00">+</text>
<text text-anchor="start" x="149.5" y="-559.5" font-family="Helvetica,sans-Serif" font-size="10.00">~Unique_region()</text>
<text text-anchor="start" x="130" y="-544.5" font-family="Helvetica,sans-Serif" font-size="10.00">+</text>
<text text-anchor="start" x="149.5" y="-544.5" font-family="Helvetica,sans-Serif" font-size="10.00">get()</text>
<text text-anchor="start" x="130" y="-529.5" font-family="Helvetica,sans-Serif" font-size="10.00">+</text>
<text text-anchor="start" x="149.5" y="-529.5" font-family="Helvetica,sans-Serif" font-size="10.00">release()</text>
<text text-anchor="start" x="130" y="-514.5" font-family="Helvetica,sans-Serif" font-size="10.00">+</text>
<text text-anchor="start" x="149.5" y="-514.5" font-family="Helvetica,sans-Serif" font-size="10.00">reset()</text>
<text text-anchor="start" x="130" y="-499.5" font-family="Helvetica,sans-Serif" font-size="10.00">+</text>
<text text-anchor="start" x="149.5" y="-499.5" font-family="Helvetica,sans-Serif" font-size="10.00">reset()</text>
<text text-anchor="start" x="130" y="-484.5" font-family="Helvetica,sans-Serif" font-size="10.00">+</text>
<text text-anchor="start" x="149.5" y="-484.5" font-family="Helvetica,sans-Serif" font-size="10.00">is_valid()</text>
<text text-anchor="start" x="130" y="-469.5" font-family="Helvetica,sans-Serif" font-size="10.00">+</text>
<text text-anchor="start" x="149.5" y="-469.5" font-family="Helvetica,sans-Serif" font-size="10.00">operator*()</text>
<text text-anchor="start" x="130" y="-454.5" font-family="Helvetica,sans-Serif" font-size="10.00">+</text>
<text text-anchor="start" x="149.5" y="-454.5" font-family="Helvetica,sans-Serif" font-size="10.00">operator&#45;&gt;()</text>
<polygon fill="#666666" stroke="#666666" points="119.5,-659.5 119.5,-659.5 254.5,-659.5 254.5,-659.5 119.5,-659.5"/>
<polygon fill="#666666" stroke="#666666" points="119.5,-644.5 119.5,-644.5 254.5,-644.5 254.5,-644.5 119.5,-644.5"/>
<polygon fill="none" stroke="#666666" points="119,-448 119,-699 254,-699 254,-448 119,-448"/>
</a>
</g>
</g>
<!-- Node6&#45;&gt;Node2 -->
<g id="edge6_Node000002_Node000006" class="edge">
<title>Node6&#45;&gt;Node2</title>
<g id="a_edge6_Node000002_Node000006"><a xlink:title=" ">
<path fill="none" stroke="#63b8ff" d="M186.5,-447.96C186.5,-436.53 186.5,-424.97 186.5,-413.6"/>
<polygon fill="none" stroke="#63b8ff" points="186.5,-413.34 182.5,-407.34 186.5,-401.34 190.5,-407.34 186.5,-413.34"/>
</a>
</g>
<text text-anchor="middle" x="209.5" y="-422" font-family="Helvetica,sans-Serif" font-size="10.00" fill="grey"> #_config</text>
</g>
<!-- Node7 -->
<g id="Node000007" class="node">
<title>Node7</title>
<g id="a_Node000007"><a xlink:href="classL4Re_1_1Rm_1_1Unique__region.html" target="_top" xlink:title="Unique region.">
<polygon fill="white" stroke="transparent" points="214.5,-986 52.5,-986 52.5,-757 214.5,-757 214.5,-986"/>
<text text-anchor="start" x="57.5" y="-973.5" font-family="Helvetica,sans-Serif" font-size="10.00">L4Re::Rm::Unique_region&lt; T &gt;</text>
<text text-anchor="start" x="131.5" y="-958.5" font-family="Helvetica,sans-Serif" font-size="10.00"> </text>
<text text-anchor="start" x="70" y="-943.5" font-family="Helvetica,sans-Serif" font-size="10.00">+</text>
<text text-anchor="start" x="96.5" y="-943.5" font-family="Helvetica,sans-Serif" font-size="10.00">Unique_region()</text>
<text text-anchor="start" x="70" y="-928.5" font-family="Helvetica,sans-Serif" font-size="10.00">+</text>
<text text-anchor="start" x="96.5" y="-928.5" font-family="Helvetica,sans-Serif" font-size="10.00">Unique_region()</text>
<text text-anchor="start" x="70" y="-913.5" font-family="Helvetica,sans-Serif" font-size="10.00">+</text>
<text text-anchor="start" x="96.5" y="-913.5" font-family="Helvetica,sans-Serif" font-size="10.00">Unique_region()</text>
<text text-anchor="start" x="70" y="-898.5" font-family="Helvetica,sans-Serif" font-size="10.00">+</text>
<text text-anchor="start" x="96.5" y="-898.5" font-family="Helvetica,sans-Serif" font-size="10.00">Unique_region()</text>
<text text-anchor="start" x="70" y="-883.5" font-family="Helvetica,sans-Serif" font-size="10.00">+</text>
<text text-anchor="start" x="96.5" y="-883.5" font-family="Helvetica,sans-Serif" font-size="10.00">operator=()</text>
<text text-anchor="start" x="70" y="-868.5" font-family="Helvetica,sans-Serif" font-size="10.00">+</text>
<text text-anchor="start" x="96.5" y="-868.5" font-family="Helvetica,sans-Serif" font-size="10.00">~Unique_region()</text>
<text text-anchor="start" x="70" y="-853.5" font-family="Helvetica,sans-Serif" font-size="10.00">+</text>
<text text-anchor="start" x="96.5" y="-853.5" font-family="Helvetica,sans-Serif" font-size="10.00">get()</text>
<text text-anchor="start" x="70" y="-838.5" font-family="Helvetica,sans-Serif" font-size="10.00">+</text>
<text text-anchor="start" x="96.5" y="-838.5" font-family="Helvetica,sans-Serif" font-size="10.00">release()</text>
<text text-anchor="start" x="70" y="-823.5" font-family="Helvetica,sans-Serif" font-size="10.00">+</text>
<text text-anchor="start" x="96.5" y="-823.5" font-family="Helvetica,sans-Serif" font-size="10.00">reset()</text>
<text text-anchor="start" x="70" y="-808.5" font-family="Helvetica,sans-Serif" font-size="10.00">+</text>
<text text-anchor="start" x="96.5" y="-808.5" font-family="Helvetica,sans-Serif" font-size="10.00">reset()</text>
<text text-anchor="start" x="70" y="-793.5" font-family="Helvetica,sans-Serif" font-size="10.00">+</text>
<text text-anchor="start" x="96.5" y="-793.5" font-family="Helvetica,sans-Serif" font-size="10.00">is_valid()</text>
<text text-anchor="start" x="70" y="-778.5" font-family="Helvetica,sans-Serif" font-size="10.00">+</text>
<text text-anchor="start" x="96.5" y="-778.5" font-family="Helvetica,sans-Serif" font-size="10.00">operator*()</text>
<text text-anchor="start" x="70" y="-763.5" font-family="Helvetica,sans-Serif" font-size="10.00">+</text>
<text text-anchor="start" x="96.5" y="-763.5" font-family="Helvetica,sans-Serif" font-size="10.00">operator&#45;&gt;()</text>
<polygon fill="#666666" stroke="#666666" points="52.5,-968.5 52.5,-968.5 214.5,-968.5 214.5,-968.5 52.5,-968.5"/>
<polygon fill="#666666" stroke="#666666" points="52.5,-953.5 52.5,-953.5 214.5,-953.5 214.5,-953.5 52.5,-953.5"/>
<polygon fill="none" stroke="#666666" points="52.5,-757 52.5,-986 214.5,-986 214.5,-757 52.5,-757"/>
</a>
</g>
</g>
<!-- Node7&#45;&gt;Node6 -->
<g id="edge7_Node000006_Node000007" class="edge">
<title>Node7&#45;&gt;Node6</title>
<g id="a_edge7_Node000006_Node000007"><a xlink:title=" ">
<path fill="none" stroke="orange" d="M117.58,-746.71C118.17,-736.61 119.41,-726.6 121.5,-717 122.77,-711.15 124.3,-705.26 126.04,-699.37"/>
<polygon fill="orange" stroke="orange" points="114.08,-746.7 117.2,-756.82 121.07,-746.96 114.08,-746.7"/>
</a>
</g>
<text text-anchor="start" x="121.5" y="-731" font-family="Helvetica,sans-Serif" font-size="10.00" fill="grey"> &lt; L4virtio::Device</text>
<text text-anchor="middle" x="167" y="-720" font-family="Helvetica,sans-Serif" font-size="10.00" fill="grey">::Config_hdr * &gt;</text>
</g>
<!-- Node8&#45;&gt;Node1 -->
<g id="edge8_Node000001_Node000008" class="edge">
<title>Node8&#45;&gt;Node1</title>
<g id="a_edge8_Node000001_Node000008"><a xlink:title=" ">
<path fill="none" stroke="#63b8ff" d="M346.07,-496.28C329.01,-406.18 300.69,-256.59 282.84,-162.3"/>
<polygon fill="none" stroke="#63b8ff" points="282.79,-162.02 277.74,-156.87 280.55,-150.23 285.6,-155.38 282.79,-162.02"/>
</a>
</g>
<text text-anchor="middle" x="359.5" y="-291.5" font-family="Helvetica,sans-Serif" font-size="10.00" fill="grey"> #_queue_ds</text>
</g>
</g>
</svg>
