<?xml version="1.0" encoding="UTF-8" standalone="no"?>
<!DOCTYPE svg PUBLIC "-//W3C//DTD SVG 1.1//EN"
 "http://www.w3.org/Graphics/SVG/1.1/DTD/svg11.dtd">
<!-- Generated by graphviz version 2.42.4 (0)
 -->
<!-- Title: L4::Cap&lt; T &gt; Pages: 1 -->
<svg width="154pt" height="487pt"
 viewBox="0.00 0.00 154.00 487.00" xmlns="http://www.w3.org/2000/svg" xmlns:xlink="http://www.w3.org/1999/xlink">
<g id="graph0" class="graph" transform="scale(1 1) rotate(0) translate(4 483)">
<title>L4::Cap&lt; T &gt;</title>
<!-- Node1 -->
<g id="Node000001" class="node">
<title>Node1</title>
<g id="a_Node000001"><a xlink:title="C++ interface for capabilities.">
<polygon fill="#999999" stroke="transparent" points="146,-184 0,-184 0,0 146,0 146,-184"/>
<text text-anchor="start" x="40.5" y="-172" font-family="Helvetica,sans-Serif" font-size="10.00">L4::Cap&lt; T &gt;</text>
<text text-anchor="start" x="71" y="-157" font-family="Helvetica,sans-Serif" font-size="10.00"> </text>
<text text-anchor="start" x="4" y="-142" font-family="Helvetica,sans-Serif" font-size="10.00">+</text>
<text text-anchor="start" x="17" y="-142" font-family="Helvetica,sans-Serif" font-size="10.00">Cap()</text>
<text text-anchor="start" x="4" y="-127" font-family="Helvetica,sans-Serif" font-size="10.00">+</text>
<text text-anchor="start" x="17" y="-127" font-family="Helvetica,sans-Serif" font-size="10.00">Cap()</text>
<text text-anchor="start" x="4" y="-112" font-family="Helvetica,sans-Serif" font-size="10.00">+</text>
<text text-anchor="start" x="17" y="-112" font-family="Helvetica,sans-Serif" font-size="10.00">Cap()</text>
<text text-anchor="start" x="4" y="-97" font-family="Helvetica,sans-Serif" font-size="10.00">+</text>
<text text-anchor="start" x="17" y="-97" font-family="Helvetica,sans-Serif" font-size="10.00">Cap()</text>
<text text-anchor="start" x="4" y="-82" font-family="Helvetica,sans-Serif" font-size="10.00">+</text>
<text text-anchor="start" x="17" y="-82" font-family="Helvetica,sans-Serif" font-size="10.00">Cap()</text>
<text text-anchor="start" x="4" y="-67" font-family="Helvetica,sans-Serif" font-size="10.00">+</text>
<text text-anchor="start" x="17" y="-67" font-family="Helvetica,sans-Serif" font-size="10.00">move()</text>
<text text-anchor="start" x="4" y="-52" font-family="Helvetica,sans-Serif" font-size="10.00">+</text>
<text text-anchor="start" x="17" y="-52" font-family="Helvetica,sans-Serif" font-size="10.00">copy()</text>
<text text-anchor="start" x="4" y="-37" font-family="Helvetica,sans-Serif" font-size="10.00">+</text>
<text text-anchor="start" x="17" y="-37" font-family="Helvetica,sans-Serif" font-size="10.00">operator&#45;&gt;()</text>
<text text-anchor="start" x="4" y="-22" font-family="Helvetica,sans-Serif" font-size="10.00">+</text>
<text text-anchor="start" x="17" y="-22" font-family="Helvetica,sans-Serif" font-size="10.00">check_convertible_from()</text>
<text text-anchor="start" x="4" y="-7" font-family="Helvetica,sans-Serif" font-size="10.00">+</text>
<text text-anchor="start" x="17" y="-7" font-family="Helvetica,sans-Serif" font-size="10.00">check_castable_from()</text>
<polygon fill="#666666" stroke="#666666" points="0,-167 0,-167 146,-167 146,-167 0,-167"/>
<polygon fill="#666666" stroke="#666666" points="0,-152 0,-152 146,-152 146,-152 0,-152"/>
<polygon fill="none" stroke="#666666" points="0,0 0,-184 146,-184 146,0 0,0"/>
</a>
</g>
</g>
<!-- Node2 -->
<g id="Node000002" class="node">
<title>Node2</title>
<g id="a_Node000002"><a xlink:href="classL4_1_1Cap__base.html" target="_top" xlink:title="Base class for all kinds of capabilities.">
<polygon fill="white" stroke="transparent" points="116.5,-479 29.5,-479 29.5,-220 116.5,-220 116.5,-479"/>
<text text-anchor="start" x="41" y="-466.5" font-family="Helvetica,sans-Serif" font-size="10.00">L4::Cap_base</text>
<text text-anchor="start" x="34" y="-451.5" font-family="Helvetica,sans-Serif" font-size="10.00">#</text>
<text text-anchor="start" x="47" y="-451.5" font-family="Helvetica,sans-Serif" font-size="10.00">_c</text>
<text text-anchor="start" x="34" y="-436.5" font-family="Helvetica,sans-Serif" font-size="10.00">+</text>
<text text-anchor="start" x="47" y="-436.5" font-family="Helvetica,sans-Serif" font-size="10.00">cap()</text>
<text text-anchor="start" x="34" y="-421.5" font-family="Helvetica,sans-Serif" font-size="10.00">+</text>
<text text-anchor="start" x="47" y="-421.5" font-family="Helvetica,sans-Serif" font-size="10.00">is_valid()</text>
<text text-anchor="start" x="34" y="-406.5" font-family="Helvetica,sans-Serif" font-size="10.00">+</text>
<text text-anchor="start" x="47" y="-406.5" font-family="Helvetica,sans-Serif" font-size="10.00">fpage()</text>
<text text-anchor="start" x="34" y="-391.5" font-family="Helvetica,sans-Serif" font-size="10.00">+</text>
<text text-anchor="start" x="47" y="-391.5" font-family="Helvetica,sans-Serif" font-size="10.00">snd_base()</text>
<text text-anchor="start" x="34" y="-376.5" font-family="Helvetica,sans-Serif" font-size="10.00">+</text>
<text text-anchor="start" x="47" y="-376.5" font-family="Helvetica,sans-Serif" font-size="10.00">operator==()</text>
<text text-anchor="start" x="34" y="-361.5" font-family="Helvetica,sans-Serif" font-size="10.00">+</text>
<text text-anchor="start" x="47" y="-361.5" font-family="Helvetica,sans-Serif" font-size="10.00">operator!=()</text>
<text text-anchor="start" x="34" y="-346.5" font-family="Helvetica,sans-Serif" font-size="10.00">+</text>
<text text-anchor="start" x="47" y="-346.5" font-family="Helvetica,sans-Serif" font-size="10.00">validate()</text>
<text text-anchor="start" x="34" y="-331.5" font-family="Helvetica,sans-Serif" font-size="10.00">+</text>
<text text-anchor="start" x="47" y="-331.5" font-family="Helvetica,sans-Serif" font-size="10.00">validate()</text>
<text text-anchor="start" x="34" y="-316.5" font-family="Helvetica,sans-Serif" font-size="10.00">+</text>
<text text-anchor="start" x="47" y="-316.5" font-family="Helvetica,sans-Serif" font-size="10.00">invalidate()</text>
<text text-anchor="start" x="34" y="-301.5" font-family="Helvetica,sans-Serif" font-size="10.00">#</text>
<text text-anchor="start" x="47" y="-301.5" font-family="Helvetica,sans-Serif" font-size="10.00">Cap_base()</text>
<text text-anchor="start" x="34" y="-286.5" font-family="Helvetica,sans-Serif" font-size="10.00">#</text>
<text text-anchor="start" x="47" y="-286.5" font-family="Helvetica,sans-Serif" font-size="10.00">Cap_base()</text>
<text text-anchor="start" x="34" y="-271.5" font-family="Helvetica,sans-Serif" font-size="10.00">#</text>
<text text-anchor="start" x="47" y="-271.5" font-family="Helvetica,sans-Serif" font-size="10.00">Cap_base()</text>
<text text-anchor="start" x="34" y="-256.5" font-family="Helvetica,sans-Serif" font-size="10.00">#</text>
<text text-anchor="start" x="47" y="-256.5" font-family="Helvetica,sans-Serif" font-size="10.00">Cap_base()</text>
<text text-anchor="start" x="34" y="-241.5" font-family="Helvetica,sans-Serif" font-size="10.00">#</text>
<text text-anchor="start" x="47" y="-241.5" font-family="Helvetica,sans-Serif" font-size="10.00">move()</text>
<text text-anchor="start" x="34" y="-226.5" font-family="Helvetica,sans-Serif" font-size="10.00">#</text>
<text text-anchor="start" x="47" y="-226.5" font-family="Helvetica,sans-Serif" font-size="10.00">copy()</text>
<polygon fill="#666666" stroke="#666666" points="30,-461.5 30,-461.5 117,-461.5 117,-461.5 30,-461.5"/>
<polygon fill="#666666" stroke="#666666" points="30,-446.5 30,-446.5 45,-446.5 45,-446.5 30,-446.5"/>
<polygon fill="#666666" stroke="#666666" points="45,-446.5 45,-446.5 117,-446.5 117,-446.5 45,-446.5"/>
<polygon fill="none" stroke="#666666" points="29.5,-220 29.5,-479 116.5,-479 116.5,-220 29.5,-220"/>
</a>
</g>
</g>
<!-- Node2&#45;&gt;Node1 -->
<g id="edge1_Node000001_Node000002" class="edge">
<title>Node2&#45;&gt;Node1</title>
<g id="a_edge1_Node000001_Node000002"><a xlink:title=" ">
<path fill="none" stroke="#63b8ff" d="M73,-209.49C73,-200.87 73,-192.32 73,-184"/>
<polygon fill="none" stroke="#63b8ff" points="69.5,-209.63 73,-219.63 76.5,-209.63 69.5,-209.63"/>
</a>
</g>
</g>
</g>
</svg>
