<?xml version="1.0" encoding="UTF-8" standalone="no"?>
<!DOCTYPE svg PUBLIC "-//W3C//DTD SVG 1.1//EN"
 "http://www.w3.org/Graphics/SVG/1.1/DTD/svg11.dtd">
<!-- Generated by graphviz version 2.43.0 (0)
 -->
<!-- Title: L4virtio::Driver::Block_device Pages: 1 -->
<svg width="138pt" height="408pt"
 viewBox="0.00 0.00 138.00 408.00" xmlns="http://www.w3.org/2000/svg" xmlns:xlink="http://www.w3.org/1999/xlink">
<g id="graph0" class="graph" transform="scale(1 1) rotate(0) translate(4 404)">
<title>L4virtio::Driver::Block_device</title>
<!-- Node1 -->
<g id="Node000001" class="node">
<title>Node1</title>
<g id="a_Node000001"><a xlink:title="Simple class for accessing a virtio block device synchronously.">
<polygon fill="#999999" stroke="transparent" points="130,-150 0,-150 0,0 130,0 130,-150"/>
<text text-anchor="start" x="12" y="-138" font-family="Helvetica,sans-Serif" font-size="10.00">L4virtio::Driver::Block</text>
<text text-anchor="start" x="46" y="-127" font-family="Helvetica,sans-Serif" font-size="10.00">_device</text>
<text text-anchor="start" x="63" y="-112" font-family="Helvetica,sans-Serif" font-size="10.00"> </text>
<text text-anchor="start" x="4" y="-97" font-family="Helvetica,sans-Serif" font-size="10.00">+</text>
<text text-anchor="start" x="17" y="-97" font-family="Helvetica,sans-Serif" font-size="10.00">setup_device()</text>
<text text-anchor="start" x="4" y="-82" font-family="Helvetica,sans-Serif" font-size="10.00">+</text>
<text text-anchor="start" x="17" y="-82" font-family="Helvetica,sans-Serif" font-size="10.00">device_config()</text>
<text text-anchor="start" x="4" y="-67" font-family="Helvetica,sans-Serif" font-size="10.00">+</text>
<text text-anchor="start" x="17" y="-67" font-family="Helvetica,sans-Serif" font-size="10.00">start_request()</text>
<text text-anchor="start" x="4" y="-52" font-family="Helvetica,sans-Serif" font-size="10.00">+</text>
<text text-anchor="start" x="17" y="-52" font-family="Helvetica,sans-Serif" font-size="10.00">add_block()</text>
<text text-anchor="start" x="4" y="-37" font-family="Helvetica,sans-Serif" font-size="10.00">+</text>
<text text-anchor="start" x="17" y="-37" font-family="Helvetica,sans-Serif" font-size="10.00">send_request()</text>
<text text-anchor="start" x="4" y="-22" font-family="Helvetica,sans-Serif" font-size="10.00">+</text>
<text text-anchor="start" x="17" y="-22" font-family="Helvetica,sans-Serif" font-size="10.00">process_request()</text>
<text text-anchor="start" x="4" y="-7" font-family="Helvetica,sans-Serif" font-size="10.00">+</text>
<text text-anchor="start" x="17" y="-7" font-family="Helvetica,sans-Serif" font-size="10.00">process_used_queue()</text>
<polygon fill="#666666" stroke="#666666" points="0,-122 0,-122 130,-122 130,-122 0,-122"/>
<polygon fill="#666666" stroke="#666666" points="0,-107 0,-107 130,-107 130,-107 0,-107"/>
<polygon fill="none" stroke="#666666" points="0,0 0,-150 130,-150 130,0 0,0"/>
</a>
</g>
</g>
<!-- Node2 -->
<g id="Node000002" class="node">
<title>Node2</title>
<g id="a_Node000002"><a xlink:href="classL4virtio_1_1Driver_1_1Device.html" target="_top" xlink:title="Client&#45;side implementation for a general virtio device.">
<polygon fill="white" stroke="transparent" points="129,-400 1,-400 1,-186 129,-186 129,-400"/>
<text text-anchor="start" x="8.5" y="-388" font-family="Helvetica,sans-Serif" font-size="10.00">L4virtio::Driver::Device</text>
<text text-anchor="start" x="63" y="-373" font-family="Helvetica,sans-Serif" font-size="10.00"> </text>
<text text-anchor="start" x="5" y="-358" font-family="Helvetica,sans-Serif" font-size="10.00">+</text>
<text text-anchor="start" x="18" y="-358" font-family="Helvetica,sans-Serif" font-size="10.00">driver_connect()</text>
<text text-anchor="start" x="5" y="-343" font-family="Helvetica,sans-Serif" font-size="10.00">+</text>
<text text-anchor="start" x="18" y="-343" font-family="Helvetica,sans-Serif" font-size="10.00">bind_notification_irq()</text>
<text text-anchor="start" x="5" y="-328" font-family="Helvetica,sans-Serif" font-size="10.00">+</text>
<text text-anchor="start" x="18" y="-328" font-family="Helvetica,sans-Serif" font-size="10.00">fail_state()</text>
<text text-anchor="start" x="5" y="-313" font-family="Helvetica,sans-Serif" font-size="10.00">+</text>
<text text-anchor="start" x="18" y="-313" font-family="Helvetica,sans-Serif" font-size="10.00">feature_negotiated()</text>
<text text-anchor="start" x="5" y="-298" font-family="Helvetica,sans-Serif" font-size="10.00">+</text>
<text text-anchor="start" x="18" y="-298" font-family="Helvetica,sans-Serif" font-size="10.00">driver_acknowledge()</text>
<text text-anchor="start" x="5" y="-283" font-family="Helvetica,sans-Serif" font-size="10.00">+</text>
<text text-anchor="start" x="18" y="-283" font-family="Helvetica,sans-Serif" font-size="10.00">register_ds()</text>
<text text-anchor="start" x="5" y="-268" font-family="Helvetica,sans-Serif" font-size="10.00">+</text>
<text text-anchor="start" x="18" y="-268" font-family="Helvetica,sans-Serif" font-size="10.00">config_queue()</text>
<text text-anchor="start" x="5" y="-253" font-family="Helvetica,sans-Serif" font-size="10.00">+</text>
<text text-anchor="start" x="18" y="-253" font-family="Helvetica,sans-Serif" font-size="10.00">max_queue_size()</text>
<text text-anchor="start" x="5" y="-238" font-family="Helvetica,sans-Serif" font-size="10.00">+</text>
<text text-anchor="start" x="18" y="-238" font-family="Helvetica,sans-Serif" font-size="10.00">send_and_wait()</text>
<text text-anchor="start" x="5" y="-223" font-family="Helvetica,sans-Serif" font-size="10.00">+</text>
<text text-anchor="start" x="18" y="-223" font-family="Helvetica,sans-Serif" font-size="10.00">wait()</text>
<text text-anchor="start" x="5" y="-208" font-family="Helvetica,sans-Serif" font-size="10.00">+</text>
<text text-anchor="start" x="18" y="-208" font-family="Helvetica,sans-Serif" font-size="10.00">wait_for_next_used()</text>
<text text-anchor="start" x="5" y="-193" font-family="Helvetica,sans-Serif" font-size="10.00">+</text>
<text text-anchor="start" x="18" y="-193" font-family="Helvetica,sans-Serif" font-size="10.00">send()</text>
<polygon fill="#666666" stroke="#666666" points="1,-383 1,-383 129,-383 129,-383 1,-383"/>
<polygon fill="#666666" stroke="#666666" points="1,-368 1,-368 129,-368 129,-368 1,-368"/>
<polygon fill="none" stroke="#666666" points="1,-186 1,-400 129,-400 129,-186 1,-186"/>
</a>
</g>
</g>
<!-- Node2&#45;&gt;Node1 -->
<g id="edge1_Node000001_Node000002" class="edge">
<title>Node2&#45;&gt;Node1</title>
<g id="a_edge1_Node000001_Node000002"><a xlink:title=" ">
<path fill="none" stroke="#63b8ff" d="M65,-175.73C65,-167.09 65,-158.52 65,-150.24"/>
<polygon fill="none" stroke="#63b8ff" points="61.5,-175.9 65,-185.9 68.5,-175.9 61.5,-175.9"/>
</a>
</g>
</g>
</g>
</svg>
