<?xml version="1.0" encoding="UTF-8" standalone="no"?>
<!DOCTYPE svg PUBLIC "-//W3C//DTD SVG 1.1//EN"
 "http://www.w3.org/Graphics/SVG/1.1/DTD/svg11.dtd">
<!-- Generated by graphviz version 2.43.0 (0)
 -->
<!-- Title: cxx::Bitfield&lt; T, LSB, MSB &gt;::Value&lt; TT &gt; Pages: 1 -->
<svg width="151pt" height="164pt"
 viewBox="0.00 0.00 151.00 164.00" xmlns="http://www.w3.org/2000/svg" xmlns:xlink="http://www.w3.org/1999/xlink">
<g id="graph0" class="graph" transform="scale(1 1) rotate(0) translate(4 160)">
<title>cxx::Bitfield&lt; T, LSB, MSB &gt;::Value&lt; TT &gt;</title>
<!-- Node1 -->
<g id="Node000001" class="node">
<title>Node1</title>
<g id="a_Node000001"><a xlink:title="Internal helper type.">
<polygon fill="#999999" stroke="transparent" points="128.5,-60 14.5,-60 14.5,0 128.5,0 128.5,-60"/>
<text text-anchor="start" x="19.5" y="-48" font-family="Helvetica,sans-Serif" font-size="10.00">cxx::Bitfield&lt; T, LSB,</text>
<text text-anchor="start" x="19.5" y="-37" font-family="Helvetica,sans-Serif" font-size="10.00"> MSB &gt;::Value&lt; TT &gt;</text>
<text text-anchor="start" x="69.5" y="-22" font-family="Helvetica,sans-Serif" font-size="10.00"> </text>
<text text-anchor="start" x="69.5" y="-7" font-family="Helvetica,sans-Serif" font-size="10.00"> </text>
<polygon fill="#666666" stroke="#666666" points="14.5,-32 14.5,-32 128.5,-32 128.5,-32 14.5,-32"/>
<polygon fill="#666666" stroke="#666666" points="14.5,-17 14.5,-17 128.5,-17 128.5,-17 14.5,-17"/>
<polygon fill="none" stroke="#666666" points="14.5,0 14.5,-60 128.5,-60 128.5,0 14.5,0"/>
</a>
</g>
</g>
<!-- Node2 -->
<g id="Node000002" class="node">
<title>Node2</title>
<g id="a_Node000002"><a xlink:href="classcxx_1_1Bitfield_1_1Value__base.html" target="_top" xlink:title="Internal helper type.">
<polygon fill="white" stroke="transparent" points="143,-156 0,-156 0,-96 143,-96 143,-156"/>
<text text-anchor="start" x="5.5" y="-144" font-family="Helvetica,sans-Serif" font-size="10.00">cxx::Bitfield&lt; T, LSB,</text>
<text text-anchor="start" x="5.5" y="-133" font-family="Helvetica,sans-Serif" font-size="10.00"> MSB &gt;::Value_base&lt; TT &gt;</text>
<text text-anchor="start" x="70" y="-118" font-family="Helvetica,sans-Serif" font-size="10.00"> </text>
<text text-anchor="start" x="70" y="-103" font-family="Helvetica,sans-Serif" font-size="10.00"> </text>
<polygon fill="#666666" stroke="#666666" points="0.5,-128 0.5,-128 143.5,-128 143.5,-128 0.5,-128"/>
<polygon fill="#666666" stroke="#666666" points="0.5,-113 0.5,-113 143.5,-113 143.5,-113 0.5,-113"/>
<polygon fill="none" stroke="#666666" points="0,-96 0,-156 143,-156 143,-96 0,-96"/>
</a>
</g>
</g>
<!-- Node2&#45;&gt;Node1 -->
<g id="edge1_Node000001_Node000002" class="edge">
<title>Node2&#45;&gt;Node1</title>
<g id="a_edge1_Node000001_Node000002"><a xlink:title=" ">
<path fill="none" stroke="#63b8ff" d="M71.5,-85.63C71.5,-77.11 71.5,-68.25 71.5,-60.21"/>
<polygon fill="none" stroke="#63b8ff" points="68,-85.77 71.5,-95.77 75,-85.77 68,-85.77"/>
</a>
</g>
</g>
</g>
</svg>
