<?xml version="1.0" encoding="UTF-8" standalone="no"?>
<!DOCTYPE svg PUBLIC "-//W3C//DTD SVG 1.1//EN"
 "http://www.w3.org/Graphics/SVG/1.1/DTD/svg11.dtd">
<!-- Generated by graphviz version 2.43.0 (0)
 -->
<!-- Title: L4::Kobject::cap Pages: 1 -->
<svg width="308pt" height="1218pt"
 viewBox="0.00 0.00 308.00 1218.00" xmlns="http://www.w3.org/2000/svg" xmlns:xlink="http://www.w3.org/1999/xlink">
<g id="graph0" class="graph" transform="scale(1 1) rotate(0) translate(4 1214)">
<title>L4::Kobject::cap</title>
<!-- Node1 -->
<g id="Node000001" class="node">
<title>Node1</title>
<g id="a_Node000001"><a xlink:title="Return capability selector.">
<polygon fill="#999999" stroke="#666666" points="300,-631 207,-631 207,-612 300,-612 300,-631"/>
<text text-anchor="middle" x="253.5" y="-619" font-family="Helvetica,sans-Serif" font-size="10.00">L4::Kobject::cap</text>
</a>
</g>
</g>
<!-- Node2 -->
<g id="Node000002" class="node">
<title>Node2</title>
<g id="a_Node000002"><a xlink:href="classL4_1_1Task.html#af1eface9f54b9b2b396e837af5e75d8a" target="_top" xlink:title="Add kernel&#45;user memory.">
<polygon fill="white" stroke="#666666" points="149,-1210 22,-1210 22,-1191 149,-1191 149,-1210"/>
<text text-anchor="middle" x="85.5" y="-1198" font-family="Helvetica,sans-Serif" font-size="10.00">L4::Task::add_ku_mem</text>
</a>
</g>
</g>
<!-- Node1&#45;&gt;Node2 -->
<g id="edge1_Node000001_Node000002" class="edge">
<title>Node1&#45;&gt;Node2</title>
<g id="a_edge1_Node000001_Node000002"><a xlink:title=" ">
<path fill="none" stroke="#63b8ff" d="M252.53,-641.62C252.24,-732.3 246.4,-1101.98 171,-1182.5 165.05,-1188.85 157.46,-1193.25 149.28,-1196.25"/>
<polygon fill="#63b8ff" stroke="#63b8ff" points="256.03,-641.36 252.54,-631.36 249.03,-641.35 256.03,-641.36"/>
</a>
</g>
</g>
<!-- Node3 -->
<g id="Node000003" class="node">
<title>Node3</title>
<g id="a_Node000003"><a xlink:href="classL4_1_1Task.html#ac3a7a5e423b0b47ed028a6616fe74415" target="_top" xlink:title="Test whether two capabilities point to the same object with the same rights.">
<polygon fill="white" stroke="#666666" points="141,-1173 30,-1173 30,-1154 141,-1154 141,-1173"/>
<text text-anchor="middle" x="85.5" y="-1161" font-family="Helvetica,sans-Serif" font-size="10.00">L4::Task::cap_equal</text>
</a>
</g>
</g>
<!-- Node1&#45;&gt;Node3 -->
<g id="edge2_Node000001_Node000003" class="edge">
<title>Node1&#45;&gt;Node3</title>
<g id="a_edge2_Node000001_Node000003"><a xlink:title=" ">
<path fill="none" stroke="#63b8ff" d="M252.31,-641.38C251.05,-727.93 241.62,-1070.84 171,-1145.5 163.06,-1153.89 152.26,-1158.86 141.02,-1161.71"/>
<polygon fill="#63b8ff" stroke="#63b8ff" points="255.81,-641.16 252.43,-631.12 248.81,-641.08 255.81,-641.16"/>
</a>
</g>
</g>
<!-- Node4 -->
<g id="Node000004" class="node">
<title>Node4</title>
<g id="a_Node000004"><a xlink:href="classL4_1_1Task.html#ac2099a8cdf44b31d8bdcce6d758f8f98" target="_top" xlink:title="Check whether a capability is present (refers to an object).">
<polygon fill="white" stroke="#666666" points="139.5,-1136 31.5,-1136 31.5,-1117 139.5,-1117 139.5,-1136"/>
<text text-anchor="middle" x="85.5" y="-1124" font-family="Helvetica,sans-Serif" font-size="10.00">L4::Task::cap_valid</text>
</a>
</g>
</g>
<!-- Node1&#45;&gt;Node4 -->
<g id="edge3_Node000001_Node000004" class="edge">
<title>Node1&#45;&gt;Node4</title>
<g id="a_edge3_Node000001_Node000004"><a xlink:title=" ">
<path fill="none" stroke="#63b8ff" d="M252.05,-641.29C249.77,-723.85 236.8,-1039.73 171,-1108.5 162.7,-1117.17 151.34,-1122.18 139.64,-1124.97"/>
<polygon fill="#63b8ff" stroke="#63b8ff" points="255.55,-641.32 252.31,-631.24 248.55,-641.15 255.55,-641.32"/>
</a>
</g>
</g>
<!-- Node5 -->
<g id="Node000005" class="node">
<title>Node5</title>
<g id="a_Node000005"><a xlink:href="classL4_1_1Thread.html#a4252cd0ad4bdfa00cdc61b5fd2317aef" target="_top" xlink:title="Commit the given thread&#45;attributes object.">
<polygon fill="white" stroke="#666666" points="139,-1099 32,-1099 32,-1080 139,-1080 139,-1099"/>
<text text-anchor="middle" x="85.5" y="-1087" font-family="Helvetica,sans-Serif" font-size="10.00">L4::Thread::control</text>
</a>
</g>
</g>
<!-- Node1&#45;&gt;Node5 -->
<g id="edge4_Node000001_Node000005" class="edge">
<title>Node1&#45;&gt;Node5</title>
<g id="a_edge4_Node000001_Node000005"><a xlink:title=" ">
<path fill="none" stroke="#63b8ff" d="M251.76,-641.28C248.39,-719.83 231.98,-1008.62 171,-1071.5 162.54,-1080.22 150.98,-1085.23 139.12,-1087.99"/>
<polygon fill="#63b8ff" stroke="#63b8ff" points="255.25,-641.4 252.16,-631.26 248.26,-641.11 255.25,-641.4"/>
</a>
</g>
</g>
<!-- Node6 -->
<g id="Node000006" class="node">
<title>Node6</title>
<g id="a_Node000006"><a xlink:href="classL4_1_1Factory.html#add39d432a64a16aec33abeefcb3ba1cd" target="_top" xlink:title="Create call for typed capabilities.">
<polygon fill="white" stroke="#666666" points="138,-1062 33,-1062 33,-1043 138,-1043 138,-1062"/>
<text text-anchor="middle" x="85.5" y="-1050" font-family="Helvetica,sans-Serif" font-size="10.00">L4::Factory::create</text>
</a>
</g>
</g>
<!-- Node1&#45;&gt;Node6 -->
<g id="edge5_Node000001_Node000006" class="edge">
<title>Node1&#45;&gt;Node6</title>
<g id="a_edge5_Node000001_Node000006"><a xlink:title=" ">
<path fill="none" stroke="#63b8ff" d="M251.39,-641.52C246.84,-716.27 227.11,-977.54 171,-1034.5 162.26,-1043.37 150.31,-1048.38 138.14,-1051.1"/>
<polygon fill="#63b8ff" stroke="#63b8ff" points="254.91,-641.38 251.99,-631.19 247.92,-640.97 254.91,-641.38"/>
</a>
</g>
</g>
<!-- Node7 -->
<g id="Node000007" class="node">
<title>Node7</title>
<g id="a_Node000007"><a xlink:href="classL4_1_1Factory.html#ab52604d4abed4d6009ce51a59492edd7" target="_top" xlink:title="Generic create call to the factory.">
<polygon fill="white" stroke="#666666" points="138,-1025 33,-1025 33,-1006 138,-1006 138,-1025"/>
<text text-anchor="middle" x="85.5" y="-1013" font-family="Helvetica,sans-Serif" font-size="10.00">L4::Factory::create</text>
</a>
</g>
</g>
<!-- Node1&#45;&gt;Node7 -->
<g id="edge6_Node000001_Node000007" class="edge">
<title>Node1&#45;&gt;Node7</title>
<g id="a_edge6_Node000001_Node000007"><a xlink:title=" ">
<path fill="none" stroke="#63b8ff" d="M250.94,-641.46C245.06,-711.59 221.91,-945.22 171,-996.5 162.21,-1005.36 150.23,-1010.47 138.07,-1013.33"/>
<polygon fill="#63b8ff" stroke="#63b8ff" points="254.44,-641.58 251.77,-631.33 247.47,-641.01 254.44,-641.58"/>
</a>
</g>
</g>
<!-- Node8 -->
<g id="Node000008" class="node">
<title>Node8</title>
<g id="a_Node000008"><a xlink:href="classL4_1_1Factory.html#a014721aec27ad4877555d5f4b7204896" target="_top" xlink:title="Create a new factory.">
<polygon fill="white" stroke="#666666" points="138,-987.5 33,-987.5 33,-957.5 138,-957.5 138,-987.5"/>
<text text-anchor="start" x="41" y="-975.5" font-family="Helvetica,sans-Serif" font-size="10.00">L4::Factory::create</text>
<text text-anchor="middle" x="85.5" y="-964.5" font-family="Helvetica,sans-Serif" font-size="10.00">_factory</text>
</a>
</g>
</g>
<!-- Node1&#45;&gt;Node8 -->
<g id="edge7_Node000001_Node000008" class="edge">
<title>Node1&#45;&gt;Node8</title>
<g id="a_edge7_Node000001_Node000008"><a xlink:title=" ">
<path fill="none" stroke="#63b8ff" d="M250.17,-641.26C242.28,-704.97 214.57,-903.49 171,-948.5 162.2,-957.59 150.22,-963.31 138.05,-966.89"/>
<polygon fill="#63b8ff" stroke="#63b8ff" points="253.65,-641.65 251.38,-631.3 246.7,-640.81 253.65,-641.65"/>
</a>
</g>
</g>
<!-- Node9 -->
<g id="Node000009" class="node">
<title>Node9</title>
<g id="a_Node000009"><a xlink:href="classL4_1_1Factory.html#aac0a160a20464a6917f2f614d5b86407" target="_top" xlink:title="Create a new IPC gate.">
<polygon fill="white" stroke="#666666" points="151.5,-939 19.5,-939 19.5,-920 151.5,-920 151.5,-939"/>
<text text-anchor="middle" x="85.5" y="-927" font-family="Helvetica,sans-Serif" font-size="10.00">L4::Factory::create_gate</text>
</a>
</g>
</g>
<!-- Node1&#45;&gt;Node9 -->
<g id="edge8_Node000001_Node000009" class="edge">
<title>Node1&#45;&gt;Node9</title>
<g id="a_edge8_Node000001_Node000009"><a xlink:title=" ">
<path fill="none" stroke="#63b8ff" d="M253.37,-641.28C254.51,-693.74 249.91,-837.49 171,-911.5 165.42,-916.73 158.71,-920.6 151.54,-923.43"/>
<polygon fill="#63b8ff" stroke="#63b8ff" points="256.86,-640.89 253.04,-631.01 249.86,-641.12 256.86,-640.89"/>
</a>
</g>
</g>
<!-- Node10 -->
<g id="Node000010" class="node">
<title>Node10</title>
<g id="a_Node000010"><a xlink:href="classL4_1_1Factory.html#a5a2119bba3ea97bfb0f10897c1c64ecb" target="_top" xlink:title="Create a new task.">
<polygon fill="white" stroke="#666666" points="151,-902 20,-902 20,-883 151,-883 151,-902"/>
<text text-anchor="middle" x="85.5" y="-890" font-family="Helvetica,sans-Serif" font-size="10.00">L4::Factory::create_task</text>
</a>
</g>
</g>
<!-- Node1&#45;&gt;Node10 -->
<g id="edge9_Node000001_Node000010" class="edge">
<title>Node1&#45;&gt;Node10</title>
<g id="a_edge9_Node000001_Node000010"><a xlink:title=" ">
<path fill="none" stroke="#63b8ff" d="M252.41,-641.3C251.06,-689.12 240.61,-811.64 171,-874.5 165.32,-879.63 158.55,-883.43 151.35,-886.22"/>
<polygon fill="#63b8ff" stroke="#63b8ff" points="255.91,-641.12 252.59,-631.07 248.92,-641 255.91,-641.12"/>
</a>
</g>
</g>
<!-- Node11 -->
<g id="Node000011" class="node">
<title>Node11</title>
<g id="a_Node000011"><a xlink:href="classL4_1_1Task.html#a6cc499337ace36c2cec41da182c905fc" target="_top" xlink:title="Release capability and delete object.">
<polygon fill="white" stroke="#666666" points="142,-865 29,-865 29,-846 142,-846 142,-865"/>
<text text-anchor="middle" x="85.5" y="-853" font-family="Helvetica,sans-Serif" font-size="10.00">L4::Task::delete_obj</text>
</a>
</g>
</g>
<!-- Node1&#45;&gt;Node11 -->
<g id="edge10_Node000001_Node000011" class="edge">
<title>Node1&#45;&gt;Node11</title>
<g id="a_edge10_Node000001_Node000011"><a xlink:title=" ">
<path fill="none" stroke="#63b8ff" d="M251.16,-641.27C247.15,-684.06 231.42,-785.57 171,-837.5 162.81,-844.54 152.54,-849.04 142.01,-851.88"/>
<polygon fill="#63b8ff" stroke="#63b8ff" points="254.67,-641.32 251.99,-631.06 247.69,-640.75 254.67,-641.32"/>
</a>
</g>
</g>
<!-- Node12 -->
<g id="Node000012" class="node">
<title>Node12</title>
<g id="a_Node000012"><a xlink:href="classL4_1_1Thread.html#af50335e91a9efefa66b440aefefd9c61" target="_top" xlink:title="Exchange basic thread registers and return previous values.">
<polygon fill="white" stroke="#666666" points="141.5,-828 29.5,-828 29.5,-809 141.5,-809 141.5,-828"/>
<text text-anchor="middle" x="85.5" y="-816" font-family="Helvetica,sans-Serif" font-size="10.00">L4::Thread::ex_regs</text>
</a>
</g>
</g>
<!-- Node1&#45;&gt;Node12 -->
<g id="edge11_Node000001_Node000012" class="edge">
<title>Node1&#45;&gt;Node12</title>
<g id="a_edge11_Node000001_Node000012"><a xlink:title=" ">
<path fill="none" stroke="#63b8ff" d="M249.46,-641.17C242.62,-678.42 222.39,-759.22 171,-800.5 162.58,-807.26 152.21,-811.65 141.66,-814.45"/>
<polygon fill="#63b8ff" stroke="#63b8ff" points="252.95,-641.54 251.17,-631.1 246.05,-640.37 252.95,-641.54"/>
</a>
</g>
</g>
<!-- Node13 -->
<g id="Node000013" class="node">
<title>Node13</title>
<g id="a_Node000013"><a xlink:href="classL4_1_1Thread.html#aacd56bbf983577cfc591f21fd511d3b6" target="_top" xlink:title="Exchange basic thread registers.">
<polygon fill="white" stroke="#666666" points="141.5,-791 29.5,-791 29.5,-772 141.5,-772 141.5,-791"/>
<text text-anchor="middle" x="85.5" y="-779" font-family="Helvetica,sans-Serif" font-size="10.00">L4::Thread::ex_regs</text>
</a>
</g>
</g>
<!-- Node1&#45;&gt;Node13 -->
<g id="edge12_Node000001_Node000013" class="edge">
<title>Node1&#45;&gt;Node13</title>
<g id="a_edge12_Node000001_Node000013"><a xlink:title=" ">
<path fill="none" stroke="#63b8ff" d="M247,-640.98C237.18,-672.05 213.53,-732.5 171,-763.5 162.39,-769.77 152.06,-773.95 141.62,-776.71"/>
<polygon fill="#63b8ff" stroke="#63b8ff" points="250.38,-641.89 249.91,-631.31 243.68,-639.88 250.38,-641.89"/>
</a>
</g>
</g>
<!-- Node14 -->
<g id="Node000014" class="node">
<title>Node14</title>
<g id="a_Node000014"><a xlink:href="classL4_1_1Debugger.html#a3971a4965501d6557ee44fbef97ede7d" target="_top" xlink:title="Get name of object with Id id.">
<polygon fill="white" stroke="#666666" points="171,-754 0,-754 0,-735 171,-735 171,-754"/>
<text text-anchor="middle" x="85.5" y="-742" font-family="Helvetica,sans-Serif" font-size="10.00">L4::Debugger::get_object_name</text>
</a>
</g>
</g>
<!-- Node1&#45;&gt;Node14 -->
<g id="edge13_Node000001_Node000014" class="edge">
<title>Node1&#45;&gt;Node14</title>
<g id="a_edge13_Node000001_Node000014"><a xlink:title=" ">
<path fill="none" stroke="#63b8ff" d="M243.27,-640.3C230.48,-664.26 205.04,-705.15 171,-726.5 165.54,-729.93 159.52,-732.71 153.3,-734.97"/>
<polygon fill="#63b8ff" stroke="#63b8ff" points="246.5,-641.66 247.96,-631.17 240.28,-638.46 246.5,-641.66"/>
</a>
</g>
</g>
<!-- Node15 -->
<g id="Node000015" class="node">
<title>Node15</title>
<g id="a_Node000015"><a xlink:href="classL4_1_1Debugger.html#a3ee2faa3af880a05df406e9e6a48b45e" target="_top" xlink:title="Get the globally unique ID of the object behind a capability.">
<polygon fill="white" stroke="#666666" points="151,-717 20,-717 20,-698 151,-698 151,-717"/>
<text text-anchor="middle" x="85.5" y="-705" font-family="Helvetica,sans-Serif" font-size="10.00">L4::Debugger::global_id</text>
</a>
</g>
</g>
<!-- Node1&#45;&gt;Node15 -->
<g id="edge14_Node000001_Node000015" class="edge">
<title>Node1&#45;&gt;Node15</title>
<g id="a_edge14_Node000001_Node000015"><a xlink:title=" ">
<path fill="none" stroke="#63b8ff" d="M236.36,-638.74C221,-654.11 196.5,-676.03 171,-688.5 163.03,-692.4 154.24,-695.5 145.44,-697.98"/>
<polygon fill="#63b8ff" stroke="#63b8ff" points="239.05,-641 243.51,-631.39 234.03,-636.11 239.05,-641"/>
</a>
</g>
</g>
<!-- Node16 -->
<g id="Node000016" class="node">
<title>Node16</title>
<g id="a_Node000016"><a xlink:href="classL4_1_1Debugger.html#ac7c3534030cb16125329f97e2ebcda72" target="_top" xlink:title="Get the globally unique ID of the object behind the kobject pointer.">
<polygon fill="white" stroke="#666666" points="139,-679.5 32,-679.5 32,-649.5 139,-649.5 139,-679.5"/>
<text text-anchor="start" x="40" y="-667.5" font-family="Helvetica,sans-Serif" font-size="10.00">L4::Debugger::kobj</text>
<text text-anchor="middle" x="85.5" y="-656.5" font-family="Helvetica,sans-Serif" font-size="10.00">_to_id</text>
</a>
</g>
</g>
<!-- Node1&#45;&gt;Node16 -->
<g id="edge15_Node000001_Node000016" class="edge">
<title>Node1&#45;&gt;Node16</title>
<g id="a_edge15_Node000001_Node000016"><a xlink:title=" ">
<path fill="none" stroke="#63b8ff" d="M205.83,-633.59C185.12,-638.95 160.67,-645.29 139.3,-650.82"/>
<polygon fill="#63b8ff" stroke="#63b8ff" points="206.86,-636.94 215.66,-631.04 205.1,-630.16 206.86,-636.94"/>
</a>
</g>
</g>
<!-- Node17 -->
<g id="Node000017" class="node">
<title>Node17</title>
<g id="a_Node000017"><a xlink:href="classL4_1_1Task.html#a2712eda0c02dca9b9e5324e93326f704" target="_top" xlink:title="Map resources available in the source task to a destination task.">
<polygon fill="white" stroke="#666666" points="127,-631 44,-631 44,-612 127,-612 127,-631"/>
<text text-anchor="middle" x="85.5" y="-619" font-family="Helvetica,sans-Serif" font-size="10.00">L4::Task::map</text>
</a>
</g>
</g>
<!-- Node1&#45;&gt;Node17 -->
<g id="edge16_Node000001_Node000017" class="edge">
<title>Node1&#45;&gt;Node17</title>
<g id="a_edge16_Node000001_Node000017"><a xlink:title=" ">
<path fill="none" stroke="#63b8ff" d="M196.49,-621.5C173.73,-621.5 147.94,-621.5 127.06,-621.5"/>
<polygon fill="#63b8ff" stroke="#63b8ff" points="196.7,-625 206.7,-621.5 196.7,-618 196.7,-625"/>
</a>
</g>
</g>
<!-- Node18 -->
<g id="Node000018" class="node">
<title>Node18</title>
<g id="a_Node000018"><a xlink:href="classL4_1_1Thread.html#a9bcade7e8db8d775cc1f2a2a6225c845" target="_top" xlink:title="Apply sender modification rules.">
<polygon fill="white" stroke="#666666" points="139,-593.5 32,-593.5 32,-563.5 139,-563.5 139,-593.5"/>
<text text-anchor="start" x="40" y="-581.5" font-family="Helvetica,sans-Serif" font-size="10.00">L4::Thread::modify</text>
<text text-anchor="middle" x="85.5" y="-570.5" font-family="Helvetica,sans-Serif" font-size="10.00">_senders</text>
</a>
</g>
</g>
<!-- Node1&#45;&gt;Node18 -->
<g id="edge17_Node000001_Node000018" class="edge">
<title>Node1&#45;&gt;Node18</title>
<g id="a_edge17_Node000001_Node000018"><a xlink:title=" ">
<path fill="none" stroke="#63b8ff" d="M205.83,-609.41C185.12,-604.05 160.67,-597.71 139.3,-592.18"/>
<polygon fill="#63b8ff" stroke="#63b8ff" points="205.1,-612.84 215.66,-611.96 206.86,-606.06 205.1,-612.84"/>
</a>
</g>
</g>
<!-- Node19 -->
<g id="Node000019" class="node">
<title>Node19</title>
<g id="a_Node000019"><a xlink:href="classL4_1_1Debugger.html#a882a885d5297c0c1de65e3471bc6e09b" target="_top" xlink:title="Query the name of a log type given the ID.">
<polygon fill="white" stroke="#666666" points="143,-545.5 28,-545.5 28,-515.5 143,-515.5 143,-545.5"/>
<text text-anchor="start" x="36" y="-533.5" font-family="Helvetica,sans-Serif" font-size="10.00">L4::Debugger::query</text>
<text text-anchor="middle" x="85.5" y="-522.5" font-family="Helvetica,sans-Serif" font-size="10.00">_log_name</text>
</a>
</g>
</g>
<!-- Node1&#45;&gt;Node19 -->
<g id="edge18_Node000001_Node000019" class="edge">
<title>Node1&#45;&gt;Node19</title>
<g id="a_edge18_Node000001_Node000019"><a xlink:title=" ">
<path fill="none" stroke="#63b8ff" d="M236.19,-604.59C220.72,-589.45 196.15,-567.67 171,-554.5 162.35,-549.97 152.75,-546.21 143.21,-543.11"/>
<polygon fill="#63b8ff" stroke="#63b8ff" points="233.87,-607.21 243.41,-611.82 238.82,-602.27 233.87,-607.21"/>
</a>
</g>
</g>
<!-- Node20 -->
<g id="Node000020" class="node">
<title>Node20</title>
<g id="a_Node000020"><a xlink:href="classL4_1_1Debugger.html#a944cca2911968ef08d7cdb86bcab29b3" target="_top" xlink:title="Query the log&#45;id for a log type.">
<polygon fill="white" stroke="#666666" points="143,-497.5 28,-497.5 28,-467.5 143,-467.5 143,-497.5"/>
<text text-anchor="start" x="36" y="-485.5" font-family="Helvetica,sans-Serif" font-size="10.00">L4::Debugger::query</text>
<text text-anchor="middle" x="85.5" y="-474.5" font-family="Helvetica,sans-Serif" font-size="10.00">_log_typeid</text>
</a>
</g>
</g>
<!-- Node1&#45;&gt;Node20 -->
<g id="edge19_Node000001_Node000020" class="edge">
<title>Node1&#45;&gt;Node20</title>
<g id="a_edge19_Node000001_Node000020"><a xlink:title=" ">
<path fill="none" stroke="#63b8ff" d="M244.04,-602.4C231.69,-576.73 206.3,-531.46 171,-506.5 162.66,-500.6 152.89,-496.15 143.02,-492.78"/>
<polygon fill="#63b8ff" stroke="#63b8ff" points="241.01,-604.19 248.39,-611.79 247.36,-601.24 241.01,-604.19"/>
</a>
</g>
</g>
<!-- Node21 -->
<g id="Node000021" class="node">
<title>Node21</title>
<g id="a_Node000021"><a xlink:href="classL4_1_1Thread.html#a5506636d5612bbc65a07edebcb885b8c" target="_top" xlink:title="Register an IRQ that will trigger upon deletion events.">
<polygon fill="white" stroke="#666666" points="141,-449.5 30,-449.5 30,-419.5 141,-419.5 141,-449.5"/>
<text text-anchor="start" x="38" y="-437.5" font-family="Helvetica,sans-Serif" font-size="10.00">L4::Thread::register</text>
<text text-anchor="middle" x="85.5" y="-426.5" font-family="Helvetica,sans-Serif" font-size="10.00">_del_irq</text>
</a>
</g>
</g>
<!-- Node1&#45;&gt;Node21 -->
<g id="edge20_Node000001_Node000021" class="edge">
<title>Node1&#45;&gt;Node21</title>
<g id="a_edge20_Node000001_Node000021"><a xlink:title=" ">
<path fill="none" stroke="#63b8ff" d="M248.2,-601.96C239.64,-567.68 217.16,-496.75 171,-458.5 162.43,-451.4 151.87,-446.39 141.16,-442.87"/>
<polygon fill="#63b8ff" stroke="#63b8ff" points="244.8,-602.78 250.51,-611.71 251.61,-601.17 244.8,-602.78"/>
</a>
</g>
</g>
<!-- Node22 -->
<g id="Node000022" class="node">
<title>Node22</title>
<g id="a_Node000022"><a xlink:href="classL4_1_1Task.html#a6fd63174fb70beb932b8889e3d644b53" target="_top" xlink:title="Release object capability.">
<polygon fill="white" stroke="#666666" points="145.5,-401 25.5,-401 25.5,-382 145.5,-382 145.5,-401"/>
<text text-anchor="middle" x="85.5" y="-389" font-family="Helvetica,sans-Serif" font-size="10.00">L4::Task::release_cap</text>
</a>
</g>
</g>
<!-- Node1&#45;&gt;Node22 -->
<g id="edge21_Node000001_Node000022" class="edge">
<title>Node1&#45;&gt;Node22</title>
<g id="a_edge21_Node000001_Node000022"><a xlink:title=" ">
<path fill="none" stroke="#63b8ff" d="M250.9,-601.65C246.41,-559.59 229.84,-461.25 171,-410.5 163.83,-404.31 155.07,-400.02 145.93,-397.06"/>
<polygon fill="#63b8ff" stroke="#63b8ff" points="247.43,-602.09 251.86,-611.71 254.4,-601.43 247.43,-602.09"/>
</a>
</g>
</g>
<!-- Node23 -->
<g id="Node000023" class="node">
<title>Node23</title>
<g id="a_Node000023"><a xlink:href="classL4_1_1Debugger.html#acdd127740e39ecba17d0c82dc1f4ff97" target="_top" xlink:title="Set the name of a kernel object.">
<polygon fill="white" stroke="#666666" points="170.5,-364 0.5,-364 0.5,-345 170.5,-345 170.5,-364"/>
<text text-anchor="middle" x="85.5" y="-352" font-family="Helvetica,sans-Serif" font-size="10.00">L4::Debugger::set_object_name</text>
</a>
</g>
</g>
<!-- Node1&#45;&gt;Node23 -->
<g id="edge22_Node000001_Node000023" class="edge">
<title>Node1&#45;&gt;Node23</title>
<g id="a_edge22_Node000001_Node000023"><a xlink:title=" ">
<path fill="none" stroke="#63b8ff" d="M252.22,-601.81C250.43,-554.79 239.04,-435.28 171,-373.5 166.77,-369.66 161.93,-366.54 156.76,-364.01"/>
<polygon fill="#63b8ff" stroke="#63b8ff" points="248.72,-601.99 252.49,-611.89 255.72,-601.8 248.72,-601.99"/>
</a>
</g>
</g>
<!-- Node24 -->
<g id="Node000024" class="node">
<title>Node24</title>
<g id="a_Node000024"><a xlink:href="classL4_1_1Thread.html#a7c75cd39ef9fbe963d357d9909da7c10" target="_top" xlink:title="Get consumed time of thread in us.">
<polygon fill="white" stroke="#666666" points="148,-327 23,-327 23,-308 148,-308 148,-327"/>
<text text-anchor="middle" x="85.5" y="-315" font-family="Helvetica,sans-Serif" font-size="10.00">L4::Thread::stats_time</text>
</a>
</g>
</g>
<!-- Node1&#45;&gt;Node24 -->
<g id="edge23_Node000001_Node000024" class="edge">
<title>Node1&#45;&gt;Node24</title>
<g id="a_edge23_Node000001_Node000024"><a xlink:title=" ">
<path fill="none" stroke="#63b8ff" d="M253.2,-601.76C253.9,-550.01 248.23,-409.42 171,-336.5 164.55,-330.41 156.58,-326.12 148.14,-323.12"/>
<polygon fill="#63b8ff" stroke="#63b8ff" points="249.7,-601.82 252.96,-611.9 256.7,-601.99 249.7,-601.82"/>
</a>
</g>
</g>
<!-- Node25 -->
<g id="Node000025" class="node">
<title>Node25</title>
<g id="a_Node000025"><a xlink:href="classL4_1_1Debugger.html#aa832e2140225b1eeba7f1c5c6d718fa6" target="_top" xlink:title="Set or unset log.">
<polygon fill="white" stroke="#666666" points="155,-290 16,-290 16,-271 155,-271 155,-290"/>
<text text-anchor="middle" x="85.5" y="-278" font-family="Helvetica,sans-Serif" font-size="10.00">L4::Debugger::switch_log</text>
</a>
</g>
</g>
<!-- Node1&#45;&gt;Node25 -->
<g id="edge24_Node000001_Node000025" class="edge">
<title>Node1&#45;&gt;Node25</title>
<g id="a_edge24_Node000001_Node000025"><a xlink:title=" ">
<path fill="none" stroke="#63b8ff" d="M250.18,-601.55C242.38,-538.08 215.15,-342.48 171,-299.5 166.37,-294.99 160.91,-291.46 155.03,-288.7"/>
<polygon fill="#63b8ff" stroke="#63b8ff" points="246.74,-602.29 251.4,-611.8 253.69,-601.45 246.74,-602.29"/>
</a>
</g>
</g>
<!-- Node26 -->
<g id="Node000026" class="node">
<title>Node26</title>
<g id="a_Node000026"><a xlink:href="classL4_1_1Thread.html#a7bb604d3fe94545ad9e44b46600aef46" target="_top" xlink:title="Switch execution to this thread.">
<polygon fill="white" stroke="#666666" points="145.5,-253 25.5,-253 25.5,-234 145.5,-234 145.5,-253"/>
<text text-anchor="middle" x="85.5" y="-241" font-family="Helvetica,sans-Serif" font-size="10.00">L4::Thread::switch_to</text>
</a>
</g>
</g>
<!-- Node1&#45;&gt;Node26 -->
<g id="edge25_Node000001_Node000026" class="edge">
<title>Node1&#45;&gt;Node26</title>
<g id="a_edge25_Node000001_Node000026"><a xlink:title=" ">
<path fill="none" stroke="#63b8ff" d="M250.73,-601.52C244.29,-533.32 219.86,-311.26 171,-262.5 164.08,-255.6 155.23,-250.97 145.87,-247.92"/>
<polygon fill="#63b8ff" stroke="#63b8ff" points="247.27,-602.11 251.67,-611.75 254.24,-601.47 247.27,-602.11"/>
</a>
</g>
</g>
<!-- Node27 -->
<g id="Node000027" class="node">
<title>Node27</title>
<g id="a_Node000027"><a xlink:href="classL4_1_1Task.html#a4b9294cc5d6338a36958df578f092a25" target="_top" xlink:title="Revoke rights from the task.">
<polygon fill="white" stroke="#666666" points="133,-216 38,-216 38,-197 133,-197 133,-216"/>
<text text-anchor="middle" x="85.5" y="-204" font-family="Helvetica,sans-Serif" font-size="10.00">L4::Task::unmap</text>
</a>
</g>
</g>
<!-- Node1&#45;&gt;Node27 -->
<g id="edge26_Node000001_Node000027" class="edge">
<title>Node1&#45;&gt;Node27</title>
<g id="a_edge26_Node000001_Node000027"><a xlink:title=" ">
<path fill="none" stroke="#63b8ff" d="M251.21,-601.84C246.08,-529.6 224.68,-280.17 171,-225.5 161.1,-215.42 147.07,-210.17 133.29,-207.58"/>
<polygon fill="#63b8ff" stroke="#63b8ff" points="247.72,-602.12 251.9,-611.86 254.71,-601.64 247.72,-602.12"/>
</a>
</g>
</g>
<!-- Node28 -->
<g id="Node000028" class="node">
<title>Node28</title>
<g id="a_Node000028"><a xlink:href="classL4_1_1Task.html#aaf697eee4820135193d30e4b0e89535b" target="_top" xlink:title="Revoke rights from a task.">
<polygon fill="white" stroke="#666666" points="149.5,-179 21.5,-179 21.5,-160 149.5,-160 149.5,-179"/>
<text text-anchor="middle" x="85.5" y="-167" font-family="Helvetica,sans-Serif" font-size="10.00">L4::Task::unmap_batch</text>
</a>
</g>
</g>
<!-- Node1&#45;&gt;Node28 -->
<g id="edge27_Node000001_Node000028" class="edge">
<title>Node1&#45;&gt;Node28</title>
<g id="a_edge27_Node000001_Node000028"><a xlink:title=" ">
<path fill="none" stroke="#63b8ff" d="M251.57,-601.52C247.58,-524.61 229.37,-248.96 171,-188.5 165.05,-182.33 157.56,-177.97 149.51,-174.92"/>
<polygon fill="#63b8ff" stroke="#63b8ff" points="248.09,-601.92 252.08,-611.74 255.08,-601.58 248.09,-601.92"/>
</a>
</g>
</g>
<!-- Node29 -->
<g id="Node000029" class="node">
<title>Node29</title>
<g id="a_Node000029"><a xlink:href="classL4_1_1Thread.html#a94a6d8a5a7a78fa99ef3c6358e0a0459" target="_top" xlink:title="Enable the vCPU feature for the thread.">
<polygon fill="white" stroke="#666666" points="153.5,-142 17.5,-142 17.5,-123 153.5,-123 153.5,-142"/>
<text text-anchor="middle" x="85.5" y="-130" font-family="Helvetica,sans-Serif" font-size="10.00">L4::Thread::vcpu_control</text>
</a>
</g>
</g>
<!-- Node1&#45;&gt;Node29 -->
<g id="edge28_Node000001_Node000029" class="edge">
<title>Node1&#45;&gt;Node29</title>
<g id="a_edge28_Node000001_Node000029"><a xlink:title=" ">
<path fill="none" stroke="#63b8ff" d="M251.89,-601.4C249.01,-520.24 234.12,-217.83 171,-151.5 166.13,-146.38 160.2,-142.5 153.76,-139.58"/>
<polygon fill="#63b8ff" stroke="#63b8ff" points="248.4,-601.84 252.23,-611.72 255.4,-601.61 248.4,-601.84"/>
</a>
</g>
</g>
<!-- Node30 -->
<g id="Node000030" class="node">
<title>Node30</title>
<g id="a_Node000030"><a xlink:href="classL4_1_1Thread.html#ac341b827b00c21bc3753c30163e0f173" target="_top" xlink:title="Enable the extended vCPU feature for the thread.">
<polygon fill="white" stroke="#666666" points="164,-105 7,-105 7,-86 164,-86 164,-105"/>
<text text-anchor="middle" x="85.5" y="-93" font-family="Helvetica,sans-Serif" font-size="10.00">L4::Thread::vcpu_control_ext</text>
</a>
</g>
</g>
<!-- Node1&#45;&gt;Node30 -->
<g id="edge29_Node000001_Node000030" class="edge">
<title>Node1&#45;&gt;Node30</title>
<g id="a_edge29_Node000001_Node000030"><a xlink:title=" ">
<path fill="none" stroke="#63b8ff" d="M252.17,-601.74C250.37,-517.18 239.01,-186.85 171,-114.5 167.5,-110.78 163.44,-107.7 159.02,-105.18"/>
<polygon fill="#63b8ff" stroke="#63b8ff" points="248.68,-601.86 252.37,-611.79 255.67,-601.73 248.68,-601.86"/>
</a>
</g>
</g>
<!-- Node31 -->
<g id="Node000031" class="node">
<title>Node31</title>
<g id="a_Node000031"><a xlink:href="classL4_1_1Thread.html#a72ce9179f1b083a65f0d4caa5b6aee67" target="_top" xlink:title="Resume from vCPU asynchronous IPC handler, commit.">
<polygon fill="white" stroke="#666666" points="155,-67.5 16,-67.5 16,-37.5 155,-37.5 155,-67.5"/>
<text text-anchor="start" x="24" y="-55.5" font-family="Helvetica,sans-Serif" font-size="10.00">L4::Thread::vcpu_resume</text>
<text text-anchor="middle" x="85.5" y="-44.5" font-family="Helvetica,sans-Serif" font-size="10.00">_commit</text>
</a>
</g>
</g>
<!-- Node1&#45;&gt;Node31 -->
<g id="edge30_Node000001_Node000031" class="edge">
<title>Node1&#45;&gt;Node31</title>
<g id="a_edge30_Node000001_Node000031"><a xlink:title=" ">
<path fill="none" stroke="#63b8ff" d="M252.28,-601.55C250.92,-513.21 241.1,-158.09 171,-77.5 166.58,-72.42 161.19,-68.35 155.28,-65.09"/>
<polygon fill="#63b8ff" stroke="#63b8ff" points="248.78,-601.63 252.42,-611.58 255.78,-601.54 248.78,-601.63"/>
</a>
</g>
</g>
<!-- Node32 -->
<g id="Node000032" class="node">
<title>Node32</title>
<g id="a_Node000032"><a xlink:href="classL4_1_1Vm.html#ab14cb70e8330d3e1ce5528e96fe0a0da" target="_top" xlink:title="Map the GIC virtual CPU interface page to the task in case Fiasco detected a GIC version 2.">
<polygon fill="white" stroke="#666666" points="140,-19 31,-19 31,0 140,0 140,-19"/>
<text text-anchor="middle" x="85.5" y="-7" font-family="Helvetica,sans-Serif" font-size="10.00">L4::Vm::vgicc_map</text>
</a>
</g>
</g>
<!-- Node1&#45;&gt;Node32 -->
<g id="edge31_Node000001_Node000032" class="edge">
<title>Node1&#45;&gt;Node32</title>
<g id="a_edge31_Node000001_Node000032"><a xlink:title=" ">
<path fill="none" stroke="#63b8ff" d="M252.68,-601.76C253.12,-508.69 250.22,-114.73 171,-28.5 162.96,-19.75 151.84,-14.59 140.3,-11.64"/>
<polygon fill="#63b8ff" stroke="#63b8ff" points="249.18,-601.98 252.61,-612 256.18,-602.02 249.18,-601.98"/>
</a>
</g>
</g>
</g>
</svg>
