<?xml version="1.0" encoding="UTF-8" standalone="no"?>
<!DOCTYPE svg PUBLIC "-//W3C//DTD SVG 1.1//EN"
 "http://www.w3.org/Graphics/SVG/1.1/DTD/svg11.dtd">
<!-- Generated by graphviz version 2.42.4 (0)
 -->
<!-- Title: cxx::Bitfield::get Pages: 1 -->
<svg width="366pt" height="51pt"
 viewBox="0.00 0.00 366.00 50.50" xmlns="http://www.w3.org/2000/svg" xmlns:xlink="http://www.w3.org/1999/xlink">
<g id="graph0" class="graph" transform="scale(1 1) rotate(0) translate(4 46.5)">
<title>cxx::Bitfield::get</title>
<!-- Node1 -->
<g id="Node000001" class="node">
<title>Node1</title>
<g id="a_Node000001"><a xlink:title="Get the bits out of val.">
<polygon fill="#999999" stroke="#666666" points="96,-24.5 0,-24.5 0,-5.5 96,-5.5 96,-24.5"/>
<text text-anchor="middle" x="48" y="-12.5" font-family="Helvetica,sans-Serif" font-size="10.00">cxx::Bitfield::get</text>
</a>
</g>
</g>
<!-- Node2 -->
<g id="Node000002" class="node">
<title>Node2</title>
<g id="a_Node000002"><a xlink:href="classcxx_1_1Bitfield.html#a9eb831cf0efee1b05529a685f9cf8367" target="_top" xlink:title="Get the shifted bits for val.">
<polygon fill="white" stroke="#666666" points="227,-24.5 132,-24.5 132,-5.5 227,-5.5 227,-24.5"/>
<text text-anchor="middle" x="179.5" y="-12.5" font-family="Helvetica,sans-Serif" font-size="10.00">cxx::Bitfield::val</text>
</a>
</g>
</g>
<!-- Node1&#45;&gt;Node2 -->
<g id="edge1_Node000001_Node000002" class="edge">
<title>Node1&#45;&gt;Node2</title>
<g id="a_edge1_Node000001_Node000002"><a xlink:title=" ">
<path fill="none" stroke="#63b8ff" d="M96.12,-15C104.35,-15 112.98,-15 121.44,-15"/>
<polygon fill="#63b8ff" stroke="#63b8ff" points="121.63,-18.5 131.63,-15 121.63,-11.5 121.63,-18.5"/>
</a>
</g>
</g>
<!-- Node2&#45;&gt;Node2 -->
<g id="edge2_Node000002_Node000002" class="edge">
<title>Node2&#45;&gt;Node2</title>
<g id="a_edge2_Node000002_Node000002"><a xlink:title=" ">
<path fill="none" stroke="#63b8ff" d="M159.46,-24.58C149.72,-33.23 156.39,-42.5 179.5,-42.5 194.3,-42.5 202.36,-38.7 203.68,-33.69"/>
<polygon fill="#63b8ff" stroke="#63b8ff" points="206.86,-32.23 199.54,-24.58 200.49,-35.13 206.86,-32.23"/>
</a>
</g>
</g>
<!-- Node3 -->
<g id="Node000003" class="node">
<title>Node3</title>
<g id="a_Node000003"><a xlink:href="classcxx_1_1Bitfield.html#a818da07b2e19e478f5deb4f30fed2b68" target="_top" xlink:title="Get the shifted bits for val.">
<polygon fill="white" stroke="#666666" points="358,-30 263,-30 263,0 358,0 358,-30"/>
<text text-anchor="start" x="271" y="-18" font-family="Helvetica,sans-Serif" font-size="10.00">cxx::Bitfield::val</text>
<text text-anchor="middle" x="310.5" y="-7" font-family="Helvetica,sans-Serif" font-size="10.00">_dirty</text>
</a>
</g>
</g>
<!-- Node2&#45;&gt;Node3 -->
<g id="edge3_Node000002_Node000003" class="edge">
<title>Node2&#45;&gt;Node3</title>
<g id="a_edge3_Node000002_Node000003"><a xlink:title=" ">
<path fill="none" stroke="#63b8ff" d="M227.07,-8.49C235.48,-8.26 244.32,-8.2 252.97,-8.3"/>
<polygon fill="#63b8ff" stroke="#63b8ff" points="252.93,-11.8 263,-8.49 253.07,-4.8 252.93,-11.8"/>
</a>
</g>
</g>
<!-- Node3&#45;&gt;Node2 -->
<g id="edge4_Node000003_Node000002" class="edge">
<title>Node3&#45;&gt;Node2</title>
<g id="a_edge4_Node000003_Node000002"><a xlink:title=" ">
<path fill="none" stroke="#63b8ff" d="M263,-21.51C254.6,-21.74 245.75,-21.8 237.1,-21.7"/>
<polygon fill="#63b8ff" stroke="#63b8ff" points="237.14,-18.2 227.07,-21.51 237,-25.2 237.14,-18.2"/>
</a>
</g>
</g>
</g>
</svg>
