<?xml version="1.0" encoding="UTF-8" standalone="no"?>
<!DOCTYPE svg PUBLIC "-//W3C//DTD SVG 1.1//EN"
 "http://www.w3.org/Graphics/SVG/1.1/DTD/svg11.dtd">
<!-- Generated by graphviz version 2.42.4 (0)
 -->
<!-- Title: L4::Thread::vcpu_control_ext Pages: 1 -->
<svg width="516pt" height="88pt"
 viewBox="0.00 0.00 516.00 88.00" xmlns="http://www.w3.org/2000/svg" xmlns:xlink="http://www.w3.org/1999/xlink">
<g id="graph0" class="graph" transform="scale(1 1) rotate(0) translate(4 84)">
<title>L4::Thread::vcpu_control_ext</title>
<!-- Node1 -->
<g id="Node000001" class="node">
<title>Node1</title>
<g id="a_Node000001"><a xlink:title="Enable the extended vCPU feature for the thread.">
<polygon fill="#999999" stroke="#666666" points="157,-58 0,-58 0,-39 157,-39 157,-58"/>
<text text-anchor="middle" x="78.5" y="-46" font-family="Helvetica,sans-Serif" font-size="10.00">L4::Thread::vcpu_control_ext</text>
</a>
</g>
</g>
<!-- Node2 -->
<g id="Node000002" class="node">
<title>Node2</title>
<g id="a_Node000002"><a xlink:href="classL4_1_1Kobject.html#a4f2117ae76762f4084e6a1adb915863c" target="_top" xlink:title="Return capability selector.">
<polygon fill="white" stroke="#666666" points="304.5,-80 211.5,-80 211.5,-61 304.5,-61 304.5,-80"/>
<text text-anchor="middle" x="258" y="-68" font-family="Helvetica,sans-Serif" font-size="10.00">L4::Kobject::cap</text>
</a>
</g>
</g>
<!-- Node1&#45;&gt;Node2 -->
<g id="edge1_Node000001_Node000002" class="edge">
<title>Node1&#45;&gt;Node2</title>
<g id="a_edge1_Node000001_Node000002"><a xlink:title=" ">
<path fill="none" stroke="#63b8ff" d="M156.32,-58.02C171.4,-59.89 186.95,-61.82 201.18,-63.58"/>
<polygon fill="#63b8ff" stroke="#63b8ff" points="200.93,-67.08 211.28,-64.83 201.79,-60.13 200.93,-67.08"/>
</a>
</g>
</g>
<!-- Node3 -->
<g id="Node000003" class="node">
<title>Node3</title>
<g id="a_Node000003"><a xlink:href="group__l4__thread__api.html#ga1015c5500bcfeaa01d209ee116cf57ec" target="_top" xlink:title="Enable the extended vCPU feature for the thread.">
<polygon fill="white" stroke="#666666" points="323,-42.5 193,-42.5 193,-12.5 323,-12.5 323,-42.5"/>
<text text-anchor="start" x="201" y="-30.5" font-family="Helvetica,sans-Serif" font-size="10.00">l4_thread_vcpu_control</text>
<text text-anchor="middle" x="258" y="-19.5" font-family="Helvetica,sans-Serif" font-size="10.00">_ext_u</text>
</a>
</g>
</g>
<!-- Node1&#45;&gt;Node3 -->
<g id="edge2_Node000001_Node000003" class="edge">
<title>Node1&#45;&gt;Node3</title>
<g id="a_edge2_Node000001_Node000003"><a xlink:title=" ">
<path fill="none" stroke="#63b8ff" d="M157.1,-39.32C165.58,-38.32 174.21,-37.29 182.66,-36.3"/>
<polygon fill="#63b8ff" stroke="#63b8ff" points="183.34,-39.74 192.86,-35.09 182.51,-32.79 183.34,-39.74"/>
</a>
</g>
</g>
<!-- Node4 -->
<g id="Node000004" class="node">
<title>Node4</title>
<g id="a_Node000004"><a xlink:href="group__l4__ipc__api.html#gab96d1669dcd54657237ee27b7f6862c6" target="_top" xlink:title="Object call (usual invocation).">
<polygon fill="white" stroke="#666666" points="427,-56 359,-56 359,-37 427,-37 427,-56"/>
<text text-anchor="middle" x="393" y="-44" font-family="Helvetica,sans-Serif" font-size="10.00">l4_ipc_call</text>
</a>
</g>
</g>
<!-- Node3&#45;&gt;Node4 -->
<g id="edge3_Node000003_Node000004" class="edge">
<title>Node3&#45;&gt;Node4</title>
<g id="a_edge3_Node000003_Node000004"><a xlink:title=" ">
<path fill="none" stroke="#63b8ff" d="M323.16,-36.67C331.85,-37.91 340.59,-39.16 348.79,-40.33"/>
<polygon fill="#63b8ff" stroke="#63b8ff" points="348.45,-43.81 358.84,-41.76 349.44,-36.88 348.45,-43.81"/>
</a>
</g>
</g>
<!-- Node6 -->
<g id="Node000006" class="node">
<title>Node6</title>
<g id="a_Node000006"><a xlink:href="group__l4__msgtag__api.html#ga661d71acad9d096fa990f7c94943bc78" target="_top" xlink:title="Create a message tag from the specified values.">
<polygon fill="white" stroke="#666666" points="427,-19 359,-19 359,0 427,0 427,-19"/>
<text text-anchor="middle" x="393" y="-7" font-family="Helvetica,sans-Serif" font-size="10.00">l4_msgtag</text>
</a>
</g>
</g>
<!-- Node3&#45;&gt;Node6 -->
<g id="edge5_Node000003_Node000006" class="edge">
<title>Node3&#45;&gt;Node6</title>
<g id="a_edge5_Node000003_Node000006"><a xlink:title=" ">
<path fill="none" stroke="#63b8ff" d="M323.16,-18.82C331.85,-17.64 340.59,-16.46 348.79,-15.35"/>
<polygon fill="#63b8ff" stroke="#63b8ff" points="349.4,-18.8 358.84,-13.99 348.46,-11.86 349.4,-18.8"/>
</a>
</g>
</g>
<!-- Node5 -->
<g id="Node000005" class="node">
<title>Node5</title>
<g id="a_Node000005"><a xlink:href="group__l4__ipc__api.html#ga1caa56d45e0453b3002e7f5cfdb0dec7" target="_top" xlink:title="Generic L4 object invocation.">
<polygon fill="white" stroke="#666666" points="508,-56 463,-56 463,-37 508,-37 508,-56"/>
<text text-anchor="middle" x="485.5" y="-44" font-family="Helvetica,sans-Serif" font-size="10.00">l4_ipc</text>
</a>
</g>
</g>
<!-- Node4&#45;&gt;Node5 -->
<g id="edge4_Node000004_Node000005" class="edge">
<title>Node4&#45;&gt;Node5</title>
<g id="a_edge4_Node000004_Node000005"><a xlink:title=" ">
<path fill="none" stroke="#63b8ff" d="M427.18,-46.5C435.56,-46.5 444.52,-46.5 452.82,-46.5"/>
<polygon fill="#63b8ff" stroke="#63b8ff" points="452.87,-50 462.87,-46.5 452.87,-43 452.87,-50"/>
</a>
</g>
</g>
</g>
</svg>
