<?xml version="1.0" encoding="UTF-8" standalone="no"?>
<!DOCTYPE svg PUBLIC "-//W3C//DTD SVG 1.1//EN"
 "http://www.w3.org/Graphics/SVG/1.1/DTD/svg11.dtd">
<!-- Generated by graphviz version 2.42.4 (0)
 -->
<!-- Title: cxx::Slab_static&lt; Type, Slab_size, Max_free, Alloc &gt; Pages: 1 -->
<svg width="132pt" height="231pt"
 viewBox="0.00 0.00 132.00 231.00" xmlns="http://www.w3.org/2000/svg" xmlns:xlink="http://www.w3.org/1999/xlink">
<g id="graph0" class="graph" transform="scale(1 1) rotate(0) translate(4 227)">
<title>cxx::Slab_static&lt; Type, Slab_size, Max_free, Alloc &gt;</title>
<!-- Node1 -->
<g id="Node000001" class="node">
<title>Node1</title>
<g id="a_Node000001"><a xlink:title="Merged slab allocator (allocators for objects of the same size are merged together).">
<polygon fill="#999999" stroke="transparent" points="124,-71 0,-71 0,0 124,0 124,-71"/>
<text text-anchor="start" x="5" y="-58.5" font-family="Helvetica,sans-Serif" font-size="10.00">cxx::Slab_static&lt; Type,</text>
<text text-anchor="start" x="5" y="-47.5" font-family="Helvetica,sans-Serif" font-size="10.00"> Slab_size, Max_free,</text>
<text text-anchor="start" x="42.5" y="-36.5" font-family="Helvetica,sans-Serif" font-size="10.00"> Alloc &gt;</text>
<text text-anchor="start" x="60" y="-21.5" font-family="Helvetica,sans-Serif" font-size="10.00"> </text>
<text text-anchor="start" x="22" y="-6.5" font-family="Helvetica,sans-Serif" font-size="10.00">+</text>
<text text-anchor="start" x="53" y="-6.5" font-family="Helvetica,sans-Serif" font-size="10.00">alloc()</text>
<polygon fill="#666666" stroke="#666666" points="0,-31.5 0,-31.5 124,-31.5 124,-31.5 0,-31.5"/>
<polygon fill="#666666" stroke="#666666" points="0,-16.5 0,-16.5 124,-16.5 124,-16.5 0,-16.5"/>
<polygon fill="none" stroke="#666666" points="0,0 0,-71 124,-71 124,0 0,0"/>
</a>
</g>
</g>
<!-- Node2 -->
<g id="Node000002" class="node">
<title>Node2</title>
<g id="a_Node000002"><a xlink:href="classcxx_1_1Base__slab__static.html" target="_top" xlink:title="Merged slab allocator (allocators for objects of the same size are merged together).">
<polygon fill="white" stroke="transparent" points="121,-223 3,-223 3,-107 121,-107 121,-223"/>
<text text-anchor="start" x="8" y="-211" font-family="Helvetica,sans-Serif" font-size="10.00">cxx::Base_slab_static</text>
<text text-anchor="start" x="8" y="-200" font-family="Helvetica,sans-Serif" font-size="10.00">&lt; Obj_size, Slab_size,</text>
<text text-anchor="start" x="16.5" y="-189" font-family="Helvetica,sans-Serif" font-size="10.00"> Max_free, Alloc &gt;</text>
<text text-anchor="start" x="60" y="-174" font-family="Helvetica,sans-Serif" font-size="10.00"> </text>
<text text-anchor="start" x="13.5" y="-159" font-family="Helvetica,sans-Serif" font-size="10.00">+</text>
<text text-anchor="start" x="33" y="-159" font-family="Helvetica,sans-Serif" font-size="10.00">alloc()</text>
<text text-anchor="start" x="13.5" y="-144" font-family="Helvetica,sans-Serif" font-size="10.00">+</text>
<text text-anchor="start" x="33" y="-144" font-family="Helvetica,sans-Serif" font-size="10.00">free()</text>
<text text-anchor="start" x="13.5" y="-129" font-family="Helvetica,sans-Serif" font-size="10.00">+</text>
<text text-anchor="start" x="33" y="-129" font-family="Helvetica,sans-Serif" font-size="10.00">total_objects()</text>
<text text-anchor="start" x="13.5" y="-114" font-family="Helvetica,sans-Serif" font-size="10.00">+</text>
<text text-anchor="start" x="33" y="-114" font-family="Helvetica,sans-Serif" font-size="10.00">free_objects()</text>
<polygon fill="#666666" stroke="#666666" points="3,-184 3,-184 121,-184 121,-184 3,-184"/>
<polygon fill="#666666" stroke="#666666" points="3,-169 3,-169 121,-169 121,-169 3,-169"/>
<polygon fill="none" stroke="#666666" points="3,-107 3,-223 121,-223 121,-107 3,-107"/>
</a>
</g>
</g>
<!-- Node2&#45;&gt;Node1 -->
<g id="edge1_Node000001_Node000002" class="edge">
<title>Node2&#45;&gt;Node1</title>
<g id="a_edge1_Node000001_Node000002"><a xlink:title=" ">
<path fill="none" stroke="#63b8ff" d="M62,-96.92C62,-88.02 62,-79.21 62,-71.18"/>
<polygon fill="none" stroke="#63b8ff" points="58.5,-96.96 62,-106.96 65.5,-96.96 58.5,-96.96"/>
</a>
</g>
</g>
</g>
</svg>
