<?xml version="1.0" encoding="UTF-8" standalone="no"?>
<!DOCTYPE svg PUBLIC "-//W3C//DTD SVG 1.1//EN"
 "http://www.w3.org/Graphics/SVG/1.1/DTD/svg11.dtd">
<!-- Generated by graphviz version 2.42.4 (0)
 -->
<!-- Title: L4Re::Vfs::Mman Pages: 1 -->
<svg width="101pt" height="217pt"
 viewBox="0.00 0.00 101.00 217.00" xmlns="http://www.w3.org/2000/svg" xmlns:xlink="http://www.w3.org/1999/xlink">
<g id="graph0" class="graph" transform="scale(1 1) rotate(0) translate(4 213)">
<title>L4Re::Vfs::Mman</title>
<!-- Node1 -->
<g id="Node000001" class="node">
<title>Node1</title>
<g id="a_Node000001"><a xlink:title="Interface for POSIX memory management.">
<polygon fill="#999999" stroke="transparent" points="93,-209 0,-209 0,-85 93,-85 93,-209"/>
<text text-anchor="start" x="5.5" y="-197" font-family="Helvetica,sans-Serif" font-size="10.00">L4Re::Vfs::Mman</text>
<text text-anchor="start" x="45" y="-182" font-family="Helvetica,sans-Serif" font-size="10.00"> </text>
<text text-anchor="start" x="9.5" y="-167" font-family="Helvetica,sans-Serif" font-size="10.00">+</text>
<text text-anchor="start" x="27.5" y="-167" font-family="Helvetica,sans-Serif" font-size="10.00">mmap2()</text>
<text text-anchor="start" x="9.5" y="-152" font-family="Helvetica,sans-Serif" font-size="10.00">+</text>
<text text-anchor="start" x="27.5" y="-152" font-family="Helvetica,sans-Serif" font-size="10.00">munmap()</text>
<text text-anchor="start" x="9.5" y="-137" font-family="Helvetica,sans-Serif" font-size="10.00">+</text>
<text text-anchor="start" x="27.5" y="-137" font-family="Helvetica,sans-Serif" font-size="10.00">mremap()</text>
<text text-anchor="start" x="9.5" y="-122" font-family="Helvetica,sans-Serif" font-size="10.00">+</text>
<text text-anchor="start" x="27.5" y="-122" font-family="Helvetica,sans-Serif" font-size="10.00">mprotect()</text>
<text text-anchor="start" x="9.5" y="-107" font-family="Helvetica,sans-Serif" font-size="10.00">+</text>
<text text-anchor="start" x="27.5" y="-107" font-family="Helvetica,sans-Serif" font-size="10.00">msync()</text>
<text text-anchor="start" x="9.5" y="-92" font-family="Helvetica,sans-Serif" font-size="10.00">+</text>
<text text-anchor="start" x="27.5" y="-92" font-family="Helvetica,sans-Serif" font-size="10.00">madvise()</text>
<polygon fill="#666666" stroke="#666666" points="0.5,-192 0.5,-192 93.5,-192 93.5,-192 0.5,-192"/>
<polygon fill="#666666" stroke="#666666" points="0.5,-177 0.5,-177 93.5,-177 93.5,-177 0.5,-177"/>
<polygon fill="none" stroke="#666666" points="0,-85 0,-209 93,-209 93,-85 0,-85"/>
</a>
</g>
</g>
<!-- Node2 -->
<g id="Node000002" class="node">
<title>Node2</title>
<g id="a_Node000002"><a xlink:href="classL4Re_1_1Vfs_1_1Ops.html" target="_top" xlink:title="Interface for the POSIX backends of an application.">
<polygon fill="white" stroke="transparent" points="87,-49 6,-49 6,0 87,0 87,-49"/>
<text text-anchor="start" x="11.5" y="-36.5" font-family="Helvetica,sans-Serif" font-size="10.00">L4Re::Vfs::Ops</text>
<text text-anchor="start" x="45" y="-21.5" font-family="Helvetica,sans-Serif" font-size="10.00"> </text>
<text text-anchor="start" x="45" y="-6.5" font-family="Helvetica,sans-Serif" font-size="10.00"> </text>
<polygon fill="#666666" stroke="#666666" points="6.5,-31.5 6.5,-31.5 87.5,-31.5 87.5,-31.5 6.5,-31.5"/>
<polygon fill="#666666" stroke="#666666" points="6.5,-16.5 6.5,-16.5 87.5,-16.5 87.5,-16.5 6.5,-16.5"/>
<polygon fill="none" stroke="#666666" points="6,0 6,-49 87,-49 87,0 6,0"/>
</a>
</g>
</g>
<!-- Node1&#45;&gt;Node2 -->
<g id="edge1_Node000001_Node000002" class="edge">
<title>Node1&#45;&gt;Node2</title>
<g id="a_edge1_Node000001_Node000002"><a xlink:title=" ">
<path fill="none" stroke="#63b8ff" d="M46.5,-74.65C46.5,-65.48 46.5,-56.67 46.5,-49.1"/>
<polygon fill="none" stroke="#63b8ff" points="43,-74.69 46.5,-84.69 50,-74.69 43,-74.69"/>
</a>
</g>
</g>
</g>
</svg>
