<?xml version="1.0" encoding="UTF-8" standalone="no"?>
<!DOCTYPE svg PUBLIC "-//W3C//DTD SVG 1.1//EN"
 "http://www.w3.org/Graphics/SVG/1.1/DTD/svg11.dtd">
<!-- Generated by graphviz version 2.42.4 (0)
 -->
<!-- Title: cxx::Base_slab::free_objects Pages: 1 -->
<svg width="294pt" height="76pt"
 viewBox="0.00 0.00 294.00 75.50" xmlns="http://www.w3.org/2000/svg" xmlns:xlink="http://www.w3.org/1999/xlink">
<g id="graph0" class="graph" transform="scale(1 1) rotate(0) translate(4 71.5)">
<title>cxx::Base_slab::free_objects</title>
<!-- Node1 -->
<g id="Node000001" class="node">
<title>Node1</title>
<g id="a_Node000001"><a xlink:title="Get the number of objects which can be allocated before a new empty slab needs to be added to the sla...">
<polygon fill="#999999" stroke="#666666" points="115,-45.5 0,-45.5 0,-15.5 115,-15.5 115,-45.5"/>
<text text-anchor="start" x="8" y="-33.5" font-family="Helvetica,sans-Serif" font-size="10.00">cxx::Base_slab::free</text>
<text text-anchor="middle" x="57.5" y="-22.5" font-family="Helvetica,sans-Serif" font-size="10.00">_objects</text>
</a>
</g>
</g>
<!-- Node2 -->
<g id="Node000002" class="node">
<title>Node2</title>
<g id="a_Node000002"><a xlink:href="classcxx_1_1Bits_1_1Basic__list.html#af857846edcaf6cbc84827c585b45fd49" target="_top" xlink:title="Return an iterator to the beginning of the list.">
<polygon fill="white" stroke="#666666" points="274,-67.5 163,-67.5 163,-37.5 274,-37.5 274,-67.5"/>
<text text-anchor="start" x="171" y="-55.5" font-family="Helvetica,sans-Serif" font-size="10.00">cxx::Bits::Basic_list</text>
<text text-anchor="middle" x="218.5" y="-44.5" font-family="Helvetica,sans-Serif" font-size="10.00">::begin</text>
</a>
</g>
</g>
<!-- Node1&#45;&gt;Node2 -->
<g id="edge1_Node000001_Node000002" class="edge">
<title>Node1&#45;&gt;Node2</title>
<g id="a_edge1_Node000001_Node000002"><a xlink:title=" ">
<path fill="none" stroke="#63b8ff" d="M115.01,-38.32C127.26,-40.01 140.31,-41.82 152.85,-43.56"/>
<polygon fill="#63b8ff" stroke="#63b8ff" points="152.39,-47.02 162.78,-44.93 153.35,-40.09 152.39,-47.02"/>
</a>
</g>
</g>
<!-- Node3 -->
<g id="Node000003" class="node">
<title>Node3</title>
<g id="a_Node000003"><a xlink:href="classcxx_1_1Bits_1_1Basic__list.html#a08f2ae0b9f0379ce1778ba1f2d163330" target="_top" xlink:title="Return a const iterator to the end of the list.">
<polygon fill="white" stroke="#666666" points="286,-19 151,-19 151,0 286,0 286,-19"/>
<text text-anchor="middle" x="218.5" y="-7" font-family="Helvetica,sans-Serif" font-size="10.00">cxx::Bits::Basic_list::end</text>
</a>
</g>
</g>
<!-- Node1&#45;&gt;Node3 -->
<g id="edge2_Node000001_Node000003" class="edge">
<title>Node1&#45;&gt;Node3</title>
<g id="a_edge2_Node000001_Node000003"><a xlink:title=" ">
<path fill="none" stroke="#63b8ff" d="M115.01,-23.04C123.35,-21.94 132.06,-20.79 140.72,-19.64"/>
<polygon fill="#63b8ff" stroke="#63b8ff" points="141.4,-23.08 150.85,-18.3 140.48,-16.14 141.4,-23.08"/>
</a>
</g>
</g>
</g>
</svg>
