<?xml version="1.0" encoding="UTF-8" standalone="no"?>
<!DOCTYPE svg PUBLIC "-//W3C//DTD SVG 1.1//EN"
 "http://www.w3.org/Graphics/SVG/1.1/DTD/svg11.dtd">
<!-- Generated by graphviz version 2.43.0 (0)
 -->
<!-- Title: L4virtio::Driver::Block_device::process_used_queue Pages: 1 -->
<svg width="487pt" height="113pt"
 viewBox="0.00 0.00 487.00 113.00" xmlns="http://www.w3.org/2000/svg" xmlns:xlink="http://www.w3.org/1999/xlink">
<g id="graph0" class="graph" transform="scale(1 1) rotate(0) translate(4 109)">
<title>L4virtio::Driver::Block_device::process_used_queue</title>
<!-- Node1 -->
<g id="Node000001" class="node">
<title>Node1</title>
<g id="a_Node000001"><a xlink:title="Process and free all items in the used queue.">
<polygon fill="#999999" stroke="#666666" points="161,-67.5 0,-67.5 0,-37.5 161,-37.5 161,-67.5"/>
<text text-anchor="start" x="8" y="-55.5" font-family="Helvetica,sans-Serif" font-size="10.00">L4virtio::Driver::Block</text>
<text text-anchor="middle" x="80.5" y="-44.5" font-family="Helvetica,sans-Serif" font-size="10.00">_device::process_used_queue</text>
</a>
</g>
</g>
<!-- Node2 -->
<g id="Node000002" class="node">
<title>Node2</title>
<g id="a_Node000002"><a xlink:href="namespaceL4Re.html#a3f17984019f06676a7e3eecb41bbb0bb" target="_top" xlink:title="Generate C++ exception on error.">
<polygon fill="white" stroke="#666666" points="308.5,-105 228.5,-105 228.5,-86 308.5,-86 308.5,-105"/>
<text text-anchor="middle" x="268.5" y="-93" font-family="Helvetica,sans-Serif" font-size="10.00">L4Re::chksys</text>
</a>
</g>
</g>
<!-- Node1&#45;&gt;Node2 -->
<g id="edge1_Node000001_Node000002" class="edge">
<title>Node1&#45;&gt;Node2</title>
<g id="a_edge1_Node000001_Node000002"><a xlink:title=" ">
<path fill="none" stroke="#63b8ff" d="M146.55,-67.54C170.17,-73 196.45,-79.07 218.45,-84.16"/>
<polygon fill="#63b8ff" stroke="#63b8ff" points="217.71,-87.58 228.24,-86.42 219.28,-80.76 217.71,-87.58"/>
</a>
</g>
</g>
<!-- Node4 -->
<g id="Node000004" class="node">
<title>Node4</title>
<g id="a_Node000004"><a xlink:href="classL4virtio_1_1Driver_1_1Virtqueue.html#a6d320be956d592d0a064fb89c5a69ba5" target="_top" xlink:title="Return the next finished block.">
<polygon fill="white" stroke="#666666" points="340,-67.5 197,-67.5 197,-37.5 340,-37.5 340,-67.5"/>
<text text-anchor="start" x="205" y="-55.5" font-family="Helvetica,sans-Serif" font-size="10.00">L4virtio::Driver::Virtqueue</text>
<text text-anchor="middle" x="268.5" y="-44.5" font-family="Helvetica,sans-Serif" font-size="10.00">::find_next_used</text>
</a>
</g>
</g>
<!-- Node1&#45;&gt;Node4 -->
<g id="edge3_Node000001_Node000004" class="edge">
<title>Node1&#45;&gt;Node4</title>
<g id="a_edge3_Node000001_Node000004"><a xlink:title=" ">
<path fill="none" stroke="#63b8ff" d="M161.19,-52.5C169.6,-52.5 178.16,-52.5 186.59,-52.5"/>
<polygon fill="#63b8ff" stroke="#63b8ff" points="186.78,-56 196.78,-52.5 186.78,-49 186.78,-56"/>
</a>
</g>
</g>
<!-- Node5 -->
<g id="Node000005" class="node">
<title>Node5</title>
<g id="a_Node000005"><a xlink:href="classL4virtio_1_1Virtqueue.html#af61e3e4e436b93f37f22243a1c0ffe0e" target="_top" xlink:title=" ">
<polygon fill="white" stroke="#666666" points="335.5,-19 201.5,-19 201.5,0 335.5,0 335.5,-19"/>
<text text-anchor="middle" x="268.5" y="-7" font-family="Helvetica,sans-Serif" font-size="10.00">L4virtio::Virtqueue::num</text>
</a>
</g>
</g>
<!-- Node1&#45;&gt;Node5 -->
<g id="edge4_Node000001_Node000005" class="edge">
<title>Node1&#45;&gt;Node5</title>
<g id="a_edge4_Node000001_Node000005"><a xlink:title=" ">
<path fill="none" stroke="#63b8ff" d="M146.55,-37.46C169.43,-32.17 194.8,-26.31 216.37,-21.32"/>
<polygon fill="#63b8ff" stroke="#63b8ff" points="217.36,-24.68 226.31,-19.02 215.78,-17.86 217.36,-24.68"/>
</a>
</g>
</g>
<!-- Node3 -->
<g id="Node000003" class="node">
<title>Node3</title>
<g id="a_Node000003"><a xlink:href="namespaceL4Re.html#ae27ac6f274f4ad1267d0d1c0c033c00b" target="_top" xlink:title="Generate C++ exception.">
<polygon fill="white" stroke="#666666" points="479,-105 376,-105 376,-86 479,-86 479,-105"/>
<text text-anchor="middle" x="427.5" y="-93" font-family="Helvetica,sans-Serif" font-size="10.00">L4Re::throw_error</text>
</a>
</g>
</g>
<!-- Node2&#45;&gt;Node3 -->
<g id="edge2_Node000002_Node000003" class="edge">
<title>Node2&#45;&gt;Node3</title>
<g id="a_edge2_Node000002_Node000003"><a xlink:title=" ">
<path fill="none" stroke="#63b8ff" d="M308.71,-95.5C325.96,-95.5 346.61,-95.5 365.77,-95.5"/>
<polygon fill="#63b8ff" stroke="#63b8ff" points="365.93,-99 375.93,-95.5 365.93,-92 365.93,-99"/>
</a>
</g>
</g>
</g>
</svg>
