<?xml version="1.0" encoding="UTF-8" standalone="no"?>
<!DOCTYPE svg PUBLIC "-//W3C//DTD SVG 1.1//EN"
 "http://www.w3.org/Graphics/SVG/1.1/DTD/svg11.dtd">
<!-- Generated by graphviz version 2.43.0 (0)
 -->
<!-- Title: L4virtio::Driver::Device::driver_acknowledge Pages: 1 -->
<svg width="426pt" height="113pt"
 viewBox="0.00 0.00 426.00 112.50" xmlns="http://www.w3.org/2000/svg" xmlns:xlink="http://www.w3.org/1999/xlink">
<g id="graph0" class="graph" transform="scale(1 1) rotate(0) translate(4 108.5)">
<title>L4virtio::Driver::Device::driver_acknowledge</title>
<!-- Node1 -->
<g id="Node000001" class="node">
<title>Node1</title>
<g id="a_Node000001"><a xlink:title="Finalize handshake with the device.">
<polygon fill="#999999" stroke="#666666" points="129,-73 0,-73 0,-43 129,-43 129,-73"/>
<text text-anchor="start" x="8" y="-61" font-family="Helvetica,sans-Serif" font-size="10.00">L4virtio::Driver::Device</text>
<text text-anchor="middle" x="64.5" y="-50" font-family="Helvetica,sans-Serif" font-size="10.00">::driver_acknowledge</text>
</a>
</g>
</g>
<!-- Node2 -->
<g id="Node000002" class="node">
<title>Node2</title>
<g id="a_Node000002"><a xlink:href="namespaceL4Re.html#a3f17984019f06676a7e3eecb41bbb0bb" target="_top" xlink:title="Generate C++ exception on error.">
<polygon fill="white" stroke="#666666" points="262,-104.5 182,-104.5 182,-85.5 262,-85.5 262,-104.5"/>
<text text-anchor="middle" x="222" y="-92.5" font-family="Helvetica,sans-Serif" font-size="10.00">L4Re::chksys</text>
</a>
</g>
</g>
<!-- Node1&#45;&gt;Node2 -->
<g id="edge1_Node000001_Node000002" class="edge">
<title>Node1&#45;&gt;Node2</title>
<g id="a_edge1_Node000001_Node000002"><a xlink:title=" ">
<path fill="none" stroke="#63b8ff" d="M128.75,-73.05C143.23,-76.49 158.4,-80.11 172.17,-83.38"/>
<polygon fill="#63b8ff" stroke="#63b8ff" points="171.37,-86.79 181.91,-85.7 172.99,-79.98 171.37,-86.79"/>
</a>
</g>
</g>
<!-- Node4 -->
<g id="Node000004" class="node">
<title>Node4</title>
<g id="a_Node000004"><a xlink:href="group__l4virtio__transport.html#gae37bcd45875b27b302320e6b9580191d" target="_top" xlink:title="Check if the given bit in a feature map is set.">
<polygon fill="white" stroke="#666666" points="278.5,-67.5 165.5,-67.5 165.5,-48.5 278.5,-48.5 278.5,-67.5"/>
<text text-anchor="middle" x="222" y="-55.5" font-family="Helvetica,sans-Serif" font-size="10.00">l4virtio_get_feature</text>
</a>
</g>
</g>
<!-- Node1&#45;&gt;Node4 -->
<g id="edge3_Node000001_Node000004" class="edge">
<title>Node1&#45;&gt;Node4</title>
<g id="a_edge3_Node000001_Node000004"><a xlink:title=" ">
<path fill="none" stroke="#63b8ff" d="M129.2,-58C137.66,-58 146.36,-58 154.87,-58"/>
<polygon fill="#63b8ff" stroke="#63b8ff" points="155.12,-61.5 165.12,-58 155.12,-54.5 155.12,-61.5"/>
</a>
</g>
</g>
<!-- Node5 -->
<g id="Node000005" class="node">
<title>Node5</title>
<g id="a_Node000005"><a xlink:href="classL4virtio_1_1Device.html#ab2e1044b9a29628c3ed7945b9dfe4cad" target="_top" xlink:title="Write the VIRTIO status register.">
<polygon fill="white" stroke="#666666" points="279,-30 165,-30 165,0 279,0 279,-30"/>
<text text-anchor="start" x="173" y="-18" font-family="Helvetica,sans-Serif" font-size="10.00">L4virtio::Device::set</text>
<text text-anchor="middle" x="222" y="-7" font-family="Helvetica,sans-Serif" font-size="10.00">_status</text>
</a>
</g>
</g>
<!-- Node1&#45;&gt;Node5 -->
<g id="edge4_Node000001_Node000005" class="edge">
<title>Node1&#45;&gt;Node5</title>
<g id="a_edge4_Node000001_Node000005"><a xlink:title=" ">
<path fill="none" stroke="#63b8ff" d="M119.89,-42.96C131.84,-39.65 144.61,-36.12 156.91,-32.72"/>
<polygon fill="#63b8ff" stroke="#63b8ff" points="157.94,-36.07 166.64,-30.03 156.07,-29.32 157.94,-36.07"/>
</a>
</g>
</g>
<!-- Node3 -->
<g id="Node000003" class="node">
<title>Node3</title>
<g id="a_Node000003"><a xlink:href="namespaceL4Re.html#ae27ac6f274f4ad1267d0d1c0c033c00b" target="_top" xlink:title="Generate C++ exception.">
<polygon fill="white" stroke="#666666" points="418,-104.5 315,-104.5 315,-85.5 418,-85.5 418,-104.5"/>
<text text-anchor="middle" x="366.5" y="-92.5" font-family="Helvetica,sans-Serif" font-size="10.00">L4Re::throw_error</text>
</a>
</g>
</g>
<!-- Node2&#45;&gt;Node3 -->
<g id="edge2_Node000002_Node000003" class="edge">
<title>Node2&#45;&gt;Node3</title>
<g id="a_edge2_Node000002_Node000003"><a xlink:title=" ">
<path fill="none" stroke="#63b8ff" d="M262.32,-95C275.38,-95 290.24,-95 304.54,-95"/>
<polygon fill="#63b8ff" stroke="#63b8ff" points="304.82,-98.5 314.82,-95 304.82,-91.5 304.82,-98.5"/>
</a>
</g>
</g>
</g>
</svg>
