<?xml version="1.0" encoding="UTF-8" standalone="no"?>
<!DOCTYPE svg PUBLIC "-//W3C//DTD SVG 1.1//EN"
 "http://www.w3.org/Graphics/SVG/1.1/DTD/svg11.dtd">
<!-- Generated by graphviz version 2.43.0 (0)
 -->
<!-- Title: L4Re::Rm Pages: 1 -->
<svg width="341pt" height="715pt"
 viewBox="0.00 0.00 340.50 715.00" xmlns="http://www.w3.org/2000/svg" xmlns:xlink="http://www.w3.org/1999/xlink">
<g id="graph0" class="graph" transform="scale(1 1) rotate(0) translate(4 711)">
<title>L4Re::Rm</title>
<!-- Node1 -->
<g id="Node000001" class="node">
<title>Node1</title>
<g id="a_Node000001"><a xlink:title="Region map.">
<polygon fill="#999999" stroke="transparent" points="228,-199 135,-199 135,0 228,0 228,-199"/>
<text text-anchor="start" x="158.5" y="-186.5" font-family="Helvetica,sans-Serif" font-size="10.00">L4Re::Rm</text>
<text text-anchor="start" x="180" y="-171.5" font-family="Helvetica,sans-Serif" font-size="10.00"> </text>
<text text-anchor="start" x="139.5" y="-156.5" font-family="Helvetica,sans-Serif" font-size="10.00">+</text>
<text text-anchor="start" x="152.5" y="-156.5" font-family="Helvetica,sans-Serif" font-size="10.00">reserve_area()</text>
<text text-anchor="start" x="139.5" y="-141.5" font-family="Helvetica,sans-Serif" font-size="10.00">+</text>
<text text-anchor="start" x="152.5" y="-141.5" font-family="Helvetica,sans-Serif" font-size="10.00">reserve_area()</text>
<text text-anchor="start" x="139.5" y="-126.5" font-family="Helvetica,sans-Serif" font-size="10.00">+</text>
<text text-anchor="start" x="152.5" y="-126.5" font-family="Helvetica,sans-Serif" font-size="10.00">free_area()</text>
<text text-anchor="start" x="139.5" y="-111.5" font-family="Helvetica,sans-Serif" font-size="10.00">+</text>
<text text-anchor="start" x="152.5" y="-111.5" font-family="Helvetica,sans-Serif" font-size="10.00">attach()</text>
<text text-anchor="start" x="139.5" y="-96.5" font-family="Helvetica,sans-Serif" font-size="10.00">+</text>
<text text-anchor="start" x="152.5" y="-96.5" font-family="Helvetica,sans-Serif" font-size="10.00">attach()</text>
<text text-anchor="start" x="139.5" y="-81.5" font-family="Helvetica,sans-Serif" font-size="10.00">+</text>
<text text-anchor="start" x="152.5" y="-81.5" font-family="Helvetica,sans-Serif" font-size="10.00">detach()</text>
<text text-anchor="start" x="139.5" y="-66.5" font-family="Helvetica,sans-Serif" font-size="10.00">+</text>
<text text-anchor="start" x="152.5" y="-66.5" font-family="Helvetica,sans-Serif" font-size="10.00">detach()</text>
<text text-anchor="start" x="139.5" y="-51.5" font-family="Helvetica,sans-Serif" font-size="10.00">+</text>
<text text-anchor="start" x="152.5" y="-51.5" font-family="Helvetica,sans-Serif" font-size="10.00">detach()</text>
<text text-anchor="start" x="139.5" y="-36.5" font-family="Helvetica,sans-Serif" font-size="10.00">+</text>
<text text-anchor="start" x="152.5" y="-36.5" font-family="Helvetica,sans-Serif" font-size="10.00">find()</text>
<text text-anchor="start" x="139.5" y="-21.5" font-family="Helvetica,sans-Serif" font-size="10.00">+</text>
<text text-anchor="start" x="152.5" y="-21.5" font-family="Helvetica,sans-Serif" font-size="10.00">get_regions()</text>
<text text-anchor="start" x="139.5" y="-6.5" font-family="Helvetica,sans-Serif" font-size="10.00">+</text>
<text text-anchor="start" x="152.5" y="-6.5" font-family="Helvetica,sans-Serif" font-size="10.00">get_areas()</text>
<polygon fill="#666666" stroke="#666666" points="135.5,-181.5 135.5,-181.5 228.5,-181.5 228.5,-181.5 135.5,-181.5"/>
<polygon fill="#666666" stroke="#666666" points="135.5,-166.5 135.5,-166.5 228.5,-166.5 228.5,-166.5 135.5,-166.5"/>
<polygon fill="none" stroke="#666666" points="135,0 135,-199 228,-199 228,0 135,0"/>
</a>
</g>
</g>
<!-- Node2 -->
<g id="Node000002" class="node">
<title>Node2</title>
<g id="a_Node000002"><a xlink:href="classL4_1_1Kobject__t.html" target="_top" xlink:title=" ">
<polygon fill="white" stroke="transparent" points="256,-333 107,-333 107,-236 256,-236 256,-333"/>
<text text-anchor="start" x="112.5" y="-320.5" font-family="Helvetica,sans-Serif" font-size="10.00">L4::Kobject_t&lt; Rm,</text>
<text text-anchor="start" x="112.5" y="-309.5" font-family="Helvetica,sans-Serif" font-size="10.00"> L4::Pager, L4RE_PROTO</text>
<text text-anchor="start" x="112.5" y="-298.5" font-family="Helvetica,sans-Serif" font-size="10.00">_RM, L4::Type_info::Demand</text>
<text text-anchor="start" x="157.5" y="-287.5" font-family="Helvetica,sans-Serif" font-size="10.00">_t&lt; 1 &gt; &gt;</text>
<text text-anchor="start" x="180" y="-272.5" font-family="Helvetica,sans-Serif" font-size="10.00"> </text>
<text text-anchor="start" x="116.5" y="-257.5" font-family="Helvetica,sans-Serif" font-size="10.00">#</text>
<text text-anchor="start" x="134.5" y="-257.5" font-family="Helvetica,sans-Serif" font-size="10.00">c()</text>
<text text-anchor="start" x="116.5" y="-242.5" font-family="Helvetica,sans-Serif" font-size="10.00">#</text>
<text text-anchor="start" x="134.5" y="-242.5" font-family="Helvetica,sans-Serif" font-size="10.00">__check_protocols__()</text>
<polygon fill="#666666" stroke="#666666" points="107.5,-282.5 107.5,-282.5 256.5,-282.5 256.5,-282.5 107.5,-282.5"/>
<polygon fill="#666666" stroke="#666666" points="107.5,-267.5 107.5,-267.5 256.5,-267.5 256.5,-267.5 107.5,-267.5"/>
<polygon fill="none" stroke="#666666" points="107,-236 107,-333 256,-333 256,-236 107,-236"/>
</a>
</g>
</g>
<!-- Node2&#45;&gt;Node1 -->
<g id="edge1_Node000001_Node000002" class="edge">
<title>Node2&#45;&gt;Node1</title>
<g id="a_edge1_Node000001_Node000002"><a xlink:title=" ">
<path fill="none" stroke="#63b8ff" d="M181.5,-225.7C181.5,-217.14 181.5,-208.12 181.5,-199"/>
<polygon fill="none" stroke="#63b8ff" points="178,-225.9 181.5,-235.9 185,-225.9 178,-225.9"/>
</a>
</g>
</g>
<!-- Node3 -->
<g id="Node000003" class="node">
<title>Node3</title>
<g id="a_Node000003"><a xlink:href="classL4_1_1Pager.html" target="_top" xlink:title="Pager interface including the Io_pager interface.">
<polygon fill="white" stroke="transparent" points="178,-419 97,-419 97,-370 178,-370 178,-419"/>
<text text-anchor="start" x="115.5" y="-406.5" font-family="Helvetica,sans-Serif" font-size="10.00">L4::Pager</text>
<text text-anchor="start" x="136" y="-391.5" font-family="Helvetica,sans-Serif" font-size="10.00"> </text>
<text text-anchor="start" x="101.5" y="-376.5" font-family="Helvetica,sans-Serif" font-size="10.00">+</text>
<text text-anchor="start" x="114.5" y="-376.5" font-family="Helvetica,sans-Serif" font-size="10.00">page_fault()</text>
<polygon fill="#666666" stroke="#666666" points="97.5,-401.5 97.5,-401.5 178.5,-401.5 178.5,-401.5 97.5,-401.5"/>
<polygon fill="#666666" stroke="#666666" points="97.5,-386.5 97.5,-386.5 178.5,-386.5 178.5,-386.5 97.5,-386.5"/>
<polygon fill="none" stroke="#666666" points="97,-370 97,-419 178,-419 178,-370 97,-370"/>
</a>
</g>
</g>
<!-- Node3&#45;&gt;Node2 -->
<g id="edge2_Node000002_Node000003" class="edge">
<title>Node3&#45;&gt;Node2</title>
<g id="a_edge2_Node000002_Node000003"><a xlink:title=" ">
<path fill="none" stroke="#63b8ff" d="M150.96,-360.46C154.48,-351.81 158.35,-342.32 162.11,-333.08"/>
<polygon fill="none" stroke="#63b8ff" points="147.69,-359.22 147.16,-369.8 154.17,-361.86 147.69,-359.22"/>
</a>
</g>
</g>
<!-- Node4 -->
<g id="Node000004" class="node">
<title>Node4</title>
<g id="a_Node000004"><a xlink:href="classL4_1_1Kobject__t.html" target="_top" xlink:title=" ">
<polygon fill="white" stroke="transparent" points="152,-574 9,-574 9,-488 152,-488 152,-574"/>
<text text-anchor="start" x="14.5" y="-562" font-family="Helvetica,sans-Serif" font-size="10.00">L4::Kobject_t&lt; Pager,</text>
<text text-anchor="start" x="14.5" y="-551" font-family="Helvetica,sans-Serif" font-size="10.00"> Io_pager, L4_PROTO_PAGE</text>
<text text-anchor="start" x="58" y="-540" font-family="Helvetica,sans-Serif" font-size="10.00">_FAULT &gt;</text>
<text text-anchor="start" x="79" y="-525" font-family="Helvetica,sans-Serif" font-size="10.00"> </text>
<text text-anchor="start" x="17" y="-510" font-family="Helvetica,sans-Serif" font-size="10.00">#</text>
<text text-anchor="start" x="33.5" y="-510" font-family="Helvetica,sans-Serif" font-size="10.00">c()</text>
<text text-anchor="start" x="17" y="-495" font-family="Helvetica,sans-Serif" font-size="10.00">#</text>
<text text-anchor="start" x="33.5" y="-495" font-family="Helvetica,sans-Serif" font-size="10.00">__check_protocols__()</text>
<polygon fill="#666666" stroke="#666666" points="9.5,-535 9.5,-535 152.5,-535 152.5,-535 9.5,-535"/>
<polygon fill="#666666" stroke="#666666" points="9.5,-520 9.5,-520 152.5,-520 152.5,-520 9.5,-520"/>
<polygon fill="none" stroke="#666666" points="9,-488 9,-574 152,-574 152,-488 9,-488"/>
</a>
</g>
</g>
<!-- Node4&#45;&gt;Node3 -->
<g id="edge3_Node000003_Node000004" class="edge">
<title>Node4&#45;&gt;Node3</title>
<g id="a_edge3_Node000003_Node000004"><a xlink:title=" ">
<path fill="none" stroke="#63b8ff" d="M102.29,-478.58C110.96,-458.11 120.52,-435.57 127.48,-419.14"/>
<polygon fill="none" stroke="#63b8ff" points="99.06,-477.24 98.38,-487.81 105.5,-479.97 99.06,-477.24"/>
</a>
</g>
</g>
<!-- Node5 -->
<g id="Node000005" class="node">
<title>Node5</title>
<g id="a_Node000005"><a xlink:href="classL4_1_1Io__pager.html" target="_top" xlink:title="Io_pager interface.">
<polygon fill="white" stroke="transparent" points="95,-694 0,-694 0,-645 95,-645 95,-694"/>
<text text-anchor="start" x="18" y="-681.5" font-family="Helvetica,sans-Serif" font-size="10.00">L4::Io_pager</text>
<text text-anchor="start" x="46" y="-666.5" font-family="Helvetica,sans-Serif" font-size="10.00"> </text>
<text text-anchor="start" x="4.5" y="-651.5" font-family="Helvetica,sans-Serif" font-size="10.00">+</text>
<text text-anchor="start" x="17.5" y="-651.5" font-family="Helvetica,sans-Serif" font-size="10.00">io_page_fault()</text>
<polygon fill="#666666" stroke="#666666" points="0.5,-676.5 0.5,-676.5 95.5,-676.5 95.5,-676.5 0.5,-676.5"/>
<polygon fill="#666666" stroke="#666666" points="0.5,-661.5 0.5,-661.5 95.5,-661.5 95.5,-661.5 0.5,-661.5"/>
<polygon fill="none" stroke="#666666" points="0,-645 0,-694 95,-694 95,-645 0,-645"/>
</a>
</g>
</g>
<!-- Node5&#45;&gt;Node4 -->
<g id="edge4_Node000004_Node000005" class="edge">
<title>Node5&#45;&gt;Node4</title>
<g id="a_edge4_Node000004_Node000005"><a xlink:title=" ">
<path fill="none" stroke="#63b8ff" d="M52.75,-634.69C55.07,-621.31 58.05,-605.85 61.5,-592 62.95,-586.17 64.66,-580.07 66.44,-574.1"/>
<polygon fill="none" stroke="#63b8ff" points="49.24,-634.46 51.03,-644.9 56.14,-635.62 49.24,-634.46"/>
</a>
</g>
</g>
<!-- Node6 -->
<g id="Node000006" class="node">
<title>Node6</title>
<g id="a_Node000006"><a xlink:href="classL4_1_1Kobject__t.html" target="_top" xlink:title="Helper class to create an L4Re interface class that is derived from a single base class.">
<polygon fill="white" stroke="transparent" points="281.5,-707 131.5,-707 131.5,-632 281.5,-632 281.5,-707"/>
<text text-anchor="start" x="136.5" y="-694.5" font-family="Helvetica,sans-Serif" font-size="10.00">L4::Kobject_t&lt; Derived,</text>
<text text-anchor="start" x="136.5" y="-683.5" font-family="Helvetica,sans-Serif" font-size="10.00"> Base, PROTO, S_DEMAND &gt;</text>
<text text-anchor="start" x="204.5" y="-668.5" font-family="Helvetica,sans-Serif" font-size="10.00"> </text>
<text text-anchor="start" x="140.5" y="-653.5" font-family="Helvetica,sans-Serif" font-size="10.00">#</text>
<text text-anchor="start" x="158.5" y="-653.5" font-family="Helvetica,sans-Serif" font-size="10.00">c()</text>
<text text-anchor="start" x="140.5" y="-638.5" font-family="Helvetica,sans-Serif" font-size="10.00">#</text>
<text text-anchor="start" x="158.5" y="-638.5" font-family="Helvetica,sans-Serif" font-size="10.00">__check_protocols__()</text>
<polygon fill="#666666" stroke="#666666" points="131.5,-678.5 131.5,-678.5 281.5,-678.5 281.5,-678.5 131.5,-678.5"/>
<polygon fill="#666666" stroke="#666666" points="131.5,-663.5 131.5,-663.5 281.5,-663.5 281.5,-663.5 131.5,-663.5"/>
<polygon fill="none" stroke="#666666" points="131.5,-632 131.5,-707 281.5,-707 281.5,-632 131.5,-632"/>
</a>
</g>
</g>
<!-- Node6&#45;&gt;Node2 -->
<g id="edge6_Node000002_Node000006" class="edge">
<title>Node6&#45;&gt;Node2</title>
<g id="a_edge6_Node000002_Node000006"><a xlink:title=" ">
<path fill="none" stroke="orange" d="M211.24,-621.88C211.77,-612.02 211.97,-601.67 211.5,-592 207.02,-500.15 195.01,-393.36 187.62,-333.17"/>
<polygon fill="orange" stroke="orange" points="207.75,-621.73 210.59,-631.94 214.73,-622.19 207.75,-621.73"/>
</a>
</g>
<text text-anchor="start" x="202.5" y="-462" font-family="Helvetica,sans-Serif" font-size="10.00" fill="grey"> &lt; Rm, L4::Pager, L4RE</text>
<text text-anchor="start" x="202.5" y="-451" font-family="Helvetica,sans-Serif" font-size="10.00" fill="grey">_PROTO_RM, L4::Type_info</text>
<text text-anchor="middle" x="267.5" y="-440" font-family="Helvetica,sans-Serif" font-size="10.00" fill="grey">::Demand_t&lt; 1 &gt; &gt;</text>
</g>
<!-- Node6&#45;&gt;Node4 -->
<g id="edge5_Node000004_Node000006" class="edge">
<title>Node6&#45;&gt;Node4</title>
<g id="a_edge5_Node000004_Node000006"><a xlink:title=" ">
<path fill="none" stroke="orange" d="M122.03,-639.64C103.22,-631.49 87.15,-622.52 81.5,-614 73.86,-602.49 71.87,-587.93 72.34,-574.29"/>
<polygon fill="orange" stroke="orange" points="120.87,-642.95 131.45,-643.57 123.57,-636.49 120.87,-642.95"/>
</a>
</g>
<text text-anchor="start" x="81.5" y="-606" font-family="Helvetica,sans-Serif" font-size="10.00" fill="grey"> &lt; Pager, Io_pager,</text>
<text text-anchor="middle" x="146.5" y="-595" font-family="Helvetica,sans-Serif" font-size="10.00" fill="grey"> L4_PROTO_PAGE_FAULT &gt;</text>
</g>
</g>
</svg>
