<?xml version="1.0" encoding="UTF-8" standalone="no"?>
<!DOCTYPE svg PUBLIC "-//W3C//DTD SVG 1.1//EN"
 "http://www.w3.org/Graphics/SVG/1.1/DTD/svg11.dtd">
<!-- Generated by graphviz version 2.42.4 (0)
 -->
<!-- Title: L4::Scheduler Pages: 1 -->
<svg width="329pt" height="685pt"
 viewBox="0.00 0.00 329.00 685.00" xmlns="http://www.w3.org/2000/svg" xmlns:xlink="http://www.w3.org/1999/xlink">
<g id="graph0" class="graph" transform="scale(1 1) rotate(0) translate(4 681)">
<title>L4::Scheduler</title>
<!-- Node1 -->
<g id="Node000001" class="node">
<title>Node1</title>
<g id="a_Node000001"><a xlink:title="C++ interface of the Scheduler kernel object, see Scheduler for the C interface.">
<polygon fill="#999999" stroke="transparent" points="207,-94 125,-94 125,0 207,0 207,-94"/>
<text text-anchor="start" x="133" y="-82" font-family="Helvetica,sans-Serif" font-size="10.00">L4::Scheduler</text>
<text text-anchor="start" x="164" y="-67" font-family="Helvetica,sans-Serif" font-size="10.00"> </text>
<text text-anchor="start" x="129" y="-52" font-family="Helvetica,sans-Serif" font-size="10.00">+</text>
<text text-anchor="start" x="142" y="-52" font-family="Helvetica,sans-Serif" font-size="10.00">info()</text>
<text text-anchor="start" x="129" y="-37" font-family="Helvetica,sans-Serif" font-size="10.00">+</text>
<text text-anchor="start" x="142" y="-37" font-family="Helvetica,sans-Serif" font-size="10.00">run_thread()</text>
<text text-anchor="start" x="129" y="-22" font-family="Helvetica,sans-Serif" font-size="10.00">+</text>
<text text-anchor="start" x="142" y="-22" font-family="Helvetica,sans-Serif" font-size="10.00">idle_time()</text>
<text text-anchor="start" x="129" y="-7" font-family="Helvetica,sans-Serif" font-size="10.00">+</text>
<text text-anchor="start" x="142" y="-7" font-family="Helvetica,sans-Serif" font-size="10.00">is_online()</text>
<polygon fill="#666666" stroke="#666666" points="125,-77 125,-77 207,-77 207,-77 125,-77"/>
<polygon fill="#666666" stroke="#666666" points="125,-62 125,-62 207,-62 207,-62 125,-62"/>
<polygon fill="none" stroke="#666666" points="125,0 125,-94 207,-94 207,0 125,0"/>
</a>
</g>
</g>
<!-- Node2 -->
<g id="Node000002" class="node">
<title>Node2</title>
<g id="a_Node000002"><a xlink:href="classL4_1_1Kobject__t.html" target="_top" xlink:title=" ">
<polygon fill="white" stroke="transparent" points="244,-217 88,-217 88,-131 244,-131 244,-217"/>
<text text-anchor="start" x="93" y="-205" font-family="Helvetica,sans-Serif" font-size="10.00">L4::Kobject_t&lt; Scheduler,</text>
<text text-anchor="start" x="93" y="-194" font-family="Helvetica,sans-Serif" font-size="10.00"> Icu, L4_PROTO_SCHEDULER,</text>
<text text-anchor="start" x="93" y="-183" font-family="Helvetica,sans-Serif" font-size="10.00"> Type_info::Demand_t&lt; 1 &gt; &gt;</text>
<text text-anchor="start" x="164" y="-168" font-family="Helvetica,sans-Serif" font-size="10.00"> </text>
<text text-anchor="start" x="98.5" y="-153" font-family="Helvetica,sans-Serif" font-size="10.00">#</text>
<text text-anchor="start" x="118" y="-153" font-family="Helvetica,sans-Serif" font-size="10.00">c()</text>
<text text-anchor="start" x="98.5" y="-138" font-family="Helvetica,sans-Serif" font-size="10.00">#</text>
<text text-anchor="start" x="118" y="-138" font-family="Helvetica,sans-Serif" font-size="10.00">__check_protocols__()</text>
<polygon fill="#666666" stroke="#666666" points="88,-178 88,-178 244,-178 244,-178 88,-178"/>
<polygon fill="#666666" stroke="#666666" points="88,-163 88,-163 244,-163 244,-163 88,-163"/>
<polygon fill="none" stroke="#666666" points="88,-131 88,-217 244,-217 244,-131 88,-131"/>
</a>
</g>
</g>
<!-- Node2&#45;&gt;Node1 -->
<g id="edge1_Node000001_Node000002" class="edge">
<title>Node2&#45;&gt;Node1</title>
<g id="a_edge1_Node000001_Node000002"><a xlink:title=" ">
<path fill="none" stroke="#63b8ff" d="M166,-120.55C166,-111.78 166,-102.73 166,-94.13"/>
<polygon fill="none" stroke="#63b8ff" points="162.5,-120.68 166,-130.68 169.5,-120.68 162.5,-120.68"/>
</a>
</g>
</g>
<!-- Node3 -->
<g id="Node000003" class="node">
<title>Node3</title>
<g id="a_Node000003"><a xlink:href="classL4_1_1Icu.html" target="_top" xlink:title="C++ Icu interface, see Interrupt controller for the C interface.">
<polygon fill="white" stroke="transparent" points="163.5,-378 86.5,-378 86.5,-254 163.5,-254 163.5,-378"/>
<text text-anchor="start" x="109.5" y="-366" font-family="Helvetica,sans-Serif" font-size="10.00">L4::Icu</text>
<text text-anchor="start" x="123.5" y="-351" font-family="Helvetica,sans-Serif" font-size="10.00"> </text>
<text text-anchor="start" x="91" y="-336" font-family="Helvetica,sans-Serif" font-size="10.00">+</text>
<text text-anchor="start" x="104" y="-336" font-family="Helvetica,sans-Serif" font-size="10.00">bind()</text>
<text text-anchor="start" x="91" y="-321" font-family="Helvetica,sans-Serif" font-size="10.00">+</text>
<text text-anchor="start" x="104" y="-321" font-family="Helvetica,sans-Serif" font-size="10.00">unbind()</text>
<text text-anchor="start" x="91" y="-306" font-family="Helvetica,sans-Serif" font-size="10.00">+</text>
<text text-anchor="start" x="104" y="-306" font-family="Helvetica,sans-Serif" font-size="10.00">info()</text>
<text text-anchor="start" x="91" y="-291" font-family="Helvetica,sans-Serif" font-size="10.00">+</text>
<text text-anchor="start" x="104" y="-291" font-family="Helvetica,sans-Serif" font-size="10.00">msi_info()</text>
<text text-anchor="start" x="91" y="-276" font-family="Helvetica,sans-Serif" font-size="10.00">+</text>
<text text-anchor="start" x="104" y="-276" font-family="Helvetica,sans-Serif" font-size="10.00">mask()</text>
<text text-anchor="start" x="91" y="-261" font-family="Helvetica,sans-Serif" font-size="10.00">+</text>
<text text-anchor="start" x="104" y="-261" font-family="Helvetica,sans-Serif" font-size="10.00">set_mode()</text>
<polygon fill="#666666" stroke="#666666" points="87,-361 87,-361 164,-361 164,-361 87,-361"/>
<polygon fill="#666666" stroke="#666666" points="87,-346 87,-346 164,-346 164,-346 87,-346"/>
<polygon fill="none" stroke="#666666" points="86.5,-254 86.5,-378 163.5,-378 163.5,-254 86.5,-254"/>
</a>
</g>
</g>
<!-- Node3&#45;&gt;Node2 -->
<g id="edge2_Node000002_Node000003" class="edge">
<title>Node3&#45;&gt;Node2</title>
<g id="a_edge2_Node000002_Node000003"><a xlink:title=" ">
<path fill="none" stroke="#63b8ff" d="M145.88,-243.71C148.55,-234.59 151.21,-225.49 153.69,-217.05"/>
<polygon fill="none" stroke="#63b8ff" points="142.43,-243.01 142.98,-253.59 149.15,-244.98 142.43,-243.01"/>
</a>
</g>
</g>
<!-- Node4 -->
<g id="Node000004" class="node">
<title>Node4</title>
<g id="a_Node000004"><a xlink:href="classL4_1_1Kobject__t.html" target="_top" xlink:title=" ">
<polygon fill="white" stroke="transparent" points="156,-533 0,-533 0,-447 156,-447 156,-533"/>
<text text-anchor="start" x="5" y="-521" font-family="Helvetica,sans-Serif" font-size="10.00">L4::Kobject_t&lt; Icu,</text>
<text text-anchor="start" x="5" y="-510" font-family="Helvetica,sans-Serif" font-size="10.00"> Irq_eoi, L4_PROTO_IRQ,</text>
<text text-anchor="start" x="5" y="-499" font-family="Helvetica,sans-Serif" font-size="10.00"> Type_info::Demand_t&lt; 1 &gt; &gt;</text>
<text text-anchor="start" x="76" y="-484" font-family="Helvetica,sans-Serif" font-size="10.00"> </text>
<text text-anchor="start" x="10.5" y="-469" font-family="Helvetica,sans-Serif" font-size="10.00">#</text>
<text text-anchor="start" x="30" y="-469" font-family="Helvetica,sans-Serif" font-size="10.00">c()</text>
<text text-anchor="start" x="10.5" y="-454" font-family="Helvetica,sans-Serif" font-size="10.00">#</text>
<text text-anchor="start" x="30" y="-454" font-family="Helvetica,sans-Serif" font-size="10.00">__check_protocols__()</text>
<polygon fill="#666666" stroke="#666666" points="0,-494 0,-494 156,-494 156,-494 0,-494"/>
<polygon fill="#666666" stroke="#666666" points="0,-479 0,-479 156,-479 156,-479 0,-479"/>
<polygon fill="none" stroke="#666666" points="0,-447 0,-533 156,-533 156,-447 0,-447"/>
</a>
</g>
</g>
<!-- Node4&#45;&gt;Node3 -->
<g id="edge3_Node000003_Node000004" class="edge">
<title>Node4&#45;&gt;Node3</title>
<g id="a_edge3_Node000003_Node000004"><a xlink:title=" ">
<path fill="none" stroke="#63b8ff" d="M92.16,-437.17C97.24,-418.58 103.02,-397.45 108.29,-378.14"/>
<polygon fill="none" stroke="#63b8ff" points="88.76,-436.36 89.5,-446.92 95.51,-438.2 88.76,-436.36"/>
</a>
</g>
</g>
<!-- Node5 -->
<g id="Node000005" class="node">
<title>Node5</title>
<g id="a_Node000005"><a xlink:href="classL4_1_1Irq__eoi.html" target="_top" xlink:title="Interface for sending an unmask message to an object.">
<polygon fill="white" stroke="transparent" points="79,-664 11,-664 11,-615 79,-615 79,-664"/>
<text text-anchor="start" x="19.5" y="-651.5" font-family="Helvetica,sans-Serif" font-size="10.00">L4::Irq_eoi</text>
<text text-anchor="start" x="43" y="-636.5" font-family="Helvetica,sans-Serif" font-size="10.00"> </text>
<text text-anchor="start" x="15" y="-621.5" font-family="Helvetica,sans-Serif" font-size="10.00">+</text>
<text text-anchor="start" x="28" y="-621.5" font-family="Helvetica,sans-Serif" font-size="10.00">unmask()</text>
<polygon fill="#666666" stroke="#666666" points="11,-646.5 11,-646.5 79,-646.5 79,-646.5 11,-646.5"/>
<polygon fill="#666666" stroke="#666666" points="11,-631.5 11,-631.5 79,-631.5 79,-631.5 11,-631.5"/>
<polygon fill="none" stroke="#666666" points="11,-615 11,-664 79,-664 79,-615 11,-615"/>
</a>
</g>
</g>
<!-- Node5&#45;&gt;Node4 -->
<g id="edge4_Node000004_Node000005" class="edge">
<title>Node5&#45;&gt;Node4</title>
<g id="a_edge4_Node000004_Node000005"><a xlink:title=" ">
<path fill="none" stroke="#63b8ff" d="M49.21,-604.74C51.55,-588.4 54.84,-568.56 59,-551 60.39,-545.15 62.05,-539.05 63.82,-533.07"/>
<polygon fill="none" stroke="#63b8ff" points="45.71,-604.53 47.81,-614.92 52.64,-605.49 45.71,-604.53"/>
</a>
</g>
</g>
<!-- Node6 -->
<g id="Node000006" class="node">
<title>Node6</title>
<g id="a_Node000006"><a xlink:href="classL4_1_1Kobject__t.html" target="_top" xlink:title="Helper class to create an L4Re interface class that is derived from a single base class.">
<polygon fill="white" stroke="transparent" points="265,-677 115,-677 115,-602 265,-602 265,-677"/>
<text text-anchor="start" x="120" y="-664.5" font-family="Helvetica,sans-Serif" font-size="10.00">L4::Kobject_t&lt; Derived,</text>
<text text-anchor="start" x="120" y="-653.5" font-family="Helvetica,sans-Serif" font-size="10.00"> Base, PROTO, S_DEMAND &gt;</text>
<text text-anchor="start" x="188" y="-638.5" font-family="Helvetica,sans-Serif" font-size="10.00"> </text>
<text text-anchor="start" x="124" y="-623.5" font-family="Helvetica,sans-Serif" font-size="10.00">#</text>
<text text-anchor="start" x="142" y="-623.5" font-family="Helvetica,sans-Serif" font-size="10.00">c()</text>
<text text-anchor="start" x="124" y="-608.5" font-family="Helvetica,sans-Serif" font-size="10.00">#</text>
<text text-anchor="start" x="142" y="-608.5" font-family="Helvetica,sans-Serif" font-size="10.00">__check_protocols__()</text>
<polygon fill="#666666" stroke="#666666" points="115,-648.5 115,-648.5 265,-648.5 265,-648.5 115,-648.5"/>
<polygon fill="#666666" stroke="#666666" points="115,-633.5 115,-633.5 265,-633.5 265,-633.5 115,-633.5"/>
<polygon fill="none" stroke="#666666" points="115,-602 115,-677 265,-677 265,-602 115,-602"/>
</a>
</g>
</g>
<!-- Node6&#45;&gt;Node2 -->
<g id="edge6_Node000002_Node000006" class="edge">
<title>Node6&#45;&gt;Node2</title>
<g id="a_edge6_Node000002_Node000006"><a xlink:title=" ">
<path fill="none" stroke="orange" d="M193.66,-591.74C193.79,-589.13 193.91,-586.53 194,-584 194.54,-569.34 194.54,-565.66 194,-551 189.51,-429.66 176.83,-286.74 170.18,-217.23"/>
<polygon fill="orange" stroke="orange" points="190.15,-591.69 193.06,-601.88 197.14,-592.1 190.15,-591.69"/>
</a>
</g>
<text text-anchor="start" x="188" y="-421" font-family="Helvetica,sans-Serif" font-size="10.00" fill="grey"> &lt; Scheduler, Icu, L4</text>
<text text-anchor="start" x="188" y="-410" font-family="Helvetica,sans-Serif" font-size="10.00" fill="grey">_PROTO_SCHEDULER, Type</text>
<text text-anchor="middle" x="254.5" y="-399" font-family="Helvetica,sans-Serif" font-size="10.00" fill="grey">_info::Demand_t&lt; 1 &gt; &gt;</text>
</g>
<!-- Node6&#45;&gt;Node4 -->
<g id="edge5_Node000004_Node000006" class="edge">
<title>Node6&#45;&gt;Node4</title>
<g id="a_edge5_Node000004_Node000006"><a xlink:title=" ">
<path fill="none" stroke="orange" d="M106.07,-610.45C95.35,-603.44 85.78,-594.75 79,-584 69.61,-569.11 68.04,-550.04 69.32,-533.05"/>
<polygon fill="orange" stroke="orange" points="104.5,-613.59 114.88,-615.72 108.09,-607.58 104.5,-613.59"/>
</a>
</g>
<text text-anchor="start" x="79" y="-576" font-family="Helvetica,sans-Serif" font-size="10.00" fill="grey"> &lt; Icu, Irq_eoi, L4</text>
<text text-anchor="start" x="79" y="-565" font-family="Helvetica,sans-Serif" font-size="10.00" fill="grey">_PROTO_IRQ, Type_info</text>
<text text-anchor="middle" x="136.5" y="-554" font-family="Helvetica,sans-Serif" font-size="10.00" fill="grey">::Demand_t&lt; 1 &gt; &gt;</text>
</g>
</g>
</svg>
