<?xml version="1.0" encoding="UTF-8" standalone="no"?>
<!DOCTYPE svg PUBLIC "-//W3C//DTD SVG 1.1//EN"
 "http://www.w3.org/Graphics/SVG/1.1/DTD/svg11.dtd">
<!-- Generated by graphviz version 2.43.0 (0)
 -->
<!-- Title: L4virtio::Driver::Virtqueue Pages: 1 -->
<svg width="595pt" height="1083pt"
 viewBox="0.00 0.00 594.50 1083.00" xmlns="http://www.w3.org/2000/svg" xmlns:xlink="http://www.w3.org/1999/xlink">
<g id="graph0" class="graph" transform="scale(1 1) rotate(0) translate(4 1079)">
<title>L4virtio::Driver::Virtqueue</title>
<!-- Node1 -->
<g id="Node000001" class="node">
<title>Node1</title>
<g id="a_Node000001"><a xlink:title="Driver&#45;side implementation of a Virtqueue.">
<polygon fill="#999999" stroke="transparent" points="366.5,-154 229.5,-154 229.5,0 366.5,0 366.5,-154"/>
<text text-anchor="start" x="235" y="-142" font-family="Helvetica,sans-Serif" font-size="10.00">L4virtio::Driver::Virtqueue</text>
<text text-anchor="start" x="296.5" y="-127" font-family="Helvetica,sans-Serif" font-size="10.00"> </text>
<text text-anchor="start" x="237" y="-112" font-family="Helvetica,sans-Serif" font-size="10.00">+</text>
<text text-anchor="start" x="253" y="-112" font-family="Helvetica,sans-Serif" font-size="10.00">initialize_rings()</text>
<text text-anchor="start" x="237" y="-97" font-family="Helvetica,sans-Serif" font-size="10.00">+</text>
<text text-anchor="start" x="253" y="-97" font-family="Helvetica,sans-Serif" font-size="10.00">init_queue()</text>
<text text-anchor="start" x="237" y="-82" font-family="Helvetica,sans-Serif" font-size="10.00">+</text>
<text text-anchor="start" x="253" y="-82" font-family="Helvetica,sans-Serif" font-size="10.00">init_queue()</text>
<text text-anchor="start" x="237" y="-67" font-family="Helvetica,sans-Serif" font-size="10.00">+</text>
<text text-anchor="start" x="253" y="-67" font-family="Helvetica,sans-Serif" font-size="10.00">alloc_descriptor()</text>
<text text-anchor="start" x="237" y="-52" font-family="Helvetica,sans-Serif" font-size="10.00">+</text>
<text text-anchor="start" x="253" y="-52" font-family="Helvetica,sans-Serif" font-size="10.00">enqueue_descriptor()</text>
<text text-anchor="start" x="237" y="-37" font-family="Helvetica,sans-Serif" font-size="10.00">+</text>
<text text-anchor="start" x="253" y="-37" font-family="Helvetica,sans-Serif" font-size="10.00">desc()</text>
<text text-anchor="start" x="237" y="-22" font-family="Helvetica,sans-Serif" font-size="10.00">+</text>
<text text-anchor="start" x="253" y="-22" font-family="Helvetica,sans-Serif" font-size="10.00">find_next_used()</text>
<text text-anchor="start" x="237" y="-7" font-family="Helvetica,sans-Serif" font-size="10.00">+</text>
<text text-anchor="start" x="253" y="-7" font-family="Helvetica,sans-Serif" font-size="10.00">free_descriptor()</text>
<polygon fill="#666666" stroke="#666666" points="230,-137 230,-137 367,-137 367,-137 230,-137"/>
<polygon fill="#666666" stroke="#666666" points="230,-122 230,-122 367,-122 367,-122 230,-122"/>
<polygon fill="none" stroke="#666666" points="229.5,0 229.5,-154 366.5,-154 366.5,0 229.5,0"/>
</a>
</g>
</g>
<!-- Node2 -->
<g id="Node000002" class="node">
<title>Node2</title>
<g id="a_Node000002"><a xlink:href="classL4virtio_1_1Virtqueue.html" target="_top" xlink:title="Low&#45;level Virtqueue.">
<polygon fill="white" stroke="transparent" points="355.5,-570 240.5,-570 240.5,-191 355.5,-191 355.5,-570"/>
<text text-anchor="start" x="253" y="-557.5" font-family="Helvetica,sans-Serif" font-size="10.00">L4virtio::Virtqueue</text>
<text text-anchor="start" x="245" y="-542.5" font-family="Helvetica,sans-Serif" font-size="10.00">#</text>
<text text-anchor="start" x="258" y="-542.5" font-family="Helvetica,sans-Serif" font-size="10.00">_current_avail</text>
<text text-anchor="start" x="245" y="-527.5" font-family="Helvetica,sans-Serif" font-size="10.00">#</text>
<text text-anchor="start" x="258" y="-527.5" font-family="Helvetica,sans-Serif" font-size="10.00">_idx_mask</text>
<text text-anchor="start" x="245" y="-512.5" font-family="Helvetica,sans-Serif" font-size="10.00">+</text>
<text text-anchor="start" x="258" y="-512.5" font-family="Helvetica,sans-Serif" font-size="10.00">disable()</text>
<text text-anchor="start" x="245" y="-497.5" font-family="Helvetica,sans-Serif" font-size="10.00">+</text>
<text text-anchor="start" x="258" y="-497.5" font-family="Helvetica,sans-Serif" font-size="10.00">total_size()</text>
<text text-anchor="start" x="245" y="-482.5" font-family="Helvetica,sans-Serif" font-size="10.00">+</text>
<text text-anchor="start" x="258" y="-482.5" font-family="Helvetica,sans-Serif" font-size="10.00">avail_offset()</text>
<text text-anchor="start" x="245" y="-467.5" font-family="Helvetica,sans-Serif" font-size="10.00">+</text>
<text text-anchor="start" x="258" y="-467.5" font-family="Helvetica,sans-Serif" font-size="10.00">used_offset()</text>
<text text-anchor="start" x="245" y="-452.5" font-family="Helvetica,sans-Serif" font-size="10.00">+</text>
<text text-anchor="start" x="258" y="-452.5" font-family="Helvetica,sans-Serif" font-size="10.00">setup()</text>
<text text-anchor="start" x="245" y="-437.5" font-family="Helvetica,sans-Serif" font-size="10.00">+</text>
<text text-anchor="start" x="258" y="-437.5" font-family="Helvetica,sans-Serif" font-size="10.00">setup_simple()</text>
<text text-anchor="start" x="245" y="-422.5" font-family="Helvetica,sans-Serif" font-size="10.00">+</text>
<text text-anchor="start" x="258" y="-422.5" font-family="Helvetica,sans-Serif" font-size="10.00">dump()</text>
<text text-anchor="start" x="245" y="-407.5" font-family="Helvetica,sans-Serif" font-size="10.00">+</text>
<text text-anchor="start" x="258" y="-407.5" font-family="Helvetica,sans-Serif" font-size="10.00">ready()</text>
<text text-anchor="start" x="245" y="-392.5" font-family="Helvetica,sans-Serif" font-size="10.00">+</text>
<text text-anchor="start" x="258" y="-392.5" font-family="Helvetica,sans-Serif" font-size="10.00">num()</text>
<text text-anchor="start" x="245" y="-377.5" font-family="Helvetica,sans-Serif" font-size="10.00">+</text>
<text text-anchor="start" x="258" y="-377.5" font-family="Helvetica,sans-Serif" font-size="10.00">no_notify_guest()</text>
<text text-anchor="start" x="245" y="-362.5" font-family="Helvetica,sans-Serif" font-size="10.00">+</text>
<text text-anchor="start" x="258" y="-362.5" font-family="Helvetica,sans-Serif" font-size="10.00">no_notify_host()</text>
<text text-anchor="start" x="245" y="-347.5" font-family="Helvetica,sans-Serif" font-size="10.00">+</text>
<text text-anchor="start" x="258" y="-347.5" font-family="Helvetica,sans-Serif" font-size="10.00">no_notify_host()</text>
<text text-anchor="start" x="245" y="-332.5" font-family="Helvetica,sans-Serif" font-size="10.00">+</text>
<text text-anchor="start" x="258" y="-332.5" font-family="Helvetica,sans-Serif" font-size="10.00">get_avail_idx()</text>
<text text-anchor="start" x="245" y="-317.5" font-family="Helvetica,sans-Serif" font-size="10.00">+</text>
<text text-anchor="start" x="258" y="-317.5" font-family="Helvetica,sans-Serif" font-size="10.00">get_tail_avail_idx()</text>
<text text-anchor="start" x="245" y="-302.5" font-family="Helvetica,sans-Serif" font-size="10.00">+</text>
<text text-anchor="start" x="258" y="-302.5" font-family="Helvetica,sans-Serif" font-size="10.00">total_size()</text>
<text text-anchor="start" x="245" y="-287.5" font-family="Helvetica,sans-Serif" font-size="10.00">+</text>
<text text-anchor="start" x="258" y="-287.5" font-family="Helvetica,sans-Serif" font-size="10.00">desc_size()</text>
<text text-anchor="start" x="245" y="-272.5" font-family="Helvetica,sans-Serif" font-size="10.00">+</text>
<text text-anchor="start" x="258" y="-272.5" font-family="Helvetica,sans-Serif" font-size="10.00">desc_align()</text>
<text text-anchor="start" x="245" y="-257.5" font-family="Helvetica,sans-Serif" font-size="10.00">+</text>
<text text-anchor="start" x="258" y="-257.5" font-family="Helvetica,sans-Serif" font-size="10.00">avail_size()</text>
<text text-anchor="start" x="245" y="-242.5" font-family="Helvetica,sans-Serif" font-size="10.00">+</text>
<text text-anchor="start" x="258" y="-242.5" font-family="Helvetica,sans-Serif" font-size="10.00">avail_align()</text>
<text text-anchor="start" x="245" y="-227.5" font-family="Helvetica,sans-Serif" font-size="10.00">+</text>
<text text-anchor="start" x="258" y="-227.5" font-family="Helvetica,sans-Serif" font-size="10.00">used_size()</text>
<text text-anchor="start" x="245" y="-212.5" font-family="Helvetica,sans-Serif" font-size="10.00">+</text>
<text text-anchor="start" x="258" y="-212.5" font-family="Helvetica,sans-Serif" font-size="10.00">used_align()</text>
<text text-anchor="start" x="245" y="-197.5" font-family="Helvetica,sans-Serif" font-size="10.00">#</text>
<text text-anchor="start" x="258" y="-197.5" font-family="Helvetica,sans-Serif" font-size="10.00">Virtqueue()</text>
<polygon fill="#666666" stroke="#666666" points="241,-552.5 241,-552.5 356,-552.5 356,-552.5 241,-552.5"/>
<polygon fill="#666666" stroke="#666666" points="241,-522.5 241,-522.5 256,-522.5 256,-522.5 241,-522.5"/>
<polygon fill="#666666" stroke="#666666" points="256,-522.5 256,-522.5 356,-522.5 356,-522.5 256,-522.5"/>
<polygon fill="none" stroke="#666666" points="240.5,-191 240.5,-570 355.5,-570 355.5,-191 240.5,-191"/>
</a>
</g>
</g>
<!-- Node2&#45;&gt;Node1 -->
<g id="edge1_Node000001_Node000002" class="edge">
<title>Node2&#45;&gt;Node1</title>
<g id="a_edge1_Node000001_Node000002"><a xlink:title=" ">
<path fill="none" stroke="#63b8ff" d="M298,-180.67C298,-171.51 298,-162.62 298,-154.15"/>
<polygon fill="none" stroke="#63b8ff" points="294.5,-180.7 298,-190.7 301.5,-180.7 294.5,-180.7"/>
</a>
</g>
</g>
<!-- Node3 -->
<g id="Node000003" class="node">
<title>Node3</title>
<g id="a_Node000003"><a xlink:href="classL4virtio_1_1Virtqueue_1_1Desc.html" target="_top" xlink:title="Descriptor in the descriptor table.">
<polygon fill="white" stroke="transparent" points="229.5,-692 128.5,-692 128.5,-617 229.5,-617 229.5,-692"/>
<text text-anchor="start" x="134" y="-679.5" font-family="Helvetica,sans-Serif" font-size="10.00">L4virtio::Virtqueue</text>
<text text-anchor="start" x="164" y="-668.5" font-family="Helvetica,sans-Serif" font-size="10.00">::Desc</text>
<text text-anchor="start" x="144" y="-653.5" font-family="Helvetica,sans-Serif" font-size="10.00">+</text>
<text text-anchor="start" x="168" y="-653.5" font-family="Helvetica,sans-Serif" font-size="10.00">len</text>
<text text-anchor="start" x="144" y="-638.5" font-family="Helvetica,sans-Serif" font-size="10.00">+</text>
<text text-anchor="start" x="168" y="-638.5" font-family="Helvetica,sans-Serif" font-size="10.00">next</text>
<text text-anchor="start" x="144" y="-623.5" font-family="Helvetica,sans-Serif" font-size="10.00">+</text>
<text text-anchor="start" x="168" y="-623.5" font-family="Helvetica,sans-Serif" font-size="10.00">dump()</text>
<polygon fill="#666666" stroke="#666666" points="129,-663.5 129,-663.5 230,-663.5 230,-663.5 129,-663.5"/>
<polygon fill="#666666" stroke="#666666" points="129,-633.5 129,-633.5 166,-633.5 166,-633.5 129,-633.5"/>
<polygon fill="#666666" stroke="#666666" points="166,-633.5 166,-633.5 230,-633.5 230,-633.5 166,-633.5"/>
<polygon fill="none" stroke="#666666" points="128.5,-617 128.5,-692 229.5,-692 229.5,-617 128.5,-617"/>
</a>
</g>
</g>
<!-- Node3&#45;&gt;Node2 -->
<g id="edge2_Node000002_Node000003" class="edge">
<title>Node3&#45;&gt;Node2</title>
<g id="a_edge2_Node000002_Node000003"><a xlink:title=" ">
<path fill="none" stroke="#63b8ff" d="M195.05,-616.82C205.73,-592.41 220.51,-558.63 235.54,-524.27"/>
<polygon fill="none" stroke="#63b8ff" points="235.61,-524.1 234.35,-517 240.42,-513.1 241.68,-520.2 235.61,-524.1"/>
</a>
</g>
<text text-anchor="middle" x="225" y="-591" font-family="Helvetica,sans-Serif" font-size="10.00" fill="grey"> #_desc</text>
</g>
<!-- Node4 -->
<g id="Node000004" class="node">
<title>Node4</title>
<g id="a_Node000004"><a xlink:href="classL4virtio_1_1Ptr.html" target="_top" xlink:title=" ">
<polygon fill="white" stroke="transparent" points="110,-883.5 0,-883.5 0,-789.5 110,-789.5 110,-883.5"/>
<text text-anchor="start" x="5" y="-871.5" font-family="Helvetica,sans-Serif" font-size="10.00">L4virtio::Ptr&lt; void &gt;</text>
<text text-anchor="start" x="53" y="-856.5" font-family="Helvetica,sans-Serif" font-size="10.00"> </text>
<text text-anchor="start" x="14.5" y="-841.5" font-family="Helvetica,sans-Serif" font-size="10.00">+</text>
<text text-anchor="start" x="38" y="-841.5" font-family="Helvetica,sans-Serif" font-size="10.00">Ptr()</text>
<text text-anchor="start" x="14.5" y="-826.5" font-family="Helvetica,sans-Serif" font-size="10.00">+</text>
<text text-anchor="start" x="38" y="-826.5" font-family="Helvetica,sans-Serif" font-size="10.00">Ptr()</text>
<text text-anchor="start" x="14.5" y="-811.5" font-family="Helvetica,sans-Serif" font-size="10.00">+</text>
<text text-anchor="start" x="38" y="-811.5" font-family="Helvetica,sans-Serif" font-size="10.00">get()</text>
<text text-anchor="start" x="14.5" y="-796.5" font-family="Helvetica,sans-Serif" font-size="10.00">+</text>
<text text-anchor="start" x="38" y="-796.5" font-family="Helvetica,sans-Serif" font-size="10.00">is_valid()</text>
<polygon fill="#666666" stroke="#666666" points="0,-866.5 0,-866.5 110,-866.5 110,-866.5 0,-866.5"/>
<polygon fill="#666666" stroke="#666666" points="0,-851.5 0,-851.5 110,-851.5 110,-851.5 0,-851.5"/>
<polygon fill="none" stroke="#666666" points="0,-789.5 0,-883.5 110,-883.5 110,-789.5 0,-789.5"/>
</a>
</g>
</g>
<!-- Node4&#45;&gt;Node3 -->
<g id="edge3_Node000003_Node000004" class="edge">
<title>Node4&#45;&gt;Node3</title>
<g id="a_edge3_Node000003_Node000004"><a xlink:title=" ">
<path fill="none" stroke="#63b8ff" d="M85.25,-789.12C95.8,-773.15 107.81,-755.21 119,-739 127.32,-726.95 136.47,-714.05 145.06,-702.08"/>
<polygon fill="none" stroke="#63b8ff" points="145.1,-702.02 145.37,-694.81 152.12,-692.28 151.86,-699.49 145.1,-702.02"/>
</a>
</g>
<text text-anchor="middle" x="156" y="-713" font-family="Helvetica,sans-Serif" font-size="10.00" fill="grey"> +addr</text>
</g>
<!-- Node5 -->
<g id="Node000005" class="node">
<title>Node5</title>
<g id="a_Node000005"><a xlink:href="classL4virtio_1_1Ptr.html" target="_top" xlink:title="Pointer used in virtio descriptors.">
<polygon fill="white" stroke="transparent" points="102.5,-1075 7.5,-1075 7.5,-981 102.5,-981 102.5,-1075"/>
<text text-anchor="start" x="13" y="-1063" font-family="Helvetica,sans-Serif" font-size="10.00">L4virtio::Ptr&lt; T &gt;</text>
<text text-anchor="start" x="53.5" y="-1048" font-family="Helvetica,sans-Serif" font-size="10.00"> </text>
<text text-anchor="start" x="19" y="-1033" font-family="Helvetica,sans-Serif" font-size="10.00">+</text>
<text text-anchor="start" x="39" y="-1033" font-family="Helvetica,sans-Serif" font-size="10.00">Ptr()</text>
<text text-anchor="start" x="19" y="-1018" font-family="Helvetica,sans-Serif" font-size="10.00">+</text>
<text text-anchor="start" x="39" y="-1018" font-family="Helvetica,sans-Serif" font-size="10.00">Ptr()</text>
<text text-anchor="start" x="19" y="-1003" font-family="Helvetica,sans-Serif" font-size="10.00">+</text>
<text text-anchor="start" x="39" y="-1003" font-family="Helvetica,sans-Serif" font-size="10.00">get()</text>
<text text-anchor="start" x="19" y="-988" font-family="Helvetica,sans-Serif" font-size="10.00">+</text>
<text text-anchor="start" x="39" y="-988" font-family="Helvetica,sans-Serif" font-size="10.00">is_valid()</text>
<polygon fill="#666666" stroke="#666666" points="8,-1058 8,-1058 103,-1058 103,-1058 8,-1058"/>
<polygon fill="#666666" stroke="#666666" points="8,-1043 8,-1043 103,-1043 103,-1043 8,-1043"/>
<polygon fill="none" stroke="#666666" points="7.5,-981 7.5,-1075 102.5,-1075 102.5,-981 7.5,-981"/>
</a>
</g>
</g>
<!-- Node5&#45;&gt;Node4 -->
<g id="edge4_Node000004_Node000005" class="edge">
<title>Node5&#45;&gt;Node4</title>
<g id="a_edge4_Node000004_Node000005"><a xlink:title=" ">
<path fill="none" stroke="orange" d="M55,-970.32C55,-942.67 55,-909.82 55,-883.71"/>
<polygon fill="orange" stroke="orange" points="51.5,-970.64 55,-980.64 58.5,-970.64 51.5,-970.64"/>
</a>
</g>
<text text-anchor="middle" x="78.5" y="-955" font-family="Helvetica,sans-Serif" font-size="10.00" fill="grey"> &lt; void &gt;</text>
</g>
<!-- Node6 -->
<g id="Node000006" class="node">
<title>Node6</title>
<g id="a_Node000006"><a xlink:href="structL4virtio_1_1Virtqueue_1_1Desc_1_1Flags.html" target="_top" xlink:title="Type for descriptor flags.">
<polygon fill="white" stroke="transparent" points="229.5,-934 128.5,-934 128.5,-739 229.5,-739 229.5,-934"/>
<text text-anchor="start" x="134" y="-921.5" font-family="Helvetica,sans-Serif" font-size="10.00">L4virtio::Virtqueue</text>
<text text-anchor="start" x="148" y="-910.5" font-family="Helvetica,sans-Serif" font-size="10.00">::Desc::Flags</text>
<text text-anchor="start" x="135" y="-895.5" font-family="Helvetica,sans-Serif" font-size="10.00">+</text>
<text text-anchor="start" x="150" y="-895.5" font-family="Helvetica,sans-Serif" font-size="10.00">raw</text>
<text text-anchor="start" x="135" y="-880.5" font-family="Helvetica,sans-Serif" font-size="10.00">+</text>
<text text-anchor="start" x="150" y="-880.5" font-family="Helvetica,sans-Serif" font-size="10.00">Flags()</text>
<text text-anchor="start" x="136.5" y="-865.5" font-family="Helvetica,sans-Serif" font-size="10.00">*</text>
<text text-anchor="start" x="150" y="-865.5" font-family="Helvetica,sans-Serif" font-size="10.00">next_bfm_t</text>
<text text-anchor="start" x="136.5" y="-850.5" font-family="Helvetica,sans-Serif" font-size="10.00">*</text>
<text text-anchor="start" x="150" y="-850.5" font-family="Helvetica,sans-Serif" font-size="10.00">next()</text>
<text text-anchor="start" x="136.5" y="-835.5" font-family="Helvetica,sans-Serif" font-size="10.00">*</text>
<text text-anchor="start" x="150" y="-835.5" font-family="Helvetica,sans-Serif" font-size="10.00">next()</text>
<text text-anchor="start" x="136.5" y="-820.5" font-family="Helvetica,sans-Serif" font-size="10.00">*</text>
<text text-anchor="start" x="150" y="-820.5" font-family="Helvetica,sans-Serif" font-size="10.00">write_bfm_t</text>
<text text-anchor="start" x="136.5" y="-805.5" font-family="Helvetica,sans-Serif" font-size="10.00">*</text>
<text text-anchor="start" x="150" y="-805.5" font-family="Helvetica,sans-Serif" font-size="10.00">write()</text>
<text text-anchor="start" x="136.5" y="-790.5" font-family="Helvetica,sans-Serif" font-size="10.00">*</text>
<text text-anchor="start" x="150" y="-790.5" font-family="Helvetica,sans-Serif" font-size="10.00">write()</text>
<text text-anchor="start" x="136.5" y="-775.5" font-family="Helvetica,sans-Serif" font-size="10.00">*</text>
<text text-anchor="start" x="150" y="-775.5" font-family="Helvetica,sans-Serif" font-size="10.00">indirect_bfm_t</text>
<text text-anchor="start" x="136.5" y="-760.5" font-family="Helvetica,sans-Serif" font-size="10.00">*</text>
<text text-anchor="start" x="150" y="-760.5" font-family="Helvetica,sans-Serif" font-size="10.00">indirect()</text>
<text text-anchor="start" x="136.5" y="-745.5" font-family="Helvetica,sans-Serif" font-size="10.00">*</text>
<text text-anchor="start" x="150" y="-745.5" font-family="Helvetica,sans-Serif" font-size="10.00">indirect()</text>
<polygon fill="#666666" stroke="#666666" points="129,-905.5 129,-905.5 230,-905.5 230,-905.5 129,-905.5"/>
<polygon fill="#666666" stroke="#666666" points="129,-890.5 129,-890.5 148,-890.5 148,-890.5 129,-890.5"/>
<polygon fill="#666666" stroke="#666666" points="148,-890.5 148,-890.5 230,-890.5 230,-890.5 148,-890.5"/>
<polygon fill="none" stroke="#666666" points="128.5,-739 128.5,-934 229.5,-934 229.5,-739 128.5,-739"/>
</a>
</g>
</g>
<!-- Node6&#45;&gt;Node3 -->
<g id="edge5_Node000003_Node000006" class="edge">
<title>Node6&#45;&gt;Node3</title>
<g id="a_edge5_Node000003_Node000006"><a xlink:title=" ">
<path fill="none" stroke="#63b8ff" d="M179,-738.91C179,-726.92 179,-715.09 179,-704.27"/>
<polygon fill="none" stroke="#63b8ff" points="179,-704.09 175,-698.09 179,-692.09 183,-698.09 179,-704.09"/>
</a>
</g>
<text text-anchor="middle" x="196.5" y="-713" font-family="Helvetica,sans-Serif" font-size="10.00" fill="grey"> +flags</text>
</g>
<!-- Node7 -->
<g id="Node000007" class="node">
<title>Node7</title>
<g id="a_Node000007"><a xlink:href="classL4virtio_1_1Virtqueue_1_1Avail.html" target="_top" xlink:title="Type of available ring, this is read&#45;only for the host.">
<polygon fill="white" stroke="transparent" points="348.5,-692 247.5,-692 247.5,-617 348.5,-617 348.5,-692"/>
<text text-anchor="start" x="253" y="-679.5" font-family="Helvetica,sans-Serif" font-size="10.00">L4virtio::Virtqueue</text>
<text text-anchor="start" x="283" y="-668.5" font-family="Helvetica,sans-Serif" font-size="10.00">::Avail</text>
<text text-anchor="start" x="267" y="-653.5" font-family="Helvetica,sans-Serif" font-size="10.00">+</text>
<text text-anchor="start" x="295" y="-653.5" font-family="Helvetica,sans-Serif" font-size="10.00">idx</text>
<text text-anchor="start" x="267" y="-638.5" font-family="Helvetica,sans-Serif" font-size="10.00">+</text>
<text text-anchor="start" x="295" y="-638.5" font-family="Helvetica,sans-Serif" font-size="10.00">ring</text>
<text text-anchor="start" x="296.5" y="-623.5" font-family="Helvetica,sans-Serif" font-size="10.00"> </text>
<polygon fill="#666666" stroke="#666666" points="248,-663.5 248,-663.5 349,-663.5 349,-663.5 248,-663.5"/>
<polygon fill="#666666" stroke="#666666" points="248,-633.5 248,-633.5 293,-633.5 293,-633.5 248,-633.5"/>
<polygon fill="#666666" stroke="#666666" points="293,-633.5 293,-633.5 349,-633.5 349,-633.5 293,-633.5"/>
<polygon fill="none" stroke="#666666" points="247.5,-617 247.5,-692 348.5,-692 348.5,-617 247.5,-617"/>
</a>
</g>
</g>
<!-- Node7&#45;&gt;Node2 -->
<g id="edge6_Node000002_Node000007" class="edge">
<title>Node7&#45;&gt;Node2</title>
<g id="a_edge6_Node000002_Node000007"><a xlink:title=" ">
<path fill="none" stroke="#63b8ff" d="M298,-616.82C298,-606.76 298,-595.11 298,-582.49"/>
<polygon fill="none" stroke="#63b8ff" points="298,-582.11 294,-576.11 298,-570.11 302,-576.11 298,-582.11"/>
</a>
</g>
<text text-anchor="middle" x="318.5" y="-591" font-family="Helvetica,sans-Serif" font-size="10.00" fill="grey"> #_avail</text>
</g>
<!-- Node8 -->
<g id="Node000008" class="node">
<title>Node8</title>
<g id="a_Node000008"><a xlink:href="structL4virtio_1_1Virtqueue_1_1Avail_1_1Flags.html" target="_top" xlink:title="Flags of the available ring.">
<polygon fill="white" stroke="transparent" points="348.5,-889 247.5,-889 247.5,-784 348.5,-784 348.5,-889"/>
<text text-anchor="start" x="253" y="-876.5" font-family="Helvetica,sans-Serif" font-size="10.00">L4virtio::Virtqueue</text>
<text text-anchor="start" x="267" y="-865.5" font-family="Helvetica,sans-Serif" font-size="10.00">::Avail::Flags</text>
<text text-anchor="start" x="256" y="-850.5" font-family="Helvetica,sans-Serif" font-size="10.00">+</text>
<text text-anchor="start" x="273" y="-850.5" font-family="Helvetica,sans-Serif" font-size="10.00">raw</text>
<text text-anchor="start" x="256" y="-835.5" font-family="Helvetica,sans-Serif" font-size="10.00">+</text>
<text text-anchor="start" x="273" y="-835.5" font-family="Helvetica,sans-Serif" font-size="10.00">Flags()</text>
<text text-anchor="start" x="257.5" y="-820.5" font-family="Helvetica,sans-Serif" font-size="10.00">*</text>
<text text-anchor="start" x="273" y="-820.5" font-family="Helvetica,sans-Serif" font-size="10.00">no_irq_bfm_t</text>
<text text-anchor="start" x="257.5" y="-805.5" font-family="Helvetica,sans-Serif" font-size="10.00">*</text>
<text text-anchor="start" x="273" y="-805.5" font-family="Helvetica,sans-Serif" font-size="10.00">no_irq()</text>
<text text-anchor="start" x="257.5" y="-790.5" font-family="Helvetica,sans-Serif" font-size="10.00">*</text>
<text text-anchor="start" x="273" y="-790.5" font-family="Helvetica,sans-Serif" font-size="10.00">no_irq()</text>
<polygon fill="#666666" stroke="#666666" points="248,-860.5 248,-860.5 349,-860.5 349,-860.5 248,-860.5"/>
<polygon fill="#666666" stroke="#666666" points="248,-845.5 248,-845.5 271,-845.5 271,-845.5 248,-845.5"/>
<polygon fill="#666666" stroke="#666666" points="271,-845.5 271,-845.5 349,-845.5 349,-845.5 271,-845.5"/>
<polygon fill="none" stroke="#666666" points="247.5,-784 247.5,-889 348.5,-889 348.5,-784 247.5,-784"/>
</a>
</g>
</g>
<!-- Node8&#45;&gt;Node7 -->
<g id="edge7_Node000007_Node000008" class="edge">
<title>Node8&#45;&gt;Node7</title>
<g id="a_edge7_Node000007_Node000008"><a xlink:title=" ">
<path fill="none" stroke="#63b8ff" d="M298,-783.92C298,-758.86 298,-728.9 298,-704.23"/>
<polygon fill="none" stroke="#63b8ff" points="298,-704.23 294,-698.23 298,-692.23 302,-698.23 298,-704.23"/>
</a>
</g>
<text text-anchor="middle" x="315.5" y="-713" font-family="Helvetica,sans-Serif" font-size="10.00" fill="grey"> +flags</text>
</g>
<!-- Node9 -->
<g id="Node000009" class="node">
<title>Node9</title>
<g id="a_Node000009"><a xlink:href="classL4virtio_1_1Virtqueue_1_1Used.html" target="_top" xlink:title="Used ring.">
<polygon fill="white" stroke="transparent" points="467.5,-684.5 366.5,-684.5 366.5,-624.5 467.5,-624.5 467.5,-684.5"/>
<text text-anchor="start" x="372" y="-672.5" font-family="Helvetica,sans-Serif" font-size="10.00">L4virtio::Virtqueue</text>
<text text-anchor="start" x="402" y="-661.5" font-family="Helvetica,sans-Serif" font-size="10.00">::Used</text>
<text text-anchor="start" x="387" y="-646.5" font-family="Helvetica,sans-Serif" font-size="10.00">+</text>
<text text-anchor="start" x="416" y="-646.5" font-family="Helvetica,sans-Serif" font-size="10.00">idx</text>
<text text-anchor="start" x="415.5" y="-631.5" font-family="Helvetica,sans-Serif" font-size="10.00"> </text>
<polygon fill="#666666" stroke="#666666" points="367,-656.5 367,-656.5 468,-656.5 468,-656.5 367,-656.5"/>
<polygon fill="#666666" stroke="#666666" points="367,-641.5 367,-641.5 414,-641.5 414,-641.5 367,-641.5"/>
<polygon fill="#666666" stroke="#666666" points="414,-641.5 414,-641.5 468,-641.5 468,-641.5 414,-641.5"/>
<polygon fill="none" stroke="#666666" points="366.5,-624.5 366.5,-684.5 467.5,-684.5 467.5,-624.5 366.5,-624.5"/>
</a>
</g>
</g>
<!-- Node9&#45;&gt;Node2 -->
<g id="edge8_Node000002_Node000009" class="edge">
<title>Node9&#45;&gt;Node2</title>
<g id="a_edge8_Node000002_Node000009"><a xlink:title=" ">
<path fill="none" stroke="#63b8ff" d="M404.26,-624.39C393.49,-599.76 377.18,-562.48 360.55,-524.48"/>
<polygon fill="none" stroke="#63b8ff" points="360.43,-524.21 354.36,-520.31 355.62,-513.21 361.69,-517.1 360.43,-524.21"/>
</a>
</g>
<text text-anchor="middle" x="412" y="-591" font-family="Helvetica,sans-Serif" font-size="10.00" fill="grey"> #_used</text>
</g>
<!-- Node10 -->
<g id="Node000010" class="node">
<title>Node10</title>
<g id="a_Node000010"><a xlink:href="structL4virtio_1_1Virtqueue_1_1Used_1_1Flags.html" target="_top" xlink:title="flags for the used ring.">
<polygon fill="white" stroke="transparent" points="467.5,-889 366.5,-889 366.5,-784 467.5,-784 467.5,-889"/>
<text text-anchor="start" x="372" y="-876.5" font-family="Helvetica,sans-Serif" font-size="10.00">L4virtio::Virtqueue</text>
<text text-anchor="start" x="385.5" y="-865.5" font-family="Helvetica,sans-Serif" font-size="10.00">::Used::Flags</text>
<text text-anchor="start" x="371" y="-850.5" font-family="Helvetica,sans-Serif" font-size="10.00">+</text>
<text text-anchor="start" x="384" y="-850.5" font-family="Helvetica,sans-Serif" font-size="10.00">raw</text>
<text text-anchor="start" x="371" y="-835.5" font-family="Helvetica,sans-Serif" font-size="10.00">+</text>
<text text-anchor="start" x="384" y="-835.5" font-family="Helvetica,sans-Serif" font-size="10.00">Flags()</text>
<text text-anchor="start" x="372.5" y="-820.5" font-family="Helvetica,sans-Serif" font-size="10.00">*</text>
<text text-anchor="start" x="384" y="-820.5" font-family="Helvetica,sans-Serif" font-size="10.00">no_notify_bfm_t</text>
<text text-anchor="start" x="372.5" y="-805.5" font-family="Helvetica,sans-Serif" font-size="10.00">*</text>
<text text-anchor="start" x="384" y="-805.5" font-family="Helvetica,sans-Serif" font-size="10.00">no_notify()</text>
<text text-anchor="start" x="372.5" y="-790.5" font-family="Helvetica,sans-Serif" font-size="10.00">*</text>
<text text-anchor="start" x="384" y="-790.5" font-family="Helvetica,sans-Serif" font-size="10.00">no_notify()</text>
<polygon fill="#666666" stroke="#666666" points="367,-860.5 367,-860.5 468,-860.5 468,-860.5 367,-860.5"/>
<polygon fill="#666666" stroke="#666666" points="367,-845.5 367,-845.5 382,-845.5 382,-845.5 367,-845.5"/>
<polygon fill="#666666" stroke="#666666" points="382,-845.5 382,-845.5 468,-845.5 468,-845.5 382,-845.5"/>
<polygon fill="none" stroke="#666666" points="366.5,-784 366.5,-889 467.5,-889 467.5,-784 366.5,-784"/>
</a>
</g>
</g>
<!-- Node10&#45;&gt;Node9 -->
<g id="edge9_Node000009_Node000010" class="edge">
<title>Node10&#45;&gt;Node9</title>
<g id="a_edge9_Node000009_Node000010"><a xlink:title=" ">
<path fill="none" stroke="#63b8ff" d="M417,-783.92C417,-756.24 417,-722.6 417,-696.69"/>
<polygon fill="none" stroke="#63b8ff" points="417,-696.66 413,-690.66 417,-684.66 421,-690.66 417,-696.66"/>
</a>
</g>
<text text-anchor="middle" x="434.5" y="-713" font-family="Helvetica,sans-Serif" font-size="10.00" fill="grey"> +flags</text>
</g>
<!-- Node11 -->
<g id="Node000011" class="node">
<title>Node11</title>
<g id="a_Node000011"><a xlink:href="structL4virtio_1_1Virtqueue_1_1Used__elem.html" target="_top" xlink:title="Type of an element of the used ring.">
<polygon fill="white" stroke="transparent" points="586.5,-874 485.5,-874 485.5,-799 586.5,-799 586.5,-874"/>
<text text-anchor="start" x="491" y="-861.5" font-family="Helvetica,sans-Serif" font-size="10.00">L4virtio::Virtqueue</text>
<text text-anchor="start" x="506" y="-850.5" font-family="Helvetica,sans-Serif" font-size="10.00">::Used_elem</text>
<text text-anchor="start" x="494" y="-835.5" font-family="Helvetica,sans-Serif" font-size="10.00">+</text>
<text text-anchor="start" x="511" y="-835.5" font-family="Helvetica,sans-Serif" font-size="10.00">id</text>
<text text-anchor="start" x="494" y="-820.5" font-family="Helvetica,sans-Serif" font-size="10.00">+</text>
<text text-anchor="start" x="511" y="-820.5" font-family="Helvetica,sans-Serif" font-size="10.00">len</text>
<text text-anchor="start" x="494" y="-805.5" font-family="Helvetica,sans-Serif" font-size="10.00">+</text>
<text text-anchor="start" x="511" y="-805.5" font-family="Helvetica,sans-Serif" font-size="10.00">Used_elem()</text>
<polygon fill="#666666" stroke="#666666" points="486,-845.5 486,-845.5 587,-845.5 587,-845.5 486,-845.5"/>
<polygon fill="#666666" stroke="#666666" points="486,-815.5 486,-815.5 509,-815.5 509,-815.5 486,-815.5"/>
<polygon fill="#666666" stroke="#666666" points="509,-815.5 509,-815.5 587,-815.5 587,-815.5 509,-815.5"/>
<polygon fill="none" stroke="#666666" points="485.5,-799 485.5,-874 586.5,-874 586.5,-799 485.5,-799"/>
</a>
</g>
</g>
<!-- Node11&#45;&gt;Node9 -->
<g id="edge10_Node000009_Node000011" class="edge">
<title>Node11&#45;&gt;Node9</title>
<g id="a_edge10_Node000009_Node000011"><a xlink:title=" ">
<path fill="none" stroke="#63b8ff" d="M513.61,-798.58C502.5,-780.5 488.76,-758.47 476,-739 467.42,-725.9 465,-722.81 456,-710 452.45,-704.95 448.7,-699.66 444.99,-694.44"/>
<polygon fill="none" stroke="#63b8ff" points="444.91,-694.33 438.17,-691.77 437.94,-684.57 444.68,-687.13 444.91,-694.33"/>
</a>
</g>
<text text-anchor="middle" x="479.5" y="-713" font-family="Helvetica,sans-Serif" font-size="10.00" fill="grey"> +ring</text>
</g>
</g>
</svg>
