<?xml version="1.0" encoding="UTF-8" standalone="no"?>
<!DOCTYPE svg PUBLIC "-//W3C//DTD SVG 1.1//EN"
 "http://www.w3.org/Graphics/SVG/1.1/DTD/svg11.dtd">
<!-- Generated by graphviz version 2.43.0 (0)
 -->
<!-- Title: L4Re::Vfs::Regular_file Pages: 1 -->
<svg width="128pt" height="177pt"
 viewBox="0.00 0.00 128.00 177.00" xmlns="http://www.w3.org/2000/svg" xmlns:xlink="http://www.w3.org/1999/xlink">
<g id="graph0" class="graph" transform="scale(1 1) rotate(0) translate(4 173)">
<title>L4Re::Vfs::Regular_file</title>
<!-- Node1 -->
<g id="Node000001" class="node">
<title>Node1</title>
<g id="a_Node000001"><a xlink:title="Interface for a POSIX file that provides regular file semantics.">
<polygon fill="#999999" stroke="transparent" points="120,-169 0,-169 0,0 120,0 120,-169"/>
<text text-anchor="start" x="5" y="-156.5" font-family="Helvetica,sans-Serif" font-size="10.00">L4Re::Vfs::Regular_file</text>
<text text-anchor="start" x="58" y="-141.5" font-family="Helvetica,sans-Serif" font-size="10.00"> </text>
<text text-anchor="start" x="12.5" y="-126.5" font-family="Helvetica,sans-Serif" font-size="10.00">+</text>
<text text-anchor="start" x="34" y="-126.5" font-family="Helvetica,sans-Serif" font-size="10.00">data_space()</text>
<text text-anchor="start" x="12.5" y="-111.5" font-family="Helvetica,sans-Serif" font-size="10.00">+</text>
<text text-anchor="start" x="34" y="-111.5" font-family="Helvetica,sans-Serif" font-size="10.00">readv()</text>
<text text-anchor="start" x="12.5" y="-96.5" font-family="Helvetica,sans-Serif" font-size="10.00">+</text>
<text text-anchor="start" x="34" y="-96.5" font-family="Helvetica,sans-Serif" font-size="10.00">writev()</text>
<text text-anchor="start" x="12.5" y="-81.5" font-family="Helvetica,sans-Serif" font-size="10.00">+</text>
<text text-anchor="start" x="34" y="-81.5" font-family="Helvetica,sans-Serif" font-size="10.00">lseek64()</text>
<text text-anchor="start" x="12.5" y="-66.5" font-family="Helvetica,sans-Serif" font-size="10.00">+</text>
<text text-anchor="start" x="34" y="-66.5" font-family="Helvetica,sans-Serif" font-size="10.00">ftruncate64()</text>
<text text-anchor="start" x="12.5" y="-51.5" font-family="Helvetica,sans-Serif" font-size="10.00">+</text>
<text text-anchor="start" x="34" y="-51.5" font-family="Helvetica,sans-Serif" font-size="10.00">fsync()</text>
<text text-anchor="start" x="12.5" y="-36.5" font-family="Helvetica,sans-Serif" font-size="10.00">+</text>
<text text-anchor="start" x="34" y="-36.5" font-family="Helvetica,sans-Serif" font-size="10.00">fdatasync()</text>
<text text-anchor="start" x="12.5" y="-21.5" font-family="Helvetica,sans-Serif" font-size="10.00">+</text>
<text text-anchor="start" x="34" y="-21.5" font-family="Helvetica,sans-Serif" font-size="10.00">get_lock()</text>
<text text-anchor="start" x="12.5" y="-6.5" font-family="Helvetica,sans-Serif" font-size="10.00">+</text>
<text text-anchor="start" x="34" y="-6.5" font-family="Helvetica,sans-Serif" font-size="10.00">set_lock()</text>
<polygon fill="#666666" stroke="#666666" points="0,-151.5 0,-151.5 120,-151.5 120,-151.5 0,-151.5"/>
<polygon fill="#666666" stroke="#666666" points="0,-136.5 0,-136.5 120,-136.5 120,-136.5 0,-136.5"/>
<polygon fill="none" stroke="#666666" points="0,0 0,-169 120,-169 120,0 0,0"/>
</a>
</g>
</g>
</g>
</svg>
