<?xml version="1.0" encoding="UTF-8" standalone="no"?>
<!DOCTYPE svg PUBLIC "-//W3C//DTD SVG 1.1//EN"
 "http://www.w3.org/Graphics/SVG/1.1/DTD/svg11.dtd">
<!-- Generated by graphviz version 2.43.0 (0)
 -->
<!-- Title: L4::Ipc::Istream::get Pages: 1 -->
<svg width="231pt" height="175pt"
 viewBox="0.00 0.00 231.00 175.00" xmlns="http://www.w3.org/2000/svg" xmlns:xlink="http://www.w3.org/1999/xlink">
<g id="graph0" class="graph" transform="scale(1 1) rotate(0) translate(4 171)">
<title>L4::Ipc::Istream::get</title>
<!-- Node1 -->
<g id="Node000001" class="node">
<title>Node1</title>
<g id="a_Node000001"><a xlink:title="Copy out an array of type T with size elements.">
<polygon fill="#999999" stroke="#666666" points="223,-93 110,-93 110,-74 223,-74 223,-93"/>
<text text-anchor="middle" x="166.5" y="-81" font-family="Helvetica,sans-Serif" font-size="10.00">L4::Ipc::Istream::get</text>
</a>
</g>
</g>
<!-- Node2 -->
<g id="Node000002" class="node">
<title>Node2</title>
<g id="a_Node000002"><a xlink:href="ipc__stream.html#ace3d2ecfa7716243dbecdcfc52d733d0" target="_top" xlink:title="Extract one element of type T from the stream s.">
<polygon fill="white" stroke="#666666" points="74,-167 0,-167 0,-148 74,-148 74,-167"/>
<text text-anchor="middle" x="37" y="-155" font-family="Helvetica,sans-Serif" font-size="10.00">operator&gt;&gt;</text>
</a>
</g>
</g>
<!-- Node1&#45;&gt;Node2 -->
<g id="edge1_Node000001_Node000002" class="edge">
<title>Node1&#45;&gt;Node2</title>
<g id="a_edge1_Node000001_Node000002"><a xlink:title=" ">
<path fill="none" stroke="#63b8ff" d="M142.29,-98.46C123.99,-110.08 97.69,-126.36 74,-139.5 68.87,-142.35 63.23,-145.26 57.96,-147.9"/>
<polygon fill="#63b8ff" stroke="#63b8ff" points="144.29,-101.34 150.83,-93.01 140.52,-95.44 144.29,-101.34"/>
</a>
</g>
</g>
<!-- Node3 -->
<g id="Node000003" class="node">
<title>Node3</title>
<g id="a_Node000003"><a xlink:href="ipc__stream.html#a53ae87ffdd0c79ecf6b74210419475db" target="_top" xlink:title="Extract an array of T elements from the stream s.">
<polygon fill="white" stroke="#666666" points="74,-130 0,-130 0,-111 74,-111 74,-130"/>
<text text-anchor="middle" x="37" y="-118" font-family="Helvetica,sans-Serif" font-size="10.00">operator&gt;&gt;</text>
</a>
</g>
</g>
<!-- Node1&#45;&gt;Node3 -->
<g id="edge2_Node000001_Node000003" class="edge">
<title>Node1&#45;&gt;Node3</title>
<g id="a_edge2_Node000001_Node000003"><a xlink:title=" ">
<path fill="none" stroke="#63b8ff" d="M123.02,-95.83C106.14,-100.73 87,-106.28 71.17,-110.88"/>
<polygon fill="#63b8ff" stroke="#63b8ff" points="124.04,-99.18 132.67,-93.03 122.09,-92.45 124.04,-99.18"/>
</a>
</g>
</g>
<!-- Node4 -->
<g id="Node000004" class="node">
<title>Node4</title>
<g id="a_Node000004"><a xlink:href="ipc__stream.html#a3bcad61fc6dfcc57bc6fe4afafabe831" target="_top" xlink:title="Extract an array of T elements from the stream s.">
<polygon fill="white" stroke="#666666" points="74,-93 0,-93 0,-74 74,-74 74,-93"/>
<text text-anchor="middle" x="37" y="-81" font-family="Helvetica,sans-Serif" font-size="10.00">operator&gt;&gt;</text>
</a>
</g>
</g>
<!-- Node1&#45;&gt;Node4 -->
<g id="edge3_Node000001_Node000004" class="edge">
<title>Node1&#45;&gt;Node4</title>
<g id="a_edge3_Node000001_Node000004"><a xlink:title=" ">
<path fill="none" stroke="#63b8ff" d="M99.7,-83.5C90.96,-83.5 82.27,-83.5 74.29,-83.5"/>
<polygon fill="#63b8ff" stroke="#63b8ff" points="99.95,-87 109.95,-83.5 99.95,-80 99.95,-87"/>
</a>
</g>
</g>
<!-- Node5 -->
<g id="Node000005" class="node">
<title>Node5</title>
<g id="a_Node000005"><a xlink:href="ipc__stream.html#acae581e2444ca424076b52497666535b" target="_top" xlink:title="Extract an element of type T from the stream s.">
<polygon fill="white" stroke="#666666" points="74,-56 0,-56 0,-37 74,-37 74,-56"/>
<text text-anchor="middle" x="37" y="-44" font-family="Helvetica,sans-Serif" font-size="10.00">operator&gt;&gt;</text>
</a>
</g>
</g>
<!-- Node1&#45;&gt;Node5 -->
<g id="edge4_Node000001_Node000005" class="edge">
<title>Node1&#45;&gt;Node5</title>
<g id="a_edge4_Node000001_Node000005"><a xlink:title=" ">
<path fill="none" stroke="#63b8ff" d="M123.02,-71.17C106.14,-66.27 87,-60.72 71.17,-56.12"/>
<polygon fill="#63b8ff" stroke="#63b8ff" points="122.09,-74.55 132.67,-73.97 124.04,-67.82 122.09,-74.55"/>
</a>
</g>
</g>
<!-- Node6 -->
<g id="Node000006" class="node">
<title>Node6</title>
<g id="a_Node000006"><a xlink:href="ipc__stream.html#a912d9d789e4d6c608d97d9def1302033" target="_top" xlink:title="Extract a zero&#45;terminated string from the stream.">
<polygon fill="white" stroke="#666666" points="74,-19 0,-19 0,0 74,0 74,-19"/>
<text text-anchor="middle" x="37" y="-7" font-family="Helvetica,sans-Serif" font-size="10.00">operator&gt;&gt;</text>
</a>
</g>
</g>
<!-- Node1&#45;&gt;Node6 -->
<g id="edge5_Node000001_Node000006" class="edge">
<title>Node1&#45;&gt;Node6</title>
<g id="a_edge5_Node000001_Node000006"><a xlink:title=" ">
<path fill="none" stroke="#63b8ff" d="M141.53,-68.59C123.19,-57.31 97.2,-41.58 74,-28.5 68.46,-25.38 62.37,-22.1 56.79,-19.17"/>
<polygon fill="#63b8ff" stroke="#63b8ff" points="139.76,-71.62 150.11,-73.89 143.44,-65.66 139.76,-71.62"/>
</a>
</g>
</g>
</g>
</svg>
