<?xml version="1.0" encoding="UTF-8" standalone="no"?>
<!DOCTYPE svg PUBLIC "-//W3C//DTD SVG 1.1//EN"
 "http://www.w3.org/Graphics/SVG/1.1/DTD/svg11.dtd">
<!-- Generated by graphviz version 2.42.4 (0)
 -->
<!-- Title: L4virtio::Virtqueue::Avail Pages: 1 -->
<svg width="109pt" height="235pt"
 viewBox="0.00 0.00 109.00 235.00" xmlns="http://www.w3.org/2000/svg" xmlns:xlink="http://www.w3.org/1999/xlink">
<g id="graph0" class="graph" transform="scale(1 1) rotate(0) translate(4 231)">
<title>L4virtio::Virtqueue::Avail</title>
<!-- Node1 -->
<g id="Node000001" class="node">
<title>Node1</title>
<g id="a_Node000001"><a xlink:title="Type of available ring, this is read&#45;only for the host.">
<polygon fill="#999999" stroke="transparent" points="101,-75 0,-75 0,0 101,0 101,-75"/>
<text text-anchor="start" x="5.5" y="-62.5" font-family="Helvetica,sans-Serif" font-size="10.00">L4virtio::Virtqueue</text>
<text text-anchor="start" x="35.5" y="-51.5" font-family="Helvetica,sans-Serif" font-size="10.00">::Avail</text>
<text text-anchor="start" x="19.5" y="-36.5" font-family="Helvetica,sans-Serif" font-size="10.00">+</text>
<text text-anchor="start" x="47.5" y="-36.5" font-family="Helvetica,sans-Serif" font-size="10.00">idx</text>
<text text-anchor="start" x="19.5" y="-21.5" font-family="Helvetica,sans-Serif" font-size="10.00">+</text>
<text text-anchor="start" x="47.5" y="-21.5" font-family="Helvetica,sans-Serif" font-size="10.00">ring</text>
<text text-anchor="start" x="49" y="-6.5" font-family="Helvetica,sans-Serif" font-size="10.00"> </text>
<polygon fill="#666666" stroke="#666666" points="0.5,-46.5 0.5,-46.5 101.5,-46.5 101.5,-46.5 0.5,-46.5"/>
<polygon fill="#666666" stroke="#666666" points="0.5,-16.5 0.5,-16.5 45.5,-16.5 45.5,-16.5 0.5,-16.5"/>
<polygon fill="#666666" stroke="#666666" points="45.5,-16.5 45.5,-16.5 101.5,-16.5 101.5,-16.5 45.5,-16.5"/>
<polygon fill="none" stroke="#666666" points="0,0 0,-75 101,-75 101,0 0,0"/>
</a>
</g>
</g>
<!-- Node2 -->
<g id="Node000002" class="node">
<title>Node2</title>
<g id="a_Node000002"><a xlink:href="structL4virtio_1_1Virtqueue_1_1Avail_1_1Flags.html" target="_top" xlink:title="Flags of the available ring.">
<polygon fill="white" stroke="transparent" points="101,-227 0,-227 0,-122 101,-122 101,-227"/>
<text text-anchor="start" x="5.5" y="-214.5" font-family="Helvetica,sans-Serif" font-size="10.00">L4virtio::Virtqueue</text>
<text text-anchor="start" x="19.5" y="-203.5" font-family="Helvetica,sans-Serif" font-size="10.00">::Avail::Flags</text>
<text text-anchor="start" x="8.5" y="-188.5" font-family="Helvetica,sans-Serif" font-size="10.00">+</text>
<text text-anchor="start" x="25.5" y="-188.5" font-family="Helvetica,sans-Serif" font-size="10.00">raw</text>
<text text-anchor="start" x="8.5" y="-173.5" font-family="Helvetica,sans-Serif" font-size="10.00">+</text>
<text text-anchor="start" x="25.5" y="-173.5" font-family="Helvetica,sans-Serif" font-size="10.00">Flags()</text>
<text text-anchor="start" x="10" y="-158.5" font-family="Helvetica,sans-Serif" font-size="10.00">*</text>
<text text-anchor="start" x="25.5" y="-158.5" font-family="Helvetica,sans-Serif" font-size="10.00">no_irq_bfm_t</text>
<text text-anchor="start" x="10" y="-143.5" font-family="Helvetica,sans-Serif" font-size="10.00">*</text>
<text text-anchor="start" x="25.5" y="-143.5" font-family="Helvetica,sans-Serif" font-size="10.00">no_irq()</text>
<text text-anchor="start" x="10" y="-128.5" font-family="Helvetica,sans-Serif" font-size="10.00">*</text>
<text text-anchor="start" x="25.5" y="-128.5" font-family="Helvetica,sans-Serif" font-size="10.00">no_irq()</text>
<polygon fill="#666666" stroke="#666666" points="0.5,-198.5 0.5,-198.5 101.5,-198.5 101.5,-198.5 0.5,-198.5"/>
<polygon fill="#666666" stroke="#666666" points="0.5,-183.5 0.5,-183.5 23.5,-183.5 23.5,-183.5 0.5,-183.5"/>
<polygon fill="#666666" stroke="#666666" points="23.5,-183.5 23.5,-183.5 101.5,-183.5 101.5,-183.5 23.5,-183.5"/>
<polygon fill="none" stroke="#666666" points="0,-122 0,-227 101,-227 101,-122 0,-122"/>
</a>
</g>
</g>
<!-- Node2&#45;&gt;Node1 -->
<g id="edge1_Node000001_Node000002" class="edge">
<title>Node2&#45;&gt;Node1</title>
<g id="a_edge1_Node000001_Node000002"><a xlink:title=" ">
<path fill="none" stroke="#63b8ff" d="M50.5,-121.69C50.5,-110.45 50.5,-98.6 50.5,-87.48"/>
<polygon fill="none" stroke="#63b8ff" points="50.5,-87.3 46.5,-81.3 50.5,-75.3 54.5,-81.3 50.5,-87.3"/>
</a>
</g>
<text text-anchor="middle" x="68" y="-96" font-family="Helvetica,sans-Serif" font-size="10.00" fill="grey"> +flags</text>
</g>
</g>
</svg>
