<?xml version="1.0" encoding="UTF-8" standalone="no"?>
<!DOCTYPE svg PUBLIC "-//W3C//DTD SVG 1.1//EN"
 "http://www.w3.org/Graphics/SVG/1.1/DTD/svg11.dtd">
<!-- Generated by graphviz version 2.43.0 (0)
 -->
<!-- Title: L4vbus::Device::bus_cap Pages: 1 -->
<svg width="323pt" height="268pt"
 viewBox="0.00 0.00 323.00 268.00" xmlns="http://www.w3.org/2000/svg" xmlns:xlink="http://www.w3.org/1999/xlink">
<g id="graph0" class="graph" transform="scale(1 1) rotate(0) translate(4 264)">
<title>L4vbus::Device::bus_cap</title>
<!-- Node1 -->
<g id="Node000001" class="node">
<title>Node1</title>
<g id="a_Node000001"><a xlink:title="Access the Vbus capability of the underlying virtual bus.">
<polygon fill="#999999" stroke="#666666" points="315,-144.5 178,-144.5 178,-125.5 315,-125.5 315,-144.5"/>
<text text-anchor="middle" x="246.5" y="-132.5" font-family="Helvetica,sans-Serif" font-size="10.00">L4vbus::Device::bus_cap</text>
</a>
</g>
</g>
<!-- Node2 -->
<g id="Node000002" class="node">
<title>Node2</title>
<g id="a_Node000002"><a xlink:href="classL4vbus_1_1Pci__host__bridge.html#a4441432f00e007ee3a738866238938f0" target="_top" xlink:title="Read from the vPCI configuration space using the PCI root bridge.">
<polygon fill="white" stroke="#666666" points="138,-260 4,-260 4,-230 138,-230 138,-260"/>
<text text-anchor="start" x="12" y="-248" font-family="Helvetica,sans-Serif" font-size="10.00">L4vbus::Pci_host_bridge</text>
<text text-anchor="middle" x="71" y="-237" font-family="Helvetica,sans-Serif" font-size="10.00">::cfg_read</text>
</a>
</g>
</g>
<!-- Node1&#45;&gt;Node2 -->
<g id="edge1_Node000001_Node000002" class="edge">
<title>Node1&#45;&gt;Node2</title>
<g id="a_edge1_Node000001_Node000002"><a xlink:title=" ">
<path fill="none" stroke="#63b8ff" d="M229.3,-151.73C210.05,-170.8 176.19,-201.79 142,-221 136.06,-224.33 129.58,-227.32 123.04,-229.95"/>
<polygon fill="#63b8ff" stroke="#63b8ff" points="231.83,-154.15 236.4,-144.59 226.86,-149.22 231.83,-154.15"/>
</a>
</g>
</g>
<!-- Node3 -->
<g id="Node000003" class="node">
<title>Node3</title>
<g id="a_Node000003"><a xlink:href="classL4vbus_1_1Pci__dev.html#a20658b5eb70c4773b369a0a3c8c88582" target="_top" xlink:title="Read from the device&#39;s vPCI configuration space.">
<polygon fill="white" stroke="#666666" points="142,-211.5 0,-211.5 0,-192.5 142,-192.5 142,-211.5"/>
<text text-anchor="middle" x="71" y="-199.5" font-family="Helvetica,sans-Serif" font-size="10.00">L4vbus::Pci_dev::cfg_read</text>
</a>
</g>
</g>
<!-- Node1&#45;&gt;Node3 -->
<g id="edge2_Node000001_Node000003" class="edge">
<title>Node1&#45;&gt;Node3</title>
<g id="a_edge2_Node000001_Node000003"><a xlink:title=" ">
<path fill="none" stroke="#63b8ff" d="M218.12,-149.25C197.56,-159.57 168.51,-173.34 142,-183 132.42,-186.49 121.89,-189.68 111.98,-192.4"/>
<polygon fill="#63b8ff" stroke="#63b8ff" points="219.87,-152.29 227.2,-144.64 216.7,-146.04 219.87,-152.29"/>
</a>
</g>
</g>
<!-- Node4 -->
<g id="Node000004" class="node">
<title>Node4</title>
<g id="a_Node000004"><a xlink:href="classL4vbus_1_1Pci__host__bridge.html#ad316f6aeb09ecd36bc7aafa988dd272e" target="_top" xlink:title="Write to the vPCI configuration space using the PCI root bridge.">
<polygon fill="white" stroke="#666666" points="138,-174 4,-174 4,-144 138,-144 138,-174"/>
<text text-anchor="start" x="12" y="-162" font-family="Helvetica,sans-Serif" font-size="10.00">L4vbus::Pci_host_bridge</text>
<text text-anchor="middle" x="71" y="-151" font-family="Helvetica,sans-Serif" font-size="10.00">::cfg_write</text>
</a>
</g>
</g>
<!-- Node1&#45;&gt;Node4 -->
<g id="edge3_Node000001_Node000004" class="edge">
<title>Node1&#45;&gt;Node4</title>
<g id="a_edge3_Node000001_Node000004"><a xlink:title=" ">
<path fill="none" stroke="#63b8ff" d="M167.74,-145.76C157.9,-147.12 147.9,-148.5 138.25,-149.84"/>
<polygon fill="#63b8ff" stroke="#63b8ff" points="168.5,-149.19 177.92,-144.35 167.54,-142.25 168.5,-149.19"/>
</a>
</g>
</g>
<!-- Node5 -->
<g id="Node000005" class="node">
<title>Node5</title>
<g id="a_Node000005"><a xlink:href="classL4vbus_1_1Pci__dev.html#a1cc8e109638d49502d08484d05c7b244" target="_top" xlink:title="Write to the device&#39;s vPCI configuration space.">
<polygon fill="white" stroke="#666666" points="128.5,-126 13.5,-126 13.5,-96 128.5,-96 128.5,-126"/>
<text text-anchor="start" x="21.5" y="-114" font-family="Helvetica,sans-Serif" font-size="10.00">L4vbus::Pci_dev::cfg</text>
<text text-anchor="middle" x="71" y="-103" font-family="Helvetica,sans-Serif" font-size="10.00">_write</text>
</a>
</g>
</g>
<!-- Node1&#45;&gt;Node5 -->
<g id="edge4_Node000001_Node000005" class="edge">
<title>Node1&#45;&gt;Node5</title>
<g id="a_edge4_Node000001_Node000005"><a xlink:title=" ">
<path fill="none" stroke="#63b8ff" d="M167.91,-124.27C154.72,-122.44 141.24,-120.58 128.72,-118.85"/>
<polygon fill="#63b8ff" stroke="#63b8ff" points="167.54,-127.75 177.92,-125.65 168.5,-120.81 167.54,-127.75"/>
</a>
</g>
</g>
<!-- Node6 -->
<g id="Node000006" class="node">
<title>Node6</title>
<g id="a_Node000006"><a xlink:href="classL4vbus_1_1Pci__host__bridge.html#a4f405f52b078609d885e5331922447f1" target="_top" xlink:title="Enable PCI interrupt for a specific device using the PCI root bridge.">
<polygon fill="white" stroke="#666666" points="138,-78 4,-78 4,-48 138,-48 138,-78"/>
<text text-anchor="start" x="12" y="-66" font-family="Helvetica,sans-Serif" font-size="10.00">L4vbus::Pci_host_bridge</text>
<text text-anchor="middle" x="71" y="-55" font-family="Helvetica,sans-Serif" font-size="10.00">::irq_enable</text>
</a>
</g>
</g>
<!-- Node1&#45;&gt;Node6 -->
<g id="edge5_Node000001_Node000006" class="edge">
<title>Node1&#45;&gt;Node6</title>
<g id="a_edge5_Node000001_Node000006"><a xlink:title=" ">
<path fill="none" stroke="#63b8ff" d="M217.17,-120.89C196.56,-110.87 167.86,-97.4 142,-87 134.37,-83.93 126.18,-80.9 118.19,-78.07"/>
<polygon fill="#63b8ff" stroke="#63b8ff" points="215.79,-124.11 226.31,-125.37 218.87,-117.82 215.79,-124.11"/>
</a>
</g>
</g>
<!-- Node7 -->
<g id="Node000007" class="node">
<title>Node7</title>
<g id="a_Node000007"><a xlink:href="classL4vbus_1_1Pci__dev.html#ace3784b8e44e44dc14c1cee121500b89" target="_top" xlink:title="Enable the device&#39;s PCI interrupt.">
<polygon fill="white" stroke="#666666" points="127.5,-30 14.5,-30 14.5,0 127.5,0 127.5,-30"/>
<text text-anchor="start" x="22.5" y="-18" font-family="Helvetica,sans-Serif" font-size="10.00">L4vbus::Pci_dev::irq</text>
<text text-anchor="middle" x="71" y="-7" font-family="Helvetica,sans-Serif" font-size="10.00">_enable</text>
</a>
</g>
</g>
<!-- Node1&#45;&gt;Node7 -->
<g id="edge6_Node000001_Node000007" class="edge">
<title>Node1&#45;&gt;Node7</title>
<g id="a_edge6_Node000001_Node000007"><a xlink:title=" ">
<path fill="none" stroke="#63b8ff" d="M231.12,-117.82C212.52,-96.6 178.21,-60.66 142,-39 136.38,-35.64 130.22,-32.66 123.96,-30.05"/>
<polygon fill="#63b8ff" stroke="#63b8ff" points="228.48,-120.13 237.66,-125.42 233.79,-115.56 228.48,-120.13"/>
</a>
</g>
</g>
</g>
</svg>
