<?xml version="1.0" encoding="UTF-8" standalone="no"?>
<!DOCTYPE svg PUBLIC "-//W3C//DTD SVG 1.1//EN"
 "http://www.w3.org/Graphics/SVG/1.1/DTD/svg11.dtd">
<!-- Generated by graphviz version 2.43.0 (0)
 -->
<!-- Title: L4Re::Util::Counting_cap_alloc::free Pages: 1 -->
<svg width="336pt" height="64pt"
 viewBox="0.00 0.00 336.00 64.00" xmlns="http://www.w3.org/2000/svg" xmlns:xlink="http://www.w3.org/1999/xlink">
<g id="graph0" class="graph" transform="scale(1 1) rotate(0) translate(4 60)">
<title>L4Re::Util::Counting_cap_alloc::free</title>
<!-- Node1 -->
<g id="Node000001" class="node">
<title>Node1</title>
<g id="a_Node000001"><a xlink:title="Free the capability.">
<polygon fill="#999999" stroke="#666666" points="113,-42.5 0,-42.5 0,-12.5 113,-12.5 113,-42.5"/>
<text text-anchor="start" x="8" y="-30.5" font-family="Helvetica,sans-Serif" font-size="10.00">L4Re::Util::Counting</text>
<text text-anchor="middle" x="56.5" y="-19.5" font-family="Helvetica,sans-Serif" font-size="10.00">_cap_alloc::free</text>
</a>
</g>
</g>
<!-- Node2 -->
<g id="Node000002" class="node">
<title>Node2</title>
<g id="a_Node000002"><a xlink:href="group__l4__cap__api.html#ga539da15c2a1be4803ed7a3f3a5742194" target="_top" xlink:title="Test if a capability selector is a valid selector.">
<polygon fill="white" stroke="#666666" points="240,-56 149,-56 149,-37 240,-37 240,-56"/>
<text text-anchor="middle" x="194.5" y="-44" font-family="Helvetica,sans-Serif" font-size="10.00">l4_is_valid_cap</text>
</a>
</g>
</g>
<!-- Node1&#45;&gt;Node2 -->
<g id="edge1_Node000001_Node000002" class="edge">
<title>Node1&#45;&gt;Node2</title>
<g id="a_edge1_Node000001_Node000002"><a xlink:title=" ">
<path fill="none" stroke="#63b8ff" d="M113.21,-35.28C121.66,-36.46 130.37,-37.68 138.79,-38.86"/>
<polygon fill="#63b8ff" stroke="#63b8ff" points="138.51,-42.35 148.9,-40.27 139.48,-35.42 138.51,-42.35"/>
</a>
</g>
</g>
<!-- Node3 -->
<g id="Node000003" class="node">
<title>Node3</title>
<g id="a_Node000003"><a xlink:href="group__l4__task__api.html#gaa5558855716b35c1790b61249cf2974b" target="_top" xlink:title="Revoke rights from the task.">
<polygon fill="white" stroke="#666666" points="240,-19 149,-19 149,0 240,0 240,-19"/>
<text text-anchor="middle" x="194.5" y="-7" font-family="Helvetica,sans-Serif" font-size="10.00">l4_task_unmap</text>
</a>
</g>
</g>
<!-- Node1&#45;&gt;Node3 -->
<g id="edge2_Node000001_Node000003" class="edge">
<title>Node1&#45;&gt;Node3</title>
<g id="a_edge2_Node000001_Node000003"><a xlink:title=" ">
<path fill="none" stroke="#63b8ff" d="M113.21,-20.13C121.66,-19.01 130.37,-17.86 138.79,-16.74"/>
<polygon fill="#63b8ff" stroke="#63b8ff" points="139.44,-20.19 148.9,-15.4 138.52,-13.25 139.44,-20.19"/>
</a>
</g>
</g>
<!-- Node4 -->
<g id="Node000004" class="node">
<title>Node4</title>
<g id="a_Node000004"><a xlink:href="group__l4__utcb__api.html#gadc099b4a59e1d99638c72c11a8c8b644" target="_top" xlink:title="Get the UTCB address.">
<polygon fill="white" stroke="#666666" points="328,-19 276,-19 276,0 328,0 328,-19"/>
<text text-anchor="middle" x="302" y="-7" font-family="Helvetica,sans-Serif" font-size="10.00">l4_utcb</text>
</a>
</g>
</g>
<!-- Node3&#45;&gt;Node4 -->
<g id="edge3_Node000003_Node000004" class="edge">
<title>Node3&#45;&gt;Node4</title>
<g id="a_edge3_Node000003_Node000004"><a xlink:title=" ">
<path fill="none" stroke="#63b8ff" d="M240.24,-9.5C248.68,-9.5 257.39,-9.5 265.49,-9.5"/>
<polygon fill="#63b8ff" stroke="#63b8ff" points="265.72,-13 275.72,-9.5 265.72,-6 265.72,-13"/>
</a>
</g>
</g>
</g>
</svg>
