<?xml version="1.0" encoding="UTF-8" standalone="no"?>
<!DOCTYPE svg PUBLIC "-//W3C//DTD SVG 1.1//EN"
 "http://www.w3.org/Graphics/SVG/1.1/DTD/svg11.dtd">
<!-- Generated by graphviz version 2.42.4 (0)
 -->
<!-- Title: L4Re::Vfs::Be_file Pages: 1 -->
<svg width="528pt" height="497pt"
 viewBox="0.00 0.00 528.00 497.00" xmlns="http://www.w3.org/2000/svg" xmlns:xlink="http://www.w3.org/1999/xlink">
<g id="graph0" class="graph" transform="scale(1 1) rotate(0) translate(4 493)">
<title>L4Re::Vfs::Be_file</title>
<!-- Node1 -->
<g id="Node000001" class="node">
<title>Node1</title>
<g id="a_Node000001"><a xlink:title="Boiler plate class for implementing an open file for L4Re::Vfs.">
<polygon fill="#999999" stroke="transparent" points="318.5,-199 209.5,-199 209.5,0 318.5,0 318.5,-199"/>
<text text-anchor="start" x="222" y="-186.5" font-family="Helvetica,sans-Serif" font-size="10.00">L4Re::Vfs::Be_file</text>
<text text-anchor="start" x="262.5" y="-171.5" font-family="Helvetica,sans-Serif" font-size="10.00"> </text>
<text text-anchor="start" x="214" y="-156.5" font-family="Helvetica,sans-Serif" font-size="10.00">+</text>
<text text-anchor="start" x="227" y="-156.5" font-family="Helvetica,sans-Serif" font-size="10.00">unlock_all_locks()</text>
<text text-anchor="start" x="214" y="-141.5" font-family="Helvetica,sans-Serif" font-size="10.00">+</text>
<text text-anchor="start" x="227" y="-141.5" font-family="Helvetica,sans-Serif" font-size="10.00">data_space()</text>
<text text-anchor="start" x="214" y="-126.5" font-family="Helvetica,sans-Serif" font-size="10.00">+</text>
<text text-anchor="start" x="227" y="-126.5" font-family="Helvetica,sans-Serif" font-size="10.00">readv()</text>
<text text-anchor="start" x="214" y="-111.5" font-family="Helvetica,sans-Serif" font-size="10.00">+</text>
<text text-anchor="start" x="227" y="-111.5" font-family="Helvetica,sans-Serif" font-size="10.00">writev()</text>
<text text-anchor="start" x="214" y="-96.5" font-family="Helvetica,sans-Serif" font-size="10.00">+</text>
<text text-anchor="start" x="227" y="-96.5" font-family="Helvetica,sans-Serif" font-size="10.00">pwritev()</text>
<text text-anchor="start" x="214" y="-81.5" font-family="Helvetica,sans-Serif" font-size="10.00">+</text>
<text text-anchor="start" x="227" y="-81.5" font-family="Helvetica,sans-Serif" font-size="10.00">preadv()</text>
<text text-anchor="start" x="214" y="-66.5" font-family="Helvetica,sans-Serif" font-size="10.00">+</text>
<text text-anchor="start" x="227" y="-66.5" font-family="Helvetica,sans-Serif" font-size="10.00">lseek64()</text>
<text text-anchor="start" x="214" y="-51.5" font-family="Helvetica,sans-Serif" font-size="10.00">+</text>
<text text-anchor="start" x="227" y="-51.5" font-family="Helvetica,sans-Serif" font-size="10.00">ftruncate64()</text>
<text text-anchor="start" x="214" y="-36.5" font-family="Helvetica,sans-Serif" font-size="10.00">+</text>
<text text-anchor="start" x="227" y="-36.5" font-family="Helvetica,sans-Serif" font-size="10.00">fsync()</text>
<text text-anchor="start" x="214" y="-21.5" font-family="Helvetica,sans-Serif" font-size="10.00">+</text>
<text text-anchor="start" x="227" y="-21.5" font-family="Helvetica,sans-Serif" font-size="10.00">fdatasync()</text>
<text text-anchor="start" x="227" y="-6.5" font-family="Helvetica,sans-Serif" font-size="10.00">and 19 more...</text>
<polygon fill="#666666" stroke="#666666" points="210,-181.5 210,-181.5 319,-181.5 319,-181.5 210,-181.5"/>
<polygon fill="#666666" stroke="#666666" points="210,-166.5 210,-166.5 319,-166.5 319,-166.5 210,-166.5"/>
<polygon fill="none" stroke="#666666" points="209.5,0 209.5,-199 318.5,-199 318.5,0 209.5,0"/>
</a>
</g>
</g>
<!-- Node2 -->
<g id="Node000002" class="node">
<title>Node2</title>
<g id="a_Node000002"><a xlink:href="classL4Re_1_1Vfs_1_1File.html" target="_top" xlink:title="The basic interface for an open POSIX file.">
<polygon fill="white" stroke="transparent" points="304,-284 224,-284 224,-235 304,-235 304,-284"/>
<text text-anchor="start" x="229" y="-271.5" font-family="Helvetica,sans-Serif" font-size="10.00">L4Re::Vfs::File</text>
<text text-anchor="start" x="262" y="-256.5" font-family="Helvetica,sans-Serif" font-size="10.00"> </text>
<text text-anchor="start" x="262" y="-241.5" font-family="Helvetica,sans-Serif" font-size="10.00"> </text>
<polygon fill="#666666" stroke="#666666" points="224,-266.5 224,-266.5 304,-266.5 304,-266.5 224,-266.5"/>
<polygon fill="#666666" stroke="#666666" points="224,-251.5 224,-251.5 304,-251.5 304,-251.5 224,-251.5"/>
<polygon fill="none" stroke="#666666" points="224,-235 224,-284 304,-284 304,-235 224,-235"/>
</a>
</g>
</g>
<!-- Node2&#45;&gt;Node1 -->
<g id="edge1_Node000001_Node000002" class="edge">
<title>Node2&#45;&gt;Node1</title>
<g id="a_edge1_Node000001_Node000002"><a xlink:title=" ">
<path fill="none" stroke="#63b8ff" d="M264,-224.75C264,-216.89 264,-208.14 264,-199.02"/>
<polygon fill="none" stroke="#63b8ff" points="260.5,-224.85 264,-234.85 267.5,-224.85 260.5,-224.85"/>
</a>
</g>
</g>
<!-- Node3 -->
<g id="Node000003" class="node">
<title>Node3</title>
<g id="a_Node000003"><a xlink:href="classL4Re_1_1Vfs_1_1Generic__file.html" target="_top" xlink:title="The common interface for an open POSIX file.">
<polygon fill="white" stroke="transparent" points="120,-459 0,-459 0,-350 120,-350 120,-459"/>
<text text-anchor="start" x="5" y="-446.5" font-family="Helvetica,sans-Serif" font-size="10.00">L4Re::Vfs::Generic_file</text>
<text text-anchor="start" x="58" y="-431.5" font-family="Helvetica,sans-Serif" font-size="10.00"> </text>
<text text-anchor="start" x="6.5" y="-416.5" font-family="Helvetica,sans-Serif" font-size="10.00">+</text>
<text text-anchor="start" x="22" y="-416.5" font-family="Helvetica,sans-Serif" font-size="10.00">unlock_all_locks()</text>
<text text-anchor="start" x="6.5" y="-401.5" font-family="Helvetica,sans-Serif" font-size="10.00">+</text>
<text text-anchor="start" x="22" y="-401.5" font-family="Helvetica,sans-Serif" font-size="10.00">fstat64()</text>
<text text-anchor="start" x="6.5" y="-386.5" font-family="Helvetica,sans-Serif" font-size="10.00">+</text>
<text text-anchor="start" x="22" y="-386.5" font-family="Helvetica,sans-Serif" font-size="10.00">fchmod()</text>
<text text-anchor="start" x="6.5" y="-371.5" font-family="Helvetica,sans-Serif" font-size="10.00">+</text>
<text text-anchor="start" x="22" y="-371.5" font-family="Helvetica,sans-Serif" font-size="10.00">get_status_flags()</text>
<text text-anchor="start" x="6.5" y="-356.5" font-family="Helvetica,sans-Serif" font-size="10.00">+</text>
<text text-anchor="start" x="22" y="-356.5" font-family="Helvetica,sans-Serif" font-size="10.00">set_status_flags()</text>
<polygon fill="#666666" stroke="#666666" points="0,-441.5 0,-441.5 120,-441.5 120,-441.5 0,-441.5"/>
<polygon fill="#666666" stroke="#666666" points="0,-426.5 0,-426.5 120,-426.5 120,-426.5 0,-426.5"/>
<polygon fill="none" stroke="#666666" points="0,-350 0,-459 120,-459 120,-350 0,-350"/>
</a>
</g>
</g>
<!-- Node3&#45;&gt;Node2 -->
<g id="edge2_Node000002_Node000003" class="edge">
<title>Node3&#45;&gt;Node2</title>
<g id="a_edge2_Node000002_Node000003"><a xlink:title=" ">
<path fill="none" stroke="#63b8ff" d="M104.9,-342.15C112.39,-334.1 120.5,-326.43 129,-320 157.7,-298.29 195.56,-282.49 223.88,-272.65"/>
<polygon fill="none" stroke="#63b8ff" points="102.27,-339.84 98.21,-349.63 107.49,-344.51 102.27,-339.84"/>
</a>
</g>
</g>
<!-- Node4 -->
<g id="Node000004" class="node">
<title>Node4</title>
<g id="a_Node000004"><a xlink:href="classL4Re_1_1Vfs_1_1Regular__file.html" target="_top" xlink:title="Interface for a POSIX file that provides regular file semantics.">
<polygon fill="white" stroke="transparent" points="258,-489 138,-489 138,-320 258,-320 258,-489"/>
<text text-anchor="start" x="143" y="-476.5" font-family="Helvetica,sans-Serif" font-size="10.00">L4Re::Vfs::Regular_file</text>
<text text-anchor="start" x="196" y="-461.5" font-family="Helvetica,sans-Serif" font-size="10.00"> </text>
<text text-anchor="start" x="150.5" y="-446.5" font-family="Helvetica,sans-Serif" font-size="10.00">+</text>
<text text-anchor="start" x="172" y="-446.5" font-family="Helvetica,sans-Serif" font-size="10.00">data_space()</text>
<text text-anchor="start" x="150.5" y="-431.5" font-family="Helvetica,sans-Serif" font-size="10.00">+</text>
<text text-anchor="start" x="172" y="-431.5" font-family="Helvetica,sans-Serif" font-size="10.00">readv()</text>
<text text-anchor="start" x="150.5" y="-416.5" font-family="Helvetica,sans-Serif" font-size="10.00">+</text>
<text text-anchor="start" x="172" y="-416.5" font-family="Helvetica,sans-Serif" font-size="10.00">writev()</text>
<text text-anchor="start" x="150.5" y="-401.5" font-family="Helvetica,sans-Serif" font-size="10.00">+</text>
<text text-anchor="start" x="172" y="-401.5" font-family="Helvetica,sans-Serif" font-size="10.00">lseek64()</text>
<text text-anchor="start" x="150.5" y="-386.5" font-family="Helvetica,sans-Serif" font-size="10.00">+</text>
<text text-anchor="start" x="172" y="-386.5" font-family="Helvetica,sans-Serif" font-size="10.00">ftruncate64()</text>
<text text-anchor="start" x="150.5" y="-371.5" font-family="Helvetica,sans-Serif" font-size="10.00">+</text>
<text text-anchor="start" x="172" y="-371.5" font-family="Helvetica,sans-Serif" font-size="10.00">fsync()</text>
<text text-anchor="start" x="150.5" y="-356.5" font-family="Helvetica,sans-Serif" font-size="10.00">+</text>
<text text-anchor="start" x="172" y="-356.5" font-family="Helvetica,sans-Serif" font-size="10.00">fdatasync()</text>
<text text-anchor="start" x="150.5" y="-341.5" font-family="Helvetica,sans-Serif" font-size="10.00">+</text>
<text text-anchor="start" x="172" y="-341.5" font-family="Helvetica,sans-Serif" font-size="10.00">get_lock()</text>
<text text-anchor="start" x="150.5" y="-326.5" font-family="Helvetica,sans-Serif" font-size="10.00">+</text>
<text text-anchor="start" x="172" y="-326.5" font-family="Helvetica,sans-Serif" font-size="10.00">set_lock()</text>
<polygon fill="#666666" stroke="#666666" points="138,-471.5 138,-471.5 258,-471.5 258,-471.5 138,-471.5"/>
<polygon fill="#666666" stroke="#666666" points="138,-456.5 138,-456.5 258,-456.5 258,-456.5 138,-456.5"/>
<polygon fill="none" stroke="#666666" points="138,-320 138,-489 258,-489 258,-320 138,-320"/>
</a>
</g>
</g>
<!-- Node4&#45;&gt;Node2 -->
<g id="edge3_Node000002_Node000004" class="edge">
<title>Node4&#45;&gt;Node2</title>
<g id="a_edge3_Node000002_Node000004"><a xlink:title=" ">
<path fill="none" stroke="#63b8ff" d="M240.77,-310.82C245.27,-301.08 249.5,-291.92 253.08,-284.15"/>
<polygon fill="none" stroke="#63b8ff" points="237.6,-309.36 236.58,-319.9 243.95,-312.29 237.6,-309.36"/>
</a>
</g>
</g>
<!-- Node5 -->
<g id="Node000005" class="node">
<title>Node5</title>
<g id="a_Node000005"><a xlink:href="classL4Re_1_1Vfs_1_1Directory.html" target="_top" xlink:title="Interface for a POSIX file that is a directory.">
<polygon fill="white" stroke="transparent" points="383.5,-474 276.5,-474 276.5,-335 383.5,-335 383.5,-474"/>
<text text-anchor="start" x="282" y="-461.5" font-family="Helvetica,sans-Serif" font-size="10.00">L4Re::Vfs::Directory</text>
<text text-anchor="start" x="328.5" y="-446.5" font-family="Helvetica,sans-Serif" font-size="10.00"> </text>
<text text-anchor="start" x="288.5" y="-431.5" font-family="Helvetica,sans-Serif" font-size="10.00">+</text>
<text text-anchor="start" x="309" y="-431.5" font-family="Helvetica,sans-Serif" font-size="10.00">faccessat()</text>
<text text-anchor="start" x="288.5" y="-416.5" font-family="Helvetica,sans-Serif" font-size="10.00">+</text>
<text text-anchor="start" x="309" y="-416.5" font-family="Helvetica,sans-Serif" font-size="10.00">mkdir()</text>
<text text-anchor="start" x="288.5" y="-401.5" font-family="Helvetica,sans-Serif" font-size="10.00">+</text>
<text text-anchor="start" x="309" y="-401.5" font-family="Helvetica,sans-Serif" font-size="10.00">unlink()</text>
<text text-anchor="start" x="288.5" y="-386.5" font-family="Helvetica,sans-Serif" font-size="10.00">+</text>
<text text-anchor="start" x="309" y="-386.5" font-family="Helvetica,sans-Serif" font-size="10.00">rename()</text>
<text text-anchor="start" x="288.5" y="-371.5" font-family="Helvetica,sans-Serif" font-size="10.00">+</text>
<text text-anchor="start" x="309" y="-371.5" font-family="Helvetica,sans-Serif" font-size="10.00">link()</text>
<text text-anchor="start" x="288.5" y="-356.5" font-family="Helvetica,sans-Serif" font-size="10.00">+</text>
<text text-anchor="start" x="309" y="-356.5" font-family="Helvetica,sans-Serif" font-size="10.00">symlink()</text>
<text text-anchor="start" x="288.5" y="-341.5" font-family="Helvetica,sans-Serif" font-size="10.00">+</text>
<text text-anchor="start" x="309" y="-341.5" font-family="Helvetica,sans-Serif" font-size="10.00">rmdir()</text>
<polygon fill="#666666" stroke="#666666" points="277,-456.5 277,-456.5 384,-456.5 384,-456.5 277,-456.5"/>
<polygon fill="#666666" stroke="#666666" points="277,-441.5 277,-441.5 384,-441.5 384,-441.5 277,-441.5"/>
<polygon fill="none" stroke="#666666" points="276.5,-335 276.5,-474 383.5,-474 383.5,-335 276.5,-335"/>
</a>
</g>
</g>
<!-- Node5&#45;&gt;Node2 -->
<g id="edge4_Node000002_Node000005" class="edge">
<title>Node5&#45;&gt;Node2</title>
<g id="a_edge4_Node000002_Node000005"><a xlink:title=" ">
<path fill="none" stroke="#63b8ff" d="M294.02,-325.55C287.08,-310.51 280.32,-295.86 274.98,-284.28"/>
<polygon fill="none" stroke="#63b8ff" points="290.98,-327.32 298.35,-334.93 297.34,-324.39 290.98,-327.32"/>
</a>
</g>
</g>
<!-- Node6 -->
<g id="Node000006" class="node">
<title>Node6</title>
<g id="a_Node000006"><a xlink:href="classL4Re_1_1Vfs_1_1Special__file.html" target="_top" xlink:title="Interface for a POSIX file that provides special file semantics.">
<polygon fill="white" stroke="transparent" points="520,-429 402,-429 402,-380 520,-380 520,-429"/>
<text text-anchor="start" x="407" y="-416.5" font-family="Helvetica,sans-Serif" font-size="10.00">L4Re::Vfs::Special_file</text>
<text text-anchor="start" x="459" y="-401.5" font-family="Helvetica,sans-Serif" font-size="10.00"> </text>
<text text-anchor="start" x="423" y="-386.5" font-family="Helvetica,sans-Serif" font-size="10.00">+</text>
<text text-anchor="start" x="453" y="-386.5" font-family="Helvetica,sans-Serif" font-size="10.00">ioctl()</text>
<polygon fill="#666666" stroke="#666666" points="402,-411.5 402,-411.5 520,-411.5 520,-411.5 402,-411.5"/>
<polygon fill="#666666" stroke="#666666" points="402,-396.5 402,-396.5 520,-396.5 520,-396.5 402,-396.5"/>
<polygon fill="none" stroke="#666666" points="402,-380 402,-429 520,-429 520,-380 402,-380"/>
</a>
</g>
</g>
<!-- Node6&#45;&gt;Node2 -->
<g id="edge5_Node000002_Node000006" class="edge">
<title>Node6&#45;&gt;Node2</title>
<g id="a_edge5_Node000002_Node000006"><a xlink:title=" ">
<path fill="none" stroke="#63b8ff" d="M440.11,-371.26C427.93,-354.35 411.37,-334.25 393,-320 366.2,-299.21 330.98,-283.59 304.11,-273.58"/>
<polygon fill="none" stroke="#63b8ff" points="437.47,-373.58 446.07,-379.77 443.2,-369.57 437.47,-373.58"/>
</a>
</g>
</g>
</g>
</svg>
