<?xml version="1.0" encoding="UTF-8" standalone="no"?>
<!DOCTYPE svg PUBLIC "-//W3C//DTD SVG 1.1//EN"
 "http://www.w3.org/Graphics/SVG/1.1/DTD/svg11.dtd">
<!-- Generated by graphviz version 2.42.4 (0)
 -->
<!-- Title: L4::Cap_base::fpage Pages: 1 -->
<svg width="274pt" height="64pt"
 viewBox="0.00 0.00 274.00 64.00" xmlns="http://www.w3.org/2000/svg" xmlns:xlink="http://www.w3.org/1999/xlink">
<g id="graph0" class="graph" transform="scale(1 1) rotate(0) translate(4 60)">
<title>L4::Cap_base::fpage</title>
<!-- Node1 -->
<g id="Node000001" class="node">
<title>Node1</title>
<g id="a_Node000001"><a xlink:title="Return flex&#45;page for the capability.">
<polygon fill="#999999" stroke="#666666" points="266,-37 151,-37 151,-18 266,-18 266,-37"/>
<text text-anchor="middle" x="208.5" y="-25" font-family="Helvetica,sans-Serif" font-size="10.00">L4::Cap_base::fpage</text>
</a>
</g>
</g>
<!-- Node2 -->
<g id="Node000002" class="node">
<title>Node2</title>
<g id="a_Node000002"><a xlink:href="classL4_1_1Cap__base.html#a1501f9852fda4c01a1591a7c53585d5f" target="_top" xlink:title="Copy a capability.">
<polygon fill="white" stroke="#666666" points="112.5,-56 2.5,-56 2.5,-37 112.5,-37 112.5,-56"/>
<text text-anchor="middle" x="57.5" y="-44" font-family="Helvetica,sans-Serif" font-size="10.00">L4::Cap_base::copy</text>
</a>
</g>
</g>
<!-- Node1&#45;&gt;Node2 -->
<g id="edge1_Node000001_Node000002" class="edge">
<title>Node1&#45;&gt;Node2</title>
<g id="a_edge1_Node000001_Node000002"><a xlink:title=" ">
<path fill="none" stroke="#63b8ff" d="M140.66,-36.02C131.28,-37.22 121.74,-38.44 112.64,-39.6"/>
<polygon fill="#63b8ff" stroke="#63b8ff" points="141.27,-39.47 150.74,-34.74 140.38,-32.53 141.27,-39.47"/>
</a>
</g>
</g>
<!-- Node3 -->
<g id="Node000003" class="node">
<title>Node3</title>
<g id="a_Node000003"><a xlink:href="classL4_1_1Cap__base.html#ab6cd8e73ebbdb5dfa45355b7c1fde1c2" target="_top" xlink:title="Replace this capability with the contents of src.">
<polygon fill="white" stroke="#666666" points="115,-19 0,-19 0,0 115,0 115,-19"/>
<text text-anchor="middle" x="57.5" y="-7" font-family="Helvetica,sans-Serif" font-size="10.00">L4::Cap_base::move</text>
</a>
</g>
</g>
<!-- Node1&#45;&gt;Node3 -->
<g id="edge2_Node000001_Node000003" class="edge">
<title>Node1&#45;&gt;Node3</title>
<g id="a_edge2_Node000001_Node000003"><a xlink:title=" ">
<path fill="none" stroke="#63b8ff" d="M140.77,-19.44C132.2,-18.4 123.49,-17.35 115.1,-16.34"/>
<polygon fill="#63b8ff" stroke="#63b8ff" points="140.4,-22.92 150.74,-20.64 141.24,-15.97 140.4,-22.92"/>
</a>
</g>
</g>
</g>
</svg>
