<?xml version="1.0" encoding="UTF-8" standalone="no"?>
<!DOCTYPE svg PUBLIC "-//W3C//DTD SVG 1.1//EN"
 "http://www.w3.org/Graphics/SVG/1.1/DTD/svg11.dtd">
<!-- Generated by graphviz version 2.42.4 (0)
 -->
<!-- Title: L4drivers::Register_block_tmpl&lt; BLOCK &gt; Pages: 1 -->
<svg width="349pt" height="208pt"
 viewBox="0.00 0.00 349.00 208.00" xmlns="http://www.w3.org/2000/svg" xmlns:xlink="http://www.w3.org/1999/xlink">
<g id="graph0" class="graph" transform="scale(1 1) rotate(0) translate(4 204)">
<title>L4drivers::Register_block_tmpl&lt; BLOCK &gt;</title>
<!-- Node1 -->
<g id="Node000001" class="node">
<title>Node1</title>
<g id="a_Node000001"><a xlink:title="Helper template that translates to the Register_block_base interface.">
<polygon fill="#999999" stroke="transparent" points="219.5,-200 94.5,-200 94.5,-140 219.5,-140 219.5,-200"/>
<text text-anchor="start" x="100" y="-188" font-family="Helvetica,sans-Serif" font-size="10.00">L4drivers::Register</text>
<text text-anchor="start" x="100" y="-177" font-family="Helvetica,sans-Serif" font-size="10.00">_block_tmpl&lt; BLOCK &gt;</text>
<text text-anchor="start" x="155.5" y="-162" font-family="Helvetica,sans-Serif" font-size="10.00"> </text>
<text text-anchor="start" x="155.5" y="-147" font-family="Helvetica,sans-Serif" font-size="10.00"> </text>
<polygon fill="#666666" stroke="#666666" points="95,-172 95,-172 220,-172 220,-172 95,-172"/>
<polygon fill="#666666" stroke="#666666" points="95,-157 95,-157 220,-157 220,-157 95,-157"/>
<polygon fill="none" stroke="#666666" points="94.5,-140 94.5,-200 219.5,-200 219.5,-140 94.5,-140"/>
</a>
</g>
</g>
<!-- Node2 -->
<g id="Node000002" class="node">
<title>Node2</title>
<g id="a_Node000002"><a xlink:href="classL4drivers_1_1Register__block__tmpl.html" target="_top" xlink:title=" ">
<polygon fill="white" stroke="transparent" points="154,-76.5 0,-76.5 0,-5.5 154,-5.5 154,-76.5"/>
<text text-anchor="start" x="5" y="-64" font-family="Helvetica,sans-Serif" font-size="10.00">L4drivers::Register</text>
<text text-anchor="start" x="5" y="-53" font-family="Helvetica,sans-Serif" font-size="10.00">_block_tmpl&lt; Register</text>
<text text-anchor="start" x="5" y="-42" font-family="Helvetica,sans-Serif" font-size="10.00">_block_base&lt; MAX_BITS &gt; &gt;</text>
<text text-anchor="start" x="75" y="-27" font-family="Helvetica,sans-Serif" font-size="10.00"> </text>
<text text-anchor="start" x="75" y="-12" font-family="Helvetica,sans-Serif" font-size="10.00"> </text>
<polygon fill="#666666" stroke="#666666" points="0,-37 0,-37 154,-37 154,-37 0,-37"/>
<polygon fill="#666666" stroke="#666666" points="0,-22 0,-22 154,-22 154,-22 0,-22"/>
<polygon fill="none" stroke="#666666" points="0,-5.5 0,-76.5 154,-76.5 154,-5.5 0,-5.5"/>
</a>
</g>
</g>
<!-- Node1&#45;&gt;Node2 -->
<g id="edge1_Node000001_Node000002" class="edge">
<title>Node1&#45;&gt;Node2</title>
<g id="a_edge1_Node000001_Node000002"><a xlink:title=" ">
<path fill="none" stroke="orange" d="M109.38,-132.77C106.31,-129.34 103.46,-125.74 101,-122 92.07,-108.43 86.36,-91.42 82.76,-76.58"/>
<polygon fill="orange" stroke="orange" points="106.94,-135.28 116.43,-139.99 111.95,-130.39 106.94,-135.28"/>
</a>
</g>
<text text-anchor="start" x="101" y="-114" font-family="Helvetica,sans-Serif" font-size="10.00" fill="grey"> &lt; Register_block_base</text>
<text text-anchor="middle" x="158.5" y="-103" font-family="Helvetica,sans-Serif" font-size="10.00" fill="grey">&lt; MAX_BITS &gt; &gt;</text>
</g>
<!-- Node3 -->
<g id="Node000003" class="node">
<title>Node3</title>
<g id="a_Node000003"><a xlink:href="classL4drivers_1_1Register__block__tmpl.html" target="_top" xlink:title=" ">
<polygon fill="white" stroke="transparent" points="303.5,-82 172.5,-82 172.5,0 303.5,0 303.5,-82"/>
<text text-anchor="start" x="178" y="-70" font-family="Helvetica,sans-Serif" font-size="10.00">L4drivers::Register</text>
<text text-anchor="start" x="178" y="-59" font-family="Helvetica,sans-Serif" font-size="10.00">_block_tmpl&lt; Register</text>
<text text-anchor="start" x="178" y="-48" font-family="Helvetica,sans-Serif" font-size="10.00">_block_base&lt; MAX_BITS</text>
<text text-anchor="start" x="212.5" y="-37" font-family="Helvetica,sans-Serif" font-size="10.00"> &gt; const &gt;</text>
<text text-anchor="start" x="236.5" y="-22" font-family="Helvetica,sans-Serif" font-size="10.00"> </text>
<text text-anchor="start" x="236.5" y="-7" font-family="Helvetica,sans-Serif" font-size="10.00"> </text>
<polygon fill="#666666" stroke="#666666" points="173,-32 173,-32 304,-32 304,-32 173,-32"/>
<polygon fill="#666666" stroke="#666666" points="173,-17 173,-17 304,-17 304,-17 173,-17"/>
<polygon fill="none" stroke="#666666" points="172.5,0 172.5,-82 303.5,-82 303.5,0 172.5,0"/>
</a>
</g>
</g>
<!-- Node1&#45;&gt;Node3 -->
<g id="edge2_Node000001_Node000003" class="edge">
<title>Node1&#45;&gt;Node3</title>
<g id="a_edge2_Node000001_Node000003"><a xlink:title=" ">
<path fill="none" stroke="orange" d="M207.59,-132.68C210.69,-129.3 213.54,-125.73 216,-122 223.77,-110.22 228.82,-95.73 232.09,-82.34"/>
<polygon fill="orange" stroke="orange" points="205.08,-130.25 200.48,-139.8 210.03,-135.2 205.08,-130.25"/>
</a>
</g>
<text text-anchor="start" x="226" y="-114" font-family="Helvetica,sans-Serif" font-size="10.00" fill="grey"> &lt; Register_block_base</text>
<text text-anchor="middle" x="283.5" y="-103" font-family="Helvetica,sans-Serif" font-size="10.00" fill="grey">&lt; MAX_BITS &gt; const &gt;</text>
</g>
</g>
</svg>
