<?xml version="1.0" encoding="UTF-8" standalone="no"?>
<!DOCTYPE svg PUBLIC "-//W3C//DTD SVG 1.1//EN"
 "http://www.w3.org/Graphics/SVG/1.1/DTD/svg11.dtd">
<!-- Generated by graphviz version 2.42.4 (0)
 -->
<!-- Title: L4virtio::Svr::Request_processor::has_more Pages: 1 -->
<svg width="285pt" height="134pt"
 viewBox="0.00 0.00 285.00 134.00" xmlns="http://www.w3.org/2000/svg" xmlns:xlink="http://www.w3.org/1999/xlink">
<g id="graph0" class="graph" transform="scale(1 1) rotate(0) translate(4 130)">
<title>L4virtio::Svr::Request_processor::has_more</title>
<!-- Node1 -->
<g id="Node000001" class="node">
<title>Node1</title>
<g id="a_Node000001"><a xlink:title="Are there more chained descriptors?">
<polygon fill="#999999" stroke="#666666" points="277,-78 154,-78 154,-48 277,-48 277,-78"/>
<text text-anchor="start" x="162" y="-66" font-family="Helvetica,sans-Serif" font-size="10.00">L4virtio::Svr::Request</text>
<text text-anchor="middle" x="215.5" y="-55" font-family="Helvetica,sans-Serif" font-size="10.00">_processor::has_more</text>
</a>
</g>
</g>
<!-- Node2 -->
<g id="Node000002" class="node">
<title>Node2</title>
<g id="a_Node000002"><a xlink:href="classL4virtio_1_1Svr_1_1Block__request.html#a5f6bf664cda7dfe4f82d8726f6c33099" target="_top" xlink:title="Compute the total size of the data in the request.">
<polygon fill="white" stroke="#666666" points="114.5,-126 3.5,-126 3.5,-96 114.5,-96 114.5,-126"/>
<text text-anchor="start" x="11.5" y="-114" font-family="Helvetica,sans-Serif" font-size="10.00">L4virtio::Svr::Block</text>
<text text-anchor="middle" x="59" y="-103" font-family="Helvetica,sans-Serif" font-size="10.00">_request::data_size</text>
</a>
</g>
</g>
<!-- Node1&#45;&gt;Node2 -->
<g id="edge1_Node000001_Node000002" class="edge">
<title>Node1&#45;&gt;Node2</title>
<g id="a_edge1_Node000001_Node000002"><a xlink:title=" ">
<path fill="none" stroke="#63b8ff" d="M156.35,-81.07C140.51,-85.99 123.52,-91.27 108.29,-96"/>
<polygon fill="#63b8ff" stroke="#63b8ff" points="157.53,-84.37 166.04,-78.06 155.45,-77.68 157.53,-84.37"/>
</a>
</g>
</g>
<!-- Node3 -->
<g id="Node000003" class="node">
<title>Node3</title>
<g id="a_Node000003"><a xlink:href="classL4virtio_1_1Svr_1_1Block__request.html#a7b714611659c91ffd67e9d8c20102ab6" target="_top" xlink:title="Check if the request contains more data blocks.">
<polygon fill="white" stroke="#666666" points="115.5,-78 2.5,-78 2.5,-48 115.5,-48 115.5,-78"/>
<text text-anchor="start" x="10.5" y="-66" font-family="Helvetica,sans-Serif" font-size="10.00">L4virtio::Svr::Block</text>
<text text-anchor="middle" x="59" y="-55" font-family="Helvetica,sans-Serif" font-size="10.00">_request::has_more</text>
</a>
</g>
</g>
<!-- Node1&#45;&gt;Node3 -->
<g id="edge2_Node000001_Node000003" class="edge">
<title>Node1&#45;&gt;Node3</title>
<g id="a_edge2_Node000001_Node000003"><a xlink:title=" ">
<path fill="none" stroke="#63b8ff" d="M143.81,-63C134.45,-63 124.97,-63 115.91,-63"/>
<polygon fill="#63b8ff" stroke="#63b8ff" points="143.88,-66.5 153.88,-63 143.88,-59.5 143.88,-66.5"/>
</a>
</g>
</g>
<!-- Node4 -->
<g id="Node000004" class="node">
<title>Node4</title>
<g id="a_Node000004"><a xlink:href="classL4virtio_1_1Svr_1_1Block__request.html#aa2cb429f504f6568d6e25c13936d5be7" target="_top" xlink:title="Return next block in scatter&#45;gather list.">
<polygon fill="white" stroke="#666666" points="118,-30 0,-30 0,0 118,0 118,-30"/>
<text text-anchor="start" x="8" y="-18" font-family="Helvetica,sans-Serif" font-size="10.00">L4virtio::Svr::Block</text>
<text text-anchor="middle" x="59" y="-7" font-family="Helvetica,sans-Serif" font-size="10.00">_request::next_block</text>
</a>
</g>
</g>
<!-- Node1&#45;&gt;Node4 -->
<g id="edge3_Node000001_Node000004" class="edge">
<title>Node1&#45;&gt;Node4</title>
<g id="a_edge3_Node000001_Node000004"><a xlink:title=" ">
<path fill="none" stroke="#63b8ff" d="M156.35,-44.93C140.51,-40.01 123.52,-34.73 108.29,-30"/>
<polygon fill="#63b8ff" stroke="#63b8ff" points="155.45,-48.32 166.04,-47.94 157.53,-41.63 155.45,-48.32"/>
</a>
</g>
</g>
</g>
</svg>
