<?xml version="1.0" encoding="UTF-8" standalone="no"?>
<!DOCTYPE svg PUBLIC "-//W3C//DTD SVG 1.1//EN"
 "http://www.w3.org/Graphics/SVG/1.1/DTD/svg11.dtd">
<!-- Generated by graphviz version 2.42.4 (0)
 -->
<!-- Title: cxx::Bits::Bst::remove_tree Pages: 1 -->
<svg width="303pt" height="76pt"
 viewBox="0.00 0.00 303.00 75.50" xmlns="http://www.w3.org/2000/svg" xmlns:xlink="http://www.w3.org/1999/xlink">
<g id="graph0" class="graph" transform="scale(1 1) rotate(0) translate(4 71.5)">
<title>cxx::Bits::Bst::remove_tree</title>
<!-- Node1 -->
<g id="Node000001" class="node">
<title>Node1</title>
<g id="a_Node000001"><a xlink:title="Remove all elements in the subtree of head.">
<polygon fill="#999999" stroke="#666666" points="149,-45.5 0,-45.5 0,-26.5 149,-26.5 149,-45.5"/>
<text text-anchor="middle" x="74.5" y="-33.5" font-family="Helvetica,sans-Serif" font-size="10.00">cxx::Bits::Bst::remove_tree</text>
</a>
</g>
</g>
<!-- Node1&#45;&gt;Node1 -->
<g id="edge3_Node000001_Node000001" class="edge">
<title>Node1&#45;&gt;Node1</title>
<g id="a_edge3_Node000001_Node000001"><a xlink:title=" ">
<path fill="none" stroke="#63b8ff" d="M49.22,-45.58C36.93,-54.23 45.35,-63.5 74.5,-63.5 93.63,-63.5 103.83,-59.51 105.11,-54.32"/>
<polygon fill="#63b8ff" stroke="#63b8ff" points="107.98,-52.29 99.78,-45.58 102,-55.94 107.98,-52.29"/>
</a>
</g>
</g>
<!-- Node2 -->
<g id="Node000002" class="node">
<title>Node2</title>
<g id="a_Node000002"><a xlink:href="classcxx_1_1Bits_1_1Bst.html#affbc6ff2833634e3351077102ae110a4" target="_top" xlink:title="Access the head node as object of type Node.">
<polygon fill="white" stroke="#666666" points="295,-67.5 185,-67.5 185,-48.5 295,-48.5 295,-67.5"/>
<text text-anchor="middle" x="240" y="-55.5" font-family="Helvetica,sans-Serif" font-size="10.00">cxx::Bits::Bst::head</text>
</a>
</g>
</g>
<!-- Node1&#45;&gt;Node2 -->
<g id="edge1_Node000001_Node000002" class="edge">
<title>Node1&#45;&gt;Node2</title>
<g id="a_edge1_Node000001_Node000002"><a xlink:title=" ">
<path fill="none" stroke="#63b8ff" d="M146.26,-45.52C155.77,-46.8 165.48,-48.11 174.86,-49.37"/>
<polygon fill="#63b8ff" stroke="#63b8ff" points="174.51,-52.85 184.89,-50.72 175.45,-45.92 174.51,-52.85"/>
</a>
</g>
</g>
<!-- Node3 -->
<g id="Node000003" class="node">
<title>Node3</title>
<g id="a_Node000003"><a xlink:href="classcxx_1_1Bits_1_1Bst__node.html#afab30b3fd2e1e6bf677cc54296581cb3" target="_top" xlink:title="Get next node in direction d.">
<polygon fill="white" stroke="#666666" points="295,-30 185,-30 185,0 295,0 295,-30"/>
<text text-anchor="start" x="193" y="-18" font-family="Helvetica,sans-Serif" font-size="10.00">cxx::Bits::Bst_node</text>
<text text-anchor="middle" x="240" y="-7" font-family="Helvetica,sans-Serif" font-size="10.00">::next</text>
</a>
</g>
</g>
<!-- Node1&#45;&gt;Node3 -->
<g id="edge2_Node000001_Node000003" class="edge">
<title>Node1&#45;&gt;Node3</title>
<g id="a_edge2_Node000001_Node000003"><a xlink:title=" ">
<path fill="none" stroke="#63b8ff" d="M149.12,-26.54C157.68,-25.45 166.35,-24.33 174.77,-23.25"/>
<polygon fill="#63b8ff" stroke="#63b8ff" points="175.41,-26.7 184.88,-21.95 174.52,-19.75 175.41,-26.7"/>
</a>
</g>
</g>
</g>
</svg>
