<?xml version="1.0" encoding="UTF-8" standalone="no"?>
<!DOCTYPE svg PUBLIC "-//W3C//DTD SVG 1.1//EN"
 "http://www.w3.org/Graphics/SVG/1.1/DTD/svg11.dtd">
<!-- Generated by graphviz version 2.43.0 (0)
 -->
<!-- Title: cxx::Avl_map::operator[] Pages: 1 -->
<svg width="616pt" height="81pt"
 viewBox="0.00 0.00 616.00 81.00" xmlns="http://www.w3.org/2000/svg" xmlns:xlink="http://www.w3.org/1999/xlink">
<g id="graph0" class="graph" transform="scale(1 1) rotate(0) translate(4 77)">
<title>cxx::Avl_map::operator[]</title>
<!-- Node1 -->
<g id="Node000001" class="node">
<title>Node1</title>
<g id="a_Node000001"><a xlink:title="Get or insert data for the given key.">
<polygon fill="#999999" stroke="#666666" points="137,-45.5 0,-45.5 0,-26.5 137,-26.5 137,-45.5"/>
<text text-anchor="middle" x="68.5" y="-33.5" font-family="Helvetica,sans-Serif" font-size="10.00">cxx::Avl_map::operator[]</text>
</a>
</g>
</g>
<!-- Node2 -->
<g id="Node000002" class="node">
<title>Node2</title>
<g id="a_Node000002"><a xlink:href="classcxx_1_1Bits_1_1Base__avl__set.html#a1825ad4f133473e296c3842cb7bbcc92" target="_top" xlink:title="Lookup a node equal to item.">
<polygon fill="white" stroke="#666666" points="285.5,-73 176.5,-73 176.5,-43 285.5,-43 285.5,-73"/>
<text text-anchor="start" x="184.5" y="-61" font-family="Helvetica,sans-Serif" font-size="10.00">cxx::Bits::Base_avl</text>
<text text-anchor="middle" x="231" y="-50" font-family="Helvetica,sans-Serif" font-size="10.00">_set::find_node</text>
</a>
</g>
</g>
<!-- Node1&#45;&gt;Node2 -->
<g id="edge1_Node000001_Node000002" class="edge">
<title>Node1&#45;&gt;Node2</title>
<g id="a_edge1_Node000001_Node000002"><a xlink:title=" ">
<path fill="none" stroke="#63b8ff" d="M137.1,-45.27C146.66,-46.58 156.47,-47.92 165.97,-49.22"/>
<polygon fill="#63b8ff" stroke="#63b8ff" points="165.73,-52.72 176.12,-50.61 166.68,-45.79 165.73,-52.72"/>
</a>
</g>
</g>
<!-- Node5 -->
<g id="Node000005" class="node">
<title>Node5</title>
<g id="a_Node000005"><a xlink:href="classcxx_1_1Avl__map.html#add7094c60fe0f60a8954ca6b89ae670f" target="_top" xlink:title="Insert a &lt;key, data&gt; pair into the map.">
<polygon fill="white" stroke="#666666" points="289,-24.5 173,-24.5 173,-5.5 289,-5.5 289,-24.5"/>
<text text-anchor="middle" x="231" y="-12.5" font-family="Helvetica,sans-Serif" font-size="10.00">cxx::Avl_map::insert</text>
</a>
</g>
</g>
<!-- Node1&#45;&gt;Node5 -->
<g id="edge4_Node000001_Node000005" class="edge">
<title>Node1&#45;&gt;Node5</title>
<g id="a_edge4_Node000001_Node000005"><a xlink:title=" ">
<path fill="none" stroke="#63b8ff" d="M137.1,-27.15C145.66,-26.04 154.42,-24.89 162.97,-23.77"/>
<polygon fill="#63b8ff" stroke="#63b8ff" points="163.42,-27.24 172.88,-22.47 162.52,-20.3 163.42,-27.24"/>
</a>
</g>
</g>
<!-- Node3 -->
<g id="Node000003" class="node">
<title>Node3</title>
<g id="a_Node000003"><a xlink:href="classcxx_1_1Bits_1_1Bst.html#a7f31ce158bf0d2f3c31a412d005e3aaf" target="_top" xlink:title="find the node with the given key.">
<polygon fill="white" stroke="#666666" points="459,-67.5 325,-67.5 325,-48.5 459,-48.5 459,-67.5"/>
<text text-anchor="middle" x="392" y="-55.5" font-family="Helvetica,sans-Serif" font-size="10.00">cxx::Bits::Bst::find_node</text>
</a>
</g>
</g>
<!-- Node2&#45;&gt;Node3 -->
<g id="edge2_Node000002_Node000003" class="edge">
<title>Node2&#45;&gt;Node3</title>
<g id="a_edge2_Node000002_Node000003"><a xlink:title=" ">
<path fill="none" stroke="#63b8ff" d="M285.83,-58C295.12,-58 304.94,-58 314.7,-58"/>
<polygon fill="#63b8ff" stroke="#63b8ff" points="314.81,-61.5 324.81,-58 314.81,-54.5 314.81,-61.5"/>
</a>
</g>
</g>
<!-- Node4 -->
<g id="Node000004" class="node">
<title>Node4</title>
<g id="a_Node000004"><a xlink:href="classcxx_1_1Bits_1_1Bst__node.html#afab30b3fd2e1e6bf677cc54296581cb3" target="_top" xlink:title="Get next node in direction d.">
<polygon fill="white" stroke="#666666" points="606.5,-73 496.5,-73 496.5,-43 606.5,-43 606.5,-73"/>
<text text-anchor="start" x="504.5" y="-61" font-family="Helvetica,sans-Serif" font-size="10.00">cxx::Bits::Bst_node</text>
<text text-anchor="middle" x="551.5" y="-50" font-family="Helvetica,sans-Serif" font-size="10.00">::next</text>
</a>
</g>
</g>
<!-- Node3&#45;&gt;Node4 -->
<g id="edge3_Node000003_Node000004" class="edge">
<title>Node3&#45;&gt;Node4</title>
<g id="a_edge3_Node000003_Node000004"><a xlink:title=" ">
<path fill="none" stroke="#63b8ff" d="M459.34,-58C468.16,-58 477.19,-58 485.99,-58"/>
<polygon fill="#63b8ff" stroke="#63b8ff" points="486.16,-61.5 496.16,-58 486.16,-54.5 486.16,-61.5"/>
</a>
</g>
</g>
<!-- Node6 -->
<g id="Node000006" class="node">
<title>Node6</title>
<g id="a_Node000006"><a xlink:href="classcxx_1_1Bits_1_1Base__avl__set.html#ac1f7218e9e51bfef71ecb746719a389a" target="_top" xlink:title="Insert an item into the set.">
<polygon fill="white" stroke="#666666" points="446.5,-30 337.5,-30 337.5,0 446.5,0 446.5,-30"/>
<text text-anchor="start" x="345.5" y="-18" font-family="Helvetica,sans-Serif" font-size="10.00">cxx::Bits::Base_avl</text>
<text text-anchor="middle" x="392" y="-7" font-family="Helvetica,sans-Serif" font-size="10.00">_set::insert</text>
</a>
</g>
</g>
<!-- Node5&#45;&gt;Node6 -->
<g id="edge5_Node000005_Node000006" class="edge">
<title>Node5&#45;&gt;Node6</title>
<g id="a_edge5_Node000005_Node000006"><a xlink:title=" ">
<path fill="none" stroke="#63b8ff" d="M289.4,-15C301.63,-15 314.62,-15 327.08,-15"/>
<polygon fill="#63b8ff" stroke="#63b8ff" points="327.39,-18.5 337.39,-15 327.39,-11.5 327.39,-18.5"/>
</a>
</g>
</g>
<!-- Node7 -->
<g id="Node000007" class="node">
<title>Node7</title>
<g id="a_Node000007"><a xlink:href="classcxx_1_1Avl__tree.html#a202d84f24c534368f98b0986be0eee1b" target="_top" xlink:title="Insert a new node into this AVL tree.">
<polygon fill="white" stroke="#666666" points="608,-24.5 495,-24.5 495,-5.5 608,-5.5 608,-24.5"/>
<text text-anchor="middle" x="551.5" y="-12.5" font-family="Helvetica,sans-Serif" font-size="10.00">cxx::Avl_tree::insert</text>
</a>
</g>
</g>
<!-- Node6&#45;&gt;Node7 -->
<g id="edge6_Node000006_Node000007" class="edge">
<title>Node6&#45;&gt;Node7</title>
<g id="a_edge6_Node000006_Node000007"><a xlink:title=" ">
<path fill="none" stroke="#63b8ff" d="M446.76,-15C459,-15 472.13,-15 484.8,-15"/>
<polygon fill="#63b8ff" stroke="#63b8ff" points="484.83,-18.5 494.83,-15 484.83,-11.5 484.83,-18.5"/>
</a>
</g>
</g>
</g>
</svg>
