<?xml version="1.0" encoding="UTF-8" standalone="no"?>
<!DOCTYPE svg PUBLIC "-//W3C//DTD SVG 1.1//EN"
 "http://www.w3.org/Graphics/SVG/1.1/DTD/svg11.dtd">
<!-- Generated by graphviz version 2.42.4 (0)
 -->
<!-- Title: L4::Icu::bind Pages: 1 -->
<svg width="499pt" height="138pt"
 viewBox="0.00 0.00 499.00 138.00" xmlns="http://www.w3.org/2000/svg" xmlns:xlink="http://www.w3.org/1999/xlink">
<g id="graph0" class="graph" transform="scale(1 1) rotate(0) translate(4 134)">
<title>L4::Icu::bind</title>
<!-- Node1 -->
<g id="Node000001" class="node">
<title>Node1</title>
<g id="a_Node000001"><a xlink:title="Bind an interrupt line of an interrupt controller to an interrupt object.">
<polygon fill="#999999" stroke="#666666" points="75,-92 0,-92 0,-73 75,-73 75,-92"/>
<text text-anchor="middle" x="37.5" y="-80" font-family="Helvetica,sans-Serif" font-size="10.00">L4::Icu::bind</text>
</a>
</g>
</g>
<!-- Node2 -->
<g id="Node000002" class="node">
<title>Node2</title>
<g id="a_Node000002"><a xlink:href="classL4_1_1Cap__base.html#a90ff089ca2442b128c2b2b0e1c22c6d7" target="_top" xlink:title="Return capability selector.">
<polygon fill="white" stroke="#666666" points="215,-111 111,-111 111,-92 215,-92 215,-111"/>
<text text-anchor="middle" x="163" y="-99" font-family="Helvetica,sans-Serif" font-size="10.00">L4::Cap_base::cap</text>
</a>
</g>
</g>
<!-- Node1&#45;&gt;Node2 -->
<g id="edge1_Node000001_Node000002" class="edge">
<title>Node1&#45;&gt;Node2</title>
<g id="a_edge1_Node000001_Node000002"><a xlink:title=" ">
<path fill="none" stroke="#63b8ff" d="M75.22,-88.15C83.19,-89.38 91.83,-90.71 100.47,-92.03"/>
<polygon fill="#63b8ff" stroke="#63b8ff" points="100.15,-95.53 110.57,-93.59 101.22,-88.61 100.15,-95.53"/>
</a>
</g>
</g>
<!-- Node3 -->
<g id="Node000003" class="node">
<title>Node3</title>
<g id="a_Node000003"><a xlink:href="group__l4__icu__api.html#ga29217a67f405c5d860002dd902bf71e4" target="_top" xlink:title="Bind an interrupt line of an interrupt controller to an interrupt object.">
<polygon fill="white" stroke="#666666" points="204.5,-74 121.5,-74 121.5,-55 204.5,-55 204.5,-74"/>
<text text-anchor="middle" x="163" y="-62" font-family="Helvetica,sans-Serif" font-size="10.00">l4_icu_bind_u</text>
</a>
</g>
</g>
<!-- Node1&#45;&gt;Node3 -->
<g id="edge2_Node000001_Node000003" class="edge">
<title>Node1&#45;&gt;Node3</title>
<g id="a_edge2_Node000001_Node000003"><a xlink:title=" ">
<path fill="none" stroke="#63b8ff" d="M75.22,-77.15C86.55,-75.5 99.24,-73.65 111.34,-71.88"/>
<polygon fill="#63b8ff" stroke="#63b8ff" points="111.93,-75.34 121.32,-70.43 110.92,-68.41 111.93,-75.34"/>
</a>
</g>
</g>
<!-- Node4 -->
<g id="Node000004" class="node">
<title>Node4</title>
<g id="a_Node000004"><a xlink:href="group__l4__ipc__api.html#gab96d1669dcd54657237ee27b7f6862c6" target="_top" xlink:title="Object call (usual invocation).">
<polygon fill="white" stroke="#666666" points="341,-130 273,-130 273,-111 341,-111 341,-130"/>
<text text-anchor="middle" x="307" y="-118" font-family="Helvetica,sans-Serif" font-size="10.00">l4_ipc_call</text>
</a>
</g>
</g>
<!-- Node3&#45;&gt;Node4 -->
<g id="edge3_Node000003_Node000004" class="edge">
<title>Node3&#45;&gt;Node4</title>
<g id="a_edge3_Node000003_Node000004"><a xlink:title=" ">
<path fill="none" stroke="#63b8ff" d="M191.52,-74.01C199.2,-76.87 207.5,-80.14 215,-83.5 231.51,-90.9 234.34,-95.44 251,-102.5 255.17,-104.27 259.58,-105.97 264.01,-107.58"/>
<polygon fill="#63b8ff" stroke="#63b8ff" points="263.08,-110.96 273.67,-110.93 265.37,-104.35 263.08,-110.96"/>
</a>
</g>
</g>
<!-- Node6 -->
<g id="Node000006" class="node">
<title>Node6</title>
<g id="a_Node000006"><a xlink:href="group__l4__msgitem__api.html#ga6c9056957ac92e458eaabcbf3223ce6f" target="_top" xlink:title="Create the first word for a map item for the object space.">
<polygon fill="white" stroke="#666666" points="363,-93 251,-93 251,-74 363,-74 363,-93"/>
<text text-anchor="middle" x="307" y="-81" font-family="Helvetica,sans-Serif" font-size="10.00">l4_map_obj_control</text>
</a>
</g>
</g>
<!-- Node3&#45;&gt;Node6 -->
<g id="edge5_Node000003_Node000006" class="edge">
<title>Node3&#45;&gt;Node6</title>
<g id="a_edge5_Node000003_Node000006"><a xlink:title=" ">
<path fill="none" stroke="#63b8ff" d="M204.69,-69.94C215.9,-71.44 228.34,-73.11 240.56,-74.74"/>
<polygon fill="#63b8ff" stroke="#63b8ff" points="240.37,-78.25 250.75,-76.11 241.3,-71.31 240.37,-78.25"/>
</a>
</g>
</g>
<!-- Node8 -->
<g id="Node000008" class="node">
<title>Node8</title>
<g id="a_Node000008"><a xlink:href="group__l4__msgtag__api.html#ga661d71acad9d096fa990f7c94943bc78" target="_top" xlink:title="Create a message tag from the specified values.">
<polygon fill="white" stroke="#666666" points="341,-56 273,-56 273,-37 341,-37 341,-56"/>
<text text-anchor="middle" x="307" y="-44" font-family="Helvetica,sans-Serif" font-size="10.00">l4_msgtag</text>
</a>
</g>
</g>
<!-- Node3&#45;&gt;Node8 -->
<g id="edge7_Node000003_Node000008" class="edge">
<title>Node3&#45;&gt;Node8</title>
<g id="a_edge7_Node000003_Node000008"><a xlink:title=" ">
<path fill="none" stroke="#63b8ff" d="M204.69,-59.34C222.95,-57.03 244.49,-54.3 263.01,-51.95"/>
<polygon fill="#63b8ff" stroke="#63b8ff" points="263.47,-55.42 272.95,-50.69 262.59,-48.48 263.47,-55.42"/>
</a>
</g>
</g>
<!-- Node9 -->
<g id="Node000009" class="node">
<title>Node9</title>
<g id="a_Node000009"><a xlink:href="group__l4__fpage__api.html#ga3eaf59757a63812044e2b3a1cdf09d54" target="_top" xlink:title="Create a kernel&#45;object flex page.">
<polygon fill="white" stroke="#666666" points="346.5,-19 267.5,-19 267.5,0 346.5,0 346.5,-19"/>
<text text-anchor="middle" x="307" y="-7" font-family="Helvetica,sans-Serif" font-size="10.00">l4_obj_fpage</text>
</a>
</g>
</g>
<!-- Node3&#45;&gt;Node9 -->
<g id="edge8_Node000003_Node000009" class="edge">
<title>Node3&#45;&gt;Node9</title>
<g id="a_edge8_Node000003_Node000009"><a xlink:title=" ">
<path fill="none" stroke="#63b8ff" d="M186.02,-54.96C203.53,-47.48 228.69,-36.96 251,-28.5 256.31,-26.49 261.95,-24.44 267.5,-22.47"/>
<polygon fill="#63b8ff" stroke="#63b8ff" points="269.05,-25.64 277.34,-19.04 266.74,-19.03 269.05,-25.64"/>
</a>
</g>
</g>
<!-- Node5 -->
<g id="Node000005" class="node">
<title>Node5</title>
<g id="a_Node000005"><a xlink:href="group__l4__ipc__api.html#ga1caa56d45e0453b3002e7f5cfdb0dec7" target="_top" xlink:title="Generic L4 object invocation.">
<polygon fill="white" stroke="#666666" points="467.5,-130 422.5,-130 422.5,-111 467.5,-111 467.5,-130"/>
<text text-anchor="middle" x="445" y="-118" font-family="Helvetica,sans-Serif" font-size="10.00">l4_ipc</text>
</a>
</g>
</g>
<!-- Node4&#45;&gt;Node5 -->
<g id="edge4_Node000004_Node000005" class="edge">
<title>Node4&#45;&gt;Node5</title>
<g id="a_edge4_Node000004_Node000005"><a xlink:title=" ">
<path fill="none" stroke="#63b8ff" d="M341.27,-120.5C362.8,-120.5 390.67,-120.5 411.95,-120.5"/>
<polygon fill="#63b8ff" stroke="#63b8ff" points="412.11,-124 422.11,-120.5 412.11,-117 412.11,-124"/>
</a>
</g>
</g>
<!-- Node7 -->
<g id="Node000007" class="node">
<title>Node7</title>
<g id="a_Node000007"><a xlink:href="group__l4__msgitem__api.html#ga1ce1321fd25614e9af43a35819540ba7" target="_top" xlink:title="Create the first word for a map item for the memory space.">
<polygon fill="white" stroke="#666666" points="491,-93 399,-93 399,-74 491,-74 491,-93"/>
<text text-anchor="middle" x="445" y="-81" font-family="Helvetica,sans-Serif" font-size="10.00">l4_map_control</text>
</a>
</g>
</g>
<!-- Node6&#45;&gt;Node7 -->
<g id="edge6_Node000006_Node000007" class="edge">
<title>Node6&#45;&gt;Node7</title>
<g id="a_edge6_Node000006_Node000007"><a xlink:title=" ">
<path fill="none" stroke="#63b8ff" d="M363.32,-83.5C371.68,-83.5 380.31,-83.5 388.68,-83.5"/>
<polygon fill="#63b8ff" stroke="#63b8ff" points="388.71,-87 398.71,-83.5 388.71,-80 388.71,-87"/>
</a>
</g>
</g>
</g>
</svg>
