<?xml version="1.0" encoding="UTF-8" standalone="no"?>
<!DOCTYPE svg PUBLIC "-//W3C//DTD SVG 1.1//EN"
 "http://www.w3.org/Graphics/SVG/1.1/DTD/svg11.dtd">
<!-- Generated by graphviz version 2.42.4 (0)
 -->
<!-- Title: L4::Ipc::Varg_list_ref::Iterator Pages: 1 -->
<svg width="102pt" height="128pt"
 viewBox="0.00 0.00 102.00 128.00" xmlns="http://www.w3.org/2000/svg" xmlns:xlink="http://www.w3.org/1999/xlink">
<g id="graph0" class="graph" transform="scale(1 1) rotate(0) translate(4 124)">
<title>L4::Ipc::Varg_list_ref::Iterator</title>
<!-- Node1 -->
<g id="Node000001" class="node">
<title>Node1</title>
<g id="a_Node000001"><a xlink:title="Iterator for Valists.">
<polygon fill="#999999" stroke="transparent" points="94,-120 0,-120 0,0 94,0 94,-120"/>
<text text-anchor="start" x="7" y="-108" font-family="Helvetica,sans-Serif" font-size="10.00">L4::Ipc::Varg_list</text>
<text text-anchor="start" x="16.5" y="-97" font-family="Helvetica,sans-Serif" font-size="10.00">_ref::Iterator</text>
<text text-anchor="start" x="45" y="-82" font-family="Helvetica,sans-Serif" font-size="10.00"> </text>
<text text-anchor="start" x="4" y="-67" font-family="Helvetica,sans-Serif" font-size="10.00">+</text>
<text text-anchor="start" x="17" y="-67" font-family="Helvetica,sans-Serif" font-size="10.00">Iterator()</text>
<text text-anchor="start" x="4" y="-52" font-family="Helvetica,sans-Serif" font-size="10.00">+</text>
<text text-anchor="start" x="17" y="-52" font-family="Helvetica,sans-Serif" font-size="10.00">operator bool()</text>
<text text-anchor="start" x="4" y="-37" font-family="Helvetica,sans-Serif" font-size="10.00">+</text>
<text text-anchor="start" x="17" y="-37" font-family="Helvetica,sans-Serif" font-size="10.00">operator++()</text>
<text text-anchor="start" x="4" y="-22" font-family="Helvetica,sans-Serif" font-size="10.00">+</text>
<text text-anchor="start" x="17" y="-22" font-family="Helvetica,sans-Serif" font-size="10.00">operator*()</text>
<text text-anchor="start" x="4" y="-7" font-family="Helvetica,sans-Serif" font-size="10.00">+</text>
<text text-anchor="start" x="17" y="-7" font-family="Helvetica,sans-Serif" font-size="10.00">equals()</text>
<polygon fill="#666666" stroke="#666666" points="0,-92 0,-92 94,-92 94,-92 0,-92"/>
<polygon fill="#666666" stroke="#666666" points="0,-77 0,-77 94,-77 94,-77 0,-77"/>
<polygon fill="none" stroke="#666666" points="0,0 0,-120 94,-120 94,0 0,0"/>
</a>
</g>
</g>
</g>
</svg>
