<?xml version="1.0" encoding="UTF-8" standalone="no"?>
<!DOCTYPE svg PUBLIC "-//W3C//DTD SVG 1.1//EN"
 "http://www.w3.org/Graphics/SVG/1.1/DTD/svg11.dtd">
<!-- Generated by graphviz version 2.43.0 (0)
 -->
<!-- Title: cxx::Bitfield::val Pages: 1 -->
<svg width="234pt" height="51pt"
 viewBox="0.00 0.00 234.00 50.50" xmlns="http://www.w3.org/2000/svg" xmlns:xlink="http://www.w3.org/1999/xlink">
<g id="graph0" class="graph" transform="scale(1 1) rotate(0) translate(4 46.5)">
<title>cxx::Bitfield::val</title>
<!-- Node1 -->
<g id="Node000001" class="node">
<title>Node1</title>
<g id="a_Node000001"><a xlink:title="Get the shifted bits for val.">
<polygon fill="#999999" stroke="#666666" points="95,-24.5 0,-24.5 0,-5.5 95,-5.5 95,-24.5"/>
<text text-anchor="middle" x="47.5" y="-12.5" font-family="Helvetica,sans-Serif" font-size="10.00">cxx::Bitfield::val</text>
</a>
</g>
</g>
<!-- Node1&#45;&gt;Node1 -->
<g id="edge1_Node000001_Node000001" class="edge">
<title>Node1&#45;&gt;Node1</title>
<g id="a_edge1_Node000001_Node000001"><a xlink:title=" ">
<path fill="none" stroke="#63b8ff" d="M27.46,-24.58C17.72,-33.23 24.39,-42.5 47.5,-42.5 62.3,-42.5 70.36,-38.7 71.68,-33.69"/>
<polygon fill="#63b8ff" stroke="#63b8ff" points="74.86,-32.23 67.54,-24.58 68.49,-35.13 74.86,-32.23"/>
</a>
</g>
</g>
<!-- Node2 -->
<g id="Node000002" class="node">
<title>Node2</title>
<g id="a_Node000002"><a xlink:href="classcxx_1_1Bitfield.html#a8180660e03ca6acf85047dba64bb77a3" target="_top" xlink:title="Get the shifted bits for val.">
<polygon fill="white" stroke="#666666" points="226,-30 131,-30 131,0 226,0 226,-30"/>
<text text-anchor="start" x="139" y="-18" font-family="Helvetica,sans-Serif" font-size="10.00">cxx::Bitfield::val</text>
<text text-anchor="middle" x="178.5" y="-7" font-family="Helvetica,sans-Serif" font-size="10.00">_dirty</text>
</a>
</g>
</g>
<!-- Node1&#45;&gt;Node2 -->
<g id="edge2_Node000001_Node000002" class="edge">
<title>Node1&#45;&gt;Node2</title>
<g id="a_edge2_Node000001_Node000002"><a xlink:title=" ">
<path fill="none" stroke="#63b8ff" d="M95.07,-8.49C103.48,-8.26 112.32,-8.2 120.97,-8.3"/>
<polygon fill="#63b8ff" stroke="#63b8ff" points="120.93,-11.8 131,-8.49 121.07,-4.8 120.93,-11.8"/>
</a>
</g>
</g>
<!-- Node2&#45;&gt;Node1 -->
<g id="edge3_Node000002_Node000001" class="edge">
<title>Node2&#45;&gt;Node1</title>
<g id="a_edge3_Node000002_Node000001"><a xlink:title=" ">
<path fill="none" stroke="#63b8ff" d="M131,-21.51C122.6,-21.74 113.75,-21.8 105.1,-21.7"/>
<polygon fill="#63b8ff" stroke="#63b8ff" points="105.14,-18.2 95.07,-21.51 105,-25.2 105.14,-18.2"/>
</a>
</g>
</g>
</g>
</svg>
