<?xml version="1.0" encoding="UTF-8" standalone="no"?>
<!DOCTYPE svg PUBLIC "-//W3C//DTD SVG 1.1//EN"
 "http://www.w3.org/Graphics/SVG/1.1/DTD/svg11.dtd">
<!-- Generated by graphviz version 2.42.4 (0)
 -->
<!-- Title: L4virtio::Svr::Virtqueue::Head_desc::desc Pages: 1 -->
<svg width="1039pt" height="347pt"
 viewBox="0.00 0.00 1039.00 347.00" xmlns="http://www.w3.org/2000/svg" xmlns:xlink="http://www.w3.org/1999/xlink">
<g id="graph0" class="graph" transform="scale(1 1) rotate(0) translate(4 343)">
<title>L4virtio::Svr::Virtqueue::Head_desc::desc</title>
<!-- Node1 -->
<g id="Node000001" class="node">
<title>Node1</title>
<g id="a_Node000001"><a xlink:title=" ">
<polygon fill="#999999" stroke="#666666" points="1031,-147 903,-147 903,-117 1031,-117 1031,-147"/>
<text text-anchor="start" x="911" y="-135" font-family="Helvetica,sans-Serif" font-size="10.00">L4virtio::Svr::Virtqueue</text>
<text text-anchor="middle" x="967" y="-124" font-family="Helvetica,sans-Serif" font-size="10.00">::Head_desc::desc</text>
</a>
</g>
</g>
<!-- Node2 -->
<g id="Node000002" class="node">
<title>Node2</title>
<g id="a_Node000002"><a xlink:href="classL4virtio_1_1Svr_1_1Request__processor.html#abcf6a6b8bf80e0d73d45b5eb9e817abd" target="_top" xlink:title="Start processing a new request.">
<polygon fill="white" stroke="#666666" points="867,-147 746,-147 746,-117 867,-117 867,-147"/>
<text text-anchor="start" x="754" y="-135" font-family="Helvetica,sans-Serif" font-size="10.00">L4virtio::Svr::Request</text>
<text text-anchor="middle" x="806.5" y="-124" font-family="Helvetica,sans-Serif" font-size="10.00">_processor::start</text>
</a>
</g>
</g>
<!-- Node1&#45;&gt;Node2 -->
<g id="edge1_Node000001_Node000002" class="edge">
<title>Node1&#45;&gt;Node2</title>
<g id="a_edge1_Node000001_Node000002"><a xlink:title=" ">
<path fill="none" stroke="#63b8ff" d="M892.83,-132C884.19,-132 875.45,-132 867.03,-132"/>
<polygon fill="#63b8ff" stroke="#63b8ff" points="892.9,-135.5 902.9,-132 892.9,-128.5 892.9,-135.5"/>
</a>
</g>
</g>
<!-- Node3 -->
<g id="Node000003" class="node">
<title>Node3</title>
<g id="a_Node000003"><a xlink:href="classL4virtio_1_1Svr_1_1Block__request.html#a5f6bf664cda7dfe4f82d8726f6c33099" target="_top" xlink:title="Compute the total size of the data in the request.">
<polygon fill="white" stroke="#666666" points="695.5,-272 584.5,-272 584.5,-242 695.5,-242 695.5,-272"/>
<text text-anchor="start" x="592.5" y="-260" font-family="Helvetica,sans-Serif" font-size="10.00">L4virtio::Svr::Block</text>
<text text-anchor="middle" x="640" y="-249" font-family="Helvetica,sans-Serif" font-size="10.00">_request::data_size</text>
</a>
</g>
</g>
<!-- Node2&#45;&gt;Node3 -->
<g id="edge2_Node000002_Node000003" class="edge">
<title>Node2&#45;&gt;Node3</title>
<g id="a_edge2_Node000002_Node000003"><a xlink:title=" ">
<path fill="none" stroke="#63b8ff" d="M788.83,-155.28C771.48,-177.99 742.34,-212.08 710,-233 704.78,-236.37 699.03,-239.34 693.15,-241.92"/>
<polygon fill="#63b8ff" stroke="#63b8ff" points="791.7,-157.29 794.89,-147.18 786.1,-153.09 791.7,-157.29"/>
</a>
</g>
</g>
<!-- Node4 -->
<g id="Node000004" class="node">
<title>Node4</title>
<g id="a_Node000004"><a xlink:href="classL4virtio_1_1Svr_1_1Console_1_1Virtio__con.html#ab3766f6b0a63966a6063ae540bb844a1" target="_top" xlink:title="Handle control message received from the driver.">
<polygon fill="white" stroke="#666666" points="534,-145.5 385,-145.5 385,-104.5 534,-104.5 534,-145.5"/>
<text text-anchor="start" x="393" y="-133.5" font-family="Helvetica,sans-Serif" font-size="10.00">L4virtio::Svr::Console</text>
<text text-anchor="start" x="393" y="-122.5" font-family="Helvetica,sans-Serif" font-size="10.00">::Virtio_con::handle_control</text>
<text text-anchor="middle" x="459.5" y="-111.5" font-family="Helvetica,sans-Serif" font-size="10.00">_message</text>
</a>
</g>
</g>
<!-- Node2&#45;&gt;Node4 -->
<g id="edge3_Node000002_Node000004" class="edge">
<title>Node2&#45;&gt;Node4</title>
<g id="a_edge3_Node000002_Node000004"><a xlink:title=" ">
<path fill="none" stroke="#63b8ff" d="M735.78,-134.44C727.1,-134.67 718.34,-134.87 710,-135 647.79,-135.98 632.16,-137.83 570,-135 558.37,-134.47 546.06,-133.62 534.06,-132.64"/>
<polygon fill="#63b8ff" stroke="#63b8ff" points="736,-137.94 745.9,-134.16 735.81,-130.94 736,-137.94"/>
</a>
</g>
</g>
<!-- Node6 -->
<g id="Node000006" class="node">
<title>Node6</title>
<g id="a_Node000006"><a xlink:href="classL4virtio_1_1Svr_1_1Console_1_1Device.html#acf4b1bbf927d4d40b2532a7a18bf21bd" target="_top" xlink:title="Read data from port.">
<polygon fill="white" stroke="#666666" points="700,-126 580,-126 580,-96 700,-96 700,-126"/>
<text text-anchor="start" x="588" y="-114" font-family="Helvetica,sans-Serif" font-size="10.00">L4virtio::Svr::Console</text>
<text text-anchor="middle" x="640" y="-103" font-family="Helvetica,sans-Serif" font-size="10.00">::Device::port_read</text>
</a>
</g>
</g>
<!-- Node2&#45;&gt;Node6 -->
<g id="edge5_Node000002_Node000006" class="edge">
<title>Node2&#45;&gt;Node6</title>
<g id="a_edge5_Node000002_Node000006"><a xlink:title=" ">
<path fill="none" stroke="#63b8ff" d="M735.46,-123.06C723.74,-121.56 711.68,-120.02 700.26,-118.56"/>
<polygon fill="#63b8ff" stroke="#63b8ff" points="735.28,-126.56 745.65,-124.36 736.17,-119.62 735.28,-126.56"/>
</a>
</g>
</g>
<!-- Node7 -->
<g id="Node000007" class="node">
<title>Node7</title>
<g id="a_Node000007"><a xlink:href="classL4virtio_1_1Svr_1_1Console_1_1Device.html#a5b906c9cec86e9cf30dff4fe1edf1b11" target="_top" xlink:title="Write data to port.">
<polygon fill="white" stroke="#666666" points="700,-78 580,-78 580,-48 700,-48 700,-78"/>
<text text-anchor="start" x="588" y="-66" font-family="Helvetica,sans-Serif" font-size="10.00">L4virtio::Svr::Console</text>
<text text-anchor="middle" x="640" y="-55" font-family="Helvetica,sans-Serif" font-size="10.00">::Device::port_write</text>
</a>
</g>
</g>
<!-- Node2&#45;&gt;Node7 -->
<g id="edge6_Node000002_Node000007" class="edge">
<title>Node2&#45;&gt;Node7</title>
<g id="a_edge6_Node000002_Node000007"><a xlink:title=" ">
<path fill="none" stroke="#63b8ff" d="M766.6,-112.53C749.43,-104.23 728.9,-94.71 710,-87 702.48,-83.93 694.41,-80.9 686.54,-78.07"/>
<polygon fill="#63b8ff" stroke="#63b8ff" points="765.23,-115.76 775.75,-116.99 768.3,-109.46 765.23,-115.76"/>
</a>
</g>
</g>
<!-- Node8 -->
<g id="Node000008" class="node">
<title>Node8</title>
<g id="a_Node000008"><a xlink:href="classL4virtio_1_1Svr_1_1Console_1_1Virtio__con.html#ade546fa843dcfb4a0412757fee9834d7" target="_top" xlink:title="Send control message to driver.">
<polygon fill="white" stroke="#666666" points="710,-223.5 570,-223.5 570,-182.5 710,-182.5 710,-223.5"/>
<text text-anchor="start" x="578" y="-211.5" font-family="Helvetica,sans-Serif" font-size="10.00">L4virtio::Svr::Console</text>
<text text-anchor="start" x="578" y="-200.5" font-family="Helvetica,sans-Serif" font-size="10.00">::Virtio_con::send_control</text>
<text text-anchor="middle" x="640" y="-189.5" font-family="Helvetica,sans-Serif" font-size="10.00">_message</text>
</a>
</g>
</g>
<!-- Node2&#45;&gt;Node8 -->
<g id="edge7_Node000002_Node000008" class="edge">
<title>Node2&#45;&gt;Node8</title>
<g id="a_edge7_Node000002_Node000008"><a xlink:title=" ">
<path fill="none" stroke="#63b8ff" d="M761.31,-151.07C738.86,-160.76 711.55,-172.55 688.63,-182.44"/>
<polygon fill="#63b8ff" stroke="#63b8ff" points="762.82,-154.23 770.61,-147.06 760.05,-147.81 762.82,-154.23"/>
</a>
</g>
</g>
<!-- Node16 -->
<g id="Node000016" class="node">
<title>Node16</title>
<g id="a_Node000016"><a xlink:href="classL4virtio_1_1Svr_1_1Request__processor.html#a76dec7903350c50fe5ce0b8f7129f9bd" target="_top" xlink:title="Start processing a new request.">
<polygon fill="white" stroke="#666666" points="700.5,-30 579.5,-30 579.5,0 700.5,0 700.5,-30"/>
<text text-anchor="start" x="587.5" y="-18" font-family="Helvetica,sans-Serif" font-size="10.00">L4virtio::Svr::Request</text>
<text text-anchor="middle" x="640" y="-7" font-family="Helvetica,sans-Serif" font-size="10.00">_processor::start</text>
</a>
</g>
</g>
<!-- Node2&#45;&gt;Node16 -->
<g id="edge18_Node000002_Node000016" class="edge">
<title>Node2&#45;&gt;Node16</title>
<g id="a_edge18_Node000002_Node000016"><a xlink:title=" ">
<path fill="none" stroke="#63b8ff" d="M787.01,-108.95C769.23,-88.12 740.59,-57.9 710,-39 704.61,-35.67 698.69,-32.72 692.65,-30.14"/>
<polygon fill="#63b8ff" stroke="#63b8ff" points="784.4,-111.28 793.5,-116.7 789.77,-106.79 784.4,-111.28"/>
</a>
</g>
</g>
<!-- Node5 -->
<g id="Node000005" class="node">
<title>Node5</title>
<g id="a_Node000005"><a xlink:href="classL4virtio_1_1Svr_1_1Console_1_1Device.html#a7df13c65e5b01e4bd8140a1c9b6b3858" target="_top" xlink:title="Receive new control messages and resend stalled ones.">
<polygon fill="white" stroke="#666666" points="143,-212 0,-212 0,-182 143,-182 143,-212"/>
<text text-anchor="start" x="8" y="-200" font-family="Helvetica,sans-Serif" font-size="10.00">L4virtio::Svr::Console</text>
<text text-anchor="middle" x="71.5" y="-189" font-family="Helvetica,sans-Serif" font-size="10.00">::Device::do_control_work</text>
</a>
</g>
</g>
<!-- Node4&#45;&gt;Node5 -->
<g id="edge4_Node000004_Node000005" class="edge">
<title>Node4&#45;&gt;Node5</title>
<g id="a_edge4_Node000004_Node000005"><a xlink:title=" ">
<path fill="none" stroke="#63b8ff" d="M374.54,-122.2C318.29,-122.38 243.08,-126.62 179,-144 148.7,-152.22 116.84,-169.36 95.95,-181.93"/>
<polygon fill="#63b8ff" stroke="#63b8ff" points="374.81,-125.7 384.82,-122.21 374.82,-118.7 374.81,-125.7"/>
</a>
</g>
</g>
<!-- Node9 -->
<g id="Node000009" class="node">
<title>Node9</title>
<g id="a_Node000009"><a xlink:href="classL4virtio_1_1Svr_1_1Console_1_1Virtio__con.html#a88e370a9d1c9e029a8de04f68e380457" target="_top" xlink:title="Send a DEVICE_ADD message and update the internal state.">
<polygon fill="white" stroke="#666666" points="519.5,-290 399.5,-290 399.5,-260 519.5,-260 519.5,-290"/>
<text text-anchor="start" x="407.5" y="-278" font-family="Helvetica,sans-Serif" font-size="10.00">L4virtio::Svr::Console</text>
<text text-anchor="middle" x="459.5" y="-267" font-family="Helvetica,sans-Serif" font-size="10.00">::Virtio_con::port_add</text>
</a>
</g>
</g>
<!-- Node8&#45;&gt;Node9 -->
<g id="edge8_Node000008_Node000009" class="edge">
<title>Node8&#45;&gt;Node9</title>
<g id="a_edge8_Node000008_Node000009"><a xlink:title=" ">
<path fill="none" stroke="#63b8ff" d="M581.15,-227.88C577.37,-229.59 573.62,-231.31 570,-233 553.79,-240.57 550.55,-244.21 534,-251 526.3,-254.16 518.02,-257.2 509.89,-259.99"/>
<polygon fill="#63b8ff" stroke="#63b8ff" points="582.9,-230.93 590.6,-223.65 580.04,-224.54 582.9,-230.93"/>
</a>
</g>
</g>
<!-- Node12 -->
<g id="Node000012" class="node">
<title>Node12</title>
<g id="a_Node000012"><a xlink:href="classL4virtio_1_1Svr_1_1Console_1_1Virtio__con.html#a71decef04824571dd001527b9cff8ccb" target="_top" xlink:title="Send a PORT_OPEN message and update the internal state.">
<polygon fill="white" stroke="#666666" points="522.5,-242 396.5,-242 396.5,-212 522.5,-212 522.5,-242"/>
<text text-anchor="start" x="404.5" y="-230" font-family="Helvetica,sans-Serif" font-size="10.00">L4virtio::Svr::Console</text>
<text text-anchor="middle" x="459.5" y="-219" font-family="Helvetica,sans-Serif" font-size="10.00">::Virtio_con::port_open</text>
</a>
</g>
</g>
<!-- Node8&#45;&gt;Node12 -->
<g id="edge12_Node000008_Node000012" class="edge">
<title>Node8&#45;&gt;Node12</title>
<g id="a_edge12_Node000008_Node000012"><a xlink:title=" ">
<path fill="none" stroke="#63b8ff" d="M560.02,-213.62C547.49,-215.3 534.69,-217.02 522.62,-218.65"/>
<polygon fill="#63b8ff" stroke="#63b8ff" points="560.54,-217.08 569.99,-212.28 559.61,-210.14 560.54,-217.08"/>
</a>
</g>
</g>
<!-- Node14 -->
<g id="Node000014" class="node">
<title>Node14</title>
<g id="a_Node000014"><a xlink:href="classL4virtio_1_1Svr_1_1Console_1_1Virtio__con.html#a8335db1f605263cb6ccf2109b8993944" target="_top" xlink:title="Send a DEVICE_REMOVE message and update the internal state.">
<polygon fill="white" stroke="#666666" points="529.5,-194 389.5,-194 389.5,-164 529.5,-164 529.5,-194"/>
<text text-anchor="start" x="397.5" y="-182" font-family="Helvetica,sans-Serif" font-size="10.00">L4virtio::Svr::Console</text>
<text text-anchor="middle" x="459.5" y="-171" font-family="Helvetica,sans-Serif" font-size="10.00">::Virtio_con::port_remove</text>
</a>
</g>
</g>
<!-- Node8&#45;&gt;Node14 -->
<g id="edge15_Node000008_Node000014" class="edge">
<title>Node8&#45;&gt;Node14</title>
<g id="a_edge15_Node000008_Node000014"><a xlink:title=" ">
<path fill="none" stroke="#63b8ff" d="M559.96,-192.37C549.85,-191.01 539.56,-189.63 529.62,-188.29"/>
<polygon fill="#63b8ff" stroke="#63b8ff" points="559.61,-195.86 569.99,-193.72 560.54,-188.92 559.61,-195.86"/>
</a>
</g>
</g>
<!-- Node10 -->
<g id="Node000010" class="node">
<title>Node10</title>
<g id="a_Node000010"><a xlink:href="classL4virtio_1_1Svr_1_1Console_1_1Device.html#a7a27d977561bcd659d54644f91b3a307" target="_top" xlink:title="Callback called on DEVICE_READY event.">
<polygon fill="white" stroke="#666666" points="349,-339 179,-339 179,-309 349,-309 349,-339"/>
<text text-anchor="start" x="187" y="-327" font-family="Helvetica,sans-Serif" font-size="10.00">L4virtio::Svr::Console</text>
<text text-anchor="middle" x="264" y="-316" font-family="Helvetica,sans-Serif" font-size="10.00">::Device::process_device_ready</text>
</a>
</g>
</g>
<!-- Node9&#45;&gt;Node10 -->
<g id="edge9_Node000009_Node000010" class="edge">
<title>Node9&#45;&gt;Node10</title>
<g id="a_edge9_Node000009_Node000010"><a xlink:title=" ">
<path fill="none" stroke="#63b8ff" d="M389.45,-292.48C368.19,-297.87 344.97,-303.75 324.41,-308.95"/>
<polygon fill="#63b8ff" stroke="#63b8ff" points="390.56,-295.82 399.39,-289.97 388.84,-289.03 390.56,-295.82"/>
</a>
</g>
</g>
<!-- Node11 -->
<g id="Node000011" class="node">
<title>Node11</title>
<g id="a_Node000011"><a xlink:href="classL4virtio_1_1Svr_1_1Console_1_1Device.html#a5f8d5752548def0f7db1cbade7918d6a" target="_top" xlink:title="Try to resend a stalled control message and update the port and global state accordingly.">
<polygon fill="white" stroke="#666666" points="331,-290.5 197,-290.5 197,-249.5 331,-249.5 331,-290.5"/>
<text text-anchor="start" x="205" y="-278.5" font-family="Helvetica,sans-Serif" font-size="10.00">L4virtio::Svr::Console</text>
<text text-anchor="start" x="205" y="-267.5" font-family="Helvetica,sans-Serif" font-size="10.00">::Device::resend_stalled</text>
<text text-anchor="middle" x="264" y="-256.5" font-family="Helvetica,sans-Serif" font-size="10.00">_control_messages</text>
</a>
</g>
</g>
<!-- Node9&#45;&gt;Node11 -->
<g id="edge10_Node000009_Node000011" class="edge">
<title>Node9&#45;&gt;Node11</title>
<g id="a_edge10_Node000009_Node000011"><a xlink:title=" ">
<path fill="none" stroke="#63b8ff" d="M389.35,-273.21C370.42,-272.72 349.94,-272.19 331.18,-271.71"/>
<polygon fill="#63b8ff" stroke="#63b8ff" points="389.31,-276.71 399.39,-273.47 389.49,-269.72 389.31,-276.71"/>
</a>
</g>
</g>
<!-- Node11&#45;&gt;Node5 -->
<g id="edge11_Node000011_Node000005" class="edge">
<title>Node11&#45;&gt;Node5</title>
<g id="a_edge11_Node000011_Node000005"><a xlink:title=" ">
<path fill="none" stroke="#63b8ff" d="M194.89,-245.94C189.5,-243.96 184.16,-241.96 179,-240 155.52,-231.07 129.35,-220.51 108.83,-212.1"/>
<polygon fill="#63b8ff" stroke="#63b8ff" points="194,-249.34 204.59,-249.49 196.4,-242.77 194,-249.34"/>
</a>
</g>
</g>
<!-- Node12&#45;&gt;Node11 -->
<g id="edge14_Node000012_Node000011" class="edge">
<title>Node12&#45;&gt;Node11</title>
<g id="a_edge14_Node000012_Node000011"><a xlink:title=" ">
<path fill="none" stroke="#63b8ff" d="M386.52,-243C368.33,-247.04 348.89,-251.36 331.01,-255.33"/>
<polygon fill="#63b8ff" stroke="#63b8ff" points="387.47,-246.37 396.48,-240.78 385.96,-239.54 387.47,-246.37"/>
</a>
</g>
</g>
<!-- Node13 -->
<g id="Node000013" class="node">
<title>Node13</title>
<g id="a_Node000013"><a xlink:href="classL4virtio_1_1Svr_1_1Console_1_1Device.html#a718fd3f1885b00a1ac6f0d9d33e4b9f4" target="_top" xlink:title="Callback called on PORT_OPEN event.">
<polygon fill="white" stroke="#666666" points="341,-231 187,-231 187,-201 341,-201 341,-231"/>
<text text-anchor="start" x="195" y="-219" font-family="Helvetica,sans-Serif" font-size="10.00">L4virtio::Svr::Console</text>
<text text-anchor="middle" x="264" y="-208" font-family="Helvetica,sans-Serif" font-size="10.00">::Device::process_port_open</text>
</a>
</g>
</g>
<!-- Node12&#45;&gt;Node13 -->
<g id="edge13_Node000012_Node000013" class="edge">
<title>Node12&#45;&gt;Node13</title>
<g id="a_edge13_Node000012_Node000013"><a xlink:title=" ">
<path fill="none" stroke="#63b8ff" d="M386.42,-222.9C371.68,-222.06 356.13,-221.18 341.25,-220.33"/>
<polygon fill="#63b8ff" stroke="#63b8ff" points="386.29,-226.4 396.48,-223.47 386.69,-219.41 386.29,-226.4"/>
</a>
</g>
</g>
<!-- Node14&#45;&gt;Node11 -->
<g id="edge17_Node000014_Node000011" class="edge">
<title>Node14&#45;&gt;Node11</title>
<g id="a_edge17_Node000014_Node000011"><a xlink:title=" ">
<path fill="none" stroke="#63b8ff" d="M393.28,-198.35C390.42,-199.8 387.65,-201.35 385,-203 365.53,-215.14 368.3,-227.6 349,-240 343.4,-243.6 337.31,-246.84 331.05,-249.73"/>
<polygon fill="#63b8ff" stroke="#63b8ff" points="395,-201.41 402.61,-194.04 392.07,-195.05 395,-201.41"/>
</a>
</g>
</g>
<!-- Node15 -->
<g id="Node000015" class="node">
<title>Node15</title>
<g id="a_Node000015"><a xlink:href="classL4virtio_1_1Svr_1_1Console_1_1Device.html#a7dde9e63b6fb498c87b6c1ed9e60198f" target="_top" xlink:title="Callback called on PORT_READY event.">
<polygon fill="white" stroke="#666666" points="343,-183 185,-183 185,-153 343,-153 343,-183"/>
<text text-anchor="start" x="193" y="-171" font-family="Helvetica,sans-Serif" font-size="10.00">L4virtio::Svr::Console</text>
<text text-anchor="middle" x="264" y="-160" font-family="Helvetica,sans-Serif" font-size="10.00">::Device::process_port_ready</text>
</a>
</g>
</g>
<!-- Node14&#45;&gt;Node15 -->
<g id="edge16_Node000014_Node000015" class="edge">
<title>Node14&#45;&gt;Node15</title>
<g id="a_edge16_Node000014_Node000015"><a xlink:title=" ">
<path fill="none" stroke="#63b8ff" d="M379.15,-174.49C367.29,-173.82 355.07,-173.12 343.23,-172.45"/>
<polygon fill="#63b8ff" stroke="#63b8ff" points="379.28,-178 389.46,-175.08 379.68,-171.01 379.28,-178"/>
</a>
</g>
</g>
</g>
</svg>
