<?xml version="1.0" encoding="UTF-8" standalone="no"?>
<!DOCTYPE svg PUBLIC "-//W3C//DTD SVG 1.1//EN"
 "http://www.w3.org/Graphics/SVG/1.1/DTD/svg11.dtd">
<!-- Generated by graphviz version 2.42.4 (0)
 -->
<!-- Title: L4::Ipc::Ostream Pages: 1 -->
<svg width="111pt" height="577pt"
 viewBox="0.00 0.00 111.00 577.00" xmlns="http://www.w3.org/2000/svg" xmlns:xlink="http://www.w3.org/1999/xlink">
<g id="graph0" class="graph" transform="scale(1 1) rotate(0) translate(4 573)">
<title>L4::Ipc::Ostream</title>
<!-- Node1 -->
<g id="Node000001" class="node">
<title>Node1</title>
<g id="a_Node000001"><a xlink:title="Output stream for IPC marshalling.">
<polygon fill="#999999" stroke="transparent" points="96.5,-569 6.5,-569 6.5,-340 96.5,-340 96.5,-569"/>
<text text-anchor="start" x="11.5" y="-556.5" font-family="Helvetica,sans-Serif" font-size="10.00">L4::Ipc::Ostream</text>
<text text-anchor="start" x="49.5" y="-541.5" font-family="Helvetica,sans-Serif" font-size="10.00"> </text>
<text text-anchor="start" x="15" y="-526.5" font-family="Helvetica,sans-Serif" font-size="10.00">+</text>
<text text-anchor="start" x="32.5" y="-526.5" font-family="Helvetica,sans-Serif" font-size="10.00">Ostream()</text>
<text text-anchor="start" x="15" y="-511.5" font-family="Helvetica,sans-Serif" font-size="10.00">+</text>
<text text-anchor="start" x="32.5" y="-511.5" font-family="Helvetica,sans-Serif" font-size="10.00">reset()</text>
<text text-anchor="start" x="15" y="-496.5" font-family="Helvetica,sans-Serif" font-size="10.00">+</text>
<text text-anchor="start" x="32.5" y="-496.5" font-family="Helvetica,sans-Serif" font-size="10.00">utcb()</text>
<text text-anchor="start" x="15" y="-481.5" font-family="Helvetica,sans-Serif" font-size="10.00">+</text>
<text text-anchor="start" x="32.5" y="-481.5" font-family="Helvetica,sans-Serif" font-size="10.00">put()</text>
<text text-anchor="start" x="15" y="-466.5" font-family="Helvetica,sans-Serif" font-size="10.00">+</text>
<text text-anchor="start" x="32.5" y="-466.5" font-family="Helvetica,sans-Serif" font-size="10.00">put()</text>
<text text-anchor="start" x="15" y="-451.5" font-family="Helvetica,sans-Serif" font-size="10.00">+</text>
<text text-anchor="start" x="32.5" y="-451.5" font-family="Helvetica,sans-Serif" font-size="10.00">tag()</text>
<text text-anchor="start" x="15" y="-436.5" font-family="Helvetica,sans-Serif" font-size="10.00">+</text>
<text text-anchor="start" x="32.5" y="-436.5" font-family="Helvetica,sans-Serif" font-size="10.00">tag()</text>
<text text-anchor="start" x="15" y="-421.5" font-family="Helvetica,sans-Serif" font-size="10.00">+</text>
<text text-anchor="start" x="32.5" y="-421.5" font-family="Helvetica,sans-Serif" font-size="10.00">send()</text>
<text text-anchor="start" x="16.5" y="-406.5" font-family="Helvetica,sans-Serif" font-size="10.00">*</text>
<text text-anchor="start" x="32.5" y="-406.5" font-family="Helvetica,sans-Serif" font-size="10.00">put()</text>
<text text-anchor="start" x="16.5" y="-391.5" font-family="Helvetica,sans-Serif" font-size="10.00">*</text>
<text text-anchor="start" x="32.5" y="-391.5" font-family="Helvetica,sans-Serif" font-size="10.00">put()</text>
<text text-anchor="start" x="16.5" y="-376.5" font-family="Helvetica,sans-Serif" font-size="10.00">*</text>
<text text-anchor="start" x="32.5" y="-376.5" font-family="Helvetica,sans-Serif" font-size="10.00">tag()</text>
<text text-anchor="start" x="16.5" y="-361.5" font-family="Helvetica,sans-Serif" font-size="10.00">*</text>
<text text-anchor="start" x="32.5" y="-361.5" font-family="Helvetica,sans-Serif" font-size="10.00">tag()</text>
<text text-anchor="start" x="16.5" y="-346.5" font-family="Helvetica,sans-Serif" font-size="10.00">*</text>
<text text-anchor="start" x="32.5" y="-346.5" font-family="Helvetica,sans-Serif" font-size="10.00">send()</text>
<polygon fill="#666666" stroke="#666666" points="6.5,-551.5 6.5,-551.5 96.5,-551.5 96.5,-551.5 6.5,-551.5"/>
<polygon fill="#666666" stroke="#666666" points="6.5,-536.5 6.5,-536.5 96.5,-536.5 96.5,-536.5 6.5,-536.5"/>
<polygon fill="none" stroke="#666666" points="6.5,-340 6.5,-569 96.5,-569 96.5,-340 6.5,-340"/>
</a>
</g>
</g>
<!-- Node2 -->
<g id="Node000002" class="node">
<title>Node2</title>
<g id="a_Node000002"><a xlink:href="classL4_1_1Ipc_1_1Iostream.html" target="_top" xlink:title="Input/Output stream for IPC [un]marshalling.">
<polygon fill="white" stroke="transparent" points="103,-304 0,-304 0,0 103,0 103,-304"/>
<text text-anchor="start" x="11" y="-292" font-family="Helvetica,sans-Serif" font-size="10.00">L4::Ipc::Iostream</text>
<text text-anchor="start" x="50" y="-277" font-family="Helvetica,sans-Serif" font-size="10.00"> </text>
<text text-anchor="start" x="4.5" y="-262" font-family="Helvetica,sans-Serif" font-size="10.00">+</text>
<text text-anchor="start" x="17.5" y="-262" font-family="Helvetica,sans-Serif" font-size="10.00">Iostream()</text>
<text text-anchor="start" x="4.5" y="-247" font-family="Helvetica,sans-Serif" font-size="10.00">+</text>
<text text-anchor="start" x="17.5" y="-247" font-family="Helvetica,sans-Serif" font-size="10.00">reset()</text>
<text text-anchor="start" x="4.5" y="-232" font-family="Helvetica,sans-Serif" font-size="10.00">+</text>
<text text-anchor="start" x="17.5" y="-232" font-family="Helvetica,sans-Serif" font-size="10.00">call()</text>
<text text-anchor="start" x="4.5" y="-217" font-family="Helvetica,sans-Serif" font-size="10.00">+</text>
<text text-anchor="start" x="17.5" y="-217" font-family="Helvetica,sans-Serif" font-size="10.00">reply_and_wait()</text>
<text text-anchor="start" x="4.5" y="-202" font-family="Helvetica,sans-Serif" font-size="10.00">+</text>
<text text-anchor="start" x="17.5" y="-202" font-family="Helvetica,sans-Serif" font-size="10.00">reply_and_wait()</text>
<text text-anchor="start" x="4.5" y="-187" font-family="Helvetica,sans-Serif" font-size="10.00">+</text>
<text text-anchor="start" x="17.5" y="-187" font-family="Helvetica,sans-Serif" font-size="10.00">get()</text>
<text text-anchor="start" x="4.5" y="-172" font-family="Helvetica,sans-Serif" font-size="10.00">+</text>
<text text-anchor="start" x="17.5" y="-172" font-family="Helvetica,sans-Serif" font-size="10.00">get()</text>
<text text-anchor="start" x="4.5" y="-157" font-family="Helvetica,sans-Serif" font-size="10.00">+</text>
<text text-anchor="start" x="17.5" y="-157" font-family="Helvetica,sans-Serif" font-size="10.00">get()</text>
<text text-anchor="start" x="4.5" y="-142" font-family="Helvetica,sans-Serif" font-size="10.00">+</text>
<text text-anchor="start" x="17.5" y="-142" font-family="Helvetica,sans-Serif" font-size="10.00">put()</text>
<text text-anchor="start" x="4.5" y="-127" font-family="Helvetica,sans-Serif" font-size="10.00">+</text>
<text text-anchor="start" x="17.5" y="-127" font-family="Helvetica,sans-Serif" font-size="10.00">put()</text>
<text text-anchor="start" x="6" y="-112" font-family="Helvetica,sans-Serif" font-size="10.00">*</text>
<text text-anchor="start" x="17.5" y="-112" font-family="Helvetica,sans-Serif" font-size="10.00">call()</text>
<text text-anchor="start" x="6" y="-97" font-family="Helvetica,sans-Serif" font-size="10.00">*</text>
<text text-anchor="start" x="17.5" y="-97" font-family="Helvetica,sans-Serif" font-size="10.00">reply_and_wait()</text>
<text text-anchor="start" x="6" y="-82" font-family="Helvetica,sans-Serif" font-size="10.00">*</text>
<text text-anchor="start" x="17.5" y="-82" font-family="Helvetica,sans-Serif" font-size="10.00">reply_and_wait()</text>
<text text-anchor="start" x="6" y="-67" font-family="Helvetica,sans-Serif" font-size="10.00">*</text>
<text text-anchor="start" x="17.5" y="-67" font-family="Helvetica,sans-Serif" font-size="10.00">get()</text>
<text text-anchor="start" x="6" y="-52" font-family="Helvetica,sans-Serif" font-size="10.00">*</text>
<text text-anchor="start" x="17.5" y="-52" font-family="Helvetica,sans-Serif" font-size="10.00">get()</text>
<text text-anchor="start" x="6" y="-37" font-family="Helvetica,sans-Serif" font-size="10.00">*</text>
<text text-anchor="start" x="17.5" y="-37" font-family="Helvetica,sans-Serif" font-size="10.00">get()</text>
<text text-anchor="start" x="6" y="-22" font-family="Helvetica,sans-Serif" font-size="10.00">*</text>
<text text-anchor="start" x="17.5" y="-22" font-family="Helvetica,sans-Serif" font-size="10.00">put()</text>
<text text-anchor="start" x="6" y="-7" font-family="Helvetica,sans-Serif" font-size="10.00">*</text>
<text text-anchor="start" x="17.5" y="-7" font-family="Helvetica,sans-Serif" font-size="10.00">put()</text>
<polygon fill="#666666" stroke="#666666" points="0.5,-287 0.5,-287 103.5,-287 103.5,-287 0.5,-287"/>
<polygon fill="#666666" stroke="#666666" points="0.5,-272 0.5,-272 103.5,-272 103.5,-272 0.5,-272"/>
<polygon fill="none" stroke="#666666" points="0,0 0,-304 103,-304 103,0 0,0"/>
</a>
</g>
</g>
<!-- Node1&#45;&gt;Node2 -->
<g id="edge1_Node000001_Node000002" class="edge">
<title>Node1&#45;&gt;Node2</title>
<g id="a_edge1_Node000001_Node000002"><a xlink:title=" ">
<path fill="none" stroke="#63b8ff" d="M51.5,-329.66C51.5,-321.22 51.5,-312.66 51.5,-304.1"/>
<polygon fill="none" stroke="#63b8ff" points="48,-329.89 51.5,-339.89 55,-329.89 48,-329.89"/>
</a>
</g>
</g>
</g>
</svg>
