<?xml version="1.0" encoding="UTF-8" standalone="no"?>
<!DOCTYPE svg PUBLIC "-//W3C//DTD SVG 1.1//EN"
 "http://www.w3.org/Graphics/SVG/1.1/DTD/svg11.dtd">
<!-- Generated by graphviz version 2.43.0 (0)
 -->
<!-- Title: cxx::Bits::Bst::rend Pages: 1 -->
<svg width="261pt" height="86pt"
 viewBox="0.00 0.00 261.00 86.00" xmlns="http://www.w3.org/2000/svg" xmlns:xlink="http://www.w3.org/1999/xlink">
<g id="graph0" class="graph" transform="scale(1 1) rotate(0) translate(4 82)">
<title>cxx::Bits::Bst::rend</title>
<!-- Node1 -->
<g id="Node000001" class="node">
<title>Node1</title>
<g id="a_Node000001"><a xlink:title="Get the end marker for the constant backward iterator.">
<polygon fill="#999999" stroke="#666666" points="253,-48.5 145,-48.5 145,-29.5 253,-29.5 253,-48.5"/>
<text text-anchor="middle" x="199" y="-36.5" font-family="Helvetica,sans-Serif" font-size="10.00">cxx::Bits::Bst::rend</text>
</a>
</g>
</g>
<!-- Node2 -->
<g id="Node000002" class="node">
<title>Node2</title>
<g id="a_Node000002"><a xlink:href="classcxx_1_1Bits_1_1Base__avl__set.html#a8ffade2ef0bc3b523d937e6ca781cde2" target="_top" xlink:title="Get the end marker for the mutable backward iterator.">
<polygon fill="white" stroke="#666666" points="109,-78 0,-78 0,-48 109,-48 109,-78"/>
<text text-anchor="start" x="8" y="-66" font-family="Helvetica,sans-Serif" font-size="10.00">cxx::Bits::Base_avl</text>
<text text-anchor="middle" x="54.5" y="-55" font-family="Helvetica,sans-Serif" font-size="10.00">_set::rend</text>
</a>
</g>
</g>
<!-- Node1&#45;&gt;Node2 -->
<g id="edge1_Node000001_Node000002" class="edge">
<title>Node1&#45;&gt;Node2</title>
<g id="a_edge1_Node000001_Node000002"><a xlink:title=" ">
<path fill="none" stroke="#63b8ff" d="M134.92,-49.62C126.3,-51.08 117.51,-52.56 109.08,-53.98"/>
<polygon fill="#63b8ff" stroke="#63b8ff" points="135.66,-53.05 144.94,-47.94 134.5,-46.15 135.66,-53.05"/>
</a>
</g>
</g>
<!-- Node3 -->
<g id="Node000003" class="node">
<title>Node3</title>
<g id="a_Node000003"><a xlink:href="classcxx_1_1Bits_1_1Base__avl__set.html#a8368aaa3e6700113a97620f6c482e110" target="_top" xlink:title="Get the end marker for the constant backward iterator.">
<polygon fill="white" stroke="#666666" points="109,-30 0,-30 0,0 109,0 109,-30"/>
<text text-anchor="start" x="8" y="-18" font-family="Helvetica,sans-Serif" font-size="10.00">cxx::Bits::Base_avl</text>
<text text-anchor="middle" x="54.5" y="-7" font-family="Helvetica,sans-Serif" font-size="10.00">_set::rend</text>
</a>
</g>
</g>
<!-- Node1&#45;&gt;Node3 -->
<g id="edge2_Node000001_Node000003" class="edge">
<title>Node1&#45;&gt;Node3</title>
<g id="a_edge2_Node000001_Node000003"><a xlink:title=" ">
<path fill="none" stroke="#63b8ff" d="M134.92,-28.38C126.3,-26.92 117.51,-25.44 109.08,-24.02"/>
<polygon fill="#63b8ff" stroke="#63b8ff" points="134.5,-31.85 144.94,-30.06 135.66,-24.95 134.5,-31.85"/>
</a>
</g>
</g>
</g>
</svg>
