<?xml version="1.0" encoding="UTF-8" standalone="no"?>
<!DOCTYPE svg PUBLIC "-//W3C//DTD SVG 1.1//EN"
 "http://www.w3.org/Graphics/SVG/1.1/DTD/svg11.dtd">
<!-- Generated by graphviz version 2.43.0 (0)
 -->
<!-- Title: L4virtio::Driver::Virtio_net_device::wait_rx Pages: 1 -->
<svg width="739pt" height="154pt"
 viewBox="0.00 0.00 739.00 154.00" xmlns="http://www.w3.org/2000/svg" xmlns:xlink="http://www.w3.org/1999/xlink">
<g id="graph0" class="graph" transform="scale(1 1) rotate(0) translate(4 150)">
<title>L4virtio::Driver::Virtio_net_device::wait_rx</title>
<!-- Node1 -->
<g id="Node000001" class="node">
<title>Node1</title>
<g id="a_Node000001"><a xlink:title="Block until a network packet has been received from the device and return the descriptor number.">
<polygon fill="#999999" stroke="#666666" points="122,-114.5 0,-114.5 0,-84.5 122,-84.5 122,-114.5"/>
<text text-anchor="start" x="8" y="-102.5" font-family="Helvetica,sans-Serif" font-size="10.00">L4virtio::Driver::Virtio</text>
<text text-anchor="middle" x="61" y="-91.5" font-family="Helvetica,sans-Serif" font-size="10.00">_net_device::wait_rx</text>
</a>
</g>
</g>
<!-- Node2 -->
<g id="Node000002" class="node">
<title>Node2</title>
<g id="a_Node000002"><a xlink:href="namespaceL4Re.html#a3f17984019f06676a7e3eecb41bbb0bb" target="_top" xlink:title="Generate C++ exception on error.">
<polygon fill="white" stroke="#666666" points="262.5,-146 182.5,-146 182.5,-127 262.5,-127 262.5,-146"/>
<text text-anchor="middle" x="222.5" y="-134" font-family="Helvetica,sans-Serif" font-size="10.00">L4Re::chksys</text>
</a>
</g>
</g>
<!-- Node1&#45;&gt;Node2 -->
<g id="edge1_Node000001_Node000002" class="edge">
<title>Node1&#45;&gt;Node2</title>
<g id="a_edge1_Node000001_Node000002"><a xlink:title=" ">
<path fill="none" stroke="#63b8ff" d="M122.3,-113.49C138.8,-117.32 156.48,-121.42 172.28,-125.08"/>
<polygon fill="#63b8ff" stroke="#63b8ff" points="171.83,-128.57 182.36,-127.42 173.41,-121.75 171.83,-128.57"/>
</a>
</g>
</g>
<!-- Node4 -->
<g id="Node000004" class="node">
<title>Node4</title>
<g id="a_Node000004"><a xlink:href="group__cxx__api.html#ga0bd9662898a7499fcd3feefe594a699b" target="_top" xlink:title="Get the minimum of a and b.">
<polygon fill="white" stroke="#666666" points="252,-109 193,-109 193,-90 252,-90 252,-109"/>
<text text-anchor="middle" x="222.5" y="-97" font-family="Helvetica,sans-Serif" font-size="10.00">cxx::min</text>
</a>
</g>
</g>
<!-- Node1&#45;&gt;Node4 -->
<g id="edge3_Node000001_Node000004" class="edge">
<title>Node1&#45;&gt;Node4</title>
<g id="a_edge3_Node000001_Node000004"><a xlink:title=" ">
<path fill="none" stroke="#63b8ff" d="M122.3,-99.5C142.51,-99.5 164.49,-99.5 182.61,-99.5"/>
<polygon fill="#63b8ff" stroke="#63b8ff" points="182.79,-103 192.79,-99.5 182.79,-96 182.79,-103"/>
</a>
</g>
</g>
<!-- Node5 -->
<g id="Node000005" class="node">
<title>Node5</title>
<g id="a_Node000005"><a xlink:href="classL4virtio_1_1Driver_1_1Device.html#a3b5274cb8d4e708beea944038b855885" target="_top" xlink:title="Wait for the next item to arrive in the used queue and return it.">
<polygon fill="white" stroke="#666666" points="287,-71.5 158,-71.5 158,-41.5 287,-41.5 287,-71.5"/>
<text text-anchor="start" x="166" y="-59.5" font-family="Helvetica,sans-Serif" font-size="10.00">L4virtio::Driver::Device</text>
<text text-anchor="middle" x="222.5" y="-48.5" font-family="Helvetica,sans-Serif" font-size="10.00">::wait_for_next_used</text>
</a>
</g>
</g>
<!-- Node1&#45;&gt;Node5 -->
<g id="edge4_Node000001_Node000005" class="edge">
<title>Node1&#45;&gt;Node5</title>
<g id="a_edge4_Node000001_Node000005"><a xlink:title=" ">
<path fill="none" stroke="#63b8ff" d="M117.79,-84.46C130.05,-81.15 143.14,-77.62 155.76,-74.22"/>
<polygon fill="#63b8ff" stroke="#63b8ff" points="157,-77.51 165.75,-71.53 155.18,-70.75 157,-77.51"/>
</a>
</g>
</g>
<!-- Node3 -->
<g id="Node000003" class="node">
<title>Node3</title>
<g id="a_Node000003"><a xlink:href="namespaceL4Re.html#ae27ac6f274f4ad1267d0d1c0c033c00b" target="_top" xlink:title="Generate C++ exception.">
<polygon fill="white" stroke="#666666" points="446,-146 343,-146 343,-127 446,-127 446,-146"/>
<text text-anchor="middle" x="394.5" y="-134" font-family="Helvetica,sans-Serif" font-size="10.00">L4Re::throw_error</text>
</a>
</g>
</g>
<!-- Node2&#45;&gt;Node3 -->
<g id="edge2_Node000002_Node000003" class="edge">
<title>Node2&#45;&gt;Node3</title>
<g id="a_edge2_Node000002_Node000003"><a xlink:title=" ">
<path fill="none" stroke="#63b8ff" d="M262.5,-136.5C283.25,-136.5 309.23,-136.5 332.58,-136.5"/>
<polygon fill="#63b8ff" stroke="#63b8ff" points="332.74,-140 342.74,-136.5 332.74,-133 332.74,-140"/>
</a>
</g>
</g>
<!-- Node6 -->
<g id="Node000006" class="node">
<title>Node6</title>
<g id="a_Node000006"><a xlink:href="classL4virtio_1_1Driver_1_1Virtqueue.html#a6d320be956d592d0a064fb89c5a69ba5" target="_top" xlink:title="Return the next finished block.">
<polygon fill="white" stroke="#666666" points="466,-90.5 323,-90.5 323,-60.5 466,-60.5 466,-90.5"/>
<text text-anchor="start" x="331" y="-78.5" font-family="Helvetica,sans-Serif" font-size="10.00">L4virtio::Driver::Virtqueue</text>
<text text-anchor="middle" x="394.5" y="-67.5" font-family="Helvetica,sans-Serif" font-size="10.00">::find_next_used</text>
</a>
</g>
</g>
<!-- Node5&#45;&gt;Node6 -->
<g id="edge5_Node000005_Node000006" class="edge">
<title>Node5&#45;&gt;Node6</title>
<g id="a_edge5_Node000005_Node000006"><a xlink:title=" ">
<path fill="none" stroke="#63b8ff" d="M287.29,-63.63C295.61,-64.56 304.23,-65.52 312.8,-66.48"/>
<polygon fill="#63b8ff" stroke="#63b8ff" points="312.47,-69.97 322.8,-67.6 313.25,-63.01 312.47,-69.97"/>
</a>
</g>
</g>
<!-- Node7 -->
<g id="Node000007" class="node">
<title>Node7</title>
<g id="a_Node000007"><a xlink:href="classL4virtio_1_1Driver_1_1Device.html#a05a02d57ddf646f029311ca8a63f4081" target="_top" xlink:title="Wait for a notification from the device.">
<polygon fill="white" stroke="#666666" points="459,-42.5 330,-42.5 330,-12.5 459,-12.5 459,-42.5"/>
<text text-anchor="start" x="338" y="-30.5" font-family="Helvetica,sans-Serif" font-size="10.00">L4virtio::Driver::Device</text>
<text text-anchor="middle" x="394.5" y="-19.5" font-family="Helvetica,sans-Serif" font-size="10.00">::wait</text>
</a>
</g>
</g>
<!-- Node5&#45;&gt;Node7 -->
<g id="edge6_Node000005_Node000007" class="edge">
<title>Node5&#45;&gt;Node7</title>
<g id="a_edge6_Node000005_Node000007"><a xlink:title=" ">
<path fill="none" stroke="#63b8ff" d="M287.29,-45.62C297.96,-43.8 309.11,-41.9 320.01,-40.04"/>
<polygon fill="#63b8ff" stroke="#63b8ff" points="320.65,-43.48 329.92,-38.35 319.48,-36.58 320.65,-43.48"/>
</a>
</g>
</g>
<!-- Node8 -->
<g id="Node000008" class="node">
<title>Node8</title>
<g id="a_Node000008"><a xlink:href="group__l4__ipc__err__api.html#gad40f404217497793e95a10d77a47db39" target="_top" xlink:title="Get the IPC error code for an IPC operation.">
<polygon fill="white" stroke="#666666" points="576,-56 502,-56 502,-37 576,-37 576,-56"/>
<text text-anchor="middle" x="539" y="-44" font-family="Helvetica,sans-Serif" font-size="10.00">l4_ipc_error</text>
</a>
</g>
</g>
<!-- Node7&#45;&gt;Node8 -->
<g id="edge7_Node000007_Node000008" class="edge">
<title>Node7&#45;&gt;Node8</title>
<g id="a_edge7_Node000007_Node000008"><a xlink:title=" ">
<path fill="none" stroke="#63b8ff" d="M459.25,-36C470.14,-37.45 481.27,-38.94 491.6,-40.31"/>
<polygon fill="#63b8ff" stroke="#63b8ff" points="491.26,-43.8 501.63,-41.65 492.18,-36.86 491.26,-43.8"/>
</a>
</g>
</g>
<!-- Node10 -->
<g id="Node000010" class="node">
<title>Node10</title>
<g id="a_Node000010"><a xlink:href="group__l4__utcb__api.html#gadc099b4a59e1d99638c72c11a8c8b644" target="_top" xlink:title="Get the UTCB address.">
<polygon fill="white" stroke="#666666" points="565,-19 513,-19 513,0 565,0 565,-19"/>
<text text-anchor="middle" x="539" y="-7" font-family="Helvetica,sans-Serif" font-size="10.00">l4_utcb</text>
</a>
</g>
</g>
<!-- Node7&#45;&gt;Node10 -->
<g id="edge9_Node000007_Node000010" class="edge">
<title>Node7&#45;&gt;Node10</title>
<g id="a_edge9_Node000007_Node000010"><a xlink:title=" ">
<path fill="none" stroke="#63b8ff" d="M459.25,-19.45C474.22,-17.56 489.63,-15.61 502.81,-13.94"/>
<polygon fill="#63b8ff" stroke="#63b8ff" points="503.37,-17.4 512.85,-12.68 502.49,-10.46 503.37,-17.4"/>
</a>
</g>
</g>
<!-- Node9 -->
<g id="Node000009" class="node">
<title>Node9</title>
<g id="a_Node000009"><a xlink:href="group__l4__msgtag__api.html#ga52e71bb66855f4d78fa5c82b5f0c5a87" target="_top" xlink:title="Test for error indicator flag.">
<polygon fill="white" stroke="#666666" points="731,-56 612,-56 612,-37 731,-37 731,-56"/>
<text text-anchor="middle" x="671.5" y="-44" font-family="Helvetica,sans-Serif" font-size="10.00">l4_msgtag_has_error</text>
</a>
</g>
</g>
<!-- Node8&#45;&gt;Node9 -->
<g id="edge8_Node000008_Node000009" class="edge">
<title>Node8&#45;&gt;Node9</title>
<g id="a_edge8_Node000008_Node000009"><a xlink:title=" ">
<path fill="none" stroke="#63b8ff" d="M576.01,-46.5C583.92,-46.5 592.56,-46.5 601.3,-46.5"/>
<polygon fill="#63b8ff" stroke="#63b8ff" points="601.56,-50 611.56,-46.5 601.56,-43 601.56,-50"/>
</a>
</g>
</g>
</g>
</svg>
