<?xml version="1.0" encoding="UTF-8" standalone="no"?>
<!DOCTYPE svg PUBLIC "-//W3C//DTD SVG 1.1//EN"
 "http://www.w3.org/Graphics/SVG/1.1/DTD/svg11.dtd">
<!-- Generated by graphviz version 2.43.0 (0)
 -->
<!-- Title: L4::Kip::Mem_desc::start Pages: 1 -->
<svg width="292pt" height="64pt"
 viewBox="0.00 0.00 292.00 64.00" xmlns="http://www.w3.org/2000/svg" xmlns:xlink="http://www.w3.org/1999/xlink">
<g id="graph0" class="graph" transform="scale(1 1) rotate(0) translate(4 60)">
<title>L4::Kip::Mem_desc::start</title>
<!-- Node1 -->
<g id="Node000001" class="node">
<title>Node1</title>
<g id="a_Node000001"><a xlink:title="Return start address of memory descriptor.">
<polygon fill="#999999" stroke="#666666" points="284,-42.5 170,-42.5 170,-12.5 284,-12.5 284,-42.5"/>
<text text-anchor="start" x="178" y="-30.5" font-family="Helvetica,sans-Serif" font-size="10.00">L4::Kip::Mem_desc::</text>
<text text-anchor="middle" x="227" y="-19.5" font-family="Helvetica,sans-Serif" font-size="10.00">start</text>
</a>
</g>
</g>
<!-- Node2 -->
<g id="Node000002" class="node">
<title>Node2</title>
<g id="a_Node000002"><a xlink:href="classL4_1_1Kip_1_1Mem__desc.html#a48fd081bd276556acfbaae5f3f8f814b" target="_top" xlink:title="Set values of a memory descriptor.">
<polygon fill="white" stroke="#666666" points="131.5,-56 2.5,-56 2.5,-37 131.5,-37 131.5,-56"/>
<text text-anchor="middle" x="67" y="-44" font-family="Helvetica,sans-Serif" font-size="10.00">L4::Kip::Mem_desc::set</text>
</a>
</g>
</g>
<!-- Node1&#45;&gt;Node2 -->
<g id="edge1_Node000001_Node000002" class="edge">
<title>Node1&#45;&gt;Node2</title>
<g id="a_edge1_Node000001_Node000002"><a xlink:title=" ">
<path fill="none" stroke="#63b8ff" d="M159.81,-35.46C150.44,-36.59 140.82,-37.74 131.5,-38.86"/>
<polygon fill="#63b8ff" stroke="#63b8ff" points="160.34,-38.92 169.85,-34.25 159.5,-31.97 160.34,-38.92"/>
</a>
</g>
</g>
<!-- Node3 -->
<g id="Node000003" class="node">
<title>Node3</title>
<g id="a_Node000003"><a xlink:href="classL4_1_1Kip_1_1Mem__desc.html#aed690d186404b5bc353e9e60a52d9d80" target="_top" xlink:title="Return size of region described by the memory descriptor.">
<polygon fill="white" stroke="#666666" points="134,-19 0,-19 0,0 134,0 134,-19"/>
<text text-anchor="middle" x="67" y="-7" font-family="Helvetica,sans-Serif" font-size="10.00">L4::Kip::Mem_desc::size</text>
</a>
</g>
</g>
<!-- Node1&#45;&gt;Node3 -->
<g id="edge2_Node000001_Node000003" class="edge">
<title>Node1&#45;&gt;Node3</title>
<g id="a_edge2_Node000001_Node000003"><a xlink:title=" ">
<path fill="none" stroke="#63b8ff" d="M159.7,-19.95C151.28,-18.99 142.65,-18 134.23,-17.05"/>
<polygon fill="#63b8ff" stroke="#63b8ff" points="159.52,-23.45 169.85,-21.1 160.31,-16.49 159.52,-23.45"/>
</a>
</g>
</g>
</g>
</svg>
