<?xml version="1.0" encoding="UTF-8" standalone="no"?>
<!DOCTYPE svg PUBLIC "-//W3C//DTD SVG 1.1//EN"
 "http://www.w3.org/Graphics/SVG/1.1/DTD/svg11.dtd">
<!-- Generated by graphviz version 2.42.4 (0)
 -->
<!-- Title: L4vbus::Pm&lt; DEC &gt; Pages: 1 -->
<svg width="573pt" height="625pt"
 viewBox="0.00 0.00 573.00 625.00" xmlns="http://www.w3.org/2000/svg" xmlns:xlink="http://www.w3.org/1999/xlink">
<g id="graph0" class="graph" transform="scale(1 1) rotate(0) translate(4 621)">
<title>L4vbus::Pm&lt; DEC &gt;</title>
<!-- Node1 -->
<g id="Node000001" class="node">
<title>Node1</title>
<g id="a_Node000001"><a xlink:title="Power&#45;management API mixin.">
<polygon fill="#999999" stroke="transparent" points="334,-617 224,-617 224,-553 334,-553 334,-617"/>
<text text-anchor="start" x="229" y="-605" font-family="Helvetica,sans-Serif" font-size="10.00">L4vbus::Pm&lt; DEC &gt;</text>
<text text-anchor="start" x="277" y="-590" font-family="Helvetica,sans-Serif" font-size="10.00"> </text>
<text text-anchor="start" x="232.5" y="-575" font-family="Helvetica,sans-Serif" font-size="10.00">+</text>
<text text-anchor="start" x="250" y="-575" font-family="Helvetica,sans-Serif" font-size="10.00">pm_suspend()</text>
<text text-anchor="start" x="232.5" y="-560" font-family="Helvetica,sans-Serif" font-size="10.00">+</text>
<text text-anchor="start" x="250" y="-560" font-family="Helvetica,sans-Serif" font-size="10.00">pm_resume()</text>
<polygon fill="#666666" stroke="#666666" points="224,-600 224,-600 334,-600 334,-600 224,-600"/>
<polygon fill="#666666" stroke="#666666" points="224,-585 224,-585 334,-585 334,-585 224,-585"/>
<polygon fill="none" stroke="#666666" points="224,-553 224,-617 334,-617 334,-553 224,-553"/>
</a>
</g>
</g>
<!-- Node2 -->
<g id="Node000002" class="node">
<title>Node2</title>
<g id="a_Node000002"><a xlink:href="classL4vbus_1_1Pm.html" target="_top" xlink:title=" ">
<polygon fill="white" stroke="transparent" points="340.5,-506 217.5,-506 217.5,-442 340.5,-442 340.5,-506"/>
<text text-anchor="start" x="223" y="-494" font-family="Helvetica,sans-Serif" font-size="10.00">L4vbus::Pm&lt; Device &gt;</text>
<text text-anchor="start" x="277.5" y="-479" font-family="Helvetica,sans-Serif" font-size="10.00"> </text>
<text text-anchor="start" x="230" y="-464" font-family="Helvetica,sans-Serif" font-size="10.00">+</text>
<text text-anchor="start" x="251" y="-464" font-family="Helvetica,sans-Serif" font-size="10.00">pm_suspend()</text>
<text text-anchor="start" x="230" y="-449" font-family="Helvetica,sans-Serif" font-size="10.00">+</text>
<text text-anchor="start" x="251" y="-449" font-family="Helvetica,sans-Serif" font-size="10.00">pm_resume()</text>
<polygon fill="#666666" stroke="#666666" points="218,-489 218,-489 341,-489 341,-489 218,-489"/>
<polygon fill="#666666" stroke="#666666" points="218,-474 218,-474 341,-474 341,-474 218,-474"/>
<polygon fill="none" stroke="#666666" points="217.5,-442 217.5,-506 340.5,-506 340.5,-442 217.5,-442"/>
</a>
</g>
</g>
<!-- Node1&#45;&gt;Node2 -->
<g id="edge1_Node000001_Node000002" class="edge">
<title>Node1&#45;&gt;Node2</title>
<g id="a_edge1_Node000001_Node000002"><a xlink:title=" ">
<path fill="none" stroke="orange" d="M279,-542.49C279,-530.46 279,-517.53 279,-506.24"/>
<polygon fill="orange" stroke="orange" points="275.5,-542.76 279,-552.76 282.5,-542.77 275.5,-542.76"/>
</a>
</g>
<text text-anchor="middle" x="309" y="-527" font-family="Helvetica,sans-Serif" font-size="10.00" fill="grey"> &lt; Device &gt;</text>
</g>
<!-- Node3 -->
<g id="Node000003" class="node">
<title>Node3</title>
<g id="a_Node000003"><a xlink:href="classL4vbus_1_1Device.html" target="_top" xlink:title="Device on a L4vbus::Vbus.">
<polygon fill="white" stroke="transparent" points="328.5,-405 229.5,-405 229.5,-191 328.5,-191 328.5,-405"/>
<text text-anchor="start" x="242" y="-393" font-family="Helvetica,sans-Serif" font-size="10.00">L4vbus::Device</text>
<text text-anchor="start" x="234" y="-378" font-family="Helvetica,sans-Serif" font-size="10.00">#</text>
<text text-anchor="start" x="247" y="-378" font-family="Helvetica,sans-Serif" font-size="10.00">_bus</text>
<text text-anchor="start" x="234" y="-363" font-family="Helvetica,sans-Serif" font-size="10.00">#</text>
<text text-anchor="start" x="247" y="-363" font-family="Helvetica,sans-Serif" font-size="10.00">_dev</text>
<text text-anchor="start" x="234" y="-348" font-family="Helvetica,sans-Serif" font-size="10.00">+</text>
<text text-anchor="start" x="247" y="-348" font-family="Helvetica,sans-Serif" font-size="10.00">Device()</text>
<text text-anchor="start" x="234" y="-333" font-family="Helvetica,sans-Serif" font-size="10.00">+</text>
<text text-anchor="start" x="247" y="-333" font-family="Helvetica,sans-Serif" font-size="10.00">Device()</text>
<text text-anchor="start" x="234" y="-318" font-family="Helvetica,sans-Serif" font-size="10.00">+</text>
<text text-anchor="start" x="247" y="-318" font-family="Helvetica,sans-Serif" font-size="10.00">bus_cap()</text>
<text text-anchor="start" x="234" y="-303" font-family="Helvetica,sans-Serif" font-size="10.00">+</text>
<text text-anchor="start" x="247" y="-303" font-family="Helvetica,sans-Serif" font-size="10.00">dev_handle()</text>
<text text-anchor="start" x="234" y="-288" font-family="Helvetica,sans-Serif" font-size="10.00">+</text>
<text text-anchor="start" x="247" y="-288" font-family="Helvetica,sans-Serif" font-size="10.00">device_by_hid()</text>
<text text-anchor="start" x="234" y="-273" font-family="Helvetica,sans-Serif" font-size="10.00">+</text>
<text text-anchor="start" x="247" y="-273" font-family="Helvetica,sans-Serif" font-size="10.00">next_device()</text>
<text text-anchor="start" x="234" y="-258" font-family="Helvetica,sans-Serif" font-size="10.00">+</text>
<text text-anchor="start" x="247" y="-258" font-family="Helvetica,sans-Serif" font-size="10.00">device()</text>
<text text-anchor="start" x="234" y="-243" font-family="Helvetica,sans-Serif" font-size="10.00">+</text>
<text text-anchor="start" x="247" y="-243" font-family="Helvetica,sans-Serif" font-size="10.00">get_resource()</text>
<text text-anchor="start" x="234" y="-228" font-family="Helvetica,sans-Serif" font-size="10.00">+</text>
<text text-anchor="start" x="247" y="-228" font-family="Helvetica,sans-Serif" font-size="10.00">is_compatible()</text>
<text text-anchor="start" x="234" y="-213" font-family="Helvetica,sans-Serif" font-size="10.00">+</text>
<text text-anchor="start" x="247" y="-213" font-family="Helvetica,sans-Serif" font-size="10.00">operator==()</text>
<text text-anchor="start" x="234" y="-198" font-family="Helvetica,sans-Serif" font-size="10.00">+</text>
<text text-anchor="start" x="247" y="-198" font-family="Helvetica,sans-Serif" font-size="10.00">operator!=()</text>
<polygon fill="#666666" stroke="#666666" points="230,-388 230,-388 329,-388 329,-388 230,-388"/>
<polygon fill="#666666" stroke="#666666" points="230,-358 230,-358 245,-358 245,-358 230,-358"/>
<polygon fill="#666666" stroke="#666666" points="245,-358 245,-358 329,-358 329,-358 245,-358"/>
<polygon fill="none" stroke="#666666" points="229.5,-191 229.5,-405 328.5,-405 328.5,-191 229.5,-191"/>
</a>
</g>
</g>
<!-- Node2&#45;&gt;Node3 -->
<g id="edge2_Node000002_Node000003" class="edge">
<title>Node2&#45;&gt;Node3</title>
<g id="a_edge2_Node000002_Node000003"><a xlink:title=" ">
<path fill="none" stroke="#63b8ff" d="M279,-431.83C279,-423.53 279,-414.45 279,-405.05"/>
<polygon fill="none" stroke="#63b8ff" points="275.5,-431.89 279,-441.89 282.5,-431.89 275.5,-431.89"/>
</a>
</g>
</g>
<!-- Node4 -->
<g id="Node000004" class="node">
<title>Node4</title>
<g id="a_Node000004"><a xlink:href="classL4vbus_1_1Gpio__module.html" target="_top" xlink:title="A Gpio_module groups multiple GPIO pins together.">
<polygon fill="white" stroke="transparent" points="116,-131.5 0,-131.5 0,-22.5 116,-22.5 116,-131.5"/>
<text text-anchor="start" x="5" y="-119" font-family="Helvetica,sans-Serif" font-size="10.00">L4vbus::Gpio_module</text>
<text text-anchor="start" x="56" y="-104" font-family="Helvetica,sans-Serif" font-size="10.00"> </text>
<text text-anchor="start" x="12.5" y="-89" font-family="Helvetica,sans-Serif" font-size="10.00">+</text>
<text text-anchor="start" x="34" y="-89" font-family="Helvetica,sans-Serif" font-size="10.00">setup()</text>
<text text-anchor="start" x="12.5" y="-74" font-family="Helvetica,sans-Serif" font-size="10.00">+</text>
<text text-anchor="start" x="34" y="-74" font-family="Helvetica,sans-Serif" font-size="10.00">config_pad()</text>
<text text-anchor="start" x="12.5" y="-59" font-family="Helvetica,sans-Serif" font-size="10.00">+</text>
<text text-anchor="start" x="34" y="-59" font-family="Helvetica,sans-Serif" font-size="10.00">get()</text>
<text text-anchor="start" x="12.5" y="-44" font-family="Helvetica,sans-Serif" font-size="10.00">+</text>
<text text-anchor="start" x="34" y="-44" font-family="Helvetica,sans-Serif" font-size="10.00">set()</text>
<text text-anchor="start" x="12.5" y="-29" font-family="Helvetica,sans-Serif" font-size="10.00">+</text>
<text text-anchor="start" x="34" y="-29" font-family="Helvetica,sans-Serif" font-size="10.00">pin()</text>
<polygon fill="#666666" stroke="#666666" points="0,-114 0,-114 116,-114 116,-114 0,-114"/>
<polygon fill="#666666" stroke="#666666" points="0,-99 0,-99 116,-99 116,-99 0,-99"/>
<polygon fill="none" stroke="#666666" points="0,-22.5 0,-131.5 116,-131.5 116,-22.5 0,-22.5"/>
</a>
</g>
</g>
<!-- Node3&#45;&gt;Node4 -->
<g id="edge3_Node000003_Node000004" class="edge">
<title>Node3&#45;&gt;Node4</title>
<g id="a_edge3_Node000003_Node000004"><a xlink:title=" ">
<path fill="none" stroke="#63b8ff" d="M221.52,-246.13C192,-219.39 155.85,-185.66 125,-154 118.13,-146.95 111.05,-139.34 104.2,-131.76"/>
<polygon fill="none" stroke="#63b8ff" points="219.5,-249.02 229.27,-253.13 224.19,-243.83 219.5,-249.02"/>
</a>
</g>
</g>
<!-- Node5 -->
<g id="Node000005" class="node">
<title>Node5</title>
<g id="a_Node000005"><a xlink:href="classL4vbus_1_1Gpio__pin.html" target="_top" xlink:title="A GPIO pin.">
<polygon fill="white" stroke="transparent" points="228,-154 134,-154 134,0 228,0 228,-154"/>
<text text-anchor="start" x="139" y="-142" font-family="Helvetica,sans-Serif" font-size="10.00">L4vbus::Gpio_pin</text>
<text text-anchor="start" x="179" y="-127" font-family="Helvetica,sans-Serif" font-size="10.00"> </text>
<text text-anchor="start" x="141" y="-112" font-family="Helvetica,sans-Serif" font-size="10.00">+</text>
<text text-anchor="start" x="157" y="-112" font-family="Helvetica,sans-Serif" font-size="10.00">get()</text>
<text text-anchor="start" x="141" y="-97" font-family="Helvetica,sans-Serif" font-size="10.00">+</text>
<text text-anchor="start" x="157" y="-97" font-family="Helvetica,sans-Serif" font-size="10.00">set()</text>
<text text-anchor="start" x="141" y="-82" font-family="Helvetica,sans-Serif" font-size="10.00">+</text>
<text text-anchor="start" x="157" y="-82" font-family="Helvetica,sans-Serif" font-size="10.00">setup()</text>
<text text-anchor="start" x="141" y="-67" font-family="Helvetica,sans-Serif" font-size="10.00">+</text>
<text text-anchor="start" x="157" y="-67" font-family="Helvetica,sans-Serif" font-size="10.00">config_pull()</text>
<text text-anchor="start" x="141" y="-52" font-family="Helvetica,sans-Serif" font-size="10.00">+</text>
<text text-anchor="start" x="157" y="-52" font-family="Helvetica,sans-Serif" font-size="10.00">config_pad()</text>
<text text-anchor="start" x="141" y="-37" font-family="Helvetica,sans-Serif" font-size="10.00">+</text>
<text text-anchor="start" x="157" y="-37" font-family="Helvetica,sans-Serif" font-size="10.00">config_get()</text>
<text text-anchor="start" x="141" y="-22" font-family="Helvetica,sans-Serif" font-size="10.00">+</text>
<text text-anchor="start" x="157" y="-22" font-family="Helvetica,sans-Serif" font-size="10.00">to_irq()</text>
<text text-anchor="start" x="141" y="-7" font-family="Helvetica,sans-Serif" font-size="10.00">+</text>
<text text-anchor="start" x="157" y="-7" font-family="Helvetica,sans-Serif" font-size="10.00">pin()</text>
<polygon fill="#666666" stroke="#666666" points="134,-137 134,-137 228,-137 228,-137 134,-137"/>
<polygon fill="#666666" stroke="#666666" points="134,-122 134,-122 228,-122 228,-122 134,-122"/>
<polygon fill="none" stroke="#666666" points="134,0 134,-154 228,-154 228,0 134,0"/>
</a>
</g>
</g>
<!-- Node3&#45;&gt;Node5 -->
<g id="edge4_Node000003_Node000005" class="edge">
<title>Node3&#45;&gt;Node5</title>
<g id="a_edge4_Node000003_Node000005"><a xlink:title=" ">
<path fill="none" stroke="#63b8ff" d="M227.3,-181.47C223.17,-172.24 219.07,-163.07 215.11,-154.22"/>
<polygon fill="none" stroke="#63b8ff" points="224.16,-183.01 231.44,-190.71 230.55,-180.15 224.16,-183.01"/>
</a>
</g>
</g>
<!-- Node6 -->
<g id="Node000006" class="node">
<title>Node6</title>
<g id="a_Node000006"><a xlink:href="classL4vbus_1_1Icu.html" target="_top" xlink:title="Vbus Interrupt controller API.">
<polygon fill="white" stroke="transparent" points="311.5,-101.5 246.5,-101.5 246.5,-52.5 311.5,-52.5 311.5,-101.5"/>
<text text-anchor="start" x="252" y="-89" font-family="Helvetica,sans-Serif" font-size="10.00">L4vbus::Icu</text>
<text text-anchor="start" x="277.5" y="-74" font-family="Helvetica,sans-Serif" font-size="10.00"> </text>
<text text-anchor="start" x="255" y="-59" font-family="Helvetica,sans-Serif" font-size="10.00">+</text>
<text text-anchor="start" x="272" y="-59" font-family="Helvetica,sans-Serif" font-size="10.00">vicu()</text>
<polygon fill="#666666" stroke="#666666" points="247,-84 247,-84 312,-84 312,-84 247,-84"/>
<polygon fill="#666666" stroke="#666666" points="247,-69 247,-69 312,-69 312,-69 247,-69"/>
<polygon fill="none" stroke="#666666" points="246.5,-52.5 246.5,-101.5 311.5,-101.5 311.5,-52.5 246.5,-52.5"/>
</a>
</g>
</g>
<!-- Node3&#45;&gt;Node6 -->
<g id="edge5_Node000003_Node000006" class="edge">
<title>Node3&#45;&gt;Node6</title>
<g id="a_edge5_Node000003_Node000006"><a xlink:title=" ">
<path fill="none" stroke="#63b8ff" d="M279,-180.55C279,-150.63 279,-121.4 279,-101.86"/>
<polygon fill="none" stroke="#63b8ff" points="275.5,-180.71 279,-190.71 282.5,-180.71 275.5,-180.71"/>
</a>
</g>
</g>
<!-- Node7 -->
<g id="Node000007" class="node">
<title>Node7</title>
<g id="a_Node000007"><a xlink:href="classL4vbus_1_1Pci__dev.html" target="_top" xlink:title="A PCI device.">
<polygon fill="white" stroke="transparent" points="418.5,-116.5 329.5,-116.5 329.5,-37.5 418.5,-37.5 418.5,-116.5"/>
<text text-anchor="start" x="335" y="-104" font-family="Helvetica,sans-Serif" font-size="10.00">L4vbus::Pci_dev</text>
<text text-anchor="start" x="372.5" y="-89" font-family="Helvetica,sans-Serif" font-size="10.00"> </text>
<text text-anchor="start" x="336" y="-74" font-family="Helvetica,sans-Serif" font-size="10.00">+</text>
<text text-anchor="start" x="351" y="-74" font-family="Helvetica,sans-Serif" font-size="10.00">cfg_read()</text>
<text text-anchor="start" x="336" y="-59" font-family="Helvetica,sans-Serif" font-size="10.00">+</text>
<text text-anchor="start" x="351" y="-59" font-family="Helvetica,sans-Serif" font-size="10.00">cfg_write()</text>
<text text-anchor="start" x="336" y="-44" font-family="Helvetica,sans-Serif" font-size="10.00">+</text>
<text text-anchor="start" x="351" y="-44" font-family="Helvetica,sans-Serif" font-size="10.00">irq_enable()</text>
<polygon fill="#666666" stroke="#666666" points="330,-99 330,-99 419,-99 419,-99 330,-99"/>
<polygon fill="#666666" stroke="#666666" points="330,-84 330,-84 419,-84 419,-84 330,-84"/>
<polygon fill="none" stroke="#666666" points="329.5,-37.5 329.5,-116.5 418.5,-116.5 418.5,-37.5 329.5,-37.5"/>
</a>
</g>
</g>
<!-- Node3&#45;&gt;Node7 -->
<g id="edge6_Node000003_Node000007" class="edge">
<title>Node3&#45;&gt;Node7</title>
<g id="a_edge6_Node000003_Node000007"><a xlink:title=" ">
<path fill="none" stroke="#63b8ff" d="M329.15,-181.4C339.28,-158.04 349.25,-135.06 357.21,-116.71"/>
<polygon fill="none" stroke="#63b8ff" points="325.88,-180.14 325.11,-190.71 332.3,-182.93 325.88,-180.14"/>
</a>
</g>
</g>
<!-- Node8 -->
<g id="Node000008" class="node">
<title>Node8</title>
<g id="a_Node000008"><a xlink:href="classL4vbus_1_1Pci__host__bridge.html" target="_top" xlink:title="A Pci host bridge.">
<polygon fill="white" stroke="transparent" points="565,-116.5 437,-116.5 437,-37.5 565,-37.5 565,-116.5"/>
<text text-anchor="start" x="442" y="-104" font-family="Helvetica,sans-Serif" font-size="10.00">L4vbus::Pci_host_bridge</text>
<text text-anchor="start" x="499" y="-89" font-family="Helvetica,sans-Serif" font-size="10.00"> </text>
<text text-anchor="start" x="453" y="-74" font-family="Helvetica,sans-Serif" font-size="10.00">+</text>
<text text-anchor="start" x="478" y="-74" font-family="Helvetica,sans-Serif" font-size="10.00">cfg_read()</text>
<text text-anchor="start" x="453" y="-59" font-family="Helvetica,sans-Serif" font-size="10.00">+</text>
<text text-anchor="start" x="478" y="-59" font-family="Helvetica,sans-Serif" font-size="10.00">cfg_write()</text>
<text text-anchor="start" x="453" y="-44" font-family="Helvetica,sans-Serif" font-size="10.00">+</text>
<text text-anchor="start" x="478" y="-44" font-family="Helvetica,sans-Serif" font-size="10.00">irq_enable()</text>
<polygon fill="#666666" stroke="#666666" points="437,-99 437,-99 565,-99 565,-99 437,-99"/>
<polygon fill="#666666" stroke="#666666" points="437,-84 437,-84 565,-84 565,-84 437,-84"/>
<polygon fill="none" stroke="#666666" points="437,-37.5 437,-116.5 565,-116.5 565,-37.5 437,-37.5"/>
</a>
</g>
</g>
<!-- Node3&#45;&gt;Node8 -->
<g id="edge7_Node000003_Node000008" class="edge">
<title>Node3&#45;&gt;Node8</title>
<g id="a_edge7_Node000003_Node000008"><a xlink:title=" ">
<path fill="none" stroke="#63b8ff" d="M335.97,-242.74C363.64,-216.18 397.26,-183.63 427,-154 439,-142.04 451.94,-128.86 463.58,-116.89"/>
<polygon fill="none" stroke="#63b8ff" points="333.5,-240.26 328.7,-249.71 338.34,-245.31 333.5,-240.26"/>
</a>
</g>
</g>
</g>
</svg>
