<?xml version="1.0" encoding="UTF-8" standalone="no"?>
<!DOCTYPE svg PUBLIC "-//W3C//DTD SVG 1.1//EN"
 "http://www.w3.org/Graphics/SVG/1.1/DTD/svg11.dtd">
<!-- Generated by graphviz version 2.42.4 (0)
 -->
<!-- Title: L4::Platform_control Pages: 1 -->
<svg width="315pt" height="384pt"
 viewBox="0.00 0.00 315.00 384.00" xmlns="http://www.w3.org/2000/svg" xmlns:xlink="http://www.w3.org/1999/xlink">
<g id="graph0" class="graph" transform="scale(1 1) rotate(0) translate(4 380)">
<title>L4::Platform_control</title>
<!-- Node1 -->
<g id="Node000001" class="node">
<title>Node1</title>
<g id="a_Node000001"><a xlink:title="L4 C++ interface for controlling platform&#45;wide properties, see Platform Control C API for the C inter...">
<polygon fill="#999999" stroke="transparent" points="171,-109 41,-109 41,0 171,0 171,-109"/>
<text text-anchor="start" x="56.5" y="-96.5" font-family="Helvetica,sans-Serif" font-size="10.00">L4::Platform_control</text>
<text text-anchor="start" x="104" y="-81.5" font-family="Helvetica,sans-Serif" font-size="10.00"> </text>
<text text-anchor="start" x="45" y="-66.5" font-family="Helvetica,sans-Serif" font-size="10.00">+</text>
<text text-anchor="start" x="58" y="-66.5" font-family="Helvetica,sans-Serif" font-size="10.00">system_suspend()</text>
<text text-anchor="start" x="45" y="-51.5" font-family="Helvetica,sans-Serif" font-size="10.00">+</text>
<text text-anchor="start" x="58" y="-51.5" font-family="Helvetica,sans-Serif" font-size="10.00">system_shutdown()</text>
<text text-anchor="start" x="45" y="-36.5" font-family="Helvetica,sans-Serif" font-size="10.00">+</text>
<text text-anchor="start" x="58" y="-36.5" font-family="Helvetica,sans-Serif" font-size="10.00">cpu_allow_shutdown()</text>
<text text-anchor="start" x="45" y="-21.5" font-family="Helvetica,sans-Serif" font-size="10.00">+</text>
<text text-anchor="start" x="58" y="-21.5" font-family="Helvetica,sans-Serif" font-size="10.00">cpu_enable()</text>
<text text-anchor="start" x="45" y="-6.5" font-family="Helvetica,sans-Serif" font-size="10.00">+</text>
<text text-anchor="start" x="58" y="-6.5" font-family="Helvetica,sans-Serif" font-size="10.00">cpu_disable()</text>
<polygon fill="#666666" stroke="#666666" points="41,-91.5 41,-91.5 171,-91.5 171,-91.5 41,-91.5"/>
<polygon fill="#666666" stroke="#666666" points="41,-76.5 41,-76.5 171,-76.5 171,-76.5 41,-76.5"/>
<polygon fill="none" stroke="#666666" points="41,0 41,-109 171,-109 171,0 41,0"/>
</a>
</g>
</g>
<!-- Node2 -->
<g id="Node000002" class="node">
<title>Node2</title>
<g id="a_Node000002"><a xlink:href="classL4_1_1Kobject__t.html" target="_top" xlink:title=" ">
<polygon fill="white" stroke="transparent" points="177.5,-232 34.5,-232 34.5,-146 177.5,-146 177.5,-232"/>
<text text-anchor="start" x="40" y="-220" font-family="Helvetica,sans-Serif" font-size="10.00">L4::Kobject_t&lt; Platform</text>
<text text-anchor="start" x="40" y="-209" font-family="Helvetica,sans-Serif" font-size="10.00">_control, Kobject, L4</text>
<text text-anchor="start" x="40" y="-198" font-family="Helvetica,sans-Serif" font-size="10.00">_PROTO_PLATFORM_CTL &gt;</text>
<text text-anchor="start" x="104.5" y="-183" font-family="Helvetica,sans-Serif" font-size="10.00"> </text>
<text text-anchor="start" x="42.5" y="-168" font-family="Helvetica,sans-Serif" font-size="10.00">#</text>
<text text-anchor="start" x="59" y="-168" font-family="Helvetica,sans-Serif" font-size="10.00">c()</text>
<text text-anchor="start" x="42.5" y="-153" font-family="Helvetica,sans-Serif" font-size="10.00">#</text>
<text text-anchor="start" x="59" y="-153" font-family="Helvetica,sans-Serif" font-size="10.00">__check_protocols__()</text>
<polygon fill="#666666" stroke="#666666" points="35,-193 35,-193 178,-193 178,-193 35,-193"/>
<polygon fill="#666666" stroke="#666666" points="35,-178 35,-178 178,-178 178,-178 35,-178"/>
<polygon fill="none" stroke="#666666" points="34.5,-146 34.5,-232 177.5,-232 177.5,-146 34.5,-146"/>
</a>
</g>
</g>
<!-- Node2&#45;&gt;Node1 -->
<g id="edge1_Node000001_Node000002" class="edge">
<title>Node2&#45;&gt;Node1</title>
<g id="a_edge1_Node000001_Node000002"><a xlink:title=" ">
<path fill="none" stroke="#63b8ff" d="M106,-135.64C106,-126.89 106,-117.81 106,-109.03"/>
<polygon fill="none" stroke="#63b8ff" points="102.5,-135.71 106,-145.71 109.5,-135.71 102.5,-135.71"/>
</a>
</g>
</g>
<!-- Node3 -->
<g id="Node000003" class="node">
<title>Node3</title>
<g id="a_Node000003"><a xlink:href="classL4_1_1Kobject.html" target="_top" xlink:title="Base class for all kinds of kernel objects and remote objects, referenced by capabilities.">
<polygon fill="white" stroke="transparent" points="80,-370.5 0,-370.5 0,-306.5 80,-306.5 80,-370.5"/>
<text text-anchor="start" x="13" y="-358.5" font-family="Helvetica,sans-Serif" font-size="10.00">L4::Kobject</text>
<text text-anchor="start" x="38" y="-343.5" font-family="Helvetica,sans-Serif" font-size="10.00"> </text>
<text text-anchor="start" x="4" y="-328.5" font-family="Helvetica,sans-Serif" font-size="10.00">+</text>
<text text-anchor="start" x="17" y="-328.5" font-family="Helvetica,sans-Serif" font-size="10.00">dec_refcnt()</text>
<text text-anchor="start" x="4" y="-313.5" font-family="Helvetica,sans-Serif" font-size="10.00">#</text>
<text text-anchor="start" x="17" y="-313.5" font-family="Helvetica,sans-Serif" font-size="10.00">cap()</text>
<polygon fill="#666666" stroke="#666666" points="0,-353.5 0,-353.5 80,-353.5 80,-353.5 0,-353.5"/>
<polygon fill="#666666" stroke="#666666" points="0,-338.5 0,-338.5 80,-338.5 80,-338.5 0,-338.5"/>
<polygon fill="none" stroke="#666666" points="0,-306.5 0,-370.5 80,-370.5 80,-306.5 0,-306.5"/>
</a>
</g>
</g>
<!-- Node3&#45;&gt;Node2 -->
<g id="edge2_Node000002_Node000003" class="edge">
<title>Node3&#45;&gt;Node2</title>
<g id="a_edge2_Node000002_Node000003"><a xlink:title=" ">
<path fill="none" stroke="#63b8ff" d="M58.12,-296.99C67.14,-276.85 78.03,-252.52 87.14,-232.15"/>
<polygon fill="none" stroke="#63b8ff" points="54.89,-295.66 54,-306.22 61.28,-298.52 54.89,-295.66"/>
</a>
</g>
</g>
<!-- Node4 -->
<g id="Node000004" class="node">
<title>Node4</title>
<g id="a_Node000004"><a xlink:href="classL4_1_1Kobject__t.html" target="_top" xlink:title="Helper class to create an L4Re interface class that is derived from a single base class.">
<polygon fill="white" stroke="transparent" points="248,-376 98,-376 98,-301 248,-301 248,-376"/>
<text text-anchor="start" x="103" y="-363.5" font-family="Helvetica,sans-Serif" font-size="10.00">L4::Kobject_t&lt; Derived,</text>
<text text-anchor="start" x="103" y="-352.5" font-family="Helvetica,sans-Serif" font-size="10.00"> Base, PROTO, S_DEMAND &gt;</text>
<text text-anchor="start" x="171" y="-337.5" font-family="Helvetica,sans-Serif" font-size="10.00"> </text>
<text text-anchor="start" x="107" y="-322.5" font-family="Helvetica,sans-Serif" font-size="10.00">#</text>
<text text-anchor="start" x="125" y="-322.5" font-family="Helvetica,sans-Serif" font-size="10.00">c()</text>
<text text-anchor="start" x="107" y="-307.5" font-family="Helvetica,sans-Serif" font-size="10.00">#</text>
<text text-anchor="start" x="125" y="-307.5" font-family="Helvetica,sans-Serif" font-size="10.00">__check_protocols__()</text>
<polygon fill="#666666" stroke="#666666" points="98,-347.5 98,-347.5 248,-347.5 248,-347.5 98,-347.5"/>
<polygon fill="#666666" stroke="#666666" points="98,-332.5 98,-332.5 248,-332.5 248,-332.5 98,-332.5"/>
<polygon fill="none" stroke="#666666" points="98,-301 98,-376 248,-376 248,-301 98,-301"/>
</a>
</g>
</g>
<!-- Node4&#45;&gt;Node2 -->
<g id="edge3_Node000002_Node000004" class="edge">
<title>Node4&#45;&gt;Node2</title>
<g id="a_edge3_Node000002_Node000004"><a xlink:title=" ">
<path fill="none" stroke="orange" d="M152.03,-291.33C143.42,-272.39 133.53,-250.61 125.13,-232.1"/>
<polygon fill="orange" stroke="orange" points="148.94,-293 156.27,-300.66 155.32,-290.11 148.94,-293"/>
</a>
</g>
<text text-anchor="start" x="147" y="-275" font-family="Helvetica,sans-Serif" font-size="10.00" fill="grey"> &lt; Platform_control,</text>
<text text-anchor="start" x="147" y="-264" font-family="Helvetica,sans-Serif" font-size="10.00" fill="grey"> Kobject, L4_PROTO_PLATFORM_</text>
<text text-anchor="middle" x="227" y="-253" font-family="Helvetica,sans-Serif" font-size="10.00" fill="grey">CTL &gt;</text>
</g>
</g>
</svg>
