<?xml version="1.0" encoding="UTF-8" standalone="no"?>
<!DOCTYPE svg PUBLIC "-//W3C//DTD SVG 1.1//EN"
 "http://www.w3.org/Graphics/SVG/1.1/DTD/svg11.dtd">
<!-- Generated by graphviz version 2.43.0 (0)
 -->
<!-- Title: cxx::Bits::Base_avl_set::erase Pages: 1 -->
<svg width="421pt" height="38pt"
 viewBox="0.00 0.00 421.00 38.00" xmlns="http://www.w3.org/2000/svg" xmlns:xlink="http://www.w3.org/1999/xlink">
<g id="graph0" class="graph" transform="scale(1 1) rotate(0) translate(4 34)">
<title>cxx::Bits::Base_avl_set::erase</title>
<!-- Node1 -->
<g id="Node000001" class="node">
<title>Node1</title>
<g id="a_Node000001"><a xlink:title="Erase the item with the given key.">
<polygon fill="#999999" stroke="#666666" points="109,-30 0,-30 0,0 109,0 109,-30"/>
<text text-anchor="start" x="8" y="-18" font-family="Helvetica,sans-Serif" font-size="10.00">cxx::Bits::Base_avl</text>
<text text-anchor="middle" x="54.5" y="-7" font-family="Helvetica,sans-Serif" font-size="10.00">_set::erase</text>
</a>
</g>
</g>
<!-- Node2 -->
<g id="Node000002" class="node">
<title>Node2</title>
<g id="a_Node000002"><a xlink:href="classcxx_1_1Bits_1_1Base__avl__set.html#a74890468049590443959526dbd52030d" target="_top" xlink:title="Remove an item from the set.">
<polygon fill="white" stroke="#666666" points="254,-30 145,-30 145,0 254,0 254,-30"/>
<text text-anchor="start" x="153" y="-18" font-family="Helvetica,sans-Serif" font-size="10.00">cxx::Bits::Base_avl</text>
<text text-anchor="middle" x="199.5" y="-7" font-family="Helvetica,sans-Serif" font-size="10.00">_set::remove</text>
</a>
</g>
</g>
<!-- Node1&#45;&gt;Node2 -->
<g id="edge1_Node000001_Node000002" class="edge">
<title>Node1&#45;&gt;Node2</title>
<g id="a_edge1_Node000001_Node000002"><a xlink:title=" ">
<path fill="none" stroke="#63b8ff" d="M109.15,-15C117.38,-15 125.94,-15 134.37,-15"/>
<polygon fill="#63b8ff" stroke="#63b8ff" points="134.54,-18.5 144.54,-15 134.54,-11.5 134.54,-18.5"/>
</a>
</g>
</g>
<!-- Node3 -->
<g id="Node000003" class="node">
<title>Node3</title>
<g id="a_Node000003"><a xlink:href="classcxx_1_1Avl__tree.html#a53bfe5700fa6fd227b0d46c0c4da4ade" target="_top" xlink:title="Remove the node with key from the tree.">
<polygon fill="white" stroke="#666666" points="413,-24.5 290,-24.5 290,-5.5 413,-5.5 413,-24.5"/>
<text text-anchor="middle" x="351.5" y="-12.5" font-family="Helvetica,sans-Serif" font-size="10.00">cxx::Avl_tree::remove</text>
</a>
</g>
</g>
<!-- Node2&#45;&gt;Node3 -->
<g id="edge2_Node000002_Node000003" class="edge">
<title>Node2&#45;&gt;Node3</title>
<g id="a_edge2_Node000002_Node000003"><a xlink:title=" ">
<path fill="none" stroke="#63b8ff" d="M254.23,-15C262.51,-15 271.16,-15 279.74,-15"/>
<polygon fill="#63b8ff" stroke="#63b8ff" points="279.75,-18.5 289.75,-15 279.75,-11.5 279.75,-18.5"/>
</a>
</g>
</g>
</g>
</svg>
