<?xml version="1.0" encoding="UTF-8" standalone="no"?>
<!DOCTYPE svg PUBLIC "-//W3C//DTD SVG 1.1//EN"
 "http://www.w3.org/Graphics/SVG/1.1/DTD/svg11.dtd">
<!-- Generated by graphviz version 2.43.0 (0)
 -->
<!-- Title: L4::Irq_eoi Pages: 1 -->
<svg width="1266pt" height="888pt"
 viewBox="0.00 0.00 1265.50 888.00" xmlns="http://www.w3.org/2000/svg" xmlns:xlink="http://www.w3.org/1999/xlink">
<g id="graph0" class="graph" transform="scale(1 1) rotate(0) translate(4 884)">
<title>L4::Irq_eoi</title>
<!-- Node1 -->
<g id="Node000001" class="node">
<title>Node1</title>
<g id="a_Node000001"><a xlink:title="Interface for sending an unmask message to an object.">
<polygon fill="#999999" stroke="transparent" points="698,-880 630,-880 630,-831 698,-831 698,-880"/>
<text text-anchor="start" x="638.5" y="-867.5" font-family="Helvetica,sans-Serif" font-size="10.00">L4::Irq_eoi</text>
<text text-anchor="start" x="662" y="-852.5" font-family="Helvetica,sans-Serif" font-size="10.00"> </text>
<text text-anchor="start" x="634" y="-837.5" font-family="Helvetica,sans-Serif" font-size="10.00">+</text>
<text text-anchor="start" x="647" y="-837.5" font-family="Helvetica,sans-Serif" font-size="10.00">unmask()</text>
<polygon fill="#666666" stroke="#666666" points="630,-862.5 630,-862.5 698,-862.5 698,-862.5 630,-862.5"/>
<polygon fill="#666666" stroke="#666666" points="630,-847.5 630,-847.5 698,-847.5 698,-847.5 630,-847.5"/>
<polygon fill="none" stroke="#666666" points="630,-831 630,-880 698,-880 698,-831 630,-831"/>
</a>
</g>
</g>
<!-- Node2 -->
<g id="Node000002" class="node">
<title>Node2</title>
<g id="a_Node000002"><a xlink:href="classL4_1_1Kobject__t.html" target="_top" xlink:title=" ">
<polygon fill="white" stroke="transparent" points="659,-795 503,-795 503,-709 659,-709 659,-795"/>
<text text-anchor="start" x="508" y="-783" font-family="Helvetica,sans-Serif" font-size="10.00">L4::Kobject_t&lt; Icu,</text>
<text text-anchor="start" x="508" y="-772" font-family="Helvetica,sans-Serif" font-size="10.00"> Irq_eoi, L4_PROTO_IRQ,</text>
<text text-anchor="start" x="508" y="-761" font-family="Helvetica,sans-Serif" font-size="10.00"> Type_info::Demand_t&lt; 1 &gt; &gt;</text>
<text text-anchor="start" x="579" y="-746" font-family="Helvetica,sans-Serif" font-size="10.00"> </text>
<text text-anchor="start" x="513.5" y="-731" font-family="Helvetica,sans-Serif" font-size="10.00">#</text>
<text text-anchor="start" x="533" y="-731" font-family="Helvetica,sans-Serif" font-size="10.00">c()</text>
<text text-anchor="start" x="513.5" y="-716" font-family="Helvetica,sans-Serif" font-size="10.00">#</text>
<text text-anchor="start" x="533" y="-716" font-family="Helvetica,sans-Serif" font-size="10.00">__check_protocols__()</text>
<polygon fill="#666666" stroke="#666666" points="503,-756 503,-756 659,-756 659,-756 503,-756"/>
<polygon fill="#666666" stroke="#666666" points="503,-741 503,-741 659,-741 659,-741 503,-741"/>
<polygon fill="none" stroke="#666666" points="503,-709 503,-795 659,-795 659,-709 503,-709"/>
</a>
</g>
</g>
<!-- Node1&#45;&gt;Node2 -->
<g id="edge1_Node000001_Node000002" class="edge">
<title>Node1&#45;&gt;Node2</title>
<g id="a_edge1_Node000001_Node000002"><a xlink:title=" ">
<path fill="none" stroke="#63b8ff" d="M638.35,-823.13C631.11,-814.28 623.11,-804.5 615.45,-795.13"/>
<polygon fill="none" stroke="#63b8ff" points="635.71,-825.43 644.75,-830.96 641.13,-821 635.71,-825.43"/>
</a>
</g>
</g>
<!-- Node18 -->
<g id="Node000018" class="node">
<title>Node18</title>
<g id="a_Node000018"><a xlink:href="classL4_1_1Kobject__t.html" target="_top" xlink:title=" ">
<polygon fill="white" stroke="transparent" points="980.5,-789.5 839.5,-789.5 839.5,-714.5 980.5,-714.5 980.5,-789.5"/>
<text text-anchor="start" x="845" y="-777" font-family="Helvetica,sans-Serif" font-size="10.00">L4::Kobject_t&lt; Triggerable,</text>
<text text-anchor="start" x="847" y="-766" font-family="Helvetica,sans-Serif" font-size="10.00"> Irq_eoi, L4_PROTO_IRQ &gt;</text>
<text text-anchor="start" x="908.5" y="-751" font-family="Helvetica,sans-Serif" font-size="10.00"> </text>
<text text-anchor="start" x="847" y="-736" font-family="Helvetica,sans-Serif" font-size="10.00">#</text>
<text text-anchor="start" x="863" y="-736" font-family="Helvetica,sans-Serif" font-size="10.00">c()</text>
<text text-anchor="start" x="847" y="-721" font-family="Helvetica,sans-Serif" font-size="10.00">#</text>
<text text-anchor="start" x="863" y="-721" font-family="Helvetica,sans-Serif" font-size="10.00">__check_protocols__()</text>
<polygon fill="#666666" stroke="#666666" points="840,-761 840,-761 981,-761 981,-761 840,-761"/>
<polygon fill="#666666" stroke="#666666" points="840,-746 840,-746 981,-746 981,-746 840,-746"/>
<polygon fill="none" stroke="#666666" points="839.5,-714.5 839.5,-789.5 980.5,-789.5 980.5,-714.5 839.5,-714.5"/>
</a>
</g>
</g>
<!-- Node1&#45;&gt;Node18 -->
<g id="edge17_Node000001_Node000018" class="edge">
<title>Node1&#45;&gt;Node18</title>
<g id="a_edge17_Node000001_Node000018"><a xlink:title=" ">
<path fill="none" stroke="#63b8ff" d="M707.58,-836.52C744.1,-821.45 796.93,-799.65 839.46,-782.1"/>
<polygon fill="none" stroke="#63b8ff" points="706.11,-833.34 698.21,-840.39 708.78,-839.81 706.11,-833.34"/>
</a>
</g>
</g>
<!-- Node3 -->
<g id="Node000003" class="node">
<title>Node3</title>
<g id="a_Node000003"><a xlink:href="classL4_1_1Icu.html" target="_top" xlink:title="C++ Icu interface, see Interrupt controller for the C interface.">
<polygon fill="white" stroke="transparent" points="497.5,-673 420.5,-673 420.5,-549 497.5,-549 497.5,-673"/>
<text text-anchor="start" x="443.5" y="-661" font-family="Helvetica,sans-Serif" font-size="10.00">L4::Icu</text>
<text text-anchor="start" x="457.5" y="-646" font-family="Helvetica,sans-Serif" font-size="10.00"> </text>
<text text-anchor="start" x="425" y="-631" font-family="Helvetica,sans-Serif" font-size="10.00">+</text>
<text text-anchor="start" x="438" y="-631" font-family="Helvetica,sans-Serif" font-size="10.00">bind()</text>
<text text-anchor="start" x="425" y="-616" font-family="Helvetica,sans-Serif" font-size="10.00">+</text>
<text text-anchor="start" x="438" y="-616" font-family="Helvetica,sans-Serif" font-size="10.00">unbind()</text>
<text text-anchor="start" x="425" y="-601" font-family="Helvetica,sans-Serif" font-size="10.00">+</text>
<text text-anchor="start" x="438" y="-601" font-family="Helvetica,sans-Serif" font-size="10.00">info()</text>
<text text-anchor="start" x="425" y="-586" font-family="Helvetica,sans-Serif" font-size="10.00">+</text>
<text text-anchor="start" x="438" y="-586" font-family="Helvetica,sans-Serif" font-size="10.00">msi_info()</text>
<text text-anchor="start" x="425" y="-571" font-family="Helvetica,sans-Serif" font-size="10.00">+</text>
<text text-anchor="start" x="438" y="-571" font-family="Helvetica,sans-Serif" font-size="10.00">mask()</text>
<text text-anchor="start" x="425" y="-556" font-family="Helvetica,sans-Serif" font-size="10.00">+</text>
<text text-anchor="start" x="438" y="-556" font-family="Helvetica,sans-Serif" font-size="10.00">set_mode()</text>
<polygon fill="#666666" stroke="#666666" points="421,-656 421,-656 498,-656 498,-656 421,-656"/>
<polygon fill="#666666" stroke="#666666" points="421,-641 421,-641 498,-641 498,-641 421,-641"/>
<polygon fill="none" stroke="#666666" points="420.5,-549 420.5,-673 497.5,-673 497.5,-549 420.5,-549"/>
</a>
</g>
</g>
<!-- Node2&#45;&gt;Node3 -->
<g id="edge2_Node000002_Node000003" class="edge">
<title>Node2&#45;&gt;Node3</title>
<g id="a_edge2_Node000002_Node000003"><a xlink:title=" ">
<path fill="none" stroke="#63b8ff" d="M537.37,-701.29C524.35,-686.45 510.17,-670.3 497.5,-655.87"/>
<polygon fill="none" stroke="#63b8ff" points="534.84,-703.71 544.06,-708.92 540.1,-699.09 534.84,-703.71"/>
</a>
</g>
</g>
<!-- Node4 -->
<g id="Node000004" class="node">
<title>Node4</title>
<g id="a_Node000004"><a xlink:href="classL4_1_1Kobject__t.html" target="_top" xlink:title=" ">
<polygon fill="white" stroke="transparent" points="156,-513 0,-513 0,-427 156,-427 156,-513"/>
<text text-anchor="start" x="5" y="-501" font-family="Helvetica,sans-Serif" font-size="10.00">L4::Kobject_t&lt; Scheduler,</text>
<text text-anchor="start" x="5" y="-490" font-family="Helvetica,sans-Serif" font-size="10.00"> Icu, L4_PROTO_SCHEDULER,</text>
<text text-anchor="start" x="5" y="-479" font-family="Helvetica,sans-Serif" font-size="10.00"> Type_info::Demand_t&lt; 1 &gt; &gt;</text>
<text text-anchor="start" x="76" y="-464" font-family="Helvetica,sans-Serif" font-size="10.00"> </text>
<text text-anchor="start" x="10.5" y="-449" font-family="Helvetica,sans-Serif" font-size="10.00">#</text>
<text text-anchor="start" x="30" y="-449" font-family="Helvetica,sans-Serif" font-size="10.00">c()</text>
<text text-anchor="start" x="10.5" y="-434" font-family="Helvetica,sans-Serif" font-size="10.00">#</text>
<text text-anchor="start" x="30" y="-434" font-family="Helvetica,sans-Serif" font-size="10.00">__check_protocols__()</text>
<polygon fill="#666666" stroke="#666666" points="0,-474 0,-474 156,-474 156,-474 0,-474"/>
<polygon fill="#666666" stroke="#666666" points="0,-459 0,-459 156,-459 156,-459 0,-459"/>
<polygon fill="none" stroke="#666666" points="0,-427 0,-513 156,-513 156,-427 0,-427"/>
</a>
</g>
</g>
<!-- Node3&#45;&gt;Node4 -->
<g id="edge3_Node000003_Node000004" class="edge">
<title>Node3&#45;&gt;Node4</title>
<g id="a_edge3_Node000003_Node000004"><a xlink:title=" ">
<path fill="none" stroke="#63b8ff" d="M410.6,-596.16C351.75,-578.84 249.79,-547.28 165,-513 162.05,-511.81 159.05,-510.56 156.04,-509.27"/>
<polygon fill="none" stroke="#63b8ff" points="409.78,-599.57 420.37,-599.02 411.75,-592.85 409.78,-599.57"/>
</a>
</g>
</g>
<!-- Node6 -->
<g id="Node000006" class="node">
<title>Node6</title>
<g id="a_Node000006"><a xlink:href="classL4_1_1Kobject__t.html" target="_top" xlink:title=" ">
<polygon fill="white" stroke="transparent" points="303.5,-507.5 174.5,-507.5 174.5,-432.5 303.5,-432.5 303.5,-507.5"/>
<text text-anchor="start" x="184" y="-495" font-family="Helvetica,sans-Serif" font-size="10.00">L4::Kobject_t&lt; Vcon,</text>
<text text-anchor="start" x="184" y="-484" font-family="Helvetica,sans-Serif" font-size="10.00"> Icu, L4_PROTO_LOG &gt;</text>
<text text-anchor="start" x="237.5" y="-469" font-family="Helvetica,sans-Serif" font-size="10.00"> </text>
<text text-anchor="start" x="179" y="-454" font-family="Helvetica,sans-Serif" font-size="10.00">#</text>
<text text-anchor="start" x="192" y="-454" font-family="Helvetica,sans-Serif" font-size="10.00">c()</text>
<text text-anchor="start" x="179" y="-439" font-family="Helvetica,sans-Serif" font-size="10.00">#</text>
<text text-anchor="start" x="192" y="-439" font-family="Helvetica,sans-Serif" font-size="10.00">__check_protocols__()</text>
<polygon fill="#666666" stroke="#666666" points="175,-479 175,-479 304,-479 304,-479 175,-479"/>
<polygon fill="#666666" stroke="#666666" points="175,-464 175,-464 304,-464 304,-464 175,-464"/>
<polygon fill="none" stroke="#666666" points="174.5,-432.5 174.5,-507.5 303.5,-507.5 303.5,-432.5 174.5,-432.5"/>
</a>
</g>
</g>
<!-- Node3&#45;&gt;Node6 -->
<g id="edge5_Node000003_Node000006" class="edge">
<title>Node3&#45;&gt;Node6</title>
<g id="a_edge5_Node000003_Node000006"><a xlink:title=" ">
<path fill="none" stroke="#63b8ff" d="M411.72,-580.12C378.12,-558.9 332.79,-530.26 297,-507.65"/>
<polygon fill="none" stroke="#63b8ff" points="410.1,-583.25 420.43,-585.63 413.84,-577.33 410.1,-583.25"/>
</a>
</g>
</g>
<!-- Node10 -->
<g id="Node000010" class="node">
<title>Node10</title>
<g id="a_Node000010"><a xlink:href="classL4_1_1Kobject__t.html" target="_top" xlink:title=" ">
<polygon fill="white" stroke="transparent" points="450.5,-513 321.5,-513 321.5,-427 450.5,-427 450.5,-513"/>
<text text-anchor="start" x="334" y="-501" font-family="Helvetica,sans-Serif" font-size="10.00">L4::Kobject_t&lt; Event,</text>
<text text-anchor="start" x="334" y="-490" font-family="Helvetica,sans-Serif" font-size="10.00"> L4::Icu, L4RE_PROTO</text>
<text text-anchor="start" x="362" y="-479" font-family="Helvetica,sans-Serif" font-size="10.00">_EVENT &gt;</text>
<text text-anchor="start" x="384.5" y="-464" font-family="Helvetica,sans-Serif" font-size="10.00"> </text>
<text text-anchor="start" x="326" y="-449" font-family="Helvetica,sans-Serif" font-size="10.00">#</text>
<text text-anchor="start" x="339" y="-449" font-family="Helvetica,sans-Serif" font-size="10.00">c()</text>
<text text-anchor="start" x="326" y="-434" font-family="Helvetica,sans-Serif" font-size="10.00">#</text>
<text text-anchor="start" x="339" y="-434" font-family="Helvetica,sans-Serif" font-size="10.00">__check_protocols__()</text>
<polygon fill="#666666" stroke="#666666" points="322,-474 322,-474 451,-474 451,-474 322,-474"/>
<polygon fill="#666666" stroke="#666666" points="322,-459 322,-459 451,-459 451,-459 322,-459"/>
<polygon fill="none" stroke="#666666" points="321.5,-427 321.5,-513 450.5,-513 450.5,-427 321.5,-427"/>
</a>
</g>
</g>
<!-- Node3&#45;&gt;Node10 -->
<g id="edge9_Node000003_Node000010" class="edge">
<title>Node3&#45;&gt;Node10</title>
<g id="a_edge9_Node000003_Node000010"><a xlink:title=" ">
<path fill="none" stroke="#63b8ff" d="M422.05,-539.64C417.32,-530.64 412.61,-521.66 408.22,-513.31"/>
<polygon fill="none" stroke="#63b8ff" points="419.02,-541.4 426.77,-548.63 425.22,-538.15 419.02,-541.4"/>
</a>
</g>
</g>
<!-- Node14 -->
<g id="Node000014" class="node">
<title>Node14</title>
<g id="a_Node000014"><a xlink:href="classL4_1_1Kobject__t.html" target="_top" xlink:title=" ">
<polygon fill="white" stroke="transparent" points="597.5,-507.5 468.5,-507.5 468.5,-432.5 597.5,-432.5 597.5,-507.5"/>
<text text-anchor="start" x="474.5" y="-495" font-family="Helvetica,sans-Serif" font-size="10.00">L4::Kobject_t&lt; Random,</text>
<text text-anchor="start" x="510.5" y="-484" font-family="Helvetica,sans-Serif" font-size="10.00"> L4::Icu &gt;</text>
<text text-anchor="start" x="531.5" y="-469" font-family="Helvetica,sans-Serif" font-size="10.00"> </text>
<text text-anchor="start" x="473" y="-454" font-family="Helvetica,sans-Serif" font-size="10.00">#</text>
<text text-anchor="start" x="486" y="-454" font-family="Helvetica,sans-Serif" font-size="10.00">c()</text>
<text text-anchor="start" x="473" y="-439" font-family="Helvetica,sans-Serif" font-size="10.00">#</text>
<text text-anchor="start" x="486" y="-439" font-family="Helvetica,sans-Serif" font-size="10.00">__check_protocols__()</text>
<polygon fill="#666666" stroke="#666666" points="469,-479 469,-479 598,-479 598,-479 469,-479"/>
<polygon fill="#666666" stroke="#666666" points="469,-464 469,-464 598,-464 598,-464 469,-464"/>
<polygon fill="none" stroke="#666666" points="468.5,-432.5 468.5,-507.5 597.5,-507.5 597.5,-432.5 468.5,-432.5"/>
</a>
</g>
</g>
<!-- Node3&#45;&gt;Node14 -->
<g id="edge13_Node000003_Node000014" class="edge">
<title>Node3&#45;&gt;Node14</title>
<g id="a_edge13_Node000003_Node000014"><a xlink:title=" ">
<path fill="none" stroke="#63b8ff" d="M496.4,-539.75C502.3,-528.67 508.19,-517.61 513.46,-507.7"/>
<polygon fill="none" stroke="#63b8ff" points="493.28,-538.16 491.67,-548.63 499.46,-541.45 493.28,-538.16"/>
</a>
</g>
</g>
<!-- Node16 -->
<g id="Node000016" class="node">
<title>Node16</title>
<g id="a_Node000016"><a xlink:href="classL4_1_1Kobject__t.html" target="_top" xlink:title=" ">
<polygon fill="white" stroke="transparent" points="788.5,-513 615.5,-513 615.5,-427 788.5,-427 788.5,-513"/>
<text text-anchor="start" x="621" y="-501" font-family="Helvetica,sans-Serif" font-size="10.00">L4::Kobject_t&lt; Device,</text>
<text text-anchor="start" x="621" y="-490" font-family="Helvetica,sans-Serif" font-size="10.00"> L4::Icu, L4VIRTIO_PROTOCOL,</text>
<text text-anchor="start" x="621" y="-479" font-family="Helvetica,sans-Serif" font-size="10.00"> L4::Type_info::Demand_t&lt; 1 &gt; &gt;</text>
<text text-anchor="start" x="700.5" y="-464" font-family="Helvetica,sans-Serif" font-size="10.00"> </text>
<text text-anchor="start" x="631" y="-449" font-family="Helvetica,sans-Serif" font-size="10.00">#</text>
<text text-anchor="start" x="655" y="-449" font-family="Helvetica,sans-Serif" font-size="10.00">c()</text>
<text text-anchor="start" x="631" y="-434" font-family="Helvetica,sans-Serif" font-size="10.00">#</text>
<text text-anchor="start" x="655" y="-434" font-family="Helvetica,sans-Serif" font-size="10.00">__check_protocols__()</text>
<polygon fill="#666666" stroke="#666666" points="616,-474 616,-474 789,-474 789,-474 616,-474"/>
<polygon fill="#666666" stroke="#666666" points="616,-459 616,-459 789,-459 789,-459 616,-459"/>
<polygon fill="none" stroke="#666666" points="615.5,-427 615.5,-513 788.5,-513 788.5,-427 615.5,-427"/>
</a>
</g>
</g>
<!-- Node3&#45;&gt;Node16 -->
<g id="edge15_Node000003_Node000016" class="edge">
<title>Node3&#45;&gt;Node16</title>
<g id="a_edge15_Node000003_Node000016"><a xlink:title=" ">
<path fill="none" stroke="#63b8ff" d="M506.47,-582.84C541.15,-563.01 588.83,-535.73 628.42,-513.09"/>
<polygon fill="none" stroke="#63b8ff" points="504.45,-579.97 497.5,-587.98 507.92,-586.05 504.45,-579.97"/>
</a>
</g>
</g>
<!-- Node5 -->
<g id="Node000005" class="node">
<title>Node5</title>
<g id="a_Node000005"><a xlink:href="classL4_1_1Scheduler.html" target="_top" xlink:title="C++ interface of the Scheduler kernel object, see Scheduler for the C interface.">
<polygon fill="white" stroke="transparent" points="119,-376 37,-376 37,-282 119,-282 119,-376"/>
<text text-anchor="start" x="45" y="-364" font-family="Helvetica,sans-Serif" font-size="10.00">L4::Scheduler</text>
<text text-anchor="start" x="76" y="-349" font-family="Helvetica,sans-Serif" font-size="10.00"> </text>
<text text-anchor="start" x="41" y="-334" font-family="Helvetica,sans-Serif" font-size="10.00">+</text>
<text text-anchor="start" x="54" y="-334" font-family="Helvetica,sans-Serif" font-size="10.00">info()</text>
<text text-anchor="start" x="41" y="-319" font-family="Helvetica,sans-Serif" font-size="10.00">+</text>
<text text-anchor="start" x="54" y="-319" font-family="Helvetica,sans-Serif" font-size="10.00">run_thread()</text>
<text text-anchor="start" x="41" y="-304" font-family="Helvetica,sans-Serif" font-size="10.00">+</text>
<text text-anchor="start" x="54" y="-304" font-family="Helvetica,sans-Serif" font-size="10.00">idle_time()</text>
<text text-anchor="start" x="41" y="-289" font-family="Helvetica,sans-Serif" font-size="10.00">+</text>
<text text-anchor="start" x="54" y="-289" font-family="Helvetica,sans-Serif" font-size="10.00">is_online()</text>
<polygon fill="#666666" stroke="#666666" points="37,-359 37,-359 119,-359 119,-359 37,-359"/>
<polygon fill="#666666" stroke="#666666" points="37,-344 37,-344 119,-344 119,-344 37,-344"/>
<polygon fill="none" stroke="#666666" points="37,-282 37,-376 119,-376 119,-282 37,-282"/>
</a>
</g>
</g>
<!-- Node4&#45;&gt;Node5 -->
<g id="edge4_Node000004_Node000005" class="edge">
<title>Node4&#45;&gt;Node5</title>
<g id="a_edge4_Node000004_Node000005"><a xlink:title=" ">
<path fill="none" stroke="#63b8ff" d="M78,-416.54C78,-403.31 78,-389.2 78,-376.3"/>
<polygon fill="none" stroke="#63b8ff" points="74.5,-416.92 78,-426.92 81.5,-416.92 74.5,-416.92"/>
</a>
</g>
</g>
<!-- Node7 -->
<g id="Node000007" class="node">
<title>Node7</title>
<g id="a_Node000007"><a xlink:href="classL4_1_1Vcon.html" target="_top" xlink:title="C++ L4 Vcon interface, see Virtual Console for the C interface.">
<polygon fill="white" stroke="transparent" points="291,-391 185,-391 185,-267 291,-267 291,-391"/>
<text text-anchor="start" x="217" y="-379" font-family="Helvetica,sans-Serif" font-size="10.00">L4::Vcon</text>
<text text-anchor="start" x="236" y="-364" font-family="Helvetica,sans-Serif" font-size="10.00"> </text>
<text text-anchor="start" x="189" y="-349" font-family="Helvetica,sans-Serif" font-size="10.00">+</text>
<text text-anchor="start" x="202" y="-349" font-family="Helvetica,sans-Serif" font-size="10.00">send()</text>
<text text-anchor="start" x="189" y="-334" font-family="Helvetica,sans-Serif" font-size="10.00">+</text>
<text text-anchor="start" x="202" y="-334" font-family="Helvetica,sans-Serif" font-size="10.00">write()</text>
<text text-anchor="start" x="189" y="-319" font-family="Helvetica,sans-Serif" font-size="10.00">+</text>
<text text-anchor="start" x="202" y="-319" font-family="Helvetica,sans-Serif" font-size="10.00">read()</text>
<text text-anchor="start" x="189" y="-304" font-family="Helvetica,sans-Serif" font-size="10.00">+</text>
<text text-anchor="start" x="202" y="-304" font-family="Helvetica,sans-Serif" font-size="10.00">read_with_flags()</text>
<text text-anchor="start" x="189" y="-289" font-family="Helvetica,sans-Serif" font-size="10.00">+</text>
<text text-anchor="start" x="202" y="-289" font-family="Helvetica,sans-Serif" font-size="10.00">set_attr()</text>
<text text-anchor="start" x="189" y="-274" font-family="Helvetica,sans-Serif" font-size="10.00">+</text>
<text text-anchor="start" x="202" y="-274" font-family="Helvetica,sans-Serif" font-size="10.00">get_attr()</text>
<polygon fill="#666666" stroke="#666666" points="185,-374 185,-374 291,-374 291,-374 185,-374"/>
<polygon fill="#666666" stroke="#666666" points="185,-359 185,-359 291,-359 291,-359 185,-359"/>
<polygon fill="none" stroke="#666666" points="185,-267 185,-391 291,-391 291,-267 185,-267"/>
</a>
</g>
</g>
<!-- Node6&#45;&gt;Node7 -->
<g id="edge6_Node000006_Node000007" class="edge">
<title>Node6&#45;&gt;Node7</title>
<g id="a_edge6_Node000006_Node000007"><a xlink:title=" ">
<path fill="none" stroke="#63b8ff" d="M238.66,-422.38C238.59,-412.39 238.52,-401.71 238.44,-391.27"/>
<polygon fill="none" stroke="#63b8ff" points="235.17,-422.5 238.74,-432.48 242.17,-422.45 235.17,-422.5"/>
</a>
</g>
</g>
<!-- Node8 -->
<g id="Node000008" class="node">
<title>Node8</title>
<g id="a_Node000008"><a xlink:href="classL4_1_1Kobject__t.html" target="_top" xlink:title=" ">
<polygon fill="white" stroke="transparent" points="302.5,-231 173.5,-231 173.5,-145 302.5,-145 302.5,-231"/>
<text text-anchor="start" x="187.5" y="-219" font-family="Helvetica,sans-Serif" font-size="10.00">L4::Kobject_t&lt; Log,</text>
<text text-anchor="start" x="187.5" y="-208" font-family="Helvetica,sans-Serif" font-size="10.00"> L4::Vcon, L4::PROTO</text>
<text text-anchor="start" x="213.5" y="-197" font-family="Helvetica,sans-Serif" font-size="10.00">_EMPTY &gt;</text>
<text text-anchor="start" x="236.5" y="-182" font-family="Helvetica,sans-Serif" font-size="10.00"> </text>
<text text-anchor="start" x="178" y="-167" font-family="Helvetica,sans-Serif" font-size="10.00">#</text>
<text text-anchor="start" x="191" y="-167" font-family="Helvetica,sans-Serif" font-size="10.00">c()</text>
<text text-anchor="start" x="178" y="-152" font-family="Helvetica,sans-Serif" font-size="10.00">#</text>
<text text-anchor="start" x="191" y="-152" font-family="Helvetica,sans-Serif" font-size="10.00">__check_protocols__()</text>
<polygon fill="#666666" stroke="#666666" points="174,-192 174,-192 303,-192 303,-192 174,-192"/>
<polygon fill="#666666" stroke="#666666" points="174,-177 174,-177 303,-177 303,-177 174,-177"/>
<polygon fill="none" stroke="#666666" points="173.5,-145 173.5,-231 302.5,-231 302.5,-145 173.5,-145"/>
</a>
</g>
</g>
<!-- Node7&#45;&gt;Node8 -->
<g id="edge7_Node000007_Node000008" class="edge">
<title>Node7&#45;&gt;Node8</title>
<g id="a_edge7_Node000007_Node000008"><a xlink:title=" ">
<path fill="none" stroke="#63b8ff" d="M238,-256.52C238,-247.9 238,-239.32 238,-231.31"/>
<polygon fill="none" stroke="#63b8ff" points="234.5,-256.63 238,-266.63 241.5,-256.63 234.5,-256.63"/>
</a>
</g>
</g>
<!-- Node9 -->
<g id="Node000009" class="node">
<title>Node9</title>
<g id="a_Node000009"><a xlink:href="classL4Re_1_1Log.html" target="_top" xlink:title="Log interface class.">
<polygon fill="white" stroke="transparent" points="267,-86.5 209,-86.5 209,-22.5 267,-22.5 267,-86.5"/>
<text text-anchor="start" x="214" y="-74.5" font-family="Helvetica,sans-Serif" font-size="10.00">L4Re::Log</text>
<text text-anchor="start" x="236" y="-59.5" font-family="Helvetica,sans-Serif" font-size="10.00"> </text>
<text text-anchor="start" x="213" y="-44.5" font-family="Helvetica,sans-Serif" font-size="10.00">+</text>
<text text-anchor="start" x="226" y="-44.5" font-family="Helvetica,sans-Serif" font-size="10.00">printn()</text>
<text text-anchor="start" x="213" y="-29.5" font-family="Helvetica,sans-Serif" font-size="10.00">+</text>
<text text-anchor="start" x="226" y="-29.5" font-family="Helvetica,sans-Serif" font-size="10.00">print()</text>
<polygon fill="#666666" stroke="#666666" points="209,-69.5 209,-69.5 267,-69.5 267,-69.5 209,-69.5"/>
<polygon fill="#666666" stroke="#666666" points="209,-54.5 209,-54.5 267,-54.5 267,-54.5 209,-54.5"/>
<polygon fill="none" stroke="#666666" points="209,-22.5 209,-86.5 267,-86.5 267,-22.5 209,-22.5"/>
</a>
</g>
</g>
<!-- Node8&#45;&gt;Node9 -->
<g id="edge8_Node000008_Node000009" class="edge">
<title>Node8&#45;&gt;Node9</title>
<g id="a_edge8_Node000008_Node000009"><a xlink:title=" ">
<path fill="none" stroke="#63b8ff" d="M238,-134.31C238,-118.24 238,-101.09 238,-86.91"/>
<polygon fill="none" stroke="#63b8ff" points="234.5,-134.67 238,-144.67 241.5,-134.67 234.5,-134.67"/>
</a>
</g>
</g>
<!-- Node11 -->
<g id="Node000011" class="node">
<title>Node11</title>
<g id="a_Node000011"><a xlink:href="classL4Re_1_1Event.html" target="_top" xlink:title="Event class.">
<polygon fill="white" stroke="transparent" points="460,-391 312,-391 312,-267 460,-267 460,-391"/>
<text text-anchor="start" x="357" y="-379" font-family="Helvetica,sans-Serif" font-size="10.00">L4Re::Event</text>
<text text-anchor="start" x="384" y="-364" font-family="Helvetica,sans-Serif" font-size="10.00"> </text>
<text text-anchor="start" x="316" y="-349" font-family="Helvetica,sans-Serif" font-size="10.00">+</text>
<text text-anchor="start" x="329" y="-349" font-family="Helvetica,sans-Serif" font-size="10.00">get_buffer()</text>
<text text-anchor="start" x="316" y="-334" font-family="Helvetica,sans-Serif" font-size="10.00">+</text>
<text text-anchor="start" x="329" y="-334" font-family="Helvetica,sans-Serif" font-size="10.00">get_num_streams()</text>
<text text-anchor="start" x="316" y="-319" font-family="Helvetica,sans-Serif" font-size="10.00">+</text>
<text text-anchor="start" x="329" y="-319" font-family="Helvetica,sans-Serif" font-size="10.00">get_stream_info()</text>
<text text-anchor="start" x="316" y="-304" font-family="Helvetica,sans-Serif" font-size="10.00">+</text>
<text text-anchor="start" x="329" y="-304" font-family="Helvetica,sans-Serif" font-size="10.00">get_stream_info_for_id()</text>
<text text-anchor="start" x="316" y="-289" font-family="Helvetica,sans-Serif" font-size="10.00">+</text>
<text text-anchor="start" x="329" y="-289" font-family="Helvetica,sans-Serif" font-size="10.00">get_axis_info()</text>
<text text-anchor="start" x="316" y="-274" font-family="Helvetica,sans-Serif" font-size="10.00">+</text>
<text text-anchor="start" x="329" y="-274" font-family="Helvetica,sans-Serif" font-size="10.00">get_stream_state_for_id()</text>
<polygon fill="#666666" stroke="#666666" points="312,-374 312,-374 460,-374 460,-374 312,-374"/>
<polygon fill="#666666" stroke="#666666" points="312,-359 312,-359 460,-359 460,-359 312,-359"/>
<polygon fill="none" stroke="#666666" points="312,-267 312,-391 460,-391 460,-267 312,-267"/>
</a>
</g>
</g>
<!-- Node10&#45;&gt;Node11 -->
<g id="edge10_Node000010_Node000011" class="edge">
<title>Node10&#45;&gt;Node11</title>
<g id="a_edge10_Node000010_Node000011"><a xlink:title=" ">
<path fill="none" stroke="#63b8ff" d="M386,-416.9C386,-408.5 386,-399.75 386,-391.17"/>
<polygon fill="none" stroke="#63b8ff" points="382.5,-416.92 386,-426.92 389.5,-416.92 382.5,-416.92"/>
</a>
</g>
</g>
<!-- Node12 -->
<g id="Node000012" class="node">
<title>Node12</title>
<g id="a_Node000012"><a xlink:href="structL4_1_1Kobject__3t.html" target="_top" xlink:title=" ">
<polygon fill="white" stroke="transparent" points="453,-231 321,-231 321,-145 453,-145 453,-231"/>
<text text-anchor="start" x="326" y="-219" font-family="Helvetica,sans-Serif" font-size="10.00">L4::Kobject_3t&lt; Vbus,</text>
<text text-anchor="start" x="326" y="-208" font-family="Helvetica,sans-Serif" font-size="10.00"> L4Re::Dataspace, L4Re</text>
<text text-anchor="start" x="326" y="-197" font-family="Helvetica,sans-Serif" font-size="10.00">::Inhibitor, L4Re::Event &gt;</text>
<text text-anchor="start" x="385" y="-182" font-family="Helvetica,sans-Serif" font-size="10.00"> </text>
<text text-anchor="start" x="325.5" y="-167" font-family="Helvetica,sans-Serif" font-size="10.00">#</text>
<text text-anchor="start" x="339" y="-167" font-family="Helvetica,sans-Serif" font-size="10.00">c()</text>
<text text-anchor="start" x="325.5" y="-152" font-family="Helvetica,sans-Serif" font-size="10.00">#</text>
<text text-anchor="start" x="339" y="-152" font-family="Helvetica,sans-Serif" font-size="10.00">__check_protocols__()</text>
<polygon fill="#666666" stroke="#666666" points="321,-192 321,-192 453,-192 453,-192 321,-192"/>
<polygon fill="#666666" stroke="#666666" points="321,-177 321,-177 453,-177 453,-177 321,-177"/>
<polygon fill="none" stroke="#666666" points="321,-145 321,-231 453,-231 453,-145 321,-145"/>
</a>
</g>
</g>
<!-- Node11&#45;&gt;Node12 -->
<g id="edge11_Node000011_Node000012" class="edge">
<title>Node11&#45;&gt;Node12</title>
<g id="a_edge11_Node000011_Node000012"><a xlink:title=" ">
<path fill="none" stroke="#63b8ff" d="M386.51,-256.52C386.58,-247.9 386.64,-239.32 386.7,-231.31"/>
<polygon fill="none" stroke="#63b8ff" points="383.01,-256.6 386.44,-266.63 390.01,-256.65 383.01,-256.6"/>
</a>
</g>
</g>
<!-- Node13 -->
<g id="Node000013" class="node">
<title>Node13</title>
<g id="a_Node000013"><a xlink:href="classL4vbus_1_1Vbus.html" target="_top" xlink:title="The virtual bus (Vbus) interface.">
<polygon fill="white" stroke="transparent" points="452,-109 322,-109 322,0 452,0 452,-109"/>
<text text-anchor="start" x="354.5" y="-96.5" font-family="Helvetica,sans-Serif" font-size="10.00">L4vbus::Vbus</text>
<text text-anchor="start" x="385" y="-81.5" font-family="Helvetica,sans-Serif" font-size="10.00"> </text>
<text text-anchor="start" x="326" y="-66.5" font-family="Helvetica,sans-Serif" font-size="10.00">+</text>
<text text-anchor="start" x="339" y="-66.5" font-family="Helvetica,sans-Serif" font-size="10.00">request_ioport()</text>
<text text-anchor="start" x="326" y="-51.5" font-family="Helvetica,sans-Serif" font-size="10.00">+</text>
<text text-anchor="start" x="339" y="-51.5" font-family="Helvetica,sans-Serif" font-size="10.00">release_ioport()</text>
<text text-anchor="start" x="326" y="-36.5" font-family="Helvetica,sans-Serif" font-size="10.00">+</text>
<text text-anchor="start" x="339" y="-36.5" font-family="Helvetica,sans-Serif" font-size="10.00">root()</text>
<text text-anchor="start" x="326" y="-21.5" font-family="Helvetica,sans-Serif" font-size="10.00">+</text>
<text text-anchor="start" x="339" y="-21.5" font-family="Helvetica,sans-Serif" font-size="10.00">assign_dma_domain()</text>
<text text-anchor="start" x="326" y="-6.5" font-family="Helvetica,sans-Serif" font-size="10.00">+</text>
<text text-anchor="start" x="339" y="-6.5" font-family="Helvetica,sans-Serif" font-size="10.00">assign_dma_domain()</text>
<polygon fill="#666666" stroke="#666666" points="322,-91.5 322,-91.5 452,-91.5 452,-91.5 322,-91.5"/>
<polygon fill="#666666" stroke="#666666" points="322,-76.5 322,-76.5 452,-76.5 452,-76.5 322,-76.5"/>
<polygon fill="none" stroke="#666666" points="322,0 322,-109 452,-109 452,0 322,0"/>
</a>
</g>
</g>
<!-- Node12&#45;&gt;Node13 -->
<g id="edge12_Node000012_Node000013" class="edge">
<title>Node12&#45;&gt;Node13</title>
<g id="a_edge12_Node000012_Node000013"><a xlink:title=" ">
<path fill="none" stroke="#63b8ff" d="M387,-134.4C387,-126.14 387,-117.59 387,-109.3"/>
<polygon fill="none" stroke="#63b8ff" points="383.5,-134.67 387,-144.67 390.5,-134.67 383.5,-134.67"/>
</a>
</g>
</g>
<!-- Node15 -->
<g id="Node000015" class="node">
<title>Node15</title>
<g id="a_Node000015"><a xlink:href="structL4Re_1_1Random.html" target="_top" xlink:title="Low&#45;bandwidth interface for random number generators.">
<polygon fill="white" stroke="transparent" points="577,-353.5 489,-353.5 489,-304.5 577,-304.5 577,-353.5"/>
<text text-anchor="start" x="497.5" y="-341" font-family="Helvetica,sans-Serif" font-size="10.00">L4Re::Random</text>
<text text-anchor="start" x="531" y="-326" font-family="Helvetica,sans-Serif" font-size="10.00"> </text>
<text text-anchor="start" x="493" y="-311" font-family="Helvetica,sans-Serif" font-size="10.00">+</text>
<text text-anchor="start" x="506" y="-311" font-family="Helvetica,sans-Serif" font-size="10.00">get_random()</text>
<polygon fill="#666666" stroke="#666666" points="489,-336 489,-336 577,-336 577,-336 489,-336"/>
<polygon fill="#666666" stroke="#666666" points="489,-321 489,-321 577,-321 577,-321 489,-321"/>
<polygon fill="none" stroke="#666666" points="489,-304.5 489,-353.5 577,-353.5 577,-304.5 489,-304.5"/>
</a>
</g>
</g>
<!-- Node14&#45;&gt;Node15 -->
<g id="edge14_Node000014_Node000015" class="edge">
<title>Node14&#45;&gt;Node15</title>
<g id="a_edge14_Node000014_Node000015"><a xlink:title=" ">
<path fill="none" stroke="#63b8ff" d="M533,-422.2C533,-399.15 533,-372.37 533,-353.62"/>
<polygon fill="none" stroke="#63b8ff" points="529.5,-422.48 533,-432.48 536.5,-422.48 529.5,-422.48"/>
</a>
</g>
</g>
<!-- Node17 -->
<g id="Node000017" class="node">
<title>Node17</title>
<g id="a_Node000017"><a xlink:href="classL4virtio_1_1Device.html" target="_top" xlink:title="IPC interface for virtio over L4 IPC.">
<polygon fill="white" stroke="transparent" points="759,-389 645,-389 645,-269 759,-269 759,-389"/>
<text text-anchor="start" x="663.5" y="-377" font-family="Helvetica,sans-Serif" font-size="10.00">L4virtio::Device</text>
<text text-anchor="start" x="700" y="-362" font-family="Helvetica,sans-Serif" font-size="10.00"> </text>
<text text-anchor="start" x="649" y="-347" font-family="Helvetica,sans-Serif" font-size="10.00">+</text>
<text text-anchor="start" x="662" y="-347" font-family="Helvetica,sans-Serif" font-size="10.00">set_status()</text>
<text text-anchor="start" x="649" y="-332" font-family="Helvetica,sans-Serif" font-size="10.00">+</text>
<text text-anchor="start" x="662" y="-332" font-family="Helvetica,sans-Serif" font-size="10.00">config_queue()</text>
<text text-anchor="start" x="649" y="-317" font-family="Helvetica,sans-Serif" font-size="10.00">+</text>
<text text-anchor="start" x="662" y="-317" font-family="Helvetica,sans-Serif" font-size="10.00">register_ds()</text>
<text text-anchor="start" x="649" y="-302" font-family="Helvetica,sans-Serif" font-size="10.00">+</text>
<text text-anchor="start" x="662" y="-302" font-family="Helvetica,sans-Serif" font-size="10.00">device_config()</text>
<text text-anchor="start" x="649" y="-287" font-family="Helvetica,sans-Serif" font-size="10.00">+</text>
<text text-anchor="start" x="662" y="-287" font-family="Helvetica,sans-Serif" font-size="10.00">device_notification</text>
<text text-anchor="start" x="662" y="-276" font-family="Helvetica,sans-Serif" font-size="10.00">_irq()</text>
<polygon fill="#666666" stroke="#666666" points="645,-372 645,-372 759,-372 759,-372 645,-372"/>
<polygon fill="#666666" stroke="#666666" points="645,-357 645,-357 759,-357 759,-357 645,-357"/>
<polygon fill="none" stroke="#666666" points="645,-269 645,-389 759,-389 759,-269 645,-269"/>
</a>
</g>
</g>
<!-- Node16&#45;&gt;Node17 -->
<g id="edge16_Node000016_Node000017" class="edge">
<title>Node16&#45;&gt;Node17</title>
<g id="a_edge16_Node000016_Node000017"><a xlink:title=" ">
<path fill="none" stroke="#63b8ff" d="M702,-416.9C702,-407.84 702,-398.35 702,-389.12"/>
<polygon fill="none" stroke="#63b8ff" points="698.5,-416.92 702,-426.92 705.5,-416.92 698.5,-416.92"/>
</a>
</g>
</g>
<!-- Node19 -->
<g id="Node000019" class="node">
<title>Node19</title>
<g id="a_Node000019"><a xlink:href="structL4_1_1Triggerable.html" target="_top" xlink:title="Interface that allows an object to be triggered by some source.">
<polygon fill="white" stroke="transparent" points="996,-635.5 914,-635.5 914,-586.5 996,-586.5 996,-635.5"/>
<text text-anchor="start" x="919" y="-623" font-family="Helvetica,sans-Serif" font-size="10.00">L4::Triggerable</text>
<text text-anchor="start" x="953" y="-608" font-family="Helvetica,sans-Serif" font-size="10.00"> </text>
<text text-anchor="start" x="923" y="-593" font-family="Helvetica,sans-Serif" font-size="10.00">+</text>
<text text-anchor="start" x="941" y="-593" font-family="Helvetica,sans-Serif" font-size="10.00">trigger()</text>
<polygon fill="#666666" stroke="#666666" points="914,-618 914,-618 996,-618 996,-618 914,-618"/>
<polygon fill="#666666" stroke="#666666" points="914,-603 914,-603 996,-603 996,-603 914,-603"/>
<polygon fill="none" stroke="#666666" points="914,-586.5 914,-635.5 996,-635.5 996,-586.5 914,-586.5"/>
</a>
</g>
</g>
<!-- Node18&#45;&gt;Node19 -->
<g id="edge18_Node000018_Node000019" class="edge">
<title>Node18&#45;&gt;Node19</title>
<g id="a_edge18_Node000018_Node000019"><a xlink:title=" ">
<path fill="none" stroke="#63b8ff" d="M924.95,-704.82C932.46,-681.63 941.23,-654.53 947.35,-635.62"/>
<polygon fill="none" stroke="#63b8ff" points="921.57,-703.89 921.82,-714.48 928.23,-706.04 921.57,-703.89"/>
</a>
</g>
</g>
<!-- Node20 -->
<g id="Node000020" class="node">
<title>Node20</title>
<g id="a_Node000020"><a xlink:href="classL4_1_1Kobject__2t.html" target="_top" xlink:title=" ">
<polygon fill="white" stroke="transparent" points="949.5,-513 806.5,-513 806.5,-427 949.5,-427 949.5,-513"/>
<text text-anchor="start" x="812" y="-501" font-family="Helvetica,sans-Serif" font-size="10.00">L4::Kobject_2t&lt; Irq,</text>
<text text-anchor="start" x="812" y="-490" font-family="Helvetica,sans-Serif" font-size="10.00"> Triggerable, Rcv_endpoint,</text>
<text text-anchor="start" x="812" y="-479" font-family="Helvetica,sans-Serif" font-size="10.00"> L4_PROTO_IRQ_SENDER &gt;</text>
<text text-anchor="start" x="876.5" y="-464" font-family="Helvetica,sans-Serif" font-size="10.00"> </text>
<text text-anchor="start" x="814.5" y="-449" font-family="Helvetica,sans-Serif" font-size="10.00">#</text>
<text text-anchor="start" x="831" y="-449" font-family="Helvetica,sans-Serif" font-size="10.00">c()</text>
<text text-anchor="start" x="814.5" y="-434" font-family="Helvetica,sans-Serif" font-size="10.00">#</text>
<text text-anchor="start" x="831" y="-434" font-family="Helvetica,sans-Serif" font-size="10.00">__check_protocols__()</text>
<polygon fill="#666666" stroke="#666666" points="807,-474 807,-474 950,-474 950,-474 807,-474"/>
<polygon fill="#666666" stroke="#666666" points="807,-459 807,-459 950,-459 950,-459 807,-459"/>
<polygon fill="none" stroke="#666666" points="806.5,-427 806.5,-513 949.5,-513 949.5,-427 806.5,-427"/>
</a>
</g>
</g>
<!-- Node19&#45;&gt;Node20 -->
<g id="edge19_Node000019_Node000020" class="edge">
<title>Node19&#45;&gt;Node20</title>
<g id="a_edge19_Node000019_Node000020"><a xlink:title=" ">
<path fill="none" stroke="#63b8ff" d="M936.97,-577.45C926.32,-558.22 912.72,-533.68 901.27,-513"/>
<polygon fill="none" stroke="#63b8ff" points="934.03,-579.37 941.94,-586.42 940.15,-575.98 934.03,-579.37"/>
</a>
</g>
</g>
<!-- Node22 -->
<g id="Node000022" class="node">
<title>Node22</title>
<g id="a_Node000022"><a xlink:href="classL4_1_1Kobject__t.html" target="_top" xlink:title=" ">
<polygon fill="white" stroke="transparent" points="1096.5,-513 967.5,-513 967.5,-427 1096.5,-427 1096.5,-513"/>
<text text-anchor="start" x="980" y="-501" font-family="Helvetica,sans-Serif" font-size="10.00">L4::Kobject_t&lt; Irq</text>
<text text-anchor="start" x="980" y="-490" font-family="Helvetica,sans-Serif" font-size="10.00">_mux, Triggerable, L4</text>
<text text-anchor="start" x="981.5" y="-479" font-family="Helvetica,sans-Serif" font-size="10.00">_PROTO_IRQ_MUX &gt;</text>
<text text-anchor="start" x="1030.5" y="-464" font-family="Helvetica,sans-Serif" font-size="10.00"> </text>
<text text-anchor="start" x="972" y="-449" font-family="Helvetica,sans-Serif" font-size="10.00">#</text>
<text text-anchor="start" x="985" y="-449" font-family="Helvetica,sans-Serif" font-size="10.00">c()</text>
<text text-anchor="start" x="972" y="-434" font-family="Helvetica,sans-Serif" font-size="10.00">#</text>
<text text-anchor="start" x="985" y="-434" font-family="Helvetica,sans-Serif" font-size="10.00">__check_protocols__()</text>
<polygon fill="#666666" stroke="#666666" points="968,-474 968,-474 1097,-474 1097,-474 968,-474"/>
<polygon fill="#666666" stroke="#666666" points="968,-459 968,-459 1097,-459 1097,-459 968,-459"/>
<polygon fill="none" stroke="#666666" points="967.5,-427 967.5,-513 1096.5,-513 1096.5,-427 967.5,-427"/>
</a>
</g>
</g>
<!-- Node19&#45;&gt;Node22 -->
<g id="edge21_Node000019_Node000022" class="edge">
<title>Node19&#45;&gt;Node22</title>
<g id="a_edge21_Node000019_Node000022"><a xlink:title=" ">
<path fill="none" stroke="#63b8ff" d="M973.03,-577.45C983.68,-558.22 997.28,-533.68 1008.73,-513"/>
<polygon fill="none" stroke="#63b8ff" points="969.85,-575.98 968.06,-586.42 975.97,-579.37 969.85,-575.98"/>
</a>
</g>
</g>
<!-- Node24 -->
<g id="Node000024" class="node">
<title>Node24</title>
<g id="a_Node000024"><a xlink:href="classL4_1_1Kobject__t.html" target="_top" xlink:title=" ">
<polygon fill="white" stroke="transparent" points="1257.5,-513 1114.5,-513 1114.5,-427 1257.5,-427 1257.5,-513"/>
<text text-anchor="start" x="1120" y="-501" font-family="Helvetica,sans-Serif" font-size="10.00">L4::Kobject_t&lt; Semaphore,</text>
<text text-anchor="start" x="1120" y="-490" font-family="Helvetica,sans-Serif" font-size="10.00"> Triggerable, L4_PROTO</text>
<text text-anchor="start" x="1147" y="-479" font-family="Helvetica,sans-Serif" font-size="10.00">_SEMAPHORE &gt;</text>
<text text-anchor="start" x="1184.5" y="-464" font-family="Helvetica,sans-Serif" font-size="10.00"> </text>
<text text-anchor="start" x="1122.5" y="-449" font-family="Helvetica,sans-Serif" font-size="10.00">#</text>
<text text-anchor="start" x="1139" y="-449" font-family="Helvetica,sans-Serif" font-size="10.00">c()</text>
<text text-anchor="start" x="1122.5" y="-434" font-family="Helvetica,sans-Serif" font-size="10.00">#</text>
<text text-anchor="start" x="1139" y="-434" font-family="Helvetica,sans-Serif" font-size="10.00">__check_protocols__()</text>
<polygon fill="#666666" stroke="#666666" points="1115,-474 1115,-474 1258,-474 1258,-474 1115,-474"/>
<polygon fill="#666666" stroke="#666666" points="1115,-459 1115,-459 1258,-459 1258,-459 1115,-459"/>
<polygon fill="none" stroke="#666666" points="1114.5,-427 1114.5,-513 1257.5,-513 1257.5,-427 1114.5,-427"/>
</a>
</g>
</g>
<!-- Node19&#45;&gt;Node24 -->
<g id="edge23_Node000019_Node000024" class="edge">
<title>Node19&#45;&gt;Node24</title>
<g id="a_edge23_Node000019_Node000024"><a xlink:title=" ">
<path fill="none" stroke="#63b8ff" d="M1003.11,-581.05C1035.83,-561.36 1079.65,-534.99 1116.2,-513"/>
<polygon fill="none" stroke="#63b8ff" points="1000.95,-578.27 994.19,-586.42 1004.56,-584.26 1000.95,-578.27"/>
</a>
</g>
</g>
<!-- Node21 -->
<g id="Node000021" class="node">
<title>Node21</title>
<g id="a_Node000021"><a xlink:href="classL4_1_1Irq.html" target="_top" xlink:title="C++ Irq interface, see IRQs for the C interface.">
<polygon fill="white" stroke="transparent" points="912,-376 844,-376 844,-282 912,-282 912,-376"/>
<text text-anchor="start" x="862.5" y="-364" font-family="Helvetica,sans-Serif" font-size="10.00">L4::Irq</text>
<text text-anchor="start" x="876" y="-349" font-family="Helvetica,sans-Serif" font-size="10.00"> </text>
<text text-anchor="start" x="848" y="-334" font-family="Helvetica,sans-Serif" font-size="10.00">+</text>
<text text-anchor="start" x="861" y="-334" font-family="Helvetica,sans-Serif" font-size="10.00">detach()</text>
<text text-anchor="start" x="848" y="-319" font-family="Helvetica,sans-Serif" font-size="10.00">+</text>
<text text-anchor="start" x="861" y="-319" font-family="Helvetica,sans-Serif" font-size="10.00">receive()</text>
<text text-anchor="start" x="848" y="-304" font-family="Helvetica,sans-Serif" font-size="10.00">+</text>
<text text-anchor="start" x="861" y="-304" font-family="Helvetica,sans-Serif" font-size="10.00">wait()</text>
<text text-anchor="start" x="848" y="-289" font-family="Helvetica,sans-Serif" font-size="10.00">+</text>
<text text-anchor="start" x="861" y="-289" font-family="Helvetica,sans-Serif" font-size="10.00">unmask()</text>
<polygon fill="#666666" stroke="#666666" points="844,-359 844,-359 912,-359 912,-359 844,-359"/>
<polygon fill="#666666" stroke="#666666" points="844,-344 844,-344 912,-344 912,-344 844,-344"/>
<polygon fill="none" stroke="#666666" points="844,-282 844,-376 912,-376 912,-282 844,-282"/>
</a>
</g>
</g>
<!-- Node20&#45;&gt;Node21 -->
<g id="edge20_Node000020_Node000021" class="edge">
<title>Node20&#45;&gt;Node21</title>
<g id="a_edge20_Node000020_Node000021"><a xlink:title=" ">
<path fill="none" stroke="#63b8ff" d="M878,-416.54C878,-403.31 878,-389.2 878,-376.3"/>
<polygon fill="none" stroke="#63b8ff" points="874.5,-416.92 878,-426.92 881.5,-416.92 874.5,-416.92"/>
</a>
</g>
</g>
<!-- Node23 -->
<g id="Node000023" class="node">
<title>Node23</title>
<g id="a_Node000023"><a xlink:href="structL4_1_1Irq__mux.html" target="_top" xlink:title="IRQ multiplexer for shared IRQs.">
<polygon fill="white" stroke="transparent" points="1066,-353.5 998,-353.5 998,-304.5 1066,-304.5 1066,-353.5"/>
<text text-anchor="start" x="1003" y="-341" font-family="Helvetica,sans-Serif" font-size="10.00">L4::Irq_mux</text>
<text text-anchor="start" x="1030" y="-326" font-family="Helvetica,sans-Serif" font-size="10.00"> </text>
<text text-anchor="start" x="1005" y="-311" font-family="Helvetica,sans-Serif" font-size="10.00">+</text>
<text text-anchor="start" x="1021" y="-311" font-family="Helvetica,sans-Serif" font-size="10.00">chain()</text>
<polygon fill="#666666" stroke="#666666" points="998,-336 998,-336 1066,-336 1066,-336 998,-336"/>
<polygon fill="#666666" stroke="#666666" points="998,-321 998,-321 1066,-321 1066,-321 998,-321"/>
<polygon fill="none" stroke="#666666" points="998,-304.5 998,-353.5 1066,-353.5 1066,-304.5 998,-304.5"/>
</a>
</g>
</g>
<!-- Node22&#45;&gt;Node23 -->
<g id="edge22_Node000022_Node000023" class="edge">
<title>Node22&#45;&gt;Node23</title>
<g id="a_edge22_Node000022_Node000023"><a xlink:title=" ">
<path fill="none" stroke="#63b8ff" d="M1032,-416.83C1032,-395.15 1032,-371.05 1032,-353.76"/>
<polygon fill="none" stroke="#63b8ff" points="1028.5,-416.92 1032,-426.92 1035.5,-416.92 1028.5,-416.92"/>
</a>
</g>
</g>
<!-- Node25 -->
<g id="Node000025" class="node">
<title>Node25</title>
<g id="a_Node000025"><a xlink:href="structL4_1_1Semaphore.html" target="_top" xlink:title="C++ Kernel&#45;provided semaphore interface, see Kernel&#45;provided semaphore for the C interface.">
<polygon fill="white" stroke="transparent" points="1227.5,-361 1144.5,-361 1144.5,-297 1227.5,-297 1227.5,-361"/>
<text text-anchor="start" x="1150" y="-349" font-family="Helvetica,sans-Serif" font-size="10.00">L4::Semaphore</text>
<text text-anchor="start" x="1184.5" y="-334" font-family="Helvetica,sans-Serif" font-size="10.00"> </text>
<text text-anchor="start" x="1156" y="-319" font-family="Helvetica,sans-Serif" font-size="10.00">+</text>
<text text-anchor="start" x="1176" y="-319" font-family="Helvetica,sans-Serif" font-size="10.00">up()</text>
<text text-anchor="start" x="1156" y="-304" font-family="Helvetica,sans-Serif" font-size="10.00">+</text>
<text text-anchor="start" x="1176" y="-304" font-family="Helvetica,sans-Serif" font-size="10.00">down()</text>
<polygon fill="#666666" stroke="#666666" points="1145,-344 1145,-344 1228,-344 1228,-344 1145,-344"/>
<polygon fill="#666666" stroke="#666666" points="1145,-329 1145,-329 1228,-329 1228,-329 1145,-329"/>
<polygon fill="none" stroke="#666666" points="1144.5,-297 1144.5,-361 1227.5,-361 1227.5,-297 1144.5,-297"/>
</a>
</g>
</g>
<!-- Node24&#45;&gt;Node25 -->
<g id="edge24_Node000024_Node000025" class="edge">
<title>Node24&#45;&gt;Node25</title>
<g id="a_edge24_Node000024_Node000025"><a xlink:title=" ">
<path fill="none" stroke="#63b8ff" d="M1186,-416.77C1186,-398.12 1186,-377.69 1186,-361.34"/>
<polygon fill="none" stroke="#63b8ff" points="1182.5,-416.92 1186,-426.92 1189.5,-416.92 1182.5,-416.92"/>
</a>
</g>
</g>
</g>
</svg>
