<?xml version="1.0" encoding="UTF-8" standalone="no"?>
<!DOCTYPE svg PUBLIC "-//W3C//DTD SVG 1.1//EN"
 "http://www.w3.org/Graphics/SVG/1.1/DTD/svg11.dtd">
<!-- Generated by graphviz version 2.43.0 (0)
 -->
<!-- Title: cxx::Base_slab_static::free_objects Pages: 1 -->
<svg width="452pt" height="76pt"
 viewBox="0.00 0.00 452.00 75.50" xmlns="http://www.w3.org/2000/svg" xmlns:xlink="http://www.w3.org/1999/xlink">
<g id="graph0" class="graph" transform="scale(1 1) rotate(0) translate(4 71.5)">
<title>cxx::Base_slab_static::free_objects</title>
<!-- Node1 -->
<g id="Node000001" class="node">
<title>Node1</title>
<g id="a_Node000001"><a xlink:title="Get the number of free objects in the slab allocator.">
<polygon fill="#999999" stroke="#666666" points="122,-45.5 0,-45.5 0,-15.5 122,-15.5 122,-45.5"/>
<text text-anchor="start" x="8" y="-33.5" font-family="Helvetica,sans-Serif" font-size="10.00">cxx::Base_slab_static</text>
<text text-anchor="middle" x="61" y="-22.5" font-family="Helvetica,sans-Serif" font-size="10.00">::free_objects</text>
</a>
</g>
</g>
<!-- Node2 -->
<g id="Node000002" class="node">
<title>Node2</title>
<g id="a_Node000002"><a xlink:href="classcxx_1_1Base__slab.html#a0d151a79c4781dadc59d03f635b2651e" target="_top" xlink:title="Get the number of objects which can be allocated before a new empty slab needs to be added to the sla...">
<polygon fill="white" stroke="#666666" points="273,-45.5 158,-45.5 158,-15.5 273,-15.5 273,-45.5"/>
<text text-anchor="start" x="166" y="-33.5" font-family="Helvetica,sans-Serif" font-size="10.00">cxx::Base_slab::free</text>
<text text-anchor="middle" x="215.5" y="-22.5" font-family="Helvetica,sans-Serif" font-size="10.00">_objects</text>
</a>
</g>
</g>
<!-- Node1&#45;&gt;Node2 -->
<g id="edge1_Node000001_Node000002" class="edge">
<title>Node1&#45;&gt;Node2</title>
<g id="a_edge1_Node000001_Node000002"><a xlink:title=" ">
<path fill="none" stroke="#63b8ff" d="M122.27,-30.5C130.56,-30.5 139.11,-30.5 147.51,-30.5"/>
<polygon fill="#63b8ff" stroke="#63b8ff" points="147.65,-34 157.65,-30.5 147.65,-27 147.65,-34"/>
</a>
</g>
</g>
<!-- Node3 -->
<g id="Node000003" class="node">
<title>Node3</title>
<g id="a_Node000003"><a xlink:href="classcxx_1_1Bits_1_1Basic__list.html#af857846edcaf6cbc84827c585b45fd49" target="_top" xlink:title="Return an iterator to the beginning of the list.">
<polygon fill="white" stroke="#666666" points="432,-67.5 321,-67.5 321,-37.5 432,-37.5 432,-67.5"/>
<text text-anchor="start" x="329" y="-55.5" font-family="Helvetica,sans-Serif" font-size="10.00">cxx::Bits::Basic_list</text>
<text text-anchor="middle" x="376.5" y="-44.5" font-family="Helvetica,sans-Serif" font-size="10.00">::begin</text>
</a>
</g>
</g>
<!-- Node2&#45;&gt;Node3 -->
<g id="edge2_Node000002_Node000003" class="edge">
<title>Node2&#45;&gt;Node3</title>
<g id="a_edge2_Node000002_Node000003"><a xlink:title=" ">
<path fill="none" stroke="#63b8ff" d="M273.01,-38.32C285.26,-40.01 298.31,-41.82 310.85,-43.56"/>
<polygon fill="#63b8ff" stroke="#63b8ff" points="310.39,-47.02 320.78,-44.93 311.35,-40.09 310.39,-47.02"/>
</a>
</g>
</g>
<!-- Node4 -->
<g id="Node000004" class="node">
<title>Node4</title>
<g id="a_Node000004"><a xlink:href="classcxx_1_1Bits_1_1Basic__list.html#a08f2ae0b9f0379ce1778ba1f2d163330" target="_top" xlink:title="Return a const iterator to the end of the list.">
<polygon fill="white" stroke="#666666" points="444,-19 309,-19 309,0 444,0 444,-19"/>
<text text-anchor="middle" x="376.5" y="-7" font-family="Helvetica,sans-Serif" font-size="10.00">cxx::Bits::Basic_list::end</text>
</a>
</g>
</g>
<!-- Node2&#45;&gt;Node4 -->
<g id="edge3_Node000002_Node000004" class="edge">
<title>Node2&#45;&gt;Node4</title>
<g id="a_edge3_Node000002_Node000004"><a xlink:title=" ">
<path fill="none" stroke="#63b8ff" d="M273.01,-23.04C281.35,-21.94 290.06,-20.79 298.72,-19.64"/>
<polygon fill="#63b8ff" stroke="#63b8ff" points="299.4,-23.08 308.85,-18.3 298.48,-16.14 299.4,-23.08"/>
</a>
</g>
</g>
</g>
</svg>
