<?xml version="1.0" encoding="UTF-8" standalone="no"?>
<!DOCTYPE svg PUBLIC "-//W3C//DTD SVG 1.1//EN"
 "http://www.w3.org/Graphics/SVG/1.1/DTD/svg11.dtd">
<!-- Generated by graphviz version 2.42.4 (0)
 -->
<!-- Title: L4virtio::Svr::Console::Device::port_write Pages: 1 -->
<svg width="462pt" height="436pt"
 viewBox="0.00 0.00 462.00 436.00" xmlns="http://www.w3.org/2000/svg" xmlns:xlink="http://www.w3.org/1999/xlink">
<g id="graph0" class="graph" transform="scale(1 1) rotate(0) translate(4 432)">
<title>L4virtio::Svr::Console::Device::port_write</title>
<!-- Node1 -->
<g id="Node000001" class="node">
<title>Node1</title>
<g id="a_Node000001"><a xlink:title="Write data to port.">
<polygon fill="#999999" stroke="#666666" points="120,-260 0,-260 0,-230 120,-230 120,-260"/>
<text text-anchor="start" x="8" y="-248" font-family="Helvetica,sans-Serif" font-size="10.00">L4virtio::Svr::Console</text>
<text text-anchor="middle" x="60" y="-237" font-family="Helvetica,sans-Serif" font-size="10.00">::Device::port_write</text>
</a>
</g>
</g>
<!-- Node2 -->
<g id="Node000002" class="node">
<title>Node2</title>
<g id="a_Node000002"><a xlink:href="structL4virtio_1_1Svr_1_1Data__buffer.html#a0ae0d4405b3a3ae5aa554b3adece0138" target="_top" xlink:title="Copy contents from this buffer to the destination buffer.">
<polygon fill="white" stroke="#666666" points="272,-428 168,-428 168,-398 272,-398 272,-428"/>
<text text-anchor="start" x="176" y="-416" font-family="Helvetica,sans-Serif" font-size="10.00">L4virtio::Svr::Data</text>
<text text-anchor="middle" x="220" y="-405" font-family="Helvetica,sans-Serif" font-size="10.00">_buffer::copy_to</text>
</a>
</g>
</g>
<!-- Node1&#45;&gt;Node2 -->
<g id="edge1_Node000001_Node000002" class="edge">
<title>Node1&#45;&gt;Node2</title>
<g id="a_edge1_Node000001_Node000002"><a xlink:title=" ">
<path fill="none" stroke="#63b8ff" d="M67.23,-260.3C79.81,-289.36 110.9,-352.84 156,-389 157.58,-390.26 159.22,-391.46 160.93,-392.61"/>
<polygon fill="#63b8ff" stroke="#63b8ff" points="159.46,-395.8 169.85,-397.84 163,-389.76 159.46,-395.8"/>
</a>
</g>
</g>
<!-- Node3 -->
<g id="Node000003" class="node">
<title>Node3</title>
<g id="a_Node000003"><a xlink:href="classL4virtio_1_1Svr_1_1Virtqueue.html#aeba93ed1ee8f9abfe42542187e54cca0" target="_top" xlink:title="Add a descriptor to the used ring, and notify an observer.">
<polygon fill="white" stroke="#666666" points="284,-380 156,-380 156,-350 284,-350 284,-380"/>
<text text-anchor="start" x="164" y="-368" font-family="Helvetica,sans-Serif" font-size="10.00">L4virtio::Svr::Virtqueue</text>
<text text-anchor="middle" x="220" y="-357" font-family="Helvetica,sans-Serif" font-size="10.00">::finish</text>
</a>
</g>
</g>
<!-- Node1&#45;&gt;Node3 -->
<g id="edge2_Node000001_Node000003" class="edge">
<title>Node1&#45;&gt;Node3</title>
<g id="a_edge2_Node000001_Node000003"><a xlink:title=" ">
<path fill="none" stroke="#63b8ff" d="M72.62,-260.31C89.12,-281.13 121.22,-318.35 156,-341 158.39,-342.56 160.9,-344.04 163.48,-345.44"/>
<polygon fill="#63b8ff" stroke="#63b8ff" points="161.94,-348.58 172.46,-349.9 165.06,-342.31 161.94,-348.58"/>
</a>
</g>
</g>
<!-- Node5 -->
<g id="Node000005" class="node">
<title>Node5</title>
<g id="a_Node000005"><a xlink:href="classL4virtio_1_1Svr_1_1Device__t.html#ac35c61db0aec9e96ee18170bf5bb17b4" target="_top" xlink:title="Get the memory region list used for this device.">
<polygon fill="white" stroke="#666666" points="277.5,-332 162.5,-332 162.5,-302 277.5,-302 277.5,-332"/>
<text text-anchor="start" x="170.5" y="-320" font-family="Helvetica,sans-Serif" font-size="10.00">L4virtio::Svr::Device</text>
<text text-anchor="middle" x="220" y="-309" font-family="Helvetica,sans-Serif" font-size="10.00">_t::mem_info</text>
</a>
</g>
</g>
<!-- Node1&#45;&gt;Node5 -->
<g id="edge4_Node000001_Node000005" class="edge">
<title>Node1&#45;&gt;Node5</title>
<g id="a_edge4_Node000001_Node000005"><a xlink:title=" ">
<path fill="none" stroke="#63b8ff" d="M88.9,-260.06C107.64,-269.93 133.01,-282.85 156,-293 159.91,-294.73 164,-296.45 168.12,-298.14"/>
<polygon fill="#63b8ff" stroke="#63b8ff" points="167.16,-301.53 177.74,-301.99 169.76,-295.03 167.16,-301.53"/>
</a>
</g>
</g>
<!-- Node6 -->
<g id="Node000006" class="node">
<title>Node6</title>
<g id="a_Node000006"><a xlink:href="classL4virtio_1_1Svr_1_1Request__processor.html#a0bb9280caa7b899486ccd83bcf0588cd" target="_top" xlink:title="Switch to the next descriptor in a descriptor chain.">
<polygon fill="white" stroke="#666666" points="280.5,-284 159.5,-284 159.5,-254 280.5,-254 280.5,-284"/>
<text text-anchor="start" x="167.5" y="-272" font-family="Helvetica,sans-Serif" font-size="10.00">L4virtio::Svr::Request</text>
<text text-anchor="middle" x="220" y="-261" font-family="Helvetica,sans-Serif" font-size="10.00">_processor::next</text>
</a>
</g>
</g>
<!-- Node1&#45;&gt;Node6 -->
<g id="edge5_Node000001_Node000006" class="edge">
<title>Node1&#45;&gt;Node6</title>
<g id="a_edge5_Node000001_Node000006"><a xlink:title=" ">
<path fill="none" stroke="#63b8ff" d="M120.28,-254C129.77,-255.45 139.67,-256.95 149.37,-258.42"/>
<polygon fill="#63b8ff" stroke="#63b8ff" points="148.97,-261.9 159.38,-259.94 150.02,-254.98 148.97,-261.9"/>
</a>
</g>
</g>
<!-- Node10 -->
<g id="Node000010" class="node">
<title>Node10</title>
<g id="a_Node000010"><a xlink:href="classL4virtio_1_1Svr_1_1Virtqueue.html#aa7e9493f7fe5bfa9ebaa5d80be8179cf" target="_top" xlink:title="Get the next available descriptor from the available ring.">
<polygon fill="white" stroke="#666666" points="284,-188 156,-188 156,-158 284,-158 284,-188"/>
<text text-anchor="start" x="164" y="-176" font-family="Helvetica,sans-Serif" font-size="10.00">L4virtio::Svr::Virtqueue</text>
<text text-anchor="middle" x="220" y="-165" font-family="Helvetica,sans-Serif" font-size="10.00">::next_avail</text>
</a>
</g>
</g>
<!-- Node1&#45;&gt;Node10 -->
<g id="edge9_Node000001_Node000010" class="edge">
<title>Node1&#45;&gt;Node10</title>
<g id="a_edge9_Node000001_Node000010"><a xlink:title=" ">
<path fill="none" stroke="#63b8ff" d="M88.9,-229.94C107.64,-220.07 133.01,-207.15 156,-197 159.91,-195.27 164,-193.55 168.12,-191.86"/>
<polygon fill="#63b8ff" stroke="#63b8ff" points="169.76,-194.97 177.74,-188.01 167.16,-188.47 169.76,-194.97"/>
</a>
</g>
</g>
<!-- Node11 -->
<g id="Node000011" class="node">
<title>Node11</title>
<g id="a_Node000011"><a xlink:href="classL4virtio_1_1Svr_1_1Console_1_1Device.html#a3d7102514d25d0a1e706ef902760b18c" target="_top" xlink:title="Return the specified port.">
<polygon fill="white" stroke="#666666" points="280,-140 160,-140 160,-110 280,-110 280,-140"/>
<text text-anchor="start" x="168" y="-128" font-family="Helvetica,sans-Serif" font-size="10.00">L4virtio::Svr::Console</text>
<text text-anchor="middle" x="220" y="-117" font-family="Helvetica,sans-Serif" font-size="10.00">::Device::port</text>
</a>
</g>
</g>
<!-- Node1&#45;&gt;Node11 -->
<g id="edge10_Node000001_Node000011" class="edge">
<title>Node1&#45;&gt;Node11</title>
<g id="a_edge10_Node000001_Node000011"><a xlink:title=" ">
<path fill="none" stroke="#63b8ff" d="M72.62,-229.69C89.12,-208.87 121.22,-171.65 156,-149 158.39,-147.44 160.9,-145.96 163.48,-144.56"/>
<polygon fill="#63b8ff" stroke="#63b8ff" points="165.06,-147.69 172.46,-140.1 161.94,-141.42 165.06,-147.69"/>
</a>
</g>
</g>
<!-- Node12 -->
<g id="Node000012" class="node">
<title>Node12</title>
<g id="a_Node000012"><a xlink:href="structL4virtio_1_1Svr_1_1Console_1_1Port.html#a6a7c23d4b6bd657a466d159c30666400" target="_top" xlink:title="Check that device implementation may write to receive queues.">
<polygon fill="white" stroke="#666666" points="280,-78 160,-78 160,-48 280,-48 280,-78"/>
<text text-anchor="start" x="168" y="-66" font-family="Helvetica,sans-Serif" font-size="10.00">L4virtio::Svr::Console</text>
<text text-anchor="middle" x="220" y="-55" font-family="Helvetica,sans-Serif" font-size="10.00">::Port::rx_ready</text>
</a>
</g>
</g>
<!-- Node1&#45;&gt;Node12 -->
<g id="edge11_Node000001_Node000012" class="edge">
<title>Node1&#45;&gt;Node12</title>
<g id="a_edge11_Node000001_Node000012"><a xlink:title=" ">
<path fill="none" stroke="#63b8ff" d="M68.07,-229.97C81.82,-201.92 114.52,-140.83 156,-101 162.83,-94.44 171,-88.49 179.14,-83.35"/>
<polygon fill="#63b8ff" stroke="#63b8ff" points="181.13,-86.23 187.91,-78.09 177.54,-80.23 181.13,-86.23"/>
</a>
</g>
</g>
<!-- Node15 -->
<g id="Node000015" class="node">
<title>Node15</title>
<g id="a_Node000015"><a xlink:href="classL4virtio_1_1Svr_1_1Request__processor.html#abcf6a6b8bf80e0d73d45b5eb9e817abd" target="_top" xlink:title="Start processing a new request.">
<polygon fill="white" stroke="#666666" points="280.5,-236 159.5,-236 159.5,-206 280.5,-206 280.5,-236"/>
<text text-anchor="start" x="167.5" y="-224" font-family="Helvetica,sans-Serif" font-size="10.00">L4virtio::Svr::Request</text>
<text text-anchor="middle" x="220" y="-213" font-family="Helvetica,sans-Serif" font-size="10.00">_processor::start</text>
</a>
</g>
</g>
<!-- Node1&#45;&gt;Node15 -->
<g id="edge14_Node000001_Node000015" class="edge">
<title>Node1&#45;&gt;Node15</title>
<g id="a_edge14_Node000001_Node000015"><a xlink:title=" ">
<path fill="none" stroke="#63b8ff" d="M120.28,-236C129.77,-234.55 139.67,-233.05 149.37,-231.58"/>
<polygon fill="#63b8ff" stroke="#63b8ff" points="150.02,-235.02 159.38,-230.06 148.97,-228.1 150.02,-235.02"/>
</a>
</g>
</g>
<!-- Node4 -->
<g id="Node000004" class="node">
<title>Node4</title>
<g id="a_Node000004"><a xlink:href="classL4virtio_1_1Svr_1_1Virtqueue.html#af6577deb37b3685815f9ae52760390db" target="_top" xlink:title="Put the given descriptor into the used ring.">
<polygon fill="white" stroke="#666666" points="451,-394 323,-394 323,-364 451,-364 451,-394"/>
<text text-anchor="start" x="331" y="-382" font-family="Helvetica,sans-Serif" font-size="10.00">L4virtio::Svr::Virtqueue</text>
<text text-anchor="middle" x="387" y="-371" font-family="Helvetica,sans-Serif" font-size="10.00">::consumed</text>
</a>
</g>
</g>
<!-- Node3&#45;&gt;Node4 -->
<g id="edge3_Node000003_Node000004" class="edge">
<title>Node3&#45;&gt;Node4</title>
<g id="a_edge3_Node000003_Node000004"><a xlink:title=" ">
<path fill="none" stroke="#63b8ff" d="M284.32,-370.37C293.6,-371.16 303.22,-371.98 312.67,-372.78"/>
<polygon fill="#63b8ff" stroke="#63b8ff" points="312.59,-376.28 322.85,-373.64 313.18,-369.31 312.59,-376.28"/>
</a>
</g>
</g>
<!-- Node7 -->
<g id="Node000007" class="node">
<title>Node7</title>
<g id="a_Node000007"><a xlink:href="namespacecxx.html#ab148b2c460eb31462ced9a1eafd9667c" target="_top" xlink:title="Read the value at an address at most once.">
<polygon fill="white" stroke="#666666" points="437.5,-249.5 336.5,-249.5 336.5,-230.5 437.5,-230.5 437.5,-249.5"/>
<text text-anchor="middle" x="387" y="-237.5" font-family="Helvetica,sans-Serif" font-size="10.00">cxx::access_once</text>
</a>
</g>
</g>
<!-- Node6&#45;&gt;Node7 -->
<g id="edge6_Node000006_Node000007" class="edge">
<title>Node6&#45;&gt;Node7</title>
<g id="a_edge6_Node000006_Node000007"><a xlink:title=" ">
<path fill="none" stroke="#63b8ff" d="M280.57,-258.53C295.42,-255.92 311.35,-253.12 326.21,-250.51"/>
<polygon fill="#63b8ff" stroke="#63b8ff" points="327.06,-253.91 336.3,-248.74 325.84,-247.02 327.06,-253.91"/>
</a>
</g>
</g>
<!-- Node8 -->
<g id="Node000008" class="node">
<title>Node8</title>
<g id="a_Node000008"><a xlink:href="structL4virtio_1_1Virtqueue_1_1Desc_1_1Flags.html#afbe72e699f3403f80e62125754c69d14" target="_top" xlink:title="Get the indirect bits ( 2 to 2 ) of raw.">
<polygon fill="white" stroke="#666666" points="448,-298 326,-298 326,-268 448,-268 448,-298"/>
<text text-anchor="start" x="334" y="-286" font-family="Helvetica,sans-Serif" font-size="10.00">L4virtio::Virtqueue</text>
<text text-anchor="middle" x="387" y="-275" font-family="Helvetica,sans-Serif" font-size="10.00">::Desc::Flags::indirect</text>
</a>
</g>
</g>
<!-- Node6&#45;&gt;Node8 -->
<g id="edge7_Node000006_Node000008" class="edge">
<title>Node6&#45;&gt;Node8</title>
<g id="a_edge7_Node000006_Node000008"><a xlink:title=" ">
<path fill="none" stroke="#63b8ff" d="M280.57,-274.05C291.99,-275.02 304.05,-276.05 315.77,-277.04"/>
<polygon fill="#63b8ff" stroke="#63b8ff" points="315.7,-280.55 325.96,-277.91 316.3,-273.57 315.7,-280.55"/>
</a>
</g>
</g>
<!-- Node9 -->
<g id="Node000009" class="node">
<title>Node9</title>
<g id="a_Node000009"><a xlink:href="structL4virtio_1_1Virtqueue_1_1Desc_1_1Flags.html#a7412bbf6d83eccc67857cf7bddaf6897" target="_top" xlink:title="Get the next bits ( 0 to 0 ) of raw.">
<polygon fill="white" stroke="#666666" points="440.5,-346 333.5,-346 333.5,-316 440.5,-316 440.5,-346"/>
<text text-anchor="start" x="341.5" y="-334" font-family="Helvetica,sans-Serif" font-size="10.00">L4virtio::Virtqueue</text>
<text text-anchor="middle" x="387" y="-323" font-family="Helvetica,sans-Serif" font-size="10.00">::Desc::Flags::next</text>
</a>
</g>
</g>
<!-- Node6&#45;&gt;Node9 -->
<g id="edge8_Node000006_Node000009" class="edge">
<title>Node6&#45;&gt;Node9</title>
<g id="a_edge8_Node000006_Node000009"><a xlink:title=" ">
<path fill="none" stroke="#63b8ff" d="M260.67,-284.07C268.41,-287.02 276.46,-290.1 284,-293 300.02,-299.17 303.93,-300.96 320,-307 324.73,-308.78 329.66,-310.61 334.59,-312.43"/>
<polygon fill="#63b8ff" stroke="#63b8ff" points="333.46,-315.74 344.05,-315.9 335.87,-309.17 333.46,-315.74"/>
</a>
</g>
</g>
<!-- Node13 -->
<g id="Node000013" class="node">
<title>Node13</title>
<g id="a_Node000013"><a xlink:href="structL4virtio_1_1Svr_1_1Console_1_1Port.html#a564883ca057696fe31faff4fe2d3dec2" target="_top" xlink:title="Check that the port is open.">
<polygon fill="white" stroke="#666666" points="447,-30 327,-30 327,0 447,0 447,-30"/>
<text text-anchor="start" x="335" y="-18" font-family="Helvetica,sans-Serif" font-size="10.00">L4virtio::Svr::Console</text>
<text text-anchor="middle" x="387" y="-7" font-family="Helvetica,sans-Serif" font-size="10.00">::Port::is_open</text>
</a>
</g>
</g>
<!-- Node12&#45;&gt;Node13 -->
<g id="edge12_Node000012_Node000013" class="edge">
<title>Node12&#45;&gt;Node13</title>
<g id="a_edge12_Node000012_Node000013"><a xlink:title=" ">
<path fill="none" stroke="#63b8ff" d="M272.75,-47.94C289.19,-43.16 307.52,-37.83 324.57,-32.87"/>
<polygon fill="#63b8ff" stroke="#63b8ff" points="325.81,-36.16 334.43,-30 323.85,-29.44 325.81,-36.16"/>
</a>
</g>
</g>
<!-- Node14 -->
<g id="Node000014" class="node">
<title>Node14</title>
<g id="a_Node000014"><a xlink:href="classL4virtio_1_1Virtqueue.html#aa242e930433e8705c4ee00afaf58f686" target="_top" xlink:title="Test if this queue is in working state.">
<polygon fill="white" stroke="#666666" points="440.5,-78 333.5,-78 333.5,-48 440.5,-48 440.5,-78"/>
<text text-anchor="start" x="341.5" y="-66" font-family="Helvetica,sans-Serif" font-size="10.00">L4virtio::Virtqueue</text>
<text text-anchor="middle" x="387" y="-55" font-family="Helvetica,sans-Serif" font-size="10.00">::ready</text>
</a>
</g>
</g>
<!-- Node12&#45;&gt;Node14 -->
<g id="edge13_Node000012_Node000014" class="edge">
<title>Node12&#45;&gt;Node14</title>
<g id="a_edge13_Node000012_Node000014"><a xlink:title=" ">
<path fill="none" stroke="#63b8ff" d="M280.1,-63C294.09,-63 309.06,-63 323.21,-63"/>
<polygon fill="#63b8ff" stroke="#63b8ff" points="323.34,-66.5 333.34,-63 323.34,-59.5 323.34,-66.5"/>
</a>
</g>
</g>
<!-- Node15&#45;&gt;Node7 -->
<g id="edge15_Node000015_Node000007" class="edge">
<title>Node15&#45;&gt;Node7</title>
<g id="a_edge15_Node000015_Node000007"><a xlink:title=" ">
<path fill="none" stroke="#63b8ff" d="M280.57,-227.86C295.42,-229.57 311.35,-231.4 326.21,-233.11"/>
<polygon fill="#63b8ff" stroke="#63b8ff" points="325.96,-236.61 336.3,-234.28 326.76,-229.66 325.96,-236.61"/>
</a>
</g>
</g>
<!-- Node15&#45;&gt;Node8 -->
<g id="edge18_Node000015_Node000008" class="edge">
<title>Node15&#45;&gt;Node8</title>
<g id="a_edge18_Node000015_Node000008"><a xlink:title=" ">
<path fill="none" stroke="#63b8ff" d="M260.67,-236.07C268.41,-239.02 276.46,-242.1 284,-245 300.02,-251.17 303.93,-252.96 320,-259 324.73,-260.78 329.66,-262.61 334.59,-264.43"/>
<polygon fill="#63b8ff" stroke="#63b8ff" points="333.46,-267.74 344.05,-267.9 335.87,-261.17 333.46,-267.74"/>
</a>
</g>
</g>
<!-- Node16 -->
<g id="Node000016" class="node">
<title>Node16</title>
<g id="a_Node000016"><a xlink:href="classL4virtio_1_1Svr_1_1Virtqueue_1_1Head__desc.html#a98a4cc67f88052754fa54451b3d68e2d" target="_top" xlink:title=" ">
<polygon fill="white" stroke="#666666" points="451,-212 323,-212 323,-182 451,-182 451,-212"/>
<text text-anchor="start" x="331" y="-200" font-family="Helvetica,sans-Serif" font-size="10.00">L4virtio::Svr::Virtqueue</text>
<text text-anchor="middle" x="387" y="-189" font-family="Helvetica,sans-Serif" font-size="10.00">::Head_desc::desc</text>
</a>
</g>
</g>
<!-- Node15&#45;&gt;Node16 -->
<g id="edge16_Node000015_Node000016" class="edge">
<title>Node15&#45;&gt;Node16</title>
<g id="a_edge16_Node000015_Node000016"><a xlink:title=" ">
<path fill="none" stroke="#63b8ff" d="M280.57,-212.34C290.99,-210.82 301.95,-209.23 312.69,-207.66"/>
<polygon fill="#63b8ff" stroke="#63b8ff" points="313.51,-211.08 322.9,-206.18 312.5,-204.15 313.51,-211.08"/>
</a>
</g>
</g>
<!-- Node17 -->
<g id="Node000017" class="node">
<title>Node17</title>
<g id="a_Node000017"><a xlink:href="classL4virtio_1_1Svr_1_1Virtqueue.html#a9c3e815065cc8cf0c8fe2573c047dbb4" target="_top" xlink:title="Get a descriptor from the descriptor list.">
<polygon fill="white" stroke="#666666" points="451,-164 323,-164 323,-134 451,-134 451,-164"/>
<text text-anchor="start" x="331" y="-152" font-family="Helvetica,sans-Serif" font-size="10.00">L4virtio::Svr::Virtqueue</text>
<text text-anchor="middle" x="387" y="-141" font-family="Helvetica,sans-Serif" font-size="10.00">::desc</text>
</a>
</g>
</g>
<!-- Node15&#45;&gt;Node17 -->
<g id="edge17_Node000015_Node000017" class="edge">
<title>Node15&#45;&gt;Node17</title>
<g id="a_edge17_Node000015_Node000017"><a xlink:title=" ">
<path fill="none" stroke="#63b8ff" d="M264.26,-206C270.98,-203.25 277.76,-200.22 284,-197 301.09,-188.19 302.84,-181.68 320,-173 323.35,-171.3 326.85,-169.67 330.42,-168.1"/>
<polygon fill="#63b8ff" stroke="#63b8ff" points="332.07,-171.21 339.95,-164.13 329.38,-164.75 332.07,-171.21"/>
</a>
</g>
</g>
<!-- Node18 -->
<g id="Node000018" class="node">
<title>Node18</title>
<g id="a_Node000018"><a xlink:href="classL4virtio_1_1Virtqueue.html#af61e3e4e436b93f37f22243a1c0ffe0e" target="_top" xlink:title=" ">
<polygon fill="white" stroke="#666666" points="454,-115.5 320,-115.5 320,-96.5 454,-96.5 454,-115.5"/>
<text text-anchor="middle" x="387" y="-103.5" font-family="Helvetica,sans-Serif" font-size="10.00">L4virtio::Virtqueue::num</text>
</a>
</g>
</g>
<!-- Node15&#45;&gt;Node18 -->
<g id="edge19_Node000015_Node000018" class="edge">
<title>Node15&#45;&gt;Node18</title>
<g id="a_edge19_Node000015_Node000018"><a xlink:title=" ">
<path fill="none" stroke="#63b8ff" d="M271.2,-205.99C275.81,-203.43 280.18,-200.46 284,-197 310.53,-172.99 292.49,-147.88 320,-125 322.05,-123.3 324.24,-121.75 326.53,-120.34"/>
<polygon fill="#63b8ff" stroke="#63b8ff" points="328.52,-123.25 335.81,-115.56 325.32,-117.03 328.52,-123.25"/>
</a>
</g>
</g>
</g>
</svg>
