<?xml version="1.0" encoding="UTF-8" standalone="no"?>
<!DOCTYPE svg PUBLIC "-//W3C//DTD SVG 1.1//EN"
 "http://www.w3.org/Graphics/SVG/1.1/DTD/svg11.dtd">
<!-- Generated by graphviz version 2.42.4 (0)
 -->
<!-- Title: L4::Cap_base::copy Pages: 1 -->
<svg width="394pt" height="101pt"
 viewBox="0.00 0.00 394.00 101.00" xmlns="http://www.w3.org/2000/svg" xmlns:xlink="http://www.w3.org/1999/xlink">
<g id="graph0" class="graph" transform="scale(1 1) rotate(0) translate(4 97)">
<title>L4::Cap_base::copy</title>
<!-- Node1 -->
<g id="Node000001" class="node">
<title>Node1</title>
<g id="a_Node000001"><a xlink:title="Copy a capability.">
<polygon fill="#999999" stroke="#666666" points="110,-56 0,-56 0,-37 110,-37 110,-56"/>
<text text-anchor="middle" x="55" y="-44" font-family="Helvetica,sans-Serif" font-size="10.00">L4::Cap_base::copy</text>
</a>
</g>
</g>
<!-- Node2 -->
<g id="Node000002" class="node">
<title>Node2</title>
<g id="a_Node000002"><a xlink:href="classL4_1_1Cap__base.html#a60a4c249059576429246b5b74bd3174e" target="_top" xlink:title="Return flex&#45;page for the capability.">
<polygon fill="white" stroke="#666666" points="266,-93 151,-93 151,-74 266,-74 266,-93"/>
<text text-anchor="middle" x="208.5" y="-81" font-family="Helvetica,sans-Serif" font-size="10.00">L4::Cap_base::fpage</text>
</a>
</g>
</g>
<!-- Node1&#45;&gt;Node2 -->
<g id="edge1_Node000001_Node000002" class="edge">
<title>Node1&#45;&gt;Node2</title>
<g id="a_edge1_Node000001_Node000002"><a xlink:title=" ">
<path fill="none" stroke="#63b8ff" d="M95.02,-56.03C114.38,-60.76 137.97,-66.52 158.53,-71.54"/>
<polygon fill="#63b8ff" stroke="#63b8ff" points="157.81,-74.97 168.35,-73.94 159.47,-68.17 157.81,-74.97"/>
</a>
</g>
</g>
<!-- Node4 -->
<g id="Node000004" class="node">
<title>Node4</title>
<g id="a_Node000004"><a xlink:href="classL4_1_1Cap__base.html#ab4937bb12579c752564f7250760d0bda" target="_top" xlink:title="Test whether the capability is a valid capability index (i.e., not L4_INVALID_CAP).">
<polygon fill="white" stroke="#666666" points="271,-56 146,-56 146,-37 271,-37 271,-56"/>
<text text-anchor="middle" x="208.5" y="-44" font-family="Helvetica,sans-Serif" font-size="10.00">L4::Cap_base::is_valid</text>
</a>
</g>
</g>
<!-- Node1&#45;&gt;Node4 -->
<g id="edge3_Node000001_Node000004" class="edge">
<title>Node1&#45;&gt;Node4</title>
<g id="a_edge3_Node000001_Node000004"><a xlink:title=" ">
<path fill="none" stroke="#63b8ff" d="M110.27,-46.5C118.57,-46.5 127.24,-46.5 135.84,-46.5"/>
<polygon fill="#63b8ff" stroke="#63b8ff" points="135.89,-50 145.89,-46.5 135.89,-43 135.89,-50"/>
</a>
</g>
</g>
<!-- Node5 -->
<g id="Node000005" class="node">
<title>Node5</title>
<g id="a_Node000005"><a xlink:href="group__l4__task__api.html#ga8ed2ff7ba204de7c01311c22412a2063" target="_top" xlink:title="Map resources available in the source task to a destination task.">
<polygon fill="white" stroke="#666666" points="248,-19 169,-19 169,0 248,0 248,-19"/>
<text text-anchor="middle" x="208.5" y="-7" font-family="Helvetica,sans-Serif" font-size="10.00">l4_task_map</text>
</a>
</g>
</g>
<!-- Node1&#45;&gt;Node5 -->
<g id="edge4_Node000001_Node000005" class="edge">
<title>Node1&#45;&gt;Node5</title>
<g id="a_edge4_Node000001_Node000005"><a xlink:title=" ">
<path fill="none" stroke="#63b8ff" d="M95.02,-36.97C114.53,-32.21 138.33,-26.39 159.01,-21.34"/>
<polygon fill="#63b8ff" stroke="#63b8ff" points="160,-24.7 168.88,-18.93 158.33,-17.9 160,-24.7"/>
</a>
</g>
</g>
<!-- Node3 -->
<g id="Node000003" class="node">
<title>Node3</title>
<g id="a_Node000003"><a xlink:href="group__l4__fpage__api.html#ga3eaf59757a63812044e2b3a1cdf09d54" target="_top" xlink:title="Create a kernel&#45;object flex page.">
<polygon fill="white" stroke="#666666" points="386,-93 307,-93 307,-74 386,-74 386,-93"/>
<text text-anchor="middle" x="346.5" y="-81" font-family="Helvetica,sans-Serif" font-size="10.00">l4_obj_fpage</text>
</a>
</g>
</g>
<!-- Node2&#45;&gt;Node3 -->
<g id="edge2_Node000002_Node000003" class="edge">
<title>Node2&#45;&gt;Node3</title>
<g id="a_edge2_Node000002_Node000003"><a xlink:title=" ">
<path fill="none" stroke="#63b8ff" d="M266.39,-83.5C276.54,-83.5 287.04,-83.5 296.94,-83.5"/>
<polygon fill="#63b8ff" stroke="#63b8ff" points="296.99,-87 306.99,-83.5 296.99,-80 296.99,-87"/>
</a>
</g>
</g>
<!-- Node6 -->
<g id="Node000006" class="node">
<title>Node6</title>
<g id="a_Node000006"><a xlink:href="group__l4__utcb__api.html#gadc099b4a59e1d99638c72c11a8c8b644" target="_top" xlink:title="Get the UTCB address.">
<polygon fill="white" stroke="#666666" points="372.5,-19 320.5,-19 320.5,0 372.5,0 372.5,-19"/>
<text text-anchor="middle" x="346.5" y="-7" font-family="Helvetica,sans-Serif" font-size="10.00">l4_utcb</text>
</a>
</g>
</g>
<!-- Node5&#45;&gt;Node6 -->
<g id="edge5_Node000005_Node000006" class="edge">
<title>Node5&#45;&gt;Node6</title>
<g id="a_edge5_Node000005_Node000006"><a xlink:title=" ">
<path fill="none" stroke="#63b8ff" d="M248.11,-9.5C267.59,-9.5 291.05,-9.5 310.07,-9.5"/>
<polygon fill="#63b8ff" stroke="#63b8ff" points="310.12,-13 320.12,-9.5 310.12,-6 310.12,-13"/>
</a>
</g>
</g>
</g>
</svg>
