<?xml version="1.0" encoding="UTF-8" standalone="no"?>
<!DOCTYPE svg PUBLIC "-//W3C//DTD SVG 1.1//EN"
 "http://www.w3.org/Graphics/SVG/1.1/DTD/svg11.dtd">
<!-- Generated by graphviz version 2.43.0 (0)
 -->
<!-- Title: L4Re::Util::Video::Goos_svr Pages: 1 -->
<svg width="473pt" height="1006pt"
 viewBox="0.00 0.00 473.00 1006.00" xmlns="http://www.w3.org/2000/svg" xmlns:xlink="http://www.w3.org/1999/xlink">
<g id="graph0" class="graph" transform="scale(1 1) rotate(0) translate(4 1002)">
<title>L4Re::Util::Video::Goos_svr</title>
<!-- Node1 -->
<g id="Node000001" class="node">
<title>Node1</title>
<g id="a_Node000001"><a xlink:title="Goos server class.">
<polygon fill="#999999" stroke="transparent" points="284.5,-135 186.5,-135 186.5,0 284.5,0 284.5,-135"/>
<text text-anchor="start" x="191.5" y="-122.5" font-family="Helvetica,sans-Serif" font-size="10.00">L4Re::Util::Video::</text>
<text text-anchor="start" x="212.5" y="-111.5" font-family="Helvetica,sans-Serif" font-size="10.00">Goos_svr</text>
<text text-anchor="start" x="233.5" y="-96.5" font-family="Helvetica,sans-Serif" font-size="10.00"> </text>
<text text-anchor="start" x="193.5" y="-81.5" font-family="Helvetica,sans-Serif" font-size="10.00">+</text>
<text text-anchor="start" x="209.5" y="-81.5" font-family="Helvetica,sans-Serif" font-size="10.00">get_fb()</text>
<text text-anchor="start" x="193.5" y="-66.5" font-family="Helvetica,sans-Serif" font-size="10.00">+</text>
<text text-anchor="start" x="209.5" y="-66.5" font-family="Helvetica,sans-Serif" font-size="10.00">screen_info()</text>
<text text-anchor="start" x="193.5" y="-51.5" font-family="Helvetica,sans-Serif" font-size="10.00">+</text>
<text text-anchor="start" x="209.5" y="-51.5" font-family="Helvetica,sans-Serif" font-size="10.00">view_info()</text>
<text text-anchor="start" x="193.5" y="-36.5" font-family="Helvetica,sans-Serif" font-size="10.00">+</text>
<text text-anchor="start" x="209.5" y="-36.5" font-family="Helvetica,sans-Serif" font-size="10.00">refresh()</text>
<text text-anchor="start" x="193.5" y="-21.5" font-family="Helvetica,sans-Serif" font-size="10.00">+</text>
<text text-anchor="start" x="209.5" y="-21.5" font-family="Helvetica,sans-Serif" font-size="10.00">init_infos()</text>
<text text-anchor="start" x="193.5" y="-6.5" font-family="Helvetica,sans-Serif" font-size="10.00">+</text>
<text text-anchor="start" x="209.5" y="-6.5" font-family="Helvetica,sans-Serif" font-size="10.00">~Goos_svr()</text>
<polygon fill="#666666" stroke="#666666" points="186.5,-106.5 186.5,-106.5 284.5,-106.5 284.5,-106.5 186.5,-106.5"/>
<polygon fill="#666666" stroke="#666666" points="186.5,-91.5 186.5,-91.5 284.5,-91.5 284.5,-91.5 186.5,-91.5"/>
<polygon fill="none" stroke="#666666" points="186.5,0 186.5,-135 284.5,-135 284.5,0 186.5,0"/>
</a>
</g>
</g>
<!-- Node2 -->
<g id="Node000002" class="node">
<title>Node2</title>
<g id="a_Node000002"><a xlink:href="classL4_1_1Cap.html" target="_top" xlink:title=" ">
<polygon fill="white" stroke="transparent" points="151,-396 0,-396 0,-242 151,-242 151,-396"/>
<text text-anchor="start" x="5.5" y="-384" font-family="Helvetica,sans-Serif" font-size="10.00">L4::Cap&lt; L4Re::Dataspace &gt;</text>
<text text-anchor="start" x="74" y="-369" font-family="Helvetica,sans-Serif" font-size="10.00"> </text>
<text text-anchor="start" x="21.5" y="-354" font-family="Helvetica,sans-Serif" font-size="10.00">+</text>
<text text-anchor="start" x="51.5" y="-354" font-family="Helvetica,sans-Serif" font-size="10.00">Cap()</text>
<text text-anchor="start" x="21.5" y="-339" font-family="Helvetica,sans-Serif" font-size="10.00">+</text>
<text text-anchor="start" x="51.5" y="-339" font-family="Helvetica,sans-Serif" font-size="10.00">Cap()</text>
<text text-anchor="start" x="21.5" y="-324" font-family="Helvetica,sans-Serif" font-size="10.00">+</text>
<text text-anchor="start" x="51.5" y="-324" font-family="Helvetica,sans-Serif" font-size="10.00">Cap()</text>
<text text-anchor="start" x="21.5" y="-309" font-family="Helvetica,sans-Serif" font-size="10.00">+</text>
<text text-anchor="start" x="51.5" y="-309" font-family="Helvetica,sans-Serif" font-size="10.00">Cap()</text>
<text text-anchor="start" x="21.5" y="-294" font-family="Helvetica,sans-Serif" font-size="10.00">+</text>
<text text-anchor="start" x="51.5" y="-294" font-family="Helvetica,sans-Serif" font-size="10.00">Cap()</text>
<text text-anchor="start" x="21.5" y="-279" font-family="Helvetica,sans-Serif" font-size="10.00">+</text>
<text text-anchor="start" x="51.5" y="-279" font-family="Helvetica,sans-Serif" font-size="10.00">move()</text>
<text text-anchor="start" x="21.5" y="-264" font-family="Helvetica,sans-Serif" font-size="10.00">+</text>
<text text-anchor="start" x="51.5" y="-264" font-family="Helvetica,sans-Serif" font-size="10.00">copy()</text>
<text text-anchor="start" x="21.5" y="-249" font-family="Helvetica,sans-Serif" font-size="10.00">+</text>
<text text-anchor="start" x="51.5" y="-249" font-family="Helvetica,sans-Serif" font-size="10.00">operator&#45;&gt;()</text>
<polygon fill="#666666" stroke="#666666" points="0.5,-379 0.5,-379 151.5,-379 151.5,-379 0.5,-379"/>
<polygon fill="#666666" stroke="#666666" points="0.5,-364 0.5,-364 151.5,-364 151.5,-364 0.5,-364"/>
<polygon fill="none" stroke="#666666" points="0,-242 0,-396 151,-396 151,-242 0,-242"/>
</a>
</g>
</g>
<!-- Node2&#45;&gt;Node1 -->
<g id="edge1_Node000001_Node000002" class="edge">
<title>Node2&#45;&gt;Node1</title>
<g id="a_edge1_Node000001_Node000002"><a xlink:title=" ">
<path fill="none" stroke="#63b8ff" d="M121.88,-241.8C133.99,-222.22 147.11,-201.25 159.5,-182 167.17,-170.08 175.4,-157.54 183.51,-145.32"/>
<polygon fill="none" stroke="#63b8ff" points="183.63,-145.14 183.63,-137.93 190.28,-135.15 190.29,-142.36 183.63,-145.14"/>
</a>
</g>
<text text-anchor="middle" x="200" y="-156" font-family="Helvetica,sans-Serif" font-size="10.00" fill="grey"> #_fb_ds</text>
</g>
<!-- Node3 -->
<g id="Node000003" class="node">
<title>Node3</title>
<g id="a_Node000003"><a xlink:href="classL4_1_1Cap__base.html" target="_top" xlink:title="Base class for all kinds of capabilities.">
<polygon fill="white" stroke="transparent" points="129,-998 42,-998 42,-739 129,-739 129,-998"/>
<text text-anchor="start" x="53.5" y="-985.5" font-family="Helvetica,sans-Serif" font-size="10.00">L4::Cap_base</text>
<text text-anchor="start" x="46.5" y="-970.5" font-family="Helvetica,sans-Serif" font-size="10.00">#</text>
<text text-anchor="start" x="59.5" y="-970.5" font-family="Helvetica,sans-Serif" font-size="10.00">_c</text>
<text text-anchor="start" x="46.5" y="-955.5" font-family="Helvetica,sans-Serif" font-size="10.00">+</text>
<text text-anchor="start" x="59.5" y="-955.5" font-family="Helvetica,sans-Serif" font-size="10.00">cap()</text>
<text text-anchor="start" x="46.5" y="-940.5" font-family="Helvetica,sans-Serif" font-size="10.00">+</text>
<text text-anchor="start" x="59.5" y="-940.5" font-family="Helvetica,sans-Serif" font-size="10.00">is_valid()</text>
<text text-anchor="start" x="46.5" y="-925.5" font-family="Helvetica,sans-Serif" font-size="10.00">+</text>
<text text-anchor="start" x="59.5" y="-925.5" font-family="Helvetica,sans-Serif" font-size="10.00">fpage()</text>
<text text-anchor="start" x="46.5" y="-910.5" font-family="Helvetica,sans-Serif" font-size="10.00">+</text>
<text text-anchor="start" x="59.5" y="-910.5" font-family="Helvetica,sans-Serif" font-size="10.00">snd_base()</text>
<text text-anchor="start" x="46.5" y="-895.5" font-family="Helvetica,sans-Serif" font-size="10.00">+</text>
<text text-anchor="start" x="59.5" y="-895.5" font-family="Helvetica,sans-Serif" font-size="10.00">operator==()</text>
<text text-anchor="start" x="46.5" y="-880.5" font-family="Helvetica,sans-Serif" font-size="10.00">+</text>
<text text-anchor="start" x="59.5" y="-880.5" font-family="Helvetica,sans-Serif" font-size="10.00">operator!=()</text>
<text text-anchor="start" x="46.5" y="-865.5" font-family="Helvetica,sans-Serif" font-size="10.00">+</text>
<text text-anchor="start" x="59.5" y="-865.5" font-family="Helvetica,sans-Serif" font-size="10.00">validate()</text>
<text text-anchor="start" x="46.5" y="-850.5" font-family="Helvetica,sans-Serif" font-size="10.00">+</text>
<text text-anchor="start" x="59.5" y="-850.5" font-family="Helvetica,sans-Serif" font-size="10.00">validate()</text>
<text text-anchor="start" x="46.5" y="-835.5" font-family="Helvetica,sans-Serif" font-size="10.00">+</text>
<text text-anchor="start" x="59.5" y="-835.5" font-family="Helvetica,sans-Serif" font-size="10.00">invalidate()</text>
<text text-anchor="start" x="46.5" y="-820.5" font-family="Helvetica,sans-Serif" font-size="10.00">#</text>
<text text-anchor="start" x="59.5" y="-820.5" font-family="Helvetica,sans-Serif" font-size="10.00">Cap_base()</text>
<text text-anchor="start" x="46.5" y="-805.5" font-family="Helvetica,sans-Serif" font-size="10.00">#</text>
<text text-anchor="start" x="59.5" y="-805.5" font-family="Helvetica,sans-Serif" font-size="10.00">Cap_base()</text>
<text text-anchor="start" x="46.5" y="-790.5" font-family="Helvetica,sans-Serif" font-size="10.00">#</text>
<text text-anchor="start" x="59.5" y="-790.5" font-family="Helvetica,sans-Serif" font-size="10.00">Cap_base()</text>
<text text-anchor="start" x="46.5" y="-775.5" font-family="Helvetica,sans-Serif" font-size="10.00">#</text>
<text text-anchor="start" x="59.5" y="-775.5" font-family="Helvetica,sans-Serif" font-size="10.00">Cap_base()</text>
<text text-anchor="start" x="46.5" y="-760.5" font-family="Helvetica,sans-Serif" font-size="10.00">#</text>
<text text-anchor="start" x="59.5" y="-760.5" font-family="Helvetica,sans-Serif" font-size="10.00">move()</text>
<text text-anchor="start" x="46.5" y="-745.5" font-family="Helvetica,sans-Serif" font-size="10.00">#</text>
<text text-anchor="start" x="59.5" y="-745.5" font-family="Helvetica,sans-Serif" font-size="10.00">copy()</text>
<polygon fill="#666666" stroke="#666666" points="42.5,-980.5 42.5,-980.5 129.5,-980.5 129.5,-980.5 42.5,-980.5"/>
<polygon fill="#666666" stroke="#666666" points="42.5,-965.5 42.5,-965.5 57.5,-965.5 57.5,-965.5 42.5,-965.5"/>
<polygon fill="#666666" stroke="#666666" points="57.5,-965.5 57.5,-965.5 129.5,-965.5 129.5,-965.5 57.5,-965.5"/>
<polygon fill="none" stroke="#666666" points="42,-739 42,-998 129,-998 129,-739 42,-739"/>
</a>
</g>
</g>
<!-- Node3&#45;&gt;Node2 -->
<g id="edge2_Node000002_Node000003" class="edge">
<title>Node3&#45;&gt;Node2</title>
<g id="a_edge2_Node000002_Node000003"><a xlink:title=" ">
<path fill="none" stroke="#63b8ff" d="M82.96,-728.7C81.04,-623.26 78.46,-482.21 76.9,-396.39"/>
<polygon fill="none" stroke="#63b8ff" points="79.47,-728.86 83.15,-738.79 86.47,-728.73 79.47,-728.86"/>
</a>
</g>
</g>
<!-- Node4 -->
<g id="Node000004" class="node">
<title>Node4</title>
<g id="a_Node000004"><a xlink:href="classL4_1_1Cap.html" target="_top" xlink:title="C++ interface for capabilities.">
<polygon fill="white" stroke="transparent" points="183.5,-679.5 101.5,-679.5 101.5,-525.5 183.5,-525.5 183.5,-679.5"/>
<text text-anchor="start" x="110" y="-667.5" font-family="Helvetica,sans-Serif" font-size="10.00">L4::Cap&lt; T &gt;</text>
<text text-anchor="start" x="140.5" y="-652.5" font-family="Helvetica,sans-Serif" font-size="10.00"> </text>
<text text-anchor="start" x="105.5" y="-637.5" font-family="Helvetica,sans-Serif" font-size="10.00">+</text>
<text text-anchor="start" x="118.5" y="-637.5" font-family="Helvetica,sans-Serif" font-size="10.00">Cap()</text>
<text text-anchor="start" x="105.5" y="-622.5" font-family="Helvetica,sans-Serif" font-size="10.00">+</text>
<text text-anchor="start" x="118.5" y="-622.5" font-family="Helvetica,sans-Serif" font-size="10.00">Cap()</text>
<text text-anchor="start" x="105.5" y="-607.5" font-family="Helvetica,sans-Serif" font-size="10.00">+</text>
<text text-anchor="start" x="118.5" y="-607.5" font-family="Helvetica,sans-Serif" font-size="10.00">Cap()</text>
<text text-anchor="start" x="105.5" y="-592.5" font-family="Helvetica,sans-Serif" font-size="10.00">+</text>
<text text-anchor="start" x="118.5" y="-592.5" font-family="Helvetica,sans-Serif" font-size="10.00">Cap()</text>
<text text-anchor="start" x="105.5" y="-577.5" font-family="Helvetica,sans-Serif" font-size="10.00">+</text>
<text text-anchor="start" x="118.5" y="-577.5" font-family="Helvetica,sans-Serif" font-size="10.00">Cap()</text>
<text text-anchor="start" x="105.5" y="-562.5" font-family="Helvetica,sans-Serif" font-size="10.00">+</text>
<text text-anchor="start" x="118.5" y="-562.5" font-family="Helvetica,sans-Serif" font-size="10.00">move()</text>
<text text-anchor="start" x="105.5" y="-547.5" font-family="Helvetica,sans-Serif" font-size="10.00">+</text>
<text text-anchor="start" x="118.5" y="-547.5" font-family="Helvetica,sans-Serif" font-size="10.00">copy()</text>
<text text-anchor="start" x="105.5" y="-532.5" font-family="Helvetica,sans-Serif" font-size="10.00">+</text>
<text text-anchor="start" x="118.5" y="-532.5" font-family="Helvetica,sans-Serif" font-size="10.00">operator&#45;&gt;()</text>
<polygon fill="#666666" stroke="#666666" points="101.5,-662.5 101.5,-662.5 183.5,-662.5 183.5,-662.5 101.5,-662.5"/>
<polygon fill="#666666" stroke="#666666" points="101.5,-647.5 101.5,-647.5 183.5,-647.5 183.5,-647.5 101.5,-647.5"/>
<polygon fill="none" stroke="#666666" points="101.5,-525.5 101.5,-679.5 183.5,-679.5 183.5,-525.5 101.5,-525.5"/>
</a>
</g>
</g>
<!-- Node3&#45;&gt;Node4 -->
<g id="edge4_Node000004_Node000003" class="edge">
<title>Node3&#45;&gt;Node4</title>
<g id="a_edge4_Node000004_Node000003"><a xlink:title=" ">
<path fill="none" stroke="#63b8ff" d="M115.41,-728.98C119.07,-712 122.71,-695.16 126.07,-679.6"/>
<polygon fill="none" stroke="#63b8ff" points="111.94,-728.47 113.25,-738.98 118.78,-729.94 111.94,-728.47"/>
</a>
</g>
</g>
<!-- Node4&#45;&gt;Node2 -->
<g id="edge3_Node000002_Node000004" class="edge">
<title>Node4&#45;&gt;Node2</title>
<g id="a_edge3_Node000002_Node000004"><a xlink:title=" ">
<path fill="none" stroke="orange" d="M121.98,-515.29C112.94,-477.29 102.4,-433.02 93.65,-396.24"/>
<polygon fill="orange" stroke="orange" points="118.65,-516.4 124.37,-525.32 125.46,-514.78 118.65,-516.4"/>
</a>
</g>
<text text-anchor="middle" x="167.5" y="-477" font-family="Helvetica,sans-Serif" font-size="10.00" fill="grey"> &lt; L4Re::Dataspace &gt;</text>
</g>
<!-- Node5 -->
<g id="Node000005" class="node">
<title>Node5</title>
<g id="a_Node000005"><a xlink:href="structL4Re_1_1Video_1_1Goos_1_1Info.html" target="_top" xlink:title="Information structure of a Goos.">
<polygon fill="white" stroke="transparent" points="302,-396 169,-396 169,-242 302,-242 302,-396"/>
<text text-anchor="start" x="179" y="-384" font-family="Helvetica,sans-Serif" font-size="10.00">L4Re::Video::Goos::Info</text>
<text text-anchor="start" x="173.5" y="-369" font-family="Helvetica,sans-Serif" font-size="10.00">+</text>
<text text-anchor="start" x="186.5" y="-369" font-family="Helvetica,sans-Serif" font-size="10.00">width</text>
<text text-anchor="start" x="173.5" y="-354" font-family="Helvetica,sans-Serif" font-size="10.00">+</text>
<text text-anchor="start" x="186.5" y="-354" font-family="Helvetica,sans-Serif" font-size="10.00">height</text>
<text text-anchor="start" x="173.5" y="-339" font-family="Helvetica,sans-Serif" font-size="10.00">+</text>
<text text-anchor="start" x="186.5" y="-339" font-family="Helvetica,sans-Serif" font-size="10.00">flags</text>
<text text-anchor="start" x="173.5" y="-324" font-family="Helvetica,sans-Serif" font-size="10.00">+</text>
<text text-anchor="start" x="186.5" y="-324" font-family="Helvetica,sans-Serif" font-size="10.00">num_static_views</text>
<text text-anchor="start" x="173.5" y="-309" font-family="Helvetica,sans-Serif" font-size="10.00">+</text>
<text text-anchor="start" x="186.5" y="-309" font-family="Helvetica,sans-Serif" font-size="10.00">num_static_buffers</text>
<text text-anchor="start" x="173.5" y="-294" font-family="Helvetica,sans-Serif" font-size="10.00">+</text>
<text text-anchor="start" x="186.5" y="-294" font-family="Helvetica,sans-Serif" font-size="10.00">auto_refresh()</text>
<text text-anchor="start" x="173.5" y="-279" font-family="Helvetica,sans-Serif" font-size="10.00">+</text>
<text text-anchor="start" x="186.5" y="-279" font-family="Helvetica,sans-Serif" font-size="10.00">has_pointer()</text>
<text text-anchor="start" x="173.5" y="-264" font-family="Helvetica,sans-Serif" font-size="10.00">+</text>
<text text-anchor="start" x="186.5" y="-264" font-family="Helvetica,sans-Serif" font-size="10.00">has_dynamic_views()</text>
<text text-anchor="start" x="173.5" y="-249" font-family="Helvetica,sans-Serif" font-size="10.00">+</text>
<text text-anchor="start" x="186.5" y="-249" font-family="Helvetica,sans-Serif" font-size="10.00">has_dynamic_buffers()</text>
<polygon fill="#666666" stroke="#666666" points="169.5,-379 169.5,-379 302.5,-379 302.5,-379 169.5,-379"/>
<polygon fill="#666666" stroke="#666666" points="169.5,-304 169.5,-304 184.5,-304 184.5,-304 169.5,-304"/>
<polygon fill="#666666" stroke="#666666" points="184.5,-304 184.5,-304 302.5,-304 302.5,-304 184.5,-304"/>
<polygon fill="none" stroke="#666666" points="169,-242 169,-396 302,-396 302,-242 169,-242"/>
</a>
</g>
</g>
<!-- Node5&#45;&gt;Node1 -->
<g id="edge5_Node000001_Node000005" class="edge">
<title>Node5&#45;&gt;Node1</title>
<g id="a_edge5_Node000001_Node000005"><a xlink:title=" ">
<path fill="none" stroke="#63b8ff" d="M235.5,-241.79C235.5,-211.94 235.5,-177.69 235.5,-147.57"/>
<polygon fill="none" stroke="#63b8ff" points="235.5,-147.38 231.5,-141.38 235.5,-135.38 239.5,-141.38 235.5,-147.38"/>
</a>
</g>
<text text-anchor="middle" x="272" y="-156" font-family="Helvetica,sans-Serif" font-size="10.00" fill="grey"> #_screen_info</text>
</g>
<!-- Node6 -->
<g id="Node000006" class="node">
<title>Node6</title>
<g id="a_Node000006"><a xlink:href="classL4Re_1_1Video_1_1Pixel__info.html" target="_top" xlink:title="Pixel information.">
<polygon fill="white" stroke="transparent" points="351.5,-702 229.5,-702 229.5,-503 351.5,-503 351.5,-702"/>
<text text-anchor="start" x="234.5" y="-689.5" font-family="Helvetica,sans-Serif" font-size="10.00">L4Re::Video::Pixel_info</text>
<text text-anchor="start" x="288.5" y="-674.5" font-family="Helvetica,sans-Serif" font-size="10.00"> </text>
<text text-anchor="start" x="237.5" y="-659.5" font-family="Helvetica,sans-Serif" font-size="10.00">+</text>
<text text-anchor="start" x="254.5" y="-659.5" font-family="Helvetica,sans-Serif" font-size="10.00">r()</text>
<text text-anchor="start" x="237.5" y="-644.5" font-family="Helvetica,sans-Serif" font-size="10.00">+</text>
<text text-anchor="start" x="254.5" y="-644.5" font-family="Helvetica,sans-Serif" font-size="10.00">g()</text>
<text text-anchor="start" x="237.5" y="-629.5" font-family="Helvetica,sans-Serif" font-size="10.00">+</text>
<text text-anchor="start" x="254.5" y="-629.5" font-family="Helvetica,sans-Serif" font-size="10.00">b()</text>
<text text-anchor="start" x="237.5" y="-614.5" font-family="Helvetica,sans-Serif" font-size="10.00">+</text>
<text text-anchor="start" x="254.5" y="-614.5" font-family="Helvetica,sans-Serif" font-size="10.00">a()</text>
<text text-anchor="start" x="237.5" y="-599.5" font-family="Helvetica,sans-Serif" font-size="10.00">+</text>
<text text-anchor="start" x="254.5" y="-599.5" font-family="Helvetica,sans-Serif" font-size="10.00">padding()</text>
<text text-anchor="start" x="237.5" y="-584.5" font-family="Helvetica,sans-Serif" font-size="10.00">+</text>
<text text-anchor="start" x="254.5" y="-584.5" font-family="Helvetica,sans-Serif" font-size="10.00">bytes_per_pixel()</text>
<text text-anchor="start" x="237.5" y="-569.5" font-family="Helvetica,sans-Serif" font-size="10.00">+</text>
<text text-anchor="start" x="254.5" y="-569.5" font-family="Helvetica,sans-Serif" font-size="10.00">bits_per_pixel()</text>
<text text-anchor="start" x="237.5" y="-554.5" font-family="Helvetica,sans-Serif" font-size="10.00">+</text>
<text text-anchor="start" x="254.5" y="-554.5" font-family="Helvetica,sans-Serif" font-size="10.00">has_alpha()</text>
<text text-anchor="start" x="237.5" y="-539.5" font-family="Helvetica,sans-Serif" font-size="10.00">+</text>
<text text-anchor="start" x="254.5" y="-539.5" font-family="Helvetica,sans-Serif" font-size="10.00">r()</text>
<text text-anchor="start" x="237.5" y="-524.5" font-family="Helvetica,sans-Serif" font-size="10.00">+</text>
<text text-anchor="start" x="254.5" y="-524.5" font-family="Helvetica,sans-Serif" font-size="10.00">g()</text>
<text text-anchor="start" x="254.5" y="-509.5" font-family="Helvetica,sans-Serif" font-size="10.00">and 8 more...</text>
<polygon fill="#666666" stroke="#666666" points="229.5,-684.5 229.5,-684.5 351.5,-684.5 351.5,-684.5 229.5,-684.5"/>
<polygon fill="#666666" stroke="#666666" points="229.5,-669.5 229.5,-669.5 351.5,-669.5 351.5,-669.5 229.5,-669.5"/>
<polygon fill="none" stroke="#666666" points="229.5,-503 229.5,-702 351.5,-702 351.5,-503 229.5,-503"/>
</a>
</g>
</g>
<!-- Node6&#45;&gt;Node5 -->
<g id="edge6_Node000005_Node000006" class="edge">
<title>Node6&#45;&gt;Node5</title>
<g id="a_edge6_Node000005_Node000006"><a xlink:title=" ">
<path fill="none" stroke="#63b8ff" d="M271.19,-502.65C265.17,-471.88 258.59,-438.17 252.73,-408.18"/>
<polygon fill="none" stroke="#63b8ff" points="252.65,-407.79 247.58,-402.66 250.35,-396.01 255.43,-401.13 252.65,-407.79"/>
</a>
</g>
<text text-anchor="middle" x="295" y="-477" font-family="Helvetica,sans-Serif" font-size="10.00" fill="grey"> +pixel_info</text>
</g>
<!-- Node7 -->
<g id="Node000007" class="node">
<title>Node7</title>
<g id="a_Node000007"><a xlink:href="structL4Re_1_1Video_1_1View_1_1Info.html" target="_top" xlink:title="Information structure of a view.">
<polygon fill="white" stroke="transparent" points="465,-456 320,-456 320,-182 465,-182 465,-456"/>
<text text-anchor="start" x="337" y="-444" font-family="Helvetica,sans-Serif" font-size="10.00">L4Re::Video::View::Info</text>
<text text-anchor="start" x="324.5" y="-429" font-family="Helvetica,sans-Serif" font-size="10.00">+</text>
<text text-anchor="start" x="337.5" y="-429" font-family="Helvetica,sans-Serif" font-size="10.00">flags</text>
<text text-anchor="start" x="324.5" y="-414" font-family="Helvetica,sans-Serif" font-size="10.00">+</text>
<text text-anchor="start" x="337.5" y="-414" font-family="Helvetica,sans-Serif" font-size="10.00">view_index</text>
<text text-anchor="start" x="324.5" y="-399" font-family="Helvetica,sans-Serif" font-size="10.00">+</text>
<text text-anchor="start" x="337.5" y="-399" font-family="Helvetica,sans-Serif" font-size="10.00">xpos</text>
<text text-anchor="start" x="324.5" y="-384" font-family="Helvetica,sans-Serif" font-size="10.00">+</text>
<text text-anchor="start" x="337.5" y="-384" font-family="Helvetica,sans-Serif" font-size="10.00">ypos</text>
<text text-anchor="start" x="324.5" y="-369" font-family="Helvetica,sans-Serif" font-size="10.00">+</text>
<text text-anchor="start" x="337.5" y="-369" font-family="Helvetica,sans-Serif" font-size="10.00">width</text>
<text text-anchor="start" x="324.5" y="-354" font-family="Helvetica,sans-Serif" font-size="10.00">+</text>
<text text-anchor="start" x="337.5" y="-354" font-family="Helvetica,sans-Serif" font-size="10.00">height</text>
<text text-anchor="start" x="324.5" y="-339" font-family="Helvetica,sans-Serif" font-size="10.00">+</text>
<text text-anchor="start" x="337.5" y="-339" font-family="Helvetica,sans-Serif" font-size="10.00">buffer_offset</text>
<text text-anchor="start" x="324.5" y="-324" font-family="Helvetica,sans-Serif" font-size="10.00">+</text>
<text text-anchor="start" x="337.5" y="-324" font-family="Helvetica,sans-Serif" font-size="10.00">bytes_per_line</text>
<text text-anchor="start" x="324.5" y="-309" font-family="Helvetica,sans-Serif" font-size="10.00">+</text>
<text text-anchor="start" x="337.5" y="-309" font-family="Helvetica,sans-Serif" font-size="10.00">buffer_index</text>
<text text-anchor="start" x="324.5" y="-294" font-family="Helvetica,sans-Serif" font-size="10.00">+</text>
<text text-anchor="start" x="337.5" y="-294" font-family="Helvetica,sans-Serif" font-size="10.00">has_static_buffer()</text>
<text text-anchor="start" x="324.5" y="-279" font-family="Helvetica,sans-Serif" font-size="10.00">+</text>
<text text-anchor="start" x="337.5" y="-279" font-family="Helvetica,sans-Serif" font-size="10.00">has_static_buffer_offset()</text>
<text text-anchor="start" x="324.5" y="-264" font-family="Helvetica,sans-Serif" font-size="10.00">+</text>
<text text-anchor="start" x="337.5" y="-264" font-family="Helvetica,sans-Serif" font-size="10.00">has_set_buffer()</text>
<text text-anchor="start" x="324.5" y="-249" font-family="Helvetica,sans-Serif" font-size="10.00">+</text>
<text text-anchor="start" x="337.5" y="-249" font-family="Helvetica,sans-Serif" font-size="10.00">has_set_buffer_offset()</text>
<text text-anchor="start" x="324.5" y="-234" font-family="Helvetica,sans-Serif" font-size="10.00">+</text>
<text text-anchor="start" x="337.5" y="-234" font-family="Helvetica,sans-Serif" font-size="10.00">has_set_bytes_per_line()</text>
<text text-anchor="start" x="324.5" y="-219" font-family="Helvetica,sans-Serif" font-size="10.00">+</text>
<text text-anchor="start" x="337.5" y="-219" font-family="Helvetica,sans-Serif" font-size="10.00">has_set_pixel()</text>
<text text-anchor="start" x="324.5" y="-204" font-family="Helvetica,sans-Serif" font-size="10.00">+</text>
<text text-anchor="start" x="337.5" y="-204" font-family="Helvetica,sans-Serif" font-size="10.00">has_set_position()</text>
<text text-anchor="start" x="324.5" y="-189" font-family="Helvetica,sans-Serif" font-size="10.00">+</text>
<text text-anchor="start" x="337.5" y="-189" font-family="Helvetica,sans-Serif" font-size="10.00">dump()</text>
<polygon fill="#666666" stroke="#666666" points="320.5,-439 320.5,-439 465.5,-439 465.5,-439 320.5,-439"/>
<polygon fill="#666666" stroke="#666666" points="320.5,-304 320.5,-304 335.5,-304 335.5,-304 320.5,-304"/>
<polygon fill="#666666" stroke="#666666" points="335.5,-304 335.5,-304 465.5,-304 465.5,-304 335.5,-304"/>
<polygon fill="none" stroke="#666666" points="320,-182 320,-456 465,-456 465,-182 320,-182"/>
</a>
</g>
</g>
<!-- Node6&#45;&gt;Node7 -->
<g id="edge8_Node000007_Node000006" class="edge">
<title>Node6&#45;&gt;Node7</title>
<g id="a_edge8_Node000007_Node000006"><a xlink:title=" ">
<path fill="none" stroke="#63b8ff" d="M326.32,-502.65C330.45,-491.24 334.73,-479.44 339.03,-467.56"/>
<polygon fill="none" stroke="#63b8ff" points="339.07,-467.45 337.36,-460.45 343.16,-456.17 344.88,-463.17 339.07,-467.45"/>
</a>
</g>
<text text-anchor="middle" x="364" y="-477" font-family="Helvetica,sans-Serif" font-size="10.00" fill="grey"> +pixel_info</text>
</g>
<!-- Node7&#45;&gt;Node1 -->
<g id="edge7_Node000001_Node000007" class="edge">
<title>Node7&#45;&gt;Node1</title>
<g id="a_edge7_Node000001_Node000007"><a xlink:title=" ">
<path fill="none" stroke="#63b8ff" d="M330.3,-181.61C324.61,-171.73 318.66,-162.09 312.5,-153 306.6,-144.28 299.84,-135.55 292.82,-127.19"/>
<polygon fill="none" stroke="#63b8ff" points="292.67,-127 285.72,-125.07 284.83,-117.91 291.78,-119.85 292.67,-127"/>
</a>
</g>
<text text-anchor="middle" x="349.5" y="-156" font-family="Helvetica,sans-Serif" font-size="10.00" fill="grey"> #_view_info</text>
</g>
</g>
</svg>
