<?xml version="1.0" encoding="UTF-8" standalone="no"?>
<!DOCTYPE svg PUBLIC "-//W3C//DTD SVG 1.1//EN"
 "http://www.w3.org/Graphics/SVG/1.1/DTD/svg11.dtd">
<!-- Generated by graphviz version 2.43.0 (0)
 -->
<!-- Title: L4Re::Video::Pixel_info::padding Pages: 1 -->
<svg width="254pt" height="86pt"
 viewBox="0.00 0.00 254.00 86.00" xmlns="http://www.w3.org/2000/svg" xmlns:xlink="http://www.w3.org/1999/xlink">
<g id="graph0" class="graph" transform="scale(1 1) rotate(0) translate(4 82)">
<title>L4Re::Video::Pixel_info::padding</title>
<!-- Node1 -->
<g id="Node000001" class="node">
<title>Node1</title>
<g id="a_Node000001"><a xlink:title="Compute the padding pseudo component.">
<polygon fill="#999999" stroke="#666666" points="104,-54 0,-54 0,-24 104,-24 104,-54"/>
<text text-anchor="start" x="8" y="-42" font-family="Helvetica,sans-Serif" font-size="10.00">L4Re::Video::Pixel</text>
<text text-anchor="middle" x="52" y="-31" font-family="Helvetica,sans-Serif" font-size="10.00">_info::padding</text>
</a>
</g>
</g>
<!-- Node2 -->
<g id="Node000002" class="node">
<title>Node2</title>
<g id="a_Node000002"><a xlink:href="classL4Re_1_1Video_1_1Color__component.html#adc0b10eeea765f27a518d68085f8ae58" target="_top" xlink:title="Return the position of the component in the pixel.">
<polygon fill="white" stroke="#666666" points="246,-78 140,-78 140,-48 246,-48 246,-78"/>
<text text-anchor="start" x="148" y="-66" font-family="Helvetica,sans-Serif" font-size="10.00">L4Re::Video::Color</text>
<text text-anchor="middle" x="193" y="-55" font-family="Helvetica,sans-Serif" font-size="10.00">_component::shift</text>
</a>
</g>
</g>
<!-- Node1&#45;&gt;Node2 -->
<g id="edge1_Node000001_Node000002" class="edge">
<title>Node1&#45;&gt;Node2</title>
<g id="a_edge1_Node000001_Node000002"><a xlink:title=" ">
<path fill="none" stroke="#63b8ff" d="M104.36,-47.87C112.7,-49.31 121.41,-50.81 129.97,-52.29"/>
<polygon fill="#63b8ff" stroke="#63b8ff" points="129.47,-55.75 139.92,-54.01 130.66,-48.86 129.47,-55.75"/>
</a>
</g>
</g>
<!-- Node3 -->
<g id="Node000003" class="node">
<title>Node3</title>
<g id="a_Node000003"><a xlink:href="classL4Re_1_1Video_1_1Color__component.html#a68a69675b5ce76aba3ebdec992b297b5" target="_top" xlink:title="Return the number of bits used by the component.">
<polygon fill="white" stroke="#666666" points="246,-30 140,-30 140,0 246,0 246,-30"/>
<text text-anchor="start" x="148" y="-18" font-family="Helvetica,sans-Serif" font-size="10.00">L4Re::Video::Color</text>
<text text-anchor="middle" x="193" y="-7" font-family="Helvetica,sans-Serif" font-size="10.00">_component::size</text>
</a>
</g>
</g>
<!-- Node1&#45;&gt;Node3 -->
<g id="edge2_Node000001_Node000003" class="edge">
<title>Node1&#45;&gt;Node3</title>
<g id="a_edge2_Node000001_Node000003"><a xlink:title=" ">
<path fill="none" stroke="#63b8ff" d="M104.36,-30.13C112.7,-28.69 121.41,-27.19 129.97,-25.71"/>
<polygon fill="#63b8ff" stroke="#63b8ff" points="130.66,-29.14 139.92,-23.99 129.47,-22.25 130.66,-29.14"/>
</a>
</g>
</g>
</g>
</svg>
