<?xml version="1.0" encoding="UTF-8" standalone="no"?>
<!DOCTYPE svg PUBLIC "-//W3C//DTD SVG 1.1//EN"
 "http://www.w3.org/Graphics/SVG/1.1/DTD/svg11.dtd">
<!-- Generated by graphviz version 2.42.4 (0)
 -->
<!-- Title: L4virtio::Virtqueue Pages: 1 -->
<svg width="595pt" height="892pt"
 viewBox="0.00 0.00 594.50 892.00" xmlns="http://www.w3.org/2000/svg" xmlns:xlink="http://www.w3.org/1999/xlink">
<g id="graph0" class="graph" transform="scale(1 1) rotate(0) translate(4 888)">
<title>L4virtio::Virtqueue</title>
<!-- Node1 -->
<g id="Node000001" class="node">
<title>Node1</title>
<g id="a_Node000001"><a xlink:title="Low&#45;level Virtqueue.">
<polygon fill="#999999" stroke="transparent" points="355.5,-379 240.5,-379 240.5,0 355.5,0 355.5,-379"/>
<text text-anchor="start" x="253" y="-366.5" font-family="Helvetica,sans-Serif" font-size="10.00">L4virtio::Virtqueue</text>
<text text-anchor="start" x="245" y="-351.5" font-family="Helvetica,sans-Serif" font-size="10.00">#</text>
<text text-anchor="start" x="258" y="-351.5" font-family="Helvetica,sans-Serif" font-size="10.00">_current_avail</text>
<text text-anchor="start" x="245" y="-336.5" font-family="Helvetica,sans-Serif" font-size="10.00">#</text>
<text text-anchor="start" x="258" y="-336.5" font-family="Helvetica,sans-Serif" font-size="10.00">_idx_mask</text>
<text text-anchor="start" x="245" y="-321.5" font-family="Helvetica,sans-Serif" font-size="10.00">+</text>
<text text-anchor="start" x="258" y="-321.5" font-family="Helvetica,sans-Serif" font-size="10.00">disable()</text>
<text text-anchor="start" x="245" y="-306.5" font-family="Helvetica,sans-Serif" font-size="10.00">+</text>
<text text-anchor="start" x="258" y="-306.5" font-family="Helvetica,sans-Serif" font-size="10.00">total_size()</text>
<text text-anchor="start" x="245" y="-291.5" font-family="Helvetica,sans-Serif" font-size="10.00">+</text>
<text text-anchor="start" x="258" y="-291.5" font-family="Helvetica,sans-Serif" font-size="10.00">avail_offset()</text>
<text text-anchor="start" x="245" y="-276.5" font-family="Helvetica,sans-Serif" font-size="10.00">+</text>
<text text-anchor="start" x="258" y="-276.5" font-family="Helvetica,sans-Serif" font-size="10.00">used_offset()</text>
<text text-anchor="start" x="245" y="-261.5" font-family="Helvetica,sans-Serif" font-size="10.00">+</text>
<text text-anchor="start" x="258" y="-261.5" font-family="Helvetica,sans-Serif" font-size="10.00">setup()</text>
<text text-anchor="start" x="245" y="-246.5" font-family="Helvetica,sans-Serif" font-size="10.00">+</text>
<text text-anchor="start" x="258" y="-246.5" font-family="Helvetica,sans-Serif" font-size="10.00">setup_simple()</text>
<text text-anchor="start" x="245" y="-231.5" font-family="Helvetica,sans-Serif" font-size="10.00">+</text>
<text text-anchor="start" x="258" y="-231.5" font-family="Helvetica,sans-Serif" font-size="10.00">dump()</text>
<text text-anchor="start" x="245" y="-216.5" font-family="Helvetica,sans-Serif" font-size="10.00">+</text>
<text text-anchor="start" x="258" y="-216.5" font-family="Helvetica,sans-Serif" font-size="10.00">ready()</text>
<text text-anchor="start" x="245" y="-201.5" font-family="Helvetica,sans-Serif" font-size="10.00">+</text>
<text text-anchor="start" x="258" y="-201.5" font-family="Helvetica,sans-Serif" font-size="10.00">num()</text>
<text text-anchor="start" x="245" y="-186.5" font-family="Helvetica,sans-Serif" font-size="10.00">+</text>
<text text-anchor="start" x="258" y="-186.5" font-family="Helvetica,sans-Serif" font-size="10.00">no_notify_guest()</text>
<text text-anchor="start" x="245" y="-171.5" font-family="Helvetica,sans-Serif" font-size="10.00">+</text>
<text text-anchor="start" x="258" y="-171.5" font-family="Helvetica,sans-Serif" font-size="10.00">no_notify_host()</text>
<text text-anchor="start" x="245" y="-156.5" font-family="Helvetica,sans-Serif" font-size="10.00">+</text>
<text text-anchor="start" x="258" y="-156.5" font-family="Helvetica,sans-Serif" font-size="10.00">no_notify_host()</text>
<text text-anchor="start" x="245" y="-141.5" font-family="Helvetica,sans-Serif" font-size="10.00">+</text>
<text text-anchor="start" x="258" y="-141.5" font-family="Helvetica,sans-Serif" font-size="10.00">get_avail_idx()</text>
<text text-anchor="start" x="245" y="-126.5" font-family="Helvetica,sans-Serif" font-size="10.00">+</text>
<text text-anchor="start" x="258" y="-126.5" font-family="Helvetica,sans-Serif" font-size="10.00">get_tail_avail_idx()</text>
<text text-anchor="start" x="245" y="-111.5" font-family="Helvetica,sans-Serif" font-size="10.00">+</text>
<text text-anchor="start" x="258" y="-111.5" font-family="Helvetica,sans-Serif" font-size="10.00">total_size()</text>
<text text-anchor="start" x="245" y="-96.5" font-family="Helvetica,sans-Serif" font-size="10.00">+</text>
<text text-anchor="start" x="258" y="-96.5" font-family="Helvetica,sans-Serif" font-size="10.00">desc_size()</text>
<text text-anchor="start" x="245" y="-81.5" font-family="Helvetica,sans-Serif" font-size="10.00">+</text>
<text text-anchor="start" x="258" y="-81.5" font-family="Helvetica,sans-Serif" font-size="10.00">desc_align()</text>
<text text-anchor="start" x="245" y="-66.5" font-family="Helvetica,sans-Serif" font-size="10.00">+</text>
<text text-anchor="start" x="258" y="-66.5" font-family="Helvetica,sans-Serif" font-size="10.00">avail_size()</text>
<text text-anchor="start" x="245" y="-51.5" font-family="Helvetica,sans-Serif" font-size="10.00">+</text>
<text text-anchor="start" x="258" y="-51.5" font-family="Helvetica,sans-Serif" font-size="10.00">avail_align()</text>
<text text-anchor="start" x="245" y="-36.5" font-family="Helvetica,sans-Serif" font-size="10.00">+</text>
<text text-anchor="start" x="258" y="-36.5" font-family="Helvetica,sans-Serif" font-size="10.00">used_size()</text>
<text text-anchor="start" x="245" y="-21.5" font-family="Helvetica,sans-Serif" font-size="10.00">+</text>
<text text-anchor="start" x="258" y="-21.5" font-family="Helvetica,sans-Serif" font-size="10.00">used_align()</text>
<text text-anchor="start" x="245" y="-6.5" font-family="Helvetica,sans-Serif" font-size="10.00">#</text>
<text text-anchor="start" x="258" y="-6.5" font-family="Helvetica,sans-Serif" font-size="10.00">Virtqueue()</text>
<polygon fill="#666666" stroke="#666666" points="241,-361.5 241,-361.5 356,-361.5 356,-361.5 241,-361.5"/>
<polygon fill="#666666" stroke="#666666" points="241,-331.5 241,-331.5 256,-331.5 256,-331.5 241,-331.5"/>
<polygon fill="#666666" stroke="#666666" points="256,-331.5 256,-331.5 356,-331.5 356,-331.5 256,-331.5"/>
<polygon fill="none" stroke="#666666" points="240.5,0 240.5,-379 355.5,-379 355.5,0 240.5,0"/>
</a>
</g>
</g>
<!-- Node2 -->
<g id="Node000002" class="node">
<title>Node2</title>
<g id="a_Node000002"><a xlink:href="classL4virtio_1_1Virtqueue_1_1Desc.html" target="_top" xlink:title="Descriptor in the descriptor table.">
<polygon fill="white" stroke="transparent" points="229.5,-501 128.5,-501 128.5,-426 229.5,-426 229.5,-501"/>
<text text-anchor="start" x="134" y="-488.5" font-family="Helvetica,sans-Serif" font-size="10.00">L4virtio::Virtqueue</text>
<text text-anchor="start" x="164" y="-477.5" font-family="Helvetica,sans-Serif" font-size="10.00">::Desc</text>
<text text-anchor="start" x="144" y="-462.5" font-family="Helvetica,sans-Serif" font-size="10.00">+</text>
<text text-anchor="start" x="168" y="-462.5" font-family="Helvetica,sans-Serif" font-size="10.00">len</text>
<text text-anchor="start" x="144" y="-447.5" font-family="Helvetica,sans-Serif" font-size="10.00">+</text>
<text text-anchor="start" x="168" y="-447.5" font-family="Helvetica,sans-Serif" font-size="10.00">next</text>
<text text-anchor="start" x="144" y="-432.5" font-family="Helvetica,sans-Serif" font-size="10.00">+</text>
<text text-anchor="start" x="168" y="-432.5" font-family="Helvetica,sans-Serif" font-size="10.00">dump()</text>
<polygon fill="#666666" stroke="#666666" points="129,-472.5 129,-472.5 230,-472.5 230,-472.5 129,-472.5"/>
<polygon fill="#666666" stroke="#666666" points="129,-442.5 129,-442.5 166,-442.5 166,-442.5 129,-442.5"/>
<polygon fill="#666666" stroke="#666666" points="166,-442.5 166,-442.5 230,-442.5 230,-442.5 166,-442.5"/>
<polygon fill="none" stroke="#666666" points="128.5,-426 128.5,-501 229.5,-501 229.5,-426 128.5,-426"/>
</a>
</g>
</g>
<!-- Node2&#45;&gt;Node1 -->
<g id="edge1_Node000001_Node000002" class="edge">
<title>Node2&#45;&gt;Node1</title>
<g id="a_edge1_Node000001_Node000002"><a xlink:title=" ">
<path fill="none" stroke="#63b8ff" d="M195.05,-425.82C205.73,-401.41 220.51,-367.63 235.54,-333.27"/>
<polygon fill="none" stroke="#63b8ff" points="235.61,-333.1 234.35,-326 240.42,-322.1 241.68,-329.2 235.61,-333.1"/>
</a>
</g>
<text text-anchor="middle" x="225" y="-400" font-family="Helvetica,sans-Serif" font-size="10.00" fill="grey"> #_desc</text>
</g>
<!-- Node3 -->
<g id="Node000003" class="node">
<title>Node3</title>
<g id="a_Node000003"><a xlink:href="classL4virtio_1_1Ptr.html" target="_top" xlink:title=" ">
<polygon fill="white" stroke="transparent" points="110,-692.5 0,-692.5 0,-598.5 110,-598.5 110,-692.5"/>
<text text-anchor="start" x="5" y="-680.5" font-family="Helvetica,sans-Serif" font-size="10.00">L4virtio::Ptr&lt; void &gt;</text>
<text text-anchor="start" x="53" y="-665.5" font-family="Helvetica,sans-Serif" font-size="10.00"> </text>
<text text-anchor="start" x="14.5" y="-650.5" font-family="Helvetica,sans-Serif" font-size="10.00">+</text>
<text text-anchor="start" x="38" y="-650.5" font-family="Helvetica,sans-Serif" font-size="10.00">Ptr()</text>
<text text-anchor="start" x="14.5" y="-635.5" font-family="Helvetica,sans-Serif" font-size="10.00">+</text>
<text text-anchor="start" x="38" y="-635.5" font-family="Helvetica,sans-Serif" font-size="10.00">Ptr()</text>
<text text-anchor="start" x="14.5" y="-620.5" font-family="Helvetica,sans-Serif" font-size="10.00">+</text>
<text text-anchor="start" x="38" y="-620.5" font-family="Helvetica,sans-Serif" font-size="10.00">get()</text>
<text text-anchor="start" x="14.5" y="-605.5" font-family="Helvetica,sans-Serif" font-size="10.00">+</text>
<text text-anchor="start" x="38" y="-605.5" font-family="Helvetica,sans-Serif" font-size="10.00">is_valid()</text>
<polygon fill="#666666" stroke="#666666" points="0,-675.5 0,-675.5 110,-675.5 110,-675.5 0,-675.5"/>
<polygon fill="#666666" stroke="#666666" points="0,-660.5 0,-660.5 110,-660.5 110,-660.5 0,-660.5"/>
<polygon fill="none" stroke="#666666" points="0,-598.5 0,-692.5 110,-692.5 110,-598.5 0,-598.5"/>
</a>
</g>
</g>
<!-- Node3&#45;&gt;Node2 -->
<g id="edge2_Node000002_Node000003" class="edge">
<title>Node3&#45;&gt;Node2</title>
<g id="a_edge2_Node000002_Node000003"><a xlink:title=" ">
<path fill="none" stroke="#63b8ff" d="M85.25,-598.12C95.8,-582.15 107.81,-564.21 119,-548 127.32,-535.95 136.47,-523.05 145.06,-511.08"/>
<polygon fill="none" stroke="#63b8ff" points="145.1,-511.02 145.37,-503.81 152.12,-501.28 151.86,-508.49 145.1,-511.02"/>
</a>
</g>
<text text-anchor="middle" x="156" y="-522" font-family="Helvetica,sans-Serif" font-size="10.00" fill="grey"> +addr</text>
</g>
<!-- Node4 -->
<g id="Node000004" class="node">
<title>Node4</title>
<g id="a_Node000004"><a xlink:href="classL4virtio_1_1Ptr.html" target="_top" xlink:title="Pointer used in virtio descriptors.">
<polygon fill="white" stroke="transparent" points="102.5,-884 7.5,-884 7.5,-790 102.5,-790 102.5,-884"/>
<text text-anchor="start" x="13" y="-872" font-family="Helvetica,sans-Serif" font-size="10.00">L4virtio::Ptr&lt; T &gt;</text>
<text text-anchor="start" x="53.5" y="-857" font-family="Helvetica,sans-Serif" font-size="10.00"> </text>
<text text-anchor="start" x="19" y="-842" font-family="Helvetica,sans-Serif" font-size="10.00">+</text>
<text text-anchor="start" x="39" y="-842" font-family="Helvetica,sans-Serif" font-size="10.00">Ptr()</text>
<text text-anchor="start" x="19" y="-827" font-family="Helvetica,sans-Serif" font-size="10.00">+</text>
<text text-anchor="start" x="39" y="-827" font-family="Helvetica,sans-Serif" font-size="10.00">Ptr()</text>
<text text-anchor="start" x="19" y="-812" font-family="Helvetica,sans-Serif" font-size="10.00">+</text>
<text text-anchor="start" x="39" y="-812" font-family="Helvetica,sans-Serif" font-size="10.00">get()</text>
<text text-anchor="start" x="19" y="-797" font-family="Helvetica,sans-Serif" font-size="10.00">+</text>
<text text-anchor="start" x="39" y="-797" font-family="Helvetica,sans-Serif" font-size="10.00">is_valid()</text>
<polygon fill="#666666" stroke="#666666" points="8,-867 8,-867 103,-867 103,-867 8,-867"/>
<polygon fill="#666666" stroke="#666666" points="8,-852 8,-852 103,-852 103,-852 8,-852"/>
<polygon fill="none" stroke="#666666" points="7.5,-790 7.5,-884 102.5,-884 102.5,-790 7.5,-790"/>
</a>
</g>
</g>
<!-- Node4&#45;&gt;Node3 -->
<g id="edge3_Node000003_Node000004" class="edge">
<title>Node4&#45;&gt;Node3</title>
<g id="a_edge3_Node000003_Node000004"><a xlink:title=" ">
<path fill="none" stroke="orange" d="M55,-779.32C55,-751.67 55,-718.82 55,-692.71"/>
<polygon fill="orange" stroke="orange" points="51.5,-779.64 55,-789.64 58.5,-779.64 51.5,-779.64"/>
</a>
</g>
<text text-anchor="middle" x="78.5" y="-764" font-family="Helvetica,sans-Serif" font-size="10.00" fill="grey"> &lt; void &gt;</text>
</g>
<!-- Node5 -->
<g id="Node000005" class="node">
<title>Node5</title>
<g id="a_Node000005"><a xlink:href="structL4virtio_1_1Virtqueue_1_1Desc_1_1Flags.html" target="_top" xlink:title="Type for descriptor flags.">
<polygon fill="white" stroke="transparent" points="229.5,-743 128.5,-743 128.5,-548 229.5,-548 229.5,-743"/>
<text text-anchor="start" x="134" y="-730.5" font-family="Helvetica,sans-Serif" font-size="10.00">L4virtio::Virtqueue</text>
<text text-anchor="start" x="148" y="-719.5" font-family="Helvetica,sans-Serif" font-size="10.00">::Desc::Flags</text>
<text text-anchor="start" x="135" y="-704.5" font-family="Helvetica,sans-Serif" font-size="10.00">+</text>
<text text-anchor="start" x="150" y="-704.5" font-family="Helvetica,sans-Serif" font-size="10.00">raw</text>
<text text-anchor="start" x="135" y="-689.5" font-family="Helvetica,sans-Serif" font-size="10.00">+</text>
<text text-anchor="start" x="150" y="-689.5" font-family="Helvetica,sans-Serif" font-size="10.00">Flags()</text>
<text text-anchor="start" x="136.5" y="-674.5" font-family="Helvetica,sans-Serif" font-size="10.00">*</text>
<text text-anchor="start" x="150" y="-674.5" font-family="Helvetica,sans-Serif" font-size="10.00">next_bfm_t</text>
<text text-anchor="start" x="136.5" y="-659.5" font-family="Helvetica,sans-Serif" font-size="10.00">*</text>
<text text-anchor="start" x="150" y="-659.5" font-family="Helvetica,sans-Serif" font-size="10.00">next()</text>
<text text-anchor="start" x="136.5" y="-644.5" font-family="Helvetica,sans-Serif" font-size="10.00">*</text>
<text text-anchor="start" x="150" y="-644.5" font-family="Helvetica,sans-Serif" font-size="10.00">next()</text>
<text text-anchor="start" x="136.5" y="-629.5" font-family="Helvetica,sans-Serif" font-size="10.00">*</text>
<text text-anchor="start" x="150" y="-629.5" font-family="Helvetica,sans-Serif" font-size="10.00">write_bfm_t</text>
<text text-anchor="start" x="136.5" y="-614.5" font-family="Helvetica,sans-Serif" font-size="10.00">*</text>
<text text-anchor="start" x="150" y="-614.5" font-family="Helvetica,sans-Serif" font-size="10.00">write()</text>
<text text-anchor="start" x="136.5" y="-599.5" font-family="Helvetica,sans-Serif" font-size="10.00">*</text>
<text text-anchor="start" x="150" y="-599.5" font-family="Helvetica,sans-Serif" font-size="10.00">write()</text>
<text text-anchor="start" x="136.5" y="-584.5" font-family="Helvetica,sans-Serif" font-size="10.00">*</text>
<text text-anchor="start" x="150" y="-584.5" font-family="Helvetica,sans-Serif" font-size="10.00">indirect_bfm_t</text>
<text text-anchor="start" x="136.5" y="-569.5" font-family="Helvetica,sans-Serif" font-size="10.00">*</text>
<text text-anchor="start" x="150" y="-569.5" font-family="Helvetica,sans-Serif" font-size="10.00">indirect()</text>
<text text-anchor="start" x="136.5" y="-554.5" font-family="Helvetica,sans-Serif" font-size="10.00">*</text>
<text text-anchor="start" x="150" y="-554.5" font-family="Helvetica,sans-Serif" font-size="10.00">indirect()</text>
<polygon fill="#666666" stroke="#666666" points="129,-714.5 129,-714.5 230,-714.5 230,-714.5 129,-714.5"/>
<polygon fill="#666666" stroke="#666666" points="129,-699.5 129,-699.5 148,-699.5 148,-699.5 129,-699.5"/>
<polygon fill="#666666" stroke="#666666" points="148,-699.5 148,-699.5 230,-699.5 230,-699.5 148,-699.5"/>
<polygon fill="none" stroke="#666666" points="128.5,-548 128.5,-743 229.5,-743 229.5,-548 128.5,-548"/>
</a>
</g>
</g>
<!-- Node5&#45;&gt;Node2 -->
<g id="edge4_Node000002_Node000005" class="edge">
<title>Node5&#45;&gt;Node2</title>
<g id="a_edge4_Node000002_Node000005"><a xlink:title=" ">
<path fill="none" stroke="#63b8ff" d="M179,-547.91C179,-535.92 179,-524.09 179,-513.27"/>
<polygon fill="none" stroke="#63b8ff" points="179,-513.09 175,-507.09 179,-501.09 183,-507.09 179,-513.09"/>
</a>
</g>
<text text-anchor="middle" x="196.5" y="-522" font-family="Helvetica,sans-Serif" font-size="10.00" fill="grey"> +flags</text>
</g>
<!-- Node6 -->
<g id="Node000006" class="node">
<title>Node6</title>
<g id="a_Node000006"><a xlink:href="classL4virtio_1_1Virtqueue_1_1Avail.html" target="_top" xlink:title="Type of available ring, this is read&#45;only for the host.">
<polygon fill="white" stroke="transparent" points="348.5,-501 247.5,-501 247.5,-426 348.5,-426 348.5,-501"/>
<text text-anchor="start" x="253" y="-488.5" font-family="Helvetica,sans-Serif" font-size="10.00">L4virtio::Virtqueue</text>
<text text-anchor="start" x="283" y="-477.5" font-family="Helvetica,sans-Serif" font-size="10.00">::Avail</text>
<text text-anchor="start" x="267" y="-462.5" font-family="Helvetica,sans-Serif" font-size="10.00">+</text>
<text text-anchor="start" x="295" y="-462.5" font-family="Helvetica,sans-Serif" font-size="10.00">idx</text>
<text text-anchor="start" x="267" y="-447.5" font-family="Helvetica,sans-Serif" font-size="10.00">+</text>
<text text-anchor="start" x="295" y="-447.5" font-family="Helvetica,sans-Serif" font-size="10.00">ring</text>
<text text-anchor="start" x="296.5" y="-432.5" font-family="Helvetica,sans-Serif" font-size="10.00"> </text>
<polygon fill="#666666" stroke="#666666" points="248,-472.5 248,-472.5 349,-472.5 349,-472.5 248,-472.5"/>
<polygon fill="#666666" stroke="#666666" points="248,-442.5 248,-442.5 293,-442.5 293,-442.5 248,-442.5"/>
<polygon fill="#666666" stroke="#666666" points="293,-442.5 293,-442.5 349,-442.5 349,-442.5 293,-442.5"/>
<polygon fill="none" stroke="#666666" points="247.5,-426 247.5,-501 348.5,-501 348.5,-426 247.5,-426"/>
</a>
</g>
</g>
<!-- Node6&#45;&gt;Node1 -->
<g id="edge5_Node000001_Node000006" class="edge">
<title>Node6&#45;&gt;Node1</title>
<g id="a_edge5_Node000001_Node000006"><a xlink:title=" ">
<path fill="none" stroke="#63b8ff" d="M298,-425.82C298,-415.76 298,-404.11 298,-391.49"/>
<polygon fill="none" stroke="#63b8ff" points="298,-391.11 294,-385.11 298,-379.11 302,-385.11 298,-391.11"/>
</a>
</g>
<text text-anchor="middle" x="318.5" y="-400" font-family="Helvetica,sans-Serif" font-size="10.00" fill="grey"> #_avail</text>
</g>
<!-- Node7 -->
<g id="Node000007" class="node">
<title>Node7</title>
<g id="a_Node000007"><a xlink:href="structL4virtio_1_1Virtqueue_1_1Avail_1_1Flags.html" target="_top" xlink:title="Flags of the available ring.">
<polygon fill="white" stroke="transparent" points="348.5,-698 247.5,-698 247.5,-593 348.5,-593 348.5,-698"/>
<text text-anchor="start" x="253" y="-685.5" font-family="Helvetica,sans-Serif" font-size="10.00">L4virtio::Virtqueue</text>
<text text-anchor="start" x="267" y="-674.5" font-family="Helvetica,sans-Serif" font-size="10.00">::Avail::Flags</text>
<text text-anchor="start" x="256" y="-659.5" font-family="Helvetica,sans-Serif" font-size="10.00">+</text>
<text text-anchor="start" x="273" y="-659.5" font-family="Helvetica,sans-Serif" font-size="10.00">raw</text>
<text text-anchor="start" x="256" y="-644.5" font-family="Helvetica,sans-Serif" font-size="10.00">+</text>
<text text-anchor="start" x="273" y="-644.5" font-family="Helvetica,sans-Serif" font-size="10.00">Flags()</text>
<text text-anchor="start" x="257.5" y="-629.5" font-family="Helvetica,sans-Serif" font-size="10.00">*</text>
<text text-anchor="start" x="273" y="-629.5" font-family="Helvetica,sans-Serif" font-size="10.00">no_irq_bfm_t</text>
<text text-anchor="start" x="257.5" y="-614.5" font-family="Helvetica,sans-Serif" font-size="10.00">*</text>
<text text-anchor="start" x="273" y="-614.5" font-family="Helvetica,sans-Serif" font-size="10.00">no_irq()</text>
<text text-anchor="start" x="257.5" y="-599.5" font-family="Helvetica,sans-Serif" font-size="10.00">*</text>
<text text-anchor="start" x="273" y="-599.5" font-family="Helvetica,sans-Serif" font-size="10.00">no_irq()</text>
<polygon fill="#666666" stroke="#666666" points="248,-669.5 248,-669.5 349,-669.5 349,-669.5 248,-669.5"/>
<polygon fill="#666666" stroke="#666666" points="248,-654.5 248,-654.5 271,-654.5 271,-654.5 248,-654.5"/>
<polygon fill="#666666" stroke="#666666" points="271,-654.5 271,-654.5 349,-654.5 349,-654.5 271,-654.5"/>
<polygon fill="none" stroke="#666666" points="247.5,-593 247.5,-698 348.5,-698 348.5,-593 247.5,-593"/>
</a>
</g>
</g>
<!-- Node7&#45;&gt;Node6 -->
<g id="edge6_Node000006_Node000007" class="edge">
<title>Node7&#45;&gt;Node6</title>
<g id="a_edge6_Node000006_Node000007"><a xlink:title=" ">
<path fill="none" stroke="#63b8ff" d="M298,-592.92C298,-567.86 298,-537.9 298,-513.23"/>
<polygon fill="none" stroke="#63b8ff" points="298,-513.23 294,-507.23 298,-501.23 302,-507.23 298,-513.23"/>
</a>
</g>
<text text-anchor="middle" x="315.5" y="-522" font-family="Helvetica,sans-Serif" font-size="10.00" fill="grey"> +flags</text>
</g>
<!-- Node8 -->
<g id="Node000008" class="node">
<title>Node8</title>
<g id="a_Node000008"><a xlink:href="classL4virtio_1_1Virtqueue_1_1Used.html" target="_top" xlink:title="Used ring.">
<polygon fill="white" stroke="transparent" points="467.5,-493.5 366.5,-493.5 366.5,-433.5 467.5,-433.5 467.5,-493.5"/>
<text text-anchor="start" x="372" y="-481.5" font-family="Helvetica,sans-Serif" font-size="10.00">L4virtio::Virtqueue</text>
<text text-anchor="start" x="402" y="-470.5" font-family="Helvetica,sans-Serif" font-size="10.00">::Used</text>
<text text-anchor="start" x="387" y="-455.5" font-family="Helvetica,sans-Serif" font-size="10.00">+</text>
<text text-anchor="start" x="416" y="-455.5" font-family="Helvetica,sans-Serif" font-size="10.00">idx</text>
<text text-anchor="start" x="415.5" y="-440.5" font-family="Helvetica,sans-Serif" font-size="10.00"> </text>
<polygon fill="#666666" stroke="#666666" points="367,-465.5 367,-465.5 468,-465.5 468,-465.5 367,-465.5"/>
<polygon fill="#666666" stroke="#666666" points="367,-450.5 367,-450.5 414,-450.5 414,-450.5 367,-450.5"/>
<polygon fill="#666666" stroke="#666666" points="414,-450.5 414,-450.5 468,-450.5 468,-450.5 414,-450.5"/>
<polygon fill="none" stroke="#666666" points="366.5,-433.5 366.5,-493.5 467.5,-493.5 467.5,-433.5 366.5,-433.5"/>
</a>
</g>
</g>
<!-- Node8&#45;&gt;Node1 -->
<g id="edge7_Node000001_Node000008" class="edge">
<title>Node8&#45;&gt;Node1</title>
<g id="a_edge7_Node000001_Node000008"><a xlink:title=" ">
<path fill="none" stroke="#63b8ff" d="M404.26,-433.39C393.49,-408.76 377.18,-371.48 360.55,-333.48"/>
<polygon fill="none" stroke="#63b8ff" points="360.43,-333.21 354.36,-329.31 355.62,-322.21 361.69,-326.1 360.43,-333.21"/>
</a>
</g>
<text text-anchor="middle" x="412" y="-400" font-family="Helvetica,sans-Serif" font-size="10.00" fill="grey"> #_used</text>
</g>
<!-- Node9 -->
<g id="Node000009" class="node">
<title>Node9</title>
<g id="a_Node000009"><a xlink:href="structL4virtio_1_1Virtqueue_1_1Used_1_1Flags.html" target="_top" xlink:title="flags for the used ring.">
<polygon fill="white" stroke="transparent" points="467.5,-698 366.5,-698 366.5,-593 467.5,-593 467.5,-698"/>
<text text-anchor="start" x="372" y="-685.5" font-family="Helvetica,sans-Serif" font-size="10.00">L4virtio::Virtqueue</text>
<text text-anchor="start" x="385.5" y="-674.5" font-family="Helvetica,sans-Serif" font-size="10.00">::Used::Flags</text>
<text text-anchor="start" x="371" y="-659.5" font-family="Helvetica,sans-Serif" font-size="10.00">+</text>
<text text-anchor="start" x="384" y="-659.5" font-family="Helvetica,sans-Serif" font-size="10.00">raw</text>
<text text-anchor="start" x="371" y="-644.5" font-family="Helvetica,sans-Serif" font-size="10.00">+</text>
<text text-anchor="start" x="384" y="-644.5" font-family="Helvetica,sans-Serif" font-size="10.00">Flags()</text>
<text text-anchor="start" x="372.5" y="-629.5" font-family="Helvetica,sans-Serif" font-size="10.00">*</text>
<text text-anchor="start" x="384" y="-629.5" font-family="Helvetica,sans-Serif" font-size="10.00">no_notify_bfm_t</text>
<text text-anchor="start" x="372.5" y="-614.5" font-family="Helvetica,sans-Serif" font-size="10.00">*</text>
<text text-anchor="start" x="384" y="-614.5" font-family="Helvetica,sans-Serif" font-size="10.00">no_notify()</text>
<text text-anchor="start" x="372.5" y="-599.5" font-family="Helvetica,sans-Serif" font-size="10.00">*</text>
<text text-anchor="start" x="384" y="-599.5" font-family="Helvetica,sans-Serif" font-size="10.00">no_notify()</text>
<polygon fill="#666666" stroke="#666666" points="367,-669.5 367,-669.5 468,-669.5 468,-669.5 367,-669.5"/>
<polygon fill="#666666" stroke="#666666" points="367,-654.5 367,-654.5 382,-654.5 382,-654.5 367,-654.5"/>
<polygon fill="#666666" stroke="#666666" points="382,-654.5 382,-654.5 468,-654.5 468,-654.5 382,-654.5"/>
<polygon fill="none" stroke="#666666" points="366.5,-593 366.5,-698 467.5,-698 467.5,-593 366.5,-593"/>
</a>
</g>
</g>
<!-- Node9&#45;&gt;Node8 -->
<g id="edge8_Node000008_Node000009" class="edge">
<title>Node9&#45;&gt;Node8</title>
<g id="a_edge8_Node000008_Node000009"><a xlink:title=" ">
<path fill="none" stroke="#63b8ff" d="M417,-592.92C417,-565.24 417,-531.6 417,-505.69"/>
<polygon fill="none" stroke="#63b8ff" points="417,-505.66 413,-499.66 417,-493.66 421,-499.66 417,-505.66"/>
</a>
</g>
<text text-anchor="middle" x="434.5" y="-522" font-family="Helvetica,sans-Serif" font-size="10.00" fill="grey"> +flags</text>
</g>
<!-- Node10 -->
<g id="Node000010" class="node">
<title>Node10</title>
<g id="a_Node000010"><a xlink:href="structL4virtio_1_1Virtqueue_1_1Used__elem.html" target="_top" xlink:title="Type of an element of the used ring.">
<polygon fill="white" stroke="transparent" points="586.5,-683 485.5,-683 485.5,-608 586.5,-608 586.5,-683"/>
<text text-anchor="start" x="491" y="-670.5" font-family="Helvetica,sans-Serif" font-size="10.00">L4virtio::Virtqueue</text>
<text text-anchor="start" x="506" y="-659.5" font-family="Helvetica,sans-Serif" font-size="10.00">::Used_elem</text>
<text text-anchor="start" x="494" y="-644.5" font-family="Helvetica,sans-Serif" font-size="10.00">+</text>
<text text-anchor="start" x="511" y="-644.5" font-family="Helvetica,sans-Serif" font-size="10.00">id</text>
<text text-anchor="start" x="494" y="-629.5" font-family="Helvetica,sans-Serif" font-size="10.00">+</text>
<text text-anchor="start" x="511" y="-629.5" font-family="Helvetica,sans-Serif" font-size="10.00">len</text>
<text text-anchor="start" x="494" y="-614.5" font-family="Helvetica,sans-Serif" font-size="10.00">+</text>
<text text-anchor="start" x="511" y="-614.5" font-family="Helvetica,sans-Serif" font-size="10.00">Used_elem()</text>
<polygon fill="#666666" stroke="#666666" points="486,-654.5 486,-654.5 587,-654.5 587,-654.5 486,-654.5"/>
<polygon fill="#666666" stroke="#666666" points="486,-624.5 486,-624.5 509,-624.5 509,-624.5 486,-624.5"/>
<polygon fill="#666666" stroke="#666666" points="509,-624.5 509,-624.5 587,-624.5 587,-624.5 509,-624.5"/>
<polygon fill="none" stroke="#666666" points="485.5,-608 485.5,-683 586.5,-683 586.5,-608 485.5,-608"/>
</a>
</g>
</g>
<!-- Node10&#45;&gt;Node8 -->
<g id="edge9_Node000008_Node000010" class="edge">
<title>Node10&#45;&gt;Node8</title>
<g id="a_edge9_Node000008_Node000010"><a xlink:title=" ">
<path fill="none" stroke="#63b8ff" d="M513.61,-607.58C502.5,-589.5 488.76,-567.47 476,-548 467.42,-534.9 465,-531.81 456,-519 452.45,-513.95 448.7,-508.66 444.99,-503.44"/>
<polygon fill="none" stroke="#63b8ff" points="444.91,-503.33 438.17,-500.77 437.94,-493.57 444.68,-496.13 444.91,-503.33"/>
</a>
</g>
<text text-anchor="middle" x="479.5" y="-522" font-family="Helvetica,sans-Serif" font-size="10.00" fill="grey"> +ring</text>
</g>
</g>
</svg>
