<?xml version="1.0" encoding="UTF-8" standalone="no"?>
<!DOCTYPE svg PUBLIC "-//W3C//DTD SVG 1.1//EN"
 "http://www.w3.org/Graphics/SVG/1.1/DTD/svg11.dtd">
<!-- Generated by graphviz version 2.43.0 (0)
 -->
<!-- Title: L4Re::Util::Event_t::init_poll Pages: 1 -->
<svg width="312pt" height="64pt"
 viewBox="0.00 0.00 312.00 64.00" xmlns="http://www.w3.org/2000/svg" xmlns:xlink="http://www.w3.org/1999/xlink">
<g id="graph0" class="graph" transform="scale(1 1) rotate(0) translate(4 60)">
<title>L4Re::Util::Event_t::init_poll</title>
<!-- Node1 -->
<g id="Node000001" class="node">
<title>Node1</title>
<g id="a_Node000001"><a xlink:title="Initialise an event object in polling mode.">
<polygon fill="#999999" stroke="#666666" points="107,-42.5 0,-42.5 0,-12.5 107,-12.5 107,-42.5"/>
<text text-anchor="start" x="8" y="-30.5" font-family="Helvetica,sans-Serif" font-size="10.00">L4Re::Util::Event_t</text>
<text text-anchor="middle" x="53.5" y="-19.5" font-family="Helvetica,sans-Serif" font-size="10.00">::init_poll</text>
</a>
</g>
</g>
<!-- Node2 -->
<g id="Node000002" class="node">
<title>Node2</title>
<g id="a_Node000002"><a xlink:href="classL4Re_1_1Rm_1_1Unique__region.html#a301d5bd597f8c1e3b98bc52659f13dbe" target="_top" xlink:title="Return the address.">
<polygon fill="white" stroke="#666666" points="304,-56 143,-56 143,-37 304,-37 304,-56"/>
<text text-anchor="middle" x="223.5" y="-44" font-family="Helvetica,sans-Serif" font-size="10.00">L4Re::Rm::Unique_region::get</text>
</a>
</g>
</g>
<!-- Node1&#45;&gt;Node2 -->
<g id="edge1_Node000001_Node000002" class="edge">
<title>Node1&#45;&gt;Node2</title>
<g id="a_edge1_Node000001_Node000002"><a xlink:title=" ">
<path fill="none" stroke="#63b8ff" d="M107.2,-33.46C115.45,-34.39 124.17,-35.38 132.97,-36.37"/>
<polygon fill="#63b8ff" stroke="#63b8ff" points="132.59,-39.85 142.92,-37.5 133.37,-32.9 132.59,-39.85"/>
</a>
</g>
</g>
<!-- Node3 -->
<g id="Node000003" class="node">
<title>Node3</title>
<g id="a_Node000003"><a xlink:href="namespaceL4_1_1Ipc.html#aa6b9422f850eb175240c9d18c5cc708c" target="_top" xlink:title="Make an L4::Ipc::Cap&lt;T&gt; for the given capability with L4_CAP_FPAGE_RW rights.">
<polygon fill="white" stroke="#666666" points="284,-19 163,-19 163,0 284,0 284,-19"/>
<text text-anchor="middle" x="223.5" y="-7" font-family="Helvetica,sans-Serif" font-size="10.00">L4::Ipc::make_cap_rw</text>
</a>
</g>
</g>
<!-- Node1&#45;&gt;Node3 -->
<g id="edge2_Node000001_Node000003" class="edge">
<title>Node1&#45;&gt;Node3</title>
<g id="a_edge2_Node000001_Node000003"><a xlink:title=" ">
<path fill="none" stroke="#63b8ff" d="M107.2,-21.85C121.72,-20.3 137.7,-18.59 153.02,-16.94"/>
<polygon fill="#63b8ff" stroke="#63b8ff" points="153.4,-20.42 162.97,-15.88 152.65,-13.46 153.4,-20.42"/>
</a>
</g>
</g>
</g>
</svg>
