<?xml version="1.0" encoding="UTF-8" standalone="no"?>
<!DOCTYPE svg PUBLIC "-//W3C//DTD SVG 1.1//EN"
 "http://www.w3.org/Graphics/SVG/1.1/DTD/svg11.dtd">
<!-- Generated by graphviz version 2.42.4 (0)
 -->
<!-- Title: L4Re::Log Pages: 1 -->
<svg width="363pt" height="938pt"
 viewBox="0.00 0.00 362.50 938.00" xmlns="http://www.w3.org/2000/svg" xmlns:xlink="http://www.w3.org/1999/xlink">
<g id="graph0" class="graph" transform="scale(1 1) rotate(0) translate(4 934)">
<title>L4Re::Log</title>
<!-- Node1 -->
<g id="Node000001" class="node">
<title>Node1</title>
<g id="a_Node000001"><a xlink:title="Log interface class.">
<polygon fill="#999999" stroke="transparent" points="93.5,-64 35.5,-64 35.5,0 93.5,0 93.5,-64"/>
<text text-anchor="start" x="40.5" y="-52" font-family="Helvetica,sans-Serif" font-size="10.00">L4Re::Log</text>
<text text-anchor="start" x="62.5" y="-37" font-family="Helvetica,sans-Serif" font-size="10.00"> </text>
<text text-anchor="start" x="39.5" y="-22" font-family="Helvetica,sans-Serif" font-size="10.00">+</text>
<text text-anchor="start" x="52.5" y="-22" font-family="Helvetica,sans-Serif" font-size="10.00">printn()</text>
<text text-anchor="start" x="39.5" y="-7" font-family="Helvetica,sans-Serif" font-size="10.00">+</text>
<text text-anchor="start" x="52.5" y="-7" font-family="Helvetica,sans-Serif" font-size="10.00">print()</text>
<polygon fill="#666666" stroke="#666666" points="35.5,-47 35.5,-47 93.5,-47 93.5,-47 35.5,-47"/>
<polygon fill="#666666" stroke="#666666" points="35.5,-32 35.5,-32 93.5,-32 93.5,-32 35.5,-32"/>
<polygon fill="none" stroke="#666666" points="35.5,0 35.5,-64 93.5,-64 93.5,0 35.5,0"/>
</a>
</g>
</g>
<!-- Node2 -->
<g id="Node000002" class="node">
<title>Node2</title>
<g id="a_Node000002"><a xlink:href="classL4_1_1Kobject__t.html" target="_top" xlink:title=" ">
<polygon fill="white" stroke="transparent" points="129,-187 0,-187 0,-101 129,-101 129,-187"/>
<text text-anchor="start" x="14" y="-175" font-family="Helvetica,sans-Serif" font-size="10.00">L4::Kobject_t&lt; Log,</text>
<text text-anchor="start" x="14" y="-164" font-family="Helvetica,sans-Serif" font-size="10.00"> L4::Vcon, L4::PROTO</text>
<text text-anchor="start" x="40" y="-153" font-family="Helvetica,sans-Serif" font-size="10.00">_EMPTY &gt;</text>
<text text-anchor="start" x="63" y="-138" font-family="Helvetica,sans-Serif" font-size="10.00"> </text>
<text text-anchor="start" x="4.5" y="-123" font-family="Helvetica,sans-Serif" font-size="10.00">#</text>
<text text-anchor="start" x="17.5" y="-123" font-family="Helvetica,sans-Serif" font-size="10.00">c()</text>
<text text-anchor="start" x="4.5" y="-108" font-family="Helvetica,sans-Serif" font-size="10.00">#</text>
<text text-anchor="start" x="17.5" y="-108" font-family="Helvetica,sans-Serif" font-size="10.00">__check_protocols__()</text>
<polygon fill="#666666" stroke="#666666" points="0.5,-148 0.5,-148 129.5,-148 129.5,-148 0.5,-148"/>
<polygon fill="#666666" stroke="#666666" points="0.5,-133 0.5,-133 129.5,-133 129.5,-133 0.5,-133"/>
<polygon fill="none" stroke="#666666" points="0,-101 0,-187 129,-187 129,-101 0,-101"/>
</a>
</g>
</g>
<!-- Node2&#45;&gt;Node1 -->
<g id="edge1_Node000001_Node000002" class="edge">
<title>Node2&#45;&gt;Node1</title>
<g id="a_edge1_Node000001_Node000002"><a xlink:title=" ">
<path fill="none" stroke="#63b8ff" d="M64.5,-90.7C64.5,-81.69 64.5,-72.57 64.5,-64.34"/>
<polygon fill="none" stroke="#63b8ff" points="61,-90.79 64.5,-100.79 68,-90.79 61,-90.79"/>
</a>
</g>
</g>
<!-- Node3 -->
<g id="Node000003" class="node">
<title>Node3</title>
<g id="a_Node000003"><a xlink:href="classL4_1_1Vcon.html" target="_top" xlink:title="C++ L4 Vcon interface, see Virtual Console for the C interface.">
<polygon fill="white" stroke="transparent" points="183.5,-348 77.5,-348 77.5,-224 183.5,-224 183.5,-348"/>
<text text-anchor="start" x="109.5" y="-336" font-family="Helvetica,sans-Serif" font-size="10.00">L4::Vcon</text>
<text text-anchor="start" x="128.5" y="-321" font-family="Helvetica,sans-Serif" font-size="10.00"> </text>
<text text-anchor="start" x="81.5" y="-306" font-family="Helvetica,sans-Serif" font-size="10.00">+</text>
<text text-anchor="start" x="94.5" y="-306" font-family="Helvetica,sans-Serif" font-size="10.00">send()</text>
<text text-anchor="start" x="81.5" y="-291" font-family="Helvetica,sans-Serif" font-size="10.00">+</text>
<text text-anchor="start" x="94.5" y="-291" font-family="Helvetica,sans-Serif" font-size="10.00">write()</text>
<text text-anchor="start" x="81.5" y="-276" font-family="Helvetica,sans-Serif" font-size="10.00">+</text>
<text text-anchor="start" x="94.5" y="-276" font-family="Helvetica,sans-Serif" font-size="10.00">read()</text>
<text text-anchor="start" x="81.5" y="-261" font-family="Helvetica,sans-Serif" font-size="10.00">+</text>
<text text-anchor="start" x="94.5" y="-261" font-family="Helvetica,sans-Serif" font-size="10.00">read_with_flags()</text>
<text text-anchor="start" x="81.5" y="-246" font-family="Helvetica,sans-Serif" font-size="10.00">+</text>
<text text-anchor="start" x="94.5" y="-246" font-family="Helvetica,sans-Serif" font-size="10.00">set_attr()</text>
<text text-anchor="start" x="81.5" y="-231" font-family="Helvetica,sans-Serif" font-size="10.00">+</text>
<text text-anchor="start" x="94.5" y="-231" font-family="Helvetica,sans-Serif" font-size="10.00">get_attr()</text>
<polygon fill="#666666" stroke="#666666" points="77.5,-331 77.5,-331 183.5,-331 183.5,-331 77.5,-331"/>
<polygon fill="#666666" stroke="#666666" points="77.5,-316 77.5,-316 183.5,-316 183.5,-316 77.5,-316"/>
<polygon fill="none" stroke="#666666" points="77.5,-224 77.5,-348 183.5,-348 183.5,-224 77.5,-224"/>
</a>
</g>
</g>
<!-- Node3&#45;&gt;Node2 -->
<g id="edge2_Node000002_Node000003" class="edge">
<title>Node3&#45;&gt;Node2</title>
<g id="a_edge2_Node000002_Node000003"><a xlink:title=" ">
<path fill="none" stroke="#63b8ff" d="M97.17,-214.29C92.77,-204.97 88.39,-195.67 84.32,-187.05"/>
<polygon fill="none" stroke="#63b8ff" points="94.12,-216.04 101.55,-223.59 100.45,-213.06 94.12,-216.04"/>
</a>
</g>
</g>
<!-- Node4 -->
<g id="Node000004" class="node">
<title>Node4</title>
<g id="a_Node000004"><a xlink:href="classL4_1_1Kobject__t.html" target="_top" xlink:title=" ">
<polygon fill="white" stroke="transparent" points="211,-460 82,-460 82,-385 211,-385 211,-460"/>
<text text-anchor="start" x="91.5" y="-447.5" font-family="Helvetica,sans-Serif" font-size="10.00">L4::Kobject_t&lt; Vcon,</text>
<text text-anchor="start" x="91.5" y="-436.5" font-family="Helvetica,sans-Serif" font-size="10.00"> Icu, L4_PROTO_LOG &gt;</text>
<text text-anchor="start" x="145" y="-421.5" font-family="Helvetica,sans-Serif" font-size="10.00"> </text>
<text text-anchor="start" x="86.5" y="-406.5" font-family="Helvetica,sans-Serif" font-size="10.00">#</text>
<text text-anchor="start" x="99.5" y="-406.5" font-family="Helvetica,sans-Serif" font-size="10.00">c()</text>
<text text-anchor="start" x="86.5" y="-391.5" font-family="Helvetica,sans-Serif" font-size="10.00">#</text>
<text text-anchor="start" x="99.5" y="-391.5" font-family="Helvetica,sans-Serif" font-size="10.00">__check_protocols__()</text>
<polygon fill="#666666" stroke="#666666" points="82.5,-431.5 82.5,-431.5 211.5,-431.5 211.5,-431.5 82.5,-431.5"/>
<polygon fill="#666666" stroke="#666666" points="82.5,-416.5 82.5,-416.5 211.5,-416.5 211.5,-416.5 82.5,-416.5"/>
<polygon fill="none" stroke="#666666" points="82,-385 82,-460 211,-460 211,-385 82,-385"/>
</a>
</g>
</g>
<!-- Node4&#45;&gt;Node3 -->
<g id="edge3_Node000003_Node000004" class="edge">
<title>Node4&#45;&gt;Node3</title>
<g id="a_edge3_Node000003_Node000004"><a xlink:title=" ">
<path fill="none" stroke="#63b8ff" d="M140.92,-374.57C139.9,-366 138.82,-356.94 137.76,-348.03"/>
<polygon fill="none" stroke="#63b8ff" points="137.47,-375.23 142.13,-384.75 144.42,-374.4 137.47,-375.23"/>
</a>
</g>
</g>
<!-- Node5 -->
<g id="Node000005" class="node">
<title>Node5</title>
<g id="a_Node000005"><a xlink:href="classL4_1_1Icu.html" target="_top" xlink:title="C++ Icu interface, see Interrupt controller for the C interface.">
<polygon fill="white" stroke="transparent" points="283,-642 206,-642 206,-518 283,-518 283,-642"/>
<text text-anchor="start" x="229" y="-630" font-family="Helvetica,sans-Serif" font-size="10.00">L4::Icu</text>
<text text-anchor="start" x="243" y="-615" font-family="Helvetica,sans-Serif" font-size="10.00"> </text>
<text text-anchor="start" x="210.5" y="-600" font-family="Helvetica,sans-Serif" font-size="10.00">+</text>
<text text-anchor="start" x="223.5" y="-600" font-family="Helvetica,sans-Serif" font-size="10.00">bind()</text>
<text text-anchor="start" x="210.5" y="-585" font-family="Helvetica,sans-Serif" font-size="10.00">+</text>
<text text-anchor="start" x="223.5" y="-585" font-family="Helvetica,sans-Serif" font-size="10.00">unbind()</text>
<text text-anchor="start" x="210.5" y="-570" font-family="Helvetica,sans-Serif" font-size="10.00">+</text>
<text text-anchor="start" x="223.5" y="-570" font-family="Helvetica,sans-Serif" font-size="10.00">info()</text>
<text text-anchor="start" x="210.5" y="-555" font-family="Helvetica,sans-Serif" font-size="10.00">+</text>
<text text-anchor="start" x="223.5" y="-555" font-family="Helvetica,sans-Serif" font-size="10.00">msi_info()</text>
<text text-anchor="start" x="210.5" y="-540" font-family="Helvetica,sans-Serif" font-size="10.00">+</text>
<text text-anchor="start" x="223.5" y="-540" font-family="Helvetica,sans-Serif" font-size="10.00">mask()</text>
<text text-anchor="start" x="210.5" y="-525" font-family="Helvetica,sans-Serif" font-size="10.00">+</text>
<text text-anchor="start" x="223.5" y="-525" font-family="Helvetica,sans-Serif" font-size="10.00">set_mode()</text>
<polygon fill="#666666" stroke="#666666" points="206.5,-625 206.5,-625 283.5,-625 283.5,-625 206.5,-625"/>
<polygon fill="#666666" stroke="#666666" points="206.5,-610 206.5,-610 283.5,-610 283.5,-610 206.5,-610"/>
<polygon fill="none" stroke="#666666" points="206,-518 206,-642 283,-642 283,-518 206,-518"/>
</a>
</g>
</g>
<!-- Node5&#45;&gt;Node4 -->
<g id="edge4_Node000004_Node000005" class="edge">
<title>Node5&#45;&gt;Node4</title>
<g id="a_edge4_Node000004_Node000005"><a xlink:title=" ">
<path fill="none" stroke="#63b8ff" d="M200.51,-509.19C189.83,-492.25 178.83,-474.8 169.57,-460.11"/>
<polygon fill="none" stroke="#63b8ff" points="197.76,-511.39 206.05,-517.99 203.68,-507.66 197.76,-511.39"/>
</a>
</g>
</g>
<!-- Node6 -->
<g id="Node000006" class="node">
<title>Node6</title>
<g id="a_Node000006"><a xlink:href="classL4_1_1Kobject__t.html" target="_top" xlink:title=" ">
<polygon fill="white" stroke="transparent" points="354.5,-786 198.5,-786 198.5,-700 354.5,-700 354.5,-786"/>
<text text-anchor="start" x="203.5" y="-774" font-family="Helvetica,sans-Serif" font-size="10.00">L4::Kobject_t&lt; Icu,</text>
<text text-anchor="start" x="203.5" y="-763" font-family="Helvetica,sans-Serif" font-size="10.00"> Irq_eoi, L4_PROTO_IRQ,</text>
<text text-anchor="start" x="203.5" y="-752" font-family="Helvetica,sans-Serif" font-size="10.00"> Type_info::Demand_t&lt; 1 &gt; &gt;</text>
<text text-anchor="start" x="274.5" y="-737" font-family="Helvetica,sans-Serif" font-size="10.00"> </text>
<text text-anchor="start" x="209" y="-722" font-family="Helvetica,sans-Serif" font-size="10.00">#</text>
<text text-anchor="start" x="228.5" y="-722" font-family="Helvetica,sans-Serif" font-size="10.00">c()</text>
<text text-anchor="start" x="209" y="-707" font-family="Helvetica,sans-Serif" font-size="10.00">#</text>
<text text-anchor="start" x="228.5" y="-707" font-family="Helvetica,sans-Serif" font-size="10.00">__check_protocols__()</text>
<polygon fill="#666666" stroke="#666666" points="198.5,-747 198.5,-747 354.5,-747 354.5,-747 198.5,-747"/>
<polygon fill="#666666" stroke="#666666" points="198.5,-732 198.5,-732 354.5,-732 354.5,-732 198.5,-732"/>
<polygon fill="none" stroke="#666666" points="198.5,-700 198.5,-786 354.5,-786 354.5,-700 198.5,-700"/>
</a>
</g>
</g>
<!-- Node6&#45;&gt;Node5 -->
<g id="edge5_Node000005_Node000006" class="edge">
<title>Node6&#45;&gt;Node5</title>
<g id="a_edge5_Node000005_Node000006"><a xlink:title=" ">
<path fill="none" stroke="#63b8ff" d="M268.01,-689.66C266.28,-679.79 264.4,-669.57 262.5,-660 261.35,-654.21 260.09,-648.19 258.79,-642.17"/>
<polygon fill="none" stroke="#63b8ff" points="264.6,-690.52 269.75,-699.78 271.5,-689.33 264.6,-690.52"/>
</a>
</g>
</g>
<!-- Node7 -->
<g id="Node000007" class="node">
<title>Node7</title>
<g id="a_Node000007"><a xlink:href="classL4_1_1Irq__eoi.html" target="_top" xlink:title="Interface for sending an unmask message to an object.">
<polygon fill="white" stroke="transparent" points="343.5,-917 275.5,-917 275.5,-868 343.5,-868 343.5,-917"/>
<text text-anchor="start" x="284" y="-904.5" font-family="Helvetica,sans-Serif" font-size="10.00">L4::Irq_eoi</text>
<text text-anchor="start" x="307.5" y="-889.5" font-family="Helvetica,sans-Serif" font-size="10.00"> </text>
<text text-anchor="start" x="279.5" y="-874.5" font-family="Helvetica,sans-Serif" font-size="10.00">+</text>
<text text-anchor="start" x="292.5" y="-874.5" font-family="Helvetica,sans-Serif" font-size="10.00">unmask()</text>
<polygon fill="#666666" stroke="#666666" points="275.5,-899.5 275.5,-899.5 343.5,-899.5 343.5,-899.5 275.5,-899.5"/>
<polygon fill="#666666" stroke="#666666" points="275.5,-884.5 275.5,-884.5 343.5,-884.5 343.5,-884.5 275.5,-884.5"/>
<polygon fill="none" stroke="#666666" points="275.5,-868 275.5,-917 343.5,-917 343.5,-868 275.5,-868"/>
</a>
</g>
</g>
<!-- Node7&#45;&gt;Node6 -->
<g id="edge6_Node000006_Node000007" class="edge">
<title>Node7&#45;&gt;Node6</title>
<g id="a_edge6_Node000006_Node000007"><a xlink:title=" ">
<path fill="none" stroke="#63b8ff" d="M305.29,-857.74C302.95,-841.4 299.66,-821.56 295.5,-804 294.11,-798.15 292.45,-792.05 290.68,-786.07"/>
<polygon fill="none" stroke="#63b8ff" points="301.86,-858.49 306.69,-867.92 308.79,-857.53 301.86,-858.49"/>
</a>
</g>
</g>
<!-- Node8 -->
<g id="Node000008" class="node">
<title>Node8</title>
<g id="a_Node000008"><a xlink:href="classL4_1_1Kobject__t.html" target="_top" xlink:title="Helper class to create an L4Re interface class that is derived from a single base class.">
<polygon fill="white" stroke="transparent" points="221.5,-930 71.5,-930 71.5,-855 221.5,-855 221.5,-930"/>
<text text-anchor="start" x="76.5" y="-917.5" font-family="Helvetica,sans-Serif" font-size="10.00">L4::Kobject_t&lt; Derived,</text>
<text text-anchor="start" x="76.5" y="-906.5" font-family="Helvetica,sans-Serif" font-size="10.00"> Base, PROTO, S_DEMAND &gt;</text>
<text text-anchor="start" x="144.5" y="-891.5" font-family="Helvetica,sans-Serif" font-size="10.00"> </text>
<text text-anchor="start" x="80.5" y="-876.5" font-family="Helvetica,sans-Serif" font-size="10.00">#</text>
<text text-anchor="start" x="98.5" y="-876.5" font-family="Helvetica,sans-Serif" font-size="10.00">c()</text>
<text text-anchor="start" x="80.5" y="-861.5" font-family="Helvetica,sans-Serif" font-size="10.00">#</text>
<text text-anchor="start" x="98.5" y="-861.5" font-family="Helvetica,sans-Serif" font-size="10.00">__check_protocols__()</text>
<polygon fill="#666666" stroke="#666666" points="71.5,-901.5 71.5,-901.5 221.5,-901.5 221.5,-901.5 71.5,-901.5"/>
<polygon fill="#666666" stroke="#666666" points="71.5,-886.5 71.5,-886.5 221.5,-886.5 221.5,-886.5 71.5,-886.5"/>
<polygon fill="none" stroke="#666666" points="71.5,-855 71.5,-930 221.5,-930 221.5,-855 71.5,-855"/>
</a>
</g>
</g>
<!-- Node8&#45;&gt;Node2 -->
<g id="edge9_Node000002_Node000008" class="edge">
<title>Node8&#45;&gt;Node2</title>
<g id="a_edge9_Node000002_Node000008"><a xlink:title=" ">
<path fill="none" stroke="orange" d="M89.93,-848.08C62.12,-821.53 34.5,-784.88 34.5,-744 34.5,-744 34.5,-744 34.5,-285 34.5,-251.57 42.78,-214.62 50.64,-187.08"/>
<polygon fill="orange" stroke="orange" points="87.65,-850.74 97.38,-854.95 92.4,-845.59 87.65,-850.74"/>
</a>
</g>
<text text-anchor="start" x="34.5" y="-492" font-family="Helvetica,sans-Serif" font-size="10.00" fill="grey"> &lt; Log, L4::Vcon, L4</text>
<text text-anchor="middle" x="83" y="-481" font-family="Helvetica,sans-Serif" font-size="10.00" fill="grey">::PROTO_EMPTY &gt;</text>
</g>
<!-- Node8&#45;&gt;Node4 -->
<g id="edge8_Node000004_Node000008" class="edge">
<title>Node8&#45;&gt;Node4</title>
<g id="a_edge8_Node000004_Node000008"><a xlink:title=" ">
<path fill="none" stroke="orange" d="M145.64,-844.75C144.9,-802.3 143.9,-737.95 143.5,-682 142.93,-603.01 144.56,-510.45 145.64,-460.31"/>
<polygon fill="orange" stroke="orange" points="142.14,-844.86 145.82,-854.79 149.14,-844.73 142.14,-844.86"/>
</a>
</g>
<text text-anchor="start" x="143.5" y="-674" font-family="Helvetica,sans-Serif" font-size="10.00" fill="grey"> &lt; Vcon, Icu, L4_PROTO</text>
<text text-anchor="middle" x="201" y="-663" font-family="Helvetica,sans-Serif" font-size="10.00" fill="grey">_LOG &gt;</text>
</g>
<!-- Node8&#45;&gt;Node6 -->
<g id="edge7_Node000006_Node000008" class="edge">
<title>Node8&#45;&gt;Node6</title>
<g id="a_edge7_Node000006_Node000008"><a xlink:title=" ">
<path fill="none" stroke="orange" d="M155.89,-844.94C160.4,-830.73 166.98,-815.77 176.5,-804 182.74,-796.29 190.26,-789.33 198.33,-783.12"/>
<polygon fill="orange" stroke="orange" points="152.51,-844.03 153.09,-854.61 159.24,-845.98 152.51,-844.03"/>
</a>
</g>
<text text-anchor="start" x="176.5" y="-829" font-family="Helvetica,sans-Serif" font-size="10.00" fill="grey"> &lt; Icu, Irq_eoi, L4</text>
<text text-anchor="start" x="176.5" y="-818" font-family="Helvetica,sans-Serif" font-size="10.00" fill="grey">_PROTO_IRQ, Type_info</text>
<text text-anchor="middle" x="234" y="-807" font-family="Helvetica,sans-Serif" font-size="10.00" fill="grey">::Demand_t&lt; 1 &gt; &gt;</text>
</g>
</g>
</svg>
