<?xml version="1.0" encoding="UTF-8" standalone="no"?>
<!DOCTYPE svg PUBLIC "-//W3C//DTD SVG 1.1//EN"
 "http://www.w3.org/Graphics/SVG/1.1/DTD/svg11.dtd">
<!-- Generated by graphviz version 2.42.4 (0)
 -->
<!-- Title: L4::Factory Pages: 1 -->
<svg width="265pt" height="571pt"
 viewBox="0.00 0.00 265.00 571.00" xmlns="http://www.w3.org/2000/svg" xmlns:xlink="http://www.w3.org/1999/xlink">
<g id="graph0" class="graph" transform="scale(1 1) rotate(0) translate(4 567)">
<title>L4::Factory</title>
<!-- Node1 -->
<g id="Node000001" class="node">
<title>Node1</title>
<g id="a_Node000001"><a xlink:title="C++ Factory interface, see Factory for the C interface.">
<polygon fill="#999999" stroke="transparent" points="156,-318 56,-318 56,-209 156,-209 156,-318"/>
<text text-anchor="start" x="79.5" y="-305.5" font-family="Helvetica,sans-Serif" font-size="10.00">L4::Factory</text>
<text text-anchor="start" x="104" y="-290.5" font-family="Helvetica,sans-Serif" font-size="10.00"> </text>
<text text-anchor="start" x="60" y="-275.5" font-family="Helvetica,sans-Serif" font-size="10.00">+</text>
<text text-anchor="start" x="73" y="-275.5" font-family="Helvetica,sans-Serif" font-size="10.00">create()</text>
<text text-anchor="start" x="60" y="-260.5" font-family="Helvetica,sans-Serif" font-size="10.00">+</text>
<text text-anchor="start" x="73" y="-260.5" font-family="Helvetica,sans-Serif" font-size="10.00">create()</text>
<text text-anchor="start" x="60" y="-245.5" font-family="Helvetica,sans-Serif" font-size="10.00">+</text>
<text text-anchor="start" x="73" y="-245.5" font-family="Helvetica,sans-Serif" font-size="10.00">create_task()</text>
<text text-anchor="start" x="60" y="-230.5" font-family="Helvetica,sans-Serif" font-size="10.00">+</text>
<text text-anchor="start" x="73" y="-230.5" font-family="Helvetica,sans-Serif" font-size="10.00">create_factory()</text>
<text text-anchor="start" x="60" y="-215.5" font-family="Helvetica,sans-Serif" font-size="10.00">+</text>
<text text-anchor="start" x="73" y="-215.5" font-family="Helvetica,sans-Serif" font-size="10.00">create_gate()</text>
<polygon fill="#666666" stroke="#666666" points="56,-300.5 56,-300.5 156,-300.5 156,-300.5 56,-300.5"/>
<polygon fill="#666666" stroke="#666666" points="56,-285.5 56,-285.5 156,-285.5 156,-285.5 56,-285.5"/>
<polygon fill="none" stroke="#666666" points="56,-209 56,-318 156,-318 156,-209 56,-209"/>
</a>
</g>
</g>
<!-- Node5 -->
<g id="Node000005" class="node">
<title>Node5</title>
<g id="a_Node000005"><a xlink:href="classL4_1_1Kobject__t.html" target="_top" xlink:title=" ">
<polygon fill="white" stroke="transparent" points="170.5,-172 41.5,-172 41.5,-86 170.5,-86 170.5,-172"/>
<text text-anchor="start" x="54.5" y="-160" font-family="Helvetica,sans-Serif" font-size="10.00">L4::Kobject_t&lt; Mem</text>
<text text-anchor="start" x="54.5" y="-149" font-family="Helvetica,sans-Serif" font-size="10.00">_alloc, L4::Factory,</text>
<text text-anchor="start" x="54.5" y="-138" font-family="Helvetica,sans-Serif" font-size="10.00"> L4::PROTO_EMPTY &gt;</text>
<text text-anchor="start" x="104.5" y="-123" font-family="Helvetica,sans-Serif" font-size="10.00"> </text>
<text text-anchor="start" x="46" y="-108" font-family="Helvetica,sans-Serif" font-size="10.00">#</text>
<text text-anchor="start" x="59" y="-108" font-family="Helvetica,sans-Serif" font-size="10.00">c()</text>
<text text-anchor="start" x="46" y="-93" font-family="Helvetica,sans-Serif" font-size="10.00">#</text>
<text text-anchor="start" x="59" y="-93" font-family="Helvetica,sans-Serif" font-size="10.00">__check_protocols__()</text>
<polygon fill="#666666" stroke="#666666" points="42,-133 42,-133 171,-133 171,-133 42,-133"/>
<polygon fill="#666666" stroke="#666666" points="42,-118 42,-118 171,-118 171,-118 42,-118"/>
<polygon fill="none" stroke="#666666" points="41.5,-86 41.5,-172 170.5,-172 170.5,-86 41.5,-86"/>
</a>
</g>
</g>
<!-- Node1&#45;&gt;Node5 -->
<g id="edge4_Node000001_Node000005" class="edge">
<title>Node1&#45;&gt;Node5</title>
<g id="a_edge4_Node000001_Node000005"><a xlink:title=" ">
<path fill="none" stroke="#63b8ff" d="M106,-198.87C106,-189.86 106,-180.78 106,-172.3"/>
<polygon fill="none" stroke="#63b8ff" points="102.5,-198.99 106,-208.99 109.5,-198.99 102.5,-198.99"/>
</a>
</g>
</g>
<!-- Node2 -->
<g id="Node000002" class="node">
<title>Node2</title>
<g id="a_Node000002"><a xlink:href="classL4_1_1Kobject__t.html" target="_top" xlink:title=" ">
<polygon fill="white" stroke="transparent" points="189,-430 23,-430 23,-355 189,-355 189,-430"/>
<text text-anchor="start" x="28" y="-417.5" font-family="Helvetica,sans-Serif" font-size="10.00">L4::Kobject_t&lt; Factory,</text>
<text text-anchor="start" x="28" y="-406.5" font-family="Helvetica,sans-Serif" font-size="10.00"> Kobject, L4_PROTO_FACTORY &gt;</text>
<text text-anchor="start" x="104" y="-391.5" font-family="Helvetica,sans-Serif" font-size="10.00"> </text>
<text text-anchor="start" x="36" y="-376.5" font-family="Helvetica,sans-Serif" font-size="10.00">#</text>
<text text-anchor="start" x="58" y="-376.5" font-family="Helvetica,sans-Serif" font-size="10.00">c()</text>
<text text-anchor="start" x="36" y="-361.5" font-family="Helvetica,sans-Serif" font-size="10.00">#</text>
<text text-anchor="start" x="58" y="-361.5" font-family="Helvetica,sans-Serif" font-size="10.00">__check_protocols__()</text>
<polygon fill="#666666" stroke="#666666" points="23,-401.5 23,-401.5 189,-401.5 189,-401.5 23,-401.5"/>
<polygon fill="#666666" stroke="#666666" points="23,-386.5 23,-386.5 189,-386.5 189,-386.5 23,-386.5"/>
<polygon fill="none" stroke="#666666" points="23,-355 23,-430 189,-430 189,-355 23,-355"/>
</a>
</g>
</g>
<!-- Node2&#45;&gt;Node1 -->
<g id="edge1_Node000001_Node000002" class="edge">
<title>Node2&#45;&gt;Node1</title>
<g id="a_edge1_Node000001_Node000002"><a xlink:title=" ">
<path fill="none" stroke="#63b8ff" d="M106,-344.55C106,-335.96 106,-326.93 106,-318.16"/>
<polygon fill="none" stroke="#63b8ff" points="102.5,-344.77 106,-354.77 109.5,-344.77 102.5,-344.77"/>
</a>
</g>
</g>
<!-- Node3 -->
<g id="Node000003" class="node">
<title>Node3</title>
<g id="a_Node000003"><a xlink:href="classL4_1_1Kobject.html" target="_top" xlink:title="Base class for all kinds of kernel objects and remote objects, referenced by capabilities.">
<polygon fill="white" stroke="transparent" points="80,-557.5 0,-557.5 0,-493.5 80,-493.5 80,-557.5"/>
<text text-anchor="start" x="13" y="-545.5" font-family="Helvetica,sans-Serif" font-size="10.00">L4::Kobject</text>
<text text-anchor="start" x="38" y="-530.5" font-family="Helvetica,sans-Serif" font-size="10.00"> </text>
<text text-anchor="start" x="4" y="-515.5" font-family="Helvetica,sans-Serif" font-size="10.00">+</text>
<text text-anchor="start" x="17" y="-515.5" font-family="Helvetica,sans-Serif" font-size="10.00">dec_refcnt()</text>
<text text-anchor="start" x="4" y="-500.5" font-family="Helvetica,sans-Serif" font-size="10.00">#</text>
<text text-anchor="start" x="17" y="-500.5" font-family="Helvetica,sans-Serif" font-size="10.00">cap()</text>
<polygon fill="#666666" stroke="#666666" points="0,-540.5 0,-540.5 80,-540.5 80,-540.5 0,-540.5"/>
<polygon fill="#666666" stroke="#666666" points="0,-525.5 0,-525.5 80,-525.5 80,-525.5 0,-525.5"/>
<polygon fill="none" stroke="#666666" points="0,-493.5 0,-557.5 80,-557.5 80,-493.5 0,-493.5"/>
</a>
</g>
</g>
<!-- Node3&#45;&gt;Node2 -->
<g id="edge2_Node000002_Node000003" class="edge">
<title>Node3&#45;&gt;Node2</title>
<g id="a_edge2_Node000002_Node000003"><a xlink:title=" ">
<path fill="none" stroke="#63b8ff" d="M60.29,-484.23C68.94,-467.06 78.97,-447.16 87.42,-430.37"/>
<polygon fill="none" stroke="#63b8ff" points="57.01,-482.95 55.64,-493.45 63.27,-486.1 57.01,-482.95"/>
</a>
</g>
</g>
<!-- Node4 -->
<g id="Node000004" class="node">
<title>Node4</title>
<g id="a_Node000004"><a xlink:href="classL4_1_1Kobject__t.html" target="_top" xlink:title="Helper class to create an L4Re interface class that is derived from a single base class.">
<polygon fill="white" stroke="transparent" points="248,-563 98,-563 98,-488 248,-488 248,-563"/>
<text text-anchor="start" x="103" y="-550.5" font-family="Helvetica,sans-Serif" font-size="10.00">L4::Kobject_t&lt; Derived,</text>
<text text-anchor="start" x="103" y="-539.5" font-family="Helvetica,sans-Serif" font-size="10.00"> Base, PROTO, S_DEMAND &gt;</text>
<text text-anchor="start" x="171" y="-524.5" font-family="Helvetica,sans-Serif" font-size="10.00"> </text>
<text text-anchor="start" x="107" y="-509.5" font-family="Helvetica,sans-Serif" font-size="10.00">#</text>
<text text-anchor="start" x="125" y="-509.5" font-family="Helvetica,sans-Serif" font-size="10.00">c()</text>
<text text-anchor="start" x="107" y="-494.5" font-family="Helvetica,sans-Serif" font-size="10.00">#</text>
<text text-anchor="start" x="125" y="-494.5" font-family="Helvetica,sans-Serif" font-size="10.00">__check_protocols__()</text>
<polygon fill="#666666" stroke="#666666" points="98,-534.5 98,-534.5 248,-534.5 248,-534.5 98,-534.5"/>
<polygon fill="#666666" stroke="#666666" points="98,-519.5 98,-519.5 248,-519.5 248,-519.5 98,-519.5"/>
<polygon fill="none" stroke="#666666" points="98,-488 98,-563 248,-563 248,-488 98,-488"/>
</a>
</g>
</g>
<!-- Node4&#45;&gt;Node2 -->
<g id="edge3_Node000002_Node000004" class="edge">
<title>Node4&#45;&gt;Node2</title>
<g id="a_edge3_Node000002_Node000004"><a xlink:title=" ">
<path fill="none" stroke="orange" d="M149.49,-478.54C141.37,-462.66 132.38,-445.09 124.7,-430.06"/>
<polygon fill="orange" stroke="orange" points="146.49,-480.35 154.16,-487.66 152.72,-477.16 146.49,-480.35"/>
</a>
</g>
<text text-anchor="start" x="143" y="-462" font-family="Helvetica,sans-Serif" font-size="10.00" fill="grey"> &lt; Factory, Kobject,</text>
<text text-anchor="middle" x="200" y="-451" font-family="Helvetica,sans-Serif" font-size="10.00" fill="grey"> L4_PROTO_FACTORY &gt;</text>
</g>
<!-- Node6 -->
<g id="Node000006" class="node">
<title>Node6</title>
<g id="a_Node000006"><a xlink:href="classL4Re_1_1Mem__alloc.html" target="_top" xlink:title="Memory allocation interface.">
<polygon fill="white" stroke="transparent" points="153,-49 59,-49 59,0 153,0 153,-49"/>
<text text-anchor="start" x="64" y="-36.5" font-family="Helvetica,sans-Serif" font-size="10.00">L4Re::Mem_alloc</text>
<text text-anchor="start" x="104" y="-21.5" font-family="Helvetica,sans-Serif" font-size="10.00"> </text>
<text text-anchor="start" x="73.5" y="-6.5" font-family="Helvetica,sans-Serif" font-size="10.00">+</text>
<text text-anchor="start" x="97" y="-6.5" font-family="Helvetica,sans-Serif" font-size="10.00">alloc()</text>
<polygon fill="#666666" stroke="#666666" points="59,-31.5 59,-31.5 153,-31.5 153,-31.5 59,-31.5"/>
<polygon fill="#666666" stroke="#666666" points="59,-16.5 59,-16.5 153,-16.5 153,-16.5 59,-16.5"/>
<polygon fill="none" stroke="#666666" points="59,0 59,-49 153,-49 153,0 59,0"/>
</a>
</g>
</g>
<!-- Node5&#45;&gt;Node6 -->
<g id="edge5_Node000005_Node000006" class="edge">
<title>Node5&#45;&gt;Node6</title>
<g id="a_edge5_Node000005_Node000006"><a xlink:title=" ">
<path fill="none" stroke="#63b8ff" d="M106,-75.69C106,-66.41 106,-57.18 106,-49.21"/>
<polygon fill="none" stroke="#63b8ff" points="102.5,-75.72 106,-85.72 109.5,-75.72 102.5,-75.72"/>
</a>
</g>
</g>
</g>
</svg>
