<?xml version="1.0" encoding="UTF-8" standalone="no"?>
<!DOCTYPE svg PUBLIC "-//W3C//DTD SVG 1.1//EN"
 "http://www.w3.org/Graphics/SVG/1.1/DTD/svg11.dtd">
<!-- Generated by graphviz version 2.43.0 (0)
 -->
<!-- Title: L4virtio::Svr::Device_t::device_error Pages: 1 -->
<svg width="697pt" height="242pt"
 viewBox="0.00 0.00 697.00 242.00" xmlns="http://www.w3.org/2000/svg" xmlns:xlink="http://www.w3.org/1999/xlink">
<g id="graph0" class="graph" transform="scale(1 1) rotate(0) translate(4 238)">
<title>L4virtio::Svr::Device_t::device_error</title>
<!-- Node1 -->
<g id="Node000001" class="node">
<title>Node1</title>
<g id="a_Node000001"><a xlink:title="Transition device into DEVICE_NEEDS_RESET state.">
<polygon fill="#999999" stroke="#666666" points="115,-132 0,-132 0,-102 115,-102 115,-132"/>
<text text-anchor="start" x="8" y="-120" font-family="Helvetica,sans-Serif" font-size="10.00">L4virtio::Svr::Device</text>
<text text-anchor="middle" x="57.5" y="-109" font-family="Helvetica,sans-Serif" font-size="10.00">_t::device_error</text>
</a>
</g>
</g>
<!-- Node2 -->
<g id="Node000002" class="node">
<title>Node2</title>
<g id="a_Node000002"><a xlink:href="structL4virtio_1_1Svr_1_1Dev__status.html#a5b56e89190f111e843f56c8f55c29fd8" target="_top" xlink:title="Get the driver_ok bits ( 2 to 2 ) of raw.">
<polygon fill="white" stroke="#666666" points="278,-234 174,-234 174,-204 278,-204 278,-234"/>
<text text-anchor="start" x="182" y="-222" font-family="Helvetica,sans-Serif" font-size="10.00">L4virtio::Svr::Dev</text>
<text text-anchor="middle" x="226" y="-211" font-family="Helvetica,sans-Serif" font-size="10.00">_status::driver_ok</text>
</a>
</g>
</g>
<!-- Node1&#45;&gt;Node2 -->
<g id="edge1_Node000001_Node000002" class="edge">
<title>Node1&#45;&gt;Node2</title>
<g id="a_edge1_Node000001_Node000002"><a xlink:title=" ">
<path fill="none" stroke="#63b8ff" d="M72.84,-132.24C89.95,-149.63 120.15,-177.86 151,-195 155.21,-197.34 159.67,-199.49 164.25,-201.46"/>
<polygon fill="#63b8ff" stroke="#63b8ff" points="163.16,-204.79 173.75,-205.26 165.76,-198.29 163.16,-204.79"/>
</a>
</g>
</g>
<!-- Node3 -->
<g id="Node000003" class="node">
<title>Node3</title>
<g id="a_Node000003"><a xlink:href="classL4virtio_1_1Svr_1_1Device__t.html#a4350f6e35f43df84584ec30740f5a7aa" target="_top" xlink:title="reset callback, called for doing a device reset">
<polygon fill="white" stroke="#666666" points="283.5,-186 168.5,-186 168.5,-156 283.5,-156 283.5,-186"/>
<text text-anchor="start" x="176.5" y="-174" font-family="Helvetica,sans-Serif" font-size="10.00">L4virtio::Svr::Device</text>
<text text-anchor="middle" x="226" y="-163" font-family="Helvetica,sans-Serif" font-size="10.00">_t::reset</text>
</a>
</g>
</g>
<!-- Node1&#45;&gt;Node3 -->
<g id="edge2_Node000001_Node000003" class="edge">
<title>Node1&#45;&gt;Node3</title>
<g id="a_edge2_Node000001_Node000003"><a xlink:title=" ">
<path fill="none" stroke="#63b8ff" d="M104.88,-132.04C124.73,-138.48 148.09,-146.06 168.91,-152.81"/>
<polygon fill="#63b8ff" stroke="#63b8ff" points="167.99,-156.19 178.58,-155.95 170.15,-149.53 167.99,-156.19"/>
</a>
</g>
</g>
<!-- Node4 -->
<g id="Node000004" class="node">
<title>Node4</title>
<g id="a_Node000004"><a xlink:href="classL4virtio_1_1Svr_1_1Dev__config.html#afc2b3a6d213dc5fbaf7e500f784b5076" target="_top" xlink:title="Set DEVICE_NEEDS_RESET bit in device status register.">
<polygon fill="white" stroke="#666666" points="281,-137.5 171,-137.5 171,-96.5 281,-96.5 281,-137.5"/>
<text text-anchor="start" x="179" y="-125.5" font-family="Helvetica,sans-Serif" font-size="10.00">L4virtio::Svr::Dev</text>
<text text-anchor="start" x="179" y="-114.5" font-family="Helvetica,sans-Serif" font-size="10.00">_config::set_device</text>
<text text-anchor="middle" x="226" y="-103.5" font-family="Helvetica,sans-Serif" font-size="10.00">_needs_reset</text>
</a>
</g>
</g>
<!-- Node1&#45;&gt;Node4 -->
<g id="edge3_Node000001_Node000004" class="edge">
<title>Node1&#45;&gt;Node4</title>
<g id="a_edge3_Node000001_Node000004"><a xlink:title=" ">
<path fill="none" stroke="#63b8ff" d="M115.33,-117C129.95,-117 145.79,-117 160.75,-117"/>
<polygon fill="#63b8ff" stroke="#63b8ff" points="160.95,-120.5 170.95,-117 160.95,-113.5 160.95,-120.5"/>
</a>
</g>
</g>
<!-- Node8 -->
<g id="Node000008" class="node">
<title>Node8</title>
<g id="a_Node000008"><a xlink:href="classL4virtio_1_1Svr_1_1Dev__config.html#a96ad6d40f04894e7a0ef8ce33a4f8416" target="_top" xlink:title="Get current device status (trusted).">
<polygon fill="white" stroke="#666666" points="276.5,-78 175.5,-78 175.5,-48 276.5,-48 276.5,-78"/>
<text text-anchor="start" x="183.5" y="-66" font-family="Helvetica,sans-Serif" font-size="10.00">L4virtio::Svr::Dev</text>
<text text-anchor="middle" x="226" y="-55" font-family="Helvetica,sans-Serif" font-size="10.00">_config::status</text>
</a>
</g>
</g>
<!-- Node1&#45;&gt;Node8 -->
<g id="edge7_Node000001_Node000008" class="edge">
<title>Node1&#45;&gt;Node8</title>
<g id="a_edge7_Node000001_Node000008"><a xlink:title=" ">
<path fill="none" stroke="#63b8ff" d="M104.88,-101.96C124.73,-95.52 148.09,-87.94 168.91,-81.19"/>
<polygon fill="#63b8ff" stroke="#63b8ff" points="170.15,-84.47 178.58,-78.05 167.99,-77.81 170.15,-84.47"/>
</a>
</g>
</g>
<!-- Node9 -->
<g id="Node000009" class="node">
<title>Node9</title>
<g id="a_Node000009"><a xlink:href="classL4virtio_1_1Svr_1_1Device__t.html#a52d70a46453eb678e8656dbf790835e8" target="_top" xlink:title="callback for triggering configuration change notification IRQ">
<polygon fill="white" stroke="#666666" points="301,-30 151,-30 151,0 301,0 301,-30"/>
<text text-anchor="start" x="159" y="-18" font-family="Helvetica,sans-Serif" font-size="10.00">L4virtio::Svr::Device</text>
<text text-anchor="middle" x="226" y="-7" font-family="Helvetica,sans-Serif" font-size="10.00">_t::trigger_driver_config_irq</text>
</a>
</g>
</g>
<!-- Node1&#45;&gt;Node9 -->
<g id="edge8_Node000001_Node000009" class="edge">
<title>Node1&#45;&gt;Node9</title>
<g id="a_edge8_Node000001_Node000009"><a xlink:title=" ">
<path fill="none" stroke="#63b8ff" d="M72.84,-101.76C89.95,-84.37 120.15,-56.14 151,-39 154.2,-37.22 157.55,-35.55 160.98,-33.99"/>
<polygon fill="#63b8ff" stroke="#63b8ff" points="162.37,-37.2 170.22,-30.09 159.65,-30.75 162.37,-37.2"/>
</a>
</g>
</g>
<!-- Node5 -->
<g id="Node000005" class="node">
<title>Node5</title>
<g id="a_Node000005"><a xlink:href="structL4virtio_1_1Svr_1_1Dev__status.html#a00de1af41a5731259d899bb58cf56212" target="_top" xlink:title="Get the device_needs_reset bits ( 6 to 6 ) of raw.">
<polygon fill="white" stroke="#666666" points="492,-156 337,-156 337,-126 492,-126 492,-156"/>
<text text-anchor="start" x="345" y="-144" font-family="Helvetica,sans-Serif" font-size="10.00">L4virtio::Svr::Dev</text>
<text text-anchor="middle" x="414.5" y="-133" font-family="Helvetica,sans-Serif" font-size="10.00">_status::device_needs_reset</text>
</a>
</g>
</g>
<!-- Node4&#45;&gt;Node5 -->
<g id="edge4_Node000004_Node000005" class="edge">
<title>Node4&#45;&gt;Node5</title>
<g id="a_edge4_Node000004_Node000005"><a xlink:title=" ">
<path fill="none" stroke="#63b8ff" d="M281.19,-123.97C295.49,-125.81 311.27,-127.84 326.81,-129.84"/>
<polygon fill="#63b8ff" stroke="#63b8ff" points="326.61,-133.35 336.97,-131.15 327.5,-126.4 326.61,-133.35"/>
</a>
</g>
</g>
<!-- Node6 -->
<g id="Node000006" class="node">
<title>Node6</title>
<g id="a_Node000006"><a xlink:href="classL4virtio_1_1Svr_1_1Dev__config.html#a35714a3ebce252eb16a40033cf97d0fe" target="_top" xlink:title="Get a read&#45;only pointer to the config header.">
<polygon fill="white" stroke="#666666" points="465,-108 364,-108 364,-78 465,-78 465,-108"/>
<text text-anchor="start" x="372" y="-96" font-family="Helvetica,sans-Serif" font-size="10.00">L4virtio::Svr::Dev</text>
<text text-anchor="middle" x="414.5" y="-85" font-family="Helvetica,sans-Serif" font-size="10.00">_config::hdr</text>
</a>
</g>
</g>
<!-- Node4&#45;&gt;Node6 -->
<g id="edge5_Node000004_Node000006" class="edge">
<title>Node4&#45;&gt;Node6</title>
<g id="a_edge5_Node000004_Node000006"><a xlink:title=" ">
<path fill="none" stroke="#63b8ff" d="M281.19,-110.03C303.96,-107.1 330.52,-103.68 353.84,-100.68"/>
<polygon fill="#63b8ff" stroke="#63b8ff" points="354.48,-104.12 363.95,-99.38 353.59,-97.18 354.48,-104.12"/>
</a>
</g>
</g>
<!-- Node7 -->
<g id="Node000007" class="node">
<title>Node7</title>
<g id="a_Node000007"><a xlink:href="classL4Re_1_1Rm_1_1Unique__region.html#a301d5bd597f8c1e3b98bc52659f13dbe" target="_top" xlink:title="Return the address.">
<polygon fill="white" stroke="#666666" points="689,-102.5 528,-102.5 528,-83.5 689,-83.5 689,-102.5"/>
<text text-anchor="middle" x="608.5" y="-90.5" font-family="Helvetica,sans-Serif" font-size="10.00">L4Re::Rm::Unique_region::get</text>
</a>
</g>
</g>
<!-- Node6&#45;&gt;Node7 -->
<g id="edge6_Node000006_Node000007" class="edge">
<title>Node6&#45;&gt;Node7</title>
<g id="a_edge6_Node000006_Node000007"><a xlink:title=" ">
<path fill="none" stroke="#63b8ff" d="M465.44,-93C481.33,-93 499.41,-93 517.24,-93"/>
<polygon fill="#63b8ff" stroke="#63b8ff" points="517.68,-96.5 527.68,-93 517.68,-89.5 517.68,-96.5"/>
</a>
</g>
</g>
</g>
</svg>
