<?xml version="1.0" encoding="UTF-8" standalone="no"?>
<!DOCTYPE svg PUBLIC "-//W3C//DTD SVG 1.1//EN"
 "http://www.w3.org/Graphics/SVG/1.1/DTD/svg11.dtd">
<!-- Generated by graphviz version 2.42.4 (0)
 -->
<!-- Title: L4virtio::Virtqueue::num Pages: 1 -->
<svg width="1091pt" height="798pt"
 viewBox="0.00 0.00 1091.00 797.93" xmlns="http://www.w3.org/2000/svg" xmlns:xlink="http://www.w3.org/1999/xlink">
<g id="graph0" class="graph" transform="scale(1 1) rotate(0) translate(4 793.93)">
<title>L4virtio::Virtqueue::num</title>
<!-- Node1 -->
<g id="Node000001" class="node">
<title>Node1</title>
<g id="a_Node000001"><a xlink:title=" ">
<polygon fill="#999999" stroke="#666666" points="1083,-511.46 949,-511.46 949,-492.46 1083,-492.46 1083,-511.46"/>
<text text-anchor="middle" x="1016" y="-499.46" font-family="Helvetica,sans-Serif" font-size="10.00">L4virtio::Virtqueue::num</text>
</a>
</g>
</g>
<!-- Node2 -->
<g id="Node000002" class="node">
<title>Node2</title>
<g id="a_Node000002"><a xlink:href="classL4virtio_1_1Virtqueue.html#a962767a117dad07184f59191d399f9ce" target="_top" xlink:title="Calculate the size of the available ring for num entries.">
<polygon fill="white" stroke="#666666" points="886,-564.96 779,-564.96 779,-534.96 886,-534.96 886,-564.96"/>
<text text-anchor="start" x="787" y="-552.96" font-family="Helvetica,sans-Serif" font-size="10.00">L4virtio::Virtqueue</text>
<text text-anchor="middle" x="832.5" y="-541.96" font-family="Helvetica,sans-Serif" font-size="10.00">::avail_size</text>
</a>
</g>
</g>
<!-- Node1&#45;&gt;Node2 -->
<g id="edge1_Node000001_Node000002" class="edge">
<title>Node1&#45;&gt;Node2</title>
<g id="a_edge1_Node000001_Node000002"><a xlink:title=" ">
<path fill="none" stroke="#63b8ff" d="M969.02,-514.12C943.81,-520.78 912.44,-529.08 886.24,-536.01"/>
<polygon fill="#63b8ff" stroke="#63b8ff" points="969.93,-517.49 978.71,-511.55 968.14,-510.73 969.93,-517.49"/>
</a>
</g>
</g>
<!-- Node5 -->
<g id="Node000005" class="node">
<title>Node5</title>
<g id="a_Node000005"><a xlink:href="classL4virtio_1_1Virtqueue.html#a437c0ed2eb83201cc69c41d011503036" target="_top" xlink:title="Enable this queue.">
<polygon fill="white" stroke="#666666" points="698,-610.96 591,-610.96 591,-580.96 698,-580.96 698,-610.96"/>
<text text-anchor="start" x="599" y="-598.96" font-family="Helvetica,sans-Serif" font-size="10.00">L4virtio::Virtqueue</text>
<text text-anchor="middle" x="644.5" y="-587.96" font-family="Helvetica,sans-Serif" font-size="10.00">::setup_simple</text>
</a>
</g>
</g>
<!-- Node1&#45;&gt;Node5 -->
<g id="edge26_Node000001_Node000005" class="edge">
<title>Node1&#45;&gt;Node5</title>
<g id="a_edge26_Node000001_Node000005"><a xlink:title=" ">
<path fill="none" stroke="#63b8ff" d="M997.81,-518.54C978.78,-535.76 946.37,-561.84 913,-573.96 841.83,-599.8 753.23,-601.7 698,-599.64"/>
<polygon fill="#63b8ff" stroke="#63b8ff" points="1000.39,-520.92 1005.34,-511.55 995.63,-515.79 1000.39,-520.92"/>
</a>
</g>
</g>
<!-- Node6 -->
<g id="Node000006" class="node">
<title>Node6</title>
<g id="a_Node000006"><a xlink:href="classL4virtio_1_1Driver_1_1Virtqueue.html#a285bae271e6acfe9c5bfa3df388c6b17" target="_top" xlink:title="Initialize this virtqueue.">
<polygon fill="white" stroke="#666666" points="532.5,-736.96 389.5,-736.96 389.5,-706.96 532.5,-706.96 532.5,-736.96"/>
<text text-anchor="start" x="397.5" y="-724.96" font-family="Helvetica,sans-Serif" font-size="10.00">L4virtio::Driver::Virtqueue</text>
<text text-anchor="middle" x="461" y="-713.96" font-family="Helvetica,sans-Serif" font-size="10.00">::init_queue</text>
</a>
</g>
</g>
<!-- Node1&#45;&gt;Node6 -->
<g id="edge13_Node000001_Node000006" class="edge">
<title>Node1&#45;&gt;Node6</title>
<g id="a_edge13_Node000001_Node000006"><a xlink:title=" ">
<path fill="none" stroke="#63b8ff" d="M1013.74,-521.55C1009.47,-569.76 991.01,-694.01 913,-745.96 781.98,-833.19 579.11,-768.85 497.64,-737.02"/>
<polygon fill="#63b8ff" stroke="#63b8ff" points="1017.24,-521.73 1014.52,-511.49 1010.26,-521.19 1017.24,-521.73"/>
</a>
</g>
</g>
<!-- Node7 -->
<g id="Node000007" class="node">
<title>Node7</title>
<g id="a_Node000007"><a xlink:href="classL4virtio_1_1Virtqueue.html#a6f8cdc52ebe6322c3023e05e0e055293" target="_top" xlink:title="Calculate the total size for a virtqueue of the given dimensions.">
<polygon fill="white" stroke="#666666" points="698,-514.96 591,-514.96 591,-484.96 698,-484.96 698,-514.96"/>
<text text-anchor="start" x="599" y="-502.96" font-family="Helvetica,sans-Serif" font-size="10.00">L4virtio::Virtqueue</text>
<text text-anchor="middle" x="644.5" y="-491.96" font-family="Helvetica,sans-Serif" font-size="10.00">::total_size</text>
</a>
</g>
</g>
<!-- Node1&#45;&gt;Node7 -->
<g id="edge46_Node000001_Node000007" class="edge">
<title>Node1&#45;&gt;Node7</title>
<g id="a_edge46_Node000001_Node000007"><a xlink:title=" ">
<path fill="none" stroke="#63b8ff" d="M1005.82,-483.18C990.87,-455.01 958.31,-402.91 913,-381.96 848.05,-351.92 817.39,-352.89 752,-381.96 704.09,-403.25 668.63,-457.94 653.53,-484.72"/>
<polygon fill="#63b8ff" stroke="#63b8ff" points="1002.86,-485.06 1010.53,-492.37 1009.09,-481.87 1002.86,-485.06"/>
</a>
</g>
</g>
<!-- Node10 -->
<g id="Node000010" class="node">
<title>Node10</title>
<g id="a_Node000010"><a xlink:href="classL4virtio_1_1Virtqueue.html#a19410c09db5499023cb4b9f11742cd26" target="_top" xlink:title="Calculate the size of the descriptor table for num entries.">
<polygon fill="white" stroke="#666666" points="886,-516.96 779,-516.96 779,-486.96 886,-486.96 886,-516.96"/>
<text text-anchor="start" x="787" y="-504.96" font-family="Helvetica,sans-Serif" font-size="10.00">L4virtio::Virtqueue</text>
<text text-anchor="middle" x="832.5" y="-493.96" font-family="Helvetica,sans-Serif" font-size="10.00">::desc_size</text>
</a>
</g>
</g>
<!-- Node1&#45;&gt;Node10 -->
<g id="edge9_Node000001_Node000010" class="edge">
<title>Node1&#45;&gt;Node10</title>
<g id="a_edge9_Node000001_Node000010"><a xlink:title=" ">
<path fill="none" stroke="#63b8ff" d="M938.66,-501.96C920.97,-501.96 902.53,-501.96 886.13,-501.96"/>
<polygon fill="#63b8ff" stroke="#63b8ff" points="938.96,-505.46 948.96,-501.96 938.96,-498.46 938.96,-505.46"/>
</a>
</g>
</g>
<!-- Node11 -->
<g id="Node000011" class="node">
<title>Node11</title>
<g id="a_Node000011"><a xlink:href="classL4virtio_1_1Driver_1_1Virtqueue.html#a8b7ef703e8e55d889419f43dc28dd40e" target="_top" xlink:title="Initialize this virtqueue.">
<polygon fill="white" stroke="#666666" points="716,-658.96 573,-658.96 573,-628.96 716,-628.96 716,-658.96"/>
<text text-anchor="start" x="581" y="-646.96" font-family="Helvetica,sans-Serif" font-size="10.00">L4virtio::Driver::Virtqueue</text>
<text text-anchor="middle" x="644.5" y="-635.96" font-family="Helvetica,sans-Serif" font-size="10.00">::init_queue</text>
</a>
</g>
</g>
<!-- Node1&#45;&gt;Node11 -->
<g id="edge14_Node000001_Node000011" class="edge">
<title>Node1&#45;&gt;Node11</title>
<g id="a_edge14_Node000001_Node000011"><a xlink:title=" ">
<path fill="none" stroke="#63b8ff" d="M1009.24,-521.45C997.66,-556.69 967.83,-630.09 913,-659.96 840.89,-699.24 741.06,-676.75 686.01,-658.99"/>
<polygon fill="#63b8ff" stroke="#63b8ff" points="1012.61,-522.42 1012.26,-511.83 1005.93,-520.33 1012.61,-522.42"/>
</a>
</g>
</g>
<!-- Node12 -->
<g id="Node000012" class="node">
<title>Node12</title>
<g id="a_Node000012"><a xlink:href="classL4virtio_1_1Driver_1_1Virtqueue.html#ac31099e5abf48745f518aed17b1dee54" target="_top" xlink:title="Initialize the descriptor table and the index structures of this queue.">
<polygon fill="white" stroke="#666666" points="904,-736.96 761,-736.96 761,-706.96 904,-706.96 904,-736.96"/>
<text text-anchor="start" x="769" y="-724.96" font-family="Helvetica,sans-Serif" font-size="10.00">L4virtio::Driver::Virtqueue</text>
<text text-anchor="middle" x="832.5" y="-713.96" font-family="Helvetica,sans-Serif" font-size="10.00">::initialize_rings</text>
</a>
</g>
</g>
<!-- Node1&#45;&gt;Node12 -->
<g id="edge17_Node000001_Node000012" class="edge">
<title>Node1&#45;&gt;Node12</title>
<g id="a_edge17_Node000001_Node000012"><a xlink:title=" ">
<path fill="none" stroke="#63b8ff" d="M1009.62,-521.81C998.21,-560.23 968.03,-645.17 913,-692.96 906.57,-698.54 898.97,-703.09 891.06,-706.77"/>
<polygon fill="#63b8ff" stroke="#63b8ff" points="1013.07,-522.45 1012.45,-511.87 1006.34,-520.52 1013.07,-522.45"/>
</a>
</g>
</g>
<!-- Node13 -->
<g id="Node000013" class="node">
<title>Node13</title>
<g id="a_Node000013"><a xlink:href="classL4virtio_1_1Driver_1_1Block__device.html#a9f1a7a08e90ca6c1441bd48abc8b574a" target="_top" xlink:title="Process and free all items in the used queue.">
<polygon fill="white" stroke="#666666" points="913,-468.96 752,-468.96 752,-438.96 913,-438.96 913,-468.96"/>
<text text-anchor="start" x="760" y="-456.96" font-family="Helvetica,sans-Serif" font-size="10.00">L4virtio::Driver::Block</text>
<text text-anchor="middle" x="832.5" y="-445.96" font-family="Helvetica,sans-Serif" font-size="10.00">_device::process_used_queue</text>
</a>
</g>
</g>
<!-- Node1&#45;&gt;Node13 -->
<g id="edge20_Node000001_Node000013" class="edge">
<title>Node1&#45;&gt;Node13</title>
<g id="a_edge20_Node000001_Node000013"><a xlink:title=" ">
<path fill="none" stroke="#63b8ff" d="M968.85,-489.75C945.01,-483.45 915.7,-475.69 890.46,-469.02"/>
<polygon fill="#63b8ff" stroke="#63b8ff" points="968.14,-493.18 978.71,-492.36 969.93,-486.42 968.14,-493.18"/>
</a>
</g>
</g>
<!-- Node14 -->
<g id="Node000014" class="node">
<title>Node14</title>
<g id="a_Node000014"><a xlink:href="classL4virtio_1_1Driver_1_1Virtio__net__device.html#a3ef04dbc8a5be208aa4e3ec749f63721" target="_top" xlink:title="Return a reference to the RX packet buffer of the specified descriptor, e.g.">
<polygon fill="white" stroke="#666666" points="893.5,-420.96 771.5,-420.96 771.5,-390.96 893.5,-390.96 893.5,-420.96"/>
<text text-anchor="start" x="779.5" y="-408.96" font-family="Helvetica,sans-Serif" font-size="10.00">L4virtio::Driver::Virtio</text>
<text text-anchor="middle" x="832.5" y="-397.96" font-family="Helvetica,sans-Serif" font-size="10.00">_net_device::rx_pkt</text>
</a>
</g>
</g>
<!-- Node1&#45;&gt;Node14 -->
<g id="edge21_Node000001_Node000014" class="edge">
<title>Node1&#45;&gt;Node14</title>
<g id="a_edge21_Node000001_Node000014"><a xlink:title=" ">
<path fill="none" stroke="#63b8ff" d="M995.98,-485.68C976.33,-469.57 944.22,-445.19 913,-429.96 906.13,-426.61 898.7,-423.61 891.23,-420.98"/>
<polygon fill="#63b8ff" stroke="#63b8ff" points="993.92,-488.51 1003.84,-492.22 998.4,-483.13 993.92,-488.51"/>
</a>
</g>
</g>
<!-- Node15 -->
<g id="Node000015" class="node">
<title>Node15</title>
<g id="a_Node000015"><a xlink:href="classL4virtio_1_1Virtqueue.html#a109ea5677dd074df1d2c6a06056c7d82" target="_top" xlink:title="Enable this queue.">
<polygon fill="white" stroke="#666666" points="886,-650.96 779,-650.96 779,-620.96 886,-620.96 886,-650.96"/>
<text text-anchor="start" x="787" y="-638.96" font-family="Helvetica,sans-Serif" font-size="10.00">L4virtio::Virtqueue</text>
<text text-anchor="middle" x="832.5" y="-627.96" font-family="Helvetica,sans-Serif" font-size="10.00">::setup</text>
</a>
</g>
</g>
<!-- Node1&#45;&gt;Node15 -->
<g id="edge22_Node000001_Node000015" class="edge">
<title>Node1&#45;&gt;Node15</title>
<g id="a_edge22_Node000001_Node000015"><a xlink:title=" ">
<path fill="none" stroke="#63b8ff" d="M1001.98,-519.66C984.21,-542.68 950.28,-582.8 913,-606.96 904.62,-612.39 895.08,-616.98 885.59,-620.8"/>
<polygon fill="#63b8ff" stroke="#63b8ff" points="1004.93,-521.56 1008.17,-511.47 999.34,-517.33 1004.93,-521.56"/>
</a>
</g>
</g>
<!-- Node16 -->
<g id="Node000016" class="node">
<title>Node16</title>
<g id="a_Node000016"><a xlink:href="classL4virtio_1_1Svr_1_1Request__processor.html#abcf6a6b8bf80e0d73d45b5eb9e817abd" target="_top" xlink:title="Start processing a new request.">
<polygon fill="white" stroke="#666666" points="893,-184.96 772,-184.96 772,-154.96 893,-154.96 893,-184.96"/>
<text text-anchor="start" x="780" y="-172.96" font-family="Helvetica,sans-Serif" font-size="10.00">L4virtio::Svr::Request</text>
<text text-anchor="middle" x="832.5" y="-161.96" font-family="Helvetica,sans-Serif" font-size="10.00">_processor::start</text>
</a>
</g>
</g>
<!-- Node1&#45;&gt;Node16 -->
<g id="edge27_Node000001_Node000016" class="edge">
<title>Node1&#45;&gt;Node16</title>
<g id="a_edge27_Node000001_Node000016"><a xlink:title=" ">
<path fill="none" stroke="#63b8ff" d="M1008.98,-482.58C995.46,-440.61 960.16,-338.97 913,-262.96 894.41,-232.99 866.5,-202.79 849.18,-185.25"/>
<polygon fill="#63b8ff" stroke="#63b8ff" points="1005.71,-483.86 1012.07,-492.34 1012.38,-481.75 1005.71,-483.86"/>
</a>
</g>
</g>
<!-- Node31 -->
<g id="Node000031" class="node">
<title>Node31</title>
<g id="a_Node000031"><a xlink:href="classL4virtio_1_1Virtqueue.html#a96dfd139f3a022e9e2328e28716acdc9" target="_top" xlink:title="Calculate the total size of this virtqueue.">
<polygon fill="white" stroke="#666666" points="698,-334.96 591,-334.96 591,-304.96 698,-304.96 698,-334.96"/>
<text text-anchor="start" x="599" y="-322.96" font-family="Helvetica,sans-Serif" font-size="10.00">L4virtio::Virtqueue</text>
<text text-anchor="middle" x="644.5" y="-311.96" font-family="Helvetica,sans-Serif" font-size="10.00">::total_size</text>
</a>
</g>
</g>
<!-- Node1&#45;&gt;Node31 -->
<g id="edge45_Node000001_Node000031" class="edge">
<title>Node1&#45;&gt;Node31</title>
<g id="a_edge45_Node000001_Node000031"><a xlink:title=" ">
<path fill="none" stroke="#63b8ff" d="M1012.14,-482.22C1004.73,-439.29 980.54,-337.88 913,-295.96 852.2,-258.22 823.12,-288.04 752,-295.96 734.29,-297.93 715.23,-301.69 698.2,-305.65"/>
<polygon fill="#63b8ff" stroke="#63b8ff" points="1008.71,-482.93 1013.74,-492.25 1015.62,-481.82 1008.71,-482.93"/>
</a>
</g>
</g>
<!-- Node32 -->
<g id="Node000032" class="node">
<title>Node32</title>
<g id="a_Node000032"><a xlink:href="classL4virtio_1_1Virtqueue.html#a7747ac81d7fd21e1e55e43c2e7ead2ea" target="_top" xlink:title="Calculate the size of the used ring for num entries.">
<polygon fill="white" stroke="#666666" points="886,-334.96 779,-334.96 779,-304.96 886,-304.96 886,-334.96"/>
<text text-anchor="start" x="787" y="-322.96" font-family="Helvetica,sans-Serif" font-size="10.00">L4virtio::Virtqueue</text>
<text text-anchor="middle" x="832.5" y="-311.96" font-family="Helvetica,sans-Serif" font-size="10.00">::used_size</text>
</a>
</g>
</g>
<!-- Node1&#45;&gt;Node32 -->
<g id="edge47_Node000001_Node000032" class="edge">
<title>Node1&#45;&gt;Node32</title>
<g id="a_edge47_Node000001_Node000032"><a xlink:title=" ">
<path fill="none" stroke="#63b8ff" d="M1006.96,-482.58C992.68,-450.4 959.9,-385.83 913,-348.96 905.03,-342.69 895.58,-337.7 886.03,-333.74"/>
<polygon fill="#63b8ff" stroke="#63b8ff" points="1003.92,-484.37 1011.09,-492.16 1010.35,-481.6 1003.92,-484.37"/>
</a>
</g>
</g>
<!-- Node3 -->
<g id="Node000003" class="node">
<title>Node3</title>
<g id="a_Node000003"><a xlink:href="classL4virtio_1_1Svr_1_1Device__t.html#ab906b4cc61026fd815a8056f07bef10e" target="_top" xlink:title="Enable/disable the specified queue.">
<polygon fill="white" stroke="#666666" points="702,-562.96 587,-562.96 587,-532.96 702,-532.96 702,-562.96"/>
<text text-anchor="start" x="595" y="-550.96" font-family="Helvetica,sans-Serif" font-size="10.00">L4virtio::Svr::Device</text>
<text text-anchor="middle" x="644.5" y="-539.96" font-family="Helvetica,sans-Serif" font-size="10.00">_t::setup_queue</text>
</a>
</g>
</g>
<!-- Node2&#45;&gt;Node3 -->
<g id="edge2_Node000002_Node000003" class="edge">
<title>Node2&#45;&gt;Node3</title>
<g id="a_edge2_Node000002_Node000003"><a xlink:title=" ">
<path fill="none" stroke="#63b8ff" d="M768.65,-549.28C747.07,-549.05 723.06,-548.79 702.01,-548.56"/>
<polygon fill="#63b8ff" stroke="#63b8ff" points="768.66,-552.78 778.7,-549.39 768.74,-545.78 768.66,-552.78"/>
</a>
</g>
</g>
<!-- Node2&#45;&gt;Node5 -->
<g id="edge4_Node000002_Node000005" class="edge">
<title>Node2&#45;&gt;Node5</title>
<g id="a_edge4_Node000002_Node000005"><a xlink:title=" ">
<path fill="none" stroke="#63b8ff" d="M768.71,-565.48C745.77,-571.16 720.08,-577.51 698.11,-582.94"/>
<polygon fill="#63b8ff" stroke="#63b8ff" points="769.83,-568.81 778.7,-563.01 768.15,-562.02 769.83,-568.81"/>
</a>
</g>
</g>
<!-- Node2&#45;&gt;Node7 -->
<g id="edge6_Node000002_Node000007" class="edge">
<title>Node2&#45;&gt;Node7</title>
<g id="a_edge6_Node000002_Node000007"><a xlink:title=" ">
<path fill="none" stroke="#63b8ff" d="M769.02,-533.16C746,-526.97 720.18,-520.03 698.11,-514.1"/>
<polygon fill="#63b8ff" stroke="#63b8ff" points="768.13,-536.55 778.7,-535.76 769.95,-529.79 768.13,-536.55"/>
</a>
</g>
</g>
<!-- Node4 -->
<g id="Node000004" class="node">
<title>Node4</title>
<g id="a_Node000004"><a xlink:href="classL4virtio_1_1Svr_1_1Console_1_1Virtio__con.html#a907c7c33a513325d49c3214f94b2f600" target="_top" xlink:title="callback for client queue&#45;config request">
<polygon fill="white" stroke="#666666" points="537,-562.96 385,-562.96 385,-532.96 537,-532.96 537,-562.96"/>
<text text-anchor="start" x="393" y="-550.96" font-family="Helvetica,sans-Serif" font-size="10.00">L4virtio::Svr::Console</text>
<text text-anchor="middle" x="461" y="-539.96" font-family="Helvetica,sans-Serif" font-size="10.00">::Virtio_con::reconfig_queue</text>
</a>
</g>
</g>
<!-- Node3&#45;&gt;Node4 -->
<g id="edge3_Node000003_Node000004" class="edge">
<title>Node3&#45;&gt;Node4</title>
<g id="a_edge3_Node000003_Node000004"><a xlink:title=" ">
<path fill="none" stroke="#63b8ff" d="M576.45,-547.96C563.62,-547.96 550.11,-547.96 537.04,-547.96"/>
<polygon fill="#63b8ff" stroke="#63b8ff" points="576.57,-551.46 586.57,-547.96 576.57,-544.46 576.57,-551.46"/>
</a>
</g>
</g>
<!-- Node5&#45;&gt;Node6 -->
<g id="edge5_Node000005_Node000006" class="edge">
<title>Node5&#45;&gt;Node6</title>
<g id="a_edge5_Node000005_Node000006"><a xlink:title=" ">
<path fill="none" stroke="#63b8ff" d="M581.9,-614.33C578.8,-616.05 575.81,-617.92 573,-619.96 551.42,-635.62 556.04,-649.28 537,-667.96 521.76,-682.9 502.12,-696.89 486.75,-706.88"/>
<polygon fill="#63b8ff" stroke="#63b8ff" points="583.5,-617.44 590.91,-609.87 580.4,-611.17 583.5,-617.44"/>
</a>
</g>
</g>
<!-- Node8 -->
<g id="Node000008" class="node">
<title>Node8</title>
<g id="a_Node000008"><a xlink:href="classL4virtio_1_1Driver_1_1Virtio__net__device.html#aa5d34e5156db18773cf46c2d06a2aa3a" target="_top" xlink:title="Establish a connection to the device and set up shared memory.">
<polygon fill="white" stroke="#666666" points="534,-658.96 388,-658.96 388,-628.96 534,-628.96 534,-658.96"/>
<text text-anchor="start" x="396" y="-646.96" font-family="Helvetica,sans-Serif" font-size="10.00">L4virtio::Driver::Virtio</text>
<text text-anchor="middle" x="461" y="-635.96" font-family="Helvetica,sans-Serif" font-size="10.00">_net_device::setup_device</text>
</a>
</g>
</g>
<!-- Node7&#45;&gt;Node8 -->
<g id="edge7_Node000007_Node000008" class="edge">
<title>Node7&#45;&gt;Node8</title>
<g id="a_edge7_Node000007_Node000008"><a xlink:title=" ">
<path fill="none" stroke="#63b8ff" d="M581.93,-516.9C578.72,-518.98 575.71,-521.33 573,-523.96 540.29,-555.68 570,-588.53 537,-619.96 533.44,-623.35 529.39,-626.26 525.07,-628.77"/>
<polygon fill="#63b8ff" stroke="#63b8ff" points="583.77,-519.88 590.81,-511.95 580.37,-513.76 583.77,-519.88"/>
</a>
</g>
</g>
<!-- Node9 -->
<g id="Node000009" class="node">
<title>Node9</title>
<g id="a_Node000009"><a xlink:href="classL4virtio_1_1Driver_1_1Block__device.html#af509c2785789dd2daf6b13f3369c6581" target="_top" xlink:title="Establish a connection to the device and set up shared memory.">
<polygon fill="white" stroke="#666666" points="523.5,-610.96 398.5,-610.96 398.5,-580.96 523.5,-580.96 523.5,-610.96"/>
<text text-anchor="start" x="406.5" y="-598.96" font-family="Helvetica,sans-Serif" font-size="10.00">L4virtio::Driver::Block</text>
<text text-anchor="middle" x="461" y="-587.96" font-family="Helvetica,sans-Serif" font-size="10.00">_device::setup_device</text>
</a>
</g>
</g>
<!-- Node7&#45;&gt;Node9 -->
<g id="edge8_Node000007_Node000009" class="edge">
<title>Node7&#45;&gt;Node9</title>
<g id="a_edge8_Node000007_Node000009"><a xlink:title=" ">
<path fill="none" stroke="#63b8ff" d="M581.9,-518.33C578.8,-520.05 575.81,-521.92 573,-523.96 551.42,-539.62 558.73,-556.49 537,-571.96 532.21,-575.36 526.91,-578.31 521.42,-580.84"/>
<polygon fill="#63b8ff" stroke="#63b8ff" points="583.5,-521.44 590.91,-513.87 580.4,-515.17 583.5,-521.44"/>
</a>
</g>
</g>
<!-- Node10&#45;&gt;Node3 -->
<g id="edge10_Node000010_Node000003" class="edge">
<title>Node10&#45;&gt;Node3</title>
<g id="a_edge10_Node000010_Node000003"><a xlink:title=" ">
<path fill="none" stroke="#63b8ff" d="M768.94,-517.43C747.29,-522.78 723.15,-528.75 702.01,-533.98"/>
<polygon fill="#63b8ff" stroke="#63b8ff" points="769.83,-520.81 778.7,-515.01 768.15,-514.02 769.83,-520.81"/>
</a>
</g>
</g>
<!-- Node10&#45;&gt;Node5 -->
<g id="edge11_Node000010_Node000005" class="edge">
<title>Node10&#45;&gt;Node5</title>
<g id="a_edge11_Node000010_Node000005"><a xlink:title=" ">
<path fill="none" stroke="#63b8ff" d="M769.27,-516.59C763.18,-519.23 757.31,-522.32 752,-525.96 730.57,-540.61 737.17,-556.93 716,-571.96 710.52,-575.85 704.35,-579.15 698.01,-581.94"/>
<polygon fill="#63b8ff" stroke="#63b8ff" points="770.89,-519.71 778.94,-512.82 768.35,-513.19 770.89,-519.71"/>
</a>
</g>
</g>
<!-- Node10&#45;&gt;Node7 -->
<g id="edge12_Node000010_Node000007" class="edge">
<title>Node10&#45;&gt;Node7</title>
<g id="a_edge12_Node000010_Node000007"><a xlink:title=" ">
<path fill="none" stroke="#63b8ff" d="M768.41,-501.28C745.54,-501.03 719.98,-500.76 698.11,-500.52"/>
<polygon fill="#63b8ff" stroke="#63b8ff" points="768.66,-504.78 778.7,-501.39 768.74,-497.78 768.66,-504.78"/>
</a>
</g>
</g>
<!-- Node11&#45;&gt;Node8 -->
<g id="edge15_Node000011_Node000008" class="edge">
<title>Node11&#45;&gt;Node8</title>
<g id="a_edge15_Node000011_Node000008"><a xlink:title=" ">
<path fill="none" stroke="#63b8ff" d="M562.64,-643.96C553.2,-643.96 543.61,-643.96 534.29,-643.96"/>
<polygon fill="#63b8ff" stroke="#63b8ff" points="562.81,-647.46 572.81,-643.96 562.81,-640.46 562.81,-647.46"/>
</a>
</g>
</g>
<!-- Node11&#45;&gt;Node9 -->
<g id="edge16_Node000011_Node000009" class="edge">
<title>Node11&#45;&gt;Node9</title>
<g id="a_edge16_Node000011_Node000009"><a xlink:title=" ">
<path fill="none" stroke="#63b8ff" d="M576.76,-626.31C557.71,-621.27 537.13,-615.82 518.73,-610.96"/>
<polygon fill="#63b8ff" stroke="#63b8ff" points="576.01,-629.73 586.57,-628.9 577.8,-622.96 576.01,-629.73"/>
</a>
</g>
</g>
<!-- Node12&#45;&gt;Node6 -->
<g id="edge18_Node000012_Node000006" class="edge">
<title>Node12&#45;&gt;Node6</title>
<g id="a_edge18_Node000012_Node000006"><a xlink:title=" ">
<path fill="none" stroke="#63b8ff" d="M750.47,-721.96C685.33,-721.96 594.75,-721.96 532.57,-721.96"/>
<polygon fill="#63b8ff" stroke="#63b8ff" points="750.69,-725.46 760.69,-721.96 750.69,-718.46 750.69,-725.46"/>
</a>
</g>
</g>
<!-- Node12&#45;&gt;Node11 -->
<g id="edge19_Node000012_Node000011" class="edge">
<title>Node12&#45;&gt;Node11</title>
<g id="a_edge19_Node000012_Node000011"><a xlink:title=" ">
<path fill="none" stroke="#63b8ff" d="M778.74,-703.39C769.77,-700.04 760.58,-696.49 752,-692.96 726.22,-682.34 697.53,-669.06 676.43,-659"/>
<polygon fill="#63b8ff" stroke="#63b8ff" points="777.75,-706.76 788.34,-706.94 780.17,-700.19 777.75,-706.76"/>
</a>
</g>
</g>
<!-- Node15&#45;&gt;Node3 -->
<g id="edge24_Node000015_Node000003" class="edge">
<title>Node15&#45;&gt;Node3</title>
<g id="a_edge24_Node000015_Node000003"><a xlink:title=" ">
<path fill="none" stroke="#63b8ff" d="M798.5,-615.6C775.82,-602.14 744.74,-584.69 716,-571.96 708.79,-568.76 701.01,-565.73 693.35,-562.96"/>
<polygon fill="#63b8ff" stroke="#63b8ff" points="796.99,-618.78 807.36,-620.92 800.59,-612.78 796.99,-618.78"/>
</a>
</g>
</g>
<!-- Node15&#45;&gt;Node5 -->
<g id="edge25_Node000015_Node000005" class="edge">
<title>Node15&#45;&gt;Node5</title>
<g id="a_edge25_Node000015_Node000005"><a xlink:title=" ">
<path fill="none" stroke="#63b8ff" d="M768.71,-622.45C745.77,-617.52 720.08,-611.99 698.11,-607.27"/>
<polygon fill="#63b8ff" stroke="#63b8ff" points="768.19,-625.92 778.7,-624.6 769.66,-619.08 768.19,-625.92"/>
</a>
</g>
</g>
<!-- Node15&#45;&gt;Node11 -->
<g id="edge23_Node000015_Node000011" class="edge">
<title>Node15&#45;&gt;Node11</title>
<g id="a_edge23_Node000015_Node000011"><a xlink:title=" ">
<path fill="none" stroke="#63b8ff" d="M768.44,-638.67C751.62,-639.39 733.35,-640.18 716.15,-640.92"/>
<polygon fill="#63b8ff" stroke="#63b8ff" points="768.86,-642.15 778.7,-638.23 768.56,-635.16 768.86,-642.15"/>
</a>
</g>
</g>
<!-- Node17 -->
<g id="Node000017" class="node">
<title>Node17</title>
<g id="a_Node000017"><a xlink:href="classL4virtio_1_1Svr_1_1Block__request.html#a5f6bf664cda7dfe4f82d8726f6c33099" target="_top" xlink:title="Compute the total size of the data in the request.">
<polygon fill="white" stroke="#666666" points="700,-238.96 589,-238.96 589,-208.96 700,-208.96 700,-238.96"/>
<text text-anchor="start" x="597" y="-226.96" font-family="Helvetica,sans-Serif" font-size="10.00">L4virtio::Svr::Block</text>
<text text-anchor="middle" x="644.5" y="-215.96" font-family="Helvetica,sans-Serif" font-size="10.00">_request::data_size</text>
</a>
</g>
</g>
<!-- Node16&#45;&gt;Node17 -->
<g id="edge28_Node000016_Node000017" class="edge">
<title>Node16&#45;&gt;Node17</title>
<g id="a_edge28_Node000016_Node000017"><a xlink:title=" ">
<path fill="none" stroke="#63b8ff" d="M769.83,-187.86C746.34,-194.68 719.84,-202.37 697.36,-208.9"/>
<polygon fill="#63b8ff" stroke="#63b8ff" points="771.06,-191.15 779.69,-185 769.11,-184.42 771.06,-191.15"/>
</a>
</g>
</g>
<!-- Node18 -->
<g id="Node000018" class="node">
<title>Node18</title>
<g id="a_Node000018"><a xlink:href="classL4virtio_1_1Svr_1_1Console_1_1Virtio__con.html#ab3766f6b0a63966a6063ae540bb844a1" target="_top" xlink:title="Handle control message received from the driver.">
<polygon fill="white" stroke="#666666" points="338.5,-45.46 189.5,-45.46 189.5,-4.46 338.5,-4.46 338.5,-45.46"/>
<text text-anchor="start" x="197.5" y="-33.46" font-family="Helvetica,sans-Serif" font-size="10.00">L4virtio::Svr::Console</text>
<text text-anchor="start" x="197.5" y="-22.46" font-family="Helvetica,sans-Serif" font-size="10.00">::Virtio_con::handle_control</text>
<text text-anchor="middle" x="264" y="-11.46" font-family="Helvetica,sans-Serif" font-size="10.00">_message</text>
</a>
</g>
</g>
<!-- Node16&#45;&gt;Node18 -->
<g id="edge29_Node000016_Node000018" class="edge">
<title>Node16&#45;&gt;Node18</title>
<g id="a_edge29_Node000016_Node000018"><a xlink:title=" ">
<path fill="none" stroke="#63b8ff" d="M817.95,-146.16C799.35,-116.12 762.82,-65.74 716,-43.96 593.43,13.07 431.27,1.87 338.52,-11.5"/>
<polygon fill="#63b8ff" stroke="#63b8ff" points="814.98,-148.01 823.14,-154.77 820.98,-144.4 814.98,-148.01"/>
</a>
</g>
</g>
<!-- Node20 -->
<g id="Node000020" class="node">
<title>Node20</title>
<g id="a_Node000020"><a xlink:href="classL4virtio_1_1Svr_1_1Console_1_1Device.html#acf4b1bbf927d4d40b2532a7a18bf21bd" target="_top" xlink:title="Read data from port.">
<polygon fill="white" stroke="#666666" points="704.5,-130.96 584.5,-130.96 584.5,-100.96 704.5,-100.96 704.5,-130.96"/>
<text text-anchor="start" x="592.5" y="-118.96" font-family="Helvetica,sans-Serif" font-size="10.00">L4virtio::Svr::Console</text>
<text text-anchor="middle" x="644.5" y="-107.96" font-family="Helvetica,sans-Serif" font-size="10.00">::Device::port_read</text>
</a>
</g>
</g>
<!-- Node16&#45;&gt;Node20 -->
<g id="edge31_Node000016_Node000020" class="edge">
<title>Node16&#45;&gt;Node20</title>
<g id="a_edge31_Node000016_Node000020"><a xlink:title=" ">
<path fill="none" stroke="#63b8ff" d="M769.83,-152.05C746.34,-145.23 719.84,-137.54 697.36,-131.01"/>
<polygon fill="#63b8ff" stroke="#63b8ff" points="769.11,-155.49 779.69,-154.91 771.06,-148.76 769.11,-155.49"/>
</a>
</g>
</g>
<!-- Node21 -->
<g id="Node000021" class="node">
<title>Node21</title>
<g id="a_Node000021"><a xlink:href="classL4virtio_1_1Svr_1_1Console_1_1Device.html#a5b906c9cec86e9cf30dff4fe1edf1b11" target="_top" xlink:title="Write data to port.">
<polygon fill="white" stroke="#666666" points="704.5,-82.96 584.5,-82.96 584.5,-52.96 704.5,-52.96 704.5,-82.96"/>
<text text-anchor="start" x="592.5" y="-70.96" font-family="Helvetica,sans-Serif" font-size="10.00">L4virtio::Svr::Console</text>
<text text-anchor="middle" x="644.5" y="-59.96" font-family="Helvetica,sans-Serif" font-size="10.00">::Device::port_write</text>
</a>
</g>
</g>
<!-- Node16&#45;&gt;Node21 -->
<g id="edge32_Node000016_Node000021" class="edge">
<title>Node16&#45;&gt;Node21</title>
<g id="a_edge32_Node000016_Node000021"><a xlink:title=" ">
<path fill="none" stroke="#63b8ff" d="M804.34,-148.56C781.7,-131.49 748.09,-107.9 716,-91.96 709.4,-88.68 702.24,-85.67 695.11,-82.97"/>
<polygon fill="#63b8ff" stroke="#63b8ff" points="802.38,-151.46 812.45,-154.75 806.62,-145.9 802.38,-151.46"/>
</a>
</g>
</g>
<!-- Node22 -->
<g id="Node000022" class="node">
<title>Node22</title>
<g id="a_Node000022"><a xlink:href="classL4virtio_1_1Svr_1_1Console_1_1Virtio__con.html#ade546fa843dcfb4a0412757fee9834d7" target="_top" xlink:title="Send control message to driver.">
<polygon fill="white" stroke="#666666" points="714.5,-190.46 574.5,-190.46 574.5,-149.46 714.5,-149.46 714.5,-190.46"/>
<text text-anchor="start" x="582.5" y="-178.46" font-family="Helvetica,sans-Serif" font-size="10.00">L4virtio::Svr::Console</text>
<text text-anchor="start" x="582.5" y="-167.46" font-family="Helvetica,sans-Serif" font-size="10.00">::Virtio_con::send_control</text>
<text text-anchor="middle" x="644.5" y="-156.46" font-family="Helvetica,sans-Serif" font-size="10.00">_message</text>
</a>
</g>
</g>
<!-- Node16&#45;&gt;Node22 -->
<g id="edge33_Node000016_Node000022" class="edge">
<title>Node16&#45;&gt;Node22</title>
<g id="a_edge33_Node000016_Node000022"><a xlink:title=" ">
<path fill="none" stroke="#63b8ff" d="M761.48,-169.96C746.21,-169.96 730.06,-169.96 714.83,-169.96"/>
<polygon fill="#63b8ff" stroke="#63b8ff" points="761.88,-173.46 771.88,-169.96 761.88,-166.46 761.88,-173.46"/>
</a>
</g>
</g>
<!-- Node30 -->
<g id="Node000030" class="node">
<title>Node30</title>
<g id="a_Node000030"><a xlink:href="classL4virtio_1_1Svr_1_1Request__processor.html#a76dec7903350c50fe5ce0b8f7129f9bd" target="_top" xlink:title="Start processing a new request.">
<polygon fill="white" stroke="#666666" points="705,-286.96 584,-286.96 584,-256.96 705,-256.96 705,-286.96"/>
<text text-anchor="start" x="592" y="-274.96" font-family="Helvetica,sans-Serif" font-size="10.00">L4virtio::Svr::Request</text>
<text text-anchor="middle" x="644.5" y="-263.96" font-family="Helvetica,sans-Serif" font-size="10.00">_processor::start</text>
</a>
</g>
</g>
<!-- Node16&#45;&gt;Node30 -->
<g id="edge44_Node000016_Node000030" class="edge">
<title>Node16&#45;&gt;Node30</title>
<g id="a_edge44_Node000016_Node000030"><a xlink:title=" ">
<path fill="none" stroke="#63b8ff" d="M804.34,-191.35C781.7,-208.42 748.09,-232.02 716,-247.96 709.4,-251.23 702.24,-254.24 695.11,-256.94"/>
<polygon fill="#63b8ff" stroke="#63b8ff" points="806.62,-194.01 812.45,-185.16 802.38,-188.45 806.62,-194.01"/>
</a>
</g>
</g>
<!-- Node19 -->
<g id="Node000019" class="node">
<title>Node19</title>
<g id="a_Node000019"><a xlink:href="classL4virtio_1_1Svr_1_1Console_1_1Device.html#a7df13c65e5b01e4bd8140a1c9b6b3858" target="_top" xlink:title="Receive new control messages and resend stalled ones.">
<polygon fill="white" stroke="#666666" points="143,-117.96 0,-117.96 0,-87.96 143,-87.96 143,-117.96"/>
<text text-anchor="start" x="8" y="-105.96" font-family="Helvetica,sans-Serif" font-size="10.00">L4virtio::Svr::Console</text>
<text text-anchor="middle" x="71.5" y="-94.96" font-family="Helvetica,sans-Serif" font-size="10.00">::Device::do_control_work</text>
</a>
</g>
</g>
<!-- Node18&#45;&gt;Node19 -->
<g id="edge30_Node000018_Node000019" class="edge">
<title>Node18&#45;&gt;Node19</title>
<g id="a_edge30_Node000018_Node000019"><a xlink:title=" ">
<path fill="none" stroke="#63b8ff" d="M193.85,-49.15C188.81,-51.07 183.81,-53.02 179,-54.96 153.61,-65.19 125.38,-77.98 104.37,-87.78"/>
<polygon fill="#63b8ff" stroke="#63b8ff" points="195.44,-52.29 203.57,-45.51 192.98,-45.74 195.44,-52.29"/>
</a>
</g>
</g>
<!-- Node23 -->
<g id="Node000023" class="node">
<title>Node23</title>
<g id="a_Node000023"><a xlink:href="classL4virtio_1_1Svr_1_1Console_1_1Virtio__con.html#a88e370a9d1c9e029a8de04f68e380457" target="_top" xlink:title="Send a DEVICE_ADD message and update the internal state.">
<polygon fill="white" stroke="#666666" points="521,-232.96 401,-232.96 401,-202.96 521,-202.96 521,-232.96"/>
<text text-anchor="start" x="409" y="-220.96" font-family="Helvetica,sans-Serif" font-size="10.00">L4virtio::Svr::Console</text>
<text text-anchor="middle" x="461" y="-209.96" font-family="Helvetica,sans-Serif" font-size="10.00">::Virtio_con::port_add</text>
</a>
</g>
</g>
<!-- Node22&#45;&gt;Node23 -->
<g id="edge34_Node000022_Node000023" class="edge">
<title>Node22&#45;&gt;Node23</title>
<g id="a_edge34_Node000022_Node000023"><a xlink:title=" ">
<path fill="none" stroke="#63b8ff" d="M564.38,-190.88C549.06,-194.93 533.29,-199.1 518.85,-202.92"/>
<polygon fill="#63b8ff" stroke="#63b8ff" points="565.59,-194.18 574.36,-188.24 563.8,-187.41 565.59,-194.18"/>
</a>
</g>
</g>
<!-- Node26 -->
<g id="Node000026" class="node">
<title>Node26</title>
<g id="a_Node000026"><a xlink:href="classL4virtio_1_1Svr_1_1Console_1_1Virtio__con.html#a71decef04824571dd001527b9cff8ccb" target="_top" xlink:title="Send a PORT_OPEN message and update the internal state.">
<polygon fill="white" stroke="#666666" points="524,-184.96 398,-184.96 398,-154.96 524,-154.96 524,-184.96"/>
<text text-anchor="start" x="406" y="-172.96" font-family="Helvetica,sans-Serif" font-size="10.00">L4virtio::Svr::Console</text>
<text text-anchor="middle" x="461" y="-161.96" font-family="Helvetica,sans-Serif" font-size="10.00">::Virtio_con::port_open</text>
</a>
</g>
</g>
<!-- Node22&#45;&gt;Node26 -->
<g id="edge38_Node000022_Node000026" class="edge">
<title>Node22&#45;&gt;Node26</title>
<g id="a_edge38_Node000022_Node000026"><a xlink:title=" ">
<path fill="none" stroke="#63b8ff" d="M564.19,-169.96C550.76,-169.96 537,-169.96 524.1,-169.96"/>
<polygon fill="#63b8ff" stroke="#63b8ff" points="564.36,-173.46 574.36,-169.96 564.36,-166.46 564.36,-173.46"/>
</a>
</g>
</g>
<!-- Node28 -->
<g id="Node000028" class="node">
<title>Node28</title>
<g id="a_Node000028"><a xlink:href="classL4virtio_1_1Svr_1_1Console_1_1Virtio__con.html#a8335db1f605263cb6ccf2109b8993944" target="_top" xlink:title="Send a DEVICE_REMOVE message and update the internal state.">
<polygon fill="white" stroke="#666666" points="531,-136.96 391,-136.96 391,-106.96 531,-106.96 531,-136.96"/>
<text text-anchor="start" x="399" y="-124.96" font-family="Helvetica,sans-Serif" font-size="10.00">L4virtio::Svr::Console</text>
<text text-anchor="middle" x="461" y="-113.96" font-family="Helvetica,sans-Serif" font-size="10.00">::Virtio_con::port_remove</text>
</a>
</g>
</g>
<!-- Node22&#45;&gt;Node28 -->
<g id="edge41_Node000022_Node000028" class="edge">
<title>Node22&#45;&gt;Node28</title>
<g id="a_edge41_Node000022_Node000028"><a xlink:title=" ">
<path fill="none" stroke="#63b8ff" d="M564.38,-149.03C549.06,-144.98 533.29,-140.81 518.85,-136.99"/>
<polygon fill="#63b8ff" stroke="#63b8ff" points="563.8,-152.5 574.36,-151.67 565.59,-145.73 563.8,-152.5"/>
</a>
</g>
</g>
<!-- Node24 -->
<g id="Node000024" class="node">
<title>Node24</title>
<g id="a_Node000024"><a xlink:href="classL4virtio_1_1Svr_1_1Console_1_1Device.html#a7a27d977561bcd659d54644f91b3a307" target="_top" xlink:title="Callback called on DEVICE_READY event.">
<polygon fill="white" stroke="#666666" points="349,-249.96 179,-249.96 179,-219.96 349,-219.96 349,-249.96"/>
<text text-anchor="start" x="187" y="-237.96" font-family="Helvetica,sans-Serif" font-size="10.00">L4virtio::Svr::Console</text>
<text text-anchor="middle" x="264" y="-226.96" font-family="Helvetica,sans-Serif" font-size="10.00">::Device::process_device_ready</text>
</a>
</g>
</g>
<!-- Node23&#45;&gt;Node24 -->
<g id="edge35_Node000023_Node000024" class="edge">
<title>Node23&#45;&gt;Node24</title>
<g id="a_edge35_Node000023_Node000024"><a xlink:title=" ">
<path fill="none" stroke="#63b8ff" d="M390.8,-223.99C377.27,-225.17 362.96,-226.42 349.01,-227.63"/>
<polygon fill="#63b8ff" stroke="#63b8ff" points="391.31,-227.46 400.96,-223.1 390.7,-220.48 391.31,-227.46"/>
</a>
</g>
</g>
<!-- Node25 -->
<g id="Node000025" class="node">
<title>Node25</title>
<g id="a_Node000025"><a xlink:href="classL4virtio_1_1Svr_1_1Console_1_1Device.html#a5f8d5752548def0f7db1cbade7918d6a" target="_top" xlink:title="Try to resend a stalled control message and update the port and global state accordingly.">
<polygon fill="white" stroke="#666666" points="331,-201.46 197,-201.46 197,-160.46 331,-160.46 331,-201.46"/>
<text text-anchor="start" x="205" y="-189.46" font-family="Helvetica,sans-Serif" font-size="10.00">L4virtio::Svr::Console</text>
<text text-anchor="start" x="205" y="-178.46" font-family="Helvetica,sans-Serif" font-size="10.00">::Device::resend_stalled</text>
<text text-anchor="middle" x="264" y="-167.46" font-family="Helvetica,sans-Serif" font-size="10.00">_control_messages</text>
</a>
</g>
</g>
<!-- Node23&#45;&gt;Node25 -->
<g id="edge36_Node000023_Node000025" class="edge">
<title>Node23&#45;&gt;Node25</title>
<g id="a_edge36_Node000023_Node000025"><a xlink:title=" ">
<path fill="none" stroke="#63b8ff" d="M390.99,-204.86C371.6,-201.18 350.57,-197.19 331.34,-193.54"/>
<polygon fill="#63b8ff" stroke="#63b8ff" points="390.49,-208.33 400.96,-206.75 391.79,-201.45 390.49,-208.33"/>
</a>
</g>
</g>
<!-- Node25&#45;&gt;Node19 -->
<g id="edge37_Node000025_Node000019" class="edge">
<title>Node25&#45;&gt;Node19</title>
<g id="a_edge37_Node000025_Node000019"><a xlink:title=" ">
<path fill="none" stroke="#63b8ff" d="M193.85,-156.76C188.81,-154.84 183.81,-152.9 179,-150.96 153.61,-140.72 125.38,-127.93 104.37,-118.13"/>
<polygon fill="#63b8ff" stroke="#63b8ff" points="192.98,-160.17 203.57,-160.4 195.44,-153.62 192.98,-160.17"/>
</a>
</g>
</g>
<!-- Node26&#45;&gt;Node25 -->
<g id="edge40_Node000026_Node000025" class="edge">
<title>Node26&#45;&gt;Node25</title>
<g id="a_edge40_Node000026_Node000025"><a xlink:title=" ">
<path fill="none" stroke="#63b8ff" d="M387.61,-174.04C369.07,-175.09 349.22,-176.2 331.02,-177.23"/>
<polygon fill="#63b8ff" stroke="#63b8ff" points="387.98,-177.52 397.76,-173.47 387.58,-170.54 387.98,-177.52"/>
</a>
</g>
</g>
<!-- Node27 -->
<g id="Node000027" class="node">
<title>Node27</title>
<g id="a_Node000027"><a xlink:href="classL4virtio_1_1Svr_1_1Console_1_1Device.html#a718fd3f1885b00a1ac6f0d9d33e4b9f4" target="_top" xlink:title="Callback called on PORT_OPEN event.">
<polygon fill="white" stroke="#666666" points="341,-141.96 187,-141.96 187,-111.96 341,-111.96 341,-141.96"/>
<text text-anchor="start" x="195" y="-129.96" font-family="Helvetica,sans-Serif" font-size="10.00">L4virtio::Svr::Console</text>
<text text-anchor="middle" x="264" y="-118.96" font-family="Helvetica,sans-Serif" font-size="10.00">::Device::process_port_open</text>
</a>
</g>
</g>
<!-- Node26&#45;&gt;Node27 -->
<g id="edge39_Node000026_Node000027" class="edge">
<title>Node26&#45;&gt;Node27</title>
<g id="a_edge39_Node000026_Node000027"><a xlink:title=" ">
<path fill="none" stroke="#63b8ff" d="M387.94,-154.07C369.99,-150.11 350.81,-145.88 333.06,-141.96"/>
<polygon fill="#63b8ff" stroke="#63b8ff" points="387.25,-157.5 397.76,-156.23 388.75,-150.66 387.25,-157.5"/>
</a>
</g>
</g>
<!-- Node28&#45;&gt;Node25 -->
<g id="edge43_Node000028_Node000025" class="edge">
<title>Node28&#45;&gt;Node25</title>
<g id="a_edge43_Node000028_Node000025"><a xlink:title=" ">
<path fill="none" stroke="#63b8ff" d="M400.46,-139.97C378.56,-146.6 353.63,-154.14 331.18,-160.93"/>
<polygon fill="#63b8ff" stroke="#63b8ff" points="401.73,-143.24 410.29,-137 399.7,-136.54 401.73,-143.24"/>
</a>
</g>
</g>
<!-- Node29 -->
<g id="Node000029" class="node">
<title>Node29</title>
<g id="a_Node000029"><a xlink:href="classL4virtio_1_1Svr_1_1Console_1_1Device.html#a7dde9e63b6fb498c87b6c1ed9e60198f" target="_top" xlink:title="Callback called on PORT_READY event.">
<polygon fill="white" stroke="#666666" points="343,-93.96 185,-93.96 185,-63.96 343,-63.96 343,-93.96"/>
<text text-anchor="start" x="193" y="-81.96" font-family="Helvetica,sans-Serif" font-size="10.00">L4virtio::Svr::Console</text>
<text text-anchor="middle" x="264" y="-70.96" font-family="Helvetica,sans-Serif" font-size="10.00">::Device::process_port_ready</text>
</a>
</g>
</g>
<!-- Node28&#45;&gt;Node29 -->
<g id="edge42_Node000028_Node000029" class="edge">
<title>Node28&#45;&gt;Node29</title>
<g id="a_edge42_Node000028_Node000029"><a xlink:title=" ">
<path fill="none" stroke="#63b8ff" d="M381.87,-104.73C365.75,-101.17 348.9,-97.46 333.16,-93.99"/>
<polygon fill="#63b8ff" stroke="#63b8ff" points="381.28,-108.18 391.8,-106.92 382.79,-101.35 381.28,-108.18"/>
</a>
</g>
</g>
<!-- Node32&#45;&gt;Node3 -->
<g id="edge48_Node000032_Node000003" class="edge">
<title>Node32&#45;&gt;Node3</title>
<g id="a_edge48_Node000032_Node000003"><a xlink:title=" ">
<path fill="none" stroke="#63b8ff" d="M795.28,-340.63C779.84,-351.15 762.9,-365.26 752,-381.96 716.41,-436.47 760.16,-476.12 716,-523.96 712.05,-528.23 707.32,-531.74 702.19,-534.63"/>
<polygon fill="#63b8ff" stroke="#63b8ff" points="797.2,-343.55 803.66,-335.15 793.38,-337.69 797.2,-343.55"/>
</a>
</g>
</g>
<!-- Node32&#45;&gt;Node7 -->
<g id="edge50_Node000032_Node000007" class="edge">
<title>Node32&#45;&gt;Node7</title>
<g id="a_edge50_Node000032_Node000007"><a xlink:title=" ">
<path fill="none" stroke="#63b8ff" d="M769.49,-338.26C763.29,-341.33 757.33,-344.88 752,-348.96 702.32,-386.97 666.53,-454.68 652.3,-484.8"/>
<polygon fill="#63b8ff" stroke="#63b8ff" points="771.02,-341.4 778.68,-334.08 768.13,-335.03 771.02,-341.4"/>
</a>
</g>
</g>
<!-- Node32&#45;&gt;Node31 -->
<g id="edge49_Node000032_Node000031" class="edge">
<title>Node32&#45;&gt;Node31</title>
<g id="a_edge49_Node000032_Node000031"><a xlink:title=" ">
<path fill="none" stroke="#63b8ff" d="M768.41,-319.96C745.54,-319.96 719.98,-319.96 698.11,-319.96"/>
<polygon fill="#63b8ff" stroke="#63b8ff" points="768.7,-323.46 778.7,-319.96 768.7,-316.46 768.7,-323.46"/>
</a>
</g>
</g>
</g>
</svg>
