<?xml version="1.0" encoding="UTF-8" standalone="no"?>
<!DOCTYPE svg PUBLIC "-//W3C//DTD SVG 1.1//EN"
 "http://www.w3.org/Graphics/SVG/1.1/DTD/svg11.dtd">
<!-- Generated by graphviz version 2.42.4 (0)
 -->
<!-- Title: L4virtio::Svr::Driver_mem_region_t::Driver_mem_region_t Pages: 1 -->
<svg width="472pt" height="273pt"
 viewBox="0.00 0.00 472.00 272.50" xmlns="http://www.w3.org/2000/svg" xmlns:xlink="http://www.w3.org/1999/xlink">
<g id="graph0" class="graph" transform="scale(1 1) rotate(0) translate(4 268.5)">
<title>L4virtio::Svr::Driver_mem_region_t::Driver_mem_region_t</title>
<!-- Node1 -->
<g id="Node000001" class="node">
<title>Node1</title>
<g id="a_Node000001"><a xlink:title="Make a local memory region for the given driver values.">
<polygon fill="#999999" stroke="#666666" points="128,-152.5 0,-152.5 0,-111.5 128,-111.5 128,-152.5"/>
<text text-anchor="start" x="8" y="-140.5" font-family="Helvetica,sans-Serif" font-size="10.00">L4virtio::Svr::Driver</text>
<text text-anchor="start" x="8" y="-129.5" font-family="Helvetica,sans-Serif" font-size="10.00">_mem_region_t::Driver</text>
<text text-anchor="middle" x="64" y="-118.5" font-family="Helvetica,sans-Serif" font-size="10.00">_mem_region_t</text>
</a>
</g>
</g>
<!-- Node2 -->
<g id="Node000002" class="node">
<title>Node2</title>
<g id="a_Node000002"><a xlink:href="namespaceL4Re.html#a3f17984019f06676a7e3eecb41bbb0bb" target="_top" xlink:title="Generate C++ exception on error.">
<polygon fill="white" stroke="#666666" points="284.5,-264.5 204.5,-264.5 204.5,-245.5 284.5,-245.5 284.5,-264.5"/>
<text text-anchor="middle" x="244.5" y="-252.5" font-family="Helvetica,sans-Serif" font-size="10.00">L4Re::chksys</text>
</a>
</g>
</g>
<!-- Node1&#45;&gt;Node2 -->
<g id="edge1_Node000001_Node000002" class="edge">
<title>Node1&#45;&gt;Node2</title>
<g id="a_edge1_Node000001_Node000002"><a xlink:title=" ">
<path fill="none" stroke="#63b8ff" d="M78.88,-152.59C96.04,-176.39 127.49,-214.98 164,-236 173.23,-241.31 183.87,-245.14 194.32,-247.9"/>
<polygon fill="#63b8ff" stroke="#63b8ff" points="193.67,-251.35 204.21,-250.23 195.28,-244.53 193.67,-251.35"/>
</a>
</g>
</g>
<!-- Node4 -->
<g id="Node000004" class="node">
<title>Node4</title>
<g id="a_Node000004"><a xlink:href="classL4virtio_1_1Svr_1_1Driver__mem__region__t.html#ada86015cfd3d2001b0a40e132558de24" target="_top" xlink:title=" ">
<polygon fill="white" stroke="#666666" points="300,-227 189,-227 189,-197 300,-197 300,-227"/>
<text text-anchor="start" x="197" y="-215" font-family="Helvetica,sans-Serif" font-size="10.00">L4virtio::Svr::Driver</text>
<text text-anchor="middle" x="244.5" y="-204" font-family="Helvetica,sans-Serif" font-size="10.00">_mem_region_t::ds</text>
</a>
</g>
</g>
<!-- Node1&#45;&gt;Node4 -->
<g id="edge3_Node000001_Node000004" class="edge">
<title>Node1&#45;&gt;Node4</title>
<g id="a_edge3_Node000001_Node000004"><a xlink:title=" ">
<path fill="none" stroke="#63b8ff" d="M97.07,-152.55C116.01,-164.06 140.76,-178.06 164,-188 168.77,-190.04 173.76,-191.98 178.83,-193.8"/>
<polygon fill="#63b8ff" stroke="#63b8ff" points="178.02,-197.23 188.62,-197.18 180.3,-190.61 178.02,-197.23"/>
</a>
</g>
</g>
<!-- Node5 -->
<g id="Node000005" class="node">
<title>Node5</title>
<g id="a_Node000005"><a xlink:href="classL4Re_1_1Rm_1_1Unique__region.html#a301d5bd597f8c1e3b98bc52659f13dbe" target="_top" xlink:title="Return the address.">
<polygon fill="white" stroke="#666666" points="325,-178.5 164,-178.5 164,-159.5 325,-159.5 325,-178.5"/>
<text text-anchor="middle" x="244.5" y="-166.5" font-family="Helvetica,sans-Serif" font-size="10.00">L4Re::Rm::Unique_region::get</text>
</a>
</g>
</g>
<!-- Node1&#45;&gt;Node5 -->
<g id="edge4_Node000001_Node000005" class="edge">
<title>Node1&#45;&gt;Node5</title>
<g id="a_edge4_Node000001_Node000005"><a xlink:title=" ">
<path fill="none" stroke="#63b8ff" d="M128.18,-145.1C147.57,-149.11 168.75,-153.51 187.61,-157.41"/>
<polygon fill="#63b8ff" stroke="#63b8ff" points="187.02,-160.87 197.53,-159.47 188.44,-154.01 187.02,-160.87"/>
</a>
</g>
</g>
<!-- Node6 -->
<g id="Node000006" class="node">
<title>Node6</title>
<g id="a_Node000006"><a xlink:href="classL4Re_1_1Dataspace.html#aa67190f2465d092c35c62d432814a8b3" target="_top" xlink:title="Get information on the dataspace.">
<polygon fill="white" stroke="#666666" points="306,-141.5 183,-141.5 183,-122.5 306,-122.5 306,-141.5"/>
<text text-anchor="middle" x="244.5" y="-129.5" font-family="Helvetica,sans-Serif" font-size="10.00">L4Re::Dataspace::info</text>
</a>
</g>
</g>
<!-- Node1&#45;&gt;Node6 -->
<g id="edge5_Node000001_Node000006" class="edge">
<title>Node1&#45;&gt;Node6</title>
<g id="a_edge5_Node000001_Node000006"><a xlink:title=" ">
<path fill="none" stroke="#63b8ff" d="M128.18,-132C142.61,-132 158.03,-132 172.74,-132"/>
<polygon fill="#63b8ff" stroke="#63b8ff" points="172.8,-135.5 182.8,-132 172.8,-128.5 172.8,-135.5"/>
</a>
</g>
</g>
<!-- Node7 -->
<g id="Node000007" class="node">
<title>Node7</title>
<g id="a_Node000007"><a xlink:href="group__l4__memory__api.html#ga96e3b2d8e69308aecbb11d1d24f61662" target="_top" xlink:title="Round address up to the next page.">
<polygon fill="white" stroke="#666666" points="288.5,-104.5 200.5,-104.5 200.5,-85.5 288.5,-85.5 288.5,-104.5"/>
<text text-anchor="middle" x="244.5" y="-92.5" font-family="Helvetica,sans-Serif" font-size="10.00">l4_round_page</text>
</a>
</g>
</g>
<!-- Node1&#45;&gt;Node7 -->
<g id="edge6_Node000001_Node000007" class="edge">
<title>Node1&#45;&gt;Node7</title>
<g id="a_edge6_Node000001_Node000007"><a xlink:title=" ">
<path fill="none" stroke="#63b8ff" d="M128.18,-118.9C148.51,-114.69 170.81,-110.07 190.34,-106.02"/>
<polygon fill="#63b8ff" stroke="#63b8ff" points="191.2,-109.42 200.28,-103.96 189.78,-102.56 191.2,-109.42"/>
</a>
</g>
</g>
<!-- Node8 -->
<g id="Node000008" class="node">
<title>Node8</title>
<g id="a_Node000008"><a xlink:href="namespaceL4_1_1Ipc.html#a2bad64d85342191b358597cd08e55574" target="_top" xlink:title="Make an L4::Ipc::Cap&lt;T&gt; for the given capability and rights.">
<polygon fill="white" stroke="#666666" points="296.5,-67.5 192.5,-67.5 192.5,-48.5 296.5,-48.5 296.5,-67.5"/>
<text text-anchor="middle" x="244.5" y="-55.5" font-family="Helvetica,sans-Serif" font-size="10.00">L4::Ipc::make_cap</text>
</a>
</g>
</g>
<!-- Node1&#45;&gt;Node8 -->
<g id="edge7_Node000001_Node000008" class="edge">
<title>Node1&#45;&gt;Node8</title>
<g id="a_edge7_Node000001_Node000008"><a xlink:title=" ">
<path fill="none" stroke="#63b8ff" d="M96.91,-111.34C115.79,-99.87 140.54,-86.12 164,-77 170.4,-74.51 177.22,-72.29 184.07,-70.31"/>
<polygon fill="#63b8ff" stroke="#63b8ff" points="185.35,-73.59 194.09,-67.6 183.52,-66.83 185.35,-73.59"/>
</a>
</g>
</g>
<!-- Node9 -->
<g id="Node000009" class="node">
<title>Node9</title>
<g id="a_Node000009"><a xlink:href="classL4virtio_1_1Svr_1_1Driver__mem__region__t.html#a6d13ee0514d05868dfc96d64a5d6c8e0" target="_top" xlink:title=" ">
<polygon fill="white" stroke="#666666" points="303.5,-30 185.5,-30 185.5,0 303.5,0 303.5,-30"/>
<text text-anchor="start" x="193.5" y="-18" font-family="Helvetica,sans-Serif" font-size="10.00">L4virtio::Svr::Driver</text>
<text text-anchor="middle" x="244.5" y="-7" font-family="Helvetica,sans-Serif" font-size="10.00">_mem_region_t::size</text>
</a>
</g>
</g>
<!-- Node1&#45;&gt;Node9 -->
<g id="edge8_Node000001_Node000009" class="edge">
<title>Node1&#45;&gt;Node9</title>
<g id="a_edge8_Node000001_Node000009"><a xlink:title=" ">
<path fill="none" stroke="#63b8ff" d="M82.29,-111.24C100.61,-90.48 131.34,-58.99 164,-40 167.83,-37.77 171.89,-35.72 176.05,-33.83"/>
<polygon fill="#63b8ff" stroke="#63b8ff" points="177.44,-37.04 185.32,-29.96 174.74,-30.59 177.44,-37.04"/>
</a>
</g>
</g>
<!-- Node3 -->
<g id="Node000003" class="node">
<title>Node3</title>
<g id="a_Node000003"><a xlink:href="namespaceL4Re.html#ae27ac6f274f4ad1267d0d1c0c033c00b" target="_top" xlink:title="Generate C++ exception.">
<polygon fill="white" stroke="#666666" points="464,-264.5 361,-264.5 361,-245.5 464,-245.5 464,-264.5"/>
<text text-anchor="middle" x="412.5" y="-252.5" font-family="Helvetica,sans-Serif" font-size="10.00">L4Re::throw_error</text>
</a>
</g>
</g>
<!-- Node2&#45;&gt;Node3 -->
<g id="edge2_Node000002_Node000003" class="edge">
<title>Node2&#45;&gt;Node3</title>
<g id="a_edge2_Node000002_Node000003"><a xlink:title=" ">
<path fill="none" stroke="#63b8ff" d="M284.84,-255C304.46,-255 328.62,-255 350.57,-255"/>
<polygon fill="#63b8ff" stroke="#63b8ff" points="350.8,-258.5 360.8,-255 350.8,-251.5 350.8,-258.5"/>
</a>
</g>
</g>
</g>
</svg>
