<?xml version="1.0" encoding="UTF-8" standalone="no"?>
<!DOCTYPE svg PUBLIC "-//W3C//DTD SVG 1.1//EN"
 "http://www.w3.org/Graphics/SVG/1.1/DTD/svg11.dtd">
<!-- Generated by graphviz version 2.42.4 (0)
 -->
<!-- Title: L4Re::Util::Names::Name_space::alloc_dynamic_entry Pages: 1 -->
<svg width="377pt" height="56pt"
 viewBox="0.00 0.00 377.00 56.00" xmlns="http://www.w3.org/2000/svg" xmlns:xlink="http://www.w3.org/1999/xlink">
<g id="graph0" class="graph" transform="scale(1 1) rotate(0) translate(4 52)">
<title>L4Re::Util::Names::Name_space::alloc_dynamic_entry</title>
<!-- Node1 -->
<g id="Node000001" class="node">
<title>Node1</title>
<g id="a_Node000001"><a xlink:title="Allocate a new entry for the given name.">
<polygon fill="#999999" stroke="#666666" points="369,-30 182,-30 182,0 369,0 369,-30"/>
<text text-anchor="start" x="190" y="-18" font-family="Helvetica,sans-Serif" font-size="10.00">L4Re::Util::Names::</text>
<text text-anchor="middle" x="275.5" y="-7" font-family="Helvetica,sans-Serif" font-size="10.00">Name_space::alloc_dynamic_entry</text>
</a>
</g>
</g>
<!-- Node2 -->
<g id="Node000002" class="node">
<title>Node2</title>
<g id="a_Node000002"><a xlink:href="classL4Re_1_1Util_1_1Names_1_1Name__space.html#af7c92e05493887466de5be8c8774e274" target="_top" xlink:title="Free epiface previously acquired with get_epiface().">
<polygon fill="white" stroke="#666666" points="146,-30 0,-30 0,0 146,0 146,-30"/>
<text text-anchor="start" x="8" y="-18" font-family="Helvetica,sans-Serif" font-size="10.00">L4Re::Util::Names::</text>
<text text-anchor="middle" x="73" y="-7" font-family="Helvetica,sans-Serif" font-size="10.00">Name_space::free_epiface</text>
</a>
</g>
</g>
<!-- Node1&#45;&gt;Node2 -->
<g id="edge1_Node000001_Node000002" class="edge">
<title>Node1&#45;&gt;Node2</title>
<g id="a_edge1_Node000001_Node000002"><a xlink:title=" ">
<path fill="none" stroke="#63b8ff" d="M171.73,-15C163.08,-15 154.46,-15 146.12,-15"/>
<polygon fill="#63b8ff" stroke="#63b8ff" points="171.88,-18.5 181.88,-15 171.88,-11.5 171.88,-18.5"/>
</a>
</g>
</g>
<!-- Node2&#45;&gt;Node2 -->
<g id="edge2_Node000002_Node000002" class="edge">
<title>Node2&#45;&gt;Node2</title>
<g id="a_edge2_Node000002_Node000002"><a xlink:title=" ">
<path fill="none" stroke="#63b8ff" d="M108.36,-40.6C103.53,-44.97 91.74,-48 73,-48 41.44,-48 29.6,-39.41 37.49,-30.28"/>
<polygon fill="#63b8ff" stroke="#63b8ff" points="111.86,-40.33 108.51,-30.28 104.86,-40.22 111.86,-40.33"/>
</a>
</g>
</g>
</g>
</svg>
