<?xml version="1.0" encoding="UTF-8" standalone="no"?>
<!DOCTYPE svg PUBLIC "-//W3C//DTD SVG 1.1//EN"
 "http://www.w3.org/Graphics/SVG/1.1/DTD/svg11.dtd">
<!-- Generated by graphviz version 2.43.0 (0)
 -->
<!-- Title: L4vbus::Pci_host_bridge Pages: 1 -->
<svg width="330pt" height="1021pt"
 viewBox="0.00 0.00 329.50 1021.00" xmlns="http://www.w3.org/2000/svg" xmlns:xlink="http://www.w3.org/1999/xlink">
<g id="graph0" class="graph" transform="scale(1 1) rotate(0) translate(4 1017)">
<title>L4vbus::Pci_host_bridge</title>
<!-- Node1 -->
<g id="Node000001" class="node">
<title>Node1</title>
<g id="a_Node000001"><a xlink:title="A Pci host bridge.">
<polygon fill="#999999" stroke="transparent" points="198.5,-79 70.5,-79 70.5,0 198.5,0 198.5,-79"/>
<text text-anchor="start" x="75.5" y="-66.5" font-family="Helvetica,sans-Serif" font-size="10.00">L4vbus::Pci_host_bridge</text>
<text text-anchor="start" x="132.5" y="-51.5" font-family="Helvetica,sans-Serif" font-size="10.00"> </text>
<text text-anchor="start" x="86.5" y="-36.5" font-family="Helvetica,sans-Serif" font-size="10.00">+</text>
<text text-anchor="start" x="111.5" y="-36.5" font-family="Helvetica,sans-Serif" font-size="10.00">cfg_read()</text>
<text text-anchor="start" x="86.5" y="-21.5" font-family="Helvetica,sans-Serif" font-size="10.00">+</text>
<text text-anchor="start" x="111.5" y="-21.5" font-family="Helvetica,sans-Serif" font-size="10.00">cfg_write()</text>
<text text-anchor="start" x="86.5" y="-6.5" font-family="Helvetica,sans-Serif" font-size="10.00">+</text>
<text text-anchor="start" x="111.5" y="-6.5" font-family="Helvetica,sans-Serif" font-size="10.00">irq_enable()</text>
<polygon fill="#666666" stroke="#666666" points="70.5,-61.5 70.5,-61.5 198.5,-61.5 198.5,-61.5 70.5,-61.5"/>
<polygon fill="#666666" stroke="#666666" points="70.5,-46.5 70.5,-46.5 198.5,-46.5 198.5,-46.5 70.5,-46.5"/>
<polygon fill="none" stroke="#666666" points="70.5,0 70.5,-79 198.5,-79 198.5,0 70.5,0"/>
</a>
</g>
</g>
<!-- Node2 -->
<g id="Node000002" class="node">
<title>Node2</title>
<g id="a_Node000002"><a xlink:href="classL4vbus_1_1Device.html" target="_top" xlink:title="Device on a L4vbus::Vbus.">
<polygon fill="white" stroke="transparent" points="184,-315 85,-315 85,-116 184,-116 184,-315"/>
<text text-anchor="start" x="97.5" y="-302.5" font-family="Helvetica,sans-Serif" font-size="10.00">L4vbus::Device</text>
<text text-anchor="start" x="89.5" y="-287.5" font-family="Helvetica,sans-Serif" font-size="10.00">#</text>
<text text-anchor="start" x="102.5" y="-287.5" font-family="Helvetica,sans-Serif" font-size="10.00">_dev</text>
<text text-anchor="start" x="89.5" y="-272.5" font-family="Helvetica,sans-Serif" font-size="10.00">+</text>
<text text-anchor="start" x="102.5" y="-272.5" font-family="Helvetica,sans-Serif" font-size="10.00">Device()</text>
<text text-anchor="start" x="89.5" y="-257.5" font-family="Helvetica,sans-Serif" font-size="10.00">+</text>
<text text-anchor="start" x="102.5" y="-257.5" font-family="Helvetica,sans-Serif" font-size="10.00">Device()</text>
<text text-anchor="start" x="89.5" y="-242.5" font-family="Helvetica,sans-Serif" font-size="10.00">+</text>
<text text-anchor="start" x="102.5" y="-242.5" font-family="Helvetica,sans-Serif" font-size="10.00">bus_cap()</text>
<text text-anchor="start" x="89.5" y="-227.5" font-family="Helvetica,sans-Serif" font-size="10.00">+</text>
<text text-anchor="start" x="102.5" y="-227.5" font-family="Helvetica,sans-Serif" font-size="10.00">dev_handle()</text>
<text text-anchor="start" x="89.5" y="-212.5" font-family="Helvetica,sans-Serif" font-size="10.00">+</text>
<text text-anchor="start" x="102.5" y="-212.5" font-family="Helvetica,sans-Serif" font-size="10.00">device_by_hid()</text>
<text text-anchor="start" x="89.5" y="-197.5" font-family="Helvetica,sans-Serif" font-size="10.00">+</text>
<text text-anchor="start" x="102.5" y="-197.5" font-family="Helvetica,sans-Serif" font-size="10.00">next_device()</text>
<text text-anchor="start" x="89.5" y="-182.5" font-family="Helvetica,sans-Serif" font-size="10.00">+</text>
<text text-anchor="start" x="102.5" y="-182.5" font-family="Helvetica,sans-Serif" font-size="10.00">device()</text>
<text text-anchor="start" x="89.5" y="-167.5" font-family="Helvetica,sans-Serif" font-size="10.00">+</text>
<text text-anchor="start" x="102.5" y="-167.5" font-family="Helvetica,sans-Serif" font-size="10.00">get_resource()</text>
<text text-anchor="start" x="89.5" y="-152.5" font-family="Helvetica,sans-Serif" font-size="10.00">+</text>
<text text-anchor="start" x="102.5" y="-152.5" font-family="Helvetica,sans-Serif" font-size="10.00">is_compatible()</text>
<text text-anchor="start" x="89.5" y="-137.5" font-family="Helvetica,sans-Serif" font-size="10.00">+</text>
<text text-anchor="start" x="102.5" y="-137.5" font-family="Helvetica,sans-Serif" font-size="10.00">operator==()</text>
<text text-anchor="start" x="89.5" y="-122.5" font-family="Helvetica,sans-Serif" font-size="10.00">+</text>
<text text-anchor="start" x="102.5" y="-122.5" font-family="Helvetica,sans-Serif" font-size="10.00">operator!=()</text>
<polygon fill="#666666" stroke="#666666" points="85.5,-297.5 85.5,-297.5 184.5,-297.5 184.5,-297.5 85.5,-297.5"/>
<polygon fill="#666666" stroke="#666666" points="85.5,-282.5 85.5,-282.5 100.5,-282.5 100.5,-282.5 85.5,-282.5"/>
<polygon fill="#666666" stroke="#666666" points="100.5,-282.5 100.5,-282.5 184.5,-282.5 184.5,-282.5 100.5,-282.5"/>
<polygon fill="none" stroke="#666666" points="85,-116 85,-315 184,-315 184,-116 85,-116"/>
</a>
</g>
</g>
<!-- Node2&#45;&gt;Node1 -->
<g id="edge1_Node000001_Node000002" class="edge">
<title>Node2&#45;&gt;Node1</title>
<g id="a_edge1_Node000001_Node000002"><a xlink:title=" ">
<path fill="none" stroke="#63b8ff" d="M134.5,-105.63C134.5,-96.37 134.5,-87.45 134.5,-79.35"/>
<polygon fill="none" stroke="#63b8ff" points="131,-105.81 134.5,-115.81 138,-105.81 131,-105.81"/>
</a>
</g>
</g>
<!-- Node3 -->
<g id="Node000003" class="node">
<title>Node3</title>
<g id="a_Node000003"><a xlink:href="classL4vbus_1_1Pm.html" target="_top" xlink:title=" ">
<polygon fill="white" stroke="transparent" points="123,-471 0,-471 0,-407 123,-407 123,-471"/>
<text text-anchor="start" x="5.5" y="-459" font-family="Helvetica,sans-Serif" font-size="10.00">L4vbus::Pm&lt; Device &gt;</text>
<text text-anchor="start" x="60" y="-444" font-family="Helvetica,sans-Serif" font-size="10.00"> </text>
<text text-anchor="start" x="12.5" y="-429" font-family="Helvetica,sans-Serif" font-size="10.00">+</text>
<text text-anchor="start" x="33.5" y="-429" font-family="Helvetica,sans-Serif" font-size="10.00">pm_suspend()</text>
<text text-anchor="start" x="12.5" y="-414" font-family="Helvetica,sans-Serif" font-size="10.00">+</text>
<text text-anchor="start" x="33.5" y="-414" font-family="Helvetica,sans-Serif" font-size="10.00">pm_resume()</text>
<polygon fill="#666666" stroke="#666666" points="0.5,-454 0.5,-454 123.5,-454 123.5,-454 0.5,-454"/>
<polygon fill="#666666" stroke="#666666" points="0.5,-439 0.5,-439 123.5,-439 123.5,-439 0.5,-439"/>
<polygon fill="none" stroke="#666666" points="0,-407 0,-471 123,-471 123,-407 0,-407"/>
</a>
</g>
</g>
<!-- Node3&#45;&gt;Node2 -->
<g id="edge2_Node000002_Node000003" class="edge">
<title>Node3&#45;&gt;Node2</title>
<g id="a_edge2_Node000002_Node000003"><a xlink:title=" ">
<path fill="none" stroke="#63b8ff" d="M75.02,-396.97C82.62,-373.9 92.47,-344.04 101.95,-315.27"/>
<polygon fill="none" stroke="#63b8ff" points="71.61,-396.14 71.8,-406.73 78.26,-398.33 71.61,-396.14"/>
</a>
</g>
</g>
<!-- Node4 -->
<g id="Node000004" class="node">
<title>Node4</title>
<g id="a_Node000004"><a xlink:href="classL4vbus_1_1Pm.html" target="_top" xlink:title="Power&#45;management API mixin.">
<polygon fill="white" stroke="transparent" points="116.5,-672 6.5,-672 6.5,-608 116.5,-608 116.5,-672"/>
<text text-anchor="start" x="11.5" y="-660" font-family="Helvetica,sans-Serif" font-size="10.00">L4vbus::Pm&lt; DEC &gt;</text>
<text text-anchor="start" x="59.5" y="-645" font-family="Helvetica,sans-Serif" font-size="10.00"> </text>
<text text-anchor="start" x="15" y="-630" font-family="Helvetica,sans-Serif" font-size="10.00">+</text>
<text text-anchor="start" x="32.5" y="-630" font-family="Helvetica,sans-Serif" font-size="10.00">pm_suspend()</text>
<text text-anchor="start" x="15" y="-615" font-family="Helvetica,sans-Serif" font-size="10.00">+</text>
<text text-anchor="start" x="32.5" y="-615" font-family="Helvetica,sans-Serif" font-size="10.00">pm_resume()</text>
<polygon fill="#666666" stroke="#666666" points="6.5,-655 6.5,-655 116.5,-655 116.5,-655 6.5,-655"/>
<polygon fill="#666666" stroke="#666666" points="6.5,-640 6.5,-640 116.5,-640 116.5,-640 6.5,-640"/>
<polygon fill="none" stroke="#666666" points="6.5,-608 6.5,-672 116.5,-672 116.5,-608 6.5,-608"/>
</a>
</g>
</g>
<!-- Node4&#45;&gt;Node3 -->
<g id="edge3_Node000003_Node000004" class="edge">
<title>Node4&#45;&gt;Node3</title>
<g id="a_edge3_Node000003_Node000004"><a xlink:title=" ">
<path fill="none" stroke="orange" d="M61.5,-597.78C61.5,-560.14 61.5,-505.32 61.5,-471.2"/>
<polygon fill="orange" stroke="orange" points="58,-597.91 61.5,-607.91 65,-597.91 58,-597.91"/>
</a>
</g>
<text text-anchor="middle" x="91.5" y="-537" font-family="Helvetica,sans-Serif" font-size="10.00" fill="grey"> &lt; Device &gt;</text>
</g>
<!-- Node5 -->
<g id="Node000005" class="node">
<title>Node5</title>
<g id="a_Node000005"><a xlink:href="classL4_1_1Cap.html" target="_top" xlink:title=" ">
<polygon fill="white" stroke="transparent" points="275.5,-516 141.5,-516 141.5,-362 275.5,-362 275.5,-516"/>
<text text-anchor="start" x="146.5" y="-504" font-family="Helvetica,sans-Serif" font-size="10.00">L4::Cap&lt; L4vbus::Vbus &gt;</text>
<text text-anchor="start" x="206.5" y="-489" font-family="Helvetica,sans-Serif" font-size="10.00"> </text>
<text text-anchor="start" x="158.5" y="-474" font-family="Helvetica,sans-Serif" font-size="10.00">+</text>
<text text-anchor="start" x="184.5" y="-474" font-family="Helvetica,sans-Serif" font-size="10.00">Cap()</text>
<text text-anchor="start" x="158.5" y="-459" font-family="Helvetica,sans-Serif" font-size="10.00">+</text>
<text text-anchor="start" x="184.5" y="-459" font-family="Helvetica,sans-Serif" font-size="10.00">Cap()</text>
<text text-anchor="start" x="158.5" y="-444" font-family="Helvetica,sans-Serif" font-size="10.00">+</text>
<text text-anchor="start" x="184.5" y="-444" font-family="Helvetica,sans-Serif" font-size="10.00">Cap()</text>
<text text-anchor="start" x="158.5" y="-429" font-family="Helvetica,sans-Serif" font-size="10.00">+</text>
<text text-anchor="start" x="184.5" y="-429" font-family="Helvetica,sans-Serif" font-size="10.00">Cap()</text>
<text text-anchor="start" x="158.5" y="-414" font-family="Helvetica,sans-Serif" font-size="10.00">+</text>
<text text-anchor="start" x="184.5" y="-414" font-family="Helvetica,sans-Serif" font-size="10.00">Cap()</text>
<text text-anchor="start" x="158.5" y="-399" font-family="Helvetica,sans-Serif" font-size="10.00">+</text>
<text text-anchor="start" x="184.5" y="-399" font-family="Helvetica,sans-Serif" font-size="10.00">move()</text>
<text text-anchor="start" x="158.5" y="-384" font-family="Helvetica,sans-Serif" font-size="10.00">+</text>
<text text-anchor="start" x="184.5" y="-384" font-family="Helvetica,sans-Serif" font-size="10.00">copy()</text>
<text text-anchor="start" x="158.5" y="-369" font-family="Helvetica,sans-Serif" font-size="10.00">+</text>
<text text-anchor="start" x="184.5" y="-369" font-family="Helvetica,sans-Serif" font-size="10.00">operator&#45;&gt;()</text>
<polygon fill="#666666" stroke="#666666" points="141.5,-499 141.5,-499 275.5,-499 275.5,-499 141.5,-499"/>
<polygon fill="#666666" stroke="#666666" points="141.5,-484 141.5,-484 275.5,-484 275.5,-484 141.5,-484"/>
<polygon fill="none" stroke="#666666" points="141.5,-362 141.5,-516 275.5,-516 275.5,-362 141.5,-362"/>
</a>
</g>
</g>
<!-- Node5&#45;&gt;Node2 -->
<g id="edge4_Node000002_Node000005" class="edge">
<title>Node5&#45;&gt;Node2</title>
<g id="a_edge4_Node000002_Node000005"><a xlink:title=" ">
<path fill="none" stroke="#63b8ff" d="M183.03,-361.77C179.23,-350.39 175.25,-338.47 171.27,-326.56"/>
<polygon fill="none" stroke="#63b8ff" points="171.27,-326.55 165.57,-322.12 167.46,-315.16 173.16,-319.59 171.27,-326.55"/>
</a>
</g>
<text text-anchor="middle" x="193.5" y="-336" font-family="Helvetica,sans-Serif" font-size="10.00" fill="grey"> #_bus</text>
</g>
<!-- Node6 -->
<g id="Node000006" class="node">
<title>Node6</title>
<g id="a_Node000006"><a xlink:href="classL4_1_1Cap__base.html" target="_top" xlink:title="Base class for all kinds of capabilities.">
<polygon fill="white" stroke="transparent" points="240,-1013 153,-1013 153,-754 240,-754 240,-1013"/>
<text text-anchor="start" x="164.5" y="-1000.5" font-family="Helvetica,sans-Serif" font-size="10.00">L4::Cap_base</text>
<text text-anchor="start" x="157.5" y="-985.5" font-family="Helvetica,sans-Serif" font-size="10.00">#</text>
<text text-anchor="start" x="170.5" y="-985.5" font-family="Helvetica,sans-Serif" font-size="10.00">_c</text>
<text text-anchor="start" x="157.5" y="-970.5" font-family="Helvetica,sans-Serif" font-size="10.00">+</text>
<text text-anchor="start" x="170.5" y="-970.5" font-family="Helvetica,sans-Serif" font-size="10.00">cap()</text>
<text text-anchor="start" x="157.5" y="-955.5" font-family="Helvetica,sans-Serif" font-size="10.00">+</text>
<text text-anchor="start" x="170.5" y="-955.5" font-family="Helvetica,sans-Serif" font-size="10.00">is_valid()</text>
<text text-anchor="start" x="157.5" y="-940.5" font-family="Helvetica,sans-Serif" font-size="10.00">+</text>
<text text-anchor="start" x="170.5" y="-940.5" font-family="Helvetica,sans-Serif" font-size="10.00">fpage()</text>
<text text-anchor="start" x="157.5" y="-925.5" font-family="Helvetica,sans-Serif" font-size="10.00">+</text>
<text text-anchor="start" x="170.5" y="-925.5" font-family="Helvetica,sans-Serif" font-size="10.00">snd_base()</text>
<text text-anchor="start" x="157.5" y="-910.5" font-family="Helvetica,sans-Serif" font-size="10.00">+</text>
<text text-anchor="start" x="170.5" y="-910.5" font-family="Helvetica,sans-Serif" font-size="10.00">operator==()</text>
<text text-anchor="start" x="157.5" y="-895.5" font-family="Helvetica,sans-Serif" font-size="10.00">+</text>
<text text-anchor="start" x="170.5" y="-895.5" font-family="Helvetica,sans-Serif" font-size="10.00">operator!=()</text>
<text text-anchor="start" x="157.5" y="-880.5" font-family="Helvetica,sans-Serif" font-size="10.00">+</text>
<text text-anchor="start" x="170.5" y="-880.5" font-family="Helvetica,sans-Serif" font-size="10.00">validate()</text>
<text text-anchor="start" x="157.5" y="-865.5" font-family="Helvetica,sans-Serif" font-size="10.00">+</text>
<text text-anchor="start" x="170.5" y="-865.5" font-family="Helvetica,sans-Serif" font-size="10.00">validate()</text>
<text text-anchor="start" x="157.5" y="-850.5" font-family="Helvetica,sans-Serif" font-size="10.00">+</text>
<text text-anchor="start" x="170.5" y="-850.5" font-family="Helvetica,sans-Serif" font-size="10.00">invalidate()</text>
<text text-anchor="start" x="157.5" y="-835.5" font-family="Helvetica,sans-Serif" font-size="10.00">#</text>
<text text-anchor="start" x="170.5" y="-835.5" font-family="Helvetica,sans-Serif" font-size="10.00">Cap_base()</text>
<text text-anchor="start" x="157.5" y="-820.5" font-family="Helvetica,sans-Serif" font-size="10.00">#</text>
<text text-anchor="start" x="170.5" y="-820.5" font-family="Helvetica,sans-Serif" font-size="10.00">Cap_base()</text>
<text text-anchor="start" x="157.5" y="-805.5" font-family="Helvetica,sans-Serif" font-size="10.00">#</text>
<text text-anchor="start" x="170.5" y="-805.5" font-family="Helvetica,sans-Serif" font-size="10.00">Cap_base()</text>
<text text-anchor="start" x="157.5" y="-790.5" font-family="Helvetica,sans-Serif" font-size="10.00">#</text>
<text text-anchor="start" x="170.5" y="-790.5" font-family="Helvetica,sans-Serif" font-size="10.00">Cap_base()</text>
<text text-anchor="start" x="157.5" y="-775.5" font-family="Helvetica,sans-Serif" font-size="10.00">#</text>
<text text-anchor="start" x="170.5" y="-775.5" font-family="Helvetica,sans-Serif" font-size="10.00">move()</text>
<text text-anchor="start" x="157.5" y="-760.5" font-family="Helvetica,sans-Serif" font-size="10.00">#</text>
<text text-anchor="start" x="170.5" y="-760.5" font-family="Helvetica,sans-Serif" font-size="10.00">copy()</text>
<polygon fill="#666666" stroke="#666666" points="153.5,-995.5 153.5,-995.5 240.5,-995.5 240.5,-995.5 153.5,-995.5"/>
<polygon fill="#666666" stroke="#666666" points="153.5,-980.5 153.5,-980.5 168.5,-980.5 168.5,-980.5 153.5,-980.5"/>
<polygon fill="#666666" stroke="#666666" points="168.5,-980.5 168.5,-980.5 240.5,-980.5 240.5,-980.5 168.5,-980.5"/>
<polygon fill="none" stroke="#666666" points="153,-754 153,-1013 240,-1013 240,-754 153,-754"/>
</a>
</g>
</g>
<!-- Node6&#45;&gt;Node5 -->
<g id="edge5_Node000005_Node000006" class="edge">
<title>Node6&#45;&gt;Node5</title>
<g id="a_edge5_Node000005_Node000006"><a xlink:title=" ">
<path fill="none" stroke="#63b8ff" d="M198.97,-743.83C200.12,-687.69 201.65,-622.25 203.5,-563 203.97,-547.83 204.57,-531.62 205.18,-516.1"/>
<polygon fill="none" stroke="#63b8ff" points="195.47,-743.77 198.77,-753.84 202.47,-743.92 195.47,-743.77"/>
</a>
</g>
</g>
<!-- Node7 -->
<g id="Node000007" class="node">
<title>Node7</title>
<g id="a_Node000007"><a xlink:href="classL4_1_1Cap.html" target="_top" xlink:title="C++ interface for capabilities.">
<polygon fill="white" stroke="transparent" points="294.5,-717 212.5,-717 212.5,-563 294.5,-563 294.5,-717"/>
<text text-anchor="start" x="221" y="-705" font-family="Helvetica,sans-Serif" font-size="10.00">L4::Cap&lt; T &gt;</text>
<text text-anchor="start" x="251.5" y="-690" font-family="Helvetica,sans-Serif" font-size="10.00"> </text>
<text text-anchor="start" x="216.5" y="-675" font-family="Helvetica,sans-Serif" font-size="10.00">+</text>
<text text-anchor="start" x="229.5" y="-675" font-family="Helvetica,sans-Serif" font-size="10.00">Cap()</text>
<text text-anchor="start" x="216.5" y="-660" font-family="Helvetica,sans-Serif" font-size="10.00">+</text>
<text text-anchor="start" x="229.5" y="-660" font-family="Helvetica,sans-Serif" font-size="10.00">Cap()</text>
<text text-anchor="start" x="216.5" y="-645" font-family="Helvetica,sans-Serif" font-size="10.00">+</text>
<text text-anchor="start" x="229.5" y="-645" font-family="Helvetica,sans-Serif" font-size="10.00">Cap()</text>
<text text-anchor="start" x="216.5" y="-630" font-family="Helvetica,sans-Serif" font-size="10.00">+</text>
<text text-anchor="start" x="229.5" y="-630" font-family="Helvetica,sans-Serif" font-size="10.00">Cap()</text>
<text text-anchor="start" x="216.5" y="-615" font-family="Helvetica,sans-Serif" font-size="10.00">+</text>
<text text-anchor="start" x="229.5" y="-615" font-family="Helvetica,sans-Serif" font-size="10.00">Cap()</text>
<text text-anchor="start" x="216.5" y="-600" font-family="Helvetica,sans-Serif" font-size="10.00">+</text>
<text text-anchor="start" x="229.5" y="-600" font-family="Helvetica,sans-Serif" font-size="10.00">move()</text>
<text text-anchor="start" x="216.5" y="-585" font-family="Helvetica,sans-Serif" font-size="10.00">+</text>
<text text-anchor="start" x="229.5" y="-585" font-family="Helvetica,sans-Serif" font-size="10.00">copy()</text>
<text text-anchor="start" x="216.5" y="-570" font-family="Helvetica,sans-Serif" font-size="10.00">+</text>
<text text-anchor="start" x="229.5" y="-570" font-family="Helvetica,sans-Serif" font-size="10.00">operator&#45;&gt;()</text>
<polygon fill="#666666" stroke="#666666" points="212.5,-700 212.5,-700 294.5,-700 294.5,-700 212.5,-700"/>
<polygon fill="#666666" stroke="#666666" points="212.5,-685 212.5,-685 294.5,-685 294.5,-685 212.5,-685"/>
<polygon fill="none" stroke="#666666" points="212.5,-563 212.5,-717 294.5,-717 294.5,-563 212.5,-563"/>
</a>
</g>
</g>
<!-- Node6&#45;&gt;Node7 -->
<g id="edge7_Node000007_Node000006" class="edge">
<title>Node6&#45;&gt;Node7</title>
<g id="a_edge7_Node000007_Node000006"><a xlink:title=" ">
<path fill="none" stroke="#63b8ff" d="M229.2,-743.95C231.37,-734.76 233.51,-725.71 235.56,-717.02"/>
<polygon fill="none" stroke="#63b8ff" points="225.73,-743.44 226.84,-753.97 232.54,-745.04 225.73,-743.44"/>
</a>
</g>
</g>
<!-- Node7&#45;&gt;Node5 -->
<g id="edge6_Node000005_Node000007" class="edge">
<title>Node7&#45;&gt;Node5</title>
<g id="a_edge6_Node000005_Node000007"><a xlink:title=" ">
<path fill="none" stroke="orange" d="M234.08,-553.1C231.29,-540.78 228.44,-528.16 225.7,-516.04"/>
<polygon fill="orange" stroke="orange" points="230.68,-553.93 236.29,-562.91 237.5,-552.39 230.68,-553.93"/>
</a>
</g>
<text text-anchor="middle" x="276" y="-537" font-family="Helvetica,sans-Serif" font-size="10.00" fill="grey"> &lt; L4vbus::Vbus &gt;</text>
</g>
</g>
</svg>
