<?xml version="1.0" encoding="UTF-8" standalone="no"?>
<!DOCTYPE svg PUBLIC "-//W3C//DTD SVG 1.1//EN"
 "http://www.w3.org/Graphics/SVG/1.1/DTD/svg11.dtd">
<!-- Generated by graphviz version 2.43.0 (0)
 -->
<!-- Title: L4vbus::Vbus Pages: 1 -->
<svg width="631pt" height="1247pt"
 viewBox="0.00 0.00 631.00 1247.00" xmlns="http://www.w3.org/2000/svg" xmlns:xlink="http://www.w3.org/1999/xlink">
<g id="graph0" class="graph" transform="scale(1 1) rotate(0) translate(4 1243)">
<title>L4vbus::Vbus</title>
<!-- Node1 -->
<g id="Node000001" class="node">
<title>Node1</title>
<g id="a_Node000001"><a xlink:title="The virtual bus (Vbus) interface.">
<polygon fill="#999999" stroke="transparent" points="358,-109 228,-109 228,0 358,0 358,-109"/>
<text text-anchor="start" x="260.5" y="-96.5" font-family="Helvetica,sans-Serif" font-size="10.00">L4vbus::Vbus</text>
<text text-anchor="start" x="291" y="-81.5" font-family="Helvetica,sans-Serif" font-size="10.00"> </text>
<text text-anchor="start" x="232" y="-66.5" font-family="Helvetica,sans-Serif" font-size="10.00">+</text>
<text text-anchor="start" x="245" y="-66.5" font-family="Helvetica,sans-Serif" font-size="10.00">request_ioport()</text>
<text text-anchor="start" x="232" y="-51.5" font-family="Helvetica,sans-Serif" font-size="10.00">+</text>
<text text-anchor="start" x="245" y="-51.5" font-family="Helvetica,sans-Serif" font-size="10.00">release_ioport()</text>
<text text-anchor="start" x="232" y="-36.5" font-family="Helvetica,sans-Serif" font-size="10.00">+</text>
<text text-anchor="start" x="245" y="-36.5" font-family="Helvetica,sans-Serif" font-size="10.00">root()</text>
<text text-anchor="start" x="232" y="-21.5" font-family="Helvetica,sans-Serif" font-size="10.00">+</text>
<text text-anchor="start" x="245" y="-21.5" font-family="Helvetica,sans-Serif" font-size="10.00">assign_dma_domain()</text>
<text text-anchor="start" x="232" y="-6.5" font-family="Helvetica,sans-Serif" font-size="10.00">+</text>
<text text-anchor="start" x="245" y="-6.5" font-family="Helvetica,sans-Serif" font-size="10.00">assign_dma_domain()</text>
<polygon fill="#666666" stroke="#666666" points="228,-91.5 228,-91.5 358,-91.5 358,-91.5 228,-91.5"/>
<polygon fill="#666666" stroke="#666666" points="228,-76.5 228,-76.5 358,-76.5 358,-76.5 228,-76.5"/>
<polygon fill="none" stroke="#666666" points="228,0 228,-109 358,-109 358,0 228,0"/>
</a>
</g>
</g>
<!-- Node2 -->
<g id="Node000002" class="node">
<title>Node2</title>
<g id="a_Node000002"><a xlink:href="structL4_1_1Kobject__3t.html" target="_top" xlink:title=" ">
<polygon fill="white" stroke="transparent" points="359,-232 227,-232 227,-146 359,-146 359,-232"/>
<text text-anchor="start" x="232" y="-220" font-family="Helvetica,sans-Serif" font-size="10.00">L4::Kobject_3t&lt; Vbus,</text>
<text text-anchor="start" x="232" y="-209" font-family="Helvetica,sans-Serif" font-size="10.00"> L4Re::Dataspace, L4Re</text>
<text text-anchor="start" x="232" y="-198" font-family="Helvetica,sans-Serif" font-size="10.00">::Inhibitor, L4Re::Event &gt;</text>
<text text-anchor="start" x="291" y="-183" font-family="Helvetica,sans-Serif" font-size="10.00"> </text>
<text text-anchor="start" x="231.5" y="-168" font-family="Helvetica,sans-Serif" font-size="10.00">#</text>
<text text-anchor="start" x="245" y="-168" font-family="Helvetica,sans-Serif" font-size="10.00">c()</text>
<text text-anchor="start" x="231.5" y="-153" font-family="Helvetica,sans-Serif" font-size="10.00">#</text>
<text text-anchor="start" x="245" y="-153" font-family="Helvetica,sans-Serif" font-size="10.00">__check_protocols__()</text>
<polygon fill="#666666" stroke="#666666" points="227,-193 227,-193 359,-193 359,-193 227,-193"/>
<polygon fill="#666666" stroke="#666666" points="227,-178 227,-178 359,-178 359,-178 227,-178"/>
<polygon fill="none" stroke="#666666" points="227,-146 227,-232 359,-232 359,-146 227,-146"/>
</a>
</g>
</g>
<!-- Node2&#45;&gt;Node1 -->
<g id="edge1_Node000001_Node000002" class="edge">
<title>Node2&#45;&gt;Node1</title>
<g id="a_edge1_Node000001_Node000002"><a xlink:title=" ">
<path fill="none" stroke="#63b8ff" d="M293,-135.64C293,-126.89 293,-117.81 293,-109.03"/>
<polygon fill="none" stroke="#63b8ff" points="289.5,-135.71 293,-145.71 296.5,-135.71 289.5,-135.71"/>
</a>
</g>
</g>
<!-- Node3 -->
<g id="Node000003" class="node">
<title>Node3</title>
<g id="a_Node000003"><a xlink:href="classL4Re_1_1Dataspace.html" target="_top" xlink:title="Interface for memory&#45;like objects.">
<polygon fill="white" stroke="transparent" points="288,-798 196,-798 196,-644 288,-644 288,-798"/>
<text text-anchor="start" x="201" y="-786" font-family="Helvetica,sans-Serif" font-size="10.00">L4Re::Dataspace</text>
<text text-anchor="start" x="240" y="-771" font-family="Helvetica,sans-Serif" font-size="10.00"> </text>
<text text-anchor="start" x="201" y="-756" font-family="Helvetica,sans-Serif" font-size="10.00">+</text>
<text text-anchor="start" x="215" y="-756" font-family="Helvetica,sans-Serif" font-size="10.00">map()</text>
<text text-anchor="start" x="201" y="-741" font-family="Helvetica,sans-Serif" font-size="10.00">+</text>
<text text-anchor="start" x="215" y="-741" font-family="Helvetica,sans-Serif" font-size="10.00">map_region()</text>
<text text-anchor="start" x="201" y="-726" font-family="Helvetica,sans-Serif" font-size="10.00">+</text>
<text text-anchor="start" x="215" y="-726" font-family="Helvetica,sans-Serif" font-size="10.00">clear()</text>
<text text-anchor="start" x="201" y="-711" font-family="Helvetica,sans-Serif" font-size="10.00">+</text>
<text text-anchor="start" x="215" y="-711" font-family="Helvetica,sans-Serif" font-size="10.00">allocate()</text>
<text text-anchor="start" x="201" y="-696" font-family="Helvetica,sans-Serif" font-size="10.00">+</text>
<text text-anchor="start" x="215" y="-696" font-family="Helvetica,sans-Serif" font-size="10.00">copy_in()</text>
<text text-anchor="start" x="201" y="-681" font-family="Helvetica,sans-Serif" font-size="10.00">+</text>
<text text-anchor="start" x="215" y="-681" font-family="Helvetica,sans-Serif" font-size="10.00">size()</text>
<text text-anchor="start" x="201" y="-666" font-family="Helvetica,sans-Serif" font-size="10.00">+</text>
<text text-anchor="start" x="215" y="-666" font-family="Helvetica,sans-Serif" font-size="10.00">flags()</text>
<text text-anchor="start" x="201" y="-651" font-family="Helvetica,sans-Serif" font-size="10.00">+</text>
<text text-anchor="start" x="215" y="-651" font-family="Helvetica,sans-Serif" font-size="10.00">info()</text>
<polygon fill="#666666" stroke="#666666" points="196,-781 196,-781 288,-781 288,-781 196,-781"/>
<polygon fill="#666666" stroke="#666666" points="196,-766 196,-766 288,-766 288,-766 196,-766"/>
<polygon fill="none" stroke="#666666" points="196,-644 196,-798 288,-798 288,-644 196,-644"/>
</a>
</g>
</g>
<!-- Node3&#45;&gt;Node2 -->
<g id="edge2_Node000002_Node000003" class="edge">
<title>Node3&#45;&gt;Node2</title>
<g id="a_edge2_Node000002_Node000003"><a xlink:title=" ">
<path fill="none" stroke="#63b8ff" d="M240.02,-633.61C239.45,-548.46 242.26,-414.93 261,-301 264.81,-277.85 271.82,-252.67 278.31,-232.16"/>
<polygon fill="none" stroke="#63b8ff" points="236.52,-633.78 240.1,-643.75 243.52,-633.72 236.52,-633.78"/>
</a>
</g>
</g>
<!-- Node4 -->
<g id="Node000004" class="node">
<title>Node4</title>
<g id="a_Node000004"><a xlink:href="classL4_1_1Kobject__t.html" target="_top" xlink:title=" ">
<polygon fill="white" stroke="transparent" points="313,-1095 171,-1095 171,-998 313,-998 313,-1095"/>
<text text-anchor="start" x="176" y="-1082.5" font-family="Helvetica,sans-Serif" font-size="10.00">L4::Kobject_t&lt; Dataspace,</text>
<text text-anchor="start" x="176" y="-1071.5" font-family="Helvetica,sans-Serif" font-size="10.00"> L4::Kobject, L4RE_PROTO</text>
<text text-anchor="start" x="176" y="-1060.5" font-family="Helvetica,sans-Serif" font-size="10.00">_DATASPACE, L4::Type_info</text>
<text text-anchor="start" x="193.5" y="-1049.5" font-family="Helvetica,sans-Serif" font-size="10.00">::Demand_t&lt; 1 &gt; &gt;</text>
<text text-anchor="start" x="240" y="-1034.5" font-family="Helvetica,sans-Serif" font-size="10.00"> </text>
<text text-anchor="start" x="178" y="-1019.5" font-family="Helvetica,sans-Serif" font-size="10.00">#</text>
<text text-anchor="start" x="194" y="-1019.5" font-family="Helvetica,sans-Serif" font-size="10.00">c()</text>
<text text-anchor="start" x="178" y="-1004.5" font-family="Helvetica,sans-Serif" font-size="10.00">#</text>
<text text-anchor="start" x="194" y="-1004.5" font-family="Helvetica,sans-Serif" font-size="10.00">__check_protocols__()</text>
<polygon fill="#666666" stroke="#666666" points="171,-1044.5 171,-1044.5 313,-1044.5 313,-1044.5 171,-1044.5"/>
<polygon fill="#666666" stroke="#666666" points="171,-1029.5 171,-1029.5 313,-1029.5 313,-1029.5 171,-1029.5"/>
<polygon fill="none" stroke="#666666" points="171,-998 171,-1095 313,-1095 313,-998 171,-998"/>
</a>
</g>
</g>
<!-- Node4&#45;&gt;Node3 -->
<g id="edge3_Node000003_Node000004" class="edge">
<title>Node4&#45;&gt;Node3</title>
<g id="a_edge3_Node000003_Node000004"><a xlink:title=" ">
<path fill="none" stroke="#63b8ff" d="M242,-987.54C242,-934.65 242,-856.13 242,-798.18"/>
<polygon fill="none" stroke="#63b8ff" points="238.5,-987.77 242,-997.77 245.5,-987.77 238.5,-987.77"/>
</a>
</g>
</g>
<!-- Node5 -->
<g id="Node000005" class="node">
<title>Node5</title>
<g id="a_Node000005"><a xlink:href="classL4_1_1Kobject.html" target="_top" xlink:title="Base class for all kinds of kernel objects and remote objects, referenced by capabilities.">
<polygon fill="white" stroke="transparent" points="80,-1233.5 0,-1233.5 0,-1169.5 80,-1169.5 80,-1233.5"/>
<text text-anchor="start" x="13" y="-1221.5" font-family="Helvetica,sans-Serif" font-size="10.00">L4::Kobject</text>
<text text-anchor="start" x="38" y="-1206.5" font-family="Helvetica,sans-Serif" font-size="10.00"> </text>
<text text-anchor="start" x="4" y="-1191.5" font-family="Helvetica,sans-Serif" font-size="10.00">+</text>
<text text-anchor="start" x="17" y="-1191.5" font-family="Helvetica,sans-Serif" font-size="10.00">dec_refcnt()</text>
<text text-anchor="start" x="4" y="-1176.5" font-family="Helvetica,sans-Serif" font-size="10.00">#</text>
<text text-anchor="start" x="17" y="-1176.5" font-family="Helvetica,sans-Serif" font-size="10.00">cap()</text>
<polygon fill="#666666" stroke="#666666" points="0,-1216.5 0,-1216.5 80,-1216.5 80,-1216.5 0,-1216.5"/>
<polygon fill="#666666" stroke="#666666" points="0,-1201.5 0,-1201.5 80,-1201.5 80,-1201.5 0,-1201.5"/>
<polygon fill="none" stroke="#666666" points="0,-1169.5 0,-1233.5 80,-1233.5 80,-1169.5 0,-1169.5"/>
</a>
</g>
</g>
<!-- Node5&#45;&gt;Node4 -->
<g id="edge4_Node000004_Node000005" class="edge">
<title>Node5&#45;&gt;Node4</title>
<g id="a_edge4_Node000004_Node000005"><a xlink:title=" ">
<path fill="none" stroke="#63b8ff" d="M43.08,-1159.04C46.41,-1142.51 53.04,-1124.69 66,-1113 98.24,-1083.93 121.38,-1110.32 162,-1095 164.87,-1093.92 167.76,-1092.73 170.64,-1091.47"/>
<polygon fill="none" stroke="#63b8ff" points="39.59,-1158.65 41.4,-1169.09 46.5,-1159.8 39.59,-1158.65"/>
</a>
</g>
</g>
<!-- Node8 -->
<g id="Node000008" class="node">
<title>Node8</title>
<g id="a_Node000008"><a xlink:href="classL4_1_1Kobject__t.html" target="_top" xlink:title=" ">
<polygon fill="white" stroke="transparent" points="153,-1089.5 17,-1089.5 17,-1003.5 153,-1003.5 153,-1089.5"/>
<text text-anchor="start" x="22" y="-1077.5" font-family="Helvetica,sans-Serif" font-size="10.00">L4::Kobject_t&lt; Inhibitor,</text>
<text text-anchor="start" x="22" y="-1066.5" font-family="Helvetica,sans-Serif" font-size="10.00"> L4::Kobject, L4RE_PROTO</text>
<text text-anchor="start" x="51" y="-1055.5" font-family="Helvetica,sans-Serif" font-size="10.00">_INHIBITOR &gt;</text>
<text text-anchor="start" x="83" y="-1040.5" font-family="Helvetica,sans-Serif" font-size="10.00"> </text>
<text text-anchor="start" x="22.5" y="-1025.5" font-family="Helvetica,sans-Serif" font-size="10.00">#</text>
<text text-anchor="start" x="37" y="-1025.5" font-family="Helvetica,sans-Serif" font-size="10.00">c()</text>
<text text-anchor="start" x="22.5" y="-1010.5" font-family="Helvetica,sans-Serif" font-size="10.00">#</text>
<text text-anchor="start" x="37" y="-1010.5" font-family="Helvetica,sans-Serif" font-size="10.00">__check_protocols__()</text>
<polygon fill="#666666" stroke="#666666" points="17,-1050.5 17,-1050.5 153,-1050.5 153,-1050.5 17,-1050.5"/>
<polygon fill="#666666" stroke="#666666" points="17,-1035.5 17,-1035.5 153,-1035.5 153,-1035.5 17,-1035.5"/>
<polygon fill="none" stroke="#666666" points="17,-1003.5 17,-1089.5 153,-1089.5 153,-1003.5 17,-1003.5"/>
</a>
</g>
</g>
<!-- Node5&#45;&gt;Node8 -->
<g id="edge8_Node000008_Node000005" class="edge">
<title>Node5&#45;&gt;Node8</title>
<g id="a_edge8_Node000008_Node000005"><a xlink:title=" ">
<path fill="none" stroke="#63b8ff" d="M35.64,-1159.04C35.34,-1144.23 36.46,-1127.59 41,-1113 43.48,-1105.02 47.28,-1097.12 51.62,-1089.73"/>
<polygon fill="none" stroke="#63b8ff" points="32.16,-1159.62 36.09,-1169.46 39.16,-1159.32 32.16,-1159.62"/>
</a>
</g>
</g>
<!-- Node6 -->
<g id="Node000006" class="node">
<title>Node6</title>
<g id="a_Node000006"><a xlink:href="classL4_1_1Kobject__t.html" target="_top" xlink:title="Helper class to create an L4Re interface class that is derived from a single base class.">
<polygon fill="white" stroke="transparent" points="406,-1239 256,-1239 256,-1164 406,-1164 406,-1239"/>
<text text-anchor="start" x="261" y="-1226.5" font-family="Helvetica,sans-Serif" font-size="10.00">L4::Kobject_t&lt; Derived,</text>
<text text-anchor="start" x="261" y="-1215.5" font-family="Helvetica,sans-Serif" font-size="10.00"> Base, PROTO, S_DEMAND &gt;</text>
<text text-anchor="start" x="329" y="-1200.5" font-family="Helvetica,sans-Serif" font-size="10.00"> </text>
<text text-anchor="start" x="265" y="-1185.5" font-family="Helvetica,sans-Serif" font-size="10.00">#</text>
<text text-anchor="start" x="283" y="-1185.5" font-family="Helvetica,sans-Serif" font-size="10.00">c()</text>
<text text-anchor="start" x="265" y="-1170.5" font-family="Helvetica,sans-Serif" font-size="10.00">#</text>
<text text-anchor="start" x="283" y="-1170.5" font-family="Helvetica,sans-Serif" font-size="10.00">__check_protocols__()</text>
<polygon fill="#666666" stroke="#666666" points="256,-1210.5 256,-1210.5 406,-1210.5 406,-1210.5 256,-1210.5"/>
<polygon fill="#666666" stroke="#666666" points="256,-1195.5 256,-1195.5 406,-1195.5 406,-1195.5 256,-1195.5"/>
<polygon fill="none" stroke="#666666" points="256,-1164 256,-1239 406,-1239 406,-1164 256,-1164"/>
</a>
</g>
</g>
<!-- Node6&#45;&gt;Node4 -->
<g id="edge5_Node000004_Node000006" class="edge">
<title>Node6&#45;&gt;Node4</title>
<g id="a_edge5_Node000004_Node000006"><a xlink:title=" ">
<path fill="none" stroke="orange" d="M250.04,-1156.18C247.4,-1152.99 245.03,-1149.6 243,-1146 234.44,-1130.8 232.54,-1112.08 233.35,-1095.05"/>
<polygon fill="orange" stroke="orange" points="247.7,-1158.8 257.1,-1163.7 252.81,-1154.02 247.7,-1158.8"/>
</a>
</g>
<text text-anchor="start" x="243" y="-1138" font-family="Helvetica,sans-Serif" font-size="10.00" fill="grey"> &lt; Dataspace, L4::Kobject,</text>
<text text-anchor="start" x="243" y="-1127" font-family="Helvetica,sans-Serif" font-size="10.00" fill="grey"> L4RE_PROTO_DATASPACE,</text>
<text text-anchor="middle" x="324.5" y="-1116" font-family="Helvetica,sans-Serif" font-size="10.00" fill="grey"> L4::Type_info::Demand_t&lt; 1 &gt; &gt;</text>
</g>
<!-- Node6&#45;&gt;Node8 -->
<g id="edge9_Node000008_Node000006" class="edge">
<title>Node6&#45;&gt;Node8</title>
<g id="a_edge9_Node000008_Node000006"><a xlink:title=" ">
<path fill="none" stroke="orange" d="M245.67,-1191.09C186.88,-1182.75 115.9,-1168.37 96,-1146 82.62,-1130.96 79.17,-1109.09 79.37,-1089.78"/>
<polygon fill="orange" stroke="orange" points="245.35,-1194.58 255.74,-1192.48 246.31,-1187.65 245.35,-1194.58"/>
</a>
</g>
<text text-anchor="start" x="96" y="-1132.5" font-family="Helvetica,sans-Serif" font-size="10.00" fill="grey"> &lt; Inhibitor, L4::Kobject,</text>
<text text-anchor="middle" x="163" y="-1121.5" font-family="Helvetica,sans-Serif" font-size="10.00" fill="grey"> L4RE_PROTO_INHIBITOR &gt;</text>
</g>
<!-- Node10 -->
<g id="Node000010" class="node">
<title>Node10</title>
<g id="a_Node000010"><a xlink:href="classL4_1_1Kobject__t.html" target="_top" xlink:title=" ">
<polygon fill="white" stroke="transparent" points="484.5,-626 355.5,-626 355.5,-540 484.5,-540 484.5,-626"/>
<text text-anchor="start" x="368" y="-614" font-family="Helvetica,sans-Serif" font-size="10.00">L4::Kobject_t&lt; Event,</text>
<text text-anchor="start" x="368" y="-603" font-family="Helvetica,sans-Serif" font-size="10.00"> L4::Icu, L4RE_PROTO</text>
<text text-anchor="start" x="396" y="-592" font-family="Helvetica,sans-Serif" font-size="10.00">_EVENT &gt;</text>
<text text-anchor="start" x="418.5" y="-577" font-family="Helvetica,sans-Serif" font-size="10.00"> </text>
<text text-anchor="start" x="360" y="-562" font-family="Helvetica,sans-Serif" font-size="10.00">#</text>
<text text-anchor="start" x="373" y="-562" font-family="Helvetica,sans-Serif" font-size="10.00">c()</text>
<text text-anchor="start" x="360" y="-547" font-family="Helvetica,sans-Serif" font-size="10.00">#</text>
<text text-anchor="start" x="373" y="-547" font-family="Helvetica,sans-Serif" font-size="10.00">__check_protocols__()</text>
<polygon fill="#666666" stroke="#666666" points="356,-587 356,-587 485,-587 485,-587 356,-587"/>
<polygon fill="#666666" stroke="#666666" points="356,-572 356,-572 485,-572 485,-572 356,-572"/>
<polygon fill="none" stroke="#666666" points="355.5,-540 355.5,-626 484.5,-626 484.5,-540 355.5,-540"/>
</a>
</g>
</g>
<!-- Node6&#45;&gt;Node10 -->
<g id="edge16_Node000010_Node000006" class="edge">
<title>Node6&#45;&gt;Node10</title>
<g id="a_edge16_Node000010_Node000006"><a xlink:title=" ">
<path fill="none" stroke="orange" d="M399.38,-1156.22C401.88,-1152.99 404.12,-1149.58 406,-1146 418.03,-1123.1 419.74,-752.71 419.97,-626.07"/>
<polygon fill="orange" stroke="orange" points="396.62,-1154.05 392.66,-1163.88 401.88,-1158.67 396.62,-1154.05"/>
</a>
</g>
<text text-anchor="start" x="417" y="-972" font-family="Helvetica,sans-Serif" font-size="10.00" fill="grey"> &lt; Event, L4::Icu, L4RE</text>
<text text-anchor="middle" x="472" y="-961" font-family="Helvetica,sans-Serif" font-size="10.00" fill="grey">_PROTO_EVENT &gt;</text>
</g>
<!-- Node12 -->
<g id="Node000012" class="node">
<title>Node12</title>
<g id="a_Node000012"><a xlink:href="classL4_1_1Kobject__t.html" target="_top" xlink:title=" ">
<polygon fill="white" stroke="transparent" points="623,-1089.5 467,-1089.5 467,-1003.5 623,-1003.5 623,-1089.5"/>
<text text-anchor="start" x="472" y="-1077.5" font-family="Helvetica,sans-Serif" font-size="10.00">L4::Kobject_t&lt; Icu,</text>
<text text-anchor="start" x="472" y="-1066.5" font-family="Helvetica,sans-Serif" font-size="10.00"> Irq_eoi, L4_PROTO_IRQ,</text>
<text text-anchor="start" x="472" y="-1055.5" font-family="Helvetica,sans-Serif" font-size="10.00"> Type_info::Demand_t&lt; 1 &gt; &gt;</text>
<text text-anchor="start" x="543" y="-1040.5" font-family="Helvetica,sans-Serif" font-size="10.00"> </text>
<text text-anchor="start" x="477.5" y="-1025.5" font-family="Helvetica,sans-Serif" font-size="10.00">#</text>
<text text-anchor="start" x="497" y="-1025.5" font-family="Helvetica,sans-Serif" font-size="10.00">c()</text>
<text text-anchor="start" x="477.5" y="-1010.5" font-family="Helvetica,sans-Serif" font-size="10.00">#</text>
<text text-anchor="start" x="497" y="-1010.5" font-family="Helvetica,sans-Serif" font-size="10.00">__check_protocols__()</text>
<polygon fill="#666666" stroke="#666666" points="467,-1050.5 467,-1050.5 623,-1050.5 623,-1050.5 467,-1050.5"/>
<polygon fill="#666666" stroke="#666666" points="467,-1035.5 467,-1035.5 623,-1035.5 623,-1035.5 467,-1035.5"/>
<polygon fill="none" stroke="#666666" points="467,-1003.5 467,-1089.5 623,-1089.5 623,-1003.5 467,-1003.5"/>
</a>
</g>
</g>
<!-- Node6&#45;&gt;Node12 -->
<g id="edge15_Node000012_Node000006" class="edge">
<title>Node6&#45;&gt;Node12</title>
<g id="a_edge15_Node000012_Node000006"><a xlink:title=" ">
<path fill="none" stroke="orange" d="M414.3,-1159.98C420.24,-1155.65 425.9,-1150.99 431,-1146 443.11,-1134.17 438.53,-1125.44 450,-1113 457.6,-1104.75 466.43,-1096.98 475.57,-1089.87"/>
<polygon fill="orange" stroke="orange" points="412.27,-1157.13 406.03,-1165.69 416.25,-1162.89 412.27,-1157.13"/>
</a>
</g>
<text text-anchor="start" x="450" y="-1138" font-family="Helvetica,sans-Serif" font-size="10.00" fill="grey"> &lt; Icu, Irq_eoi, L4</text>
<text text-anchor="start" x="450" y="-1127" font-family="Helvetica,sans-Serif" font-size="10.00" fill="grey">_PROTO_IRQ, Type_info</text>
<text text-anchor="middle" x="507.5" y="-1116" font-family="Helvetica,sans-Serif" font-size="10.00" fill="grey">::Demand_t&lt; 1 &gt; &gt;</text>
</g>
<!-- Node7 -->
<g id="Node000007" class="node">
<title>Node7</title>
<g id="a_Node000007"><a xlink:href="classL4Re_1_1Inhibitor.html" target="_top" xlink:title="Set of inhibitor locks, which inhibit specific actions when held.">
<polygon fill="white" stroke="transparent" points="204,-522 104,-522 104,-443 204,-443 204,-522"/>
<text text-anchor="start" x="118.5" y="-509.5" font-family="Helvetica,sans-Serif" font-size="10.00">L4Re::Inhibitor</text>
<text text-anchor="start" x="152" y="-494.5" font-family="Helvetica,sans-Serif" font-size="10.00"> </text>
<text text-anchor="start" x="108" y="-479.5" font-family="Helvetica,sans-Serif" font-size="10.00">+</text>
<text text-anchor="start" x="121" y="-479.5" font-family="Helvetica,sans-Serif" font-size="10.00">acquire()</text>
<text text-anchor="start" x="108" y="-464.5" font-family="Helvetica,sans-Serif" font-size="10.00">+</text>
<text text-anchor="start" x="121" y="-464.5" font-family="Helvetica,sans-Serif" font-size="10.00">release()</text>
<text text-anchor="start" x="108" y="-449.5" font-family="Helvetica,sans-Serif" font-size="10.00">+</text>
<text text-anchor="start" x="121" y="-449.5" font-family="Helvetica,sans-Serif" font-size="10.00">next_lock_info()</text>
<polygon fill="#666666" stroke="#666666" points="104,-504.5 104,-504.5 204,-504.5 204,-504.5 104,-504.5"/>
<polygon fill="#666666" stroke="#666666" points="104,-489.5 104,-489.5 204,-489.5 204,-489.5 104,-489.5"/>
<polygon fill="none" stroke="#666666" points="104,-443 104,-522 204,-522 204,-443 104,-443"/>
</a>
</g>
</g>
<!-- Node7&#45;&gt;Node2 -->
<g id="edge6_Node000002_Node000007" class="edge">
<title>Node7&#45;&gt;Node2</title>
<g id="a_edge6_Node000002_Node000007"><a xlink:title=" ">
<path fill="none" stroke="#63b8ff" d="M162,-432.8C171.74,-383.68 191.59,-307.14 228,-250 231.96,-243.78 236.72,-237.79 241.84,-232.15"/>
<polygon fill="none" stroke="#63b8ff" points="158.52,-432.37 160.08,-442.85 165.4,-433.69 158.52,-432.37"/>
</a>
</g>
</g>
<!-- Node8&#45;&gt;Node7 -->
<g id="edge7_Node000007_Node000008" class="edge">
<title>Node8&#45;&gt;Node7</title>
<g id="a_edge7_Node000007_Node000008"><a xlink:title=" ">
<path fill="none" stroke="#63b8ff" d="M91.42,-993.22C105.16,-881.27 137.17,-620.56 149.26,-522.09"/>
<polygon fill="none" stroke="#63b8ff" points="87.93,-992.91 90.19,-1003.26 94.88,-993.76 87.93,-992.91"/>
</a>
</g>
</g>
<!-- Node9 -->
<g id="Node000009" class="node">
<title>Node9</title>
<g id="a_Node000009"><a xlink:href="classL4Re_1_1Event.html" target="_top" xlink:title="Event class.">
<polygon fill="white" stroke="transparent" points="418,-425 270,-425 270,-301 418,-301 418,-425"/>
<text text-anchor="start" x="315" y="-413" font-family="Helvetica,sans-Serif" font-size="10.00">L4Re::Event</text>
<text text-anchor="start" x="342" y="-398" font-family="Helvetica,sans-Serif" font-size="10.00"> </text>
<text text-anchor="start" x="274" y="-383" font-family="Helvetica,sans-Serif" font-size="10.00">+</text>
<text text-anchor="start" x="287" y="-383" font-family="Helvetica,sans-Serif" font-size="10.00">get_buffer()</text>
<text text-anchor="start" x="274" y="-368" font-family="Helvetica,sans-Serif" font-size="10.00">+</text>
<text text-anchor="start" x="287" y="-368" font-family="Helvetica,sans-Serif" font-size="10.00">get_num_streams()</text>
<text text-anchor="start" x="274" y="-353" font-family="Helvetica,sans-Serif" font-size="10.00">+</text>
<text text-anchor="start" x="287" y="-353" font-family="Helvetica,sans-Serif" font-size="10.00">get_stream_info()</text>
<text text-anchor="start" x="274" y="-338" font-family="Helvetica,sans-Serif" font-size="10.00">+</text>
<text text-anchor="start" x="287" y="-338" font-family="Helvetica,sans-Serif" font-size="10.00">get_stream_info_for_id()</text>
<text text-anchor="start" x="274" y="-323" font-family="Helvetica,sans-Serif" font-size="10.00">+</text>
<text text-anchor="start" x="287" y="-323" font-family="Helvetica,sans-Serif" font-size="10.00">get_axis_info()</text>
<text text-anchor="start" x="274" y="-308" font-family="Helvetica,sans-Serif" font-size="10.00">+</text>
<text text-anchor="start" x="287" y="-308" font-family="Helvetica,sans-Serif" font-size="10.00">get_stream_state_for_id()</text>
<polygon fill="#666666" stroke="#666666" points="270,-408 270,-408 418,-408 418,-408 270,-408"/>
<polygon fill="#666666" stroke="#666666" points="270,-393 270,-393 418,-393 418,-393 270,-393"/>
<polygon fill="none" stroke="#666666" points="270,-301 270,-425 418,-425 418,-301 270,-301"/>
</a>
</g>
</g>
<!-- Node9&#45;&gt;Node2 -->
<g id="edge10_Node000002_Node000009" class="edge">
<title>Node9&#45;&gt;Node2</title>
<g id="a_edge10_Node000002_Node000009"><a xlink:title=" ">
<path fill="none" stroke="#63b8ff" d="M322.99,-291.13C317.03,-271.05 310.74,-249.84 305.47,-232.06"/>
<polygon fill="none" stroke="#63b8ff" points="319.68,-292.28 325.88,-300.87 326.39,-290.29 319.68,-292.28"/>
</a>
</g>
</g>
<!-- Node10&#45;&gt;Node9 -->
<g id="edge11_Node000009_Node000010" class="edge">
<title>Node10&#45;&gt;Node9</title>
<g id="a_edge11_Node000009_Node000010"><a xlink:title=" ">
<path fill="none" stroke="#63b8ff" d="M402.04,-530.49C391.05,-498.97 376.93,-458.46 365.37,-425.29"/>
<polygon fill="none" stroke="#63b8ff" points="398.75,-531.68 405.35,-539.97 405.36,-529.37 398.75,-531.68"/>
</a>
</g>
</g>
<!-- Node11 -->
<g id="Node000011" class="node">
<title>Node11</title>
<g id="a_Node000011"><a xlink:href="classL4_1_1Icu.html" target="_top" xlink:title="C++ Icu interface, see Interrupt controller for the C interface.">
<polygon fill="white" stroke="transparent" points="554.5,-940 477.5,-940 477.5,-816 554.5,-816 554.5,-940"/>
<text text-anchor="start" x="500.5" y="-928" font-family="Helvetica,sans-Serif" font-size="10.00">L4::Icu</text>
<text text-anchor="start" x="514.5" y="-913" font-family="Helvetica,sans-Serif" font-size="10.00"> </text>
<text text-anchor="start" x="482" y="-898" font-family="Helvetica,sans-Serif" font-size="10.00">+</text>
<text text-anchor="start" x="495" y="-898" font-family="Helvetica,sans-Serif" font-size="10.00">bind()</text>
<text text-anchor="start" x="482" y="-883" font-family="Helvetica,sans-Serif" font-size="10.00">+</text>
<text text-anchor="start" x="495" y="-883" font-family="Helvetica,sans-Serif" font-size="10.00">unbind()</text>
<text text-anchor="start" x="482" y="-868" font-family="Helvetica,sans-Serif" font-size="10.00">+</text>
<text text-anchor="start" x="495" y="-868" font-family="Helvetica,sans-Serif" font-size="10.00">info()</text>
<text text-anchor="start" x="482" y="-853" font-family="Helvetica,sans-Serif" font-size="10.00">+</text>
<text text-anchor="start" x="495" y="-853" font-family="Helvetica,sans-Serif" font-size="10.00">msi_info()</text>
<text text-anchor="start" x="482" y="-838" font-family="Helvetica,sans-Serif" font-size="10.00">+</text>
<text text-anchor="start" x="495" y="-838" font-family="Helvetica,sans-Serif" font-size="10.00">mask()</text>
<text text-anchor="start" x="482" y="-823" font-family="Helvetica,sans-Serif" font-size="10.00">+</text>
<text text-anchor="start" x="495" y="-823" font-family="Helvetica,sans-Serif" font-size="10.00">set_mode()</text>
<polygon fill="#666666" stroke="#666666" points="478,-923 478,-923 555,-923 555,-923 478,-923"/>
<polygon fill="#666666" stroke="#666666" points="478,-908 478,-908 555,-908 555,-908 478,-908"/>
<polygon fill="none" stroke="#666666" points="477.5,-816 477.5,-940 554.5,-940 554.5,-816 477.5,-816"/>
</a>
</g>
</g>
<!-- Node11&#45;&gt;Node10 -->
<g id="edge12_Node000010_Node000011" class="edge">
<title>Node11&#45;&gt;Node10</title>
<g id="a_edge12_Node000010_Node000011"><a xlink:title=" ">
<path fill="none" stroke="#63b8ff" d="M492.86,-806.38C474.41,-750.07 449.2,-673.11 433.78,-626.07"/>
<polygon fill="none" stroke="#63b8ff" points="489.55,-807.52 495.99,-815.93 496.2,-805.34 489.55,-807.52"/>
</a>
</g>
</g>
<!-- Node12&#45;&gt;Node11 -->
<g id="edge13_Node000011_Node000012" class="edge">
<title>Node12&#45;&gt;Node11</title>
<g id="a_edge13_Node000011_Node000012"><a xlink:title=" ">
<path fill="none" stroke="#63b8ff" d="M536.88,-993.19C535.01,-981.59 532.99,-969.37 531,-958 529.99,-952.22 528.91,-946.22 527.8,-940.21"/>
<polygon fill="none" stroke="#63b8ff" points="533.45,-993.86 538.48,-1003.18 540.36,-992.75 533.45,-993.86"/>
</a>
</g>
</g>
<!-- Node13 -->
<g id="Node000013" class="node">
<title>Node13</title>
<g id="a_Node000013"><a xlink:href="classL4_1_1Irq__eoi.html" target="_top" xlink:title="Interface for sending an unmask message to an object.">
<polygon fill="white" stroke="transparent" points="617,-1226 549,-1226 549,-1177 617,-1177 617,-1226"/>
<text text-anchor="start" x="557.5" y="-1213.5" font-family="Helvetica,sans-Serif" font-size="10.00">L4::Irq_eoi</text>
<text text-anchor="start" x="581" y="-1198.5" font-family="Helvetica,sans-Serif" font-size="10.00"> </text>
<text text-anchor="start" x="553" y="-1183.5" font-family="Helvetica,sans-Serif" font-size="10.00">+</text>
<text text-anchor="start" x="566" y="-1183.5" font-family="Helvetica,sans-Serif" font-size="10.00">unmask()</text>
<polygon fill="#666666" stroke="#666666" points="549,-1208.5 549,-1208.5 617,-1208.5 617,-1208.5 549,-1208.5"/>
<polygon fill="#666666" stroke="#666666" points="549,-1193.5 549,-1193.5 617,-1193.5 617,-1193.5 549,-1193.5"/>
<polygon fill="none" stroke="#666666" points="549,-1177 549,-1226 617,-1226 617,-1177 549,-1177"/>
</a>
</g>
</g>
<!-- Node13&#45;&gt;Node12 -->
<g id="edge14_Node000012_Node000013" class="edge">
<title>Node13&#45;&gt;Node12</title>
<g id="a_edge14_Node000012_Node000013"><a xlink:title=" ">
<path fill="none" stroke="#63b8ff" d="M579.13,-1166.66C576.87,-1150.29 573.55,-1130.46 569,-1113 567.01,-1105.38 564.49,-1097.41 561.83,-1089.76"/>
<polygon fill="none" stroke="#63b8ff" points="575.7,-1167.39 580.47,-1176.85 582.64,-1166.48 575.7,-1167.39"/>
</a>
</g>
</g>
<!-- Node14 -->
<g id="Node000014" class="node">
<title>Node14</title>
<g id="a_Node000014"><a xlink:href="structL4_1_1Kobject__3t.html" target="_top" xlink:title="Helper class to create an L4Re interface class that is derived from three base classes (see L4::Kobje...">
<polygon fill="white" stroke="transparent" points="567.5,-406 436.5,-406 436.5,-320 567.5,-320 567.5,-406"/>
<text text-anchor="start" x="442" y="-394" font-family="Helvetica,sans-Serif" font-size="10.00">L4::Kobject_3t&lt; Derived,</text>
<text text-anchor="start" x="442" y="-383" font-family="Helvetica,sans-Serif" font-size="10.00"> Base1, Base2, Base3,</text>
<text text-anchor="start" x="447.5" y="-372" font-family="Helvetica,sans-Serif" font-size="10.00"> PROTO, S_DEMAND &gt;</text>
<text text-anchor="start" x="500.5" y="-357" font-family="Helvetica,sans-Serif" font-size="10.00"> </text>
<text text-anchor="start" x="441.5" y="-342" font-family="Helvetica,sans-Serif" font-size="10.00">#</text>
<text text-anchor="start" x="455" y="-342" font-family="Helvetica,sans-Serif" font-size="10.00">c()</text>
<text text-anchor="start" x="441.5" y="-327" font-family="Helvetica,sans-Serif" font-size="10.00">#</text>
<text text-anchor="start" x="455" y="-327" font-family="Helvetica,sans-Serif" font-size="10.00">__check_protocols__()</text>
<polygon fill="#666666" stroke="#666666" points="437,-367 437,-367 568,-367 568,-367 437,-367"/>
<polygon fill="#666666" stroke="#666666" points="437,-352 437,-352 568,-352 568,-352 437,-352"/>
<polygon fill="none" stroke="#666666" points="436.5,-320 436.5,-406 567.5,-406 567.5,-320 436.5,-320"/>
</a>
</g>
</g>
<!-- Node14&#45;&gt;Node2 -->
<g id="edge17_Node000002_Node000014" class="edge">
<title>Node14&#45;&gt;Node2</title>
<g id="a_edge17_Node000002_Node000014"><a xlink:title=" ">
<path fill="none" stroke="orange" d="M443.12,-313.54C412.02,-287.95 374.22,-256.84 344.32,-232.24"/>
<polygon fill="orange" stroke="orange" points="440.93,-316.27 450.87,-319.92 445.38,-310.87 440.93,-316.27"/>
</a>
</g>
<text text-anchor="start" x="404" y="-275" font-family="Helvetica,sans-Serif" font-size="10.00" fill="grey"> &lt; Vbus, L4Re::Dataspace,</text>
<text text-anchor="start" x="404" y="-264" font-family="Helvetica,sans-Serif" font-size="10.00" fill="grey"> L4Re::Inhibitor, L4Re</text>
<text text-anchor="middle" x="469" y="-253" font-family="Helvetica,sans-Serif" font-size="10.00" fill="grey">::Event &gt;</text>
</g>
</g>
</svg>
