<?xml version="1.0" encoding="UTF-8" standalone="no"?>
<!DOCTYPE svg PUBLIC "-//W3C//DTD SVG 1.1//EN"
 "http://www.w3.org/Graphics/SVG/1.1/DTD/svg11.dtd">
<!-- Generated by graphviz version 2.43.0 (0)
 -->
<!-- Title: L4::Ipc_svr::Timeout Pages: 1 -->
<svg width="117pt" height="202pt"
 viewBox="0.00 0.00 117.00 202.00" xmlns="http://www.w3.org/2000/svg" xmlns:xlink="http://www.w3.org/1999/xlink">
<g id="graph0" class="graph" transform="scale(1 1) rotate(0) translate(4 198)">
<title>L4::Ipc_svr::Timeout</title>
<!-- Node1 -->
<g id="Node000001" class="node">
<title>Node1</title>
<g id="a_Node000001"><a xlink:title="Callback interface for Timeout_queue.">
<polygon fill="#999999" stroke="transparent" points="109,-94 0,-94 0,0 109,0 109,-94"/>
<text text-anchor="start" x="5.5" y="-82" font-family="Helvetica,sans-Serif" font-size="10.00">L4::Ipc_svr::Timeout</text>
<text text-anchor="start" x="53" y="-67" font-family="Helvetica,sans-Serif" font-size="10.00"> </text>
<text text-anchor="start" x="12" y="-52" font-family="Helvetica,sans-Serif" font-size="10.00">+</text>
<text text-anchor="start" x="32.5" y="-52" font-family="Helvetica,sans-Serif" font-size="10.00">Timeout()</text>
<text text-anchor="start" x="12" y="-37" font-family="Helvetica,sans-Serif" font-size="10.00">+</text>
<text text-anchor="start" x="32.5" y="-37" font-family="Helvetica,sans-Serif" font-size="10.00">~Timeout()</text>
<text text-anchor="start" x="12" y="-22" font-family="Helvetica,sans-Serif" font-size="10.00">+</text>
<text text-anchor="start" x="32.5" y="-22" font-family="Helvetica,sans-Serif" font-size="10.00">expired()</text>
<text text-anchor="start" x="12" y="-7" font-family="Helvetica,sans-Serif" font-size="10.00">+</text>
<text text-anchor="start" x="32.5" y="-7" font-family="Helvetica,sans-Serif" font-size="10.00">timeout()</text>
<polygon fill="#666666" stroke="#666666" points="0.5,-77 0.5,-77 109.5,-77 109.5,-77 0.5,-77"/>
<polygon fill="#666666" stroke="#666666" points="0.5,-62 0.5,-62 109.5,-62 109.5,-62 0.5,-62"/>
<polygon fill="none" stroke="#666666" points="0,0 0,-94 109,-94 109,0 0,0"/>
</a>
</g>
</g>
<!-- Node2 -->
<g id="Node000002" class="node">
<title>Node2</title>
<g id="a_Node000002"><a xlink:href="classcxx_1_1H__list__item__t.html" target="_top" xlink:title="Basic element type for a double&#45;linked H_list.">
<polygon fill="white" stroke="transparent" points="105.5,-194 3.5,-194 3.5,-130 105.5,-130 105.5,-194"/>
<text text-anchor="start" x="15" y="-182" font-family="Helvetica,sans-Serif" font-size="10.00">cxx::H_list_item</text>
<text text-anchor="start" x="52.5" y="-167" font-family="Helvetica,sans-Serif" font-size="10.00"> </text>
<text text-anchor="start" x="7.5" y="-152" font-family="Helvetica,sans-Serif" font-size="10.00">+</text>
<text text-anchor="start" x="20.5" y="-152" font-family="Helvetica,sans-Serif" font-size="10.00">H_list_item_t()</text>
<text text-anchor="start" x="7.5" y="-137" font-family="Helvetica,sans-Serif" font-size="10.00">+</text>
<text text-anchor="start" x="20.5" y="-137" font-family="Helvetica,sans-Serif" font-size="10.00">~H_list_item_t()</text>
<polygon fill="#666666" stroke="#666666" points="3.5,-177 3.5,-177 105.5,-177 105.5,-177 3.5,-177"/>
<polygon fill="#666666" stroke="#666666" points="3.5,-162 3.5,-162 105.5,-162 105.5,-162 3.5,-162"/>
<polygon fill="none" stroke="#666666" points="3.5,-130 3.5,-194 105.5,-194 105.5,-130 3.5,-130"/>
</a>
</g>
</g>
<!-- Node2&#45;&gt;Node1 -->
<g id="edge1_Node000001_Node000002" class="edge">
<title>Node2&#45;&gt;Node1</title>
<g id="a_edge1_Node000001_Node000002"><a xlink:title=" ">
<path fill="none" stroke="#63b8ff" d="M54.5,-119.68C54.5,-111.43 54.5,-102.72 54.5,-94.31"/>
<polygon fill="none" stroke="#63b8ff" points="51,-119.82 54.5,-129.82 58,-119.82 51,-119.82"/>
</a>
</g>
</g>
</g>
</svg>
