<?xml version="1.0" encoding="UTF-8" standalone="no"?>
<!DOCTYPE svg PUBLIC "-//W3C//DTD SVG 1.1//EN"
 "http://www.w3.org/Graphics/SVG/1.1/DTD/svg11.dtd">
<!-- Generated by graphviz version 2.43.0 (0)
 -->
<!-- Title: cxx::Base_slab_static&lt; Obj_size, Slab_size, Max_free, Alloc &gt; Pages: 1 -->
<svg width="126pt" height="124pt"
 viewBox="0.00 0.00 126.00 124.00" xmlns="http://www.w3.org/2000/svg" xmlns:xlink="http://www.w3.org/1999/xlink">
<g id="graph0" class="graph" transform="scale(1 1) rotate(0) translate(4 120)">
<title>cxx::Base_slab_static&lt; Obj_size, Slab_size, Max_free, Alloc &gt;</title>
<!-- Node1 -->
<g id="Node000001" class="node">
<title>Node1</title>
<g id="a_Node000001"><a xlink:title="Merged slab allocator (allocators for objects of the same size are merged together).">
<polygon fill="#999999" stroke="transparent" points="118,-116 0,-116 0,0 118,0 118,-116"/>
<text text-anchor="start" x="5" y="-104" font-family="Helvetica,sans-Serif" font-size="10.00">cxx::Base_slab_static</text>
<text text-anchor="start" x="5" y="-93" font-family="Helvetica,sans-Serif" font-size="10.00">&lt; Obj_size, Slab_size,</text>
<text text-anchor="start" x="13.5" y="-82" font-family="Helvetica,sans-Serif" font-size="10.00"> Max_free, Alloc &gt;</text>
<text text-anchor="start" x="57" y="-67" font-family="Helvetica,sans-Serif" font-size="10.00"> </text>
<text text-anchor="start" x="10.5" y="-52" font-family="Helvetica,sans-Serif" font-size="10.00">+</text>
<text text-anchor="start" x="30" y="-52" font-family="Helvetica,sans-Serif" font-size="10.00">alloc()</text>
<text text-anchor="start" x="10.5" y="-37" font-family="Helvetica,sans-Serif" font-size="10.00">+</text>
<text text-anchor="start" x="30" y="-37" font-family="Helvetica,sans-Serif" font-size="10.00">free()</text>
<text text-anchor="start" x="10.5" y="-22" font-family="Helvetica,sans-Serif" font-size="10.00">+</text>
<text text-anchor="start" x="30" y="-22" font-family="Helvetica,sans-Serif" font-size="10.00">total_objects()</text>
<text text-anchor="start" x="10.5" y="-7" font-family="Helvetica,sans-Serif" font-size="10.00">+</text>
<text text-anchor="start" x="30" y="-7" font-family="Helvetica,sans-Serif" font-size="10.00">free_objects()</text>
<polygon fill="#666666" stroke="#666666" points="0,-77 0,-77 118,-77 118,-77 0,-77"/>
<polygon fill="#666666" stroke="#666666" points="0,-62 0,-62 118,-62 118,-62 0,-62"/>
<polygon fill="none" stroke="#666666" points="0,0 0,-116 118,-116 118,0 0,0"/>
</a>
</g>
</g>
</g>
</svg>
