<?xml version="1.0" encoding="UTF-8" standalone="no"?>
<!DOCTYPE svg PUBLIC "-//W3C//DTD SVG 1.1//EN"
 "http://www.w3.org/Graphics/SVG/1.1/DTD/svg11.dtd">
<!-- Generated by graphviz version 2.42.4 (0)
 -->
<!-- Title: L4virtio::Driver::Virtqueue::init_queue Pages: 1 -->
<svg width="643pt" height="296pt"
 viewBox="0.00 0.00 643.00 296.00" xmlns="http://www.w3.org/2000/svg" xmlns:xlink="http://www.w3.org/1999/xlink">
<g id="graph0" class="graph" transform="scale(1 1) rotate(0) translate(4 292)">
<title>L4virtio::Driver::Virtqueue::init_queue</title>
<!-- Node1 -->
<g id="Node000001" class="node">
<title>Node1</title>
<g id="a_Node000001"><a xlink:title="Initialize this virtqueue.">
<polygon fill="#999999" stroke="#666666" points="143,-245 0,-245 0,-215 143,-215 143,-245"/>
<text text-anchor="start" x="8" y="-233" font-family="Helvetica,sans-Serif" font-size="10.00">L4virtio::Driver::Virtqueue</text>
<text text-anchor="middle" x="71.5" y="-222" font-family="Helvetica,sans-Serif" font-size="10.00">::init_queue</text>
</a>
</g>
</g>
<!-- Node2 -->
<g id="Node000002" class="node">
<title>Node2</title>
<g id="a_Node000002"><a xlink:href="classL4virtio_1_1Driver_1_1Virtqueue.html#ac31099e5abf48745f518aed17b1dee54" target="_top" xlink:title="Initialize the descriptor table and the index structures of this queue.">
<polygon fill="white" stroke="#666666" points="322,-288 179,-288 179,-258 322,-258 322,-288"/>
<text text-anchor="start" x="187" y="-276" font-family="Helvetica,sans-Serif" font-size="10.00">L4virtio::Driver::Virtqueue</text>
<text text-anchor="middle" x="250.5" y="-265" font-family="Helvetica,sans-Serif" font-size="10.00">::initialize_rings</text>
</a>
</g>
</g>
<!-- Node1&#45;&gt;Node2 -->
<g id="edge1_Node000001_Node000002" class="edge">
<title>Node1&#45;&gt;Node2</title>
<g id="a_edge1_Node000001_Node000002"><a xlink:title=" ">
<path fill="none" stroke="#63b8ff" d="M134.41,-245.04C148.42,-248.44 163.41,-252.09 177.79,-255.58"/>
<polygon fill="#63b8ff" stroke="#63b8ff" points="177.09,-259.01 187.63,-257.97 178.74,-252.21 177.09,-259.01"/>
</a>
</g>
</g>
<!-- Node3 -->
<g id="Node000003" class="node">
<title>Node3</title>
<g id="a_Node000003"><a xlink:href="classL4virtio_1_1Virtqueue.html#af61e3e4e436b93f37f22243a1c0ffe0e" target="_top" xlink:title=" ">
<polygon fill="white" stroke="#666666" points="635,-179.5 501,-179.5 501,-160.5 635,-160.5 635,-179.5"/>
<text text-anchor="middle" x="568" y="-167.5" font-family="Helvetica,sans-Serif" font-size="10.00">L4virtio::Virtqueue::num</text>
</a>
</g>
</g>
<!-- Node1&#45;&gt;Node3 -->
<g id="edge3_Node000001_Node000003" class="edge">
<title>Node1&#45;&gt;Node3</title>
<g id="a_edge3_Node000001_Node000003"><a xlink:title=" ">
<path fill="none" stroke="#63b8ff" d="M143.29,-224.76C222.08,-218.47 353.04,-206.65 465,-190 480.74,-187.66 497.74,-184.56 513.26,-181.5"/>
<polygon fill="#63b8ff" stroke="#63b8ff" points="514.11,-184.9 523.22,-179.5 512.73,-178.04 514.11,-184.9"/>
</a>
</g>
</g>
<!-- Node4 -->
<g id="Node000004" class="node">
<title>Node4</title>
<g id="a_Node000004"><a xlink:href="classL4virtio_1_1Virtqueue.html#a437c0ed2eb83201cc69c41d011503036" target="_top" xlink:title="Enable this queue.">
<polygon fill="white" stroke="#666666" points="304,-140 197,-140 197,-110 304,-110 304,-140"/>
<text text-anchor="start" x="205" y="-128" font-family="Helvetica,sans-Serif" font-size="10.00">L4virtio::Virtqueue</text>
<text text-anchor="middle" x="250.5" y="-117" font-family="Helvetica,sans-Serif" font-size="10.00">::setup_simple</text>
</a>
</g>
</g>
<!-- Node1&#45;&gt;Node4 -->
<g id="edge4_Node000001_Node000004" class="edge">
<title>Node1&#45;&gt;Node4</title>
<g id="a_edge4_Node000001_Node000004"><a xlink:title=" ">
<path fill="none" stroke="#63b8ff" d="M97.86,-214.96C128.75,-196.63 181.05,-165.61 215.43,-145.21"/>
<polygon fill="#63b8ff" stroke="#63b8ff" points="217.37,-148.13 224.19,-140.02 213.8,-142.11 217.37,-148.13"/>
</a>
</g>
</g>
<!-- Node2&#45;&gt;Node3 -->
<g id="edge2_Node000002_Node000003" class="edge">
<title>Node2&#45;&gt;Node3</title>
<g id="a_edge2_Node000002_Node000003"><a xlink:title=" ">
<path fill="none" stroke="#63b8ff" d="M322.46,-272.02C365.1,-269.35 419.69,-262.17 465,-244 498.25,-230.67 530.7,-204.11 549.77,-186.7"/>
<polygon fill="#63b8ff" stroke="#63b8ff" points="552.4,-189.04 557.31,-179.65 547.62,-183.92 552.4,-189.04"/>
</a>
</g>
</g>
<!-- Node4&#45;&gt;Node3 -->
<g id="edge10_Node000004_Node000003" class="edge">
<title>Node4&#45;&gt;Node3</title>
<g id="a_edge10_Node000004_Node000003"><a xlink:title=" ">
<path fill="none" stroke="#63b8ff" d="M276.7,-140.05C297.64,-151.64 328.65,-166.69 358,-173 401.24,-182.29 450.69,-182.06 490.63,-179.26"/>
<polygon fill="#63b8ff" stroke="#63b8ff" points="491.13,-182.73 500.83,-178.48 490.59,-175.75 491.13,-182.73"/>
</a>
</g>
</g>
<!-- Node5 -->
<g id="Node000005" class="node">
<title>Node5</title>
<g id="a_Node000005"><a xlink:href="classL4virtio_1_1Virtqueue.html#a962767a117dad07184f59191d399f9ce" target="_top" xlink:title="Calculate the size of the available ring for num entries.">
<polygon fill="white" stroke="#666666" points="465,-164 358,-164 358,-134 465,-134 465,-164"/>
<text text-anchor="start" x="366" y="-152" font-family="Helvetica,sans-Serif" font-size="10.00">L4virtio::Virtqueue</text>
<text text-anchor="middle" x="411.5" y="-141" font-family="Helvetica,sans-Serif" font-size="10.00">::avail_size</text>
</a>
</g>
</g>
<!-- Node4&#45;&gt;Node5 -->
<g id="edge5_Node000004_Node000005" class="edge">
<title>Node4&#45;&gt;Node5</title>
<g id="a_edge5_Node000004_Node000005"><a xlink:title=" ">
<path fill="none" stroke="#63b8ff" d="M304,-132.93C318.04,-135.04 333.35,-137.36 347.88,-139.55"/>
<polygon fill="#63b8ff" stroke="#63b8ff" points="347.37,-143.01 357.78,-141.04 348.41,-136.09 347.37,-143.01"/>
</a>
</g>
</g>
<!-- Node6 -->
<g id="Node000006" class="node">
<title>Node6</title>
<g id="a_Node000006"><a xlink:href="classL4virtio_1_1Virtqueue.html#a19410c09db5499023cb4b9f11742cd26" target="_top" xlink:title="Calculate the size of the descriptor table for num entries.">
<polygon fill="white" stroke="#666666" points="465,-116 358,-116 358,-86 465,-86 465,-116"/>
<text text-anchor="start" x="366" y="-104" font-family="Helvetica,sans-Serif" font-size="10.00">L4virtio::Virtqueue</text>
<text text-anchor="middle" x="411.5" y="-93" font-family="Helvetica,sans-Serif" font-size="10.00">::desc_size</text>
</a>
</g>
</g>
<!-- Node4&#45;&gt;Node6 -->
<g id="edge7_Node000004_Node000006" class="edge">
<title>Node4&#45;&gt;Node6</title>
<g id="a_edge7_Node000004_Node000006"><a xlink:title=" ">
<path fill="none" stroke="#63b8ff" d="M304,-117.07C318.04,-114.96 333.35,-112.64 347.88,-110.45"/>
<polygon fill="#63b8ff" stroke="#63b8ff" points="348.41,-113.91 357.78,-108.96 347.37,-106.99 348.41,-113.91"/>
</a>
</g>
</g>
<!-- Node7 -->
<g id="Node000007" class="node">
<title>Node7</title>
<g id="a_Node000007"><a xlink:href="group__l4__memory__api.html#gae876a4c6e0f21b2ecbf17863dc7d11e4" target="_top" xlink:title="Round value up to the next alignment with bits size.">
<polygon fill="white" stroke="#666666" points="453,-67.5 370,-67.5 370,-48.5 453,-48.5 453,-67.5"/>
<text text-anchor="middle" x="411.5" y="-55.5" font-family="Helvetica,sans-Serif" font-size="10.00">l4_round_size</text>
</a>
</g>
</g>
<!-- Node4&#45;&gt;Node7 -->
<g id="edge9_Node000004_Node000007" class="edge">
<title>Node4&#45;&gt;Node7</title>
<g id="a_edge9_Node000004_Node000007"><a xlink:title=" ">
<path fill="none" stroke="#63b8ff" d="M283.38,-109.86C304.4,-100.08 332.63,-87.29 358,-77 362.87,-75.02 368.04,-73.03 373.15,-71.12"/>
<polygon fill="#63b8ff" stroke="#63b8ff" points="374.65,-74.3 382.83,-67.57 372.24,-67.73 374.65,-74.3"/>
</a>
</g>
</g>
<!-- Node8 -->
<g id="Node000008" class="node">
<title>Node8</title>
<g id="a_Node000008"><a xlink:href="classL4virtio_1_1Virtqueue.html#a109ea5677dd074df1d2c6a06056c7d82" target="_top" xlink:title="Enable this queue.">
<polygon fill="white" stroke="#666666" points="465,-30 358,-30 358,0 465,0 465,-30"/>
<text text-anchor="start" x="366" y="-18" font-family="Helvetica,sans-Serif" font-size="10.00">L4virtio::Virtqueue</text>
<text text-anchor="middle" x="411.5" y="-7" font-family="Helvetica,sans-Serif" font-size="10.00">::setup</text>
</a>
</g>
</g>
<!-- Node4&#45;&gt;Node8 -->
<g id="edge11_Node000004_Node000008" class="edge">
<title>Node4&#45;&gt;Node8</title>
<g id="a_edge11_Node000004_Node000008"><a xlink:title=" ">
<path fill="none" stroke="#63b8ff" d="M267.5,-109.92C287.53,-91.57 323.44,-60.38 358,-39 360.32,-37.57 362.73,-36.17 365.2,-34.81"/>
<polygon fill="#63b8ff" stroke="#63b8ff" points="367.02,-37.81 374.29,-30.1 363.8,-31.59 367.02,-37.81"/>
</a>
</g>
</g>
<!-- Node5&#45;&gt;Node3 -->
<g id="edge6_Node000005_Node000003" class="edge">
<title>Node5&#45;&gt;Node3</title>
<g id="a_edge6_Node000005_Node000003"><a xlink:title=" ">
<path fill="none" stroke="#63b8ff" d="M465.24,-156.17C473.47,-157.29 482.11,-158.46 490.74,-159.63"/>
<polygon fill="#63b8ff" stroke="#63b8ff" points="490.46,-163.13 500.84,-161.01 491.4,-156.19 490.46,-163.13"/>
</a>
</g>
</g>
<!-- Node6&#45;&gt;Node3 -->
<g id="edge8_Node000006_Node000003" class="edge">
<title>Node6&#45;&gt;Node3</title>
<g id="a_edge8_Node000006_Node000003"><a xlink:title=" ">
<path fill="none" stroke="#63b8ff" d="M446.41,-116.14C473.19,-128.1 510.24,-144.65 536.19,-156.24"/>
<polygon fill="#63b8ff" stroke="#63b8ff" points="534.98,-159.53 545.54,-160.42 537.84,-153.14 534.98,-159.53"/>
</a>
</g>
</g>
<!-- Node8&#45;&gt;Node3 -->
<g id="edge12_Node000008_Node000003" class="edge">
<title>Node8&#45;&gt;Node3</title>
<g id="a_edge12_Node000008_Node000003"><a xlink:title=" ">
<path fill="none" stroke="#63b8ff" d="M451.32,-30.13C456.14,-32.75 460.83,-35.71 465,-39 506.08,-71.48 540.23,-123.84 556.59,-151.5"/>
<polygon fill="#63b8ff" stroke="#63b8ff" points="553.76,-153.59 561.79,-160.49 559.81,-150.09 553.76,-153.59"/>
</a>
</g>
</g>
</g>
</svg>
