<?xml version="1.0" encoding="UTF-8" standalone="no"?>
<!DOCTYPE svg PUBLIC "-//W3C//DTD SVG 1.1//EN"
 "http://www.w3.org/Graphics/SVG/1.1/DTD/svg11.dtd">
<!-- Generated by graphviz version 2.43.0 (0)
 -->
<!-- Title: L4vbus::Icu Pages: 1 -->
<svg width="131pt" height="520pt"
 viewBox="0.00 0.00 131.00 520.00" xmlns="http://www.w3.org/2000/svg" xmlns:xlink="http://www.w3.org/1999/xlink">
<g id="graph0" class="graph" transform="scale(1 1) rotate(0) translate(4 516)">
<title>L4vbus::Icu</title>
<!-- Node1 -->
<g id="Node000001" class="node">
<title>Node1</title>
<g id="a_Node000001"><a xlink:title="Vbus Interrupt controller API.">
<polygon fill="#999999" stroke="transparent" points="94,-49 29,-49 29,0 94,0 94,-49"/>
<text text-anchor="start" x="34.5" y="-36.5" font-family="Helvetica,sans-Serif" font-size="10.00">L4vbus::Icu</text>
<text text-anchor="start" x="60" y="-21.5" font-family="Helvetica,sans-Serif" font-size="10.00"> </text>
<text text-anchor="start" x="37.5" y="-6.5" font-family="Helvetica,sans-Serif" font-size="10.00">+</text>
<text text-anchor="start" x="54.5" y="-6.5" font-family="Helvetica,sans-Serif" font-size="10.00">vicu()</text>
<polygon fill="#666666" stroke="#666666" points="29.5,-31.5 29.5,-31.5 94.5,-31.5 94.5,-31.5 29.5,-31.5"/>
<polygon fill="#666666" stroke="#666666" points="29.5,-16.5 29.5,-16.5 94.5,-16.5 94.5,-16.5 29.5,-16.5"/>
<polygon fill="none" stroke="#666666" points="29,0 29,-49 94,-49 94,0 29,0"/>
</a>
</g>
</g>
<!-- Node2 -->
<g id="Node000002" class="node">
<title>Node2</title>
<g id="a_Node000002"><a xlink:href="classL4vbus_1_1Device.html" target="_top" xlink:title="Device on a L4vbus::Vbus.">
<polygon fill="white" stroke="transparent" points="111,-300 12,-300 12,-86 111,-86 111,-300"/>
<text text-anchor="start" x="24.5" y="-288" font-family="Helvetica,sans-Serif" font-size="10.00">L4vbus::Device</text>
<text text-anchor="start" x="16.5" y="-273" font-family="Helvetica,sans-Serif" font-size="10.00">#</text>
<text text-anchor="start" x="29.5" y="-273" font-family="Helvetica,sans-Serif" font-size="10.00">_bus</text>
<text text-anchor="start" x="16.5" y="-258" font-family="Helvetica,sans-Serif" font-size="10.00">#</text>
<text text-anchor="start" x="29.5" y="-258" font-family="Helvetica,sans-Serif" font-size="10.00">_dev</text>
<text text-anchor="start" x="16.5" y="-243" font-family="Helvetica,sans-Serif" font-size="10.00">+</text>
<text text-anchor="start" x="29.5" y="-243" font-family="Helvetica,sans-Serif" font-size="10.00">Device()</text>
<text text-anchor="start" x="16.5" y="-228" font-family="Helvetica,sans-Serif" font-size="10.00">+</text>
<text text-anchor="start" x="29.5" y="-228" font-family="Helvetica,sans-Serif" font-size="10.00">Device()</text>
<text text-anchor="start" x="16.5" y="-213" font-family="Helvetica,sans-Serif" font-size="10.00">+</text>
<text text-anchor="start" x="29.5" y="-213" font-family="Helvetica,sans-Serif" font-size="10.00">bus_cap()</text>
<text text-anchor="start" x="16.5" y="-198" font-family="Helvetica,sans-Serif" font-size="10.00">+</text>
<text text-anchor="start" x="29.5" y="-198" font-family="Helvetica,sans-Serif" font-size="10.00">dev_handle()</text>
<text text-anchor="start" x="16.5" y="-183" font-family="Helvetica,sans-Serif" font-size="10.00">+</text>
<text text-anchor="start" x="29.5" y="-183" font-family="Helvetica,sans-Serif" font-size="10.00">device_by_hid()</text>
<text text-anchor="start" x="16.5" y="-168" font-family="Helvetica,sans-Serif" font-size="10.00">+</text>
<text text-anchor="start" x="29.5" y="-168" font-family="Helvetica,sans-Serif" font-size="10.00">next_device()</text>
<text text-anchor="start" x="16.5" y="-153" font-family="Helvetica,sans-Serif" font-size="10.00">+</text>
<text text-anchor="start" x="29.5" y="-153" font-family="Helvetica,sans-Serif" font-size="10.00">device()</text>
<text text-anchor="start" x="16.5" y="-138" font-family="Helvetica,sans-Serif" font-size="10.00">+</text>
<text text-anchor="start" x="29.5" y="-138" font-family="Helvetica,sans-Serif" font-size="10.00">get_resource()</text>
<text text-anchor="start" x="16.5" y="-123" font-family="Helvetica,sans-Serif" font-size="10.00">+</text>
<text text-anchor="start" x="29.5" y="-123" font-family="Helvetica,sans-Serif" font-size="10.00">is_compatible()</text>
<text text-anchor="start" x="16.5" y="-108" font-family="Helvetica,sans-Serif" font-size="10.00">+</text>
<text text-anchor="start" x="29.5" y="-108" font-family="Helvetica,sans-Serif" font-size="10.00">operator==()</text>
<text text-anchor="start" x="16.5" y="-93" font-family="Helvetica,sans-Serif" font-size="10.00">+</text>
<text text-anchor="start" x="29.5" y="-93" font-family="Helvetica,sans-Serif" font-size="10.00">operator!=()</text>
<polygon fill="#666666" stroke="#666666" points="12.5,-283 12.5,-283 111.5,-283 111.5,-283 12.5,-283"/>
<polygon fill="#666666" stroke="#666666" points="12.5,-253 12.5,-253 27.5,-253 27.5,-253 12.5,-253"/>
<polygon fill="#666666" stroke="#666666" points="27.5,-253 27.5,-253 111.5,-253 111.5,-253 27.5,-253"/>
<polygon fill="none" stroke="#666666" points="12,-86 12,-300 111,-300 111,-86 12,-86"/>
</a>
</g>
</g>
<!-- Node2&#45;&gt;Node1 -->
<g id="edge1_Node000001_Node000002" class="edge">
<title>Node2&#45;&gt;Node1</title>
<g id="a_edge1_Node000001_Node000002"><a xlink:title=" ">
<path fill="none" stroke="#63b8ff" d="M61.5,-75.58C61.5,-65.76 61.5,-56.68 61.5,-49.02"/>
<polygon fill="none" stroke="#63b8ff" points="58,-75.61 61.5,-85.61 65,-75.61 58,-75.61"/>
</a>
</g>
</g>
<!-- Node3 -->
<g id="Node000003" class="node">
<title>Node3</title>
<g id="a_Node000003"><a xlink:href="classL4vbus_1_1Pm.html" target="_top" xlink:title=" ">
<polygon fill="white" stroke="transparent" points="123,-401 0,-401 0,-337 123,-337 123,-401"/>
<text text-anchor="start" x="5.5" y="-389" font-family="Helvetica,sans-Serif" font-size="10.00">L4vbus::Pm&lt; Device &gt;</text>
<text text-anchor="start" x="60" y="-374" font-family="Helvetica,sans-Serif" font-size="10.00"> </text>
<text text-anchor="start" x="12.5" y="-359" font-family="Helvetica,sans-Serif" font-size="10.00">+</text>
<text text-anchor="start" x="33.5" y="-359" font-family="Helvetica,sans-Serif" font-size="10.00">pm_suspend()</text>
<text text-anchor="start" x="12.5" y="-344" font-family="Helvetica,sans-Serif" font-size="10.00">+</text>
<text text-anchor="start" x="33.5" y="-344" font-family="Helvetica,sans-Serif" font-size="10.00">pm_resume()</text>
<polygon fill="#666666" stroke="#666666" points="0.5,-384 0.5,-384 123.5,-384 123.5,-384 0.5,-384"/>
<polygon fill="#666666" stroke="#666666" points="0.5,-369 0.5,-369 123.5,-369 123.5,-369 0.5,-369"/>
<polygon fill="none" stroke="#666666" points="0,-337 0,-401 123,-401 123,-337 0,-337"/>
</a>
</g>
</g>
<!-- Node3&#45;&gt;Node2 -->
<g id="edge2_Node000002_Node000003" class="edge">
<title>Node3&#45;&gt;Node2</title>
<g id="a_edge2_Node000002_Node000003"><a xlink:title=" ">
<path fill="none" stroke="#63b8ff" d="M61.5,-326.83C61.5,-318.53 61.5,-309.45 61.5,-300.05"/>
<polygon fill="none" stroke="#63b8ff" points="58,-326.89 61.5,-336.89 65,-326.89 58,-326.89"/>
</a>
</g>
</g>
<!-- Node4 -->
<g id="Node000004" class="node">
<title>Node4</title>
<g id="a_Node000004"><a xlink:href="classL4vbus_1_1Pm.html" target="_top" xlink:title="Power&#45;management API mixin.">
<polygon fill="white" stroke="transparent" points="116.5,-512 6.5,-512 6.5,-448 116.5,-448 116.5,-512"/>
<text text-anchor="start" x="11.5" y="-500" font-family="Helvetica,sans-Serif" font-size="10.00">L4vbus::Pm&lt; DEC &gt;</text>
<text text-anchor="start" x="59.5" y="-485" font-family="Helvetica,sans-Serif" font-size="10.00"> </text>
<text text-anchor="start" x="15" y="-470" font-family="Helvetica,sans-Serif" font-size="10.00">+</text>
<text text-anchor="start" x="32.5" y="-470" font-family="Helvetica,sans-Serif" font-size="10.00">pm_suspend()</text>
<text text-anchor="start" x="15" y="-455" font-family="Helvetica,sans-Serif" font-size="10.00">+</text>
<text text-anchor="start" x="32.5" y="-455" font-family="Helvetica,sans-Serif" font-size="10.00">pm_resume()</text>
<polygon fill="#666666" stroke="#666666" points="6.5,-495 6.5,-495 116.5,-495 116.5,-495 6.5,-495"/>
<polygon fill="#666666" stroke="#666666" points="6.5,-480 6.5,-480 116.5,-480 116.5,-480 6.5,-480"/>
<polygon fill="none" stroke="#666666" points="6.5,-448 6.5,-512 116.5,-512 116.5,-448 6.5,-448"/>
</a>
</g>
</g>
<!-- Node4&#45;&gt;Node3 -->
<g id="edge3_Node000003_Node000004" class="edge">
<title>Node4&#45;&gt;Node3</title>
<g id="a_edge3_Node000003_Node000004"><a xlink:title=" ">
<path fill="none" stroke="orange" d="M61.5,-437.49C61.5,-425.46 61.5,-412.53 61.5,-401.24"/>
<polygon fill="orange" stroke="orange" points="58,-437.76 61.5,-447.76 65,-437.77 58,-437.76"/>
</a>
</g>
<text text-anchor="middle" x="91.5" y="-422" font-family="Helvetica,sans-Serif" font-size="10.00" fill="grey"> &lt; Device &gt;</text>
</g>
</g>
</svg>
