<?xml version="1.0" encoding="UTF-8" standalone="no"?>
<!DOCTYPE svg PUBLIC "-//W3C//DTD SVG 1.1//EN"
 "http://www.w3.org/Graphics/SVG/1.1/DTD/svg11.dtd">
<!-- Generated by graphviz version 2.42.4 (0)
 -->
<!-- Title: cxx::Bits::Smart_ptr_list_item&lt; T, STORE_T &gt; Pages: 1 -->
<svg width="155pt" height="153pt"
 viewBox="0.00 0.00 155.00 153.00" xmlns="http://www.w3.org/2000/svg" xmlns:xlink="http://www.w3.org/1999/xlink">
<g id="graph0" class="graph" transform="scale(1 1) rotate(0) translate(4 149)">
<title>cxx::Bits::Smart_ptr_list_item&lt; T, STORE_T &gt;</title>
<!-- Node1 -->
<g id="Node000001" class="node">
<title>Node1</title>
<g id="a_Node000001"><a xlink:title="List item for an arbitrary item in a Smart_ptr_list.">
<polygon fill="#999999" stroke="transparent" points="142,-145 5,-145 5,-85 142,-85 142,-145"/>
<text text-anchor="start" x="10.5" y="-133" font-family="Helvetica,sans-Serif" font-size="10.00">cxx::Bits::Smart_ptr</text>
<text text-anchor="start" x="10.5" y="-122" font-family="Helvetica,sans-Serif" font-size="10.00">_list_item&lt; T, STORE_T &gt;</text>
<text text-anchor="start" x="72" y="-107" font-family="Helvetica,sans-Serif" font-size="10.00"> </text>
<text text-anchor="start" x="72" y="-92" font-family="Helvetica,sans-Serif" font-size="10.00"> </text>
<polygon fill="#666666" stroke="#666666" points="5.5,-117 5.5,-117 142.5,-117 142.5,-117 5.5,-117"/>
<polygon fill="#666666" stroke="#666666" points="5.5,-102 5.5,-102 142.5,-102 142.5,-102 5.5,-102"/>
<polygon fill="none" stroke="#666666" points="5,-85 5,-145 142,-145 142,-85 5,-85"/>
</a>
</g>
</g>
<!-- Node2 -->
<g id="Node000002" class="node">
<title>Node2</title>
<g id="a_Node000002"><a xlink:href="structcxx_1_1Ref__obj__list__item.html" target="_top" xlink:title="Item for list linked via cxx::Ref_ptr with default refence counting.">
<polygon fill="white" stroke="transparent" points="147,-49 0,-49 0,0 147,0 147,-49"/>
<text text-anchor="start" x="5.5" y="-36.5" font-family="Helvetica,sans-Serif" font-size="10.00">cxx::Ref_obj_list_item&lt; T &gt;</text>
<text text-anchor="start" x="72" y="-21.5" font-family="Helvetica,sans-Serif" font-size="10.00"> </text>
<text text-anchor="start" x="72" y="-6.5" font-family="Helvetica,sans-Serif" font-size="10.00"> </text>
<polygon fill="#666666" stroke="#666666" points="0.5,-31.5 0.5,-31.5 147.5,-31.5 147.5,-31.5 0.5,-31.5"/>
<polygon fill="#666666" stroke="#666666" points="0.5,-16.5 0.5,-16.5 147.5,-16.5 147.5,-16.5 0.5,-16.5"/>
<polygon fill="none" stroke="#666666" points="0,0 0,-49 147,-49 147,0 0,0"/>
</a>
</g>
</g>
<!-- Node1&#45;&gt;Node2 -->
<g id="edge1_Node000001_Node000002" class="edge">
<title>Node1&#45;&gt;Node2</title>
<g id="a_edge1_Node000001_Node000002"><a xlink:title=" ">
<path fill="none" stroke="#63b8ff" d="M73.5,-74.3C73.5,-65.75 73.5,-56.97 73.5,-49.26"/>
<polygon fill="none" stroke="#63b8ff" points="70,-74.53 73.5,-84.53 77,-74.53 70,-74.53"/>
</a>
</g>
</g>
</g>
</svg>
