<?xml version="1.0" encoding="UTF-8" standalone="no"?>
<!DOCTYPE svg PUBLIC "-//W3C//DTD SVG 1.1//EN"
 "http://www.w3.org/Graphics/SVG/1.1/DTD/svg11.dtd">
<!-- Generated by graphviz version 2.42.4 (0)
 -->
<!-- Title: L4::Irq::wait Pages: 1 -->
<svg width="210pt" height="45pt"
 viewBox="0.00 0.00 210.00 45.00" xmlns="http://www.w3.org/2000/svg" xmlns:xlink="http://www.w3.org/1999/xlink">
<g id="graph0" class="graph" transform="scale(1 1) rotate(0) translate(4 41)">
<title>L4::Irq::wait</title>
<!-- Node1 -->
<g id="Node000001" class="node">
<title>Node1</title>
<g id="a_Node000001"><a xlink:title="Unmask IRQ and (open) wait for any message.">
<polygon fill="#999999" stroke="#666666" points="74,-19 0,-19 0,0 74,0 74,-19"/>
<text text-anchor="middle" x="37" y="-7" font-family="Helvetica,sans-Serif" font-size="10.00">L4::Irq::wait</text>
</a>
</g>
</g>
<!-- Node2 -->
<g id="Node000002" class="node">
<title>Node2</title>
<g id="a_Node000002"><a xlink:href="classL4_1_1Irq.html#a9719b8fca30723b52981bed686764901" target="_top" xlink:title="Unmask this IRQ.">
<polygon fill="white" stroke="#666666" points="202,-19 110,-19 110,0 202,0 202,-19"/>
<text text-anchor="middle" x="156" y="-7" font-family="Helvetica,sans-Serif" font-size="10.00">L4::Irq::unmask</text>
</a>
</g>
</g>
<!-- Node1&#45;&gt;Node2 -->
<g id="edge1_Node000001_Node000002" class="edge">
<title>Node1&#45;&gt;Node2</title>
<g id="a_edge1_Node000001_Node000002"><a xlink:title=" ">
<path fill="none" stroke="#63b8ff" d="M74.06,-9.5C82.17,-9.5 90.95,-9.5 99.64,-9.5"/>
<polygon fill="#63b8ff" stroke="#63b8ff" points="99.76,-13 109.76,-9.5 99.76,-6 99.76,-13"/>
</a>
</g>
</g>
<!-- Node2&#45;&gt;Node2 -->
<g id="edge2_Node000002_Node000002" class="edge">
<title>Node2&#45;&gt;Node2</title>
<g id="a_edge2_Node000002_Node000002"><a xlink:title=" ">
<path fill="none" stroke="#63b8ff" d="M137.81,-19.08C128.96,-27.73 135.03,-37 156,-37 169.11,-37 176.39,-33.38 177.85,-28.55"/>
<polygon fill="#63b8ff" stroke="#63b8ff" points="181.06,-27.15 174.19,-19.08 174.53,-29.67 181.06,-27.15"/>
</a>
</g>
</g>
</g>
</svg>
