<?xml version="1.0" encoding="UTF-8" standalone="no"?>
<!DOCTYPE svg PUBLIC "-//W3C//DTD SVG 1.1//EN"
 "http://www.w3.org/Graphics/SVG/1.1/DTD/svg11.dtd">
<!-- Generated by graphviz version 2.43.0 (0)
 -->
<!-- Title: L4vbus::Gpio_pin Pages: 1 -->
<svg width="330pt" height="1096pt"
 viewBox="0.00 0.00 329.50 1096.00" xmlns="http://www.w3.org/2000/svg" xmlns:xlink="http://www.w3.org/1999/xlink">
<g id="graph0" class="graph" transform="scale(1 1) rotate(0) translate(4 1092)">
<title>L4vbus::Gpio_pin</title>
<!-- Node1 -->
<g id="Node000001" class="node">
<title>Node1</title>
<g id="a_Node000001"><a xlink:title="A GPIO pin.">
<polygon fill="#999999" stroke="transparent" points="181.5,-154 87.5,-154 87.5,0 181.5,0 181.5,-154"/>
<text text-anchor="start" x="92.5" y="-142" font-family="Helvetica,sans-Serif" font-size="10.00">L4vbus::Gpio_pin</text>
<text text-anchor="start" x="132.5" y="-127" font-family="Helvetica,sans-Serif" font-size="10.00"> </text>
<text text-anchor="start" x="94.5" y="-112" font-family="Helvetica,sans-Serif" font-size="10.00">+</text>
<text text-anchor="start" x="110.5" y="-112" font-family="Helvetica,sans-Serif" font-size="10.00">get()</text>
<text text-anchor="start" x="94.5" y="-97" font-family="Helvetica,sans-Serif" font-size="10.00">+</text>
<text text-anchor="start" x="110.5" y="-97" font-family="Helvetica,sans-Serif" font-size="10.00">set()</text>
<text text-anchor="start" x="94.5" y="-82" font-family="Helvetica,sans-Serif" font-size="10.00">+</text>
<text text-anchor="start" x="110.5" y="-82" font-family="Helvetica,sans-Serif" font-size="10.00">setup()</text>
<text text-anchor="start" x="94.5" y="-67" font-family="Helvetica,sans-Serif" font-size="10.00">+</text>
<text text-anchor="start" x="110.5" y="-67" font-family="Helvetica,sans-Serif" font-size="10.00">config_pull()</text>
<text text-anchor="start" x="94.5" y="-52" font-family="Helvetica,sans-Serif" font-size="10.00">+</text>
<text text-anchor="start" x="110.5" y="-52" font-family="Helvetica,sans-Serif" font-size="10.00">config_pad()</text>
<text text-anchor="start" x="94.5" y="-37" font-family="Helvetica,sans-Serif" font-size="10.00">+</text>
<text text-anchor="start" x="110.5" y="-37" font-family="Helvetica,sans-Serif" font-size="10.00">config_get()</text>
<text text-anchor="start" x="94.5" y="-22" font-family="Helvetica,sans-Serif" font-size="10.00">+</text>
<text text-anchor="start" x="110.5" y="-22" font-family="Helvetica,sans-Serif" font-size="10.00">to_irq()</text>
<text text-anchor="start" x="94.5" y="-7" font-family="Helvetica,sans-Serif" font-size="10.00">+</text>
<text text-anchor="start" x="110.5" y="-7" font-family="Helvetica,sans-Serif" font-size="10.00">pin()</text>
<polygon fill="#666666" stroke="#666666" points="87.5,-137 87.5,-137 181.5,-137 181.5,-137 87.5,-137"/>
<polygon fill="#666666" stroke="#666666" points="87.5,-122 87.5,-122 181.5,-122 181.5,-122 87.5,-122"/>
<polygon fill="none" stroke="#666666" points="87.5,0 87.5,-154 181.5,-154 181.5,0 87.5,0"/>
</a>
</g>
</g>
<!-- Node2 -->
<g id="Node000002" class="node">
<title>Node2</title>
<g id="a_Node000002"><a xlink:href="classL4vbus_1_1Device.html" target="_top" xlink:title="Device on a L4vbus::Vbus.">
<polygon fill="white" stroke="transparent" points="184,-390 85,-390 85,-191 184,-191 184,-390"/>
<text text-anchor="start" x="97.5" y="-377.5" font-family="Helvetica,sans-Serif" font-size="10.00">L4vbus::Device</text>
<text text-anchor="start" x="89.5" y="-362.5" font-family="Helvetica,sans-Serif" font-size="10.00">#</text>
<text text-anchor="start" x="102.5" y="-362.5" font-family="Helvetica,sans-Serif" font-size="10.00">_dev</text>
<text text-anchor="start" x="89.5" y="-347.5" font-family="Helvetica,sans-Serif" font-size="10.00">+</text>
<text text-anchor="start" x="102.5" y="-347.5" font-family="Helvetica,sans-Serif" font-size="10.00">Device()</text>
<text text-anchor="start" x="89.5" y="-332.5" font-family="Helvetica,sans-Serif" font-size="10.00">+</text>
<text text-anchor="start" x="102.5" y="-332.5" font-family="Helvetica,sans-Serif" font-size="10.00">Device()</text>
<text text-anchor="start" x="89.5" y="-317.5" font-family="Helvetica,sans-Serif" font-size="10.00">+</text>
<text text-anchor="start" x="102.5" y="-317.5" font-family="Helvetica,sans-Serif" font-size="10.00">bus_cap()</text>
<text text-anchor="start" x="89.5" y="-302.5" font-family="Helvetica,sans-Serif" font-size="10.00">+</text>
<text text-anchor="start" x="102.5" y="-302.5" font-family="Helvetica,sans-Serif" font-size="10.00">dev_handle()</text>
<text text-anchor="start" x="89.5" y="-287.5" font-family="Helvetica,sans-Serif" font-size="10.00">+</text>
<text text-anchor="start" x="102.5" y="-287.5" font-family="Helvetica,sans-Serif" font-size="10.00">device_by_hid()</text>
<text text-anchor="start" x="89.5" y="-272.5" font-family="Helvetica,sans-Serif" font-size="10.00">+</text>
<text text-anchor="start" x="102.5" y="-272.5" font-family="Helvetica,sans-Serif" font-size="10.00">next_device()</text>
<text text-anchor="start" x="89.5" y="-257.5" font-family="Helvetica,sans-Serif" font-size="10.00">+</text>
<text text-anchor="start" x="102.5" y="-257.5" font-family="Helvetica,sans-Serif" font-size="10.00">device()</text>
<text text-anchor="start" x="89.5" y="-242.5" font-family="Helvetica,sans-Serif" font-size="10.00">+</text>
<text text-anchor="start" x="102.5" y="-242.5" font-family="Helvetica,sans-Serif" font-size="10.00">get_resource()</text>
<text text-anchor="start" x="89.5" y="-227.5" font-family="Helvetica,sans-Serif" font-size="10.00">+</text>
<text text-anchor="start" x="102.5" y="-227.5" font-family="Helvetica,sans-Serif" font-size="10.00">is_compatible()</text>
<text text-anchor="start" x="89.5" y="-212.5" font-family="Helvetica,sans-Serif" font-size="10.00">+</text>
<text text-anchor="start" x="102.5" y="-212.5" font-family="Helvetica,sans-Serif" font-size="10.00">operator==()</text>
<text text-anchor="start" x="89.5" y="-197.5" font-family="Helvetica,sans-Serif" font-size="10.00">+</text>
<text text-anchor="start" x="102.5" y="-197.5" font-family="Helvetica,sans-Serif" font-size="10.00">operator!=()</text>
<polygon fill="#666666" stroke="#666666" points="85.5,-372.5 85.5,-372.5 184.5,-372.5 184.5,-372.5 85.5,-372.5"/>
<polygon fill="#666666" stroke="#666666" points="85.5,-357.5 85.5,-357.5 100.5,-357.5 100.5,-357.5 85.5,-357.5"/>
<polygon fill="#666666" stroke="#666666" points="100.5,-357.5 100.5,-357.5 184.5,-357.5 184.5,-357.5 100.5,-357.5"/>
<polygon fill="none" stroke="#666666" points="85,-191 85,-390 184,-390 184,-191 85,-191"/>
</a>
</g>
</g>
<!-- Node2&#45;&gt;Node1 -->
<g id="edge1_Node000001_Node000002" class="edge">
<title>Node2&#45;&gt;Node1</title>
<g id="a_edge1_Node000001_Node000002"><a xlink:title=" ">
<path fill="none" stroke="#63b8ff" d="M134.5,-180.7C134.5,-171.68 134.5,-162.7 134.5,-154.01"/>
<polygon fill="none" stroke="#63b8ff" points="131,-180.87 134.5,-190.87 138,-180.87 131,-180.87"/>
</a>
</g>
</g>
<!-- Node3 -->
<g id="Node000003" class="node">
<title>Node3</title>
<g id="a_Node000003"><a xlink:href="classL4vbus_1_1Pm.html" target="_top" xlink:title=" ">
<polygon fill="white" stroke="transparent" points="123,-546 0,-546 0,-482 123,-482 123,-546"/>
<text text-anchor="start" x="5.5" y="-534" font-family="Helvetica,sans-Serif" font-size="10.00">L4vbus::Pm&lt; Device &gt;</text>
<text text-anchor="start" x="60" y="-519" font-family="Helvetica,sans-Serif" font-size="10.00"> </text>
<text text-anchor="start" x="12.5" y="-504" font-family="Helvetica,sans-Serif" font-size="10.00">+</text>
<text text-anchor="start" x="33.5" y="-504" font-family="Helvetica,sans-Serif" font-size="10.00">pm_suspend()</text>
<text text-anchor="start" x="12.5" y="-489" font-family="Helvetica,sans-Serif" font-size="10.00">+</text>
<text text-anchor="start" x="33.5" y="-489" font-family="Helvetica,sans-Serif" font-size="10.00">pm_resume()</text>
<polygon fill="#666666" stroke="#666666" points="0.5,-529 0.5,-529 123.5,-529 123.5,-529 0.5,-529"/>
<polygon fill="#666666" stroke="#666666" points="0.5,-514 0.5,-514 123.5,-514 123.5,-514 0.5,-514"/>
<polygon fill="none" stroke="#666666" points="0,-482 0,-546 123,-546 123,-482 0,-482"/>
</a>
</g>
</g>
<!-- Node3&#45;&gt;Node2 -->
<g id="edge2_Node000002_Node000003" class="edge">
<title>Node3&#45;&gt;Node2</title>
<g id="a_edge2_Node000002_Node000003"><a xlink:title=" ">
<path fill="none" stroke="#63b8ff" d="M75.02,-471.97C82.62,-448.9 92.47,-419.04 101.95,-390.27"/>
<polygon fill="none" stroke="#63b8ff" points="71.61,-471.14 71.8,-481.73 78.26,-473.33 71.61,-471.14"/>
</a>
</g>
</g>
<!-- Node4 -->
<g id="Node000004" class="node">
<title>Node4</title>
<g id="a_Node000004"><a xlink:href="classL4vbus_1_1Pm.html" target="_top" xlink:title="Power&#45;management API mixin.">
<polygon fill="white" stroke="transparent" points="116.5,-747 6.5,-747 6.5,-683 116.5,-683 116.5,-747"/>
<text text-anchor="start" x="11.5" y="-735" font-family="Helvetica,sans-Serif" font-size="10.00">L4vbus::Pm&lt; DEC &gt;</text>
<text text-anchor="start" x="59.5" y="-720" font-family="Helvetica,sans-Serif" font-size="10.00"> </text>
<text text-anchor="start" x="15" y="-705" font-family="Helvetica,sans-Serif" font-size="10.00">+</text>
<text text-anchor="start" x="32.5" y="-705" font-family="Helvetica,sans-Serif" font-size="10.00">pm_suspend()</text>
<text text-anchor="start" x="15" y="-690" font-family="Helvetica,sans-Serif" font-size="10.00">+</text>
<text text-anchor="start" x="32.5" y="-690" font-family="Helvetica,sans-Serif" font-size="10.00">pm_resume()</text>
<polygon fill="#666666" stroke="#666666" points="6.5,-730 6.5,-730 116.5,-730 116.5,-730 6.5,-730"/>
<polygon fill="#666666" stroke="#666666" points="6.5,-715 6.5,-715 116.5,-715 116.5,-715 6.5,-715"/>
<polygon fill="none" stroke="#666666" points="6.5,-683 6.5,-747 116.5,-747 116.5,-683 6.5,-683"/>
</a>
</g>
</g>
<!-- Node4&#45;&gt;Node3 -->
<g id="edge3_Node000003_Node000004" class="edge">
<title>Node4&#45;&gt;Node3</title>
<g id="a_edge3_Node000003_Node000004"><a xlink:title=" ">
<path fill="none" stroke="orange" d="M61.5,-672.78C61.5,-635.14 61.5,-580.32 61.5,-546.2"/>
<polygon fill="orange" stroke="orange" points="58,-672.91 61.5,-682.91 65,-672.91 58,-672.91"/>
</a>
</g>
<text text-anchor="middle" x="91.5" y="-612" font-family="Helvetica,sans-Serif" font-size="10.00" fill="grey"> &lt; Device &gt;</text>
</g>
<!-- Node5 -->
<g id="Node000005" class="node">
<title>Node5</title>
<g id="a_Node000005"><a xlink:href="classL4_1_1Cap.html" target="_top" xlink:title=" ">
<polygon fill="white" stroke="transparent" points="275.5,-591 141.5,-591 141.5,-437 275.5,-437 275.5,-591"/>
<text text-anchor="start" x="146.5" y="-579" font-family="Helvetica,sans-Serif" font-size="10.00">L4::Cap&lt; L4vbus::Vbus &gt;</text>
<text text-anchor="start" x="206.5" y="-564" font-family="Helvetica,sans-Serif" font-size="10.00"> </text>
<text text-anchor="start" x="158.5" y="-549" font-family="Helvetica,sans-Serif" font-size="10.00">+</text>
<text text-anchor="start" x="184.5" y="-549" font-family="Helvetica,sans-Serif" font-size="10.00">Cap()</text>
<text text-anchor="start" x="158.5" y="-534" font-family="Helvetica,sans-Serif" font-size="10.00">+</text>
<text text-anchor="start" x="184.5" y="-534" font-family="Helvetica,sans-Serif" font-size="10.00">Cap()</text>
<text text-anchor="start" x="158.5" y="-519" font-family="Helvetica,sans-Serif" font-size="10.00">+</text>
<text text-anchor="start" x="184.5" y="-519" font-family="Helvetica,sans-Serif" font-size="10.00">Cap()</text>
<text text-anchor="start" x="158.5" y="-504" font-family="Helvetica,sans-Serif" font-size="10.00">+</text>
<text text-anchor="start" x="184.5" y="-504" font-family="Helvetica,sans-Serif" font-size="10.00">Cap()</text>
<text text-anchor="start" x="158.5" y="-489" font-family="Helvetica,sans-Serif" font-size="10.00">+</text>
<text text-anchor="start" x="184.5" y="-489" font-family="Helvetica,sans-Serif" font-size="10.00">Cap()</text>
<text text-anchor="start" x="158.5" y="-474" font-family="Helvetica,sans-Serif" font-size="10.00">+</text>
<text text-anchor="start" x="184.5" y="-474" font-family="Helvetica,sans-Serif" font-size="10.00">move()</text>
<text text-anchor="start" x="158.5" y="-459" font-family="Helvetica,sans-Serif" font-size="10.00">+</text>
<text text-anchor="start" x="184.5" y="-459" font-family="Helvetica,sans-Serif" font-size="10.00">copy()</text>
<text text-anchor="start" x="158.5" y="-444" font-family="Helvetica,sans-Serif" font-size="10.00">+</text>
<text text-anchor="start" x="184.5" y="-444" font-family="Helvetica,sans-Serif" font-size="10.00">operator&#45;&gt;()</text>
<polygon fill="#666666" stroke="#666666" points="141.5,-574 141.5,-574 275.5,-574 275.5,-574 141.5,-574"/>
<polygon fill="#666666" stroke="#666666" points="141.5,-559 141.5,-559 275.5,-559 275.5,-559 141.5,-559"/>
<polygon fill="none" stroke="#666666" points="141.5,-437 141.5,-591 275.5,-591 275.5,-437 141.5,-437"/>
</a>
</g>
</g>
<!-- Node5&#45;&gt;Node2 -->
<g id="edge4_Node000002_Node000005" class="edge">
<title>Node5&#45;&gt;Node2</title>
<g id="a_edge4_Node000002_Node000005"><a xlink:title=" ">
<path fill="none" stroke="#63b8ff" d="M183.03,-436.77C179.23,-425.39 175.25,-413.47 171.27,-401.56"/>
<polygon fill="none" stroke="#63b8ff" points="171.27,-401.55 165.57,-397.12 167.46,-390.16 173.16,-394.59 171.27,-401.55"/>
</a>
</g>
<text text-anchor="middle" x="193.5" y="-411" font-family="Helvetica,sans-Serif" font-size="10.00" fill="grey"> #_bus</text>
</g>
<!-- Node6 -->
<g id="Node000006" class="node">
<title>Node6</title>
<g id="a_Node000006"><a xlink:href="classL4_1_1Cap__base.html" target="_top" xlink:title="Base class for all kinds of capabilities.">
<polygon fill="white" stroke="transparent" points="240,-1088 153,-1088 153,-829 240,-829 240,-1088"/>
<text text-anchor="start" x="164.5" y="-1075.5" font-family="Helvetica,sans-Serif" font-size="10.00">L4::Cap_base</text>
<text text-anchor="start" x="157.5" y="-1060.5" font-family="Helvetica,sans-Serif" font-size="10.00">#</text>
<text text-anchor="start" x="170.5" y="-1060.5" font-family="Helvetica,sans-Serif" font-size="10.00">_c</text>
<text text-anchor="start" x="157.5" y="-1045.5" font-family="Helvetica,sans-Serif" font-size="10.00">+</text>
<text text-anchor="start" x="170.5" y="-1045.5" font-family="Helvetica,sans-Serif" font-size="10.00">cap()</text>
<text text-anchor="start" x="157.5" y="-1030.5" font-family="Helvetica,sans-Serif" font-size="10.00">+</text>
<text text-anchor="start" x="170.5" y="-1030.5" font-family="Helvetica,sans-Serif" font-size="10.00">is_valid()</text>
<text text-anchor="start" x="157.5" y="-1015.5" font-family="Helvetica,sans-Serif" font-size="10.00">+</text>
<text text-anchor="start" x="170.5" y="-1015.5" font-family="Helvetica,sans-Serif" font-size="10.00">fpage()</text>
<text text-anchor="start" x="157.5" y="-1000.5" font-family="Helvetica,sans-Serif" font-size="10.00">+</text>
<text text-anchor="start" x="170.5" y="-1000.5" font-family="Helvetica,sans-Serif" font-size="10.00">snd_base()</text>
<text text-anchor="start" x="157.5" y="-985.5" font-family="Helvetica,sans-Serif" font-size="10.00">+</text>
<text text-anchor="start" x="170.5" y="-985.5" font-family="Helvetica,sans-Serif" font-size="10.00">operator==()</text>
<text text-anchor="start" x="157.5" y="-970.5" font-family="Helvetica,sans-Serif" font-size="10.00">+</text>
<text text-anchor="start" x="170.5" y="-970.5" font-family="Helvetica,sans-Serif" font-size="10.00">operator!=()</text>
<text text-anchor="start" x="157.5" y="-955.5" font-family="Helvetica,sans-Serif" font-size="10.00">+</text>
<text text-anchor="start" x="170.5" y="-955.5" font-family="Helvetica,sans-Serif" font-size="10.00">validate()</text>
<text text-anchor="start" x="157.5" y="-940.5" font-family="Helvetica,sans-Serif" font-size="10.00">+</text>
<text text-anchor="start" x="170.5" y="-940.5" font-family="Helvetica,sans-Serif" font-size="10.00">validate()</text>
<text text-anchor="start" x="157.5" y="-925.5" font-family="Helvetica,sans-Serif" font-size="10.00">+</text>
<text text-anchor="start" x="170.5" y="-925.5" font-family="Helvetica,sans-Serif" font-size="10.00">invalidate()</text>
<text text-anchor="start" x="157.5" y="-910.5" font-family="Helvetica,sans-Serif" font-size="10.00">#</text>
<text text-anchor="start" x="170.5" y="-910.5" font-family="Helvetica,sans-Serif" font-size="10.00">Cap_base()</text>
<text text-anchor="start" x="157.5" y="-895.5" font-family="Helvetica,sans-Serif" font-size="10.00">#</text>
<text text-anchor="start" x="170.5" y="-895.5" font-family="Helvetica,sans-Serif" font-size="10.00">Cap_base()</text>
<text text-anchor="start" x="157.5" y="-880.5" font-family="Helvetica,sans-Serif" font-size="10.00">#</text>
<text text-anchor="start" x="170.5" y="-880.5" font-family="Helvetica,sans-Serif" font-size="10.00">Cap_base()</text>
<text text-anchor="start" x="157.5" y="-865.5" font-family="Helvetica,sans-Serif" font-size="10.00">#</text>
<text text-anchor="start" x="170.5" y="-865.5" font-family="Helvetica,sans-Serif" font-size="10.00">Cap_base()</text>
<text text-anchor="start" x="157.5" y="-850.5" font-family="Helvetica,sans-Serif" font-size="10.00">#</text>
<text text-anchor="start" x="170.5" y="-850.5" font-family="Helvetica,sans-Serif" font-size="10.00">move()</text>
<text text-anchor="start" x="157.5" y="-835.5" font-family="Helvetica,sans-Serif" font-size="10.00">#</text>
<text text-anchor="start" x="170.5" y="-835.5" font-family="Helvetica,sans-Serif" font-size="10.00">copy()</text>
<polygon fill="#666666" stroke="#666666" points="153.5,-1070.5 153.5,-1070.5 240.5,-1070.5 240.5,-1070.5 153.5,-1070.5"/>
<polygon fill="#666666" stroke="#666666" points="153.5,-1055.5 153.5,-1055.5 168.5,-1055.5 168.5,-1055.5 153.5,-1055.5"/>
<polygon fill="#666666" stroke="#666666" points="168.5,-1055.5 168.5,-1055.5 240.5,-1055.5 240.5,-1055.5 168.5,-1055.5"/>
<polygon fill="none" stroke="#666666" points="153,-829 153,-1088 240,-1088 240,-829 153,-829"/>
</a>
</g>
</g>
<!-- Node6&#45;&gt;Node5 -->
<g id="edge5_Node000005_Node000006" class="edge">
<title>Node6&#45;&gt;Node5</title>
<g id="a_edge5_Node000005_Node000006"><a xlink:title=" ">
<path fill="none" stroke="#63b8ff" d="M198.97,-818.83C200.12,-762.69 201.65,-697.25 203.5,-638 203.97,-622.83 204.57,-606.62 205.18,-591.1"/>
<polygon fill="none" stroke="#63b8ff" points="195.47,-818.77 198.77,-828.84 202.47,-818.92 195.47,-818.77"/>
</a>
</g>
</g>
<!-- Node7 -->
<g id="Node000007" class="node">
<title>Node7</title>
<g id="a_Node000007"><a xlink:href="classL4_1_1Cap.html" target="_top" xlink:title="C++ interface for capabilities.">
<polygon fill="white" stroke="transparent" points="294.5,-792 212.5,-792 212.5,-638 294.5,-638 294.5,-792"/>
<text text-anchor="start" x="221" y="-780" font-family="Helvetica,sans-Serif" font-size="10.00">L4::Cap&lt; T &gt;</text>
<text text-anchor="start" x="251.5" y="-765" font-family="Helvetica,sans-Serif" font-size="10.00"> </text>
<text text-anchor="start" x="216.5" y="-750" font-family="Helvetica,sans-Serif" font-size="10.00">+</text>
<text text-anchor="start" x="229.5" y="-750" font-family="Helvetica,sans-Serif" font-size="10.00">Cap()</text>
<text text-anchor="start" x="216.5" y="-735" font-family="Helvetica,sans-Serif" font-size="10.00">+</text>
<text text-anchor="start" x="229.5" y="-735" font-family="Helvetica,sans-Serif" font-size="10.00">Cap()</text>
<text text-anchor="start" x="216.5" y="-720" font-family="Helvetica,sans-Serif" font-size="10.00">+</text>
<text text-anchor="start" x="229.5" y="-720" font-family="Helvetica,sans-Serif" font-size="10.00">Cap()</text>
<text text-anchor="start" x="216.5" y="-705" font-family="Helvetica,sans-Serif" font-size="10.00">+</text>
<text text-anchor="start" x="229.5" y="-705" font-family="Helvetica,sans-Serif" font-size="10.00">Cap()</text>
<text text-anchor="start" x="216.5" y="-690" font-family="Helvetica,sans-Serif" font-size="10.00">+</text>
<text text-anchor="start" x="229.5" y="-690" font-family="Helvetica,sans-Serif" font-size="10.00">Cap()</text>
<text text-anchor="start" x="216.5" y="-675" font-family="Helvetica,sans-Serif" font-size="10.00">+</text>
<text text-anchor="start" x="229.5" y="-675" font-family="Helvetica,sans-Serif" font-size="10.00">move()</text>
<text text-anchor="start" x="216.5" y="-660" font-family="Helvetica,sans-Serif" font-size="10.00">+</text>
<text text-anchor="start" x="229.5" y="-660" font-family="Helvetica,sans-Serif" font-size="10.00">copy()</text>
<text text-anchor="start" x="216.5" y="-645" font-family="Helvetica,sans-Serif" font-size="10.00">+</text>
<text text-anchor="start" x="229.5" y="-645" font-family="Helvetica,sans-Serif" font-size="10.00">operator&#45;&gt;()</text>
<polygon fill="#666666" stroke="#666666" points="212.5,-775 212.5,-775 294.5,-775 294.5,-775 212.5,-775"/>
<polygon fill="#666666" stroke="#666666" points="212.5,-760 212.5,-760 294.5,-760 294.5,-760 212.5,-760"/>
<polygon fill="none" stroke="#666666" points="212.5,-638 212.5,-792 294.5,-792 294.5,-638 212.5,-638"/>
</a>
</g>
</g>
<!-- Node6&#45;&gt;Node7 -->
<g id="edge7_Node000007_Node000006" class="edge">
<title>Node6&#45;&gt;Node7</title>
<g id="a_edge7_Node000007_Node000006"><a xlink:title=" ">
<path fill="none" stroke="#63b8ff" d="M229.2,-818.95C231.37,-809.76 233.51,-800.71 235.56,-792.02"/>
<polygon fill="none" stroke="#63b8ff" points="225.73,-818.44 226.84,-828.97 232.54,-820.04 225.73,-818.44"/>
</a>
</g>
</g>
<!-- Node7&#45;&gt;Node5 -->
<g id="edge6_Node000005_Node000007" class="edge">
<title>Node7&#45;&gt;Node5</title>
<g id="a_edge6_Node000005_Node000007"><a xlink:title=" ">
<path fill="none" stroke="orange" d="M234.08,-628.1C231.29,-615.78 228.44,-603.16 225.7,-591.04"/>
<polygon fill="orange" stroke="orange" points="230.68,-628.93 236.29,-637.91 237.5,-627.39 230.68,-628.93"/>
</a>
</g>
<text text-anchor="middle" x="276" y="-612" font-family="Helvetica,sans-Serif" font-size="10.00" fill="grey"> &lt; L4vbus::Vbus &gt;</text>
</g>
</g>
</svg>
