<?xml version="1.0" encoding="UTF-8" standalone="no"?>
<!DOCTYPE svg PUBLIC "-//W3C//DTD SVG 1.1//EN"
 "http://www.w3.org/Graphics/SVG/1.1/DTD/svg11.dtd">
<!-- Generated by graphviz version 2.43.0 (0)
 -->
<!-- Title: l4/sys/debugger Pages: 1 -->
<svg width="760pt" height="588pt"
 viewBox="0.00 0.00 759.58 588.00" xmlns="http://www.w3.org/2000/svg" xmlns:xlink="http://www.w3.org/1999/xlink">
<g id="graph0" class="graph" transform="scale(1 1) rotate(0) translate(4 584)">
<title>l4/sys/debugger</title>
<!-- Node1 -->
<g id="Node000001" class="node">
<title>Node1</title>
<g id="a_Node000001"><a xlink:title="The debugger interface specifies common debugging related definitions.">
<polygon fill="#999999" stroke="#666666" points="368,-580 274,-580 274,-561 368,-561 368,-580"/>
<text text-anchor="middle" x="321" y="-568" font-family="Helvetica,sans-Serif" font-size="10.00">l4/sys/debugger</text>
</a>
</g>
</g>
<!-- Node2 -->
<g id="Node000002" class="node">
<title>Node2</title>
<g id="a_Node000002"><a xlink:href="debugger_8h.html" target="_top" xlink:title="Debugger related definitions.">
<polygon fill="white" stroke="#666666" points="127,-470 25,-470 25,-451 127,-451 127,-470"/>
<text text-anchor="middle" x="76" y="-458" font-family="Helvetica,sans-Serif" font-size="10.00">l4/sys/debugger.h</text>
</a>
</g>
</g>
<!-- Node1&#45;&gt;Node2 -->
<g id="edge1_Node000001_Node000002" class="edge">
<title>Node1&#45;&gt;Node2</title>
<g id="a_edge1_Node000001_Node000002"><a xlink:title=" ">
<path fill="none" stroke="#63b8ff" d="M301.36,-560.84C258.25,-541.84 155.15,-496.39 104.73,-474.17"/>
<polygon fill="#63b8ff" stroke="#63b8ff" points="105.95,-470.88 95.39,-470.05 103.13,-477.28 105.95,-470.88"/>
</a>
</g>
</g>
<!-- Node15 -->
<g id="Node000015" class="node">
<title>Node15</title>
<g id="a_Node000015"><a xlink:href="kobject_source.html" target="_top" xlink:title=" ">
<polygon fill="white" stroke="#666666" points="471.5,-525 388.5,-525 388.5,-506 471.5,-506 471.5,-525"/>
<text text-anchor="middle" x="430" y="-513" font-family="Helvetica,sans-Serif" font-size="10.00">l4/sys/kobject</text>
</a>
</g>
</g>
<!-- Node1&#45;&gt;Node15 -->
<g id="edge29_Node000001_Node000015" class="edge">
<title>Node1&#45;&gt;Node15</title>
<g id="a_edge29_Node000001_Node000015"><a xlink:title=" ">
<path fill="none" stroke="#63b8ff" d="M338.51,-560.98C355.97,-552.5 383.01,-539.35 403.17,-529.54"/>
<polygon fill="#63b8ff" stroke="#63b8ff" points="404.71,-532.69 412.17,-525.17 401.64,-526.4 404.71,-532.69"/>
</a>
</g>
</g>
<!-- Node3 -->
<g id="Node000003" class="node">
<title>Node3</title>
<g id="a_Node000003"><a xlink:href="compiler_8h.html" target="_top" xlink:title="L4 compiler related defines.">
<polygon fill="white" stroke="#666666" points="340.5,-74 241.5,-74 241.5,-55 340.5,-55 340.5,-74"/>
<text text-anchor="middle" x="291" y="-62" font-family="Helvetica,sans-Serif" font-size="10.00">l4/sys/compiler.h</text>
</a>
</g>
</g>
<!-- Node2&#45;&gt;Node3 -->
<g id="edge2_Node000002_Node000003" class="edge">
<title>Node2&#45;&gt;Node3</title>
<g id="a_edge2_Node000002_Node000003"><a xlink:title=" ">
<path fill="none" stroke="#63b8ff" d="M64.79,-450.85C43.65,-433.46 0,-392.01 0,-346 0,-346 0,-346 0,-173.5 0,-124.63 146.08,-90.8 231.24,-75.22"/>
<polygon fill="#63b8ff" stroke="#63b8ff" points="232.08,-78.63 241.31,-73.41 230.84,-71.74 232.08,-78.63"/>
</a>
</g>
</g>
<!-- Node5 -->
<g id="Node000005" class="node">
<title>Node5</title>
<g id="a_Node000005"><a xlink:href="l4_2sys_2utcb_8h.html" target="_top" xlink:title="UTCB definitions.">
<polygon fill="white" stroke="#666666" points="384,-239 306,-239 306,-220 384,-220 384,-239"/>
<text text-anchor="middle" x="345" y="-227" font-family="Helvetica,sans-Serif" font-size="10.00">l4/sys/utcb.h</text>
</a>
</g>
</g>
<!-- Node2&#45;&gt;Node5 -->
<g id="edge4_Node000002_Node000005" class="edge">
<title>Node2&#45;&gt;Node5</title>
<g id="a_edge4_Node000002_Node000005"><a xlink:title=" ">
<path fill="none" stroke="#63b8ff" d="M75.59,-450.79C74.98,-428.12 76.43,-366.51 107,-330 137.58,-293.47 155.45,-294.31 199,-275 231.18,-260.73 269.27,-249.29 298.48,-241.58"/>
<polygon fill="#63b8ff" stroke="#63b8ff" points="299.61,-244.91 308.42,-239.01 297.86,-238.13 299.61,-244.91"/>
</a>
</g>
</g>
<!-- Node11 -->
<g id="Node000011" class="node">
<title>Node11</title>
<g id="a_Node000011"><a xlink:href="l4_2sys_2ipc_8h.html" target="_top" xlink:title="Common IPC interface.">
<polygon fill="white" stroke="#666666" points="278.5,-294 207.5,-294 207.5,-275 278.5,-275 278.5,-294"/>
<text text-anchor="middle" x="243" y="-282" font-family="Helvetica,sans-Serif" font-size="10.00">l4/sys/ipc.h</text>
</a>
</g>
</g>
<!-- Node2&#45;&gt;Node11 -->
<g id="edge17_Node000002_Node000011" class="edge">
<title>Node2&#45;&gt;Node11</title>
<g id="a_edge17_Node000002_Node000011"><a xlink:title=" ">
<path fill="none" stroke="#63b8ff" d="M77.45,-450.97C81.76,-428.22 96.51,-365.41 133,-330 150.69,-312.83 175.88,-301.99 197.69,-295.31"/>
<polygon fill="#63b8ff" stroke="#63b8ff" points="198.78,-298.64 207.44,-292.53 196.86,-291.91 198.78,-298.64"/>
</a>
</g>
</g>
<!-- Node13 -->
<g id="Node000013" class="node">
<title>Node13</title>
<g id="a_Node000013"><a xlink:href="kernel__object_8h.html" target="_top" xlink:title="Kernel object system calls.">
<polygon fill="white" stroke="#666666" points="355,-415 233,-415 233,-396 355,-396 355,-415"/>
<text text-anchor="middle" x="294" y="-403" font-family="Helvetica,sans-Serif" font-size="10.00">l4/sys/kernel_object.h</text>
</a>
</g>
</g>
<!-- Node2&#45;&gt;Node13 -->
<g id="edge22_Node000002_Node000013" class="edge">
<title>Node2&#45;&gt;Node13</title>
<g id="a_edge22_Node000002_Node000013"><a xlink:title=" ">
<path fill="none" stroke="#63b8ff" d="M111.03,-450.98C148.5,-441.87 208.05,-427.4 248.98,-417.45"/>
<polygon fill="#63b8ff" stroke="#63b8ff" points="249.81,-420.85 258.7,-415.08 248.16,-414.04 249.81,-420.85"/>
</a>
</g>
</g>
<!-- Node4 -->
<g id="Node000004" class="node">
<title>Node4</title>
<g id="a_Node000004"><a xlink:title=" ">
<polygon fill="#e0e0e0" stroke="#999999" points="337,-19 245,-19 245,0 337,0 337,-19"/>
<text text-anchor="middle" x="291" y="-7" font-family="Helvetica,sans-Serif" font-size="10.00">l4/sys/linkage.h</text>
</a>
</g>
</g>
<!-- Node3&#45;&gt;Node4 -->
<g id="edge3_Node000003_Node000004" class="edge">
<title>Node3&#45;&gt;Node4</title>
<g id="a_edge3_Node000003_Node000004"><a xlink:title=" ">
<path fill="none" stroke="#63b8ff" d="M291,-54.75C291,-47.8 291,-37.85 291,-29.13"/>
<polygon fill="#63b8ff" stroke="#63b8ff" points="294.5,-29.09 291,-19.09 287.5,-29.09 294.5,-29.09"/>
</a>
</g>
</g>
<!-- Node5&#45;&gt;Node3 -->
<g id="edge15_Node000005_Node000003" class="edge">
<title>Node5&#45;&gt;Node3</title>
<g id="a_edge15_Node000005_Node000003"><a xlink:title=" ">
<path fill="none" stroke="#63b8ff" d="M341.77,-219.76C335.42,-202.5 320.99,-162.78 310,-129 305.1,-113.93 299.97,-96.71 296.28,-84"/>
<polygon fill="#63b8ff" stroke="#63b8ff" points="299.58,-82.81 293.45,-74.17 292.86,-84.75 299.58,-82.81"/>
</a>
</g>
</g>
<!-- Node6 -->
<g id="Node000006" class="node">
<title>Node6</title>
<g id="a_Node000006"><a xlink:href="l4_2sys_2types_8h.html" target="_top" xlink:title="Common L4 ABI Data Types.">
<polygon fill="white" stroke="#666666" points="537,-184 453,-184 453,-165 537,-165 537,-184"/>
<text text-anchor="middle" x="495" y="-172" font-family="Helvetica,sans-Serif" font-size="10.00">l4/sys/types.h</text>
</a>
</g>
</g>
<!-- Node5&#45;&gt;Node6 -->
<g id="edge5_Node000005_Node000006" class="edge">
<title>Node5&#45;&gt;Node6</title>
<g id="a_edge5_Node000005_Node000006"><a xlink:title=" ">
<path fill="none" stroke="#63b8ff" d="M369.1,-219.98C393.88,-211.23 432.7,-197.51 460.69,-187.62"/>
<polygon fill="#63b8ff" stroke="#63b8ff" points="462.2,-190.8 470.46,-184.17 459.87,-184.2 462.2,-190.8"/>
</a>
</g>
</g>
<!-- Node7 -->
<g id="Node000007" class="node">
<title>Node7</title>
<g id="a_Node000007"><a xlink:href="l4_2sys_2l4int_8h.html" target="_top" xlink:title="Fixed sized integer types, generic version.">
<polygon fill="white" stroke="#666666" points="673.5,-74 594.5,-74 594.5,-55 673.5,-55 673.5,-74"/>
<text text-anchor="middle" x="634" y="-62" font-family="Helvetica,sans-Serif" font-size="10.00">l4/sys/l4int.h</text>
</a>
</g>
</g>
<!-- Node5&#45;&gt;Node7 -->
<g id="edge16_Node000005_Node000007" class="edge">
<title>Node5&#45;&gt;Node7</title>
<g id="a_edge16_Node000005_Node000007"><a xlink:title=" ">
<path fill="none" stroke="#63b8ff" d="M384.11,-224.88C476.14,-215.47 701.92,-186.83 746,-129 766.71,-101.83 722.77,-84.47 683.99,-74.89"/>
<polygon fill="#63b8ff" stroke="#63b8ff" points="684.3,-71.37 673.77,-72.5 682.71,-78.18 684.3,-71.37"/>
</a>
</g>
</g>
<!-- Node6&#45;&gt;Node3 -->
<g id="edge7_Node000006_Node000003" class="edge">
<title>Node6&#45;&gt;Node3</title>
<g id="a_edge7_Node000006_Node000003"><a xlink:title=" ">
<path fill="none" stroke="#63b8ff" d="M489.47,-164.73C480.38,-151.03 461,-124.63 438,-110 411.75,-93.3 378.9,-82.58 350.91,-75.86"/>
<polygon fill="#63b8ff" stroke="#63b8ff" points="351.37,-72.37 340.84,-73.56 349.81,-79.2 351.37,-72.37"/>
</a>
</g>
</g>
<!-- Node6&#45;&gt;Node7 -->
<g id="edge6_Node000006_Node000007" class="edge">
<title>Node6&#45;&gt;Node7</title>
<g id="a_edge6_Node000006_Node000007"><a xlink:title=" ">
<path fill="none" stroke="#63b8ff" d="M495.23,-164.92C496.04,-151.49 499.52,-125.45 514,-110 532.43,-90.34 560.34,-79.32 584.6,-73.17"/>
<polygon fill="#63b8ff" stroke="#63b8ff" points="585.44,-76.56 594.38,-70.89 583.85,-69.75 585.44,-76.56"/>
</a>
</g>
</g>
<!-- Node8 -->
<g id="Node000008" class="node">
<title>Node8</title>
<g id="a_Node000008"><a xlink:href="l4_2sys_2consts_8h.html" target="_top" xlink:title="Common constants.">
<polygon fill="white" stroke="#666666" points="736.5,-129 647.5,-129 647.5,-110 736.5,-110 736.5,-129"/>
<text text-anchor="middle" x="692" y="-117" font-family="Helvetica,sans-Serif" font-size="10.00">l4/sys/consts.h</text>
</a>
</g>
</g>
<!-- Node6&#45;&gt;Node8 -->
<g id="edge8_Node000006_Node000008" class="edge">
<title>Node6&#45;&gt;Node8</title>
<g id="a_edge8_Node000006_Node000008"><a xlink:title=" ">
<path fill="none" stroke="#63b8ff" d="M526.65,-164.98C560.16,-155.97 613.2,-141.7 650.14,-131.76"/>
<polygon fill="#63b8ff" stroke="#63b8ff" points="651.35,-135.06 660.1,-129.08 649.53,-128.3 651.35,-135.06"/>
</a>
</g>
</g>
<!-- Node9 -->
<g id="Node000009" class="node">
<title>Node9</title>
<g id="a_Node000009"><a xlink:href="____l4__fpage_8h_source.html" target="_top" xlink:title=" ">
<polygon fill="white" stroke="#666666" points="429,-129 319,-129 319,-110 429,-110 429,-129"/>
<text text-anchor="middle" x="374" y="-117" font-family="Helvetica,sans-Serif" font-size="10.00">l4/sys/__l4_fpage.h</text>
</a>
</g>
</g>
<!-- Node6&#45;&gt;Node9 -->
<g id="edge11_Node000006_Node000009" class="edge">
<title>Node6&#45;&gt;Node9</title>
<g id="a_edge11_Node000006_Node000009"><a xlink:title=" ">
<path fill="none" stroke="#63b8ff" d="M475.56,-164.98C456.01,-156.42 425.62,-143.11 403.18,-133.28"/>
<polygon fill="#63b8ff" stroke="#63b8ff" points="404.36,-129.98 393.79,-129.17 401.55,-136.39 404.36,-129.98"/>
</a>
</g>
</g>
<!-- Node10 -->
<g id="Node000010" class="node">
<title>Node10</title>
<g id="a_Node000010"><a xlink:href="____timeout_8h_source.html" target="_top" xlink:title=" ">
<polygon fill="white" stroke="#666666" points="629,-129 523,-129 523,-110 629,-110 629,-129"/>
<text text-anchor="middle" x="576" y="-117" font-family="Helvetica,sans-Serif" font-size="10.00">l4/sys/__timeout.h</text>
</a>
</g>
</g>
<!-- Node6&#45;&gt;Node10 -->
<g id="edge13_Node000006_Node000010" class="edge">
<title>Node6&#45;&gt;Node10</title>
<g id="a_edge13_Node000006_Node000010"><a xlink:title=" ">
<path fill="none" stroke="#63b8ff" d="M508.01,-164.98C520.46,-156.84 539.46,-144.41 554.21,-134.76"/>
<polygon fill="#63b8ff" stroke="#63b8ff" points="556.3,-137.57 562.75,-129.17 552.46,-131.72 556.3,-137.57"/>
</a>
</g>
</g>
<!-- Node8&#45;&gt;Node3 -->
<g id="edge9_Node000008_Node000003" class="edge">
<title>Node8&#45;&gt;Node3</title>
<g id="a_edge9_Node000008_Node000003"><a xlink:title=" ">
<path fill="none" stroke="#63b8ff" d="M647.23,-111.35C644.11,-110.88 641.01,-110.43 638,-110 537.49,-95.65 420.28,-81.06 351.04,-72.67"/>
<polygon fill="#63b8ff" stroke="#63b8ff" points="351.11,-69.15 340.77,-71.43 350.27,-76.1 351.11,-69.15"/>
</a>
</g>
</g>
<!-- Node8&#45;&gt;Node7 -->
<g id="edge10_Node000008_Node000007" class="edge">
<title>Node8&#45;&gt;Node7</title>
<g id="a_edge10_Node000008_Node000007"><a xlink:title=" ">
<path fill="none" stroke="#63b8ff" d="M682.68,-109.98C674.19,-102.23 661.44,-90.58 651.12,-81.14"/>
<polygon fill="#63b8ff" stroke="#63b8ff" points="653.23,-78.33 643.49,-74.17 648.51,-83.5 653.23,-78.33"/>
</a>
</g>
</g>
<!-- Node9&#45;&gt;Node3 -->
<g id="edge12_Node000009_Node000003" class="edge">
<title>Node9&#45;&gt;Node3</title>
<g id="a_edge12_Node000009_Node000003"><a xlink:title=" ">
<path fill="none" stroke="#63b8ff" d="M360.66,-109.98C347.91,-101.84 328.45,-89.41 313.33,-79.76"/>
<polygon fill="#63b8ff" stroke="#63b8ff" points="314.89,-76.6 304.58,-74.17 311.12,-82.5 314.89,-76.6"/>
</a>
</g>
</g>
<!-- Node10&#45;&gt;Node7 -->
<g id="edge14_Node000010_Node000007" class="edge">
<title>Node10&#45;&gt;Node7</title>
<g id="a_edge14_Node000010_Node000007"><a xlink:title=" ">
<path fill="none" stroke="#63b8ff" d="M585.32,-109.98C593.81,-102.23 606.56,-90.58 616.88,-81.14"/>
<polygon fill="#63b8ff" stroke="#63b8ff" points="619.49,-83.5 624.51,-74.17 614.77,-78.33 619.49,-83.5"/>
</a>
</g>
</g>
<!-- Node11&#45;&gt;Node5 -->
<g id="edge19_Node000011_Node000005" class="edge">
<title>Node11&#45;&gt;Node5</title>
<g id="a_edge19_Node000011_Node000005"><a xlink:title=" ">
<path fill="none" stroke="#63b8ff" d="M259.39,-274.98C275.57,-266.57 300.57,-253.59 319.38,-243.81"/>
<polygon fill="#63b8ff" stroke="#63b8ff" points="321.05,-246.89 328.31,-239.17 317.83,-240.68 321.05,-246.89"/>
</a>
</g>
</g>
<!-- Node11&#45;&gt;Node6 -->
<g id="edge18_Node000011_Node000006" class="edge">
<title>Node11&#45;&gt;Node6</title>
<g id="a_edge18_Node000011_Node000006"><a xlink:title=" ">
<path fill="none" stroke="#63b8ff" d="M232.41,-274.98C217.63,-262.09 194.2,-237.29 209,-220 238.5,-185.55 368.6,-177.56 442.75,-175.84"/>
<polygon fill="#63b8ff" stroke="#63b8ff" points="442.9,-179.34 452.83,-175.64 442.76,-172.34 442.9,-179.34"/>
</a>
</g>
</g>
<!-- Node12 -->
<g id="Node000012" class="node">
<title>Node12</title>
<g id="a_Node000012"><a xlink:href="err_8h.html" target="_top" xlink:title="Error codes.">
<polygon fill="white" stroke="#666666" points="288,-239 218,-239 218,-220 288,-220 288,-239"/>
<text text-anchor="middle" x="253" y="-227" font-family="Helvetica,sans-Serif" font-size="10.00">l4/sys/err.h</text>
</a>
</g>
</g>
<!-- Node11&#45;&gt;Node12 -->
<g id="edge20_Node000011_Node000012" class="edge">
<title>Node11&#45;&gt;Node12</title>
<g id="a_edge20_Node000011_Node000012"><a xlink:title=" ">
<path fill="none" stroke="#63b8ff" d="M244.65,-274.75C245.96,-267.8 247.84,-257.85 249.48,-249.13"/>
<polygon fill="#63b8ff" stroke="#63b8ff" points="252.96,-249.56 251.38,-239.09 246.09,-248.27 252.96,-249.56"/>
</a>
</g>
</g>
<!-- Node12&#45;&gt;Node3 -->
<g id="edge21_Node000012_Node000003" class="edge">
<title>Node12&#45;&gt;Node3</title>
<g id="a_edge21_Node000012_Node000003"><a xlink:title=" ">
<path fill="none" stroke="#63b8ff" d="M254.44,-219.81C257.77,-200.11 266.52,-150.65 277,-110 279.22,-101.37 282.12,-91.94 284.7,-83.99"/>
<polygon fill="#63b8ff" stroke="#63b8ff" points="288.1,-84.88 287.94,-74.29 281.46,-82.67 288.1,-84.88"/>
</a>
</g>
</g>
<!-- Node13&#45;&gt;Node3 -->
<g id="edge24_Node000013_Node000003" class="edge">
<title>Node13&#45;&gt;Node3</title>
<g id="a_edge24_Node000013_Node000003"><a xlink:title=" ">
<path fill="none" stroke="#63b8ff" d="M232.99,-402.13C199.23,-397.63 158.98,-386.51 133,-360 109.08,-335.6 114,-319.67 114,-285.5 114,-285.5 114,-285.5 114,-173.5 114,-117.19 180.08,-89.37 231.49,-76.25"/>
<polygon fill="#63b8ff" stroke="#63b8ff" points="232.33,-79.65 241.22,-73.89 230.68,-72.85 232.33,-79.65"/>
</a>
</g>
</g>
<!-- Node13&#45;&gt;Node5 -->
<g id="edge25_Node000013_Node000005" class="edge">
<title>Node13&#45;&gt;Node5</title>
<g id="a_edge25_Node000013_Node000005"><a xlink:title=" ">
<path fill="none" stroke="#63b8ff" d="M296.6,-395.63C304.55,-368.52 328.64,-286.32 339.54,-249.13"/>
<polygon fill="#63b8ff" stroke="#63b8ff" points="343.01,-249.72 342.47,-239.14 336.3,-247.76 343.01,-249.72"/>
</a>
</g>
</g>
<!-- Node13&#45;&gt;Node6 -->
<g id="edge23_Node000013_Node000006" class="edge">
<title>Node13&#45;&gt;Node6</title>
<g id="a_edge23_Node000013_Node000006"><a xlink:title=" ">
<path fill="none" stroke="#63b8ff" d="M301.63,-395.8C331.55,-361.72 441.06,-236.96 480.62,-191.88"/>
<polygon fill="#63b8ff" stroke="#63b8ff" points="483.39,-194.03 487.36,-184.21 478.13,-189.41 483.39,-194.03"/>
</a>
</g>
</g>
<!-- Node13&#45;&gt;Node11 -->
<g id="edge28_Node000013_Node000011" class="edge">
<title>Node13&#45;&gt;Node11</title>
<g id="a_edge28_Node000013_Node000011"><a xlink:title=" ">
<path fill="none" stroke="#63b8ff" d="M292.87,-395.88C290.77,-381.63 285.5,-352.5 275,-330 270.33,-319.99 263.32,-309.92 257.05,-301.89"/>
<polygon fill="#63b8ff" stroke="#63b8ff" points="259.72,-299.62 250.68,-294.08 254.29,-304.04 259.72,-299.62"/>
</a>
</g>
</g>
<!-- Node14 -->
<g id="Node000014" class="node">
<title>Node14</title>
<g id="a_Node000014"><a xlink:href="____kernel__object__impl_8h.html" target="_top" xlink:title="Low&#45;level kernel debugger functions.">
<polygon fill="white" stroke="#666666" points="266,-360 142,-360 142,-330 266,-330 266,-360"/>
<text text-anchor="start" x="150" y="-348" font-family="Helvetica,sans-Serif" font-size="10.00">l4/sys/__kernel_object</text>
<text text-anchor="middle" x="204" y="-337" font-family="Helvetica,sans-Serif" font-size="10.00">_impl.h</text>
</a>
</g>
</g>
<!-- Node13&#45;&gt;Node14 -->
<g id="edge26_Node000013_Node000014" class="edge">
<title>Node13&#45;&gt;Node14</title>
<g id="a_edge26_Node000013_Node000014"><a xlink:title=" ">
<path fill="none" stroke="#63b8ff" d="M280.72,-395.87C268.51,-387.93 249.96,-375.87 234.15,-365.6"/>
<polygon fill="#63b8ff" stroke="#63b8ff" points="236.01,-362.63 225.71,-360.11 232.19,-368.5 236.01,-362.63"/>
</a>
</g>
</g>
<!-- Node14&#45;&gt;Node11 -->
<g id="edge27_Node000014_Node000011" class="edge">
<title>Node14&#45;&gt;Node11</title>
<g id="a_edge27_Node000014_Node000011"><a xlink:title=" ">
<path fill="none" stroke="#63b8ff" d="M213.44,-329.84C218.87,-321.69 225.73,-311.4 231.48,-302.78"/>
<polygon fill="#63b8ff" stroke="#63b8ff" points="234.52,-304.53 237.16,-294.27 228.7,-300.65 234.52,-304.53"/>
</a>
</g>
</g>
<!-- Node15&#45;&gt;Node6 -->
<g id="edge31_Node000015_Node000006" class="edge">
<title>Node15&#45;&gt;Node6</title>
<g id="a_edge31_Node000015_Node000006"><a xlink:title=" ">
<path fill="none" stroke="#63b8ff" d="M471.54,-508.83C555.61,-496.18 738,-462.31 738,-406.5 738,-406.5 738,-406.5 738,-344 738,-251.09 616.54,-205.33 545.36,-186.49"/>
<polygon fill="#63b8ff" stroke="#63b8ff" points="546.23,-183.1 535.67,-184.01 544.49,-189.88 546.23,-183.1"/>
</a>
</g>
</g>
<!-- Node15&#45;&gt;Node13 -->
<g id="edge30_Node000015_Node000013" class="edge">
<title>Node15&#45;&gt;Node13</title>
<g id="a_edge30_Node000015_Node000013"><a xlink:title=" ">
<path fill="none" stroke="#63b8ff" d="M418.87,-505.66C395.64,-487.22 341.78,-444.45 312.98,-421.57"/>
<polygon fill="#63b8ff" stroke="#63b8ff" points="314.91,-418.64 304.9,-415.16 310.56,-424.12 314.91,-418.64"/>
</a>
</g>
</g>
<!-- Node16 -->
<g id="Node000016" class="node">
<title>Node16</title>
<g id="a_Node000016"><a xlink:href="____typeinfo_8h.html" target="_top" xlink:title="Type information handling.">
<polygon fill="white" stroke="#666666" points="514.5,-470 437.5,-470 437.5,-451 514.5,-451 514.5,-470"/>
<text text-anchor="middle" x="476" y="-458" font-family="Helvetica,sans-Serif" font-size="10.00">__typeinfo.h</text>
</a>
</g>
</g>
<!-- Node15&#45;&gt;Node16 -->
<g id="edge32_Node000015_Node000016" class="edge">
<title>Node15&#45;&gt;Node16</title>
<g id="a_edge32_Node000015_Node000016"><a xlink:title=" ">
<path fill="none" stroke="#63b8ff" d="M437.6,-505.75C444.16,-498.18 453.82,-487.05 461.81,-477.84"/>
<polygon fill="#63b8ff" stroke="#63b8ff" points="464.63,-479.94 468.55,-470.09 459.35,-475.35 464.63,-479.94"/>
</a>
</g>
</g>
<!-- Node17 -->
<g id="Node000017" class="node">
<title>Node17</title>
<g id="a_Node000017"><a xlink:href="types.html" target="_top" xlink:title=" ">
<polygon fill="white" stroke="#666666" points="538,-354.5 474,-354.5 474,-335.5 538,-335.5 538,-354.5"/>
<text text-anchor="middle" x="506" y="-342.5" font-family="Helvetica,sans-Serif" font-size="10.00">cxx/types</text>
</a>
</g>
</g>
<!-- Node16&#45;&gt;Node17 -->
<g id="edge33_Node000016_Node000017" class="edge">
<title>Node16&#45;&gt;Node17</title>
<g id="a_edge33_Node000016_Node000017"><a xlink:title=" ">
<path fill="none" stroke="#63b8ff" d="M479.86,-450.79C483.66,-441.93 489.4,-427.73 493,-415 497.72,-398.32 501.2,-378.88 503.37,-364.9"/>
<polygon fill="#63b8ff" stroke="#63b8ff" points="506.89,-365.01 504.88,-354.61 499.97,-364 506.89,-365.01"/>
</a>
</g>
</g>
<!-- Node18 -->
<g id="Node000018" class="node">
<title>Node18</title>
<g id="a_Node000018"><a xlink:href="ipc__basics_source.html" target="_top" xlink:title=" ">
<polygon fill="white" stroke="#666666" points="483.5,-415 396.5,-415 396.5,-396 483.5,-396 483.5,-415"/>
<text text-anchor="middle" x="440" y="-403" font-family="Helvetica,sans-Serif" font-size="10.00">cxx/ipc_basics</text>
</a>
</g>
</g>
<!-- Node16&#45;&gt;Node18 -->
<g id="edge34_Node000016_Node000018" class="edge">
<title>Node16&#45;&gt;Node18</title>
<g id="a_edge34_Node000016_Node000018"><a xlink:title=" ">
<path fill="none" stroke="#63b8ff" d="M470.06,-450.75C465.02,-443.34 457.66,-432.5 451.49,-423.41"/>
<polygon fill="#63b8ff" stroke="#63b8ff" points="454.35,-421.39 445.83,-415.09 448.56,-425.33 454.35,-421.39"/>
</a>
</g>
</g>
<!-- Node19 -->
<g id="Node000019" class="node">
<title>Node19</title>
<g id="a_Node000019"><a xlink:href="capability_8h_source.html" target="_top" xlink:title=" ">
<polygon fill="white" stroke="#666666" points="675,-415 583,-415 583,-396 675,-396 675,-415"/>
<text text-anchor="middle" x="629" y="-403" font-family="Helvetica,sans-Serif" font-size="10.00">cxx/capability.h</text>
</a>
</g>
</g>
<!-- Node16&#45;&gt;Node19 -->
<g id="edge38_Node000016_Node000019" class="edge">
<title>Node16&#45;&gt;Node19</title>
<g id="a_edge38_Node000016_Node000019"><a xlink:title=" ">
<path fill="none" stroke="#63b8ff" d="M500.58,-450.98C526.05,-442.16 566.04,-428.31 594.63,-418.41"/>
<polygon fill="#63b8ff" stroke="#63b8ff" points="595.92,-421.66 604.23,-415.08 593.63,-415.05 595.92,-421.66"/>
</a>
</g>
</g>
<!-- Node18&#45;&gt;Node5 -->
<g id="edge36_Node000018_Node000005" class="edge">
<title>Node18&#45;&gt;Node5</title>
<g id="a_edge36_Node000018_Node000005"><a xlink:title=" ">
<path fill="none" stroke="#63b8ff" d="M435.16,-395.63C420.23,-368.29 374.7,-284.9 354.65,-248.18"/>
<polygon fill="#63b8ff" stroke="#63b8ff" points="357.58,-246.24 349.72,-239.14 351.44,-249.6 357.58,-246.24"/>
</a>
</g>
</g>
<!-- Node18&#45;&gt;Node12 -->
<g id="edge37_Node000018_Node000012" class="edge">
<title>Node18&#45;&gt;Node12</title>
<g id="a_edge37_Node000018_Node000012"><a xlink:title=" ">
<path fill="none" stroke="#63b8ff" d="M430.73,-395.87C401.13,-368.33 308.61,-282.24 270.09,-246.4"/>
<polygon fill="#63b8ff" stroke="#63b8ff" points="272.03,-243.43 262.33,-239.18 267.27,-248.56 272.03,-243.43"/>
</a>
</g>
</g>
<!-- Node18&#45;&gt;Node17 -->
<g id="edge35_Node000018_Node000017" class="edge">
<title>Node18&#45;&gt;Node17</title>
<g id="a_edge35_Node000018_Node000017"><a xlink:title=" ">
<path fill="none" stroke="#63b8ff" d="M449.74,-395.87C459.97,-386.8 476.29,-372.34 488.72,-361.32"/>
<polygon fill="#63b8ff" stroke="#63b8ff" points="491.06,-363.92 496.22,-354.67 486.42,-358.68 491.06,-363.92"/>
</a>
</g>
</g>
<!-- Node19&#45;&gt;Node6 -->
<g id="edge40_Node000019_Node000006" class="edge">
<title>Node19&#45;&gt;Node6</title>
<g id="a_edge40_Node000019_Node000006"><a xlink:title=" ">
<path fill="none" stroke="#63b8ff" d="M633.57,-395.95C640.5,-381.79 651.94,-352.79 643,-330 617.97,-266.2 552.14,-214.11 517.32,-189.99"/>
<polygon fill="#63b8ff" stroke="#63b8ff" points="519.03,-186.92 508.78,-184.21 515.1,-192.71 519.03,-186.92"/>
</a>
</g>
</g>
<!-- Node19&#45;&gt;Node8 -->
<g id="edge39_Node000019_Node000008" class="edge">
<title>Node19&#45;&gt;Node8</title>
<g id="a_edge39_Node000019_Node000008"><a xlink:title=" ">
<path fill="none" stroke="#63b8ff" d="M636.24,-395.93C643.03,-387.39 652.88,-373.64 658,-360 687.36,-281.83 691.62,-180.6 692.06,-139.3"/>
<polygon fill="#63b8ff" stroke="#63b8ff" points="695.56,-139.11 692.1,-129.1 688.56,-139.09 695.56,-139.11"/>
</a>
</g>
</g>
<!-- Node20 -->
<g id="Node000020" class="node">
<title>Node20</title>
<g id="a_Node000020"><a xlink:href="l4_2sys_2task_8h.html" target="_top" xlink:title="Common task related definitions.">
<polygon fill="white" stroke="#666666" points="634,-354.5 556,-354.5 556,-335.5 634,-335.5 634,-354.5"/>
<text text-anchor="middle" x="595" y="-342.5" font-family="Helvetica,sans-Serif" font-size="10.00">l4/sys/task.h</text>
</a>
</g>
</g>
<!-- Node19&#45;&gt;Node20 -->
<g id="edge41_Node000019_Node000020" class="edge">
<title>Node19&#45;&gt;Node20</title>
<g id="a_edge41_Node000019_Node000020"><a xlink:title=" ">
<path fill="none" stroke="#63b8ff" d="M623.98,-395.87C619.06,-387.4 611.41,-374.24 605.21,-363.57"/>
<polygon fill="#63b8ff" stroke="#63b8ff" points="608.09,-361.55 600.04,-354.67 602.04,-365.07 608.09,-361.55"/>
</a>
</g>
</g>
<!-- Node20&#45;&gt;Node5 -->
<g id="edge43_Node000020_Node000005" class="edge">
<title>Node20&#45;&gt;Node5</title>
<g id="a_edge43_Node000020_Node000005"><a xlink:title=" ">
<path fill="none" stroke="#63b8ff" d="M579.46,-335.39C554.61,-321.78 504.21,-294.79 460,-275 433.28,-263.04 402.29,-251.16 379.21,-242.68"/>
<polygon fill="#63b8ff" stroke="#63b8ff" points="380.12,-239.29 369.53,-239.16 377.73,-245.87 380.12,-239.29"/>
</a>
</g>
</g>
<!-- Node20&#45;&gt;Node6 -->
<g id="edge42_Node000020_Node000006" class="edge">
<title>Node20&#45;&gt;Node6</title>
<g id="a_edge42_Node000020_Node000006"><a xlink:title=" ">
<path fill="none" stroke="#63b8ff" d="M589.9,-335.41C574.26,-309.05 526.71,-228.93 505.45,-193.12"/>
<polygon fill="#63b8ff" stroke="#63b8ff" points="508.32,-191.09 500.21,-184.27 502.3,-194.66 508.32,-191.09"/>
</a>
</g>
</g>
<!-- Node20&#45;&gt;Node11 -->
<g id="edge44_Node000020_Node000011" class="edge">
<title>Node20&#45;&gt;Node11</title>
<g id="a_edge44_Node000020_Node000011"><a xlink:title=" ">
<path fill="none" stroke="#63b8ff" d="M568.26,-335.49C561.38,-333.5 553.95,-331.52 547,-330 456.54,-310.29 348.99,-296.85 289.11,-290.24"/>
<polygon fill="#63b8ff" stroke="#63b8ff" points="289.18,-286.72 278.86,-289.12 288.42,-293.68 289.18,-286.72"/>
</a>
</g>
</g>
</g>
</svg>
