<?xml version="1.0" encoding="UTF-8" standalone="no"?>
<!DOCTYPE svg PUBLIC "-//W3C//DTD SVG 1.1//EN"
 "http://www.w3.org/Graphics/SVG/1.1/DTD/svg11.dtd">
<!-- Generated by graphviz version 2.43.0 (0)
 -->
<!-- Title: pkg/drivers&#45;frst/include Pages: 1 -->
<svg width="754pt" height="125pt"
 viewBox="0.00 0.00 754.00 125.00" xmlns="http://www.w3.org/2000/svg" xmlns:xlink="http://www.w3.org/1999/xlink">
<g id="graph0" class="graph" transform="scale(1 1) rotate(0) translate(4 121)">
<title>pkg/drivers&#45;frst/include</title>
<g id="clust1" class="cluster">
<title>clusterdir_14cff21dd84e0478991c464970b9daa4</title>
<g id="a_clust1"><a xlink:href="dir_14cff21dd84e0478991c464970b9daa4.html" target="_top" xlink:title="drivers&#45;frst">
<polygon fill="#edf0f7" stroke="#7f7f7f" stroke-dasharray="5,2" points="8,-39 8,-109 738,-109 738,-39 8,-39"/>
<text text-anchor="middle" x="373" y="-97" font-family="Helvetica,sans-Serif" font-size="10.00">drivers&#45;frst</text>
</a>
</g>
</g>
<g id="clust2" class="cluster">
<title>clusterdir_92e228ed3ef9dfd62ac3d9b5894c1e01</title>
<g id="a_clust2"><a xlink:href="dir_92e228ed3ef9dfd62ac3d9b5894c1e01.html" target="_top">
<polygon fill="#edf0f7" stroke="#404040" stroke-width="2" points="16,-47 16,-82 730,-82 730,-47 16,-47"/>
</a>
</g>
</g>
<!-- dir_92e228ed3ef9dfd62ac3d9b5894c1e01 -->
<g id="node1" class="node">
<title>dir_92e228ed3ef9dfd62ac3d9b5894c1e01</title>
<text text-anchor="middle" x="696" y="-62" font-family="Helvetica,sans-Serif" font-size="10.00">include</text>
</g>
<!-- dir_1f581fa1f88782a0973f05f5fe437b46 -->
<g id="node9" class="node">
<title>dir_1f581fa1f88782a0973f05f5fe437b46</title>
<g id="a_node9"><a xlink:href="dir_1f581fa1f88782a0973f05f5fe437b46.html" target="_top" xlink:title="l4">
<polygon fill="#edf0f7" stroke="red" points="532.5,-19 503.5,-19 503.5,0 532.5,0 532.5,-19"/>
<text text-anchor="middle" x="518" y="-7" font-family="Helvetica,sans-Serif" font-size="10.00">l4</text>
</a>
</g>
</g>
<!-- dir_92e228ed3ef9dfd62ac3d9b5894c1e01&#45;&gt;dir_1f581fa1f88782a0973f05f5fe437b46 -->
<g id="edge1" class="edge">
<title>dir_92e228ed3ef9dfd62ac3d9b5894c1e01&#45;&gt;dir_1f581fa1f88782a0973f05f5fe437b46</title>
<g id="a_edge1"><a xlink:href="dir_000035_000047.html" target="_top">
<path fill="none" stroke="#63b8ff" d="M685.96,-54.77C679.3,-49.43 670.14,-42.9 661,-39 621.78,-22.25 572.25,-15.2 542.96,-12.34"/>
<polygon fill="#63b8ff" stroke="#63b8ff" points="543.06,-8.84 532.79,-11.44 542.45,-15.81 543.06,-8.84"/>
</a>
</g>
<g id="a_edge1&#45;headlabel"><a xlink:href="dir_000035_000047.html" target="_top" xlink:title="6">
<text text-anchor="middle" x="546.9" y="-3.83" font-family="Helvetica,sans-Serif" font-size="10.00" fill="#63b8ff">6</text>
</a>
</g>
</g>
<!-- dir_932a132a4dfb8714e1eaeed3764439f9 -->
<g id="node2" class="node">
<title>dir_932a132a4dfb8714e1eaeed3764439f9</title>
<g id="a_node2"><a xlink:href="dir_932a132a4dfb8714e1eaeed3764439f9.html" target="_top" xlink:title="ARCH&#45;amd64">
<polygon fill="#a2b4d6" stroke="#404040" points="652,-74 570,-74 570,-55 652,-55 652,-74"/>
<text text-anchor="middle" x="611" y="-62" font-family="Helvetica,sans-Serif" font-size="10.00">ARCH&#45;amd64</text>
</a>
</g>
</g>
<!-- dir_932a132a4dfb8714e1eaeed3764439f9&#45;&gt;dir_1f581fa1f88782a0973f05f5fe437b46 -->
<g id="edge2" class="edge">
<title>dir_932a132a4dfb8714e1eaeed3764439f9&#45;&gt;dir_1f581fa1f88782a0973f05f5fe437b46</title>
<g id="a_edge2"><a xlink:href="dir_000001_000047.html" target="_top">
<path fill="none" stroke="#63b8ff" d="M596.06,-54.98C581.33,-46.59 558.6,-33.64 541.46,-23.87"/>
<polygon fill="#63b8ff" stroke="#63b8ff" points="543.02,-20.73 532.6,-18.82 539.55,-26.81 543.02,-20.73"/>
</a>
</g>
<g id="a_edge2&#45;headlabel"><a xlink:href="dir_000001_000047.html" target="_top" xlink:title="1">
<text text-anchor="middle" x="547.55" y="-17.54" font-family="Helvetica,sans-Serif" font-size="10.00" fill="#63b8ff">1</text>
</a>
</g>
</g>
<!-- dir_8783abc6550b4ce1cc6cd701140fd21c -->
<g id="node3" class="node">
<title>dir_8783abc6550b4ce1cc6cd701140fd21c</title>
<g id="a_node3"><a xlink:href="dir_8783abc6550b4ce1cc6cd701140fd21c.html" target="_top" xlink:title="ARCH&#45;arm">
<polygon fill="#a2b4d6" stroke="#404040" points="552,-74 484,-74 484,-55 552,-55 552,-74"/>
<text text-anchor="middle" x="518" y="-62" font-family="Helvetica,sans-Serif" font-size="10.00">ARCH&#45;arm</text>
</a>
</g>
</g>
<!-- dir_8783abc6550b4ce1cc6cd701140fd21c&#45;&gt;dir_1f581fa1f88782a0973f05f5fe437b46 -->
<g id="edge3" class="edge">
<title>dir_8783abc6550b4ce1cc6cd701140fd21c&#45;&gt;dir_1f581fa1f88782a0973f05f5fe437b46</title>
<g id="a_edge3"><a xlink:href="dir_000002_000047.html" target="_top">
<path fill="none" stroke="#63b8ff" d="M518,-54.75C518,-47.8 518,-37.85 518,-29.13"/>
<polygon fill="#63b8ff" stroke="#63b8ff" points="521.5,-29.09 518,-19.09 514.5,-29.09 521.5,-29.09"/>
</a>
</g>
<g id="a_edge3&#45;headlabel"><a xlink:href="dir_000002_000047.html" target="_top" xlink:title="1">
<text text-anchor="middle" x="524.34" y="-30.18" font-family="Helvetica,sans-Serif" font-size="10.00" fill="#63b8ff">1</text>
</a>
</g>
</g>
<!-- dir_98af8246f7497ed1118db146b9db419c -->
<g id="node4" class="node">
<title>dir_98af8246f7497ed1118db146b9db419c</title>
<g id="a_node4"><a xlink:href="dir_98af8246f7497ed1118db146b9db419c.html" target="_top" xlink:title="ARCH&#45;arm64">
<polygon fill="#a2b4d6" stroke="#404040" points="466,-74 386,-74 386,-55 466,-55 466,-74"/>
<text text-anchor="middle" x="426" y="-62" font-family="Helvetica,sans-Serif" font-size="10.00">ARCH&#45;arm64</text>
</a>
</g>
</g>
<!-- dir_98af8246f7497ed1118db146b9db419c&#45;&gt;dir_1f581fa1f88782a0973f05f5fe437b46 -->
<g id="edge4" class="edge">
<title>dir_98af8246f7497ed1118db146b9db419c&#45;&gt;dir_1f581fa1f88782a0973f05f5fe437b46</title>
<g id="a_edge4"><a xlink:href="dir_000003_000047.html" target="_top">
<path fill="none" stroke="#63b8ff" d="M440.78,-54.98C455.27,-46.64 477.57,-33.79 494.49,-24.04"/>
<polygon fill="#63b8ff" stroke="#63b8ff" points="496.34,-27.02 503.26,-18.99 492.84,-20.95 496.34,-27.02"/>
</a>
</g>
<g id="a_edge4&#45;headlabel"><a xlink:href="dir_000003_000047.html" target="_top" xlink:title="1">
<text text-anchor="middle" x="494.64" y="-28.77" font-family="Helvetica,sans-Serif" font-size="10.00" fill="#63b8ff">1</text>
</a>
</g>
</g>
<!-- dir_c5225be10d1f8d0ceb26f4e2c96ee566 -->
<g id="node5" class="node">
<title>dir_c5225be10d1f8d0ceb26f4e2c96ee566</title>
<g id="a_node5"><a xlink:href="dir_c5225be10d1f8d0ceb26f4e2c96ee566.html" target="_top" xlink:title="ARCH&#45;mips">
<polygon fill="#a2b4d6" stroke="#404040" points="368,-74 296,-74 296,-55 368,-55 368,-74"/>
<text text-anchor="middle" x="332" y="-62" font-family="Helvetica,sans-Serif" font-size="10.00">ARCH&#45;mips</text>
</a>
</g>
</g>
<!-- dir_51d492af167cb9731e6c5ac740d9c42f -->
<g id="node6" class="node">
<title>dir_51d492af167cb9731e6c5ac740d9c42f</title>
<g id="a_node6"><a xlink:href="dir_51d492af167cb9731e6c5ac740d9c42f.html" target="_top" xlink:title="ARCH&#45;ppc32">
<polygon fill="#a2b4d6" stroke="#404040" points="277.5,-74 200.5,-74 200.5,-55 277.5,-55 277.5,-74"/>
<text text-anchor="middle" x="239" y="-62" font-family="Helvetica,sans-Serif" font-size="10.00">ARCH&#45;ppc32</text>
</a>
</g>
</g>
<!-- dir_d65ef0c784906d74df57bfaf7538e03c -->
<g id="node7" class="node">
<title>dir_d65ef0c784906d74df57bfaf7538e03c</title>
<g id="a_node7"><a xlink:href="dir_d65ef0c784906d74df57bfaf7538e03c.html" target="_top" xlink:title="ARCH&#45;sparc">
<polygon fill="#a2b4d6" stroke="#404040" points="182,-74 108,-74 108,-55 182,-55 182,-74"/>
<text text-anchor="middle" x="145" y="-62" font-family="Helvetica,sans-Serif" font-size="10.00">ARCH&#45;sparc</text>
</a>
</g>
</g>
<!-- dir_bfe556eaab34cda6ed9cc172719408e2 -->
<g id="node8" class="node">
<title>dir_bfe556eaab34cda6ed9cc172719408e2</title>
<g id="a_node8"><a xlink:href="dir_bfe556eaab34cda6ed9cc172719408e2.html" target="_top" xlink:title="ARCH&#45;x86">
<polygon fill="#a2b4d6" stroke="#404040" points="90,-74 24,-74 24,-55 90,-55 90,-74"/>
<text text-anchor="middle" x="57" y="-62" font-family="Helvetica,sans-Serif" font-size="10.00">ARCH&#45;x86</text>
</a>
</g>
</g>
<!-- dir_bfe556eaab34cda6ed9cc172719408e2&#45;&gt;dir_1f581fa1f88782a0973f05f5fe437b46 -->
<g id="edge5" class="edge">
<title>dir_bfe556eaab34cda6ed9cc172719408e2&#45;&gt;dir_1f581fa1f88782a0973f05f5fe437b46</title>
<g id="a_edge5"><a xlink:href="dir_000007_000047.html" target="_top">
<path fill="none" stroke="#63b8ff" d="M68.45,-54.86C76.53,-49.27 87.86,-42.42 99,-39 173.24,-16.2 414.05,-11.61 492.82,-10.71"/>
<polygon fill="#63b8ff" stroke="#63b8ff" points="493.26,-14.21 503.22,-10.6 493.19,-7.21 493.26,-14.21"/>
</a>
</g>
<g id="a_edge5&#45;headlabel"><a xlink:href="dir_000007_000047.html" target="_top" xlink:title="1">
<text text-anchor="middle" x="489.69" y="-14.58" font-family="Helvetica,sans-Serif" font-size="10.00" fill="#63b8ff">1</text>
</a>
</g>
</g>
</g>
</svg>
