<?xml version="1.0" encoding="UTF-8" standalone="no"?>
<!DOCTYPE svg PUBLIC "-//W3C//DTD SVG 1.1//EN"
 "http://www.w3.org/Graphics/SVG/1.1/DTD/svg11.dtd">
<!-- Generated by graphviz version 2.42.4 (0)
 -->
<!-- Title: l4 Pages: 1 -->
<svg width="400pt" height="279pt"
 viewBox="0.00 0.00 400.00 279.00" xmlns="http://www.w3.org/2000/svg" xmlns:xlink="http://www.w3.org/1999/xlink">
<g id="graph0" class="graph" transform="scale(1 1) rotate(0) translate(4 275)">
<title>l4</title>
<g id="clust1" class="cluster">
<title>clusterdir_1f581fa1f88782a0973f05f5fe437b46</title>
<g id="a_clust1"><a xlink:href="dir_1f581fa1f88782a0973f05f5fe437b46.html" target="_top">
<polygon fill="#edf0f7" stroke="#404040" stroke-width="2" points="8,-8 8,-263 384,-263 384,-8 8,-8"/>
</a>
</g>
</g>
<!-- dir_1f581fa1f88782a0973f05f5fe437b46 -->
<g id="node1" class="node">
<title>dir_1f581fa1f88782a0973f05f5fe437b46</title>
<text text-anchor="middle" x="326" y="-243" font-family="Helvetica,sans-Serif" font-size="10.00">l4</text>
</g>
<!-- dir_dd3580c6b729ef0dd2be01098f8e55ee -->
<g id="node2" class="node">
<title>dir_dd3580c6b729ef0dd2be01098f8e55ee</title>
<g id="a_node2"><a xlink:href="dir_dd3580c6b729ef0dd2be01098f8e55ee.html" target="_top" xlink:title="cxx">
<polygon fill="#a2b4d6" stroke="#404040" points="124,-145 90,-145 90,-126 124,-126 124,-145"/>
<text text-anchor="middle" x="107" y="-133" font-family="Helvetica,sans-Serif" font-size="10.00">cxx</text>
</a>
</g>
</g>
<!-- dir_d458d878e154568f8572c436e514c759 -->
<g id="node10" class="node">
<title>dir_d458d878e154568f8572c436e514c759</title>
<g id="a_node10"><a xlink:href="dir_d458d878e154568f8572c436e514c759.html" target="_top" xlink:title="sys">
<polygon fill="#a2b4d6" stroke="#404040" points="159.5,-35 126.5,-35 126.5,-16 159.5,-16 159.5,-35"/>
<text text-anchor="middle" x="143" y="-23" font-family="Helvetica,sans-Serif" font-size="10.00">sys</text>
</a>
</g>
</g>
<!-- dir_dd3580c6b729ef0dd2be01098f8e55ee&#45;&gt;dir_d458d878e154568f8572c436e514c759 -->
<g id="edge2" class="edge">
<title>dir_dd3580c6b729ef0dd2be01098f8e55ee&#45;&gt;dir_d458d878e154568f8572c436e514c759</title>
<g id="a_edge2"><a xlink:href="dir_000017_000077.html" target="_top">
<path fill="none" stroke="#63b8ff" d="M103.78,-125.93C99.6,-113.39 93.64,-89.52 101,-71 105.52,-59.63 114.47,-49.48 122.96,-41.76"/>
<polygon fill="#63b8ff" stroke="#63b8ff" points="125.41,-44.27 130.79,-35.14 120.89,-38.92 125.41,-44.27"/>
</a>
</g>
<g id="a_edge2&#45;headlabel"><a xlink:href="dir_000017_000077.html" target="_top" xlink:title="18">
<text text-anchor="middle" x="124.5" y="-46.25" font-family="Helvetica,sans-Serif" font-size="10.00" fill="#63b8ff">18</text>
</a>
</g>
</g>
<!-- dir_b080fbfc44463f036af256b25228453b -->
<g id="node11" class="node">
<title>dir_b080fbfc44463f036af256b25228453b</title>
<g id="a_node11"><a xlink:href="dir_b080fbfc44463f036af256b25228453b.html" target="_top" xlink:title="util">
<polygon fill="#a2b4d6" stroke="#404040" points="220,-90 188,-90 188,-71 220,-71 220,-90"/>
<text text-anchor="middle" x="204" y="-78" font-family="Helvetica,sans-Serif" font-size="10.00">util</text>
</a>
</g>
</g>
<!-- dir_dd3580c6b729ef0dd2be01098f8e55ee&#45;&gt;dir_b080fbfc44463f036af256b25228453b -->
<g id="edge1" class="edge">
<title>dir_dd3580c6b729ef0dd2be01098f8e55ee&#45;&gt;dir_b080fbfc44463f036af256b25228453b</title>
<g id="a_edge1"><a xlink:href="dir_000017_000086.html" target="_top">
<path fill="none" stroke="#63b8ff" d="M122.58,-125.98C137.77,-117.69 161.1,-104.94 178.9,-95.22"/>
<polygon fill="#63b8ff" stroke="#63b8ff" points="181.03,-98.04 188.13,-90.17 177.68,-91.89 181.03,-98.04"/>
</a>
</g>
<g id="a_edge1&#45;headlabel"><a xlink:href="dir_000017_000086.html" target="_top" xlink:title="2">
<text text-anchor="middle" x="179.24" y="-99.75" font-family="Helvetica,sans-Serif" font-size="10.00" fill="#63b8ff">2</text>
</a>
</g>
</g>
<!-- dir_df12a0752bdaa80729fd074dc7c2f44a -->
<g id="node3" class="node">
<title>dir_df12a0752bdaa80729fd074dc7c2f44a</title>
<g id="a_node3"><a xlink:href="dir_df12a0752bdaa80729fd074dc7c2f44a.html" target="_top" xlink:title="irq">
<polygon fill="#a2b4d6" stroke="#404040" points="375.5,-90 346.5,-90 346.5,-71 375.5,-71 375.5,-90"/>
<text text-anchor="middle" x="361" y="-78" font-family="Helvetica,sans-Serif" font-size="10.00">irq</text>
</a>
</g>
</g>
<!-- dir_df12a0752bdaa80729fd074dc7c2f44a&#45;&gt;dir_d458d878e154568f8572c436e514c759 -->
<g id="edge3" class="edge">
<title>dir_df12a0752bdaa80729fd074dc7c2f44a&#45;&gt;dir_d458d878e154568f8572c436e514c759</title>
<g id="a_edge3"><a xlink:href="dir_000042_000077.html" target="_top">
<path fill="none" stroke="#63b8ff" d="M346.29,-75.02C341.72,-73.68 336.67,-72.23 332,-71 274.3,-55.76 206.03,-40.32 169.39,-32.24"/>
<polygon fill="#63b8ff" stroke="#63b8ff" points="170.02,-28.8 159.51,-30.07 168.52,-35.64 170.02,-28.8"/>
</a>
</g>
<g id="a_edge3&#45;headlabel"><a xlink:href="dir_000042_000077.html" target="_top" xlink:title="2">
<text text-anchor="middle" x="174.14" y="-24.3" font-family="Helvetica,sans-Serif" font-size="10.00" fill="#63b8ff">2</text>
</a>
</g>
</g>
<!-- dir_23b146a426e7ed970afb9c6da946d6da -->
<g id="node4" class="node">
<title>dir_23b146a426e7ed970afb9c6da946d6da</title>
<g id="a_node4"><a xlink:href="dir_23b146a426e7ed970afb9c6da946d6da.html" target="_top" xlink:title="l4re_vfs">
<polygon fill="#a2b4d6" stroke="#404040" points="258,-255 202,-255 202,-236 258,-236 258,-255"/>
<text text-anchor="middle" x="230" y="-243" font-family="Helvetica,sans-Serif" font-size="10.00">l4re_vfs</text>
</a>
</g>
</g>
<!-- dir_23b146a426e7ed970afb9c6da946d6da&#45;&gt;dir_dd3580c6b729ef0dd2be01098f8e55ee -->
<g id="edge6" class="edge">
<title>dir_23b146a426e7ed970afb9c6da946d6da&#45;&gt;dir_dd3580c6b729ef0dd2be01098f8e55ee</title>
<g id="a_edge6"><a xlink:href="dir_000057_000017.html" target="_top">
<path fill="none" stroke="#63b8ff" d="M219.93,-235.66C199.02,-217.3 150.63,-174.81 124.5,-151.87"/>
<polygon fill="#63b8ff" stroke="#63b8ff" points="126.68,-149.13 116.86,-145.16 122.07,-154.39 126.68,-149.13"/>
</a>
</g>
<g id="a_edge6&#45;headlabel"><a xlink:href="dir_000057_000017.html" target="_top" xlink:title="2">
<text text-anchor="middle" x="131.26" y="-146.86" font-family="Helvetica,sans-Serif" font-size="10.00" fill="#63b8ff">2</text>
</a>
</g>
</g>
<!-- dir_30d77a5207eb89e366a23f343e13fefd -->
<g id="node7" class="node">
<title>dir_30d77a5207eb89e366a23f343e13fefd</title>
<g id="a_node7"><a xlink:href="dir_30d77a5207eb89e366a23f343e13fefd.html" target="_top" xlink:title="re">
<polygon fill="#a2b4d6" stroke="#404040" points="97.5,-200 68.5,-200 68.5,-181 97.5,-181 97.5,-200"/>
<text text-anchor="middle" x="83" y="-188" font-family="Helvetica,sans-Serif" font-size="10.00">re</text>
</a>
</g>
</g>
<!-- dir_23b146a426e7ed970afb9c6da946d6da&#45;&gt;dir_30d77a5207eb89e366a23f343e13fefd -->
<g id="edge4" class="edge">
<title>dir_23b146a426e7ed970afb9c6da946d6da&#45;&gt;dir_30d77a5207eb89e366a23f343e13fefd</title>
<g id="a_edge4"><a xlink:href="dir_000057_000067.html" target="_top">
<path fill="none" stroke="#63b8ff" d="M206.38,-235.98C179.18,-226.18 134.72,-210.15 107.25,-200.24"/>
<polygon fill="#63b8ff" stroke="#63b8ff" points="108.22,-196.87 97.63,-196.77 105.85,-203.46 108.22,-196.87"/>
</a>
</g>
<g id="a_edge4&#45;headlabel"><a xlink:href="dir_000057_000067.html" target="_top" xlink:title="12">
<text text-anchor="middle" x="112.56" y="-192.92" font-family="Helvetica,sans-Serif" font-size="10.00" fill="#63b8ff">12</text>
</a>
</g>
</g>
<!-- dir_23b146a426e7ed970afb9c6da946d6da&#45;&gt;dir_d458d878e154568f8572c436e514c759 -->
<g id="edge5" class="edge">
<title>dir_23b146a426e7ed970afb9c6da946d6da&#45;&gt;dir_d458d878e154568f8572c436e514c759</title>
<g id="a_edge5"><a xlink:href="dir_000057_000077.html" target="_top">
<path fill="none" stroke="#63b8ff" d="M239.71,-235.8C268.42,-209.03 348.31,-126.41 306,-71 289.5,-49.39 211.44,-35.74 169.61,-29.86"/>
<polygon fill="#63b8ff" stroke="#63b8ff" points="169.96,-26.37 159.58,-28.5 169.02,-33.31 169.96,-26.37"/>
</a>
</g>
<g id="a_edge5&#45;headlabel"><a xlink:href="dir_000057_000077.html" target="_top" xlink:title="8">
<text text-anchor="middle" x="173.9" y="-21.54" font-family="Helvetica,sans-Serif" font-size="10.00" fill="#63b8ff">8</text>
</a>
</g>
</g>
<!-- dir_c7ab25baedb6fe17d19f630d386cbc03 -->
<g id="node5" class="node">
<title>dir_c7ab25baedb6fe17d19f630d386cbc03</title>
<g id="a_node5"><a xlink:href="dir_c7ab25baedb6fe17d19f630d386cbc03.html" target="_top" xlink:title="l4virtio">
<polygon fill="#a2b4d6" stroke="#404040" points="183.5,-255 132.5,-255 132.5,-236 183.5,-236 183.5,-255"/>
<text text-anchor="middle" x="158" y="-243" font-family="Helvetica,sans-Serif" font-size="10.00">l4virtio</text>
</a>
</g>
</g>
<!-- dir_c7ab25baedb6fe17d19f630d386cbc03&#45;&gt;dir_dd3580c6b729ef0dd2be01098f8e55ee -->
<g id="edge10" class="edge">
<title>dir_c7ab25baedb6fe17d19f630d386cbc03&#45;&gt;dir_dd3580c6b729ef0dd2be01098f8e55ee</title>
<g id="a_edge10"><a xlink:href="dir_000059_000017.html" target="_top">
<path fill="none" stroke="#63b8ff" d="M153.83,-235.66C145.45,-217.93 126.47,-177.73 115.41,-154.32"/>
<polygon fill="#63b8ff" stroke="#63b8ff" points="118.52,-152.71 111.09,-145.16 112.19,-155.7 118.52,-152.71"/>
</a>
</g>
<g id="a_edge10&#45;headlabel"><a xlink:href="dir_000059_000017.html" target="_top" xlink:title="3">
<text text-anchor="middle" x="122.63" y="-152.24" font-family="Helvetica,sans-Serif" font-size="10.00" fill="#63b8ff">3</text>
</a>
</g>
</g>
<!-- dir_c7ab25baedb6fe17d19f630d386cbc03&#45;&gt;dir_30d77a5207eb89e366a23f343e13fefd -->
<g id="edge7" class="edge">
<title>dir_c7ab25baedb6fe17d19f630d386cbc03&#45;&gt;dir_30d77a5207eb89e366a23f343e13fefd</title>
<g id="a_edge7"><a xlink:href="dir_000059_000067.html" target="_top">
<path fill="none" stroke="#63b8ff" d="M145.95,-235.98C134.54,-227.92 117.17,-215.65 103.57,-206.03"/>
<polygon fill="#63b8ff" stroke="#63b8ff" points="105.46,-203.08 95.27,-200.17 101.42,-208.8 105.46,-203.08"/>
</a>
</g>
<g id="a_edge7&#45;headlabel"><a xlink:href="dir_000059_000067.html" target="_top" xlink:title="23">
<text text-anchor="middle" x="110.03" y="-200.34" font-family="Helvetica,sans-Serif" font-size="10.00" fill="#63b8ff">23</text>
</a>
</g>
</g>
<!-- dir_c7ab25baedb6fe17d19f630d386cbc03&#45;&gt;dir_d458d878e154568f8572c436e514c759 -->
<g id="edge9" class="edge">
<title>dir_c7ab25baedb6fe17d19f630d386cbc03&#45;&gt;dir_d458d878e154568f8572c436e514c759</title>
<g id="a_edge9"><a xlink:href="dir_000059_000077.html" target="_top">
<path fill="none" stroke="#63b8ff" d="M174.57,-235.98C220.97,-211.03 345.71,-135.78 297,-71 281.72,-50.68 209.78,-36.69 169.86,-30.35"/>
<polygon fill="#63b8ff" stroke="#63b8ff" points="170.17,-26.86 159.75,-28.8 169.11,-33.78 170.17,-26.86"/>
</a>
</g>
<g id="a_edge9&#45;headlabel"><a xlink:href="dir_000059_000077.html" target="_top" xlink:title="20">
<text text-anchor="middle" x="174.15" y="-22.1" font-family="Helvetica,sans-Serif" font-size="10.00" fill="#63b8ff">20</text>
</a>
</g>
</g>
<!-- dir_c7ab25baedb6fe17d19f630d386cbc03&#45;&gt;dir_b080fbfc44463f036af256b25228453b -->
<g id="edge8" class="edge">
<title>dir_c7ab25baedb6fe17d19f630d386cbc03&#45;&gt;dir_b080fbfc44463f036af256b25228453b</title>
<g id="a_edge8"><a xlink:href="dir_000059_000086.html" target="_top">
<path fill="none" stroke="#63b8ff" d="M161.91,-235.92C169.49,-218.93 186.21,-179.66 195,-145 198.73,-130.29 201.04,-113.25 202.38,-100.52"/>
<polygon fill="#63b8ff" stroke="#63b8ff" points="205.9,-100.53 203.36,-90.24 198.93,-99.87 205.9,-100.53"/>
</a>
</g>
<g id="a_edge8&#45;headlabel"><a xlink:href="dir_000059_000086.html" target="_top" xlink:title="4">
<text text-anchor="middle" x="208.39" y="-101.88" font-family="Helvetica,sans-Serif" font-size="10.00" fill="#63b8ff">4</text>
</a>
</g>
</g>
<!-- dir_d1b90b3109432465c80e270fbf540d28 -->
<g id="node6" class="node">
<title>dir_d1b90b3109432465c80e270fbf540d28</title>
<g id="a_node6"><a xlink:href="dir_d1b90b3109432465c80e270fbf540d28.html" target="_top" xlink:title="libedid">
<polygon fill="#a2b4d6" stroke="#404040" points="288,-90 238,-90 238,-71 288,-71 288,-90"/>
<text text-anchor="middle" x="263" y="-78" font-family="Helvetica,sans-Serif" font-size="10.00">libedid</text>
</a>
</g>
</g>
<!-- dir_d1b90b3109432465c80e270fbf540d28&#45;&gt;dir_d458d878e154568f8572c436e514c759 -->
<g id="edge11" class="edge">
<title>dir_d1b90b3109432465c80e270fbf540d28&#45;&gt;dir_d458d878e154568f8572c436e514c759</title>
<g id="a_edge11"><a xlink:href="dir_000061_000077.html" target="_top">
<path fill="none" stroke="#63b8ff" d="M243.72,-70.98C223.41,-62.01 191.3,-47.83 168.81,-37.9"/>
<polygon fill="#63b8ff" stroke="#63b8ff" points="170.09,-34.64 159.53,-33.8 167.26,-41.04 170.09,-34.64"/>
</a>
</g>
<g id="a_edge11&#45;headlabel"><a xlink:href="dir_000061_000077.html" target="_top" xlink:title="1">
<text text-anchor="middle" x="174.52" y="-30.99" font-family="Helvetica,sans-Serif" font-size="10.00" fill="#63b8ff">1</text>
</a>
</g>
</g>
<!-- dir_30d77a5207eb89e366a23f343e13fefd&#45;&gt;dir_dd3580c6b729ef0dd2be01098f8e55ee -->
<g id="edge13" class="edge">
<title>dir_30d77a5207eb89e366a23f343e13fefd&#45;&gt;dir_dd3580c6b729ef0dd2be01098f8e55ee</title>
<g id="a_edge13"><a xlink:href="dir_000067_000017.html" target="_top">
<path fill="none" stroke="#63b8ff" d="M86.96,-180.75C90.21,-173.57 94.92,-163.18 98.95,-154.27"/>
<polygon fill="#63b8ff" stroke="#63b8ff" points="102.17,-155.64 103.11,-145.09 95.8,-152.75 102.17,-155.64"/>
</a>
</g>
<g id="a_edge13&#45;headlabel"><a xlink:href="dir_000067_000017.html" target="_top" xlink:title="4">
<text text-anchor="middle" x="103.28" y="-157.59" font-family="Helvetica,sans-Serif" font-size="10.00" fill="#63b8ff">4</text>
</a>
</g>
</g>
<!-- dir_30d77a5207eb89e366a23f343e13fefd&#45;&gt;dir_d458d878e154568f8572c436e514c759 -->
<g id="edge12" class="edge">
<title>dir_30d77a5207eb89e366a23f343e13fefd&#45;&gt;dir_d458d878e154568f8572c436e514c759</title>
<g id="a_edge12"><a xlink:href="dir_000067_000077.html" target="_top">
<path fill="none" stroke="#63b8ff" d="M81.34,-180.71C77.89,-159.97 71.95,-107 93,-71 99.9,-59.21 111,-48.86 121,-41.12"/>
<polygon fill="#63b8ff" stroke="#63b8ff" points="123.35,-43.74 129.36,-35.02 119.22,-38.08 123.35,-43.74"/>
</a>
</g>
<g id="a_edge12&#45;headlabel"><a xlink:href="dir_000067_000077.html" target="_top" xlink:title="111">
<text text-anchor="middle" x="122.12" y="-45.65" font-family="Helvetica,sans-Serif" font-size="10.00" fill="#63b8ff">111</text>
</a>
</g>
</g>
<!-- dir_4720fcac3b01e025220c92790c02ac45 -->
<g id="node8" class="node">
<title>dir_4720fcac3b01e025220c92790c02ac45</title>
<g id="a_node8"><a xlink:href="dir_4720fcac3b01e025220c92790c02ac45.html" target="_top" xlink:title="shmc">
<polygon fill="#a2b4d6" stroke="#404040" points="185.5,-145 142.5,-145 142.5,-126 185.5,-126 185.5,-145"/>
<text text-anchor="middle" x="164" y="-133" font-family="Helvetica,sans-Serif" font-size="10.00">shmc</text>
</a>
</g>
</g>
<!-- dir_4720fcac3b01e025220c92790c02ac45&#45;&gt;dir_d458d878e154568f8572c436e514c759 -->
<g id="edge15" class="edge">
<title>dir_4720fcac3b01e025220c92790c02ac45&#45;&gt;dir_d458d878e154568f8572c436e514c759</title>
<g id="a_edge15"><a xlink:href="dir_000069_000077.html" target="_top">
<path fill="none" stroke="#63b8ff" d="M146.23,-125.96C132.99,-118.51 115.88,-106.33 108,-90 100.03,-73.48 112.48,-55.19 124.68,-42.49"/>
<polygon fill="#63b8ff" stroke="#63b8ff" points="127.29,-44.84 132.06,-35.38 122.43,-39.8 127.29,-44.84"/>
</a>
</g>
<g id="a_edge15&#45;headlabel"><a xlink:href="dir_000069_000077.html" target="_top" xlink:title="3">
<text text-anchor="middle" x="126.67" y="-46.88" font-family="Helvetica,sans-Serif" font-size="10.00" fill="#63b8ff">3</text>
</a>
</g>
</g>
<!-- dir_4720fcac3b01e025220c92790c02ac45&#45;&gt;dir_b080fbfc44463f036af256b25228453b -->
<g id="edge14" class="edge">
<title>dir_4720fcac3b01e025220c92790c02ac45&#45;&gt;dir_b080fbfc44463f036af256b25228453b</title>
<g id="a_edge14"><a xlink:href="dir_000069_000086.html" target="_top">
<path fill="none" stroke="#63b8ff" d="M170.61,-125.75C176.26,-118.26 184.54,-107.28 191.45,-98.13"/>
<polygon fill="#63b8ff" stroke="#63b8ff" points="194.29,-100.18 197.52,-90.09 188.7,-95.96 194.29,-100.18"/>
</a>
</g>
<g id="a_edge14&#45;headlabel"><a xlink:href="dir_000069_000086.html" target="_top" xlink:title="1">
<text text-anchor="middle" x="194.39" y="-102.26" font-family="Helvetica,sans-Serif" font-size="10.00" fill="#63b8ff">1</text>
</a>
</g>
</g>
<!-- dir_11ec9eaccd0d5da5ddb1d321a08c42f0 -->
<g id="node9" class="node">
<title>dir_11ec9eaccd0d5da5ddb1d321a08c42f0</title>
<g id="a_node9"><a xlink:href="dir_11ec9eaccd0d5da5ddb1d321a08c42f0.html" target="_top" xlink:title="sigma0">
<polygon fill="#a2b4d6" stroke="#404040" points="169.5,-90 116.5,-90 116.5,-71 169.5,-71 169.5,-90"/>
<text text-anchor="middle" x="143" y="-78" font-family="Helvetica,sans-Serif" font-size="10.00">sigma0</text>
</a>
</g>
</g>
<!-- dir_11ec9eaccd0d5da5ddb1d321a08c42f0&#45;&gt;dir_d458d878e154568f8572c436e514c759 -->
<g id="edge16" class="edge">
<title>dir_11ec9eaccd0d5da5ddb1d321a08c42f0&#45;&gt;dir_d458d878e154568f8572c436e514c759</title>
<g id="a_edge16"><a xlink:href="dir_000071_000077.html" target="_top">
<path fill="none" stroke="#63b8ff" d="M143,-70.75C143,-63.8 143,-53.85 143,-45.13"/>
<polygon fill="#63b8ff" stroke="#63b8ff" points="146.5,-45.09 143,-35.09 139.5,-45.09 146.5,-45.09"/>
</a>
</g>
<g id="a_edge16&#45;headlabel"><a xlink:href="dir_000071_000077.html" target="_top" xlink:title="3">
<text text-anchor="middle" x="149.34" y="-46.18" font-family="Helvetica,sans-Serif" font-size="10.00" fill="#63b8ff">3</text>
</a>
</g>
</g>
<!-- dir_b080fbfc44463f036af256b25228453b&#45;&gt;dir_d458d878e154568f8572c436e514c759 -->
<g id="edge17" class="edge">
<title>dir_b080fbfc44463f036af256b25228453b&#45;&gt;dir_d458d878e154568f8572c436e514c759</title>
<g id="a_edge17"><a xlink:href="dir_000086_000077.html" target="_top">
<path fill="none" stroke="#63b8ff" d="M194.2,-70.98C185.18,-63.15 171.59,-51.34 160.68,-41.86"/>
<polygon fill="#63b8ff" stroke="#63b8ff" points="162.82,-39.09 152.98,-35.17 158.23,-44.37 162.82,-39.09"/>
</a>
</g>
<g id="a_edge17&#45;headlabel"><a xlink:href="dir_000086_000077.html" target="_top" xlink:title="27">
<text text-anchor="middle" x="167.4" y="-36.8" font-family="Helvetica,sans-Serif" font-size="10.00" fill="#63b8ff">27</text>
</a>
</g>
</g>
<!-- dir_364af192430b60ca4d316aa6a7cd95d2 -->
<g id="node12" class="node">
<title>dir_364af192430b60ca4d316aa6a7cd95d2</title>
<g id="a_node12"><a xlink:href="dir_364af192430b60ca4d316aa6a7cd95d2.html" target="_top" xlink:title="vbus">
<polygon fill="#a2b4d6" stroke="#404040" points="114,-255 74,-255 74,-236 114,-236 114,-255"/>
<text text-anchor="middle" x="94" y="-243" font-family="Helvetica,sans-Serif" font-size="10.00">vbus</text>
</a>
</g>
</g>
<!-- dir_364af192430b60ca4d316aa6a7cd95d2&#45;&gt;dir_dd3580c6b729ef0dd2be01098f8e55ee -->
<g id="edge20" class="edge">
<title>dir_364af192430b60ca4d316aa6a7cd95d2&#45;&gt;dir_dd3580c6b729ef0dd2be01098f8e55ee</title>
<g id="a_edge20"><a xlink:href="dir_000090_000017.html" target="_top">
<path fill="none" stroke="#63b8ff" d="M97.34,-235.8C100.55,-226.94 105.18,-212.75 107,-200 109.13,-185.13 108.99,-168.09 108.4,-155.42"/>
<polygon fill="#63b8ff" stroke="#63b8ff" points="111.87,-154.95 107.77,-145.18 104.89,-155.38 111.87,-154.95"/>
</a>
</g>
<g id="a_edge20&#45;headlabel"><a xlink:href="dir_000090_000017.html" target="_top" xlink:title="1">
<text text-anchor="middle" x="114.93" y="-155.87" font-family="Helvetica,sans-Serif" font-size="10.00" fill="#63b8ff">1</text>
</a>
</g>
</g>
<!-- dir_364af192430b60ca4d316aa6a7cd95d2&#45;&gt;dir_30d77a5207eb89e366a23f343e13fefd -->
<g id="edge18" class="edge">
<title>dir_364af192430b60ca4d316aa6a7cd95d2&#45;&gt;dir_30d77a5207eb89e366a23f343e13fefd</title>
<g id="a_edge18"><a xlink:href="dir_000090_000067.html" target="_top">
<path fill="none" stroke="#63b8ff" d="M92.18,-235.75C90.74,-228.8 88.68,-218.85 86.87,-210.13"/>
<polygon fill="#63b8ff" stroke="#63b8ff" points="90.24,-209.17 84.78,-200.09 83.39,-210.59 90.24,-209.17"/>
</a>
</g>
<g id="a_edge18&#45;headlabel"><a xlink:href="dir_000090_000067.html" target="_top" xlink:title="2">
<text text-anchor="middle" x="93.75" y="-209.61" font-family="Helvetica,sans-Serif" font-size="10.00" fill="#63b8ff">2</text>
</a>
</g>
</g>
<!-- dir_364af192430b60ca4d316aa6a7cd95d2&#45;&gt;dir_d458d878e154568f8572c436e514c759 -->
<g id="edge19" class="edge">
<title>dir_364af192430b60ca4d316aa6a7cd95d2&#45;&gt;dir_d458d878e154568f8572c436e514c759</title>
<g id="a_edge19"><a xlink:href="dir_000090_000077.html" target="_top">
<path fill="none" stroke="#63b8ff" d="M84.39,-235.69C76.13,-227.41 64.8,-214.18 60,-200 47.58,-163.28 35.08,-141.42 80,-71 88.92,-57.01 103.97,-46.14 117.12,-38.64"/>
<polygon fill="#63b8ff" stroke="#63b8ff" points="119.06,-41.57 126.25,-33.78 115.78,-35.39 119.06,-41.57"/>
</a>
</g>
<g id="a_edge19&#45;headlabel"><a xlink:href="dir_000090_000077.html" target="_top" xlink:title="15">
<text text-anchor="middle" x="117.23" y="-43.27" font-family="Helvetica,sans-Serif" font-size="10.00" fill="#63b8ff">15</text>
</a>
</g>
</g>
<!-- dir_499f942adf6d1e36428e5905faf00190 -->
<g id="node13" class="node">
<title>dir_499f942adf6d1e36428e5905faf00190</title>
<g id="a_node13"><a xlink:href="dir_499f942adf6d1e36428e5905faf00190.html" target="_top" xlink:title="vcpu">
<polygon fill="#a2b4d6" stroke="#404040" points="56,-255 16,-255 16,-236 56,-236 56,-255"/>
<text text-anchor="middle" x="36" y="-243" font-family="Helvetica,sans-Serif" font-size="10.00">vcpu</text>
</a>
</g>
</g>
<!-- dir_499f942adf6d1e36428e5905faf00190&#45;&gt;dir_30d77a5207eb89e366a23f343e13fefd -->
<g id="edge21" class="edge">
<title>dir_499f942adf6d1e36428e5905faf00190&#45;&gt;dir_30d77a5207eb89e366a23f343e13fefd</title>
<g id="a_edge21"><a xlink:href="dir_000091_000067.html" target="_top">
<path fill="none" stroke="#63b8ff" d="M43.76,-235.75C50.47,-228.18 60.34,-217.05 68.51,-207.84"/>
<polygon fill="#63b8ff" stroke="#63b8ff" points="71.37,-209.89 75.38,-200.09 66.13,-205.25 71.37,-209.89"/>
</a>
</g>
<g id="a_edge21&#45;headlabel"><a xlink:href="dir_000091_000067.html" target="_top" xlink:title="1">
<text text-anchor="middle" x="71.11" y="-211.97" font-family="Helvetica,sans-Serif" font-size="10.00" fill="#63b8ff">1</text>
</a>
</g>
</g>
<!-- dir_499f942adf6d1e36428e5905faf00190&#45;&gt;dir_d458d878e154568f8572c436e514c759 -->
<g id="edge22" class="edge">
<title>dir_499f942adf6d1e36428e5905faf00190&#45;&gt;dir_d458d878e154568f8572c436e514c759</title>
<g id="a_edge22"><a xlink:href="dir_000091_000077.html" target="_top">
<path fill="none" stroke="#63b8ff" d="M34.6,-235.64C30.7,-207.7 22.67,-120.39 65,-71 78.91,-54.77 100.29,-43.16 117.15,-35.88"/>
<polygon fill="#63b8ff" stroke="#63b8ff" points="118.52,-39.1 126.47,-32.09 115.88,-32.62 118.52,-39.1"/>
</a>
</g>
<g id="a_edge22&#45;headlabel"><a xlink:href="dir_000091_000077.html" target="_top" xlink:title="3">
<text text-anchor="middle" x="116.26" y="-40.58" font-family="Helvetica,sans-Serif" font-size="10.00" fill="#63b8ff">3</text>
</a>
</g>
</g>
</g>
</svg>
