<?xml version="1.0" encoding="UTF-8" standalone="no"?>
<!DOCTYPE svg PUBLIC "-//W3C//DTD SVG 1.1//EN"
 "http://www.w3.org/Graphics/SVG/1.1/DTD/svg11.dtd">
<!-- Generated by graphviz version 2.43.0 (0)
 -->
<!-- Title: x86/l4f Pages: 1 -->
<svg width="163pt" height="141pt"
 viewBox="0.00 0.00 162.50 141.00" xmlns="http://www.w3.org/2000/svg" xmlns:xlink="http://www.w3.org/1999/xlink">
<g id="graph0" class="graph" transform="scale(1 1) rotate(0) translate(4 137)">
<title>x86/l4f</title>
<g id="clust1" class="cluster">
<title>clusterdir_d979004d17f5223e5cbcd0eb3b9cd5ac</title>
<g id="a_clust1"><a xlink:href="dir_d979004d17f5223e5cbcd0eb3b9cd5ac.html" target="_top" xlink:title="x86">
<polygon fill="#edf0f7" stroke="#404040" stroke-dasharray="5,2" points="8,-8 8,-125 117,-125 117,-8 8,-8"/>
<text text-anchor="middle" x="62.5" y="-113" font-family="Helvetica,sans-Serif" font-size="10.00">x86</text>
</a>
</g>
</g>
<g id="clust2" class="cluster">
<title>clusterdir_8d01419ca1aaeec965167f1badeb4efc</title>
<g id="a_clust2"><a xlink:href="dir_8d01419ca1aaeec965167f1badeb4efc.html" target="_top">
<polygon fill="#edf0f7" stroke="#404040" stroke-width="2" points="16,-63 16,-98 109,-98 109,-63 16,-63"/>
</a>
</g>
</g>
<!-- dir_3fa9cbe562e25975b065e1d6353565fc -->
<g id="node1" class="node">
<title>dir_3fa9cbe562e25975b065e1d6353565fc</title>
<g id="a_node1"><a xlink:href="dir_3fa9cbe562e25975b065e1d6353565fc.html" target="_top" xlink:title="l4">
<polygon fill="#a2b4d6" stroke="red" points="53.5,-35 24.5,-35 24.5,-16 53.5,-16 53.5,-35"/>
<text text-anchor="middle" x="39" y="-23" font-family="Helvetica,sans-Serif" font-size="10.00">l4</text>
</a>
</g>
</g>
<!-- dir_8d01419ca1aaeec965167f1badeb4efc -->
<g id="node2" class="node">
<title>dir_8d01419ca1aaeec965167f1badeb4efc</title>
<text text-anchor="middle" x="86" y="-78" font-family="Helvetica,sans-Serif" font-size="10.00">l4f</text>
</g>
<!-- dir_b1ef4b33e412106de45c69a6c077bb16 -->
<g id="node3" class="node">
<title>dir_b1ef4b33e412106de45c69a6c077bb16</title>
<g id="a_node3"><a xlink:href="dir_b1ef4b33e412106de45c69a6c077bb16.html" target="_top" xlink:title="l4">
<polygon fill="#a2b4d6" stroke="#404040" points="53.5,-90 24.5,-90 24.5,-71 53.5,-71 53.5,-90"/>
<text text-anchor="middle" x="39" y="-78" font-family="Helvetica,sans-Serif" font-size="10.00">l4</text>
</a>
</g>
</g>
<!-- dir_b1ef4b33e412106de45c69a6c077bb16&#45;&gt;dir_3fa9cbe562e25975b065e1d6353565fc -->
<g id="edge2" class="edge">
<title>dir_b1ef4b33e412106de45c69a6c077bb16&#45;&gt;dir_3fa9cbe562e25975b065e1d6353565fc</title>
<g id="a_edge2"><a xlink:href="dir_000049_000048.html" target="_top">
<path fill="none" stroke="#63b8ff" d="M39,-70.75C39,-63.8 39,-53.85 39,-45.13"/>
<polygon fill="#63b8ff" stroke="#63b8ff" points="42.5,-45.09 39,-35.09 35.5,-45.09 42.5,-45.09"/>
</a>
</g>
<g id="a_edge2&#45;headlabel"><a xlink:href="dir_000049_000048.html" target="_top" xlink:title="1">
<text text-anchor="middle" x="45.34" y="-46.18" font-family="Helvetica,sans-Serif" font-size="10.00" fill="#63b8ff">1</text>
</a>
</g>
</g>
<!-- dir_1f581fa1f88782a0973f05f5fe437b46 -->
<g id="node4" class="node">
<title>dir_1f581fa1f88782a0973f05f5fe437b46</title>
<g id="a_node4"><a xlink:href="dir_1f581fa1f88782a0973f05f5fe437b46.html" target="_top" xlink:title="l4">
<polygon fill="#edf0f7" stroke="red" points="154.5,-35 125.5,-35 125.5,-16 154.5,-16 154.5,-35"/>
<text text-anchor="middle" x="140" y="-23" font-family="Helvetica,sans-Serif" font-size="10.00">l4</text>
</a>
</g>
</g>
<!-- dir_b1ef4b33e412106de45c69a6c077bb16&#45;&gt;dir_1f581fa1f88782a0973f05f5fe437b46 -->
<g id="edge1" class="edge">
<title>dir_b1ef4b33e412106de45c69a6c077bb16&#45;&gt;dir_1f581fa1f88782a0973f05f5fe437b46</title>
<g id="a_edge1"><a xlink:href="dir_000049_000047.html" target="_top">
<path fill="none" stroke="#63b8ff" d="M50.97,-70.72C54.74,-68.11 58.97,-65.32 63,-63 72.61,-57.47 97.36,-45.9 116.23,-37.27"/>
<polygon fill="#63b8ff" stroke="#63b8ff" points="117.8,-40.39 125.45,-33.06 114.9,-34.03 117.8,-40.39"/>
</a>
</g>
<g id="a_edge1&#45;headlabel"><a xlink:href="dir_000049_000047.html" target="_top" xlink:title="7">
<text text-anchor="middle" x="115.71" y="-41.97" font-family="Helvetica,sans-Serif" font-size="10.00" fill="#63b8ff">7</text>
</a>
</g>
</g>
</g>
</svg>
