<?xml version="1.0" encoding="UTF-8" standalone="no"?>
<!DOCTYPE svg PUBLIC "-//W3C//DTD SVG 1.1//EN"
 "http://www.w3.org/Graphics/SVG/1.1/DTD/svg11.dtd">
<!-- Generated by graphviz version 2.43.0 (0)
 -->
<!-- Title: l4/re/dma_space Pages: 1 -->
<svg width="1054pt" height="808pt"
 viewBox="0.00 0.00 1054.00 808.00" xmlns="http://www.w3.org/2000/svg" xmlns:xlink="http://www.w3.org/1999/xlink">
<g id="graph0" class="graph" transform="scale(1 1) rotate(0) translate(4 804)">
<title>l4/re/dma_space</title>
<!-- Node1 -->
<g id="Node000001" class="node">
<title>Node1</title>
<g id="a_Node000001"><a xlink:title=" ">
<polygon fill="#999999" stroke="#666666" points="238.5,-800 141.5,-800 141.5,-781 238.5,-781 238.5,-800"/>
<text text-anchor="middle" x="190" y="-788" font-family="Helvetica,sans-Serif" font-size="10.00">l4/re/dma_space</text>
</a>
</g>
</g>
<!-- Node2 -->
<g id="Node000002" class="node">
<title>Node2</title>
<g id="a_Node000002"><a xlink:href="l4_2sys_2types_8h.html" target="_top" xlink:title="Common L4 ABI Data Types.">
<polygon fill="white" stroke="#666666" points="599,-184 515,-184 515,-165 599,-165 599,-184"/>
<text text-anchor="middle" x="557" y="-172" font-family="Helvetica,sans-Serif" font-size="10.00">l4/sys/types.h</text>
</a>
</g>
</g>
<!-- Node1&#45;&gt;Node2 -->
<g id="edge1_Node000001_Node000002" class="edge">
<title>Node1&#45;&gt;Node2</title>
<g id="a_edge1_Node000001_Node000002"><a xlink:title=" ">
<path fill="none" stroke="#63b8ff" d="M153.98,-780.92C109.03,-767.82 38,-738.15 38,-681.5 38,-681.5 38,-681.5 38,-514.5 38,-437.73 76,-422.77 76,-346 76,-346 76,-346 76,-283.5 76,-243.74 103.16,-237.21 139,-220 202.39,-189.56 407.25,-179.73 504.64,-176.73"/>
<polygon fill="#63b8ff" stroke="#63b8ff" points="504.95,-180.22 514.84,-176.43 504.74,-173.23 504.95,-180.22"/>
</a>
</g>
</g>
<!-- Node3 -->
<g id="Node000003" class="node">
<title>Node3</title>
<g id="a_Node000003"><a xlink:href="l4_2sys_2l4int_8h.html" target="_top" xlink:title="Fixed sized integer types, generic version.">
<polygon fill="white" stroke="#666666" points="490.5,-74 411.5,-74 411.5,-55 490.5,-55 490.5,-74"/>
<text text-anchor="middle" x="451" y="-62" font-family="Helvetica,sans-Serif" font-size="10.00">l4/sys/l4int.h</text>
</a>
</g>
</g>
<!-- Node1&#45;&gt;Node3 -->
<g id="edge12_Node000001_Node000003" class="edge">
<title>Node1&#45;&gt;Node3</title>
<g id="a_edge12_Node000001_Node000003"><a xlink:title=" ">
<path fill="none" stroke="#63b8ff" d="M141.07,-783.15C84.77,-772.77 0,-746.38 0,-681.5 0,-681.5 0,-681.5 0,-173.5 0,-129.14 36.21,-127.44 77,-110 134.26,-85.52 313.33,-72.83 401.27,-67.94"/>
<polygon fill="#63b8ff" stroke="#63b8ff" points="401.48,-71.44 411.27,-67.4 401.1,-64.45 401.48,-71.44"/>
</a>
</g>
</g>
<!-- Node9 -->
<g id="Node000009" class="node">
<title>Node9</title>
<g id="a_Node000009"><a xlink:href="capability.html" target="_top" xlink:title="L4::Cap related definitions.">
<polygon fill="white" stroke="#666666" points="580,-690 484,-690 484,-671 580,-671 580,-690"/>
<text text-anchor="middle" x="532" y="-678" font-family="Helvetica,sans-Serif" font-size="10.00">l4/sys/capability</text>
</a>
</g>
</g>
<!-- Node1&#45;&gt;Node9 -->
<g id="edge13_Node000001_Node000009" class="edge">
<title>Node1&#45;&gt;Node9</title>
<g id="a_edge13_Node000001_Node000009"><a xlink:title=" ">
<path fill="none" stroke="#63b8ff" d="M238.69,-785.47C307.87,-779.13 430.6,-765.39 470,-745 491.08,-734.09 509.24,-713.32 520.36,-698.51"/>
<polygon fill="#63b8ff" stroke="#63b8ff" points="523.34,-700.36 526.34,-690.19 517.66,-696.27 523.34,-700.36"/>
</a>
</g>
</g>
<!-- Node17 -->
<g id="Node000017" class="node">
<title>Node17</title>
<g id="a_Node000017"><a xlink:href="types.html" target="_top" xlink:title=" ">
<polygon fill="white" stroke="#666666" points="336,-354.5 272,-354.5 272,-335.5 336,-335.5 336,-354.5"/>
<text text-anchor="middle" x="304" y="-342.5" font-family="Helvetica,sans-Serif" font-size="10.00">cxx/types</text>
</a>
</g>
</g>
<!-- Node1&#45;&gt;Node17 -->
<g id="edge71_Node000001_Node000017" class="edge">
<title>Node1&#45;&gt;Node17</title>
<g id="a_edge71_Node000001_Node000017"><a xlink:title=" ">
<path fill="none" stroke="#63b8ff" d="M168.82,-780.95C135.86,-766.06 76,-732.07 76,-681.5 76,-681.5 76,-681.5 76,-569.5 76,-460.32 210.97,-386.84 273.22,-358.76"/>
<polygon fill="#63b8ff" stroke="#63b8ff" points="274.81,-361.88 282.55,-354.64 271.99,-355.47 274.81,-361.88"/>
</a>
</g>
</g>
<!-- Node22 -->
<g id="Node000022" class="node">
<title>Node22</title>
<g id="a_Node000022"><a xlink:href="ipc__iface.html" target="_top" xlink:title="Interface Definition Language.">
<polygon fill="white" stroke="#666666" points="563,-580 483,-580 483,-561 563,-561 563,-580"/>
<text text-anchor="middle" x="523" y="-568" font-family="Helvetica,sans-Serif" font-size="10.00">cxx/ipc_iface</text>
</a>
</g>
</g>
<!-- Node1&#45;&gt;Node22 -->
<g id="edge73_Node000001_Node000022" class="edge">
<title>Node1&#45;&gt;Node22</title>
<g id="a_edge73_Node000001_Node000022"><a xlink:title=" ">
<path fill="none" stroke="#63b8ff" d="M238.24,-780.93C292.41,-769.06 380.05,-742.81 436,-690 463.83,-663.74 456.77,-646.41 480,-616 487.81,-605.78 497.72,-595.38 506.06,-587.21"/>
<polygon fill="#63b8ff" stroke="#63b8ff" points="508.64,-589.58 513.45,-580.14 503.81,-584.52 508.64,-589.58"/>
</a>
</g>
</g>
<!-- Node23 -->
<g id="Node000023" class="node">
<title>Node23</title>
<g id="a_Node000023"><a xlink:href="ipc__types.html" target="_top" xlink:title=" ">
<polygon fill="white" stroke="#666666" points="447.5,-470 332.5,-470 332.5,-451 447.5,-451 447.5,-470"/>
<text text-anchor="middle" x="390" y="-458" font-family="Helvetica,sans-Serif" font-size="10.00">l4/sys/cxx/ipc_types</text>
</a>
</g>
</g>
<!-- Node1&#45;&gt;Node23 -->
<g id="edge72_Node000001_Node000023" class="edge">
<title>Node1&#45;&gt;Node23</title>
<g id="a_edge72_Node000001_Node000023"><a xlink:title=" ">
<path fill="none" stroke="#63b8ff" d="M186.1,-780.76C177.7,-760.55 159.86,-709.38 176,-671 215.39,-577.31 319.39,-504.56 366.37,-475.39"/>
<polygon fill="#63b8ff" stroke="#63b8ff" points="368.26,-478.34 374.97,-470.14 364.61,-472.36 368.26,-478.34"/>
</a>
</g>
</g>
<!-- Node26 -->
<g id="Node000026" class="node">
<title>Node26</title>
<g id="a_Node000026"><a xlink:href="dataspace.html" target="_top" xlink:title="Dataspace interface.">
<polygon fill="white" stroke="#666666" points="293,-745 201,-745 201,-726 293,-726 293,-745"/>
<text text-anchor="middle" x="247" y="-733" font-family="Helvetica,sans-Serif" font-size="10.00">l4/re/dataspace</text>
</a>
</g>
</g>
<!-- Node1&#45;&gt;Node26 -->
<g id="edge62_Node000001_Node000026" class="edge">
<title>Node1&#45;&gt;Node26</title>
<g id="a_edge62_Node000001_Node000026"><a xlink:title=" ">
<path fill="none" stroke="#63b8ff" d="M199.16,-780.98C207.5,-773.23 220.03,-761.58 230.18,-752.14"/>
<polygon fill="#63b8ff" stroke="#63b8ff" points="232.74,-754.54 237.68,-745.17 227.97,-749.42 232.74,-754.54"/>
</a>
</g>
</g>
<!-- Node27 -->
<g id="Node000027" class="node">
<title>Node27</title>
<g id="a_Node000027"><a xlink:href="protocols_8h.html" target="_top" xlink:title="L4Re Protocol Constants (C version)">
<polygon fill="white" stroke="#666666" points="427.5,-690 332.5,-690 332.5,-671 427.5,-671 427.5,-690"/>
<text text-anchor="middle" x="380" y="-678" font-family="Helvetica,sans-Serif" font-size="10.00">l4/re/protocols.h</text>
</a>
</g>
</g>
<!-- Node1&#45;&gt;Node27 -->
<g id="edge70_Node000001_Node000027" class="edge">
<title>Node1&#45;&gt;Node27</title>
<g id="a_edge70_Node000001_Node000027"><a xlink:title=" ">
<path fill="none" stroke="#63b8ff" d="M218.25,-780.95C241.58,-773.27 275.11,-760.78 302,-745 325.13,-731.43 348.57,-711.29 363.64,-697.35"/>
<polygon fill="#63b8ff" stroke="#63b8ff" points="366.21,-699.73 371.09,-690.32 361.41,-694.63 366.21,-699.73"/>
</a>
</g>
</g>
<!-- Node2&#45;&gt;Node3 -->
<g id="edge2_Node000002_Node000003" class="edge">
<title>Node2&#45;&gt;Node3</title>
<g id="a_edge2_Node000002_Node000003"><a xlink:title=" ">
<path fill="none" stroke="#63b8ff" d="M547.47,-164.81C537.85,-155.96 522.65,-141.77 510,-129 494.54,-113.39 477.52,-94.93 465.75,-81.95"/>
<polygon fill="#63b8ff" stroke="#63b8ff" points="468.14,-79.37 458.84,-74.29 462.94,-84.06 468.14,-79.37"/>
</a>
</g>
</g>
<!-- Node4 -->
<g id="Node000004" class="node">
<title>Node4</title>
<g id="a_Node000004"><a xlink:href="compiler_8h.html" target="_top" xlink:title="L4 compiler related defines.">
<polygon fill="white" stroke="#666666" points="853.5,-74 754.5,-74 754.5,-55 853.5,-55 853.5,-74"/>
<text text-anchor="middle" x="804" y="-62" font-family="Helvetica,sans-Serif" font-size="10.00">l4/sys/compiler.h</text>
</a>
</g>
</g>
<!-- Node2&#45;&gt;Node4 -->
<g id="edge3_Node000002_Node000004" class="edge">
<title>Node2&#45;&gt;Node4</title>
<g id="a_edge3_Node000002_Node000004"><a xlink:title=" ">
<path fill="none" stroke="#63b8ff" d="M576.8,-164.84C620.26,-145.84 724.21,-100.39 775.03,-78.17"/>
<polygon fill="#63b8ff" stroke="#63b8ff" points="776.69,-81.26 784.45,-74.05 773.89,-74.85 776.69,-81.26"/>
</a>
</g>
</g>
<!-- Node6 -->
<g id="Node000006" class="node">
<title>Node6</title>
<g id="a_Node000006"><a xlink:href="l4_2sys_2consts_8h.html" target="_top" xlink:title="Common constants.">
<polygon fill="white" stroke="#666666" points="812.5,-129 723.5,-129 723.5,-110 812.5,-110 812.5,-129"/>
<text text-anchor="middle" x="768" y="-117" font-family="Helvetica,sans-Serif" font-size="10.00">l4/sys/consts.h</text>
</a>
</g>
</g>
<!-- Node2&#45;&gt;Node6 -->
<g id="edge5_Node000002_Node000006" class="edge">
<title>Node2&#45;&gt;Node6</title>
<g id="a_edge5_Node000002_Node000006"><a xlink:title=" ">
<path fill="none" stroke="#63b8ff" d="M590.9,-164.98C627.02,-155.91 684.32,-141.52 723.92,-131.57"/>
<polygon fill="#63b8ff" stroke="#63b8ff" points="724.99,-134.91 733.83,-129.08 723.28,-128.12 724.99,-134.91"/>
</a>
</g>
</g>
<!-- Node7 -->
<g id="Node000007" class="node">
<title>Node7</title>
<g id="a_Node000007"><a xlink:href="____l4__fpage_8h_source.html" target="_top" xlink:title=" ">
<polygon fill="white" stroke="#666666" points="629,-129 519,-129 519,-110 629,-110 629,-129"/>
<text text-anchor="middle" x="574" y="-117" font-family="Helvetica,sans-Serif" font-size="10.00">l4/sys/__l4_fpage.h</text>
</a>
</g>
</g>
<!-- Node2&#45;&gt;Node7 -->
<g id="edge8_Node000002_Node000007" class="edge">
<title>Node2&#45;&gt;Node7</title>
<g id="a_edge8_Node000002_Node000007"><a xlink:title=" ">
<path fill="none" stroke="#63b8ff" d="M559.81,-164.75C562.06,-157.72 565.3,-147.62 568.12,-138.84"/>
<polygon fill="#63b8ff" stroke="#63b8ff" points="571.52,-139.68 571.25,-129.09 564.86,-137.54 571.52,-139.68"/>
</a>
</g>
</g>
<!-- Node8 -->
<g id="Node000008" class="node">
<title>Node8</title>
<g id="a_Node000008"><a xlink:href="____timeout_8h_source.html" target="_top" xlink:title=" ">
<polygon fill="white" stroke="#666666" points="463,-129 357,-129 357,-110 463,-110 463,-129"/>
<text text-anchor="middle" x="410" y="-117" font-family="Helvetica,sans-Serif" font-size="10.00">l4/sys/__timeout.h</text>
</a>
</g>
</g>
<!-- Node2&#45;&gt;Node8 -->
<g id="edge10_Node000002_Node000008" class="edge">
<title>Node2&#45;&gt;Node8</title>
<g id="a_edge10_Node000002_Node000008"><a xlink:title=" ">
<path fill="none" stroke="#63b8ff" d="M533.38,-164.98C509.1,-156.23 471.05,-142.51 443.63,-132.62"/>
<polygon fill="#63b8ff" stroke="#63b8ff" points="444.64,-129.27 434.05,-129.17 442.27,-135.85 444.64,-129.27"/>
</a>
</g>
</g>
<!-- Node5 -->
<g id="Node000005" class="node">
<title>Node5</title>
<g id="a_Node000005"><a xlink:title=" ">
<polygon fill="#e0e0e0" stroke="#999999" points="850,-19 758,-19 758,0 850,0 850,-19"/>
<text text-anchor="middle" x="804" y="-7" font-family="Helvetica,sans-Serif" font-size="10.00">l4/sys/linkage.h</text>
</a>
</g>
</g>
<!-- Node4&#45;&gt;Node5 -->
<g id="edge4_Node000004_Node000005" class="edge">
<title>Node4&#45;&gt;Node5</title>
<g id="a_edge4_Node000004_Node000005"><a xlink:title=" ">
<path fill="none" stroke="#63b8ff" d="M804,-54.75C804,-47.8 804,-37.85 804,-29.13"/>
<polygon fill="#63b8ff" stroke="#63b8ff" points="807.5,-29.09 804,-19.09 800.5,-29.09 807.5,-29.09"/>
</a>
</g>
</g>
<!-- Node6&#45;&gt;Node3 -->
<g id="edge7_Node000006_Node000003" class="edge">
<title>Node6&#45;&gt;Node3</title>
<g id="a_edge7_Node000006_Node000003"><a xlink:title=" ">
<path fill="none" stroke="#63b8ff" d="M723.25,-111.02C664.53,-101.2 561.77,-84.02 500.69,-73.81"/>
<polygon fill="#63b8ff" stroke="#63b8ff" points="500.96,-70.3 490.52,-72.11 499.81,-77.21 500.96,-70.3"/>
</a>
</g>
</g>
<!-- Node6&#45;&gt;Node4 -->
<g id="edge6_Node000006_Node000004" class="edge">
<title>Node6&#45;&gt;Node4</title>
<g id="a_edge6_Node000006_Node000004"><a xlink:title=" ">
<path fill="none" stroke="#63b8ff" d="M773.94,-109.75C778.98,-102.34 786.34,-91.5 792.51,-82.41"/>
<polygon fill="#63b8ff" stroke="#63b8ff" points="795.44,-84.33 798.17,-74.09 789.65,-80.39 795.44,-84.33"/>
</a>
</g>
</g>
<!-- Node7&#45;&gt;Node4 -->
<g id="edge9_Node000007_Node000004" class="edge">
<title>Node7&#45;&gt;Node4</title>
<g id="a_edge9_Node000007_Node000004"><a xlink:title=" ">
<path fill="none" stroke="#63b8ff" d="M610.95,-109.98C650.57,-100.86 713.59,-86.33 756.77,-76.38"/>
<polygon fill="#63b8ff" stroke="#63b8ff" points="757.8,-79.74 766.76,-74.08 756.23,-72.92 757.8,-79.74"/>
</a>
</g>
</g>
<!-- Node8&#45;&gt;Node3 -->
<g id="edge11_Node000008_Node000003" class="edge">
<title>Node8&#45;&gt;Node3</title>
<g id="a_edge11_Node000008_Node000003"><a xlink:title=" ">
<path fill="none" stroke="#63b8ff" d="M416.77,-109.75C422.56,-102.26 431.06,-91.28 438.14,-82.13"/>
<polygon fill="#63b8ff" stroke="#63b8ff" points="441.01,-84.14 444.36,-74.09 435.47,-79.86 441.01,-84.14"/>
</a>
</g>
</g>
<!-- Node9&#45;&gt;Node2 -->
<g id="edge15_Node000009_Node000002" class="edge">
<title>Node9&#45;&gt;Node2</title>
<g id="a_edge15_Node000009_Node000002"><a xlink:title=" ">
<path fill="none" stroke="#63b8ff" d="M505.58,-671C419.41,-641.43 152,-534.5 152,-346 152,-346 152,-346 152,-283.5 152,-211.33 395.13,-186.16 504.64,-178.48"/>
<polygon fill="#63b8ff" stroke="#63b8ff" points="505.06,-181.96 514.8,-177.8 504.59,-174.98 505.06,-181.96"/>
</a>
</g>
</g>
<!-- Node9&#45;&gt;Node6 -->
<g id="edge14_Node000009_Node000006" class="edge">
<title>Node9&#45;&gt;Node6</title>
<g id="a_edge14_Node000009_Node000006"><a xlink:title=" ">
<path fill="none" stroke="#63b8ff" d="M580.26,-678.71C701.27,-675.44 1008,-658.57 1008,-571.5 1008,-571.5 1008,-571.5 1008,-228.5 1008,-147.72 893.52,-127 822.69,-121.92"/>
<polygon fill="#63b8ff" stroke="#63b8ff" points="822.78,-118.42 812.58,-121.28 822.34,-125.4 822.78,-118.42"/>
</a>
</g>
</g>
<!-- Node10 -->
<g id="Node000010" class="node">
<title>Node10</title>
<g id="a_Node000010"><a xlink:href="kobject_source.html" target="_top" xlink:title=" ">
<polygon fill="white" stroke="#666666" points="701.5,-525 618.5,-525 618.5,-506 701.5,-506 701.5,-525"/>
<text text-anchor="middle" x="660" y="-513" font-family="Helvetica,sans-Serif" font-size="10.00">l4/sys/kobject</text>
</a>
</g>
</g>
<!-- Node9&#45;&gt;Node10 -->
<g id="edge16_Node000009_Node000010" class="edge">
<title>Node9&#45;&gt;Node10</title>
<g id="a_edge16_Node000009_Node000010"><a xlink:title=" ">
<path fill="none" stroke="#63b8ff" d="M540.22,-670.85C548.48,-662.03 561.48,-647.87 572,-635 600.66,-599.96 631.67,-556.85 648.14,-533.49"/>
<polygon fill="#63b8ff" stroke="#63b8ff" points="651.19,-535.23 654.07,-525.04 645.46,-531.21 651.19,-535.23"/>
</a>
</g>
</g>
<!-- Node20 -->
<g id="Node000020" class="node">
<title>Node20</title>
<g id="a_Node000020"><a xlink:href="l4_2sys_2task_8h.html" target="_top" xlink:title="Common task related definitions.">
<polygon fill="white" stroke="#666666" points="686,-354.5 608,-354.5 608,-335.5 686,-335.5 686,-354.5"/>
<text text-anchor="middle" x="647" y="-342.5" font-family="Helvetica,sans-Serif" font-size="10.00">l4/sys/task.h</text>
</a>
</g>
</g>
<!-- Node9&#45;&gt;Node20 -->
<g id="edge45_Node000009_Node000020" class="edge">
<title>Node9&#45;&gt;Node20</title>
<g id="a_edge45_Node000009_Node000020"><a xlink:title=" ">
<path fill="none" stroke="#63b8ff" d="M580.22,-677.64C647.66,-672.16 762,-651.13 762,-571.5 762,-571.5 762,-571.5 762,-459.5 762,-411.3 710.18,-376.66 676.11,-359.1"/>
<polygon fill="#63b8ff" stroke="#63b8ff" points="677.55,-355.91 667.03,-354.61 674.44,-362.18 677.55,-355.91"/>
</a>
</g>
</g>
<!-- Node21 -->
<g id="Node000021" class="node">
<title>Node21</title>
<g id="a_Node000021"><a xlink:href="sys_2meta.html" target="_top" xlink:title="Meta interface for getting dynamic type information about objects behind capabilities.">
<polygon fill="white" stroke="#666666" points="563,-635 489,-635 489,-616 563,-616 563,-635"/>
<text text-anchor="middle" x="526" y="-623" font-family="Helvetica,sans-Serif" font-size="10.00">l4/sys/meta</text>
</a>
</g>
</g>
<!-- Node9&#45;&gt;Node21 -->
<g id="edge46_Node000009_Node000021" class="edge">
<title>Node9&#45;&gt;Node21</title>
<g id="a_edge46_Node000009_Node000021"><a xlink:title=" ">
<path fill="none" stroke="#63b8ff" d="M531.01,-670.75C530.22,-663.8 529.1,-653.85 528.11,-645.13"/>
<polygon fill="#63b8ff" stroke="#63b8ff" points="531.58,-644.63 526.97,-635.09 524.62,-645.42 531.58,-644.63"/>
</a>
</g>
</g>
<!-- Node10&#45;&gt;Node2 -->
<g id="edge31_Node000010_Node000002" class="edge">
<title>Node10&#45;&gt;Node2</title>
<g id="a_edge31_Node000010_Node000002"><a xlink:title=" ">
<path fill="none" stroke="#63b8ff" d="M663.55,-505.97C671.53,-485.35 688.58,-431.84 667,-396 649.36,-366.7 619.8,-387.14 599,-360 560.42,-309.65 556.14,-230.28 556.37,-194.32"/>
<polygon fill="#63b8ff" stroke="#63b8ff" points="559.87,-194.33 556.57,-184.26 552.87,-194.19 559.87,-194.33"/>
</a>
</g>
</g>
<!-- Node11 -->
<g id="Node000011" class="node">
<title>Node11</title>
<g id="a_Node000011"><a xlink:href="kernel__object_8h.html" target="_top" xlink:title="Kernel object system calls.">
<polygon fill="white" stroke="#666666" points="881.5,-415 790.5,-415 790.5,-396 881.5,-396 881.5,-415"/>
<text text-anchor="middle" x="836" y="-403" font-family="Helvetica,sans-Serif" font-size="10.00">kernel_object.h</text>
</a>
</g>
</g>
<!-- Node10&#45;&gt;Node11 -->
<g id="edge17_Node000010_Node000011" class="edge">
<title>Node10&#45;&gt;Node11</title>
<g id="a_edge17_Node000010_Node000011"><a xlink:title=" ">
<path fill="none" stroke="#63b8ff" d="M674.11,-505.84C704.49,-487.2 776.33,-443.11 813.24,-420.46"/>
<polygon fill="#63b8ff" stroke="#63b8ff" points="815.13,-423.41 821.83,-415.2 811.47,-417.44 815.13,-423.41"/>
</a>
</g>
</g>
<!-- Node16 -->
<g id="Node000016" class="node">
<title>Node16</title>
<g id="a_Node000016"><a xlink:href="____typeinfo_8h.html" target="_top" xlink:title="Type information handling.">
<polygon fill="white" stroke="#666666" points="657.5,-470 580.5,-470 580.5,-451 657.5,-451 657.5,-470"/>
<text text-anchor="middle" x="619" y="-458" font-family="Helvetica,sans-Serif" font-size="10.00">__typeinfo.h</text>
</a>
</g>
</g>
<!-- Node10&#45;&gt;Node16 -->
<g id="edge32_Node000010_Node000016" class="edge">
<title>Node10&#45;&gt;Node16</title>
<g id="a_edge32_Node000010_Node000016"><a xlink:title=" ">
<path fill="none" stroke="#63b8ff" d="M653.23,-505.75C647.44,-498.26 638.94,-487.28 631.86,-478.13"/>
<polygon fill="#63b8ff" stroke="#63b8ff" points="634.53,-475.86 625.64,-470.09 628.99,-480.14 634.53,-475.86"/>
</a>
</g>
</g>
<!-- Node11&#45;&gt;Node2 -->
<g id="edge18_Node000011_Node000002" class="edge">
<title>Node11&#45;&gt;Node2</title>
<g id="a_edge18_Node000011_Node000002"><a xlink:title=" ">
<path fill="none" stroke="#63b8ff" d="M825.4,-395.8C783.54,-361.44 629.34,-234.87 575.61,-190.77"/>
<polygon fill="#63b8ff" stroke="#63b8ff" points="577.56,-187.85 567.61,-184.21 573.12,-193.26 577.56,-187.85"/>
</a>
</g>
</g>
<!-- Node11&#45;&gt;Node4 -->
<g id="edge19_Node000011_Node000004" class="edge">
<title>Node11&#45;&gt;Node4</title>
<g id="a_edge19_Node000011_Node000004"><a xlink:title=" ">
<path fill="none" stroke="#63b8ff" d="M881.57,-399.04C943.33,-388.8 1046,-360.51 1046,-285.5 1046,-285.5 1046,-285.5 1046,-173.5 1046,-93.91 935.49,-72.57 863.83,-67.1"/>
<polygon fill="#63b8ff" stroke="#63b8ff" points="863.77,-63.59 853.56,-66.4 863.3,-70.57 863.77,-63.59"/>
</a>
</g>
</g>
<!-- Node12 -->
<g id="Node000012" class="node">
<title>Node12</title>
<g id="a_Node000012"><a xlink:href="l4_2sys_2utcb_8h.html" target="_top" xlink:title="UTCB definitions.">
<polygon fill="white" stroke="#666666" points="736,-239 658,-239 658,-220 736,-220 736,-239"/>
<text text-anchor="middle" x="697" y="-227" font-family="Helvetica,sans-Serif" font-size="10.00">l4/sys/utcb.h</text>
</a>
</g>
</g>
<!-- Node11&#45;&gt;Node12 -->
<g id="edge20_Node000011_Node000012" class="edge">
<title>Node11&#45;&gt;Node12</title>
<g id="a_edge20_Node000011_Node000012"><a xlink:title=" ">
<path fill="none" stroke="#63b8ff" d="M830.62,-395.93C817.05,-374.59 779.91,-317.73 743,-275 734.21,-264.83 723.46,-254.33 714.56,-246.09"/>
<polygon fill="#63b8ff" stroke="#63b8ff" points="716.77,-243.37 707.02,-239.23 712.06,-248.55 716.77,-243.37"/>
</a>
</g>
</g>
<!-- Node13 -->
<g id="Node000013" class="node">
<title>Node13</title>
<g id="a_Node000013"><a xlink:href="____kernel__object__impl_8h.html" target="_top" xlink:title="Low&#45;level kernel debugger functions.">
<polygon fill="white" stroke="#666666" points="980,-360 856,-360 856,-330 980,-330 980,-360"/>
<text text-anchor="start" x="864" y="-348" font-family="Helvetica,sans-Serif" font-size="10.00">l4/sys/__kernel_object</text>
<text text-anchor="middle" x="918" y="-337" font-family="Helvetica,sans-Serif" font-size="10.00">_impl.h</text>
</a>
</g>
</g>
<!-- Node11&#45;&gt;Node13 -->
<g id="edge24_Node000011_Node000013" class="edge">
<title>Node11&#45;&gt;Node13</title>
<g id="a_edge24_Node000011_Node000013"><a xlink:title=" ">
<path fill="none" stroke="#63b8ff" d="M848.1,-395.87C859.02,-388.08 875.51,-376.32 889.72,-366.17"/>
<polygon fill="#63b8ff" stroke="#63b8ff" points="892.11,-368.77 898.22,-360.11 888.04,-363.07 892.11,-368.77"/>
</a>
</g>
</g>
<!-- Node14 -->
<g id="Node000014" class="node">
<title>Node14</title>
<g id="a_Node000014"><a xlink:href="l4_2sys_2ipc_8h.html" target="_top" xlink:title="Common IPC interface.">
<polygon fill="white" stroke="#666666" points="866.5,-294 795.5,-294 795.5,-275 866.5,-275 866.5,-294"/>
<text text-anchor="middle" x="831" y="-282" font-family="Helvetica,sans-Serif" font-size="10.00">l4/sys/ipc.h</text>
</a>
</g>
</g>
<!-- Node11&#45;&gt;Node14 -->
<g id="edge30_Node000011_Node000014" class="edge">
<title>Node11&#45;&gt;Node14</title>
<g id="a_edge30_Node000011_Node000014"><a xlink:title=" ">
<path fill="none" stroke="#63b8ff" d="M835.64,-395.94C834.84,-376.91 832.9,-330.69 831.8,-304.47"/>
<polygon fill="#63b8ff" stroke="#63b8ff" points="835.29,-304.15 831.37,-294.3 828.29,-304.44 835.29,-304.15"/>
</a>
</g>
</g>
<!-- Node12&#45;&gt;Node2 -->
<g id="edge21_Node000012_Node000002" class="edge">
<title>Node12&#45;&gt;Node2</title>
<g id="a_edge21_Node000012_Node000002"><a xlink:title=" ">
<path fill="none" stroke="#63b8ff" d="M674.51,-219.98C651.48,-211.27 615.46,-197.63 589.37,-187.75"/>
<polygon fill="#63b8ff" stroke="#63b8ff" points="590.49,-184.44 579.9,-184.17 588.02,-190.98 590.49,-184.44"/>
</a>
</g>
</g>
<!-- Node12&#45;&gt;Node3 -->
<g id="edge23_Node000012_Node000003" class="edge">
<title>Node12&#45;&gt;Node3</title>
<g id="a_edge23_Node000012_Node000003"><a xlink:title=" ">
<path fill="none" stroke="#63b8ff" d="M695.3,-219.75C690.53,-197.66 674.89,-139.3 638,-110 598.85,-78.91 541.49,-68.97 500.63,-66.07"/>
<polygon fill="#63b8ff" stroke="#63b8ff" points="500.81,-62.57 490.62,-65.47 500.4,-69.56 500.81,-62.57"/>
</a>
</g>
</g>
<!-- Node12&#45;&gt;Node4 -->
<g id="edge22_Node000012_Node000004" class="edge">
<title>Node12&#45;&gt;Node4</title>
<g id="a_edge22_Node000012_Node000004"><a xlink:title=" ">
<path fill="none" stroke="#63b8ff" d="M716.17,-219.95C745.18,-205.82 799.15,-174.54 821,-129 828.08,-114.24 821.89,-96.09 815.08,-82.97"/>
<polygon fill="#63b8ff" stroke="#63b8ff" points="817.97,-80.99 809.95,-74.07 811.91,-84.48 817.97,-80.99"/>
</a>
</g>
</g>
<!-- Node13&#45;&gt;Node14 -->
<g id="edge25_Node000013_Node000014" class="edge">
<title>Node13&#45;&gt;Node14</title>
<g id="a_edge25_Node000013_Node000014"><a xlink:title=" ">
<path fill="none" stroke="#63b8ff" d="M896.94,-329.84C883.46,-320.77 866.01,-309.04 852.45,-299.92"/>
<polygon fill="#63b8ff" stroke="#63b8ff" points="854.03,-296.77 843.78,-294.09 850.13,-302.58 854.03,-296.77"/>
</a>
</g>
</g>
<!-- Node14&#45;&gt;Node2 -->
<g id="edge26_Node000014_Node000002" class="edge">
<title>Node14&#45;&gt;Node2</title>
<g id="a_edge26_Node000014_Node000002"><a xlink:title=" ">
<path fill="none" stroke="#63b8ff" d="M821.77,-274.67C806.85,-260.89 775.98,-234.37 745,-220 701.57,-199.86 648.12,-188.34 609.33,-182.1"/>
<polygon fill="#63b8ff" stroke="#63b8ff" points="609.71,-178.61 599.3,-180.54 608.64,-185.53 609.71,-178.61"/>
</a>
</g>
</g>
<!-- Node14&#45;&gt;Node12 -->
<g id="edge27_Node000014_Node000012" class="edge">
<title>Node14&#45;&gt;Node12</title>
<g id="a_edge27_Node000014_Node000012"><a xlink:title=" ">
<path fill="none" stroke="#63b8ff" d="M809.47,-274.98C787.53,-266.3 753.26,-252.75 728.31,-242.88"/>
<polygon fill="#63b8ff" stroke="#63b8ff" points="729.51,-239.59 718.92,-239.17 726.93,-246.1 729.51,-239.59"/>
</a>
</g>
</g>
<!-- Node15 -->
<g id="Node000015" class="node">
<title>Node15</title>
<g id="a_Node000015"><a xlink:href="err_8h.html" target="_top" xlink:title="Error codes.">
<polygon fill="white" stroke="#666666" points="914,-239 844,-239 844,-220 914,-220 914,-239"/>
<text text-anchor="middle" x="879" y="-227" font-family="Helvetica,sans-Serif" font-size="10.00">l4/sys/err.h</text>
</a>
</g>
</g>
<!-- Node14&#45;&gt;Node15 -->
<g id="edge28_Node000014_Node000015" class="edge">
<title>Node14&#45;&gt;Node15</title>
<g id="a_edge28_Node000014_Node000015"><a xlink:title=" ">
<path fill="none" stroke="#63b8ff" d="M838.93,-274.75C845.85,-267.11 856.07,-255.82 864.45,-246.56"/>
<polygon fill="#63b8ff" stroke="#63b8ff" points="867.1,-248.85 871.22,-239.09 861.91,-244.15 867.1,-248.85"/>
</a>
</g>
</g>
<!-- Node15&#45;&gt;Node4 -->
<g id="edge29_Node000015_Node000004" class="edge">
<title>Node15&#45;&gt;Node4</title>
<g id="a_edge29_Node000015_Node000004"><a xlink:title=" ">
<path fill="none" stroke="#63b8ff" d="M879.09,-219.8C878.93,-199.24 876.31,-146.66 855,-110 848.08,-98.1 836.81,-87.76 826.62,-80.06"/>
<polygon fill="#63b8ff" stroke="#63b8ff" points="828.61,-77.18 818.43,-74.23 824.55,-82.88 828.61,-77.18"/>
</a>
</g>
</g>
<!-- Node16&#45;&gt;Node17 -->
<g id="edge33_Node000016_Node000017" class="edge">
<title>Node16&#45;&gt;Node17</title>
<g id="a_edge33_Node000016_Node000017"><a xlink:title=" ">
<path fill="none" stroke="#63b8ff" d="M608.16,-450.96C590.36,-437.35 553.36,-410.76 518,-396 460.96,-372.19 390.4,-358.49 346.29,-351.64"/>
<polygon fill="#63b8ff" stroke="#63b8ff" points="346.62,-348.15 336.21,-350.13 345.58,-355.07 346.62,-348.15"/>
</a>
</g>
</g>
<!-- Node18 -->
<g id="Node000018" class="node">
<title>Node18</title>
<g id="a_Node000018"><a xlink:href="ipc__basics_source.html" target="_top" xlink:title=" ">
<polygon fill="white" stroke="#666666" points="509.5,-415 422.5,-415 422.5,-396 509.5,-396 509.5,-415"/>
<text text-anchor="middle" x="466" y="-403" font-family="Helvetica,sans-Serif" font-size="10.00">cxx/ipc_basics</text>
</a>
</g>
</g>
<!-- Node16&#45;&gt;Node18 -->
<g id="edge34_Node000016_Node000018" class="edge">
<title>Node16&#45;&gt;Node18</title>
<g id="a_edge34_Node000016_Node000018"><a xlink:title=" ">
<path fill="none" stroke="#63b8ff" d="M594.42,-450.98C568.95,-442.16 528.96,-428.31 500.37,-418.41"/>
<polygon fill="#63b8ff" stroke="#63b8ff" points="501.37,-415.05 490.77,-415.08 499.08,-421.66 501.37,-415.05"/>
</a>
</g>
</g>
<!-- Node19 -->
<g id="Node000019" class="node">
<title>Node19</title>
<g id="a_Node000019"><a xlink:href="capability_8h_source.html" target="_top" xlink:title=" ">
<polygon fill="white" stroke="#666666" points="658,-415 566,-415 566,-396 658,-396 658,-415"/>
<text text-anchor="middle" x="612" y="-403" font-family="Helvetica,sans-Serif" font-size="10.00">cxx/capability.h</text>
</a>
</g>
</g>
<!-- Node16&#45;&gt;Node19 -->
<g id="edge38_Node000016_Node000019" class="edge">
<title>Node16&#45;&gt;Node19</title>
<g id="a_edge38_Node000016_Node000019"><a xlink:title=" ">
<path fill="none" stroke="#63b8ff" d="M617.84,-450.75C616.93,-443.8 615.61,-433.85 614.46,-425.13"/>
<polygon fill="#63b8ff" stroke="#63b8ff" points="617.91,-424.54 613.13,-415.09 610.97,-425.46 617.91,-424.54"/>
</a>
</g>
</g>
<!-- Node18&#45;&gt;Node12 -->
<g id="edge36_Node000018_Node000012" class="edge">
<title>Node18&#45;&gt;Node12</title>
<g id="a_edge36_Node000018_Node000012"><a xlink:title=" ">
<path fill="none" stroke="#63b8ff" d="M477.46,-395.87C514.4,-368.04 630.72,-280.43 677.36,-245.29"/>
<polygon fill="#63b8ff" stroke="#63b8ff" points="679.59,-247.99 685.48,-239.18 675.38,-242.4 679.59,-247.99"/>
</a>
</g>
</g>
<!-- Node18&#45;&gt;Node15 -->
<g id="edge37_Node000018_Node000015" class="edge">
<title>Node18&#45;&gt;Node15</title>
<g id="a_edge37_Node000018_Node000015"><a xlink:title=" ">
<path fill="none" stroke="#63b8ff" d="M509.84,-399.41C606.12,-387.23 831.01,-352.95 875,-294 884.39,-281.41 884.59,-263.22 882.9,-249.53"/>
<polygon fill="#63b8ff" stroke="#63b8ff" points="886.3,-248.6 881.2,-239.31 879.39,-249.75 886.3,-248.6"/>
</a>
</g>
</g>
<!-- Node18&#45;&gt;Node17 -->
<g id="edge35_Node000018_Node000017" class="edge">
<title>Node18&#45;&gt;Node17</title>
<g id="a_edge35_Node000018_Node000017"><a xlink:title=" ">
<path fill="none" stroke="#63b8ff" d="M442.44,-395.99C414.73,-385.99 368.53,-369.3 337.19,-357.99"/>
<polygon fill="#63b8ff" stroke="#63b8ff" points="338.18,-354.62 327.58,-354.52 335.8,-361.21 338.18,-354.62"/>
</a>
</g>
</g>
<!-- Node19&#45;&gt;Node2 -->
<g id="edge40_Node000019_Node000002" class="edge">
<title>Node19&#45;&gt;Node2</title>
<g id="a_edge40_Node000019_Node000002"><a xlink:title=" ">
<path fill="none" stroke="#63b8ff" d="M579.33,-395.94C560.96,-389.32 539.48,-378.13 528,-360 494.7,-307.42 505.91,-279.24 525,-220 528.34,-209.62 535.1,-199.62 541.55,-191.74"/>
<polygon fill="#63b8ff" stroke="#63b8ff" points="544.29,-193.92 548.25,-184.1 539.03,-189.31 544.29,-193.92"/>
</a>
</g>
</g>
<!-- Node19&#45;&gt;Node6 -->
<g id="edge39_Node000019_Node000006" class="edge">
<title>Node19&#45;&gt;Node6</title>
<g id="a_edge39_Node000019_Node000006"><a xlink:title=" ">
<path fill="none" stroke="#63b8ff" d="M606.96,-395.62C599.38,-381.01 587.15,-351.35 599,-330 617.55,-296.57 723.33,-270.5 745,-239 765.81,-208.74 768.91,-164.38 768.79,-139.4"/>
<polygon fill="#63b8ff" stroke="#63b8ff" points="772.28,-139.04 768.55,-129.13 765.29,-139.21 772.28,-139.04"/>
</a>
</g>
</g>
<!-- Node19&#45;&gt;Node20 -->
<g id="edge41_Node000019_Node000020" class="edge">
<title>Node19&#45;&gt;Node20</title>
<g id="a_edge41_Node000019_Node000020"><a xlink:title=" ">
<path fill="none" stroke="#63b8ff" d="M617.16,-395.87C622.23,-387.4 630.1,-374.24 636.49,-363.57"/>
<polygon fill="#63b8ff" stroke="#63b8ff" points="639.68,-365.05 641.81,-354.67 633.68,-361.45 639.68,-365.05"/>
</a>
</g>
</g>
<!-- Node20&#45;&gt;Node2 -->
<g id="edge42_Node000020_Node000002" class="edge">
<title>Node20&#45;&gt;Node2</title>
<g id="a_edge42_Node000020_Node000002"><a xlink:title=" ">
<path fill="none" stroke="#63b8ff" d="M642.41,-335.41C628.33,-309.05 585.54,-228.93 566.41,-193.12"/>
<polygon fill="#63b8ff" stroke="#63b8ff" points="569.48,-191.44 561.69,-184.27 563.31,-194.74 569.48,-191.44"/>
</a>
</g>
</g>
<!-- Node20&#45;&gt;Node12 -->
<g id="edge43_Node000020_Node000012" class="edge">
<title>Node20&#45;&gt;Node12</title>
<g id="a_edge43_Node000020_Node000012"><a xlink:title=" ">
<path fill="none" stroke="#63b8ff" d="M650.76,-335.47C658.87,-317.06 678.15,-273.29 689.08,-248.48"/>
<polygon fill="#63b8ff" stroke="#63b8ff" points="692.37,-249.69 693.2,-239.13 685.96,-246.87 692.37,-249.69"/>
</a>
</g>
</g>
<!-- Node20&#45;&gt;Node14 -->
<g id="edge44_Node000020_Node000014" class="edge">
<title>Node20&#45;&gt;Node14</title>
<g id="a_edge44_Node000020_Node000014"><a xlink:title=" ">
<path fill="none" stroke="#63b8ff" d="M673.76,-335.49C705.64,-325.36 759.07,-308.37 794.68,-297.05"/>
<polygon fill="#63b8ff" stroke="#63b8ff" points="795.74,-300.38 804.21,-294.02 793.62,-293.71 795.74,-300.38"/>
</a>
</g>
</g>
<!-- Node21&#45;&gt;Node10 -->
<g id="edge47_Node000021_Node000010" class="edge">
<title>Node21&#45;&gt;Node10</title>
<g id="a_edge47_Node000021_Node000010"><a xlink:title=" ">
<path fill="none" stroke="#63b8ff" d="M536.97,-615.66C559.85,-597.22 612.92,-554.45 641.3,-531.57"/>
<polygon fill="#63b8ff" stroke="#63b8ff" points="643.67,-534.16 649.26,-525.16 639.27,-528.71 643.67,-534.16"/>
</a>
</g>
</g>
<!-- Node21&#45;&gt;Node22 -->
<g id="edge48_Node000021_Node000022" class="edge">
<title>Node21&#45;&gt;Node22</title>
<g id="a_edge48_Node000021_Node000022"><a xlink:title=" ">
<path fill="none" stroke="#63b8ff" d="M525.5,-615.75C525.11,-608.8 524.55,-598.85 524.05,-590.13"/>
<polygon fill="#63b8ff" stroke="#63b8ff" points="527.55,-589.88 523.49,-580.09 520.56,-590.27 527.55,-589.88"/>
</a>
</g>
</g>
<!-- Node24 -->
<g id="Node000024" class="node">
<title>Node24</title>
<g id="a_Node000024"><a xlink:href="ipc__string_source.html" target="_top" xlink:title=" ">
<polygon fill="white" stroke="#666666" points="458,-580 374,-580 374,-561 458,-561 458,-580"/>
<text text-anchor="middle" x="416" y="-568" font-family="Helvetica,sans-Serif" font-size="10.00">cxx/ipc_string</text>
</a>
</g>
</g>
<!-- Node21&#45;&gt;Node24 -->
<g id="edge55_Node000021_Node000024" class="edge">
<title>Node21&#45;&gt;Node24</title>
<g id="a_edge55_Node000021_Node000024"><a xlink:title=" ">
<path fill="none" stroke="#63b8ff" d="M508.33,-615.98C490.71,-607.5 463.42,-594.35 443.07,-584.54"/>
<polygon fill="#63b8ff" stroke="#63b8ff" points="444.52,-581.36 433.99,-580.17 441.48,-587.66 444.52,-581.36"/>
</a>
</g>
</g>
<!-- Node22&#45;&gt;Node16 -->
<g id="edge54_Node000022_Node000016" class="edge">
<title>Node22&#45;&gt;Node16</title>
<g id="a_edge54_Node000022_Node000016"><a xlink:title=" ">
<path fill="none" stroke="#63b8ff" d="M531.76,-560.81C540.59,-551.97 554.51,-537.79 566,-525 579.88,-509.55 594.99,-491.29 605.51,-478.33"/>
<polygon fill="#63b8ff" stroke="#63b8ff" points="608.44,-480.28 611.99,-470.3 602.99,-475.88 608.44,-480.28"/>
</a>
</g>
</g>
<!-- Node22&#45;&gt;Node18 -->
<g id="edge49_Node000022_Node000018" class="edge">
<title>Node22&#45;&gt;Node18</title>
<g id="a_edge49_Node000022_Node000018"><a xlink:title=" ">
<path fill="none" stroke="#63b8ff" d="M521.17,-560.98C516.79,-541.23 504.89,-490.98 489,-451 485.35,-441.81 480.4,-432 476.03,-423.93"/>
<polygon fill="#63b8ff" stroke="#63b8ff" points="479.04,-422.15 471.11,-415.12 472.93,-425.56 479.04,-422.15"/>
</a>
</g>
</g>
<!-- Node22&#45;&gt;Node23 -->
<g id="edge50_Node000022_Node000023" class="edge">
<title>Node22&#45;&gt;Node23</title>
<g id="a_edge50_Node000022_Node000023"><a xlink:title=" ">
<path fill="none" stroke="#63b8ff" d="M513.11,-560.67C499.08,-548.21 472.47,-524.89 449,-506 436.26,-495.74 421.57,-484.67 410.04,-476.13"/>
<polygon fill="#63b8ff" stroke="#63b8ff" points="412.05,-473.26 401.92,-470.15 407.9,-478.9 412.05,-473.26"/>
</a>
</g>
</g>
<!-- Node23&#45;&gt;Node17 -->
<g id="edge52_Node000023_Node000017" class="edge">
<title>Node23&#45;&gt;Node17</title>
<g id="a_edge52_Node000023_Node000017"><a xlink:title=" ">
<path fill="none" stroke="#63b8ff" d="M383.54,-450.97C369.34,-432.24 335.23,-387.22 316.63,-362.66"/>
<polygon fill="#63b8ff" stroke="#63b8ff" points="319.37,-360.49 310.54,-354.63 313.79,-364.71 319.37,-360.49"/>
</a>
</g>
</g>
<!-- Node23&#45;&gt;Node18 -->
<g id="edge53_Node000023_Node000018" class="edge">
<title>Node23&#45;&gt;Node18</title>
<g id="a_edge53_Node000023_Node000018"><a xlink:title=" ">
<path fill="none" stroke="#63b8ff" d="M402.21,-450.98C413.78,-442.92 431.38,-430.65 445.16,-421.03"/>
<polygon fill="#63b8ff" stroke="#63b8ff" points="447.37,-423.76 453.57,-415.17 443.36,-418.02 447.37,-423.76"/>
</a>
</g>
</g>
<!-- Node23&#45;&gt;Node19 -->
<g id="edge51_Node000023_Node000019" class="edge">
<title>Node23&#45;&gt;Node19</title>
<g id="a_edge51_Node000023_Node000019"><a xlink:title=" ">
<path fill="none" stroke="#63b8ff" d="M425.67,-450.98C463.83,-441.87 524.47,-427.4 566.15,-417.45"/>
<polygon fill="#63b8ff" stroke="#63b8ff" points="567.14,-420.81 576.05,-415.08 565.51,-414 567.14,-420.81"/>
</a>
</g>
</g>
<!-- Node24&#45;&gt;Node17 -->
<g id="edge56_Node000024_Node000017" class="edge">
<title>Node24&#45;&gt;Node17</title>
<g id="a_edge56_Node000024_Node000017"><a xlink:title=" ">
<path fill="none" stroke="#63b8ff" d="M402.29,-560.98C379.06,-545.78 332.26,-511.63 309,-470 290.32,-436.58 295.17,-389.81 299.88,-364.32"/>
<polygon fill="#63b8ff" stroke="#63b8ff" points="303.31,-365.02 301.88,-354.52 296.45,-363.62 303.31,-365.02"/>
</a>
</g>
</g>
<!-- Node24&#45;&gt;Node18 -->
<g id="edge57_Node000024_Node000018" class="edge">
<title>Node24&#45;&gt;Node18</title>
<g id="a_edge57_Node000024_Node000018"><a xlink:title=" ">
<path fill="none" stroke="#63b8ff" d="M423.54,-560.99C437.31,-544.73 465.87,-507.52 474,-470 477.24,-455.05 474.68,-437.81 471.62,-425.08"/>
<polygon fill="#63b8ff" stroke="#63b8ff" points="474.94,-423.94 468.94,-415.21 468.19,-425.78 474.94,-423.94"/>
</a>
</g>
</g>
<!-- Node25 -->
<g id="Node000025" class="node">
<title>Node25</title>
<g id="a_Node000025"><a xlink:href="ipc__array_source.html" target="_top" xlink:title=" ">
<polygon fill="white" stroke="#666666" points="440,-525 378,-525 378,-506 440,-506 440,-525"/>
<text text-anchor="middle" x="409" y="-513" font-family="Helvetica,sans-Serif" font-size="10.00">ipc_array</text>
</a>
</g>
</g>
<!-- Node24&#45;&gt;Node25 -->
<g id="edge58_Node000024_Node000025" class="edge">
<title>Node24&#45;&gt;Node25</title>
<g id="a_edge58_Node000024_Node000025"><a xlink:title=" ">
<path fill="none" stroke="#63b8ff" d="M414.84,-560.75C413.93,-553.8 412.61,-543.85 411.46,-535.13"/>
<polygon fill="#63b8ff" stroke="#63b8ff" points="414.91,-534.54 410.13,-525.09 407.97,-535.46 414.91,-534.54"/>
</a>
</g>
</g>
<!-- Node25&#45;&gt;Node17 -->
<g id="edge59_Node000025_Node000017" class="edge">
<title>Node25&#45;&gt;Node17</title>
<g id="a_edge59_Node000025_Node000017"><a xlink:title=" ">
<path fill="none" stroke="#63b8ff" d="M377.97,-506.28C359.08,-499.63 336.14,-488.3 323,-470 300.43,-438.56 300.04,-391.02 301.91,-364.88"/>
<polygon fill="#63b8ff" stroke="#63b8ff" points="305.41,-365.08 302.83,-354.8 298.44,-364.45 305.41,-365.08"/>
</a>
</g>
</g>
<!-- Node25&#45;&gt;Node18 -->
<g id="edge60_Node000025_Node000018" class="edge">
<title>Node25&#45;&gt;Node18</title>
<g id="a_edge60_Node000025_Node000018"><a xlink:title=" ">
<path fill="none" stroke="#63b8ff" d="M422.03,-505.92C432.97,-497.97 448.05,-485.11 456,-470 463.24,-456.25 465.56,-438.68 466.17,-425.5"/>
<polygon fill="#63b8ff" stroke="#63b8ff" points="469.68,-425.33 466.35,-415.27 462.68,-425.2 469.68,-425.33"/>
</a>
</g>
</g>
<!-- Node25&#45;&gt;Node23 -->
<g id="edge61_Node000025_Node000023" class="edge">
<title>Node25&#45;&gt;Node23</title>
<g id="a_edge61_Node000025_Node000023"><a xlink:title=" ">
<path fill="none" stroke="#63b8ff" d="M405.86,-505.75C403.32,-498.65 399.64,-488.4 396.47,-479.56"/>
<polygon fill="#63b8ff" stroke="#63b8ff" points="399.75,-478.32 393.08,-470.09 393.16,-480.68 399.75,-478.32"/>
</a>
</g>
</g>
<!-- Node26&#45;&gt;Node2 -->
<g id="edge63_Node000026_Node000002" class="edge">
<title>Node26&#45;&gt;Node2</title>
<g id="a_edge63_Node000026_Node000002"><a xlink:title=" ">
<path fill="none" stroke="#63b8ff" d="M240.59,-725.9C214.02,-689.4 114,-542.91 114,-406.5 114,-406.5 114,-406.5 114,-283.5 114,-239.14 150.24,-237.49 191,-220 246.25,-196.29 417.51,-183.42 504.76,-178.24"/>
<polygon fill="#63b8ff" stroke="#63b8ff" points="505.19,-181.72 514.97,-177.65 504.79,-174.73 505.19,-181.72"/>
</a>
</g>
</g>
<!-- Node26&#45;&gt;Node3 -->
<g id="edge64_Node000026_Node000003" class="edge">
<title>Node26&#45;&gt;Node3</title>
<g id="a_edge64_Node000026_Node000003"><a xlink:title=" ">
<path fill="none" stroke="#63b8ff" d="M236.23,-725.75C226.28,-717.3 211.5,-703.79 201,-690 184.13,-667.84 183.49,-659.88 171,-635 107.55,-508.64 38,-487.39 38,-346 38,-346 38,-346 38,-173.5 38,-99.19 291.42,-75.03 401.23,-68.05"/>
<polygon fill="#63b8ff" stroke="#63b8ff" points="401.63,-71.53 411.4,-67.42 401.2,-64.54 401.63,-71.53"/>
</a>
</g>
</g>
<!-- Node26&#45;&gt;Node9 -->
<g id="edge65_Node000026_Node000009" class="edge">
<title>Node26&#45;&gt;Node9</title>
<g id="a_edge65_Node000026_Node000009"><a xlink:title=" ">
<path fill="none" stroke="#63b8ff" d="M292.79,-725.98C342.61,-716.72 422.28,-701.9 475.84,-691.94"/>
<polygon fill="#63b8ff" stroke="#63b8ff" points="476.66,-695.35 485.85,-690.08 475.38,-688.47 476.66,-695.35"/>
</a>
</g>
</g>
<!-- Node26&#45;&gt;Node17 -->
<g id="edge69_Node000026_Node000017" class="edge">
<title>Node26&#45;&gt;Node17</title>
<g id="a_edge69_Node000026_Node000017"><a xlink:title=" ">
<path fill="none" stroke="#63b8ff" d="M247.46,-725.8C248.88,-700.37 253.58,-623.93 262,-561 271.89,-487.12 276.63,-468.93 292,-396 294.2,-385.58 296.95,-374.01 299.27,-364.63"/>
<polygon fill="#63b8ff" stroke="#63b8ff" points="302.69,-365.37 301.73,-354.82 295.9,-363.67 302.69,-365.37"/>
</a>
</g>
</g>
<!-- Node26&#45;&gt;Node22 -->
<g id="edge68_Node000026_Node000022" class="edge">
<title>Node26&#45;&gt;Node22</title>
<g id="a_edge68_Node000026_Node000022"><a xlink:title=" ">
<path fill="none" stroke="#63b8ff" d="M255.81,-725.94C269.44,-712.99 296.8,-688.12 323,-671 379.83,-633.86 452.47,-600.98 492.71,-583.91"/>
<polygon fill="#63b8ff" stroke="#63b8ff" points="494.12,-587.12 501.98,-580.02 491.4,-580.66 494.12,-587.12"/>
</a>
</g>
</g>
<!-- Node26&#45;&gt;Node23 -->
<g id="edge67_Node000026_Node000023" class="edge">
<title>Node26&#45;&gt;Node23</title>
<g id="a_edge67_Node000026_Node000023"><a xlink:title=" ">
<path fill="none" stroke="#63b8ff" d="M251.6,-725.73C271.81,-687.14 353.02,-532.09 380.7,-479.25"/>
<polygon fill="#63b8ff" stroke="#63b8ff" points="383.95,-480.59 385.49,-470.11 377.75,-477.34 383.95,-480.59"/>
</a>
</g>
</g>
<!-- Node26&#45;&gt;Node27 -->
<g id="edge66_Node000026_Node000027" class="edge">
<title>Node26&#45;&gt;Node27</title>
<g id="a_edge66_Node000026_Node000027"><a xlink:title=" ">
<path fill="none" stroke="#63b8ff" d="M268.37,-725.98C290.15,-717.3 324.16,-703.75 348.92,-693.88"/>
<polygon fill="#63b8ff" stroke="#63b8ff" points="350.25,-697.12 358.24,-690.17 347.66,-690.62 350.25,-697.12"/>
</a>
</g>
</g>
</g>
</svg>
