<?xml version="1.0" encoding="UTF-8" standalone="no"?>
<!DOCTYPE svg PUBLIC "-//W3C//DTD SVG 1.1//EN"
 "http://www.w3.org/Graphics/SVG/1.1/DTD/svg11.dtd">
<!-- Generated by graphviz version 2.42.4 (0)
 -->
<!-- Title: l4/re/error_helper Pages: 1 -->
<svg width="1042pt" height="808pt"
 viewBox="0.00 0.00 1041.50 808.00" xmlns="http://www.w3.org/2000/svg" xmlns:xlink="http://www.w3.org/1999/xlink">
<g id="graph0" class="graph" transform="scale(1 1) rotate(0) translate(4 804)">
<title>l4/re/error_helper</title>
<!-- Node1 -->
<g id="Node000001" class="node">
<title>Node1</title>
<g id="a_Node000001"><a xlink:title="Error helper.">
<polygon fill="#999999" stroke="#666666" points="713.5,-800 612.5,-800 612.5,-781 713.5,-781 713.5,-800"/>
<text text-anchor="middle" x="663" y="-788" font-family="Helvetica,sans-Serif" font-size="10.00">l4/re/error_helper</text>
</a>
</g>
</g>
<!-- Node2 -->
<g id="Node000002" class="node">
<title>Node2</title>
<g id="a_Node000002"><a xlink:href="l4_2sys_2types_8h.html" target="_top" xlink:title="Common L4 ABI Data Types.">
<polygon fill="white" stroke="#666666" points="331,-184 247,-184 247,-165 331,-165 331,-184"/>
<text text-anchor="middle" x="289" y="-172" font-family="Helvetica,sans-Serif" font-size="10.00">l4/sys/types.h</text>
</a>
</g>
</g>
<!-- Node1&#45;&gt;Node2 -->
<g id="edge1_Node000001_Node000002" class="edge">
<title>Node1&#45;&gt;Node2</title>
<g id="a_edge1_Node000001_Node000002"><a xlink:title=" ">
<path fill="none" stroke="#63b8ff" d="M612.35,-786.59C457.36,-777.01 0,-743.49 0,-681.5 0,-681.5 0,-681.5 0,-404.5 0,-313.07 18.4,-275.57 91,-220 132.96,-187.88 193.71,-178.12 236.84,-175.55"/>
<polygon fill="#63b8ff" stroke="#63b8ff" points="237.03,-179.04 246.85,-175.06 236.69,-172.05 237.03,-179.04"/>
</a>
</g>
</g>
<!-- Node9 -->
<g id="Node000009" class="node">
<title>Node9</title>
<g id="a_Node000009"><a xlink:href="exceptions.html" target="_top" xlink:title="Base exceptions.">
<polygon fill="white" stroke="#666666" points="473,-745 371,-745 371,-726 473,-726 473,-745"/>
<text text-anchor="middle" x="422" y="-733" font-family="Helvetica,sans-Serif" font-size="10.00">l4/cxx/exceptions</text>
</a>
</g>
</g>
<!-- Node1&#45;&gt;Node9 -->
<g id="edge13_Node000001_Node000009" class="edge">
<title>Node1&#45;&gt;Node9</title>
<g id="a_edge13_Node000001_Node000009"><a xlink:title=" ">
<path fill="none" stroke="#63b8ff" d="M624.28,-780.98C582.59,-771.82 516.18,-757.21 470.91,-747.26"/>
<polygon fill="#63b8ff" stroke="#63b8ff" points="471.54,-743.81 461.02,-745.08 470.04,-750.65 471.54,-743.81"/>
</a>
</g>
</g>
<!-- Node12 -->
<g id="Node000012" class="node">
<title>Node12</title>
<g id="a_Node000012"><a xlink:href="err_8h.html" target="_top" xlink:title="Error codes.">
<polygon fill="white" stroke="#666666" points="729,-239 659,-239 659,-220 729,-220 729,-239"/>
<text text-anchor="middle" x="694" y="-227" font-family="Helvetica,sans-Serif" font-size="10.00">l4/sys/err.h</text>
</a>
</g>
</g>
<!-- Node1&#45;&gt;Node12 -->
<g id="edge73_Node000001_Node000012" class="edge">
<title>Node1&#45;&gt;Node12</title>
<g id="a_edge73_Node000001_Node000012"><a xlink:title=" ">
<path fill="none" stroke="#63b8ff" d="M713.67,-784.75C774.38,-775.95 868,-751.09 868,-681.5 868,-681.5 868,-681.5 868,-344 868,-282.46 790.7,-252.53 739.15,-239.42"/>
<polygon fill="#63b8ff" stroke="#63b8ff" points="739.75,-235.96 729.21,-237.01 738.11,-242.77 739.75,-235.96"/>
</a>
</g>
</g>
<!-- Node31 -->
<g id="Node000031" class="node">
<title>Node31</title>
<g id="a_Node000031"><a xlink:href="type__traits_source.html" target="_top" xlink:title=" ">
<polygon fill="white" stroke="#666666" points="997.5,-745 896.5,-745 896.5,-726 997.5,-726 997.5,-745"/>
<text text-anchor="middle" x="947" y="-733" font-family="Helvetica,sans-Serif" font-size="10.00">l4/cxx/type_traits</text>
</a>
</g>
</g>
<!-- Node1&#45;&gt;Node31 -->
<g id="edge70_Node000001_Node000031" class="edge">
<title>Node1&#45;&gt;Node31</title>
<g id="a_edge70_Node000001_Node000031"><a xlink:title=" ">
<path fill="none" stroke="#63b8ff" d="M708.63,-780.98C758.27,-771.72 837.66,-756.9 891.03,-746.94"/>
<polygon fill="#63b8ff" stroke="#63b8ff" points="891.82,-750.36 901.01,-745.08 890.54,-743.48 891.82,-750.36"/>
</a>
</g>
</g>
<!-- Node3 -->
<g id="Node000003" class="node">
<title>Node3</title>
<g id="a_Node000003"><a xlink:href="l4_2sys_2l4int_8h.html" target="_top" xlink:title="Fixed sized integer types, generic version.">
<polygon fill="white" stroke="#666666" points="241.5,-74 162.5,-74 162.5,-55 241.5,-55 241.5,-74"/>
<text text-anchor="middle" x="202" y="-62" font-family="Helvetica,sans-Serif" font-size="10.00">l4/sys/l4int.h</text>
</a>
</g>
</g>
<!-- Node2&#45;&gt;Node3 -->
<g id="edge2_Node000002_Node000003" class="edge">
<title>Node2&#45;&gt;Node3</title>
<g id="a_edge2_Node000002_Node000003"><a xlink:title=" ">
<path fill="none" stroke="#63b8ff" d="M281.88,-164.66C267.34,-146.61 234.04,-105.28 215.35,-82.08"/>
<polygon fill="#63b8ff" stroke="#63b8ff" points="217.97,-79.75 208.97,-74.16 212.52,-84.14 217.97,-79.75"/>
</a>
</g>
</g>
<!-- Node4 -->
<g id="Node000004" class="node">
<title>Node4</title>
<g id="a_Node000004"><a xlink:href="compiler_8h.html" target="_top" xlink:title="L4 compiler related defines.">
<polygon fill="white" stroke="#666666" points="573.5,-74 474.5,-74 474.5,-55 573.5,-55 573.5,-74"/>
<text text-anchor="middle" x="524" y="-62" font-family="Helvetica,sans-Serif" font-size="10.00">l4/sys/compiler.h</text>
</a>
</g>
</g>
<!-- Node2&#45;&gt;Node4 -->
<g id="edge3_Node000002_Node000004" class="edge">
<title>Node2&#45;&gt;Node4</title>
<g id="a_edge3_Node000002_Node000004"><a xlink:title=" ">
<path fill="none" stroke="#63b8ff" d="M307.02,-164.87C325.59,-155.96 355.37,-141.61 381,-129 397.94,-120.67 401.85,-117.91 419,-110 443.68,-98.62 472.08,-86.65 493.11,-77.99"/>
<polygon fill="#63b8ff" stroke="#63b8ff" points="494.58,-81.17 502.51,-74.15 491.93,-74.69 494.58,-81.17"/>
</a>
</g>
</g>
<!-- Node6 -->
<g id="Node000006" class="node">
<title>Node6</title>
<g id="a_Node000006"><a xlink:href="l4_2sys_2consts_8h.html" target="_top" xlink:title="Common constants.">
<polygon fill="white" stroke="#666666" points="209.5,-129 120.5,-129 120.5,-110 209.5,-110 209.5,-129"/>
<text text-anchor="middle" x="165" y="-117" font-family="Helvetica,sans-Serif" font-size="10.00">l4/sys/consts.h</text>
</a>
</g>
</g>
<!-- Node2&#45;&gt;Node6 -->
<g id="edge5_Node000002_Node000006" class="edge">
<title>Node2&#45;&gt;Node6</title>
<g id="a_edge5_Node000002_Node000006"><a xlink:title=" ">
<path fill="none" stroke="#63b8ff" d="M269.08,-164.98C248.95,-156.38 217.62,-142.99 194.59,-133.15"/>
<polygon fill="#63b8ff" stroke="#63b8ff" points="195.86,-129.88 185.29,-129.17 193.1,-136.32 195.86,-129.88"/>
</a>
</g>
</g>
<!-- Node7 -->
<g id="Node000007" class="node">
<title>Node7</title>
<g id="a_Node000007"><a xlink:href="____l4__fpage_8h_source.html" target="_top" xlink:title=" ">
<polygon fill="white" stroke="#666666" points="538,-129 428,-129 428,-110 538,-110 538,-129"/>
<text text-anchor="middle" x="483" y="-117" font-family="Helvetica,sans-Serif" font-size="10.00">l4/sys/__l4_fpage.h</text>
</a>
</g>
</g>
<!-- Node2&#45;&gt;Node7 -->
<g id="edge8_Node000002_Node000007" class="edge">
<title>Node2&#45;&gt;Node7</title>
<g id="a_edge8_Node000002_Node000007"><a xlink:title=" ">
<path fill="none" stroke="#63b8ff" d="M320.17,-164.98C353.16,-155.97 405.4,-141.7 441.77,-131.76"/>
<polygon fill="#63b8ff" stroke="#63b8ff" points="442.86,-135.09 451.59,-129.08 441.02,-128.34 442.86,-135.09"/>
</a>
</g>
</g>
<!-- Node8 -->
<g id="Node000008" class="node">
<title>Node8</title>
<g id="a_Node000008"><a xlink:href="____timeout_8h_source.html" target="_top" xlink:title=" ">
<polygon fill="white" stroke="#666666" points="372,-129 266,-129 266,-110 372,-110 372,-129"/>
<text text-anchor="middle" x="319" y="-117" font-family="Helvetica,sans-Serif" font-size="10.00">l4/sys/__timeout.h</text>
</a>
</g>
</g>
<!-- Node2&#45;&gt;Node8 -->
<g id="edge10_Node000002_Node000008" class="edge">
<title>Node2&#45;&gt;Node8</title>
<g id="a_edge10_Node000002_Node000008"><a xlink:title=" ">
<path fill="none" stroke="#63b8ff" d="M293.95,-164.75C298.06,-157.49 304.03,-146.95 309.1,-137.98"/>
<polygon fill="#63b8ff" stroke="#63b8ff" points="312.26,-139.52 314.14,-129.09 306.17,-136.07 312.26,-139.52"/>
</a>
</g>
</g>
<!-- Node5 -->
<g id="Node000005" class="node">
<title>Node5</title>
<g id="a_Node000005"><a xlink:title=" ">
<polygon fill="#e0e0e0" stroke="#999999" points="570,-19 478,-19 478,0 570,0 570,-19"/>
<text text-anchor="middle" x="524" y="-7" font-family="Helvetica,sans-Serif" font-size="10.00">l4/sys/linkage.h</text>
</a>
</g>
</g>
<!-- Node4&#45;&gt;Node5 -->
<g id="edge4_Node000004_Node000005" class="edge">
<title>Node4&#45;&gt;Node5</title>
<g id="a_edge4_Node000004_Node000005"><a xlink:title=" ">
<path fill="none" stroke="#63b8ff" d="M524,-54.75C524,-47.8 524,-37.85 524,-29.13"/>
<polygon fill="#63b8ff" stroke="#63b8ff" points="527.5,-29.09 524,-19.09 520.5,-29.09 527.5,-29.09"/>
</a>
</g>
</g>
<!-- Node6&#45;&gt;Node3 -->
<g id="edge7_Node000006_Node000003" class="edge">
<title>Node6&#45;&gt;Node3</title>
<g id="a_edge7_Node000006_Node000003"><a xlink:title=" ">
<path fill="none" stroke="#63b8ff" d="M171.11,-109.75C176.28,-102.34 183.85,-91.5 190.19,-82.41"/>
<polygon fill="#63b8ff" stroke="#63b8ff" points="193.15,-84.29 196,-74.09 187.41,-80.29 193.15,-84.29"/>
</a>
</g>
</g>
<!-- Node6&#45;&gt;Node4 -->
<g id="edge6_Node000006_Node000004" class="edge">
<title>Node6&#45;&gt;Node4</title>
<g id="a_edge6_Node000006_Node000004"><a xlink:title=" ">
<path fill="none" stroke="#63b8ff" d="M209.74,-111.89C273.97,-102.41 392.43,-84.92 464.14,-74.34"/>
<polygon fill="#63b8ff" stroke="#63b8ff" points="464.99,-77.75 474.37,-72.83 463.96,-70.83 464.99,-77.75"/>
</a>
</g>
</g>
<!-- Node7&#45;&gt;Node4 -->
<g id="edge9_Node000007_Node000004" class="edge">
<title>Node7&#45;&gt;Node4</title>
<g id="a_edge9_Node000007_Node000004"><a xlink:title=" ">
<path fill="none" stroke="#63b8ff" d="M489.77,-109.75C495.56,-102.26 504.06,-91.28 511.14,-82.13"/>
<polygon fill="#63b8ff" stroke="#63b8ff" points="514.01,-84.14 517.36,-74.09 508.47,-79.86 514.01,-84.14"/>
</a>
</g>
</g>
<!-- Node8&#45;&gt;Node3 -->
<g id="edge11_Node000008_Node000003" class="edge">
<title>Node8&#45;&gt;Node3</title>
<g id="a_edge11_Node000008_Node000003"><a xlink:title=" ">
<path fill="none" stroke="#63b8ff" d="M300.2,-109.98C281.38,-101.46 252.18,-88.23 230.5,-78.41"/>
<polygon fill="#63b8ff" stroke="#63b8ff" points="231.69,-75.11 221.14,-74.17 228.8,-81.48 231.69,-75.11"/>
</a>
</g>
</g>
<!-- Node8&#45;&gt;Node4 -->
<g id="edge12_Node000008_Node000004" class="edge">
<title>Node8&#45;&gt;Node4</title>
<g id="a_edge12_Node000008_Node000004"><a xlink:title=" ">
<path fill="none" stroke="#63b8ff" d="M351.94,-109.98C386.95,-100.93 442.47,-86.58 480.93,-76.64"/>
<polygon fill="#63b8ff" stroke="#63b8ff" points="482,-79.97 490.81,-74.08 480.25,-73.2 482,-79.97"/>
</a>
</g>
</g>
<!-- Node10 -->
<g id="Node000010" class="node">
<title>Node10</title>
<g id="a_Node000010"><a xlink:href="l4types_8h.html" target="_top" xlink:title="L4 Types.">
<polygon fill="white" stroke="#666666" points="432,-690 338,-690 338,-671 432,-671 432,-690"/>
<text text-anchor="middle" x="385" y="-678" font-family="Helvetica,sans-Serif" font-size="10.00">l4/cxx/l4types.h</text>
</a>
</g>
</g>
<!-- Node9&#45;&gt;Node10 -->
<g id="edge14_Node000009_Node000010" class="edge">
<title>Node9&#45;&gt;Node10</title>
<g id="a_edge14_Node000009_Node000010"><a xlink:title=" ">
<path fill="none" stroke="#63b8ff" d="M415.89,-725.75C410.72,-718.34 403.15,-707.5 396.81,-698.41"/>
<polygon fill="#63b8ff" stroke="#63b8ff" points="399.59,-696.29 391,-690.09 393.85,-700.29 399.59,-696.29"/>
</a>
</g>
</g>
<!-- Node11 -->
<g id="Node000011" class="node">
<title>Node11</title>
<g id="a_Node000011"><a xlink:href="basic__ostream.html" target="_top" xlink:title="Basic IO stream.">
<polygon fill="white" stroke="#666666" points="520,-635 400,-635 400,-616 520,-616 520,-635"/>
<text text-anchor="middle" x="460" y="-623" font-family="Helvetica,sans-Serif" font-size="10.00">l4/cxx/basic_ostream</text>
</a>
</g>
</g>
<!-- Node9&#45;&gt;Node11 -->
<g id="edge17_Node000009_Node000011" class="edge">
<title>Node9&#45;&gt;Node11</title>
<g id="a_edge17_Node000009_Node000011"><a xlink:title=" ">
<path fill="none" stroke="#63b8ff" d="M426.08,-725.75C430.15,-716.86 436.43,-702.64 441,-690 446.39,-675.1 451.48,-657.86 455.03,-645.11"/>
<polygon fill="#63b8ff" stroke="#63b8ff" points="458.47,-645.8 457.72,-635.23 451.72,-643.96 458.47,-645.8"/>
</a>
</g>
</g>
<!-- Node9&#45;&gt;Node12 -->
<g id="edge18_Node000009_Node000012" class="edge">
<title>Node9&#45;&gt;Node12</title>
<g id="a_edge18_Node000009_Node000012"><a xlink:title=" ">
<path fill="none" stroke="#63b8ff" d="M473.26,-731.69C582.84,-724.29 830,-699.5 830,-626.5 830,-626.5 830,-626.5 830,-344 830,-291.87 770.36,-259.01 730.07,-242.76"/>
<polygon fill="#63b8ff" stroke="#63b8ff" points="731.13,-239.42 720.55,-239.08 728.61,-245.94 731.13,-239.42"/>
</a>
</g>
</g>
<!-- Node13 -->
<g id="Node000013" class="node">
<title>Node13</title>
<g id="a_Node000013"><a xlink:href="capability.html" target="_top" xlink:title="L4::Cap related definitions.">
<polygon fill="white" stroke="#666666" points="279,-690 183,-690 183,-671 279,-671 279,-690"/>
<text text-anchor="middle" x="231" y="-678" font-family="Helvetica,sans-Serif" font-size="10.00">l4/sys/capability</text>
</a>
</g>
</g>
<!-- Node9&#45;&gt;Node13 -->
<g id="edge20_Node000009_Node000013" class="edge">
<title>Node9&#45;&gt;Node13</title>
<g id="a_edge20_Node000009_Node000013"><a xlink:title=" ">
<path fill="none" stroke="#63b8ff" d="M391.31,-725.98C358.83,-716.97 307.4,-702.7 271.59,-692.76"/>
<polygon fill="#63b8ff" stroke="#63b8ff" points="272.5,-689.38 261.93,-690.08 270.63,-696.13 272.5,-689.38"/>
</a>
</g>
</g>
<!-- Node29 -->
<g id="Node000029" class="node">
<title>Node29</title>
<g id="a_Node000029"><a xlink:href="backtrace_8h.html" target="_top" xlink:title="Backtrace.">
<polygon fill="white" stroke="#666666" points="143,-690 39,-690 39,-671 143,-671 143,-690"/>
<text text-anchor="middle" x="91" y="-678" font-family="Helvetica,sans-Serif" font-size="10.00">l4/util/backtrace.h</text>
</a>
</g>
</g>
<!-- Node9&#45;&gt;Node29 -->
<g id="edge68_Node000009_Node000029" class="edge">
<title>Node9&#45;&gt;Node29</title>
<g id="a_edge68_Node000009_Node000029"><a xlink:title=" ">
<path fill="none" stroke="#63b8ff" d="M370.64,-726.28C311.99,-716.88 216.04,-701.52 153.2,-691.46"/>
<polygon fill="#63b8ff" stroke="#63b8ff" points="153.45,-687.96 143.02,-689.83 152.34,-694.87 153.45,-687.96"/>
</a>
</g>
</g>
<!-- Node10&#45;&gt;Node2 -->
<g id="edge15_Node000010_Node000002" class="edge">
<title>Node10&#45;&gt;Node2</title>
<g id="a_edge15_Node000010_Node000002"><a xlink:title=" ">
<path fill="none" stroke="#63b8ff" d="M383.25,-670.86C379.7,-652.6 372,-608.7 372,-571.5 372,-571.5 372,-571.5 372,-514.5 372,-485.04 371.7,-473.25 391,-451 416.02,-422.16 438.21,-437.58 469,-415 504.35,-389.08 527.62,-372.97 519,-330 507.26,-271.49 493.22,-250.62 442,-220 411.17,-201.57 372.27,-190.39 341.4,-183.84"/>
<polygon fill="#63b8ff" stroke="#63b8ff" points="341.76,-180.35 331.26,-181.8 340.37,-187.21 341.76,-180.35"/>
</a>
</g>
</g>
<!-- Node10&#45;&gt;Node11 -->
<g id="edge16_Node000010_Node000011" class="edge">
<title>Node10&#45;&gt;Node11</title>
<g id="a_edge16_Node000010_Node000011"><a xlink:title=" ">
<path fill="none" stroke="#63b8ff" d="M397.05,-670.98C408.46,-662.92 425.83,-650.65 439.43,-641.03"/>
<polygon fill="#63b8ff" stroke="#63b8ff" points="441.58,-643.8 447.73,-635.17 437.54,-638.08 441.58,-643.8"/>
</a>
</g>
</g>
<!-- Node12&#45;&gt;Node4 -->
<g id="edge19_Node000012_Node000004" class="edge">
<title>Node12&#45;&gt;Node4</title>
<g id="a_edge19_Node000012_Node000004"><a xlink:title=" ">
<path fill="none" stroke="#63b8ff" d="M691.7,-219.77C685.58,-198.22 666.98,-141.93 632,-110 615.01,-94.49 591.87,-83.99 571.37,-77.1"/>
<polygon fill="#63b8ff" stroke="#63b8ff" points="572.14,-73.68 561.55,-74.01 570.04,-80.35 572.14,-73.68"/>
</a>
</g>
</g>
<!-- Node13&#45;&gt;Node2 -->
<g id="edge22_Node000013_Node000002" class="edge">
<title>Node13&#45;&gt;Node2</title>
<g id="a_edge22_Node000013_Node000002"><a xlink:title=" ">
<path fill="none" stroke="#63b8ff" d="M221.3,-670.66C187.37,-638.69 76,-524.77 76,-406.5 76,-406.5 76,-406.5 76,-283.5 76,-211.63 173.67,-187.57 236.73,-179.53"/>
<polygon fill="#63b8ff" stroke="#63b8ff" points="237.4,-182.97 246.92,-178.33 236.58,-176.02 237.4,-182.97"/>
</a>
</g>
</g>
<!-- Node13&#45;&gt;Node6 -->
<g id="edge21_Node000013_Node000006" class="edge">
<title>Node13&#45;&gt;Node6</title>
<g id="a_edge21_Node000013_Node000006"><a xlink:title=" ">
<path fill="none" stroke="#63b8ff" d="M215.71,-670.88C202.03,-662.72 181.89,-649.58 167,-635 145.4,-613.86 143.34,-605.43 127,-580 71.89,-494.22 69.36,-461.69 62,-360 59.27,-322.32 52.92,-311.67 62,-275 68.64,-248.18 76.27,-243.38 91,-220 110.21,-189.52 135.93,-156.36 151.44,-137.06"/>
<polygon fill="#63b8ff" stroke="#63b8ff" points="154.21,-139.2 157.79,-129.23 148.77,-134.79 154.21,-139.2"/>
</a>
</g>
</g>
<!-- Node14 -->
<g id="Node000014" class="node">
<title>Node14</title>
<g id="a_Node000014"><a xlink:href="kobject_source.html" target="_top" xlink:title=" ">
<polygon fill="white" stroke="#666666" points="343.5,-525 260.5,-525 260.5,-506 343.5,-506 343.5,-525"/>
<text text-anchor="middle" x="302" y="-513" font-family="Helvetica,sans-Serif" font-size="10.00">l4/sys/kobject</text>
</a>
</g>
</g>
<!-- Node13&#45;&gt;Node14 -->
<g id="edge23_Node000013_Node000014" class="edge">
<title>Node13&#45;&gt;Node14</title>
<g id="a_edge23_Node000013_Node000014"><a xlink:title=" ">
<path fill="none" stroke="#63b8ff" d="M234.82,-670.74C245.99,-645.09 278.79,-569.78 294.04,-534.78"/>
<polygon fill="#63b8ff" stroke="#63b8ff" points="297.38,-535.87 298.16,-525.31 290.96,-533.08 297.38,-535.87"/>
</a>
</g>
</g>
<!-- Node23 -->
<g id="Node000023" class="node">
<title>Node23</title>
<g id="a_Node000023"><a xlink:href="l4_2sys_2task_8h.html" target="_top" xlink:title="Common task related definitions.">
<polygon fill="white" stroke="#666666" points="258,-354.5 180,-354.5 180,-335.5 258,-335.5 258,-354.5"/>
<text text-anchor="middle" x="219" y="-342.5" font-family="Helvetica,sans-Serif" font-size="10.00">l4/sys/task.h</text>
</a>
</g>
</g>
<!-- Node13&#45;&gt;Node23 -->
<g id="edge51_Node000013_Node000023" class="edge">
<title>Node13&#45;&gt;Node23</title>
<g id="a_edge51_Node000013_Node000023"><a xlink:title=" ">
<path fill="none" stroke="#63b8ff" d="M227.25,-670.73C219.83,-652.56 204,-609.38 204,-571.5 204,-571.5 204,-571.5 204,-459.5 204,-425.83 210.57,-387.03 215.01,-364.63"/>
<polygon fill="#63b8ff" stroke="#63b8ff" points="218.45,-365.28 217.04,-354.78 211.59,-363.87 218.45,-365.28"/>
</a>
</g>
</g>
<!-- Node24 -->
<g id="Node000024" class="node">
<title>Node24</title>
<g id="a_Node000024"><a xlink:href="sys_2meta.html" target="_top" xlink:title="Meta interface for getting dynamic type information about objects behind capabilities.">
<polygon fill="white" stroke="#666666" points="344,-635 270,-635 270,-616 344,-616 344,-635"/>
<text text-anchor="middle" x="307" y="-623" font-family="Helvetica,sans-Serif" font-size="10.00">l4/sys/meta</text>
</a>
</g>
</g>
<!-- Node13&#45;&gt;Node24 -->
<g id="edge52_Node000013_Node000024" class="edge">
<title>Node13&#45;&gt;Node24</title>
<g id="a_edge52_Node000013_Node000024"><a xlink:title=" ">
<path fill="none" stroke="#63b8ff" d="M243.21,-670.98C254.78,-662.92 272.38,-650.65 286.16,-641.03"/>
<polygon fill="#63b8ff" stroke="#63b8ff" points="288.37,-643.76 294.57,-635.17 284.36,-638.02 288.37,-643.76"/>
</a>
</g>
</g>
<!-- Node14&#45;&gt;Node2 -->
<g id="edge37_Node000014_Node000002" class="edge">
<title>Node14&#45;&gt;Node2</title>
<g id="a_edge37_Node000014_Node000002"><a xlink:title=" ">
<path fill="none" stroke="#63b8ff" d="M260.28,-509.19C204.89,-499.54 114,-473.5 114,-406.5 114,-406.5 114,-406.5 114,-283.5 114,-225.26 185.06,-197.39 236.61,-184.83"/>
<polygon fill="#63b8ff" stroke="#63b8ff" points="237.68,-188.18 246.64,-182.52 236.11,-181.36 237.68,-188.18"/>
</a>
</g>
</g>
<!-- Node15 -->
<g id="Node000015" class="node">
<title>Node15</title>
<g id="a_Node000015"><a xlink:href="kernel__object_8h.html" target="_top" xlink:title="Kernel object system calls.">
<polygon fill="white" stroke="#666666" points="460.5,-415 369.5,-415 369.5,-396 460.5,-396 460.5,-415"/>
<text text-anchor="middle" x="415" y="-403" font-family="Helvetica,sans-Serif" font-size="10.00">kernel_object.h</text>
</a>
</g>
</g>
<!-- Node14&#45;&gt;Node15 -->
<g id="edge24_Node000014_Node000015" class="edge">
<title>Node14&#45;&gt;Node15</title>
<g id="a_edge24_Node000014_Node000015"><a xlink:title=" ">
<path fill="none" stroke="#63b8ff" d="M308.78,-505.83C318.88,-493.16 338.74,-469.14 358,-451 369.39,-440.27 383.21,-429.44 394.38,-421.15"/>
<polygon fill="#63b8ff" stroke="#63b8ff" points="396.67,-423.81 402.68,-415.09 392.54,-418.16 396.67,-423.81"/>
</a>
</g>
</g>
<!-- Node19 -->
<g id="Node000019" class="node">
<title>Node19</title>
<g id="a_Node000019"><a xlink:href="____typeinfo_8h.html" target="_top" xlink:title="Type information handling.">
<polygon fill="white" stroke="#666666" points="477.5,-470 400.5,-470 400.5,-451 477.5,-451 477.5,-470"/>
<text text-anchor="middle" x="439" y="-458" font-family="Helvetica,sans-Serif" font-size="10.00">__typeinfo.h</text>
</a>
</g>
</g>
<!-- Node14&#45;&gt;Node19 -->
<g id="edge38_Node000014_Node000019" class="edge">
<title>Node14&#45;&gt;Node19</title>
<g id="a_edge38_Node000014_Node000019"><a xlink:title=" ">
<path fill="none" stroke="#63b8ff" d="M324.01,-505.98C346.45,-497.3 381.48,-483.75 406.99,-473.88"/>
<polygon fill="#63b8ff" stroke="#63b8ff" points="408.52,-477.04 416.59,-470.17 406,-470.51 408.52,-477.04"/>
</a>
</g>
</g>
<!-- Node15&#45;&gt;Node2 -->
<g id="edge25_Node000015_Node000002" class="edge">
<title>Node15&#45;&gt;Node2</title>
<g id="a_edge25_Node000015_Node000002"><a xlink:title=" ">
<path fill="none" stroke="#63b8ff" d="M450.44,-395.99C469.26,-389.48 490.76,-378.38 502,-360 508.96,-348.63 506.38,-342.59 502,-330 481.53,-271.12 465.71,-256.25 415,-220 392.94,-204.23 364.75,-193.58 340.64,-186.67"/>
<polygon fill="#63b8ff" stroke="#63b8ff" points="341.49,-183.28 330.93,-184.02 339.65,-190.03 341.49,-183.28"/>
</a>
</g>
</g>
<!-- Node15&#45;&gt;Node4 -->
<g id="edge26_Node000015_Node000004" class="edge">
<title>Node15&#45;&gt;Node4</title>
<g id="a_edge26_Node000015_Node000004"><a xlink:title=" ">
<path fill="none" stroke="#63b8ff" d="M460.56,-398.25C520.41,-387.18 618,-358.01 618,-285.5 618,-285.5 618,-285.5 618,-173.5 618,-131.29 576.64,-97.56 548.79,-79.63"/>
<polygon fill="#63b8ff" stroke="#63b8ff" points="550.29,-76.44 539.95,-74.17 546.62,-82.4 550.29,-76.44"/>
</a>
</g>
</g>
<!-- Node16 -->
<g id="Node000016" class="node">
<title>Node16</title>
<g id="a_Node000016"><a xlink:href="l4_2sys_2utcb_8h.html" target="_top" xlink:title="UTCB definitions.">
<polygon fill="white" stroke="#666666" points="386,-239 308,-239 308,-220 386,-220 386,-239"/>
<text text-anchor="middle" x="347" y="-227" font-family="Helvetica,sans-Serif" font-size="10.00">l4/sys/utcb.h</text>
</a>
</g>
</g>
<!-- Node15&#45;&gt;Node16 -->
<g id="edge27_Node000015_Node000016" class="edge">
<title>Node15&#45;&gt;Node16</title>
<g id="a_edge27_Node000015_Node000016"><a xlink:title=" ">
<path fill="none" stroke="#63b8ff" d="M389.15,-395.99C372.73,-389.09 352.8,-377.58 343,-360 323.35,-324.76 333.2,-275.32 340.86,-248.89"/>
<polygon fill="#63b8ff" stroke="#63b8ff" points="344.28,-249.66 343.91,-239.08 337.6,-247.58 344.28,-249.66"/>
</a>
</g>
</g>
<!-- Node17 -->
<g id="Node000017" class="node">
<title>Node17</title>
<g id="a_Node000017"><a xlink:href="____kernel__object__impl_8h.html" target="_top" xlink:title="Low&#45;level kernel debugger functions.">
<polygon fill="white" stroke="#666666" points="476,-360 352,-360 352,-330 476,-330 476,-360"/>
<text text-anchor="start" x="360" y="-348" font-family="Helvetica,sans-Serif" font-size="10.00">l4/sys/__kernel_object</text>
<text text-anchor="middle" x="414" y="-337" font-family="Helvetica,sans-Serif" font-size="10.00">_impl.h</text>
</a>
</g>
</g>
<!-- Node15&#45;&gt;Node17 -->
<g id="edge31_Node000015_Node000017" class="edge">
<title>Node15&#45;&gt;Node17</title>
<g id="a_edge31_Node000015_Node000017"><a xlink:title=" ">
<path fill="none" stroke="#63b8ff" d="M414.85,-395.87C414.74,-389.11 414.57,-379.35 414.41,-370.26"/>
<polygon fill="#63b8ff" stroke="#63b8ff" points="417.91,-370.05 414.24,-360.11 410.91,-370.17 417.91,-370.05"/>
</a>
</g>
</g>
<!-- Node18 -->
<g id="Node000018" class="node">
<title>Node18</title>
<g id="a_Node000018"><a xlink:href="l4_2sys_2ipc_8h.html" target="_top" xlink:title="Common IPC interface.">
<polygon fill="white" stroke="#666666" points="449.5,-294 378.5,-294 378.5,-275 449.5,-275 449.5,-294"/>
<text text-anchor="middle" x="414" y="-282" font-family="Helvetica,sans-Serif" font-size="10.00">l4/sys/ipc.h</text>
</a>
</g>
</g>
<!-- Node15&#45;&gt;Node18 -->
<g id="edge36_Node000015_Node000018" class="edge">
<title>Node15&#45;&gt;Node18</title>
<g id="a_edge36_Node000015_Node000018"><a xlink:title=" ">
<path fill="none" stroke="#63b8ff" d="M439.81,-395.95C455.84,-388.99 475.43,-377.42 485,-360 491.42,-348.31 491.46,-341.67 485,-330 477.16,-315.83 462.71,-305.57 448.89,-298.5"/>
<polygon fill="#63b8ff" stroke="#63b8ff" points="450.05,-295.18 439.51,-294.1 447.08,-301.52 450.05,-295.18"/>
</a>
</g>
</g>
<!-- Node16&#45;&gt;Node2 -->
<g id="edge28_Node000016_Node000002" class="edge">
<title>Node16&#45;&gt;Node2</title>
<g id="a_edge28_Node000016_Node000002"><a xlink:title=" ">
<path fill="none" stroke="#63b8ff" d="M337.68,-219.98C329.19,-212.23 316.44,-200.58 306.12,-191.14"/>
<polygon fill="#63b8ff" stroke="#63b8ff" points="308.23,-188.33 298.49,-184.17 303.51,-193.5 308.23,-188.33"/>
</a>
</g>
</g>
<!-- Node16&#45;&gt;Node3 -->
<g id="edge30_Node000016_Node000003" class="edge">
<title>Node16&#45;&gt;Node3</title>
<g id="a_edge30_Node000016_Node000003"><a xlink:title=" ">
<path fill="none" stroke="#63b8ff" d="M307.65,-224.97C252.66,-217.67 154.69,-195.53 111,-129 95.4,-105.24 128,-87.78 158.43,-77.24"/>
<polygon fill="#63b8ff" stroke="#63b8ff" points="159.75,-80.5 168.17,-74.07 157.58,-73.84 159.75,-80.5"/>
</a>
</g>
</g>
<!-- Node16&#45;&gt;Node4 -->
<g id="edge29_Node000016_Node000004" class="edge">
<title>Node16&#45;&gt;Node4</title>
<g id="a_edge29_Node000016_Node000004"><a xlink:title=" ">
<path fill="none" stroke="#63b8ff" d="M386.12,-221.71C433.67,-211.13 511.87,-185.71 547,-129 556.03,-114.42 547.24,-95.78 538.04,-82.47"/>
<polygon fill="#63b8ff" stroke="#63b8ff" points="540.63,-80.1 531.82,-74.22 535.04,-84.31 540.63,-80.1"/>
</a>
</g>
</g>
<!-- Node17&#45;&gt;Node18 -->
<g id="edge32_Node000017_Node000018" class="edge">
<title>Node17&#45;&gt;Node18</title>
<g id="a_edge32_Node000017_Node000018"><a xlink:title=" ">
<path fill="none" stroke="#63b8ff" d="M414,-329.84C414,-322.21 414,-312.7 414,-304.45"/>
<polygon fill="#63b8ff" stroke="#63b8ff" points="417.5,-304.27 414,-294.27 410.5,-304.27 417.5,-304.27"/>
</a>
</g>
</g>
<!-- Node18&#45;&gt;Node2 -->
<g id="edge33_Node000018_Node000002" class="edge">
<title>Node18&#45;&gt;Node2</title>
<g id="a_edge33_Node000018_Node000002"><a xlink:title=" ">
<path fill="none" stroke="#63b8ff" d="M413.69,-274.99C412.78,-261.66 409.15,-235.75 395,-220 380.79,-204.19 360.06,-193.83 340.69,-187.13"/>
<polygon fill="#63b8ff" stroke="#63b8ff" points="341.62,-183.75 331.03,-184.03 339.48,-190.41 341.62,-183.75"/>
</a>
</g>
</g>
<!-- Node18&#45;&gt;Node12 -->
<g id="edge35_Node000018_Node000012" class="edge">
<title>Node18&#45;&gt;Node12</title>
<g id="a_edge35_Node000018_Node000012"><a xlink:title=" ">
<path fill="none" stroke="#63b8ff" d="M449.75,-276.73C500.54,-267.12 593.59,-249.51 649.01,-239.02"/>
<polygon fill="#63b8ff" stroke="#63b8ff" points="649.73,-242.44 658.91,-237.14 648.43,-235.56 649.73,-242.44"/>
</a>
</g>
</g>
<!-- Node18&#45;&gt;Node16 -->
<g id="edge34_Node000018_Node000016" class="edge">
<title>Node18&#45;&gt;Node16</title>
<g id="a_edge34_Node000018_Node000016"><a xlink:title=" ">
<path fill="none" stroke="#63b8ff" d="M403.24,-274.98C393.23,-267.07 378.11,-255.11 366.07,-245.58"/>
<polygon fill="#63b8ff" stroke="#63b8ff" points="367.97,-242.63 357.96,-239.17 363.63,-248.12 367.97,-242.63"/>
</a>
</g>
</g>
<!-- Node20 -->
<g id="Node000020" class="node">
<title>Node20</title>
<g id="a_Node000020"><a xlink:href="types.html" target="_top" xlink:title=" ">
<polygon fill="white" stroke="#666666" points="786,-354.5 722,-354.5 722,-335.5 786,-335.5 786,-354.5"/>
<text text-anchor="middle" x="754" y="-342.5" font-family="Helvetica,sans-Serif" font-size="10.00">cxx/types</text>
</a>
</g>
</g>
<!-- Node19&#45;&gt;Node20 -->
<g id="edge39_Node000019_Node000020" class="edge">
<title>Node19&#45;&gt;Node20</title>
<g id="a_edge39_Node000019_Node000020"><a xlink:title=" ">
<path fill="none" stroke="#63b8ff" d="M456.3,-450.9C482.88,-437.91 535.57,-412.97 582,-396 625.6,-380.07 676.83,-365.71 711.97,-356.52"/>
<polygon fill="#63b8ff" stroke="#63b8ff" points="713.08,-359.85 721.88,-353.95 711.33,-353.07 713.08,-359.85"/>
</a>
</g>
</g>
<!-- Node21 -->
<g id="Node000021" class="node">
<title>Node21</title>
<g id="a_Node000021"><a xlink:href="ipc__basics_source.html" target="_top" xlink:title=" ">
<polygon fill="white" stroke="#666666" points="678.5,-415 591.5,-415 591.5,-396 678.5,-396 678.5,-415"/>
<text text-anchor="middle" x="635" y="-403" font-family="Helvetica,sans-Serif" font-size="10.00">cxx/ipc_basics</text>
</a>
</g>
</g>
<!-- Node19&#45;&gt;Node21 -->
<g id="edge40_Node000019_Node000021" class="edge">
<title>Node19&#45;&gt;Node21</title>
<g id="a_edge40_Node000019_Node000021"><a xlink:title=" ">
<path fill="none" stroke="#63b8ff" d="M470.49,-450.98C503.82,-441.97 556.6,-427.7 593.35,-417.76"/>
<polygon fill="#63b8ff" stroke="#63b8ff" points="594.52,-421.07 603.26,-415.08 592.7,-414.31 594.52,-421.07"/>
</a>
</g>
</g>
<!-- Node22 -->
<g id="Node000022" class="node">
<title>Node22</title>
<g id="a_Node000022"><a xlink:href="capability_8h_source.html" target="_top" xlink:title=" ">
<polygon fill="white" stroke="#666666" points="332,-415 240,-415 240,-396 332,-396 332,-415"/>
<text text-anchor="middle" x="286" y="-403" font-family="Helvetica,sans-Serif" font-size="10.00">cxx/capability.h</text>
</a>
</g>
</g>
<!-- Node19&#45;&gt;Node22 -->
<g id="edge44_Node000019_Node000022" class="edge">
<title>Node19&#45;&gt;Node22</title>
<g id="a_edge44_Node000019_Node000022"><a xlink:title=" ">
<path fill="none" stroke="#63b8ff" d="M414.42,-450.98C388.95,-442.16 348.96,-428.31 320.37,-418.41"/>
<polygon fill="#63b8ff" stroke="#63b8ff" points="321.37,-415.05 310.77,-415.08 319.08,-421.66 321.37,-415.05"/>
</a>
</g>
</g>
<!-- Node21&#45;&gt;Node12 -->
<g id="edge43_Node000021_Node000012" class="edge">
<title>Node21&#45;&gt;Node12</title>
<g id="a_edge43_Node000021_Node000012"><a xlink:title=" ">
<path fill="none" stroke="#63b8ff" d="M643.96,-395.83C652.07,-387.44 663.68,-373.97 670,-360 686.67,-323.15 691.76,-275.39 693.32,-249.39"/>
<polygon fill="#63b8ff" stroke="#63b8ff" points="696.83,-249.25 693.81,-239.1 689.84,-248.92 696.83,-249.25"/>
</a>
</g>
</g>
<!-- Node21&#45;&gt;Node16 -->
<g id="edge42_Node000021_Node000016" class="edge">
<title>Node21&#45;&gt;Node16</title>
<g id="a_edge42_Node000021_Node000016"><a xlink:title=" ">
<path fill="none" stroke="#63b8ff" d="M625.23,-395.96C599.4,-373.72 526.59,-313.05 458,-275 434.23,-261.81 405.73,-250.47 383.57,-242.54"/>
<polygon fill="#63b8ff" stroke="#63b8ff" points="384.46,-239.15 373.87,-239.14 382.15,-245.75 384.46,-239.15"/>
</a>
</g>
</g>
<!-- Node21&#45;&gt;Node20 -->
<g id="edge41_Node000021_Node000020" class="edge">
<title>Node21&#45;&gt;Node20</title>
<g id="a_edge41_Node000021_Node000020"><a xlink:title=" ">
<path fill="none" stroke="#63b8ff" d="M652.3,-395.99C672.05,-386.29 704.55,-370.31 727.49,-359.03"/>
<polygon fill="#63b8ff" stroke="#63b8ff" points="729.25,-362.07 736.68,-354.52 726.16,-355.79 729.25,-362.07"/>
</a>
</g>
</g>
<!-- Node22&#45;&gt;Node2 -->
<g id="edge46_Node000022_Node000002" class="edge">
<title>Node22&#45;&gt;Node2</title>
<g id="a_edge46_Node000022_Node000002"><a xlink:title=" ">
<path fill="none" stroke="#63b8ff" d="M286.11,-395.8C286.55,-362.36 288.13,-241.59 288.75,-194.49"/>
<polygon fill="#63b8ff" stroke="#63b8ff" points="292.25,-194.25 288.89,-184.21 285.26,-194.16 292.25,-194.25"/>
</a>
</g>
</g>
<!-- Node22&#45;&gt;Node6 -->
<g id="edge45_Node000022_Node000006" class="edge">
<title>Node22&#45;&gt;Node6</title>
<g id="a_edge45_Node000022_Node000006"><a xlink:title=" ">
<path fill="none" stroke="#63b8ff" d="M239.86,-397.05C216.15,-390.92 188.62,-379.86 171,-360 148.32,-334.44 152,-319.67 152,-285.5 152,-285.5 152,-285.5 152,-228.5 152,-196.96 157.53,-160.62 161.38,-139.15"/>
<polygon fill="#63b8ff" stroke="#63b8ff" points="164.85,-139.61 163.25,-129.14 157.97,-138.33 164.85,-139.61"/>
</a>
</g>
</g>
<!-- Node22&#45;&gt;Node23 -->
<g id="edge47_Node000022_Node000023" class="edge">
<title>Node22&#45;&gt;Node23</title>
<g id="a_edge47_Node000022_Node000023"><a xlink:title=" ">
<path fill="none" stroke="#63b8ff" d="M276.11,-395.87C265.72,-386.8 249.16,-372.34 236.55,-361.32"/>
<polygon fill="#63b8ff" stroke="#63b8ff" points="238.76,-358.61 228.93,-354.67 234.16,-363.88 238.76,-358.61"/>
</a>
</g>
</g>
<!-- Node23&#45;&gt;Node2 -->
<g id="edge48_Node000023_Node000002" class="edge">
<title>Node23&#45;&gt;Node2</title>
<g id="a_edge48_Node000023_Node000002"><a xlink:title=" ">
<path fill="none" stroke="#63b8ff" d="M220.79,-335.24C225.24,-314.47 237.9,-260.92 258,-220 262.77,-210.3 269.49,-200.35 275.46,-192.33"/>
<polygon fill="#63b8ff" stroke="#63b8ff" points="278.39,-194.26 281.73,-184.2 272.85,-189.98 278.39,-194.26"/>
</a>
</g>
</g>
<!-- Node23&#45;&gt;Node16 -->
<g id="edge49_Node000023_Node000016" class="edge">
<title>Node23&#45;&gt;Node16</title>
<g id="a_edge49_Node000023_Node000016"><a xlink:title=" ">
<path fill="none" stroke="#63b8ff" d="M228.62,-335.47C250.12,-316.41 302.3,-270.13 329.64,-245.89"/>
<polygon fill="#63b8ff" stroke="#63b8ff" points="332.11,-248.38 337.27,-239.13 327.46,-243.15 332.11,-248.38"/>
</a>
</g>
</g>
<!-- Node23&#45;&gt;Node18 -->
<g id="edge50_Node000023_Node000018" class="edge">
<title>Node23&#45;&gt;Node18</title>
<g id="a_edge50_Node000023_Node000018"><a xlink:title=" ">
<path fill="none" stroke="#63b8ff" d="M247.35,-335.49C281.29,-325.31 338.26,-308.22 375.99,-296.9"/>
<polygon fill="#63b8ff" stroke="#63b8ff" points="377.04,-300.24 385.61,-294.02 375.03,-293.54 377.04,-300.24"/>
</a>
</g>
</g>
<!-- Node24&#45;&gt;Node14 -->
<g id="edge53_Node000024_Node000014" class="edge">
<title>Node24&#45;&gt;Node14</title>
<g id="a_edge53_Node000024_Node000014"><a xlink:title=" ">
<path fill="none" stroke="#63b8ff" d="M306.59,-615.66C305.78,-598.17 303.96,-558.8 302.87,-535.27"/>
<polygon fill="#63b8ff" stroke="#63b8ff" points="306.36,-534.99 302.4,-525.16 299.37,-535.31 306.36,-534.99"/>
</a>
</g>
</g>
<!-- Node25 -->
<g id="Node000025" class="node">
<title>Node25</title>
<g id="a_Node000025"><a xlink:href="ipc__iface.html" target="_top" xlink:title="Interface Definition Language.">
<polygon fill="white" stroke="#666666" points="499,-525 419,-525 419,-506 499,-506 499,-525"/>
<text text-anchor="middle" x="459" y="-513" font-family="Helvetica,sans-Serif" font-size="10.00">cxx/ipc_iface</text>
</a>
</g>
</g>
<!-- Node24&#45;&gt;Node25 -->
<g id="edge54_Node000024_Node000025" class="edge">
<title>Node24&#45;&gt;Node25</title>
<g id="a_edge54_Node000024_Node000025"><a xlink:title=" ">
<path fill="none" stroke="#63b8ff" d="M319.18,-615.84C345.2,-597.36 406.42,-553.86 438.53,-531.05"/>
<polygon fill="#63b8ff" stroke="#63b8ff" points="440.64,-533.84 446.76,-525.2 436.58,-528.14 440.64,-533.84"/>
</a>
</g>
</g>
<!-- Node27 -->
<g id="Node000027" class="node">
<title>Node27</title>
<g id="a_Node000027"><a xlink:href="ipc__string_source.html" target="_top" xlink:title=" ">
<polygon fill="white" stroke="#666666" points="650,-580 566,-580 566,-561 650,-561 650,-580"/>
<text text-anchor="middle" x="608" y="-568" font-family="Helvetica,sans-Serif" font-size="10.00">cxx/ipc_string</text>
</a>
</g>
</g>
<!-- Node24&#45;&gt;Node27 -->
<g id="edge61_Node000024_Node000027" class="edge">
<title>Node24&#45;&gt;Node27</title>
<g id="a_edge61_Node000024_Node000027"><a xlink:title=" ">
<path fill="none" stroke="#63b8ff" d="M344.21,-617.95C397.29,-608.6 495,-591.4 555.45,-580.75"/>
<polygon fill="#63b8ff" stroke="#63b8ff" points="556.31,-584.16 565.55,-578.97 555.09,-577.26 556.31,-584.16"/>
</a>
</g>
</g>
<!-- Node25&#45;&gt;Node19 -->
<g id="edge60_Node000025_Node000019" class="edge">
<title>Node25&#45;&gt;Node19</title>
<g id="a_edge60_Node000025_Node000019"><a xlink:title=" ">
<path fill="none" stroke="#63b8ff" d="M455.7,-505.75C453.02,-498.65 449.15,-488.4 445.81,-479.56"/>
<polygon fill="#63b8ff" stroke="#63b8ff" points="449.05,-478.21 442.24,-470.09 442.5,-480.68 449.05,-478.21"/>
</a>
</g>
</g>
<!-- Node25&#45;&gt;Node21 -->
<g id="edge55_Node000025_Node000021" class="edge">
<title>Node25&#45;&gt;Node21</title>
<g id="a_edge55_Node000025_Node000021"><a xlink:title=" ">
<path fill="none" stroke="#63b8ff" d="M467,-505.69C479.42,-492.42 504.58,-467.12 530,-451 551.51,-437.36 577.91,-426.19 598.86,-418.46"/>
<polygon fill="#63b8ff" stroke="#63b8ff" points="600.13,-421.72 608.36,-415.04 597.77,-415.13 600.13,-421.72"/>
</a>
</g>
</g>
<!-- Node26 -->
<g id="Node000026" class="node">
<title>Node26</title>
<g id="a_Node000026"><a xlink:href="ipc__types.html" target="_top" xlink:title=" ">
<polygon fill="white" stroke="#666666" points="687.5,-470 572.5,-470 572.5,-451 687.5,-451 687.5,-470"/>
<text text-anchor="middle" x="630" y="-458" font-family="Helvetica,sans-Serif" font-size="10.00">l4/sys/cxx/ipc_types</text>
</a>
</g>
</g>
<!-- Node25&#45;&gt;Node26 -->
<g id="edge56_Node000025_Node000026" class="edge">
<title>Node25&#45;&gt;Node26</title>
<g id="a_edge56_Node000025_Node000026"><a xlink:title=" ">
<path fill="none" stroke="#63b8ff" d="M486.47,-505.98C515.18,-497.09 560.42,-483.07 592.42,-473.15"/>
<polygon fill="#63b8ff" stroke="#63b8ff" points="593.8,-476.39 602.31,-470.08 591.72,-469.7 593.8,-476.39"/>
</a>
</g>
</g>
<!-- Node26&#45;&gt;Node20 -->
<g id="edge58_Node000026_Node000020" class="edge">
<title>Node26&#45;&gt;Node20</title>
<g id="a_edge58_Node000026_Node000020"><a xlink:title=" ">
<path fill="none" stroke="#63b8ff" d="M642.17,-450.75C653.99,-442.1 672.24,-428.25 687,-415 705.9,-398.03 726,-376.86 739.2,-362.48"/>
<polygon fill="#63b8ff" stroke="#63b8ff" points="741.97,-364.63 746.11,-354.87 736.79,-359.92 741.97,-364.63"/>
</a>
</g>
</g>
<!-- Node26&#45;&gt;Node21 -->
<g id="edge59_Node000026_Node000021" class="edge">
<title>Node26&#45;&gt;Node21</title>
<g id="a_edge59_Node000026_Node000021"><a xlink:title=" ">
<path fill="none" stroke="#63b8ff" d="M630.83,-450.75C631.48,-443.8 632.42,-433.85 633.24,-425.13"/>
<polygon fill="#63b8ff" stroke="#63b8ff" points="636.73,-425.37 634.19,-415.09 629.77,-424.72 636.73,-425.37"/>
</a>
</g>
</g>
<!-- Node26&#45;&gt;Node22 -->
<g id="edge57_Node000026_Node000022" class="edge">
<title>Node26&#45;&gt;Node22</title>
<g id="a_edge57_Node000026_Node000022"><a xlink:title=" ">
<path fill="none" stroke="#63b8ff" d="M574.73,-450.98C510.82,-441.14 406.2,-425.02 341.99,-415.13"/>
<polygon fill="#63b8ff" stroke="#63b8ff" points="342.46,-411.66 332.04,-413.59 341.39,-418.58 342.46,-411.66"/>
</a>
</g>
</g>
<!-- Node27&#45;&gt;Node20 -->
<g id="edge62_Node000027_Node000020" class="edge">
<title>Node27&#45;&gt;Node20</title>
<g id="a_edge62_Node000027_Node000020"><a xlink:title=" ">
<path fill="none" stroke="#63b8ff" d="M647.67,-560.96C669.51,-554.42 695.62,-543.31 713,-525 755.38,-480.35 757.15,-401.21 755.47,-365.02"/>
<polygon fill="#63b8ff" stroke="#63b8ff" points="758.95,-364.64 754.84,-354.88 751.96,-365.07 758.95,-364.64"/>
</a>
</g>
</g>
<!-- Node27&#45;&gt;Node21 -->
<g id="edge63_Node000027_Node000021" class="edge">
<title>Node27&#45;&gt;Node21</title>
<g id="a_edge63_Node000027_Node000021"><a xlink:title=" ">
<path fill="none" stroke="#63b8ff" d="M599.68,-560.79C581.49,-540.65 541.46,-489.63 563,-451 571.04,-436.58 585.9,-426.24 600.04,-419.18"/>
<polygon fill="#63b8ff" stroke="#63b8ff" points="601.51,-422.36 609.15,-415.01 598.6,-415.99 601.51,-422.36"/>
</a>
</g>
</g>
<!-- Node28 -->
<g id="Node000028" class="node">
<title>Node28</title>
<g id="a_Node000028"><a xlink:href="ipc__array_source.html" target="_top" xlink:title=" ">
<polygon fill="white" stroke="#666666" points="704,-525 642,-525 642,-506 704,-506 704,-525"/>
<text text-anchor="middle" x="673" y="-513" font-family="Helvetica,sans-Serif" font-size="10.00">ipc_array</text>
</a>
</g>
</g>
<!-- Node27&#45;&gt;Node28 -->
<g id="edge64_Node000027_Node000028" class="edge">
<title>Node27&#45;&gt;Node28</title>
<g id="a_edge64_Node000027_Node000028"><a xlink:title=" ">
<path fill="none" stroke="#63b8ff" d="M618.44,-560.98C628.15,-553.07 642.82,-541.11 654.5,-531.58"/>
<polygon fill="#63b8ff" stroke="#63b8ff" points="656.83,-534.2 662.37,-525.17 652.4,-528.78 656.83,-534.2"/>
</a>
</g>
</g>
<!-- Node28&#45;&gt;Node20 -->
<g id="edge65_Node000028_Node000020" class="edge">
<title>Node28&#45;&gt;Node20</title>
<g id="a_edge65_Node000028_Node000020"><a xlink:title=" ">
<path fill="none" stroke="#63b8ff" d="M682.54,-505.79C691.26,-497.37 703.99,-483.88 712,-470 731.99,-435.34 744.35,-389.71 750.12,-364.59"/>
<polygon fill="#63b8ff" stroke="#63b8ff" points="753.58,-365.12 752.31,-354.6 746.75,-363.62 753.58,-365.12"/>
</a>
</g>
</g>
<!-- Node28&#45;&gt;Node21 -->
<g id="edge66_Node000028_Node000021" class="edge">
<title>Node28&#45;&gt;Node21</title>
<g id="a_edge66_Node000028_Node000021"><a xlink:title=" ">
<path fill="none" stroke="#63b8ff" d="M680.74,-505.59C690.64,-493.04 705.46,-469.61 696,-451 689.23,-437.68 676.4,-427.41 664.25,-420.1"/>
<polygon fill="#63b8ff" stroke="#63b8ff" points="665.64,-416.87 655.2,-415.09 662.25,-422.99 665.64,-416.87"/>
</a>
</g>
</g>
<!-- Node28&#45;&gt;Node26 -->
<g id="edge67_Node000028_Node000026" class="edge">
<title>Node28&#45;&gt;Node26</title>
<g id="a_edge67_Node000028_Node000026"><a xlink:title=" ">
<path fill="none" stroke="#63b8ff" d="M665.9,-505.75C659.83,-498.26 650.91,-487.28 643.49,-478.13"/>
<polygon fill="#63b8ff" stroke="#63b8ff" points="645.99,-475.65 636.97,-470.09 640.55,-480.06 645.99,-475.65"/>
</a>
</g>
</g>
<!-- Node30 -->
<g id="Node000030" class="node">
<title>Node30</title>
<g id="a_Node000030"><a xlink:title=" ">
<polygon fill="#e0e0e0" stroke="#999999" points="99.5,-635 28.5,-635 28.5,-616 99.5,-616 99.5,-635"/>
<text text-anchor="middle" x="64" y="-623" font-family="Helvetica,sans-Serif" font-size="10.00">sys/cdefs.h</text>
</a>
</g>
</g>
<!-- Node29&#45;&gt;Node30 -->
<g id="edge69_Node000029_Node000030" class="edge">
<title>Node29&#45;&gt;Node30</title>
<g id="a_edge69_Node000029_Node000030"><a xlink:title=" ">
<path fill="none" stroke="#63b8ff" d="M86.54,-670.75C82.88,-663.57 77.59,-653.18 73.05,-644.27"/>
<polygon fill="#63b8ff" stroke="#63b8ff" points="76.03,-642.41 68.38,-635.09 69.8,-645.59 76.03,-642.41"/>
</a>
</g>
</g>
<!-- Node31&#45;&gt;Node4 -->
<g id="edge71_Node000031_Node000004" class="edge">
<title>Node31&#45;&gt;Node4</title>
<g id="a_edge71_Node000031_Node000004"><a xlink:title=" ">
<path fill="none" stroke="#63b8ff" d="M941.3,-725.96C930.03,-708.23 906,-665.81 906,-626.5 906,-626.5 906,-626.5 906,-173.5 906,-107.32 691,-79.65 583.6,-69.96"/>
<polygon fill="#63b8ff" stroke="#63b8ff" points="583.82,-66.47 573.55,-69.08 583.2,-73.44 583.82,-66.47"/>
</a>
</g>
</g>
<!-- Node32 -->
<g id="Node000032" class="node">
<title>Node32</title>
<g id="a_Node000032"><a xlink:href="type__traits_8h_source.html" target="_top" xlink:title=" ">
<polygon fill="white" stroke="#666666" points="1033.5,-690 934.5,-690 934.5,-671 1033.5,-671 1033.5,-690"/>
<text text-anchor="middle" x="984" y="-678" font-family="Helvetica,sans-Serif" font-size="10.00">bits/type_traits.h</text>
</a>
</g>
</g>
<!-- Node31&#45;&gt;Node32 -->
<g id="edge72_Node000031_Node000032" class="edge">
<title>Node31&#45;&gt;Node32</title>
<g id="a_edge72_Node000031_Node000032"><a xlink:title=" ">
<path fill="none" stroke="#63b8ff" d="M953.11,-725.75C958.28,-718.34 965.85,-707.5 972.19,-698.41"/>
<polygon fill="#63b8ff" stroke="#63b8ff" points="975.15,-700.29 978,-690.09 969.41,-696.29 975.15,-700.29"/>
</a>
</g>
</g>
</g>
</svg>
