<?xml version="1.0" encoding="UTF-8" standalone="no"?>
<!DOCTYPE svg PUBLIC "-//W3C//DTD SVG 1.1//EN"
 "http://www.w3.org/Graphics/SVG/1.1/DTD/svg11.dtd">
<!-- Generated by graphviz version 2.43.0 (0)
 -->
<!-- Title: l4/re/error_helper Pages: 1 -->
<svg width="468pt" height="159pt"
 viewBox="0.00 0.00 467.50 159.00" xmlns="http://www.w3.org/2000/svg" xmlns:xlink="http://www.w3.org/1999/xlink">
<g id="graph0" class="graph" transform="scale(1 1) rotate(0) translate(4 155)">
<title>l4/re/error_helper</title>
<!-- Node1 -->
<g id="Node000001" class="node">
<title>Node1</title>
<g id="a_Node000001"><a xlink:title="Error helper.">
<polygon fill="#999999" stroke="#666666" points="246,-151 145,-151 145,-132 246,-132 246,-151"/>
<text text-anchor="middle" x="195.5" y="-139" font-family="Helvetica,sans-Serif" font-size="10.00">l4/re/error_helper</text>
</a>
</g>
</g>
<!-- Node2 -->
<g id="Node000002" class="node">
<title>Node2</title>
<g id="a_Node000002"><a xlink:href="client_2l4virtio_source.html" target="_top" xlink:title=" ">
<polygon fill="white" stroke="#666666" points="167,-96 74,-96 74,-66 167,-66 167,-96"/>
<text text-anchor="start" x="82" y="-84" font-family="Helvetica,sans-Serif" font-size="10.00">l4/l4virtio/client</text>
<text text-anchor="middle" x="120.5" y="-73" font-family="Helvetica,sans-Serif" font-size="10.00">/l4virtio</text>
</a>
</g>
</g>
<!-- Node1&#45;&gt;Node2 -->
<g id="edge1_Node000001_Node000002" class="edge">
<title>Node1&#45;&gt;Node2</title>
<g id="a_edge1_Node000001_Node000002"><a xlink:title=" ">
<path fill="none" stroke="#63b8ff" d="M176.27,-125.5C164.67,-116.45 149.99,-105 138.6,-96.11"/>
<polygon fill="#63b8ff" stroke="#63b8ff" points="174.4,-128.48 184.43,-131.87 178.7,-122.96 174.4,-128.48"/>
</a>
</g>
</g>
<!-- Node3 -->
<g id="Node000003" class="node">
<title>Node3</title>
<g id="a_Node000003"><a xlink:href="client_2virtio-block_source.html" target="_top" xlink:title=" ">
<polygon fill="white" stroke="#666666" points="93,-30 0,-30 0,0 93,0 93,-30"/>
<text text-anchor="start" x="8" y="-18" font-family="Helvetica,sans-Serif" font-size="10.00">l4/l4virtio/client</text>
<text text-anchor="middle" x="46.5" y="-7" font-family="Helvetica,sans-Serif" font-size="10.00">/virtio&#45;block</text>
</a>
</g>
</g>
<!-- Node1&#45;&gt;Node3 -->
<g id="edge4_Node000001_Node000003" class="edge">
<title>Node1&#45;&gt;Node3</title>
<g id="a_edge4_Node000001_Node000003"><a xlink:title=" ">
<path fill="none" stroke="#63b8ff" d="M134.93,-133.11C109.87,-127.05 82.51,-116.03 64.5,-96 48.13,-77.79 45.63,-47.94 45.75,-30.31"/>
<polygon fill="#63b8ff" stroke="#63b8ff" points="134.25,-136.54 144.77,-135.27 135.75,-129.7 134.25,-136.54"/>
</a>
</g>
</g>
<!-- Node4 -->
<g id="Node000004" class="node">
<title>Node4</title>
<g id="a_Node000004"><a xlink:href="virtio-net_source.html" target="_top" xlink:title=" ">
<polygon fill="white" stroke="#666666" points="205,-30 112,-30 112,0 205,0 205,-30"/>
<text text-anchor="start" x="120" y="-18" font-family="Helvetica,sans-Serif" font-size="10.00">l4/l4virtio/client</text>
<text text-anchor="middle" x="158.5" y="-7" font-family="Helvetica,sans-Serif" font-size="10.00">/virtio&#45;net</text>
</a>
</g>
</g>
<!-- Node1&#45;&gt;Node4 -->
<g id="edge5_Node000001_Node000004" class="edge">
<title>Node1&#45;&gt;Node4</title>
<g id="a_edge5_Node000001_Node000004"><a xlink:title=" ">
<path fill="none" stroke="#63b8ff" d="M190.79,-121.61C186.94,-106.49 181.21,-84.79 175.5,-66 171.82,-53.89 167.17,-40.31 163.66,-30.36"/>
<polygon fill="#63b8ff" stroke="#63b8ff" points="187.51,-122.89 193.34,-131.73 194.29,-121.18 187.51,-122.89"/>
</a>
</g>
</g>
<!-- Node5 -->
<g id="Node000005" class="node">
<title>Node5</title>
<g id="a_Node000005"><a xlink:href="server_2l4virtio_source.html" target="_top" xlink:title=" ">
<polygon fill="white" stroke="#666666" points="321,-96 224,-96 224,-66 321,-66 321,-96"/>
<text text-anchor="start" x="232" y="-84" font-family="Helvetica,sans-Serif" font-size="10.00">l4/l4virtio/server</text>
<text text-anchor="middle" x="272.5" y="-73" font-family="Helvetica,sans-Serif" font-size="10.00">/l4virtio</text>
</a>
</g>
</g>
<!-- Node1&#45;&gt;Node5 -->
<g id="edge6_Node000001_Node000005" class="edge">
<title>Node1&#45;&gt;Node5</title>
<g id="a_edge6_Node000001_Node000005"><a xlink:title=" ">
<path fill="none" stroke="#63b8ff" d="M214.89,-125.77C226.85,-116.68 242.11,-105.09 253.92,-96.11"/>
<polygon fill="#63b8ff" stroke="#63b8ff" points="212.71,-123.03 206.86,-131.87 216.94,-128.61 212.71,-123.03"/>
</a>
</g>
</g>
<!-- Node7 -->
<g id="Node000007" class="node">
<title>Node7</title>
<g id="a_Node000007"><a xlink:href="mem__alloc__impl_8h.html" target="_top" xlink:title="Memory allocator client stub implementation.">
<polygon fill="white" stroke="#666666" points="459.5,-96 339.5,-96 339.5,-66 459.5,-66 459.5,-96"/>
<text text-anchor="start" x="347.5" y="-84" font-family="Helvetica,sans-Serif" font-size="10.00">l4/re/impl/mem_alloc</text>
<text text-anchor="middle" x="399.5" y="-73" font-family="Helvetica,sans-Serif" font-size="10.00">_impl.h</text>
</a>
</g>
</g>
<!-- Node1&#45;&gt;Node7 -->
<g id="edge8_Node000001_Node000007" class="edge">
<title>Node1&#45;&gt;Node7</title>
<g id="a_edge8_Node000001_Node000007"><a xlink:title=" ">
<path fill="none" stroke="#63b8ff" d="M234.91,-129.2C267.87,-119.75 315.05,-106.22 350.46,-96.06"/>
<polygon fill="#63b8ff" stroke="#63b8ff" points="233.81,-125.87 225.16,-131.99 235.74,-132.6 233.81,-125.87"/>
</a>
</g>
</g>
<!-- Node2&#45;&gt;Node3 -->
<g id="edge2_Node000002_Node000003" class="edge">
<title>Node2&#45;&gt;Node3</title>
<g id="a_edge2_Node000002_Node000003"><a xlink:title=" ">
<path fill="none" stroke="#63b8ff" d="M96.45,-59.2C85.47,-49.7 72.74,-38.69 62.88,-30.16"/>
<polygon fill="#63b8ff" stroke="#63b8ff" points="94.22,-61.9 104.08,-65.8 98.8,-56.61 94.22,-61.9"/>
</a>
</g>
</g>
<!-- Node2&#45;&gt;Node4 -->
<g id="edge3_Node000002_Node000004" class="edge">
<title>Node2&#45;&gt;Node4</title>
<g id="a_edge3_Node000002_Node000004"><a xlink:title=" ">
<path fill="none" stroke="#63b8ff" d="M134.18,-56.96C139.5,-48 145.42,-38.03 150.09,-30.16"/>
<polygon fill="#63b8ff" stroke="#63b8ff" points="131.03,-55.41 128.93,-65.8 137.05,-58.98 131.03,-55.41"/>
</a>
</g>
</g>
<!-- Node6 -->
<g id="Node000006" class="node">
<title>Node6</title>
<g id="a_Node000006"><a xlink:href="server_2virtio-block_source.html" target="_top" xlink:title=" ">
<polygon fill="white" stroke="#666666" points="321,-30 224,-30 224,0 321,0 321,-30"/>
<text text-anchor="start" x="232" y="-18" font-family="Helvetica,sans-Serif" font-size="10.00">l4/l4virtio/server</text>
<text text-anchor="middle" x="272.5" y="-7" font-family="Helvetica,sans-Serif" font-size="10.00">/virtio&#45;block</text>
</a>
</g>
</g>
<!-- Node5&#45;&gt;Node6 -->
<g id="edge7_Node000005_Node000006" class="edge">
<title>Node5&#45;&gt;Node6</title>
<g id="a_edge7_Node000005_Node000006"><a xlink:title=" ">
<path fill="none" stroke="#63b8ff" d="M272.5,-55.54C272.5,-46.96 272.5,-37.61 272.5,-30.16"/>
<polygon fill="#63b8ff" stroke="#63b8ff" points="269,-55.8 272.5,-65.8 276,-55.8 269,-55.8"/>
</a>
</g>
</g>
</g>
</svg>
