<?xml version="1.0" encoding="UTF-8" standalone="no"?>
<!DOCTYPE svg PUBLIC "-//W3C//DTD SVG 1.1//EN"
 "http://www.w3.org/Graphics/SVG/1.1/DTD/svg11.dtd">
<!-- Generated by graphviz version 2.43.0 (0)
 -->
<!-- Title: l4/re/event.h Pages: 1 -->
<svg width="722pt" height="192pt"
 viewBox="0.00 0.00 721.50 192.00" xmlns="http://www.w3.org/2000/svg" xmlns:xlink="http://www.w3.org/1999/xlink">
<g id="graph0" class="graph" transform="scale(1 1) rotate(0) translate(4 188)">
<title>l4/re/event.h</title>
<!-- Node1 -->
<g id="Node000001" class="node">
<title>Node1</title>
<g id="a_Node000001"><a xlink:title="Events.">
<polygon fill="#999999" stroke="#666666" points="216.5,-184 138.5,-184 138.5,-165 216.5,-165 216.5,-184"/>
<text text-anchor="middle" x="177.5" y="-172" font-family="Helvetica,sans-Serif" font-size="10.00">l4/re/event.h</text>
</a>
</g>
</g>
<!-- Node2 -->
<g id="Node000002" class="node">
<title>Node2</title>
<g id="a_Node000002"><a xlink:href="c_2event_8h.html" target="_top" xlink:title="Event C interface.">
<polygon fill="white" stroke="#666666" points="172.5,-129 86.5,-129 86.5,-110 172.5,-110 172.5,-129"/>
<text text-anchor="middle" x="129.5" y="-117" font-family="Helvetica,sans-Serif" font-size="10.00">l4/re/c/event.h</text>
</a>
</g>
</g>
<!-- Node1&#45;&gt;Node2 -->
<g id="edge1_Node000001_Node000002" class="edge">
<title>Node1&#45;&gt;Node2</title>
<g id="a_edge1_Node000001_Node000002"><a xlink:title=" ">
<path fill="none" stroke="#63b8ff" d="M162.77,-157.24C154.36,-147.95 144.15,-136.68 137.28,-129.09"/>
<polygon fill="#63b8ff" stroke="#63b8ff" points="160.27,-159.69 169.57,-164.75 165.46,-154.99 160.27,-159.69"/>
</a>
</g>
</g>
<!-- Node4 -->
<g id="Node000004" class="node">
<title>Node4</title>
<g id="a_Node000004"><a xlink:href="event_source.html" target="_top" xlink:title=" ">
<polygon fill="white" stroke="#666666" points="330,-129 261,-129 261,-110 330,-110 330,-129"/>
<text text-anchor="middle" x="295.5" y="-117" font-family="Helvetica,sans-Serif" font-size="10.00">l4/re/event</text>
</a>
</g>
</g>
<!-- Node1&#45;&gt;Node4 -->
<g id="edge3_Node000001_Node000004" class="edge">
<title>Node1&#45;&gt;Node4</title>
<g id="a_edge3_Node000001_Node000004"><a xlink:title=" ">
<path fill="none" stroke="#63b8ff" d="M205.85,-160.77C227.62,-150.99 257.09,-137.75 276.2,-129.17"/>
<polygon fill="#63b8ff" stroke="#63b8ff" points="204.15,-157.69 196.46,-164.98 207.01,-164.08 204.15,-157.69"/>
</a>
</g>
</g>
<!-- Node3 -->
<g id="Node000003" class="node">
<title>Node3</title>
<g id="a_Node000003"><a xlink:href="event__buffer_8h_source.html" target="_top" xlink:title=" ">
<polygon fill="white" stroke="#666666" points="119,-74 0,-74 0,-55 119,-55 119,-74"/>
<text text-anchor="middle" x="59.5" y="-62" font-family="Helvetica,sans-Serif" font-size="10.00">l4/re/c/event_buffer.h</text>
</a>
</g>
</g>
<!-- Node2&#45;&gt;Node3 -->
<g id="edge2_Node000002_Node000003" class="edge">
<title>Node2&#45;&gt;Node3</title>
<g id="a_edge2_Node000002_Node000003"><a xlink:title=" ">
<path fill="none" stroke="#63b8ff" d="M110.19,-103.88C97.59,-94.34 81.57,-82.21 70.95,-74.17"/>
<polygon fill="#63b8ff" stroke="#63b8ff" points="108.17,-106.74 118.25,-109.98 112.39,-101.16 108.17,-106.74"/>
</a>
</g>
</g>
<!-- Node5 -->
<g id="Node000005" class="node">
<title>Node5</title>
<g id="a_Node000005"><a xlink:href="console_source.html" target="_top" xlink:title=" ">
<polygon fill="white" stroke="#666666" points="216,-74 137,-74 137,-55 216,-55 216,-74"/>
<text text-anchor="middle" x="176.5" y="-62" font-family="Helvetica,sans-Serif" font-size="10.00">l4/re/console</text>
</a>
</g>
</g>
<!-- Node4&#45;&gt;Node5 -->
<g id="edge4_Node000004_Node000005" class="edge">
<title>Node4&#45;&gt;Node5</title>
<g id="a_edge4_Node000004_Node000005"><a xlink:title=" ">
<path fill="none" stroke="#63b8ff" d="M267.2,-105.9C245.22,-96.11 215.32,-82.79 195.97,-74.17"/>
<polygon fill="#63b8ff" stroke="#63b8ff" points="265.82,-109.11 276.38,-109.98 268.67,-102.72 265.82,-109.11"/>
</a>
</g>
</g>
<!-- Node6 -->
<g id="Node000006" class="node">
<title>Node6</title>
<g id="a_Node000006"><a xlink:href="event__buffer_source.html" target="_top" xlink:title=" ">
<polygon fill="white" stroke="#666666" points="356.5,-74 234.5,-74 234.5,-55 356.5,-55 356.5,-74"/>
<text text-anchor="middle" x="295.5" y="-62" font-family="Helvetica,sans-Serif" font-size="10.00">l4/re/util/event_buffer</text>
</a>
</g>
</g>
<!-- Node4&#45;&gt;Node6 -->
<g id="edge5_Node000004_Node000006" class="edge">
<title>Node4&#45;&gt;Node6</title>
<g id="a_edge5_Node000004_Node000006"><a xlink:title=" ">
<path fill="none" stroke="#63b8ff" d="M295.5,-99.66C295.5,-90.93 295.5,-80.99 295.5,-74.09"/>
<polygon fill="#63b8ff" stroke="#63b8ff" points="292,-99.75 295.5,-109.75 299,-99.75 292,-99.75"/>
</a>
</g>
</g>
<!-- Node8 -->
<g id="Node000008" class="node">
<title>Node8</title>
<g id="a_Node000008"><a xlink:href="event__svr_source.html" target="_top" xlink:title=" ">
<polygon fill="white" stroke="#666666" points="482.5,-74 374.5,-74 374.5,-55 482.5,-55 482.5,-74"/>
<text text-anchor="middle" x="428.5" y="-62" font-family="Helvetica,sans-Serif" font-size="10.00">l4/re/util/event_svr</text>
</a>
</g>
</g>
<!-- Node4&#45;&gt;Node8 -->
<g id="edge7_Node000004_Node000008" class="edge">
<title>Node4&#45;&gt;Node8</title>
<g id="a_edge7_Node000004_Node000008"><a xlink:title=" ">
<path fill="none" stroke="#63b8ff" d="M326.47,-106.16C351.09,-96.35 384.91,-82.87 406.74,-74.17"/>
<polygon fill="#63b8ff" stroke="#63b8ff" points="324.86,-103.03 316.87,-109.98 327.45,-109.53 324.86,-103.03"/>
</a>
</g>
</g>
<!-- Node9 -->
<g id="Node000009" class="node">
<title>Node9</title>
<g id="a_Node000009"><a xlink:href="vbus_source.html" target="_top" xlink:title=" ">
<polygon fill="white" stroke="#666666" points="582.5,-74 504.5,-74 504.5,-55 582.5,-55 582.5,-74"/>
<text text-anchor="middle" x="543.5" y="-62" font-family="Helvetica,sans-Serif" font-size="10.00">l4/vbus/vbus</text>
</a>
</g>
</g>
<!-- Node4&#45;&gt;Node9 -->
<g id="edge8_Node000004_Node000009" class="edge">
<title>Node4&#45;&gt;Node9</title>
<g id="a_edge8_Node000004_Node000009"><a xlink:title=" ">
<path fill="none" stroke="#63b8ff" d="M340.11,-108.97C386.96,-98.95 459.88,-83.37 504.5,-73.83"/>
<polygon fill="#63b8ff" stroke="#63b8ff" points="339.29,-105.56 330.24,-111.07 340.76,-112.41 339.29,-105.56"/>
</a>
</g>
</g>
<!-- Node7 -->
<g id="Node000007" class="node">
<title>Node7</title>
<g id="a_Node000007"><a xlink:href="util_2event.html" target="_top" xlink:title=" ">
<polygon fill="white" stroke="#666666" points="337.5,-19 249.5,-19 249.5,0 337.5,0 337.5,-19"/>
<text text-anchor="middle" x="293.5" y="-7" font-family="Helvetica,sans-Serif" font-size="10.00">l4/re/util/event</text>
</a>
</g>
</g>
<!-- Node6&#45;&gt;Node7 -->
<g id="edge6_Node000006_Node000007" class="edge">
<title>Node6&#45;&gt;Node7</title>
<g id="a_edge6_Node000006_Node000007"><a xlink:title=" ">
<path fill="none" stroke="#63b8ff" d="M294.79,-44.66C294.46,-35.93 294.08,-25.99 293.82,-19.09"/>
<polygon fill="#63b8ff" stroke="#63b8ff" points="291.3,-44.89 295.17,-54.75 298.29,-44.62 291.3,-44.89"/>
</a>
</g>
</g>
<!-- Node10 -->
<g id="Node000010" class="node">
<title>Node10</title>
<g id="a_Node000010"><a xlink:href="vbus__generic_source.html" target="_top" xlink:title=" ">
<polygon fill="white" stroke="#666666" points="475,-19 356,-19 356,0 475,0 475,-19"/>
<text text-anchor="middle" x="415.5" y="-7" font-family="Helvetica,sans-Serif" font-size="10.00">l4/vbus/vbus_generic</text>
</a>
</g>
</g>
<!-- Node9&#45;&gt;Node10 -->
<g id="edge9_Node000009_Node000010" class="edge">
<title>Node9&#45;&gt;Node10</title>
<g id="a_edge9_Node000009_Node000010"><a xlink:title=" ">
<path fill="none" stroke="#63b8ff" d="M513.38,-51.03C489.71,-41.23 457.35,-27.83 436.44,-19.17"/>
<polygon fill="#63b8ff" stroke="#63b8ff" points="512.36,-54.39 522.93,-54.98 515.03,-47.93 512.36,-54.39"/>
</a>
</g>
</g>
<!-- Node11 -->
<g id="Node000011" class="node">
<title>Node11</title>
<g id="a_Node000011"><a xlink:href="vbus__gpio_source.html" target="_top" xlink:title=" ">
<polygon fill="white" stroke="#666666" points="597.5,-19 493.5,-19 493.5,0 597.5,0 597.5,-19"/>
<text text-anchor="middle" x="545.5" y="-7" font-family="Helvetica,sans-Serif" font-size="10.00">l4/vbus/vbus_gpio</text>
</a>
</g>
</g>
<!-- Node9&#45;&gt;Node11 -->
<g id="edge10_Node000009_Node000011" class="edge">
<title>Node9&#45;&gt;Node11</title>
<g id="a_edge10_Node000009_Node000011"><a xlink:title=" ">
<path fill="none" stroke="#63b8ff" d="M544.21,-44.66C544.54,-35.93 544.92,-25.99 545.18,-19.09"/>
<polygon fill="#63b8ff" stroke="#63b8ff" points="540.71,-44.62 543.83,-54.75 547.7,-44.89 540.71,-44.62"/>
</a>
</g>
</g>
<!-- Node12 -->
<g id="Node000012" class="node">
<title>Node12</title>
<g id="a_Node000012"><a xlink:href="vbus__pci_source.html" target="_top" xlink:title=" ">
<polygon fill="white" stroke="#666666" points="713.5,-19 615.5,-19 615.5,0 713.5,0 713.5,-19"/>
<text text-anchor="middle" x="664.5" y="-7" font-family="Helvetica,sans-Serif" font-size="10.00">l4/vbus/vbus_pci</text>
</a>
</g>
</g>
<!-- Node9&#45;&gt;Node12 -->
<g id="edge11_Node000009_Node000012" class="edge">
<title>Node9&#45;&gt;Node12</title>
<g id="a_edge11_Node000009_Node000012"><a xlink:title=" ">
<path fill="none" stroke="#63b8ff" d="M572.27,-50.9C594.62,-41.11 625.02,-27.79 644.71,-19.17"/>
<polygon fill="#63b8ff" stroke="#63b8ff" points="570.7,-47.77 562.94,-54.98 573.5,-54.18 570.7,-47.77"/>
</a>
</g>
</g>
</g>
</svg>
