<?xml version="1.0" encoding="UTF-8" standalone="no"?>
<!DOCTYPE svg PUBLIC "-//W3C//DTD SVG 1.1//EN"
 "http://www.w3.org/Graphics/SVG/1.1/DTD/svg11.dtd">
<!-- Generated by graphviz version 2.43.0 (0)
 -->
<!-- Title: l4/cxx/exceptions Pages: 1 -->
<svg width="1089pt" height="753pt"
 viewBox="0.00 0.00 1089.00 753.00" xmlns="http://www.w3.org/2000/svg" xmlns:xlink="http://www.w3.org/1999/xlink">
<g id="graph0" class="graph" transform="scale(1 1) rotate(0) translate(4 749)">
<title>l4/cxx/exceptions</title>
<!-- Node1 -->
<g id="Node000001" class="node">
<title>Node1</title>
<g id="a_Node000001"><a xlink:title="Base exceptions.">
<polygon fill="#999999" stroke="#666666" points="937,-745 835,-745 835,-726 937,-726 937,-745"/>
<text text-anchor="middle" x="886" y="-733" font-family="Helvetica,sans-Serif" font-size="10.00">l4/cxx/exceptions</text>
</a>
</g>
</g>
<!-- Node2 -->
<g id="Node000002" class="node">
<title>Node2</title>
<g id="a_Node000002"><a xlink:href="l4types_8h.html" target="_top" xlink:title="L4 Types.">
<polygon fill="white" stroke="#666666" points="858,-690 764,-690 764,-671 858,-671 858,-690"/>
<text text-anchor="middle" x="811" y="-678" font-family="Helvetica,sans-Serif" font-size="10.00">l4/cxx/l4types.h</text>
</a>
</g>
</g>
<!-- Node1&#45;&gt;Node2 -->
<g id="edge1_Node000001_Node000002" class="edge">
<title>Node1&#45;&gt;Node2</title>
<g id="a_edge1_Node000001_Node000002"><a xlink:title=" ">
<path fill="none" stroke="#63b8ff" d="M873.95,-725.98C862.54,-717.92 845.17,-705.65 831.57,-696.03"/>
<polygon fill="#63b8ff" stroke="#63b8ff" points="833.46,-693.08 823.27,-690.17 829.42,-698.8 833.46,-693.08"/>
</a>
</g>
</g>
<!-- Node10 -->
<g id="Node000010" class="node">
<title>Node10</title>
<g id="a_Node000010"><a xlink:href="basic__ostream.html" target="_top" xlink:title="Basic IO stream.">
<polygon fill="white" stroke="#666666" points="921,-635 801,-635 801,-616 921,-616 921,-635"/>
<text text-anchor="middle" x="861" y="-623" font-family="Helvetica,sans-Serif" font-size="10.00">l4/cxx/basic_ostream</text>
</a>
</g>
</g>
<!-- Node1&#45;&gt;Node10 -->
<g id="edge14_Node000001_Node000010" class="edge">
<title>Node1&#45;&gt;Node10</title>
<g id="a_edge14_Node000001_Node000010"><a xlink:title=" ">
<path fill="none" stroke="#63b8ff" d="M883.95,-725.66C879.89,-708.09 870.71,-668.45 865.27,-644.95"/>
<polygon fill="#63b8ff" stroke="#63b8ff" points="868.67,-644.11 863,-635.16 861.85,-645.69 868.67,-644.11"/>
</a>
</g>
</g>
<!-- Node11 -->
<g id="Node000011" class="node">
<title>Node11</title>
<g id="a_Node000011"><a xlink:href="err_8h.html" target="_top" xlink:title="Error codes.">
<polygon fill="white" stroke="#666666" points="599,-239 529,-239 529,-220 599,-220 599,-239"/>
<text text-anchor="middle" x="564" y="-227" font-family="Helvetica,sans-Serif" font-size="10.00">l4/sys/err.h</text>
</a>
</g>
</g>
<!-- Node1&#45;&gt;Node11 -->
<g id="edge15_Node000001_Node000011" class="edge">
<title>Node1&#45;&gt;Node11</title>
<g id="a_edge15_Node000001_Node000011"><a xlink:title=" ">
<path fill="none" stroke="#63b8ff" d="M893.73,-725.82C910.26,-706.16 946.27,-656.76 930,-616 857.47,-434.27 654.02,-289.13 586.27,-244.63"/>
<polygon fill="#63b8ff" stroke="#63b8ff" points="587.93,-241.53 577.63,-239.02 584.12,-247.41 587.93,-241.53"/>
</a>
</g>
</g>
<!-- Node12 -->
<g id="Node000012" class="node">
<title>Node12</title>
<g id="a_Node000012"><a xlink:href="capability.html" target="_top" xlink:title="L4::Cap related definitions.">
<polygon fill="white" stroke="#666666" points="544,-690 448,-690 448,-671 544,-671 544,-690"/>
<text text-anchor="middle" x="496" y="-678" font-family="Helvetica,sans-Serif" font-size="10.00">l4/sys/capability</text>
</a>
</g>
</g>
<!-- Node1&#45;&gt;Node12 -->
<g id="edge17_Node000001_Node000012" class="edge">
<title>Node1&#45;&gt;Node12</title>
<g id="a_edge17_Node000001_Node000012"><a xlink:title=" ">
<path fill="none" stroke="#63b8ff" d="M834.61,-727.52C762.21,-717.68 630.54,-699.78 554.48,-689.45"/>
<polygon fill="#63b8ff" stroke="#63b8ff" points="554.51,-685.92 544.13,-688.04 553.57,-692.86 554.51,-685.92"/>
</a>
</g>
</g>
<!-- Node28 -->
<g id="Node000028" class="node">
<title>Node28</title>
<g id="a_Node000028"><a xlink:href="backtrace_8h.html" target="_top" xlink:title="Backtrace.">
<polygon fill="white" stroke="#666666" points="1081,-690 977,-690 977,-671 1081,-671 1081,-690"/>
<text text-anchor="middle" x="1029" y="-678" font-family="Helvetica,sans-Serif" font-size="10.00">l4/util/backtrace.h</text>
</a>
</g>
</g>
<!-- Node1&#45;&gt;Node28 -->
<g id="edge65_Node000001_Node000028" class="edge">
<title>Node1&#45;&gt;Node28</title>
<g id="a_edge65_Node000001_Node000028"><a xlink:title=" ">
<path fill="none" stroke="#63b8ff" d="M908.98,-725.98C932.5,-717.27 969.29,-703.63 995.94,-693.75"/>
<polygon fill="#63b8ff" stroke="#63b8ff" points="997.45,-696.93 1005.61,-690.17 995.01,-690.36 997.45,-696.93"/>
</a>
</g>
</g>
<!-- Node3 -->
<g id="Node000003" class="node">
<title>Node3</title>
<g id="a_Node000003"><a xlink:href="l4_2sys_2types_8h.html" target="_top" xlink:title="Common L4 ABI Data Types.">
<polygon fill="white" stroke="#666666" points="445,-184 361,-184 361,-165 445,-165 445,-184"/>
<text text-anchor="middle" x="403" y="-172" font-family="Helvetica,sans-Serif" font-size="10.00">l4/sys/types.h</text>
</a>
</g>
</g>
<!-- Node2&#45;&gt;Node3 -->
<g id="edge2_Node000002_Node000003" class="edge">
<title>Node2&#45;&gt;Node3</title>
<g id="a_edge2_Node000002_Node000003"><a xlink:title=" ">
<path fill="none" stroke="#63b8ff" d="M806.12,-670.98C801.44,-662.26 794.69,-648.17 792,-635 790.31,-626.73 791.7,-624.44 792,-616 796.22,-495.78 811,-466.3 811,-346 811,-346 811,-346 811,-283.5 811,-210.74 565.47,-185.87 455.35,-178.38"/>
<polygon fill="#63b8ff" stroke="#63b8ff" points="455.33,-174.87 445.13,-177.71 454.88,-181.86 455.33,-174.87"/>
</a>
</g>
</g>
<!-- Node2&#45;&gt;Node10 -->
<g id="edge13_Node000002_Node000010" class="edge">
<title>Node2&#45;&gt;Node10</title>
<g id="a_edge13_Node000002_Node000010"><a xlink:title=" ">
<path fill="none" stroke="#63b8ff" d="M819.26,-670.75C826.46,-663.11 837.11,-651.82 845.85,-642.56"/>
<polygon fill="#63b8ff" stroke="#63b8ff" points="848.58,-644.76 852.9,-635.09 843.49,-639.96 848.58,-644.76"/>
</a>
</g>
</g>
<!-- Node4 -->
<g id="Node000004" class="node">
<title>Node4</title>
<g id="a_Node000004"><a xlink:href="l4_2sys_2l4int_8h.html" target="_top" xlink:title="Fixed sized integer types, generic version.">
<polygon fill="white" stroke="#666666" points="275.5,-74 196.5,-74 196.5,-55 275.5,-55 275.5,-74"/>
<text text-anchor="middle" x="236" y="-62" font-family="Helvetica,sans-Serif" font-size="10.00">l4/sys/l4int.h</text>
</a>
</g>
</g>
<!-- Node3&#45;&gt;Node4 -->
<g id="edge3_Node000003_Node000004" class="edge">
<title>Node3&#45;&gt;Node4</title>
<g id="a_edge3_Node000003_Node000004"><a xlink:title=" ">
<path fill="none" stroke="#63b8ff" d="M381.99,-164.96C363.04,-156.85 334.72,-143.74 312,-129 289.85,-114.63 266.93,-94.65 252.13,-80.96"/>
<polygon fill="#63b8ff" stroke="#63b8ff" points="254.48,-78.38 244.8,-74.08 249.69,-83.48 254.48,-78.38"/>
</a>
</g>
</g>
<!-- Node5 -->
<g id="Node000005" class="node">
<title>Node5</title>
<g id="a_Node000005"><a xlink:href="compiler_8h.html" target="_top" xlink:title="L4 compiler related defines.">
<polygon fill="white" stroke="#666666" points="545.5,-74 446.5,-74 446.5,-55 545.5,-55 545.5,-74"/>
<text text-anchor="middle" x="496" y="-62" font-family="Helvetica,sans-Serif" font-size="10.00">l4/sys/compiler.h</text>
</a>
</g>
</g>
<!-- Node3&#45;&gt;Node5 -->
<g id="edge4_Node000003_Node000005" class="edge">
<title>Node3&#45;&gt;Node5</title>
<g id="a_edge4_Node000003_Node000005"><a xlink:title=" ">
<path fill="none" stroke="#63b8ff" d="M410.61,-164.66C426.22,-146.54 462.06,-104.91 481.99,-81.77"/>
<polygon fill="#63b8ff" stroke="#63b8ff" points="484.67,-84.02 488.54,-74.16 479.37,-79.45 484.67,-84.02"/>
</a>
</g>
</g>
<!-- Node7 -->
<g id="Node000007" class="node">
<title>Node7</title>
<g id="a_Node000007"><a xlink:href="l4_2sys_2consts_8h.html" target="_top" xlink:title="Common constants.">
<polygon fill="white" stroke="#666666" points="188.5,-129 99.5,-129 99.5,-110 188.5,-110 188.5,-129"/>
<text text-anchor="middle" x="144" y="-117" font-family="Helvetica,sans-Serif" font-size="10.00">l4/sys/consts.h</text>
</a>
</g>
</g>
<!-- Node3&#45;&gt;Node7 -->
<g id="edge6_Node000003_Node000007" class="edge">
<title>Node3&#45;&gt;Node7</title>
<g id="a_edge6_Node000003_Node000007"><a xlink:title=" ">
<path fill="none" stroke="#63b8ff" d="M361.39,-164.98C316.4,-155.78 244.61,-141.09 195.95,-131.13"/>
<polygon fill="#63b8ff" stroke="#63b8ff" points="196.44,-127.66 185.94,-129.08 195.03,-134.52 196.44,-127.66"/>
</a>
</g>
</g>
<!-- Node8 -->
<g id="Node000008" class="node">
<title>Node8</title>
<g id="a_Node000008"><a xlink:href="____l4__fpage_8h_source.html" target="_top" xlink:title=" ">
<polygon fill="white" stroke="#666666" points="593,-129 483,-129 483,-110 593,-110 593,-129"/>
<text text-anchor="middle" x="538" y="-117" font-family="Helvetica,sans-Serif" font-size="10.00">l4/sys/__l4_fpage.h</text>
</a>
</g>
</g>
<!-- Node3&#45;&gt;Node8 -->
<g id="edge9_Node000003_Node000008" class="edge">
<title>Node3&#45;&gt;Node8</title>
<g id="a_edge9_Node000003_Node000008"><a xlink:title=" ">
<path fill="none" stroke="#63b8ff" d="M424.69,-164.98C446.8,-156.3 481.32,-142.75 506.45,-132.88"/>
<polygon fill="#63b8ff" stroke="#63b8ff" points="507.89,-136.08 515.92,-129.17 505.33,-129.57 507.89,-136.08"/>
</a>
</g>
</g>
<!-- Node9 -->
<g id="Node000009" class="node">
<title>Node9</title>
<g id="a_Node000009"><a xlink:href="____timeout_8h_source.html" target="_top" xlink:title=" ">
<polygon fill="white" stroke="#666666" points="427,-129 321,-129 321,-110 427,-110 427,-129"/>
<text text-anchor="middle" x="374" y="-117" font-family="Helvetica,sans-Serif" font-size="10.00">l4/sys/__timeout.h</text>
</a>
</g>
</g>
<!-- Node3&#45;&gt;Node9 -->
<g id="edge11_Node000003_Node000009" class="edge">
<title>Node3&#45;&gt;Node9</title>
<g id="a_edge11_Node000003_Node000009"><a xlink:title=" ">
<path fill="none" stroke="#63b8ff" d="M398.21,-164.75C394.24,-157.49 388.47,-146.95 383.57,-137.98"/>
<polygon fill="#63b8ff" stroke="#63b8ff" points="386.57,-136.18 378.7,-129.09 380.43,-139.54 386.57,-136.18"/>
</a>
</g>
</g>
<!-- Node6 -->
<g id="Node000006" class="node">
<title>Node6</title>
<g id="a_Node000006"><a xlink:title=" ">
<polygon fill="#e0e0e0" stroke="#999999" points="542,-19 450,-19 450,0 542,0 542,-19"/>
<text text-anchor="middle" x="496" y="-7" font-family="Helvetica,sans-Serif" font-size="10.00">l4/sys/linkage.h</text>
</a>
</g>
</g>
<!-- Node5&#45;&gt;Node6 -->
<g id="edge5_Node000005_Node000006" class="edge">
<title>Node5&#45;&gt;Node6</title>
<g id="a_edge5_Node000005_Node000006"><a xlink:title=" ">
<path fill="none" stroke="#63b8ff" d="M496,-54.75C496,-47.8 496,-37.85 496,-29.13"/>
<polygon fill="#63b8ff" stroke="#63b8ff" points="499.5,-29.09 496,-19.09 492.5,-29.09 499.5,-29.09"/>
</a>
</g>
</g>
<!-- Node7&#45;&gt;Node4 -->
<g id="edge8_Node000007_Node000004" class="edge">
<title>Node7&#45;&gt;Node4</title>
<g id="a_edge8_Node000007_Node000004"><a xlink:title=" ">
<path fill="none" stroke="#63b8ff" d="M158.78,-109.98C173.18,-101.69 195.31,-88.94 212.19,-79.22"/>
<polygon fill="#63b8ff" stroke="#63b8ff" points="214.03,-82.19 220.95,-74.17 210.54,-76.13 214.03,-82.19"/>
</a>
</g>
</g>
<!-- Node7&#45;&gt;Node5 -->
<g id="edge7_Node000007_Node000005" class="edge">
<title>Node7&#45;&gt;Node5</title>
<g id="a_edge7_Node000007_Node000005"><a xlink:title=" ">
<path fill="none" stroke="#63b8ff" d="M188.58,-111.79C251.44,-102.32 366.26,-85.03 436.39,-74.47"/>
<polygon fill="#63b8ff" stroke="#63b8ff" points="437.04,-77.92 446.41,-72.97 436,-71 437.04,-77.92"/>
</a>
</g>
</g>
<!-- Node8&#45;&gt;Node5 -->
<g id="edge10_Node000008_Node000005" class="edge">
<title>Node8&#45;&gt;Node5</title>
<g id="a_edge10_Node000008_Node000005"><a xlink:title=" ">
<path fill="none" stroke="#63b8ff" d="M531.06,-109.75C525.13,-102.26 516.43,-91.28 509.18,-82.13"/>
<polygon fill="#63b8ff" stroke="#63b8ff" points="511.76,-79.75 502.81,-74.09 506.27,-84.1 511.76,-79.75"/>
</a>
</g>
</g>
<!-- Node9&#45;&gt;Node4 -->
<g id="edge12_Node000009_Node000004" class="edge">
<title>Node9&#45;&gt;Node4</title>
<g id="a_edge12_Node000009_Node000004"><a xlink:title=" ">
<path fill="none" stroke="#63b8ff" d="M351.83,-109.98C329.23,-101.3 293.94,-87.75 268.25,-77.88"/>
<polygon fill="#63b8ff" stroke="#63b8ff" points="269.17,-74.49 258.58,-74.17 266.66,-81.02 269.17,-74.49"/>
</a>
</g>
</g>
<!-- Node11&#45;&gt;Node5 -->
<g id="edge16_Node000011_Node000005" class="edge">
<title>Node11&#45;&gt;Node5</title>
<g id="a_edge16_Node000011_Node000005"><a xlink:title=" ">
<path fill="none" stroke="#63b8ff" d="M571.58,-219.76C588.53,-199.11 626.16,-146.34 602,-110 591.33,-93.94 573.61,-83.67 555.69,-77.1"/>
<polygon fill="#63b8ff" stroke="#63b8ff" points="556.35,-73.63 545.76,-73.81 554.16,-80.27 556.35,-73.63"/>
</a>
</g>
</g>
<!-- Node12&#45;&gt;Node3 -->
<g id="edge19_Node000012_Node000003" class="edge">
<title>Node12&#45;&gt;Node3</title>
<g id="a_edge19_Node000012_Node000003"><a xlink:title=" ">
<path fill="none" stroke="#63b8ff" d="M544.08,-678.44C613.87,-674.05 735,-654.48 735,-571.5 735,-571.5 735,-571.5 735,-459.5 735,-343.8 728.22,-285.72 633,-220 604.82,-200.55 514.2,-187.43 455.47,-180.73"/>
<polygon fill="#63b8ff" stroke="#63b8ff" points="455.59,-177.22 445.26,-179.6 454.81,-184.18 455.59,-177.22"/>
</a>
</g>
</g>
<!-- Node12&#45;&gt;Node7 -->
<g id="edge18_Node000012_Node000007" class="edge">
<title>Node12&#45;&gt;Node7</title>
<g id="a_edge18_Node000012_Node000007"><a xlink:title=" ">
<path fill="none" stroke="#63b8ff" d="M447.99,-679.16C323.51,-677 0,-662.6 0,-571.5 0,-571.5 0,-571.5 0,-228.5 0,-177.04 59.58,-147.1 102.1,-132.28"/>
<polygon fill="#63b8ff" stroke="#63b8ff" points="103.3,-135.57 111.68,-129.09 101.09,-128.93 103.3,-135.57"/>
</a>
</g>
</g>
<!-- Node13 -->
<g id="Node000013" class="node">
<title>Node13</title>
<g id="a_Node000013"><a xlink:href="kobject_source.html" target="_top" xlink:title=" ">
<polygon fill="white" stroke="#666666" points="573.5,-525 490.5,-525 490.5,-506 573.5,-506 573.5,-525"/>
<text text-anchor="middle" x="532" y="-513" font-family="Helvetica,sans-Serif" font-size="10.00">l4/sys/kobject</text>
</a>
</g>
</g>
<!-- Node12&#45;&gt;Node13 -->
<g id="edge20_Node000012_Node000013" class="edge">
<title>Node12&#45;&gt;Node13</title>
<g id="a_edge20_Node000012_Node000013"><a xlink:title=" ">
<path fill="none" stroke="#63b8ff" d="M497.94,-670.74C503.58,-645.2 520.09,-570.43 527.86,-535.23"/>
<polygon fill="#63b8ff" stroke="#63b8ff" points="531.32,-535.83 530.05,-525.31 524.48,-534.32 531.32,-535.83"/>
</a>
</g>
</g>
<!-- Node22 -->
<g id="Node000022" class="node">
<title>Node22</title>
<g id="a_Node000022"><a xlink:href="l4_2sys_2task_8h.html" target="_top" xlink:title="Common task related definitions.">
<polygon fill="white" stroke="#666666" points="337,-354.5 259,-354.5 259,-335.5 337,-335.5 337,-354.5"/>
<text text-anchor="middle" x="298" y="-342.5" font-family="Helvetica,sans-Serif" font-size="10.00">l4/sys/task.h</text>
</a>
</g>
</g>
<!-- Node12&#45;&gt;Node22 -->
<g id="edge48_Node000012_Node000022" class="edge">
<title>Node12&#45;&gt;Node22</title>
<g id="a_edge48_Node000012_Node000022"><a xlink:title=" ">
<path fill="none" stroke="#63b8ff" d="M490.72,-670.9C480.27,-653.07 458,-610.46 458,-571.5 458,-571.5 458,-571.5 458,-459.5 458,-427.47 371.6,-381.22 325.78,-358.95"/>
<polygon fill="#63b8ff" stroke="#63b8ff" points="327.2,-355.75 316.67,-354.58 324.17,-362.06 327.2,-355.75"/>
</a>
</g>
</g>
<!-- Node23 -->
<g id="Node000023" class="node">
<title>Node23</title>
<g id="a_Node000023"><a xlink:href="sys_2meta.html" target="_top" xlink:title="Meta interface for getting dynamic type information about objects behind capabilities.">
<polygon fill="white" stroke="#666666" points="418,-635 344,-635 344,-616 418,-616 418,-635"/>
<text text-anchor="middle" x="381" y="-623" font-family="Helvetica,sans-Serif" font-size="10.00">l4/sys/meta</text>
</a>
</g>
</g>
<!-- Node12&#45;&gt;Node23 -->
<g id="edge49_Node000012_Node000023" class="edge">
<title>Node12&#45;&gt;Node23</title>
<g id="a_edge49_Node000012_Node000023"><a xlink:title=" ">
<path fill="none" stroke="#63b8ff" d="M477.52,-670.98C459.02,-662.46 430.32,-649.23 409.02,-639.41"/>
<polygon fill="#63b8ff" stroke="#63b8ff" points="410.36,-636.18 399.81,-635.17 407.43,-642.53 410.36,-636.18"/>
</a>
</g>
</g>
<!-- Node13&#45;&gt;Node3 -->
<g id="edge34_Node000013_Node000003" class="edge">
<title>Node13&#45;&gt;Node3</title>
<g id="a_edge34_Node000013_Node000003"><a xlink:title=" ">
<path fill="none" stroke="#63b8ff" d="M546.07,-505.86C583.56,-481.62 681.77,-409.53 663,-330 650.44,-276.8 651.17,-253.53 608,-220 584.61,-201.83 508.18,-188.78 455.56,-181.69"/>
<polygon fill="#63b8ff" stroke="#63b8ff" points="455.75,-178.18 445.38,-180.35 454.83,-185.12 455.75,-178.18"/>
</a>
</g>
</g>
<!-- Node14 -->
<g id="Node000014" class="node">
<title>Node14</title>
<g id="a_Node000014"><a xlink:href="kernel__object_8h.html" target="_top" xlink:title="Kernel object system calls.">
<polygon fill="white" stroke="#666666" points="577.5,-415 486.5,-415 486.5,-396 577.5,-396 577.5,-415"/>
<text text-anchor="middle" x="532" y="-403" font-family="Helvetica,sans-Serif" font-size="10.00">kernel_object.h</text>
</a>
</g>
</g>
<!-- Node13&#45;&gt;Node14 -->
<g id="edge21_Node000013_Node000014" class="edge">
<title>Node13&#45;&gt;Node14</title>
<g id="a_edge21_Node000013_Node000014"><a xlink:title=" ">
<path fill="none" stroke="#63b8ff" d="M532,-505.66C532,-488.17 532,-448.8 532,-425.27"/>
<polygon fill="#63b8ff" stroke="#63b8ff" points="535.5,-425.16 532,-415.16 528.5,-425.16 535.5,-425.16"/>
</a>
</g>
</g>
<!-- Node18 -->
<g id="Node000018" class="node">
<title>Node18</title>
<g id="a_Node000018"><a xlink:href="____typeinfo_8h.html" target="_top" xlink:title="Type information handling.">
<polygon fill="white" stroke="#666666" points="353.5,-470 276.5,-470 276.5,-451 353.5,-451 353.5,-470"/>
<text text-anchor="middle" x="315" y="-458" font-family="Helvetica,sans-Serif" font-size="10.00">__typeinfo.h</text>
</a>
</g>
</g>
<!-- Node13&#45;&gt;Node18 -->
<g id="edge35_Node000013_Node000018" class="edge">
<title>Node13&#45;&gt;Node18</title>
<g id="a_edge35_Node000013_Node000018"><a xlink:title=" ">
<path fill="none" stroke="#63b8ff" d="M497.14,-505.98C459.91,-496.89 400.8,-482.46 360.07,-472.51"/>
<polygon fill="#63b8ff" stroke="#63b8ff" points="360.68,-469.05 350.14,-470.08 359.02,-475.85 360.68,-469.05"/>
</a>
</g>
</g>
<!-- Node14&#45;&gt;Node3 -->
<g id="edge22_Node000014_Node000003" class="edge">
<title>Node14&#45;&gt;Node3</title>
<g id="a_edge22_Node000014_Node000003"><a xlink:title=" ">
<path fill="none" stroke="#63b8ff" d="M518.59,-395.79C494.41,-379.26 444.02,-340.78 422,-294 406.59,-261.28 403.35,-218.44 402.85,-194.26"/>
<polygon fill="#63b8ff" stroke="#63b8ff" points="406.35,-193.99 402.79,-184.01 399.35,-194.03 406.35,-193.99"/>
</a>
</g>
</g>
<!-- Node14&#45;&gt;Node5 -->
<g id="edge23_Node000014_Node000005" class="edge">
<title>Node14&#45;&gt;Node5</title>
<g id="a_edge23_Node000014_Node000005"><a xlink:title=" ">
<path fill="none" stroke="#63b8ff" d="M576.74,-395.97C598.7,-389.58 623.85,-378.61 640,-360 662.4,-334.19 659,-319.67 659,-285.5 659,-285.5 659,-285.5 659,-173.5 659,-119.15 595.24,-90.54 547.47,-76.73"/>
<polygon fill="#63b8ff" stroke="#63b8ff" points="548.12,-73.28 537.55,-74 546.27,-80.03 548.12,-73.28"/>
</a>
</g>
</g>
<!-- Node15 -->
<g id="Node000015" class="node">
<title>Node15</title>
<g id="a_Node000015"><a xlink:href="l4_2sys_2utcb_8h.html" target="_top" xlink:title="UTCB definitions.">
<polygon fill="white" stroke="#666666" points="307,-239 229,-239 229,-220 307,-220 307,-239"/>
<text text-anchor="middle" x="268" y="-227" font-family="Helvetica,sans-Serif" font-size="10.00">l4/sys/utcb.h</text>
</a>
</g>
</g>
<!-- Node14&#45;&gt;Node15 -->
<g id="edge24_Node000014_Node000015" class="edge">
<title>Node14&#45;&gt;Node15</title>
<g id="a_edge24_Node000014_Node000015"><a xlink:title=" ">
<path fill="none" stroke="#63b8ff" d="M486.28,-396.58C456.87,-390.01 418.73,-378.66 389,-360 340.74,-329.71 298.99,-275.49 279.58,-247.8"/>
<polygon fill="#63b8ff" stroke="#63b8ff" points="282.22,-245.46 273.67,-239.2 276.45,-249.42 282.22,-245.46"/>
</a>
</g>
</g>
<!-- Node16 -->
<g id="Node000016" class="node">
<title>Node16</title>
<g id="a_Node000016"><a xlink:href="____kernel__object__impl_8h.html" target="_top" xlink:title="Low&#45;level kernel debugger functions.">
<polygon fill="white" stroke="#666666" points="631,-360 507,-360 507,-330 631,-330 631,-360"/>
<text text-anchor="start" x="515" y="-348" font-family="Helvetica,sans-Serif" font-size="10.00">l4/sys/__kernel_object</text>
<text text-anchor="middle" x="569" y="-337" font-family="Helvetica,sans-Serif" font-size="10.00">_impl.h</text>
</a>
</g>
</g>
<!-- Node14&#45;&gt;Node16 -->
<g id="edge28_Node000014_Node000016" class="edge">
<title>Node14&#45;&gt;Node16</title>
<g id="a_edge28_Node000014_Node000016"><a xlink:title=" ">
<path fill="none" stroke="#63b8ff" d="M537.46,-395.87C541.97,-388.74 548.58,-378.28 554.59,-368.79"/>
<polygon fill="#63b8ff" stroke="#63b8ff" points="557.69,-370.44 560.07,-360.11 551.77,-366.7 557.69,-370.44"/>
</a>
</g>
</g>
<!-- Node17 -->
<g id="Node000017" class="node">
<title>Node17</title>
<g id="a_Node000017"><a xlink:href="l4_2sys_2ipc_8h.html" target="_top" xlink:title="Common IPC interface.">
<polygon fill="white" stroke="#666666" points="502.5,-294 431.5,-294 431.5,-275 502.5,-275 502.5,-294"/>
<text text-anchor="middle" x="467" y="-282" font-family="Helvetica,sans-Serif" font-size="10.00">l4/sys/ipc.h</text>
</a>
</g>
</g>
<!-- Node14&#45;&gt;Node17 -->
<g id="edge33_Node000014_Node000017" class="edge">
<title>Node14&#45;&gt;Node17</title>
<g id="a_edge33_Node000014_Node000017"><a xlink:title=" ">
<path fill="none" stroke="#63b8ff" d="M524.24,-395.78C516.83,-387.14 505.68,-373.31 498,-360 487.52,-341.84 478.7,-319.45 473.18,-303.98"/>
<polygon fill="#63b8ff" stroke="#63b8ff" points="476.34,-302.41 469.76,-294.1 469.72,-304.7 476.34,-302.41"/>
</a>
</g>
</g>
<!-- Node15&#45;&gt;Node3 -->
<g id="edge25_Node000015_Node000003" class="edge">
<title>Node15&#45;&gt;Node3</title>
<g id="a_edge25_Node000015_Node000003"><a xlink:title=" ">
<path fill="none" stroke="#63b8ff" d="M289.69,-219.98C311.8,-211.3 346.32,-197.75 371.45,-187.88"/>
<polygon fill="#63b8ff" stroke="#63b8ff" points="372.89,-191.08 380.92,-184.17 370.33,-184.57 372.89,-191.08"/>
</a>
</g>
</g>
<!-- Node15&#45;&gt;Node4 -->
<g id="edge27_Node000015_Node000004" class="edge">
<title>Node15&#45;&gt;Node4</title>
<g id="a_edge27_Node000015_Node000004"><a xlink:title=" ">
<path fill="none" stroke="#63b8ff" d="M266.28,-219.74C261.27,-194.2 246.59,-119.43 239.68,-84.23"/>
<polygon fill="#63b8ff" stroke="#63b8ff" points="243.09,-83.45 237.73,-74.31 236.22,-84.79 243.09,-83.45"/>
</a>
</g>
</g>
<!-- Node15&#45;&gt;Node5 -->
<g id="edge26_Node000015_Node000005" class="edge">
<title>Node15&#45;&gt;Node5</title>
<g id="a_edge26_Node000015_Node000005"><a xlink:title=" ">
<path fill="none" stroke="#63b8ff" d="M268.54,-219.82C270.38,-197.89 278.36,-139.88 312,-110 345.91,-79.88 396.72,-69.3 436.36,-65.95"/>
<polygon fill="#63b8ff" stroke="#63b8ff" points="436.72,-69.43 446.44,-65.23 436.22,-62.45 436.72,-69.43"/>
</a>
</g>
</g>
<!-- Node16&#45;&gt;Node17 -->
<g id="edge29_Node000016_Node000017" class="edge">
<title>Node16&#45;&gt;Node17</title>
<g id="a_edge29_Node000016_Node000017"><a xlink:title=" ">
<path fill="none" stroke="#63b8ff" d="M544.57,-329.99C528.31,-320.66 507.05,-308.47 490.9,-299.21"/>
<polygon fill="#63b8ff" stroke="#63b8ff" points="492.48,-296.08 482.06,-294.14 489,-302.15 492.48,-296.08"/>
</a>
</g>
</g>
<!-- Node17&#45;&gt;Node3 -->
<g id="edge30_Node000017_Node000003" class="edge">
<title>Node17&#45;&gt;Node3</title>
<g id="a_edge30_Node000017_Node000003"><a xlink:title=" ">
<path fill="none" stroke="#63b8ff" d="M461.76,-274.66C451.21,-256.85 427.22,-216.37 413.37,-193.01"/>
<polygon fill="#63b8ff" stroke="#63b8ff" points="416.24,-190.98 408.13,-184.16 410.22,-194.55 416.24,-190.98"/>
</a>
</g>
</g>
<!-- Node17&#45;&gt;Node11 -->
<g id="edge32_Node000017_Node000011" class="edge">
<title>Node17&#45;&gt;Node11</title>
<g id="a_edge32_Node000017_Node000011"><a xlink:title=" ">
<path fill="none" stroke="#63b8ff" d="M482.58,-274.98C497.77,-266.69 521.1,-253.94 538.9,-244.22"/>
<polygon fill="#63b8ff" stroke="#63b8ff" points="541.03,-247.04 548.13,-239.17 537.68,-240.89 541.03,-247.04"/>
</a>
</g>
</g>
<!-- Node17&#45;&gt;Node15 -->
<g id="edge31_Node000017_Node000015" class="edge">
<title>Node17&#45;&gt;Node15</title>
<g id="a_edge31_Node000017_Node000015"><a xlink:title=" ">
<path fill="none" stroke="#63b8ff" d="M435.03,-274.98C401.18,-265.97 347.6,-251.7 310.29,-241.76"/>
<polygon fill="#63b8ff" stroke="#63b8ff" points="310.79,-238.27 300.22,-239.08 308.99,-245.04 310.79,-238.27"/>
</a>
</g>
</g>
<!-- Node19 -->
<g id="Node000019" class="node">
<title>Node19</title>
<g id="a_Node000019"><a xlink:href="types.html" target="_top" xlink:title=" ">
<polygon fill="white" stroke="#666666" points="127,-354.5 63,-354.5 63,-335.5 127,-335.5 127,-354.5"/>
<text text-anchor="middle" x="95" y="-342.5" font-family="Helvetica,sans-Serif" font-size="10.00">cxx/types</text>
</a>
</g>
</g>
<!-- Node18&#45;&gt;Node19 -->
<g id="edge36_Node000018_Node000019" class="edge">
<title>Node18&#45;&gt;Node19</title>
<g id="a_edge36_Node000018_Node000019"><a xlink:title=" ">
<path fill="none" stroke="#63b8ff" d="M276.47,-452.4C246.35,-445.74 204.18,-433.93 171,-415 146.45,-400.99 123.14,-377.85 108.96,-362.27"/>
<polygon fill="#63b8ff" stroke="#63b8ff" points="111.33,-359.67 102.08,-354.5 106.09,-364.31 111.33,-359.67"/>
</a>
</g>
</g>
<!-- Node20 -->
<g id="Node000020" class="node">
<title>Node20</title>
<g id="a_Node000020"><a xlink:href="ipc__basics_source.html" target="_top" xlink:title=" ">
<polygon fill="white" stroke="#666666" points="377.5,-415 290.5,-415 290.5,-396 377.5,-396 377.5,-415"/>
<text text-anchor="middle" x="334" y="-403" font-family="Helvetica,sans-Serif" font-size="10.00">cxx/ipc_basics</text>
</a>
</g>
</g>
<!-- Node18&#45;&gt;Node20 -->
<g id="edge37_Node000018_Node000020" class="edge">
<title>Node18&#45;&gt;Node20</title>
<g id="a_edge37_Node000018_Node000020"><a xlink:title=" ">
<path fill="none" stroke="#63b8ff" d="M318.14,-450.75C320.68,-443.65 324.36,-433.4 327.53,-424.56"/>
<polygon fill="#63b8ff" stroke="#63b8ff" points="330.84,-425.68 330.92,-415.09 324.25,-423.32 330.84,-425.68"/>
</a>
</g>
</g>
<!-- Node21 -->
<g id="Node000021" class="node">
<title>Node21</title>
<g id="a_Node000021"><a xlink:href="capability_8h_source.html" target="_top" xlink:title=" ">
<polygon fill="white" stroke="#666666" points="272,-415 180,-415 180,-396 272,-396 272,-415"/>
<text text-anchor="middle" x="226" y="-403" font-family="Helvetica,sans-Serif" font-size="10.00">cxx/capability.h</text>
</a>
</g>
</g>
<!-- Node18&#45;&gt;Node21 -->
<g id="edge41_Node000018_Node000021" class="edge">
<title>Node18&#45;&gt;Node21</title>
<g id="a_edge41_Node000018_Node000021"><a xlink:title=" ">
<path fill="none" stroke="#63b8ff" d="M300.7,-450.98C286.9,-442.77 265.76,-430.18 249.49,-420.49"/>
<polygon fill="#63b8ff" stroke="#63b8ff" points="250.94,-417.28 240.56,-415.17 247.36,-423.29 250.94,-417.28"/>
</a>
</g>
</g>
<!-- Node20&#45;&gt;Node11 -->
<g id="edge40_Node000020_Node000011" class="edge">
<title>Node20&#45;&gt;Node11</title>
<g id="a_edge40_Node000020_Node000011"><a xlink:title=" ">
<path fill="none" stroke="#63b8ff" d="M351.56,-395.93C384.83,-379.21 458.42,-339.81 511,-294 527.01,-280.05 542.21,-261.03 552.19,-247.45"/>
<polygon fill="#63b8ff" stroke="#63b8ff" points="555.23,-249.21 558.21,-239.05 549.54,-245.14 555.23,-249.21"/>
</a>
</g>
</g>
<!-- Node20&#45;&gt;Node15 -->
<g id="edge39_Node000020_Node000015" class="edge">
<title>Node20&#45;&gt;Node15</title>
<g id="a_edge39_Node000020_Node000015"><a xlink:title=" ">
<path fill="none" stroke="#63b8ff" d="M300.6,-395.98C282.22,-389.4 260.98,-378.24 250,-360 228.82,-324.8 246.58,-274.65 258.81,-248.28"/>
<polygon fill="#63b8ff" stroke="#63b8ff" points="262.04,-249.65 263.28,-239.12 255.75,-246.57 262.04,-249.65"/>
</a>
</g>
</g>
<!-- Node20&#45;&gt;Node19 -->
<g id="edge38_Node000020_Node000019" class="edge">
<title>Node20&#45;&gt;Node19</title>
<g id="a_edge38_Node000020_Node000019"><a xlink:title=" ">
<path fill="none" stroke="#63b8ff" d="M299.25,-395.99C256.28,-385.48 183.19,-367.59 137.09,-356.3"/>
<polygon fill="#63b8ff" stroke="#63b8ff" points="137.66,-352.84 127.12,-353.86 136,-359.64 137.66,-352.84"/>
</a>
</g>
</g>
<!-- Node21&#45;&gt;Node3 -->
<g id="edge43_Node000021_Node000003" class="edge">
<title>Node21&#45;&gt;Node3</title>
<g id="a_edge43_Node000021_Node000003"><a xlink:title=" ">
<path fill="none" stroke="#63b8ff" d="M222.31,-395.99C210.59,-367.49 177.42,-274.17 220,-220 236.03,-199.6 302.52,-187.39 350.75,-181.06"/>
<polygon fill="#63b8ff" stroke="#63b8ff" points="351.25,-184.52 360.73,-179.79 350.37,-177.58 351.25,-184.52"/>
</a>
</g>
</g>
<!-- Node21&#45;&gt;Node7 -->
<g id="edge42_Node000021_Node000007" class="edge">
<title>Node21&#45;&gt;Node7</title>
<g id="a_edge42_Node000021_Node000007"><a xlink:title=" ">
<path fill="none" stroke="#63b8ff" d="M216.13,-395.72C196.62,-377.36 155,-332.65 155,-285.5 155,-285.5 155,-285.5 155,-228.5 155,-197.03 150.32,-160.66 147.06,-139.18"/>
<polygon fill="#63b8ff" stroke="#63b8ff" points="150.5,-138.48 145.48,-129.15 143.58,-139.57 150.5,-138.48"/>
</a>
</g>
</g>
<!-- Node21&#45;&gt;Node22 -->
<g id="edge44_Node000021_Node000022" class="edge">
<title>Node21&#45;&gt;Node22</title>
<g id="a_edge44_Node000021_Node000022"><a xlink:title=" ">
<path fill="none" stroke="#63b8ff" d="M236.62,-395.87C247.9,-386.71 265.92,-372.06 279.53,-361.01"/>
<polygon fill="#63b8ff" stroke="#63b8ff" points="281.78,-363.69 287.33,-354.67 277.36,-358.26 281.78,-363.69"/>
</a>
</g>
</g>
<!-- Node22&#45;&gt;Node3 -->
<g id="edge45_Node000022_Node000003" class="edge">
<title>Node22&#45;&gt;Node3</title>
<g id="a_edge45_Node000022_Node000003"><a xlink:title=" ">
<path fill="none" stroke="#63b8ff" d="M303.35,-335.41C319.78,-309.05 369.71,-228.93 392.02,-193.12"/>
<polygon fill="#63b8ff" stroke="#63b8ff" points="395.22,-194.61 397.53,-184.27 389.27,-190.91 395.22,-194.61"/>
</a>
</g>
</g>
<!-- Node22&#45;&gt;Node15 -->
<g id="edge46_Node000022_Node000015" class="edge">
<title>Node22&#45;&gt;Node15</title>
<g id="a_edge46_Node000022_Node000015"><a xlink:title=" ">
<path fill="none" stroke="#63b8ff" d="M295.75,-335.47C290.9,-317.15 279.41,-273.68 272.84,-248.81"/>
<polygon fill="#63b8ff" stroke="#63b8ff" points="276.22,-247.9 270.28,-239.13 269.45,-249.69 276.22,-247.9"/>
</a>
</g>
</g>
<!-- Node22&#45;&gt;Node17 -->
<g id="edge47_Node000022_Node000017" class="edge">
<title>Node22&#45;&gt;Node17</title>
<g id="a_edge47_Node000022_Node000017"><a xlink:title=" ">
<path fill="none" stroke="#63b8ff" d="M322.57,-335.49C351.61,-325.44 400.1,-308.66 432.8,-297.34"/>
<polygon fill="#63b8ff" stroke="#63b8ff" points="434.09,-300.6 442.4,-294.02 431.8,-293.98 434.09,-300.6"/>
</a>
</g>
</g>
<!-- Node23&#45;&gt;Node13 -->
<g id="edge50_Node000023_Node000013" class="edge">
<title>Node23&#45;&gt;Node13</title>
<g id="a_edge50_Node000023_Node000013"><a xlink:title=" ">
<path fill="none" stroke="#63b8ff" d="M393.1,-615.84C418.95,-597.36 479.77,-553.86 511.66,-531.05"/>
<polygon fill="#63b8ff" stroke="#63b8ff" points="513.74,-533.86 519.84,-525.2 509.67,-528.17 513.74,-533.86"/>
</a>
</g>
</g>
<!-- Node24 -->
<g id="Node000024" class="node">
<title>Node24</title>
<g id="a_Node000024"><a xlink:href="ipc__iface.html" target="_top" xlink:title="Interface Definition Language.">
<polygon fill="white" stroke="#666666" points="385,-525 305,-525 305,-506 385,-506 385,-525"/>
<text text-anchor="middle" x="345" y="-513" font-family="Helvetica,sans-Serif" font-size="10.00">cxx/ipc_iface</text>
</a>
</g>
</g>
<!-- Node23&#45;&gt;Node24 -->
<g id="edge51_Node000023_Node000024" class="edge">
<title>Node23&#45;&gt;Node24</title>
<g id="a_edge51_Node000023_Node000024"><a xlink:title=" ">
<path fill="none" stroke="#63b8ff" d="M378.05,-615.66C372.2,-598.09 358.98,-558.45 351.15,-534.95"/>
<polygon fill="#63b8ff" stroke="#63b8ff" points="354.37,-533.54 347.89,-525.16 347.73,-535.75 354.37,-533.54"/>
</a>
</g>
</g>
<!-- Node26 -->
<g id="Node000026" class="node">
<title>Node26</title>
<g id="a_Node000026"><a xlink:href="ipc__string_source.html" target="_top" xlink:title=" ">
<polygon fill="white" stroke="#666666" points="292,-580 208,-580 208,-561 292,-561 292,-580"/>
<text text-anchor="middle" x="250" y="-568" font-family="Helvetica,sans-Serif" font-size="10.00">cxx/ipc_string</text>
</a>
</g>
</g>
<!-- Node23&#45;&gt;Node26 -->
<g id="edge58_Node000023_Node000026" class="edge">
<title>Node23&#45;&gt;Node26</title>
<g id="a_edge58_Node000023_Node000026"><a xlink:title=" ">
<path fill="none" stroke="#63b8ff" d="M359.95,-615.98C338.59,-607.34 305.3,-593.87 280.94,-584.02"/>
<polygon fill="#63b8ff" stroke="#63b8ff" points="282.01,-580.68 271.43,-580.17 279.39,-587.17 282.01,-580.68"/>
</a>
</g>
</g>
<!-- Node24&#45;&gt;Node18 -->
<g id="edge57_Node000024_Node000018" class="edge">
<title>Node24&#45;&gt;Node18</title>
<g id="a_edge57_Node000024_Node000018"><a xlink:title=" ">
<path fill="none" stroke="#63b8ff" d="M340.05,-505.75C335.94,-498.49 329.97,-487.95 324.9,-478.98"/>
<polygon fill="#63b8ff" stroke="#63b8ff" points="327.83,-477.07 319.86,-470.09 321.74,-480.52 327.83,-477.07"/>
</a>
</g>
</g>
<!-- Node24&#45;&gt;Node20 -->
<g id="edge52_Node000024_Node000020" class="edge">
<title>Node24&#45;&gt;Node20</title>
<g id="a_edge52_Node000024_Node000020"><a xlink:title=" ">
<path fill="none" stroke="#63b8ff" d="M350.34,-505.84C357.21,-493.59 367.63,-470.52 362,-451 359.13,-441.06 353.32,-431.2 347.72,-423.29"/>
<polygon fill="#63b8ff" stroke="#63b8ff" points="350.5,-421.16 341.67,-415.3 344.92,-425.39 350.5,-421.16"/>
</a>
</g>
</g>
<!-- Node25 -->
<g id="Node000025" class="node">
<title>Node25</title>
<g id="a_Node000025"><a xlink:href="ipc__types.html" target="_top" xlink:title=" ">
<polygon fill="white" stroke="#666666" points="219.5,-470 104.5,-470 104.5,-451 219.5,-451 219.5,-470"/>
<text text-anchor="middle" x="162" y="-458" font-family="Helvetica,sans-Serif" font-size="10.00">l4/sys/cxx/ipc_types</text>
</a>
</g>
</g>
<!-- Node24&#45;&gt;Node25 -->
<g id="edge53_Node000024_Node000025" class="edge">
<title>Node24&#45;&gt;Node25</title>
<g id="a_edge53_Node000024_Node000025"><a xlink:title=" ">
<path fill="none" stroke="#63b8ff" d="M315.6,-505.98C284.61,-497.01 235.62,-482.82 201.33,-472.89"/>
<polygon fill="#63b8ff" stroke="#63b8ff" points="202.21,-469.5 191.63,-470.08 200.26,-476.23 202.21,-469.5"/>
</a>
</g>
</g>
<!-- Node25&#45;&gt;Node19 -->
<g id="edge55_Node000025_Node000019" class="edge">
<title>Node25&#45;&gt;Node19</title>
<g id="a_edge55_Node000025_Node000019"><a xlink:title=" ">
<path fill="none" stroke="#63b8ff" d="M156.96,-450.97C146,-432.4 119.8,-388.01 105.22,-363.32"/>
<polygon fill="#63b8ff" stroke="#63b8ff" points="108.19,-361.46 100.09,-354.63 102.16,-365.02 108.19,-361.46"/>
</a>
</g>
</g>
<!-- Node25&#45;&gt;Node20 -->
<g id="edge56_Node000025_Node000020" class="edge">
<title>Node25&#45;&gt;Node20</title>
<g id="a_edge56_Node000025_Node000020"><a xlink:title=" ">
<path fill="none" stroke="#63b8ff" d="M189.63,-450.98C218.51,-442.09 264.01,-428.07 296.2,-418.15"/>
<polygon fill="#63b8ff" stroke="#63b8ff" points="297.62,-421.37 306.15,-415.08 295.56,-414.68 297.62,-421.37"/>
</a>
</g>
</g>
<!-- Node25&#45;&gt;Node21 -->
<g id="edge54_Node000025_Node000021" class="edge">
<title>Node25&#45;&gt;Node21</title>
<g id="a_edge54_Node000025_Node000021"><a xlink:title=" ">
<path fill="none" stroke="#63b8ff" d="M172.28,-450.98C181.84,-443.07 196.28,-431.11 207.78,-421.58"/>
<polygon fill="#63b8ff" stroke="#63b8ff" points="210.06,-424.24 215.53,-415.17 205.6,-418.85 210.06,-424.24"/>
</a>
</g>
</g>
<!-- Node26&#45;&gt;Node19 -->
<g id="edge59_Node000026_Node000019" class="edge">
<title>Node26&#45;&gt;Node19</title>
<g id="a_edge59_Node000026_Node000019"><a xlink:title=" ">
<path fill="none" stroke="#63b8ff" d="M218.79,-560.96C179.34,-548.32 112.96,-520.51 83,-470 63.31,-436.79 76.91,-389.61 86.95,-364.08"/>
<polygon fill="#63b8ff" stroke="#63b8ff" points="90.3,-365.15 90.93,-354.57 83.84,-362.45 90.3,-365.15"/>
</a>
</g>
</g>
<!-- Node26&#45;&gt;Node20 -->
<g id="edge60_Node000026_Node000020" class="edge">
<title>Node26&#45;&gt;Node20</title>
<g id="a_edge60_Node000026_Node000020"><a xlink:title=" ">
<path fill="none" stroke="#63b8ff" d="M292.31,-569.12C325.87,-566.3 370.86,-556.38 394,-525 418.95,-491.17 377.95,-445.44 352.27,-421.91"/>
<polygon fill="#63b8ff" stroke="#63b8ff" points="354.38,-419.1 344.57,-415.09 349.74,-424.34 354.38,-419.1"/>
</a>
</g>
</g>
<!-- Node27 -->
<g id="Node000027" class="node">
<title>Node27</title>
<g id="a_Node000027"><a xlink:href="ipc__array_source.html" target="_top" xlink:title=" ">
<polygon fill="white" stroke="#666666" points="236,-525 174,-525 174,-506 236,-506 236,-525"/>
<text text-anchor="middle" x="205" y="-513" font-family="Helvetica,sans-Serif" font-size="10.00">ipc_array</text>
</a>
</g>
</g>
<!-- Node26&#45;&gt;Node27 -->
<g id="edge61_Node000026_Node000027" class="edge">
<title>Node26&#45;&gt;Node27</title>
<g id="a_edge61_Node000026_Node000027"><a xlink:title=" ">
<path fill="none" stroke="#63b8ff" d="M242.57,-560.75C236.15,-553.18 226.69,-542.05 218.88,-532.84"/>
<polygon fill="#63b8ff" stroke="#63b8ff" points="221.43,-530.45 212.29,-525.09 216.1,-534.98 221.43,-530.45"/>
</a>
</g>
</g>
<!-- Node27&#45;&gt;Node19 -->
<g id="edge62_Node000027_Node000019" class="edge">
<title>Node27&#45;&gt;Node19</title>
<g id="a_edge62_Node000027_Node000019"><a xlink:title=" ">
<path fill="none" stroke="#63b8ff" d="M173.95,-511.29C148,-506.78 112.5,-495.96 95,-470 73.52,-438.14 81.99,-390.42 89.09,-364.45"/>
<polygon fill="#63b8ff" stroke="#63b8ff" points="92.48,-365.35 91.96,-354.76 85.77,-363.36 92.48,-365.35"/>
</a>
</g>
</g>
<!-- Node27&#45;&gt;Node20 -->
<g id="edge63_Node000027_Node000020" class="edge">
<title>Node27&#45;&gt;Node20</title>
<g id="a_edge63_Node000027_Node000020"><a xlink:title=" ">
<path fill="none" stroke="#63b8ff" d="M212.5,-505.71C223.67,-492.9 245.64,-468.69 267,-451 280.72,-439.64 297.4,-428.55 310.69,-420.28"/>
<polygon fill="#63b8ff" stroke="#63b8ff" points="312.56,-423.24 319.26,-415.04 308.91,-417.27 312.56,-423.24"/>
</a>
</g>
</g>
<!-- Node27&#45;&gt;Node25 -->
<g id="edge64_Node000027_Node000025" class="edge">
<title>Node27&#45;&gt;Node25</title>
<g id="a_edge64_Node000027_Node000025"><a xlink:title=" ">
<path fill="none" stroke="#63b8ff" d="M197.9,-505.75C191.83,-498.26 182.91,-487.28 175.49,-478.13"/>
<polygon fill="#63b8ff" stroke="#63b8ff" points="177.99,-475.65 168.97,-470.09 172.55,-480.06 177.99,-475.65"/>
</a>
</g>
</g>
<!-- Node29 -->
<g id="Node000029" class="node">
<title>Node29</title>
<g id="a_Node000029"><a xlink:title=" ">
<polygon fill="#e0e0e0" stroke="#999999" points="1064.5,-635 993.5,-635 993.5,-616 1064.5,-616 1064.5,-635"/>
<text text-anchor="middle" x="1029" y="-623" font-family="Helvetica,sans-Serif" font-size="10.00">sys/cdefs.h</text>
</a>
</g>
</g>
<!-- Node28&#45;&gt;Node29 -->
<g id="edge66_Node000028_Node000029" class="edge">
<title>Node28&#45;&gt;Node29</title>
<g id="a_edge66_Node000028_Node000029"><a xlink:title=" ">
<path fill="none" stroke="#63b8ff" d="M1029,-670.75C1029,-663.8 1029,-653.85 1029,-645.13"/>
<polygon fill="#63b8ff" stroke="#63b8ff" points="1032.5,-645.09 1029,-635.09 1025.5,-645.09 1032.5,-645.09"/>
</a>
</g>
</g>
</g>
</svg>
