<?xml version="1.0" encoding="UTF-8" standalone="no"?>
<!DOCTYPE svg PUBLIC "-//W3C//DTD SVG 1.1//EN"
 "http://www.w3.org/Graphics/SVG/1.1/DTD/svg11.dtd">
<!-- Generated by graphviz version 2.42.4 (0)
 -->
<!-- Title: l4/cxx/exceptions Pages: 1 -->
<svg width="1037pt" height="753pt"
 viewBox="0.00 0.00 1036.50 753.00" xmlns="http://www.w3.org/2000/svg" xmlns:xlink="http://www.w3.org/1999/xlink">
<g id="graph0" class="graph" transform="scale(1 1) rotate(0) translate(4 749)">
<title>l4/cxx/exceptions</title>
<!-- Node1 -->
<g id="Node000001" class="node">
<title>Node1</title>
<g id="a_Node000001"><a xlink:title="Base exceptions.">
<polygon fill="#999999" stroke="#666666" points="845,-745 743,-745 743,-726 845,-726 845,-745"/>
<text text-anchor="middle" x="794" y="-733" font-family="Helvetica,sans-Serif" font-size="10.00">l4/cxx/exceptions</text>
</a>
</g>
</g>
<!-- Node2 -->
<g id="Node000002" class="node">
<title>Node2</title>
<g id="a_Node000002"><a xlink:href="l4types_8h.html" target="_top" xlink:title="L4 Types.">
<polygon fill="white" stroke="#666666" points="841,-690 747,-690 747,-671 841,-671 841,-690"/>
<text text-anchor="middle" x="794" y="-678" font-family="Helvetica,sans-Serif" font-size="10.00">l4/cxx/l4types.h</text>
</a>
</g>
</g>
<!-- Node1&#45;&gt;Node2 -->
<g id="edge1_Node000001_Node000002" class="edge">
<title>Node1&#45;&gt;Node2</title>
<g id="a_edge1_Node000001_Node000002"><a xlink:title=" ">
<path fill="none" stroke="#63b8ff" d="M794,-725.75C794,-718.8 794,-708.85 794,-700.13"/>
<polygon fill="#63b8ff" stroke="#63b8ff" points="797.5,-700.09 794,-690.09 790.5,-700.09 797.5,-700.09"/>
</a>
</g>
</g>
<!-- Node10 -->
<g id="Node000010" class="node">
<title>Node10</title>
<g id="a_Node000010"><a xlink:href="basic__ostream.html" target="_top" xlink:title="Basic IO stream.">
<polygon fill="white" stroke="#666666" points="939,-635 819,-635 819,-616 939,-616 939,-635"/>
<text text-anchor="middle" x="879" y="-623" font-family="Helvetica,sans-Serif" font-size="10.00">l4/cxx/basic_ostream</text>
</a>
</g>
</g>
<!-- Node1&#45;&gt;Node10 -->
<g id="edge15_Node000001_Node000010" class="edge">
<title>Node1&#45;&gt;Node10</title>
<g id="a_edge15_Node000001_Node000010"><a xlink:title=" ">
<path fill="none" stroke="#63b8ff" d="M808.46,-725.8C820.81,-717.77 838.37,-704.87 850,-690 860.61,-676.44 868.37,-658.38 873.18,-644.99"/>
<polygon fill="#63b8ff" stroke="#63b8ff" points="876.53,-646.02 876.4,-635.42 869.89,-643.78 876.53,-646.02"/>
</a>
</g>
</g>
<!-- Node11 -->
<g id="Node000011" class="node">
<title>Node11</title>
<g id="a_Node000011"><a xlink:href="err_8h.html" target="_top" xlink:title="Error codes.">
<polygon fill="white" stroke="#666666" points="170,-239 100,-239 100,-220 170,-220 170,-239"/>
<text text-anchor="middle" x="135" y="-227" font-family="Helvetica,sans-Serif" font-size="10.00">l4/sys/err.h</text>
</a>
</g>
</g>
<!-- Node1&#45;&gt;Node11 -->
<g id="edge16_Node000001_Node000011" class="edge">
<title>Node1&#45;&gt;Node11</title>
<g id="a_edge16_Node000001_Node000011"><a xlink:title=" ">
<path fill="none" stroke="#63b8ff" d="M742.82,-732.95C567.22,-726.95 0,-701.75 0,-626.5 0,-626.5 0,-626.5 0,-344 0,-291.95 59.52,-258.98 99.52,-242.7"/>
<polygon fill="#63b8ff" stroke="#63b8ff" points="100.93,-245.91 108.97,-239.01 98.38,-239.39 100.93,-245.91"/>
</a>
</g>
</g>
<!-- Node12 -->
<g id="Node000012" class="node">
<title>Node12</title>
<g id="a_Node000012"><a xlink:href="capability.html" target="_top" xlink:title="L4::Cap related definitions.">
<polygon fill="white" stroke="#666666" points="729,-690 633,-690 633,-671 729,-671 729,-690"/>
<text text-anchor="middle" x="681" y="-678" font-family="Helvetica,sans-Serif" font-size="10.00">l4/sys/capability</text>
</a>
</g>
</g>
<!-- Node1&#45;&gt;Node12 -->
<g id="edge18_Node000001_Node000012" class="edge">
<title>Node1&#45;&gt;Node12</title>
<g id="a_edge18_Node000001_Node000012"><a xlink:title=" ">
<path fill="none" stroke="#63b8ff" d="M775.84,-725.98C757.75,-717.5 729.72,-704.35 708.81,-694.54"/>
<polygon fill="#63b8ff" stroke="#63b8ff" points="710.03,-691.25 699.49,-690.17 707.05,-697.59 710.03,-691.25"/>
</a>
</g>
</g>
<!-- Node28 -->
<g id="Node000028" class="node">
<title>Node28</title>
<g id="a_Node000028"><a xlink:href="backtrace_8h.html" target="_top" xlink:title="Backtrace.">
<polygon fill="white" stroke="#666666" points="1027,-690 923,-690 923,-671 1027,-671 1027,-690"/>
<text text-anchor="middle" x="975" y="-678" font-family="Helvetica,sans-Serif" font-size="10.00">l4/util/backtrace.h</text>
</a>
</g>
</g>
<!-- Node1&#45;&gt;Node28 -->
<g id="edge66_Node000001_Node000028" class="edge">
<title>Node1&#45;&gt;Node28</title>
<g id="a_edge66_Node000001_Node000028"><a xlink:title=" ">
<path fill="none" stroke="#63b8ff" d="M823.08,-725.98C853.6,-717.05 901.76,-702.94 935.66,-693.02"/>
<polygon fill="#63b8ff" stroke="#63b8ff" points="937.08,-696.25 945.69,-690.08 935.11,-689.53 937.08,-696.25"/>
</a>
</g>
</g>
<!-- Node3 -->
<g id="Node000003" class="node">
<title>Node3</title>
<g id="a_Node000003"><a xlink:href="l4_2sys_2types_8h.html" target="_top" xlink:title="Common L4 ABI Data Types.">
<polygon fill="white" stroke="#666666" points="634,-184 550,-184 550,-165 634,-165 634,-184"/>
<text text-anchor="middle" x="592" y="-172" font-family="Helvetica,sans-Serif" font-size="10.00">l4/sys/types.h</text>
</a>
</g>
</g>
<!-- Node2&#45;&gt;Node3 -->
<g id="edge2_Node000002_Node000003" class="edge">
<title>Node2&#45;&gt;Node3</title>
<g id="a_edge2_Node000002_Node000003"><a xlink:title=" ">
<path fill="none" stroke="#63b8ff" d="M793.6,-670.82C792.78,-652.49 791,-608.45 791,-571.5 791,-571.5 791,-571.5 791,-514.5 791,-371.6 764.34,-319.72 662,-220 649.26,-207.59 632.52,-196.8 618.61,-188.95"/>
<polygon fill="#63b8ff" stroke="#63b8ff" points="619.97,-185.7 609.51,-184 616.62,-191.85 619.97,-185.7"/>
</a>
</g>
</g>
<!-- Node2&#45;&gt;Node10 -->
<g id="edge14_Node000002_Node000010" class="edge">
<title>Node2&#45;&gt;Node10</title>
<g id="a_edge14_Node000002_Node000010"><a xlink:title=" ">
<path fill="none" stroke="#63b8ff" d="M807.66,-670.98C820.84,-662.77 841.03,-650.18 856.57,-640.49"/>
<polygon fill="#63b8ff" stroke="#63b8ff" points="858.46,-643.43 865.09,-635.17 854.76,-637.49 858.46,-643.43"/>
</a>
</g>
</g>
<!-- Node4 -->
<g id="Node000004" class="node">
<title>Node4</title>
<g id="a_Node000004"><a xlink:href="l4_2sys_2l4int_8h.html" target="_top" xlink:title="Fixed sized integer types, generic version.">
<polygon fill="white" stroke="#666666" points="671.5,-74 592.5,-74 592.5,-55 671.5,-55 671.5,-74"/>
<text text-anchor="middle" x="632" y="-62" font-family="Helvetica,sans-Serif" font-size="10.00">l4/sys/l4int.h</text>
</a>
</g>
</g>
<!-- Node3&#45;&gt;Node4 -->
<g id="edge3_Node000003_Node000004" class="edge">
<title>Node3&#45;&gt;Node4</title>
<g id="a_edge3_Node000003_Node000004"><a xlink:title=" ">
<path fill="none" stroke="#63b8ff" d="M612.52,-165C627.02,-157.77 645.35,-145.86 654,-129 661.72,-113.96 653.66,-95.62 645.21,-82.52"/>
<polygon fill="#63b8ff" stroke="#63b8ff" points="647.83,-80.17 639.2,-74.03 642.12,-84.21 647.83,-80.17"/>
</a>
</g>
</g>
<!-- Node5 -->
<g id="Node000005" class="node">
<title>Node5</title>
<g id="a_Node000005"><a xlink:href="compiler_8h.html" target="_top" xlink:title="L4 compiler related defines.">
<polygon fill="white" stroke="#666666" points="394.5,-74 295.5,-74 295.5,-55 394.5,-55 394.5,-74"/>
<text text-anchor="middle" x="345" y="-62" font-family="Helvetica,sans-Serif" font-size="10.00">l4/sys/compiler.h</text>
</a>
</g>
</g>
<!-- Node3&#45;&gt;Node5 -->
<g id="edge4_Node000003_Node000005" class="edge">
<title>Node3&#45;&gt;Node5</title>
<g id="a_edge4_Node000003_Node000005"><a xlink:title=" ">
<path fill="none" stroke="#63b8ff" d="M549.65,-170.88C509.25,-166.77 447.91,-156.19 402,-129 382.76,-117.61 366.39,-97.57 356.2,-83.05"/>
<polygon fill="#63b8ff" stroke="#63b8ff" points="358.9,-80.8 350.42,-74.45 353.09,-84.7 358.9,-80.8"/>
</a>
</g>
</g>
<!-- Node7 -->
<g id="Node000007" class="node">
<title>Node7</title>
<g id="a_Node000007"><a xlink:href="l4_2sys_2consts_8h.html" target="_top" xlink:title="Common constants.">
<polygon fill="white" stroke="#666666" points="790.5,-129 701.5,-129 701.5,-110 790.5,-110 790.5,-129"/>
<text text-anchor="middle" x="746" y="-117" font-family="Helvetica,sans-Serif" font-size="10.00">l4/sys/consts.h</text>
</a>
</g>
</g>
<!-- Node3&#45;&gt;Node7 -->
<g id="edge6_Node000003_Node000007" class="edge">
<title>Node3&#45;&gt;Node7</title>
<g id="a_edge6_Node000003_Node000007"><a xlink:title=" ">
<path fill="none" stroke="#63b8ff" d="M616.74,-164.98C642.37,-156.16 682.63,-142.31 711.41,-132.41"/>
<polygon fill="#63b8ff" stroke="#63b8ff" points="712.75,-135.65 721.06,-129.08 710.47,-129.03 712.75,-135.65"/>
</a>
</g>
</g>
<!-- Node8 -->
<g id="Node000008" class="node">
<title>Node8</title>
<g id="a_Node000008"><a xlink:href="____l4__fpage_8h_source.html" target="_top" xlink:title=" ">
<polygon fill="white" stroke="#666666" points="521,-129 411,-129 411,-110 521,-110 521,-129"/>
<text text-anchor="middle" x="466" y="-117" font-family="Helvetica,sans-Serif" font-size="10.00">l4/sys/__l4_fpage.h</text>
</a>
</g>
</g>
<!-- Node3&#45;&gt;Node8 -->
<g id="edge9_Node000003_Node000008" class="edge">
<title>Node3&#45;&gt;Node8</title>
<g id="a_edge9_Node000003_Node000008"><a xlink:title=" ">
<path fill="none" stroke="#63b8ff" d="M571.76,-164.98C551.3,-156.38 519.47,-142.99 496.07,-133.15"/>
<polygon fill="#63b8ff" stroke="#63b8ff" points="497.19,-129.82 486.61,-129.17 494.47,-136.27 497.19,-129.82"/>
</a>
</g>
</g>
<!-- Node9 -->
<g id="Node000009" class="node">
<title>Node9</title>
<g id="a_Node000009"><a xlink:href="____timeout_8h_source.html" target="_top" xlink:title=" ">
<polygon fill="white" stroke="#666666" points="645,-129 539,-129 539,-110 645,-110 645,-129"/>
<text text-anchor="middle" x="592" y="-117" font-family="Helvetica,sans-Serif" font-size="10.00">l4/sys/__timeout.h</text>
</a>
</g>
</g>
<!-- Node3&#45;&gt;Node9 -->
<g id="edge11_Node000003_Node000009" class="edge">
<title>Node3&#45;&gt;Node9</title>
<g id="a_edge11_Node000003_Node000009"><a xlink:title=" ">
<path fill="none" stroke="#63b8ff" d="M592,-164.75C592,-157.8 592,-147.85 592,-139.13"/>
<polygon fill="#63b8ff" stroke="#63b8ff" points="595.5,-139.09 592,-129.09 588.5,-139.09 595.5,-139.09"/>
</a>
</g>
</g>
<!-- Node6 -->
<g id="Node000006" class="node">
<title>Node6</title>
<g id="a_Node000006"><a xlink:title=" ">
<polygon fill="#e0e0e0" stroke="#999999" points="391,-19 299,-19 299,0 391,0 391,-19"/>
<text text-anchor="middle" x="345" y="-7" font-family="Helvetica,sans-Serif" font-size="10.00">l4/sys/linkage.h</text>
</a>
</g>
</g>
<!-- Node5&#45;&gt;Node6 -->
<g id="edge5_Node000005_Node000006" class="edge">
<title>Node5&#45;&gt;Node6</title>
<g id="a_edge5_Node000005_Node000006"><a xlink:title=" ">
<path fill="none" stroke="#63b8ff" d="M345,-54.75C345,-47.8 345,-37.85 345,-29.13"/>
<polygon fill="#63b8ff" stroke="#63b8ff" points="348.5,-29.09 345,-19.09 341.5,-29.09 348.5,-29.09"/>
</a>
</g>
</g>
<!-- Node7&#45;&gt;Node4 -->
<g id="edge8_Node000007_Node000004" class="edge">
<title>Node7&#45;&gt;Node4</title>
<g id="a_edge8_Node000007_Node000004"><a xlink:title=" ">
<path fill="none" stroke="#63b8ff" d="M727.68,-109.98C709.34,-101.46 680.89,-88.23 659.77,-78.41"/>
<polygon fill="#63b8ff" stroke="#63b8ff" points="661.19,-75.21 650.65,-74.17 658.24,-81.56 661.19,-75.21"/>
</a>
</g>
</g>
<!-- Node7&#45;&gt;Node5 -->
<g id="edge7_Node000007_Node000005" class="edge">
<title>Node7&#45;&gt;Node5</title>
<g id="a_edge7_Node000007_Node000005"><a xlink:title=" ">
<path fill="none" stroke="#63b8ff" d="M701.17,-112.57C628.65,-102.99 485.59,-84.08 404.59,-73.38"/>
<polygon fill="#63b8ff" stroke="#63b8ff" points="404.92,-69.89 394.54,-72.05 404,-76.83 404.92,-69.89"/>
</a>
</g>
</g>
<!-- Node8&#45;&gt;Node5 -->
<g id="edge10_Node000008_Node000005" class="edge">
<title>Node8&#45;&gt;Node5</title>
<g id="a_edge10_Node000008_Node000005"><a xlink:title=" ">
<path fill="none" stroke="#63b8ff" d="M446.56,-109.98C427.01,-101.42 396.62,-88.11 374.18,-78.28"/>
<polygon fill="#63b8ff" stroke="#63b8ff" points="375.36,-74.98 364.79,-74.17 372.55,-81.39 375.36,-74.98"/>
</a>
</g>
</g>
<!-- Node9&#45;&gt;Node4 -->
<g id="edge12_Node000009_Node000004" class="edge">
<title>Node9&#45;&gt;Node4</title>
<g id="a_edge12_Node000009_Node000004"><a xlink:title=" ">
<path fill="none" stroke="#63b8ff" d="M598.61,-109.75C604.26,-102.26 612.54,-91.28 619.45,-82.13"/>
<polygon fill="#63b8ff" stroke="#63b8ff" points="622.29,-84.18 625.52,-74.09 616.7,-79.96 622.29,-84.18"/>
</a>
</g>
</g>
<!-- Node9&#45;&gt;Node5 -->
<g id="edge13_Node000009_Node000005" class="edge">
<title>Node9&#45;&gt;Node5</title>
<g id="a_edge13_Node000009_Node000005"><a xlink:title=" ">
<path fill="none" stroke="#63b8ff" d="M552.32,-109.98C509.5,-100.8 441.24,-86.15 394.84,-76.19"/>
<polygon fill="#63b8ff" stroke="#63b8ff" points="395.51,-72.76 385,-74.08 394.04,-79.6 395.51,-72.76"/>
</a>
</g>
</g>
<!-- Node11&#45;&gt;Node5 -->
<g id="edge17_Node000011_Node000005" class="edge">
<title>Node11&#45;&gt;Node5</title>
<g id="a_edge17_Node000011_Node000005"><a xlink:title=" ">
<path fill="none" stroke="#63b8ff" d="M135.99,-219.86C138.96,-198.04 149.82,-140.24 184,-110 211.76,-85.45 251.92,-74.32 285.18,-69.33"/>
<polygon fill="#63b8ff" stroke="#63b8ff" points="285.82,-72.78 295.26,-67.97 284.89,-65.84 285.82,-72.78"/>
</a>
</g>
</g>
<!-- Node12&#45;&gt;Node3 -->
<g id="edge20_Node000012_Node000003" class="edge">
<title>Node12&#45;&gt;Node3</title>
<g id="a_edge20_Node000012_Node000003"><a xlink:title=" ">
<path fill="none" stroke="#63b8ff" d="M685.73,-670.83C695.07,-652.87 715,-610.03 715,-571.5 715,-571.5 715,-571.5 715,-404.5 715,-316.15 691.43,-292.54 641,-220 633.19,-208.76 622.04,-198.35 612.35,-190.42"/>
<polygon fill="#63b8ff" stroke="#63b8ff" points="614.36,-187.55 604.33,-184.14 610.04,-193.06 614.36,-187.55"/>
</a>
</g>
</g>
<!-- Node12&#45;&gt;Node7 -->
<g id="edge19_Node000012_Node000007" class="edge">
<title>Node12&#45;&gt;Node7</title>
<g id="a_edge19_Node000012_Node000007"><a xlink:title=" ">
<path fill="none" stroke="#63b8ff" d="M691.94,-671C712.08,-654.29 753,-614.99 753,-571.5 753,-571.5 753,-571.5 753,-514.5 753,-437.73 791,-422.77 791,-346 791,-346 791,-346 791,-228.5 791,-194.31 771.54,-158.38 758.22,-137.79"/>
<polygon fill="#63b8ff" stroke="#63b8ff" points="760.94,-135.57 752.45,-129.23 755.13,-139.48 760.94,-135.57"/>
</a>
</g>
</g>
<!-- Node13 -->
<g id="Node000013" class="node">
<title>Node13</title>
<g id="a_Node000013"><a xlink:href="kobject_source.html" target="_top" xlink:title=" ">
<polygon fill="white" stroke="#666666" points="490.5,-525 407.5,-525 407.5,-506 490.5,-506 490.5,-525"/>
<text text-anchor="middle" x="449" y="-513" font-family="Helvetica,sans-Serif" font-size="10.00">l4/sys/kobject</text>
</a>
</g>
</g>
<!-- Node12&#45;&gt;Node13 -->
<g id="edge21_Node000012_Node000013" class="edge">
<title>Node12&#45;&gt;Node13</title>
<g id="a_edge21_Node000012_Node000013"><a xlink:title=" ">
<path fill="none" stroke="#63b8ff" d="M668.85,-670.97C631.28,-644.57 516.63,-564.02 469.53,-530.93"/>
<polygon fill="#63b8ff" stroke="#63b8ff" points="471.5,-528.03 461.31,-525.15 467.48,-533.76 471.5,-528.03"/>
</a>
</g>
</g>
<!-- Node22 -->
<g id="Node000022" class="node">
<title>Node22</title>
<g id="a_Node000022"><a xlink:href="l4_2sys_2task_8h.html" target="_top" xlink:title="Common task related definitions.">
<polygon fill="white" stroke="#666666" points="535,-354.5 457,-354.5 457,-335.5 535,-335.5 535,-354.5"/>
<text text-anchor="middle" x="496" y="-342.5" font-family="Helvetica,sans-Serif" font-size="10.00">l4/sys/task.h</text>
</a>
</g>
</g>
<!-- Node12&#45;&gt;Node22 -->
<g id="edge49_Node000012_Node000022" class="edge">
<title>Node12&#45;&gt;Node22</title>
<g id="a_edge49_Node000012_Node000022"><a xlink:title=" ">
<path fill="none" stroke="#63b8ff" d="M639.7,-670.92C591.7,-658.24 519,-629.47 519,-571.5 519,-571.5 519,-571.5 519,-459.5 519,-425.44 508.93,-386.77 502.12,-364.49"/>
<polygon fill="#63b8ff" stroke="#63b8ff" points="505.37,-363.18 499.01,-354.71 498.7,-365.3 505.37,-363.18"/>
</a>
</g>
</g>
<!-- Node23 -->
<g id="Node000023" class="node">
<title>Node23</title>
<g id="a_Node000023"><a xlink:href="sys_2meta.html" target="_top" xlink:title="Meta interface for getting dynamic type information about objects behind capabilities.">
<polygon fill="white" stroke="#666666" points="392,-635 318,-635 318,-616 392,-616 392,-635"/>
<text text-anchor="middle" x="355" y="-623" font-family="Helvetica,sans-Serif" font-size="10.00">l4/sys/meta</text>
</a>
</g>
</g>
<!-- Node12&#45;&gt;Node23 -->
<g id="edge50_Node000012_Node000023" class="edge">
<title>Node12&#45;&gt;Node23</title>
<g id="a_edge50_Node000012_Node000023"><a xlink:title=" ">
<path fill="none" stroke="#63b8ff" d="M632.9,-671.68C570.95,-661.61 463.95,-644.21 402.36,-634.2"/>
<polygon fill="#63b8ff" stroke="#63b8ff" points="402.58,-630.69 392.15,-632.54 401.46,-637.6 402.58,-630.69"/>
</a>
</g>
</g>
<!-- Node13&#45;&gt;Node3 -->
<g id="edge35_Node000013_Node000003" class="edge">
<title>Node13&#45;&gt;Node3</title>
<g id="a_edge35_Node000013_Node000003"><a xlink:title=" ">
<path fill="none" stroke="#63b8ff" d="M490.86,-506.98C538.4,-495.95 613.78,-470.37 648,-415 693.61,-341.2 631.55,-233.69 604,-192.46"/>
<polygon fill="#63b8ff" stroke="#63b8ff" points="606.79,-190.35 598.25,-184.08 601.02,-194.3 606.79,-190.35"/>
</a>
</g>
</g>
<!-- Node14 -->
<g id="Node000014" class="node">
<title>Node14</title>
<g id="a_Node000014"><a xlink:href="kernel__object_8h.html" target="_top" xlink:title="Kernel object system calls.">
<polygon fill="white" stroke="#666666" points="418.5,-415 327.5,-415 327.5,-396 418.5,-396 418.5,-415"/>
<text text-anchor="middle" x="373" y="-403" font-family="Helvetica,sans-Serif" font-size="10.00">kernel_object.h</text>
</a>
</g>
</g>
<!-- Node13&#45;&gt;Node14 -->
<g id="edge22_Node000013_Node000014" class="edge">
<title>Node13&#45;&gt;Node14</title>
<g id="a_edge22_Node000013_Node000014"><a xlink:title=" ">
<path fill="none" stroke="#63b8ff" d="M449.53,-505.94C449.92,-493 449.01,-468.13 438,-451 429.44,-437.67 415.31,-427.29 402.41,-419.92"/>
<polygon fill="#63b8ff" stroke="#63b8ff" points="403.8,-416.69 393.33,-415.09 400.51,-422.87 403.8,-416.69"/>
</a>
</g>
</g>
<!-- Node18 -->
<g id="Node000018" class="node">
<title>Node18</title>
<g id="a_Node000018"><a xlink:href="____typeinfo_8h.html" target="_top" xlink:title="Type information handling.">
<polygon fill="white" stroke="#666666" points="429.5,-470 352.5,-470 352.5,-451 429.5,-451 429.5,-470"/>
<text text-anchor="middle" x="391" y="-458" font-family="Helvetica,sans-Serif" font-size="10.00">__typeinfo.h</text>
</a>
</g>
</g>
<!-- Node13&#45;&gt;Node18 -->
<g id="edge36_Node000013_Node000018" class="edge">
<title>Node13&#45;&gt;Node18</title>
<g id="a_edge36_Node000013_Node000018"><a xlink:title=" ">
<path fill="none" stroke="#63b8ff" d="M439.68,-505.98C431.19,-498.23 418.44,-486.58 408.12,-477.14"/>
<polygon fill="#63b8ff" stroke="#63b8ff" points="410.23,-474.33 400.49,-470.17 405.51,-479.5 410.23,-474.33"/>
</a>
</g>
</g>
<!-- Node14&#45;&gt;Node3 -->
<g id="edge23_Node000014_Node000003" class="edge">
<title>Node14&#45;&gt;Node3</title>
<g id="a_edge23_Node000014_Node000003"><a xlink:title=" ">
<path fill="none" stroke="#63b8ff" d="M418.79,-404.74C457.28,-402.41 511.14,-392.86 544,-360 567.47,-336.52 583.63,-236.55 589.53,-194.38"/>
<polygon fill="#63b8ff" stroke="#63b8ff" points="593.01,-194.72 590.89,-184.34 586.08,-193.78 593.01,-194.72"/>
</a>
</g>
</g>
<!-- Node14&#45;&gt;Node5 -->
<g id="edge24_Node000014_Node000005" class="edge">
<title>Node14&#45;&gt;Node5</title>
<g id="a_edge24_Node000014_Node000005"><a xlink:title=" ">
<path fill="none" stroke="#63b8ff" d="M352.58,-395.94C306.42,-375.06 198,-316.83 198,-230.5 198,-230.5 198,-230.5 198,-173.5 198,-121.64 258.14,-91.94 301.49,-77.27"/>
<polygon fill="#63b8ff" stroke="#63b8ff" points="302.83,-80.51 311.28,-74.11 300.68,-73.85 302.83,-80.51"/>
</a>
</g>
</g>
<!-- Node15 -->
<g id="Node000015" class="node">
<title>Node15</title>
<g id="a_Node000015"><a xlink:href="l4_2sys_2utcb_8h.html" target="_top" xlink:title="UTCB definitions.">
<polygon fill="white" stroke="#666666" points="416,-239 338,-239 338,-220 416,-220 416,-239"/>
<text text-anchor="middle" x="377" y="-227" font-family="Helvetica,sans-Serif" font-size="10.00">l4/sys/utcb.h</text>
</a>
</g>
</g>
<!-- Node14&#45;&gt;Node15 -->
<g id="edge25_Node000014_Node000015" class="edge">
<title>Node14&#45;&gt;Node15</title>
<g id="a_edge25_Node000014_Node000015"><a xlink:title=" ">
<path fill="none" stroke="#63b8ff" d="M345.35,-395.98C328.42,-389.17 308.11,-377.76 298,-360 291.4,-348.41 294.36,-342.83 298,-330 308.01,-294.76 338.29,-263.36 358.32,-245.65"/>
<polygon fill="#63b8ff" stroke="#63b8ff" points="360.61,-248.3 365.94,-239.14 356.07,-242.98 360.61,-248.3"/>
</a>
</g>
</g>
<!-- Node16 -->
<g id="Node000016" class="node">
<title>Node16</title>
<g id="a_Node000016"><a xlink:href="____kernel__object__impl_8h.html" target="_top" xlink:title="Low&#45;level kernel debugger functions.">
<polygon fill="white" stroke="#666666" points="439,-360 315,-360 315,-330 439,-330 439,-360"/>
<text text-anchor="start" x="323" y="-348" font-family="Helvetica,sans-Serif" font-size="10.00">l4/sys/__kernel_object</text>
<text text-anchor="middle" x="377" y="-337" font-family="Helvetica,sans-Serif" font-size="10.00">_impl.h</text>
</a>
</g>
</g>
<!-- Node14&#45;&gt;Node16 -->
<g id="edge29_Node000014_Node000016" class="edge">
<title>Node14&#45;&gt;Node16</title>
<g id="a_edge29_Node000014_Node000016"><a xlink:title=" ">
<path fill="none" stroke="#63b8ff" d="M373.59,-395.87C374.05,-389.11 374.72,-379.35 375.34,-370.26"/>
<polygon fill="#63b8ff" stroke="#63b8ff" points="378.84,-370.33 376.03,-360.11 371.86,-369.85 378.84,-370.33"/>
</a>
</g>
</g>
<!-- Node17 -->
<g id="Node000017" class="node">
<title>Node17</title>
<g id="a_Node000017"><a xlink:href="l4_2sys_2ipc_8h.html" target="_top" xlink:title="Common IPC interface.">
<polygon fill="white" stroke="#666666" points="412.5,-294 341.5,-294 341.5,-275 412.5,-275 412.5,-294"/>
<text text-anchor="middle" x="377" y="-282" font-family="Helvetica,sans-Serif" font-size="10.00">l4/sys/ipc.h</text>
</a>
</g>
</g>
<!-- Node14&#45;&gt;Node17 -->
<g id="edge34_Node000014_Node000017" class="edge">
<title>Node14&#45;&gt;Node17</title>
<g id="a_edge34_Node000014_Node000017"><a xlink:title=" ">
<path fill="none" stroke="#63b8ff" d="M349.89,-395.98C334.41,-388.92 315.24,-377.23 306,-360 299.7,-348.25 299.54,-341.67 306,-330 313.84,-315.83 328.29,-305.57 342.11,-298.5"/>
<polygon fill="#63b8ff" stroke="#63b8ff" points="343.92,-301.52 351.49,-294.1 340.95,-295.18 343.92,-301.52"/>
</a>
</g>
</g>
<!-- Node15&#45;&gt;Node3 -->
<g id="edge26_Node000015_Node000003" class="edge">
<title>Node15&#45;&gt;Node3</title>
<g id="a_edge26_Node000015_Node000003"><a xlink:title=" ">
<path fill="none" stroke="#63b8ff" d="M411.54,-219.98C448.42,-210.89 506.99,-196.46 547.34,-186.51"/>
<polygon fill="#63b8ff" stroke="#63b8ff" points="548.31,-189.87 557.19,-184.08 546.64,-183.08 548.31,-189.87"/>
</a>
</g>
</g>
<!-- Node15&#45;&gt;Node4 -->
<g id="edge28_Node000015_Node000004" class="edge">
<title>Node15&#45;&gt;Node4</title>
<g id="a_edge28_Node000015_Node000004"><a xlink:title=" ">
<path fill="none" stroke="#63b8ff" d="M375.92,-219.86C373.72,-198.03 371.27,-140.22 402,-110 426.95,-85.47 522.24,-73.81 582.07,-68.8"/>
<polygon fill="#63b8ff" stroke="#63b8ff" points="582.38,-72.29 592.07,-68 581.82,-65.31 582.38,-72.29"/>
</a>
</g>
</g>
<!-- Node15&#45;&gt;Node5 -->
<g id="edge27_Node000015_Node000005" class="edge">
<title>Node15&#45;&gt;Node5</title>
<g id="a_edge27_Node000015_Node000005"><a xlink:title=" ">
<path fill="none" stroke="#63b8ff" d="M375.28,-219.74C370.27,-194.2 355.59,-119.43 348.68,-84.23"/>
<polygon fill="#63b8ff" stroke="#63b8ff" points="352.09,-83.45 346.73,-74.31 345.22,-84.79 352.09,-83.45"/>
</a>
</g>
</g>
<!-- Node16&#45;&gt;Node17 -->
<g id="edge30_Node000016_Node000017" class="edge">
<title>Node16&#45;&gt;Node17</title>
<g id="a_edge30_Node000016_Node000017"><a xlink:title=" ">
<path fill="none" stroke="#63b8ff" d="M377,-329.84C377,-322.21 377,-312.7 377,-304.45"/>
<polygon fill="#63b8ff" stroke="#63b8ff" points="380.5,-304.27 377,-294.27 373.5,-304.27 380.5,-304.27"/>
</a>
</g>
</g>
<!-- Node17&#45;&gt;Node3 -->
<g id="edge31_Node000017_Node000003" class="edge">
<title>Node17&#45;&gt;Node3</title>
<g id="a_edge31_Node000017_Node000003"><a xlink:title=" ">
<path fill="none" stroke="#63b8ff" d="M393.25,-274.94C416.72,-262.62 461.52,-239.23 500,-220 521.66,-209.17 546.37,-197.24 564.73,-188.46"/>
<polygon fill="#63b8ff" stroke="#63b8ff" points="566.43,-191.53 573.95,-184.06 563.42,-185.21 566.43,-191.53"/>
</a>
</g>
</g>
<!-- Node17&#45;&gt;Node11 -->
<g id="edge33_Node000017_Node000011" class="edge">
<title>Node17&#45;&gt;Node11</title>
<g id="a_edge33_Node000017_Node000011"><a xlink:title=" ">
<path fill="none" stroke="#63b8ff" d="M341.29,-275.68C298.42,-266.29 226.48,-250.54 179.89,-240.33"/>
<polygon fill="#63b8ff" stroke="#63b8ff" points="180.58,-236.9 170.07,-238.18 179.09,-243.74 180.58,-236.9"/>
</a>
</g>
</g>
<!-- Node17&#45;&gt;Node15 -->
<g id="edge32_Node000017_Node000015" class="edge">
<title>Node17&#45;&gt;Node15</title>
<g id="a_edge32_Node000017_Node000015"><a xlink:title=" ">
<path fill="none" stroke="#63b8ff" d="M377,-274.75C377,-267.8 377,-257.85 377,-249.13"/>
<polygon fill="#63b8ff" stroke="#63b8ff" points="380.5,-249.09 377,-239.09 373.5,-249.09 380.5,-249.09"/>
</a>
</g>
</g>
<!-- Node19 -->
<g id="Node000019" class="node">
<title>Node19</title>
<g id="a_Node000019"><a xlink:href="types.html" target="_top" xlink:title=" ">
<polygon fill="white" stroke="#666666" points="107,-354.5 43,-354.5 43,-335.5 107,-335.5 107,-354.5"/>
<text text-anchor="middle" x="75" y="-342.5" font-family="Helvetica,sans-Serif" font-size="10.00">cxx/types</text>
</a>
</g>
</g>
<!-- Node18&#45;&gt;Node19 -->
<g id="edge37_Node000018_Node000019" class="edge">
<title>Node18&#45;&gt;Node19</title>
<g id="a_edge37_Node000018_Node000019"><a xlink:title=" ">
<path fill="none" stroke="#63b8ff" d="M378.1,-450.9C357.38,-437.43 315.06,-411.34 276,-396 222.93,-375.16 158.49,-360.95 117.12,-353.16"/>
<polygon fill="#63b8ff" stroke="#63b8ff" points="117.59,-349.69 107.13,-351.32 116.32,-356.57 117.59,-349.69"/>
</a>
</g>
</g>
<!-- Node20 -->
<g id="Node000020" class="node">
<title>Node20</title>
<g id="a_Node000020"><a xlink:href="ipc__basics_source.html" target="_top" xlink:title=" ">
<polygon fill="white" stroke="#666666" points="267.5,-415 180.5,-415 180.5,-396 267.5,-396 267.5,-415"/>
<text text-anchor="middle" x="224" y="-403" font-family="Helvetica,sans-Serif" font-size="10.00">cxx/ipc_basics</text>
</a>
</g>
</g>
<!-- Node18&#45;&gt;Node20 -->
<g id="edge38_Node000018_Node000020" class="edge">
<title>Node18&#45;&gt;Node20</title>
<g id="a_edge38_Node000018_Node000020"><a xlink:title=" ">
<path fill="none" stroke="#63b8ff" d="M364.17,-450.98C336.13,-442.09 291.95,-428.07 260.7,-418.15"/>
<polygon fill="#63b8ff" stroke="#63b8ff" points="261.63,-414.77 251.04,-415.08 259.51,-421.44 261.63,-414.77"/>
</a>
</g>
</g>
<!-- Node21 -->
<g id="Node000021" class="node">
<title>Node21</title>
<g id="a_Node000021"><a xlink:href="capability_8h_source.html" target="_top" xlink:title=" ">
<polygon fill="white" stroke="#666666" points="639,-415 547,-415 547,-396 639,-396 639,-415"/>
<text text-anchor="middle" x="593" y="-403" font-family="Helvetica,sans-Serif" font-size="10.00">cxx/capability.h</text>
</a>
</g>
</g>
<!-- Node18&#45;&gt;Node21 -->
<g id="edge42_Node000018_Node000021" class="edge">
<title>Node18&#45;&gt;Node21</title>
<g id="a_edge42_Node000018_Node000021"><a xlink:title=" ">
<path fill="none" stroke="#63b8ff" d="M423.45,-450.98C457.96,-441.93 512.66,-427.58 550.56,-417.64"/>
<polygon fill="#63b8ff" stroke="#63b8ff" points="551.51,-421.01 560.29,-415.08 549.73,-414.23 551.51,-421.01"/>
</a>
</g>
</g>
<!-- Node20&#45;&gt;Node11 -->
<g id="edge41_Node000020_Node000011" class="edge">
<title>Node20&#45;&gt;Node11</title>
<g id="a_edge41_Node000020_Node000011"><a xlink:title=" ">
<path fill="none" stroke="#63b8ff" d="M203.73,-395.88C188.96,-388.52 169.74,-376.51 159,-360 136.73,-325.78 133.85,-276.29 134.15,-249.48"/>
<polygon fill="#63b8ff" stroke="#63b8ff" points="137.65,-249.29 134.43,-239.19 130.66,-249.09 137.65,-249.29"/>
</a>
</g>
</g>
<!-- Node20&#45;&gt;Node15 -->
<g id="edge40_Node000020_Node000015" class="edge">
<title>Node20&#45;&gt;Node15</title>
<g id="a_edge40_Node000020_Node000015"><a xlink:title=" ">
<path fill="none" stroke="#63b8ff" d="M228.49,-395.85C240.22,-373.84 273.56,-314.65 313,-275 324.83,-263.11 340.2,-252.3 352.91,-244.32"/>
<polygon fill="#63b8ff" stroke="#63b8ff" points="354.89,-247.21 361.62,-239.03 351.25,-241.23 354.89,-247.21"/>
</a>
</g>
</g>
<!-- Node20&#45;&gt;Node19 -->
<g id="edge39_Node000020_Node000019" class="edge">
<title>Node20&#45;&gt;Node19</title>
<g id="a_edge39_Node000020_Node000019"><a xlink:title=" ">
<path fill="none" stroke="#63b8ff" d="M202.33,-395.99C177.06,-386.07 135.09,-369.59 106.28,-358.28"/>
<polygon fill="#63b8ff" stroke="#63b8ff" points="107.28,-354.91 96.69,-354.52 104.72,-361.43 107.28,-354.91"/>
</a>
</g>
</g>
<!-- Node21&#45;&gt;Node3 -->
<g id="edge44_Node000021_Node000003" class="edge">
<title>Node21&#45;&gt;Node3</title>
<g id="a_edge44_Node000021_Node000003"><a xlink:title=" ">
<path fill="none" stroke="#63b8ff" d="M592.96,-395.8C592.82,-362.36 592.29,-241.59 592.08,-194.49"/>
<polygon fill="#63b8ff" stroke="#63b8ff" points="595.58,-194.19 592.04,-184.21 588.58,-194.22 595.58,-194.19"/>
</a>
</g>
</g>
<!-- Node21&#45;&gt;Node7 -->
<g id="edge43_Node000021_Node000007" class="edge">
<title>Node21&#45;&gt;Node7</title>
<g id="a_edge43_Node000021_Node000007"><a xlink:title=" ">
<path fill="none" stroke="#63b8ff" d="M597.75,-395.69C619.16,-355.93 707.03,-192.84 736.39,-138.33"/>
<polygon fill="#63b8ff" stroke="#63b8ff" points="739.65,-139.67 741.31,-129.21 733.48,-136.35 739.65,-139.67"/>
</a>
</g>
</g>
<!-- Node21&#45;&gt;Node22 -->
<g id="edge45_Node000021_Node000022" class="edge">
<title>Node21&#45;&gt;Node22</title>
<g id="a_edge45_Node000021_Node000022"><a xlink:title=" ">
<path fill="none" stroke="#63b8ff" d="M578.69,-395.87C563,-386.41 537.6,-371.09 519.09,-359.92"/>
<polygon fill="#63b8ff" stroke="#63b8ff" points="520.74,-356.83 510.37,-354.67 517.13,-362.83 520.74,-356.83"/>
</a>
</g>
</g>
<!-- Node22&#45;&gt;Node3 -->
<g id="edge46_Node000022_Node000003" class="edge">
<title>Node22&#45;&gt;Node3</title>
<g id="a_edge46_Node000022_Node000003"><a xlink:title=" ">
<path fill="none" stroke="#63b8ff" d="M498.49,-335.35C504.79,-314.37 522.71,-259.59 549,-220 556.02,-209.42 565.73,-199.12 574.14,-191.1"/>
<polygon fill="#63b8ff" stroke="#63b8ff" points="576.69,-193.52 581.69,-184.17 571.95,-188.36 576.69,-193.52"/>
</a>
</g>
</g>
<!-- Node22&#45;&gt;Node15 -->
<g id="edge47_Node000022_Node000015" class="edge">
<title>Node22&#45;&gt;Node15</title>
<g id="a_edge47_Node000022_Node000015"><a xlink:title=" ">
<path fill="none" stroke="#63b8ff" d="M487.06,-335.47C467.16,-316.49 418.97,-270.53 393.47,-246.21"/>
<polygon fill="#63b8ff" stroke="#63b8ff" points="395.7,-243.5 386.05,-239.13 390.87,-248.56 395.7,-243.5"/>
</a>
</g>
</g>
<!-- Node22&#45;&gt;Node17 -->
<g id="edge48_Node000022_Node000017" class="edge">
<title>Node22&#45;&gt;Node17</title>
<g id="a_edge48_Node000022_Node000017"><a xlink:title=" ">
<path fill="none" stroke="#63b8ff" d="M478.7,-335.49C458.95,-325.79 426.45,-309.81 403.51,-298.53"/>
<polygon fill="#63b8ff" stroke="#63b8ff" points="404.84,-295.29 394.32,-294.02 401.75,-301.57 404.84,-295.29"/>
</a>
</g>
</g>
<!-- Node23&#45;&gt;Node13 -->
<g id="edge51_Node000023_Node000013" class="edge">
<title>Node23&#45;&gt;Node13</title>
<g id="a_edge51_Node000023_Node000013"><a xlink:title=" ">
<path fill="none" stroke="#63b8ff" d="M362.69,-615.66C378.47,-597.54 414.7,-555.91 434.84,-532.77"/>
<polygon fill="#63b8ff" stroke="#63b8ff" points="437.54,-535 441.46,-525.16 432.26,-530.4 437.54,-535"/>
</a>
</g>
</g>
<!-- Node24 -->
<g id="Node000024" class="node">
<title>Node24</title>
<g id="a_Node000024"><a xlink:href="ipc__iface.html" target="_top" xlink:title="Interface Definition Language.">
<polygon fill="white" stroke="#666666" points="380,-525 300,-525 300,-506 380,-506 380,-525"/>
<text text-anchor="middle" x="340" y="-513" font-family="Helvetica,sans-Serif" font-size="10.00">cxx/ipc_iface</text>
</a>
</g>
</g>
<!-- Node23&#45;&gt;Node24 -->
<g id="edge52_Node000023_Node000024" class="edge">
<title>Node23&#45;&gt;Node24</title>
<g id="a_edge52_Node000023_Node000024"><a xlink:title=" ">
<path fill="none" stroke="#63b8ff" d="M353.77,-615.66C351.34,-598.17 345.88,-558.8 342.61,-535.27"/>
<polygon fill="#63b8ff" stroke="#63b8ff" points="346.05,-534.58 341.2,-525.16 339.11,-535.54 346.05,-534.58"/>
</a>
</g>
</g>
<!-- Node26 -->
<g id="Node000026" class="node">
<title>Node26</title>
<g id="a_Node000026"><a xlink:href="ipc__string_source.html" target="_top" xlink:title=" ">
<polygon fill="white" stroke="#666666" points="152,-580 68,-580 68,-561 152,-561 152,-580"/>
<text text-anchor="middle" x="110" y="-568" font-family="Helvetica,sans-Serif" font-size="10.00">cxx/ipc_string</text>
</a>
</g>
</g>
<!-- Node23&#45;&gt;Node26 -->
<g id="edge59_Node000023_Node000026" class="edge">
<title>Node23&#45;&gt;Node26</title>
<g id="a_edge59_Node000023_Node000026"><a xlink:title=" ">
<path fill="none" stroke="#63b8ff" d="M317.79,-616.45C275.51,-607.3 206.33,-592.34 159.52,-582.21"/>
<polygon fill="#63b8ff" stroke="#63b8ff" points="160.11,-578.76 149.6,-580.07 158.63,-585.6 160.11,-578.76"/>
</a>
</g>
</g>
<!-- Node24&#45;&gt;Node18 -->
<g id="edge58_Node000024_Node000018" class="edge">
<title>Node24&#45;&gt;Node18</title>
<g id="a_edge58_Node000024_Node000018"><a xlink:title=" ">
<path fill="none" stroke="#63b8ff" d="M348.42,-505.75C355.77,-498.11 366.63,-486.82 375.54,-477.56"/>
<polygon fill="#63b8ff" stroke="#63b8ff" points="378.32,-479.72 382.74,-470.09 373.28,-474.87 378.32,-479.72"/>
</a>
</g>
</g>
<!-- Node24&#45;&gt;Node20 -->
<g id="edge53_Node000024_Node000020" class="edge">
<title>Node24&#45;&gt;Node20</title>
<g id="a_edge53_Node000024_Node000020"><a xlink:title=" ">
<path fill="none" stroke="#63b8ff" d="M336.82,-505.72C331.66,-492.49 320.38,-467.24 304,-451 290.36,-437.47 271.76,-426.79 255.92,-419.29"/>
<polygon fill="#63b8ff" stroke="#63b8ff" points="257.05,-415.96 246.49,-415.04 254.17,-422.34 257.05,-415.96"/>
</a>
</g>
</g>
<!-- Node25 -->
<g id="Node000025" class="node">
<title>Node25</title>
<g id="a_Node000025"><a xlink:href="ipc__types.html" target="_top" xlink:title=" ">
<polygon fill="white" stroke="#666666" points="295.5,-470 180.5,-470 180.5,-451 295.5,-451 295.5,-470"/>
<text text-anchor="middle" x="238" y="-458" font-family="Helvetica,sans-Serif" font-size="10.00">l4/sys/cxx/ipc_types</text>
</a>
</g>
</g>
<!-- Node24&#45;&gt;Node25 -->
<g id="edge54_Node000024_Node000025" class="edge">
<title>Node24&#45;&gt;Node25</title>
<g id="a_edge54_Node000024_Node000025"><a xlink:title=" ">
<path fill="none" stroke="#63b8ff" d="M323.61,-505.98C307.43,-497.57 282.43,-484.59 263.62,-474.81"/>
<polygon fill="#63b8ff" stroke="#63b8ff" points="265.17,-471.68 254.69,-470.17 261.95,-477.89 265.17,-471.68"/>
</a>
</g>
</g>
<!-- Node25&#45;&gt;Node19 -->
<g id="edge56_Node000025_Node000019" class="edge">
<title>Node25&#45;&gt;Node19</title>
<g id="a_edge56_Node000025_Node000019"><a xlink:title=" ">
<path fill="none" stroke="#63b8ff" d="M224.55,-450.78C210.96,-441.91 189.38,-427.7 171,-415 144.47,-396.67 114.34,-374.85 95.03,-360.72"/>
<polygon fill="#63b8ff" stroke="#63b8ff" points="96.86,-357.73 86.72,-354.64 92.72,-363.37 96.86,-357.73"/>
</a>
</g>
</g>
<!-- Node25&#45;&gt;Node20 -->
<g id="edge57_Node000025_Node000020" class="edge">
<title>Node25&#45;&gt;Node20</title>
<g id="a_edge57_Node000025_Node000020"><a xlink:title=" ">
<path fill="none" stroke="#63b8ff" d="M235.69,-450.75C233.83,-443.72 231.16,-433.62 228.85,-424.84"/>
<polygon fill="#63b8ff" stroke="#63b8ff" points="232.21,-423.86 226.27,-415.09 225.44,-425.65 232.21,-423.86"/>
</a>
</g>
</g>
<!-- Node25&#45;&gt;Node21 -->
<g id="edge55_Node000025_Node000021" class="edge">
<title>Node25&#45;&gt;Node21</title>
<g id="a_edge55_Node000025_Node000021"><a xlink:title=" ">
<path fill="none" stroke="#63b8ff" d="M295.04,-450.98C361.45,-441.07 470.48,-424.79 536.62,-414.92"/>
<polygon fill="#63b8ff" stroke="#63b8ff" points="537.48,-418.33 546.85,-413.39 536.44,-411.41 537.48,-418.33"/>
</a>
</g>
</g>
<!-- Node26&#45;&gt;Node19 -->
<g id="edge60_Node000026_Node000019" class="edge">
<title>Node26&#45;&gt;Node19</title>
<g id="a_edge60_Node000026_Node000019"><a xlink:title=" ">
<path fill="none" stroke="#63b8ff" d="M106.98,-560.74C104.03,-551.84 99.6,-537.61 97,-525 85.12,-467.37 78.83,-397.89 76.32,-365.02"/>
<polygon fill="#63b8ff" stroke="#63b8ff" points="79.78,-364.37 75.56,-354.65 72.8,-364.88 79.78,-364.37"/>
</a>
</g>
</g>
<!-- Node26&#45;&gt;Node20 -->
<g id="edge61_Node000026_Node000020" class="edge">
<title>Node26&#45;&gt;Node20</title>
<g id="a_edge61_Node000026_Node000020"><a xlink:title=" ">
<path fill="none" stroke="#63b8ff" d="M106.76,-560.92C102.54,-548.37 96.54,-524.48 104,-506 120.63,-464.78 165.31,-435.5 195.2,-419.8"/>
<polygon fill="#63b8ff" stroke="#63b8ff" points="196.99,-422.82 204.34,-415.18 193.83,-416.57 196.99,-422.82"/>
</a>
</g>
</g>
<!-- Node27 -->
<g id="Node000027" class="node">
<title>Node27</title>
<g id="a_Node000027"><a xlink:href="ipc__array_source.html" target="_top" xlink:title=" ">
<polygon fill="white" stroke="#666666" points="175,-525 113,-525 113,-506 175,-506 175,-525"/>
<text text-anchor="middle" x="144" y="-513" font-family="Helvetica,sans-Serif" font-size="10.00">ipc_array</text>
</a>
</g>
</g>
<!-- Node26&#45;&gt;Node27 -->
<g id="edge62_Node000026_Node000027" class="edge">
<title>Node26&#45;&gt;Node27</title>
<g id="a_edge62_Node000026_Node000027"><a xlink:title=" ">
<path fill="none" stroke="#63b8ff" d="M115.61,-560.75C120.32,-553.42 127.17,-542.73 132.97,-533.7"/>
<polygon fill="#63b8ff" stroke="#63b8ff" points="136.04,-535.4 138.49,-525.09 130.14,-531.62 136.04,-535.4"/>
</a>
</g>
</g>
<!-- Node27&#45;&gt;Node19 -->
<g id="edge63_Node000027_Node000019" class="edge">
<title>Node27&#45;&gt;Node19</title>
<g id="a_edge63_Node000027_Node000019"><a xlink:title=" ">
<path fill="none" stroke="#63b8ff" d="M140.48,-505.91C129.74,-479.67 97.16,-400.11 82.4,-364.08"/>
<polygon fill="#63b8ff" stroke="#63b8ff" points="85.62,-362.7 78.59,-354.77 79.14,-365.35 85.62,-362.7"/>
</a>
</g>
</g>
<!-- Node27&#45;&gt;Node20 -->
<g id="edge64_Node000027_Node000020" class="edge">
<title>Node27&#45;&gt;Node20</title>
<g id="a_edge64_Node000027_Node000020"><a xlink:title=" ">
<path fill="none" stroke="#63b8ff" d="M146.33,-505.62C150.03,-492.68 158.17,-468.33 171,-451 179.49,-439.53 191.51,-429.13 201.95,-421.27"/>
<polygon fill="#63b8ff" stroke="#63b8ff" points="204.17,-423.98 210.25,-415.3 200.08,-418.3 204.17,-423.98"/>
</a>
</g>
</g>
<!-- Node27&#45;&gt;Node25 -->
<g id="edge65_Node000027_Node000025" class="edge">
<title>Node27&#45;&gt;Node25</title>
<g id="a_edge65_Node000027_Node000025"><a xlink:title=" ">
<path fill="none" stroke="#63b8ff" d="M159.1,-505.98C173.82,-497.69 196.42,-484.94 213.67,-475.22"/>
<polygon fill="#63b8ff" stroke="#63b8ff" points="215.63,-478.13 222.62,-470.17 212.19,-472.03 215.63,-478.13"/>
</a>
</g>
</g>
<!-- Node29 -->
<g id="Node000029" class="node">
<title>Node29</title>
<g id="a_Node000029"><a xlink:title=" ">
<polygon fill="#e0e0e0" stroke="#999999" points="1028.5,-635 957.5,-635 957.5,-616 1028.5,-616 1028.5,-635"/>
<text text-anchor="middle" x="993" y="-623" font-family="Helvetica,sans-Serif" font-size="10.00">sys/cdefs.h</text>
</a>
</g>
</g>
<!-- Node28&#45;&gt;Node29 -->
<g id="edge67_Node000028_Node000029" class="edge">
<title>Node28&#45;&gt;Node29</title>
<g id="a_edge67_Node000028_Node000029"><a xlink:title=" ">
<path fill="none" stroke="#63b8ff" d="M977.97,-670.75C980.36,-663.72 983.79,-653.62 986.77,-644.84"/>
<polygon fill="#63b8ff" stroke="#63b8ff" points="990.18,-645.68 990.08,-635.09 983.55,-643.43 990.18,-645.68"/>
</a>
</g>
</g>
</g>
</svg>
