<?xml version="1.0" encoding="UTF-8" standalone="no"?>
<!DOCTYPE svg PUBLIC "-//W3C//DTD SVG 1.1//EN"
 "http://www.w3.org/Graphics/SVG/1.1/DTD/svg11.dtd">
<!-- Generated by graphviz version 2.42.4 (0)
 -->
<!-- Title: l4/sys/factory.h Pages: 1 -->
<svg width="1436pt" height="401pt"
 viewBox="0.00 0.00 1436.00 401.00" xmlns="http://www.w3.org/2000/svg" xmlns:xlink="http://www.w3.org/1999/xlink">
<g id="graph0" class="graph" transform="scale(1 1) rotate(0) translate(4 397)">
<title>l4/sys/factory.h</title>
<!-- Node1 -->
<g id="Node000001" class="node">
<title>Node1</title>
<g id="a_Node000001"><a xlink:title="Common factory related definitions.">
<polygon fill="#999999" stroke="#666666" points="318,-393 228,-393 228,-374 318,-374 318,-393"/>
<text text-anchor="middle" x="273" y="-381" font-family="Helvetica,sans-Serif" font-size="10.00">l4/sys/factory.h</text>
</a>
</g>
</g>
<!-- Node2 -->
<g id="Node000002" class="node">
<title>Node2</title>
<g id="a_Node000002"><a xlink:href="factory.html" target="_top" xlink:title="Common factory related definitions.">
<polygon fill="white" stroke="#666666" points="314.5,-338 231.5,-338 231.5,-319 314.5,-319 314.5,-338"/>
<text text-anchor="middle" x="273" y="-326" font-family="Helvetica,sans-Serif" font-size="10.00">l4/sys/factory</text>
</a>
</g>
</g>
<!-- Node1&#45;&gt;Node2 -->
<g id="edge1_Node000001_Node000002" class="edge">
<title>Node1&#45;&gt;Node2</title>
<g id="a_edge1_Node000001_Node000002"><a xlink:title=" ">
<path fill="none" stroke="#63b8ff" d="M273,-363.66C273,-354.93 273,-344.99 273,-338.09"/>
<polygon fill="#63b8ff" stroke="#63b8ff" points="269.5,-363.75 273,-373.75 276.5,-363.75 269.5,-363.75"/>
</a>
</g>
</g>
<!-- Node3 -->
<g id="Node000003" class="node">
<title>Node3</title>
<g id="a_Node000003"><a xlink:href="vcon__stream__impl_8h_source.html" target="_top" xlink:title=" ">
<polygon fill="white" stroke="#666666" points="185.5,-162 66.5,-162 66.5,-132 185.5,-132 185.5,-162"/>
<text text-anchor="start" x="74.5" y="-150" font-family="Helvetica,sans-Serif" font-size="10.00">l4/l4re_vfs/impl/vcon</text>
<text text-anchor="middle" x="126" y="-139" font-family="Helvetica,sans-Serif" font-size="10.00">_stream_impl.h</text>
</a>
</g>
</g>
<!-- Node2&#45;&gt;Node3 -->
<g id="edge2_Node000002_Node000003" class="edge">
<title>Node2&#45;&gt;Node3</title>
<g id="a_edge2_Node000002_Node000003"><a xlink:title=" ">
<path fill="none" stroke="#63b8ff" d="M259.49,-311.01C230.87,-276.06 164.54,-195.07 137.65,-162.22"/>
<polygon fill="#63b8ff" stroke="#63b8ff" points="256.87,-313.32 265.91,-318.84 262.28,-308.89 256.87,-313.32"/>
</a>
</g>
</g>
<!-- Node4 -->
<g id="Node000004" class="node">
<title>Node4</title>
<g id="a_Node000004"><a xlink:href="client_2l4virtio_source.html" target="_top" xlink:title=" ">
<polygon fill="white" stroke="#666666" points="373.5,-96 280.5,-96 280.5,-66 373.5,-66 373.5,-96"/>
<text text-anchor="start" x="288.5" y="-84" font-family="Helvetica,sans-Serif" font-size="10.00">l4/l4virtio/client</text>
<text text-anchor="middle" x="327" y="-73" font-family="Helvetica,sans-Serif" font-size="10.00">/l4virtio</text>
</a>
</g>
</g>
<!-- Node2&#45;&gt;Node4 -->
<g id="edge3_Node000002_Node000004" class="edge">
<title>Node2&#45;&gt;Node4</title>
<g id="a_edge3_Node000002_Node000004"><a xlink:title=" ">
<path fill="none" stroke="#63b8ff" d="M238.89,-315.33C162.99,-286.45 -8.16,-210.34 57,-132 84.89,-98.47 210.88,-87.32 280.46,-83.7"/>
<polygon fill="#63b8ff" stroke="#63b8ff" points="237.91,-318.7 248.5,-318.93 240.36,-312.14 237.91,-318.7"/>
</a>
</g>
</g>
<!-- Node5 -->
<g id="Node000005" class="node">
<title>Node5</title>
<g id="a_Node000005"><a xlink:href="client_2virtio-block_source.html" target="_top" xlink:title=" ">
<polygon fill="white" stroke="#666666" points="279.5,-30 186.5,-30 186.5,0 279.5,0 279.5,-30"/>
<text text-anchor="start" x="194.5" y="-18" font-family="Helvetica,sans-Serif" font-size="10.00">l4/l4virtio/client</text>
<text text-anchor="middle" x="233" y="-7" font-family="Helvetica,sans-Serif" font-size="10.00">/virtio&#45;block</text>
</a>
</g>
</g>
<!-- Node2&#45;&gt;Node5 -->
<g id="edge6_Node000002_Node000005" class="edge">
<title>Node2&#45;&gt;Node5</title>
<g id="a_edge6_Node000002_Node000005"><a xlink:title=" ">
<path fill="none" stroke="#63b8ff" d="M220.97,-328.05C141.75,-325.85 0,-308.69 0,-214 0,-214 0,-214 0,-146 0,-61.46 118.41,-31.39 186.41,-21.09"/>
<polygon fill="#63b8ff" stroke="#63b8ff" points="221.17,-331.55 231.24,-328.26 221.31,-324.55 221.17,-331.55"/>
</a>
</g>
</g>
<!-- Node7 -->
<g id="Node000007" class="node">
<title>Node7</title>
<g id="a_Node000007"><a xlink:href="mem__alloc__impl_8h.html" target="_top" xlink:title="Memory allocator client stub implementation.">
<polygon fill="white" stroke="#666666" points="434,-228 314,-228 314,-198 434,-198 434,-228"/>
<text text-anchor="start" x="322" y="-216" font-family="Helvetica,sans-Serif" font-size="10.00">l4/re/impl/mem_alloc</text>
<text text-anchor="middle" x="374" y="-205" font-family="Helvetica,sans-Serif" font-size="10.00">_impl.h</text>
</a>
</g>
</g>
<!-- Node2&#45;&gt;Node7 -->
<g id="edge7_Node000002_Node000007" class="edge">
<title>Node2&#45;&gt;Node7</title>
<g id="a_edge7_Node000002_Node000007"><a xlink:title=" ">
<path fill="none" stroke="#63b8ff" d="M287.35,-311.37C307.15,-289.12 342.54,-249.36 361.38,-228.18"/>
<polygon fill="#63b8ff" stroke="#63b8ff" points="284.62,-309.17 280.59,-318.97 289.85,-313.83 284.62,-309.17"/>
</a>
</g>
</g>
<!-- Node8 -->
<g id="Node000008" class="node">
<title>Node8</title>
<g id="a_Node000008"><a xlink:href="mem__alloc.html" target="_top" xlink:title="Memory allocator interface.">
<polygon fill="white" stroke="#666666" points="434.5,-283 339.5,-283 339.5,-264 434.5,-264 434.5,-283"/>
<text text-anchor="middle" x="387" y="-271" font-family="Helvetica,sans-Serif" font-size="10.00">l4/re/mem_alloc</text>
</a>
</g>
</g>
<!-- Node2&#45;&gt;Node8 -->
<g id="edge8_Node000002_Node000008" class="edge">
<title>Node2&#45;&gt;Node8</title>
<g id="a_edge8_Node000002_Node000008"><a xlink:title=" ">
<path fill="none" stroke="#63b8ff" d="M300.39,-314.77C321.42,-304.99 349.89,-291.75 368.35,-283.17"/>
<polygon fill="#63b8ff" stroke="#63b8ff" points="298.91,-311.6 291.32,-318.98 301.86,-317.94 298.91,-311.6"/>
</a>
</g>
</g>
<!-- Node20 -->
<g id="Node000020" class="node">
<title>Node20</title>
<g id="a_Node000020"><a xlink:href="util_2event.html" target="_top" xlink:title=" ">
<polygon fill="white" stroke="#666666" points="1428,-156.5 1340,-156.5 1340,-137.5 1428,-137.5 1428,-156.5"/>
<text text-anchor="middle" x="1384" y="-144.5" font-family="Helvetica,sans-Serif" font-size="10.00">l4/re/util/event</text>
</a>
</g>
</g>
<!-- Node2&#45;&gt;Node20 -->
<g id="edge37_Node000002_Node000020" class="edge">
<title>Node2&#45;&gt;Node20</title>
<g id="a_edge37_Node000002_Node000020"><a xlink:title=" ">
<path fill="none" stroke="#63b8ff" d="M324.51,-319.81C475.9,-297.11 932.53,-227.81 1310,-162 1319.66,-160.32 1330.01,-158.42 1339.82,-156.57"/>
<polygon fill="#63b8ff" stroke="#63b8ff" points="323.93,-316.36 314.56,-321.31 324.97,-323.28 323.93,-316.36"/>
</a>
</g>
</g>
<!-- Node24 -->
<g id="Node000024" class="node">
<title>Node24</title>
<g id="a_Node000024"><a xlink:href="object__registry_source.html" target="_top" xlink:title=" ">
<polygon fill="white" stroke="#666666" points="375.5,-156.5 242.5,-156.5 242.5,-137.5 375.5,-137.5 375.5,-156.5"/>
<text text-anchor="middle" x="309" y="-144.5" font-family="Helvetica,sans-Serif" font-size="10.00">l4/re/util/object_registry</text>
</a>
</g>
</g>
<!-- Node2&#45;&gt;Node24 -->
<g id="edge38_Node000002_Node000024" class="edge">
<title>Node2&#45;&gt;Node24</title>
<g id="a_edge38_Node000002_Node000024"><a xlink:title=" ">
<path fill="none" stroke="#63b8ff" d="M276.7,-309.03C284.38,-270.76 301.76,-184.11 307.28,-156.57"/>
<polygon fill="#63b8ff" stroke="#63b8ff" points="273.27,-308.35 274.74,-318.84 280.13,-309.73 273.27,-308.35"/>
</a>
</g>
</g>
<!-- Node4&#45;&gt;Node5 -->
<g id="edge4_Node000004_Node000005" class="edge">
<title>Node4&#45;&gt;Node5</title>
<g id="a_edge4_Node000004_Node000005"><a xlink:title=" ">
<path fill="none" stroke="#63b8ff" d="M297.67,-60.03C283.44,-50.34 266.69,-38.94 253.8,-30.16"/>
<polygon fill="#63b8ff" stroke="#63b8ff" points="295.9,-63.06 306.14,-65.8 299.84,-57.28 295.9,-63.06"/>
</a>
</g>
</g>
<!-- Node6 -->
<g id="Node000006" class="node">
<title>Node6</title>
<g id="a_Node000006"><a xlink:href="virtio-net_source.html" target="_top" xlink:title=" ">
<polygon fill="white" stroke="#666666" points="391.5,-30 298.5,-30 298.5,0 391.5,0 391.5,-30"/>
<text text-anchor="start" x="306.5" y="-18" font-family="Helvetica,sans-Serif" font-size="10.00">l4/l4virtio/client</text>
<text text-anchor="middle" x="345" y="-7" font-family="Helvetica,sans-Serif" font-size="10.00">/virtio&#45;net</text>
</a>
</g>
</g>
<!-- Node4&#45;&gt;Node6 -->
<g id="edge5_Node000004_Node000006" class="edge">
<title>Node4&#45;&gt;Node6</title>
<g id="a_edge5_Node000004_Node000006"><a xlink:title=" ">
<path fill="none" stroke="#63b8ff" d="M333.72,-56.11C336.18,-47.38 338.87,-37.78 341.02,-30.16"/>
<polygon fill="#63b8ff" stroke="#63b8ff" points="330.33,-55.22 330.99,-65.8 337.07,-57.12 330.33,-55.22"/>
</a>
</g>
</g>
<!-- Node8&#45;&gt;Node7 -->
<g id="edge36_Node000008_Node000007" class="edge">
<title>Node8&#45;&gt;Node7</title>
<g id="a_edge36_Node000008_Node000007"><a xlink:title=" ">
<path fill="none" stroke="#63b8ff" d="M382.87,-253.93C381.02,-245.58 378.86,-235.87 377.14,-228.11"/>
<polygon fill="#63b8ff" stroke="#63b8ff" points="379.5,-254.87 385.08,-263.87 386.33,-253.35 379.5,-254.87"/>
</a>
</g>
</g>
<!-- Node9 -->
<g id="Node000009" class="node">
<title>Node9</title>
<g id="a_Node000009"><a xlink:href="env.html" target="_top" xlink:title="Environment interface.">
<polygon fill="white" stroke="#666666" points="677.5,-222.5 618.5,-222.5 618.5,-203.5 677.5,-203.5 677.5,-222.5"/>
<text text-anchor="middle" x="648" y="-210.5" font-family="Helvetica,sans-Serif" font-size="10.00">l4/re/env</text>
</a>
</g>
</g>
<!-- Node8&#45;&gt;Node9 -->
<g id="edge9_Node000008_Node000009" class="edge">
<title>Node8&#45;&gt;Node9</title>
<g id="a_edge9_Node000008_Node000009"><a xlink:title=" ">
<path fill="none" stroke="#63b8ff" d="M434.88,-261.77C488.38,-249.78 573.34,-230.73 618.12,-220.7"/>
<polygon fill="#63b8ff" stroke="#63b8ff" points="433.94,-258.39 424.95,-263.99 435.48,-265.22 433.94,-258.39"/>
</a>
</g>
</g>
<!-- Node9&#45;&gt;Node3 -->
<g id="edge11_Node000009_Node000003" class="edge">
<title>Node9&#45;&gt;Node3</title>
<g id="a_edge11_Node000009_Node000003"><a xlink:title=" ">
<path fill="none" stroke="#63b8ff" d="M607.88,-208.55C529.34,-201.57 349.87,-184.51 200,-162 195.35,-161.3 190.54,-160.52 185.71,-159.7"/>
<polygon fill="#63b8ff" stroke="#63b8ff" points="608.01,-212.08 618.28,-209.47 608.63,-205.1 608.01,-212.08"/>
</a>
</g>
</g>
<!-- Node9&#45;&gt;Node4 -->
<g id="edge13_Node000009_Node000004" class="edge">
<title>Node9&#45;&gt;Node4</title>
<g id="a_edge13_Node000009_Node000004"><a xlink:title=" ">
<path fill="none" stroke="#63b8ff" d="M620.69,-199.13C600.96,-189.55 573.87,-175.79 551,-162 531.04,-149.97 529.09,-141.91 508,-132 464.48,-111.55 411.02,-98.06 373.53,-90.31"/>
<polygon fill="#63b8ff" stroke="#63b8ff" points="619.2,-202.3 629.73,-203.48 622.24,-195.99 619.2,-202.3"/>
</a>
</g>
</g>
<!-- Node9&#45;&gt;Node5 -->
<g id="edge14_Node000009_Node000005" class="edge">
<title>Node9&#45;&gt;Node5</title>
<g id="a_edge14_Node000009_Node000005"><a xlink:title=" ">
<path fill="none" stroke="#63b8ff" d="M608.05,-208.62C506.47,-199.83 245.4,-175.98 233,-162 200.04,-124.83 217.55,-58.99 227.57,-30.18"/>
<polygon fill="#63b8ff" stroke="#63b8ff" points="607.96,-212.12 618.22,-209.49 608.56,-205.15 607.96,-212.12"/>
</a>
</g>
</g>
<!-- Node9&#45;&gt;Node6 -->
<g id="edge15_Node000009_Node000006" class="edge">
<title>Node9&#45;&gt;Node6</title>
<g id="a_edge15_Node000009_Node000006"><a xlink:title=" ">
<path fill="none" stroke="#63b8ff" d="M625.51,-197.62C612.37,-188.48 596.06,-175.81 584,-162 551.51,-124.79 567.18,-96.08 528,-66 488.42,-35.62 431.6,-23.68 391.8,-19"/>
<polygon fill="#63b8ff" stroke="#63b8ff" points="623.76,-200.66 634.01,-203.35 627.67,-194.86 623.76,-200.66"/>
</a>
</g>
</g>
<!-- Node10 -->
<g id="Node000010" class="node">
<title>Node10</title>
<g id="a_Node000010"><a xlink:href="ro__file__impl_8h_source.html" target="_top" xlink:title=" ">
<polygon fill="white" stroke="#666666" points="498.5,-162 393.5,-162 393.5,-132 498.5,-132 498.5,-162"/>
<text text-anchor="start" x="401.5" y="-150" font-family="Helvetica,sans-Serif" font-size="10.00">l4/l4re_vfs/impl/ro</text>
<text text-anchor="middle" x="446" y="-139" font-family="Helvetica,sans-Serif" font-size="10.00">_file_impl.h</text>
</a>
</g>
</g>
<!-- Node9&#45;&gt;Node10 -->
<g id="edge10_Node000009_Node000010" class="edge">
<title>Node9&#45;&gt;Node10</title>
<g id="a_edge10_Node000009_Node000010"><a xlink:title=" ">
<path fill="none" stroke="#63b8ff" d="M611.22,-200.35C577.27,-189.59 526.78,-173.59 490.55,-162.12"/>
<polygon fill="#63b8ff" stroke="#63b8ff" points="610.17,-203.68 620.76,-203.37 612.28,-197.01 610.17,-203.68"/>
</a>
</g>
</g>
<!-- Node11 -->
<g id="Node000011" class="node">
<title>Node11</title>
<g id="a_Node000011"><a xlink:href="vfs__impl_8h_source.html" target="_top" xlink:title=" ">
<polygon fill="white" stroke="#666666" points="703,-162 593,-162 593,-132 703,-132 703,-162"/>
<text text-anchor="start" x="601" y="-150" font-family="Helvetica,sans-Serif" font-size="10.00">l4/l4re_vfs/impl/vfs</text>
<text text-anchor="middle" x="648" y="-139" font-family="Helvetica,sans-Serif" font-size="10.00">_impl.h</text>
</a>
</g>
</g>
<!-- Node9&#45;&gt;Node11 -->
<g id="edge12_Node000009_Node000011" class="edge">
<title>Node9&#45;&gt;Node11</title>
<g id="a_edge12_Node000009_Node000011"><a xlink:title=" ">
<path fill="none" stroke="#63b8ff" d="M648,-193.35C648,-183.47 648,-171.51 648,-162.36"/>
<polygon fill="#63b8ff" stroke="#63b8ff" points="644.5,-193.37 648,-203.37 651.5,-193.37 644.5,-193.37"/>
</a>
</g>
</g>
<!-- Node12 -->
<g id="Node000012" class="node">
<title>Node12</title>
<g id="a_Node000012"><a xlink:href="server_2l4virtio_source.html" target="_top" xlink:title=" ">
<polygon fill="white" stroke="#666666" points="818.5,-162 721.5,-162 721.5,-132 818.5,-132 818.5,-162"/>
<text text-anchor="start" x="729.5" y="-150" font-family="Helvetica,sans-Serif" font-size="10.00">l4/l4virtio/server</text>
<text text-anchor="middle" x="770" y="-139" font-family="Helvetica,sans-Serif" font-size="10.00">/l4virtio</text>
</a>
</g>
</g>
<!-- Node9&#45;&gt;Node12 -->
<g id="edge16_Node000009_Node000012" class="edge">
<title>Node9&#45;&gt;Node12</title>
<g id="a_edge16_Node000009_Node000012"><a xlink:title=" ">
<path fill="none" stroke="#63b8ff" d="M673.46,-198.64C693.84,-187.95 722.34,-173 743.09,-162.12"/>
<polygon fill="#63b8ff" stroke="#63b8ff" points="671.68,-195.62 664.45,-203.37 674.93,-201.82 671.68,-195.62"/>
</a>
</g>
</g>
<!-- Node17 -->
<g id="Node000017" class="node">
<title>Node17</title>
<g id="a_Node000017"><a xlink:href="env__ns_source.html" target="_top" xlink:title=" ">
<polygon fill="white" stroke="#666666" points="1044.5,-156.5 949.5,-156.5 949.5,-137.5 1044.5,-137.5 1044.5,-156.5"/>
<text text-anchor="middle" x="997" y="-144.5" font-family="Helvetica,sans-Serif" font-size="10.00">l4/re/util/env_ns</text>
</a>
</g>
</g>
<!-- Node9&#45;&gt;Node17 -->
<g id="edge22_Node000009_Node000017" class="edge">
<title>Node9&#45;&gt;Node17</title>
<g id="a_edge22_Node000009_Node000017"><a xlink:title=" ">
<path fill="none" stroke="#63b8ff" d="M687.61,-206.22C744.09,-197.75 850.91,-180.92 941,-162 948.65,-160.39 956.84,-158.47 964.52,-156.56"/>
<polygon fill="#63b8ff" stroke="#63b8ff" points="687.04,-202.76 677.67,-207.7 688.08,-209.69 687.04,-202.76"/>
</a>
</g>
</g>
<!-- Node19 -->
<g id="Node000019" class="node">
<title>Node19</title>
<g id="a_Node000019"><a xlink:href="goos__fb_source.html" target="_top" xlink:title=" ">
<polygon fill="white" stroke="#666666" points="1309,-90.5 1181,-90.5 1181,-71.5 1309,-71.5 1309,-90.5"/>
<text text-anchor="middle" x="1245" y="-78.5" font-family="Helvetica,sans-Serif" font-size="10.00">l4/re/util/video/goos_fb</text>
</a>
</g>
</g>
<!-- Node9&#45;&gt;Node19 -->
<g id="edge34_Node000009_Node000019" class="edge">
<title>Node9&#45;&gt;Node19</title>
<g id="a_edge34_Node000009_Node000019"><a xlink:title=" ">
<path fill="none" stroke="#63b8ff" d="M687.65,-210.4C824.87,-204.66 1272.34,-184.32 1293,-162 1313.9,-139.41 1277.34,-106.29 1257.09,-90.71"/>
<polygon fill="#63b8ff" stroke="#63b8ff" points="687.42,-206.9 677.57,-210.82 687.71,-213.9 687.42,-206.9"/>
</a>
</g>
</g>
<!-- Node9&#45;&gt;Node20 -->
<g id="edge26_Node000009_Node000020" class="edge">
<title>Node9&#45;&gt;Node20</title>
<g id="a_edge26_Node000009_Node000020"><a xlink:title=" ">
<path fill="none" stroke="#63b8ff" d="M687.74,-211.33C792.67,-209.08 1085.59,-199.62 1326,-162 1334.7,-160.64 1344.02,-158.64 1352.58,-156.57"/>
<polygon fill="#63b8ff" stroke="#63b8ff" points="687.53,-207.83 677.6,-211.54 687.67,-214.83 687.53,-207.83"/>
</a>
</g>
</g>
<!-- Node21 -->
<g id="Node000021" class="node">
<title>Node21</title>
<g id="a_Node000021"><a xlink:href="icu__svr_source.html" target="_top" xlink:title=" ">
<polygon fill="white" stroke="#666666" points="931.5,-156.5 836.5,-156.5 836.5,-137.5 931.5,-137.5 931.5,-156.5"/>
<text text-anchor="middle" x="884" y="-144.5" font-family="Helvetica,sans-Serif" font-size="10.00">l4/re/util/icu_svr</text>
</a>
</g>
</g>
<!-- Node9&#45;&gt;Node21 -->
<g id="edge27_Node000009_Node000021" class="edge">
<title>Node9&#45;&gt;Node21</title>
<g id="a_edge27_Node000009_Node000021"><a xlink:title=" ">
<path fill="none" stroke="#63b8ff" d="M687.6,-201.26C733.98,-188.68 809.89,-168.1 852.48,-156.55"/>
<polygon fill="#63b8ff" stroke="#63b8ff" points="686.62,-197.9 677.89,-203.89 688.46,-204.65 686.62,-197.9"/>
</a>
</g>
</g>
<!-- Node23 -->
<g id="Node000023" class="node">
<title>Node23</title>
<g id="a_Node000023"><a xlink:href="kumem__alloc.html" target="_top" xlink:title="Kumem allocator helper.">
<polygon fill="white" stroke="#666666" points="1187.5,-156.5 1062.5,-156.5 1062.5,-137.5 1187.5,-137.5 1187.5,-156.5"/>
<text text-anchor="middle" x="1125" y="-144.5" font-family="Helvetica,sans-Serif" font-size="10.00">l4/re/util/kumem_alloc</text>
</a>
</g>
</g>
<!-- Node9&#45;&gt;Node23 -->
<g id="edge29_Node000009_Node000023" class="edge">
<title>Node9&#45;&gt;Node23</title>
<g id="a_edge29_Node000009_Node000023"><a xlink:title=" ">
<path fill="none" stroke="#63b8ff" d="M687.75,-208.07C760.61,-200.64 920.32,-183.38 1054,-162 1063.92,-160.41 1074.58,-158.45 1084.54,-156.5"/>
<polygon fill="#63b8ff" stroke="#63b8ff" points="687.25,-204.6 677.65,-209.09 687.95,-211.56 687.25,-204.6"/>
</a>
</g>
</g>
<!-- Node9&#45;&gt;Node24 -->
<g id="edge30_Node000009_Node000024" class="edge">
<title>Node9&#45;&gt;Node24</title>
<g id="a_edge30_Node000009_Node000024"><a xlink:title=" ">
<path fill="none" stroke="#63b8ff" d="M608.19,-204.48C544.72,-192.5 420.95,-169.14 354.22,-156.54"/>
<polygon fill="#63b8ff" stroke="#63b8ff" points="607.74,-207.96 618.21,-206.38 609.04,-201.08 607.74,-207.96"/>
</a>
</g>
</g>
<!-- Node25 -->
<g id="Node000025" class="node">
<title>Node25</title>
<g id="a_Node000025"><a xlink:href="vcpu.html" target="_top" xlink:title="vCPU support library (C++ interface).">
<polygon fill="white" stroke="#666666" points="1284,-156.5 1206,-156.5 1206,-137.5 1284,-137.5 1284,-156.5"/>
<text text-anchor="middle" x="1245" y="-144.5" font-family="Helvetica,sans-Serif" font-size="10.00">l4/vcpu/vcpu</text>
</a>
</g>
</g>
<!-- Node9&#45;&gt;Node25 -->
<g id="edge35_Node000009_Node000025" class="edge">
<title>Node9&#45;&gt;Node25</title>
<g id="a_edge35_Node000009_Node000025"><a xlink:title=" ">
<path fill="none" stroke="#63b8ff" d="M687.89,-211C778.91,-208.15 1008.63,-197.7 1197,-162 1204.25,-160.63 1211.98,-158.62 1219.06,-156.56"/>
<polygon fill="#63b8ff" stroke="#63b8ff" points="687.63,-207.51 677.74,-211.3 687.84,-214.5 687.63,-207.51"/>
</a>
</g>
</g>
<!-- Node13 -->
<g id="Node000013" class="node">
<title>Node13</title>
<g id="a_Node000013"><a xlink:href="server_2virtio-block_source.html" target="_top" xlink:title=" ">
<polygon fill="white" stroke="#666666" points="690.5,-96 593.5,-96 593.5,-66 690.5,-66 690.5,-96"/>
<text text-anchor="start" x="601.5" y="-84" font-family="Helvetica,sans-Serif" font-size="10.00">l4/l4virtio/server</text>
<text text-anchor="middle" x="642" y="-73" font-family="Helvetica,sans-Serif" font-size="10.00">/virtio&#45;block</text>
</a>
</g>
</g>
<!-- Node12&#45;&gt;Node13 -->
<g id="edge17_Node000012_Node000013" class="edge">
<title>Node12&#45;&gt;Node13</title>
<g id="a_edge17_Node000012_Node000013"><a xlink:title=" ">
<path fill="none" stroke="#63b8ff" d="M732.76,-127.38C712.73,-117.36 688.43,-105.22 670.02,-96.01"/>
<polygon fill="#63b8ff" stroke="#63b8ff" points="731.4,-130.61 741.91,-131.95 734.53,-124.35 731.4,-130.61"/>
</a>
</g>
</g>
<!-- Node14 -->
<g id="Node000014" class="node">
<title>Node14</title>
<g id="a_Node000014"><a xlink:href="virtio-console_source.html" target="_top" xlink:title=" ">
<polygon fill="white" stroke="#666666" points="844.5,-96 747.5,-96 747.5,-66 844.5,-66 844.5,-96"/>
<text text-anchor="start" x="755.5" y="-84" font-family="Helvetica,sans-Serif" font-size="10.00">l4/l4virtio/server</text>
<text text-anchor="middle" x="796" y="-73" font-family="Helvetica,sans-Serif" font-size="10.00">/virtio&#45;console</text>
</a>
</g>
</g>
<!-- Node12&#45;&gt;Node14 -->
<g id="edge18_Node000012_Node000014" class="edge">
<title>Node12&#45;&gt;Node14</title>
<g id="a_edge18_Node000012_Node000014"><a xlink:title=" ">
<path fill="none" stroke="#63b8ff" d="M779.59,-122.39C783.17,-113.59 787.12,-103.86 790.25,-96.16"/>
<polygon fill="#63b8ff" stroke="#63b8ff" points="776.29,-121.21 775.77,-131.8 782.78,-123.85 776.29,-121.21"/>
</a>
</g>
</g>
<!-- Node15 -->
<g id="Node000015" class="node">
<title>Node15</title>
<g id="a_Node000015"><a xlink:href="virtio-console-device_source.html" target="_top" xlink:title=" ">
<polygon fill="white" stroke="#666666" points="818,-30 696,-30 696,0 818,0 818,-30"/>
<text text-anchor="start" x="704" y="-18" font-family="Helvetica,sans-Serif" font-size="10.00">l4/l4virtio/server</text>
<text text-anchor="middle" x="757" y="-7" font-family="Helvetica,sans-Serif" font-size="10.00">/virtio&#45;console&#45;device</text>
</a>
</g>
</g>
<!-- Node12&#45;&gt;Node15 -->
<g id="edge20_Node000012_Node000015" class="edge">
<title>Node12&#45;&gt;Node15</title>
<g id="a_edge20_Node000012_Node000015"><a xlink:title=" ">
<path fill="none" stroke="#63b8ff" d="M752.35,-123.47C746.97,-115.29 741.75,-105.67 739,-96 732.53,-73.27 742.02,-46.38 749.49,-30.28"/>
<polygon fill="#63b8ff" stroke="#63b8ff" points="749.53,-125.55 758.14,-131.72 755.26,-121.53 749.53,-125.55"/>
</a>
</g>
</g>
<!-- Node16 -->
<g id="Node000016" class="node">
<title>Node16</title>
<g id="a_Node000016"><a xlink:href="virtio-scmi-device_source.html" target="_top" xlink:title=" ">
<polygon fill="white" stroke="#666666" points="519,-96 411,-96 411,-66 519,-66 519,-96"/>
<text text-anchor="start" x="419" y="-84" font-family="Helvetica,sans-Serif" font-size="10.00">l4/l4virtio/server</text>
<text text-anchor="middle" x="465" y="-73" font-family="Helvetica,sans-Serif" font-size="10.00">/virtio&#45;scmi&#45;device</text>
</a>
</g>
</g>
<!-- Node12&#45;&gt;Node16 -->
<g id="edge21_Node000012_Node000016" class="edge">
<title>Node12&#45;&gt;Node16</title>
<g id="a_edge21_Node000012_Node000016"><a xlink:title=" ">
<path fill="none" stroke="#63b8ff" d="M711.12,-131.85C638.97,-115.96 566.96,-101.64 519.09,-92.35"/>
<polygon fill="#63b8ff" stroke="#63b8ff" points="710.78,-135.36 721.3,-134.11 712.29,-128.53 710.78,-135.36"/>
</a>
</g>
</g>
<!-- Node14&#45;&gt;Node15 -->
<g id="edge19_Node000014_Node000015" class="edge">
<title>Node14&#45;&gt;Node15</title>
<g id="a_edge19_Node000014_Node000015"><a xlink:title=" ">
<path fill="none" stroke="#63b8ff" d="M782.13,-57.24C776.63,-48.21 770.47,-38.11 765.63,-30.16"/>
<polygon fill="#63b8ff" stroke="#63b8ff" points="779.15,-59.08 787.34,-65.8 785.13,-55.44 779.15,-59.08"/>
</a>
</g>
</g>
<!-- Node18 -->
<g id="Node000018" class="node">
<title>Node18</title>
<g id="a_Node000018"><a xlink:href="ns__fs__impl_8h_source.html" target="_top" xlink:title=" ">
<polygon fill="white" stroke="#666666" points="1096.5,-96 989.5,-96 989.5,-66 1096.5,-66 1096.5,-96"/>
<text text-anchor="start" x="997.5" y="-84" font-family="Helvetica,sans-Serif" font-size="10.00">l4/l4re_vfs/impl/ns</text>
<text text-anchor="middle" x="1043" y="-73" font-family="Helvetica,sans-Serif" font-size="10.00">_fs_impl.h</text>
</a>
</g>
</g>
<!-- Node17&#45;&gt;Node18 -->
<g id="edge23_Node000017_Node000018" class="edge">
<title>Node17&#45;&gt;Node18</title>
<g id="a_edge23_Node000017_Node000018"><a xlink:title=" ">
<path fill="none" stroke="#63b8ff" d="M1009.05,-129.24C1016.39,-119.02 1025.68,-106.1 1032.68,-96.36"/>
<polygon fill="#63b8ff" stroke="#63b8ff" points="1006.2,-127.21 1003.2,-137.37 1011.88,-131.29 1006.2,-127.21"/>
</a>
</g>
</g>
<!-- Node17&#45;&gt;Node19 -->
<g id="edge24_Node000017_Node000019" class="edge">
<title>Node17&#45;&gt;Node19</title>
<g id="a_edge24_Node000017_Node000019"><a xlink:title=" ">
<path fill="none" stroke="#63b8ff" d="M1040.15,-134.86C1089.07,-122.24 1167.75,-101.94 1212.01,-90.51"/>
<polygon fill="#63b8ff" stroke="#63b8ff" points="1039,-131.55 1030.19,-137.44 1040.75,-138.33 1039,-131.55"/>
</a>
</g>
</g>
<!-- Node19&#45;&gt;Node19 -->
<g id="edge25_Node000019_Node000019" class="edge">
<title>Node19&#45;&gt;Node19</title>
<g id="a_edge25_Node000019_Node000019"><a xlink:title=" ">
<path fill="none" stroke="#63b8ff" d="M1280.67,-92.32C1304.19,-95.43 1327,-91.66 1327,-81 1327,-68.82 1297.2,-65.63 1270.61,-71.44"/>
<polygon fill="#63b8ff" stroke="#63b8ff" points="1281.06,-88.84 1270.61,-90.56 1279.86,-95.73 1281.06,-88.84"/>
</a>
</g>
</g>
<!-- Node22 -->
<g id="Node000022" class="node">
<title>Node22</title>
<g id="a_Node000022"><a xlink:href="event__svr_source.html" target="_top" xlink:title=" ">
<polygon fill="white" stroke="#666666" points="971,-90.5 863,-90.5 863,-71.5 971,-71.5 971,-90.5"/>
<text text-anchor="middle" x="917" y="-78.5" font-family="Helvetica,sans-Serif" font-size="10.00">l4/re/util/event_svr</text>
</a>
</g>
</g>
<!-- Node21&#45;&gt;Node22 -->
<g id="edge28_Node000021_Node000022" class="edge">
<title>Node21&#45;&gt;Node22</title>
<g id="a_edge28_Node000021_Node000022"><a xlink:title=" ">
<path fill="none" stroke="#63b8ff" d="M893.19,-128.18C899.44,-116.05 907.46,-100.51 912.41,-90.91"/>
<polygon fill="#63b8ff" stroke="#63b8ff" points="889.92,-126.88 888.45,-137.37 896.14,-130.08 889.92,-126.88"/>
</a>
</g>
</g>
<!-- Node24&#45;&gt;Node4 -->
<g id="edge31_Node000024_Node000004" class="edge">
<title>Node24&#45;&gt;Node4</title>
<g id="a_edge31_Node000024_Node000004"><a xlink:title=" ">
<path fill="none" stroke="#63b8ff" d="M314.16,-127.67C316.95,-117.72 320.36,-105.61 322.96,-96.36"/>
<polygon fill="#63b8ff" stroke="#63b8ff" points="310.77,-126.79 311.43,-137.37 317.5,-128.69 310.77,-126.79"/>
</a>
</g>
</g>
<!-- Node24&#45;&gt;Node5 -->
<g id="edge32_Node000024_Node000005" class="edge">
<title>Node24&#45;&gt;Node5</title>
<g id="a_edge32_Node000024_Node000005"><a xlink:title=" ">
<path fill="none" stroke="#63b8ff" d="M295,-129.39C287.39,-119.95 278.12,-107.69 271,-96 257.57,-73.93 245.4,-46.38 238.62,-30.04"/>
<polygon fill="#63b8ff" stroke="#63b8ff" points="292.35,-131.68 301.41,-137.19 297.76,-127.24 292.35,-131.68"/>
</a>
</g>
</g>
<!-- Node24&#45;&gt;Node16 -->
<g id="edge33_Node000024_Node000016" class="edge">
<title>Node24&#45;&gt;Node16</title>
<g id="a_edge33_Node000024_Node000016"><a xlink:title=" ">
<path fill="none" stroke="#63b8ff" d="M339.46,-133.5C365.63,-122.77 403.34,-107.3 430.59,-96.12"/>
<polygon fill="#63b8ff" stroke="#63b8ff" points="337.96,-130.33 330.04,-137.37 340.62,-136.81 337.96,-130.33"/>
</a>
</g>
</g>
</g>
</svg>
