<?xml version="1.0" encoding="UTF-8" standalone="no"?>
<!DOCTYPE svg PUBLIC "-//W3C//DTD SVG 1.1//EN"
 "http://www.w3.org/Graphics/SVG/1.1/DTD/svg11.dtd">
<!-- Generated by graphviz version 2.43.0 (0)
 -->
<!-- Title: l4_icu_info Pages: 1 -->
<svg width="378pt" height="82pt"
 viewBox="0.00 0.00 378.00 82.00" xmlns="http://www.w3.org/2000/svg" xmlns:xlink="http://www.w3.org/1999/xlink">
<g id="graph0" class="graph" transform="scale(1 1) rotate(0) translate(4 78)">
<title>l4_icu_info</title>
<!-- Node1 -->
<g id="Node000001" class="node">
<title>Node1</title>
<g id="a_Node000001"><a xlink:title="Get information about the ICU features.">
<polygon fill="#999999" stroke="#666666" points="69,-37 0,-37 0,-18 69,-18 69,-37"/>
<text text-anchor="middle" x="34.5" y="-25" font-family="Helvetica,sans-Serif" font-size="10.00">l4_icu_info</text>
</a>
</g>
</g>
<!-- Node2 -->
<g id="Node000002" class="node">
<title>Node2</title>
<g id="a_Node000002"><a xlink:href="group__l4__icu__api.html#ga7850caf0c29c87ba3477e1fe1139681f" target="_top" xlink:title="Get information about the ICU features.">
<polygon fill="white" stroke="#666666" points="185,-56 105,-56 105,-37 185,-37 185,-56"/>
<text text-anchor="middle" x="145" y="-44" font-family="Helvetica,sans-Serif" font-size="10.00">l4_icu_info_u</text>
</a>
</g>
</g>
<!-- Node1&#45;&gt;Node2 -->
<g id="edge1_Node000001_Node000002" class="edge">
<title>Node1&#45;&gt;Node2</title>
<g id="a_edge1_Node000001_Node000002"><a xlink:title=" ">
<path fill="none" stroke="#63b8ff" d="M69.24,-33.41C77.37,-34.83 86.23,-36.38 94.91,-37.9"/>
<polygon fill="#63b8ff" stroke="#63b8ff" points="94.52,-41.39 104.97,-39.67 95.72,-34.49 94.52,-41.39"/>
</a>
</g>
</g>
<!-- Node6 -->
<g id="Node000006" class="node">
<title>Node6</title>
<g id="a_Node000006"><a xlink:href="group__l4__utcb__api.html#gadc099b4a59e1d99638c72c11a8c8b644" target="_top" xlink:title="Get the UTCB address.">
<polygon fill="white" stroke="#666666" points="171,-19 119,-19 119,0 171,0 171,-19"/>
<text text-anchor="middle" x="145" y="-7" font-family="Helvetica,sans-Serif" font-size="10.00">l4_utcb</text>
</a>
</g>
</g>
<!-- Node1&#45;&gt;Node6 -->
<g id="edge5_Node000001_Node000006" class="edge">
<title>Node1&#45;&gt;Node6</title>
<g id="a_edge5_Node000001_Node000006"><a xlink:title=" ">
<path fill="none" stroke="#63b8ff" d="M69.24,-21.9C81.77,-19.82 96.03,-17.46 108.7,-15.36"/>
<polygon fill="#63b8ff" stroke="#63b8ff" points="109.61,-18.75 118.91,-13.66 108.47,-11.85 109.61,-18.75"/>
</a>
</g>
</g>
<!-- Node3 -->
<g id="Node000003" class="node">
<title>Node3</title>
<g id="a_Node000003"><a xlink:href="group__l4__ipc__api.html#gab96d1669dcd54657237ee27b7f6862c6" target="_top" xlink:title="Object call (usual invocation).">
<polygon fill="white" stroke="#666666" points="289,-74 221,-74 221,-55 289,-55 289,-74"/>
<text text-anchor="middle" x="255" y="-62" font-family="Helvetica,sans-Serif" font-size="10.00">l4_ipc_call</text>
</a>
</g>
</g>
<!-- Node2&#45;&gt;Node3 -->
<g id="edge2_Node000002_Node000003" class="edge">
<title>Node2&#45;&gt;Node3</title>
<g id="a_edge2_Node000002_Node000003"><a xlink:title=" ">
<path fill="none" stroke="#63b8ff" d="M185.3,-53.05C193.61,-54.44 202.44,-55.91 210.89,-57.31"/>
<polygon fill="#63b8ff" stroke="#63b8ff" points="210.51,-60.8 220.95,-58.99 211.66,-53.9 210.51,-60.8"/>
</a>
</g>
</g>
<!-- Node5 -->
<g id="Node000005" class="node">
<title>Node5</title>
<g id="a_Node000005"><a xlink:href="group__l4__msgtag__api.html#ga661d71acad9d096fa990f7c94943bc78" target="_top" xlink:title="Create a message tag from the specified values.">
<polygon fill="white" stroke="#666666" points="289,-37 221,-37 221,-18 289,-18 289,-37"/>
<text text-anchor="middle" x="255" y="-25" font-family="Helvetica,sans-Serif" font-size="10.00">l4_msgtag</text>
</a>
</g>
</g>
<!-- Node2&#45;&gt;Node5 -->
<g id="edge4_Node000002_Node000005" class="edge">
<title>Node2&#45;&gt;Node5</title>
<g id="a_edge4_Node000002_Node000005"><a xlink:title=" ">
<path fill="none" stroke="#63b8ff" d="M185.3,-39.59C193.61,-38.12 202.44,-36.57 210.89,-35.08"/>
<polygon fill="#63b8ff" stroke="#63b8ff" points="211.71,-38.49 220.95,-33.31 210.5,-31.6 211.71,-38.49"/>
</a>
</g>
</g>
<!-- Node4 -->
<g id="Node000004" class="node">
<title>Node4</title>
<g id="a_Node000004"><a xlink:href="group__l4__ipc__api.html#ga1caa56d45e0453b3002e7f5cfdb0dec7" target="_top" xlink:title="Generic L4 object invocation.">
<polygon fill="white" stroke="#666666" points="370,-74 325,-74 325,-55 370,-55 370,-74"/>
<text text-anchor="middle" x="347.5" y="-62" font-family="Helvetica,sans-Serif" font-size="10.00">l4_ipc</text>
</a>
</g>
</g>
<!-- Node3&#45;&gt;Node4 -->
<g id="edge3_Node000003_Node000004" class="edge">
<title>Node3&#45;&gt;Node4</title>
<g id="a_edge3_Node000003_Node000004"><a xlink:title=" ">
<path fill="none" stroke="#63b8ff" d="M289.18,-64.5C297.56,-64.5 306.52,-64.5 314.82,-64.5"/>
<polygon fill="#63b8ff" stroke="#63b8ff" points="314.87,-68 324.87,-64.5 314.87,-61 314.87,-68"/>
</a>
</g>
</g>
</g>
</svg>
