<?xml version="1.0" encoding="UTF-8" standalone="no"?>
<!DOCTYPE svg PUBLIC "-//W3C//DTD SVG 1.1//EN"
 "http://www.w3.org/Graphics/SVG/1.1/DTD/svg11.dtd">
<!-- Generated by graphviz version 2.42.4 (0)
 -->
<!-- Title: Object Invocation Pages: 1 -->
<svg width="342pt" height="224pt"
 viewBox="0.00 0.00 342.00 223.50" xmlns="http://www.w3.org/2000/svg" xmlns:xlink="http://www.w3.org/1999/xlink">
<g id="graph0" class="graph" transform="scale(1 1) rotate(0) translate(4 219.5)">
<title>Object Invocation</title>
<!-- Node2 -->
<g id="Node000002" class="node">
<title>Node2</title>
<g id="a_Node000002"><a xlink:href="group__l4__api.html" target="_top" xlink:title="Interfaces for all kinds of base functionality.">
<polygon fill="white" stroke="#666666" points="59,-122.5 0,-122.5 0,-103.5 59,-103.5 59,-122.5"/>
<text text-anchor="middle" x="29.5" y="-110.5" font-family="Helvetica,sans-Serif" font-size="10.00">Base API</text>
</a>
</g>
</g>
<!-- Node1 -->
<g id="Node000001" class="node">
<title>Node1</title>
<g id="a_Node000001"><a xlink:title="API for L4 object invocation.">
<polygon fill="#999999" stroke="#666666" points="197,-122.5 95,-122.5 95,-103.5 197,-103.5 197,-122.5"/>
<text text-anchor="middle" x="146" y="-110.5" font-family="Helvetica,sans-Serif" font-size="10.00">Object Invocation</text>
</a>
</g>
</g>
<!-- Node2&#45;&gt;Node1 -->
<g id="edge1" class="edge">
<title>Node2&#45;&gt;Node1</title>
<path fill="none" stroke="black" d="M69.2,-113C77.47,-113 86.32,-113 94.95,-113"/>
<polygon fill="black" stroke="black" points="69.1,-109.5 59.1,-113 69.1,-116.5 69.1,-109.5"/>
</g>
<!-- Node3 -->
<g id="Node000003" class="node">
<title>Node3</title>
<g id="a_Node000003"><a xlink:href="group__l4__ipc__err__api.html" target="_top" xlink:title="Error handling for L4 object invocation.">
<polygon fill="white" stroke="#666666" points="326.5,-215.5 240.5,-215.5 240.5,-196.5 326.5,-196.5 326.5,-215.5"/>
<text text-anchor="middle" x="283.5" y="-203.5" font-family="Helvetica,sans-Serif" font-size="10.00">Error Handling</text>
</a>
</g>
</g>
<!-- Node1&#45;&gt;Node3 -->
<g id="edge2" class="edge">
<title>Node1&#45;&gt;Node3</title>
<path fill="none" stroke="black" d="M162.74,-129.98C178.98,-146.67 205.73,-171.91 233,-188 238.51,-191.25 244.71,-194.07 250.81,-196.45"/>
<polygon fill="black" stroke="black" points="165.09,-127.38 155.65,-122.56 160.02,-132.21 165.09,-127.38"/>
</g>
<!-- Node6 -->
<g id="Node000006" class="node">
<title>Node6</title>
<g id="a_Node000006"><a xlink:href="group__l4__ipc__rt__api.html" target="_top" xlink:title=" ">
<polygon fill="white" stroke="#666666" points="323.5,-178.5 243.5,-178.5 243.5,-159.5 323.5,-159.5 323.5,-178.5"/>
<text text-anchor="middle" x="283.5" y="-166.5" font-family="Helvetica,sans-Serif" font-size="10.00">Realtime API</text>
</a>
</g>
</g>
<!-- Node1&#45;&gt;Node6 -->
<g id="edge5" class="edge">
<title>Node1&#45;&gt;Node6</title>
<path fill="none" stroke="black" d="M176.82,-126.77C193.27,-134.21 214.14,-143.41 233,-151 240.13,-153.87 247.91,-156.79 255.14,-159.42"/>
<polygon fill="black" stroke="black" points="178.24,-123.57 167.69,-122.61 175.34,-129.94 178.24,-123.57"/>
</g>
<!-- Node4 -->
<g id="Node000004" class="node">
<title>Node4</title>
<g id="a_Node000004"><a xlink:href="group__l4__msgitem__api.html" target="_top" xlink:title="Message item related functions.">
<polygon fill="white" stroke="#666666" points="329,-141.5 238,-141.5 238,-122.5 329,-122.5 329,-141.5"/>
<text text-anchor="middle" x="283.5" y="-129.5" font-family="Helvetica,sans-Serif" font-size="10.00">Message Items</text>
</a>
</g>
</g>
<!-- Node1&#45;&gt;Node4 -->
<g id="edge3" class="edge">
<title>Node1&#45;&gt;Node4</title>
<path fill="none" stroke="black" d="M207.28,-121.45C217.61,-122.9 228.18,-124.38 238,-125.76"/>
<polygon fill="black" stroke="black" points="207.46,-117.94 197.07,-120.02 206.49,-124.88 207.46,-117.94"/>
</g>
<!-- Node5 -->
<g id="Node000005" class="node">
<title>Node5</title>
<g id="a_Node000005"><a xlink:href="group__l4__msgtag__api.html" target="_top" xlink:title="API related to the message tag data type.">
<polygon fill="white" stroke="#666666" points="323.5,-104.5 243.5,-104.5 243.5,-85.5 323.5,-85.5 323.5,-104.5"/>
<text text-anchor="middle" x="283.5" y="-92.5" font-family="Helvetica,sans-Serif" font-size="10.00">Message Tag</text>
</a>
</g>
</g>
<!-- Node1&#45;&gt;Node5 -->
<g id="edge4" class="edge">
<title>Node1&#45;&gt;Node5</title>
<path fill="none" stroke="black" d="M207.21,-105C219.42,-103.38 231.96,-101.71 243.22,-100.22"/>
<polygon fill="black" stroke="black" points="206.52,-101.56 197.07,-106.35 207.44,-108.5 206.52,-101.56"/>
</g>
<!-- Node7 -->
<g id="Node000007" class="node">
<title>Node7</title>
<g id="a_Node000007"><a xlink:href="group__l4__timeout__api.html" target="_top" xlink:title="All kinds of timeouts and time related functions.">
<polygon fill="white" stroke="#666666" points="314.5,-67.5 252.5,-67.5 252.5,-48.5 314.5,-48.5 314.5,-67.5"/>
<text text-anchor="middle" x="283.5" y="-55.5" font-family="Helvetica,sans-Serif" font-size="10.00">Timeouts</text>
</a>
</g>
</g>
<!-- Node1&#45;&gt;Node7 -->
<g id="edge6" class="edge">
<title>Node1&#45;&gt;Node7</title>
<path fill="none" stroke="black" d="M178.73,-99.45C194.92,-92.6 214.96,-84.24 233,-77 240.86,-73.85 249.46,-70.51 257.26,-67.52"/>
<polygon fill="black" stroke="black" points="177.04,-96.37 169.2,-103.49 179.77,-102.81 177.04,-96.37"/>
</g>
<!-- Node8 -->
<g id="Node000008" class="node">
<title>Node8</title>
<g id="a_Node000008"><a xlink:href="group__l4__utcb__api.html" target="_top" xlink:title="L4 Virtual Registers (UTCB).">
<polygon fill="white" stroke="#666666" points="334,-30 233,-30 233,0 334,0 334,-30"/>
<text text-anchor="start" x="241" y="-18" font-family="Helvetica,sans-Serif" font-size="10.00">Virtual Registers </text>
<text text-anchor="middle" x="283.5" y="-7" font-family="Helvetica,sans-Serif" font-size="10.00">(UTCBs)</text>
</a>
</g>
</g>
<!-- Node1&#45;&gt;Node8 -->
<g id="edge7" class="edge">
<title>Node1&#45;&gt;Node8</title>
<path fill="none" stroke="black" d="M164.06,-96.4C180.75,-80.68 207.34,-57.03 233,-40 238.29,-36.49 244.15,-33.12 249.92,-30.07"/>
<polygon fill="black" stroke="black" points="161.53,-93.98 156.71,-103.41 166.36,-99.04 161.53,-93.98"/>
</g>
</g>
</svg>
