<?xml version="1.0" encoding="UTF-8" standalone="no"?>
<!DOCTYPE svg PUBLIC "-//W3C//DTD SVG 1.1//EN"
 "http://www.w3.org/Graphics/SVG/1.1/DTD/svg11.dtd">
<!-- Generated by graphviz version 2.42.4 (0)
 -->
<!-- Title: l4_vcon_set_attr_u Pages: 1 -->
<svg width="301pt" height="64pt"
 viewBox="0.00 0.00 301.00 64.00" xmlns="http://www.w3.org/2000/svg" xmlns:xlink="http://www.w3.org/1999/xlink">
<g id="graph0" class="graph" transform="scale(1 1) rotate(0) translate(4 60)">
<title>l4_vcon_set_attr_u</title>
<!-- Node1 -->
<g id="Node000001" class="node">
<title>Node1</title>
<g id="a_Node000001"><a xlink:title="Set the attributes of this virtual console.">
<polygon fill="#999999" stroke="#666666" points="108,-37 0,-37 0,-18 108,-18 108,-37"/>
<text text-anchor="middle" x="54" y="-25" font-family="Helvetica,sans-Serif" font-size="10.00">l4_vcon_set_attr_u</text>
</a>
</g>
</g>
<!-- Node2 -->
<g id="Node000002" class="node">
<title>Node2</title>
<g id="a_Node000002"><a xlink:href="group__l4__ipc__api.html#gab96d1669dcd54657237ee27b7f6862c6" target="_top" xlink:title="Object call (usual invocation).">
<polygon fill="white" stroke="#666666" points="212,-56 144,-56 144,-37 212,-37 212,-56"/>
<text text-anchor="middle" x="178" y="-44" font-family="Helvetica,sans-Serif" font-size="10.00">l4_ipc_call</text>
</a>
</g>
</g>
<!-- Node1&#45;&gt;Node2 -->
<g id="edge1_Node000001_Node000002" class="edge">
<title>Node1&#45;&gt;Node2</title>
<g id="a_edge1_Node000001_Node000002"><a xlink:title=" ">
<path fill="none" stroke="#63b8ff" d="M108.16,-35.78C116.64,-37.1 125.34,-38.45 133.57,-39.74"/>
<polygon fill="#63b8ff" stroke="#63b8ff" points="133.27,-43.23 143.69,-41.31 134.35,-36.31 133.27,-43.23"/>
</a>
</g>
</g>
<!-- Node4 -->
<g id="Node000004" class="node">
<title>Node4</title>
<g id="a_Node000004"><a xlink:href="group__l4__msgtag__api.html#ga661d71acad9d096fa990f7c94943bc78" target="_top" xlink:title="Create a message tag from the specified values.">
<polygon fill="white" stroke="#666666" points="212,-19 144,-19 144,0 212,0 212,-19"/>
<text text-anchor="middle" x="178" y="-7" font-family="Helvetica,sans-Serif" font-size="10.00">l4_msgtag</text>
</a>
</g>
</g>
<!-- Node1&#45;&gt;Node4 -->
<g id="edge3_Node000001_Node000004" class="edge">
<title>Node1&#45;&gt;Node4</title>
<g id="a_edge3_Node000001_Node000004"><a xlink:title=" ">
<path fill="none" stroke="#63b8ff" d="M108.16,-19.66C116.64,-18.4 125.34,-17.12 133.57,-15.91"/>
<polygon fill="#63b8ff" stroke="#63b8ff" points="134.31,-19.34 143.69,-14.41 133.28,-12.41 134.31,-19.34"/>
</a>
</g>
</g>
<!-- Node3 -->
<g id="Node000003" class="node">
<title>Node3</title>
<g id="a_Node000003"><a xlink:href="group__l4__ipc__api.html#ga1caa56d45e0453b3002e7f5cfdb0dec7" target="_top" xlink:title="Generic L4 object invocation.">
<polygon fill="white" stroke="#666666" points="293,-56 248,-56 248,-37 293,-37 293,-56"/>
<text text-anchor="middle" x="270.5" y="-44" font-family="Helvetica,sans-Serif" font-size="10.00">l4_ipc</text>
</a>
</g>
</g>
<!-- Node2&#45;&gt;Node3 -->
<g id="edge2_Node000002_Node000003" class="edge">
<title>Node2&#45;&gt;Node3</title>
<g id="a_edge2_Node000002_Node000003"><a xlink:title=" ">
<path fill="none" stroke="#63b8ff" d="M212.18,-46.5C220.56,-46.5 229.52,-46.5 237.82,-46.5"/>
<polygon fill="#63b8ff" stroke="#63b8ff" points="237.87,-50 247.87,-46.5 237.87,-43 237.87,-50"/>
</a>
</g>
</g>
</g>
</svg>
