<?xml version="1.0" encoding="UTF-8" standalone="no"?>
<!DOCTYPE svg PUBLIC "-//W3C//DTD SVG 1.1//EN"
 "http://www.w3.org/Graphics/SVG/1.1/DTD/svg11.dtd">
<!-- Generated by graphviz version 2.43.0 (0)
 -->
<!-- Title: l4_round_page Pages: 1 -->
<svg width="260pt" height="98pt"
 viewBox="0.00 0.00 260.00 97.50" xmlns="http://www.w3.org/2000/svg" xmlns:xlink="http://www.w3.org/1999/xlink">
<g id="graph0" class="graph" transform="scale(1 1) rotate(0) translate(4 93.5)">
<title>l4_round_page</title>
<!-- Node1 -->
<g id="Node000001" class="node">
<title>Node1</title>
<g id="a_Node000001"><a xlink:title="Round address up to the next page.">
<polygon fill="#999999" stroke="#666666" points="252,-51.5 164,-51.5 164,-32.5 252,-32.5 252,-51.5"/>
<text text-anchor="middle" x="208" y="-39.5" font-family="Helvetica,sans-Serif" font-size="10.00">l4_round_page</text>
</a>
</g>
</g>
<!-- Node2 -->
<g id="Node000002" class="node">
<title>Node2</title>
<g id="a_Node000002"><a xlink:href="classL4virtio_1_1Svr_1_1Driver__mem__region__t.html#abdad88a18e5428fb2276148ceccf0434" target="_top" xlink:title="Make a local memory region for the given driver values.">
<polygon fill="white" stroke="#666666" points="128,-89.5 0,-89.5 0,-48.5 128,-48.5 128,-89.5"/>
<text text-anchor="start" x="8" y="-77.5" font-family="Helvetica,sans-Serif" font-size="10.00">L4virtio::Svr::Driver</text>
<text text-anchor="start" x="8" y="-66.5" font-family="Helvetica,sans-Serif" font-size="10.00">_mem_region_t::Driver</text>
<text text-anchor="middle" x="64" y="-55.5" font-family="Helvetica,sans-Serif" font-size="10.00">_mem_region_t</text>
</a>
</g>
</g>
<!-- Node1&#45;&gt;Node2 -->
<g id="edge1_Node000001_Node000002" class="edge">
<title>Node1&#45;&gt;Node2</title>
<g id="a_edge1_Node000001_Node000002"><a xlink:title=" ">
<path fill="none" stroke="#63b8ff" d="M153.7,-52.14C145.39,-53.71 136.74,-55.36 128.24,-56.98"/>
<polygon fill="#63b8ff" stroke="#63b8ff" points="154.45,-55.55 163.62,-50.25 153.15,-48.68 154.45,-55.55"/>
</a>
</g>
</g>
<!-- Node3 -->
<g id="Node000003" class="node">
<title>Node3</title>
<g id="a_Node000003"><a xlink:href="classL4virtio_1_1Driver_1_1Block__device.html#af509c2785789dd2daf6b13f3369c6581" target="_top" xlink:title="Establish a connection to the device and set up shared memory.">
<polygon fill="white" stroke="#666666" points="126.5,-30 1.5,-30 1.5,0 126.5,0 126.5,-30"/>
<text text-anchor="start" x="9.5" y="-18" font-family="Helvetica,sans-Serif" font-size="10.00">L4virtio::Driver::Block</text>
<text text-anchor="middle" x="64" y="-7" font-family="Helvetica,sans-Serif" font-size="10.00">_device::setup_device</text>
</a>
</g>
</g>
<!-- Node1&#45;&gt;Node3 -->
<g id="edge2_Node000001_Node000003" class="edge">
<title>Node1&#45;&gt;Node3</title>
<g id="a_edge2_Node000001_Node000003"><a xlink:title=" ">
<path fill="none" stroke="#63b8ff" d="M153.54,-31.83C144.77,-30.17 135.62,-28.43 126.67,-26.73"/>
<polygon fill="#63b8ff" stroke="#63b8ff" points="153.15,-35.32 163.62,-33.75 154.45,-28.45 153.15,-35.32"/>
</a>
</g>
</g>
</g>
</svg>
