<?xml version="1.0" encoding="UTF-8" standalone="no"?>
<!DOCTYPE svg PUBLIC "-//W3C//DTD SVG 1.1//EN"
 "http://www.w3.org/Graphics/SVG/1.1/DTD/svg11.dtd">
<!-- Generated by graphviz version 2.43.0 (0)
 -->
<!-- Title: l4_utcb_mr64_idx Pages: 1 -->
<svg width="379pt" height="27pt"
 viewBox="0.00 0.00 379.00 27.00" xmlns="http://www.w3.org/2000/svg" xmlns:xlink="http://www.w3.org/1999/xlink">
<g id="graph0" class="graph" transform="scale(1 1) rotate(0) translate(4 23)">
<title>l4_utcb_mr64_idx</title>
<!-- Node1 -->
<g id="Node000001" class="node">
<title>Node1</title>
<g id="a_Node000001"><a xlink:title="Get index into 64bit message registers alias from native&#45;sized index.">
<polygon fill="#999999" stroke="#666666" points="371,-19 268,-19 268,0 371,0 371,-19"/>
<text text-anchor="middle" x="319.5" y="-7" font-family="Helvetica,sans-Serif" font-size="10.00">l4_utcb_mr64_idx</text>
</a>
</g>
</g>
<!-- Node2 -->
<g id="Node000002" class="node">
<title>Node2</title>
<g id="a_Node000002"><a xlink:href="group__l4__icu__api.html#ga0c5c381566e2e9a8dbb41f14e33c4437" target="_top" xlink:title="Get MSI info about IRQ.">
<polygon fill="white" stroke="#666666" points="232,-19 128,-19 128,0 232,0 232,-19"/>
<text text-anchor="middle" x="180" y="-7" font-family="Helvetica,sans-Serif" font-size="10.00">l4_icu_msi_info_u</text>
</a>
</g>
</g>
<!-- Node1&#45;&gt;Node2 -->
<g id="edge1_Node000001_Node000002" class="edge">
<title>Node1&#45;&gt;Node2</title>
<g id="a_edge1_Node000001_Node000002"><a xlink:title=" ">
<path fill="none" stroke="#63b8ff" d="M257.46,-9.5C248.98,-9.5 240.33,-9.5 232.06,-9.5"/>
<polygon fill="#63b8ff" stroke="#63b8ff" points="257.69,-13 267.69,-9.5 257.69,-6 257.69,-13"/>
</a>
</g>
</g>
<!-- Node3 -->
<g id="Node000003" class="node">
<title>Node3</title>
<g id="a_Node000003"><a xlink:href="group__l4__icu__api.html#ga626c5b32a678d274de89b2be944b6a3f" target="_top" xlink:title="Get MSI info about IRQ.">
<polygon fill="white" stroke="#666666" points="92,-19 0,-19 0,0 92,0 92,-19"/>
<text text-anchor="middle" x="46" y="-7" font-family="Helvetica,sans-Serif" font-size="10.00">l4_icu_msi_info</text>
</a>
</g>
</g>
<!-- Node2&#45;&gt;Node3 -->
<g id="edge2_Node000002_Node000003" class="edge">
<title>Node2&#45;&gt;Node3</title>
<g id="a_edge2_Node000002_Node000003"><a xlink:title=" ">
<path fill="none" stroke="#63b8ff" d="M117.93,-9.5C109.3,-9.5 100.56,-9.5 92.3,-9.5"/>
<polygon fill="#63b8ff" stroke="#63b8ff" points="117.97,-13 127.97,-9.5 117.97,-6 117.97,-13"/>
</a>
</g>
</g>
</g>
</svg>
