<?xml version="1.0" encoding="UTF-8" standalone="no"?>
<!DOCTYPE svg PUBLIC "-//W3C//DTD SVG 1.1//EN"
 "http://www.w3.org/Graphics/SVG/1.1/DTD/svg11.dtd">
<!-- Generated by graphviz version 2.43.0 (0)
 -->
<!-- Title: l4_bytes_to_mwords Pages: 1 -->
<svg width="547pt" height="286pt"
 viewBox="0.00 0.00 547.00 286.00" xmlns="http://www.w3.org/2000/svg" xmlns:xlink="http://www.w3.org/1999/xlink">
<g id="graph0" class="graph" transform="scale(1 1) rotate(0) translate(4 282)">
<title>l4_bytes_to_mwords</title>
<!-- Node1 -->
<g id="Node000001" class="node">
<title>Node1</title>
<g id="a_Node000001"><a xlink:title="Determine how many machine words (l4_umword_t) are required to store a buffer of &#39;size&#39; bytes.">
<polygon fill="#999999" stroke="#666666" points="539,-185 422,-185 422,-166 539,-166 539,-185"/>
<text text-anchor="middle" x="480.5" y="-173" font-family="Helvetica,sans-Serif" font-size="10.00">l4_bytes_to_mwords</text>
</a>
</g>
</g>
<!-- Node2 -->
<g id="Node000002" class="node">
<title>Node2</title>
<g id="a_Node000002"><a xlink:href="kdebug_8h.html#a05f504b0c16b751c78927a464615a746" target="_top" xlink:title="Invoke a text output operation with 3 additional machine word arguments on the base debugger capabili...">
<polygon fill="white" stroke="#666666" points="386,-250 287,-250 287,-231 386,-231 386,-250"/>
<text text-anchor="middle" x="336.5" y="-238" font-family="Helvetica,sans-Serif" font-size="10.00">__kdebug_3_text</text>
</a>
</g>
</g>
<!-- Node1&#45;&gt;Node2 -->
<g id="edge1_Node000001_Node000002" class="edge">
<title>Node1&#45;&gt;Node2</title>
<g id="a_edge1_Node000001_Node000002"><a xlink:title=" ">
<path fill="none" stroke="#63b8ff" d="M449.45,-189.26C422.15,-201.75 382.59,-219.86 358.54,-230.87"/>
<polygon fill="#63b8ff" stroke="#63b8ff" points="450.91,-192.44 458.55,-185.09 448,-186.07 450.91,-192.44"/>
</a>
</g>
</g>
<!-- Node4 -->
<g id="Node000004" class="node">
<title>Node4</title>
<g id="a_Node000004"><a xlink:href="kdebug_8h.html#ab2ebe85a62a8d8b933eef79a3ca418d7" target="_top" xlink:title="Invoke a text output operation on the base debugger capability.">
<polygon fill="white" stroke="#666666" points="380.5,-185 292.5,-185 292.5,-166 380.5,-166 380.5,-185"/>
<text text-anchor="middle" x="336.5" y="-173" font-family="Helvetica,sans-Serif" font-size="10.00">__kdebug_text</text>
</a>
</g>
</g>
<!-- Node1&#45;&gt;Node4 -->
<g id="edge3_Node000001_Node000004" class="edge">
<title>Node1&#45;&gt;Node4</title>
<g id="a_edge3_Node000001_Node000004"><a xlink:title=" ">
<path fill="none" stroke="#63b8ff" d="M411.72,-175.5C401.21,-175.5 390.6,-175.5 380.83,-175.5"/>
<polygon fill="#63b8ff" stroke="#63b8ff" points="411.74,-179 421.74,-175.5 411.74,-172 411.74,-179"/>
</a>
</g>
</g>
<!-- Node10 -->
<g id="Node000010" class="node">
<title>Node10</title>
<g id="a_Node000010"><a xlink:href="group__l4__vcon__api.html#ga05df63a45bb7ade1e0e19caaa6e35f5f" target="_top" xlink:title="Send data to this virtual console.">
<polygon fill="white" stroke="#666666" points="383.5,-75 289.5,-75 289.5,-56 383.5,-56 383.5,-75"/>
<text text-anchor="middle" x="336.5" y="-63" font-family="Helvetica,sans-Serif" font-size="10.00">l4_vcon_send_u</text>
</a>
</g>
</g>
<!-- Node1&#45;&gt;Node10 -->
<g id="edge9_Node000001_Node000010" class="edge">
<title>Node1&#45;&gt;Node10</title>
<g id="a_edge9_Node000001_Node000010"><a xlink:title=" ">
<path fill="none" stroke="#63b8ff" d="M458.79,-159.46C428.82,-136.24 374.27,-93.98 349.87,-75.08"/>
<polygon fill="#63b8ff" stroke="#63b8ff" points="456.85,-162.38 466.9,-165.74 461.14,-156.85 456.85,-162.38"/>
</a>
</g>
</g>
<!-- Node3 -->
<g id="Node000003" class="node">
<title>Node3</title>
<g id="a_Node000003"><a xlink:href="group__fiasco__trace__api.html#gac59d89f0e05763396f2fcda591ffe870" target="_top" xlink:title="Create new trace&#45;buffer entry with describing &lt;text&gt; and three additional values.">
<polygon fill="white" stroke="#666666" points="246,-278 130,-278 130,-259 246,-259 246,-278"/>
<text text-anchor="middle" x="188" y="-266" font-family="Helvetica,sans-Serif" font-size="10.00">fiasco_tbuf_log_3val</text>
</a>
</g>
</g>
<!-- Node2&#45;&gt;Node3 -->
<g id="edge2_Node000002_Node000003" class="edge">
<title>Node2&#45;&gt;Node3</title>
<g id="a_edge2_Node000002_Node000003"><a xlink:title=" ">
<path fill="none" stroke="#63b8ff" d="M276.79,-251.72C264.2,-254.13 251.03,-256.64 238.82,-258.98"/>
<polygon fill="#63b8ff" stroke="#63b8ff" points="277.55,-255.14 286.72,-249.82 276.24,-248.26 277.55,-255.14"/>
</a>
</g>
</g>
<!-- Node5 -->
<g id="Node000005" class="node">
<title>Node5</title>
<g id="a_Node000005"><a xlink:href="kdebug_8h.html#a2e5f690a7b317bd50ba2d40461939033" target="_top" xlink:title="Enter the kernel debugger.">
<polygon fill="white" stroke="#666666" points="229.5,-241 146.5,-241 146.5,-222 229.5,-222 229.5,-241"/>
<text text-anchor="middle" x="188" y="-229" font-family="Helvetica,sans-Serif" font-size="10.00">enter_kdebug</text>
</a>
</g>
</g>
<!-- Node4&#45;&gt;Node5 -->
<g id="edge4_Node000004_Node000005" class="edge">
<title>Node4&#45;&gt;Node5</title>
<g id="a_edge4_Node000004_Node000005"><a xlink:title=" ">
<path fill="none" stroke="#63b8ff" d="M306.93,-189.55C290.75,-197.2 270,-206.51 251,-213.5 242.69,-216.56 233.6,-219.44 225.01,-221.97"/>
<polygon fill="#63b8ff" stroke="#63b8ff" points="308.85,-192.51 316.35,-185.04 305.82,-186.2 308.85,-192.51"/>
</a>
</g>
</g>
<!-- Node6 -->
<g id="Node000006" class="node">
<title>Node6</title>
<g id="a_Node000006"><a xlink:href="group__fiasco__trace__api.html#ga11d469f93c5befca8389362282c5cb74" target="_top" xlink:title="Create new trace&#45;buffer entry with describing &lt;text&gt;.">
<polygon fill="white" stroke="#666666" points="233,-204 143,-204 143,-185 233,-185 233,-204"/>
<text text-anchor="middle" x="188" y="-192" font-family="Helvetica,sans-Serif" font-size="10.00">fiasco_tbuf_log</text>
</a>
</g>
</g>
<!-- Node4&#45;&gt;Node6 -->
<g id="edge5_Node000004_Node000006" class="edge">
<title>Node4&#45;&gt;Node6</title>
<g id="a_edge5_Node000004_Node000006"><a xlink:title=" ">
<path fill="none" stroke="#63b8ff" d="M282.01,-182.44C265.95,-184.52 248.51,-186.78 233.12,-188.78"/>
<polygon fill="#63b8ff" stroke="#63b8ff" points="282.87,-185.86 292.34,-181.1 281.97,-178.91 282.87,-185.86"/>
</a>
</g>
</g>
<!-- Node7 -->
<g id="Node000007" class="node">
<title>Node7</title>
<g id="a_Node000007"><a xlink:href="group__fiasco__trace__api.html#gacec61dde47b1cf788fcc51614bcc1a2f" target="_top" xlink:title="Create new trace&#45;buffer entry with binary data.">
<polygon fill="white" stroke="#666666" points="251,-167 125,-167 125,-148 251,-148 251,-167"/>
<text text-anchor="middle" x="188" y="-155" font-family="Helvetica,sans-Serif" font-size="10.00">fiasco_tbuf_log_binary</text>
</a>
</g>
</g>
<!-- Node4&#45;&gt;Node7 -->
<g id="edge6_Node000004_Node000007" class="edge">
<title>Node4&#45;&gt;Node7</title>
<g id="a_edge6_Node000004_Node000007"><a xlink:title=" ">
<path fill="none" stroke="#63b8ff" d="M282.4,-168.98C272.25,-167.73 261.53,-166.41 251.12,-165.13"/>
<polygon fill="#63b8ff" stroke="#63b8ff" points="281.99,-172.45 292.34,-170.2 282.84,-165.5 281.99,-172.45"/>
</a>
</g>
</g>
<!-- Node8 -->
<g id="Node000008" class="node">
<title>Node8</title>
<g id="a_Node000008"><a xlink:href="kdebug_8h.html#adbcd0f5c67e586ed88fba868cea537fb" target="_top" xlink:title="Output a fixed&#45;length string via the kernel debugger.">
<polygon fill="white" stroke="#666666" points="221,-130 155,-130 155,-111 221,-111 221,-130"/>
<text text-anchor="middle" x="188" y="-118" font-family="Helvetica,sans-Serif" font-size="10.00">outnstring</text>
</a>
</g>
</g>
<!-- Node4&#45;&gt;Node8 -->
<g id="edge7_Node000004_Node000008" class="edge">
<title>Node4&#45;&gt;Node8</title>
<g id="a_edge7_Node000004_Node000008"><a xlink:title=" ">
<path fill="none" stroke="#63b8ff" d="M305.2,-161.67C289.23,-154.62 269.23,-146.16 251,-139.5 241.38,-135.99 230.76,-132.57 221.07,-129.63"/>
<polygon fill="#63b8ff" stroke="#63b8ff" points="304.01,-164.97 314.56,-165.85 306.86,-158.58 304.01,-164.97"/>
</a>
</g>
</g>
<!-- Node9 -->
<g id="Node000009" class="node">
<title>Node9</title>
<g id="a_Node000009"><a xlink:href="kdebug_8h.html#a138dbb0bf857e381e9fb7cd4ef19a5f2" target="_top" xlink:title="Output a string via the kernel debugger.">
<polygon fill="white" stroke="#666666" points="74.5,-130 14.5,-130 14.5,-111 74.5,-111 74.5,-130"/>
<text text-anchor="middle" x="44.5" y="-118" font-family="Helvetica,sans-Serif" font-size="10.00">outstring</text>
</a>
</g>
</g>
<!-- Node8&#45;&gt;Node9 -->
<g id="edge8_Node000008_Node000009" class="edge">
<title>Node8&#45;&gt;Node9</title>
<g id="a_edge8_Node000008_Node000009"><a xlink:title=" ">
<path fill="none" stroke="#63b8ff" d="M144.86,-120.5C122.21,-120.5 94.86,-120.5 74.59,-120.5"/>
<polygon fill="#63b8ff" stroke="#63b8ff" points="144.89,-124 154.89,-120.5 144.89,-117 144.89,-124"/>
</a>
</g>
</g>
<!-- Node11 -->
<g id="Node000011" class="node">
<title>Node11</title>
<g id="a_Node000011"><a xlink:href="group__l4__vcon__api.html#gabbc45ad5d795d46d1edbf8118957ecb2" target="_top" xlink:title="Send data to virtual console.">
<polygon fill="white" stroke="#666666" points="229.5,-93 146.5,-93 146.5,-74 229.5,-74 229.5,-93"/>
<text text-anchor="middle" x="188" y="-81" font-family="Helvetica,sans-Serif" font-size="10.00">l4_vcon_send</text>
</a>
</g>
</g>
<!-- Node10&#45;&gt;Node11 -->
<g id="edge10_Node000010_Node000011" class="edge">
<title>Node10&#45;&gt;Node11</title>
<g id="a_edge10_Node000010_Node000011"><a xlink:title=" ">
<path fill="none" stroke="#63b8ff" d="M279.07,-72.43C262.59,-74.46 244.91,-76.63 229.61,-78.51"/>
<polygon fill="#63b8ff" stroke="#63b8ff" points="279.65,-75.89 289.15,-71.2 278.79,-68.94 279.65,-75.89"/>
</a>
</g>
</g>
<!-- Node12 -->
<g id="Node000012" class="node">
<title>Node12</title>
<g id="a_Node000012"><a xlink:href="group__l4__vcon__api.html#ga899728ba23baf18f59f62142534e039c" target="_top" xlink:title="Write data to this virtual console.">
<polygon fill="white" stroke="#666666" points="235.5,-56 140.5,-56 140.5,-37 235.5,-37 235.5,-56"/>
<text text-anchor="middle" x="188" y="-44" font-family="Helvetica,sans-Serif" font-size="10.00">l4_vcon_write_u</text>
</a>
</g>
</g>
<!-- Node10&#45;&gt;Node12 -->
<g id="edge11_Node000010_Node000012" class="edge">
<title>Node10&#45;&gt;Node12</title>
<g id="a_edge11_Node000010_Node000012"><a xlink:title=" ">
<path fill="none" stroke="#63b8ff" d="M278.9,-58.16C264.56,-56.3 249.33,-54.32 235.55,-52.54"/>
<polygon fill="#63b8ff" stroke="#63b8ff" points="278.78,-61.67 289.15,-59.49 279.68,-54.73 278.78,-61.67"/>
</a>
</g>
</g>
<!-- Node15 -->
<g id="Node000015" class="node">
<title>Node15</title>
<g id="a_Node000015"><a xlink:href="classL4_1_1Vcon.html#af400882103c8601a4b0750985c57d7c4" target="_top" xlink:title="Send data to this virtual console.">
<polygon fill="white" stroke="#666666" points="231.5,-19 144.5,-19 144.5,0 231.5,0 231.5,-19"/>
<text text-anchor="middle" x="188" y="-7" font-family="Helvetica,sans-Serif" font-size="10.00">L4::Vcon::send</text>
</a>
</g>
</g>
<!-- Node10&#45;&gt;Node15 -->
<g id="edge14_Node000010_Node000015" class="edge">
<title>Node10&#45;&gt;Node15</title>
<g id="a_edge14_Node000010_Node000015"><a xlink:title=" ">
<path fill="none" stroke="#63b8ff" d="M306.93,-51.45C290.75,-43.8 270,-34.49 251,-27.5 242.69,-24.44 233.6,-21.56 225.01,-19.03"/>
<polygon fill="#63b8ff" stroke="#63b8ff" points="305.82,-54.8 316.35,-55.96 308.85,-48.49 305.82,-54.8"/>
</a>
</g>
</g>
<!-- Node13 -->
<g id="Node000013" class="node">
<title>Node13</title>
<g id="a_Node000013"><a xlink:href="group__l4__vcon__api.html#ga9f083a69c2c51329da6778a3af0331bc" target="_top" xlink:title="Write data to virtual console.">
<polygon fill="white" stroke="#666666" points="86.5,-75 2.5,-75 2.5,-56 86.5,-56 86.5,-75"/>
<text text-anchor="middle" x="44.5" y="-63" font-family="Helvetica,sans-Serif" font-size="10.00">l4_vcon_write</text>
</a>
</g>
</g>
<!-- Node12&#45;&gt;Node13 -->
<g id="edge12_Node000012_Node000013" class="edge">
<title>Node12&#45;&gt;Node13</title>
<g id="a_edge12_Node000012_Node000013"><a xlink:title=" ">
<path fill="none" stroke="#63b8ff" d="M129.97,-54.16C115.58,-56.09 100.4,-58.13 86.94,-59.94"/>
<polygon fill="#63b8ff" stroke="#63b8ff" points="130.83,-57.57 140.28,-52.77 129.9,-50.64 130.83,-57.57"/>
</a>
</g>
</g>
<!-- Node14 -->
<g id="Node000014" class="node">
<title>Node14</title>
<g id="a_Node000014"><a xlink:href="classL4_1_1Vcon.html#a83407df2f5b674126d33505d73f5d34b" target="_top" xlink:title="Write data to this virtual console.">
<polygon fill="white" stroke="#666666" points="89,-38 0,-38 0,-19 89,-19 89,-38"/>
<text text-anchor="middle" x="44.5" y="-26" font-family="Helvetica,sans-Serif" font-size="10.00">L4::Vcon::write</text>
</a>
</g>
</g>
<!-- Node12&#45;&gt;Node14 -->
<g id="edge13_Node000012_Node000014" class="edge">
<title>Node12&#45;&gt;Node14</title>
<g id="a_edge13_Node000012_Node000014"><a xlink:title=" ">
<path fill="none" stroke="#63b8ff" d="M130.06,-39.26C116.48,-37.53 102.19,-35.71 89.3,-34.07"/>
<polygon fill="#63b8ff" stroke="#63b8ff" points="129.91,-42.77 140.28,-40.56 130.8,-35.82 129.91,-42.77"/>
</a>
</g>
</g>
</g>
</svg>
