<?xml version="1.0" encoding="UTF-8" standalone="no"?>
<!DOCTYPE svg PUBLIC "-//W3C//DTD SVG 1.1//EN"
 "http://www.w3.org/Graphics/SVG/1.1/DTD/svg11.dtd">
<!-- Generated by graphviz version 2.43.0 (0)
 -->
<!-- Title: l4_icu_info_u Pages: 1 -->
<svg width="197pt" height="82pt"
 viewBox="0.00 0.00 197.00 82.00" xmlns="http://www.w3.org/2000/svg" xmlns:xlink="http://www.w3.org/1999/xlink">
<g id="graph0" class="graph" transform="scale(1 1) rotate(0) translate(4 78)">
<title>l4_icu_info_u</title>
<!-- Node1 -->
<g id="Node000001" class="node">
<title>Node1</title>
<g id="a_Node000001"><a xlink:title="Get information about the ICU features.">
<polygon fill="#999999" stroke="#666666" points="189,-37 109,-37 109,-18 189,-18 189,-37"/>
<text text-anchor="middle" x="149" y="-25" font-family="Helvetica,sans-Serif" font-size="10.00">l4_icu_info_u</text>
</a>
</g>
</g>
<!-- Node2 -->
<g id="Node000002" class="node">
<title>Node2</title>
<g id="a_Node000002"><a xlink:href="classL4_1_1Icu.html#a356cfa88076c92e121ab7760d50d5f18" target="_top" xlink:title="Get information about the ICU features.">
<polygon fill="white" stroke="#666666" points="73,-56 0,-56 0,-37 73,-37 73,-56"/>
<text text-anchor="middle" x="36.5" y="-44" font-family="Helvetica,sans-Serif" font-size="10.00">L4::Icu::info</text>
</a>
</g>
</g>
<!-- Node1&#45;&gt;Node2 -->
<g id="edge1_Node000001_Node000002" class="edge">
<title>Node1&#45;&gt;Node2</title>
<g id="a_edge1_Node000001_Node000002"><a xlink:title=" ">
<path fill="none" stroke="#63b8ff" d="M98.8,-35.96C90.23,-37.43 81.46,-38.94 73.33,-40.34"/>
<polygon fill="#63b8ff" stroke="#63b8ff" points="99.47,-39.4 108.73,-34.25 98.28,-32.5 99.47,-39.4"/>
</a>
</g>
</g>
<!-- Node3 -->
<g id="Node000003" class="node">
<title>Node3</title>
<g id="a_Node000003"><a xlink:href="group__l4__icu__api.html#ga01c207fa8b166832b7eab0c60a8f2a7b" target="_top" xlink:title="Get information about the ICU features.">
<polygon fill="white" stroke="#666666" points="71,-19 2,-19 2,0 71,0 71,-19"/>
<text text-anchor="middle" x="36.5" y="-7" font-family="Helvetica,sans-Serif" font-size="10.00">l4_icu_info</text>
</a>
</g>
</g>
<!-- Node1&#45;&gt;Node3 -->
<g id="edge3_Node000001_Node000003" class="edge">
<title>Node1&#45;&gt;Node3</title>
<g id="a_edge3_Node000001_Node000003"><a xlink:title=" ">
<path fill="none" stroke="#63b8ff" d="M98.75,-19.48C89.42,-17.96 79.86,-16.4 71.15,-14.98"/>
<polygon fill="#63b8ff" stroke="#63b8ff" points="98.3,-22.95 108.73,-21.1 99.42,-16.04 98.3,-22.95"/>
</a>
</g>
</g>
<!-- Node2&#45;&gt;Node2 -->
<g id="edge2_Node000002_Node000002" class="edge">
<title>Node2&#45;&gt;Node2</title>
<g id="a_edge2_Node000002_Node000002"><a xlink:title=" ">
<path fill="none" stroke="#63b8ff" d="M57.24,-65.55C55.85,-70.38 48.94,-74 36.5,-74 16.59,-74 10.84,-64.73 19.24,-56.08"/>
<polygon fill="#63b8ff" stroke="#63b8ff" points="60.49,-64.26 53.76,-56.08 53.92,-66.68 60.49,-64.26"/>
</a>
</g>
</g>
</g>
</svg>
