<?xml version="1.0" encoding="UTF-8" standalone="no"?>
<!DOCTYPE svg PUBLIC "-//W3C//DTD SVG 1.1//EN"
 "http://www.w3.org/Graphics/SVG/1.1/DTD/svg11.dtd">
<!-- Generated by graphviz version 2.43.0 (0)
 -->
<!-- Title: fiasco_tbuf_log_3val Pages: 1 -->
<svg width="493pt" height="138pt"
 viewBox="0.00 0.00 493.00 138.00" xmlns="http://www.w3.org/2000/svg" xmlns:xlink="http://www.w3.org/1999/xlink">
<g id="graph0" class="graph" transform="scale(1 1) rotate(0) translate(4 134)">
<title>fiasco_tbuf_log_3val</title>
<!-- Node1 -->
<g id="Node000001" class="node">
<title>Node1</title>
<g id="a_Node000001"><a xlink:title="Create new trace&#45;buffer entry with describing &lt;text&gt; and three additional values.">
<polygon fill="#999999" stroke="#666666" points="116,-37 0,-37 0,-18 116,-18 116,-37"/>
<text text-anchor="middle" x="58" y="-25" font-family="Helvetica,sans-Serif" font-size="10.00">fiasco_tbuf_log_3val</text>
</a>
</g>
</g>
<!-- Node2 -->
<g id="Node000002" class="node">
<title>Node2</title>
<g id="a_Node000002"><a xlink:href="kdebug_8h.html#a05f504b0c16b751c78927a464615a746" target="_top" xlink:title="Invoke a text output operation with 3 additional machine word arguments on the base debugger capabili...">
<polygon fill="white" stroke="#666666" points="251,-56 152,-56 152,-37 251,-37 251,-56"/>
<text text-anchor="middle" x="201.5" y="-44" font-family="Helvetica,sans-Serif" font-size="10.00">__kdebug_3_text</text>
</a>
</g>
</g>
<!-- Node1&#45;&gt;Node2 -->
<g id="edge1_Node000001_Node000002" class="edge">
<title>Node1&#45;&gt;Node2</title>
<g id="a_edge1_Node000001_Node000002"><a xlink:title=" ">
<path fill="none" stroke="#63b8ff" d="M116.15,-35.17C124.54,-36.3 133.21,-37.46 141.64,-38.6"/>
<polygon fill="#63b8ff" stroke="#63b8ff" points="141.4,-42.1 151.77,-39.96 142.33,-35.16 141.4,-42.1"/>
</a>
</g>
</g>
<!-- Node8 -->
<g id="Node000008" class="node">
<title>Node8</title>
<g id="a_Node000008"><a xlink:href="group__l4__ipc__err__api.html#ga05c11e3e10b6c2aa941396ac2018899f" target="_top" xlink:title="Get IPC error code if any or message tag label otherwise for an IPC call.">
<polygon fill="white" stroke="#666666" points="228.5,-19 174.5,-19 174.5,0 228.5,0 228.5,-19"/>
<text text-anchor="middle" x="201.5" y="-7" font-family="Helvetica,sans-Serif" font-size="10.00">l4_error</text>
</a>
</g>
</g>
<!-- Node1&#45;&gt;Node8 -->
<g id="edge7_Node000001_Node000008" class="edge">
<title>Node1&#45;&gt;Node8</title>
<g id="a_edge7_Node000001_Node000008"><a xlink:title=" ">
<path fill="none" stroke="#63b8ff" d="M116.15,-20.23C132.32,-18.17 149.47,-15.99 164.06,-14.14"/>
<polygon fill="#63b8ff" stroke="#63b8ff" points="164.7,-17.58 174.18,-12.85 163.82,-10.64 164.7,-17.58"/>
</a>
</g>
</g>
<!-- Node3 -->
<g id="Node000003" class="node">
<title>Node3</title>
<g id="a_Node000003"><a xlink:href="group__l4__memory__api.html#ga2be30f4e5dde3c85d115d2a9c77f6215" target="_top" xlink:title="Determine how many machine words (l4_umword_t) are required to store a buffer of &#39;size&#39; bytes.">
<polygon fill="white" stroke="#666666" points="404,-130 287,-130 287,-111 404,-111 404,-130"/>
<text text-anchor="middle" x="345.5" y="-118" font-family="Helvetica,sans-Serif" font-size="10.00">l4_bytes_to_mwords</text>
</a>
</g>
</g>
<!-- Node2&#45;&gt;Node3 -->
<g id="edge2_Node000002_Node000003" class="edge">
<title>Node2&#45;&gt;Node3</title>
<g id="a_edge2_Node000002_Node000003"><a xlink:title=" ">
<path fill="none" stroke="#63b8ff" d="M214.44,-56C230.25,-68.2 259.35,-89.34 287,-102.5 290.83,-104.32 294.88,-106.02 298.99,-107.58"/>
<polygon fill="#63b8ff" stroke="#63b8ff" points="298.03,-110.95 308.63,-110.99 300.37,-104.35 298.03,-110.95"/>
</a>
</g>
</g>
<!-- Node4 -->
<g id="Node000004" class="node">
<title>Node4</title>
<g id="a_Node000004"><a xlink:href="group__l4__ipc__api.html#gab96d1669dcd54657237ee27b7f6862c6" target="_top" xlink:title="Object call (usual invocation).">
<polygon fill="white" stroke="#666666" points="379.5,-93 311.5,-93 311.5,-74 379.5,-74 379.5,-93"/>
<text text-anchor="middle" x="345.5" y="-81" font-family="Helvetica,sans-Serif" font-size="10.00">l4_ipc_call</text>
</a>
</g>
</g>
<!-- Node2&#45;&gt;Node4 -->
<g id="edge3_Node000002_Node000004" class="edge">
<title>Node2&#45;&gt;Node4</title>
<g id="a_edge3_Node000002_Node000004"><a xlink:title=" ">
<path fill="none" stroke="#63b8ff" d="M239.07,-56.03C258.19,-61.01 281.71,-67.14 301.67,-72.34"/>
<polygon fill="#63b8ff" stroke="#63b8ff" points="300.89,-75.75 311.45,-74.89 302.66,-68.98 300.89,-75.75"/>
</a>
</g>
</g>
<!-- Node6 -->
<g id="Node000006" class="node">
<title>Node6</title>
<g id="a_Node000006"><a xlink:href="group__l4__msgtag__api.html#ga661d71acad9d096fa990f7c94943bc78" target="_top" xlink:title="Create a message tag from the specified values.">
<polygon fill="white" stroke="#666666" points="379.5,-56 311.5,-56 311.5,-37 379.5,-37 379.5,-56"/>
<text text-anchor="middle" x="345.5" y="-44" font-family="Helvetica,sans-Serif" font-size="10.00">l4_msgtag</text>
</a>
</g>
</g>
<!-- Node2&#45;&gt;Node6 -->
<g id="edge5_Node000002_Node000006" class="edge">
<title>Node2&#45;&gt;Node6</title>
<g id="a_edge5_Node000002_Node000006"><a xlink:title=" ">
<path fill="none" stroke="#63b8ff" d="M251.37,-46.5C267.4,-46.5 285.11,-46.5 300.74,-46.5"/>
<polygon fill="#63b8ff" stroke="#63b8ff" points="301.19,-50 311.19,-46.5 301.19,-43 301.19,-50"/>
</a>
</g>
</g>
<!-- Node7 -->
<g id="Node000007" class="node">
<title>Node7</title>
<g id="a_Node000007"><a xlink:href="group__l4__utcb__api.html#gadc099b4a59e1d99638c72c11a8c8b644" target="_top" xlink:title="Get the UTCB address.">
<polygon fill="white" stroke="#666666" points="371.5,-19 319.5,-19 319.5,0 371.5,0 371.5,-19"/>
<text text-anchor="middle" x="345.5" y="-7" font-family="Helvetica,sans-Serif" font-size="10.00">l4_utcb</text>
</a>
</g>
</g>
<!-- Node2&#45;&gt;Node7 -->
<g id="edge6_Node000002_Node000007" class="edge">
<title>Node2&#45;&gt;Node7</title>
<g id="a_edge6_Node000002_Node000007"><a xlink:title=" ">
<path fill="none" stroke="#63b8ff" d="M239.07,-36.97C260.78,-31.32 288.15,-24.18 309.56,-18.6"/>
<polygon fill="#63b8ff" stroke="#63b8ff" points="310.45,-21.99 319.24,-16.08 308.68,-15.22 310.45,-21.99"/>
</a>
</g>
</g>
<!-- Node5 -->
<g id="Node000005" class="node">
<title>Node5</title>
<g id="a_Node000005"><a xlink:href="group__l4__ipc__api.html#ga1caa56d45e0453b3002e7f5cfdb0dec7" target="_top" xlink:title="Generic L4 object invocation.">
<polygon fill="white" stroke="#666666" points="485,-93 440,-93 440,-74 485,-74 485,-93"/>
<text text-anchor="middle" x="462.5" y="-81" font-family="Helvetica,sans-Serif" font-size="10.00">l4_ipc</text>
</a>
</g>
</g>
<!-- Node4&#45;&gt;Node5 -->
<g id="edge4_Node000004_Node000005" class="edge">
<title>Node4&#45;&gt;Node5</title>
<g id="a_edge4_Node000004_Node000005"><a xlink:title=" ">
<path fill="none" stroke="#63b8ff" d="M379.76,-83.5C395.5,-83.5 414.2,-83.5 429.75,-83.5"/>
<polygon fill="#63b8ff" stroke="#63b8ff" points="429.92,-87 439.92,-83.5 429.92,-80 429.92,-87"/>
</a>
</g>
</g>
<!-- Node8&#45;&gt;Node7 -->
<g id="edge8_Node000008_Node000007" class="edge">
<title>Node8&#45;&gt;Node7</title>
<g id="a_edge8_Node000008_Node000007"><a xlink:title=" ">
<path fill="none" stroke="#63b8ff" d="M228.54,-9.5C251.1,-9.5 283.95,-9.5 308.93,-9.5"/>
<polygon fill="#63b8ff" stroke="#63b8ff" points="309.1,-13 319.1,-9.5 309.1,-6 309.1,-13"/>
</a>
</g>
</g>
</g>
</svg>
