<?xml version="1.0" encoding="UTF-8" standalone="no"?>
<!DOCTYPE svg PUBLIC "-//W3C//DTD SVG 1.1//EN"
 "http://www.w3.org/Graphics/SVG/1.1/DTD/svg11.dtd">
<!-- Generated by graphviz version 2.43.0 (0)
 -->
<!-- Title: l4_irq_wait Pages: 1 -->
<svg width="435pt" height="82pt"
 viewBox="0.00 0.00 435.00 82.00" xmlns="http://www.w3.org/2000/svg" xmlns:xlink="http://www.w3.org/1999/xlink">
<g id="graph0" class="graph" transform="scale(1 1) rotate(0) translate(4 78)">
<title>l4_irq_wait</title>
<!-- Node1 -->
<g id="Node000001" class="node">
<title>Node1</title>
<g id="a_Node000001"><a xlink:title="Unmask IRQ and wait for any message.">
<polygon fill="#999999" stroke="#666666" points="70,-37 0,-37 0,-18 70,-18 70,-37"/>
<text text-anchor="middle" x="35" y="-25" font-family="Helvetica,sans-Serif" font-size="10.00">l4_irq_wait</text>
</a>
</g>
</g>
<!-- Node2 -->
<g id="Node000002" class="node">
<title>Node2</title>
<g id="a_Node000002"><a xlink:href="group__l4__irq__api.html#ga1690f577bd2896ec9b1e5a24d00af874" target="_top" xlink:title="Unmask IRQ and (open) wait for any message.">
<polygon fill="white" stroke="#666666" points="187,-56 106,-56 106,-37 187,-37 187,-56"/>
<text text-anchor="middle" x="146.5" y="-44" font-family="Helvetica,sans-Serif" font-size="10.00">l4_irq_wait_u</text>
</a>
</g>
</g>
<!-- Node1&#45;&gt;Node2 -->
<g id="edge1_Node000001_Node000002" class="edge">
<title>Node1&#45;&gt;Node2</title>
<g id="a_edge1_Node000001_Node000002"><a xlink:title=" ">
<path fill="none" stroke="#63b8ff" d="M70.05,-33.41C78.17,-34.82 87,-36.35 95.67,-37.85"/>
<polygon fill="#63b8ff" stroke="#63b8ff" points="95.27,-41.34 105.72,-39.6 96.47,-34.44 95.27,-41.34"/>
</a>
</g>
</g>
<!-- Node6 -->
<g id="Node000006" class="node">
<title>Node6</title>
<g id="a_Node000006"><a xlink:href="group__l4__utcb__api.html#gadc099b4a59e1d99638c72c11a8c8b644" target="_top" xlink:title="Get the UTCB address.">
<polygon fill="white" stroke="#666666" points="172.5,-19 120.5,-19 120.5,0 172.5,0 172.5,-19"/>
<text text-anchor="middle" x="146.5" y="-7" font-family="Helvetica,sans-Serif" font-size="10.00">l4_utcb</text>
</a>
</g>
</g>
<!-- Node1&#45;&gt;Node6 -->
<g id="edge5_Node000001_Node000006" class="edge">
<title>Node1&#45;&gt;Node6</title>
<g id="a_edge5_Node000001_Node000006"><a xlink:title=" ">
<path fill="none" stroke="#63b8ff" d="M70.05,-21.9C82.83,-19.8 97.37,-17.41 110.26,-15.29"/>
<polygon fill="#63b8ff" stroke="#63b8ff" points="110.87,-18.74 120.17,-13.66 109.74,-11.83 110.87,-18.74"/>
</a>
</g>
</g>
<!-- Node3 -->
<g id="Node000003" class="node">
<title>Node3</title>
<g id="a_Node000003"><a xlink:href="group__l4__ipc__api.html#ga72ee1f322b3f633fb885905ce213e2b5" target="_top" xlink:title="Send a message and do an open wait.">
<polygon fill="white" stroke="#666666" points="346,-74 223,-74 223,-55 346,-55 346,-74"/>
<text text-anchor="middle" x="284.5" y="-62" font-family="Helvetica,sans-Serif" font-size="10.00">l4_ipc_send_and_wait</text>
</a>
</g>
</g>
<!-- Node2&#45;&gt;Node3 -->
<g id="edge2_Node000002_Node000003" class="edge">
<title>Node2&#45;&gt;Node3</title>
<g id="a_edge2_Node000002_Node000003"><a xlink:title=" ">
<path fill="none" stroke="#63b8ff" d="M187.2,-51.75C195.29,-52.83 204.03,-53.98 212.83,-55.15"/>
<polygon fill="#63b8ff" stroke="#63b8ff" points="212.38,-58.62 222.76,-56.46 213.3,-51.68 212.38,-58.62"/>
</a>
</g>
</g>
<!-- Node5 -->
<g id="Node000005" class="node">
<title>Node5</title>
<g id="a_Node000005"><a xlink:href="group__l4__msgtag__api.html#ga661d71acad9d096fa990f7c94943bc78" target="_top" xlink:title="Create a message tag from the specified values.">
<polygon fill="white" stroke="#666666" points="318.5,-37 250.5,-37 250.5,-18 318.5,-18 318.5,-37"/>
<text text-anchor="middle" x="284.5" y="-25" font-family="Helvetica,sans-Serif" font-size="10.00">l4_msgtag</text>
</a>
</g>
</g>
<!-- Node2&#45;&gt;Node5 -->
<g id="edge4_Node000002_Node000005" class="edge">
<title>Node2&#45;&gt;Node5</title>
<g id="a_edge4_Node000002_Node000005"><a xlink:title=" ">
<path fill="none" stroke="#63b8ff" d="M187.2,-40.95C203.82,-38.63 223.19,-35.93 240.18,-33.55"/>
<polygon fill="#63b8ff" stroke="#63b8ff" points="240.99,-36.97 250.4,-32.12 240.02,-30.04 240.99,-36.97"/>
</a>
</g>
</g>
<!-- Node4 -->
<g id="Node000004" class="node">
<title>Node4</title>
<g id="a_Node000004"><a xlink:href="group__l4__ipc__api.html#ga1caa56d45e0453b3002e7f5cfdb0dec7" target="_top" xlink:title="Generic L4 object invocation.">
<polygon fill="white" stroke="#666666" points="427,-74 382,-74 382,-55 427,-55 427,-74"/>
<text text-anchor="middle" x="404.5" y="-62" font-family="Helvetica,sans-Serif" font-size="10.00">l4_ipc</text>
</a>
</g>
</g>
<!-- Node3&#45;&gt;Node4 -->
<g id="edge3_Node000003_Node000004" class="edge">
<title>Node3&#45;&gt;Node4</title>
<g id="a_edge3_Node000003_Node000004"><a xlink:title=" ">
<path fill="none" stroke="#63b8ff" d="M346.23,-64.5C355,-64.5 363.73,-64.5 371.62,-64.5"/>
<polygon fill="#63b8ff" stroke="#63b8ff" points="371.8,-68 381.8,-64.5 371.8,-61 371.8,-68"/>
</a>
</g>
</g>
</g>
</svg>
