<?xml version="1.0" encoding="UTF-8" standalone="no"?>
<!DOCTYPE svg PUBLIC "-//W3C//DTD SVG 1.1//EN"
 "http://www.w3.org/Graphics/SVG/1.1/DTD/svg11.dtd">
<!-- Generated by graphviz version 2.42.4 (0)
 -->
<!-- Title: l4_thread_ex_regs_u Pages: 1 -->
<svg width="458pt" height="119pt"
 viewBox="0.00 0.00 458.00 119.00" xmlns="http://www.w3.org/2000/svg" xmlns:xlink="http://www.w3.org/1999/xlink">
<g id="graph0" class="graph" transform="scale(1 1) rotate(0) translate(4 115)">
<title>l4_thread_ex_regs_u</title>
<!-- Node1 -->
<g id="Node000001" class="node">
<title>Node1</title>
<g id="a_Node000001"><a xlink:title="Exchange basic thread registers.">
<polygon fill="#999999" stroke="#666666" points="450,-74 333,-74 333,-55 450,-55 450,-74"/>
<text text-anchor="middle" x="391.5" y="-62" font-family="Helvetica,sans-Serif" font-size="10.00">l4_thread_ex_regs_u</text>
</a>
</g>
</g>
<!-- Node2 -->
<g id="Node000002" class="node">
<title>Node2</title>
<g id="a_Node000002"><a xlink:href="classL4_1_1Thread.html#aacd56bbf983577cfc591f21fd511d3b6" target="_top" xlink:title="Exchange basic thread registers.">
<polygon fill="white" stroke="#666666" points="285,-111 173,-111 173,-92 285,-92 285,-111"/>
<text text-anchor="middle" x="229" y="-99" font-family="Helvetica,sans-Serif" font-size="10.00">L4::Thread::ex_regs</text>
</a>
</g>
</g>
<!-- Node1&#45;&gt;Node2 -->
<g id="edge1_Node000001_Node000002" class="edge">
<title>Node1&#45;&gt;Node2</title>
<g id="a_edge1_Node000001_Node000002"><a xlink:title=" ">
<path fill="none" stroke="#63b8ff" d="M339.36,-76.29C317.45,-81.34 292.19,-87.16 271.47,-91.94"/>
<polygon fill="#63b8ff" stroke="#63b8ff" points="340.21,-79.69 349.17,-74.03 338.64,-72.86 340.21,-79.69"/>
</a>
</g>
</g>
<!-- Node3 -->
<g id="Node000003" class="node">
<title>Node3</title>
<g id="a_Node000003"><a xlink:href="group__l4__thread__api.html#ga1ea29499c679caeae810516d16f4347c" target="_top" xlink:title="Exchange basic thread registers.">
<polygon fill="white" stroke="#666666" points="282,-74 176,-74 176,-55 282,-55 282,-74"/>
<text text-anchor="middle" x="229" y="-62" font-family="Helvetica,sans-Serif" font-size="10.00">l4_thread_ex_regs</text>
</a>
</g>
</g>
<!-- Node1&#45;&gt;Node3 -->
<g id="edge2_Node000001_Node000003" class="edge">
<title>Node1&#45;&gt;Node3</title>
<g id="a_edge2_Node000001_Node000003"><a xlink:title=" ">
<path fill="none" stroke="#63b8ff" d="M322.4,-64.5C308.97,-64.5 295.07,-64.5 282.26,-64.5"/>
<polygon fill="#63b8ff" stroke="#63b8ff" points="322.56,-68 332.56,-64.5 322.56,-61 322.56,-68"/>
</a>
</g>
</g>
<!-- Node4 -->
<g id="Node000004" class="node">
<title>Node4</title>
<g id="a_Node000004"><a xlink:href="group__l4__thread__api.html#ga5e191cd9b1cbc5d0ac9166fb2bdd5a18" target="_top" xlink:title="Exchange basic thread registers and return previous values.">
<polygon fill="white" stroke="#666666" points="297,-37 161,-37 161,-18 297,-18 297,-37"/>
<text text-anchor="middle" x="229" y="-25" font-family="Helvetica,sans-Serif" font-size="10.00">l4_thread_ex_regs_ret_u</text>
</a>
</g>
</g>
<!-- Node1&#45;&gt;Node4 -->
<g id="edge3_Node000001_Node000004" class="edge">
<title>Node1&#45;&gt;Node4</title>
<g id="a_edge3_Node000001_Node000004"><a xlink:title=" ">
<path fill="none" stroke="#63b8ff" d="M339.36,-52.71C317.45,-47.66 292.19,-41.84 271.47,-37.06"/>
<polygon fill="#63b8ff" stroke="#63b8ff" points="338.64,-56.14 349.17,-54.97 340.21,-49.31 338.64,-56.14"/>
</a>
</g>
</g>
<!-- Node5 -->
<g id="Node000005" class="node">
<title>Node5</title>
<g id="a_Node000005"><a xlink:href="classL4_1_1Thread.html#af50335e91a9efefa66b440aefefd9c61" target="_top" xlink:title="Exchange basic thread registers and return previous values.">
<polygon fill="white" stroke="#666666" points="118.5,-56 6.5,-56 6.5,-37 118.5,-37 118.5,-56"/>
<text text-anchor="middle" x="62.5" y="-44" font-family="Helvetica,sans-Serif" font-size="10.00">L4::Thread::ex_regs</text>
</a>
</g>
</g>
<!-- Node4&#45;&gt;Node5 -->
<g id="edge4_Node000004_Node000005" class="edge">
<title>Node4&#45;&gt;Node5</title>
<g id="a_edge4_Node000004_Node000005"><a xlink:title=" ">
<path fill="none" stroke="#63b8ff" d="M150.42,-36.46C139.72,-37.7 128.91,-38.94 118.73,-40.12"/>
<polygon fill="#63b8ff" stroke="#63b8ff" points="151.08,-39.91 160.62,-35.28 150.28,-32.95 151.08,-39.91"/>
</a>
</g>
</g>
<!-- Node6 -->
<g id="Node000006" class="node">
<title>Node6</title>
<g id="a_Node000006"><a xlink:href="group__l4__thread__api.html#ga828e4612273914dcae12c442bcdd2ea1" target="_top" xlink:title="Exchange basic thread registers and return previous values.">
<polygon fill="white" stroke="#666666" points="125,-19 0,-19 0,0 125,0 125,-19"/>
<text text-anchor="middle" x="62.5" y="-7" font-family="Helvetica,sans-Serif" font-size="10.00">l4_thread_ex_regs_ret</text>
</a>
</g>
</g>
<!-- Node4&#45;&gt;Node6 -->
<g id="edge5_Node000004_Node000006" class="edge">
<title>Node4&#45;&gt;Node6</title>
<g id="a_edge5_Node000004_Node000006"><a xlink:title=" ">
<path fill="none" stroke="#63b8ff" d="M150.66,-19.04C142.13,-18.1 133.53,-17.16 125.23,-16.25"/>
<polygon fill="#63b8ff" stroke="#63b8ff" points="150.3,-22.52 160.62,-20.13 151.06,-15.56 150.3,-22.52"/>
</a>
</g>
</g>
</g>
</svg>
