<?xml version="1.0" encoding="UTF-8" standalone="no"?>
<!DOCTYPE svg PUBLIC "-//W3C//DTD SVG 1.1//EN"
 "http://www.w3.org/Graphics/SVG/1.1/DTD/svg11.dtd">
<!-- Generated by graphviz version 2.42.4 (0)
 -->
<!-- Title: l4_ipc_sleep Pages: 1 -->
<svg width="219pt" height="101pt"
 viewBox="0.00 0.00 219.00 101.00" xmlns="http://www.w3.org/2000/svg" xmlns:xlink="http://www.w3.org/1999/xlink">
<g id="graph0" class="graph" transform="scale(1 1) rotate(0) translate(4 97)">
<title>l4_ipc_sleep</title>
<!-- Node1 -->
<g id="Node000001" class="node">
<title>Node1</title>
<g id="a_Node000001"><a xlink:title="Sleep for an amount of time.">
<polygon fill="#999999" stroke="#666666" points="211,-56 134,-56 134,-37 211,-37 211,-56"/>
<text text-anchor="middle" x="172.5" y="-44" font-family="Helvetica,sans-Serif" font-size="10.00">l4_ipc_sleep</text>
</a>
</g>
</g>
<!-- Node2 -->
<g id="Node000002" class="node">
<title>Node2</title>
<g id="a_Node000002"><a xlink:href="group__l4__ipc__api.html#gaf7beb30ebd9a71fbafeda9d1be057d88" target="_top" xlink:title="Sleep for a certain amount of milliseconds.">
<polygon fill="white" stroke="#666666" points="97.5,-93 0.5,-93 0.5,-74 97.5,-74 97.5,-93"/>
<text text-anchor="middle" x="49" y="-81" font-family="Helvetica,sans-Serif" font-size="10.00">l4_ipc_sleep_ms</text>
</a>
</g>
</g>
<!-- Node1&#45;&gt;Node2 -->
<g id="edge1_Node000001_Node000002" class="edge">
<title>Node1&#45;&gt;Node2</title>
<g id="a_edge1_Node000001_Node000002"><a xlink:title=" ">
<path fill="none" stroke="#63b8ff" d="M130.57,-58.96C114.59,-63.83 96.56,-69.32 81.61,-73.88"/>
<polygon fill="#63b8ff" stroke="#63b8ff" points="131.66,-62.29 140.21,-56.03 129.62,-55.59 131.66,-62.29"/>
</a>
</g>
</g>
<!-- Node3 -->
<g id="Node000003" class="node">
<title>Node3</title>
<g id="a_Node000003"><a xlink:href="group__l4__ipc__api.html#ga5a466a7ca3fa167baadbd824238ad7cc" target="_top" xlink:title="Sleep for a certain amount of microseconds.">
<polygon fill="white" stroke="#666666" points="95.5,-56 2.5,-56 2.5,-37 95.5,-37 95.5,-56"/>
<text text-anchor="middle" x="49" y="-44" font-family="Helvetica,sans-Serif" font-size="10.00">l4_ipc_sleep_us</text>
</a>
</g>
</g>
<!-- Node1&#45;&gt;Node3 -->
<g id="edge2_Node000001_Node000003" class="edge">
<title>Node1&#45;&gt;Node3</title>
<g id="a_edge2_Node000001_Node000003"><a xlink:title=" ">
<path fill="none" stroke="#63b8ff" d="M123.63,-46.5C114.49,-46.5 104.95,-46.5 95.87,-46.5"/>
<polygon fill="#63b8ff" stroke="#63b8ff" points="123.72,-50 133.72,-46.5 123.72,-43 123.72,-50"/>
</a>
</g>
</g>
<!-- Node4 -->
<g id="Node000004" class="node">
<title>Node4</title>
<g id="a_Node000004"><a xlink:href="group__l4util__api.html#ga4842edcbe6e461bc083bb33ca870a762" target="_top" xlink:title="Go sleep and never wake up.">
<polygon fill="white" stroke="#666666" points="98,-19 0,-19 0,0 98,0 98,-19"/>
<text text-anchor="middle" x="49" y="-7" font-family="Helvetica,sans-Serif" font-size="10.00">l4_sleep_forever</text>
</a>
</g>
</g>
<!-- Node1&#45;&gt;Node4 -->
<g id="edge3_Node000001_Node000004" class="edge">
<title>Node1&#45;&gt;Node4</title>
<g id="a_edge3_Node000001_Node000004"><a xlink:title=" ">
<path fill="none" stroke="#63b8ff" d="M130.57,-34.04C114.59,-29.17 96.56,-23.68 81.61,-19.12"/>
<polygon fill="#63b8ff" stroke="#63b8ff" points="129.62,-37.41 140.21,-36.97 131.66,-30.71 129.62,-37.41"/>
</a>
</g>
</g>
</g>
</svg>
