<?xml version="1.0" encoding="UTF-8" standalone="no"?>
<!DOCTYPE svg PUBLIC "-//W3C//DTD SVG 1.1//EN"
 "http://www.w3.org/Graphics/SVG/1.1/DTD/svg11.dtd">
<!-- Generated by graphviz version 2.42.4 (0)
 -->
<!-- Title: Virtual Registers (UTCBs) Pages: 1 -->
<svg width="423pt" height="257pt"
 viewBox="0.00 0.00 423.00 257.00" xmlns="http://www.w3.org/2000/svg" xmlns:xlink="http://www.w3.org/1999/xlink">
<g id="graph0" class="graph" transform="scale(1 1) rotate(0) translate(4 253)">
<title>Virtual Registers (UTCBs)</title>
<!-- Node2 -->
<g id="Node000002" class="node">
<title>Node2</title>
<g id="a_Node000002"><a xlink:href="group__l4__ipc__api.html" target="_top" xlink:title="API for L4 object invocation.">
<polygon fill="white" stroke="#666666" points="102,-125.5 0,-125.5 0,-106.5 102,-106.5 102,-125.5"/>
<text text-anchor="middle" x="51" y="-113.5" font-family="Helvetica,sans-Serif" font-size="10.00">Object Invocation</text>
</a>
</g>
</g>
<!-- Node1 -->
<g id="Node000001" class="node">
<title>Node1</title>
<g id="a_Node000001"><a xlink:title="L4 Virtual Registers (UTCB).">
<polygon fill="#999999" stroke="#666666" points="239,-131 138,-131 138,-101 239,-101 239,-131"/>
<text text-anchor="start" x="146" y="-119" font-family="Helvetica,sans-Serif" font-size="10.00">Virtual Registers </text>
<text text-anchor="middle" x="188.5" y="-108" font-family="Helvetica,sans-Serif" font-size="10.00">(UTCBs)</text>
</a>
</g>
</g>
<!-- Node2&#45;&gt;Node1 -->
<g id="edge1" class="edge">
<title>Node2&#45;&gt;Node1</title>
<path fill="none" stroke="black" d="M112.29,-116C120.76,-116 129.39,-116 137.64,-116"/>
<polygon fill="black" stroke="black" points="112.07,-112.5 102.07,-116 112.07,-119.5 112.07,-112.5"/>
</g>
<!-- Node7 -->
<g id="Node000007" class="node">
<title>Node7</title>
<g id="a_Node000007"><a xlink:href="group__l4__utcb__api__amd64.html" target="_top" xlink:title=" ">
<polygon fill="white" stroke="#666666" points="412,-249 278,-249 278,-219 412,-219 412,-249"/>
<text text-anchor="start" x="286" y="-237" font-family="Helvetica,sans-Serif" font-size="10.00">amd64 Virtual Registers</text>
<text text-anchor="middle" x="345" y="-226" font-family="Helvetica,sans-Serif" font-size="10.00"> (UTCB)</text>
</a>
</g>
</g>
<!-- Node1&#45;&gt;Node7 -->
<g id="edge6" class="edge">
<title>Node1&#45;&gt;Node7</title>
<path fill="none" stroke="black" d="M205.43,-139.32C220.96,-160.45 246.36,-191.09 275,-210 280.08,-213.36 285.68,-216.3 291.43,-218.86"/>
<polygon fill="black" stroke="black" points="208.27,-137.27 199.59,-131.18 202.58,-141.35 208.27,-137.27"/>
</g>
<!-- Node3 -->
<g id="Node000003" class="node">
<title>Node3</title>
<g id="a_Node000003"><a xlink:href="group__l4__utcb__api__arm.html" target="_top" xlink:title=" ">
<polygon fill="white" stroke="#666666" points="406.5,-201 283.5,-201 283.5,-171 406.5,-171 406.5,-201"/>
<text text-anchor="start" x="291.5" y="-189" font-family="Helvetica,sans-Serif" font-size="10.00">ARM Virtual Registers</text>
<text text-anchor="middle" x="345" y="-178" font-family="Helvetica,sans-Serif" font-size="10.00"> (UTCB)</text>
</a>
</g>
</g>
<!-- Node1&#45;&gt;Node3 -->
<g id="edge2" class="edge">
<title>Node1&#45;&gt;Node3</title>
<path fill="none" stroke="black" d="M224.24,-136.32C239.53,-144.83 257.88,-154.47 275,-162 282.2,-165.16 289.96,-168.2 297.58,-170.99"/>
<polygon fill="black" stroke="black" points="225.59,-133.06 215.16,-131.19 222.15,-139.15 225.59,-133.06"/>
</g>
<!-- Node8 -->
<g id="Node000008" class="node">
<title>Node8</title>
<g id="a_Node000008"><a xlink:href="group__l4__utcb__api__x86.html" target="_top" xlink:title=" ">
<polygon fill="white" stroke="#666666" points="404.5,-153 285.5,-153 285.5,-123 404.5,-123 404.5,-153"/>
<text text-anchor="start" x="293.5" y="-141" font-family="Helvetica,sans-Serif" font-size="10.00">x86 Virtual Registers</text>
<text text-anchor="middle" x="345" y="-130" font-family="Helvetica,sans-Serif" font-size="10.00"> (UTCB)</text>
</a>
</g>
</g>
<!-- Node1&#45;&gt;Node8 -->
<g id="edge7" class="edge">
<title>Node1&#45;&gt;Node8</title>
<path fill="none" stroke="black" d="M249.45,-124.54C261.28,-126.22 273.69,-127.99 285.47,-129.67"/>
<polygon fill="black" stroke="black" points="249.63,-121.03 239.24,-123.08 248.64,-127.96 249.63,-121.03"/>
</g>
<!-- Node4 -->
<g id="Node000004" class="node">
<title>Node4</title>
<g id="a_Node000004"><a xlink:href="group__l4__utcb__br__api.html" target="_top" xlink:title=" ">
<polygon fill="white" stroke="#666666" points="407,-104.5 283,-104.5 283,-85.5 407,-85.5 407,-104.5"/>
<text text-anchor="middle" x="345" y="-92.5" font-family="Helvetica,sans-Serif" font-size="10.00">Buffer Registers (BRs)</text>
</a>
</g>
</g>
<!-- Node1&#45;&gt;Node4 -->
<g id="edge3" class="edge">
<title>Node1&#45;&gt;Node4</title>
<path fill="none" stroke="black" d="M249.23,-107.88C260.31,-106.38 271.89,-104.8 283,-103.29"/>
<polygon fill="black" stroke="black" points="248.67,-104.42 239.24,-109.24 249.62,-111.36 248.67,-104.42"/>
</g>
<!-- Node5 -->
<g id="Node000005" class="node">
<title>Node5</title>
<g id="a_Node000005"><a xlink:href="group__l4__utcb__mr__api.html" target="_top" xlink:title=" ">
<polygon fill="white" stroke="#666666" points="415,-67.5 275,-67.5 275,-48.5 415,-48.5 415,-67.5"/>
<text text-anchor="middle" x="345" y="-55.5" font-family="Helvetica,sans-Serif" font-size="10.00">Message Registers (MRs)</text>
</a>
</g>
</g>
<!-- Node1&#45;&gt;Node5 -->
<g id="edge4" class="edge">
<title>Node1&#45;&gt;Node5</title>
<path fill="none" stroke="black" d="M228.59,-96.59C242.97,-89.87 259.53,-82.62 275,-77 284.58,-73.52 295.1,-70.32 304.98,-67.58"/>
<polygon fill="black" stroke="black" points="227.02,-93.46 219.48,-100.9 230.02,-99.78 227.02,-93.46"/>
</g>
<!-- Node6 -->
<g id="Node000006" class="node">
<title>Node6</title>
<g id="a_Node000006"><a xlink:href="group__l4__utcb__tcr__api.html" target="_top" xlink:title=" ">
<polygon fill="white" stroke="#666666" points="413.5,-30 276.5,-30 276.5,0 413.5,0 413.5,-30"/>
<text text-anchor="start" x="284.5" y="-18" font-family="Helvetica,sans-Serif" font-size="10.00">Thread Control Registers</text>
<text text-anchor="middle" x="345" y="-7" font-family="Helvetica,sans-Serif" font-size="10.00"> (TCRs)</text>
</a>
</g>
</g>
<!-- Node1&#45;&gt;Node6 -->
<g id="edge5" class="edge">
<title>Node1&#45;&gt;Node6</title>
<path fill="none" stroke="black" d="M210.33,-93.32C226.61,-76.7 250.51,-54.58 275,-40 281.24,-36.28 288.12,-32.98 295.05,-30.1"/>
<polygon fill="black" stroke="black" points="207.38,-91.34 202.98,-100.98 212.43,-96.19 207.38,-91.34"/>
</g>
</g>
</svg>
