<?xml version="1.0" encoding="UTF-8" standalone="no"?>
<!DOCTYPE svg PUBLIC "-//W3C//DTD SVG 1.1//EN"
 "http://www.w3.org/Graphics/SVG/1.1/DTD/svg11.dtd">
<!-- Generated by graphviz version 2.42.4 (0)
 -->
<!-- Title: l4_irq_mux_chain Pages: 1 -->
<svg width="535pt" height="138pt"
 viewBox="0.00 0.00 535.00 138.00" xmlns="http://www.w3.org/2000/svg" xmlns:xlink="http://www.w3.org/1999/xlink">
<g id="graph0" class="graph" transform="scale(1 1) rotate(0) translate(4 134)">
<title>l4_irq_mux_chain</title>
<!-- Node1 -->
<g id="Node000001" class="node">
<title>Node1</title>
<g id="a_Node000001"><a xlink:title="Chain an IRQ to another master IRQ source.">
<polygon fill="#999999" stroke="#666666" points="102,-55 0,-55 0,-36 102,-36 102,-55"/>
<text text-anchor="middle" x="51" y="-43" font-family="Helvetica,sans-Serif" font-size="10.00">l4_irq_mux_chain</text>
</a>
</g>
</g>
<!-- Node2 -->
<g id="Node000002" class="node">
<title>Node2</title>
<g id="a_Node000002"><a xlink:href="group__l4__irq__api.html#ga0bfe3132479962ae237087568fc2c94f" target="_top" xlink:title="Attach an IRQ to this multiplexer.">
<polygon fill="white" stroke="#666666" points="251,-74 138,-74 138,-55 251,-55 251,-74"/>
<text text-anchor="middle" x="194.5" y="-62" font-family="Helvetica,sans-Serif" font-size="10.00">l4_irq_mux_chain_u</text>
</a>
</g>
</g>
<!-- Node1&#45;&gt;Node2 -->
<g id="edge1_Node000001_Node000002" class="edge">
<title>Node1&#45;&gt;Node2</title>
<g id="a_edge1_Node000001_Node000002"><a xlink:title=" ">
<path fill="none" stroke="#63b8ff" d="M102.29,-52.25C110.51,-53.36 119.13,-54.51 127.66,-55.66"/>
<polygon fill="#63b8ff" stroke="#63b8ff" points="127.22,-59.13 137.6,-56.99 128.16,-52.19 127.22,-59.13"/>
</a>
</g>
</g>
<!-- Node9 -->
<g id="Node000009" class="node">
<title>Node9</title>
<g id="a_Node000009"><a xlink:href="group__l4__utcb__api.html#gadc099b4a59e1d99638c72c11a8c8b644" target="_top" xlink:title="Get the UTCB address.">
<polygon fill="white" stroke="#666666" points="220.5,-37 168.5,-37 168.5,-18 220.5,-18 220.5,-37"/>
<text text-anchor="middle" x="194.5" y="-25" font-family="Helvetica,sans-Serif" font-size="10.00">l4_utcb</text>
</a>
</g>
</g>
<!-- Node1&#45;&gt;Node9 -->
<g id="edge8_Node000001_Node000009" class="edge">
<title>Node1&#45;&gt;Node9</title>
<g id="a_edge8_Node000001_Node000009"><a xlink:title=" ">
<path fill="none" stroke="#63b8ff" d="M102.29,-39.1C120.84,-36.74 141.44,-34.12 158.37,-31.97"/>
<polygon fill="#63b8ff" stroke="#63b8ff" points="158.9,-35.43 168.38,-30.7 158.02,-28.49 158.9,-35.43"/>
</a>
</g>
</g>
<!-- Node3 -->
<g id="Node000003" class="node">
<title>Node3</title>
<g id="a_Node000003"><a xlink:href="group__l4__ipc__api.html#gab96d1669dcd54657237ee27b7f6862c6" target="_top" xlink:title="Object call (usual invocation).">
<polygon fill="white" stroke="#666666" points="377,-130 309,-130 309,-111 377,-111 377,-130"/>
<text text-anchor="middle" x="343" y="-118" font-family="Helvetica,sans-Serif" font-size="10.00">l4_ipc_call</text>
</a>
</g>
</g>
<!-- Node2&#45;&gt;Node3 -->
<g id="edge2_Node000002_Node000003" class="edge">
<title>Node2&#45;&gt;Node3</title>
<g id="a_edge2_Node000002_Node000003"><a xlink:title=" ">
<path fill="none" stroke="#63b8ff" d="M217.13,-74.04C235.55,-82.03 262.81,-93.53 287,-102.5 291.76,-104.27 296.79,-106.04 301.8,-107.74"/>
<polygon fill="#63b8ff" stroke="#63b8ff" points="300.71,-111.07 311.31,-110.92 302.93,-104.43 300.71,-111.07"/>
</a>
</g>
</g>
<!-- Node5 -->
<g id="Node000005" class="node">
<title>Node5</title>
<g id="a_Node000005"><a xlink:href="group__l4__msgitem__api.html#ga6c9056957ac92e458eaabcbf3223ce6f" target="_top" xlink:title="Create the first word for a map item for the object space.">
<polygon fill="white" stroke="#666666" points="399,-93 287,-93 287,-74 399,-74 399,-93"/>
<text text-anchor="middle" x="343" y="-81" font-family="Helvetica,sans-Serif" font-size="10.00">l4_map_obj_control</text>
</a>
</g>
</g>
<!-- Node2&#45;&gt;Node5 -->
<g id="edge4_Node000002_Node000005" class="edge">
<title>Node2&#45;&gt;Node5</title>
<g id="a_edge4_Node000002_Node000005"><a xlink:title=" ">
<path fill="none" stroke="#63b8ff" d="M251.3,-71.74C259.67,-72.82 268.36,-73.95 276.91,-75.06"/>
<polygon fill="#63b8ff" stroke="#63b8ff" points="276.47,-78.53 286.84,-76.35 277.37,-71.59 276.47,-78.53"/>
</a>
</g>
</g>
<!-- Node7 -->
<g id="Node000007" class="node">
<title>Node7</title>
<g id="a_Node000007"><a xlink:href="group__l4__msgtag__api.html#ga661d71acad9d096fa990f7c94943bc78" target="_top" xlink:title="Create a message tag from the specified values.">
<polygon fill="white" stroke="#666666" points="377,-56 309,-56 309,-37 377,-37 377,-56"/>
<text text-anchor="middle" x="343" y="-44" font-family="Helvetica,sans-Serif" font-size="10.00">l4_msgtag</text>
</a>
</g>
</g>
<!-- Node2&#45;&gt;Node7 -->
<g id="edge6_Node000002_Node000007" class="edge">
<title>Node2&#45;&gt;Node7</title>
<g id="a_edge6_Node000002_Node000007"><a xlink:title=" ">
<path fill="none" stroke="#63b8ff" d="M251.3,-57.64C267.07,-55.71 283.98,-53.63 298.88,-51.8"/>
<polygon fill="#63b8ff" stroke="#63b8ff" points="299.34,-55.27 308.84,-50.57 298.48,-48.32 299.34,-55.27"/>
</a>
</g>
</g>
<!-- Node8 -->
<g id="Node000008" class="node">
<title>Node8</title>
<g id="a_Node000008"><a xlink:href="group__l4__fpage__api.html#ga3eaf59757a63812044e2b3a1cdf09d54" target="_top" xlink:title="Create a kernel&#45;object flex page.">
<polygon fill="white" stroke="#666666" points="382.5,-19 303.5,-19 303.5,0 382.5,0 382.5,-19"/>
<text text-anchor="middle" x="343" y="-7" font-family="Helvetica,sans-Serif" font-size="10.00">l4_obj_fpage</text>
</a>
</g>
</g>
<!-- Node2&#45;&gt;Node8 -->
<g id="edge7_Node000002_Node000008" class="edge">
<title>Node2&#45;&gt;Node8</title>
<g id="a_edge7_Node000002_Node000008"><a xlink:title=" ">
<path fill="none" stroke="#63b8ff" d="M227.79,-54.93C235.47,-52.41 243.59,-49.53 251,-46.5 267.55,-39.72 270.51,-35.44 287,-28.5 291.88,-26.45 297.07,-24.44 302.23,-22.54"/>
<polygon fill="#63b8ff" stroke="#63b8ff" points="303.8,-25.7 312.05,-19.05 301.45,-19.11 303.8,-25.7"/>
</a>
</g>
</g>
<!-- Node4 -->
<g id="Node000004" class="node">
<title>Node4</title>
<g id="a_Node000004"><a xlink:href="group__l4__ipc__api.html#ga1caa56d45e0453b3002e7f5cfdb0dec7" target="_top" xlink:title="Generic L4 object invocation.">
<polygon fill="white" stroke="#666666" points="503.5,-130 458.5,-130 458.5,-111 503.5,-111 503.5,-130"/>
<text text-anchor="middle" x="481" y="-118" font-family="Helvetica,sans-Serif" font-size="10.00">l4_ipc</text>
</a>
</g>
</g>
<!-- Node3&#45;&gt;Node4 -->
<g id="edge3_Node000003_Node000004" class="edge">
<title>Node3&#45;&gt;Node4</title>
<g id="a_edge3_Node000003_Node000004"><a xlink:title=" ">
<path fill="none" stroke="#63b8ff" d="M377.27,-120.5C398.8,-120.5 426.67,-120.5 447.95,-120.5"/>
<polygon fill="#63b8ff" stroke="#63b8ff" points="448.11,-124 458.11,-120.5 448.11,-117 448.11,-124"/>
</a>
</g>
</g>
<!-- Node6 -->
<g id="Node000006" class="node">
<title>Node6</title>
<g id="a_Node000006"><a xlink:href="group__l4__msgitem__api.html#ga1ce1321fd25614e9af43a35819540ba7" target="_top" xlink:title="Create the first word for a map item for the memory space.">
<polygon fill="white" stroke="#666666" points="527,-93 435,-93 435,-74 527,-74 527,-93"/>
<text text-anchor="middle" x="481" y="-81" font-family="Helvetica,sans-Serif" font-size="10.00">l4_map_control</text>
</a>
</g>
</g>
<!-- Node5&#45;&gt;Node6 -->
<g id="edge5_Node000005_Node000006" class="edge">
<title>Node5&#45;&gt;Node6</title>
<g id="a_edge5_Node000005_Node000006"><a xlink:title=" ">
<path fill="none" stroke="#63b8ff" d="M399.32,-83.5C407.68,-83.5 416.31,-83.5 424.68,-83.5"/>
<polygon fill="#63b8ff" stroke="#63b8ff" points="424.71,-87 434.71,-83.5 424.71,-80 424.71,-87"/>
</a>
</g>
</g>
</g>
</svg>
