<?xml version="1.0" encoding="UTF-8" standalone="no"?>
<!DOCTYPE svg PUBLIC "-//W3C//DTD SVG 1.1//EN"
 "http://www.w3.org/Graphics/SVG/1.1/DTD/svg11.dtd">
<!-- Generated by graphviz version 2.43.0 (0)
 -->
<!-- Title: l4_icu_bind_u Pages: 1 -->
<svg width="367pt" height="138pt"
 viewBox="0.00 0.00 367.00 138.00" xmlns="http://www.w3.org/2000/svg" xmlns:xlink="http://www.w3.org/1999/xlink">
<g id="graph0" class="graph" transform="scale(1 1) rotate(0) translate(4 134)">
<title>l4_icu_bind_u</title>
<!-- Node1 -->
<g id="Node000001" class="node">
<title>Node1</title>
<g id="a_Node000001"><a xlink:title="Bind an interrupt line of an interrupt controller to an interrupt object.">
<polygon fill="#999999" stroke="#666666" points="83,-74 0,-74 0,-55 83,-55 83,-74"/>
<text text-anchor="middle" x="41.5" y="-62" font-family="Helvetica,sans-Serif" font-size="10.00">l4_icu_bind_u</text>
</a>
</g>
</g>
<!-- Node2 -->
<g id="Node000002" class="node">
<title>Node2</title>
<g id="a_Node000002"><a xlink:href="group__l4__ipc__api.html#gab96d1669dcd54657237ee27b7f6862c6" target="_top" xlink:title="Object call (usual invocation).">
<polygon fill="white" stroke="#666666" points="209,-130 141,-130 141,-111 209,-111 209,-130"/>
<text text-anchor="middle" x="175" y="-118" font-family="Helvetica,sans-Serif" font-size="10.00">l4_ipc_call</text>
</a>
</g>
</g>
<!-- Node1&#45;&gt;Node2 -->
<g id="edge1_Node000001_Node000002" class="edge">
<title>Node1&#45;&gt;Node2</title>
<g id="a_edge1_Node000001_Node000002"><a xlink:title=" ">
<path fill="none" stroke="#63b8ff" d="M60.09,-74.15C75.39,-82.32 98.28,-94.01 119,-102.5 123.42,-104.31 128.09,-106.07 132.77,-107.73"/>
<polygon fill="#63b8ff" stroke="#63b8ff" points="131.71,-111.07 142.3,-110.99 133.98,-104.44 131.71,-111.07"/>
</a>
</g>
</g>
<!-- Node4 -->
<g id="Node000004" class="node">
<title>Node4</title>
<g id="a_Node000004"><a xlink:href="group__l4__msgitem__api.html#ga6c9056957ac92e458eaabcbf3223ce6f" target="_top" xlink:title="Create the first word for a map item for the object space.">
<polygon fill="white" stroke="#666666" points="231,-93 119,-93 119,-74 231,-74 231,-93"/>
<text text-anchor="middle" x="175" y="-81" font-family="Helvetica,sans-Serif" font-size="10.00">l4_map_obj_control</text>
</a>
</g>
</g>
<!-- Node1&#45;&gt;Node4 -->
<g id="edge3_Node000001_Node000004" class="edge">
<title>Node1&#45;&gt;Node4</title>
<g id="a_edge3_Node000001_Node000004"><a xlink:title=" ">
<path fill="none" stroke="#63b8ff" d="M83.03,-70.36C91.25,-71.54 100.1,-72.82 108.93,-74.1"/>
<polygon fill="#63b8ff" stroke="#63b8ff" points="108.46,-77.57 118.85,-75.53 109.46,-70.64 108.46,-77.57"/>
</a>
</g>
</g>
<!-- Node6 -->
<g id="Node000006" class="node">
<title>Node6</title>
<g id="a_Node000006"><a xlink:href="group__l4__msgtag__api.html#ga661d71acad9d096fa990f7c94943bc78" target="_top" xlink:title="Create a message tag from the specified values.">
<polygon fill="white" stroke="#666666" points="209,-56 141,-56 141,-37 209,-37 209,-56"/>
<text text-anchor="middle" x="175" y="-44" font-family="Helvetica,sans-Serif" font-size="10.00">l4_msgtag</text>
</a>
</g>
</g>
<!-- Node1&#45;&gt;Node6 -->
<g id="edge5_Node000001_Node000006" class="edge">
<title>Node1&#45;&gt;Node6</title>
<g id="a_edge5_Node000001_Node000006"><a xlink:title=" ">
<path fill="none" stroke="#63b8ff" d="M83.03,-58.95C98.11,-56.89 115.28,-54.54 130.61,-52.44"/>
<polygon fill="#63b8ff" stroke="#63b8ff" points="131.45,-55.86 140.88,-51.03 130.5,-48.92 131.45,-55.86"/>
</a>
</g>
</g>
<!-- Node7 -->
<g id="Node000007" class="node">
<title>Node7</title>
<g id="a_Node000007"><a xlink:href="group__l4__fpage__api.html#ga3eaf59757a63812044e2b3a1cdf09d54" target="_top" xlink:title="Create a kernel&#45;object flex page.">
<polygon fill="white" stroke="#666666" points="214.5,-19 135.5,-19 135.5,0 214.5,0 214.5,-19"/>
<text text-anchor="middle" x="175" y="-7" font-family="Helvetica,sans-Serif" font-size="10.00">l4_obj_fpage</text>
</a>
</g>
</g>
<!-- Node1&#45;&gt;Node7 -->
<g id="edge6_Node000001_Node000007" class="edge">
<title>Node1&#45;&gt;Node7</title>
<g id="a_edge6_Node000001_Node000007"><a xlink:title=" ">
<path fill="none" stroke="#63b8ff" d="M61.43,-54.9C76.76,-47.29 99.01,-36.63 119,-28.5 124.09,-26.43 129.5,-24.38 134.86,-22.44"/>
<polygon fill="#63b8ff" stroke="#63b8ff" points="136.12,-25.71 144.38,-19.08 133.79,-19.11 136.12,-25.71"/>
</a>
</g>
</g>
<!-- Node3 -->
<g id="Node000003" class="node">
<title>Node3</title>
<g id="a_Node000003"><a xlink:href="group__l4__ipc__api.html#ga1caa56d45e0453b3002e7f5cfdb0dec7" target="_top" xlink:title="Generic L4 object invocation.">
<polygon fill="white" stroke="#666666" points="335.5,-130 290.5,-130 290.5,-111 335.5,-111 335.5,-130"/>
<text text-anchor="middle" x="313" y="-118" font-family="Helvetica,sans-Serif" font-size="10.00">l4_ipc</text>
</a>
</g>
</g>
<!-- Node2&#45;&gt;Node3 -->
<g id="edge2_Node000002_Node000003" class="edge">
<title>Node2&#45;&gt;Node3</title>
<g id="a_edge2_Node000002_Node000003"><a xlink:title=" ">
<path fill="none" stroke="#63b8ff" d="M209.27,-120.5C230.8,-120.5 258.67,-120.5 279.95,-120.5"/>
<polygon fill="#63b8ff" stroke="#63b8ff" points="280.11,-124 290.11,-120.5 280.11,-117 280.11,-124"/>
</a>
</g>
</g>
<!-- Node5 -->
<g id="Node000005" class="node">
<title>Node5</title>
<g id="a_Node000005"><a xlink:href="group__l4__msgitem__api.html#ga1ce1321fd25614e9af43a35819540ba7" target="_top" xlink:title="Create the first word for a map item for the memory space.">
<polygon fill="white" stroke="#666666" points="359,-93 267,-93 267,-74 359,-74 359,-93"/>
<text text-anchor="middle" x="313" y="-81" font-family="Helvetica,sans-Serif" font-size="10.00">l4_map_control</text>
</a>
</g>
</g>
<!-- Node4&#45;&gt;Node5 -->
<g id="edge4_Node000004_Node000005" class="edge">
<title>Node4&#45;&gt;Node5</title>
<g id="a_edge4_Node000004_Node000005"><a xlink:title=" ">
<path fill="none" stroke="#63b8ff" d="M231.32,-83.5C239.68,-83.5 248.31,-83.5 256.68,-83.5"/>
<polygon fill="#63b8ff" stroke="#63b8ff" points="256.71,-87 266.71,-83.5 256.71,-80 256.71,-87"/>
</a>
</g>
</g>
</g>
</svg>
