<?xml version="1.0" encoding="UTF-8" standalone="no"?>
<!DOCTYPE svg PUBLIC "-//W3C//DTD SVG 1.1//EN"
 "http://www.w3.org/Graphics/SVG/1.1/DTD/svg11.dtd">
<!-- Generated by graphviz version 2.42.4 (0)
 -->
<!-- Title: l4_icu_unbind Pages: 1 -->
<svg width="498pt" height="138pt"
 viewBox="0.00 0.00 498.00 138.00" xmlns="http://www.w3.org/2000/svg" xmlns:xlink="http://www.w3.org/1999/xlink">
<g id="graph0" class="graph" transform="scale(1 1) rotate(0) translate(4 134)">
<title>l4_icu_unbind</title>
<!-- Node1 -->
<g id="Node000001" class="node">
<title>Node1</title>
<g id="a_Node000001"><a xlink:title="Remove binding of an interrupt line from the interrupt controller object.">
<polygon fill="#999999" stroke="#666666" points="83,-55 0,-55 0,-36 83,-36 83,-55"/>
<text text-anchor="middle" x="41.5" y="-43" font-family="Helvetica,sans-Serif" font-size="10.00">l4_icu_unbind</text>
</a>
</g>
</g>
<!-- Node2 -->
<g id="Node000002" class="node">
<title>Node2</title>
<g id="a_Node000002"><a xlink:href="group__l4__icu__api.html#gae74204b8f2101e176add646ec2958182" target="_top" xlink:title="Remove binding of an interrupt line from the interrupt controller object.">
<polygon fill="white" stroke="#666666" points="214,-74 119,-74 119,-55 214,-55 214,-74"/>
<text text-anchor="middle" x="166.5" y="-62" font-family="Helvetica,sans-Serif" font-size="10.00">l4_icu_unbind_u</text>
</a>
</g>
</g>
<!-- Node1&#45;&gt;Node2 -->
<g id="edge1_Node000001_Node000002" class="edge">
<title>Node1&#45;&gt;Node2</title>
<g id="a_edge1_Node000001_Node000002"><a xlink:title=" ">
<path fill="none" stroke="#63b8ff" d="M83.12,-51.77C91.36,-53.05 100.18,-54.41 108.87,-55.75"/>
<polygon fill="#63b8ff" stroke="#63b8ff" points="108.55,-59.24 118.96,-57.31 109.61,-52.33 108.55,-59.24"/>
</a>
</g>
</g>
<!-- Node9 -->
<g id="Node000009" class="node">
<title>Node9</title>
<g id="a_Node000009"><a xlink:href="group__l4__utcb__api.html#gadc099b4a59e1d99638c72c11a8c8b644" target="_top" xlink:title="Get the UTCB address.">
<polygon fill="white" stroke="#666666" points="192.5,-37 140.5,-37 140.5,-18 192.5,-18 192.5,-37"/>
<text text-anchor="middle" x="166.5" y="-25" font-family="Helvetica,sans-Serif" font-size="10.00">l4_utcb</text>
</a>
</g>
</g>
<!-- Node1&#45;&gt;Node9 -->
<g id="edge8_Node000001_Node000009" class="edge">
<title>Node1&#45;&gt;Node9</title>
<g id="a_edge8_Node000001_Node000009"><a xlink:title=" ">
<path fill="none" stroke="#63b8ff" d="M83.12,-39.56C98.32,-37.33 115.45,-34.82 130.14,-32.67"/>
<polygon fill="#63b8ff" stroke="#63b8ff" points="130.96,-36.09 140.35,-31.18 129.94,-29.17 130.96,-36.09"/>
</a>
</g>
</g>
<!-- Node3 -->
<g id="Node000003" class="node">
<title>Node3</title>
<g id="a_Node000003"><a xlink:href="group__l4__ipc__api.html#gab96d1669dcd54657237ee27b7f6862c6" target="_top" xlink:title="Object call (usual invocation).">
<polygon fill="white" stroke="#666666" points="340,-130 272,-130 272,-111 340,-111 340,-130"/>
<text text-anchor="middle" x="306" y="-118" font-family="Helvetica,sans-Serif" font-size="10.00">l4_ipc_call</text>
</a>
</g>
</g>
<!-- Node2&#45;&gt;Node3 -->
<g id="edge2_Node000002_Node000003" class="edge">
<title>Node2&#45;&gt;Node3</title>
<g id="a_edge2_Node000002_Node000003"><a xlink:title=" ">
<path fill="none" stroke="#63b8ff" d="M186.56,-74.04C203.11,-82.14 227.83,-93.8 250,-102.5 254.5,-104.27 259.25,-106 263.99,-107.66"/>
<polygon fill="#63b8ff" stroke="#63b8ff" points="263.06,-111.04 273.65,-110.93 265.31,-104.41 263.06,-111.04"/>
</a>
</g>
</g>
<!-- Node5 -->
<g id="Node000005" class="node">
<title>Node5</title>
<g id="a_Node000005"><a xlink:href="group__l4__msgitem__api.html#ga6c9056957ac92e458eaabcbf3223ce6f" target="_top" xlink:title="Create the first word for a map item for the object space.">
<polygon fill="white" stroke="#666666" points="362,-93 250,-93 250,-74 362,-74 362,-93"/>
<text text-anchor="middle" x="306" y="-81" font-family="Helvetica,sans-Serif" font-size="10.00">l4_map_obj_control</text>
</a>
</g>
</g>
<!-- Node2&#45;&gt;Node5 -->
<g id="edge4_Node000002_Node000005" class="edge">
<title>Node2&#45;&gt;Node5</title>
<g id="a_edge4_Node000002_Node000005"><a xlink:title=" ">
<path fill="none" stroke="#63b8ff" d="M214.05,-70.93C222.34,-72.08 231.11,-73.29 239.8,-74.49"/>
<polygon fill="#63b8ff" stroke="#63b8ff" points="239.55,-77.99 249.94,-75.89 240.51,-71.06 239.55,-77.99"/>
</a>
</g>
</g>
<!-- Node7 -->
<g id="Node000007" class="node">
<title>Node7</title>
<g id="a_Node000007"><a xlink:href="group__l4__msgtag__api.html#ga661d71acad9d096fa990f7c94943bc78" target="_top" xlink:title="Create a message tag from the specified values.">
<polygon fill="white" stroke="#666666" points="340,-56 272,-56 272,-37 340,-37 340,-56"/>
<text text-anchor="middle" x="306" y="-44" font-family="Helvetica,sans-Serif" font-size="10.00">l4_msgtag</text>
</a>
</g>
</g>
<!-- Node2&#45;&gt;Node7 -->
<g id="edge6_Node000002_Node000007" class="edge">
<title>Node2&#45;&gt;Node7</title>
<g id="a_edge6_Node000002_Node000007"><a xlink:title=" ">
<path fill="none" stroke="#63b8ff" d="M214.05,-58.41C229.5,-56.38 246.62,-54.14 261.8,-52.16"/>
<polygon fill="#63b8ff" stroke="#63b8ff" points="262.49,-55.59 271.96,-50.83 261.59,-48.65 262.49,-55.59"/>
</a>
</g>
</g>
<!-- Node8 -->
<g id="Node000008" class="node">
<title>Node8</title>
<g id="a_Node000008"><a xlink:href="group__l4__fpage__api.html#ga3eaf59757a63812044e2b3a1cdf09d54" target="_top" xlink:title="Create a kernel&#45;object flex page.">
<polygon fill="white" stroke="#666666" points="345.5,-19 266.5,-19 266.5,0 345.5,0 345.5,-19"/>
<text text-anchor="middle" x="306" y="-7" font-family="Helvetica,sans-Serif" font-size="10.00">l4_obj_fpage</text>
</a>
</g>
</g>
<!-- Node2&#45;&gt;Node8 -->
<g id="edge7_Node000002_Node000008" class="edge">
<title>Node2&#45;&gt;Node8</title>
<g id="a_edge7_Node000002_Node000008"><a xlink:title=" ">
<path fill="none" stroke="#63b8ff" d="M193.75,-54.84C200.4,-52.25 207.51,-49.37 214,-46.5 230.36,-39.26 233.51,-35.44 250,-28.5 254.88,-26.45 260.07,-24.44 265.23,-22.54"/>
<polygon fill="#63b8ff" stroke="#63b8ff" points="266.8,-25.7 275.05,-19.05 264.45,-19.11 266.8,-25.7"/>
</a>
</g>
</g>
<!-- Node4 -->
<g id="Node000004" class="node">
<title>Node4</title>
<g id="a_Node000004"><a xlink:href="group__l4__ipc__api.html#ga1caa56d45e0453b3002e7f5cfdb0dec7" target="_top" xlink:title="Generic L4 object invocation.">
<polygon fill="white" stroke="#666666" points="466.5,-130 421.5,-130 421.5,-111 466.5,-111 466.5,-130"/>
<text text-anchor="middle" x="444" y="-118" font-family="Helvetica,sans-Serif" font-size="10.00">l4_ipc</text>
</a>
</g>
</g>
<!-- Node3&#45;&gt;Node4 -->
<g id="edge3_Node000003_Node000004" class="edge">
<title>Node3&#45;&gt;Node4</title>
<g id="a_edge3_Node000003_Node000004"><a xlink:title=" ">
<path fill="none" stroke="#63b8ff" d="M340.27,-120.5C361.8,-120.5 389.67,-120.5 410.95,-120.5"/>
<polygon fill="#63b8ff" stroke="#63b8ff" points="411.11,-124 421.11,-120.5 411.11,-117 411.11,-124"/>
</a>
</g>
</g>
<!-- Node6 -->
<g id="Node000006" class="node">
<title>Node6</title>
<g id="a_Node000006"><a xlink:href="group__l4__msgitem__api.html#ga1ce1321fd25614e9af43a35819540ba7" target="_top" xlink:title="Create the first word for a map item for the memory space.">
<polygon fill="white" stroke="#666666" points="490,-93 398,-93 398,-74 490,-74 490,-93"/>
<text text-anchor="middle" x="444" y="-81" font-family="Helvetica,sans-Serif" font-size="10.00">l4_map_control</text>
</a>
</g>
</g>
<!-- Node5&#45;&gt;Node6 -->
<g id="edge5_Node000005_Node000006" class="edge">
<title>Node5&#45;&gt;Node6</title>
<g id="a_edge5_Node000005_Node000006"><a xlink:title=" ">
<path fill="none" stroke="#63b8ff" d="M362.32,-83.5C370.68,-83.5 379.31,-83.5 387.68,-83.5"/>
<polygon fill="#63b8ff" stroke="#63b8ff" points="387.71,-87 397.71,-83.5 387.71,-80 387.71,-87"/>
</a>
</g>
</g>
</g>
</svg>
