<?xml version="1.0" encoding="UTF-8" standalone="no"?>
<!DOCTYPE svg PUBLIC "-//W3C//DTD SVG 1.1//EN"
 "http://www.w3.org/Graphics/SVG/1.1/DTD/svg11.dtd">
<!-- Generated by graphviz version 2.43.0 (0)
 -->
<!-- Title: l4_thread_ex_regs_ret_u Pages: 1 -->
<svg width="305pt" height="64pt"
 viewBox="0.00 0.00 305.00 64.00" xmlns="http://www.w3.org/2000/svg" xmlns:xlink="http://www.w3.org/1999/xlink">
<g id="graph0" class="graph" transform="scale(1 1) rotate(0) translate(4 60)">
<title>l4_thread_ex_regs_ret_u</title>
<!-- Node1 -->
<g id="Node000001" class="node">
<title>Node1</title>
<g id="a_Node000001"><a xlink:title="Exchange basic thread registers and return previous values.">
<polygon fill="#999999" stroke="#666666" points="297,-37 161,-37 161,-18 297,-18 297,-37"/>
<text text-anchor="middle" x="229" y="-25" font-family="Helvetica,sans-Serif" font-size="10.00">l4_thread_ex_regs_ret_u</text>
</a>
</g>
</g>
<!-- Node2 -->
<g id="Node000002" class="node">
<title>Node2</title>
<g id="a_Node000002"><a xlink:href="classL4_1_1Thread.html#af50335e91a9efefa66b440aefefd9c61" target="_top" xlink:title="Exchange basic thread registers and return previous values.">
<polygon fill="white" stroke="#666666" points="118.5,-56 6.5,-56 6.5,-37 118.5,-37 118.5,-56"/>
<text text-anchor="middle" x="62.5" y="-44" font-family="Helvetica,sans-Serif" font-size="10.00">L4::Thread::ex_regs</text>
</a>
</g>
</g>
<!-- Node1&#45;&gt;Node2 -->
<g id="edge1_Node000001_Node000002" class="edge">
<title>Node1&#45;&gt;Node2</title>
<g id="a_edge1_Node000001_Node000002"><a xlink:title=" ">
<path fill="none" stroke="#63b8ff" d="M150.42,-36.46C139.72,-37.7 128.91,-38.94 118.73,-40.12"/>
<polygon fill="#63b8ff" stroke="#63b8ff" points="151.08,-39.91 160.62,-35.28 150.28,-32.95 151.08,-39.91"/>
</a>
</g>
</g>
<!-- Node3 -->
<g id="Node000003" class="node">
<title>Node3</title>
<g id="a_Node000003"><a xlink:href="group__l4__thread__api.html#ga828e4612273914dcae12c442bcdd2ea1" target="_top" xlink:title="Exchange basic thread registers and return previous values.">
<polygon fill="white" stroke="#666666" points="125,-19 0,-19 0,0 125,0 125,-19"/>
<text text-anchor="middle" x="62.5" y="-7" font-family="Helvetica,sans-Serif" font-size="10.00">l4_thread_ex_regs_ret</text>
</a>
</g>
</g>
<!-- Node1&#45;&gt;Node3 -->
<g id="edge2_Node000001_Node000003" class="edge">
<title>Node1&#45;&gt;Node3</title>
<g id="a_edge2_Node000001_Node000003"><a xlink:title=" ">
<path fill="none" stroke="#63b8ff" d="M150.66,-19.04C142.13,-18.1 133.53,-17.16 125.23,-16.25"/>
<polygon fill="#63b8ff" stroke="#63b8ff" points="150.3,-22.52 160.62,-20.13 151.06,-15.56 150.3,-22.52"/>
</a>
</g>
</g>
</g>
</svg>
