<?xml version="1.0" encoding="UTF-8" standalone="no"?>
<!DOCTYPE svg PUBLIC "-//W3C//DTD SVG 1.1//EN"
 "http://www.w3.org/Graphics/SVG/1.1/DTD/svg11.dtd">
<!-- Generated by graphviz version 2.42.4 (0)
 -->
<!-- Title: l4_thread_vcpu_control_u Pages: 1 -->
<svg width="321pt" height="64pt"
 viewBox="0.00 0.00 321.00 64.00" xmlns="http://www.w3.org/2000/svg" xmlns:xlink="http://www.w3.org/1999/xlink">
<g id="graph0" class="graph" transform="scale(1 1) rotate(0) translate(4 60)">
<title>l4_thread_vcpu_control_u</title>
<!-- Node1 -->
<g id="Node000001" class="node">
<title>Node1</title>
<g id="a_Node000001"><a xlink:title="Enable the vCPU feature for the thread.">
<polygon fill="#999999" stroke="#666666" points="313,-37 172,-37 172,-18 313,-18 313,-37"/>
<text text-anchor="middle" x="242.5" y="-25" font-family="Helvetica,sans-Serif" font-size="10.00">l4_thread_vcpu_control_u</text>
</a>
</g>
</g>
<!-- Node2 -->
<g id="Node000002" class="node">
<title>Node2</title>
<g id="a_Node000002"><a xlink:href="group__l4__thread__api.html#gac3263f4949c90adda83dba763b195988" target="_top" xlink:title="Enable the vCPU feature for the thread.">
<polygon fill="white" stroke="#666666" points="133,-56 3,-56 3,-37 133,-37 133,-56"/>
<text text-anchor="middle" x="68" y="-44" font-family="Helvetica,sans-Serif" font-size="10.00">l4_thread_vcpu_control</text>
</a>
</g>
</g>
<!-- Node1&#45;&gt;Node2 -->
<g id="edge1_Node000001_Node000002" class="edge">
<title>Node1&#45;&gt;Node2</title>
<g id="a_edge1_Node000001_Node000002"><a xlink:title=" ">
<path fill="none" stroke="#63b8ff" d="M161.85,-36.27C152.2,-37.34 142.45,-38.41 133.07,-39.44"/>
<polygon fill="#63b8ff" stroke="#63b8ff" points="162.28,-39.75 171.83,-35.17 161.51,-32.79 162.28,-39.75"/>
</a>
</g>
</g>
<!-- Node3 -->
<g id="Node000003" class="node">
<title>Node3</title>
<g id="a_Node000003"><a xlink:href="classL4_1_1Thread.html#a94a6d8a5a7a78fa99ef3c6358e0a0459" target="_top" xlink:title="Enable the vCPU feature for the thread.">
<polygon fill="white" stroke="#666666" points="136,-19 0,-19 0,0 136,0 136,-19"/>
<text text-anchor="middle" x="68" y="-7" font-family="Helvetica,sans-Serif" font-size="10.00">L4::Thread::vcpu_control</text>
</a>
</g>
</g>
<!-- Node1&#45;&gt;Node3 -->
<g id="edge2_Node000001_Node000003" class="edge">
<title>Node1&#45;&gt;Node3</title>
<g id="a_edge2_Node000001_Node000003"><a xlink:title=" ">
<path fill="none" stroke="#63b8ff" d="M161.81,-19.18C153.22,-18.29 144.55,-17.38 136.13,-16.5"/>
<polygon fill="#63b8ff" stroke="#63b8ff" points="161.53,-22.67 171.83,-20.23 162.25,-15.71 161.53,-22.67"/>
</a>
</g>
</g>
</g>
</svg>
