<?xml version="1.0" encoding="UTF-8" standalone="no"?>
<!DOCTYPE svg PUBLIC "-//W3C//DTD SVG 1.1//EN"
 "http://www.w3.org/Graphics/SVG/1.1/DTD/svg11.dtd">
<!-- Generated by graphviz version 2.43.0 (0)
 -->
<!-- Title: l4_fpage_contains Pages: 1 -->
<svg width="260pt" height="64pt"
 viewBox="0.00 0.00 260.00 64.00" xmlns="http://www.w3.org/2000/svg" xmlns:xlink="http://www.w3.org/1999/xlink">
<g id="graph0" class="graph" transform="scale(1 1) rotate(0) translate(4 60)">
<title>l4_fpage_contains</title>
<!-- Node1 -->
<g id="Node000001" class="node">
<title>Node1</title>
<g id="a_Node000001"><a xlink:title="Test whether a given range is completely within an fpage.">
<polygon fill="#999999" stroke="#666666" points="105,-37 0,-37 0,-18 105,-18 105,-37"/>
<text text-anchor="middle" x="52.5" y="-25" font-family="Helvetica,sans-Serif" font-size="10.00">l4_fpage_contains</text>
</a>
</g>
</g>
<!-- Node2 -->
<g id="Node000002" class="node">
<title>Node2</title>
<g id="a_Node000002"><a xlink:href="group__l4__fpage__api.html#ga87c7b03e1b72e9cfed3ad4b31a0c58ba" target="_top" xlink:title="Return the memory address from the memory flex page.">
<polygon fill="white" stroke="#666666" points="252,-56 141,-56 141,-37 252,-37 252,-56"/>
<text text-anchor="middle" x="196.5" y="-44" font-family="Helvetica,sans-Serif" font-size="10.00">l4_fpage_memaddr</text>
</a>
</g>
</g>
<!-- Node1&#45;&gt;Node2 -->
<g id="edge1_Node000001_Node000002" class="edge">
<title>Node1&#45;&gt;Node2</title>
<g id="a_edge1_Node000001_Node000002"><a xlink:title=" ">
<path fill="none" stroke="#63b8ff" d="M105.17,-34.41C113.49,-35.53 122.19,-36.69 130.78,-37.84"/>
<polygon fill="#63b8ff" stroke="#63b8ff" points="130.39,-41.32 140.76,-39.18 131.32,-34.38 130.39,-41.32"/>
</a>
</g>
</g>
<!-- Node3 -->
<g id="Node000003" class="node">
<title>Node3</title>
<g id="a_Node000003"><a xlink:href="group__l4__fpage__api.html#ga905f25ce8cd4e02fb988702dc85e18e0" target="_top" xlink:title="Return size from a flex page.">
<polygon fill="white" stroke="#666666" points="238,-19 155,-19 155,0 238,0 238,-19"/>
<text text-anchor="middle" x="196.5" y="-7" font-family="Helvetica,sans-Serif" font-size="10.00">l4_fpage_size</text>
</a>
</g>
</g>
<!-- Node1&#45;&gt;Node3 -->
<g id="edge2_Node000001_Node000003" class="edge">
<title>Node1&#45;&gt;Node3</title>
<g id="a_edge2_Node000001_Node000003"><a xlink:title=" ">
<path fill="none" stroke="#63b8ff" d="M105.17,-20.95C118.06,-19.32 131.87,-17.57 144.71,-15.94"/>
<polygon fill="#63b8ff" stroke="#63b8ff" points="145.29,-19.39 154.77,-14.66 144.41,-12.45 145.29,-19.39"/>
</a>
</g>
</g>
</g>
</svg>
