<?xml version="1.0" encoding="UTF-8" standalone="no"?>
<!DOCTYPE svg PUBLIC "-//W3C//DTD SVG 1.1//EN"
 "http://www.w3.org/Graphics/SVG/1.1/DTD/svg11.dtd">
<!-- Generated by graphviz version 2.42.4 (0)
 -->
<!-- Title: l4_icu_set_mode_u Pages: 1 -->
<svg width="256pt" height="64pt"
 viewBox="0.00 0.00 256.00 64.00" xmlns="http://www.w3.org/2000/svg" xmlns:xlink="http://www.w3.org/1999/xlink">
<g id="graph0" class="graph" transform="scale(1 1) rotate(0) translate(4 60)">
<title>l4_icu_set_mode_u</title>
<!-- Node1 -->
<g id="Node000001" class="node">
<title>Node1</title>
<g id="a_Node000001"><a xlink:title="Set interrupt mode.">
<polygon fill="#999999" stroke="#666666" points="248,-37 138,-37 138,-18 248,-18 248,-37"/>
<text text-anchor="middle" x="193" y="-25" font-family="Helvetica,sans-Serif" font-size="10.00">l4_icu_set_mode_u</text>
</a>
</g>
</g>
<!-- Node2 -->
<g id="Node000002" class="node">
<title>Node2</title>
<g id="a_Node000002"><a xlink:href="group__l4__icu__api.html#gad387684dcc6b4838f1d4f466e1aeef6f" target="_top" xlink:title="Set interrupt mode.">
<polygon fill="white" stroke="#666666" points="100,-56 2,-56 2,-37 100,-37 100,-56"/>
<text text-anchor="middle" x="51" y="-44" font-family="Helvetica,sans-Serif" font-size="10.00">l4_icu_set_mode</text>
</a>
</g>
</g>
<!-- Node1&#45;&gt;Node2 -->
<g id="edge1_Node000001_Node000002" class="edge">
<title>Node1&#45;&gt;Node2</title>
<g id="a_edge1_Node000001_Node000002"><a xlink:title=" ">
<path fill="none" stroke="#63b8ff" d="M127.82,-36.21C118.48,-37.48 109,-38.76 100.05,-39.98"/>
<polygon fill="#63b8ff" stroke="#63b8ff" points="128.43,-39.66 137.87,-34.85 127.49,-32.72 128.43,-39.66"/>
</a>
</g>
</g>
<!-- Node3 -->
<g id="Node000003" class="node">
<title>Node3</title>
<g id="a_Node000003"><a xlink:href="classL4_1_1Icu.html#a4258b1c32fc968b66a1ce15191f51b8b" target="_top" xlink:title="Set interrupt mode.">
<polygon fill="white" stroke="#666666" points="102,-19 0,-19 0,0 102,0 102,-19"/>
<text text-anchor="middle" x="51" y="-7" font-family="Helvetica,sans-Serif" font-size="10.00">L4::Icu::set_mode</text>
</a>
</g>
</g>
<!-- Node1&#45;&gt;Node3 -->
<g id="edge2_Node000001_Node000003" class="edge">
<title>Node1&#45;&gt;Node3</title>
<g id="a_edge2_Node000001_Node000003"><a xlink:title=" ">
<path fill="none" stroke="#63b8ff" d="M127.89,-19.26C119.31,-18.15 110.61,-17.04 102.31,-15.97"/>
<polygon fill="#63b8ff" stroke="#63b8ff" points="127.51,-22.74 137.87,-20.54 128.4,-15.79 127.51,-22.74"/>
</a>
</g>
</g>
</g>
</svg>
