<?xml version="1.0" encoding="UTF-8" standalone="no"?>
<!DOCTYPE svg PUBLIC "-//W3C//DTD SVG 1.1//EN"
 "http://www.w3.org/Graphics/SVG/1.1/DTD/svg11.dtd">
<!-- Generated by graphviz version 2.43.0 (0)
 -->
<!-- Title: l4_irq_trigger Pages: 1 -->
<svg width="408pt" height="82pt"
 viewBox="0.00 0.00 408.00 82.00" xmlns="http://www.w3.org/2000/svg" xmlns:xlink="http://www.w3.org/1999/xlink">
<g id="graph0" class="graph" transform="scale(1 1) rotate(0) translate(4 78)">
<title>l4_irq_trigger</title>
<!-- Node1 -->
<g id="Node000001" class="node">
<title>Node1</title>
<g id="a_Node000001"><a xlink:title="Trigger an IRQ.">
<polygon fill="#999999" stroke="#666666" points="81,-37 0,-37 0,-18 81,-18 81,-37"/>
<text text-anchor="middle" x="40.5" y="-25" font-family="Helvetica,sans-Serif" font-size="10.00">l4_irq_trigger</text>
</a>
</g>
</g>
<!-- Node2 -->
<g id="Node000002" class="node">
<title>Node2</title>
<g id="a_Node000002"><a xlink:href="group__l4__irq__api.html#ga180cfaf342ce9ff484a6aa7c276e1597" target="_top" xlink:title="Trigger the object.">
<polygon fill="white" stroke="#666666" points="209,-56 117,-56 117,-37 209,-37 209,-56"/>
<text text-anchor="middle" x="163" y="-44" font-family="Helvetica,sans-Serif" font-size="10.00">l4_irq_trigger_u</text>
</a>
</g>
</g>
<!-- Node1&#45;&gt;Node2 -->
<g id="edge1_Node000001_Node000002" class="edge">
<title>Node1&#45;&gt;Node2</title>
<g id="a_edge1_Node000001_Node000002"><a xlink:title=" ">
<path fill="none" stroke="#63b8ff" d="M81.29,-33.77C89.47,-35.06 98.22,-36.44 106.83,-37.8"/>
<polygon fill="#63b8ff" stroke="#63b8ff" points="106.41,-41.28 116.83,-39.38 107.5,-34.36 106.41,-41.28"/>
</a>
</g>
</g>
<!-- Node6 -->
<g id="Node000006" class="node">
<title>Node6</title>
<g id="a_Node000006"><a xlink:href="group__l4__utcb__api.html#gadc099b4a59e1d99638c72c11a8c8b644" target="_top" xlink:title="Get the UTCB address.">
<polygon fill="white" stroke="#666666" points="189,-19 137,-19 137,0 189,0 189,-19"/>
<text text-anchor="middle" x="163" y="-7" font-family="Helvetica,sans-Serif" font-size="10.00">l4_utcb</text>
</a>
</g>
</g>
<!-- Node1&#45;&gt;Node6 -->
<g id="edge5_Node000001_Node000006" class="edge">
<title>Node1&#45;&gt;Node6</title>
<g id="a_edge5_Node000001_Node000006"><a xlink:title=" ">
<path fill="none" stroke="#63b8ff" d="M81.29,-21.56C96.07,-19.35 112.72,-16.86 127.04,-14.72"/>
<polygon fill="#63b8ff" stroke="#63b8ff" points="127.62,-18.17 137,-13.23 126.59,-11.25 127.62,-18.17"/>
</a>
</g>
</g>
<!-- Node3 -->
<g id="Node000003" class="node">
<title>Node3</title>
<g id="a_Node000003"><a xlink:href="group__l4__ipc__api.html#ga7de45eb59ce852466362ea85da00299e" target="_top" xlink:title="Send a message to an object (do not wait for a reply).">
<polygon fill="white" stroke="#666666" points="319,-74 245,-74 245,-55 319,-55 319,-74"/>
<text text-anchor="middle" x="282" y="-62" font-family="Helvetica,sans-Serif" font-size="10.00">l4_ipc_send</text>
</a>
</g>
</g>
<!-- Node2&#45;&gt;Node3 -->
<g id="edge2_Node000002_Node000003" class="edge">
<title>Node2&#45;&gt;Node3</title>
<g id="a_edge2_Node000002_Node000003"><a xlink:title=" ">
<path fill="none" stroke="#63b8ff" d="M209.24,-53.46C217.65,-54.75 226.45,-56.11 234.88,-57.41"/>
<polygon fill="#63b8ff" stroke="#63b8ff" points="234.53,-60.89 244.95,-58.95 235.59,-53.97 234.53,-60.89"/>
</a>
</g>
</g>
<!-- Node5 -->
<g id="Node000005" class="node">
<title>Node5</title>
<g id="a_Node000005"><a xlink:href="group__l4__msgtag__api.html#ga661d71acad9d096fa990f7c94943bc78" target="_top" xlink:title="Create a message tag from the specified values.">
<polygon fill="white" stroke="#666666" points="316,-37 248,-37 248,-18 316,-18 316,-37"/>
<text text-anchor="middle" x="282" y="-25" font-family="Helvetica,sans-Serif" font-size="10.00">l4_msgtag</text>
</a>
</g>
</g>
<!-- Node2&#45;&gt;Node5 -->
<g id="edge4_Node000002_Node000005" class="edge">
<title>Node2&#45;&gt;Node5</title>
<g id="a_edge4_Node000002_Node000005"><a xlink:title=" ">
<path fill="none" stroke="#63b8ff" d="M209.24,-39.15C218.68,-37.62 228.61,-36.01 237.97,-34.49"/>
<polygon fill="#63b8ff" stroke="#63b8ff" points="238.55,-37.94 247.86,-32.88 237.43,-31.03 238.55,-37.94"/>
</a>
</g>
</g>
<!-- Node4 -->
<g id="Node000004" class="node">
<title>Node4</title>
<g id="a_Node000004"><a xlink:href="group__l4__ipc__api.html#ga1caa56d45e0453b3002e7f5cfdb0dec7" target="_top" xlink:title="Generic L4 object invocation.">
<polygon fill="white" stroke="#666666" points="400,-74 355,-74 355,-55 400,-55 400,-74"/>
<text text-anchor="middle" x="377.5" y="-62" font-family="Helvetica,sans-Serif" font-size="10.00">l4_ipc</text>
</a>
</g>
</g>
<!-- Node3&#45;&gt;Node4 -->
<g id="edge3_Node000003_Node000004" class="edge">
<title>Node3&#45;&gt;Node4</title>
<g id="a_edge3_Node000003_Node000004"><a xlink:title=" ">
<path fill="none" stroke="#63b8ff" d="M319.15,-64.5C327.51,-64.5 336.35,-64.5 344.52,-64.5"/>
<polygon fill="#63b8ff" stroke="#63b8ff" points="344.77,-68 354.77,-64.5 344.77,-61 344.77,-68"/>
</a>
</g>
</g>
</g>
</svg>
