<?xml version="1.0" encoding="UTF-8" standalone="no"?>
<!DOCTYPE svg PUBLIC "-//W3C//DTD SVG 1.1//EN"
 "http://www.w3.org/Graphics/SVG/1.1/DTD/svg11.dtd">
<!-- Generated by graphviz version 2.42.4 (0)
 -->
<!-- Title: l4_task_unmap Pages: 1 -->
<svg width="252pt" height="134pt"
 viewBox="0.00 0.00 252.00 134.00" xmlns="http://www.w3.org/2000/svg" xmlns:xlink="http://www.w3.org/1999/xlink">
<g id="graph0" class="graph" transform="scale(1 1) rotate(0) translate(4 130)">
<title>l4_task_unmap</title>
<!-- Node1 -->
<g id="Node000001" class="node">
<title>Node1</title>
<g id="a_Node000001"><a xlink:title="Revoke rights from the task.">
<polygon fill="#999999" stroke="#666666" points="244,-72.5 153,-72.5 153,-53.5 244,-53.5 244,-72.5"/>
<text text-anchor="middle" x="198.5" y="-60.5" font-family="Helvetica,sans-Serif" font-size="10.00">l4_task_unmap</text>
</a>
</g>
</g>
<!-- Node2 -->
<g id="Node000002" class="node">
<title>Node2</title>
<g id="a_Node000002"><a xlink:href="classL4Re_1_1Util_1_1Cap__alloc__base.html#afe4cbd695e9050e2827d17e7e960e67d" target="_top" xlink:title="Free a capability slot.">
<polygon fill="white" stroke="#666666" points="117,-126 0,-126 0,-96 117,-96 117,-126"/>
<text text-anchor="start" x="8" y="-114" font-family="Helvetica,sans-Serif" font-size="10.00">L4Re::Util::Cap_alloc</text>
<text text-anchor="middle" x="58.5" y="-103" font-family="Helvetica,sans-Serif" font-size="10.00">_base::free</text>
</a>
</g>
</g>
<!-- Node1&#45;&gt;Node2 -->
<g id="edge1_Node000001_Node000002" class="edge">
<title>Node1&#45;&gt;Node2</title>
<g id="a_edge1_Node000001_Node000002"><a xlink:title=" ">
<path fill="none" stroke="#63b8ff" d="M160.45,-75.89C142.7,-82.06 121.31,-89.5 102.81,-95.94"/>
<polygon fill="#63b8ff" stroke="#63b8ff" points="161.61,-79.19 169.91,-72.6 159.31,-72.58 161.61,-79.19"/>
</a>
</g>
</g>
<!-- Node3 -->
<g id="Node000003" class="node">
<title>Node3</title>
<g id="a_Node000003"><a xlink:href="classL4Re_1_1Util_1_1Counting__cap__alloc.html#a7aef62ca4affa236882604e4c774eb88" target="_top" xlink:title="Free the capability.">
<polygon fill="white" stroke="#666666" points="115,-78 2,-78 2,-48 115,-48 115,-78"/>
<text text-anchor="start" x="10" y="-66" font-family="Helvetica,sans-Serif" font-size="10.00">L4Re::Util::Counting</text>
<text text-anchor="middle" x="58.5" y="-55" font-family="Helvetica,sans-Serif" font-size="10.00">_cap_alloc::free</text>
</a>
</g>
</g>
<!-- Node1&#45;&gt;Node3 -->
<g id="edge2_Node000001_Node000003" class="edge">
<title>Node1&#45;&gt;Node3</title>
<g id="a_edge2_Node000001_Node000003"><a xlink:title=" ">
<path fill="none" stroke="#63b8ff" d="M142.67,-63C133.63,-63 124.25,-63 115.19,-63"/>
<polygon fill="#63b8ff" stroke="#63b8ff" points="142.7,-66.5 152.7,-63 142.7,-59.5 142.7,-66.5"/>
</a>
</g>
</g>
<!-- Node4 -->
<g id="Node000004" class="node">
<title>Node4</title>
<g id="a_Node000004"><a xlink:href="classL4Re_1_1Util_1_1Counting__cap__alloc.html#a09fcc26693f7e41bb69b1a9b3aa4aa6d" target="_top" xlink:title="Decrease the reference counter for a capability.">
<polygon fill="white" stroke="#666666" points="115,-30 2,-30 2,0 115,0 115,-30"/>
<text text-anchor="start" x="10" y="-18" font-family="Helvetica,sans-Serif" font-size="10.00">L4Re::Util::Counting</text>
<text text-anchor="middle" x="58.5" y="-7" font-family="Helvetica,sans-Serif" font-size="10.00">_cap_alloc::release</text>
</a>
</g>
</g>
<!-- Node1&#45;&gt;Node4 -->
<g id="edge3_Node000001_Node000004" class="edge">
<title>Node1&#45;&gt;Node4</title>
<g id="a_edge3_Node000001_Node000004"><a xlink:title=" ">
<path fill="none" stroke="#63b8ff" d="M160.45,-50.11C142.7,-43.94 121.31,-36.5 102.81,-30.06"/>
<polygon fill="#63b8ff" stroke="#63b8ff" points="159.31,-53.42 169.91,-53.4 161.61,-46.81 159.31,-53.42"/>
</a>
</g>
</g>
</g>
</svg>
