<?xml version="1.0" encoding="UTF-8" standalone="no"?>
<!DOCTYPE svg PUBLIC "-//W3C//DTD SVG 1.1//EN"
 "http://www.w3.org/Graphics/SVG/1.1/DTD/svg11.dtd">
<!-- Generated by graphviz version 2.42.4 (0)
 -->
<!-- Title: l4_icu_msi_info_u Pages: 1 -->
<svg width="348pt" height="175pt"
 viewBox="0.00 0.00 348.00 175.00" xmlns="http://www.w3.org/2000/svg" xmlns:xlink="http://www.w3.org/1999/xlink">
<g id="graph0" class="graph" transform="scale(1 1) rotate(0) translate(4 171)">
<title>l4_icu_msi_info_u</title>
<!-- Node1 -->
<g id="Node000001" class="node">
<title>Node1</title>
<g id="a_Node000001"><a xlink:title="Get MSI info about IRQ.">
<polygon fill="#999999" stroke="#666666" points="104,-93 0,-93 0,-74 104,-74 104,-93"/>
<text text-anchor="middle" x="52" y="-81" font-family="Helvetica,sans-Serif" font-size="10.00">l4_icu_msi_info_u</text>
</a>
</g>
</g>
<!-- Node2 -->
<g id="Node000002" class="node">
<title>Node2</title>
<g id="a_Node000002"><a xlink:href="group__l4__ipc__api.html#gab96d1669dcd54657237ee27b7f6862c6" target="_top" xlink:title="Object call (usual invocation).">
<polygon fill="white" stroke="#666666" points="233.5,-167 165.5,-167 165.5,-148 233.5,-148 233.5,-167"/>
<text text-anchor="middle" x="199.5" y="-155" font-family="Helvetica,sans-Serif" font-size="10.00">l4_ipc_call</text>
</a>
</g>
</g>
<!-- Node1&#45;&gt;Node2 -->
<g id="edge1_Node000001_Node000002" class="edge">
<title>Node1&#45;&gt;Node2</title>
<g id="a_edge1_Node000001_Node000002"><a xlink:title=" ">
<path fill="none" stroke="#63b8ff" d="M65.34,-93C81.65,-105.19 111.66,-126.32 140,-139.5 145,-141.82 150.37,-143.95 155.77,-145.85"/>
<polygon fill="#63b8ff" stroke="#63b8ff" points="154.82,-149.23 165.42,-149.04 157.02,-142.58 154.82,-149.23"/>
</a>
</g>
</g>
<!-- Node4 -->
<g id="Node000004" class="node">
<title>Node4</title>
<g id="a_Node000004"><a xlink:href="group__l4__msgtag__api.html#ga661d71acad9d096fa990f7c94943bc78" target="_top" xlink:title="Create a message tag from the specified values.">
<polygon fill="white" stroke="#666666" points="233.5,-130 165.5,-130 165.5,-111 233.5,-111 233.5,-130"/>
<text text-anchor="middle" x="199.5" y="-118" font-family="Helvetica,sans-Serif" font-size="10.00">l4_msgtag</text>
</a>
</g>
</g>
<!-- Node1&#45;&gt;Node4 -->
<g id="edge3_Node000001_Node000004" class="edge">
<title>Node1&#45;&gt;Node4</title>
<g id="a_edge3_Node000001_Node000004"><a xlink:title=" ">
<path fill="none" stroke="#63b8ff" d="M90.47,-93.03C110.3,-98.07 134.74,-104.29 155.35,-109.53"/>
<polygon fill="#63b8ff" stroke="#63b8ff" points="154.57,-112.94 165.13,-112.01 156.3,-106.16 154.57,-112.94"/>
</a>
</g>
</g>
<!-- Node5 -->
<g id="Node000005" class="node">
<title>Node5</title>
<g id="a_Node000005"><a xlink:href="group__l4__msgtag__api.html#ga52e71bb66855f4d78fa5c82b5f0c5a87" target="_top" xlink:title="Test for error indicator flag.">
<polygon fill="white" stroke="#666666" points="259,-93 140,-93 140,-74 259,-74 259,-93"/>
<text text-anchor="middle" x="199.5" y="-81" font-family="Helvetica,sans-Serif" font-size="10.00">l4_msgtag_has_error</text>
</a>
</g>
</g>
<!-- Node1&#45;&gt;Node5 -->
<g id="edge4_Node000001_Node000005" class="edge">
<title>Node1&#45;&gt;Node5</title>
<g id="a_edge4_Node000001_Node000005"><a xlink:title=" ">
<path fill="none" stroke="#63b8ff" d="M104.3,-83.5C112.59,-83.5 121.29,-83.5 129.91,-83.5"/>
<polygon fill="#63b8ff" stroke="#63b8ff" points="129.97,-87 139.97,-83.5 129.97,-80 129.97,-87"/>
</a>
</g>
</g>
<!-- Node6 -->
<g id="Node000006" class="node">
<title>Node6</title>
<g id="a_Node000006"><a xlink:href="group__l4__msgtag__api.html#ga6d29d688c50ece7ec55f3c6ed749d375" target="_top" xlink:title="Get the number of untyped words.">
<polygon fill="white" stroke="#666666" points="250.5,-56 148.5,-56 148.5,-37 250.5,-37 250.5,-56"/>
<text text-anchor="middle" x="199.5" y="-44" font-family="Helvetica,sans-Serif" font-size="10.00">l4_msgtag_words</text>
</a>
</g>
</g>
<!-- Node1&#45;&gt;Node6 -->
<g id="edge5_Node000001_Node000006" class="edge">
<title>Node1&#45;&gt;Node6</title>
<g id="a_edge5_Node000001_Node000006"><a xlink:title=" ">
<path fill="none" stroke="#63b8ff" d="M90.47,-73.97C108.98,-69.26 131.52,-63.53 151.2,-58.53"/>
<polygon fill="#63b8ff" stroke="#63b8ff" points="152.08,-61.92 160.9,-56.06 150.35,-55.13 152.08,-61.92"/>
</a>
</g>
</g>
<!-- Node7 -->
<g id="Node000007" class="node">
<title>Node7</title>
<g id="a_Node000007"><a xlink:href="group__l4__timeout__api.html#gab6180d7a9aacb569666fea7aa8800c31" target="_top" xlink:title="Get index into 64bit message registers alias from native&#45;sized index.">
<polygon fill="white" stroke="#666666" points="251,-19 148,-19 148,0 251,0 251,-19"/>
<text text-anchor="middle" x="199.5" y="-7" font-family="Helvetica,sans-Serif" font-size="10.00">l4_utcb_mr64_idx</text>
</a>
</g>
</g>
<!-- Node1&#45;&gt;Node7 -->
<g id="edge6_Node000001_Node000007" class="edge">
<title>Node1&#45;&gt;Node7</title>
<g id="a_edge6_Node000001_Node000007"><a xlink:title=" ">
<path fill="none" stroke="#63b8ff" d="M65.97,-73.84C82.47,-61.9 112.18,-41.56 140,-28.5 144.65,-26.32 149.63,-24.28 154.63,-22.42"/>
<polygon fill="#63b8ff" stroke="#63b8ff" points="155.95,-25.66 164.23,-19.05 153.63,-19.06 155.95,-25.66"/>
</a>
</g>
</g>
<!-- Node3 -->
<g id="Node000003" class="node">
<title>Node3</title>
<g id="a_Node000003"><a xlink:href="group__l4__ipc__api.html#ga1caa56d45e0453b3002e7f5cfdb0dec7" target="_top" xlink:title="Generic L4 object invocation.">
<polygon fill="white" stroke="#666666" points="340,-167 295,-167 295,-148 340,-148 340,-167"/>
<text text-anchor="middle" x="317.5" y="-155" font-family="Helvetica,sans-Serif" font-size="10.00">l4_ipc</text>
</a>
</g>
</g>
<!-- Node2&#45;&gt;Node3 -->
<g id="edge2_Node000002_Node000003" class="edge">
<title>Node2&#45;&gt;Node3</title>
<g id="a_edge2_Node000002_Node000003"><a xlink:title=" ">
<path fill="none" stroke="#63b8ff" d="M233.74,-157.5C249.73,-157.5 268.82,-157.5 284.63,-157.5"/>
<polygon fill="#63b8ff" stroke="#63b8ff" points="284.97,-161 294.97,-157.5 284.97,-154 284.97,-161"/>
</a>
</g>
</g>
</g>
</svg>
