<?xml version="1.0" encoding="UTF-8" standalone="no"?>
<!DOCTYPE svg PUBLIC "-//W3C//DTD SVG 1.1//EN"
 "http://www.w3.org/Graphics/SVG/1.1/DTD/svg11.dtd">
<!-- Generated by graphviz version 2.43.0 (0)
 -->
<!-- Title: l4_touch_ro Pages: 1 -->
<svg width="180pt" height="45pt"
 viewBox="0.00 0.00 180.00 45.00" xmlns="http://www.w3.org/2000/svg" xmlns:xlink="http://www.w3.org/1999/xlink">
<g id="graph0" class="graph" transform="scale(1 1) rotate(0) translate(4 41)">
<title>l4_touch_ro</title>
<!-- Node1 -->
<g id="Node000001" class="node">
<title>Node1</title>
<g id="a_Node000001"><a xlink:title="Touch data area to force mapping (read&#45;only)">
<polygon fill="#999999" stroke="#666666" points="172,-19 99,-19 99,0 172,0 172,-19"/>
<text text-anchor="middle" x="135.5" y="-7" font-family="Helvetica,sans-Serif" font-size="10.00">l4_touch_ro</text>
</a>
</g>
</g>
<!-- Node1&#45;&gt;Node1 -->
<g id="edge1_Node000001_Node000001" class="edge">
<title>Node1&#45;&gt;Node1</title>
<g id="a_edge1_Node000001_Node000001"><a xlink:title=" ">
<path fill="none" stroke="#63b8ff" d="M154.76,-28.55C153.47,-33.38 147.05,-37 135.5,-37 117.02,-37 111.67,-27.73 119.47,-19.08"/>
<polygon fill="#63b8ff" stroke="#63b8ff" points="158.07,-27.42 151.53,-19.08 151.44,-29.68 158.07,-27.42"/>
</a>
</g>
</g>
<!-- Node2 -->
<g id="Node000002" class="node">
<title>Node2</title>
<g id="a_Node000002"><a xlink:href="group__l4util__api.html#ga88934d990c73f40eebe52998d894ff69" target="_top" xlink:title="Suspend thread for a period of us microseconds.">
<polygon fill="white" stroke="#666666" points="63,-19 0,-19 0,0 63,0 63,-19"/>
<text text-anchor="middle" x="31.5" y="-7" font-family="Helvetica,sans-Serif" font-size="10.00">l4_usleep</text>
</a>
</g>
</g>
<!-- Node1&#45;&gt;Node2 -->
<g id="edge2_Node000001_Node000002" class="edge">
<title>Node1&#45;&gt;Node2</title>
<g id="a_edge2_Node000001_Node000002"><a xlink:title=" ">
<path fill="none" stroke="#63b8ff" d="M88.82,-9.5C80.16,-9.5 71.3,-9.5 63.24,-9.5"/>
<polygon fill="#63b8ff" stroke="#63b8ff" points="88.83,-13 98.83,-9.5 88.83,-6 88.83,-13"/>
</a>
</g>
</g>
</g>
</svg>
