<?xml version="1.0" encoding="UTF-8" standalone="no"?>
<!DOCTYPE svg PUBLIC "-//W3C//DTD SVG 1.1//EN"
 "http://www.w3.org/Graphics/SVG/1.1/DTD/svg11.dtd">
<!-- Generated by graphviz version 2.43.0 (0)
 -->
<!-- Title: l4_round_size Pages: 1 -->
<svg width="451pt" height="200pt"
 viewBox="0.00 0.00 451.00 199.50" xmlns="http://www.w3.org/2000/svg" xmlns:xlink="http://www.w3.org/1999/xlink">
<g id="graph0" class="graph" transform="scale(1 1) rotate(0) translate(4 195.5)">
<title>l4_round_size</title>
<!-- Node1 -->
<g id="Node000001" class="node">
<title>Node1</title>
<g id="a_Node000001"><a xlink:title="Round value up to the next alignment with bits size.">
<polygon fill="#999999" stroke="#666666" points="443,-110.5 360,-110.5 360,-91.5 443,-91.5 443,-110.5"/>
<text text-anchor="middle" x="401.5" y="-98.5" font-family="Helvetica,sans-Serif" font-size="10.00">l4_round_size</text>
</a>
</g>
</g>
<!-- Node2 -->
<g id="Node000002" class="node">
<title>Node2</title>
<g id="a_Node000002"><a xlink:href="classcxx_1_1List__alloc.html#a9028a4d3bf8a79f61b2d6ee16736f51a" target="_top" xlink:title="Allocate a memory block of min &lt;= size &lt;= max.">
<polygon fill="white" stroke="#666666" points="324,-191.5 182,-191.5 182,-172.5 324,-172.5 324,-191.5"/>
<text text-anchor="middle" x="253" y="-179.5" font-family="Helvetica,sans-Serif" font-size="10.00">cxx::List_alloc::alloc_max</text>
</a>
</g>
</g>
<!-- Node1&#45;&gt;Node2 -->
<g id="edge1_Node000001_Node000002" class="edge">
<title>Node1&#45;&gt;Node2</title>
<g id="a_edge1_Node000001_Node000002"><a xlink:title=" ">
<path fill="none" stroke="#63b8ff" d="M381.95,-117.42C367.1,-129.89 345.31,-146.76 324,-158 312.98,-163.81 300.26,-168.67 288.71,-172.45"/>
<polygon fill="#63b8ff" stroke="#63b8ff" points="384.52,-119.83 389.83,-110.66 379.96,-114.51 384.52,-119.83"/>
</a>
</g>
</g>
<!-- Node3 -->
<g id="Node000003" class="node">
<title>Node3</title>
<g id="a_Node000003"><a xlink:href="classL4virtio_1_1Driver_1_1Virtio__net__device.html#aa5d34e5156db18773cf46c2d06a2aa3a" target="_top" xlink:title="Establish a connection to the device and set up shared memory.">
<polygon fill="white" stroke="#666666" points="146,-150 0,-150 0,-120 146,-120 146,-150"/>
<text text-anchor="start" x="8" y="-138" font-family="Helvetica,sans-Serif" font-size="10.00">L4virtio::Driver::Virtio</text>
<text text-anchor="middle" x="73" y="-127" font-family="Helvetica,sans-Serif" font-size="10.00">_net_device::setup_device</text>
</a>
</g>
</g>
<!-- Node1&#45;&gt;Node3 -->
<g id="edge2_Node000001_Node000003" class="edge">
<title>Node1&#45;&gt;Node3</title>
<g id="a_edge2_Node000001_Node000003"><a xlink:title=" ">
<path fill="none" stroke="#63b8ff" d="M366.25,-113.87C353.21,-118.2 338.1,-122.55 324,-125 264.73,-135.3 196.41,-137.38 146.19,-137.12"/>
<polygon fill="#63b8ff" stroke="#63b8ff" points="367.44,-117.16 375.76,-110.59 365.17,-110.54 367.44,-117.16"/>
</a>
</g>
</g>
<!-- Node4 -->
<g id="Node000004" class="node">
<title>Node4</title>
<g id="a_Node000004"><a xlink:href="classL4virtio_1_1Driver_1_1Block__device.html#af509c2785789dd2daf6b13f3369c6581" target="_top" xlink:title="Establish a connection to the device and set up shared memory.">
<polygon fill="white" stroke="#666666" points="135.5,-94 10.5,-94 10.5,-64 135.5,-64 135.5,-94"/>
<text text-anchor="start" x="18.5" y="-82" font-family="Helvetica,sans-Serif" font-size="10.00">L4virtio::Driver::Block</text>
<text text-anchor="middle" x="73" y="-71" font-family="Helvetica,sans-Serif" font-size="10.00">_device::setup_device</text>
</a>
</g>
</g>
<!-- Node1&#45;&gt;Node4 -->
<g id="edge3_Node000001_Node000004" class="edge">
<title>Node1&#45;&gt;Node4</title>
<g id="a_edge3_Node000001_Node000004"><a xlink:title=" ">
<path fill="none" stroke="#63b8ff" d="M366.9,-88.03C353.73,-83.6 338.36,-79.2 324,-77 260.29,-67.24 186.37,-69.48 135.52,-73.08"/>
<polygon fill="#63b8ff" stroke="#63b8ff" points="365.89,-91.39 376.49,-91.4 368.21,-84.78 365.89,-91.39"/>
</a>
</g>
</g>
<!-- Node5 -->
<g id="Node000005" class="node">
<title>Node5</title>
<g id="a_Node000005"><a xlink:href="classL4virtio_1_1Virtqueue.html#a437c0ed2eb83201cc69c41d011503036" target="_top" xlink:title="Enable this queue.">
<polygon fill="white" stroke="#666666" points="306.5,-30 199.5,-30 199.5,0 306.5,0 306.5,-30"/>
<text text-anchor="start" x="207.5" y="-18" font-family="Helvetica,sans-Serif" font-size="10.00">L4virtio::Virtqueue</text>
<text text-anchor="middle" x="253" y="-7" font-family="Helvetica,sans-Serif" font-size="10.00">::setup_simple</text>
</a>
</g>
</g>
<!-- Node1&#45;&gt;Node5 -->
<g id="edge4_Node000001_Node000005" class="edge">
<title>Node1&#45;&gt;Node5</title>
<g id="a_edge4_Node000001_Node000005"><a xlink:title=" ">
<path fill="none" stroke="#63b8ff" d="M381.22,-84.52C366.29,-72.29 344.71,-55.76 324,-44 314.96,-38.87 304.84,-34.14 295.16,-30.06"/>
<polygon fill="#63b8ff" stroke="#63b8ff" points="379.27,-87.45 389.2,-91.16 383.75,-82.07 379.27,-87.45"/>
</a>
</g>
</g>
<!-- Node7 -->
<g id="Node000007" class="node">
<title>Node7</title>
<g id="a_Node000007"><a xlink:href="classL4virtio_1_1Virtqueue.html#a6f8cdc52ebe6322c3023e05e0e055293" target="_top" xlink:title="Calculate the total size for a virtqueue of the given dimensions.">
<polygon fill="white" stroke="#666666" points="306.5,-116 199.5,-116 199.5,-86 306.5,-86 306.5,-116"/>
<text text-anchor="start" x="207.5" y="-104" font-family="Helvetica,sans-Serif" font-size="10.00">L4virtio::Virtqueue</text>
<text text-anchor="middle" x="253" y="-93" font-family="Helvetica,sans-Serif" font-size="10.00">::total_size</text>
</a>
</g>
</g>
<!-- Node1&#45;&gt;Node7 -->
<g id="edge6_Node000001_Node000007" class="edge">
<title>Node1&#45;&gt;Node7</title>
<g id="a_edge6_Node000001_Node000007"><a xlink:title=" ">
<path fill="none" stroke="#63b8ff" d="M349.38,-101C335.56,-101 320.57,-101 306.66,-101"/>
<polygon fill="#63b8ff" stroke="#63b8ff" points="349.69,-104.5 359.69,-101 349.69,-97.5 349.69,-104.5"/>
</a>
</g>
</g>
<!-- Node6 -->
<g id="Node000006" class="node">
<title>Node6</title>
<g id="a_Node000006"><a xlink:href="classL4virtio_1_1Driver_1_1Virtqueue.html#a285bae271e6acfe9c5bfa3df388c6b17" target="_top" xlink:title="Initialize this virtqueue.">
<polygon fill="white" stroke="#666666" points="144.5,-30 1.5,-30 1.5,0 144.5,0 144.5,-30"/>
<text text-anchor="start" x="9.5" y="-18" font-family="Helvetica,sans-Serif" font-size="10.00">L4virtio::Driver::Virtqueue</text>
<text text-anchor="middle" x="73" y="-7" font-family="Helvetica,sans-Serif" font-size="10.00">::init_queue</text>
</a>
</g>
</g>
<!-- Node5&#45;&gt;Node6 -->
<g id="edge5_Node000005_Node000006" class="edge">
<title>Node5&#45;&gt;Node6</title>
<g id="a_edge5_Node000005_Node000006"><a xlink:title=" ">
<path fill="none" stroke="#63b8ff" d="M188.83,-15C174.48,-15 159.15,-15 144.53,-15"/>
<polygon fill="#63b8ff" stroke="#63b8ff" points="189.08,-18.5 199.08,-15 189.08,-11.5 189.08,-18.5"/>
</a>
</g>
</g>
<!-- Node7&#45;&gt;Node3 -->
<g id="edge7_Node000007_Node000003" class="edge">
<title>Node7&#45;&gt;Node3</title>
<g id="a_edge7_Node000007_Node000003"><a xlink:title=" ">
<path fill="none" stroke="#63b8ff" d="M189.14,-113.01C175.24,-115.66 160.4,-118.5 146.16,-121.22"/>
<polygon fill="#63b8ff" stroke="#63b8ff" points="189.91,-116.42 199.08,-111.11 188.6,-109.55 189.91,-116.42"/>
</a>
</g>
</g>
<!-- Node7&#45;&gt;Node4 -->
<g id="edge8_Node000007_Node000004" class="edge">
<title>Node7&#45;&gt;Node4</title>
<g id="a_edge8_Node000007_Node000004"><a xlink:title=" ">
<path fill="none" stroke="#63b8ff" d="M189.08,-93.22C171.78,-91.09 153.04,-88.77 135.8,-86.64"/>
<polygon fill="#63b8ff" stroke="#63b8ff" points="188.72,-96.71 199.08,-94.46 189.58,-89.76 188.72,-96.71"/>
</a>
</g>
</g>
</g>
</svg>
