<?xml version="1.0" encoding="UTF-8" standalone="no"?>
<!DOCTYPE svg PUBLIC "-//W3C//DTD SVG 1.1//EN"
 "http://www.w3.org/Graphics/SVG/1.1/DTD/svg11.dtd">
<!-- Generated by graphviz version 2.42.4 (0)
 -->
<!-- Title: l4re_ma_alloc_align_srv Pages: 1 -->
<svg width="292pt" height="64pt"
 viewBox="0.00 0.00 292.00 64.00" xmlns="http://www.w3.org/2000/svg" xmlns:xlink="http://www.w3.org/1999/xlink">
<g id="graph0" class="graph" transform="scale(1 1) rotate(0) translate(4 60)">
<title>l4re_ma_alloc_align_srv</title>
<!-- Node1 -->
<g id="Node000001" class="node">
<title>Node1</title>
<g id="a_Node000001"><a xlink:title="Allocate memory.">
<polygon fill="#999999" stroke="#666666" points="284,-37 150,-37 150,-18 284,-18 284,-37"/>
<text text-anchor="middle" x="217" y="-25" font-family="Helvetica,sans-Serif" font-size="10.00">l4re_ma_alloc_align_srv</text>
</a>
</g>
</g>
<!-- Node2 -->
<g id="Node000002" class="node">
<title>Node2</title>
<g id="a_Node000002"><a xlink:href="group__api__l4re__c__mem__alloc.html#gab076f7bcca238a6f29bc1d3cf816929e" target="_top" xlink:title="Allocate memory.">
<polygon fill="white" stroke="#666666" points="99.5,-56 14.5,-56 14.5,-37 99.5,-37 99.5,-56"/>
<text text-anchor="middle" x="57" y="-44" font-family="Helvetica,sans-Serif" font-size="10.00">l4re_ma_alloc</text>
</a>
</g>
</g>
<!-- Node1&#45;&gt;Node2 -->
<g id="edge1_Node000001_Node000002" class="edge">
<title>Node1&#45;&gt;Node2</title>
<g id="a_edge1_Node000001_Node000002"><a xlink:title=" ">
<path fill="none" stroke="#63b8ff" d="M139.93,-36.65C126.17,-38.3 112.28,-39.97 99.95,-41.46"/>
<polygon fill="#63b8ff" stroke="#63b8ff" points="140.4,-40.12 149.91,-35.45 139.56,-33.17 140.4,-40.12"/>
</a>
</g>
</g>
<!-- Node3 -->
<g id="Node000003" class="node">
<title>Node3</title>
<g id="a_Node000003"><a xlink:href="group__api__l4re__c__mem__alloc.html#gad500c9bdd19d15e86ae85e595162307b" target="_top" xlink:title="Allocate memory.">
<polygon fill="white" stroke="#666666" points="114,-19 0,-19 0,0 114,0 114,-19"/>
<text text-anchor="middle" x="57" y="-7" font-family="Helvetica,sans-Serif" font-size="10.00">l4re_ma_alloc_align</text>
</a>
</g>
</g>
<!-- Node1&#45;&gt;Node3 -->
<g id="edge2_Node000001_Node000003" class="edge">
<title>Node1&#45;&gt;Node3</title>
<g id="a_edge2_Node000001_Node000003"><a xlink:title=" ">
<path fill="none" stroke="#63b8ff" d="M139.85,-18.82C131.24,-17.84 122.59,-16.86 114.3,-15.91"/>
<polygon fill="#63b8ff" stroke="#63b8ff" points="139.58,-22.32 149.91,-19.97 140.37,-15.36 139.58,-22.32"/>
</a>
</g>
</g>
</g>
</svg>
