<?xml version="1.0" encoding="UTF-8" standalone="no"?>
<!DOCTYPE svg PUBLIC "-//W3C//DTD SVG 1.1//EN"
 "http://www.w3.org/Graphics/SVG/1.1/DTD/svg11.dtd">
<!-- Generated by graphviz version 2.42.4 (0)
 -->
<!-- Title: l4_ns_to_tsc Pages: 1 -->
<svg width="218pt" height="64pt"
 viewBox="0.00 0.00 218.00 64.00" xmlns="http://www.w3.org/2000/svg" xmlns:xlink="http://www.w3.org/1999/xlink">
<g id="graph0" class="graph" transform="scale(1 1) rotate(0) translate(4 60)">
<title>l4_ns_to_tsc</title>
<!-- Node1 -->
<g id="Node000001" class="node">
<title>Node1</title>
<g id="a_Node000001"><a xlink:title="Convert nano seconds into CPU ticks.">
<polygon fill="#999999" stroke="#666666" points="210,-37 133,-37 133,-18 210,-18 210,-37"/>
<text text-anchor="middle" x="171.5" y="-25" font-family="Helvetica,sans-Serif" font-size="10.00">l4_ns_to_tsc</text>
</a>
</g>
</g>
<!-- Node2 -->
<g id="Node000002" class="node">
<title>Node2</title>
<g id="a_Node000002"><a xlink:href="group__l4util__tsc.html#gad36e512741c07634ab67562ff7052543" target="_top" xlink:title="Wait busy for a small amount of time.">
<polygon fill="white" stroke="#666666" points="97,-56 0,-56 0,-37 97,-37 97,-56"/>
<text text-anchor="middle" x="48.5" y="-44" font-family="Helvetica,sans-Serif" font-size="10.00">l4_busy_wait_ns</text>
</a>
</g>
</g>
<!-- Node1&#45;&gt;Node2 -->
<g id="edge1_Node000001_Node000002" class="edge">
<title>Node1&#45;&gt;Node2</title>
<g id="a_edge1_Node000001_Node000002"><a xlink:title=" ">
<path fill="none" stroke="#63b8ff" d="M122.87,-34.98C114.48,-36.3 105.75,-37.67 97.36,-38.98"/>
<polygon fill="#63b8ff" stroke="#63b8ff" points="123.54,-38.42 132.88,-33.41 122.46,-31.5 123.54,-38.42"/>
</a>
</g>
</g>
<!-- Node3 -->
<g id="Node000003" class="node">
<title>Node3</title>
<g id="a_Node000003"><a xlink:href="group__l4util__tsc.html#gab6a2848f2fb0249ac87b87053e34ebbe" target="_top" xlink:title="Wait busy for a small amount of time.">
<polygon fill="white" stroke="#666666" points="97,-19 0,-19 0,0 97,0 97,-19"/>
<text text-anchor="middle" x="48.5" y="-7" font-family="Helvetica,sans-Serif" font-size="10.00">l4_busy_wait_us</text>
</a>
</g>
</g>
<!-- Node1&#45;&gt;Node3 -->
<g id="edge2_Node000001_Node000003" class="edge">
<title>Node1&#45;&gt;Node3</title>
<g id="a_edge2_Node000001_Node000003"><a xlink:title=" ">
<path fill="none" stroke="#63b8ff" d="M122.87,-20.41C114.48,-19.17 105.75,-17.87 97.36,-16.62"/>
<polygon fill="#63b8ff" stroke="#63b8ff" points="122.47,-23.89 132.88,-21.9 123.5,-16.97 122.47,-23.89"/>
</a>
</g>
</g>
</g>
</svg>
