<?xml version="1.0" encoding="UTF-8" standalone="no"?>
<!DOCTYPE svg PUBLIC "-//W3C//DTD SVG 1.1//EN"
 "http://www.w3.org/Graphics/SVG/1.1/DTD/svg11.dtd">
<!-- Generated by graphviz version 2.43.0 (0)
 -->
<!-- Title: l4_ipc_sleep_us Pages: 1 -->
<svg width="417pt" height="64pt"
 viewBox="0.00 0.00 417.00 64.00" xmlns="http://www.w3.org/2000/svg" xmlns:xlink="http://www.w3.org/1999/xlink">
<g id="graph0" class="graph" transform="scale(1 1) rotate(0) translate(4 60)">
<title>l4_ipc_sleep_us</title>
<!-- Node1 -->
<g id="Node000001" class="node">
<title>Node1</title>
<g id="a_Node000001"><a xlink:title="Sleep for a certain amount of microseconds.">
<polygon fill="#999999" stroke="#666666" points="93,-37 0,-37 0,-18 93,-18 93,-37"/>
<text text-anchor="middle" x="46.5" y="-25" font-family="Helvetica,sans-Serif" font-size="10.00">l4_ipc_sleep_us</text>
</a>
</g>
</g>
<!-- Node2 -->
<g id="Node000002" class="node">
<title>Node2</title>
<g id="a_Node000002"><a xlink:href="group__l4__ipc__api.html#gac3b4a3b13e77b799dc154c57a04cdd9b" target="_top" xlink:title="Sleep for an amount of time.">
<polygon fill="white" stroke="#666666" points="206,-56 129,-56 129,-37 206,-37 206,-56"/>
<text text-anchor="middle" x="167.5" y="-44" font-family="Helvetica,sans-Serif" font-size="10.00">l4_ipc_sleep</text>
</a>
</g>
</g>
<!-- Node1&#45;&gt;Node2 -->
<g id="edge1_Node000001_Node000002" class="edge">
<title>Node1&#45;&gt;Node2</title>
<g id="a_edge1_Node000001_Node000002"><a xlink:title=" ">
<path fill="none" stroke="#63b8ff" d="M93.17,-34.79C101.56,-36.13 110.33,-37.53 118.78,-38.88"/>
<polygon fill="#63b8ff" stroke="#63b8ff" points="118.44,-42.37 128.87,-40.49 119.55,-35.46 118.44,-42.37"/>
</a>
</g>
</g>
<!-- Node5 -->
<g id="Node000005" class="node">
<title>Node5</title>
<g id="a_Node000005"><a xlink:href="group__l4__timeout__api.html#ga3345aebfb9e55eccf20ff8b765197bae" target="_top" xlink:title="Combine send and receive timeout in a timeout.">
<polygon fill="white" stroke="#666666" points="202,-19 133,-19 133,0 202,0 202,-19"/>
<text text-anchor="middle" x="167.5" y="-7" font-family="Helvetica,sans-Serif" font-size="10.00">l4_timeout</text>
</a>
</g>
</g>
<!-- Node1&#45;&gt;Node5 -->
<g id="edge4_Node000001_Node000005" class="edge">
<title>Node1&#45;&gt;Node5</title>
<g id="a_edge4_Node000001_Node000005"><a xlink:title=" ">
<path fill="none" stroke="#63b8ff" d="M93.17,-20.59C102.89,-19.12 113.14,-17.57 122.78,-16.11"/>
<polygon fill="#63b8ff" stroke="#63b8ff" points="123.6,-19.53 132.97,-14.57 122.55,-12.61 123.6,-19.53"/>
</a>
</g>
</g>
<!-- Node3 -->
<g id="Node000003" class="node">
<title>Node3</title>
<g id="a_Node000003"><a xlink:href="group__l4__ipc__api.html#ga3a8617092651c67f9ef1670b53fce66c" target="_top" xlink:title="Wait for a message from a specific source.">
<polygon fill="white" stroke="#666666" points="328,-56 242,-56 242,-37 328,-37 328,-56"/>
<text text-anchor="middle" x="285" y="-44" font-family="Helvetica,sans-Serif" font-size="10.00">l4_ipc_receive</text>
</a>
</g>
</g>
<!-- Node2&#45;&gt;Node3 -->
<g id="edge2_Node000002_Node000003" class="edge">
<title>Node2&#45;&gt;Node3</title>
<g id="a_edge2_Node000002_Node000003"><a xlink:title=" ">
<path fill="none" stroke="#63b8ff" d="M206.32,-46.5C214.36,-46.5 223,-46.5 231.48,-46.5"/>
<polygon fill="#63b8ff" stroke="#63b8ff" points="231.7,-50 241.7,-46.5 231.7,-43 231.7,-50"/>
</a>
</g>
</g>
<!-- Node4 -->
<g id="Node000004" class="node">
<title>Node4</title>
<g id="a_Node000004"><a xlink:href="group__l4__ipc__api.html#ga1caa56d45e0453b3002e7f5cfdb0dec7" target="_top" xlink:title="Generic L4 object invocation.">
<polygon fill="white" stroke="#666666" points="409,-56 364,-56 364,-37 409,-37 409,-56"/>
<text text-anchor="middle" x="386.5" y="-44" font-family="Helvetica,sans-Serif" font-size="10.00">l4_ipc</text>
</a>
</g>
</g>
<!-- Node3&#45;&gt;Node4 -->
<g id="edge3_Node000003_Node000004" class="edge">
<title>Node3&#45;&gt;Node4</title>
<g id="a_edge3_Node000003_Node000004"><a xlink:title=" ">
<path fill="none" stroke="#63b8ff" d="M328.2,-46.5C336.74,-46.5 345.59,-46.5 353.7,-46.5"/>
<polygon fill="#63b8ff" stroke="#63b8ff" points="353.86,-50 363.86,-46.5 353.86,-43 353.86,-50"/>
</a>
</g>
</g>
</g>
</svg>
