<?xml version="1.0" encoding="UTF-8" standalone="no"?>
<!DOCTYPE svg PUBLIC "-//W3C//DTD SVG 1.1//EN"
 "http://www.w3.org/Graphics/SVG/1.1/DTD/svg11.dtd">
<!-- Generated by graphviz version 2.43.0 (0)
 -->
<!-- Title: l4_ipc_wait Pages: 1 -->
<svg width="249pt" height="64pt"
 viewBox="0.00 0.00 249.00 64.00" xmlns="http://www.w3.org/2000/svg" xmlns:xlink="http://www.w3.org/1999/xlink">
<g id="graph0" class="graph" transform="scale(1 1) rotate(0) translate(4 60)">
<title>l4_ipc_wait</title>
<!-- Node1 -->
<g id="Node000001" class="node">
<title>Node1</title>
<g id="a_Node000001"><a xlink:title="Wait for an incoming message from any possible sender.">
<polygon fill="#999999" stroke="#666666" points="241,-37 170,-37 170,-18 241,-18 241,-37"/>
<text text-anchor="middle" x="205.5" y="-25" font-family="Helvetica,sans-Serif" font-size="10.00">l4_ipc_wait</text>
</a>
</g>
</g>
<!-- Node2 -->
<g id="Node000002" class="node">
<title>Node2</title>
<g id="a_Node000002"><a xlink:href="classL4_1_1Server.html#a21578e92d497db8ab2a2a88b356fa427" target="_top" xlink:title="Internal implementation for reply and wait.">
<polygon fill="white" stroke="#666666" points="134,-56 0,-56 0,-37 134,-37 134,-56"/>
<text text-anchor="middle" x="67" y="-44" font-family="Helvetica,sans-Serif" font-size="10.00">L4::Server::reply_n_wait</text>
</a>
</g>
</g>
<!-- Node1&#45;&gt;Node2 -->
<g id="edge1_Node000001_Node000002" class="edge">
<title>Node1&#45;&gt;Node2</title>
<g id="a_edge1_Node000001_Node000002"><a xlink:title=" ">
<path fill="none" stroke="#63b8ff" d="M159.64,-33.74C151.44,-34.89 142.73,-36.1 134.07,-37.3"/>
<polygon fill="#63b8ff" stroke="#63b8ff" points="160.28,-37.19 169.7,-32.34 159.32,-30.26 160.28,-37.19"/>
</a>
</g>
</g>
<!-- Node3 -->
<g id="Node000003" class="node">
<title>Node3</title>
<g id="a_Node000003"><a xlink:href="classL4_1_1Ipc_1_1Istream.html#aeefe739d106daa026a1d94ade34f1d97" target="_top" xlink:title="Wait for an incoming message from any sender.">
<polygon fill="white" stroke="#666666" points="126.5,-19 7.5,-19 7.5,0 126.5,0 126.5,-19"/>
<text text-anchor="middle" x="67" y="-7" font-family="Helvetica,sans-Serif" font-size="10.00">L4::Ipc::Istream::wait</text>
</a>
</g>
</g>
<!-- Node1&#45;&gt;Node3 -->
<g id="edge2_Node000001_Node000003" class="edge">
<title>Node1&#45;&gt;Node3</title>
<g id="a_edge2_Node000001_Node000003"><a xlink:title=" ">
<path fill="none" stroke="#63b8ff" d="M159.5,-21.57C148.98,-20.18 137.62,-18.68 126.6,-17.23"/>
<polygon fill="#63b8ff" stroke="#63b8ff" points="159.33,-25.07 169.7,-22.91 160.25,-18.13 159.33,-25.07"/>
</a>
</g>
</g>
</g>
</svg>
