<?xml version="1.0" encoding="UTF-8" standalone="no"?>
<!DOCTYPE svg PUBLIC "-//W3C//DTD SVG 1.1//EN"
 "http://www.w3.org/Graphics/SVG/1.1/DTD/svg11.dtd">
<!-- Generated by graphviz version 2.43.0 (0)
 -->
<!-- Title: L4Re C++ Interface Pages: 1 -->
<svg width="292pt" height="483pt"
 viewBox="0.00 0.00 292.00 483.00" xmlns="http://www.w3.org/2000/svg" xmlns:xlink="http://www.w3.org/1999/xlink">
<g id="graph0" class="graph" transform="scale(1 1) rotate(0) translate(4 479)">
<title>L4Re C++ Interface</title>
<!-- Node2 -->
<g id="Node000002" class="node">
<title>Node2</title>
<g id="a_Node000002"><a xlink:href="group__api__l4aux.html" target="_top" xlink:title=" ">
<polygon fill="white" stroke="#666666" points="259,-475 174,-475 174,-456 259,-456 259,-475"/>
<text text-anchor="middle" x="216.5" y="-463" font-family="Helvetica,sans-Serif" font-size="10.00">Auxiliary data</text>
</a>
</g>
</g>
<!-- Node1 -->
<g id="Node000001" class="node">
<title>Node1</title>
<g id="a_Node000001"><a xlink:title="Documentation of the L4 Runtime Environment C++ API.">
<polygon fill="#999999" stroke="#666666" points="113,-241 0,-241 0,-222 113,-222 113,-241"/>
<text text-anchor="middle" x="56.5" y="-229" font-family="Helvetica,sans-Serif" font-size="10.00">L4Re C++ Interface</text>
</a>
</g>
</g>
<!-- Node1&#45;&gt;Node2 -->
<g id="edge1" class="edge">
<title>Node1&#45;&gt;Node2</title>
<path fill="none" stroke="black" d="M60.08,-251.39C66.67,-293.99 88.14,-394.42 149,-447.5 156.03,-453.63 164.95,-457.7 173.96,-460.39"/>
<polygon fill="black" stroke="black" points="63.53,-250.84 58.65,-241.44 56.6,-251.83 63.53,-250.84"/>
</g>
<!-- Node4 -->
<g id="Node000004" class="node">
<title>Node4</title>
<g id="a_Node000004"><a xlink:href="group__api__l4re__console.html" target="_top" xlink:title="Console interface.">
<polygon fill="white" stroke="#666666" points="253.5,-438 179.5,-438 179.5,-419 253.5,-419 253.5,-438"/>
<text text-anchor="middle" x="216.5" y="-426" font-family="Helvetica,sans-Serif" font-size="10.00">Console API</text>
</a>
</g>
</g>
<!-- Node1&#45;&gt;Node4 -->
<g id="edge3" class="edge">
<title>Node1&#45;&gt;Node4</title>
<path fill="none" stroke="black" d="M62.02,-251.48C71.47,-288.61 96.92,-368.27 149,-410.5 157.64,-417.51 168.78,-421.8 179.46,-424.42"/>
<polygon fill="black" stroke="black" points="65.34,-250.31 59.59,-241.42 58.53,-251.96 65.34,-250.31"/>
</g>
<!-- Node5 -->
<g id="Node000005" class="node">
<title>Node5</title>
<g id="a_Node000005"><a xlink:href="group__api__l4re__debug.html" target="_top" xlink:title="Debugging Interface.">
<polygon fill="white" stroke="#666666" points="260.5,-401 172.5,-401 172.5,-382 260.5,-382 260.5,-401"/>
<text text-anchor="middle" x="216.5" y="-389" font-family="Helvetica,sans-Serif" font-size="10.00">Debugging API</text>
</a>
</g>
</g>
<!-- Node1&#45;&gt;Node5 -->
<g id="edge4" class="edge">
<title>Node1&#45;&gt;Node5</title>
<path fill="none" stroke="black" d="M64.66,-250.53C77.09,-280.95 105.55,-340.37 149,-372.5 155.85,-377.57 164.02,-381.29 172.25,-384.01"/>
<polygon fill="black" stroke="black" points="67.86,-249.09 60.94,-241.07 61.34,-251.66 67.86,-249.09"/>
</g>
<!-- Node7 -->
<g id="Node000007" class="node">
<title>Node7</title>
<g id="a_Node000007"><a xlink:href="group__api__l4re__elf__aux.html" target="_top" xlink:title="API for embedding auxiliary information into binary programs.">
<polygon fill="white" stroke="#666666" points="270,-363.5 163,-363.5 163,-333.5 270,-333.5 270,-363.5"/>
<text text-anchor="start" x="171" y="-351.5" font-family="Helvetica,sans-Serif" font-size="10.00">L4Re ELF Auxiliary</text>
<text text-anchor="middle" x="216.5" y="-340.5" font-family="Helvetica,sans-Serif" font-size="10.00"> Information</text>
</a>
</g>
</g>
<!-- Node1&#45;&gt;Node7 -->
<g id="edge6" class="edge">
<title>Node1&#45;&gt;Node7</title>
<path fill="none" stroke="black" d="M70.64,-248.99C86.96,-269.63 116.63,-303.75 149,-324.5 154.27,-327.88 160.08,-330.86 166,-333.48"/>
<polygon fill="black" stroke="black" points="73.38,-246.82 64.49,-241.05 67.84,-251.1 73.38,-246.82"/>
</g>
<!-- Node6 -->
<g id="Node000006" class="node">
<title>Node6</title>
<g id="a_Node000006"><a xlink:href="group__api__l4re__event.html" target="_top" xlink:title="Event API.">
<polygon fill="white" stroke="#666666" points="248,-315 185,-315 185,-296 248,-296 248,-315"/>
<text text-anchor="middle" x="216.5" y="-303" font-family="Helvetica,sans-Serif" font-size="10.00">Event API</text>
</a>
</g>
</g>
<!-- Node1&#45;&gt;Node6 -->
<g id="edge5" class="edge">
<title>Node1&#45;&gt;Node6</title>
<path fill="none" stroke="black" d="M79.04,-247.12C97,-259.54 123.66,-276.58 149,-287.5 160.31,-292.37 173.29,-296.24 184.76,-299.12"/>
<polygon fill="black" stroke="black" points="80.68,-244 70.49,-241.11 76.65,-249.73 80.68,-244"/>
</g>
<!-- Node10 -->
<g id="Node000010" class="node">
<title>Node10</title>
<g id="a_Node000010"><a xlink:href="group__api__l4re__log.html" target="_top" xlink:title="Interface for log output.">
<polygon fill="white" stroke="#666666" points="267,-278 166,-278 166,-259 267,-259 267,-278"/>
<text text-anchor="middle" x="216.5" y="-266" font-family="Helvetica,sans-Serif" font-size="10.00">Logging interface</text>
</a>
</g>
</g>
<!-- Node1&#45;&gt;Node10 -->
<g id="edge9" class="edge">
<title>Node1&#45;&gt;Node10</title>
<path fill="none" stroke="black" d="M108.13,-243.36C129.63,-248.39 154.37,-254.18 174.67,-258.94"/>
<polygon fill="black" stroke="black" points="108.72,-239.9 98.19,-241.03 107.13,-246.72 108.72,-239.9"/>
</g>
<!-- Node11 -->
<g id="Node000011" class="node">
<title>Node11</title>
<g id="a_Node000011"><a xlink:href="group__api__l4re__namespace.html" target="_top" xlink:title="API for name spaces that store capabilities.">
<polygon fill="white" stroke="#666666" points="265,-241 168,-241 168,-222 265,-222 265,-241"/>
<text text-anchor="middle" x="216.5" y="-229" font-family="Helvetica,sans-Serif" font-size="10.00">Name&#45;space API</text>
</a>
</g>
</g>
<!-- Node1&#45;&gt;Node11 -->
<g id="edge10" class="edge">
<title>Node1&#45;&gt;Node11</title>
<path fill="none" stroke="black" d="M123.41,-231.5C138.33,-231.5 153.89,-231.5 167.89,-231.5"/>
<polygon fill="black" stroke="black" points="123.2,-228 113.2,-231.5 123.2,-235 123.2,-228"/>
</g>
<!-- Node12 -->
<g id="Node000012" class="node">
<title>Node12</title>
<g id="a_Node000012"><a xlink:href="group__api__l4re__parent.html" target="_top" xlink:title="Parent interface.">
<polygon fill="white" stroke="#666666" points="249.5,-204 183.5,-204 183.5,-185 249.5,-185 249.5,-204"/>
<text text-anchor="middle" x="216.5" y="-192" font-family="Helvetica,sans-Serif" font-size="10.00">Parent API</text>
</a>
</g>
</g>
<!-- Node1&#45;&gt;Node12 -->
<g id="edge11" class="edge">
<title>Node1&#45;&gt;Node12</title>
<path fill="none" stroke="black" d="M108.13,-219.64C132.83,-213.86 161.8,-207.08 183.42,-202.01"/>
<polygon fill="black" stroke="black" points="107.13,-216.28 98.19,-221.97 108.72,-223.1 107.13,-216.28"/>
</g>
<!-- Node8 -->
<g id="Node000008" class="node">
<title>Node8</title>
<g id="a_Node000008"><a xlink:href="group__api__l4re__protocols.html" target="_top" xlink:title="Fix L4Re Protocol Constants.">
<polygon fill="white" stroke="#666666" points="284,-167 149,-167 149,-148 284,-148 284,-167"/>
<text text-anchor="middle" x="216.5" y="-155" font-family="Helvetica,sans-Serif" font-size="10.00">L4Re Protocol identifiers</text>
</a>
</g>
</g>
<!-- Node1&#45;&gt;Node8 -->
<g id="edge7" class="edge">
<title>Node1&#45;&gt;Node8</title>
<path fill="none" stroke="black" d="M79.43,-216.06C97.43,-203.95 123.96,-187.38 149,-176.5 157.37,-172.86 166.63,-169.71 175.52,-167.08"/>
<polygon fill="black" stroke="black" points="77.12,-213.4 70.84,-221.93 81.07,-219.18 77.12,-213.4"/>
</g>
<!-- Node13 -->
<g id="Node000013" class="node">
<title>Node13</title>
<g id="a_Node000013"><a xlink:href="group__api__l4re__rm.html" target="_top" xlink:title="Virtual address&#45;space management.">
<polygon fill="white" stroke="#666666" points="263.5,-130 169.5,-130 169.5,-111 263.5,-111 263.5,-130"/>
<text text-anchor="middle" x="216.5" y="-118" font-family="Helvetica,sans-Serif" font-size="10.00">Region map API</text>
</a>
</g>
</g>
<!-- Node1&#45;&gt;Node13 -->
<g id="edge12" class="edge">
<title>Node1&#45;&gt;Node13</title>
<path fill="none" stroke="black" d="M70.45,-213.83C86.58,-193.05 116.07,-158.94 149,-139.5 155.51,-135.65 162.85,-132.55 170.21,-130.06"/>
<polygon fill="black" stroke="black" points="67.63,-211.75 64.38,-221.83 73.21,-215.98 67.63,-211.75"/>
</g>
<!-- Node9 -->
<g id="Node000009" class="node">
<title>Node9</title>
<g id="a_Node000009"><a xlink:href="group__api__l4re__util.html" target="_top" xlink:title="Documentation of the L4 Runtime Environment utility functionality in C++.">
<polygon fill="white" stroke="#666666" points="283.5,-93 149.5,-93 149.5,-74 283.5,-74 283.5,-93"/>
<text text-anchor="middle" x="216.5" y="-81" font-family="Helvetica,sans-Serif" font-size="10.00">L4Re Util C++ Interface</text>
</a>
</g>
</g>
<!-- Node1&#45;&gt;Node9 -->
<g id="edge8" class="edge">
<title>Node1&#45;&gt;Node9</title>
<path fill="none" stroke="black" d="M65.86,-212.49C79.27,-184.21 108.28,-131.33 149,-102.5 154.49,-98.61 160.76,-95.52 167.2,-93.06"/>
<polygon fill="black" stroke="black" points="62.62,-211.15 61.63,-221.7 68.99,-214.07 62.62,-211.15"/>
</g>
<!-- Node14 -->
<g id="Node000014" class="node">
<title>Node14</title>
<g id="a_Node000014"><a xlink:href="group__api__l4re__vbus.html" target="_top" xlink:title="C++ interface of the Vbus API.">
<polygon fill="white" stroke="#666666" points="246,-56 187,-56 187,-37 246,-37 246,-56"/>
<text text-anchor="middle" x="216.5" y="-44" font-family="Helvetica,sans-Serif" font-size="10.00">Vbus API</text>
</a>
</g>
</g>
<!-- Node1&#45;&gt;Node14 -->
<g id="edge13" class="edge">
<title>Node1&#45;&gt;Node14</title>
<path fill="none" stroke="black" d="M62.79,-212.07C73.27,-177.33 99.99,-104.54 149,-65.5 159.71,-56.97 174.06,-52.27 186.7,-49.68"/>
<polygon fill="black" stroke="black" points="59.36,-211.35 59.95,-221.93 66.09,-213.29 59.36,-211.35"/>
</g>
<!-- Node3 -->
<g id="Node000003" class="node">
<title>Node3</title>
<g id="a_Node000003"><a xlink:href="group__l4cxx__exceptions.html" target="_top" xlink:title=" ">
<polygon fill="white" stroke="#666666" points="264.5,-19 168.5,-19 168.5,0 264.5,0 264.5,-19"/>
<text text-anchor="middle" x="216.5" y="-7" font-family="Helvetica,sans-Serif" font-size="10.00">C++ Exceptions</text>
</a>
</g>
</g>
<!-- Node1&#45;&gt;Node3 -->
<g id="edge2" class="edge">
<title>Node1&#45;&gt;Node3</title>
<path fill="none" stroke="black" d="M60.71,-211.76C68.37,-171.22 91.53,-78.18 149,-28.5 154.54,-23.71 161.22,-20.12 168.17,-17.44"/>
<polygon fill="black" stroke="black" points="57.25,-211.27 58.95,-221.73 64.14,-212.49 57.25,-211.27"/>
</g>
</g>
</svg>
