<?xml version="1.0" encoding="UTF-8" standalone="no"?>
<!DOCTYPE svg PUBLIC "-//W3C//DTD SVG 1.1//EN"
 "http://www.w3.org/Graphics/SVG/1.1/DTD/svg11.dtd">
<!-- Generated by graphviz version 2.43.0 (0)
 -->
<!-- Title: l4_touch_rw Pages: 1 -->
<svg width="182pt" height="45pt"
 viewBox="0.00 0.00 182.00 45.00" xmlns="http://www.w3.org/2000/svg" xmlns:xlink="http://www.w3.org/1999/xlink">
<g id="graph0" class="graph" transform="scale(1 1) rotate(0) translate(4 41)">
<title>l4_touch_rw</title>
<!-- Node1 -->
<g id="Node000001" class="node">
<title>Node1</title>
<g id="a_Node000001"><a xlink:title="Touch data areas to force mapping (read&#45;write)">
<polygon fill="#999999" stroke="#666666" points="174,-19 99,-19 99,0 174,0 174,-19"/>
<text text-anchor="middle" x="136.5" y="-7" font-family="Helvetica,sans-Serif" font-size="10.00">l4_touch_rw</text>
</a>
</g>
</g>
<!-- Node1&#45;&gt;Node1 -->
<g id="edge1_Node000001_Node000001" class="edge">
<title>Node1&#45;&gt;Node1</title>
<g id="a_edge1_Node000001_Node000001"><a xlink:title=" ">
<path fill="none" stroke="#63b8ff" d="M155.76,-28.55C154.47,-33.38 148.05,-37 136.5,-37 118.02,-37 112.67,-27.73 120.47,-19.08"/>
<polygon fill="#63b8ff" stroke="#63b8ff" points="159.07,-27.42 152.53,-19.08 152.44,-29.68 159.07,-27.42"/>
</a>
</g>
</g>
<!-- Node2 -->
<g id="Node000002" class="node">
<title>Node2</title>
<g id="a_Node000002"><a xlink:href="group__l4util__api.html#ga88934d990c73f40eebe52998d894ff69" target="_top" xlink:title="Suspend thread for a period of us microseconds.">
<polygon fill="white" stroke="#666666" points="63,-19 0,-19 0,0 63,0 63,-19"/>
<text text-anchor="middle" x="31.5" y="-7" font-family="Helvetica,sans-Serif" font-size="10.00">l4_usleep</text>
</a>
</g>
</g>
<!-- Node1&#45;&gt;Node2 -->
<g id="edge2_Node000001_Node000002" class="edge">
<title>Node1&#45;&gt;Node2</title>
<g id="a_edge2_Node000001_Node000002"><a xlink:title=" ">
<path fill="none" stroke="#63b8ff" d="M88.84,-9.5C80.14,-9.5 71.26,-9.5 63.2,-9.5"/>
<polygon fill="#63b8ff" stroke="#63b8ff" points="88.9,-13 98.9,-9.5 88.9,-6 88.9,-13"/>
</a>
</g>
</g>
</g>
</svg>
