<?xml version="1.0" encoding="UTF-8" standalone="no"?>
<!DOCTYPE svg PUBLIC "-//W3C//DTD SVG 1.1//EN"
 "http://www.w3.org/Graphics/SVG/1.1/DTD/svg11.dtd">
<!-- Generated by graphviz version 2.42.4 (0)
 -->
<!-- Title: l4_vcon_send Pages: 1 -->
<svg width="455pt" height="101pt"
 viewBox="0.00 0.00 455.00 101.00" xmlns="http://www.w3.org/2000/svg" xmlns:xlink="http://www.w3.org/1999/xlink">
<g id="graph0" class="graph" transform="scale(1 1) rotate(0) translate(4 97)">
<title>l4_vcon_send</title>
<!-- Node1 -->
<g id="Node000001" class="node">
<title>Node1</title>
<g id="a_Node000001"><a xlink:title="Send data to virtual console.">
<polygon fill="#999999" stroke="#666666" points="83,-74 0,-74 0,-55 83,-55 83,-74"/>
<text text-anchor="middle" x="41.5" y="-62" font-family="Helvetica,sans-Serif" font-size="10.00">l4_vcon_send</text>
</a>
</g>
</g>
<!-- Node2 -->
<g id="Node000002" class="node">
<title>Node2</title>
<g id="a_Node000002"><a xlink:href="group__l4__utcb__api.html#gadc099b4a59e1d99638c72c11a8c8b644" target="_top" xlink:title="Get the UTCB address.">
<polygon fill="white" stroke="#666666" points="192,-93 140,-93 140,-74 192,-74 192,-93"/>
<text text-anchor="middle" x="166" y="-81" font-family="Helvetica,sans-Serif" font-size="10.00">l4_utcb</text>
</a>
</g>
</g>
<!-- Node1&#45;&gt;Node2 -->
<g id="edge1_Node000001_Node000002" class="edge">
<title>Node1&#45;&gt;Node2</title>
<g id="a_edge1_Node000001_Node000002"><a xlink:title=" ">
<path fill="none" stroke="#63b8ff" d="M83.29,-70.83C98.3,-73.15 115.16,-75.77 129.65,-78.02"/>
<polygon fill="#63b8ff" stroke="#63b8ff" points="129.31,-81.51 139.72,-79.58 130.38,-74.59 129.31,-81.51"/>
</a>
</g>
</g>
<!-- Node3 -->
<g id="Node000003" class="node">
<title>Node3</title>
<g id="a_Node000003"><a xlink:href="group__l4__vcon__api.html#ga05df63a45bb7ade1e0e19caaa6e35f5f" target="_top" xlink:title="Send data to this virtual console.">
<polygon fill="white" stroke="#666666" points="213,-56 119,-56 119,-37 213,-37 213,-56"/>
<text text-anchor="middle" x="166" y="-44" font-family="Helvetica,sans-Serif" font-size="10.00">l4_vcon_send_u</text>
</a>
</g>
</g>
<!-- Node1&#45;&gt;Node3 -->
<g id="edge2_Node000001_Node000003" class="edge">
<title>Node1&#45;&gt;Node3</title>
<g id="a_edge2_Node000001_Node000003"><a xlink:title=" ">
<path fill="none" stroke="#63b8ff" d="M83.29,-58.51C91.49,-57.3 100.25,-56.01 108.87,-54.75"/>
<polygon fill="#63b8ff" stroke="#63b8ff" points="109.5,-58.19 118.89,-53.28 108.49,-51.27 109.5,-58.19"/>
</a>
</g>
</g>
<!-- Node4 -->
<g id="Node000004" class="node">
<title>Node4</title>
<g id="a_Node000004"><a xlink:href="group__l4__memory__api.html#ga2be30f4e5dde3c85d115d2a9c77f6215" target="_top" xlink:title="Determine how many machine words (l4_umword_t) are required to store a buffer of &#39;size&#39; bytes.">
<polygon fill="white" stroke="#666666" points="366,-93 249,-93 249,-74 366,-74 366,-93"/>
<text text-anchor="middle" x="307.5" y="-81" font-family="Helvetica,sans-Serif" font-size="10.00">l4_bytes_to_mwords</text>
</a>
</g>
</g>
<!-- Node3&#45;&gt;Node4 -->
<g id="edge3_Node000003_Node000004" class="edge">
<title>Node3&#45;&gt;Node4</title>
<g id="a_edge3_Node000003_Node000004"><a xlink:title=" ">
<path fill="none" stroke="#63b8ff" d="M202.92,-56.03C220.44,-60.67 241.72,-66.32 260.42,-71.28"/>
<polygon fill="#63b8ff" stroke="#63b8ff" points="259.65,-74.69 270.21,-73.88 261.44,-67.93 259.65,-74.69"/>
</a>
</g>
</g>
<!-- Node5 -->
<g id="Node000005" class="node">
<title>Node5</title>
<g id="a_Node000005"><a xlink:href="group__l4__ipc__api.html#ga7de45eb59ce852466362ea85da00299e" target="_top" xlink:title="Send a message to an object (do not wait for a reply).">
<polygon fill="white" stroke="#666666" points="344.5,-56 270.5,-56 270.5,-37 344.5,-37 344.5,-56"/>
<text text-anchor="middle" x="307.5" y="-44" font-family="Helvetica,sans-Serif" font-size="10.00">l4_ipc_send</text>
</a>
</g>
</g>
<!-- Node3&#45;&gt;Node5 -->
<g id="edge4_Node000003_Node000005" class="edge">
<title>Node3&#45;&gt;Node5</title>
<g id="a_edge4_Node000003_Node000005"><a xlink:title=" ">
<path fill="none" stroke="#63b8ff" d="M213.06,-46.5C228.15,-46.5 244.92,-46.5 260.04,-46.5"/>
<polygon fill="#63b8ff" stroke="#63b8ff" points="260.2,-50 270.2,-46.5 260.2,-43 260.2,-50"/>
</a>
</g>
</g>
<!-- Node7 -->
<g id="Node000007" class="node">
<title>Node7</title>
<g id="a_Node000007"><a xlink:href="group__l4__msgtag__api.html#ga661d71acad9d096fa990f7c94943bc78" target="_top" xlink:title="Create a message tag from the specified values.">
<polygon fill="white" stroke="#666666" points="341.5,-19 273.5,-19 273.5,0 341.5,0 341.5,-19"/>
<text text-anchor="middle" x="307.5" y="-7" font-family="Helvetica,sans-Serif" font-size="10.00">l4_msgtag</text>
</a>
</g>
</g>
<!-- Node3&#45;&gt;Node7 -->
<g id="edge6_Node000003_Node000007" class="edge">
<title>Node3&#45;&gt;Node7</title>
<g id="a_edge6_Node000003_Node000007"><a xlink:title=" ">
<path fill="none" stroke="#63b8ff" d="M202.92,-36.97C221.35,-32.09 243.93,-26.1 263.29,-20.96"/>
<polygon fill="#63b8ff" stroke="#63b8ff" points="264.32,-24.31 273.09,-18.36 262.53,-17.54 264.32,-24.31"/>
</a>
</g>
</g>
<!-- Node6 -->
<g id="Node000006" class="node">
<title>Node6</title>
<g id="a_Node000006"><a xlink:href="group__l4__ipc__api.html#ga1caa56d45e0453b3002e7f5cfdb0dec7" target="_top" xlink:title="Generic L4 object invocation.">
<polygon fill="white" stroke="#666666" points="447,-56 402,-56 402,-37 447,-37 447,-56"/>
<text text-anchor="middle" x="424.5" y="-44" font-family="Helvetica,sans-Serif" font-size="10.00">l4_ipc</text>
</a>
</g>
</g>
<!-- Node5&#45;&gt;Node6 -->
<g id="edge5_Node000005_Node000006" class="edge">
<title>Node5&#45;&gt;Node6</title>
<g id="a_edge5_Node000005_Node000006"><a xlink:title=" ">
<path fill="none" stroke="#63b8ff" d="M344.57,-46.5C359.73,-46.5 377.21,-46.5 391.86,-46.5"/>
<polygon fill="#63b8ff" stroke="#63b8ff" points="391.95,-50 401.95,-46.5 391.95,-43 391.95,-50"/>
</a>
</g>
</g>
</g>
</svg>
