<?xml version="1.0" encoding="UTF-8" standalone="no"?>
<!DOCTYPE svg PUBLIC "-//W3C//DTD SVG 1.1//EN"
 "http://www.w3.org/Graphics/SVG/1.1/DTD/svg11.dtd">
<!-- Generated by graphviz version 2.42.4 (0)
 -->
<!-- Title: l4_timeout Pages: 1 -->
<svg width="434pt" height="182pt"
 viewBox="0.00 0.00 434.00 182.00" xmlns="http://www.w3.org/2000/svg" xmlns:xlink="http://www.w3.org/1999/xlink">
<g id="graph0" class="graph" transform="scale(1 1) rotate(0) translate(4 178)">
<title>l4_timeout</title>
<!-- Node1 -->
<g id="Node000001" class="node">
<title>Node1</title>
<g id="a_Node000001"><a xlink:title="Combine send and receive timeout in a timeout.">
<polygon fill="#999999" stroke="#666666" points="426,-118 357,-118 357,-99 426,-99 426,-118"/>
<text text-anchor="middle" x="391.5" y="-106" font-family="Helvetica,sans-Serif" font-size="10.00">l4_timeout</text>
</a>
</g>
</g>
<!-- Node2 -->
<g id="Node000002" class="node">
<title>Node2</title>
<g id="a_Node000002"><a xlink:href="group__l4__ipc__api.html#gaf7beb30ebd9a71fbafeda9d1be057d88" target="_top" xlink:title="Sleep for a certain amount of milliseconds.">
<polygon fill="white" stroke="#666666" points="304,-174 207,-174 207,-155 304,-155 304,-174"/>
<text text-anchor="middle" x="255.5" y="-162" font-family="Helvetica,sans-Serif" font-size="10.00">l4_ipc_sleep_ms</text>
</a>
</g>
</g>
<!-- Node1&#45;&gt;Node2 -->
<g id="edge1_Node000001_Node000002" class="edge">
<title>Node1&#45;&gt;Node2</title>
<g id="a_edge1_Node000001_Node000002"><a xlink:title=" ">
<path fill="none" stroke="#63b8ff" d="M366.44,-123.43C353.36,-131.09 336.68,-140.12 321,-146.5 313.14,-149.7 304.52,-152.53 296.21,-154.96"/>
<polygon fill="#63b8ff" stroke="#63b8ff" points="368.48,-126.29 375.27,-118.16 364.89,-120.28 368.48,-126.29"/>
</a>
</g>
</g>
<!-- Node3 -->
<g id="Node000003" class="node">
<title>Node3</title>
<g id="a_Node000003"><a xlink:href="group__l4__ipc__api.html#ga5a466a7ca3fa167baadbd824238ad7cc" target="_top" xlink:title="Sleep for a certain amount of microseconds.">
<polygon fill="white" stroke="#666666" points="302,-137 209,-137 209,-118 302,-118 302,-137"/>
<text text-anchor="middle" x="255.5" y="-125" font-family="Helvetica,sans-Serif" font-size="10.00">l4_ipc_sleep_us</text>
</a>
</g>
</g>
<!-- Node1&#45;&gt;Node3 -->
<g id="edge2_Node000001_Node000003" class="edge">
<title>Node1&#45;&gt;Node3</title>
<g id="a_edge2_Node000001_Node000003"><a xlink:title=" ">
<path fill="none" stroke="#63b8ff" d="M346.64,-114.72C332.4,-116.74 316.57,-118.98 302.2,-121.02"/>
<polygon fill="#63b8ff" stroke="#63b8ff" points="347.28,-118.16 356.69,-113.29 346.29,-111.23 347.28,-118.16"/>
</a>
</g>
</g>
<!-- Node4 -->
<g id="Node000004" class="node">
<title>Node4</title>
<g id="a_Node000004"><a xlink:href="group__l4__timeout__api.html#ga4f2ccd6c8ff6672a6bb22803a1009126" target="_top" xlink:title="Convert explicit timeout values to l4_timeout_t type.">
<polygon fill="white" stroke="#666666" points="300,-100 211,-100 211,-81 300,-81 300,-100"/>
<text text-anchor="middle" x="255.5" y="-88" font-family="Helvetica,sans-Serif" font-size="10.00">l4_ipc_timeout</text>
</a>
</g>
</g>
<!-- Node1&#45;&gt;Node4 -->
<g id="edge3_Node000001_Node000004" class="edge">
<title>Node1&#45;&gt;Node4</title>
<g id="a_edge3_Node000001_Node000004"><a xlink:title=" ">
<path fill="none" stroke="#63b8ff" d="M346.73,-102.62C331.88,-100.63 315.3,-98.4 300.45,-96.4"/>
<polygon fill="#63b8ff" stroke="#63b8ff" points="346.31,-106.1 356.69,-103.96 347.24,-99.16 346.31,-106.1"/>
</a>
</g>
</g>
<!-- Node5 -->
<g id="Node000005" class="node">
<title>Node5</title>
<g id="a_Node000005"><a xlink:href="classL4_1_1Ipc__svr_1_1Timeout__queue__hooks.html#ae4a6bd9781bf97a37dbff039db58d47d" target="_top" xlink:title="get the time for the next timeout">
<polygon fill="white" stroke="#666666" points="321,-62.5 190,-62.5 190,-32.5 321,-32.5 321,-62.5"/>
<text text-anchor="start" x="198" y="-50.5" font-family="Helvetica,sans-Serif" font-size="10.00">L4::Ipc_svr::Timeout</text>
<text text-anchor="middle" x="255.5" y="-39.5" font-family="Helvetica,sans-Serif" font-size="10.00">_queue_hooks::timeout</text>
</a>
</g>
</g>
<!-- Node1&#45;&gt;Node5 -->
<g id="edge4_Node000001_Node000005" class="edge">
<title>Node1&#45;&gt;Node5</title>
<g id="a_edge4_Node000001_Node000005"><a xlink:title=" ">
<path fill="none" stroke="#63b8ff" d="M364.52,-94.19C351.6,-87.3 335.65,-79.11 321,-72.5 313.45,-69.09 305.28,-65.7 297.38,-62.58"/>
<polygon fill="#63b8ff" stroke="#63b8ff" points="362.87,-97.28 373.33,-98.95 366.19,-91.12 362.87,-97.28"/>
</a>
</g>
</g>
<!-- Node6 -->
<g id="Node000006" class="node">
<title>Node6</title>
<g id="a_Node000006"><a xlink:href="classL4_1_1Ipc__svr_1_1Timeout__queue__hooks.html#a07277e39d7a77e66fbd6556f00e3e8aa" target="_top" xlink:title="Add a timeout to the queue for time time.">
<polygon fill="white" stroke="#666666" points="154,-89.5 0,-89.5 0,-59.5 154,-59.5 154,-89.5"/>
<text text-anchor="start" x="8" y="-77.5" font-family="Helvetica,sans-Serif" font-size="10.00">L4::Ipc_svr::Timeout</text>
<text text-anchor="middle" x="77" y="-66.5" font-family="Helvetica,sans-Serif" font-size="10.00">_queue_hooks::add_timeout</text>
</a>
</g>
</g>
<!-- Node5&#45;&gt;Node6 -->
<g id="edge5_Node000005_Node000006" class="edge">
<title>Node5&#45;&gt;Node6</title>
<g id="a_edge5_Node000005_Node000006"><a xlink:title=" ">
<path fill="none" stroke="#63b8ff" d="M179.87,-58.92C171.33,-60.22 162.63,-61.55 154.08,-62.86"/>
<polygon fill="#63b8ff" stroke="#63b8ff" points="180.42,-62.37 189.78,-57.4 179.37,-55.45 180.42,-62.37"/>
</a>
</g>
</g>
<!-- Node7 -->
<g id="Node000007" class="node">
<title>Node7</title>
<g id="a_Node000007"><a xlink:href="classL4_1_1Ipc__svr_1_1Timeout__queue__hooks.html#a559c5881cc36b16338904749c4578ae9" target="_top" xlink:title="Remove timeout from the queue.">
<polygon fill="white" stroke="#666666" points="142,-41 12,-41 12,0 142,0 142,-41"/>
<text text-anchor="start" x="20" y="-29" font-family="Helvetica,sans-Serif" font-size="10.00">L4::Ipc_svr::Timeout</text>
<text text-anchor="start" x="20" y="-18" font-family="Helvetica,sans-Serif" font-size="10.00">_queue_hooks::remove</text>
<text text-anchor="middle" x="77" y="-7" font-family="Helvetica,sans-Serif" font-size="10.00">_timeout</text>
</a>
</g>
</g>
<!-- Node5&#45;&gt;Node7 -->
<g id="edge6_Node000005_Node000007" class="edge">
<title>Node5&#45;&gt;Node7</title>
<g id="a_edge6_Node000005_Node000007"><a xlink:title=" ">
<path fill="none" stroke="#63b8ff" d="M179.82,-36.08C167.28,-34.16 154.37,-32.18 142.12,-30.31"/>
<polygon fill="#63b8ff" stroke="#63b8ff" points="179.37,-39.55 189.78,-37.6 180.42,-32.63 179.37,-39.55"/>
</a>
</g>
</g>
</g>
</svg>
