<?xml version="1.0" encoding="UTF-8" standalone="no"?>
<!DOCTYPE svg PUBLIC "-//W3C//DTD SVG 1.1//EN"
 "http://www.w3.org/Graphics/SVG/1.1/DTD/svg11.dtd">
<!-- Generated by graphviz version 2.43.0 (0)
 -->
<!-- Title: l4_map_control Pages: 1 -->
<svg width="906pt" height="242pt"
 viewBox="0.00 0.00 906.00 241.50" xmlns="http://www.w3.org/2000/svg" xmlns:xlink="http://www.w3.org/1999/xlink">
<g id="graph0" class="graph" transform="scale(1 1) rotate(0) translate(4 237.5)">
<title>l4_map_control</title>
<!-- Node1 -->
<g id="Node000001" class="node">
<title>Node1</title>
<g id="a_Node000001"><a xlink:title="Create the first word for a map item for the memory space.">
<polygon fill="#999999" stroke="#666666" points="898,-74 806,-74 806,-55 898,-55 898,-74"/>
<text text-anchor="middle" x="852" y="-62" font-family="Helvetica,sans-Serif" font-size="10.00">l4_map_control</text>
</a>
</g>
</g>
<!-- Node2 -->
<g id="Node000002" class="node">
<title>Node2</title>
<g id="a_Node000002"><a xlink:href="group__l4__msgitem__api.html#ga6c9056957ac92e458eaabcbf3223ce6f" target="_top" xlink:title="Create the first word for a map item for the object space.">
<polygon fill="white" stroke="#666666" points="770,-74 658,-74 658,-55 770,-55 770,-74"/>
<text text-anchor="middle" x="714" y="-62" font-family="Helvetica,sans-Serif" font-size="10.00">l4_map_obj_control</text>
</a>
</g>
</g>
<!-- Node1&#45;&gt;Node2 -->
<g id="edge1_Node000001_Node000002" class="edge">
<title>Node1&#45;&gt;Node2</title>
<g id="a_edge1_Node000001_Node000002"><a xlink:title=" ">
<path fill="none" stroke="#63b8ff" d="M795.59,-64.5C787.15,-64.5 778.45,-64.5 770.02,-64.5"/>
<polygon fill="#63b8ff" stroke="#63b8ff" points="795.71,-68 805.71,-64.5 795.71,-61 795.71,-68"/>
</a>
</g>
</g>
<!-- Node3 -->
<g id="Node000003" class="node">
<title>Node3</title>
<g id="a_Node000003"><a xlink:href="group__l4__icu__api.html#ga29217a67f405c5d860002dd902bf71e4" target="_top" xlink:title="Bind an interrupt line of an interrupt controller to an interrupt object.">
<polygon fill="white" stroke="#666666" points="597,-167 514,-167 514,-148 597,-148 597,-167"/>
<text text-anchor="middle" x="555.5" y="-155" font-family="Helvetica,sans-Serif" font-size="10.00">l4_icu_bind_u</text>
</a>
</g>
</g>
<!-- Node2&#45;&gt;Node3 -->
<g id="edge2_Node000002_Node000003" class="edge">
<title>Node2&#45;&gt;Node3</title>
<g id="a_edge2_Node000002_Node000003"><a xlink:title=" ">
<path fill="none" stroke="#63b8ff" d="M687.99,-79.37C655.63,-98.59 600.2,-131.53 572.81,-147.81"/>
<polygon fill="#63b8ff" stroke="#63b8ff" points="690.03,-82.22 696.84,-74.1 686.46,-76.2 690.03,-82.22"/>
</a>
</g>
</g>
<!-- Node10 -->
<g id="Node000010" class="node">
<title>Node10</title>
<g id="a_Node000010"><a xlink:href="group__l4__icu__api.html#gae74204b8f2101e176add646ec2958182" target="_top" xlink:title="Remove binding of an interrupt line from the interrupt controller object.">
<polygon fill="white" stroke="#666666" points="603,-93 508,-93 508,-74 603,-74 603,-93"/>
<text text-anchor="middle" x="555.5" y="-81" font-family="Helvetica,sans-Serif" font-size="10.00">l4_icu_unbind_u</text>
</a>
</g>
</g>
<!-- Node2&#45;&gt;Node10 -->
<g id="edge9_Node000002_Node000010" class="edge">
<title>Node2&#45;&gt;Node10</title>
<g id="a_edge9_Node000002_Node000010"><a xlink:title=" ">
<path fill="none" stroke="#63b8ff" d="M647.62,-72.44C632.69,-74.25 617.11,-76.14 603.15,-77.84"/>
<polygon fill="#63b8ff" stroke="#63b8ff" points="648.32,-75.88 657.82,-71.2 647.47,-68.93 648.32,-75.88"/>
</a>
</g>
</g>
<!-- Node13 -->
<g id="Node000013" class="node">
<title>Node13</title>
<g id="a_Node000013"><a xlink:href="group__l4__irq__api.html#ga0bfe3132479962ae237087568fc2c94f" target="_top" xlink:title="Attach an IRQ to this multiplexer.">
<polygon fill="white" stroke="#666666" points="612,-56 499,-56 499,-37 612,-37 612,-56"/>
<text text-anchor="middle" x="555.5" y="-44" font-family="Helvetica,sans-Serif" font-size="10.00">l4_irq_mux_chain_u</text>
</a>
</g>
</g>
<!-- Node2&#45;&gt;Node13 -->
<g id="edge12_Node000002_Node000013" class="edge">
<title>Node2&#45;&gt;Node13</title>
<g id="a_edge12_Node000002_Node000013"><a xlink:title=" ">
<path fill="none" stroke="#63b8ff" d="M647.62,-56.98C635.85,-55.63 623.69,-54.23 612.23,-52.91"/>
<polygon fill="#63b8ff" stroke="#63b8ff" points="647.49,-60.49 657.82,-58.15 648.29,-53.53 647.49,-60.49"/>
</a>
</g>
</g>
<!-- Node16 -->
<g id="Node000016" class="node">
<title>Node16</title>
<g id="a_Node000016"><a xlink:href="classL4_1_1Cap__base.html#af270c8a40ac7f715776c155fa91c7342" target="_top" xlink:title="Return send base.">
<polygon fill="white" stroke="#666666" points="622,-19 489,-19 489,0 622,0 622,-19"/>
<text text-anchor="middle" x="555.5" y="-7" font-family="Helvetica,sans-Serif" font-size="10.00">L4::Cap_base::snd_base</text>
</a>
</g>
</g>
<!-- Node2&#45;&gt;Node16 -->
<g id="edge15_Node000002_Node000016" class="edge">
<title>Node2&#45;&gt;Node16</title>
<g id="a_edge15_Node000002_Node000016"><a xlink:title=" ">
<path fill="none" stroke="#63b8ff" d="M681.92,-50.8C664.5,-43.39 642.25,-34.37 622,-27.5 613.07,-24.47 603.32,-21.57 594.14,-19.03"/>
<polygon fill="#63b8ff" stroke="#63b8ff" points="681.01,-54.22 691.57,-54.95 683.77,-47.79 681.01,-54.22"/>
</a>
</g>
</g>
<!-- Node4 -->
<g id="Node000004" class="node">
<title>Node4</title>
<g id="a_Node000004"><a xlink:href="classL4_1_1Icu.html#ada7541da586ea09b925b4d90d7dc357e" target="_top" xlink:title="Bind an interrupt line of an interrupt controller to an interrupt object.">
<polygon fill="white" stroke="#666666" points="437.5,-204 362.5,-204 362.5,-185 437.5,-185 437.5,-204"/>
<text text-anchor="middle" x="400" y="-192" font-family="Helvetica,sans-Serif" font-size="10.00">L4::Icu::bind</text>
</a>
</g>
</g>
<!-- Node3&#45;&gt;Node4 -->
<g id="edge3_Node000003_Node000004" class="edge">
<title>Node3&#45;&gt;Node4</title>
<g id="a_edge3_Node000003_Node000004"><a xlink:title=" ">
<path fill="none" stroke="#63b8ff" d="M505.14,-169.4C483.16,-174.7 457.73,-180.83 437.5,-185.7"/>
<polygon fill="#63b8ff" stroke="#63b8ff" points="506.07,-172.77 514.97,-167.03 504.43,-165.97 506.07,-172.77"/>
</a>
</g>
</g>
<!-- Node9 -->
<g id="Node000009" class="node">
<title>Node9</title>
<g id="a_Node000009"><a xlink:href="group__l4__icu__api.html#ga793c534597fd98ee93cbaf24ad08a615" target="_top" xlink:title="Bind an interrupt line of an interrupt controller to an interrupt object.">
<polygon fill="white" stroke="#666666" points="435.5,-167 364.5,-167 364.5,-148 435.5,-148 435.5,-167"/>
<text text-anchor="middle" x="400" y="-155" font-family="Helvetica,sans-Serif" font-size="10.00">l4_icu_bind</text>
</a>
</g>
</g>
<!-- Node3&#45;&gt;Node9 -->
<g id="edge8_Node000003_Node000009" class="edge">
<title>Node3&#45;&gt;Node9</title>
<g id="a_edge8_Node000003_Node000009"><a xlink:title=" ">
<path fill="none" stroke="#63b8ff" d="M503.47,-157.5C481.21,-157.5 455.68,-157.5 435.67,-157.5"/>
<polygon fill="#63b8ff" stroke="#63b8ff" points="503.77,-161 513.77,-157.5 503.77,-154 503.77,-161"/>
</a>
</g>
</g>
<!-- Node5 -->
<g id="Node000005" class="node">
<title>Node5</title>
<g id="a_Node000005"><a xlink:href="classL4virtio_1_1Driver_1_1Device.html#a1c9b791b723e7e8ad2eae927094b487d" target="_top" xlink:title="Register a triggerable to receive notifications from the device.">
<polygon fill="white" stroke="#666666" points="311,-233.5 182,-233.5 182,-203.5 311,-203.5 311,-233.5"/>
<text text-anchor="start" x="190" y="-221.5" font-family="Helvetica,sans-Serif" font-size="10.00">L4virtio::Driver::Device</text>
<text text-anchor="middle" x="246.5" y="-210.5" font-family="Helvetica,sans-Serif" font-size="10.00">::bind_notification_irq</text>
</a>
</g>
</g>
<!-- Node4&#45;&gt;Node5 -->
<g id="edge4_Node000004_Node000005" class="edge">
<title>Node4&#45;&gt;Node5</title>
<g id="a_edge4_Node000004_Node000005"><a xlink:title=" ">
<path fill="none" stroke="#63b8ff" d="M352.21,-201.91C339.2,-203.97 324.84,-206.25 311.04,-208.43"/>
<polygon fill="#63b8ff" stroke="#63b8ff" points="353,-205.33 362.33,-200.31 351.9,-198.42 353,-205.33"/>
</a>
</g>
</g>
<!-- Node6 -->
<g id="Node000006" class="node">
<title>Node6</title>
<g id="a_Node000006"><a xlink:href="classL4virtio_1_1Driver_1_1Device.html#a4f8b3d73188c3b6664755b81b80e441c" target="_top" xlink:title="Contacts the device and starts the initial handshake.">
<polygon fill="white" stroke="#666666" points="311,-185.5 182,-185.5 182,-155.5 311,-155.5 311,-185.5"/>
<text text-anchor="start" x="190" y="-173.5" font-family="Helvetica,sans-Serif" font-size="10.00">L4virtio::Driver::Device</text>
<text text-anchor="middle" x="246.5" y="-162.5" font-family="Helvetica,sans-Serif" font-size="10.00">::driver_connect</text>
</a>
</g>
</g>
<!-- Node4&#45;&gt;Node6 -->
<g id="edge5_Node000004_Node000006" class="edge">
<title>Node4&#45;&gt;Node6</title>
<g id="a_edge5_Node000004_Node000006"><a xlink:title=" ">
<path fill="none" stroke="#63b8ff" d="M352.21,-187.09C339.2,-185.03 324.84,-182.75 311.04,-180.57"/>
<polygon fill="#63b8ff" stroke="#63b8ff" points="351.9,-190.58 362.33,-188.69 353,-183.67 351.9,-190.58"/>
</a>
</g>
</g>
<!-- Node7 -->
<g id="Node000007" class="node">
<title>Node7</title>
<g id="a_Node000007"><a xlink:href="classL4virtio_1_1Driver_1_1Virtio__net__device.html#aa5d34e5156db18773cf46c2d06a2aa3a" target="_top" xlink:title="Establish a connection to the device and set up shared memory.">
<polygon fill="white" stroke="#666666" points="146,-209.5 0,-209.5 0,-179.5 146,-179.5 146,-209.5"/>
<text text-anchor="start" x="8" y="-197.5" font-family="Helvetica,sans-Serif" font-size="10.00">L4virtio::Driver::Virtio</text>
<text text-anchor="middle" x="73" y="-186.5" font-family="Helvetica,sans-Serif" font-size="10.00">_net_device::setup_device</text>
</a>
</g>
</g>
<!-- Node6&#45;&gt;Node7 -->
<g id="edge6_Node000006_Node000007" class="edge">
<title>Node6&#45;&gt;Node7</title>
<g id="a_edge6_Node000006_Node000007"><a xlink:title=" ">
<path fill="none" stroke="#63b8ff" d="M171.53,-180.85C163.16,-182.02 154.63,-183.22 146.28,-184.38"/>
<polygon fill="#63b8ff" stroke="#63b8ff" points="172.22,-184.29 181.64,-179.44 171.25,-177.36 172.22,-184.29"/>
</a>
</g>
</g>
<!-- Node8 -->
<g id="Node000008" class="node">
<title>Node8</title>
<g id="a_Node000008"><a xlink:href="classL4virtio_1_1Driver_1_1Block__device.html#af509c2785789dd2daf6b13f3369c6581" target="_top" xlink:title="Establish a connection to the device and set up shared memory.">
<polygon fill="white" stroke="#666666" points="135.5,-161.5 10.5,-161.5 10.5,-131.5 135.5,-131.5 135.5,-161.5"/>
<text text-anchor="start" x="18.5" y="-149.5" font-family="Helvetica,sans-Serif" font-size="10.00">L4virtio::Driver::Block</text>
<text text-anchor="middle" x="73" y="-138.5" font-family="Helvetica,sans-Serif" font-size="10.00">_device::setup_device</text>
</a>
</g>
</g>
<!-- Node6&#45;&gt;Node8 -->
<g id="edge7_Node000006_Node000008" class="edge">
<title>Node6&#45;&gt;Node8</title>
<g id="a_edge7_Node000006_Node000008"><a xlink:title=" ">
<path fill="none" stroke="#63b8ff" d="M171.65,-160.17C159.64,-158.48 147.31,-156.76 135.64,-155.13"/>
<polygon fill="#63b8ff" stroke="#63b8ff" points="171.25,-163.64 181.64,-161.56 172.22,-156.71 171.25,-163.64"/>
</a>
</g>
</g>
<!-- Node11 -->
<g id="Node000011" class="node">
<title>Node11</title>
<g id="a_Node000011"><a xlink:href="group__l4__icu__api.html#ga77d613300601861b13605e7687146dc5" target="_top" xlink:title="Remove binding of an interrupt line from the interrupt controller object.">
<polygon fill="white" stroke="#666666" points="441.5,-130 358.5,-130 358.5,-111 441.5,-111 441.5,-130"/>
<text text-anchor="middle" x="400" y="-118" font-family="Helvetica,sans-Serif" font-size="10.00">l4_icu_unbind</text>
</a>
</g>
</g>
<!-- Node10&#45;&gt;Node11 -->
<g id="edge10_Node000010_Node000011" class="edge">
<title>Node10&#45;&gt;Node11</title>
<g id="a_edge10_Node000010_Node000011"><a xlink:title=" ">
<path fill="none" stroke="#63b8ff" d="M505.03,-95.43C484.2,-100.44 460.3,-106.21 440.66,-110.94"/>
<polygon fill="#63b8ff" stroke="#63b8ff" points="506.07,-98.77 514.97,-93.03 504.43,-91.97 506.07,-98.77"/>
</a>
</g>
</g>
<!-- Node12 -->
<g id="Node000012" class="node">
<title>Node12</title>
<g id="a_Node000012"><a xlink:href="classL4_1_1Icu.html#aa34e56cdac798b1949fcc00553386b8b" target="_top" xlink:title="Remove binding of an interrupt line from the interrupt controller object.">
<polygon fill="white" stroke="#666666" points="443.5,-93 356.5,-93 356.5,-74 443.5,-74 443.5,-93"/>
<text text-anchor="middle" x="400" y="-81" font-family="Helvetica,sans-Serif" font-size="10.00">L4::Icu::unbind</text>
</a>
</g>
</g>
<!-- Node10&#45;&gt;Node12 -->
<g id="edge11_Node000010_Node000012" class="edge">
<title>Node10&#45;&gt;Node12</title>
<g id="a_edge11_Node000010_Node000012"><a xlink:title=" ">
<path fill="none" stroke="#63b8ff" d="M497.35,-83.5C479.57,-83.5 460.29,-83.5 443.69,-83.5"/>
<polygon fill="#63b8ff" stroke="#63b8ff" points="497.61,-87 507.61,-83.5 497.61,-80 497.61,-87"/>
</a>
</g>
</g>
<!-- Node14 -->
<g id="Node000014" class="node">
<title>Node14</title>
<g id="a_Node000014"><a xlink:href="structL4_1_1Irq__mux.html#acfd63279449d20bef4226da9a01e5da9" target="_top" xlink:title="Attach an IRQ to this multiplexer.">
<polygon fill="white" stroke="#666666" points="453,-56 347,-56 347,-37 453,-37 453,-56"/>
<text text-anchor="middle" x="400" y="-44" font-family="Helvetica,sans-Serif" font-size="10.00">L4::Irq_mux::chain</text>
</a>
</g>
</g>
<!-- Node13&#45;&gt;Node14 -->
<g id="edge13_Node000013_Node000014" class="edge">
<title>Node13&#45;&gt;Node14</title>
<g id="a_edge13_Node000013_Node000014"><a xlink:title=" ">
<path fill="none" stroke="#63b8ff" d="M488.42,-46.5C476.66,-46.5 464.55,-46.5 453.23,-46.5"/>
<polygon fill="#63b8ff" stroke="#63b8ff" points="488.65,-50 498.65,-46.5 488.65,-43 488.65,-50"/>
</a>
</g>
</g>
<!-- Node15 -->
<g id="Node000015" class="node">
<title>Node15</title>
<g id="a_Node000015"><a xlink:href="group__l4__irq__api.html#ga3176fd8767eeabcf521356c6f1b21ac4" target="_top" xlink:title="Chain an IRQ to another master IRQ source.">
<polygon fill="white" stroke="#666666" points="451,-19 349,-19 349,0 451,0 451,-19"/>
<text text-anchor="middle" x="400" y="-7" font-family="Helvetica,sans-Serif" font-size="10.00">l4_irq_mux_chain</text>
</a>
</g>
</g>
<!-- Node13&#45;&gt;Node15 -->
<g id="edge14_Node000013_Node000015" class="edge">
<title>Node13&#45;&gt;Node15</title>
<g id="a_edge14_Node000013_Node000015"><a xlink:title=" ">
<path fill="none" stroke="#63b8ff" d="M505.03,-34.57C484.2,-29.56 460.3,-23.79 440.66,-19.06"/>
<polygon fill="#63b8ff" stroke="#63b8ff" points="504.43,-38.03 514.97,-36.97 506.07,-31.23 504.43,-38.03"/>
</a>
</g>
</g>
</g>
</svg>
