<?xml version="1.0" encoding="UTF-8" standalone="no"?>
<!DOCTYPE svg PUBLIC "-//W3C//DTD SVG 1.1//EN"
 "http://www.w3.org/Graphics/SVG/1.1/DTD/svg11.dtd">
<!-- Generated by graphviz version 2.43.0 (0)
 -->
<!-- Title: l4_thread_ex_regs_ret Pages: 1 -->
<svg width="643pt" height="83pt"
 viewBox="0.00 0.00 643.00 83.00" xmlns="http://www.w3.org/2000/svg" xmlns:xlink="http://www.w3.org/1999/xlink">
<g id="graph0" class="graph" transform="scale(1 1) rotate(0) translate(4 79)">
<title>l4_thread_ex_regs_ret</title>
<!-- Node1 -->
<g id="Node000001" class="node">
<title>Node1</title>
<g id="a_Node000001"><a xlink:title="Exchange basic thread registers and return previous values.">
<polygon fill="#999999" stroke="#666666" points="125,-37 0,-37 0,-18 125,-18 125,-37"/>
<text text-anchor="middle" x="62.5" y="-25" font-family="Helvetica,sans-Serif" font-size="10.00">l4_thread_ex_regs_ret</text>
</a>
</g>
</g>
<!-- Node2 -->
<g id="Node000002" class="node">
<title>Node2</title>
<g id="a_Node000002"><a xlink:href="group__l4__thread__api.html#ga5e191cd9b1cbc5d0ac9166fb2bdd5a18" target="_top" xlink:title="Exchange basic thread registers and return previous values.">
<polygon fill="white" stroke="#666666" points="297,-56 161,-56 161,-37 297,-37 297,-56"/>
<text text-anchor="middle" x="229" y="-44" font-family="Helvetica,sans-Serif" font-size="10.00">l4_thread_ex_regs_ret_u</text>
</a>
</g>
</g>
<!-- Node1&#45;&gt;Node2 -->
<g id="edge1_Node000001_Node000002" class="edge">
<title>Node1&#45;&gt;Node2</title>
<g id="a_edge1_Node000001_Node000002"><a xlink:title=" ">
<path fill="none" stroke="#63b8ff" d="M125.22,-34.63C133.61,-35.6 142.3,-36.6 150.92,-37.6"/>
<polygon fill="#63b8ff" stroke="#63b8ff" points="150.64,-41.09 160.97,-38.76 151.44,-34.13 150.64,-41.09"/>
</a>
</g>
</g>
<!-- Node7 -->
<g id="Node000007" class="node">
<title>Node7</title>
<g id="a_Node000007"><a xlink:href="group__l4__utcb__api.html#gadc099b4a59e1d99638c72c11a8c8b644" target="_top" xlink:title="Get the UTCB address.">
<polygon fill="white" stroke="#666666" points="255,-19 203,-19 203,0 255,0 255,-19"/>
<text text-anchor="middle" x="229" y="-7" font-family="Helvetica,sans-Serif" font-size="10.00">l4_utcb</text>
</a>
</g>
</g>
<!-- Node1&#45;&gt;Node7 -->
<g id="edge6_Node000001_Node000007" class="edge">
<title>Node1&#45;&gt;Node7</title>
<g id="a_edge6_Node000001_Node000007"><a xlink:title=" ">
<path fill="none" stroke="#63b8ff" d="M125.22,-20.75C148.1,-18.24 173.23,-15.49 192.92,-13.34"/>
<polygon fill="#63b8ff" stroke="#63b8ff" points="193.41,-16.81 202.97,-12.24 192.64,-9.85 193.41,-16.81"/>
</a>
</g>
</g>
<!-- Node3 -->
<g id="Node000003" class="node">
<title>Node3</title>
<g id="a_Node000003"><a xlink:href="group__l4__thread__api.html#ga9387fbfe618c3ede0eae63261ce1662e" target="_top" xlink:title="Exchange basic thread registers.">
<polygon fill="white" stroke="#666666" points="450,-56 333,-56 333,-37 450,-37 450,-56"/>
<text text-anchor="middle" x="391.5" y="-44" font-family="Helvetica,sans-Serif" font-size="10.00">l4_thread_ex_regs_u</text>
</a>
</g>
</g>
<!-- Node2&#45;&gt;Node3 -->
<g id="edge2_Node000002_Node000003" class="edge">
<title>Node2&#45;&gt;Node3</title>
<g id="a_edge2_Node000002_Node000003"><a xlink:title=" ">
<path fill="none" stroke="#63b8ff" d="M297.14,-46.5C305.56,-46.5 314.19,-46.5 322.63,-46.5"/>
<polygon fill="#63b8ff" stroke="#63b8ff" points="322.8,-50 332.8,-46.5 322.8,-43 322.8,-50"/>
</a>
</g>
</g>
<!-- Node4 -->
<g id="Node000004" class="node">
<title>Node4</title>
<g id="a_Node000004"><a xlink:href="group__l4__ipc__api.html#gab96d1669dcd54657237ee27b7f6862c6" target="_top" xlink:title="Object call (usual invocation).">
<polygon fill="white" stroke="#666666" points="554,-75 486,-75 486,-56 554,-56 554,-75"/>
<text text-anchor="middle" x="520" y="-63" font-family="Helvetica,sans-Serif" font-size="10.00">l4_ipc_call</text>
</a>
</g>
</g>
<!-- Node3&#45;&gt;Node4 -->
<g id="edge3_Node000003_Node000004" class="edge">
<title>Node3&#45;&gt;Node4</title>
<g id="a_edge3_Node000003_Node000004"><a xlink:title=" ">
<path fill="none" stroke="#63b8ff" d="M450.2,-55.17C458.81,-56.46 467.56,-57.77 475.81,-59.01"/>
<polygon fill="#63b8ff" stroke="#63b8ff" points="475.52,-62.51 485.93,-60.53 476.56,-55.59 475.52,-62.51"/>
</a>
</g>
</g>
<!-- Node6 -->
<g id="Node000006" class="node">
<title>Node6</title>
<g id="a_Node000006"><a xlink:href="group__l4__msgtag__api.html#ga661d71acad9d096fa990f7c94943bc78" target="_top" xlink:title="Create a message tag from the specified values.">
<polygon fill="white" stroke="#666666" points="554,-38 486,-38 486,-19 554,-19 554,-38"/>
<text text-anchor="middle" x="520" y="-26" font-family="Helvetica,sans-Serif" font-size="10.00">l4_msgtag</text>
</a>
</g>
</g>
<!-- Node3&#45;&gt;Node6 -->
<g id="edge5_Node000003_Node000006" class="edge">
<title>Node3&#45;&gt;Node6</title>
<g id="a_edge5_Node000003_Node000006"><a xlink:title=" ">
<path fill="none" stroke="#63b8ff" d="M450.2,-38.29C458.81,-37.06 467.56,-35.82 475.81,-34.65"/>
<polygon fill="#63b8ff" stroke="#63b8ff" points="476.52,-38.08 485.93,-33.21 475.54,-31.15 476.52,-38.08"/>
</a>
</g>
</g>
<!-- Node5 -->
<g id="Node000005" class="node">
<title>Node5</title>
<g id="a_Node000005"><a xlink:href="group__l4__ipc__api.html#ga1caa56d45e0453b3002e7f5cfdb0dec7" target="_top" xlink:title="Generic L4 object invocation.">
<polygon fill="white" stroke="#666666" points="635,-75 590,-75 590,-56 635,-56 635,-75"/>
<text text-anchor="middle" x="612.5" y="-63" font-family="Helvetica,sans-Serif" font-size="10.00">l4_ipc</text>
</a>
</g>
</g>
<!-- Node4&#45;&gt;Node5 -->
<g id="edge4_Node000004_Node000005" class="edge">
<title>Node4&#45;&gt;Node5</title>
<g id="a_edge4_Node000004_Node000005"><a xlink:title=" ">
<path fill="none" stroke="#63b8ff" d="M554.18,-65.5C562.56,-65.5 571.52,-65.5 579.82,-65.5"/>
<polygon fill="#63b8ff" stroke="#63b8ff" points="579.87,-69 589.87,-65.5 579.87,-62 579.87,-69"/>
</a>
</g>
</g>
</g>
</svg>
