<?xml version="1.0" encoding="UTF-8" standalone="no"?>
<!DOCTYPE svg PUBLIC "-//W3C//DTD SVG 1.1//EN"
 "http://www.w3.org/Graphics/SVG/1.1/DTD/svg11.dtd">
<!-- Generated by graphviz version 2.43.0 (0)
 -->
<!-- Title: l4_thread_yield Pages: 1 -->
<svg width="303pt" height="64pt"
 viewBox="0.00 0.00 303.00 64.00" xmlns="http://www.w3.org/2000/svg" xmlns:xlink="http://www.w3.org/1999/xlink">
<g id="graph0" class="graph" transform="scale(1 1) rotate(0) translate(4 60)">
<title>l4_thread_yield</title>
<!-- Node1 -->
<g id="Node000001" class="node">
<title>Node1</title>
<g id="a_Node000001"><a xlink:title="Yield current time slice.">
<polygon fill="#999999" stroke="#666666" points="92,-37 0,-37 0,-18 92,-18 92,-37"/>
<text text-anchor="middle" x="46" y="-25" font-family="Helvetica,sans-Serif" font-size="10.00">l4_thread_yield</text>
</a>
</g>
</g>
<!-- Node2 -->
<g id="Node000002" class="node">
<title>Node2</title>
<g id="a_Node000002"><a xlink:href="group__l4__ipc__api.html#ga3a8617092651c67f9ef1670b53fce66c" target="_top" xlink:title="Wait for a message from a specific source.">
<polygon fill="white" stroke="#666666" points="214,-56 128,-56 128,-37 214,-37 214,-56"/>
<text text-anchor="middle" x="171" y="-44" font-family="Helvetica,sans-Serif" font-size="10.00">l4_ipc_receive</text>
</a>
</g>
</g>
<!-- Node1&#45;&gt;Node2 -->
<g id="edge1_Node000001_Node000002" class="edge">
<title>Node1&#45;&gt;Node2</title>
<g id="a_edge1_Node000001_Node000002"><a xlink:title=" ">
<path fill="none" stroke="#63b8ff" d="M92.1,-34.47C100.48,-35.76 109.3,-37.12 117.86,-38.45"/>
<polygon fill="#63b8ff" stroke="#63b8ff" points="117.35,-41.91 127.76,-39.98 118.42,-34.99 117.35,-41.91"/>
</a>
</g>
</g>
<!-- Node4 -->
<g id="Node000004" class="node">
<title>Node4</title>
<g id="a_Node000004"><a xlink:href="group__l4__msgtag__api.html#ga661d71acad9d096fa990f7c94943bc78" target="_top" xlink:title="Create a message tag from the specified values.">
<polygon fill="white" stroke="#666666" points="205,-19 137,-19 137,0 205,0 205,-19"/>
<text text-anchor="middle" x="171" y="-7" font-family="Helvetica,sans-Serif" font-size="10.00">l4_msgtag</text>
</a>
</g>
</g>
<!-- Node1&#45;&gt;Node4 -->
<g id="edge3_Node000001_Node000004" class="edge">
<title>Node1&#45;&gt;Node4</title>
<g id="a_edge3_Node000001_Node000004"><a xlink:title=" ">
<path fill="none" stroke="#63b8ff" d="M92.1,-20.9C103.44,-19.24 115.58,-17.46 126.82,-15.82"/>
<polygon fill="#63b8ff" stroke="#63b8ff" points="127.46,-19.26 136.85,-14.35 126.44,-12.34 127.46,-19.26"/>
</a>
</g>
</g>
<!-- Node3 -->
<g id="Node000003" class="node">
<title>Node3</title>
<g id="a_Node000003"><a xlink:href="group__l4__ipc__api.html#ga1caa56d45e0453b3002e7f5cfdb0dec7" target="_top" xlink:title="Generic L4 object invocation.">
<polygon fill="white" stroke="#666666" points="295,-56 250,-56 250,-37 295,-37 295,-56"/>
<text text-anchor="middle" x="272.5" y="-44" font-family="Helvetica,sans-Serif" font-size="10.00">l4_ipc</text>
</a>
</g>
</g>
<!-- Node2&#45;&gt;Node3 -->
<g id="edge2_Node000002_Node000003" class="edge">
<title>Node2&#45;&gt;Node3</title>
<g id="a_edge2_Node000002_Node000003"><a xlink:title=" ">
<path fill="none" stroke="#63b8ff" d="M214.2,-46.5C222.74,-46.5 231.59,-46.5 239.7,-46.5"/>
<polygon fill="#63b8ff" stroke="#63b8ff" points="239.86,-50 249.86,-46.5 239.86,-43 239.86,-50"/>
</a>
</g>
</g>
</g>
</svg>
