<?xml version="1.0" encoding="UTF-8" standalone="no"?>
<!DOCTYPE svg PUBLIC "-//W3C//DTD SVG 1.1//EN"
 "http://www.w3.org/Graphics/SVG/1.1/DTD/svg11.dtd">
<!-- Generated by graphviz version 2.43.0 (0)
 -->
<!-- Title: l4/sys/icu Pages: 1 -->
<svg width="1346pt" height="401pt"
 viewBox="0.00 0.00 1345.50 401.00" xmlns="http://www.w3.org/2000/svg" xmlns:xlink="http://www.w3.org/1999/xlink">
<g id="graph0" class="graph" transform="scale(1 1) rotate(0) translate(4 397)">
<title>l4/sys/icu</title>
<!-- Node1 -->
<g id="Node000001" class="node">
<title>Node1</title>
<g id="a_Node000001"><a xlink:title="Interrupt controller.">
<polygon fill="#999999" stroke="#666666" points="614,-393 552,-393 552,-374 614,-374 614,-393"/>
<text text-anchor="middle" x="583" y="-381" font-family="Helvetica,sans-Serif" font-size="10.00">l4/sys/icu</text>
</a>
</g>
</g>
<!-- Node2 -->
<g id="Node000002" class="node">
<title>Node2</title>
<g id="a_Node000002"><a xlink:href="random.html" target="_top" xlink:title="Random number generator interface definition.">
<polygon fill="white" stroke="#666666" points="468.5,-338 389.5,-338 389.5,-319 468.5,-319 468.5,-338"/>
<text text-anchor="middle" x="429" y="-326" font-family="Helvetica,sans-Serif" font-size="10.00">l4/re/random</text>
</a>
</g>
</g>
<!-- Node1&#45;&gt;Node2 -->
<g id="edge1_Node000001_Node000002" class="edge">
<title>Node1&#45;&gt;Node2</title>
<g id="a_edge1_Node000001_Node000002"><a xlink:title=" ">
<path fill="none" stroke="#63b8ff" d="M548.62,-370.67C519.91,-360.79 479.64,-346.93 453.94,-338.08"/>
<polygon fill="#63b8ff" stroke="#63b8ff" points="547.66,-374.04 558.26,-373.98 549.94,-367.42 547.66,-374.04"/>
</a>
</g>
</g>
<!-- Node3 -->
<g id="Node000003" class="node">
<title>Node3</title>
<g id="a_Node000003"><a xlink:href="icu__svr_source.html" target="_top" xlink:title=" ">
<polygon fill="white" stroke="#666666" points="107.5,-156.5 12.5,-156.5 12.5,-137.5 107.5,-137.5 107.5,-156.5"/>
<text text-anchor="middle" x="60" y="-144.5" font-family="Helvetica,sans-Serif" font-size="10.00">l4/re/util/icu_svr</text>
</a>
</g>
</g>
<!-- Node1&#45;&gt;Node3 -->
<g id="edge2_Node000001_Node000003" class="edge">
<title>Node1&#45;&gt;Node3</title>
<g id="a_edge2_Node000001_Node000003"><a xlink:title=" ">
<path fill="none" stroke="#63b8ff" d="M561.48,-368.3C540.44,-354.73 507.24,-334.15 477,-319 332.54,-246.62 149.8,-179.75 84.54,-156.59"/>
<polygon fill="#63b8ff" stroke="#63b8ff" points="559.68,-371.3 569.98,-373.82 563.5,-365.43 559.68,-371.3"/>
</a>
</g>
</g>
<!-- Node5 -->
<g id="Node000005" class="node">
<title>Node5</title>
<g id="a_Node000005"><a xlink:href="scheduler.html" target="_top" xlink:title="Scheduler object functions.">
<polygon fill="white" stroke="#666666" points="731.5,-338 636.5,-338 636.5,-319 731.5,-319 731.5,-338"/>
<text text-anchor="middle" x="684" y="-326" font-family="Helvetica,sans-Serif" font-size="10.00">l4/sys/scheduler</text>
</a>
</g>
</g>
<!-- Node1&#45;&gt;Node5 -->
<g id="edge4_Node000001_Node000005" class="edge">
<title>Node1&#45;&gt;Node5</title>
<g id="a_edge4_Node000001_Node000005"><a xlink:title=" ">
<path fill="none" stroke="#63b8ff" d="M608.28,-369.23C626.8,-359.51 651.42,-346.6 667.48,-338.17"/>
<polygon fill="#63b8ff" stroke="#63b8ff" points="606.46,-366.24 599.23,-373.98 609.71,-372.44 606.46,-366.24"/>
</a>
</g>
</g>
<!-- Node6 -->
<g id="Node000006" class="node">
<title>Node6</title>
<g id="a_Node000006"><a xlink:href="vcon.html" target="_top" xlink:title="C++ Virtual console interface.">
<polygon fill="white" stroke="#666666" points="618.5,-338 547.5,-338 547.5,-319 618.5,-319 618.5,-338"/>
<text text-anchor="middle" x="583" y="-326" font-family="Helvetica,sans-Serif" font-size="10.00">l4/sys/vcon</text>
</a>
</g>
</g>
<!-- Node1&#45;&gt;Node6 -->
<g id="edge5_Node000001_Node000006" class="edge">
<title>Node1&#45;&gt;Node6</title>
<g id="a_edge5_Node000001_Node000006"><a xlink:title=" ">
<path fill="none" stroke="#63b8ff" d="M583,-363.66C583,-354.93 583,-344.99 583,-338.09"/>
<polygon fill="#63b8ff" stroke="#63b8ff" points="579.5,-363.75 583,-373.75 586.5,-363.75 579.5,-363.75"/>
</a>
</g>
</g>
<!-- Node25 -->
<g id="Node000025" class="node">
<title>Node25</title>
<g id="a_Node000025"><a xlink:href="vbus_source.html" target="_top" xlink:title=" ">
<polygon fill="white" stroke="#666666" points="910,-338 832,-338 832,-319 910,-319 910,-338"/>
<text text-anchor="middle" x="871" y="-326" font-family="Helvetica,sans-Serif" font-size="10.00">l4/vbus/vbus</text>
</a>
</g>
</g>
<!-- Node1&#45;&gt;Node25 -->
<g id="edge31_Node000001_Node000025" class="edge">
<title>Node1&#45;&gt;Node25</title>
<g id="a_edge31_Node000001_Node000025"><a xlink:title=" ">
<path fill="none" stroke="#63b8ff" d="M624.26,-374.91C679.68,-364.71 777.46,-346.71 831.81,-336.71"/>
<polygon fill="#63b8ff" stroke="#63b8ff" points="623.3,-371.53 614.09,-376.78 624.56,-378.41 623.3,-371.53"/>
</a>
</g>
</g>
<!-- Node4 -->
<g id="Node000004" class="node">
<title>Node4</title>
<g id="a_Node000004"><a xlink:href="event__svr_source.html" target="_top" xlink:title=" ">
<polygon fill="white" stroke="#666666" points="108,-90.5 0,-90.5 0,-71.5 108,-71.5 108,-90.5"/>
<text text-anchor="middle" x="54" y="-78.5" font-family="Helvetica,sans-Serif" font-size="10.00">l4/re/util/event_svr</text>
</a>
</g>
</g>
<!-- Node3&#45;&gt;Node4 -->
<g id="edge3_Node000003_Node000004" class="edge">
<title>Node3&#45;&gt;Node4</title>
<g id="a_edge3_Node000003_Node000004"><a xlink:title=" ">
<path fill="none" stroke="#63b8ff" d="M58.23,-127.08C57.11,-115.13 55.71,-100.22 54.83,-90.91"/>
<polygon fill="#63b8ff" stroke="#63b8ff" points="54.77,-127.74 59.19,-137.37 61.74,-127.09 54.77,-127.74"/>
</a>
</g>
</g>
<!-- Node7 -->
<g id="Node000007" class="node">
<title>Node7</title>
<g id="a_Node000007"><a xlink:href="vcon__stream_8h_source.html" target="_top" xlink:title=" ">
<polygon fill="white" stroke="#666666" points="1204.5,-228 1085.5,-228 1085.5,-198 1204.5,-198 1204.5,-228"/>
<text text-anchor="start" x="1093.5" y="-216" font-family="Helvetica,sans-Serif" font-size="10.00">l4/l4re_vfs/impl/vcon</text>
<text text-anchor="middle" x="1145" y="-205" font-family="Helvetica,sans-Serif" font-size="10.00">_stream.h</text>
</a>
</g>
</g>
<!-- Node6&#45;&gt;Node7 -->
<g id="edge6_Node000006_Node000007" class="edge">
<title>Node6&#45;&gt;Node7</title>
<g id="a_edge6_Node000006_Node000007"><a xlink:title=" ">
<path fill="none" stroke="#63b8ff" d="M621.11,-315.94C647.29,-307.64 682.66,-295.71 713,-283 730.42,-275.7 732.93,-269.49 751,-264 865.96,-229.08 1006.96,-218.53 1085.3,-215.36"/>
<polygon fill="#63b8ff" stroke="#63b8ff" points="620.05,-312.6 611.56,-318.94 622.15,-319.28 620.05,-312.6"/>
</a>
</g>
</g>
<!-- Node10 -->
<g id="Node000010" class="node">
<title>Node10</title>
<g id="a_Node000010"><a xlink:href="log.html" target="_top" xlink:title="Log interface.">
<polygon fill="white" stroke="#666666" points="582,-283 526,-283 526,-264 582,-264 582,-283"/>
<text text-anchor="middle" x="554" y="-271" font-family="Helvetica,sans-Serif" font-size="10.00">l4/re/log</text>
</a>
</g>
</g>
<!-- Node6&#45;&gt;Node10 -->
<g id="edge9_Node000006_Node000010" class="edge">
<title>Node6&#45;&gt;Node10</title>
<g id="a_edge9_Node000006_Node000010"><a xlink:title=" ">
<path fill="none" stroke="#63b8ff" d="M573.32,-309.82C568.4,-300.82 562.64,-290.29 558.7,-283.09"/>
<polygon fill="#63b8ff" stroke="#63b8ff" points="570.34,-311.66 578.21,-318.75 576.48,-308.3 570.34,-311.66"/>
</a>
</g>
</g>
<!-- Node24 -->
<g id="Node000024" class="node">
<title>Node24</title>
<g id="a_Node000024"><a xlink:href="vcon__svr_source.html" target="_top" xlink:title=" ">
<polygon fill="white" stroke="#666666" points="704,-283 600,-283 600,-264 704,-264 704,-283"/>
<text text-anchor="middle" x="652" y="-271" font-family="Helvetica,sans-Serif" font-size="10.00">l4/re/util/vcon_svr</text>
</a>
</g>
</g>
<!-- Node6&#45;&gt;Node24 -->
<g id="edge30_Node000006_Node000024" class="edge">
<title>Node6&#45;&gt;Node24</title>
<g id="a_edge30_Node000006_Node000024"><a xlink:title=" ">
<path fill="none" stroke="#63b8ff" d="M602.04,-312.88C614.46,-303.34 630.24,-291.21 640.71,-283.17"/>
<polygon fill="#63b8ff" stroke="#63b8ff" points="599.88,-310.12 594.09,-318.98 604.15,-315.67 599.88,-310.12"/>
</a>
</g>
</g>
<!-- Node8 -->
<g id="Node000008" class="node">
<title>Node8</title>
<g id="a_Node000008"><a xlink:href="vcon__stream__impl_8h_source.html" target="_top" xlink:title=" ">
<polygon fill="white" stroke="#666666" points="1337.5,-162 1218.5,-162 1218.5,-132 1337.5,-132 1337.5,-162"/>
<text text-anchor="start" x="1226.5" y="-150" font-family="Helvetica,sans-Serif" font-size="10.00">l4/l4re_vfs/impl/vcon</text>
<text text-anchor="middle" x="1278" y="-139" font-family="Helvetica,sans-Serif" font-size="10.00">_stream_impl.h</text>
</a>
</g>
</g>
<!-- Node7&#45;&gt;Node8 -->
<g id="edge7_Node000007_Node000008" class="edge">
<title>Node7&#45;&gt;Node8</title>
<g id="a_edge7_Node000007_Node000008"><a xlink:title=" ">
<path fill="none" stroke="#63b8ff" d="M1183.42,-193.51C1204.28,-183.47 1229.67,-171.26 1248.88,-162.01"/>
<polygon fill="#63b8ff" stroke="#63b8ff" points="1181.68,-190.46 1174.19,-197.95 1184.72,-196.77 1181.68,-190.46"/>
</a>
</g>
</g>
<!-- Node9 -->
<g id="Node000009" class="node">
<title>Node9</title>
<g id="a_Node000009"><a xlink:href="vfs__impl_8h_source.html" target="_top" xlink:title=" ">
<polygon fill="white" stroke="#666666" points="1200,-162 1090,-162 1090,-132 1200,-132 1200,-162"/>
<text text-anchor="start" x="1098" y="-150" font-family="Helvetica,sans-Serif" font-size="10.00">l4/l4re_vfs/impl/vfs</text>
<text text-anchor="middle" x="1145" y="-139" font-family="Helvetica,sans-Serif" font-size="10.00">_impl.h</text>
</a>
</g>
</g>
<!-- Node7&#45;&gt;Node9 -->
<g id="edge8_Node000007_Node000009" class="edge">
<title>Node7&#45;&gt;Node9</title>
<g id="a_edge8_Node000007_Node000009"><a xlink:title=" ">
<path fill="none" stroke="#63b8ff" d="M1145,-187.54C1145,-178.96 1145,-169.61 1145,-162.16"/>
<polygon fill="#63b8ff" stroke="#63b8ff" points="1141.5,-187.8 1145,-197.8 1148.5,-187.8 1141.5,-187.8"/>
</a>
</g>
</g>
<!-- Node11 -->
<g id="Node000011" class="node">
<title>Node11</title>
<g id="a_Node000011"><a xlink:href="env.html" target="_top" xlink:title="Environment interface.">
<polygon fill="white" stroke="#666666" points="584.5,-222.5 525.5,-222.5 525.5,-203.5 584.5,-203.5 584.5,-222.5"/>
<text text-anchor="middle" x="555" y="-210.5" font-family="Helvetica,sans-Serif" font-size="10.00">l4/re/env</text>
</a>
</g>
</g>
<!-- Node10&#45;&gt;Node11 -->
<g id="edge10_Node000010_Node000011" class="edge">
<title>Node10&#45;&gt;Node11</title>
<g id="a_edge10_Node000010_Node000011"><a xlink:title=" ">
<path fill="none" stroke="#63b8ff" d="M554.32,-253.66C554.5,-243.24 554.71,-230.8 554.85,-222.67"/>
<polygon fill="#63b8ff" stroke="#63b8ff" points="550.82,-253.81 554.15,-263.87 557.82,-253.93 550.82,-253.81"/>
</a>
</g>
</g>
<!-- Node11&#45;&gt;Node3 -->
<g id="edge24_Node000011_Node000003" class="edge">
<title>Node11&#45;&gt;Node3</title>
<g id="a_edge24_Node000011_Node000003"><a xlink:title=" ">
<path fill="none" stroke="#63b8ff" d="M521.65,-200.56C518.08,-199.59 514.48,-198.71 511,-198 340.84,-163.48 293.49,-189.18 122,-162 112.84,-160.55 103.02,-158.54 93.96,-156.5"/>
<polygon fill="#63b8ff" stroke="#63b8ff" points="520.92,-204 531.5,-203.49 522.91,-197.29 520.92,-204"/>
</a>
</g>
</g>
<!-- Node11&#45;&gt;Node8 -->
<g id="edge12_Node000011_Node000008" class="edge">
<title>Node11&#45;&gt;Node8</title>
<g id="a_edge12_Node000011_Node000008"><a xlink:title=" ">
<path fill="none" stroke="#63b8ff" d="M595,-210.67C697.51,-206.88 977.79,-194.17 1209,-162 1212.03,-161.58 1215.12,-161.11 1218.24,-160.6"/>
<polygon fill="#63b8ff" stroke="#63b8ff" points="594.67,-207.18 584.8,-211.04 594.92,-214.17 594.67,-207.18"/>
</a>
</g>
</g>
<!-- Node11&#45;&gt;Node9 -->
<g id="edge13_Node000011_Node000009" class="edge">
<title>Node11&#45;&gt;Node9</title>
<g id="a_edge13_Node000011_Node000009"><a xlink:title=" ">
<path fill="none" stroke="#63b8ff" d="M594.59,-209.87C682.51,-204.79 900.51,-190.21 1081,-162 1083.92,-161.54 1086.91,-161.03 1089.92,-160.49"/>
<polygon fill="#63b8ff" stroke="#63b8ff" points="594.31,-206.38 584.52,-210.45 594.71,-213.37 594.31,-206.38"/>
</a>
</g>
</g>
<!-- Node12 -->
<g id="Node000012" class="node">
<title>Node12</title>
<g id="a_Node000012"><a xlink:href="ro__file__impl_8h_source.html" target="_top" xlink:title=" ">
<polygon fill="white" stroke="#666666" points="1071.5,-162 966.5,-162 966.5,-132 1071.5,-132 1071.5,-162"/>
<text text-anchor="start" x="974.5" y="-150" font-family="Helvetica,sans-Serif" font-size="10.00">l4/l4re_vfs/impl/ro</text>
<text text-anchor="middle" x="1019" y="-139" font-family="Helvetica,sans-Serif" font-size="10.00">_file_impl.h</text>
</a>
</g>
</g>
<!-- Node11&#45;&gt;Node12 -->
<g id="edge11_Node000011_Node000012" class="edge">
<title>Node11&#45;&gt;Node12</title>
<g id="a_edge11_Node000011_Node000012"><a xlink:title=" ">
<path fill="none" stroke="#63b8ff" d="M594.69,-208.37C667.05,-201.46 825.1,-185.04 957,-162 960.04,-161.47 963.16,-160.89 966.31,-160.27"/>
<polygon fill="#63b8ff" stroke="#63b8ff" points="594.28,-204.89 584.65,-209.32 594.94,-211.86 594.28,-204.89"/>
</a>
</g>
</g>
<!-- Node13 -->
<g id="Node000013" class="node">
<title>Node13</title>
<g id="a_Node000013"><a xlink:href="client_2l4virtio_source.html" target="_top" xlink:title=" ">
<polygon fill="white" stroke="#666666" points="335.5,-96 242.5,-96 242.5,-66 335.5,-66 335.5,-96"/>
<text text-anchor="start" x="250.5" y="-84" font-family="Helvetica,sans-Serif" font-size="10.00">l4/l4virtio/client</text>
<text text-anchor="middle" x="289" y="-73" font-family="Helvetica,sans-Serif" font-size="10.00">/l4virtio</text>
</a>
</g>
</g>
<!-- Node11&#45;&gt;Node13 -->
<g id="edge14_Node000011_Node000013" class="edge">
<title>Node11&#45;&gt;Node13</title>
<g id="a_edge14_Node000011_Node000013"><a xlink:title=" ">
<path fill="none" stroke="#63b8ff" d="M519.67,-200.46C516.75,-199.6 513.83,-198.76 511,-198 440.22,-178.87 411.74,-201.55 350,-162 324.26,-145.51 305.21,-114.18 295.73,-96.01"/>
<polygon fill="#63b8ff" stroke="#63b8ff" points="518.93,-203.89 529.52,-203.47 520.98,-197.2 518.93,-203.89"/>
</a>
</g>
</g>
<!-- Node14 -->
<g id="Node000014" class="node">
<title>Node14</title>
<g id="a_Node000014"><a xlink:href="client_2virtio-block_source.html" target="_top" xlink:title=" ">
<polygon fill="white" stroke="#666666" points="260.5,-30 167.5,-30 167.5,0 260.5,0 260.5,-30"/>
<text text-anchor="start" x="175.5" y="-18" font-family="Helvetica,sans-Serif" font-size="10.00">l4/l4virtio/client</text>
<text text-anchor="middle" x="214" y="-7" font-family="Helvetica,sans-Serif" font-size="10.00">/virtio&#45;block</text>
</a>
</g>
</g>
<!-- Node11&#45;&gt;Node14 -->
<g id="edge17_Node000011_Node000014" class="edge">
<title>Node11&#45;&gt;Node14</title>
<g id="a_edge17_Node000011_Node000014"><a xlink:title=" ">
<path fill="none" stroke="#63b8ff" d="M521.39,-200.53C517.91,-199.57 514.4,-198.7 511,-198 433.14,-181.86 208.32,-220.99 155,-162 119.25,-122.45 172.2,-58.44 199.46,-30.18"/>
<polygon fill="#63b8ff" stroke="#63b8ff" points="520.45,-203.9 531.03,-203.38 522.44,-197.19 520.45,-203.9"/>
</a>
</g>
</g>
<!-- Node15 -->
<g id="Node000015" class="node">
<title>Node15</title>
<g id="a_Node000015"><a xlink:href="virtio-net_source.html" target="_top" xlink:title=" ">
<polygon fill="white" stroke="#666666" points="390.5,-30 297.5,-30 297.5,0 390.5,0 390.5,-30"/>
<text text-anchor="start" x="305.5" y="-18" font-family="Helvetica,sans-Serif" font-size="10.00">l4/l4virtio/client</text>
<text text-anchor="middle" x="344" y="-7" font-family="Helvetica,sans-Serif" font-size="10.00">/virtio&#45;net</text>
</a>
</g>
</g>
<!-- Node11&#45;&gt;Node15 -->
<g id="edge18_Node000011_Node000015" class="edge">
<title>Node11&#45;&gt;Node15</title>
<g id="a_edge18_Node000011_Node000015"><a xlink:title=" ">
<path fill="none" stroke="#63b8ff" d="M518.9,-200.41C516.23,-199.58 513.57,-198.77 511,-198 454.39,-181.04 424.51,-204.06 383,-162 346.88,-125.4 343.21,-59.26 343.47,-30.27"/>
<polygon fill="#63b8ff" stroke="#63b8ff" points="517.93,-203.77 528.52,-203.41 520.02,-197.09 517.93,-203.77"/>
</a>
</g>
</g>
<!-- Node16 -->
<g id="Node000016" class="node">
<title>Node16</title>
<g id="a_Node000016"><a xlink:href="server_2l4virtio_source.html" target="_top" xlink:title=" ">
<polygon fill="white" stroke="#666666" points="489.5,-162 392.5,-162 392.5,-132 489.5,-132 489.5,-162"/>
<text text-anchor="start" x="400.5" y="-150" font-family="Helvetica,sans-Serif" font-size="10.00">l4/l4virtio/server</text>
<text text-anchor="middle" x="441" y="-139" font-family="Helvetica,sans-Serif" font-size="10.00">/l4virtio</text>
</a>
</g>
</g>
<!-- Node11&#45;&gt;Node16 -->
<g id="edge19_Node000011_Node000016" class="edge">
<title>Node11&#45;&gt;Node16</title>
<g id="a_edge19_Node000011_Node000016"><a xlink:title=" ">
<path fill="none" stroke="#63b8ff" d="M530.69,-198.35C511.69,-187.68 485.36,-172.9 466.14,-162.12"/>
<polygon fill="#63b8ff" stroke="#63b8ff" points="529.19,-201.53 539.63,-203.37 532.62,-195.42 529.19,-201.53"/>
</a>
</g>
</g>
<!-- Node18 -->
<g id="Node000018" class="node">
<title>Node18</title>
<g id="a_Node000018"><a xlink:href="env__ns_source.html" target="_top" xlink:title=" ">
<polygon fill="white" stroke="#666666" points="602.5,-156.5 507.5,-156.5 507.5,-137.5 602.5,-137.5 602.5,-156.5"/>
<text text-anchor="middle" x="555" y="-144.5" font-family="Helvetica,sans-Serif" font-size="10.00">l4/re/util/env_ns</text>
</a>
</g>
</g>
<!-- Node11&#45;&gt;Node18 -->
<g id="edge21_Node000011_Node000018" class="edge">
<title>Node11&#45;&gt;Node18</title>
<g id="a_edge21_Node000011_Node000018"><a xlink:title=" ">
<path fill="none" stroke="#63b8ff" d="M555,-193.08C555,-181.13 555,-166.22 555,-156.91"/>
<polygon fill="#63b8ff" stroke="#63b8ff" points="551.5,-193.37 555,-203.37 558.5,-193.37 551.5,-193.37"/>
</a>
</g>
</g>
<!-- Node20 -->
<g id="Node000020" class="node">
<title>Node20</title>
<g id="a_Node000020"><a xlink:href="util_2event.html" target="_top" xlink:title=" ">
<polygon fill="white" stroke="#666666" points="709,-156.5 621,-156.5 621,-137.5 709,-137.5 709,-156.5"/>
<text text-anchor="middle" x="665" y="-144.5" font-family="Helvetica,sans-Serif" font-size="10.00">l4/re/util/event</text>
</a>
</g>
</g>
<!-- Node11&#45;&gt;Node20 -->
<g id="edge23_Node000011_Node000020" class="edge">
<title>Node11&#45;&gt;Node20</title>
<g id="a_edge23_Node000011_Node000020"><a xlink:title=" ">
<path fill="none" stroke="#63b8ff" d="M578.74,-198.19C600.38,-185.59 631.71,-167.37 650.05,-156.7"/>
<polygon fill="#63b8ff" stroke="#63b8ff" points="576.72,-195.31 569.84,-203.37 580.24,-201.36 576.72,-195.31"/>
</a>
</g>
</g>
<!-- Node21 -->
<g id="Node000021" class="node">
<title>Node21</title>
<g id="a_Node000021"><a xlink:href="kumem__alloc.html" target="_top" xlink:title="Kumem allocator helper.">
<polygon fill="white" stroke="#666666" points="851.5,-156.5 726.5,-156.5 726.5,-137.5 851.5,-137.5 851.5,-156.5"/>
<text text-anchor="middle" x="789" y="-144.5" font-family="Helvetica,sans-Serif" font-size="10.00">l4/re/util/kumem_alloc</text>
</a>
</g>
</g>
<!-- Node11&#45;&gt;Node21 -->
<g id="edge25_Node000011_Node000021" class="edge">
<title>Node11&#45;&gt;Node21</title>
<g id="a_edge25_Node000011_Node000021"><a xlink:title=" ">
<path fill="none" stroke="#63b8ff" d="M594.55,-201.18C640.57,-188.6 715.61,-168.07 757.74,-156.55"/>
<polygon fill="#63b8ff" stroke="#63b8ff" points="593.36,-197.88 584.64,-203.89 595.21,-204.63 593.36,-197.88"/>
</a>
</g>
</g>
<!-- Node22 -->
<g id="Node000022" class="node">
<title>Node22</title>
<g id="a_Node000022"><a xlink:href="object__registry_source.html" target="_top" xlink:title=" ">
<polygon fill="white" stroke="#666666" points="297.5,-156.5 164.5,-156.5 164.5,-137.5 297.5,-137.5 297.5,-156.5"/>
<text text-anchor="middle" x="231" y="-144.5" font-family="Helvetica,sans-Serif" font-size="10.00">l4/re/util/object_registry</text>
</a>
</g>
</g>
<!-- Node11&#45;&gt;Node22 -->
<g id="edge26_Node000011_Node000022" class="edge">
<title>Node11&#45;&gt;Node22</title>
<g id="a_edge26_Node000011_Node000022"><a xlink:title=" ">
<path fill="none" stroke="#63b8ff" d="M520.23,-200.48C517.13,-199.59 514.02,-198.75 511,-198 499.85,-195.24 357.09,-170.1 279.86,-156.55"/>
<polygon fill="#63b8ff" stroke="#63b8ff" points="519.45,-203.89 530.03,-203.43 521.47,-197.19 519.45,-203.89"/>
</a>
</g>
</g>
<!-- Node23 -->
<g id="Node000023" class="node">
<title>Node23</title>
<g id="a_Node000023"><a xlink:href="vcpu.html" target="_top" xlink:title="vCPU support library (C++ interface).">
<polygon fill="white" stroke="#666666" points="948,-156.5 870,-156.5 870,-137.5 948,-137.5 948,-156.5"/>
<text text-anchor="middle" x="909" y="-144.5" font-family="Helvetica,sans-Serif" font-size="10.00">l4/vcpu/vcpu</text>
</a>
</g>
</g>
<!-- Node11&#45;&gt;Node23 -->
<g id="edge29_Node000011_Node000023" class="edge">
<title>Node11&#45;&gt;Node23</title>
<g id="a_edge29_Node000011_Node000023"><a xlink:title=" ">
<path fill="none" stroke="#63b8ff" d="M594.59,-207C653.03,-199.29 765.66,-183.14 860,-162 866.91,-160.45 874.28,-158.51 881.16,-156.56"/>
<polygon fill="#63b8ff" stroke="#63b8ff" points="594.12,-203.53 584.66,-208.3 595.03,-210.47 594.12,-203.53"/>
</a>
</g>
</g>
<!-- Node13&#45;&gt;Node14 -->
<g id="edge15_Node000013_Node000014" class="edge">
<title>Node13&#45;&gt;Node14</title>
<g id="a_edge15_Node000013_Node000014"><a xlink:title=" ">
<path fill="none" stroke="#63b8ff" d="M264.63,-59.2C253.49,-49.7 240.59,-38.69 230.6,-30.16"/>
<polygon fill="#63b8ff" stroke="#63b8ff" points="262.48,-61.97 272.36,-65.8 267.02,-56.64 262.48,-61.97"/>
</a>
</g>
</g>
<!-- Node13&#45;&gt;Node15 -->
<g id="edge16_Node000013_Node000015" class="edge">
<title>Node13&#45;&gt;Node15</title>
<g id="a_edge16_Node000013_Node000015"><a xlink:title=" ">
<path fill="none" stroke="#63b8ff" d="M307.83,-58.09C315.77,-48.85 324.78,-38.36 331.83,-30.16"/>
<polygon fill="#63b8ff" stroke="#63b8ff" points="305.07,-55.93 301.21,-65.8 310.38,-60.49 305.07,-55.93"/>
</a>
</g>
</g>
<!-- Node17 -->
<g id="Node000017" class="node">
<title>Node17</title>
<g id="a_Node000017"><a xlink:href="server_2virtio-block_source.html" target="_top" xlink:title=" ">
<polygon fill="white" stroke="#666666" points="489.5,-96 392.5,-96 392.5,-66 489.5,-66 489.5,-96"/>
<text text-anchor="start" x="400.5" y="-84" font-family="Helvetica,sans-Serif" font-size="10.00">l4/l4virtio/server</text>
<text text-anchor="middle" x="441" y="-73" font-family="Helvetica,sans-Serif" font-size="10.00">/virtio&#45;block</text>
</a>
</g>
</g>
<!-- Node16&#45;&gt;Node17 -->
<g id="edge20_Node000016_Node000017" class="edge">
<title>Node16&#45;&gt;Node17</title>
<g id="a_edge20_Node000016_Node000017"><a xlink:title=" ">
<path fill="none" stroke="#63b8ff" d="M441,-121.54C441,-112.96 441,-103.61 441,-96.16"/>
<polygon fill="#63b8ff" stroke="#63b8ff" points="437.5,-121.8 441,-131.8 444.5,-121.8 437.5,-121.8"/>
</a>
</g>
</g>
<!-- Node19 -->
<g id="Node000019" class="node">
<title>Node19</title>
<g id="a_Node000019"><a xlink:href="ns__fs__impl_8h_source.html" target="_top" xlink:title=" ">
<polygon fill="white" stroke="#666666" points="614.5,-96 507.5,-96 507.5,-66 614.5,-66 614.5,-96"/>
<text text-anchor="start" x="515.5" y="-84" font-family="Helvetica,sans-Serif" font-size="10.00">l4/l4re_vfs/impl/ns</text>
<text text-anchor="middle" x="561" y="-73" font-family="Helvetica,sans-Serif" font-size="10.00">_fs_impl.h</text>
</a>
</g>
</g>
<!-- Node18&#45;&gt;Node19 -->
<g id="edge22_Node000018_Node000019" class="edge">
<title>Node18&#45;&gt;Node19</title>
<g id="a_edge22_Node000018_Node000019"><a xlink:title=" ">
<path fill="none" stroke="#63b8ff" d="M556.75,-127.35C557.68,-117.47 558.8,-105.51 559.65,-96.36"/>
<polygon fill="#63b8ff" stroke="#63b8ff" points="553.26,-127.09 555.81,-137.37 560.23,-127.74 553.26,-127.09"/>
</a>
</g>
</g>
<!-- Node22&#45;&gt;Node13 -->
<g id="edge27_Node000022_Node000013" class="edge">
<title>Node22&#45;&gt;Node13</title>
<g id="a_edge27_Node000022_Node000013"><a xlink:title=" ">
<path fill="none" stroke="#63b8ff" d="M245.64,-129.85C254.98,-119.54 266.98,-106.3 275.99,-96.36"/>
<polygon fill="#63b8ff" stroke="#63b8ff" points="242.94,-127.61 238.82,-137.37 248.13,-132.31 242.94,-127.61"/>
</a>
</g>
</g>
<!-- Node22&#45;&gt;Node14 -->
<g id="edge28_Node000022_Node000014" class="edge">
<title>Node22&#45;&gt;Node14</title>
<g id="a_edge28_Node000022_Node000014"><a xlink:title=" ">
<path fill="none" stroke="#63b8ff" d="M228.56,-127.32C225.12,-101 218.92,-53.61 215.84,-30.07"/>
<polygon fill="#63b8ff" stroke="#63b8ff" points="225.12,-128.01 229.88,-137.47 232.06,-127.1 225.12,-128.01"/>
</a>
</g>
</g>
<!-- Node26 -->
<g id="Node000026" class="node">
<title>Node26</title>
<g id="a_Node000026"><a xlink:href="vbus__generic_source.html" target="_top" xlink:title=" ">
<polygon fill="white" stroke="#666666" points="1117.5,-283 998.5,-283 998.5,-264 1117.5,-264 1117.5,-283"/>
<text text-anchor="middle" x="1058" y="-271" font-family="Helvetica,sans-Serif" font-size="10.00">l4/vbus/vbus_generic</text>
</a>
</g>
</g>
<!-- Node25&#45;&gt;Node26 -->
<g id="edge32_Node000025_Node000026" class="edge">
<title>Node25&#45;&gt;Node26</title>
<g id="a_edge32_Node000025_Node000026"><a xlink:title=" ">
<path fill="none" stroke="#63b8ff" d="M910.93,-316.18C945.9,-306.27 995.96,-292.08 1027.72,-283.08"/>
<polygon fill="#63b8ff" stroke="#63b8ff" points="909.71,-312.89 901.04,-318.98 911.62,-319.63 909.71,-312.89"/>
</a>
</g>
</g>
<!-- Node27 -->
<g id="Node000027" class="node">
<title>Node27</title>
<g id="a_Node000027"><a xlink:href="vbus__gpio_source.html" target="_top" xlink:title=" ">
<polygon fill="white" stroke="#666666" points="864,-283 760,-283 760,-264 864,-264 864,-283"/>
<text text-anchor="middle" x="812" y="-271" font-family="Helvetica,sans-Serif" font-size="10.00">l4/vbus/vbus_gpio</text>
</a>
</g>
</g>
<!-- Node25&#45;&gt;Node27 -->
<g id="edge33_Node000025_Node000027" class="edge">
<title>Node25&#45;&gt;Node27</title>
<g id="a_edge33_Node000025_Node000027"><a xlink:title=" ">
<path fill="none" stroke="#63b8ff" d="M853.8,-312.04C843.33,-302.64 830.35,-290.98 821.65,-283.17"/>
<polygon fill="#63b8ff" stroke="#63b8ff" points="851.74,-314.91 861.52,-318.98 856.42,-309.7 851.74,-314.91"/>
</a>
</g>
</g>
<!-- Node28 -->
<g id="Node000028" class="node">
<title>Node28</title>
<g id="a_Node000028"><a xlink:href="vbus__pci_source.html" target="_top" xlink:title=" ">
<polygon fill="white" stroke="#666666" points="980,-283 882,-283 882,-264 980,-264 980,-283"/>
<text text-anchor="middle" x="931" y="-271" font-family="Helvetica,sans-Serif" font-size="10.00">l4/vbus/vbus_pci</text>
</a>
</g>
</g>
<!-- Node25&#45;&gt;Node28 -->
<g id="edge34_Node000025_Node000028" class="edge">
<title>Node25&#45;&gt;Node28</title>
<g id="a_edge34_Node000025_Node000028"><a xlink:title=" ">
<path fill="none" stroke="#63b8ff" d="M888.18,-312.32C898.88,-302.87 912.26,-291.06 921.18,-283.17"/>
<polygon fill="#63b8ff" stroke="#63b8ff" points="885.82,-309.74 880.64,-318.98 890.45,-314.99 885.82,-309.74"/>
</a>
</g>
</g>
</g>
</svg>
