<?xml version="1.0" encoding="UTF-8" standalone="no"?>
<!DOCTYPE svg PUBLIC "-//W3C//DTD SVG 1.1//EN"
 "http://www.w3.org/Graphics/SVG/1.1/DTD/svg11.dtd">
<!-- Generated by graphviz version 2.42.4 (0)
 -->
<!-- Title: l4/sys/icu Pages: 1 -->
<svg width="1469pt" height="401pt"
 viewBox="0.00 0.00 1469.00 401.00" xmlns="http://www.w3.org/2000/svg" xmlns:xlink="http://www.w3.org/1999/xlink">
<g id="graph0" class="graph" transform="scale(1 1) rotate(0) translate(4 397)">
<title>l4/sys/icu</title>
<!-- Node1 -->
<g id="Node000001" class="node">
<title>Node1</title>
<g id="a_Node000001"><a xlink:title="Interrupt controller.">
<polygon fill="#999999" stroke="#666666" points="738,-393 676,-393 676,-374 738,-374 738,-393"/>
<text text-anchor="middle" x="707" y="-381" font-family="Helvetica,sans-Serif" font-size="10.00">l4/sys/icu</text>
</a>
</g>
</g>
<!-- Node2 -->
<g id="Node000002" class="node">
<title>Node2</title>
<g id="a_Node000002"><a xlink:href="random.html" target="_top" xlink:title="Random number generator interface definition.">
<polygon fill="white" stroke="#666666" points="592.5,-338 513.5,-338 513.5,-319 592.5,-319 592.5,-338"/>
<text text-anchor="middle" x="553" y="-326" font-family="Helvetica,sans-Serif" font-size="10.00">l4/re/random</text>
</a>
</g>
</g>
<!-- Node1&#45;&gt;Node2 -->
<g id="edge1_Node000001_Node000002" class="edge">
<title>Node1&#45;&gt;Node2</title>
<g id="a_edge1_Node000001_Node000002"><a xlink:title=" ">
<path fill="none" stroke="#63b8ff" d="M672.62,-370.67C643.91,-360.79 603.64,-346.93 577.94,-338.08"/>
<polygon fill="#63b8ff" stroke="#63b8ff" points="671.66,-374.04 682.26,-373.98 673.94,-367.42 671.66,-374.04"/>
</a>
</g>
</g>
<!-- Node3 -->
<g id="Node000003" class="node">
<title>Node3</title>
<g id="a_Node000003"><a xlink:href="icu__svr_source.html" target="_top" xlink:title=" ">
<polygon fill="white" stroke="#666666" points="107.5,-156.5 12.5,-156.5 12.5,-137.5 107.5,-137.5 107.5,-156.5"/>
<text text-anchor="middle" x="60" y="-144.5" font-family="Helvetica,sans-Serif" font-size="10.00">l4/re/util/icu_svr</text>
</a>
</g>
</g>
<!-- Node1&#45;&gt;Node3 -->
<g id="edge2_Node000001_Node000003" class="edge">
<title>Node1&#45;&gt;Node3</title>
<g id="a_edge2_Node000001_Node000003"><a xlink:title=" ">
<path fill="none" stroke="#63b8ff" d="M686.43,-368.2C665.63,-354.21 632.18,-333.04 601,-319 419.11,-237.13 186.47,-177.79 97.18,-156.56"/>
<polygon fill="#63b8ff" stroke="#63b8ff" points="684.55,-371.15 694.79,-373.89 688.49,-365.36 684.55,-371.15"/>
</a>
</g>
</g>
<!-- Node5 -->
<g id="Node000005" class="node">
<title>Node5</title>
<g id="a_Node000005"><a xlink:href="scheduler.html" target="_top" xlink:title="Scheduler object functions.">
<polygon fill="white" stroke="#666666" points="855.5,-338 760.5,-338 760.5,-319 855.5,-319 855.5,-338"/>
<text text-anchor="middle" x="808" y="-326" font-family="Helvetica,sans-Serif" font-size="10.00">l4/sys/scheduler</text>
</a>
</g>
</g>
<!-- Node1&#45;&gt;Node5 -->
<g id="edge4_Node000001_Node000005" class="edge">
<title>Node1&#45;&gt;Node5</title>
<g id="a_edge4_Node000001_Node000005"><a xlink:title=" ">
<path fill="none" stroke="#63b8ff" d="M732.28,-369.23C750.8,-359.51 775.42,-346.6 791.48,-338.17"/>
<polygon fill="#63b8ff" stroke="#63b8ff" points="730.46,-366.24 723.23,-373.98 733.71,-372.44 730.46,-366.24"/>
</a>
</g>
</g>
<!-- Node6 -->
<g id="Node000006" class="node">
<title>Node6</title>
<g id="a_Node000006"><a xlink:href="vcon.html" target="_top" xlink:title="C++ Virtual console interface.">
<polygon fill="white" stroke="#666666" points="742.5,-338 671.5,-338 671.5,-319 742.5,-319 742.5,-338"/>
<text text-anchor="middle" x="707" y="-326" font-family="Helvetica,sans-Serif" font-size="10.00">l4/sys/vcon</text>
</a>
</g>
</g>
<!-- Node1&#45;&gt;Node6 -->
<g id="edge5_Node000001_Node000006" class="edge">
<title>Node1&#45;&gt;Node6</title>
<g id="a_edge5_Node000001_Node000006"><a xlink:title=" ">
<path fill="none" stroke="#63b8ff" d="M707,-363.66C707,-354.93 707,-344.99 707,-338.09"/>
<polygon fill="#63b8ff" stroke="#63b8ff" points="703.5,-363.75 707,-373.75 710.5,-363.75 703.5,-363.75"/>
</a>
</g>
</g>
<!-- Node29 -->
<g id="Node000029" class="node">
<title>Node29</title>
<g id="a_Node000029"><a xlink:href="vbus_source.html" target="_top" xlink:title=" ">
<polygon fill="white" stroke="#666666" points="1034,-338 956,-338 956,-319 1034,-319 1034,-338"/>
<text text-anchor="middle" x="995" y="-326" font-family="Helvetica,sans-Serif" font-size="10.00">l4/vbus/vbus</text>
</a>
</g>
</g>
<!-- Node1&#45;&gt;Node29 -->
<g id="edge39_Node000001_Node000029" class="edge">
<title>Node1&#45;&gt;Node29</title>
<g id="a_edge39_Node000001_Node000029"><a xlink:title=" ">
<path fill="none" stroke="#63b8ff" d="M748.26,-374.91C803.68,-364.71 901.46,-346.71 955.81,-336.71"/>
<polygon fill="#63b8ff" stroke="#63b8ff" points="747.3,-371.53 738.09,-376.78 748.56,-378.41 747.3,-371.53"/>
</a>
</g>
</g>
<!-- Node4 -->
<g id="Node000004" class="node">
<title>Node4</title>
<g id="a_Node000004"><a xlink:href="event__svr_source.html" target="_top" xlink:title=" ">
<polygon fill="white" stroke="#666666" points="108,-90.5 0,-90.5 0,-71.5 108,-71.5 108,-90.5"/>
<text text-anchor="middle" x="54" y="-78.5" font-family="Helvetica,sans-Serif" font-size="10.00">l4/re/util/event_svr</text>
</a>
</g>
</g>
<!-- Node3&#45;&gt;Node4 -->
<g id="edge3_Node000003_Node000004" class="edge">
<title>Node3&#45;&gt;Node4</title>
<g id="a_edge3_Node000003_Node000004"><a xlink:title=" ">
<path fill="none" stroke="#63b8ff" d="M58.23,-127.08C57.11,-115.13 55.71,-100.22 54.83,-90.91"/>
<polygon fill="#63b8ff" stroke="#63b8ff" points="54.77,-127.74 59.19,-137.37 61.74,-127.09 54.77,-127.74"/>
</a>
</g>
</g>
<!-- Node7 -->
<g id="Node000007" class="node">
<title>Node7</title>
<g id="a_Node000007"><a xlink:href="vcon__stream_8h_source.html" target="_top" xlink:title=" ">
<polygon fill="white" stroke="#666666" points="1332.5,-228 1213.5,-228 1213.5,-198 1332.5,-198 1332.5,-228"/>
<text text-anchor="start" x="1221.5" y="-216" font-family="Helvetica,sans-Serif" font-size="10.00">l4/l4re_vfs/impl/vcon</text>
<text text-anchor="middle" x="1273" y="-205" font-family="Helvetica,sans-Serif" font-size="10.00">_stream.h</text>
</a>
</g>
</g>
<!-- Node6&#45;&gt;Node7 -->
<g id="edge6_Node000006_Node000007" class="edge">
<title>Node6&#45;&gt;Node7</title>
<g id="a_edge6_Node000006_Node000007"><a xlink:title=" ">
<path fill="none" stroke="#63b8ff" d="M745.11,-315.94C771.29,-307.64 806.66,-295.71 837,-283 854.42,-275.7 856.93,-269.48 875,-264 991.46,-228.7 1134.38,-218.29 1213.37,-215.24"/>
<polygon fill="#63b8ff" stroke="#63b8ff" points="744.05,-312.6 735.56,-318.94 746.15,-319.28 744.05,-312.6"/>
</a>
</g>
</g>
<!-- Node10 -->
<g id="Node000010" class="node">
<title>Node10</title>
<g id="a_Node000010"><a xlink:href="log.html" target="_top" xlink:title="Log interface.">
<polygon fill="white" stroke="#666666" points="706,-283 650,-283 650,-264 706,-264 706,-283"/>
<text text-anchor="middle" x="678" y="-271" font-family="Helvetica,sans-Serif" font-size="10.00">l4/re/log</text>
</a>
</g>
</g>
<!-- Node6&#45;&gt;Node10 -->
<g id="edge9_Node000006_Node000010" class="edge">
<title>Node6&#45;&gt;Node10</title>
<g id="a_edge9_Node000006_Node000010"><a xlink:title=" ">
<path fill="none" stroke="#63b8ff" d="M697.32,-309.82C692.4,-300.82 686.64,-290.29 682.7,-283.09"/>
<polygon fill="#63b8ff" stroke="#63b8ff" points="694.34,-311.66 702.21,-318.75 700.48,-308.3 694.34,-311.66"/>
</a>
</g>
</g>
<!-- Node28 -->
<g id="Node000028" class="node">
<title>Node28</title>
<g id="a_Node000028"><a xlink:href="vcon__svr_source.html" target="_top" xlink:title=" ">
<polygon fill="white" stroke="#666666" points="828,-283 724,-283 724,-264 828,-264 828,-283"/>
<text text-anchor="middle" x="776" y="-271" font-family="Helvetica,sans-Serif" font-size="10.00">l4/re/util/vcon_svr</text>
</a>
</g>
</g>
<!-- Node6&#45;&gt;Node28 -->
<g id="edge38_Node000006_Node000028" class="edge">
<title>Node6&#45;&gt;Node28</title>
<g id="a_edge38_Node000006_Node000028"><a xlink:title=" ">
<path fill="none" stroke="#63b8ff" d="M726.04,-312.88C738.46,-303.34 754.24,-291.21 764.71,-283.17"/>
<polygon fill="#63b8ff" stroke="#63b8ff" points="723.88,-310.12 718.09,-318.98 728.15,-315.67 723.88,-310.12"/>
</a>
</g>
</g>
<!-- Node8 -->
<g id="Node000008" class="node">
<title>Node8</title>
<g id="a_Node000008"><a xlink:href="vcon__stream__impl_8h_source.html" target="_top" xlink:title=" ">
<polygon fill="white" stroke="#666666" points="1332.5,-162 1213.5,-162 1213.5,-132 1332.5,-132 1332.5,-162"/>
<text text-anchor="start" x="1221.5" y="-150" font-family="Helvetica,sans-Serif" font-size="10.00">l4/l4re_vfs/impl/vcon</text>
<text text-anchor="middle" x="1273" y="-139" font-family="Helvetica,sans-Serif" font-size="10.00">_stream_impl.h</text>
</a>
</g>
</g>
<!-- Node7&#45;&gt;Node8 -->
<g id="edge7_Node000007_Node000008" class="edge">
<title>Node7&#45;&gt;Node8</title>
<g id="a_edge7_Node000007_Node000008"><a xlink:title=" ">
<path fill="none" stroke="#63b8ff" d="M1273,-187.54C1273,-178.96 1273,-169.61 1273,-162.16"/>
<polygon fill="#63b8ff" stroke="#63b8ff" points="1269.5,-187.8 1273,-197.8 1276.5,-187.8 1269.5,-187.8"/>
</a>
</g>
</g>
<!-- Node9 -->
<g id="Node000009" class="node">
<title>Node9</title>
<g id="a_Node000009"><a xlink:href="vfs__impl_8h_source.html" target="_top" xlink:title=" ">
<polygon fill="white" stroke="#666666" points="1461,-162 1351,-162 1351,-132 1461,-132 1461,-162"/>
<text text-anchor="start" x="1359" y="-150" font-family="Helvetica,sans-Serif" font-size="10.00">l4/l4re_vfs/impl/vfs</text>
<text text-anchor="middle" x="1406" y="-139" font-family="Helvetica,sans-Serif" font-size="10.00">_impl.h</text>
</a>
</g>
</g>
<!-- Node7&#45;&gt;Node9 -->
<g id="edge8_Node000007_Node000009" class="edge">
<title>Node7&#45;&gt;Node9</title>
<g id="a_edge8_Node000007_Node000009"><a xlink:title=" ">
<path fill="none" stroke="#63b8ff" d="M1311.42,-193.51C1332.28,-183.47 1357.67,-171.26 1376.88,-162.01"/>
<polygon fill="#63b8ff" stroke="#63b8ff" points="1309.68,-190.46 1302.19,-197.95 1312.72,-196.77 1309.68,-190.46"/>
</a>
</g>
</g>
<!-- Node11 -->
<g id="Node000011" class="node">
<title>Node11</title>
<g id="a_Node000011"><a xlink:href="env.html" target="_top" xlink:title="Environment interface.">
<polygon fill="white" stroke="#666666" points="708.5,-222.5 649.5,-222.5 649.5,-203.5 708.5,-203.5 708.5,-222.5"/>
<text text-anchor="middle" x="679" y="-210.5" font-family="Helvetica,sans-Serif" font-size="10.00">l4/re/env</text>
</a>
</g>
</g>
<!-- Node10&#45;&gt;Node11 -->
<g id="edge10_Node000010_Node000011" class="edge">
<title>Node10&#45;&gt;Node11</title>
<g id="a_edge10_Node000010_Node000011"><a xlink:title=" ">
<path fill="none" stroke="#63b8ff" d="M678.32,-253.66C678.5,-243.24 678.71,-230.8 678.85,-222.67"/>
<polygon fill="#63b8ff" stroke="#63b8ff" points="674.82,-253.81 678.15,-263.87 681.82,-253.93 674.82,-253.81"/>
</a>
</g>
</g>
<!-- Node11&#45;&gt;Node3 -->
<g id="edge30_Node000011_Node000003" class="edge">
<title>Node11&#45;&gt;Node3</title>
<g id="a_edge30_Node000011_Node000003"><a xlink:title=" ">
<path fill="none" stroke="#63b8ff" d="M645.66,-200.48C642.09,-199.52 638.49,-198.67 635,-198 410.51,-155.05 348.13,-195.27 122,-162 112.72,-160.63 102.77,-158.63 93.61,-156.57"/>
<polygon fill="#63b8ff" stroke="#63b8ff" points="644.94,-203.92 655.52,-203.39 646.92,-197.21 644.94,-203.92"/>
</a>
</g>
</g>
<!-- Node11&#45;&gt;Node8 -->
<g id="edge12_Node000011_Node000008" class="edge">
<title>Node11&#45;&gt;Node8</title>
<g id="a_edge12_Node000011_Node000008"><a xlink:title=" ">
<path fill="none" stroke="#63b8ff" d="M718.56,-209.71C806.43,-204.3 1024.34,-189.1 1205,-162 1207.74,-161.59 1210.54,-161.14 1213.36,-160.66"/>
<polygon fill="#63b8ff" stroke="#63b8ff" points="718.27,-206.22 708.51,-210.32 718.7,-213.21 718.27,-206.22"/>
</a>
</g>
</g>
<!-- Node11&#45;&gt;Node9 -->
<g id="edge13_Node000011_Node000009" class="edge">
<title>Node11&#45;&gt;Node9</title>
<g id="a_edge13_Node000011_Node000009"><a xlink:title=" ">
<path fill="none" stroke="#63b8ff" d="M718.85,-210.94C822.23,-207.77 1107.31,-196.35 1342,-162 1344.93,-161.57 1347.92,-161.09 1350.93,-160.56"/>
<polygon fill="#63b8ff" stroke="#63b8ff" points="718.46,-207.45 708.57,-211.25 718.67,-214.45 718.46,-207.45"/>
</a>
</g>
</g>
<!-- Node12 -->
<g id="Node000012" class="node">
<title>Node12</title>
<g id="a_Node000012"><a xlink:href="ro__file__impl_8h_source.html" target="_top" xlink:title=" ">
<polygon fill="white" stroke="#666666" points="1195.5,-162 1090.5,-162 1090.5,-132 1195.5,-132 1195.5,-162"/>
<text text-anchor="start" x="1098.5" y="-150" font-family="Helvetica,sans-Serif" font-size="10.00">l4/l4re_vfs/impl/ro</text>
<text text-anchor="middle" x="1143" y="-139" font-family="Helvetica,sans-Serif" font-size="10.00">_file_impl.h</text>
</a>
</g>
</g>
<!-- Node11&#45;&gt;Node12 -->
<g id="edge11_Node000011_Node000012" class="edge">
<title>Node11&#45;&gt;Node12</title>
<g id="a_edge11_Node000011_Node000012"><a xlink:title=" ">
<path fill="none" stroke="#63b8ff" d="M718.69,-208.37C791.05,-201.46 949.1,-185.04 1081,-162 1084.04,-161.47 1087.16,-160.89 1090.31,-160.27"/>
<polygon fill="#63b8ff" stroke="#63b8ff" points="718.28,-204.89 708.65,-209.32 718.94,-211.86 718.28,-204.89"/>
</a>
</g>
</g>
<!-- Node13 -->
<g id="Node000013" class="node">
<title>Node13</title>
<g id="a_Node000013"><a xlink:href="client_2l4virtio_source.html" target="_top" xlink:title=" ">
<polygon fill="white" stroke="#666666" points="295.5,-96 202.5,-96 202.5,-66 295.5,-66 295.5,-96"/>
<text text-anchor="start" x="210.5" y="-84" font-family="Helvetica,sans-Serif" font-size="10.00">l4/l4virtio/client</text>
<text text-anchor="middle" x="249" y="-73" font-family="Helvetica,sans-Serif" font-size="10.00">/l4virtio</text>
</a>
</g>
</g>
<!-- Node11&#45;&gt;Node13 -->
<g id="edge14_Node000011_Node000013" class="edge">
<title>Node11&#45;&gt;Node13</title>
<g id="a_edge14_Node000011_Node000013"><a xlink:title=" ">
<path fill="none" stroke="#63b8ff" d="M644.23,-200.48C641.12,-199.59 638.01,-198.75 635,-198 547.77,-176.33 522.09,-187.84 436,-162 377.32,-144.39 312.29,-113.9 276.46,-96.08"/>
<polygon fill="#63b8ff" stroke="#63b8ff" points="643.45,-203.9 654.03,-203.44 645.47,-197.2 643.45,-203.9"/>
</a>
</g>
</g>
<!-- Node14 -->
<g id="Node000014" class="node">
<title>Node14</title>
<g id="a_Node000014"><a xlink:href="client_2virtio-block_source.html" target="_top" xlink:title=" ">
<polygon fill="white" stroke="#666666" points="220.5,-30 127.5,-30 127.5,0 220.5,0 220.5,-30"/>
<text text-anchor="start" x="135.5" y="-18" font-family="Helvetica,sans-Serif" font-size="10.00">l4/l4virtio/client</text>
<text text-anchor="middle" x="174" y="-7" font-family="Helvetica,sans-Serif" font-size="10.00">/virtio&#45;block</text>
</a>
</g>
</g>
<!-- Node11&#45;&gt;Node14 -->
<g id="edge17_Node000011_Node000014" class="edge">
<title>Node11&#45;&gt;Node14</title>
<g id="a_edge17_Node000011_Node000014"><a xlink:title=" ">
<path fill="none" stroke="#63b8ff" d="M645.66,-200.52C642.09,-199.56 638.49,-198.69 635,-198 537.66,-178.84 264.03,-228.05 190,-162 152.52,-128.56 163.25,-60.13 170.19,-30.36"/>
<polygon fill="#63b8ff" stroke="#63b8ff" points="644.93,-203.96 655.51,-203.44 646.91,-197.25 644.93,-203.96"/>
</a>
</g>
</g>
<!-- Node15 -->
<g id="Node000015" class="node">
<title>Node15</title>
<g id="a_Node000015"><a xlink:href="virtio-net_source.html" target="_top" xlink:title=" ">
<polygon fill="white" stroke="#666666" points="414.5,-30 321.5,-30 321.5,0 414.5,0 414.5,-30"/>
<text text-anchor="start" x="329.5" y="-18" font-family="Helvetica,sans-Serif" font-size="10.00">l4/l4virtio/client</text>
<text text-anchor="middle" x="368" y="-7" font-family="Helvetica,sans-Serif" font-size="10.00">/virtio&#45;net</text>
</a>
</g>
</g>
<!-- Node11&#45;&gt;Node15 -->
<g id="edge18_Node000011_Node000015" class="edge">
<title>Node11&#45;&gt;Node15</title>
<g id="a_edge18_Node000011_Node000015"><a xlink:title=" ">
<path fill="none" stroke="#63b8ff" d="M643.68,-200.44C640.75,-199.58 637.83,-198.76 635,-198 562.06,-178.53 526.56,-210.85 469,-162 434.01,-132.31 458.35,-102.85 431,-66 420.27,-51.53 404.35,-38.95 391.21,-30.03"/>
<polygon fill="#63b8ff" stroke="#63b8ff" points="642.94,-203.88 653.53,-203.45 644.98,-197.18 642.94,-203.88"/>
</a>
</g>
</g>
<!-- Node16 -->
<g id="Node000016" class="node">
<title>Node16</title>
<g id="a_Node000016"><a xlink:href="server_2l4virtio_source.html" target="_top" xlink:title=" ">
<polygon fill="white" stroke="#666666" points="575.5,-162 478.5,-162 478.5,-132 575.5,-132 575.5,-162"/>
<text text-anchor="start" x="486.5" y="-150" font-family="Helvetica,sans-Serif" font-size="10.00">l4/l4virtio/server</text>
<text text-anchor="middle" x="527" y="-139" font-family="Helvetica,sans-Serif" font-size="10.00">/l4virtio</text>
</a>
</g>
</g>
<!-- Node11&#45;&gt;Node16 -->
<g id="edge19_Node000011_Node000016" class="edge">
<title>Node11&#45;&gt;Node16</title>
<g id="a_edge19_Node000011_Node000016"><a xlink:title=" ">
<path fill="none" stroke="#63b8ff" d="M648.99,-199.36C623.5,-188.63 586.96,-173.25 560.52,-162.12"/>
<polygon fill="#63b8ff" stroke="#63b8ff" points="647.93,-202.71 658.5,-203.37 650.64,-196.26 647.93,-202.71"/>
</a>
</g>
</g>
<!-- Node21 -->
<g id="Node000021" class="node">
<title>Node21</title>
<g id="a_Node000021"><a xlink:href="env__ns_source.html" target="_top" xlink:title=" ">
<polygon fill="white" stroke="#666666" points="688.5,-156.5 593.5,-156.5 593.5,-137.5 688.5,-137.5 688.5,-156.5"/>
<text text-anchor="middle" x="641" y="-144.5" font-family="Helvetica,sans-Serif" font-size="10.00">l4/re/util/env_ns</text>
</a>
</g>
</g>
<!-- Node11&#45;&gt;Node21 -->
<g id="edge25_Node000011_Node000021" class="edge">
<title>Node11&#45;&gt;Node21</title>
<g id="a_edge25_Node000011_Node000021"><a xlink:title=" ">
<path fill="none" stroke="#63b8ff" d="M668.64,-194.55C661.4,-182.36 652.05,-166.61 646.29,-156.91"/>
<polygon fill="#63b8ff" stroke="#63b8ff" points="665.76,-196.56 673.88,-203.37 671.78,-192.98 665.76,-196.56"/>
</a>
</g>
</g>
<!-- Node23 -->
<g id="Node000023" class="node">
<title>Node23</title>
<g id="a_Node000023"><a xlink:href="goos__fb_source.html" target="_top" xlink:title=" ">
<polygon fill="white" stroke="#666666" points="1001,-90.5 873,-90.5 873,-71.5 1001,-71.5 1001,-90.5"/>
<text text-anchor="middle" x="937" y="-78.5" font-family="Helvetica,sans-Serif" font-size="10.00">l4/re/util/video/goos_fb</text>
</a>
</g>
</g>
<!-- Node11&#45;&gt;Node23 -->
<g id="edge36_Node000011_Node000023" class="edge">
<title>Node11&#45;&gt;Node23</title>
<g id="a_edge36_Node000011_Node000023"><a xlink:title=" ">
<path fill="none" stroke="#63b8ff" d="M686.89,-194.42C696.06,-176.04 712.93,-147.71 736,-132 749.23,-122.99 841.24,-102.34 896.08,-90.59"/>
<polygon fill="#63b8ff" stroke="#63b8ff" points="683.72,-192.94 682.6,-203.47 690.05,-195.94 683.72,-192.94"/>
</a>
</g>
</g>
<!-- Node24 -->
<g id="Node000024" class="node">
<title>Node24</title>
<g id="a_Node000024"><a xlink:href="util_2event.html" target="_top" xlink:title=" ">
<polygon fill="white" stroke="#666666" points="833,-156.5 745,-156.5 745,-137.5 833,-137.5 833,-156.5"/>
<text text-anchor="middle" x="789" y="-144.5" font-family="Helvetica,sans-Serif" font-size="10.00">l4/re/util/event</text>
</a>
</g>
</g>
<!-- Node11&#45;&gt;Node24 -->
<g id="edge29_Node000011_Node000024" class="edge">
<title>Node11&#45;&gt;Node24</title>
<g id="a_edge29_Node000011_Node000024"><a xlink:title=" ">
<path fill="none" stroke="#63b8ff" d="M702.74,-198.19C724.38,-185.59 755.71,-167.37 774.05,-156.7"/>
<polygon fill="#63b8ff" stroke="#63b8ff" points="700.72,-195.31 693.84,-203.37 704.24,-201.36 700.72,-195.31"/>
</a>
</g>
</g>
<!-- Node25 -->
<g id="Node000025" class="node">
<title>Node25</title>
<g id="a_Node000025"><a xlink:href="kumem__alloc.html" target="_top" xlink:title="Kumem allocator helper.">
<polygon fill="white" stroke="#666666" points="975.5,-156.5 850.5,-156.5 850.5,-137.5 975.5,-137.5 975.5,-156.5"/>
<text text-anchor="middle" x="913" y="-144.5" font-family="Helvetica,sans-Serif" font-size="10.00">l4/re/util/kumem_alloc</text>
</a>
</g>
</g>
<!-- Node11&#45;&gt;Node25 -->
<g id="edge31_Node000011_Node000025" class="edge">
<title>Node11&#45;&gt;Node25</title>
<g id="a_edge31_Node000011_Node000025"><a xlink:title=" ">
<path fill="none" stroke="#63b8ff" d="M718.55,-201.18C764.57,-188.6 839.61,-168.07 881.74,-156.55"/>
<polygon fill="#63b8ff" stroke="#63b8ff" points="717.36,-197.88 708.64,-203.89 719.21,-204.63 717.36,-197.88"/>
</a>
</g>
</g>
<!-- Node26 -->
<g id="Node000026" class="node">
<title>Node26</title>
<g id="a_Node000026"><a xlink:href="object__registry_source.html" target="_top" xlink:title=" ">
<polygon fill="white" stroke="#666666" points="332.5,-156.5 199.5,-156.5 199.5,-137.5 332.5,-137.5 332.5,-156.5"/>
<text text-anchor="middle" x="266" y="-144.5" font-family="Helvetica,sans-Serif" font-size="10.00">l4/re/util/object_registry</text>
</a>
</g>
</g>
<!-- Node11&#45;&gt;Node26 -->
<g id="edge32_Node000011_Node000026" class="edge">
<title>Node11&#45;&gt;Node26</title>
<g id="a_edge32_Node000011_Node000026"><a xlink:title=" ">
<path fill="none" stroke="#63b8ff" d="M644.81,-200.48C641.52,-199.56 638.21,-198.72 635,-198 516.43,-171.48 484.36,-178.59 364,-162 351.4,-160.26 337.9,-158.36 325.06,-156.53"/>
<polygon fill="#63b8ff" stroke="#63b8ff" points="643.96,-203.88 654.54,-203.38 645.96,-197.17 643.96,-203.88"/>
</a>
</g>
</g>
<!-- Node27 -->
<g id="Node000027" class="node">
<title>Node27</title>
<g id="a_Node000027"><a xlink:href="vcpu.html" target="_top" xlink:title="vCPU support library (C++ interface).">
<polygon fill="white" stroke="#666666" points="1072,-156.5 994,-156.5 994,-137.5 1072,-137.5 1072,-156.5"/>
<text text-anchor="middle" x="1033" y="-144.5" font-family="Helvetica,sans-Serif" font-size="10.00">l4/vcpu/vcpu</text>
</a>
</g>
</g>
<!-- Node11&#45;&gt;Node27 -->
<g id="edge37_Node000011_Node000027" class="edge">
<title>Node11&#45;&gt;Node27</title>
<g id="a_edge37_Node000011_Node000027"><a xlink:title=" ">
<path fill="none" stroke="#63b8ff" d="M718.59,-207C777.03,-199.29 889.66,-183.14 984,-162 990.91,-160.45 998.28,-158.51 1005.16,-156.56"/>
<polygon fill="#63b8ff" stroke="#63b8ff" points="718.12,-203.53 708.66,-208.3 719.03,-210.47 718.12,-203.53"/>
</a>
</g>
</g>
<!-- Node13&#45;&gt;Node14 -->
<g id="edge15_Node000013_Node000014" class="edge">
<title>Node13&#45;&gt;Node14</title>
<g id="a_edge15_Node000013_Node000014"><a xlink:title=" ">
<path fill="none" stroke="#63b8ff" d="M224.63,-59.2C213.49,-49.7 200.59,-38.69 190.6,-30.16"/>
<polygon fill="#63b8ff" stroke="#63b8ff" points="222.48,-61.97 232.36,-65.8 227.02,-56.64 222.48,-61.97"/>
</a>
</g>
</g>
<!-- Node13&#45;&gt;Node15 -->
<g id="edge16_Node000013_Node000015" class="edge">
<title>Node13&#45;&gt;Node15</title>
<g id="a_edge16_Node000013_Node000015"><a xlink:title=" ">
<path fill="none" stroke="#63b8ff" d="M284.13,-61.11C302.65,-51.14 324.99,-39.13 341.95,-30.01"/>
<polygon fill="#63b8ff" stroke="#63b8ff" points="282.26,-58.14 275.12,-65.95 285.58,-64.3 282.26,-58.14"/>
</a>
</g>
</g>
<!-- Node17 -->
<g id="Node000017" class="node">
<title>Node17</title>
<g id="a_Node000017"><a xlink:href="server_2virtio-block_source.html" target="_top" xlink:title=" ">
<polygon fill="white" stroke="#666666" points="575.5,-96 478.5,-96 478.5,-66 575.5,-66 575.5,-96"/>
<text text-anchor="start" x="486.5" y="-84" font-family="Helvetica,sans-Serif" font-size="10.00">l4/l4virtio/server</text>
<text text-anchor="middle" x="527" y="-73" font-family="Helvetica,sans-Serif" font-size="10.00">/virtio&#45;block</text>
</a>
</g>
</g>
<!-- Node16&#45;&gt;Node17 -->
<g id="edge20_Node000016_Node000017" class="edge">
<title>Node16&#45;&gt;Node17</title>
<g id="a_edge20_Node000016_Node000017"><a xlink:title=" ">
<path fill="none" stroke="#63b8ff" d="M527,-121.54C527,-112.96 527,-103.61 527,-96.16"/>
<polygon fill="#63b8ff" stroke="#63b8ff" points="523.5,-121.8 527,-131.8 530.5,-121.8 523.5,-121.8"/>
</a>
</g>
</g>
<!-- Node18 -->
<g id="Node000018" class="node">
<title>Node18</title>
<g id="a_Node000018"><a xlink:href="virtio-console_source.html" target="_top" xlink:title=" ">
<polygon fill="white" stroke="#666666" points="729.5,-96 632.5,-96 632.5,-66 729.5,-66 729.5,-96"/>
<text text-anchor="start" x="640.5" y="-84" font-family="Helvetica,sans-Serif" font-size="10.00">l4/l4virtio/server</text>
<text text-anchor="middle" x="681" y="-73" font-family="Helvetica,sans-Serif" font-size="10.00">/virtio&#45;console</text>
</a>
</g>
</g>
<!-- Node16&#45;&gt;Node18 -->
<g id="edge21_Node000016_Node000018" class="edge">
<title>Node16&#45;&gt;Node18</title>
<g id="a_edge21_Node000016_Node000018"><a xlink:title=" ">
<path fill="none" stroke="#63b8ff" d="M570.18,-128.05C594.58,-117.91 624.63,-105.43 647.28,-96.01"/>
<polygon fill="#63b8ff" stroke="#63b8ff" points="568.69,-124.89 560.8,-131.95 571.37,-131.35 568.69,-124.89"/>
</a>
</g>
</g>
<!-- Node19 -->
<g id="Node000019" class="node">
<title>Node19</title>
<g id="a_Node000019"><a xlink:href="virtio-console-device_source.html" target="_top" xlink:title=" ">
<polygon fill="white" stroke="#666666" points="703,-30 581,-30 581,0 703,0 703,-30"/>
<text text-anchor="start" x="589" y="-18" font-family="Helvetica,sans-Serif" font-size="10.00">l4/l4virtio/server</text>
<text text-anchor="middle" x="642" y="-7" font-family="Helvetica,sans-Serif" font-size="10.00">/virtio&#45;console&#45;device</text>
</a>
</g>
</g>
<!-- Node16&#45;&gt;Node19 -->
<g id="edge23_Node000016_Node000019" class="edge">
<title>Node16&#45;&gt;Node19</title>
<g id="a_edge23_Node000016_Node000019"><a xlink:title=" ">
<path fill="none" stroke="#63b8ff" d="M552.95,-125.37C563.1,-116.76 574.56,-106.36 584,-96 603.53,-74.57 622.55,-46.57 633.22,-30.01"/>
<polygon fill="#63b8ff" stroke="#63b8ff" points="550.6,-122.77 545.14,-131.85 555.07,-128.15 550.6,-122.77"/>
</a>
</g>
</g>
<!-- Node20 -->
<g id="Node000020" class="node">
<title>Node20</title>
<g id="a_Node000020"><a xlink:href="virtio-scmi-device_source.html" target="_top" xlink:title=" ">
<polygon fill="white" stroke="#666666" points="422,-96 314,-96 314,-66 422,-66 422,-96"/>
<text text-anchor="start" x="322" y="-84" font-family="Helvetica,sans-Serif" font-size="10.00">l4/l4virtio/server</text>
<text text-anchor="middle" x="368" y="-73" font-family="Helvetica,sans-Serif" font-size="10.00">/virtio&#45;scmi&#45;device</text>
</a>
</g>
</g>
<!-- Node16&#45;&gt;Node20 -->
<g id="edge24_Node000016_Node000020" class="edge">
<title>Node16&#45;&gt;Node20</title>
<g id="a_edge24_Node000016_Node000020"><a xlink:title=" ">
<path fill="none" stroke="#63b8ff" d="M482.75,-128.19C457.5,-118.02 426.3,-105.47 402.81,-96.01"/>
<polygon fill="#63b8ff" stroke="#63b8ff" points="481.52,-131.47 492.11,-131.95 484.14,-124.97 481.52,-131.47"/>
</a>
</g>
</g>
<!-- Node18&#45;&gt;Node19 -->
<g id="edge22_Node000018_Node000019" class="edge">
<title>Node18&#45;&gt;Node19</title>
<g id="a_edge22_Node000018_Node000019"><a xlink:title=" ">
<path fill="none" stroke="#63b8ff" d="M667.13,-57.24C661.63,-48.21 655.47,-38.11 650.63,-30.16"/>
<polygon fill="#63b8ff" stroke="#63b8ff" points="664.15,-59.08 672.34,-65.8 670.13,-55.44 664.15,-59.08"/>
</a>
</g>
</g>
<!-- Node22 -->
<g id="Node000022" class="node">
<title>Node22</title>
<g id="a_Node000022"><a xlink:href="ns__fs__impl_8h_source.html" target="_top" xlink:title=" ">
<polygon fill="white" stroke="#666666" points="854.5,-96 747.5,-96 747.5,-66 854.5,-66 854.5,-96"/>
<text text-anchor="start" x="755.5" y="-84" font-family="Helvetica,sans-Serif" font-size="10.00">l4/l4re_vfs/impl/ns</text>
<text text-anchor="middle" x="801" y="-73" font-family="Helvetica,sans-Serif" font-size="10.00">_fs_impl.h</text>
</a>
</g>
</g>
<!-- Node21&#45;&gt;Node22 -->
<g id="edge26_Node000021_Node000022" class="edge">
<title>Node21&#45;&gt;Node22</title>
<g id="a_edge26_Node000021_Node000022"><a xlink:title=" ">
<path fill="none" stroke="#63b8ff" d="M671.88,-133.65C698.74,-122.9 737.64,-107.35 765.71,-96.12"/>
<polygon fill="#63b8ff" stroke="#63b8ff" points="670.56,-130.41 662.58,-137.37 673.16,-136.9 670.56,-130.41"/>
</a>
</g>
</g>
<!-- Node21&#45;&gt;Node23 -->
<g id="edge27_Node000021_Node000023" class="edge">
<title>Node21&#45;&gt;Node23</title>
<g id="a_edge27_Node000021_Node000023"><a xlink:title=" ">
<path fill="none" stroke="#63b8ff" d="M688.4,-135.24C693.33,-134.14 698.26,-133.04 703,-132 770.76,-117.11 849.69,-100.37 896.39,-90.53"/>
<polygon fill="#63b8ff" stroke="#63b8ff" points="687.35,-131.89 678.36,-137.49 688.88,-138.72 687.35,-131.89"/>
</a>
</g>
</g>
<!-- Node23&#45;&gt;Node23 -->
<g id="edge28_Node000023_Node000023" class="edge">
<title>Node23&#45;&gt;Node23</title>
<g id="a_edge28_Node000023_Node000023"><a xlink:title=" ">
<path fill="none" stroke="#63b8ff" d="M972.67,-92.32C996.19,-95.43 1019,-91.66 1019,-81 1019,-68.82 989.2,-65.63 962.61,-71.44"/>
<polygon fill="#63b8ff" stroke="#63b8ff" points="973.06,-88.84 962.61,-90.56 971.86,-95.73 973.06,-88.84"/>
</a>
</g>
</g>
<!-- Node26&#45;&gt;Node13 -->
<g id="edge33_Node000026_Node000013" class="edge">
<title>Node26&#45;&gt;Node13</title>
<g id="a_edge33_Node000026_Node000013"><a xlink:title=" ">
<path fill="none" stroke="#63b8ff" d="M261.13,-127.67C258.49,-117.72 255.27,-105.61 252.81,-96.36"/>
<polygon fill="#63b8ff" stroke="#63b8ff" points="257.76,-128.6 263.71,-137.37 264.52,-126.81 257.76,-128.6"/>
</a>
</g>
</g>
<!-- Node26&#45;&gt;Node14 -->
<g id="edge34_Node000026_Node000014" class="edge">
<title>Node26&#45;&gt;Node14</title>
<g id="a_edge34_Node000026_Node000014"><a xlink:title=" ">
<path fill="none" stroke="#63b8ff" d="M237.08,-132.73C221.78,-124.29 203.95,-111.94 193,-96 179.26,-75.99 175.39,-47.28 174.34,-30.25"/>
<polygon fill="#63b8ff" stroke="#63b8ff" points="235.7,-135.96 246.19,-137.48 238.94,-129.76 235.7,-135.96"/>
</a>
</g>
</g>
<!-- Node26&#45;&gt;Node20 -->
<g id="edge35_Node000026_Node000020" class="edge">
<title>Node26&#45;&gt;Node20</title>
<g id="a_edge35_Node000026_Node000020"><a xlink:title=" ">
<path fill="none" stroke="#63b8ff" d="M288.45,-131.91C305.4,-121.28 328.55,-106.75 345.5,-96.12"/>
<polygon fill="#63b8ff" stroke="#63b8ff" points="286.37,-129.09 279.76,-137.37 290.09,-135.02 286.37,-129.09"/>
</a>
</g>
</g>
<!-- Node30 -->
<g id="Node000030" class="node">
<title>Node30</title>
<g id="a_Node000030"><a xlink:href="vbus__generic_source.html" target="_top" xlink:title=" ">
<polygon fill="white" stroke="#666666" points="1241.5,-283 1122.5,-283 1122.5,-264 1241.5,-264 1241.5,-283"/>
<text text-anchor="middle" x="1182" y="-271" font-family="Helvetica,sans-Serif" font-size="10.00">l4/vbus/vbus_generic</text>
</a>
</g>
</g>
<!-- Node29&#45;&gt;Node30 -->
<g id="edge40_Node000029_Node000030" class="edge">
<title>Node29&#45;&gt;Node30</title>
<g id="a_edge40_Node000029_Node000030"><a xlink:title=" ">
<path fill="none" stroke="#63b8ff" d="M1034.93,-316.18C1069.9,-306.27 1119.96,-292.08 1151.72,-283.08"/>
<polygon fill="#63b8ff" stroke="#63b8ff" points="1033.71,-312.89 1025.04,-318.98 1035.62,-319.63 1033.71,-312.89"/>
</a>
</g>
</g>
<!-- Node31 -->
<g id="Node000031" class="node">
<title>Node31</title>
<g id="a_Node000031"><a xlink:href="vbus__gpio_source.html" target="_top" xlink:title=" ">
<polygon fill="white" stroke="#666666" points="988,-283 884,-283 884,-264 988,-264 988,-283"/>
<text text-anchor="middle" x="936" y="-271" font-family="Helvetica,sans-Serif" font-size="10.00">l4/vbus/vbus_gpio</text>
</a>
</g>
</g>
<!-- Node29&#45;&gt;Node31 -->
<g id="edge41_Node000029_Node000031" class="edge">
<title>Node29&#45;&gt;Node31</title>
<g id="a_edge41_Node000029_Node000031"><a xlink:title=" ">
<path fill="none" stroke="#63b8ff" d="M977.8,-312.04C967.33,-302.64 954.35,-290.98 945.65,-283.17"/>
<polygon fill="#63b8ff" stroke="#63b8ff" points="975.74,-314.91 985.52,-318.98 980.42,-309.7 975.74,-314.91"/>
</a>
</g>
</g>
<!-- Node32 -->
<g id="Node000032" class="node">
<title>Node32</title>
<g id="a_Node000032"><a xlink:href="vbus__pci_source.html" target="_top" xlink:title=" ">
<polygon fill="white" stroke="#666666" points="1104,-283 1006,-283 1006,-264 1104,-264 1104,-283"/>
<text text-anchor="middle" x="1055" y="-271" font-family="Helvetica,sans-Serif" font-size="10.00">l4/vbus/vbus_pci</text>
</a>
</g>
</g>
<!-- Node29&#45;&gt;Node32 -->
<g id="edge42_Node000029_Node000032" class="edge">
<title>Node29&#45;&gt;Node32</title>
<g id="a_edge42_Node000029_Node000032"><a xlink:title=" ">
<path fill="none" stroke="#63b8ff" d="M1012.18,-312.32C1022.88,-302.87 1036.26,-291.06 1045.18,-283.17"/>
<polygon fill="#63b8ff" stroke="#63b8ff" points="1009.82,-309.74 1004.64,-318.98 1014.45,-314.99 1009.82,-309.74"/>
</a>
</g>
</g>
</g>
</svg>
