<?xml version="1.0" encoding="UTF-8" standalone="no"?>
<!DOCTYPE svg PUBLIC "-//W3C//DTD SVG 1.1//EN"
 "http://www.w3.org/Graphics/SVG/1.1/DTD/svg11.dtd">
<!-- Generated by graphviz version 2.42.4 (0)
 -->
<!-- Title: l4/sys/icu.h Pages: 1 -->
<svg width="1758pt" height="511pt"
 viewBox="0.00 0.00 1757.88 511.00" xmlns="http://www.w3.org/2000/svg" xmlns:xlink="http://www.w3.org/1999/xlink">
<g id="graph0" class="graph" transform="scale(1 1) rotate(0) translate(4 507)">
<title>l4/sys/icu.h</title>
<!-- Node1 -->
<g id="Node000001" class="node">
<title>Node1</title>
<g id="a_Node000001"><a xlink:title="Interrupt controller.">
<polygon fill="#999999" stroke="#666666" points="894,-503 823,-503 823,-484 894,-484 894,-503"/>
<text text-anchor="middle" x="858.5" y="-491" font-family="Helvetica,sans-Serif" font-size="10.00">l4/sys/icu.h</text>
</a>
</g>
</g>
<!-- Node2 -->
<g id="Node000002" class="node">
<title>Node2</title>
<g id="a_Node000002"><a xlink:href="irq.html" target="_top" xlink:title="C++ Irq interface.">
<polygon fill="white" stroke="#666666" points="889,-448 828,-448 828,-429 889,-429 889,-448"/>
<text text-anchor="middle" x="858.5" y="-436" font-family="Helvetica,sans-Serif" font-size="10.00">l4/sys/irq</text>
</a>
</g>
</g>
<!-- Node1&#45;&gt;Node2 -->
<g id="edge1_Node000001_Node000002" class="edge">
<title>Node1&#45;&gt;Node2</title>
<g id="a_edge1_Node000001_Node000002"><a xlink:title=" ">
<path fill="none" stroke="#63b8ff" d="M858.5,-473.66C858.5,-464.93 858.5,-454.99 858.5,-448.09"/>
<polygon fill="#63b8ff" stroke="#63b8ff" points="855,-473.75 858.5,-483.75 862,-473.75 855,-473.75"/>
</a>
</g>
</g>
<!-- Node3 -->
<g id="Node000003" class="node">
<title>Node3</title>
<g id="a_Node000003"><a xlink:href="l4virtio_source.html" target="_top" xlink:title=" ">
<polygon fill="white" stroke="#666666" points="366,-222.5 265,-222.5 265,-203.5 366,-203.5 366,-222.5"/>
<text text-anchor="middle" x="315.5" y="-210.5" font-family="Helvetica,sans-Serif" font-size="10.00">l4/l4virtio/l4virtio</text>
</a>
</g>
</g>
<!-- Node2&#45;&gt;Node3 -->
<g id="edge2_Node000002_Node000003" class="edge">
<title>Node2&#45;&gt;Node3</title>
<g id="a_edge2_Node000002_Node000003"><a xlink:title=" ">
<path fill="none" stroke="#63b8ff" d="M817.8,-438.18C734.87,-437.6 543.53,-426.03 417.5,-338 370.42,-305.12 333.06,-244.86 320.27,-222.58"/>
<polygon fill="#63b8ff" stroke="#63b8ff" points="817.83,-441.68 827.83,-438.2 817.84,-434.68 817.83,-441.68"/>
</a>
</g>
</g>
<!-- Node12 -->
<g id="Node000012" class="node">
<title>Node12</title>
<g id="a_Node000012"><a xlink:href="event_source.html" target="_top" xlink:title=" ">
<polygon fill="white" stroke="#666666" points="653,-393 584,-393 584,-374 653,-374 653,-393"/>
<text text-anchor="middle" x="618.5" y="-381" font-family="Helvetica,sans-Serif" font-size="10.00">l4/re/event</text>
</a>
</g>
</g>
<!-- Node2&#45;&gt;Node12 -->
<g id="edge15_Node000002_Node000012" class="edge">
<title>Node2&#45;&gt;Node12</title>
<g id="a_edge15_Node000002_Node000012"><a xlink:title=" ">
<path fill="none" stroke="#63b8ff" d="M817.62,-428.47C771.33,-418.25 696.7,-401.77 653.15,-392.15"/>
<polygon fill="#63b8ff" stroke="#63b8ff" points="817.1,-431.94 827.62,-430.68 818.61,-425.11 817.1,-431.94"/>
</a>
</g>
</g>
<!-- Node21 -->
<g id="Node000021" class="node">
<title>Node21</title>
<g id="a_Node000021"><a xlink:href="icu.html" target="_top" xlink:title="Interrupt controller.">
<polygon fill="white" stroke="#666666" points="1098.5,-393 1036.5,-393 1036.5,-374 1098.5,-374 1098.5,-393"/>
<text text-anchor="middle" x="1067.5" y="-381" font-family="Helvetica,sans-Serif" font-size="10.00">l4/sys/icu</text>
</a>
</g>
</g>
<!-- Node2&#45;&gt;Node21 -->
<g id="edge24_Node000002_Node000021" class="edge">
<title>Node2&#45;&gt;Node21</title>
<g id="a_edge24_Node000002_Node000021"><a xlink:title=" ">
<path fill="none" stroke="#63b8ff" d="M899.07,-427.21C939.17,-417.04 999.66,-401.7 1036.19,-392.44"/>
<polygon fill="#63b8ff" stroke="#63b8ff" points="898.17,-423.83 889.34,-429.68 899.89,-430.61 898.17,-423.83"/>
</a>
</g>
</g>
<!-- Node39 -->
<g id="Node000039" class="node">
<title>Node39</title>
<g id="a_Node000039"><a xlink:href="semaphore.html" target="_top" xlink:title="Semaphore class definition.">
<polygon fill="white" stroke="#666666" points="1709,-283 1606,-283 1606,-264 1709,-264 1709,-283"/>
<text text-anchor="middle" x="1657.5" y="-271" font-family="Helvetica,sans-Serif" font-size="10.00">l4/sys/semaphore</text>
</a>
</g>
</g>
<!-- Node2&#45;&gt;Node39 -->
<g id="edge57_Node000002_Node000039" class="edge">
<title>Node2&#45;&gt;Node39</title>
<g id="a_edge57_Node000002_Node000039"><a xlink:title=" ">
<path fill="none" stroke="#63b8ff" d="M899.2,-430.68C948.57,-422.3 1034.29,-407.42 1107.5,-393 1301.09,-354.86 1531.61,-303.13 1620.25,-283"/>
<polygon fill="#63b8ff" stroke="#63b8ff" points="898.51,-427.25 889.23,-432.37 899.68,-434.15 898.51,-427.25"/>
</a>
</g>
</g>
<!-- Node4 -->
<g id="Node000004" class="node">
<title>Node4</title>
<g id="a_Node000004"><a xlink:href="client_2l4virtio_source.html" target="_top" xlink:title=" ">
<polygon fill="white" stroke="#666666" points="729,-96 636,-96 636,-66 729,-66 729,-96"/>
<text text-anchor="start" x="644" y="-84" font-family="Helvetica,sans-Serif" font-size="10.00">l4/l4virtio/client</text>
<text text-anchor="middle" x="682.5" y="-73" font-family="Helvetica,sans-Serif" font-size="10.00">/l4virtio</text>
</a>
</g>
</g>
<!-- Node3&#45;&gt;Node4 -->
<g id="edge3_Node000003_Node000004" class="edge">
<title>Node3&#45;&gt;Node4</title>
<g id="a_edge3_Node000003_Node000004"><a xlink:title=" ">
<path fill="none" stroke="#63b8ff" d="M335.52,-197.3C360.99,-179.3 406.9,-149.09 450.5,-132 483.68,-118.99 577.97,-100.73 635.62,-90.26"/>
<polygon fill="#63b8ff" stroke="#63b8ff" points="333.2,-194.66 327.11,-203.34 337.28,-200.35 333.2,-194.66"/>
</a>
</g>
</g>
<!-- Node5 -->
<g id="Node000005" class="node">
<title>Node5</title>
<g id="a_Node000005"><a xlink:href="client_2virtio-block_source.html" target="_top" xlink:title=" ">
<polygon fill="white" stroke="#666666" points="804,-30 711,-30 711,0 804,0 804,-30"/>
<text text-anchor="start" x="719" y="-18" font-family="Helvetica,sans-Serif" font-size="10.00">l4/l4virtio/client</text>
<text text-anchor="middle" x="757.5" y="-7" font-family="Helvetica,sans-Serif" font-size="10.00">/virtio&#45;block</text>
</a>
</g>
</g>
<!-- Node3&#45;&gt;Node5 -->
<g id="edge6_Node000003_Node000005" class="edge">
<title>Node3&#45;&gt;Node5</title>
<g id="a_edge6_Node000003_Node000005"><a xlink:title=" ">
<path fill="none" stroke="#63b8ff" d="M271.11,-200C252.05,-192.4 231.62,-180.43 220.5,-162 198.45,-125.47 191.58,-97.37 220.5,-66 253.9,-29.77 613.54,-35.59 662.5,-30 678.24,-28.2 695.37,-25.81 710.71,-23.51"/>
<polygon fill="#63b8ff" stroke="#63b8ff" points="270.01,-203.33 280.61,-203.49 272.43,-196.75 270.01,-203.33"/>
</a>
</g>
</g>
<!-- Node6 -->
<g id="Node000006" class="node">
<title>Node6</title>
<g id="a_Node000006"><a xlink:href="virtio-net_source.html" target="_top" xlink:title=" ">
<polygon fill="white" stroke="#666666" points="654,-30 561,-30 561,0 654,0 654,-30"/>
<text text-anchor="start" x="569" y="-18" font-family="Helvetica,sans-Serif" font-size="10.00">l4/l4virtio/client</text>
<text text-anchor="middle" x="607.5" y="-7" font-family="Helvetica,sans-Serif" font-size="10.00">/virtio&#45;net</text>
</a>
</g>
</g>
<!-- Node3&#45;&gt;Node6 -->
<g id="edge7_Node000003_Node000006" class="edge">
<title>Node3&#45;&gt;Node6</title>
<g id="a_edge7_Node000003_Node000006"><a xlink:title=" ">
<path fill="none" stroke="#63b8ff" d="M254.65,-210.8C217.85,-206.54 173.54,-194.35 149.5,-162 124.05,-127.75 121.01,-97.76 149.5,-66 176.63,-35.74 449.38,-22.01 560.63,-17.64"/>
<polygon fill="#63b8ff" stroke="#63b8ff" points="254.51,-214.31 264.8,-211.81 255.2,-207.34 254.51,-214.31"/>
</a>
</g>
</g>
<!-- Node7 -->
<g id="Node000007" class="node">
<title>Node7</title>
<g id="a_Node000007"><a xlink:href="server_2l4virtio_source.html" target="_top" xlink:title=" ">
<polygon fill="white" stroke="#666666" points="327,-162 230,-162 230,-132 327,-132 327,-162"/>
<text text-anchor="start" x="238" y="-150" font-family="Helvetica,sans-Serif" font-size="10.00">l4/l4virtio/server</text>
<text text-anchor="middle" x="278.5" y="-139" font-family="Helvetica,sans-Serif" font-size="10.00">/l4virtio</text>
</a>
</g>
</g>
<!-- Node3&#45;&gt;Node7 -->
<g id="edge8_Node000003_Node000007" class="edge">
<title>Node3&#45;&gt;Node7</title>
<g id="a_edge8_Node000003_Node000007"><a xlink:title=" ">
<path fill="none" stroke="#63b8ff" d="M305.45,-194.61C299.6,-184.5 292.32,-171.91 286.8,-162.36"/>
<polygon fill="#63b8ff" stroke="#63b8ff" points="302.47,-196.46 310.51,-203.37 308.54,-192.96 302.47,-196.46"/>
</a>
</g>
</g>
<!-- Node11 -->
<g id="Node000011" class="node">
<title>Node11</title>
<g id="a_Node000011"><a xlink:href="virtio-scmi-device_source.html" target="_top" xlink:title=" ">
<polygon fill="white" stroke="#666666" points="453.5,-96 345.5,-96 345.5,-66 453.5,-66 453.5,-96"/>
<text text-anchor="start" x="353.5" y="-84" font-family="Helvetica,sans-Serif" font-size="10.00">l4/l4virtio/server</text>
<text text-anchor="middle" x="399.5" y="-73" font-family="Helvetica,sans-Serif" font-size="10.00">/virtio&#45;scmi&#45;device</text>
</a>
</g>
</g>
<!-- Node3&#45;&gt;Node11 -->
<g id="edge14_Node000003_Node000011" class="edge">
<title>Node3&#45;&gt;Node11</title>
<g id="a_edge14_Node000003_Node000011"><a xlink:title=" ">
<path fill="none" stroke="#63b8ff" d="M326.45,-195.06C343.19,-169.14 374.86,-120.14 390.41,-96.07"/>
<polygon fill="#63b8ff" stroke="#63b8ff" points="323.5,-193.17 321.01,-203.47 329.38,-196.97 323.5,-193.17"/>
</a>
</g>
</g>
<!-- Node4&#45;&gt;Node5 -->
<g id="edge4_Node000004_Node000005" class="edge">
<title>Node4&#45;&gt;Node5</title>
<g id="a_edge4_Node000004_Node000005"><a xlink:title=" ">
<path fill="none" stroke="#63b8ff" d="M706.87,-59.2C718.01,-49.7 730.91,-38.69 740.9,-30.16"/>
<polygon fill="#63b8ff" stroke="#63b8ff" points="704.48,-56.64 699.14,-65.8 709.02,-61.97 704.48,-56.64"/>
</a>
</g>
</g>
<!-- Node4&#45;&gt;Node6 -->
<g id="edge5_Node000004_Node000006" class="edge">
<title>Node4&#45;&gt;Node6</title>
<g id="a_edge5_Node000004_Node000006"><a xlink:title=" ">
<path fill="none" stroke="#63b8ff" d="M658.13,-59.2C646.99,-49.7 634.09,-38.69 624.1,-30.16"/>
<polygon fill="#63b8ff" stroke="#63b8ff" points="655.98,-61.97 665.86,-65.8 660.52,-56.64 655.98,-61.97"/>
</a>
</g>
</g>
<!-- Node8 -->
<g id="Node000008" class="node">
<title>Node8</title>
<g id="a_Node000008"><a xlink:href="server_2virtio-block_source.html" target="_top" xlink:title=" ">
<polygon fill="white" stroke="#666666" points="327,-96 230,-96 230,-66 327,-66 327,-96"/>
<text text-anchor="start" x="238" y="-84" font-family="Helvetica,sans-Serif" font-size="10.00">l4/l4virtio/server</text>
<text text-anchor="middle" x="278.5" y="-73" font-family="Helvetica,sans-Serif" font-size="10.00">/virtio&#45;block</text>
</a>
</g>
</g>
<!-- Node7&#45;&gt;Node8 -->
<g id="edge9_Node000007_Node000008" class="edge">
<title>Node7&#45;&gt;Node8</title>
<g id="a_edge9_Node000007_Node000008"><a xlink:title=" ">
<path fill="none" stroke="#63b8ff" d="M278.5,-121.54C278.5,-112.96 278.5,-103.61 278.5,-96.16"/>
<polygon fill="#63b8ff" stroke="#63b8ff" points="275,-121.8 278.5,-131.8 282,-121.8 275,-121.8"/>
</a>
</g>
</g>
<!-- Node9 -->
<g id="Node000009" class="node">
<title>Node9</title>
<g id="a_Node000009"><a xlink:href="virtio-console_source.html" target="_top" xlink:title=" ">
<polygon fill="white" stroke="#666666" points="97,-96 0,-96 0,-66 97,-66 97,-96"/>
<text text-anchor="start" x="8" y="-84" font-family="Helvetica,sans-Serif" font-size="10.00">l4/l4virtio/server</text>
<text text-anchor="middle" x="48.5" y="-73" font-family="Helvetica,sans-Serif" font-size="10.00">/virtio&#45;console</text>
</a>
</g>
</g>
<!-- Node7&#45;&gt;Node9 -->
<g id="edge10_Node000007_Node000009" class="edge">
<title>Node7&#45;&gt;Node9</title>
<g id="a_edge10_Node000007_Node000009"><a xlink:title=" ">
<path fill="none" stroke="#63b8ff" d="M219.82,-129.67C181.86,-119.11 133.02,-105.52 97.21,-95.55"/>
<polygon fill="#63b8ff" stroke="#63b8ff" points="219.15,-133.12 229.72,-132.43 221.03,-126.37 219.15,-133.12"/>
</a>
</g>
</g>
<!-- Node10 -->
<g id="Node000010" class="node">
<title>Node10</title>
<g id="a_Node000010"><a xlink:href="virtio-console-device_source.html" target="_top" xlink:title=" ">
<polygon fill="white" stroke="#666666" points="186.5,-30 64.5,-30 64.5,0 186.5,0 186.5,-30"/>
<text text-anchor="start" x="72.5" y="-18" font-family="Helvetica,sans-Serif" font-size="10.00">l4/l4virtio/server</text>
<text text-anchor="middle" x="125.5" y="-7" font-family="Helvetica,sans-Serif" font-size="10.00">/virtio&#45;console&#45;device</text>
</a>
</g>
</g>
<!-- Node7&#45;&gt;Node10 -->
<g id="edge12_Node000007_Node000010" class="edge">
<title>Node7&#45;&gt;Node10</title>
<g id="a_edge12_Node000007_Node000010"><a xlink:title=" ">
<path fill="none" stroke="#63b8ff" d="M253.99,-125.18C222.63,-98.53 169.15,-53.09 142.14,-30.14"/>
<polygon fill="#63b8ff" stroke="#63b8ff" points="251.95,-128.03 261.84,-131.84 256.48,-122.7 251.95,-128.03"/>
</a>
</g>
</g>
<!-- Node7&#45;&gt;Node11 -->
<g id="edge13_Node000007_Node000011" class="edge">
<title>Node7&#45;&gt;Node11</title>
<g id="a_edge13_Node000007_Node000011"><a xlink:title=" ">
<path fill="none" stroke="#63b8ff" d="M313.97,-127.24C332.85,-117.25 355.68,-105.18 373.01,-96.01"/>
<polygon fill="#63b8ff" stroke="#63b8ff" points="312.26,-124.19 305.05,-131.95 315.53,-130.37 312.26,-124.19"/>
</a>
</g>
</g>
<!-- Node9&#45;&gt;Node10 -->
<g id="edge11_Node000009_Node000010" class="edge">
<title>Node9&#45;&gt;Node10</title>
<g id="a_edge11_Node000009_Node000010"><a xlink:title=" ">
<path fill="none" stroke="#63b8ff" d="M73.52,-59.2C84.95,-49.7 98.2,-38.69 108.46,-30.16"/>
<polygon fill="#63b8ff" stroke="#63b8ff" points="71.04,-56.71 65.59,-65.8 75.52,-62.1 71.04,-56.71"/>
</a>
</g>
</g>
<!-- Node13 -->
<g id="Node000013" class="node">
<title>Node13</title>
<g id="a_Node000013"><a xlink:href="console_source.html" target="_top" xlink:title=" ">
<polygon fill="white" stroke="#666666" points="658,-338 579,-338 579,-319 658,-319 658,-338"/>
<text text-anchor="middle" x="618.5" y="-326" font-family="Helvetica,sans-Serif" font-size="10.00">l4/re/console</text>
</a>
</g>
</g>
<!-- Node12&#45;&gt;Node13 -->
<g id="edge16_Node000012_Node000013" class="edge">
<title>Node12&#45;&gt;Node13</title>
<g id="a_edge16_Node000012_Node000013"><a xlink:title=" ">
<path fill="none" stroke="#63b8ff" d="M618.5,-363.66C618.5,-354.93 618.5,-344.99 618.5,-338.09"/>
<polygon fill="#63b8ff" stroke="#63b8ff" points="615,-363.75 618.5,-373.75 622,-363.75 615,-363.75"/>
</a>
</g>
</g>
<!-- Node14 -->
<g id="Node000014" class="node">
<title>Node14</title>
<g id="a_Node000014"><a xlink:href="event__buffer_source.html" target="_top" xlink:title=" ">
<polygon fill="white" stroke="#666666" points="584.5,-222.5 462.5,-222.5 462.5,-203.5 584.5,-203.5 584.5,-222.5"/>
<text text-anchor="middle" x="523.5" y="-210.5" font-family="Helvetica,sans-Serif" font-size="10.00">l4/re/util/event_buffer</text>
</a>
</g>
</g>
<!-- Node12&#45;&gt;Node14 -->
<g id="edge17_Node000012_Node000014" class="edge">
<title>Node12&#45;&gt;Node14</title>
<g id="a_edge17_Node000012_Node000014"><a xlink:title=" ">
<path fill="none" stroke="#63b8ff" d="M598.03,-367.66C588.3,-359.76 577.16,-349.34 569.5,-338 543.4,-299.38 529.77,-244.04 525.24,-222.78"/>
<polygon fill="#63b8ff" stroke="#63b8ff" points="596.04,-370.55 606.08,-373.92 600.33,-365.02 596.04,-370.55"/>
</a>
</g>
</g>
<!-- Node16 -->
<g id="Node000016" class="node">
<title>Node16</title>
<g id="a_Node000016"><a xlink:href="event__svr_source.html" target="_top" xlink:title=" ">
<polygon fill="white" stroke="#666666" points="579.5,-90.5 471.5,-90.5 471.5,-71.5 579.5,-71.5 579.5,-90.5"/>
<text text-anchor="middle" x="525.5" y="-78.5" font-family="Helvetica,sans-Serif" font-size="10.00">l4/re/util/event_svr</text>
</a>
</g>
</g>
<!-- Node12&#45;&gt;Node16 -->
<g id="edge19_Node000012_Node000016" class="edge">
<title>Node12&#45;&gt;Node16</title>
<g id="a_edge19_Node000012_Node000016"><a xlink:title=" ">
<path fill="none" stroke="#63b8ff" d="M573.83,-376.55C518.52,-366.38 431.5,-339.97 431.5,-274.5 431.5,-274.5 431.5,-274.5 431.5,-212 431.5,-175.46 429.63,-162 450.5,-132 464,-112.6 487.67,-98.69 504.81,-90.55"/>
<polygon fill="#63b8ff" stroke="#63b8ff" points="573.32,-380.01 583.76,-378.26 574.51,-373.11 573.32,-380.01"/>
</a>
</g>
</g>
<!-- Node17 -->
<g id="Node000017" class="node">
<title>Node17</title>
<g id="a_Node000017"><a xlink:href="vbus_source.html" target="_top" xlink:title=" ">
<polygon fill="white" stroke="#666666" points="793.5,-338 715.5,-338 715.5,-319 793.5,-319 793.5,-338"/>
<text text-anchor="middle" x="754.5" y="-326" font-family="Helvetica,sans-Serif" font-size="10.00">l4/vbus/vbus</text>
</a>
</g>
</g>
<!-- Node12&#45;&gt;Node17 -->
<g id="edge20_Node000012_Node000017" class="edge">
<title>Node12&#45;&gt;Node17</title>
<g id="a_edge20_Node000012_Node000017"><a xlink:title=" ">
<path fill="none" stroke="#63b8ff" d="M649.83,-370.29C675.04,-360.47 709.83,-346.91 732.25,-338.17"/>
<polygon fill="#63b8ff" stroke="#63b8ff" points="648.4,-367.09 640.35,-373.98 650.94,-373.61 648.4,-367.09"/>
</a>
</g>
</g>
<!-- Node15 -->
<g id="Node000015" class="node">
<title>Node15</title>
<g id="a_Node000015"><a xlink:href="util_2event.html" target="_top" xlink:title=" ">
<polygon fill="white" stroke="#666666" points="547.5,-156.5 459.5,-156.5 459.5,-137.5 547.5,-137.5 547.5,-156.5"/>
<text text-anchor="middle" x="503.5" y="-144.5" font-family="Helvetica,sans-Serif" font-size="10.00">l4/re/util/event</text>
</a>
</g>
</g>
<!-- Node14&#45;&gt;Node15 -->
<g id="edge18_Node000014_Node000015" class="edge">
<title>Node14&#45;&gt;Node15</title>
<g id="a_edge18_Node000014_Node000015"><a xlink:title=" ">
<path fill="none" stroke="#63b8ff" d="M517.82,-193.82C514.04,-181.74 509.25,-166.41 506.28,-156.91"/>
<polygon fill="#63b8ff" stroke="#63b8ff" points="514.48,-194.87 520.8,-203.37 521.16,-192.78 514.48,-194.87"/>
</a>
</g>
</g>
<!-- Node18 -->
<g id="Node000018" class="node">
<title>Node18</title>
<g id="a_Node000018"><a xlink:href="vbus__generic_source.html" target="_top" xlink:title=" ">
<polygon fill="white" stroke="#666666" points="684,-283 565,-283 565,-264 684,-264 684,-283"/>
<text text-anchor="middle" x="624.5" y="-271" font-family="Helvetica,sans-Serif" font-size="10.00">l4/vbus/vbus_generic</text>
</a>
</g>
</g>
<!-- Node17&#45;&gt;Node18 -->
<g id="edge21_Node000017_Node000018" class="edge">
<title>Node17&#45;&gt;Node18</title>
<g id="a_edge21_Node000017_Node000018"><a xlink:title=" ">
<path fill="none" stroke="#63b8ff" d="M724.23,-315.16C700.16,-305.35 667.1,-291.87 645.77,-283.17"/>
<polygon fill="#63b8ff" stroke="#63b8ff" points="723.03,-318.45 733.61,-318.98 725.67,-311.97 723.03,-318.45"/>
</a>
</g>
</g>
<!-- Node19 -->
<g id="Node000019" class="node">
<title>Node19</title>
<g id="a_Node000019"><a xlink:href="vbus__gpio_source.html" target="_top" xlink:title=" ">
<polygon fill="white" stroke="#666666" points="806.5,-283 702.5,-283 702.5,-264 806.5,-264 806.5,-283"/>
<text text-anchor="middle" x="754.5" y="-271" font-family="Helvetica,sans-Serif" font-size="10.00">l4/vbus/vbus_gpio</text>
</a>
</g>
</g>
<!-- Node17&#45;&gt;Node19 -->
<g id="edge22_Node000017_Node000019" class="edge">
<title>Node17&#45;&gt;Node19</title>
<g id="a_edge22_Node000017_Node000019"><a xlink:title=" ">
<path fill="none" stroke="#63b8ff" d="M754.5,-308.66C754.5,-299.93 754.5,-289.99 754.5,-283.09"/>
<polygon fill="#63b8ff" stroke="#63b8ff" points="751,-308.75 754.5,-318.75 758,-308.75 751,-308.75"/>
</a>
</g>
</g>
<!-- Node20 -->
<g id="Node000020" class="node">
<title>Node20</title>
<g id="a_Node000020"><a xlink:href="vbus__pci_source.html" target="_top" xlink:title=" ">
<polygon fill="white" stroke="#666666" points="922.5,-283 824.5,-283 824.5,-264 922.5,-264 922.5,-283"/>
<text text-anchor="middle" x="873.5" y="-271" font-family="Helvetica,sans-Serif" font-size="10.00">l4/vbus/vbus_pci</text>
</a>
</g>
</g>
<!-- Node17&#45;&gt;Node20 -->
<g id="edge23_Node000017_Node000020" class="edge">
<title>Node17&#45;&gt;Node20</title>
<g id="a_edge23_Node000017_Node000020"><a xlink:title=" ">
<path fill="none" stroke="#63b8ff" d="M782.8,-314.9C804.78,-305.11 834.68,-291.79 854.03,-283.17"/>
<polygon fill="#63b8ff" stroke="#63b8ff" points="781.33,-311.72 773.62,-318.98 784.18,-318.11 781.33,-311.72"/>
</a>
</g>
</g>
<!-- Node21&#45;&gt;Node17 -->
<g id="edge56_Node000021_Node000017" class="edge">
<title>Node21&#45;&gt;Node17</title>
<g id="a_edge56_Node000021_Node000017"><a xlink:title=" ">
<path fill="none" stroke="#63b8ff" d="M1026.36,-375.53C965.68,-365.26 852.99,-346.18 793.55,-336.11"/>
<polygon fill="#63b8ff" stroke="#63b8ff" points="1025.9,-379.01 1036.34,-377.22 1027.07,-372.1 1025.9,-379.01"/>
</a>
</g>
</g>
<!-- Node22 -->
<g id="Node000022" class="node">
<title>Node22</title>
<g id="a_Node000022"><a xlink:href="random.html" target="_top" xlink:title="Random number generator interface definition.">
<polygon fill="white" stroke="#666666" points="1153,-338 1074,-338 1074,-319 1153,-319 1153,-338"/>
<text text-anchor="middle" x="1113.5" y="-326" font-family="Helvetica,sans-Serif" font-size="10.00">l4/re/random</text>
</a>
</g>
</g>
<!-- Node21&#45;&gt;Node22 -->
<g id="edge25_Node000021_Node000022" class="edge">
<title>Node21&#45;&gt;Node22</title>
<g id="a_edge25_Node000021_Node000022"><a xlink:title=" ">
<path fill="none" stroke="#63b8ff" d="M1081.86,-365.96C1089.87,-356.72 1099.53,-345.6 1106.05,-338.09"/>
<polygon fill="#63b8ff" stroke="#63b8ff" points="1079.01,-363.9 1075.1,-373.75 1084.29,-368.49 1079.01,-363.9"/>
</a>
</g>
</g>
<!-- Node23 -->
<g id="Node000023" class="node">
<title>Node23</title>
<g id="a_Node000023"><a xlink:href="icu__svr_source.html" target="_top" xlink:title=" ">
<polygon fill="white" stroke="#666666" points="1251,-156.5 1156,-156.5 1156,-137.5 1251,-137.5 1251,-156.5"/>
<text text-anchor="middle" x="1203.5" y="-144.5" font-family="Helvetica,sans-Serif" font-size="10.00">l4/re/util/icu_svr</text>
</a>
</g>
</g>
<!-- Node21&#45;&gt;Node23 -->
<g id="edge26_Node000021_Node000023" class="edge">
<title>Node21&#45;&gt;Node23</title>
<g id="a_edge26_Node000021_Node000023"><a xlink:title=" ">
<path fill="none" stroke="#63b8ff" d="M1108.24,-372.23C1127.08,-365.48 1148.18,-354.71 1161.5,-338 1206.78,-281.21 1205.63,-185.8 1204.1,-156.69"/>
<polygon fill="#63b8ff" stroke="#63b8ff" points="1107.05,-368.94 1098.65,-375.41 1109.25,-375.59 1107.05,-368.94"/>
</a>
</g>
</g>
<!-- Node24 -->
<g id="Node000024" class="node">
<title>Node24</title>
<g id="a_Node000024"><a xlink:href="scheduler.html" target="_top" xlink:title="Scheduler object functions.">
<polygon fill="white" stroke="#666666" points="1305,-338 1210,-338 1210,-319 1305,-319 1305,-338"/>
<text text-anchor="middle" x="1257.5" y="-326" font-family="Helvetica,sans-Serif" font-size="10.00">l4/sys/scheduler</text>
</a>
</g>
</g>
<!-- Node21&#45;&gt;Node24 -->
<g id="edge28_Node000021_Node000024" class="edge">
<title>Node21&#45;&gt;Node24</title>
<g id="a_edge28_Node000021_Node000024"><a xlink:title=" ">
<path fill="none" stroke="#63b8ff" d="M1108.07,-371.18C1143.6,-361.27 1194.47,-347.08 1226.73,-338.08"/>
<polygon fill="#63b8ff" stroke="#63b8ff" points="1106.72,-367.93 1098.03,-373.98 1108.6,-374.67 1106.72,-367.93"/>
</a>
</g>
</g>
<!-- Node25 -->
<g id="Node000025" class="node">
<title>Node25</title>
<g id="a_Node000025"><a xlink:href="vcon.html" target="_top" xlink:title="C++ Virtual console interface.">
<polygon fill="white" stroke="#666666" points="1056,-338 985,-338 985,-319 1056,-319 1056,-338"/>
<text text-anchor="middle" x="1020.5" y="-326" font-family="Helvetica,sans-Serif" font-size="10.00">l4/sys/vcon</text>
</a>
</g>
</g>
<!-- Node21&#45;&gt;Node25 -->
<g id="edge29_Node000021_Node000025" class="edge">
<title>Node21&#45;&gt;Node25</title>
<g id="a_edge29_Node000021_Node000025"><a xlink:title=" ">
<path fill="none" stroke="#63b8ff" d="M1053.08,-366.24C1044.84,-356.95 1034.85,-345.68 1028.12,-338.09"/>
<polygon fill="#63b8ff" stroke="#63b8ff" points="1050.49,-368.59 1059.74,-373.75 1055.72,-363.94 1050.49,-368.59"/>
</a>
</g>
</g>
<!-- Node23&#45;&gt;Node16 -->
<g id="edge27_Node000023_Node000016" class="edge">
<title>Node23&#45;&gt;Node16</title>
<g id="a_edge27_Node000023_Node000016"><a xlink:title=" ">
<path fill="none" stroke="#63b8ff" d="M1163.12,-135.18C1157.56,-133.95 1151.91,-132.85 1146.5,-132 917.61,-96.24 856.93,-119.92 626.5,-96 611.27,-94.42 594.8,-92.31 579.67,-90.21"/>
<polygon fill="#63b8ff" stroke="#63b8ff" points="1162.4,-138.6 1172.93,-137.47 1163.99,-131.79 1162.4,-138.6"/>
</a>
</g>
</g>
<!-- Node26 -->
<g id="Node000026" class="node">
<title>Node26</title>
<g id="a_Node000026"><a xlink:href="vcon__stream_8h_source.html" target="_top" xlink:title=" ">
<polygon fill="white" stroke="#666666" points="1643,-228 1524,-228 1524,-198 1643,-198 1643,-228"/>
<text text-anchor="start" x="1532" y="-216" font-family="Helvetica,sans-Serif" font-size="10.00">l4/l4re_vfs/impl/vcon</text>
<text text-anchor="middle" x="1583.5" y="-205" font-family="Helvetica,sans-Serif" font-size="10.00">_stream.h</text>
</a>
</g>
</g>
<!-- Node25&#45;&gt;Node26 -->
<g id="edge30_Node000025_Node000026" class="edge">
<title>Node25&#45;&gt;Node26</title>
<g id="a_edge30_Node000025_Node000026"><a xlink:title=" ">
<path fill="none" stroke="#63b8ff" d="M1066.05,-318.32C1167.15,-297.94 1410.28,-248.92 1523.55,-226.09"/>
<polygon fill="#63b8ff" stroke="#63b8ff" points="1065.26,-314.91 1056.15,-320.31 1066.64,-321.77 1065.26,-314.91"/>
</a>
</g>
</g>
<!-- Node29 -->
<g id="Node000029" class="node">
<title>Node29</title>
<g id="a_Node000029"><a xlink:href="log.html" target="_top" xlink:title="Log interface.">
<polygon fill="white" stroke="#666666" points="1124.5,-283 1068.5,-283 1068.5,-264 1124.5,-264 1124.5,-283"/>
<text text-anchor="middle" x="1096.5" y="-271" font-family="Helvetica,sans-Serif" font-size="10.00">l4/re/log</text>
</a>
</g>
</g>
<!-- Node25&#45;&gt;Node29 -->
<g id="edge33_Node000025_Node000029" class="edge">
<title>Node25&#45;&gt;Node29</title>
<g id="a_edge33_Node000025_Node000029"><a xlink:title=" ">
<path fill="none" stroke="#63b8ff" d="M1041.08,-313.15C1054.81,-303.57 1072.43,-291.29 1084.07,-283.17"/>
<polygon fill="#63b8ff" stroke="#63b8ff" points="1038.91,-310.39 1032.71,-318.98 1042.92,-316.14 1038.91,-310.39"/>
</a>
</g>
</g>
<!-- Node38 -->
<g id="Node000038" class="node">
<title>Node38</title>
<g id="a_Node000038"><a xlink:href="vcon__svr_source.html" target="_top" xlink:title=" ">
<polygon fill="white" stroke="#666666" points="1050.5,-283 946.5,-283 946.5,-264 1050.5,-264 1050.5,-283"/>
<text text-anchor="middle" x="998.5" y="-271" font-family="Helvetica,sans-Serif" font-size="10.00">l4/re/util/vcon_svr</text>
</a>
</g>
</g>
<!-- Node25&#45;&gt;Node38 -->
<g id="edge55_Node000025_Node000038" class="edge">
<title>Node25&#45;&gt;Node38</title>
<g id="a_edge55_Node000025_Node000038"><a xlink:title=" ">
<path fill="none" stroke="#63b8ff" d="M1012.92,-309.24C1009.24,-300.37 1004.99,-290.14 1002.07,-283.09"/>
<polygon fill="#63b8ff" stroke="#63b8ff" points="1009.8,-310.85 1016.87,-318.75 1016.27,-308.17 1009.8,-310.85"/>
</a>
</g>
</g>
<!-- Node27 -->
<g id="Node000027" class="node">
<title>Node27</title>
<g id="a_Node000027"><a xlink:href="vcon__stream__impl_8h_source.html" target="_top" xlink:title=" ">
<polygon fill="white" stroke="#666666" points="1579,-162 1460,-162 1460,-132 1579,-132 1579,-162"/>
<text text-anchor="start" x="1468" y="-150" font-family="Helvetica,sans-Serif" font-size="10.00">l4/l4re_vfs/impl/vcon</text>
<text text-anchor="middle" x="1519.5" y="-139" font-family="Helvetica,sans-Serif" font-size="10.00">_stream_impl.h</text>
</a>
</g>
</g>
<!-- Node26&#45;&gt;Node27 -->
<g id="edge31_Node000026_Node000027" class="edge">
<title>Node26&#45;&gt;Node27</title>
<g id="a_edge31_Node000026_Node000027"><a xlink:title=" ">
<path fill="none" stroke="#63b8ff" d="M1562.15,-190.65C1552.77,-181.27 1542.03,-170.53 1533.66,-162.16"/>
<polygon fill="#63b8ff" stroke="#63b8ff" points="1559.75,-193.2 1569.3,-197.8 1564.7,-188.25 1559.75,-193.2"/>
</a>
</g>
</g>
<!-- Node28 -->
<g id="Node000028" class="node">
<title>Node28</title>
<g id="a_Node000028"><a xlink:href="vfs__impl_8h_source.html" target="_top" xlink:title=" ">
<polygon fill="white" stroke="#666666" points="1707.5,-162 1597.5,-162 1597.5,-132 1707.5,-132 1707.5,-162"/>
<text text-anchor="start" x="1605.5" y="-150" font-family="Helvetica,sans-Serif" font-size="10.00">l4/l4re_vfs/impl/vfs</text>
<text text-anchor="middle" x="1652.5" y="-139" font-family="Helvetica,sans-Serif" font-size="10.00">_impl.h</text>
</a>
</g>
</g>
<!-- Node26&#45;&gt;Node28 -->
<g id="edge32_Node000026_Node000028" class="edge">
<title>Node26&#45;&gt;Node28</title>
<g id="a_edge32_Node000026_Node000028"><a xlink:title=" ">
<path fill="none" stroke="#63b8ff" d="M1606.22,-190.92C1616.4,-181.49 1628.13,-170.61 1637.23,-162.16"/>
<polygon fill="#63b8ff" stroke="#63b8ff" points="1603.76,-188.43 1598.81,-197.8 1608.53,-193.56 1603.76,-188.43"/>
</a>
</g>
</g>
<!-- Node30 -->
<g id="Node000030" class="node">
<title>Node30</title>
<g id="a_Node000030"><a xlink:href="env.html" target="_top" xlink:title="Environment interface.">
<polygon fill="white" stroke="#666666" points="1126,-222.5 1067,-222.5 1067,-203.5 1126,-203.5 1126,-222.5"/>
<text text-anchor="middle" x="1096.5" y="-210.5" font-family="Helvetica,sans-Serif" font-size="10.00">l4/re/env</text>
</a>
</g>
</g>
<!-- Node29&#45;&gt;Node30 -->
<g id="edge34_Node000029_Node000030" class="edge">
<title>Node29&#45;&gt;Node30</title>
<g id="a_edge34_Node000029_Node000030"><a xlink:title=" ">
<path fill="none" stroke="#63b8ff" d="M1096.5,-253.66C1096.5,-243.24 1096.5,-230.8 1096.5,-222.67"/>
<polygon fill="#63b8ff" stroke="#63b8ff" points="1093,-253.87 1096.5,-263.87 1100,-253.87 1093,-253.87"/>
</a>
</g>
</g>
<!-- Node30&#45;&gt;Node4 -->
<g id="edge38_Node000030_Node000004" class="edge">
<title>Node30&#45;&gt;Node4</title>
<g id="a_edge38_Node000030_Node000004"><a xlink:title=" ">
<path fill="none" stroke="#63b8ff" d="M1056.76,-210.7C949.57,-206.77 660.66,-193.36 632.5,-162 613.9,-141.28 642.05,-112.8 663.06,-96.01"/>
<polygon fill="#63b8ff" stroke="#63b8ff" points="1056.73,-214.2 1066.85,-211.06 1056.98,-207.2 1056.73,-214.2"/>
</a>
</g>
</g>
<!-- Node30&#45;&gt;Node5 -->
<g id="edge39_Node000030_Node000005" class="edge">
<title>Node30&#45;&gt;Node5</title>
<g id="a_edge39_Node000030_Node000005"><a xlink:title=" ">
<path fill="none" stroke="#63b8ff" d="M1136.26,-211.84C1213.07,-210.6 1377.4,-203.09 1412.5,-162 1440.21,-129.56 1441.5,-97.3 1412.5,-66 1371.32,-21.56 947.19,-16.45 804.24,-15.99"/>
<polygon fill="#63b8ff" stroke="#63b8ff" points="1135.98,-208.35 1126.02,-211.98 1136.07,-215.35 1135.98,-208.35"/>
</a>
</g>
</g>
<!-- Node30&#45;&gt;Node6 -->
<g id="edge40_Node000030_Node000006" class="edge">
<title>Node30&#45;&gt;Node6</title>
<g id="a_edge40_Node000030_Node000006"><a xlink:title=" ">
<path fill="none" stroke="#63b8ff" d="M1056.45,-210.62C947.69,-206.48 652.93,-192.51 622.5,-162 587.05,-126.46 597.28,-59.16 603.87,-30.03"/>
<polygon fill="#63b8ff" stroke="#63b8ff" points="1056.56,-214.12 1066.68,-211 1056.82,-207.13 1056.56,-214.12"/>
</a>
</g>
</g>
<!-- Node30&#45;&gt;Node7 -->
<g id="edge41_Node000030_Node000007" class="edge">
<title>Node30&#45;&gt;Node7</title>
<g id="a_edge41_Node000030_Node000007"><a xlink:title=" ">
<path fill="none" stroke="#63b8ff" d="M1056.81,-208.98C955.68,-201.28 680.1,-180.23 450.5,-162 408.84,-158.69 361.51,-154.83 327.06,-152"/>
<polygon fill="#63b8ff" stroke="#63b8ff" points="1056.64,-212.48 1066.88,-209.75 1057.17,-205.5 1056.64,-212.48"/>
</a>
</g>
</g>
<!-- Node30&#45;&gt;Node15 -->
<g id="edge46_Node000030_Node000015" class="edge">
<title>Node30&#45;&gt;Node15</title>
<g id="a_edge46_Node000030_Node000015"><a xlink:title=" ">
<path fill="none" stroke="#63b8ff" d="M1056.51,-210.23C967.21,-205.85 744.98,-192.56 561.5,-162 552.92,-160.57 543.72,-158.57 535.24,-156.53"/>
<polygon fill="#63b8ff" stroke="#63b8ff" points="1056.57,-213.74 1066.73,-210.72 1056.91,-206.74 1056.57,-213.74"/>
</a>
</g>
</g>
<!-- Node30&#45;&gt;Node23 -->
<g id="edge47_Node000030_Node000023" class="edge">
<title>Node30&#45;&gt;Node23</title>
<g id="a_edge47_Node000030_Node000023"><a xlink:title=" ">
<path fill="none" stroke="#63b8ff" d="M1119.59,-198.19C1140.65,-185.59 1171.11,-167.37 1188.96,-156.7"/>
<polygon fill="#63b8ff" stroke="#63b8ff" points="1117.72,-195.23 1110.93,-203.37 1121.31,-201.24 1117.72,-195.23"/>
</a>
</g>
</g>
<!-- Node30&#45;&gt;Node27 -->
<g id="edge36_Node000030_Node000027" class="edge">
<title>Node30&#45;&gt;Node27</title>
<g id="a_edge36_Node000030_Node000027"><a xlink:title=" ">
<path fill="none" stroke="#63b8ff" d="M1136.67,-206.84C1201.69,-198.35 1333.97,-180.53 1445.5,-162 1450.14,-161.23 1454.94,-160.4 1459.77,-159.54"/>
<polygon fill="#63b8ff" stroke="#63b8ff" points="1135.91,-203.41 1126.45,-208.17 1136.82,-210.35 1135.91,-203.41"/>
</a>
</g>
</g>
<!-- Node30&#45;&gt;Node28 -->
<g id="edge37_Node000030_Node000028" class="edge">
<title>Node30&#45;&gt;Node28</title>
<g id="a_edge37_Node000030_Node000028"><a xlink:title=" ">
<path fill="none" stroke="#63b8ff" d="M1136.15,-209.51C1220.02,-203.91 1421.42,-188.68 1588.5,-162 1591.42,-161.53 1594.41,-161.02 1597.42,-160.47"/>
<polygon fill="#63b8ff" stroke="#63b8ff" points="1135.79,-206.03 1126.04,-210.18 1136.25,-213.01 1135.79,-206.03"/>
</a>
</g>
</g>
<!-- Node31 -->
<g id="Node000031" class="node">
<title>Node31</title>
<g id="a_Node000031"><a xlink:href="ro__file__impl_8h_source.html" target="_top" xlink:title=" ">
<polygon fill="white" stroke="#666666" points="898,-162 793,-162 793,-132 898,-132 898,-162"/>
<text text-anchor="start" x="801" y="-150" font-family="Helvetica,sans-Serif" font-size="10.00">l4/l4re_vfs/impl/ro</text>
<text text-anchor="middle" x="845.5" y="-139" font-family="Helvetica,sans-Serif" font-size="10.00">_file_impl.h</text>
</a>
</g>
</g>
<!-- Node30&#45;&gt;Node31 -->
<g id="edge35_Node000030_Node000031" class="edge">
<title>Node30&#45;&gt;Node31</title>
<g id="a_edge35_Node000030_Node000031"><a xlink:title=" ">
<path fill="none" stroke="#63b8ff" d="M1056.96,-201.92C1014.2,-191.01 945.82,-173.58 898.45,-161.5"/>
<polygon fill="#63b8ff" stroke="#63b8ff" points="1056.17,-205.33 1066.72,-204.41 1057.9,-198.54 1056.17,-205.33"/>
</a>
</g>
</g>
<!-- Node32 -->
<g id="Node000032" class="node">
<title>Node32</title>
<g id="a_Node000032"><a xlink:href="env__ns_source.html" target="_top" xlink:title=" ">
<polygon fill="white" stroke="#666666" points="1403,-156.5 1308,-156.5 1308,-137.5 1403,-137.5 1403,-156.5"/>
<text text-anchor="middle" x="1355.5" y="-144.5" font-family="Helvetica,sans-Serif" font-size="10.00">l4/re/util/env_ns</text>
</a>
</g>
</g>
<!-- Node30&#45;&gt;Node32 -->
<g id="edge42_Node000030_Node000032" class="edge">
<title>Node30&#45;&gt;Node32</title>
<g id="a_edge42_Node000030_Node000032"><a xlink:title=" ">
<path fill="none" stroke="#63b8ff" d="M1136.1,-202.22C1186.52,-189.76 1272.84,-168.43 1320.8,-156.57"/>
<polygon fill="#63b8ff" stroke="#63b8ff" points="1135.08,-198.86 1126.21,-204.66 1136.76,-205.66 1135.08,-198.86"/>
</a>
</g>
</g>
<!-- Node34 -->
<g id="Node000034" class="node">
<title>Node34</title>
<g id="a_Node000034"><a xlink:href="goos__fb_source.html" target="_top" xlink:title=" ">
<polygon fill="white" stroke="#666666" points="1259.5,-90.5 1131.5,-90.5 1131.5,-71.5 1259.5,-71.5 1259.5,-90.5"/>
<text text-anchor="middle" x="1195.5" y="-78.5" font-family="Helvetica,sans-Serif" font-size="10.00">l4/re/util/video/goos_fb</text>
</a>
</g>
</g>
<!-- Node30&#45;&gt;Node34 -->
<g id="edge53_Node000030_Node000034" class="edge">
<title>Node30&#45;&gt;Node34</title>
<g id="a_edge53_Node000030_Node000034"><a xlink:title=" ">
<path fill="none" stroke="#63b8ff" d="M1136.46,-212.32C1175.21,-210.23 1232.16,-200.26 1260.5,-162 1280.31,-135.25 1237.02,-105.14 1211.87,-90.67"/>
<polygon fill="#63b8ff" stroke="#63b8ff" points="1135.91,-208.84 1126.05,-212.72 1136.18,-215.84 1135.91,-208.84"/>
</a>
</g>
</g>
<!-- Node35 -->
<g id="Node000035" class="node">
<title>Node35</title>
<g id="a_Node000035"><a xlink:href="kumem__alloc.html" target="_top" xlink:title="Kumem allocator helper.">
<polygon fill="white" stroke="#666666" points="1041,-156.5 916,-156.5 916,-137.5 1041,-137.5 1041,-156.5"/>
<text text-anchor="middle" x="978.5" y="-144.5" font-family="Helvetica,sans-Serif" font-size="10.00">l4/re/util/kumem_alloc</text>
</a>
</g>
</g>
<!-- Node30&#45;&gt;Node35 -->
<g id="edge48_Node000030_Node000035" class="edge">
<title>Node30&#45;&gt;Node35</title>
<g id="a_edge48_Node000030_Node000035"><a xlink:title=" ">
<path fill="none" stroke="#63b8ff" d="M1071.66,-198.53C1048.42,-185.92 1014.39,-167.47 994.54,-156.7"/>
<polygon fill="#63b8ff" stroke="#63b8ff" points="1070.13,-201.68 1080.59,-203.37 1073.46,-195.52 1070.13,-201.68"/>
</a>
</g>
</g>
<!-- Node36 -->
<g id="Node000036" class="node">
<title>Node36</title>
<g id="a_Node000036"><a xlink:href="object__registry_source.html" target="_top" xlink:title=" ">
<polygon fill="white" stroke="#666666" points="775,-156.5 642,-156.5 642,-137.5 775,-137.5 775,-156.5"/>
<text text-anchor="middle" x="708.5" y="-144.5" font-family="Helvetica,sans-Serif" font-size="10.00">l4/re/util/object_registry</text>
</a>
</g>
</g>
<!-- Node30&#45;&gt;Node36 -->
<g id="edge49_Node000030_Node000036" class="edge">
<title>Node30&#45;&gt;Node36</title>
<g id="a_edge49_Node000030_Node000036"><a xlink:title=" ">
<path fill="none" stroke="#63b8ff" d="M1056.57,-205.96C997.03,-196.88 881.45,-178.96 783.5,-162 773.71,-160.3 763.22,-158.4 753.28,-156.56"/>
<polygon fill="#63b8ff" stroke="#63b8ff" points="1056.27,-209.46 1066.68,-207.5 1057.32,-202.54 1056.27,-209.46"/>
</a>
</g>
</g>
<!-- Node37 -->
<g id="Node000037" class="node">
<title>Node37</title>
<g id="a_Node000037"><a xlink:href="vcpu.html" target="_top" xlink:title="vCPU support library (C++ interface).">
<polygon fill="white" stroke="#666666" points="1137.5,-156.5 1059.5,-156.5 1059.5,-137.5 1137.5,-137.5 1137.5,-156.5"/>
<text text-anchor="middle" x="1098.5" y="-144.5" font-family="Helvetica,sans-Serif" font-size="10.00">l4/vcpu/vcpu</text>
</a>
</g>
</g>
<!-- Node30&#45;&gt;Node37 -->
<g id="edge54_Node000030_Node000037" class="edge">
<title>Node30&#45;&gt;Node37</title>
<g id="a_edge54_Node000030_Node000037"><a xlink:title=" ">
<path fill="none" stroke="#63b8ff" d="M1097.09,-193.08C1097.46,-181.13 1097.93,-166.22 1098.22,-156.91"/>
<polygon fill="#63b8ff" stroke="#63b8ff" points="1093.58,-193.26 1096.77,-203.37 1100.58,-193.48 1093.58,-193.26"/>
</a>
</g>
</g>
<!-- Node33 -->
<g id="Node000033" class="node">
<title>Node33</title>
<g id="a_Node000033"><a xlink:href="ns__fs__impl_8h_source.html" target="_top" xlink:title=" ">
<polygon fill="white" stroke="#666666" points="1403,-96 1296,-96 1296,-66 1403,-66 1403,-96"/>
<text text-anchor="start" x="1304" y="-84" font-family="Helvetica,sans-Serif" font-size="10.00">l4/l4re_vfs/impl/ns</text>
<text text-anchor="middle" x="1349.5" y="-73" font-family="Helvetica,sans-Serif" font-size="10.00">_fs_impl.h</text>
</a>
</g>
</g>
<!-- Node32&#45;&gt;Node33 -->
<g id="edge43_Node000032_Node000033" class="edge">
<title>Node32&#45;&gt;Node33</title>
<g id="a_edge43_Node000032_Node000033"><a xlink:title=" ">
<path fill="none" stroke="#63b8ff" d="M1353.75,-127.35C1352.82,-117.47 1351.7,-105.51 1350.85,-96.36"/>
<polygon fill="#63b8ff" stroke="#63b8ff" points="1350.27,-127.74 1354.69,-137.37 1357.24,-127.09 1350.27,-127.74"/>
</a>
</g>
</g>
<!-- Node32&#45;&gt;Node34 -->
<g id="edge44_Node000032_Node000034" class="edge">
<title>Node32&#45;&gt;Node34</title>
<g id="a_edge44_Node000032_Node000034"><a xlink:title=" ">
<path fill="none" stroke="#63b8ff" d="M1324.28,-133.51C1292.65,-120.86 1244.58,-101.63 1216.99,-90.6"/>
<polygon fill="#63b8ff" stroke="#63b8ff" points="1323.34,-136.9 1333.92,-137.37 1325.94,-130.41 1323.34,-136.9"/>
</a>
</g>
</g>
<!-- Node34&#45;&gt;Node34 -->
<g id="edge45_Node000034_Node000034" class="edge">
<title>Node34&#45;&gt;Node34</title>
<g id="a_edge45_Node000034_Node000034"><a xlink:title=" ">
<path fill="none" stroke="#63b8ff" d="M1231.17,-92.32C1254.69,-95.43 1277.5,-91.66 1277.5,-81 1277.5,-68.82 1247.7,-65.63 1221.11,-71.44"/>
<polygon fill="#63b8ff" stroke="#63b8ff" points="1231.56,-88.84 1221.11,-90.56 1230.36,-95.73 1231.56,-88.84"/>
</a>
</g>
</g>
<!-- Node36&#45;&gt;Node4 -->
<g id="edge50_Node000036_Node000004" class="edge">
<title>Node36&#45;&gt;Node4</title>
<g id="a_edge50_Node000036_Node000004"><a xlink:title=" ">
<path fill="none" stroke="#63b8ff" d="M701.18,-127.98C697.12,-117.98 692.13,-105.71 688.33,-96.36"/>
<polygon fill="#63b8ff" stroke="#63b8ff" points="697.99,-129.42 704.99,-137.37 704.47,-126.79 697.99,-129.42"/>
</a>
</g>
</g>
<!-- Node36&#45;&gt;Node5 -->
<g id="edge51_Node000036_Node000005" class="edge">
<title>Node36&#45;&gt;Node5</title>
<g id="a_edge51_Node000036_Node000005"><a xlink:title=" ">
<path fill="none" stroke="#63b8ff" d="M720.28,-128.5C726.13,-119.18 732.91,-107.32 737.5,-96 746.49,-73.84 752.26,-46.55 755.19,-30.25"/>
<polygon fill="#63b8ff" stroke="#63b8ff" points="717.16,-126.88 714.65,-137.18 723.03,-130.7 717.16,-126.88"/>
</a>
</g>
</g>
<!-- Node36&#45;&gt;Node11 -->
<g id="edge52_Node000036_Node000011" class="edge">
<title>Node36&#45;&gt;Node11</title>
<g id="a_edge52_Node000036_Node000011"><a xlink:title=" ">
<path fill="none" stroke="#63b8ff" d="M655.43,-135.5C605.57,-125.57 528.9,-110.12 462.5,-96 459.65,-95.39 456.73,-94.77 453.78,-94.13"/>
<polygon fill="#63b8ff" stroke="#63b8ff" points="654.86,-138.96 665.35,-137.48 656.22,-132.09 654.86,-138.96"/>
</a>
</g>
</g>
<!-- Node39&#45;&gt;Node4 -->
<g id="edge59_Node000039_Node000004" class="edge">
<title>Node39&#45;&gt;Node4</title>
<g id="a_edge59_Node000039_Node000004"><a xlink:title=" ">
<path fill="none" stroke="#63b8ff" d="M1674.1,-256.61C1701.81,-228.24 1751.2,-168.42 1716.5,-132 1699.23,-113.88 928.31,-89.41 729.09,-83.38"/>
<polygon fill="#63b8ff" stroke="#63b8ff" points="1671.56,-254.2 1666.95,-263.74 1676.5,-259.16 1671.56,-254.2"/>
</a>
</g>
</g>
<!-- Node39&#45;&gt;Node5 -->
<g id="edge60_Node000039_Node000005" class="edge">
<title>Node39&#45;&gt;Node5</title>
<g id="a_edge60_Node000039_Node000005"><a xlink:title=" ">
<path fill="none" stroke="#63b8ff" d="M1685.97,-258.99C1698.7,-251.56 1712.77,-241.15 1721.5,-228 1745.35,-192.08 1762.52,-165.61 1735.5,-132 1676.31,-58.37 990.46,-25.42 804.02,-17.78"/>
<polygon fill="#63b8ff" stroke="#63b8ff" points="1684.14,-256.01 1677.04,-263.88 1687.49,-262.15 1684.14,-256.01"/>
</a>
</g>
</g>
<!-- Node39&#45;&gt;Node26 -->
<g id="edge58_Node000039_Node000026" class="edge">
<title>Node39&#45;&gt;Node26</title>
<g id="a_edge58_Node000039_Node000026"><a xlink:title=" ">
<path fill="none" stroke="#63b8ff" d="M1638.53,-257.5C1627.08,-248.45 1612.59,-237 1601.35,-228.11"/>
<polygon fill="#63b8ff" stroke="#63b8ff" points="1636.57,-260.41 1646.58,-263.87 1640.91,-254.92 1636.57,-260.41"/>
</a>
</g>
</g>
</g>
</svg>
