<?xml version="1.0" encoding="UTF-8" standalone="no"?>
<!DOCTYPE svg PUBLIC "-//W3C//DTD SVG 1.1//EN"
 "http://www.w3.org/Graphics/SVG/1.1/DTD/svg11.dtd">
<!-- Generated by graphviz version 2.43.0 (0)
 -->
<!-- Title: Graphical Class Hierarchy Pages: 1 -->
<svg width="288pt" height="532pt"
 viewBox="0.00 0.00 288.00 532.00" xmlns="http://www.w3.org/2000/svg" xmlns:xlink="http://www.w3.org/1999/xlink">
<g id="graph0" class="graph" transform="scale(1 1) rotate(0) translate(4 528)">
<title>Graphical Class Hierarchy</title>
<!-- Node0 -->
<g id="Node000000" class="node">
<title>Node0</title>
<g id="a_Node000000"><a xlink:href="classL4_1_1Cap__base.html" target="_top" xlink:title="Base class for all kinds of capabilities.">
<polygon fill="white" stroke="#666666" points="81,-283 0,-283 0,-264 81,-264 81,-283"/>
<text text-anchor="middle" x="40.5" y="-271" font-family="Helvetica,sans-Serif" font-size="10.00">L4::Cap_base</text>
</a>
</g>
</g>
<!-- Node1 -->
<g id="Node000001" class="node">
<title>Node1</title>
<g id="a_Node000001"><a xlink:href="classL4_1_1Cap.html" target="_top" xlink:title=" ">
<polygon fill="white" stroke="#666666" points="246.5,-524 150.5,-524 150.5,-505 246.5,-505 246.5,-524"/>
<text text-anchor="middle" x="198.5" y="-512" font-family="Helvetica,sans-Serif" font-size="10.00">L4::Cap&lt; void &gt;</text>
</a>
</g>
</g>
<!-- Node0&#45;&gt;Node1 -->
<g id="edge35_Node000000_Node000001" class="edge">
<title>Node0&#45;&gt;Node1</title>
<g id="a_edge35_Node000000_Node000001"><a xlink:title=" ">
<path fill="none" stroke="#63b8ff" d="M42.06,-293.52C44.42,-337.33 56.45,-442.07 117,-496.5 126.16,-504.73 138.25,-509.47 150.27,-512.12"/>
<polygon fill="#63b8ff" stroke="#63b8ff" points="45.55,-293.17 41.63,-283.32 38.55,-293.46 45.55,-293.17"/>
</a>
</g>
</g>
<!-- Node2 -->
<g id="Node000002" class="node">
<title>Node2</title>
<g id="a_Node000002"><a xlink:href="classL4_1_1Cap.html" target="_top" xlink:title=" ">
<polygon fill="white" stroke="#666666" points="280,-487 117,-487 117,-468 280,-468 280,-487"/>
<text text-anchor="middle" x="198.5" y="-475" font-family="Helvetica,sans-Serif" font-size="10.00">L4::Cap&lt; L4Re::Namespace &gt;</text>
</a>
</g>
</g>
<!-- Node0&#45;&gt;Node2 -->
<g id="edge36_Node000000_Node000002" class="edge">
<title>Node0&#45;&gt;Node2</title>
<g id="a_edge36_Node000000_Node000002"><a xlink:title=" ">
<path fill="none" stroke="#63b8ff" d="M43.64,-293.83C48.82,-332.36 65.66,-416.03 117,-459.5 120.93,-462.83 125.35,-465.58 130.05,-467.85"/>
<polygon fill="#63b8ff" stroke="#63b8ff" points="47.05,-292.93 42.38,-283.42 40.1,-293.77 47.05,-292.93"/>
</a>
</g>
</g>
<!-- Node3 -->
<g id="Node000003" class="node">
<title>Node3</title>
<g id="a_Node000003"><a xlink:href="classL4_1_1Cap.html" target="_top" xlink:title=" ">
<polygon fill="white" stroke="#666666" points="277,-450 120,-450 120,-431 277,-431 277,-450"/>
<text text-anchor="middle" x="198.5" y="-438" font-family="Helvetica,sans-Serif" font-size="10.00">L4::Cap&lt; L4Re::Dataspace &gt;</text>
</a>
</g>
</g>
<!-- Node0&#45;&gt;Node3 -->
<g id="edge37_Node000000_Node000003" class="edge">
<title>Node0&#45;&gt;Node3</title>
<g id="a_edge37_Node000000_Node000003"><a xlink:title=" ">
<path fill="none" stroke="#63b8ff" d="M45.79,-293.37C53.84,-325.69 74.4,-389.38 117,-422.5 121.3,-425.84 126.09,-428.59 131.14,-430.84"/>
<polygon fill="#63b8ff" stroke="#63b8ff" points="49.13,-292.29 43.45,-283.35 42.31,-293.88 49.13,-292.29"/>
</a>
</g>
</g>
<!-- Node4 -->
<g id="Node000004" class="node">
<title>Node4</title>
<g id="a_Node000004"><a xlink:href="classL4_1_1Cap.html" target="_top" xlink:title=" ">
<polygon fill="white" stroke="#666666" points="256.5,-413 140.5,-413 140.5,-394 256.5,-394 256.5,-413"/>
<text text-anchor="middle" x="198.5" y="-401" font-family="Helvetica,sans-Serif" font-size="10.00">L4::Cap&lt; L4::Vcon &gt;</text>
</a>
</g>
</g>
<!-- Node0&#45;&gt;Node4 -->
<g id="edge38_Node000000_Node000004" class="edge">
<title>Node0&#45;&gt;Node4</title>
<g id="a_edge38_Node000000_Node000004"><a xlink:title=" ">
<path fill="none" stroke="#63b8ff" d="M48.9,-292.38C59.84,-317.69 82.78,-362.15 117,-385.5 123.98,-390.26 132.02,-393.79 140.26,-396.39"/>
<polygon fill="#63b8ff" stroke="#63b8ff" points="52.12,-291.01 45.07,-283.11 45.66,-293.69 52.12,-291.01"/>
</a>
</g>
</g>
<!-- Node5 -->
<g id="Node000005" class="node">
<title>Node5</title>
<g id="a_Node000005"><a xlink:href="classL4_1_1Cap.html" target="_top" xlink:title=" ">
<polygon fill="white" stroke="#666666" points="272.5,-376 124.5,-376 124.5,-357 272.5,-357 272.5,-376"/>
<text text-anchor="middle" x="198.5" y="-364" font-family="Helvetica,sans-Serif" font-size="10.00">L4::Cap&lt; L4::Semaphore &gt;</text>
</a>
</g>
</g>
<!-- Node0&#45;&gt;Node5 -->
<g id="edge39_Node000000_Node000005" class="edge">
<title>Node0&#45;&gt;Node5</title>
<g id="a_edge39_Node000000_Node000005"><a xlink:title=" ">
<path fill="none" stroke="#63b8ff" d="M54.43,-291.21C68.04,-308.52 91.06,-334.29 117,-348.5 123.28,-351.94 130.18,-354.72 137.21,-356.97"/>
<polygon fill="#63b8ff" stroke="#63b8ff" points="57.04,-288.87 48.2,-283.03 51.47,-293.11 57.04,-288.87"/>
</a>
</g>
</g>
<!-- Node6 -->
<g id="Node000006" class="node">
<title>Node6</title>
<g id="a_Node000006"><a xlink:href="classL4_1_1Cap.html" target="_top" xlink:title=" ">
<polygon fill="white" stroke="#666666" points="259.5,-339 137.5,-339 137.5,-320 259.5,-320 259.5,-339"/>
<text text-anchor="middle" x="198.5" y="-327" font-family="Helvetica,sans-Serif" font-size="10.00">L4::Cap&lt; L4Re::Rm &gt;</text>
</a>
</g>
</g>
<!-- Node0&#45;&gt;Node6 -->
<g id="edge40_Node000000_Node000006" class="edge">
<title>Node0&#45;&gt;Node6</title>
<g id="a_edge40_Node000000_Node000006"><a xlink:title=" ">
<path fill="none" stroke="#63b8ff" d="M66.27,-287.92C80.69,-295.81 99.43,-305.22 117,-311.5 126.17,-314.78 136.15,-317.58 145.86,-319.94"/>
<polygon fill="#63b8ff" stroke="#63b8ff" points="67.92,-284.83 57.48,-283 64.5,-290.94 67.92,-284.83"/>
</a>
</g>
</g>
<!-- Node7 -->
<g id="Node000007" class="node">
<title>Node7</title>
<g id="a_Node000007"><a xlink:href="classL4_1_1Cap.html" target="_top" xlink:title=" ">
<polygon fill="white" stroke="#666666" points="251,-302 146,-302 146,-283 251,-283 251,-302"/>
<text text-anchor="middle" x="198.5" y="-290" font-family="Helvetica,sans-Serif" font-size="10.00">L4::Cap&lt; L4::Irq &gt;</text>
</a>
</g>
</g>
<!-- Node0&#45;&gt;Node7 -->
<g id="edge41_Node000000_Node000007" class="edge">
<title>Node0&#45;&gt;Node7</title>
<g id="a_edge41_Node000000_Node000007"><a xlink:title=" ">
<path fill="none" stroke="#63b8ff" d="M91.22,-279.56C108.61,-281.67 128.17,-284.06 145.72,-286.19"/>
<polygon fill="#63b8ff" stroke="#63b8ff" points="91.62,-276.08 81.27,-278.34 90.77,-283.03 91.62,-276.08"/>
</a>
</g>
</g>
<!-- Node8 -->
<g id="Node000008" class="node">
<title>Node8</title>
<g id="a_Node000008"><a xlink:href="classL4_1_1Cap.html" target="_top" xlink:title=" ">
<polygon fill="white" stroke="#666666" points="261.5,-265 135.5,-265 135.5,-246 261.5,-246 261.5,-265"/>
<text text-anchor="middle" x="198.5" y="-253" font-family="Helvetica,sans-Serif" font-size="10.00">L4::Cap&lt; L4::Thread &gt;</text>
</a>
</g>
</g>
<!-- Node0&#45;&gt;Node8 -->
<g id="edge42_Node000000_Node000008" class="edge">
<title>Node0&#45;&gt;Node8</title>
<g id="a_edge42_Node000000_Node000008"><a xlink:title=" ">
<path fill="none" stroke="#63b8ff" d="M91.21,-267.76C105.24,-266.14 120.69,-264.36 135.36,-262.67"/>
<polygon fill="#63b8ff" stroke="#63b8ff" points="90.8,-264.29 81.27,-268.91 91.6,-271.24 90.8,-264.29"/>
</a>
</g>
</g>
<!-- Node9 -->
<g id="Node000009" class="node">
<title>Node9</title>
<g id="a_Node000009"><a xlink:href="classL4_1_1Cap.html" target="_top" xlink:title=" ">
<polygon fill="white" stroke="#666666" points="262.5,-228 134.5,-228 134.5,-209 262.5,-209 262.5,-228"/>
<text text-anchor="middle" x="198.5" y="-216" font-family="Helvetica,sans-Serif" font-size="10.00">L4::Cap&lt; L4::Factory &gt;</text>
</a>
</g>
</g>
<!-- Node0&#45;&gt;Node9 -->
<g id="edge43_Node000000_Node000009" class="edge">
<title>Node0&#45;&gt;Node9</title>
<g id="a_edge43_Node000000_Node000009"><a xlink:title=" ">
<path fill="none" stroke="#63b8ff" d="M67.93,-259.19C82.16,-251.93 100.19,-243.41 117,-237.5 127.29,-233.88 138.57,-230.73 149.34,-228.1"/>
<polygon fill="#63b8ff" stroke="#63b8ff" points="66,-256.25 58.75,-263.97 69.23,-262.46 66,-256.25"/>
</a>
</g>
</g>
<!-- Node10 -->
<g id="Node000010" class="node">
<title>Node10</title>
<g id="a_Node000010"><a xlink:href="classL4_1_1Cap.html" target="_top" xlink:title=" ">
<polygon fill="white" stroke="#666666" points="259.5,-190.5 137.5,-190.5 137.5,-160.5 259.5,-160.5 259.5,-190.5"/>
<text text-anchor="start" x="145.5" y="-178.5" font-family="Helvetica,sans-Serif" font-size="10.00">L4::Cap&lt; L4Re::Video</text>
<text text-anchor="middle" x="198.5" y="-167.5" font-family="Helvetica,sans-Serif" font-size="10.00">::Goos &gt;</text>
</a>
</g>
</g>
<!-- Node0&#45;&gt;Node10 -->
<g id="edge44_Node000000_Node000010" class="edge">
<title>Node0&#45;&gt;Node10</title>
<g id="a_edge44_Node000000_Node000010"><a xlink:title=" ">
<path fill="none" stroke="#63b8ff" d="M55.22,-256.17C69.15,-239.67 92.15,-215.22 117,-200.5 123.42,-196.7 130.48,-193.42 137.66,-190.6"/>
<polygon fill="#63b8ff" stroke="#63b8ff" points="52.45,-254.04 48.8,-263.99 57.86,-258.48 52.45,-254.04"/>
</a>
</g>
</g>
<!-- Node11 -->
<g id="Node000011" class="node">
<title>Node11</title>
<g id="a_Node000011"><a xlink:href="classL4_1_1Cap.html" target="_top" xlink:title=" ">
<polygon fill="white" stroke="#666666" points="268.5,-142 128.5,-142 128.5,-123 268.5,-123 268.5,-142"/>
<text text-anchor="middle" x="198.5" y="-130" font-family="Helvetica,sans-Serif" font-size="10.00">L4::Cap&lt; L4vbus::Vbus &gt;</text>
</a>
</g>
</g>
<!-- Node0&#45;&gt;Node11 -->
<g id="edge45_Node000000_Node000011" class="edge">
<title>Node0&#45;&gt;Node11</title>
<g id="a_edge45_Node000000_Node000011"><a xlink:title=" ">
<path fill="none" stroke="#63b8ff" d="M48.03,-254.2C58.27,-226.94 80.78,-177.59 117,-151.5 122.36,-147.64 128.39,-144.55 134.68,-142.09"/>
<polygon fill="#63b8ff" stroke="#63b8ff" points="44.67,-253.18 44.59,-263.78 51.26,-255.55 44.67,-253.18"/>
</a>
</g>
</g>
<!-- Node12 -->
<g id="Node000012" class="node">
<title>Node12</title>
<g id="a_Node000012"><a xlink:href="classL4_1_1Cap.html" target="_top" xlink:title=" ">
<polygon fill="white" stroke="#666666" points="252,-104.5 145,-104.5 145,-74.5 252,-74.5 252,-104.5"/>
<text text-anchor="start" x="153" y="-92.5" font-family="Helvetica,sans-Serif" font-size="10.00">L4::Cap&lt; L4virtio::</text>
<text text-anchor="middle" x="198.5" y="-81.5" font-family="Helvetica,sans-Serif" font-size="10.00">Device &gt;</text>
</a>
</g>
</g>
<!-- Node0&#45;&gt;Node12 -->
<g id="edge46_Node000000_Node000012" class="edge">
<title>Node0&#45;&gt;Node12</title>
<g id="a_edge46_Node000000_Node000012"><a xlink:title=" ">
<path fill="none" stroke="#63b8ff" d="M45.49,-253.65C53.27,-220.08 73.65,-152.09 117,-114.5 124.96,-107.6 134.81,-102.6 144.86,-98.98"/>
<polygon fill="#63b8ff" stroke="#63b8ff" points="42.03,-253.1 43.32,-263.62 48.87,-254.59 42.03,-253.1"/>
</a>
</g>
</g>
<!-- Node13 -->
<g id="Node000013" class="node">
<title>Node13</title>
<g id="a_Node000013"><a xlink:href="classL4_1_1Cap.html" target="_top" xlink:title="C++ interface for capabilities.">
<polygon fill="white" stroke="#666666" points="239,-56 158,-56 158,-37 239,-37 239,-56"/>
<text text-anchor="middle" x="198.5" y="-44" font-family="Helvetica,sans-Serif" font-size="10.00">L4::Cap&lt; T &gt;</text>
</a>
</g>
</g>
<!-- Node0&#45;&gt;Node13 -->
<g id="edge47_Node000000_Node000013" class="edge">
<title>Node0&#45;&gt;Node13</title>
<g id="a_edge47_Node000000_Node000013"><a xlink:title=" ">
<path fill="none" stroke="#63b8ff" d="M42.65,-253.74C46.17,-212.29 60.34,-115.92 117,-65.5 128.16,-55.57 143.53,-50.57 157.86,-48.14"/>
<polygon fill="#63b8ff" stroke="#63b8ff" points="39.15,-253.67 41.91,-263.89 46.13,-254.17 39.15,-253.67"/>
</a>
</g>
</g>
<!-- Node14 -->
<g id="Node000014" class="node">
<title>Node14</title>
<g id="a_Node000014"><a xlink:href="classL4_1_1Smart__cap.html" target="_top" xlink:title="Smart capability class.">
<polygon fill="white" stroke="#666666" points="275.5,-19 121.5,-19 121.5,0 275.5,0 275.5,-19"/>
<text text-anchor="middle" x="198.5" y="-7" font-family="Helvetica,sans-Serif" font-size="10.00">L4::Smart_cap&lt; T, SMART &gt;</text>
</a>
</g>
</g>
<!-- Node0&#45;&gt;Node14 -->
<g id="edge48_Node000000_Node000014" class="edge">
<title>Node0&#45;&gt;Node14</title>
<g id="a_edge48_Node000000_Node000014"><a xlink:title=" ">
<path fill="none" stroke="#63b8ff" d="M41.4,-253.52C42.3,-206.82 51.36,-89.87 117,-28.5 121.09,-24.68 125.8,-21.57 130.85,-19.07"/>
<polygon fill="#63b8ff" stroke="#63b8ff" points="37.89,-253.77 41.31,-263.8 44.89,-253.83 37.89,-253.77"/>
</a>
</g>
</g>
</g>
</svg>
