<?xml version="1.0" encoding="UTF-8" standalone="no"?>
<!DOCTYPE svg PUBLIC "-//W3C//DTD SVG 1.1//EN"
 "http://www.w3.org/Graphics/SVG/1.1/DTD/svg11.dtd">
<!-- Generated by graphviz version 2.42.4 (0)
 -->
<!-- Title: Graphical Class Hierarchy Pages: 1 -->
<svg width="520pt" height="264pt"
 viewBox="0.00 0.00 520.00 264.00" xmlns="http://www.w3.org/2000/svg" xmlns:xlink="http://www.w3.org/1999/xlink">
<g id="graph0" class="graph" transform="scale(1 1) rotate(0) translate(4 260)">
<title>Graphical Class Hierarchy</title>
<!-- Node0 -->
<g id="Node000000" class="node">
<title>Node0</title>
<g id="a_Node000000"><a xlink:href="structL4_1_1Typeid_1_1Detail_1_1Rpcs__end.html" target="_top" xlink:title="Internal end&#45;of&#45;list marker.">
<polygon fill="white" stroke="#666666" points="101,-143 0,-143 0,-113 101,-113 101,-143"/>
<text text-anchor="start" x="8" y="-131" font-family="Helvetica,sans-Serif" font-size="10.00">L4::Typeid::Detail</text>
<text text-anchor="middle" x="50.5" y="-120" font-family="Helvetica,sans-Serif" font-size="10.00">::Rpcs_end</text>
</a>
</g>
</g>
<!-- Node1 -->
<g id="Node000001" class="node">
<title>Node1</title>
<g id="a_Node000001"><a xlink:href="structL4_1_1Typeid_1_1Detail_1_1__Rpcs.html" target="_top" xlink:title=" ">
<polygon fill="white" stroke="#666666" points="306,-256 137,-256 137,-226 306,-226 306,-256"/>
<text text-anchor="start" x="145" y="-244" font-family="Helvetica,sans-Serif" font-size="10.00">L4::Typeid::Detail</text>
<text text-anchor="middle" x="221.5" y="-233" font-family="Helvetica,sans-Serif" font-size="10.00">::_Rpcs&lt; void, 0, OPERATION &gt;</text>
</a>
</g>
</g>
<!-- Node0&#45;&gt;Node1 -->
<g id="edge168_Node000000_Node000001" class="edge">
<title>Node0&#45;&gt;Node1</title>
<g id="a_edge168_Node000000_Node000001"><a xlink:title=" ">
<path fill="none" stroke="#63b8ff" d="M68.21,-151.36C83.83,-171.54 108.9,-200.06 137,-217 142.68,-220.43 148.88,-223.39 155.24,-225.93"/>
<polygon fill="#63b8ff" stroke="#63b8ff" points="70.93,-149.15 62.12,-143.28 65.35,-153.37 70.93,-149.15"/>
</a>
</g>
</g>
<!-- Node3 -->
<g id="Node000003" class="node">
<title>Node3</title>
<g id="a_Node000003"><a xlink:href="structL4_1_1Typeid_1_1Detail_1_1__Rpcs.html" target="_top" xlink:title=" ">
<polygon fill="white" stroke="#666666" points="281,-207.5 162,-207.5 162,-166.5 281,-166.5 281,-207.5"/>
<text text-anchor="start" x="170" y="-195.5" font-family="Helvetica,sans-Serif" font-size="10.00">L4::Typeid::Detail</text>
<text text-anchor="start" x="170" y="-184.5" font-family="Helvetica,sans-Serif" font-size="10.00">::_Rpcs&lt; L4::Opcode,</text>
<text text-anchor="middle" x="221.5" y="-173.5" font-family="Helvetica,sans-Serif" font-size="10.00"> 0, RPCS... &gt;</text>
</a>
</g>
</g>
<!-- Node0&#45;&gt;Node3 -->
<g id="edge170_Node000000_Node000003" class="edge">
<title>Node0&#45;&gt;Node3</title>
<g id="a_edge170_Node000000_Node000003"><a xlink:title=" ">
<path fill="none" stroke="#63b8ff" d="M104.3,-146.56C115.12,-150.35 126.42,-154.31 137,-158 144.97,-160.78 153.37,-163.71 161.64,-166.59"/>
<polygon fill="#63b8ff" stroke="#63b8ff" points="105.14,-143.14 94.55,-143.13 102.83,-149.75 105.14,-143.14"/>
</a>
</g>
</g>
<!-- Node5 -->
<g id="Node000005" class="node">
<title>Node5</title>
<g id="a_Node000005"><a xlink:href="structL4_1_1Typeid_1_1Detail_1_1__Rpcs.html" target="_top" xlink:title=" ">
<polygon fill="white" stroke="#666666" points="289.5,-148.5 153.5,-148.5 153.5,-107.5 289.5,-107.5 289.5,-148.5"/>
<text text-anchor="start" x="161.5" y="-136.5" font-family="Helvetica,sans-Serif" font-size="10.00">L4::Typeid::Detail</text>
<text text-anchor="start" x="161.5" y="-125.5" font-family="Helvetica,sans-Serif" font-size="10.00">::_Rpcs&lt; OPCODE_TYPE,</text>
<text text-anchor="middle" x="221.5" y="-114.5" font-family="Helvetica,sans-Serif" font-size="10.00"> 0, RPCS... &gt;</text>
</a>
</g>
</g>
<!-- Node0&#45;&gt;Node5 -->
<g id="edge172_Node000000_Node000005" class="edge">
<title>Node0&#45;&gt;Node5</title>
<g id="a_edge172_Node000000_Node000005"><a xlink:title=" ">
<path fill="none" stroke="#63b8ff" d="M111.43,-128C124.96,-128 139.41,-128 153.21,-128"/>
<polygon fill="#63b8ff" stroke="#63b8ff" points="111.29,-124.5 101.29,-128 111.29,-131.5 111.29,-124.5"/>
</a>
</g>
</g>
<!-- Node7 -->
<g id="Node000007" class="node">
<title>Node7</title>
<g id="a_Node000007"><a xlink:href="structL4_1_1Typeid_1_1Detail_1_1__Rpcs.html" target="_top" xlink:title=" ">
<polygon fill="white" stroke="#666666" points="285.5,-89.5 157.5,-89.5 157.5,-48.5 285.5,-48.5 285.5,-89.5"/>
<text text-anchor="start" x="165.5" y="-77.5" font-family="Helvetica,sans-Serif" font-size="10.00">L4::Typeid::Detail</text>
<text text-anchor="start" x="165.5" y="-66.5" font-family="Helvetica,sans-Serif" font-size="10.00">::_Rpcs&lt; l4_umword_t,</text>
<text text-anchor="middle" x="221.5" y="-55.5" font-family="Helvetica,sans-Serif" font-size="10.00"> 0, ARG... &gt;</text>
</a>
</g>
</g>
<!-- Node0&#45;&gt;Node7 -->
<g id="edge174_Node000000_Node000007" class="edge">
<title>Node0&#45;&gt;Node7</title>
<g id="a_edge174_Node000000_Node000007"><a xlink:title=" ">
<path fill="none" stroke="#63b8ff" d="M104.3,-109.44C115.12,-105.65 126.42,-101.69 137,-98 144.82,-95.27 153.06,-92.4 161.19,-89.57"/>
<polygon fill="#63b8ff" stroke="#63b8ff" points="102.83,-106.25 94.55,-112.87 105.14,-112.86 102.83,-106.25"/>
</a>
</g>
</g>
<!-- Node9 -->
<g id="Node000009" class="node">
<title>Node9</title>
<g id="a_Node000009"><a xlink:href="structL4_1_1Typeid_1_1Detail_1_1__Rpcs.html" target="_top" xlink:title="Empty list of RPCs.">
<polygon fill="white" stroke="#666666" points="292,-30 151,-30 151,0 292,0 292,-30"/>
<text text-anchor="start" x="159" y="-18" font-family="Helvetica,sans-Serif" font-size="10.00">L4::Typeid::Detail</text>
<text text-anchor="middle" x="221.5" y="-7" font-family="Helvetica,sans-Serif" font-size="10.00">::_Rpcs&lt; OPCODE, O, X &gt;</text>
</a>
</g>
</g>
<!-- Node0&#45;&gt;Node9 -->
<g id="edge176_Node000000_Node000009" class="edge">
<title>Node0&#45;&gt;Node9</title>
<g id="a_edge176_Node000000_Node000009"><a xlink:title=" ">
<path fill="none" stroke="#63b8ff" d="M68.21,-104.64C83.83,-84.46 108.9,-55.94 137,-39 142.68,-35.57 148.88,-32.61 155.24,-30.07"/>
<polygon fill="#63b8ff" stroke="#63b8ff" points="65.35,-102.63 62.12,-112.72 70.93,-106.85 65.35,-102.63"/>
</a>
</g>
</g>
<!-- Node2 -->
<g id="Node000002" class="node">
<title>Node2</title>
<g id="a_Node000002"><a xlink:href="structL4_1_1Typeid_1_1Rpc__nocode.html" target="_top" xlink:title="List of RPCs of an interface using a single operation without an opcode.">
<polygon fill="white" stroke="#666666" points="492,-256 362,-256 362,-226 492,-226 492,-256"/>
<text text-anchor="start" x="370" y="-244" font-family="Helvetica,sans-Serif" font-size="10.00">L4::Typeid::Rpc_nocode</text>
<text text-anchor="middle" x="427" y="-233" font-family="Helvetica,sans-Serif" font-size="10.00">&lt; OPERATION &gt;</text>
</a>
</g>
</g>
<!-- Node1&#45;&gt;Node2 -->
<g id="edge169_Node000001_Node000002" class="edge">
<title>Node1&#45;&gt;Node2</title>
<g id="a_edge169_Node000001_Node000002"><a xlink:title=" ">
<path fill="none" stroke="#63b8ff" d="M316.26,-241C331.73,-241 347.44,-241 361.96,-241"/>
<polygon fill="#63b8ff" stroke="#63b8ff" points="316.15,-237.5 306.15,-241 316.15,-244.5 316.15,-237.5"/>
</a>
</g>
</g>
<!-- Node4 -->
<g id="Node000004" class="node">
<title>Node4</title>
<g id="a_Node000004"><a xlink:href="structL4_1_1Typeid_1_1Rpcs.html" target="_top" xlink:title="Standard list of RPCs of an interface.">
<polygon fill="white" stroke="#666666" points="498.5,-196.5 355.5,-196.5 355.5,-177.5 498.5,-177.5 498.5,-196.5"/>
<text text-anchor="middle" x="427" y="-184.5" font-family="Helvetica,sans-Serif" font-size="10.00">L4::Typeid::Rpcs&lt; RPCS &gt;</text>
</a>
</g>
</g>
<!-- Node3&#45;&gt;Node4 -->
<g id="edge171_Node000003_Node000004" class="edge">
<title>Node3&#45;&gt;Node4</title>
<g id="a_edge171_Node000003_Node000004"><a xlink:title=" ">
<path fill="none" stroke="#63b8ff" d="M291.33,-187C311.91,-187 334.5,-187 355.21,-187"/>
<polygon fill="#63b8ff" stroke="#63b8ff" points="291.09,-183.5 281.09,-187 291.09,-190.5 291.09,-183.5"/>
</a>
</g>
</g>
<!-- Node6 -->
<g id="Node000006" class="node">
<title>Node6</title>
<g id="a_Node000006"><a xlink:href="structL4_1_1Typeid_1_1Rpcs__code_1_1F.html" target="_top" xlink:title=" ">
<polygon fill="white" stroke="#666666" points="512,-143 342,-143 342,-113 512,-113 512,-143"/>
<text text-anchor="start" x="350" y="-131" font-family="Helvetica,sans-Serif" font-size="10.00">L4::Typeid::Rpcs_code</text>
<text text-anchor="middle" x="427" y="-120" font-family="Helvetica,sans-Serif" font-size="10.00">&lt; OPCODE_TYPE &gt;::F&lt; RPCS &gt;</text>
</a>
</g>
</g>
<!-- Node5&#45;&gt;Node6 -->
<g id="edge173_Node000005_Node000006" class="edge">
<title>Node5&#45;&gt;Node6</title>
<g id="a_edge173_Node000005_Node000006"><a xlink:title=" ">
<path fill="none" stroke="#63b8ff" d="M300.01,-128C313.68,-128 327.97,-128 341.81,-128"/>
<polygon fill="#63b8ff" stroke="#63b8ff" points="299.7,-124.5 289.7,-128 299.7,-131.5 299.7,-124.5"/>
</a>
</g>
</g>
<!-- Node8 -->
<g id="Node000008" class="node">
<title>Node8</title>
<g id="a_Node000008"><a xlink:href="structL4_1_1Typeid_1_1Rpcs__sys.html" target="_top" xlink:title="List of RPCs typically used for kernel interfaces.">
<polygon fill="white" stroke="#666666" points="485,-84 369,-84 369,-54 485,-54 485,-84"/>
<text text-anchor="start" x="377" y="-72" font-family="Helvetica,sans-Serif" font-size="10.00">L4::Typeid::Rpcs_sys</text>
<text text-anchor="middle" x="427" y="-61" font-family="Helvetica,sans-Serif" font-size="10.00">&lt; ARG &gt;</text>
</a>
</g>
</g>
<!-- Node7&#45;&gt;Node8 -->
<g id="edge175_Node000007_Node000008" class="edge">
<title>Node7&#45;&gt;Node8</title>
<g id="a_edge175_Node000007_Node000008"><a xlink:title=" ">
<path fill="none" stroke="#63b8ff" d="M295.92,-69C319.98,-69 346.33,-69 368.98,-69"/>
<polygon fill="#63b8ff" stroke="#63b8ff" points="295.77,-65.5 285.77,-69 295.77,-72.5 295.77,-65.5"/>
</a>
</g>
</g>
</g>
</svg>
