<?xml version="1.0" encoding="UTF-8" standalone="no"?>
<!DOCTYPE svg PUBLIC "-//W3C//DTD SVG 1.1//EN"
 "http://www.w3.org/Graphics/SVG/1.1/DTD/svg11.dtd">
<!-- Generated by graphviz version 2.42.4 (0)
 -->
<!-- Title: Graphical Class Hierarchy Pages: 1 -->
<svg width="435pt" height="86pt"
 viewBox="0.00 0.00 435.00 86.00" xmlns="http://www.w3.org/2000/svg" xmlns:xlink="http://www.w3.org/1999/xlink">
<g id="graph0" class="graph" transform="scale(1 1) rotate(0) translate(4 82)">
<title>Graphical Class Hierarchy</title>
<!-- Node0 -->
<g id="Node000000" class="node">
<title>Node0</title>
<g id="a_Node000000"><a xlink:href="classL4virtio_1_1Svr_1_1Device__t.html" target="_top" xlink:title="Server&#45;side L4&#45;VIRTIO device stub.">
<polygon fill="white" stroke="#666666" points="115,-54 0,-54 0,-24 115,-24 115,-54"/>
<text text-anchor="start" x="8" y="-42" font-family="Helvetica,sans-Serif" font-size="10.00">L4virtio::Svr::Device</text>
<text text-anchor="middle" x="57.5" y="-31" font-family="Helvetica,sans-Serif" font-size="10.00">_t&lt; DATA &gt;</text>
</a>
</g>
</g>
<!-- Node1 -->
<g id="Node000001" class="node">
<title>Node1</title>
<g id="a_Node000001"><a xlink:href="classL4virtio_1_1Svr_1_1Console_1_1Virtio__con.html" target="_top" xlink:title="Base class implementing a virtio console functionality.">
<polygon fill="white" stroke="#666666" points="271,-78 151,-78 151,-48 271,-48 271,-78"/>
<text text-anchor="start" x="159" y="-66" font-family="Helvetica,sans-Serif" font-size="10.00">L4virtio::Svr::Console</text>
<text text-anchor="middle" x="211" y="-55" font-family="Helvetica,sans-Serif" font-size="10.00">::Virtio_con</text>
</a>
</g>
</g>
<!-- Node0&#45;&gt;Node1 -->
<g id="edge208_Node000000_Node000001" class="edge">
<title>Node0&#45;&gt;Node1</title>
<g id="a_edge208_Node000000_Node000001"><a xlink:title=" ">
<path fill="none" stroke="#63b8ff" d="M125.24,-49.57C133.76,-50.92 142.43,-52.3 150.81,-53.62"/>
<polygon fill="#63b8ff" stroke="#63b8ff" points="125.77,-46.11 115.34,-48 124.67,-53.03 125.77,-46.11"/>
</a>
</g>
</g>
<!-- Node3 -->
<g id="Node000003" class="node">
<title>Node3</title>
<g id="a_Node000003"><a xlink:href="classL4virtio_1_1Svr_1_1Scmi_1_1Scmi__dev.html" target="_top" xlink:title="A server implementation of the virtio&#45;scmi protocol.">
<polygon fill="white" stroke="#666666" points="263.5,-30 158.5,-30 158.5,0 263.5,0 263.5,-30"/>
<text text-anchor="start" x="166.5" y="-18" font-family="Helvetica,sans-Serif" font-size="10.00">L4virtio::Svr::Scmi</text>
<text text-anchor="middle" x="211" y="-7" font-family="Helvetica,sans-Serif" font-size="10.00">::Scmi_dev</text>
</a>
</g>
</g>
<!-- Node0&#45;&gt;Node3 -->
<g id="edge210_Node000000_Node000003" class="edge">
<title>Node0&#45;&gt;Node3</title>
<g id="a_edge210_Node000000_Node000003"><a xlink:title=" ">
<path fill="none" stroke="#63b8ff" d="M125.39,-28.4C136.43,-26.65 147.73,-24.86 158.33,-23.18"/>
<polygon fill="#63b8ff" stroke="#63b8ff" points="124.67,-24.97 115.34,-30 125.77,-31.89 124.67,-24.97"/>
</a>
</g>
</g>
<!-- Node2 -->
<g id="Node000002" class="node">
<title>Node2</title>
<g id="a_Node000002"><a xlink:href="classL4virtio_1_1Svr_1_1Console_1_1Device.html" target="_top" xlink:title="Base class implementing a virtio console device with L4Re&#45;based notification handling.">
<polygon fill="white" stroke="#666666" points="427,-78 307,-78 307,-48 427,-48 427,-78"/>
<text text-anchor="start" x="315" y="-66" font-family="Helvetica,sans-Serif" font-size="10.00">L4virtio::Svr::Console</text>
<text text-anchor="middle" x="367" y="-55" font-family="Helvetica,sans-Serif" font-size="10.00">::Device</text>
</a>
</g>
</g>
<!-- Node1&#45;&gt;Node2 -->
<g id="edge209_Node000001_Node000002" class="edge">
<title>Node1&#45;&gt;Node2</title>
<g id="a_edge209_Node000001_Node000002"><a xlink:title=" ">
<path fill="none" stroke="#63b8ff" d="M281.37,-63C289.86,-63 298.48,-63 306.8,-63"/>
<polygon fill="#63b8ff" stroke="#63b8ff" points="281.1,-59.5 271.1,-63 281.1,-66.5 281.1,-59.5"/>
</a>
</g>
</g>
</g>
</svg>
