<?xml version="1.0" encoding="UTF-8" standalone="no"?>
<!DOCTYPE svg PUBLIC "-//W3C//DTD SVG 1.1//EN"
 "http://www.w3.org/Graphics/SVG/1.1/DTD/svg11.dtd">
<!-- Generated by graphviz version 2.42.4 (0)
 -->
<!-- Title: Graphical Class Hierarchy Pages: 1 -->
<svg width="421pt" height="38pt"
 viewBox="0.00 0.00 421.00 38.00" xmlns="http://www.w3.org/2000/svg" xmlns:xlink="http://www.w3.org/1999/xlink">
<g id="graph0" class="graph" transform="scale(1 1) rotate(0) translate(4 34)">
<title>Graphical Class Hierarchy</title>
<!-- Node0 -->
<g id="Node000000" class="node">
<title>Node0</title>
<g id="a_Node000000"><a xlink:href="classcxx_1_1H__list__item__t.html" target="_top" xlink:title=" ">
<polygon fill="white" stroke="#666666" points="113,-30 0,-30 0,0 113,0 113,-30"/>
<text text-anchor="start" x="8" y="-18" font-family="Helvetica,sans-Serif" font-size="10.00">cxx::H_list_item_t</text>
<text text-anchor="middle" x="56.5" y="-7" font-family="Helvetica,sans-Serif" font-size="10.00">&lt; Weak_ref_base &gt;</text>
</a>
</g>
</g>
<!-- Node1 -->
<g id="Node000001" class="node">
<title>Node1</title>
<g id="a_Node000001"><a xlink:href="classcxx_1_1Weak__ref__base.html" target="_top" xlink:title="Generic (base) weak reference to some object.">
<polygon fill="white" stroke="#666666" points="263,-24.5 149,-24.5 149,-5.5 263,-5.5 263,-24.5"/>
<text text-anchor="middle" x="206" y="-12.5" font-family="Helvetica,sans-Serif" font-size="10.00">cxx::Weak_ref_base</text>
</a>
</g>
</g>
<!-- Node0&#45;&gt;Node1 -->
<g id="edge29_Node000000_Node000001" class="edge">
<title>Node0&#45;&gt;Node1</title>
<g id="a_edge29_Node000000_Node000001"><a xlink:title=" ">
<path fill="none" stroke="#63b8ff" d="M123.44,-15C131.86,-15 140.42,-15 148.67,-15"/>
<polygon fill="#63b8ff" stroke="#63b8ff" points="123.26,-11.5 113.26,-15 123.26,-18.5 123.26,-11.5"/>
</a>
</g>
</g>
<!-- Node2 -->
<g id="Node000002" class="node">
<title>Node2</title>
<g id="a_Node000002"><a xlink:href="classcxx_1_1Weak__ref.html" target="_top" xlink:title="Typed weak reference to an object of type T.">
<polygon fill="white" stroke="#666666" points="413,-24.5 299,-24.5 299,-5.5 413,-5.5 413,-24.5"/>
<text text-anchor="middle" x="356" y="-12.5" font-family="Helvetica,sans-Serif" font-size="10.00">cxx::Weak_ref&lt; T &gt;</text>
</a>
</g>
</g>
<!-- Node1&#45;&gt;Node2 -->
<g id="edge30_Node000001_Node000002" class="edge">
<title>Node1&#45;&gt;Node2</title>
<g id="a_edge30_Node000001_Node000002"><a xlink:title=" ">
<path fill="none" stroke="#63b8ff" d="M273.56,-15C281.98,-15 290.54,-15 298.78,-15"/>
<polygon fill="#63b8ff" stroke="#63b8ff" points="273.37,-11.5 263.37,-15 273.37,-18.5 273.37,-11.5"/>
</a>
</g>
</g>
</g>
</svg>
