<?xml version="1.0" encoding="UTF-8" standalone="no"?>
<!DOCTYPE svg PUBLIC "-//W3C//DTD SVG 1.1//EN"
 "http://www.w3.org/Graphics/SVG/1.1/DTD/svg11.dtd">
<!-- Generated by graphviz version 2.43.0 (0)
 -->
<!-- Title: Graphical Class Hierarchy Pages: 1 -->
<svg width="776pt" height="1258pt"
 viewBox="0.00 0.00 776.00 1258.00" xmlns="http://www.w3.org/2000/svg" xmlns:xlink="http://www.w3.org/1999/xlink">
<g id="graph0" class="graph" transform="scale(1 1) rotate(0) translate(4 1254)">
<title>Graphical Class Hierarchy</title>
<!-- Node0 -->
<g id="Node000000" class="node">
<title>Node0</title>
<g id="a_Node000000"><a xlink:href="classL4_1_1Kobject.html" target="_top" xlink:title="Base class for all kinds of kernel objects and remote objects, referenced by capabilities.">
<polygon fill="white" stroke="#666666" points="70,-667 0,-667 0,-648 70,-648 70,-667"/>
<text text-anchor="middle" x="35" y="-655" font-family="Helvetica,sans-Serif" font-size="10.00">L4::Kobject</text>
</a>
</g>
</g>
<!-- Node1 -->
<g id="Node000001" class="node">
<title>Node1</title>
<g id="a_Node000001"><a xlink:href="classL4_1_1Kobject__t.html" target="_top" xlink:title=" ">
<polygon fill="white" stroke="#666666" points="296,-1250 106,-1250 106,-1209 296,-1209 296,-1250"/>
<text text-anchor="start" x="114" y="-1238" font-family="Helvetica,sans-Serif" font-size="10.00">L4::Kobject_t&lt; Arm</text>
<text text-anchor="start" x="114" y="-1227" font-family="Helvetica,sans-Serif" font-size="10.00">_smccc, L4::Kobject,</text>
<text text-anchor="middle" x="201" y="-1216" font-family="Helvetica,sans-Serif" font-size="10.00"> PROTO, Type_info::Demand_t&lt;&gt; &gt;</text>
</a>
</g>
</g>
<!-- Node0&#45;&gt;Node1 -->
<g id="edge111_Node000000_Node000001" class="edge">
<title>Node0&#45;&gt;Node1</title>
<g id="a_edge111_Node000000_Node000001"><a xlink:title=" ">
<path fill="none" stroke="#63b8ff" d="M35.81,-677.59C35.4,-765.81 38.1,-1118.09 106,-1199.5 108.96,-1203.05 112.35,-1206.19 116.03,-1208.96"/>
<polygon fill="#63b8ff" stroke="#63b8ff" points="39.32,-677.38 35.88,-667.35 32.32,-677.33 39.32,-677.38"/>
</a>
</g>
</g>
<!-- Node2 -->
<g id="Node000002" class="node">
<title>Node2</title>
<g id="a_Node000002"><a xlink:href="classL4_1_1Kobject__t.html" target="_top" xlink:title=" ">
<polygon fill="white" stroke="#666666" points="293,-1190.5 109,-1190.5 109,-1160.5 293,-1160.5 293,-1190.5"/>
<text text-anchor="start" x="117" y="-1178.5" font-family="Helvetica,sans-Serif" font-size="10.00">L4::Kobject_t&lt; Debugger,</text>
<text text-anchor="middle" x="201" y="-1167.5" font-family="Helvetica,sans-Serif" font-size="10.00"> Kobject, L4_PROTO_DEBUGGER &gt;</text>
</a>
</g>
</g>
<!-- Node0&#45;&gt;Node2 -->
<g id="edge112_Node000000_Node000002" class="edge">
<title>Node0&#45;&gt;Node2</title>
<g id="a_edge112_Node000000_Node000002"><a xlink:title=" ">
<path fill="none" stroke="#63b8ff" d="M35.98,-677.48C36.31,-760.83 41.81,-1079.89 106,-1151.5 109.04,-1154.89 112.48,-1157.83 116.2,-1160.37"/>
<polygon fill="#63b8ff" stroke="#63b8ff" points="39.48,-677.32 35.96,-667.33 32.48,-677.33 39.48,-677.32"/>
</a>
</g>
</g>
<!-- Node4 -->
<g id="Node000004" class="node">
<title>Node4</title>
<g id="a_Node000004"><a xlink:href="classL4_1_1Kobject__t.html" target="_top" xlink:title=" ">
<polygon fill="white" stroke="#666666" points="271.5,-1142 130.5,-1142 130.5,-1101 271.5,-1101 271.5,-1142"/>
<text text-anchor="start" x="138.5" y="-1130" font-family="Helvetica,sans-Serif" font-size="10.00">L4::Kobject_t&lt; Exception,</text>
<text text-anchor="start" x="138.5" y="-1119" font-family="Helvetica,sans-Serif" font-size="10.00"> L4::Kobject, PROTO, Type</text>
<text text-anchor="middle" x="201" y="-1108" font-family="Helvetica,sans-Serif" font-size="10.00">_info::Demand_t&lt;&gt; &gt;</text>
</a>
</g>
</g>
<!-- Node0&#45;&gt;Node4 -->
<g id="edge114_Node000000_Node000004" class="edge">
<title>Node0&#45;&gt;Node4</title>
<g id="a_edge114_Node000000_Node000004"><a xlink:title=" ">
<path fill="none" stroke="#63b8ff" d="M36.52,-677.35C38.93,-753.78 51.29,-1027.96 106,-1091.5 112.59,-1099.16 121.14,-1104.88 130.39,-1109.15"/>
<polygon fill="#63b8ff" stroke="#63b8ff" points="40.02,-677.09 36.23,-667.2 33.02,-677.3 40.02,-677.09"/>
</a>
</g>
</g>
<!-- Node5 -->
<g id="Node000005" class="node">
<title>Node5</title>
<g id="a_Node000005"><a xlink:href="classL4_1_1Kobject__t.html" target="_top" xlink:title=" ">
<polygon fill="white" stroke="#666666" points="287,-1082.5 115,-1082.5 115,-1052.5 287,-1052.5 287,-1082.5"/>
<text text-anchor="start" x="123" y="-1070.5" font-family="Helvetica,sans-Serif" font-size="10.00">L4::Kobject_t&lt; Factory,</text>
<text text-anchor="middle" x="201" y="-1059.5" font-family="Helvetica,sans-Serif" font-size="10.00"> Kobject, L4_PROTO_FACTORY &gt;</text>
</a>
</g>
</g>
<!-- Node0&#45;&gt;Node5 -->
<g id="edge115_Node000000_Node000005" class="edge">
<title>Node0&#45;&gt;Node5</title>
<g id="a_edge115_Node000000_Node000005"><a xlink:title=" ">
<path fill="none" stroke="#63b8ff" d="M36.85,-677.49C40.3,-748.8 55.53,-989.34 106,-1043.5 109.1,-1046.83 112.59,-1049.72 116.36,-1052.23"/>
<polygon fill="#63b8ff" stroke="#63b8ff" points="40.34,-677.04 36.38,-667.21 33.34,-677.36 40.34,-677.04"/>
</a>
</g>
</g>
<!-- Node9 -->
<g id="Node000009" class="node">
<title>Node9</title>
<g id="a_Node000009"><a xlink:href="classL4_1_1Kobject__t.html" target="_top" xlink:title=" ">
<polygon fill="white" stroke="#666666" points="271.5,-1034 130.5,-1034 130.5,-993 271.5,-993 271.5,-1034"/>
<text text-anchor="start" x="138.5" y="-1022" font-family="Helvetica,sans-Serif" font-size="10.00">L4::Kobject_t&lt; Io_pager,</text>
<text text-anchor="start" x="138.5" y="-1011" font-family="Helvetica,sans-Serif" font-size="10.00"> L4::Kobject, PROTO, Type</text>
<text text-anchor="middle" x="201" y="-1000" font-family="Helvetica,sans-Serif" font-size="10.00">_info::Demand_t&lt;&gt; &gt;</text>
</a>
</g>
</g>
<!-- Node0&#45;&gt;Node9 -->
<g id="edge119_Node000000_Node000009" class="edge">
<title>Node0&#45;&gt;Node9</title>
<g id="a_edge119_Node000000_Node000009"><a xlink:title=" ">
<path fill="none" stroke="#63b8ff" d="M37.67,-677.59C43.38,-741.51 64.12,-938.74 106,-984.5 112.69,-991.81 121.17,-997.29 130.29,-1001.4"/>
<polygon fill="#63b8ff" stroke="#63b8ff" points="41.13,-676.93 36.78,-667.27 34.15,-677.53 41.13,-676.93"/>
</a>
</g>
</g>
<!-- Node10 -->
<g id="Node000010" class="node">
<title>Node10</title>
<g id="a_Node000010"><a xlink:href="classL4_1_1Kobject__t.html" target="_top" xlink:title=" ">
<polygon fill="white" stroke="#666666" points="276,-975 126,-975 126,-934 276,-934 276,-975"/>
<text text-anchor="start" x="134" y="-963" font-family="Helvetica,sans-Serif" font-size="10.00">L4::Kobject_t&lt; Irq</text>
<text text-anchor="start" x="134" y="-952" font-family="Helvetica,sans-Serif" font-size="10.00">_eoi, L4::Kobject, PROTO,</text>
<text text-anchor="middle" x="201" y="-941" font-family="Helvetica,sans-Serif" font-size="10.00"> Type_info::Demand_t&lt;&gt; &gt;</text>
</a>
</g>
</g>
<!-- Node0&#45;&gt;Node10 -->
<g id="edge120_Node000000_Node000010" class="edge">
<title>Node0&#45;&gt;Node10</title>
<g id="a_edge120_Node000000_Node000010"><a xlink:title=" ">
<path fill="none" stroke="#63b8ff" d="M38.63,-677.16C46.45,-732.7 71.16,-889.1 106,-925.5 111.67,-931.42 118.52,-936.14 125.9,-939.9"/>
<polygon fill="#63b8ff" stroke="#63b8ff" points="42.09,-676.62 37.26,-667.19 35.16,-677.58 42.09,-676.62"/>
</a>
</g>
</g>
<!-- Node11 -->
<g id="Node000011" class="node">
<title>Node11</title>
<g id="a_Node000011"><a xlink:href="classL4_1_1Kobject__t.html" target="_top" xlink:title=" ">
<polygon fill="white" stroke="#666666" points="290.5,-916 111.5,-916 111.5,-875 290.5,-875 290.5,-916"/>
<text text-anchor="start" x="119.5" y="-904" font-family="Helvetica,sans-Serif" font-size="10.00">L4::Kobject_t&lt; Derived,</text>
<text text-anchor="start" x="119.5" y="-893" font-family="Helvetica,sans-Serif" font-size="10.00"> L4::Kobject, L4::PROTO</text>
<text text-anchor="middle" x="201" y="-882" font-family="Helvetica,sans-Serif" font-size="10.00">_ANY, Type_info::Demand_t&lt;&gt; &gt;</text>
</a>
</g>
</g>
<!-- Node0&#45;&gt;Node11 -->
<g id="edge121_Node000000_Node000011" class="edge">
<title>Node0&#45;&gt;Node11</title>
<g id="a_edge121_Node000000_Node000011"><a xlink:title=" ">
<path fill="none" stroke="#63b8ff" d="M36.94,-677.46C39.95,-718.51 52.64,-812.97 106,-865.5 109.54,-868.99 113.48,-872.07 117.7,-874.79"/>
<polygon fill="#63b8ff" stroke="#63b8ff" points="40.43,-677.14 36.32,-667.37 33.44,-677.57 40.43,-677.14"/>
</a>
</g>
</g>
<!-- Node12 -->
<g id="Node000012" class="node">
<title>Node12</title>
<g id="a_Node000012"><a xlink:href="classL4_1_1Kobject__t.html" target="_top" xlink:title=" ">
<polygon fill="white" stroke="#666666" points="278.5,-856.5 123.5,-856.5 123.5,-826.5 278.5,-826.5 278.5,-856.5"/>
<text text-anchor="start" x="131.5" y="-844.5" font-family="Helvetica,sans-Serif" font-size="10.00">L4::Kobject_t&lt; Meta,</text>
<text text-anchor="middle" x="201" y="-833.5" font-family="Helvetica,sans-Serif" font-size="10.00"> Kobject, L4_PROTO_META &gt;</text>
</a>
</g>
</g>
<!-- Node0&#45;&gt;Node12 -->
<g id="edge122_Node000000_Node000012" class="edge">
<title>Node0&#45;&gt;Node12</title>
<g id="a_edge122_Node000000_Node000012"><a xlink:title=" ">
<path fill="none" stroke="#63b8ff" d="M38.93,-677.19C45.05,-711.11 62.4,-780.46 106,-817.5 111.13,-821.86 116.96,-825.45 123.13,-828.39"/>
<polygon fill="#63b8ff" stroke="#63b8ff" points="42.35,-676.44 37.27,-667.15 35.45,-677.59 42.35,-676.44"/>
</a>
</g>
</g>
<!-- Node14 -->
<g id="Node000014" class="node">
<title>Node14</title>
<g id="a_Node000014"><a xlink:href="classL4_1_1Kobject__t.html" target="_top" xlink:title=" ">
<polygon fill="white" stroke="#666666" points="275.5,-808 126.5,-808 126.5,-767 275.5,-767 275.5,-808"/>
<text text-anchor="start" x="134.5" y="-796" font-family="Helvetica,sans-Serif" font-size="10.00">L4::Kobject_t&lt; Platform</text>
<text text-anchor="start" x="134.5" y="-785" font-family="Helvetica,sans-Serif" font-size="10.00">_control, Kobject, L4</text>
<text text-anchor="middle" x="201" y="-774" font-family="Helvetica,sans-Serif" font-size="10.00">_PROTO_PLATFORM_CTL &gt;</text>
</a>
</g>
</g>
<!-- Node0&#45;&gt;Node14 -->
<g id="edge124_Node000000_Node000014" class="edge">
<title>Node0&#45;&gt;Node14</title>
<g id="a_edge124_Node000000_Node000014"><a xlink:title=" ">
<path fill="none" stroke="#63b8ff" d="M44.41,-676.21C55.43,-698.69 76.84,-736.04 106,-757.5 112.21,-762.07 119.14,-765.96 126.35,-769.27"/>
<polygon fill="#63b8ff" stroke="#63b8ff" points="47.51,-674.6 40.08,-667.04 41.18,-677.58 47.51,-674.6"/>
</a>
</g>
</g>
<!-- Node16 -->
<g id="Node000016" class="node">
<title>Node16</title>
<g id="a_Node000016"><a xlink:href="classL4_1_1Kobject__t.html" target="_top" xlink:title=" ">
<polygon fill="white" stroke="#666666" points="274,-748.5 128,-748.5 128,-696.5 274,-696.5 274,-748.5"/>
<text text-anchor="start" x="136" y="-736.5" font-family="Helvetica,sans-Serif" font-size="10.00">L4::Kobject_t&lt; Rcv</text>
<text text-anchor="start" x="136" y="-725.5" font-family="Helvetica,sans-Serif" font-size="10.00">_endpoint, Kobject,</text>
<text text-anchor="start" x="136" y="-714.5" font-family="Helvetica,sans-Serif" font-size="10.00"> L4_PROTO_KOBJECT, Type</text>
<text text-anchor="middle" x="201" y="-703.5" font-family="Helvetica,sans-Serif" font-size="10.00">_info::Demand_t&lt; 1 &gt; &gt;</text>
</a>
</g>
</g>
<!-- Node0&#45;&gt;Node16 -->
<g id="edge126_Node000000_Node000016" class="edge">
<title>Node0&#45;&gt;Node16</title>
<g id="a_edge126_Node000000_Node000016"><a xlink:title=" ">
<path fill="none" stroke="#63b8ff" d="M66.9,-671.12C79.03,-676.37 93.12,-682.34 106,-687.5 113.44,-690.48 121.24,-693.51 129.03,-696.49"/>
<polygon fill="#63b8ff" stroke="#63b8ff" points="68.21,-667.88 57.64,-667.1 65.42,-674.3 68.21,-667.88"/>
</a>
</g>
</g>
<!-- Node22 -->
<g id="Node000022" class="node">
<title>Node22</title>
<g id="a_Node000022"><a xlink:href="classL4_1_1Kobject__t.html" target="_top" xlink:title=" ">
<polygon fill="white" stroke="#666666" points="282,-678 120,-678 120,-637 282,-637 282,-678"/>
<text text-anchor="start" x="128" y="-666" font-family="Helvetica,sans-Serif" font-size="10.00">L4::Kobject_t&lt; Task,</text>
<text text-anchor="start" x="128" y="-655" font-family="Helvetica,sans-Serif" font-size="10.00"> Kobject, L4_PROTO_TASK,</text>
<text text-anchor="middle" x="201" y="-644" font-family="Helvetica,sans-Serif" font-size="10.00"> Type_info::Demand_t&lt; 2 &gt; &gt;</text>
</a>
</g>
</g>
<!-- Node0&#45;&gt;Node22 -->
<g id="edge132_Node000000_Node000022" class="edge">
<title>Node0&#45;&gt;Node22</title>
<g id="a_edge132_Node000000_Node000022"><a xlink:title=" ">
<path fill="none" stroke="#63b8ff" d="M80.64,-657.5C92.76,-657.5 106.27,-657.5 119.72,-657.5"/>
<polygon fill="#63b8ff" stroke="#63b8ff" points="80.38,-654 70.38,-657.5 80.38,-661 80.38,-654"/>
</a>
</g>
</g>
<!-- Node26 -->
<g id="Node000026" class="node">
<title>Node26</title>
<g id="a_Node000026"><a xlink:href="classL4_1_1Kobject__t.html" target="_top" xlink:title=" ">
<polygon fill="white" stroke="#666666" points="282,-619 120,-619 120,-578 282,-578 282,-619"/>
<text text-anchor="start" x="128" y="-607" font-family="Helvetica,sans-Serif" font-size="10.00">L4::Kobject_t&lt; Thread,</text>
<text text-anchor="start" x="128" y="-596" font-family="Helvetica,sans-Serif" font-size="10.00"> Kobject, L4_PROTO_THREAD,</text>
<text text-anchor="middle" x="201" y="-585" font-family="Helvetica,sans-Serif" font-size="10.00"> Type_info::Demand_t&lt; 1 &gt; &gt;</text>
</a>
</g>
</g>
<!-- Node0&#45;&gt;Node26 -->
<g id="edge136_Node000000_Node000026" class="edge">
<title>Node0&#45;&gt;Node26</title>
<g id="a_edge136_Node000000_Node000026"><a xlink:title=" ">
<path fill="none" stroke="#63b8ff" d="M67.09,-643.97C79.15,-638.89 93.13,-633.21 106,-628.5 114.77,-625.29 124.06,-622.09 133.26,-619.04"/>
<polygon fill="#63b8ff" stroke="#63b8ff" points="65.72,-640.75 57.88,-647.88 68.45,-647.19 65.72,-640.75"/>
</a>
</g>
</g>
<!-- Node28 -->
<g id="Node000028" class="node">
<title>Node28</title>
<g id="a_Node000028"><a xlink:href="classL4_1_1Kobject__t.html" target="_top" xlink:title=" ">
<polygon fill="white" stroke="#666666" points="275,-559.5 127,-559.5 127,-507.5 275,-507.5 275,-559.5"/>
<text text-anchor="start" x="135" y="-547.5" font-family="Helvetica,sans-Serif" font-size="10.00">L4::Kobject_t&lt; Dataspace,</text>
<text text-anchor="start" x="135" y="-536.5" font-family="Helvetica,sans-Serif" font-size="10.00"> L4::Kobject, L4RE_PROTO</text>
<text text-anchor="start" x="135" y="-525.5" font-family="Helvetica,sans-Serif" font-size="10.00">_DATASPACE, L4::Type_info</text>
<text text-anchor="middle" x="201" y="-514.5" font-family="Helvetica,sans-Serif" font-size="10.00">::Demand_t&lt; 1 &gt; &gt;</text>
</a>
</g>
</g>
<!-- Node0&#45;&gt;Node28 -->
<g id="edge138_Node000000_Node000028" class="edge">
<title>Node0&#45;&gt;Node28</title>
<g id="a_edge138_Node000000_Node000028"><a xlink:title=" ">
<path fill="none" stroke="#63b8ff" d="M46.4,-639.26C58.45,-619.59 80.02,-588.54 106,-569.5 112.34,-564.85 119.36,-560.73 126.62,-557.08"/>
<polygon fill="#63b8ff" stroke="#63b8ff" points="43.36,-637.52 41.27,-647.9 49.38,-641.09 43.36,-637.52"/>
</a>
</g>
</g>
<!-- Node34 -->
<g id="Node000034" class="node">
<title>Node34</title>
<g id="a_Node000034"><a xlink:href="classL4_1_1Kobject__t.html" target="_top" xlink:title=" ">
<polygon fill="white" stroke="#666666" points="264,-489 138,-489 138,-448 264,-448 264,-489"/>
<text text-anchor="start" x="146" y="-477" font-family="Helvetica,sans-Serif" font-size="10.00">L4::Kobject_t&lt; Debug</text>
<text text-anchor="start" x="146" y="-466" font-family="Helvetica,sans-Serif" font-size="10.00">_obj, L4::Kobject, L4RE</text>
<text text-anchor="middle" x="201" y="-455" font-family="Helvetica,sans-Serif" font-size="10.00">_PROTO_DEBUG &gt;</text>
</a>
</g>
</g>
<!-- Node0&#45;&gt;Node34 -->
<g id="edge142_Node000000_Node000034" class="edge">
<title>Node0&#45;&gt;Node34</title>
<g id="a_edge142_Node000000_Node000034"><a xlink:title=" ">
<path fill="none" stroke="#63b8ff" d="M39.29,-637.71C45.9,-604.23 63.89,-536.37 106,-498.5 115.04,-490.37 126.3,-484.44 137.85,-480.11"/>
<polygon fill="#63b8ff" stroke="#63b8ff" points="35.83,-637.19 37.47,-647.65 42.72,-638.45 35.83,-637.19"/>
</a>
</g>
</g>
<!-- Node36 -->
<g id="Node000036" class="node">
<title>Node36</title>
<g id="a_Node000036"><a xlink:href="classL4_1_1Kobject__t.html" target="_top" xlink:title=" ">
<polygon fill="white" stroke="#666666" points="262.5,-429.5 139.5,-429.5 139.5,-377.5 262.5,-377.5 262.5,-429.5"/>
<text text-anchor="start" x="147.5" y="-417.5" font-family="Helvetica,sans-Serif" font-size="10.00">L4::Kobject_t&lt; Dma</text>
<text text-anchor="start" x="147.5" y="-406.5" font-family="Helvetica,sans-Serif" font-size="10.00">_space, L4::Kobject,</text>
<text text-anchor="start" x="147.5" y="-395.5" font-family="Helvetica,sans-Serif" font-size="10.00"> PROTO, L4::Type_info</text>
<text text-anchor="middle" x="201" y="-384.5" font-family="Helvetica,sans-Serif" font-size="10.00">::Demand_t&lt; 1 &gt; &gt;</text>
</a>
</g>
</g>
<!-- Node0&#45;&gt;Node36 -->
<g id="edge144_Node000000_Node000036" class="edge">
<title>Node0&#45;&gt;Node36</title>
<g id="a_edge144_Node000000_Node000036"><a xlink:title=" ">
<path fill="none" stroke="#63b8ff" d="M36.83,-637.71C39.63,-595.67 51.94,-496.62 106,-439.5 115.13,-429.85 127.12,-422.76 139.48,-417.56"/>
<polygon fill="#63b8ff" stroke="#63b8ff" points="33.33,-637.59 36.27,-647.76 40.32,-637.97 33.33,-637.59"/>
</a>
</g>
</g>
<!-- Node33 -->
<g id="Node000033" class="node">
<title>Node33</title>
<g id="a_Node000033"><a xlink:href="classL4_1_1Kobject__t.html" target="_top" xlink:title=" ">
<polygon fill="white" stroke="#666666" points="272,-359 130,-359 130,-318 272,-318 272,-359"/>
<text text-anchor="start" x="138" y="-347" font-family="Helvetica,sans-Serif" font-size="10.00">L4::Kobject_t&lt; Inhibitor,</text>
<text text-anchor="start" x="138" y="-336" font-family="Helvetica,sans-Serif" font-size="10.00"> L4::Kobject, L4RE_PROTO</text>
<text text-anchor="middle" x="201" y="-325" font-family="Helvetica,sans-Serif" font-size="10.00">_INHIBITOR &gt;</text>
</a>
</g>
</g>
<!-- Node0&#45;&gt;Node33 -->
<g id="edge145_Node000000_Node000033" class="edge">
<title>Node0&#45;&gt;Node33</title>
<g id="a_edge145_Node000000_Node000033"><a xlink:title=" ">
<path fill="none" stroke="#63b8ff" d="M38.25,-637.88C45.31,-579.5 68.81,-408.44 106,-368.5 112.65,-361.35 121,-355.9 129.97,-351.75"/>
<polygon fill="#63b8ff" stroke="#63b8ff" points="34.75,-637.64 37.05,-647.98 41.7,-638.46 34.75,-637.64"/>
</a>
</g>
</g>
<!-- Node37 -->
<g id="Node000037" class="node">
<title>Node37</title>
<g id="a_Node000037"><a xlink:href="classL4_1_1Kobject__t.html" target="_top" xlink:title=" ">
<polygon fill="white" stroke="#666666" points="283,-300 119,-300 119,-259 283,-259 283,-300"/>
<text text-anchor="start" x="127" y="-288" font-family="Helvetica,sans-Serif" font-size="10.00">L4::Kobject_t&lt; Mmio</text>
<text text-anchor="start" x="127" y="-277" font-family="Helvetica,sans-Serif" font-size="10.00">_space, L4::Kobject,</text>
<text text-anchor="middle" x="201" y="-266" font-family="Helvetica,sans-Serif" font-size="10.00"> L4RE_PROTO_MMIO_SPACE &gt;</text>
</a>
</g>
</g>
<!-- Node0&#45;&gt;Node37 -->
<g id="edge148_Node000000_Node000037" class="edge">
<title>Node0&#45;&gt;Node37</title>
<g id="a_edge148_Node000000_Node000037"><a xlink:title=" ">
<path fill="none" stroke="#63b8ff" d="M37.41,-637.46C42.46,-570.94 61.79,-358.88 106,-309.5 109.77,-305.29 114.13,-301.66 118.87,-298.55"/>
<polygon fill="#63b8ff" stroke="#63b8ff" points="33.89,-637.57 36.65,-647.8 40.87,-638.08 33.89,-637.57"/>
</a>
</g>
</g>
<!-- Node39 -->
<g id="Node000039" class="node">
<title>Node39</title>
<g id="a_Node000039"><a xlink:href="classL4_1_1Kobject__t.html" target="_top" xlink:title=" ">
<polygon fill="white" stroke="#666666" points="277,-240.5 125,-240.5 125,-188.5 277,-188.5 277,-240.5"/>
<text text-anchor="start" x="133" y="-228.5" font-family="Helvetica,sans-Serif" font-size="10.00">L4::Kobject_t&lt; Namespace,</text>
<text text-anchor="start" x="133" y="-217.5" font-family="Helvetica,sans-Serif" font-size="10.00"> L4::Kobject, L4RE_PROTO</text>
<text text-anchor="start" x="133" y="-206.5" font-family="Helvetica,sans-Serif" font-size="10.00">_NAMESPACE, L4::Type_info</text>
<text text-anchor="middle" x="201" y="-195.5" font-family="Helvetica,sans-Serif" font-size="10.00">::Demand_t&lt; 1 &gt; &gt;</text>
</a>
</g>
</g>
<!-- Node0&#45;&gt;Node39 -->
<g id="edge150_Node000000_Node000039" class="edge">
<title>Node0&#45;&gt;Node39</title>
<g id="a_edge150_Node000000_Node000039"><a xlink:title=" ">
<path fill="none" stroke="#63b8ff" d="M36.87,-637.57C40.47,-564.31 56.32,-310.98 106,-250.5 111.21,-244.15 117.68,-238.92 124.77,-234.61"/>
<polygon fill="#63b8ff" stroke="#63b8ff" points="33.37,-637.58 36.4,-647.73 40.36,-637.9 33.37,-637.58"/>
</a>
</g>
</g>
<!-- Node41 -->
<g id="Node000041" class="node">
<title>Node41</title>
<g id="a_Node000041"><a xlink:href="classL4_1_1Kobject__t.html" target="_top" xlink:title=" ">
<polygon fill="white" stroke="#666666" points="275.5,-170.5 126.5,-170.5 126.5,-118.5 275.5,-118.5 275.5,-170.5"/>
<text text-anchor="start" x="134.5" y="-158.5" font-family="Helvetica,sans-Serif" font-size="10.00">L4::Kobject_t&lt; Cmd</text>
<text text-anchor="start" x="134.5" y="-147.5" font-family="Helvetica,sans-Serif" font-size="10.00">_control, L4::Kobject,</text>
<text text-anchor="start" x="134.5" y="-136.5" font-family="Helvetica,sans-Serif" font-size="10.00"> L4::PROTO_ANY, Type_info</text>
<text text-anchor="middle" x="201" y="-125.5" font-family="Helvetica,sans-Serif" font-size="10.00">::Demand_t&lt;&gt; &gt;</text>
</a>
</g>
</g>
<!-- Node0&#45;&gt;Node41 -->
<g id="edge152_Node000000_Node000041" class="edge">
<title>Node0&#45;&gt;Node41</title>
<g id="a_edge152_Node000000_Node000041"><a xlink:title=" ">
<path fill="none" stroke="#63b8ff" d="M36.3,-637.32C37.89,-555.78 47.7,-251.61 106,-179.5 111.58,-172.59 118.67,-167.05 126.45,-162.6"/>
<polygon fill="#63b8ff" stroke="#63b8ff" points="32.79,-637.62 36.12,-647.68 39.79,-637.74 32.79,-637.62"/>
</a>
</g>
</g>
<!-- Node42 -->
<g id="Node000042" class="node">
<title>Node42</title>
<g id="a_Node000042"><a xlink:href="classL4_1_1Kobject__t.html" target="_top" xlink:title=" ">
<polygon fill="white" stroke="#666666" points="272,-100 130,-100 130,-59 272,-59 272,-100"/>
<text text-anchor="start" x="138" y="-88" font-family="Helvetica,sans-Serif" font-size="10.00">L4::Kobject_t&lt; Parent,</text>
<text text-anchor="start" x="138" y="-77" font-family="Helvetica,sans-Serif" font-size="10.00"> L4::Kobject, L4RE_PROTO</text>
<text text-anchor="middle" x="201" y="-66" font-family="Helvetica,sans-Serif" font-size="10.00">_PARENT &gt;</text>
</a>
</g>
</g>
<!-- Node0&#45;&gt;Node42 -->
<g id="edge153_Node000000_Node000042" class="edge">
<title>Node0&#45;&gt;Node42</title>
<g id="a_edge153_Node000000_Node000042"><a xlink:title=" ">
<path fill="none" stroke="#63b8ff" d="M35.78,-637.76C35.22,-549.52 37.27,-192.02 106,-109.5 112.36,-101.87 120.66,-96.15 129.7,-91.88"/>
<polygon fill="#63b8ff" stroke="#63b8ff" points="32.29,-637.99 35.87,-647.96 39.29,-637.94 32.29,-637.99"/>
</a>
</g>
</g>
<!-- Node44 -->
<g id="Node000044" class="node">
<title>Node44</title>
<g id="a_Node000044"><a xlink:href="classL4_1_1Kobject__t.html" target="_top" xlink:title=" ">
<polygon fill="white" stroke="#666666" points="272,-41 130,-41 130,0 272,0 272,-41"/>
<text text-anchor="start" x="138" y="-29" font-family="Helvetica,sans-Serif" font-size="10.00">L4::Kobject_t&lt; Goos,</text>
<text text-anchor="start" x="138" y="-18" font-family="Helvetica,sans-Serif" font-size="10.00"> L4::Kobject, L4RE_PROTO</text>
<text text-anchor="middle" x="201" y="-7" font-family="Helvetica,sans-Serif" font-size="10.00">_GOOS &gt;</text>
</a>
</g>
</g>
<!-- Node0&#45;&gt;Node44 -->
<g id="edge155_Node000000_Node000044" class="edge">
<title>Node0&#45;&gt;Node44</title>
<g id="a_edge155_Node000000_Node000044"><a xlink:title=" ">
<path fill="none" stroke="#63b8ff" d="M37.01,-637.66C42.23,-538.11 67.47,-95.89 106,-49.5 112.33,-41.88 120.61,-36.22 129.65,-32.03"/>
<polygon fill="#63b8ff" stroke="#63b8ff" points="33.5,-637.66 36.48,-647.83 40.49,-638.02 33.5,-637.66"/>
</a>
</g>
</g>
<!-- Node3 -->
<g id="Node000003" class="node">
<title>Node3</title>
<g id="a_Node000003"><a xlink:href="classL4_1_1Debugger.html" target="_top" xlink:title="C++ kernel debugger API.">
<polygon fill="white" stroke="#666666" points="430,-1185 349,-1185 349,-1166 430,-1166 430,-1185"/>
<text text-anchor="middle" x="389.5" y="-1173" font-family="Helvetica,sans-Serif" font-size="10.00">L4::Debugger</text>
</a>
</g>
</g>
<!-- Node2&#45;&gt;Node3 -->
<g id="edge113_Node000002_Node000003" class="edge">
<title>Node2&#45;&gt;Node3</title>
<g id="a_edge113_Node000002_Node000003"><a xlink:title=" ">
<path fill="none" stroke="#63b8ff" d="M303.17,-1175.5C319.35,-1175.5 335.22,-1175.5 348.79,-1175.5"/>
<polygon fill="#63b8ff" stroke="#63b8ff" points="303.06,-1172 293.06,-1175.5 303.06,-1179 303.06,-1172"/>
</a>
</g>
</g>
<!-- Node6 -->
<g id="Node000006" class="node">
<title>Node6</title>
<g id="a_Node000006"><a xlink:href="classL4_1_1Factory.html" target="_top" xlink:title="C++ Factory interface, see Factory for the C interface.">
<polygon fill="white" stroke="#666666" points="424,-1077 355,-1077 355,-1058 424,-1058 424,-1077"/>
<text text-anchor="middle" x="389.5" y="-1065" font-family="Helvetica,sans-Serif" font-size="10.00">L4::Factory</text>
</a>
</g>
</g>
<!-- Node5&#45;&gt;Node6 -->
<g id="edge116_Node000005_Node000006" class="edge">
<title>Node5&#45;&gt;Node6</title>
<g id="a_edge116_Node000005_Node000006"><a xlink:title=" ">
<path fill="none" stroke="#63b8ff" d="M297.22,-1067.5C317.93,-1067.5 338.51,-1067.5 354.87,-1067.5"/>
<polygon fill="#63b8ff" stroke="#63b8ff" points="297.06,-1064 287.06,-1067.5 297.06,-1071 297.06,-1064"/>
</a>
</g>
</g>
<!-- Node7 -->
<g id="Node000007" class="node">
<title>Node7</title>
<g id="a_Node000007"><a xlink:href="classL4_1_1Kobject__t.html" target="_top" xlink:title=" ">
<polygon fill="white" stroke="#666666" points="617.5,-1088 497.5,-1088 497.5,-1047 617.5,-1047 617.5,-1088"/>
<text text-anchor="start" x="505.5" y="-1076" font-family="Helvetica,sans-Serif" font-size="10.00">L4::Kobject_t&lt; Mem</text>
<text text-anchor="start" x="505.5" y="-1065" font-family="Helvetica,sans-Serif" font-size="10.00">_alloc, L4::Factory,</text>
<text text-anchor="middle" x="557.5" y="-1054" font-family="Helvetica,sans-Serif" font-size="10.00"> L4::PROTO_EMPTY &gt;</text>
</a>
</g>
</g>
<!-- Node6&#45;&gt;Node7 -->
<g id="edge117_Node000006_Node000007" class="edge">
<title>Node6&#45;&gt;Node7</title>
<g id="a_edge117_Node000006_Node000007"><a xlink:title=" ">
<path fill="none" stroke="#63b8ff" d="M434.13,-1067.5C453.49,-1067.5 476.56,-1067.5 497.43,-1067.5"/>
<polygon fill="#63b8ff" stroke="#63b8ff" points="434.09,-1064 424.09,-1067.5 434.09,-1071 434.09,-1064"/>
</a>
</g>
</g>
<!-- Node8 -->
<g id="Node000008" class="node">
<title>Node8</title>
<g id="a_Node000008"><a xlink:href="classL4Re_1_1Mem__alloc.html" target="_top" xlink:title="Memory allocation interface.">
<polygon fill="white" stroke="#666666" points="768,-1077 668,-1077 668,-1058 768,-1058 768,-1077"/>
<text text-anchor="middle" x="718" y="-1065" font-family="Helvetica,sans-Serif" font-size="10.00">L4Re::Mem_alloc</text>
</a>
</g>
</g>
<!-- Node7&#45;&gt;Node8 -->
<g id="edge118_Node000007_Node000008" class="edge">
<title>Node7&#45;&gt;Node8</title>
<g id="a_edge118_Node000007_Node000008"><a xlink:title=" ">
<path fill="none" stroke="#63b8ff" d="M627.73,-1067.5C641.22,-1067.5 655.11,-1067.5 667.79,-1067.5"/>
<polygon fill="#63b8ff" stroke="#63b8ff" points="627.52,-1064 617.52,-1067.5 627.52,-1071 627.52,-1064"/>
</a>
</g>
</g>
<!-- Node13 -->
<g id="Node000013" class="node">
<title>Node13</title>
<g id="a_Node000013"><a xlink:href="classL4_1_1Meta.html" target="_top" xlink:title="Meta interface that shall be implemented by each L4Re object and gives access to the dynamic type inf...">
<polygon fill="white" stroke="#666666" points="419,-851 360,-851 360,-832 419,-832 419,-851"/>
<text text-anchor="middle" x="389.5" y="-839" font-family="Helvetica,sans-Serif" font-size="10.00">L4::Meta</text>
</a>
</g>
</g>
<!-- Node12&#45;&gt;Node13 -->
<g id="edge123_Node000012_Node000013" class="edge">
<title>Node12&#45;&gt;Node13</title>
<g id="a_edge123_Node000012_Node000013"><a xlink:title=" ">
<path fill="none" stroke="#63b8ff" d="M288.84,-841.5C314.51,-841.5 340.84,-841.5 359.99,-841.5"/>
<polygon fill="#63b8ff" stroke="#63b8ff" points="288.66,-838 278.66,-841.5 288.66,-845 288.66,-838"/>
</a>
</g>
</g>
<!-- Node15 -->
<g id="Node000015" class="node">
<title>Node15</title>
<g id="a_Node000015"><a xlink:href="classL4_1_1Platform__control.html" target="_top" xlink:title="L4 C++ interface for controlling platform&#45;wide properties, see Platform Control C API for the C inter...">
<polygon fill="white" stroke="#666666" points="447,-797 332,-797 332,-778 447,-778 447,-797"/>
<text text-anchor="middle" x="389.5" y="-785" font-family="Helvetica,sans-Serif" font-size="10.00">L4::Platform_control</text>
</a>
</g>
</g>
<!-- Node14&#45;&gt;Node15 -->
<g id="edge125_Node000014_Node000015" class="edge">
<title>Node14&#45;&gt;Node15</title>
<g id="a_edge125_Node000014_Node000015"><a xlink:title=" ">
<path fill="none" stroke="#63b8ff" d="M285.84,-787.5C301.36,-787.5 317.24,-787.5 331.72,-787.5"/>
<polygon fill="#63b8ff" stroke="#63b8ff" points="285.71,-784 275.71,-787.5 285.71,-791 285.71,-784"/>
</a>
</g>
</g>
<!-- Node17 -->
<g id="Node000017" class="node">
<title>Node17</title>
<g id="a_Node000017"><a xlink:href="classL4_1_1Rcv__endpoint.html" target="_top" xlink:title="Interface for kernel objects that allow to receive IPC from them.">
<polygon fill="white" stroke="#666666" points="439.5,-732 339.5,-732 339.5,-713 439.5,-713 439.5,-732"/>
<text text-anchor="middle" x="389.5" y="-720" font-family="Helvetica,sans-Serif" font-size="10.00">L4::Rcv_endpoint</text>
</a>
</g>
</g>
<!-- Node16&#45;&gt;Node17 -->
<g id="edge127_Node000016_Node000017" class="edge">
<title>Node16&#45;&gt;Node17</title>
<g id="a_edge127_Node000016_Node000017"><a xlink:title=" ">
<path fill="none" stroke="#63b8ff" d="M284.18,-722.5C303.01,-722.5 322.44,-722.5 339.36,-722.5"/>
<polygon fill="#63b8ff" stroke="#63b8ff" points="284.11,-719 274.11,-722.5 284.11,-726 284.11,-719"/>
</a>
</g>
</g>
<!-- Node18 -->
<g id="Node000018" class="node">
<title>Node18</title>
<g id="a_Node000018"><a xlink:href="classL4_1_1Kobject__2t.html" target="_top" xlink:title=" ">
<polygon fill="white" stroke="#666666" points="632,-805 483,-805 483,-764 632,-764 632,-805"/>
<text text-anchor="start" x="491" y="-793" font-family="Helvetica,sans-Serif" font-size="10.00">L4::Kobject_2t&lt; Irq,</text>
<text text-anchor="start" x="491" y="-782" font-family="Helvetica,sans-Serif" font-size="10.00"> Triggerable, Rcv_endpoint,</text>
<text text-anchor="middle" x="557.5" y="-771" font-family="Helvetica,sans-Serif" font-size="10.00"> L4_PROTO_IRQ_SENDER &gt;</text>
</a>
</g>
</g>
<!-- Node17&#45;&gt;Node18 -->
<g id="edge128_Node000017_Node000018" class="edge">
<title>Node17&#45;&gt;Node18</title>
<g id="a_edge128_Node000017_Node000018"><a xlink:title=" ">
<path fill="none" stroke="#63b8ff" d="M425.65,-735.63C447.62,-743.83 476.37,-754.57 501.33,-763.9"/>
<polygon fill="#63b8ff" stroke="#63b8ff" points="426.67,-732.27 416.07,-732.05 424.22,-738.83 426.67,-732.27"/>
</a>
</g>
</g>
<!-- Node20 -->
<g id="Node000020" class="node">
<title>Node20</title>
<g id="a_Node000020"><a xlink:href="classL4_1_1Kobject__t.html" target="_top" xlink:title=" ">
<polygon fill="white" stroke="#666666" points="630.5,-745.5 484.5,-745.5 484.5,-693.5 630.5,-693.5 630.5,-745.5"/>
<text text-anchor="start" x="492.5" y="-733.5" font-family="Helvetica,sans-Serif" font-size="10.00">L4::Kobject_t&lt; Ipc</text>
<text text-anchor="start" x="492.5" y="-722.5" font-family="Helvetica,sans-Serif" font-size="10.00">_gate, Rcv_endpoint,</text>
<text text-anchor="start" x="492.5" y="-711.5" font-family="Helvetica,sans-Serif" font-size="10.00"> L4_PROTO_KOBJECT, Type</text>
<text text-anchor="middle" x="557.5" y="-700.5" font-family="Helvetica,sans-Serif" font-size="10.00">_info::Demand_t&lt; 1 &gt; &gt;</text>
</a>
</g>
</g>
<!-- Node17&#45;&gt;Node20 -->
<g id="edge130_Node000017_Node000020" class="edge">
<title>Node17&#45;&gt;Node20</title>
<g id="a_edge130_Node000017_Node000020"><a xlink:title=" ">
<path fill="none" stroke="#63b8ff" d="M449.89,-721.43C461.04,-721.23 472.81,-721.01 484.29,-720.8"/>
<polygon fill="#63b8ff" stroke="#63b8ff" points="449.79,-717.93 439.86,-721.61 449.92,-724.93 449.79,-717.93"/>
</a>
</g>
</g>
<!-- Node19 -->
<g id="Node000019" class="node">
<title>Node19</title>
<g id="a_Node000019"><a xlink:href="classL4_1_1Irq.html" target="_top" xlink:title="C++ Irq interface, see IRQs for the C interface.">
<polygon fill="white" stroke="#666666" points="741.5,-794 694.5,-794 694.5,-775 741.5,-775 741.5,-794"/>
<text text-anchor="middle" x="718" y="-782" font-family="Helvetica,sans-Serif" font-size="10.00">L4::Irq</text>
</a>
</g>
</g>
<!-- Node18&#45;&gt;Node19 -->
<g id="edge129_Node000018_Node000019" class="edge">
<title>Node18&#45;&gt;Node19</title>
<g id="a_edge129_Node000018_Node000019"><a xlink:title=" ">
<path fill="none" stroke="#63b8ff" d="M642.28,-784.5C661.57,-784.5 680.5,-784.5 694.48,-784.5"/>
<polygon fill="#63b8ff" stroke="#63b8ff" points="642.18,-781 632.18,-784.5 642.18,-788 642.18,-781"/>
</a>
</g>
</g>
<!-- Node21 -->
<g id="Node000021" class="node">
<title>Node21</title>
<g id="a_Node000021"><a xlink:href="classL4_1_1Ipc__gate.html" target="_top" xlink:title="The C++ IPC gate interface, see IPC&#45;Gate API for the C interface.">
<polygon fill="white" stroke="#666666" points="755.5,-729 680.5,-729 680.5,-710 755.5,-710 755.5,-729"/>
<text text-anchor="middle" x="718" y="-717" font-family="Helvetica,sans-Serif" font-size="10.00">L4::Ipc_gate</text>
</a>
</g>
</g>
<!-- Node20&#45;&gt;Node21 -->
<g id="edge131_Node000020_Node000021" class="edge">
<title>Node20&#45;&gt;Node21</title>
<g id="a_edge131_Node000020_Node000021"><a xlink:title=" ">
<path fill="none" stroke="#63b8ff" d="M640.86,-719.5C654.7,-719.5 668.41,-719.5 680.3,-719.5"/>
<polygon fill="#63b8ff" stroke="#63b8ff" points="640.79,-716 630.79,-719.5 640.79,-723 640.79,-716"/>
</a>
</g>
</g>
<!-- Node23 -->
<g id="Node000023" class="node">
<title>Node23</title>
<g id="a_Node000023"><a xlink:href="classL4_1_1Task.html" target="_top" xlink:title="C++ interface of the Task kernel object, see Task for the C interface.">
<polygon fill="white" stroke="#666666" points="417.5,-667 361.5,-667 361.5,-648 417.5,-648 417.5,-667"/>
<text text-anchor="middle" x="389.5" y="-655" font-family="Helvetica,sans-Serif" font-size="10.00">L4::Task</text>
</a>
</g>
</g>
<!-- Node22&#45;&gt;Node23 -->
<g id="edge133_Node000022_Node000023" class="edge">
<title>Node22&#45;&gt;Node23</title>
<g id="a_edge133_Node000022_Node000023"><a xlink:title=" ">
<path fill="none" stroke="#63b8ff" d="M292.49,-657.5C317.51,-657.5 342.8,-657.5 361.14,-657.5"/>
<polygon fill="#63b8ff" stroke="#63b8ff" points="292.18,-654 282.18,-657.5 292.18,-661 292.18,-654"/>
</a>
</g>
</g>
<!-- Node24 -->
<g id="Node000024" class="node">
<title>Node24</title>
<g id="a_Node000024"><a xlink:href="classL4_1_1Kobject__t.html" target="_top" xlink:title=" ">
<polygon fill="white" stroke="#666666" points="622.5,-672.5 492.5,-672.5 492.5,-642.5 622.5,-642.5 622.5,-672.5"/>
<text text-anchor="start" x="500.5" y="-660.5" font-family="Helvetica,sans-Serif" font-size="10.00">L4::Kobject_t&lt; Vm,</text>
<text text-anchor="middle" x="557.5" y="-649.5" font-family="Helvetica,sans-Serif" font-size="10.00"> Task, L4_PROTO_VM &gt;</text>
</a>
</g>
</g>
<!-- Node23&#45;&gt;Node24 -->
<g id="edge134_Node000023_Node000024" class="edge">
<title>Node23&#45;&gt;Node24</title>
<g id="a_edge134_Node000023_Node000024"><a xlink:title=" ">
<path fill="none" stroke="#63b8ff" d="M427.58,-657.5C446.6,-657.5 470.3,-657.5 492.18,-657.5"/>
<polygon fill="#63b8ff" stroke="#63b8ff" points="427.54,-654 417.54,-657.5 427.54,-661 427.54,-654"/>
</a>
</g>
</g>
<!-- Node25 -->
<g id="Node000025" class="node">
<title>Node25</title>
<g id="a_Node000025"><a xlink:href="classL4_1_1Vm.html" target="_top" xlink:title="Virtual machine host address space.">
<polygon fill="white" stroke="#666666" points="743,-667 693,-667 693,-648 743,-648 743,-667"/>
<text text-anchor="middle" x="718" y="-655" font-family="Helvetica,sans-Serif" font-size="10.00">L4::Vm</text>
</a>
</g>
</g>
<!-- Node24&#45;&gt;Node25 -->
<g id="edge135_Node000024_Node000025" class="edge">
<title>Node24&#45;&gt;Node25</title>
<g id="a_edge135_Node000024_Node000025"><a xlink:title=" ">
<path fill="none" stroke="#63b8ff" d="M632.75,-657.5C654.43,-657.5 676.62,-657.5 692.78,-657.5"/>
<polygon fill="#63b8ff" stroke="#63b8ff" points="632.51,-654 622.51,-657.5 632.51,-661 632.51,-654"/>
</a>
</g>
</g>
<!-- Node27 -->
<g id="Node000027" class="node">
<title>Node27</title>
<g id="a_Node000027"><a xlink:href="classL4_1_1Thread.html" target="_top" xlink:title="C++ L4 kernel thread interface, see Thread for the C interface.">
<polygon fill="white" stroke="#666666" points="423.5,-608 355.5,-608 355.5,-589 423.5,-589 423.5,-608"/>
<text text-anchor="middle" x="389.5" y="-596" font-family="Helvetica,sans-Serif" font-size="10.00">L4::Thread</text>
</a>
</g>
</g>
<!-- Node26&#45;&gt;Node27 -->
<g id="edge137_Node000026_Node000027" class="edge">
<title>Node26&#45;&gt;Node27</title>
<g id="a_edge137_Node000026_Node000027"><a xlink:title=" ">
<path fill="none" stroke="#63b8ff" d="M292.46,-598.5C314.9,-598.5 337.57,-598.5 355.24,-598.5"/>
<polygon fill="#63b8ff" stroke="#63b8ff" points="292.18,-595 282.18,-598.5 292.18,-602 292.18,-595"/>
</a>
</g>
</g>
<!-- Node29 -->
<g id="Node000029" class="node">
<title>Node29</title>
<g id="a_Node000029"><a xlink:href="classL4Re_1_1Dataspace.html" target="_top" xlink:title="Interface for memory&#45;like objects.">
<polygon fill="white" stroke="#666666" points="438.5,-529 340.5,-529 340.5,-510 438.5,-510 438.5,-529"/>
<text text-anchor="middle" x="389.5" y="-517" font-family="Helvetica,sans-Serif" font-size="10.00">L4Re::Dataspace</text>
</a>
</g>
</g>
<!-- Node28&#45;&gt;Node29 -->
<g id="edge139_Node000028_Node000029" class="edge">
<title>Node28&#45;&gt;Node29</title>
<g id="a_edge139_Node000028_Node000029"><a xlink:title=" ">
<path fill="none" stroke="#63b8ff" d="M285.29,-527.25C304.19,-525.83 323.64,-524.37 340.49,-523.1"/>
<polygon fill="#63b8ff" stroke="#63b8ff" points="284.88,-523.77 275.17,-528.01 285.41,-530.75 284.88,-523.77"/>
</a>
</g>
</g>
<!-- Node30 -->
<g id="Node000030" class="node">
<title>Node30</title>
<g id="a_Node000030"><a xlink:href="structL4_1_1Kobject__3t.html" target="_top" xlink:title=" ">
<polygon fill="white" stroke="#666666" points="626.5,-466 488.5,-466 488.5,-425 626.5,-425 626.5,-466"/>
<text text-anchor="start" x="496.5" y="-454" font-family="Helvetica,sans-Serif" font-size="10.00">L4::Kobject_3t&lt; Vbus,</text>
<text text-anchor="start" x="496.5" y="-443" font-family="Helvetica,sans-Serif" font-size="10.00"> L4Re::Dataspace, L4Re</text>
<text text-anchor="middle" x="557.5" y="-432" font-family="Helvetica,sans-Serif" font-size="10.00">::Inhibitor, L4Re::Event &gt;</text>
</a>
</g>
</g>
<!-- Node29&#45;&gt;Node30 -->
<g id="edge140_Node000029_Node000030" class="edge">
<title>Node29&#45;&gt;Node30</title>
<g id="a_edge140_Node000029_Node000030"><a xlink:title=" ">
<path fill="none" stroke="#63b8ff" d="M421.22,-505.8C446.26,-494.64 482,-478.71 510.45,-466.03"/>
<polygon fill="#63b8ff" stroke="#63b8ff" points="419.57,-502.71 411.86,-509.98 422.42,-509.1 419.57,-502.71"/>
</a>
</g>
</g>
<!-- Node31 -->
<g id="Node000031" class="node">
<title>Node31</title>
<g id="a_Node000031"><a xlink:href="classL4vbus_1_1Vbus.html" target="_top" xlink:title="The virtual bus (Vbus) interface.">
<polygon fill="white" stroke="#666666" points="758.5,-455 677.5,-455 677.5,-436 758.5,-436 758.5,-455"/>
<text text-anchor="middle" x="718" y="-443" font-family="Helvetica,sans-Serif" font-size="10.00">L4vbus::Vbus</text>
</a>
</g>
</g>
<!-- Node30&#45;&gt;Node31 -->
<g id="edge141_Node000030_Node000031" class="edge">
<title>Node30&#45;&gt;Node31</title>
<g id="a_edge141_Node000030_Node000031"><a xlink:title=" ">
<path fill="none" stroke="#63b8ff" d="M636.82,-445.5C650.85,-445.5 664.92,-445.5 677.27,-445.5"/>
<polygon fill="#63b8ff" stroke="#63b8ff" points="636.64,-442 626.64,-445.5 636.64,-449 636.64,-442"/>
</a>
</g>
</g>
<!-- Node35 -->
<g id="Node000035" class="node">
<title>Node35</title>
<g id="a_Node000035"><a xlink:href="classL4Re_1_1Debug__obj.html" target="_top" xlink:title="Debug interface.">
<polygon fill="white" stroke="#666666" points="438.5,-478 340.5,-478 340.5,-459 438.5,-459 438.5,-478"/>
<text text-anchor="middle" x="389.5" y="-466" font-family="Helvetica,sans-Serif" font-size="10.00">L4Re::Debug_obj</text>
</a>
</g>
</g>
<!-- Node34&#45;&gt;Node35 -->
<g id="edge143_Node000034_Node000035" class="edge">
<title>Node34&#45;&gt;Node35</title>
<g id="a_edge143_Node000034_Node000035"><a xlink:title=" ">
<path fill="none" stroke="#63b8ff" d="M274.14,-468.5C296.28,-468.5 320.1,-468.5 340.23,-468.5"/>
<polygon fill="#63b8ff" stroke="#63b8ff" points="274.1,-465 264.1,-468.5 274.1,-472 274.1,-465"/>
</a>
</g>
</g>
<!-- Node32 -->
<g id="Node000032" class="node">
<title>Node32</title>
<g id="a_Node000032"><a xlink:href="classL4Re_1_1Inhibitor.html" target="_top" xlink:title="Set of inhibitor locks, which inhibit specific actions when held.">
<polygon fill="white" stroke="#666666" points="433,-395 346,-395 346,-376 433,-376 433,-395"/>
<text text-anchor="middle" x="389.5" y="-383" font-family="Helvetica,sans-Serif" font-size="10.00">L4Re::Inhibitor</text>
</a>
</g>
</g>
<!-- Node33&#45;&gt;Node32 -->
<g id="edge146_Node000033_Node000032" class="edge">
<title>Node33&#45;&gt;Node32</title>
<g id="a_edge146_Node000033_Node000032"><a xlink:title=" ">
<path fill="none" stroke="#63b8ff" d="M282.02,-358.67C305.88,-364.68 330.92,-370.99 350.72,-375.98"/>
<polygon fill="#63b8ff" stroke="#63b8ff" points="282.79,-355.25 272.24,-356.2 281.08,-362.04 282.79,-355.25"/>
</a>
</g>
</g>
<!-- Node32&#45;&gt;Node30 -->
<g id="edge147_Node000032_Node000030" class="edge">
<title>Node32&#45;&gt;Node30</title>
<g id="a_edge147_Node000032_Node000030"><a xlink:title=" ">
<path fill="none" stroke="#63b8ff" d="M426.46,-398.5C447.85,-406.23 475.46,-416.21 499.73,-424.98"/>
<polygon fill="#63b8ff" stroke="#63b8ff" points="427.4,-395.11 416.8,-395.01 425.02,-401.7 427.4,-395.11"/>
</a>
</g>
</g>
<!-- Node38 -->
<g id="Node000038" class="node">
<title>Node38</title>
<g id="a_Node000038"><a xlink:href="structL4Re_1_1Mmio__space.html" target="_top" xlink:title="Interface for memory&#45;like address space accessible via IPC.">
<polygon fill="white" stroke="#666666" points="443.5,-289 335.5,-289 335.5,-270 443.5,-270 443.5,-289"/>
<text text-anchor="middle" x="389.5" y="-277" font-family="Helvetica,sans-Serif" font-size="10.00">L4Re::Mmio_space</text>
</a>
</g>
</g>
<!-- Node37&#45;&gt;Node38 -->
<g id="edge149_Node000037_Node000038" class="edge">
<title>Node37&#45;&gt;Node38</title>
<g id="a_edge149_Node000037_Node000038"><a xlink:title=" ">
<path fill="none" stroke="#63b8ff" d="M293.66,-279.5C307.98,-279.5 322.35,-279.5 335.42,-279.5"/>
<polygon fill="#63b8ff" stroke="#63b8ff" points="293.26,-276 283.26,-279.5 293.26,-283 293.26,-276"/>
</a>
</g>
</g>
<!-- Node40 -->
<g id="Node000040" class="node">
<title>Node40</title>
<g id="a_Node000040"><a xlink:href="classL4Re_1_1Namespace.html" target="_top" xlink:title="Name&#45;space interface.">
<polygon fill="white" stroke="#666666" points="441.5,-224 337.5,-224 337.5,-205 441.5,-205 441.5,-224"/>
<text text-anchor="middle" x="389.5" y="-212" font-family="Helvetica,sans-Serif" font-size="10.00">L4Re::Namespace</text>
</a>
</g>
</g>
<!-- Node39&#45;&gt;Node40 -->
<g id="edge151_Node000039_Node000040" class="edge">
<title>Node39&#45;&gt;Node40</title>
<g id="a_edge151_Node000039_Node000040"><a xlink:title=" ">
<path fill="none" stroke="#63b8ff" d="M287.09,-214.5C304.25,-214.5 321.78,-214.5 337.33,-214.5"/>
<polygon fill="#63b8ff" stroke="#63b8ff" points="287.05,-211 277.05,-214.5 287.05,-218 287.05,-211"/>
</a>
</g>
</g>
<!-- Node43 -->
<g id="Node000043" class="node">
<title>Node43</title>
<g id="a_Node000043"><a xlink:href="classL4Re_1_1Parent.html" target="_top" xlink:title="Parent interface.">
<polygon fill="white" stroke="#666666" points="428,-89 351,-89 351,-70 428,-70 428,-89"/>
<text text-anchor="middle" x="389.5" y="-77" font-family="Helvetica,sans-Serif" font-size="10.00">L4Re::Parent</text>
</a>
</g>
</g>
<!-- Node42&#45;&gt;Node43 -->
<g id="edge154_Node000042_Node000043" class="edge">
<title>Node42&#45;&gt;Node43</title>
<g id="a_edge154_Node000042_Node000043"><a xlink:title=" ">
<path fill="none" stroke="#63b8ff" d="M282.38,-79.5C306.24,-79.5 331.24,-79.5 350.98,-79.5"/>
<polygon fill="#63b8ff" stroke="#63b8ff" points="282.24,-76 272.24,-79.5 282.24,-83 282.24,-76"/>
</a>
</g>
</g>
<!-- Node45 -->
<g id="Node000045" class="node">
<title>Node45</title>
<g id="a_Node000045"><a xlink:href="classL4Re_1_1Video_1_1Goos.html" target="_top" xlink:title="Class that abstracts framebuffers.">
<polygon fill="white" stroke="#666666" points="442,-30 337,-30 337,-11 442,-11 442,-30"/>
<text text-anchor="middle" x="389.5" y="-18" font-family="Helvetica,sans-Serif" font-size="10.00">L4Re::Video::Goos</text>
</a>
</g>
</g>
<!-- Node44&#45;&gt;Node45 -->
<g id="edge156_Node000044_Node000045" class="edge">
<title>Node44&#45;&gt;Node45</title>
<g id="a_edge156_Node000044_Node000045"><a xlink:title=" ">
<path fill="none" stroke="#63b8ff" d="M282.42,-20.5C300.89,-20.5 320.06,-20.5 336.93,-20.5"/>
<polygon fill="#63b8ff" stroke="#63b8ff" points="282.24,-17 272.24,-20.5 282.24,-24 282.24,-17"/>
</a>
</g>
</g>
</g>
</svg>
