<?xml version="1.0" encoding="UTF-8" standalone="no"?>
<!DOCTYPE svg PUBLIC "-//W3C//DTD SVG 1.1//EN"
 "http://www.w3.org/Graphics/SVG/1.1/DTD/svg11.dtd">
<!-- Generated by graphviz version 2.42.4 (0)
 -->
<!-- Title: Graphical Class Hierarchy Pages: 1 -->
<svg width="298pt" height="76pt"
 viewBox="0.00 0.00 298.00 75.50" xmlns="http://www.w3.org/2000/svg" xmlns:xlink="http://www.w3.org/1999/xlink">
<g id="graph0" class="graph" transform="scale(1 1) rotate(0) translate(4 71.5)">
<title>Graphical Class Hierarchy</title>
<!-- Node0 -->
<g id="Node000000" class="node">
<title>Node0</title>
<g id="a_Node000000"><a xlink:href="classcxx_1_1List__item_1_1Iter.html" target="_top" xlink:title="Iterator for a list of ListItem&#45;s.">
<polygon fill="white" stroke="#666666" points="107,-45.5 0,-45.5 0,-26.5 107,-26.5 107,-45.5"/>
<text text-anchor="middle" x="53.5" y="-33.5" font-family="Helvetica,sans-Serif" font-size="10.00">cxx::List_item::Iter</text>
</a>
</g>
</g>
<!-- Node1 -->
<g id="Node000001" class="node">
<title>Node1</title>
<g id="a_Node000001"><a xlink:href="classcxx_1_1List__item_1_1T__iter.html" target="_top" xlink:title=" ">
<polygon fill="white" stroke="#666666" points="290,-67.5 143,-67.5 143,-48.5 290,-48.5 290,-67.5"/>
<text text-anchor="middle" x="216.5" y="-55.5" font-family="Helvetica,sans-Serif" font-size="10.00">cxx::List_item::T_iter&lt; E &gt;</text>
</a>
</g>
</g>
<!-- Node0&#45;&gt;Node1 -->
<g id="edge31_Node000000_Node000001" class="edge">
<title>Node0&#45;&gt;Node1</title>
<g id="a_edge31_Node000000_Node000001"><a xlink:title=" ">
<path fill="none" stroke="#63b8ff" d="M117.27,-44.58C126.68,-45.86 136.43,-47.2 145.97,-48.5"/>
<polygon fill="#63b8ff" stroke="#63b8ff" points="117.6,-41.09 107.22,-43.2 116.65,-48.03 117.6,-41.09"/>
</a>
</g>
</g>
<!-- Node2 -->
<g id="Node000002" class="node">
<title>Node2</title>
<g id="a_Node000002"><a xlink:href="classcxx_1_1List__item_1_1T__iter.html" target="_top" xlink:title="Iterator for derived classes from ListItem.">
<polygon fill="white" stroke="#666666" points="276,-30 157,-30 157,0 276,0 276,-30"/>
<text text-anchor="start" x="165" y="-18" font-family="Helvetica,sans-Serif" font-size="10.00">cxx::List_item::T_iter</text>
<text text-anchor="middle" x="216.5" y="-7" font-family="Helvetica,sans-Serif" font-size="10.00">&lt; T, Poly &gt;</text>
</a>
</g>
</g>
<!-- Node0&#45;&gt;Node2 -->
<g id="edge32_Node000000_Node000002" class="edge">
<title>Node0&#45;&gt;Node2</title>
<g id="a_edge32_Node000000_Node000002"><a xlink:title=" ">
<path fill="none" stroke="#63b8ff" d="M117.45,-27.79C130.41,-26.1 144.01,-24.32 156.82,-22.65"/>
<polygon fill="#63b8ff" stroke="#63b8ff" points="116.68,-24.36 107.22,-29.12 117.59,-31.3 116.68,-24.36"/>
</a>
</g>
</g>
</g>
</svg>
