<?xml version="1.0" encoding="UTF-8" standalone="no"?>
<!DOCTYPE svg PUBLIC "-//W3C//DTD SVG 1.1//EN"
 "http://www.w3.org/Graphics/SVG/1.1/DTD/svg11.dtd">
<!-- Generated by graphviz version 2.42.4 (0)
 -->
<!-- Title: Graphical Class Hierarchy Pages: 1 -->
<svg width="603pt" height="386pt"
 viewBox="0.00 0.00 603.00 386.00" xmlns="http://www.w3.org/2000/svg" xmlns:xlink="http://www.w3.org/1999/xlink">
<g id="graph0" class="graph" transform="scale(1 1) rotate(0) translate(4 382)">
<title>Graphical Class Hierarchy</title>
<!-- Node0 -->
<g id="Node000000" class="node">
<title>Node0</title>
<g id="a_Node000000"><a xlink:href="classcxx_1_1Bits_1_1Basic__list.html" target="_top" xlink:title="Internal: Common functions for all head&#45;based list implementations.">
<polygon fill="white" stroke="#666666" points="111,-186.5 0,-186.5 0,-156.5 111,-156.5 111,-186.5"/>
<text text-anchor="start" x="8" y="-174.5" font-family="Helvetica,sans-Serif" font-size="10.00">cxx::Bits::Basic_list</text>
<text text-anchor="middle" x="55.5" y="-163.5" font-family="Helvetica,sans-Serif" font-size="10.00">&lt; POLICY &gt;</text>
</a>
</g>
</g>
<!-- Node1 -->
<g id="Node000001" class="node">
<title>Node1</title>
<g id="a_Node000001"><a xlink:href="classcxx_1_1H__list.html" target="_top" xlink:title=" ">
<polygon fill="white" stroke="#666666" points="294,-378 147,-378 147,-337 294,-337 294,-378"/>
<text text-anchor="start" x="155" y="-366" font-family="Helvetica,sans-Serif" font-size="10.00">cxx::H_list&lt; T, Bits</text>
<text text-anchor="start" x="155" y="-355" font-family="Helvetica,sans-Serif" font-size="10.00">::Basic_list_policy&lt;</text>
<text text-anchor="middle" x="220.5" y="-344" font-family="Helvetica,sans-Serif" font-size="10.00"> T, H_list_item_t&lt; T &gt; &gt; &gt;</text>
</a>
</g>
</g>
<!-- Node0&#45;&gt;Node1 -->
<g id="edge9_Node000000_Node000001" class="edge">
<title>Node0&#45;&gt;Node1</title>
<g id="a_edge9_Node000000_Node000001"><a xlink:title=" ">
<path fill="none" stroke="#63b8ff" d="M64.88,-196.34C77.58,-230.5 104.77,-291.9 147,-328.5 150.59,-331.61 154.55,-334.41 158.71,-336.93"/>
<polygon fill="#63b8ff" stroke="#63b8ff" points="68.08,-194.9 61.41,-186.67 61.49,-197.27 68.08,-194.9"/>
</a>
</g>
</g>
<!-- Node3 -->
<g id="Node000003" class="node">
<title>Node3</title>
<g id="a_Node000003"><a xlink:href="classcxx_1_1H__list.html" target="_top" xlink:title=" ">
<polygon fill="white" stroke="#666666" points="287.5,-319 153.5,-319 153.5,-300 287.5,-300 287.5,-319"/>
<text text-anchor="middle" x="220.5" y="-307" font-family="Helvetica,sans-Serif" font-size="10.00">cxx::H_list&lt; Observer &gt;</text>
</a>
</g>
</g>
<!-- Node0&#45;&gt;Node3 -->
<g id="edge11_Node000000_Node000003" class="edge">
<title>Node0&#45;&gt;Node3</title>
<g id="a_edge11_Node000000_Node000003"><a xlink:title=" ">
<path fill="none" stroke="#63b8ff" d="M68.56,-195.79C83.33,-222.99 110.89,-266.4 147,-290.5 152.84,-294.4 159.45,-297.5 166.23,-299.96"/>
<polygon fill="#63b8ff" stroke="#63b8ff" points="71.64,-194.12 63.88,-186.9 65.45,-197.38 71.64,-194.12"/>
</a>
</g>
</g>
<!-- Node4 -->
<g id="Node000004" class="node">
<title>Node4</title>
<g id="a_Node000004"><a xlink:href="classcxx_1_1H__list.html" target="_top" xlink:title=" ">
<polygon fill="white" stroke="#666666" points="283.5,-281.5 157.5,-281.5 157.5,-251.5 283.5,-251.5 283.5,-281.5"/>
<text text-anchor="start" x="165.5" y="-269.5" font-family="Helvetica,sans-Serif" font-size="10.00">cxx::H_list&lt; cxx::Base</text>
<text text-anchor="middle" x="220.5" y="-258.5" font-family="Helvetica,sans-Serif" font-size="10.00">_slab::Slab_i &gt;</text>
</a>
</g>
</g>
<!-- Node0&#45;&gt;Node4 -->
<g id="edge12_Node000000_Node000004" class="edge">
<title>Node0&#45;&gt;Node4</title>
<g id="a_edge12_Node000000_Node000004"><a xlink:title=" ">
<path fill="none" stroke="#63b8ff" d="M79.73,-193.44C97.13,-208.9 122.13,-229.15 147,-242.5 153.19,-245.82 159.93,-248.8 166.72,-251.43"/>
<polygon fill="#63b8ff" stroke="#63b8ff" points="82.06,-190.82 72.3,-186.71 77.36,-196.01 82.06,-190.82"/>
</a>
</g>
</g>
<!-- Node5 -->
<g id="Node000005" class="node">
<title>Node5</title>
<g id="a_Node000005"><a xlink:href="classcxx_1_1H__list.html" target="_top" xlink:title=" ">
<polygon fill="white" stroke="#666666" points="291,-233 150,-233 150,-170 291,-170 291,-233"/>
<text text-anchor="start" x="158" y="-221" font-family="Helvetica,sans-Serif" font-size="10.00">cxx::H_list&lt; Weak_ref</text>
<text text-anchor="start" x="158" y="-210" font-family="Helvetica,sans-Serif" font-size="10.00">_base, Bits::Basic_list</text>
<text text-anchor="start" x="158" y="-199" font-family="Helvetica,sans-Serif" font-size="10.00">_policy&lt; Weak_ref_base,</text>
<text text-anchor="start" x="158" y="-188" font-family="Helvetica,sans-Serif" font-size="10.00"> H_list_item_t&lt; Weak_ref</text>
<text text-anchor="middle" x="220.5" y="-177" font-family="Helvetica,sans-Serif" font-size="10.00">_base &gt; &gt; &gt;</text>
</a>
</g>
</g>
<!-- Node0&#45;&gt;Node5 -->
<g id="edge13_Node000000_Node000005" class="edge">
<title>Node0&#45;&gt;Node5</title>
<g id="a_edge13_Node000000_Node000005"><a xlink:title=" ">
<path fill="none" stroke="#63b8ff" d="M121.28,-183.42C130.67,-185.15 140.38,-186.94 149.86,-188.68"/>
<polygon fill="#63b8ff" stroke="#63b8ff" points="121.7,-179.94 111.23,-181.57 120.43,-186.83 121.7,-179.94"/>
</a>
</g>
</g>
<!-- Node6 -->
<g id="Node000006" class="node">
<title>Node6</title>
<g id="a_Node000006"><a xlink:href="classcxx_1_1H__list.html" target="_top" xlink:title=" ">
<polygon fill="white" stroke="#666666" points="286,-152 155,-152 155,-133 286,-133 286,-152"/>
<text text-anchor="middle" x="220.5" y="-140" font-family="Helvetica,sans-Serif" font-size="10.00">cxx::H_list&lt; Timeout &gt;</text>
</a>
</g>
</g>
<!-- Node0&#45;&gt;Node6 -->
<g id="edge14_Node000000_Node000006" class="edge">
<title>Node0&#45;&gt;Node6</title>
<g id="a_edge14_Node000000_Node000006"><a xlink:title=" ">
<path fill="none" stroke="#63b8ff" d="M121.34,-159.96C136.16,-157.33 151.74,-154.55 166.02,-152.01"/>
<polygon fill="#63b8ff" stroke="#63b8ff" points="120.46,-156.57 111.23,-161.76 121.69,-163.46 120.46,-156.57"/>
</a>
</g>
</g>
<!-- Node7 -->
<g id="Node000007" class="node">
<title>Node7</title>
<g id="a_Node000007"><a xlink:href="classcxx_1_1S__list.html" target="_top" xlink:title=" ">
<polygon fill="white" stroke="#666666" points="276.5,-115 164.5,-115 164.5,-74 276.5,-74 276.5,-115"/>
<text text-anchor="start" x="172.5" y="-103" font-family="Helvetica,sans-Serif" font-size="10.00">cxx::S_list&lt; T, Bits</text>
<text text-anchor="start" x="172.5" y="-92" font-family="Helvetica,sans-Serif" font-size="10.00">::Basic_list_policy&lt;</text>
<text text-anchor="middle" x="220.5" y="-81" font-family="Helvetica,sans-Serif" font-size="10.00"> T, S_list_item &gt; &gt;</text>
</a>
</g>
</g>
<!-- Node0&#45;&gt;Node7 -->
<g id="edge15_Node000000_Node000007" class="edge">
<title>Node0&#45;&gt;Node7</title>
<g id="a_edge15_Node000000_Node000007"><a xlink:title=" ">
<path fill="none" stroke="#63b8ff" d="M93.12,-151.56C109.45,-142.91 129.02,-132.87 147,-124.5 153.79,-121.34 161.01,-118.15 168.16,-115.09"/>
<polygon fill="#63b8ff" stroke="#63b8ff" points="91.09,-148.68 83.92,-156.47 94.39,-154.85 91.09,-148.68"/>
</a>
</g>
</g>
<!-- Node8 -->
<g id="Node000008" class="node">
<title>Node8</title>
<g id="a_Node000008"><a xlink:href="classcxx_1_1H__list.html" target="_top" xlink:title="General double&#45;linked list of unspecified cxx::H_list_item elements.">
<polygon fill="white" stroke="#666666" points="289,-56 152,-56 152,-37 289,-37 289,-56"/>
<text text-anchor="middle" x="220.5" y="-44" font-family="Helvetica,sans-Serif" font-size="10.00">cxx::H_list&lt; T, POLICY &gt;</text>
</a>
</g>
</g>
<!-- Node0&#45;&gt;Node8 -->
<g id="edge16_Node000000_Node000008" class="edge">
<title>Node0&#45;&gt;Node8</title>
<g id="a_edge16_Node000000_Node000008"><a xlink:title=" ">
<path fill="none" stroke="#63b8ff" d="M70.27,-147.75C85.78,-123.16 113.28,-85.45 147,-64.5 152.51,-61.08 158.63,-58.3 164.92,-56.06"/>
<polygon fill="#63b8ff" stroke="#63b8ff" points="67.17,-146.12 64.93,-156.48 73.14,-149.78 67.17,-146.12"/>
</a>
</g>
</g>
<!-- Node11 -->
<g id="Node000011" class="node">
<title>Node11</title>
<g id="a_Node000011"><a xlink:href="classcxx_1_1S__list.html" target="_top" xlink:title="Simple single&#45;linked list.">
<polygon fill="white" stroke="#666666" points="288,-19 153,-19 153,0 288,0 288,-19"/>
<text text-anchor="middle" x="220.5" y="-7" font-family="Helvetica,sans-Serif" font-size="10.00">cxx::S_list&lt; T, POLICY &gt;</text>
</a>
</g>
</g>
<!-- Node0&#45;&gt;Node11 -->
<g id="edge19_Node000000_Node000011" class="edge">
<title>Node0&#45;&gt;Node11</title>
<g id="a_edge19_Node000000_Node000011"><a xlink:title=" ">
<path fill="none" stroke="#63b8ff" d="M65.36,-146.5C78.2,-114 105.13,-57.81 147,-27.5 151.73,-24.08 157.03,-21.3 162.57,-19.05"/>
<polygon fill="#63b8ff" stroke="#63b8ff" points="61.97,-145.57 61.69,-156.16 68.52,-148.06 61.97,-145.57"/>
</a>
</g>
</g>
<!-- Node2 -->
<g id="Node000002" class="node">
<title>Node2</title>
<g id="a_Node000002"><a xlink:href="structcxx_1_1H__list__t.html" target="_top" xlink:title="Double&#45;linked list of typed H_list_item_t elements.">
<polygon fill="white" stroke="#666666" points="440,-367 335,-367 335,-348 440,-348 440,-367"/>
<text text-anchor="middle" x="387.5" y="-355" font-family="Helvetica,sans-Serif" font-size="10.00">cxx::H_list_t&lt; T &gt;</text>
</a>
</g>
</g>
<!-- Node1&#45;&gt;Node2 -->
<g id="edge10_Node000001_Node000002" class="edge">
<title>Node1&#45;&gt;Node2</title>
<g id="a_edge10_Node000001_Node000002"><a xlink:title=" ">
<path fill="none" stroke="#63b8ff" d="M304.63,-357.5C314.92,-357.5 325.2,-357.5 334.82,-357.5"/>
<polygon fill="#63b8ff" stroke="#63b8ff" points="304.35,-354 294.35,-357.5 304.35,-361 304.35,-354"/>
</a>
</g>
</g>
<!-- Node9 -->
<g id="Node000009" class="node">
<title>Node9</title>
<g id="a_Node000009"><a xlink:href="structcxx_1_1H__list__t.html" target="_top" xlink:title=" ">
<polygon fill="white" stroke="#666666" points="445,-61.5 330,-61.5 330,-31.5 445,-31.5 445,-61.5"/>
<text text-anchor="start" x="338" y="-49.5" font-family="Helvetica,sans-Serif" font-size="10.00">cxx::H_list_t&lt; Weak</text>
<text text-anchor="middle" x="387.5" y="-38.5" font-family="Helvetica,sans-Serif" font-size="10.00">_ref_base &gt;</text>
</a>
</g>
</g>
<!-- Node8&#45;&gt;Node9 -->
<g id="edge17_Node000008_Node000009" class="edge">
<title>Node8&#45;&gt;Node9</title>
<g id="a_edge17_Node000008_Node000009"><a xlink:title=" ">
<path fill="none" stroke="#63b8ff" d="M299.31,-46.5C309.6,-46.5 319.98,-46.5 329.81,-46.5"/>
<polygon fill="#63b8ff" stroke="#63b8ff" points="299.09,-43 289.09,-46.5 299.09,-50 299.09,-43"/>
</a>
</g>
</g>
<!-- Node10 -->
<g id="Node000010" class="node">
<title>Node10</title>
<g id="a_Node000010"><a xlink:href="structcxx_1_1Weak__ref__base_1_1List.html" target="_top" xlink:title="The list type for keeping all weak references to an object.">
<polygon fill="white" stroke="#666666" points="595,-61.5 481,-61.5 481,-31.5 595,-31.5 595,-61.5"/>
<text text-anchor="start" x="489" y="-49.5" font-family="Helvetica,sans-Serif" font-size="10.00">cxx::Weak_ref_base</text>
<text text-anchor="middle" x="538" y="-38.5" font-family="Helvetica,sans-Serif" font-size="10.00">::List</text>
</a>
</g>
</g>
<!-- Node9&#45;&gt;Node10 -->
<g id="edge18_Node000009_Node000010" class="edge">
<title>Node9&#45;&gt;Node10</title>
<g id="a_edge18_Node000009_Node000010"><a xlink:title=" ">
<path fill="none" stroke="#63b8ff" d="M455.28,-46.5C463.74,-46.5 472.32,-46.5 480.59,-46.5"/>
<polygon fill="#63b8ff" stroke="#63b8ff" points="455.07,-43 445.07,-46.5 455.07,-50 455.07,-43"/>
</a>
</g>
</g>
</g>
</svg>
