<?xml version="1.0" encoding="UTF-8" standalone="no"?>
<!DOCTYPE svg PUBLIC "-//W3C//DTD SVG 1.1//EN"
 "http://www.w3.org/Graphics/SVG/1.1/DTD/svg11.dtd">
<!-- Generated by graphviz version 2.42.4 (0)
 -->
<!-- Title: Graphical Class Hierarchy Pages: 1 -->
<svg width="258pt" height="76pt"
 viewBox="0.00 0.00 258.00 75.50" xmlns="http://www.w3.org/2000/svg" xmlns:xlink="http://www.w3.org/1999/xlink">
<g id="graph0" class="graph" transform="scale(1 1) rotate(0) translate(4 71.5)">
<title>Graphical Class Hierarchy</title>
<!-- Node0 -->
<g id="Node000000" class="node">
<title>Node0</title>
<g id="a_Node000000"><a xlink:href="structL4_1_1Ipc_1_1Call.html" target="_top" xlink:title="RPC attribute for a standard RPC call.">
<polygon fill="white" stroke="#666666" points="73,-45.5 0,-45.5 0,-26.5 73,-26.5 73,-45.5"/>
<text text-anchor="middle" x="36.5" y="-33.5" font-family="Helvetica,sans-Serif" font-size="10.00">L4::Ipc::Call</text>
</a>
</g>
</g>
<!-- Node1 -->
<g id="Node000001" class="node">
<title>Node1</title>
<g id="a_Node000001"><a xlink:href="structL4_1_1Ipc_1_1Call__t.html" target="_top" xlink:title="RPC attribute for an RPC call with required rights.">
<polygon fill="white" stroke="#666666" points="250,-67.5 109,-67.5 109,-48.5 250,-48.5 250,-67.5"/>
<text text-anchor="middle" x="179.5" y="-55.5" font-family="Helvetica,sans-Serif" font-size="10.00">L4::Ipc::Call_t&lt; RIGHTS &gt;</text>
</a>
</g>
</g>
<!-- Node0&#45;&gt;Node1 -->
<g id="edge79_Node000000_Node000001" class="edge">
<title>Node0&#45;&gt;Node1</title>
<g id="a_edge79_Node000000_Node000001"><a xlink:title=" ">
<path fill="none" stroke="#63b8ff" d="M83.22,-43.13C94.13,-44.84 105.94,-46.68 117.42,-48.47"/>
<polygon fill="#63b8ff" stroke="#63b8ff" points="83.5,-39.64 73.08,-41.55 82.42,-46.55 83.5,-39.64"/>
</a>
</g>
</g>
<!-- Node2 -->
<g id="Node000002" class="node">
<title>Node2</title>
<g id="a_Node000002"><a xlink:href="structL4_1_1Ipc_1_1Call__zero__send__timeout.html" target="_top" xlink:title="RPC attribute for an RPC call, with zero send timeout.">
<polygon fill="white" stroke="#666666" points="229,-30 130,-30 130,0 229,0 229,-30"/>
<text text-anchor="start" x="138" y="-18" font-family="Helvetica,sans-Serif" font-size="10.00">L4::Ipc::Call_zero</text>
<text text-anchor="middle" x="179.5" y="-7" font-family="Helvetica,sans-Serif" font-size="10.00">_send_timeout</text>
</a>
</g>
</g>
<!-- Node0&#45;&gt;Node2 -->
<g id="edge80_Node000000_Node000002" class="edge">
<title>Node0&#45;&gt;Node2</title>
<g id="a_edge80_Node000000_Node000002"><a xlink:title=" ">
<path fill="none" stroke="#63b8ff" d="M83.12,-29.21C98.06,-26.98 114.72,-24.5 129.88,-22.24"/>
<polygon fill="#63b8ff" stroke="#63b8ff" points="82.46,-25.77 73.08,-30.7 83.49,-32.69 82.46,-25.77"/>
</a>
</g>
</g>
</g>
</svg>
