<?xml version="1.0" encoding="UTF-8" standalone="no"?>
<!DOCTYPE svg PUBLIC "-//W3C//DTD SVG 1.1//EN"
 "http://www.w3.org/Graphics/SVG/1.1/DTD/svg11.dtd">
<!-- Generated by graphviz version 2.42.4 (0)
 -->
<!-- Title: contrib/libio&#45;io/l4/io/io.h Pages: 1 -->
<svg width="434pt" height="368pt"
 viewBox="0.00 0.00 433.73 368.00" xmlns="http://www.w3.org/2000/svg" xmlns:xlink="http://www.w3.org/1999/xlink">
<g id="graph0" class="graph" transform="scale(1 1) rotate(0) translate(4 364)">
<title>contrib/libio&#45;io/l4/io/io.h</title>
<!-- Node1 -->
<g id="Node000001" class="node">
<title>Node1</title>
<g id="a_Node000001"><a xlink:title=" ">
<polygon fill="#999999" stroke="#666666" points="141.5,-360 42.5,-360 42.5,-330 141.5,-330 141.5,-360"/>
<text text-anchor="start" x="50.5" y="-348" font-family="Helvetica,sans-Serif" font-size="10.00">contrib/libio&#45;io/l4</text>
<text text-anchor="middle" x="92" y="-337" font-family="Helvetica,sans-Serif" font-size="10.00">/io/io.h</text>
</a>
</g>
</g>
<!-- Node2 -->
<g id="Node000002" class="node">
<title>Node2</title>
<g id="a_Node000002"><a xlink:href="l4_2sys_2types_8h.html" target="_top" xlink:title="Common L4 ABI Data Types.">
<polygon fill="white" stroke="#666666" points="222,-184 138,-184 138,-165 222,-165 222,-184"/>
<text text-anchor="middle" x="180" y="-172" font-family="Helvetica,sans-Serif" font-size="10.00">l4/sys/types.h</text>
</a>
</g>
</g>
<!-- Node1&#45;&gt;Node2 -->
<g id="edge1_Node000001_Node000002" class="edge">
<title>Node1&#45;&gt;Node2</title>
<g id="a_edge1_Node000001_Node000002"><a xlink:title=" ">
<path fill="none" stroke="#63b8ff" d="M90.6,-329.67C88.92,-305.13 88.73,-254.36 111,-220 119.94,-206.2 134.84,-195.8 148.51,-188.54"/>
<polygon fill="#63b8ff" stroke="#63b8ff" points="150.27,-191.57 157.69,-184.01 147.17,-185.3 150.27,-191.57"/>
</a>
</g>
</g>
<!-- Node5 -->
<g id="Node000005" class="node">
<title>Node5</title>
<g id="a_Node000005"><a xlink:title=" ">
<polygon fill="#e0e0e0" stroke="#999999" points="163,-19 71,-19 71,0 163,0 163,-19"/>
<text text-anchor="middle" x="117" y="-7" font-family="Helvetica,sans-Serif" font-size="10.00">l4/sys/linkage.h</text>
</a>
</g>
</g>
<!-- Node1&#45;&gt;Node5 -->
<g id="edge13_Node000001_Node000005" class="edge">
<title>Node1&#45;&gt;Node5</title>
<g id="a_edge13_Node000001_Node000005"><a xlink:title=" ">
<path fill="none" stroke="#63b8ff" d="M69.26,-329.78C42.01,-310.79 0,-274.38 0,-230.5 0,-230.5 0,-230.5 0,-118.5 0,-71.75 51.05,-39.64 85.71,-23.23"/>
<polygon fill="#63b8ff" stroke="#63b8ff" points="87.33,-26.33 94.99,-19.01 84.44,-19.96 87.33,-26.33"/>
</a>
</g>
</g>
<!-- Node9 -->
<g id="Node000009" class="node">
<title>Node9</title>
<g id="a_Node000009"><a xlink:href="contrib_2libio-io_2l4_2io_2types_8h_source.html" target="_top" xlink:title=" ">
<polygon fill="white" stroke="#666666" points="207.5,-294 130.5,-294 130.5,-275 207.5,-275 207.5,-294"/>
<text text-anchor="middle" x="169" y="-282" font-family="Helvetica,sans-Serif" font-size="10.00">l4/io/types.h</text>
</a>
</g>
</g>
<!-- Node1&#45;&gt;Node9 -->
<g id="edge14_Node000001_Node000009" class="edge">
<title>Node1&#45;&gt;Node9</title>
<g id="a_edge14_Node000001_Node000009"><a xlink:title=" ">
<path fill="none" stroke="#63b8ff" d="M110.64,-329.84C122.39,-320.91 137.53,-309.41 149.45,-300.35"/>
<polygon fill="#63b8ff" stroke="#63b8ff" points="151.62,-303.1 157.46,-294.27 147.38,-297.53 151.62,-303.1"/>
</a>
</g>
</g>
<!-- Node3 -->
<g id="Node000003" class="node">
<title>Node3</title>
<g id="a_Node000003"><a xlink:href="l4_2sys_2l4int_8h.html" target="_top" xlink:title="Fixed sized integer types, generic version.">
<polygon fill="white" stroke="#666666" points="158.5,-74 79.5,-74 79.5,-55 158.5,-55 158.5,-74"/>
<text text-anchor="middle" x="119" y="-62" font-family="Helvetica,sans-Serif" font-size="10.00">l4/sys/l4int.h</text>
</a>
</g>
</g>
<!-- Node2&#45;&gt;Node3 -->
<g id="edge2_Node000002_Node000003" class="edge">
<title>Node2&#45;&gt;Node3</title>
<g id="a_edge2_Node000002_Node000003"><a xlink:title=" ">
<path fill="none" stroke="#63b8ff" d="M137.77,-170.3C109.83,-165.74 75.13,-154.84 57,-129 43.47,-109.71 68.23,-90.81 90.36,-78.71"/>
<polygon fill="#63b8ff" stroke="#63b8ff" points="91.97,-81.82 99.25,-74.12 88.76,-75.6 91.97,-81.82"/>
</a>
</g>
</g>
<!-- Node4 -->
<g id="Node000004" class="node">
<title>Node4</title>
<g id="a_Node000004"><a xlink:href="compiler_8h.html" target="_top" xlink:title="L4 compiler related defines.">
<polygon fill="white" stroke="#666666" points="284.5,-74 185.5,-74 185.5,-55 284.5,-55 284.5,-74"/>
<text text-anchor="middle" x="235" y="-62" font-family="Helvetica,sans-Serif" font-size="10.00">l4/sys/compiler.h</text>
</a>
</g>
</g>
<!-- Node2&#45;&gt;Node4 -->
<g id="edge3_Node000002_Node000004" class="edge">
<title>Node2&#45;&gt;Node4</title>
<g id="a_edge3_Node000002_Node000004"><a xlink:title=" ">
<path fill="none" stroke="#63b8ff" d="M222.12,-171.83C283.45,-168.41 392.71,-158.28 417,-129 453.36,-85.18 360.99,-71.56 294.95,-67.35"/>
<polygon fill="#63b8ff" stroke="#63b8ff" points="294.78,-63.83 284.6,-66.75 294.38,-70.82 294.78,-63.83"/>
</a>
</g>
</g>
<!-- Node6 -->
<g id="Node000006" class="node">
<title>Node6</title>
<g id="a_Node000006"><a xlink:href="l4_2sys_2consts_8h.html" target="_top" xlink:title="Common constants.">
<polygon fill="white" stroke="#666666" points="279.5,-129 190.5,-129 190.5,-110 279.5,-110 279.5,-129"/>
<text text-anchor="middle" x="235" y="-117" font-family="Helvetica,sans-Serif" font-size="10.00">l4/sys/consts.h</text>
</a>
</g>
</g>
<!-- Node2&#45;&gt;Node6 -->
<g id="edge5_Node000002_Node000006" class="edge">
<title>Node2&#45;&gt;Node6</title>
<g id="a_edge5_Node000002_Node000006"><a xlink:title=" ">
<path fill="none" stroke="#63b8ff" d="M189.08,-164.75C197.09,-157.03 208.96,-145.6 218.62,-136.28"/>
<polygon fill="#63b8ff" stroke="#63b8ff" points="221.31,-138.55 226.09,-129.09 216.46,-133.51 221.31,-138.55"/>
</a>
</g>
</g>
<!-- Node7 -->
<g id="Node000007" class="node">
<title>Node7</title>
<g id="a_Node000007"><a xlink:href="____l4__fpage_8h_source.html" target="_top" xlink:title=" ">
<polygon fill="white" stroke="#666666" points="408,-129 298,-129 298,-110 408,-110 408,-129"/>
<text text-anchor="middle" x="353" y="-117" font-family="Helvetica,sans-Serif" font-size="10.00">l4/sys/__l4_fpage.h</text>
</a>
</g>
</g>
<!-- Node2&#45;&gt;Node7 -->
<g id="edge8_Node000002_Node000007" class="edge">
<title>Node2&#45;&gt;Node7</title>
<g id="a_edge8_Node000002_Node000007"><a xlink:title=" ">
<path fill="none" stroke="#63b8ff" d="M207.8,-164.98C236.97,-156.05 283,-141.94 315.4,-132.02"/>
<polygon fill="#63b8ff" stroke="#63b8ff" points="316.45,-135.36 324.99,-129.08 314.4,-128.66 316.45,-135.36"/>
</a>
</g>
</g>
<!-- Node8 -->
<g id="Node000008" class="node">
<title>Node8</title>
<g id="a_Node000008"><a xlink:href="____timeout_8h_source.html" target="_top" xlink:title=" ">
<polygon fill="white" stroke="#666666" points="172,-129 66,-129 66,-110 172,-110 172,-129"/>
<text text-anchor="middle" x="119" y="-117" font-family="Helvetica,sans-Serif" font-size="10.00">l4/sys/__timeout.h</text>
</a>
</g>
</g>
<!-- Node2&#45;&gt;Node8 -->
<g id="edge10_Node000002_Node000008" class="edge">
<title>Node2&#45;&gt;Node8</title>
<g id="a_edge10_Node000002_Node000008"><a xlink:title=" ">
<path fill="none" stroke="#63b8ff" d="M170.2,-164.98C161.18,-157.15 147.59,-145.34 136.68,-135.86"/>
<polygon fill="#63b8ff" stroke="#63b8ff" points="138.82,-133.09 128.98,-129.17 134.23,-138.37 138.82,-133.09"/>
</a>
</g>
</g>
<!-- Node4&#45;&gt;Node5 -->
<g id="edge4_Node000004_Node000005" class="edge">
<title>Node4&#45;&gt;Node5</title>
<g id="a_edge4_Node000004_Node000005"><a xlink:title=" ">
<path fill="none" stroke="#63b8ff" d="M216.04,-54.98C196.97,-46.42 167.34,-33.11 145.45,-23.28"/>
<polygon fill="#63b8ff" stroke="#63b8ff" points="146.86,-20.07 136.3,-19.17 143.99,-26.46 146.86,-20.07"/>
</a>
</g>
</g>
<!-- Node6&#45;&gt;Node3 -->
<g id="edge7_Node000006_Node000003" class="edge">
<title>Node6&#45;&gt;Node3</title>
<g id="a_edge7_Node000006_Node000003"><a xlink:title=" ">
<path fill="none" stroke="#63b8ff" d="M216.36,-109.98C197.7,-101.46 168.75,-88.23 147.26,-78.41"/>
<polygon fill="#63b8ff" stroke="#63b8ff" points="148.53,-75.14 137.98,-74.17 145.62,-81.51 148.53,-75.14"/>
</a>
</g>
</g>
<!-- Node6&#45;&gt;Node4 -->
<g id="edge6_Node000006_Node000004" class="edge">
<title>Node6&#45;&gt;Node4</title>
<g id="a_edge6_Node000006_Node000004"><a xlink:title=" ">
<path fill="none" stroke="#63b8ff" d="M235,-109.75C235,-102.8 235,-92.85 235,-84.13"/>
<polygon fill="#63b8ff" stroke="#63b8ff" points="238.5,-84.09 235,-74.09 231.5,-84.09 238.5,-84.09"/>
</a>
</g>
</g>
<!-- Node7&#45;&gt;Node4 -->
<g id="edge9_Node000007_Node000004" class="edge">
<title>Node7&#45;&gt;Node4</title>
<g id="a_edge9_Node000007_Node000004"><a xlink:title=" ">
<path fill="none" stroke="#63b8ff" d="M334.04,-109.98C314.97,-101.42 285.34,-88.11 263.45,-78.28"/>
<polygon fill="#63b8ff" stroke="#63b8ff" points="264.86,-75.07 254.3,-74.17 261.99,-81.46 264.86,-75.07"/>
</a>
</g>
</g>
<!-- Node8&#45;&gt;Node3 -->
<g id="edge11_Node000008_Node000003" class="edge">
<title>Node8&#45;&gt;Node3</title>
<g id="a_edge11_Node000008_Node000003"><a xlink:title=" ">
<path fill="none" stroke="#63b8ff" d="M119,-109.75C119,-102.8 119,-92.85 119,-84.13"/>
<polygon fill="#63b8ff" stroke="#63b8ff" points="122.5,-84.09 119,-74.09 115.5,-84.09 122.5,-84.09"/>
</a>
</g>
</g>
<!-- Node8&#45;&gt;Node4 -->
<g id="edge12_Node000008_Node000004" class="edge">
<title>Node8&#45;&gt;Node4</title>
<g id="a_edge12_Node000008_Node000004"><a xlink:title=" ">
<path fill="none" stroke="#63b8ff" d="M137.64,-109.98C156.3,-101.46 185.25,-88.23 206.74,-78.41"/>
<polygon fill="#63b8ff" stroke="#63b8ff" points="208.38,-81.51 216.02,-74.17 205.47,-75.14 208.38,-81.51"/>
</a>
</g>
</g>
<!-- Node10 -->
<g id="Node000010" class="node">
<title>Node10</title>
<g id="a_Node000010"><a xlink:href="vbus__types_8h.html" target="_top" xlink:title="This header file contains descriptions of vbus related data types and constants.">
<polygon fill="white" stroke="#666666" points="239.5,-239 120.5,-239 120.5,-220 239.5,-220 239.5,-239"/>
<text text-anchor="middle" x="180" y="-227" font-family="Helvetica,sans-Serif" font-size="10.00">l4/vbus/vbus_types.h</text>
</a>
</g>
</g>
<!-- Node9&#45;&gt;Node10 -->
<g id="edge15_Node000009_Node000010" class="edge">
<title>Node9&#45;&gt;Node10</title>
<g id="a_edge15_Node000009_Node000010"><a xlink:title=" ">
<path fill="none" stroke="#63b8ff" d="M170.82,-274.75C172.26,-267.8 174.32,-257.85 176.13,-249.13"/>
<polygon fill="#63b8ff" stroke="#63b8ff" points="179.61,-249.59 178.22,-239.09 172.76,-248.17 179.61,-249.59"/>
</a>
</g>
</g>
<!-- Node10&#45;&gt;Node2 -->
<g id="edge16_Node000010_Node000002" class="edge">
<title>Node10&#45;&gt;Node2</title>
<g id="a_edge16_Node000010_Node000002"><a xlink:title=" ">
<path fill="none" stroke="#63b8ff" d="M180,-219.75C180,-212.8 180,-202.85 180,-194.13"/>
<polygon fill="#63b8ff" stroke="#63b8ff" points="183.5,-194.09 180,-184.09 176.5,-194.09 183.5,-194.09"/>
</a>
</g>
</g>
</g>
</svg>
