<?xml version="1.0" encoding="UTF-8" standalone="no"?>
<!DOCTYPE svg PUBLIC "-//W3C//DTD SVG 1.1//EN"
 "http://www.w3.org/Graphics/SVG/1.1/DTD/svg11.dtd">
<!-- Generated by graphviz version 2.42.4 (0)
 -->
<!-- Title: l4/sys/cxx/ipc_iface Pages: 1 -->
<svg width="486pt" height="522pt"
 viewBox="0.00 0.00 486.48 522.00" xmlns="http://www.w3.org/2000/svg" xmlns:xlink="http://www.w3.org/1999/xlink">
<g id="graph0" class="graph" transform="scale(1 1) rotate(0) translate(4 518)">
<title>l4/sys/cxx/ipc_iface</title>
<!-- Node1 -->
<g id="Node000001" class="node">
<title>Node1</title>
<g id="a_Node000001"><a xlink:title="Interface Definition Language.">
<polygon fill="#999999" stroke="#666666" points="263,-514 151,-514 151,-495 263,-495 263,-514"/>
<text text-anchor="middle" x="207" y="-502" font-family="Helvetica,sans-Serif" font-size="10.00">l4/sys/cxx/ipc_iface</text>
</a>
</g>
</g>
<!-- Node2 -->
<g id="Node000002" class="node">
<title>Node2</title>
<g id="a_Node000002"><a xlink:href="ipc__basics_source.html" target="_top" xlink:title=" ">
<polygon fill="white" stroke="#666666" points="190.5,-404 71.5,-404 71.5,-385 190.5,-385 190.5,-404"/>
<text text-anchor="middle" x="131" y="-392" font-family="Helvetica,sans-Serif" font-size="10.00">l4/sys/cxx/ipc_basics</text>
</a>
</g>
</g>
<!-- Node1&#45;&gt;Node2 -->
<g id="edge1_Node000001_Node000002" class="edge">
<title>Node1&#45;&gt;Node2</title>
<g id="a_edge1_Node000001_Node000002"><a xlink:title=" ">
<path fill="none" stroke="#63b8ff" d="M188.03,-494.98C173.68,-487.54 154.7,-475.37 144,-459 135.25,-445.61 132.21,-427.5 131.23,-414.05"/>
<polygon fill="#63b8ff" stroke="#63b8ff" points="134.73,-413.9 130.82,-404.05 127.74,-414.19 134.73,-413.9"/>
</a>
</g>
</g>
<!-- Node13 -->
<g id="Node000013" class="node">
<title>Node13</title>
<g id="a_Node000013"><a xlink:href="ipc__types.html" target="_top" xlink:title=" ">
<polygon fill="white" stroke="#666666" points="394.5,-459 279.5,-459 279.5,-440 394.5,-440 394.5,-459"/>
<text text-anchor="middle" x="337" y="-447" font-family="Helvetica,sans-Serif" font-size="10.00">l4/sys/cxx/ipc_types</text>
</a>
</g>
</g>
<!-- Node1&#45;&gt;Node13 -->
<g id="edge20_Node000001_Node000013" class="edge">
<title>Node1&#45;&gt;Node13</title>
<g id="a_edge20_Node000001_Node000013"><a xlink:title=" ">
<path fill="none" stroke="#63b8ff" d="M227.89,-494.98C249.08,-486.34 282.13,-472.87 306.3,-463.02"/>
<polygon fill="#63b8ff" stroke="#63b8ff" points="307.79,-466.19 315.73,-459.17 305.15,-459.7 307.79,-466.19"/>
</a>
</g>
</g>
<!-- Node17 -->
<g id="Node000017" class="node">
<title>Node17</title>
<g id="a_Node000017"><a xlink:href="____typeinfo_8h.html" target="_top" xlink:title="Type information handling.">
<polygon fill="white" stroke="#666666" points="261,-459 153,-459 153,-440 261,-440 261,-459"/>
<text text-anchor="middle" x="207" y="-447" font-family="Helvetica,sans-Serif" font-size="10.00">l4/sys/__typeinfo.h</text>
</a>
</g>
</g>
<!-- Node1&#45;&gt;Node17 -->
<g id="edge33_Node000001_Node000017" class="edge">
<title>Node1&#45;&gt;Node17</title>
<g id="a_edge33_Node000001_Node000017"><a xlink:title=" ">
<path fill="none" stroke="#63b8ff" d="M207,-494.75C207,-487.8 207,-477.85 207,-469.13"/>
<polygon fill="#63b8ff" stroke="#63b8ff" points="210.5,-469.09 207,-459.09 203.5,-469.09 210.5,-469.09"/>
</a>
</g>
</g>
<!-- Node3 -->
<g id="Node000003" class="node">
<title>Node3</title>
<g id="a_Node000003"><a xlink:href="types.html" target="_top" xlink:title=" ">
<polygon fill="white" stroke="#666666" points="227,-349 183,-349 183,-330 227,-330 227,-349"/>
<text text-anchor="middle" x="205" y="-337" font-family="Helvetica,sans-Serif" font-size="10.00">types</text>
</a>
</g>
</g>
<!-- Node2&#45;&gt;Node3 -->
<g id="edge2_Node000002_Node000003" class="edge">
<title>Node2&#45;&gt;Node3</title>
<g id="a_edge2_Node000002_Node000003"><a xlink:title=" ">
<path fill="none" stroke="#63b8ff" d="M142.89,-384.98C154.15,-376.92 171.29,-364.65 184.71,-355.03"/>
<polygon fill="#63b8ff" stroke="#63b8ff" points="186.8,-357.84 192.89,-349.17 182.73,-352.15 186.8,-357.84"/>
</a>
</g>
</g>
<!-- Node4 -->
<g id="Node000004" class="node">
<title>Node4</title>
<g id="a_Node000004"><a xlink:href="l4_2sys_2utcb_8h.html" target="_top" xlink:title="UTCB definitions.">
<polygon fill="white" stroke="#666666" points="247,-239 169,-239 169,-220 247,-220 247,-239"/>
<text text-anchor="middle" x="208" y="-227" font-family="Helvetica,sans-Serif" font-size="10.00">l4/sys/utcb.h</text>
</a>
</g>
</g>
<!-- Node2&#45;&gt;Node4 -->
<g id="edge3_Node000002_Node000004" class="edge">
<title>Node2&#45;&gt;Node4</title>
<g id="a_edge3_Node000002_Node000004"><a xlink:title=" ">
<path fill="none" stroke="#63b8ff" d="M135.14,-384.74C147.26,-359.09 182.83,-283.78 199.37,-248.78"/>
<polygon fill="#63b8ff" stroke="#63b8ff" points="202.73,-249.84 203.84,-239.31 196.4,-246.85 202.73,-249.84"/>
</a>
</g>
</g>
<!-- Node12 -->
<g id="Node000012" class="node">
<title>Node12</title>
<g id="a_Node000012"><a xlink:href="err_8h.html" target="_top" xlink:title="Error codes.">
<polygon fill="white" stroke="#666666" points="70,-239 0,-239 0,-220 70,-220 70,-239"/>
<text text-anchor="middle" x="35" y="-227" font-family="Helvetica,sans-Serif" font-size="10.00">l4/sys/err.h</text>
</a>
</g>
</g>
<!-- Node2&#45;&gt;Node12 -->
<g id="edge18_Node000002_Node000012" class="edge">
<title>Node2&#45;&gt;Node12</title>
<g id="a_edge18_Node000002_Node000012"><a xlink:title=" ">
<path fill="none" stroke="#63b8ff" d="M122.56,-384.95C106.9,-368.62 73.17,-331.3 54,-294 46.68,-279.75 41.7,-262.22 38.68,-249.19"/>
<polygon fill="#63b8ff" stroke="#63b8ff" points="42.04,-248.14 36.53,-239.1 35.19,-249.61 42.04,-248.14"/>
</a>
</g>
</g>
<!-- Node5 -->
<g id="Node000005" class="node">
<title>Node5</title>
<g id="a_Node000005"><a xlink:href="l4_2sys_2types_8h.html" target="_top" xlink:title="Common L4 ABI Data Types.">
<polygon fill="white" stroke="#666666" points="308,-184 224,-184 224,-165 308,-165 308,-184"/>
<text text-anchor="middle" x="266" y="-172" font-family="Helvetica,sans-Serif" font-size="10.00">l4/sys/types.h</text>
</a>
</g>
</g>
<!-- Node4&#45;&gt;Node5 -->
<g id="edge4_Node000004_Node000005" class="edge">
<title>Node4&#45;&gt;Node5</title>
<g id="a_edge4_Node000004_Node000005"><a xlink:title=" ">
<path fill="none" stroke="#63b8ff" d="M217.32,-219.98C225.81,-212.23 238.56,-200.58 248.88,-191.14"/>
<polygon fill="#63b8ff" stroke="#63b8ff" points="251.49,-193.5 256.51,-184.17 246.77,-188.33 251.49,-193.5"/>
</a>
</g>
</g>
<!-- Node6 -->
<g id="Node000006" class="node">
<title>Node6</title>
<g id="a_Node000006"><a xlink:href="l4_2sys_2l4int_8h.html" target="_top" xlink:title="Fixed sized integer types, generic version.">
<polygon fill="white" stroke="#666666" points="422.5,-74 343.5,-74 343.5,-55 422.5,-55 422.5,-74"/>
<text text-anchor="middle" x="383" y="-62" font-family="Helvetica,sans-Serif" font-size="10.00">l4/sys/l4int.h</text>
</a>
</g>
</g>
<!-- Node4&#45;&gt;Node6 -->
<g id="edge17_Node000004_Node000006" class="edge">
<title>Node4&#45;&gt;Node6</title>
<g id="a_edge17_Node000004_Node000006"><a xlink:title=" ">
<path fill="none" stroke="#63b8ff" d="M247.02,-227.01C307.5,-222.33 422.29,-203.55 474,-129 490.3,-105.5 457.1,-87.91 426.33,-77.27"/>
<polygon fill="#63b8ff" stroke="#63b8ff" points="427.08,-73.83 416.49,-74.06 424.91,-80.49 427.08,-73.83"/>
</a>
</g>
</g>
<!-- Node7 -->
<g id="Node000007" class="node">
<title>Node7</title>
<g id="a_Node000007"><a xlink:href="compiler_8h.html" target="_top" xlink:title="L4 compiler related defines.">
<polygon fill="white" stroke="#666666" points="193.5,-74 94.5,-74 94.5,-55 193.5,-55 193.5,-74"/>
<text text-anchor="middle" x="144" y="-62" font-family="Helvetica,sans-Serif" font-size="10.00">l4/sys/compiler.h</text>
</a>
</g>
</g>
<!-- Node4&#45;&gt;Node7 -->
<g id="edge16_Node000004_Node000007" class="edge">
<title>Node4&#45;&gt;Node7</title>
<g id="a_edge16_Node000004_Node000007"><a xlink:title=" ">
<path fill="none" stroke="#63b8ff" d="M174.91,-219.98C134.33,-207.56 67.34,-180.17 38,-129 23.04,-102.92 56.24,-86.36 89.35,-76.72"/>
<polygon fill="#63b8ff" stroke="#63b8ff" points="90.37,-80.06 99.1,-74.06 88.53,-73.31 90.37,-80.06"/>
</a>
</g>
</g>
<!-- Node5&#45;&gt;Node6 -->
<g id="edge5_Node000005_Node000006" class="edge">
<title>Node5&#45;&gt;Node6</title>
<g id="a_edge5_Node000005_Node000006"><a xlink:title=" ">
<path fill="none" stroke="#63b8ff" d="M280,-164.81C293.05,-156.41 312.73,-142.93 328,-129 343.91,-114.48 359.76,-95.59 370.33,-82.19"/>
<polygon fill="#63b8ff" stroke="#63b8ff" points="373.1,-84.33 376.46,-74.29 367.57,-80.04 373.1,-84.33"/>
</a>
</g>
</g>
<!-- Node5&#45;&gt;Node7 -->
<g id="edge6_Node000005_Node000007" class="edge">
<title>Node5&#45;&gt;Node7</title>
<g id="a_edge6_Node000005_Node000007"><a xlink:title=" ">
<path fill="none" stroke="#63b8ff" d="M252.63,-164.98C239.69,-156.5 219.76,-142.77 204,-129 187.14,-114.26 169.76,-95.4 158.08,-82.08"/>
<polygon fill="#63b8ff" stroke="#63b8ff" points="160.48,-79.49 151.29,-74.22 155.18,-84.07 160.48,-79.49"/>
</a>
</g>
</g>
<!-- Node9 -->
<g id="Node000009" class="node">
<title>Node9</title>
<g id="a_Node000009"><a xlink:href="l4_2sys_2consts_8h.html" target="_top" xlink:title="Common constants.">
<polygon fill="white" stroke="#666666" points="464.5,-129 375.5,-129 375.5,-110 464.5,-110 464.5,-129"/>
<text text-anchor="middle" x="420" y="-117" font-family="Helvetica,sans-Serif" font-size="10.00">l4/sys/consts.h</text>
</a>
</g>
</g>
<!-- Node5&#45;&gt;Node9 -->
<g id="edge8_Node000005_Node000009" class="edge">
<title>Node5&#45;&gt;Node9</title>
<g id="a_edge8_Node000005_Node000009"><a xlink:title=" ">
<path fill="none" stroke="#63b8ff" d="M290.74,-164.98C316.37,-156.16 356.63,-142.31 385.41,-132.41"/>
<polygon fill="#63b8ff" stroke="#63b8ff" points="386.75,-135.65 395.06,-129.08 384.47,-129.03 386.75,-135.65"/>
</a>
</g>
</g>
<!-- Node10 -->
<g id="Node000010" class="node">
<title>Node10</title>
<g id="a_Node000010"><a xlink:href="____l4__fpage_8h_source.html" target="_top" xlink:title=" ">
<polygon fill="white" stroke="#666666" points="157,-129 47,-129 47,-110 157,-110 157,-129"/>
<text text-anchor="middle" x="102" y="-117" font-family="Helvetica,sans-Serif" font-size="10.00">l4/sys/__l4_fpage.h</text>
</a>
</g>
</g>
<!-- Node5&#45;&gt;Node10 -->
<g id="edge11_Node000005_Node000010" class="edge">
<title>Node5&#45;&gt;Node10</title>
<g id="a_edge11_Node000005_Node000010"><a xlink:title=" ">
<path fill="none" stroke="#63b8ff" d="M239.65,-164.98C212.24,-156.13 169.11,-142.19 138.44,-132.28"/>
<polygon fill="#63b8ff" stroke="#63b8ff" points="139.15,-128.83 128.56,-129.08 137,-135.49 139.15,-128.83"/>
</a>
</g>
</g>
<!-- Node11 -->
<g id="Node000011" class="node">
<title>Node11</title>
<g id="a_Node000011"><a xlink:href="____timeout_8h_source.html" target="_top" xlink:title=" ">
<polygon fill="white" stroke="#666666" points="319,-129 213,-129 213,-110 319,-110 319,-129"/>
<text text-anchor="middle" x="266" y="-117" font-family="Helvetica,sans-Serif" font-size="10.00">l4/sys/__timeout.h</text>
</a>
</g>
</g>
<!-- Node5&#45;&gt;Node11 -->
<g id="edge13_Node000005_Node000011" class="edge">
<title>Node5&#45;&gt;Node11</title>
<g id="a_edge13_Node000005_Node000011"><a xlink:title=" ">
<path fill="none" stroke="#63b8ff" d="M266,-164.75C266,-157.8 266,-147.85 266,-139.13"/>
<polygon fill="#63b8ff" stroke="#63b8ff" points="269.5,-139.09 266,-129.09 262.5,-139.09 269.5,-139.09"/>
</a>
</g>
</g>
<!-- Node8 -->
<g id="Node000008" class="node">
<title>Node8</title>
<g id="a_Node000008"><a xlink:title=" ">
<polygon fill="#e0e0e0" stroke="#999999" points="190,-19 98,-19 98,0 190,0 190,-19"/>
<text text-anchor="middle" x="144" y="-7" font-family="Helvetica,sans-Serif" font-size="10.00">l4/sys/linkage.h</text>
</a>
</g>
</g>
<!-- Node7&#45;&gt;Node8 -->
<g id="edge7_Node000007_Node000008" class="edge">
<title>Node7&#45;&gt;Node8</title>
<g id="a_edge7_Node000007_Node000008"><a xlink:title=" ">
<path fill="none" stroke="#63b8ff" d="M144,-54.75C144,-47.8 144,-37.85 144,-29.13"/>
<polygon fill="#63b8ff" stroke="#63b8ff" points="147.5,-29.09 144,-19.09 140.5,-29.09 147.5,-29.09"/>
</a>
</g>
</g>
<!-- Node9&#45;&gt;Node6 -->
<g id="edge10_Node000009_Node000006" class="edge">
<title>Node9&#45;&gt;Node6</title>
<g id="a_edge10_Node000009_Node000006"><a xlink:title=" ">
<path fill="none" stroke="#63b8ff" d="M413.89,-109.75C408.72,-102.34 401.15,-91.5 394.81,-82.41"/>
<polygon fill="#63b8ff" stroke="#63b8ff" points="397.59,-80.29 389,-74.09 391.85,-84.29 397.59,-80.29"/>
</a>
</g>
</g>
<!-- Node9&#45;&gt;Node7 -->
<g id="edge9_Node000009_Node000007" class="edge">
<title>Node9&#45;&gt;Node7</title>
<g id="a_edge9_Node000009_Node000007"><a xlink:title=" ">
<path fill="none" stroke="#63b8ff" d="M375.66,-109.98C327.51,-100.74 250.58,-85.97 198.71,-76.01"/>
<polygon fill="#63b8ff" stroke="#63b8ff" points="199.17,-72.53 188.69,-74.08 197.85,-79.41 199.17,-72.53"/>
</a>
</g>
</g>
<!-- Node10&#45;&gt;Node7 -->
<g id="edge12_Node000010_Node000007" class="edge">
<title>Node10&#45;&gt;Node7</title>
<g id="a_edge12_Node000010_Node000007"><a xlink:title=" ">
<path fill="none" stroke="#63b8ff" d="M108.94,-109.75C114.87,-102.26 123.57,-91.28 130.82,-82.13"/>
<polygon fill="#63b8ff" stroke="#63b8ff" points="133.73,-84.1 137.19,-74.09 128.24,-79.75 133.73,-84.1"/>
</a>
</g>
</g>
<!-- Node11&#45;&gt;Node6 -->
<g id="edge14_Node000011_Node000006" class="edge">
<title>Node11&#45;&gt;Node6</title>
<g id="a_edge14_Node000011_Node000006"><a xlink:title=" ">
<path fill="none" stroke="#63b8ff" d="M284.8,-109.98C303.62,-101.46 332.82,-88.23 354.5,-78.41"/>
<polygon fill="#63b8ff" stroke="#63b8ff" points="356.2,-81.48 363.86,-74.17 353.31,-75.11 356.2,-81.48"/>
</a>
</g>
</g>
<!-- Node11&#45;&gt;Node7 -->
<g id="edge15_Node000011_Node000007" class="edge">
<title>Node11&#45;&gt;Node7</title>
<g id="a_edge15_Node000011_Node000007"><a xlink:title=" ">
<path fill="none" stroke="#63b8ff" d="M246.4,-109.98C226.68,-101.42 196.05,-88.11 173.42,-78.28"/>
<polygon fill="#63b8ff" stroke="#63b8ff" points="174.52,-74.94 163.96,-74.17 171.74,-81.37 174.52,-74.94"/>
</a>
</g>
</g>
<!-- Node12&#45;&gt;Node7 -->
<g id="edge19_Node000012_Node000007" class="edge">
<title>Node12&#45;&gt;Node7</title>
<g id="a_edge19_Node000012_Node000007"><a xlink:title=" ">
<path fill="none" stroke="#63b8ff" d="M31.53,-219.81C23.78,-198.81 7.48,-144.54 31,-110 43.29,-91.95 64.14,-81.22 84.61,-74.84"/>
<polygon fill="#63b8ff" stroke="#63b8ff" points="85.59,-78.2 94.27,-72.13 83.69,-71.46 85.59,-78.2"/>
</a>
</g>
</g>
<!-- Node13&#45;&gt;Node2 -->
<g id="edge32_Node000013_Node000002" class="edge">
<title>Node13&#45;&gt;Node2</title>
<g id="a_edge32_Node000013_Node000002"><a xlink:title=" ">
<path fill="none" stroke="#63b8ff" d="M303.9,-439.98C268.72,-430.93 212.93,-416.58 174.28,-406.64"/>
<polygon fill="#63b8ff" stroke="#63b8ff" points="174.91,-403.18 164.36,-404.08 173.17,-409.96 174.91,-403.18"/>
</a>
</g>
</g>
<!-- Node13&#45;&gt;Node3 -->
<g id="edge31_Node000013_Node000003" class="edge">
<title>Node13&#45;&gt;Node3</title>
<g id="a_edge31_Node000013_Node000003"><a xlink:title=" ">
<path fill="none" stroke="#63b8ff" d="M326.2,-439.66C303.65,-421.22 251.38,-378.45 223.42,-355.57"/>
<polygon fill="#63b8ff" stroke="#63b8ff" points="225.54,-352.78 215.58,-349.16 221.11,-358.2 225.54,-352.78"/>
</a>
</g>
</g>
<!-- Node14 -->
<g id="Node000014" class="node">
<title>Node14</title>
<g id="a_Node000014"><a xlink:href="capability_8h_source.html" target="_top" xlink:title=" ">
<polygon fill="white" stroke="#666666" points="373,-404 301,-404 301,-385 373,-385 373,-404"/>
<text text-anchor="middle" x="337" y="-392" font-family="Helvetica,sans-Serif" font-size="10.00">capability.h</text>
</a>
</g>
</g>
<!-- Node13&#45;&gt;Node14 -->
<g id="edge21_Node000013_Node000014" class="edge">
<title>Node13&#45;&gt;Node14</title>
<g id="a_edge21_Node000013_Node000014"><a xlink:title=" ">
<path fill="none" stroke="#63b8ff" d="M337,-439.75C337,-432.8 337,-422.85 337,-414.13"/>
<polygon fill="#63b8ff" stroke="#63b8ff" points="340.5,-414.09 337,-404.09 333.5,-414.09 340.5,-414.09"/>
</a>
</g>
</g>
<!-- Node14&#45;&gt;Node5 -->
<g id="edge23_Node000014_Node000005" class="edge">
<title>Node14&#45;&gt;Node5</title>
<g id="a_edge23_Node000014_Node000005"><a xlink:title=" ">
<path fill="none" stroke="#63b8ff" d="M337.2,-384.73C337.28,-372.35 336.7,-349.11 332,-330 319.22,-278.03 290.86,-221.2 275.81,-193.16"/>
<polygon fill="#63b8ff" stroke="#63b8ff" points="278.79,-191.31 270.93,-184.2 272.64,-194.66 278.79,-191.31"/>
</a>
</g>
</g>
<!-- Node14&#45;&gt;Node9 -->
<g id="edge22_Node000014_Node000009" class="edge">
<title>Node14&#45;&gt;Node9</title>
<g id="a_edge22_Node000014_Node000009"><a xlink:title=" ">
<path fill="none" stroke="#63b8ff" d="M348.88,-384.88C370.25,-368.26 413,-329.52 413,-285.5 413,-285.5 413,-285.5 413,-228.5 413,-197.12 415.98,-160.73 418.05,-139.21"/>
<polygon fill="#63b8ff" stroke="#63b8ff" points="421.54,-139.47 419.06,-129.17 414.58,-138.77 421.54,-139.47"/>
</a>
</g>
</g>
<!-- Node15 -->
<g id="Node000015" class="node">
<title>Node15</title>
<g id="a_Node000015"><a xlink:href="l4_2sys_2task_8h.html" target="_top" xlink:title="Common task related definitions.">
<polygon fill="white" stroke="#666666" points="323,-349 245,-349 245,-330 323,-330 323,-349"/>
<text text-anchor="middle" x="284" y="-337" font-family="Helvetica,sans-Serif" font-size="10.00">l4/sys/task.h</text>
</a>
</g>
</g>
<!-- Node14&#45;&gt;Node15 -->
<g id="edge24_Node000014_Node000015" class="edge">
<title>Node14&#45;&gt;Node15</title>
<g id="a_edge24_Node000014_Node000015"><a xlink:title=" ">
<path fill="none" stroke="#63b8ff" d="M328.25,-384.75C320.53,-377.03 309.1,-365.6 299.78,-356.28"/>
<polygon fill="#63b8ff" stroke="#63b8ff" points="302.14,-353.69 292.59,-349.09 297.19,-358.64 302.14,-353.69"/>
</a>
</g>
</g>
<!-- Node15&#45;&gt;Node4 -->
<g id="edge26_Node000015_Node000004" class="edge">
<title>Node15&#45;&gt;Node4</title>
<g id="a_edge26_Node000015_Node000004"><a xlink:title=" ">
<path fill="none" stroke="#63b8ff" d="M277.78,-329.66C265.14,-311.69 236.25,-270.64 219.88,-247.38"/>
<polygon fill="#63b8ff" stroke="#63b8ff" points="222.71,-245.32 214.09,-239.16 216.99,-249.35 222.71,-245.32"/>
</a>
</g>
</g>
<!-- Node15&#45;&gt;Node5 -->
<g id="edge25_Node000015_Node000005" class="edge">
<title>Node15&#45;&gt;Node5</title>
<g id="a_edge25_Node000015_Node000005"><a xlink:title=" ">
<path fill="none" stroke="#63b8ff" d="M283.03,-329.74C280.22,-304.31 272.03,-230.08 268.12,-194.69"/>
<polygon fill="#63b8ff" stroke="#63b8ff" points="271.55,-193.86 266.97,-184.31 264.59,-194.63 271.55,-193.86"/>
</a>
</g>
</g>
<!-- Node16 -->
<g id="Node000016" class="node">
<title>Node16</title>
<g id="a_Node000016"><a xlink:href="l4_2sys_2ipc_8h.html" target="_top" xlink:title="Common IPC interface.">
<polygon fill="white" stroke="#666666" points="134.5,-294 63.5,-294 63.5,-275 134.5,-275 134.5,-294"/>
<text text-anchor="middle" x="99" y="-282" font-family="Helvetica,sans-Serif" font-size="10.00">l4/sys/ipc.h</text>
</a>
</g>
</g>
<!-- Node15&#45;&gt;Node16 -->
<g id="edge27_Node000015_Node000016" class="edge">
<title>Node15&#45;&gt;Node16</title>
<g id="a_edge27_Node000015_Node000016"><a xlink:title=" ">
<path fill="none" stroke="#63b8ff" d="M254.28,-329.98C222.95,-321.01 173.43,-306.82 138.76,-296.89"/>
<polygon fill="#63b8ff" stroke="#63b8ff" points="139.53,-293.47 128.96,-294.08 137.61,-300.2 139.53,-293.47"/>
</a>
</g>
</g>
<!-- Node16&#45;&gt;Node4 -->
<g id="edge29_Node000016_Node000004" class="edge">
<title>Node16&#45;&gt;Node4</title>
<g id="a_edge29_Node000016_Node000004"><a xlink:title=" ">
<path fill="none" stroke="#63b8ff" d="M116.51,-274.98C133.97,-266.5 161.01,-253.35 181.17,-243.54"/>
<polygon fill="#63b8ff" stroke="#63b8ff" points="182.71,-246.69 190.17,-239.17 179.64,-240.4 182.71,-246.69"/>
</a>
</g>
</g>
<!-- Node16&#45;&gt;Node5 -->
<g id="edge28_Node000016_Node000005" class="edge">
<title>Node16&#45;&gt;Node5</title>
<g id="a_edge28_Node000016_Node000005"><a xlink:title=" ">
<path fill="none" stroke="#63b8ff" d="M105.59,-274.6C115.91,-261.2 137.06,-235.74 160,-220 180.6,-205.86 206.4,-194.91 227.38,-187.41"/>
<polygon fill="#63b8ff" stroke="#63b8ff" points="228.64,-190.68 236.95,-184.11 226.36,-184.06 228.64,-190.68"/>
</a>
</g>
</g>
<!-- Node16&#45;&gt;Node12 -->
<g id="edge30_Node000016_Node000012" class="edge">
<title>Node16&#45;&gt;Node12</title>
<g id="a_edge30_Node000016_Node000012"><a xlink:title=" ">
<path fill="none" stroke="#63b8ff" d="M88.72,-274.98C79.16,-267.07 64.72,-255.11 53.22,-245.58"/>
<polygon fill="#63b8ff" stroke="#63b8ff" points="55.4,-242.85 45.47,-239.17 50.94,-248.24 55.4,-242.85"/>
</a>
</g>
</g>
<!-- Node17&#45;&gt;Node2 -->
<g id="edge35_Node000017_Node000002" class="edge">
<title>Node17&#45;&gt;Node2</title>
<g id="a_edge35_Node000017_Node000002"><a xlink:title=" ">
<path fill="none" stroke="#63b8ff" d="M194.79,-439.98C183.22,-431.92 165.62,-419.65 151.84,-410.03"/>
<polygon fill="#63b8ff" stroke="#63b8ff" points="153.64,-407.02 143.43,-404.17 149.63,-412.76 153.64,-407.02"/>
</a>
</g>
</g>
<!-- Node17&#45;&gt;Node3 -->
<g id="edge34_Node000017_Node000003" class="edge">
<title>Node17&#45;&gt;Node3</title>
<g id="a_edge34_Node000017_Node000003"><a xlink:title=" ">
<path fill="none" stroke="#63b8ff" d="M206.84,-439.66C206.51,-422.17 205.78,-382.8 205.35,-359.27"/>
<polygon fill="#63b8ff" stroke="#63b8ff" points="208.84,-359.09 205.16,-349.16 201.85,-359.22 208.84,-359.09"/>
</a>
</g>
</g>
<!-- Node17&#45;&gt;Node14 -->
<g id="edge36_Node000017_Node000014" class="edge">
<title>Node17&#45;&gt;Node14</title>
<g id="a_edge36_Node000017_Node000014"><a xlink:title=" ">
<path fill="none" stroke="#63b8ff" d="M227.89,-439.98C249.08,-431.34 282.13,-417.87 306.3,-408.02"/>
<polygon fill="#63b8ff" stroke="#63b8ff" points="307.79,-411.19 315.73,-404.17 305.15,-404.7 307.79,-411.19"/>
</a>
</g>
</g>
</g>
</svg>
