<?xml version="1.0" encoding="UTF-8" standalone="no"?>
<!DOCTYPE svg PUBLIC "-//W3C//DTD SVG 1.1//EN"
 "http://www.w3.org/Graphics/SVG/1.1/DTD/svg11.dtd">
<!-- Generated by graphviz version 2.43.0 (0)
 -->
<!-- Title: l4/sys/cxx/ipc_client Pages: 1 -->
<svg width="553pt" height="577pt"
 viewBox="0.00 0.00 552.50 577.00" xmlns="http://www.w3.org/2000/svg" xmlns:xlink="http://www.w3.org/1999/xlink">
<g id="graph0" class="graph" transform="scale(1 1) rotate(0) translate(4 573)">
<title>l4/sys/cxx/ipc_client</title>
<!-- Node1 -->
<g id="Node000001" class="node">
<title>Node1</title>
<g id="a_Node000001"><a xlink:title=" ">
<polygon fill="#999999" stroke="#666666" points="461,-569 346,-569 346,-550 461,-550 461,-569"/>
<text text-anchor="middle" x="403.5" y="-557" font-family="Helvetica,sans-Serif" font-size="10.00">l4/sys/cxx/ipc_client</text>
</a>
</g>
</g>
<!-- Node2 -->
<g id="Node000002" class="node">
<title>Node2</title>
<g id="a_Node000002"><a xlink:href="ipc__basics_source.html" target="_top" xlink:title=" ">
<polygon fill="white" stroke="#666666" points="503,-404 384,-404 384,-385 503,-385 503,-404"/>
<text text-anchor="middle" x="443.5" y="-392" font-family="Helvetica,sans-Serif" font-size="10.00">l4/sys/cxx/ipc_basics</text>
</a>
</g>
</g>
<!-- Node1&#45;&gt;Node2 -->
<g id="edge1_Node000001_Node000002" class="edge">
<title>Node1&#45;&gt;Node2</title>
<g id="a_edge1_Node000001_Node000002"><a xlink:title=" ">
<path fill="none" stroke="#63b8ff" d="M425.62,-549.95C440.7,-542.82 459.51,-531.06 468.5,-514 485.91,-480.98 467.15,-436.77 454.01,-412.77"/>
<polygon fill="#63b8ff" stroke="#63b8ff" points="457.03,-411 449.01,-404.08 450.97,-414.49 457.03,-411"/>
</a>
</g>
</g>
<!-- Node12 -->
<g id="Node000012" class="node">
<title>Node12</title>
<g id="a_Node000012"><a xlink:href="err_8h.html" target="_top" xlink:title="Error codes.">
<polygon fill="white" stroke="#666666" points="544.5,-239 474.5,-239 474.5,-220 544.5,-220 544.5,-239"/>
<text text-anchor="middle" x="509.5" y="-227" font-family="Helvetica,sans-Serif" font-size="10.00">l4/sys/err.h</text>
</a>
</g>
</g>
<!-- Node1&#45;&gt;Node12 -->
<g id="edge40_Node000001_Node000012" class="edge">
<title>Node1&#45;&gt;Node12</title>
<g id="a_edge40_Node000001_Node000012"><a xlink:title=" ">
<path fill="none" stroke="#63b8ff" d="M429.4,-549.91C466.8,-535.68 531.5,-503.42 531.5,-450.5 531.5,-450.5 531.5,-450.5 531.5,-338.5 531.5,-306.4 522.05,-269.99 515.54,-248.71"/>
<polygon fill="#63b8ff" stroke="#63b8ff" points="518.84,-247.53 512.47,-239.06 512.17,-249.65 518.84,-247.53"/>
</a>
</g>
</g>
<!-- Node13 -->
<g id="Node000013" class="node">
<title>Node13</title>
<g id="a_Node000013"><a xlink:href="ipc__types.html" target="_top" xlink:title=" ">
<polygon fill="white" stroke="#666666" points="295,-459 180,-459 180,-440 295,-440 295,-459"/>
<text text-anchor="middle" x="237.5" y="-447" font-family="Helvetica,sans-Serif" font-size="10.00">l4/sys/cxx/ipc_types</text>
</a>
</g>
</g>
<!-- Node1&#45;&gt;Node13 -->
<g id="edge19_Node000001_Node000013" class="edge">
<title>Node1&#45;&gt;Node13</title>
<g id="a_edge19_Node000001_Node000013"><a xlink:title=" ">
<path fill="none" stroke="#63b8ff" d="M389.55,-549.92C375.17,-541.05 352.16,-526.73 332.5,-514 306.77,-497.34 277.49,-477.66 258.32,-464.67"/>
<polygon fill="#63b8ff" stroke="#63b8ff" points="260.26,-461.76 250.02,-459.04 256.33,-467.55 260.26,-461.76"/>
</a>
</g>
</g>
<!-- Node17 -->
<g id="Node000017" class="node">
<title>Node17</title>
<g id="a_Node000017"><a xlink:href="ipc__iface.html" target="_top" xlink:title="Interface Definition Language.">
<polygon fill="white" stroke="#666666" points="459.5,-514 347.5,-514 347.5,-495 459.5,-495 459.5,-514"/>
<text text-anchor="middle" x="403.5" y="-502" font-family="Helvetica,sans-Serif" font-size="10.00">l4/sys/cxx/ipc_iface</text>
</a>
</g>
</g>
<!-- Node1&#45;&gt;Node17 -->
<g id="edge32_Node000001_Node000017" class="edge">
<title>Node1&#45;&gt;Node17</title>
<g id="a_edge32_Node000001_Node000017"><a xlink:title=" ">
<path fill="none" stroke="#63b8ff" d="M403.5,-549.75C403.5,-542.8 403.5,-532.85 403.5,-524.13"/>
<polygon fill="#63b8ff" stroke="#63b8ff" points="407,-524.09 403.5,-514.09 400,-524.09 407,-524.09"/>
</a>
</g>
</g>
<!-- Node18 -->
<g id="Node000018" class="node">
<title>Node18</title>
<g id="a_Node000018"><a xlink:href="____typeinfo_8h.html" target="_top" xlink:title="Type information handling.">
<polygon fill="white" stroke="#666666" points="421.5,-459 313.5,-459 313.5,-440 421.5,-440 421.5,-459"/>
<text text-anchor="middle" x="367.5" y="-447" font-family="Helvetica,sans-Serif" font-size="10.00">l4/sys/__typeinfo.h</text>
</a>
</g>
</g>
<!-- Node1&#45;&gt;Node18 -->
<g id="edge39_Node000001_Node000018" class="edge">
<title>Node1&#45;&gt;Node18</title>
<g id="a_edge39_Node000001_Node000018"><a xlink:title=" ">
<path fill="none" stroke="#63b8ff" d="M381.38,-549.95C366.3,-542.82 347.49,-531.06 338.5,-514 330.25,-498.35 340.84,-479.89 351.47,-466.92"/>
<polygon fill="#63b8ff" stroke="#63b8ff" points="354.24,-469.08 358.26,-459.28 349,-464.43 354.24,-469.08"/>
</a>
</g>
</g>
<!-- Node3 -->
<g id="Node000003" class="node">
<title>Node3</title>
<g id="a_Node000003"><a xlink:href="types.html" target="_top" xlink:title=" ">
<polygon fill="white" stroke="#666666" points="378.5,-349 334.5,-349 334.5,-330 378.5,-330 378.5,-349"/>
<text text-anchor="middle" x="356.5" y="-337" font-family="Helvetica,sans-Serif" font-size="10.00">types</text>
</a>
</g>
</g>
<!-- Node2&#45;&gt;Node3 -->
<g id="edge2_Node000002_Node000003" class="edge">
<title>Node2&#45;&gt;Node3</title>
<g id="a_edge2_Node000002_Node000003"><a xlink:title=" ">
<path fill="none" stroke="#63b8ff" d="M429.52,-384.98C416.03,-376.77 395.37,-364.18 379.46,-354.49"/>
<polygon fill="#63b8ff" stroke="#63b8ff" points="381.09,-351.38 370.73,-349.17 377.45,-357.36 381.09,-351.38"/>
</a>
</g>
</g>
<!-- Node4 -->
<g id="Node000004" class="node">
<title>Node4</title>
<g id="a_Node000004"><a xlink:href="l4_2sys_2utcb_8h.html" target="_top" xlink:title="UTCB definitions.">
<polygon fill="white" stroke="#666666" points="450.5,-239 372.5,-239 372.5,-220 450.5,-220 450.5,-239"/>
<text text-anchor="middle" x="411.5" y="-227" font-family="Helvetica,sans-Serif" font-size="10.00">l4/sys/utcb.h</text>
</a>
</g>
</g>
<!-- Node2&#45;&gt;Node4 -->
<g id="edge3_Node000002_Node000004" class="edge">
<title>Node2&#45;&gt;Node4</title>
<g id="a_edge3_Node000002_Node000004"><a xlink:title=" ">
<path fill="none" stroke="#63b8ff" d="M441.78,-384.74C436.77,-359.2 422.09,-284.43 415.18,-249.23"/>
<polygon fill="#63b8ff" stroke="#63b8ff" points="418.59,-248.45 413.23,-239.31 411.72,-249.79 418.59,-248.45"/>
</a>
</g>
</g>
<!-- Node2&#45;&gt;Node12 -->
<g id="edge17_Node000002_Node000012" class="edge">
<title>Node2&#45;&gt;Node12</title>
<g id="a_edge17_Node000002_Node000012"><a xlink:title=" ">
<path fill="none" stroke="#63b8ff" d="M447.05,-384.74C457.43,-359.09 487.93,-283.78 502.1,-248.78"/>
<polygon fill="#63b8ff" stroke="#63b8ff" points="505.43,-249.89 505.93,-239.31 498.94,-247.26 505.43,-249.89"/>
</a>
</g>
</g>
<!-- Node5 -->
<g id="Node000005" class="node">
<title>Node5</title>
<g id="a_Node000005"><a xlink:href="l4_2sys_2types_8h.html" target="_top" xlink:title="Common L4 ABI Data Types.">
<polygon fill="white" stroke="#666666" points="321.5,-184 237.5,-184 237.5,-165 321.5,-165 321.5,-184"/>
<text text-anchor="middle" x="279.5" y="-172" font-family="Helvetica,sans-Serif" font-size="10.00">l4/sys/types.h</text>
</a>
</g>
</g>
<!-- Node4&#45;&gt;Node5 -->
<g id="edge4_Node000004_Node000005" class="edge">
<title>Node4&#45;&gt;Node5</title>
<g id="a_edge4_Node000004_Node000005"><a xlink:title=" ">
<path fill="none" stroke="#63b8ff" d="M390.29,-219.98C368.77,-211.34 335.22,-197.87 310.67,-188.02"/>
<polygon fill="#63b8ff" stroke="#63b8ff" points="311.68,-184.65 301.09,-184.17 309.07,-191.14 311.68,-184.65"/>
</a>
</g>
</g>
<!-- Node6 -->
<g id="Node000006" class="node">
<title>Node6</title>
<g id="a_Node000006"><a xlink:href="l4_2sys_2l4int_8h.html" target="_top" xlink:title="Fixed sized integer types, generic version.">
<polygon fill="white" stroke="#666666" points="198,-74 119,-74 119,-55 198,-55 198,-74"/>
<text text-anchor="middle" x="158.5" y="-62" font-family="Helvetica,sans-Serif" font-size="10.00">l4/sys/l4int.h</text>
</a>
</g>
</g>
<!-- Node4&#45;&gt;Node6 -->
<g id="edge16_Node000004_Node000006" class="edge">
<title>Node4&#45;&gt;Node6</title>
<g id="a_edge16_Node000004_Node000006"><a xlink:title=" ">
<path fill="none" stroke="#63b8ff" d="M416.49,-219.81C428.09,-198.36 453.85,-142.27 426.5,-110 412.56,-93.55 281.74,-77.89 208.17,-70.29"/>
<polygon fill="#63b8ff" stroke="#63b8ff" points="208.49,-66.8 198.18,-69.27 207.78,-73.77 208.49,-66.8"/>
</a>
</g>
</g>
<!-- Node7 -->
<g id="Node000007" class="node">
<title>Node7</title>
<g id="a_Node000007"><a xlink:href="compiler_8h.html" target="_top" xlink:title="L4 compiler related defines.">
<polygon fill="white" stroke="#666666" points="412,-74 313,-74 313,-55 412,-55 412,-74"/>
<text text-anchor="middle" x="362.5" y="-62" font-family="Helvetica,sans-Serif" font-size="10.00">l4/sys/compiler.h</text>
</a>
</g>
</g>
<!-- Node4&#45;&gt;Node7 -->
<g id="edge15_Node000004_Node000007" class="edge">
<title>Node4&#45;&gt;Node7</title>
<g id="a_edge15_Node000004_Node000007"><a xlink:title=" ">
<path fill="none" stroke="#63b8ff" d="M415.81,-219.86C425.35,-199.44 445.9,-147.12 426.5,-110 419.39,-96.39 406.01,-86.1 393.31,-78.87"/>
<polygon fill="#63b8ff" stroke="#63b8ff" points="394.77,-75.68 384.29,-74.13 391.52,-81.88 394.77,-75.68"/>
</a>
</g>
</g>
<!-- Node5&#45;&gt;Node6 -->
<g id="edge5_Node000005_Node000006" class="edge">
<title>Node5&#45;&gt;Node6</title>
<g id="a_edge5_Node000005_Node000006"><a xlink:title=" ">
<path fill="none" stroke="#63b8ff" d="M237.31,-166.06C199.64,-158.45 148.6,-145.44 136.5,-129 126.17,-114.97 135.37,-95.71 144.84,-82.09"/>
<polygon fill="#63b8ff" stroke="#63b8ff" points="147.66,-84.15 150.89,-74.06 142.08,-79.94 147.66,-84.15"/>
</a>
</g>
</g>
<!-- Node5&#45;&gt;Node7 -->
<g id="edge6_Node000005_Node000007" class="edge">
<title>Node5&#45;&gt;Node7</title>
<g id="a_edge6_Node000005_Node000007"><a xlink:title=" ">
<path fill="none" stroke="#63b8ff" d="M280.26,-164.9C281.79,-151.9 286.21,-126.96 298.5,-110 307.89,-97.04 322.27,-86.55 335.02,-79.02"/>
<polygon fill="#63b8ff" stroke="#63b8ff" points="336.88,-81.99 343.92,-74.07 333.48,-75.87 336.88,-81.99"/>
</a>
</g>
</g>
<!-- Node9 -->
<g id="Node000009" class="node">
<title>Node9</title>
<g id="a_Node000009"><a xlink:href="l4_2sys_2consts_8h.html" target="_top" xlink:title="Common constants.">
<polygon fill="white" stroke="#666666" points="89,-129 0,-129 0,-110 89,-110 89,-129"/>
<text text-anchor="middle" x="44.5" y="-117" font-family="Helvetica,sans-Serif" font-size="10.00">l4/sys/consts.h</text>
</a>
</g>
</g>
<!-- Node5&#45;&gt;Node9 -->
<g id="edge8_Node000005_Node000009" class="edge">
<title>Node5&#45;&gt;Node9</title>
<g id="a_edge8_Node000005_Node000009"><a xlink:title=" ">
<path fill="none" stroke="#63b8ff" d="M241.74,-164.98C201.18,-155.84 136.61,-141.27 92.47,-131.32"/>
<polygon fill="#63b8ff" stroke="#63b8ff" points="93.08,-127.87 82.55,-129.08 91.54,-134.7 93.08,-127.87"/>
</a>
</g>
</g>
<!-- Node10 -->
<g id="Node000010" class="node">
<title>Node10</title>
<g id="a_Node000010"><a xlink:href="____l4__fpage_8h_source.html" target="_top" xlink:title=" ">
<polygon fill="white" stroke="#666666" points="417.5,-129 307.5,-129 307.5,-110 417.5,-110 417.5,-129"/>
<text text-anchor="middle" x="362.5" y="-117" font-family="Helvetica,sans-Serif" font-size="10.00">l4/sys/__l4_fpage.h</text>
</a>
</g>
</g>
<!-- Node5&#45;&gt;Node10 -->
<g id="edge11_Node000005_Node000010" class="edge">
<title>Node5&#45;&gt;Node10</title>
<g id="a_edge11_Node000005_Node000010"><a xlink:title=" ">
<path fill="none" stroke="#63b8ff" d="M292.84,-164.98C305.59,-156.84 325.05,-144.41 340.17,-134.76"/>
<polygon fill="#63b8ff" stroke="#63b8ff" points="342.38,-137.5 348.92,-129.17 338.61,-131.6 342.38,-137.5"/>
</a>
</g>
</g>
<!-- Node11 -->
<g id="Node000011" class="node">
<title>Node11</title>
<g id="a_Node000011"><a xlink:href="____timeout_8h_source.html" target="_top" xlink:title=" ">
<polygon fill="white" stroke="#666666" points="251.5,-129 145.5,-129 145.5,-110 251.5,-110 251.5,-129"/>
<text text-anchor="middle" x="198.5" y="-117" font-family="Helvetica,sans-Serif" font-size="10.00">l4/sys/__timeout.h</text>
</a>
</g>
</g>
<!-- Node5&#45;&gt;Node11 -->
<g id="edge13_Node000005_Node000011" class="edge">
<title>Node5&#45;&gt;Node11</title>
<g id="a_edge13_Node000005_Node000011"><a xlink:title=" ">
<path fill="none" stroke="#63b8ff" d="M266.49,-164.98C254.04,-156.84 235.04,-144.41 220.29,-134.76"/>
<polygon fill="#63b8ff" stroke="#63b8ff" points="222.04,-131.72 211.75,-129.17 218.2,-137.57 222.04,-131.72"/>
</a>
</g>
</g>
<!-- Node8 -->
<g id="Node000008" class="node">
<title>Node8</title>
<g id="a_Node000008"><a xlink:title=" ">
<polygon fill="#e0e0e0" stroke="#999999" points="408.5,-19 316.5,-19 316.5,0 408.5,0 408.5,-19"/>
<text text-anchor="middle" x="362.5" y="-7" font-family="Helvetica,sans-Serif" font-size="10.00">l4/sys/linkage.h</text>
</a>
</g>
</g>
<!-- Node7&#45;&gt;Node8 -->
<g id="edge7_Node000007_Node000008" class="edge">
<title>Node7&#45;&gt;Node8</title>
<g id="a_edge7_Node000007_Node000008"><a xlink:title=" ">
<path fill="none" stroke="#63b8ff" d="M362.5,-54.75C362.5,-47.8 362.5,-37.85 362.5,-29.13"/>
<polygon fill="#63b8ff" stroke="#63b8ff" points="366,-29.09 362.5,-19.09 359,-29.09 366,-29.09"/>
</a>
</g>
</g>
<!-- Node9&#45;&gt;Node6 -->
<g id="edge10_Node000009_Node000006" class="edge">
<title>Node9&#45;&gt;Node6</title>
<g id="a_edge10_Node000009_Node000006"><a xlink:title=" ">
<path fill="none" stroke="#63b8ff" d="M62.82,-109.98C81.16,-101.46 109.61,-88.23 130.73,-78.41"/>
<polygon fill="#63b8ff" stroke="#63b8ff" points="132.26,-81.56 139.85,-74.17 129.31,-75.21 132.26,-81.56"/>
</a>
</g>
</g>
<!-- Node9&#45;&gt;Node7 -->
<g id="edge9_Node000009_Node000007" class="edge">
<title>Node9&#45;&gt;Node7</title>
<g id="a_edge9_Node000009_Node000007"><a xlink:title=" ">
<path fill="none" stroke="#63b8ff" d="M89.05,-111.07C144.83,-101.78 240.59,-85.82 302.71,-75.47"/>
<polygon fill="#63b8ff" stroke="#63b8ff" points="303.47,-78.89 312.76,-73.79 302.32,-71.98 303.47,-78.89"/>
</a>
</g>
</g>
<!-- Node10&#45;&gt;Node7 -->
<g id="edge12_Node000010_Node000007" class="edge">
<title>Node10&#45;&gt;Node7</title>
<g id="a_edge12_Node000010_Node000007"><a xlink:title=" ">
<path fill="none" stroke="#63b8ff" d="M362.5,-109.75C362.5,-102.8 362.5,-92.85 362.5,-84.13"/>
<polygon fill="#63b8ff" stroke="#63b8ff" points="366,-84.09 362.5,-74.09 359,-84.09 366,-84.09"/>
</a>
</g>
</g>
<!-- Node11&#45;&gt;Node6 -->
<g id="edge14_Node000011_Node000006" class="edge">
<title>Node11&#45;&gt;Node6</title>
<g id="a_edge14_Node000011_Node000006"><a xlink:title=" ">
<path fill="none" stroke="#63b8ff" d="M191.89,-109.75C186.24,-102.26 177.96,-91.28 171.05,-82.13"/>
<polygon fill="#63b8ff" stroke="#63b8ff" points="173.8,-79.96 164.98,-74.09 168.21,-84.18 173.8,-79.96"/>
</a>
</g>
</g>
<!-- Node12&#45;&gt;Node7 -->
<g id="edge18_Node000012_Node000007" class="edge">
<title>Node12&#45;&gt;Node7</title>
<g id="a_edge18_Node000012_Node000007"><a xlink:title=" ">
<path fill="none" stroke="#63b8ff" d="M511.49,-219.89C515.85,-198.61 523.91,-142.89 497.5,-110 479.26,-87.29 449.15,-76.07 421.99,-70.56"/>
<polygon fill="#63b8ff" stroke="#63b8ff" points="422.61,-67.11 412.15,-68.78 421.36,-74 422.61,-67.11"/>
</a>
</g>
</g>
<!-- Node13&#45;&gt;Node2 -->
<g id="edge31_Node000013_Node000002" class="edge">
<title>Node13&#45;&gt;Node2</title>
<g id="a_edge31_Node000013_Node000002"><a xlink:title=" ">
<path fill="none" stroke="#63b8ff" d="M270.6,-439.98C305.78,-430.93 361.57,-416.58 400.22,-406.64"/>
<polygon fill="#63b8ff" stroke="#63b8ff" points="401.33,-409.96 410.14,-404.08 399.59,-403.18 401.33,-409.96"/>
</a>
</g>
</g>
<!-- Node13&#45;&gt;Node3 -->
<g id="edge30_Node000013_Node000003" class="edge">
<title>Node13&#45;&gt;Node3</title>
<g id="a_edge30_Node000013_Node000003"><a xlink:title=" ">
<path fill="none" stroke="#63b8ff" d="M247.24,-439.66C267.39,-421.38 313.88,-379.18 339.24,-356.17"/>
<polygon fill="#63b8ff" stroke="#63b8ff" points="341.91,-358.47 346.96,-349.16 337.2,-353.29 341.91,-358.47"/>
</a>
</g>
</g>
<!-- Node14 -->
<g id="Node000014" class="node">
<title>Node14</title>
<g id="a_Node000014"><a xlink:href="capability_8h_source.html" target="_top" xlink:title=" ">
<polygon fill="white" stroke="#666666" points="273.5,-404 201.5,-404 201.5,-385 273.5,-385 273.5,-404"/>
<text text-anchor="middle" x="237.5" y="-392" font-family="Helvetica,sans-Serif" font-size="10.00">capability.h</text>
</a>
</g>
</g>
<!-- Node13&#45;&gt;Node14 -->
<g id="edge20_Node000013_Node000014" class="edge">
<title>Node13&#45;&gt;Node14</title>
<g id="a_edge20_Node000013_Node000014"><a xlink:title=" ">
<path fill="none" stroke="#63b8ff" d="M237.5,-439.75C237.5,-432.8 237.5,-422.85 237.5,-414.13"/>
<polygon fill="#63b8ff" stroke="#63b8ff" points="241,-414.09 237.5,-404.09 234,-414.09 241,-414.09"/>
</a>
</g>
</g>
<!-- Node14&#45;&gt;Node5 -->
<g id="edge22_Node000014_Node000005" class="edge">
<title>Node14&#45;&gt;Node5</title>
<g id="a_edge22_Node000014_Node000005"><a xlink:title=" ">
<path fill="none" stroke="#63b8ff" d="M225.29,-384.86C215.15,-376.88 201.46,-364.01 195.5,-349 192.38,-341.15 193.42,-338.18 195.5,-330 209.36,-275.5 246.75,-219.45 266.65,-192.29"/>
<polygon fill="#63b8ff" stroke="#63b8ff" points="269.49,-194.34 272.66,-184.23 263.88,-190.15 269.49,-194.34"/>
</a>
</g>
</g>
<!-- Node14&#45;&gt;Node9 -->
<g id="edge21_Node000014_Node000009" class="edge">
<title>Node14&#45;&gt;Node9</title>
<g id="a_edge21_Node000014_Node000009"><a xlink:title=" ">
<path fill="none" stroke="#63b8ff" d="M233.61,-384.74C225.91,-366.6 209.5,-323.46 209.5,-285.5 209.5,-285.5 209.5,-285.5 209.5,-228.5 209.5,-173.89 145.44,-145.4 97.15,-131.69"/>
<polygon fill="#63b8ff" stroke="#63b8ff" points="97.99,-128.29 87.42,-129.06 96.16,-135.05 97.99,-128.29"/>
</a>
</g>
</g>
<!-- Node15 -->
<g id="Node000015" class="node">
<title>Node15</title>
<g id="a_Node000015"><a xlink:href="l4_2sys_2task_8h.html" target="_top" xlink:title="Common task related definitions.">
<polygon fill="white" stroke="#666666" points="316.5,-349 238.5,-349 238.5,-330 316.5,-330 316.5,-349"/>
<text text-anchor="middle" x="277.5" y="-337" font-family="Helvetica,sans-Serif" font-size="10.00">l4/sys/task.h</text>
</a>
</g>
</g>
<!-- Node14&#45;&gt;Node15 -->
<g id="edge23_Node000014_Node000015" class="edge">
<title>Node14&#45;&gt;Node15</title>
<g id="a_edge23_Node000014_Node000015"><a xlink:title=" ">
<path fill="none" stroke="#63b8ff" d="M244.11,-384.75C249.76,-377.26 258.04,-366.28 264.95,-357.13"/>
<polygon fill="#63b8ff" stroke="#63b8ff" points="267.79,-359.18 271.02,-349.09 262.2,-354.96 267.79,-359.18"/>
</a>
</g>
</g>
<!-- Node15&#45;&gt;Node4 -->
<g id="edge25_Node000015_Node000004" class="edge">
<title>Node15&#45;&gt;Node4</title>
<g id="a_edge25_Node000015_Node000004"><a xlink:title=" ">
<path fill="none" stroke="#63b8ff" d="M316.7,-330.33C339.32,-323.85 366.88,-312.66 385.5,-294 397.72,-281.76 404.44,-262.98 407.97,-249.01"/>
<polygon fill="#63b8ff" stroke="#63b8ff" points="411.43,-249.58 410.16,-239.06 404.59,-248.07 411.43,-249.58"/>
</a>
</g>
</g>
<!-- Node15&#45;&gt;Node5 -->
<g id="edge24_Node000015_Node000005" class="edge">
<title>Node15&#45;&gt;Node5</title>
<g id="a_edge24_Node000015_Node000005"><a xlink:title=" ">
<path fill="none" stroke="#63b8ff" d="M277.61,-329.74C277.92,-304.31 278.83,-230.08 279.26,-194.69"/>
<polygon fill="#63b8ff" stroke="#63b8ff" points="282.77,-194.35 279.39,-184.31 275.77,-194.26 282.77,-194.35"/>
</a>
</g>
</g>
<!-- Node16 -->
<g id="Node000016" class="node">
<title>Node16</title>
<g id="a_Node000016"><a xlink:href="l4_2sys_2ipc_8h.html" target="_top" xlink:title="Common IPC interface.">
<polygon fill="white" stroke="#666666" points="377,-294 306,-294 306,-275 377,-275 377,-294"/>
<text text-anchor="middle" x="341.5" y="-282" font-family="Helvetica,sans-Serif" font-size="10.00">l4/sys/ipc.h</text>
</a>
</g>
</g>
<!-- Node15&#45;&gt;Node16 -->
<g id="edge26_Node000015_Node000016" class="edge">
<title>Node15&#45;&gt;Node16</title>
<g id="a_edge26_Node000015_Node000016"><a xlink:title=" ">
<path fill="none" stroke="#63b8ff" d="M287.78,-329.98C297.34,-322.07 311.78,-310.11 323.28,-300.58"/>
<polygon fill="#63b8ff" stroke="#63b8ff" points="325.56,-303.24 331.03,-294.17 321.1,-297.85 325.56,-303.24"/>
</a>
</g>
</g>
<!-- Node16&#45;&gt;Node4 -->
<g id="edge28_Node000016_Node000004" class="edge">
<title>Node16&#45;&gt;Node4</title>
<g id="a_edge28_Node000016_Node000004"><a xlink:title=" ">
<path fill="none" stroke="#63b8ff" d="M352.75,-274.98C363.3,-267 379.3,-254.88 391.94,-245.31"/>
<polygon fill="#63b8ff" stroke="#63b8ff" points="394.19,-248 400.05,-239.17 389.96,-242.42 394.19,-248"/>
</a>
</g>
</g>
<!-- Node16&#45;&gt;Node5 -->
<g id="edge27_Node000016_Node000005" class="edge">
<title>Node16&#45;&gt;Node5</title>
<g id="a_edge27_Node000016_Node000005"><a xlink:title=" ">
<path fill="none" stroke="#63b8ff" d="M336.43,-274.66C326.2,-256.85 302.96,-216.37 289.55,-193.01"/>
<polygon fill="#63b8ff" stroke="#63b8ff" points="292.48,-191.09 284.47,-184.16 286.41,-194.57 292.48,-191.09"/>
</a>
</g>
</g>
<!-- Node16&#45;&gt;Node12 -->
<g id="edge29_Node000016_Node000012" class="edge">
<title>Node16&#45;&gt;Node12</title>
<g id="a_edge29_Node000016_Node000012"><a xlink:title=" ">
<path fill="none" stroke="#63b8ff" d="M368.49,-274.98C396.7,-266.09 441.14,-252.07 472.58,-242.15"/>
<polygon fill="#63b8ff" stroke="#63b8ff" points="473.81,-245.43 482.3,-239.08 471.71,-238.75 473.81,-245.43"/>
</a>
</g>
</g>
<!-- Node17&#45;&gt;Node2 -->
<g id="edge33_Node000017_Node000002" class="edge">
<title>Node17&#45;&gt;Node2</title>
<g id="a_edge33_Node000017_Node000002"><a xlink:title=" ">
<path fill="none" stroke="#63b8ff" d="M410.05,-494.77C416.23,-486.13 425.29,-472.29 430.5,-459 436.15,-444.58 439.49,-427.3 441.36,-414.41"/>
<polygon fill="#63b8ff" stroke="#63b8ff" points="444.84,-414.76 442.65,-404.4 437.9,-413.87 444.84,-414.76"/>
</a>
</g>
</g>
<!-- Node17&#45;&gt;Node13 -->
<g id="edge34_Node000017_Node000013" class="edge">
<title>Node17&#45;&gt;Node13</title>
<g id="a_edge34_Node000017_Node000013"><a xlink:title=" ">
<path fill="none" stroke="#63b8ff" d="M376.83,-494.98C348.96,-486.09 305.05,-472.07 273.98,-462.15"/>
<polygon fill="#63b8ff" stroke="#63b8ff" points="274.97,-458.79 264.38,-459.08 272.84,-465.46 274.97,-458.79"/>
</a>
</g>
</g>
<!-- Node17&#45;&gt;Node18 -->
<g id="edge35_Node000017_Node000018" class="edge">
<title>Node17&#45;&gt;Node18</title>
<g id="a_edge35_Node000017_Node000018"><a xlink:title=" ">
<path fill="none" stroke="#63b8ff" d="M397.56,-494.75C392.52,-487.34 385.16,-476.5 378.99,-467.41"/>
<polygon fill="#63b8ff" stroke="#63b8ff" points="381.85,-465.39 373.33,-459.09 376.06,-469.33 381.85,-465.39"/>
</a>
</g>
</g>
<!-- Node18&#45;&gt;Node2 -->
<g id="edge37_Node000018_Node000002" class="edge">
<title>Node18&#45;&gt;Node2</title>
<g id="a_edge37_Node000018_Node000002"><a xlink:title=" ">
<path fill="none" stroke="#63b8ff" d="M379.71,-439.98C391.28,-431.92 408.88,-419.65 422.66,-410.03"/>
<polygon fill="#63b8ff" stroke="#63b8ff" points="424.87,-412.76 431.07,-404.17 420.86,-407.02 424.87,-412.76"/>
</a>
</g>
</g>
<!-- Node18&#45;&gt;Node3 -->
<g id="edge36_Node000018_Node000003" class="edge">
<title>Node18&#45;&gt;Node3</title>
<g id="a_edge36_Node000018_Node000003"><a xlink:title=" ">
<path fill="none" stroke="#63b8ff" d="M366.6,-439.66C364.82,-422.17 360.81,-382.8 358.41,-359.27"/>
<polygon fill="#63b8ff" stroke="#63b8ff" points="361.88,-358.75 357.38,-349.16 354.91,-359.46 361.88,-358.75"/>
</a>
</g>
</g>
<!-- Node18&#45;&gt;Node14 -->
<g id="edge38_Node000018_Node000014" class="edge">
<title>Node18&#45;&gt;Node14</title>
<g id="a_edge38_Node000018_Node000014"><a xlink:title=" ">
<path fill="none" stroke="#63b8ff" d="M346.61,-439.98C325.42,-431.34 292.37,-417.87 268.2,-408.02"/>
<polygon fill="#63b8ff" stroke="#63b8ff" points="269.35,-404.7 258.77,-404.17 266.71,-411.19 269.35,-404.7"/>
</a>
</g>
</g>
</g>
</svg>
