<?xml version="1.0" encoding="UTF-8" standalone="no"?>
<!DOCTYPE svg PUBLIC "-//W3C//DTD SVG 1.1//EN"
 "http://www.w3.org/Graphics/SVG/1.1/DTD/svg11.dtd">
<!-- Generated by graphviz version 2.43.0 (0)
 -->
<!-- Title: l4/sys/cxx/ipc_types Pages: 1 -->
<svg width="565pt" height="467pt"
 viewBox="0.00 0.00 564.50 467.00" xmlns="http://www.w3.org/2000/svg" xmlns:xlink="http://www.w3.org/1999/xlink">
<g id="graph0" class="graph" transform="scale(1 1) rotate(0) translate(4 463)">
<title>l4/sys/cxx/ipc_types</title>
<!-- Node1 -->
<g id="Node000001" class="node">
<title>Node1</title>
<g id="a_Node000001"><a xlink:title=" ">
<polygon fill="#999999" stroke="#666666" points="390,-459 275,-459 275,-440 390,-440 390,-459"/>
<text text-anchor="middle" x="332.5" y="-447" font-family="Helvetica,sans-Serif" font-size="10.00">l4/sys/cxx/ipc_types</text>
</a>
</g>
</g>
<!-- Node2 -->
<g id="Node000002" class="node">
<title>Node2</title>
<g id="a_Node000002"><a xlink:href="capability_8h_source.html" target="_top" xlink:title=" ">
<polygon fill="white" stroke="#666666" points="268.5,-404 196.5,-404 196.5,-385 268.5,-385 268.5,-404"/>
<text text-anchor="middle" x="232.5" y="-392" font-family="Helvetica,sans-Serif" font-size="10.00">capability.h</text>
</a>
</g>
</g>
<!-- Node1&#45;&gt;Node2 -->
<g id="edge1_Node000001_Node000002" class="edge">
<title>Node1&#45;&gt;Node2</title>
<g id="a_edge1_Node000001_Node000002"><a xlink:title=" ">
<path fill="none" stroke="#63b8ff" d="M316.43,-439.98C300.64,-431.61 276.28,-418.7 257.87,-408.95"/>
<polygon fill="#63b8ff" stroke="#63b8ff" points="259.33,-405.76 248.86,-404.17 256.06,-411.95 259.33,-405.76"/>
</a>
</g>
</g>
<!-- Node14 -->
<g id="Node000014" class="node">
<title>Node14</title>
<g id="a_Node000014"><a xlink:href="types.html" target="_top" xlink:title=" ">
<polygon fill="white" stroke="#666666" points="366.5,-349 322.5,-349 322.5,-330 366.5,-330 366.5,-349"/>
<text text-anchor="middle" x="344.5" y="-337" font-family="Helvetica,sans-Serif" font-size="10.00">types</text>
</a>
</g>
</g>
<!-- Node1&#45;&gt;Node14 -->
<g id="edge25_Node000001_Node000014" class="edge">
<title>Node1&#45;&gt;Node14</title>
<g id="a_edge25_Node000001_Node000014"><a xlink:title=" ">
<path fill="none" stroke="#63b8ff" d="M333.48,-439.66C335.43,-422.17 339.8,-382.8 342.41,-359.27"/>
<polygon fill="#63b8ff" stroke="#63b8ff" points="345.91,-359.48 343.54,-349.16 338.95,-358.71 345.91,-359.48"/>
</a>
</g>
</g>
<!-- Node15 -->
<g id="Node000015" class="node">
<title>Node15</title>
<g id="a_Node000015"><a xlink:href="ipc__basics_source.html" target="_top" xlink:title=" ">
<polygon fill="white" stroke="#666666" points="428,-404 361,-404 361,-385 428,-385 428,-404"/>
<text text-anchor="middle" x="394.5" y="-392" font-family="Helvetica,sans-Serif" font-size="10.00">ipc_basics</text>
</a>
</g>
</g>
<!-- Node1&#45;&gt;Node15 -->
<g id="edge26_Node000001_Node000015" class="edge">
<title>Node1&#45;&gt;Node15</title>
<g id="a_edge26_Node000001_Node000015"><a xlink:title=" ">
<path fill="none" stroke="#63b8ff" d="M342.46,-439.98C351.63,-432.15 365.44,-420.34 376.53,-410.86"/>
<polygon fill="#63b8ff" stroke="#63b8ff" points="379.03,-413.33 384.36,-404.17 374.48,-408.01 379.03,-413.33"/>
</a>
</g>
</g>
<!-- Node3 -->
<g id="Node000003" class="node">
<title>Node3</title>
<g id="a_Node000003"><a xlink:href="l4_2sys_2consts_8h.html" target="_top" xlink:title="Common constants.">
<polygon fill="white" stroke="#666666" points="89,-129 0,-129 0,-110 89,-110 89,-129"/>
<text text-anchor="middle" x="44.5" y="-117" font-family="Helvetica,sans-Serif" font-size="10.00">l4/sys/consts.h</text>
</a>
</g>
</g>
<!-- Node2&#45;&gt;Node3 -->
<g id="edge2_Node000002_Node000003" class="edge">
<title>Node2&#45;&gt;Node3</title>
<g id="a_edge2_Node000002_Node000003"><a xlink:title=" ">
<path fill="none" stroke="#63b8ff" d="M205.88,-384.91C167.85,-370.78 102.5,-338.76 102.5,-285.5 102.5,-285.5 102.5,-285.5 102.5,-228.5 102.5,-192.37 77,-156.67 59.81,-136.71"/>
<polygon fill="#63b8ff" stroke="#63b8ff" points="62.34,-134.28 53.06,-129.17 57.12,-138.95 62.34,-134.28"/>
</a>
</g>
</g>
<!-- Node7 -->
<g id="Node000007" class="node">
<title>Node7</title>
<g id="a_Node000007"><a xlink:href="l4_2sys_2types_8h.html" target="_top" xlink:title="Common L4 ABI Data Types.">
<polygon fill="white" stroke="#666666" points="307.5,-184 223.5,-184 223.5,-165 307.5,-165 307.5,-184"/>
<text text-anchor="middle" x="265.5" y="-172" font-family="Helvetica,sans-Serif" font-size="10.00">l4/sys/types.h</text>
</a>
</g>
</g>
<!-- Node2&#45;&gt;Node7 -->
<g id="edge6_Node000002_Node000007" class="edge">
<title>Node2&#45;&gt;Node7</title>
<g id="a_edge6_Node000002_Node000007"><a xlink:title=" ">
<path fill="none" stroke="#63b8ff" d="M228.64,-384.85C224.94,-376.04 219.61,-361.87 217.5,-349 216.13,-340.67 216.23,-338.35 217.5,-330 225.2,-279.27 246.35,-222.28 257.83,-193.78"/>
<polygon fill="#63b8ff" stroke="#63b8ff" points="261.16,-194.91 261.72,-184.33 254.68,-192.25 261.16,-194.91"/>
</a>
</g>
</g>
<!-- Node10 -->
<g id="Node000010" class="node">
<title>Node10</title>
<g id="a_Node000010"><a xlink:href="l4_2sys_2task_8h.html" target="_top" xlink:title="Common task related definitions.">
<polygon fill="white" stroke="#666666" points="304.5,-349 226.5,-349 226.5,-330 304.5,-330 304.5,-349"/>
<text text-anchor="middle" x="265.5" y="-337" font-family="Helvetica,sans-Serif" font-size="10.00">l4/sys/task.h</text>
</a>
</g>
</g>
<!-- Node2&#45;&gt;Node10 -->
<g id="edge14_Node000002_Node000010" class="edge">
<title>Node2&#45;&gt;Node10</title>
<g id="a_edge14_Node000002_Node000010"><a xlink:title=" ">
<path fill="none" stroke="#63b8ff" d="M237.95,-384.75C242.51,-377.42 249.17,-366.73 254.79,-357.7"/>
<polygon fill="#63b8ff" stroke="#63b8ff" points="257.84,-359.43 260.15,-349.09 251.9,-355.73 257.84,-359.43"/>
</a>
</g>
</g>
<!-- Node4 -->
<g id="Node000004" class="node">
<title>Node4</title>
<g id="a_Node000004"><a xlink:href="compiler_8h.html" target="_top" xlink:title="L4 compiler related defines.">
<polygon fill="white" stroke="#666666" points="412,-74 313,-74 313,-55 412,-55 412,-74"/>
<text text-anchor="middle" x="362.5" y="-62" font-family="Helvetica,sans-Serif" font-size="10.00">l4/sys/compiler.h</text>
</a>
</g>
</g>
<!-- Node3&#45;&gt;Node4 -->
<g id="edge3_Node000003_Node000004" class="edge">
<title>Node3&#45;&gt;Node4</title>
<g id="a_edge3_Node000003_Node000004"><a xlink:title=" ">
<path fill="none" stroke="#63b8ff" d="M89.05,-111.07C144.83,-101.78 240.59,-85.82 302.71,-75.47"/>
<polygon fill="#63b8ff" stroke="#63b8ff" points="303.47,-78.89 312.76,-73.79 302.32,-71.98 303.47,-78.89"/>
</a>
</g>
</g>
<!-- Node6 -->
<g id="Node000006" class="node">
<title>Node6</title>
<g id="a_Node000006"><a xlink:href="l4_2sys_2l4int_8h.html" target="_top" xlink:title="Fixed sized integer types, generic version.">
<polygon fill="white" stroke="#666666" points="198,-74 119,-74 119,-55 198,-55 198,-74"/>
<text text-anchor="middle" x="158.5" y="-62" font-family="Helvetica,sans-Serif" font-size="10.00">l4/sys/l4int.h</text>
</a>
</g>
</g>
<!-- Node3&#45;&gt;Node6 -->
<g id="edge5_Node000003_Node000006" class="edge">
<title>Node3&#45;&gt;Node6</title>
<g id="a_edge5_Node000003_Node000006"><a xlink:title=" ">
<path fill="none" stroke="#63b8ff" d="M62.82,-109.98C81.16,-101.46 109.61,-88.23 130.73,-78.41"/>
<polygon fill="#63b8ff" stroke="#63b8ff" points="132.26,-81.56 139.85,-74.17 129.31,-75.21 132.26,-81.56"/>
</a>
</g>
</g>
<!-- Node5 -->
<g id="Node000005" class="node">
<title>Node5</title>
<g id="a_Node000005"><a xlink:title=" ">
<polygon fill="#e0e0e0" stroke="#999999" points="408.5,-19 316.5,-19 316.5,0 408.5,0 408.5,-19"/>
<text text-anchor="middle" x="362.5" y="-7" font-family="Helvetica,sans-Serif" font-size="10.00">l4/sys/linkage.h</text>
</a>
</g>
</g>
<!-- Node4&#45;&gt;Node5 -->
<g id="edge4_Node000004_Node000005" class="edge">
<title>Node4&#45;&gt;Node5</title>
<g id="a_edge4_Node000004_Node000005"><a xlink:title=" ">
<path fill="none" stroke="#63b8ff" d="M362.5,-54.75C362.5,-47.8 362.5,-37.85 362.5,-29.13"/>
<polygon fill="#63b8ff" stroke="#63b8ff" points="366,-29.09 362.5,-19.09 359,-29.09 366,-29.09"/>
</a>
</g>
</g>
<!-- Node7&#45;&gt;Node3 -->
<g id="edge9_Node000007_Node000003" class="edge">
<title>Node7&#45;&gt;Node3</title>
<g id="a_edge9_Node000007_Node000003"><a xlink:title=" ">
<path fill="none" stroke="#63b8ff" d="M229.99,-164.98C192.01,-155.87 131.63,-141.4 90.14,-131.45"/>
<polygon fill="#63b8ff" stroke="#63b8ff" points="90.83,-128.01 80.29,-129.08 89.19,-134.82 90.83,-128.01"/>
</a>
</g>
</g>
<!-- Node7&#45;&gt;Node4 -->
<g id="edge8_Node000007_Node000004" class="edge">
<title>Node7&#45;&gt;Node4</title>
<g id="a_edge8_Node000007_Node000004"><a xlink:title=" ">
<path fill="none" stroke="#63b8ff" d="M268.44,-164.91C273.19,-151.91 283.57,-126.98 298.5,-110 309.36,-97.65 324.33,-87 337.06,-79.22"/>
<polygon fill="#63b8ff" stroke="#63b8ff" points="338.98,-82.15 345.84,-74.07 335.44,-76.11 338.98,-82.15"/>
</a>
</g>
</g>
<!-- Node7&#45;&gt;Node6 -->
<g id="edge7_Node000007_Node000006" class="edge">
<title>Node7&#45;&gt;Node6</title>
<g id="a_edge7_Node000007_Node000006"><a xlink:title=" ">
<path fill="none" stroke="#63b8ff" d="M223.47,-171.23C193.85,-167.16 156.1,-156.49 136.5,-129 126.49,-114.95 135.38,-95.95 144.68,-82.4"/>
<polygon fill="#63b8ff" stroke="#63b8ff" points="147.76,-84.12 150.96,-74.02 142.16,-79.92 147.76,-84.12"/>
</a>
</g>
</g>
<!-- Node8 -->
<g id="Node000008" class="node">
<title>Node8</title>
<g id="a_Node000008"><a xlink:href="____l4__fpage_8h_source.html" target="_top" xlink:title=" ">
<polygon fill="white" stroke="#666666" points="417.5,-129 307.5,-129 307.5,-110 417.5,-110 417.5,-129"/>
<text text-anchor="middle" x="362.5" y="-117" font-family="Helvetica,sans-Serif" font-size="10.00">l4/sys/__l4_fpage.h</text>
</a>
</g>
</g>
<!-- Node7&#45;&gt;Node8 -->
<g id="edge10_Node000007_Node000008" class="edge">
<title>Node7&#45;&gt;Node8</title>
<g id="a_edge10_Node000007_Node000008"><a xlink:title=" ">
<path fill="none" stroke="#63b8ff" d="M281.08,-164.98C296.27,-156.69 319.6,-143.94 337.4,-134.22"/>
<polygon fill="#63b8ff" stroke="#63b8ff" points="339.53,-137.04 346.63,-129.17 336.18,-130.89 339.53,-137.04"/>
</a>
</g>
</g>
<!-- Node9 -->
<g id="Node000009" class="node">
<title>Node9</title>
<g id="a_Node000009"><a xlink:href="____timeout_8h_source.html" target="_top" xlink:title=" ">
<polygon fill="white" stroke="#666666" points="251.5,-129 145.5,-129 145.5,-110 251.5,-110 251.5,-129"/>
<text text-anchor="middle" x="198.5" y="-117" font-family="Helvetica,sans-Serif" font-size="10.00">l4/sys/__timeout.h</text>
</a>
</g>
</g>
<!-- Node7&#45;&gt;Node9 -->
<g id="edge12_Node000007_Node000009" class="edge">
<title>Node7&#45;&gt;Node9</title>
<g id="a_edge12_Node000007_Node000009"><a xlink:title=" ">
<path fill="none" stroke="#63b8ff" d="M254.74,-164.98C244.73,-157.07 229.61,-145.11 217.57,-135.58"/>
<polygon fill="#63b8ff" stroke="#63b8ff" points="219.47,-132.63 209.46,-129.17 215.13,-138.12 219.47,-132.63"/>
</a>
</g>
</g>
<!-- Node8&#45;&gt;Node4 -->
<g id="edge11_Node000008_Node000004" class="edge">
<title>Node8&#45;&gt;Node4</title>
<g id="a_edge11_Node000008_Node000004"><a xlink:title=" ">
<path fill="none" stroke="#63b8ff" d="M362.5,-109.75C362.5,-102.8 362.5,-92.85 362.5,-84.13"/>
<polygon fill="#63b8ff" stroke="#63b8ff" points="366,-84.09 362.5,-74.09 359,-84.09 366,-84.09"/>
</a>
</g>
</g>
<!-- Node9&#45;&gt;Node6 -->
<g id="edge13_Node000009_Node000006" class="edge">
<title>Node9&#45;&gt;Node6</title>
<g id="a_edge13_Node000009_Node000006"><a xlink:title=" ">
<path fill="none" stroke="#63b8ff" d="M191.89,-109.75C186.24,-102.26 177.96,-91.28 171.05,-82.13"/>
<polygon fill="#63b8ff" stroke="#63b8ff" points="173.8,-79.96 164.98,-74.09 168.21,-84.18 173.8,-79.96"/>
</a>
</g>
</g>
<!-- Node10&#45;&gt;Node7 -->
<g id="edge15_Node000010_Node000007" class="edge">
<title>Node10&#45;&gt;Node7</title>
<g id="a_edge15_Node000010_Node000007"><a xlink:title=" ">
<path fill="none" stroke="#63b8ff" d="M265.5,-329.74C265.5,-304.31 265.5,-230.08 265.5,-194.69"/>
<polygon fill="#63b8ff" stroke="#63b8ff" points="269,-194.31 265.5,-184.31 262,-194.31 269,-194.31"/>
</a>
</g>
</g>
<!-- Node11 -->
<g id="Node000011" class="node">
<title>Node11</title>
<g id="a_Node000011"><a xlink:href="l4_2sys_2utcb_8h.html" target="_top" xlink:title="UTCB definitions.">
<polygon fill="white" stroke="#666666" points="430.5,-239 352.5,-239 352.5,-220 430.5,-220 430.5,-239"/>
<text text-anchor="middle" x="391.5" y="-227" font-family="Helvetica,sans-Serif" font-size="10.00">l4/sys/utcb.h</text>
</a>
</g>
</g>
<!-- Node10&#45;&gt;Node11 -->
<g id="edge16_Node000010_Node000011" class="edge">
<title>Node10&#45;&gt;Node11</title>
<g id="a_edge16_Node000010_Node000011"><a xlink:title=" ">
<path fill="none" stroke="#63b8ff" d="M275.81,-329.66C297.24,-311.3 346.8,-268.81 373.57,-245.87"/>
<polygon fill="#63b8ff" stroke="#63b8ff" points="376.08,-248.32 381.4,-239.16 371.53,-243.01 376.08,-248.32"/>
</a>
</g>
</g>
<!-- Node12 -->
<g id="Node000012" class="node">
<title>Node12</title>
<g id="a_Node000012"><a xlink:href="l4_2sys_2ipc_8h.html" target="_top" xlink:title="Common IPC interface.">
<polygon fill="white" stroke="#666666" points="494,-294 423,-294 423,-275 494,-275 494,-294"/>
<text text-anchor="middle" x="458.5" y="-282" font-family="Helvetica,sans-Serif" font-size="10.00">l4/sys/ipc.h</text>
</a>
</g>
</g>
<!-- Node10&#45;&gt;Node12 -->
<g id="edge20_Node000010_Node000012" class="edge">
<title>Node10&#45;&gt;Node12</title>
<g id="a_edge20_Node000010_Node000012"><a xlink:title=" ">
<path fill="none" stroke="#63b8ff" d="M296.51,-329.98C329.33,-320.97 381.3,-306.7 417.49,-296.76"/>
<polygon fill="#63b8ff" stroke="#63b8ff" points="418.53,-300.11 427.25,-294.08 416.68,-293.36 418.53,-300.11"/>
</a>
</g>
</g>
<!-- Node11&#45;&gt;Node4 -->
<g id="edge18_Node000011_Node000004" class="edge">
<title>Node11&#45;&gt;Node4</title>
<g id="a_edge18_Node000011_Node000004"><a xlink:title=" ">
<path fill="none" stroke="#63b8ff" d="M415.28,-219.92C430.93,-212.89 450.17,-201.25 459.5,-184 475.14,-155.07 477.26,-137.68 459.5,-110 449.41,-94.28 432.23,-84.03 415.09,-77.4"/>
<polygon fill="#63b8ff" stroke="#63b8ff" points="416.22,-74.08 405.63,-74.07 413.9,-80.69 416.22,-74.08"/>
</a>
</g>
</g>
<!-- Node11&#45;&gt;Node6 -->
<g id="edge19_Node000011_Node000006" class="edge">
<title>Node11&#45;&gt;Node6</title>
<g id="a_edge19_Node000011_Node000006"><a xlink:title=" ">
<path fill="none" stroke="#63b8ff" d="M398.75,-219.95C415.77,-198.81 454.8,-143.38 426.5,-110 412.56,-93.55 281.74,-77.89 208.17,-70.29"/>
<polygon fill="#63b8ff" stroke="#63b8ff" points="208.49,-66.8 198.18,-69.27 207.78,-73.77 208.49,-66.8"/>
</a>
</g>
</g>
<!-- Node11&#45;&gt;Node7 -->
<g id="edge17_Node000011_Node000007" class="edge">
<title>Node11&#45;&gt;Node7</title>
<g id="a_edge17_Node000011_Node000007"><a xlink:title=" ">
<path fill="none" stroke="#63b8ff" d="M371.26,-219.98C350.8,-211.38 318.97,-197.99 295.57,-188.15"/>
<polygon fill="#63b8ff" stroke="#63b8ff" points="296.69,-184.82 286.11,-184.17 293.97,-191.27 296.69,-184.82"/>
</a>
</g>
</g>
<!-- Node12&#45;&gt;Node7 -->
<g id="edge21_Node000012_Node000007" class="edge">
<title>Node12&#45;&gt;Node7</title>
<g id="a_edge21_Node000012_Node000007"><a xlink:title=" ">
<path fill="none" stroke="#63b8ff" d="M458.46,-274.74C457.91,-261.05 454.77,-234.67 439.5,-220 407.09,-188.87 356.02,-178.69 317.58,-175.73"/>
<polygon fill="#63b8ff" stroke="#63b8ff" points="317.8,-172.24 307.6,-175.1 317.36,-179.23 317.8,-172.24"/>
</a>
</g>
</g>
<!-- Node12&#45;&gt;Node11 -->
<g id="edge22_Node000012_Node000011" class="edge">
<title>Node12&#45;&gt;Node11</title>
<g id="a_edge22_Node000012_Node000011"><a xlink:title=" ">
<path fill="none" stroke="#63b8ff" d="M447.74,-274.98C437.73,-267.07 422.61,-255.11 410.57,-245.58"/>
<polygon fill="#63b8ff" stroke="#63b8ff" points="412.47,-242.63 402.46,-239.17 408.13,-248.12 412.47,-242.63"/>
</a>
</g>
</g>
<!-- Node13 -->
<g id="Node000013" class="node">
<title>Node13</title>
<g id="a_Node000013"><a xlink:href="err_8h.html" target="_top" xlink:title="Error codes.">
<polygon fill="white" stroke="#666666" points="556.5,-239 486.5,-239 486.5,-220 556.5,-220 556.5,-239"/>
<text text-anchor="middle" x="521.5" y="-227" font-family="Helvetica,sans-Serif" font-size="10.00">l4/sys/err.h</text>
</a>
</g>
</g>
<!-- Node12&#45;&gt;Node13 -->
<g id="edge23_Node000012_Node000013" class="edge">
<title>Node12&#45;&gt;Node13</title>
<g id="a_edge23_Node000012_Node000013"><a xlink:title=" ">
<path fill="none" stroke="#63b8ff" d="M468.62,-274.98C477.94,-267.15 491.97,-255.34 503.24,-245.86"/>
<polygon fill="#63b8ff" stroke="#63b8ff" points="505.79,-248.29 511.19,-239.17 501.29,-242.93 505.79,-248.29"/>
</a>
</g>
</g>
<!-- Node13&#45;&gt;Node4 -->
<g id="edge24_Node000013_Node000004" class="edge">
<title>Node13&#45;&gt;Node4</title>
<g id="a_edge24_Node000013_Node000004"><a xlink:title=" ">
<path fill="none" stroke="#63b8ff" d="M520.68,-219.76C518.21,-198.2 508.94,-141.87 477.5,-110 461.67,-93.95 439.4,-83.57 418.67,-76.92"/>
<polygon fill="#63b8ff" stroke="#63b8ff" points="419.55,-73.53 408.96,-74.03 417.55,-80.24 419.55,-73.53"/>
</a>
</g>
</g>
<!-- Node15&#45;&gt;Node11 -->
<g id="edge28_Node000015_Node000011" class="edge">
<title>Node15&#45;&gt;Node11</title>
<g id="a_edge28_Node000015_Node000011"><a xlink:title=" ">
<path fill="none" stroke="#63b8ff" d="M394.34,-384.74C393.87,-359.31 392.5,-285.08 391.85,-249.69"/>
<polygon fill="#63b8ff" stroke="#63b8ff" points="395.35,-249.24 391.66,-239.31 388.35,-249.37 395.35,-249.24"/>
</a>
</g>
</g>
<!-- Node15&#45;&gt;Node13 -->
<g id="edge29_Node000015_Node000013" class="edge">
<title>Node15&#45;&gt;Node13</title>
<g id="a_edge29_Node000015_Node000013"><a xlink:title=" ">
<path fill="none" stroke="#63b8ff" d="M408.13,-384.84C431.26,-369.43 478.18,-334.98 503.5,-294 511.97,-280.29 516.57,-262.48 518.99,-249.22"/>
<polygon fill="#63b8ff" stroke="#63b8ff" points="522.45,-249.75 520.55,-239.33 515.53,-248.66 522.45,-249.75"/>
</a>
</g>
</g>
<!-- Node15&#45;&gt;Node14 -->
<g id="edge27_Node000015_Node000014" class="edge">
<title>Node15&#45;&gt;Node14</title>
<g id="a_edge27_Node000015_Node000014"><a xlink:title=" ">
<path fill="none" stroke="#63b8ff" d="M386.24,-384.75C379.04,-377.11 368.39,-365.82 359.65,-356.56"/>
<polygon fill="#63b8ff" stroke="#63b8ff" points="362.01,-353.96 352.6,-349.09 356.92,-358.76 362.01,-353.96"/>
</a>
</g>
</g>
</g>
</svg>
