<?xml version="1.0" encoding="UTF-8" standalone="no"?>
<!DOCTYPE svg PUBLIC "-//W3C//DTD SVG 1.1//EN"
 "http://www.w3.org/Graphics/SVG/1.1/DTD/svg11.dtd">
<!-- Generated by graphviz version 2.42.4 (0)
 -->
<!-- Title: l4/sys/cxx/ipc_client Pages: 1 -->
<svg width="499pt" height="577pt"
 viewBox="0.00 0.00 498.75 577.00" xmlns="http://www.w3.org/2000/svg" xmlns:xlink="http://www.w3.org/1999/xlink">
<g id="graph0" class="graph" transform="scale(1 1) rotate(0) translate(4 573)">
<title>l4/sys/cxx/ipc_client</title>
<!-- Node1 -->
<g id="Node000001" class="node">
<title>Node1</title>
<g id="a_Node000001"><a xlink:title=" ">
<polygon fill="#999999" stroke="#666666" points="402,-569 287,-569 287,-550 402,-550 402,-569"/>
<text text-anchor="middle" x="344.5" y="-557" font-family="Helvetica,sans-Serif" font-size="10.00">l4/sys/cxx/ipc_client</text>
</a>
</g>
</g>
<!-- Node2 -->
<g id="Node000002" class="node">
<title>Node2</title>
<g id="a_Node000002"><a xlink:href="ipc__basics_source.html" target="_top" xlink:title=" ">
<polygon fill="white" stroke="#666666" points="438,-404 319,-404 319,-385 438,-385 438,-404"/>
<text text-anchor="middle" x="378.5" y="-392" font-family="Helvetica,sans-Serif" font-size="10.00">l4/sys/cxx/ipc_basics</text>
</a>
</g>
</g>
<!-- Node1&#45;&gt;Node2 -->
<g id="edge1_Node000001_Node000002" class="edge">
<title>Node1&#45;&gt;Node2</title>
<g id="a_edge1_Node000001_Node000002"><a xlink:title=" ">
<path fill="none" stroke="#63b8ff" d="M366.62,-549.95C381.7,-542.82 400.51,-531.06 409.5,-514 427.11,-480.6 405.38,-436.54 390.41,-412.66"/>
<polygon fill="#63b8ff" stroke="#63b8ff" points="393.15,-410.45 384.73,-404.02 387.3,-414.3 393.15,-410.45"/>
</a>
</g>
</g>
<!-- Node12 -->
<g id="Node000012" class="node">
<title>Node12</title>
<g id="a_Node000012"><a xlink:href="err_8h.html" target="_top" xlink:title="Error codes.">
<polygon fill="white" stroke="#666666" points="479.5,-239 409.5,-239 409.5,-220 479.5,-220 479.5,-239"/>
<text text-anchor="middle" x="444.5" y="-227" font-family="Helvetica,sans-Serif" font-size="10.00">l4/sys/err.h</text>
</a>
</g>
</g>
<!-- Node1&#45;&gt;Node12 -->
<g id="edge41_Node000001_Node000012" class="edge">
<title>Node1&#45;&gt;Node12</title>
<g id="a_edge41_Node000001_Node000012"><a xlink:title=" ">
<path fill="none" stroke="#63b8ff" d="M368.31,-549.91C403.82,-535.39 466.5,-502.41 466.5,-450.5 466.5,-450.5 466.5,-450.5 466.5,-338.5 466.5,-306.4 457.05,-269.99 450.54,-248.71"/>
<polygon fill="#63b8ff" stroke="#63b8ff" points="453.84,-247.53 447.47,-239.06 447.17,-249.65 453.84,-247.53"/>
</a>
</g>
</g>
<!-- Node13 -->
<g id="Node000013" class="node">
<title>Node13</title>
<g id="a_Node000013"><a xlink:href="ipc__types.html" target="_top" xlink:title=" ">
<polygon fill="white" stroke="#666666" points="362,-459 247,-459 247,-440 362,-440 362,-459"/>
<text text-anchor="middle" x="304.5" y="-447" font-family="Helvetica,sans-Serif" font-size="10.00">l4/sys/cxx/ipc_types</text>
</a>
</g>
</g>
<!-- Node1&#45;&gt;Node13 -->
<g id="edge20_Node000001_Node000013" class="edge">
<title>Node1&#45;&gt;Node13</title>
<g id="a_edge20_Node000001_Node000013"><a xlink:title=" ">
<path fill="none" stroke="#63b8ff" d="M322.38,-549.95C307.3,-542.82 288.49,-531.06 279.5,-514 271.51,-498.84 280.52,-480.54 289.88,-467.49"/>
<polygon fill="#63b8ff" stroke="#63b8ff" points="292.81,-469.43 296.21,-459.4 287.3,-465.12 292.81,-469.43"/>
</a>
</g>
</g>
<!-- Node17 -->
<g id="Node000017" class="node">
<title>Node17</title>
<g id="a_Node000017"><a xlink:href="ipc__iface.html" target="_top" xlink:title="Interface Definition Language.">
<polygon fill="white" stroke="#666666" points="400.5,-514 288.5,-514 288.5,-495 400.5,-495 400.5,-514"/>
<text text-anchor="middle" x="344.5" y="-502" font-family="Helvetica,sans-Serif" font-size="10.00">l4/sys/cxx/ipc_iface</text>
</a>
</g>
</g>
<!-- Node1&#45;&gt;Node17 -->
<g id="edge33_Node000001_Node000017" class="edge">
<title>Node1&#45;&gt;Node17</title>
<g id="a_edge33_Node000001_Node000017"><a xlink:title=" ">
<path fill="none" stroke="#63b8ff" d="M344.5,-549.75C344.5,-542.8 344.5,-532.85 344.5,-524.13"/>
<polygon fill="#63b8ff" stroke="#63b8ff" points="348,-524.09 344.5,-514.09 341,-524.09 348,-524.09"/>
</a>
</g>
</g>
<!-- Node18 -->
<g id="Node000018" class="node">
<title>Node18</title>
<g id="a_Node000018"><a xlink:href="____typeinfo_8h.html" target="_top" xlink:title="Type information handling.">
<polygon fill="white" stroke="#666666" points="228.5,-459 120.5,-459 120.5,-440 228.5,-440 228.5,-459"/>
<text text-anchor="middle" x="174.5" y="-447" font-family="Helvetica,sans-Serif" font-size="10.00">l4/sys/__typeinfo.h</text>
</a>
</g>
</g>
<!-- Node1&#45;&gt;Node18 -->
<g id="edge40_Node000001_Node000018" class="edge">
<title>Node1&#45;&gt;Node18</title>
<g id="a_edge40_Node000001_Node000018"><a xlink:title=" ">
<path fill="none" stroke="#63b8ff" d="M330.37,-549.89C315.81,-540.99 292.49,-526.65 272.5,-514 246.03,-497.25 215.81,-477.58 196.01,-464.62"/>
<polygon fill="#63b8ff" stroke="#63b8ff" points="197.72,-461.56 187.44,-459.01 193.89,-467.42 197.72,-461.56"/>
</a>
</g>
</g>
<!-- Node3 -->
<g id="Node000003" class="node">
<title>Node3</title>
<g id="a_Node000003"><a xlink:href="types.html" target="_top" xlink:title=" ">
<polygon fill="white" stroke="#666666" points="342.5,-349 298.5,-349 298.5,-330 342.5,-330 342.5,-349"/>
<text text-anchor="middle" x="320.5" y="-337" font-family="Helvetica,sans-Serif" font-size="10.00">types</text>
</a>
</g>
</g>
<!-- Node2&#45;&gt;Node3 -->
<g id="edge2_Node000002_Node000003" class="edge">
<title>Node2&#45;&gt;Node3</title>
<g id="a_edge2_Node000002_Node000003"><a xlink:title=" ">
<path fill="none" stroke="#63b8ff" d="M369.18,-384.98C360.69,-377.23 347.94,-365.58 337.62,-356.14"/>
<polygon fill="#63b8ff" stroke="#63b8ff" points="339.73,-353.33 329.99,-349.17 335.01,-358.5 339.73,-353.33"/>
</a>
</g>
</g>
<!-- Node4 -->
<g id="Node000004" class="node">
<title>Node4</title>
<g id="a_Node000004"><a xlink:href="l4_2sys_2utcb_8h.html" target="_top" xlink:title="UTCB definitions.">
<polygon fill="white" stroke="#666666" points="356.5,-239 278.5,-239 278.5,-220 356.5,-220 356.5,-239"/>
<text text-anchor="middle" x="317.5" y="-227" font-family="Helvetica,sans-Serif" font-size="10.00">l4/sys/utcb.h</text>
</a>
</g>
</g>
<!-- Node2&#45;&gt;Node4 -->
<g id="edge3_Node000002_Node000004" class="edge">
<title>Node2&#45;&gt;Node4</title>
<g id="a_edge3_Node000002_Node000004"><a xlink:title=" ">
<path fill="none" stroke="#63b8ff" d="M378.68,-384.96C378.78,-364.74 377.05,-312.84 358.5,-275 353.1,-263.99 344.11,-253.77 335.91,-245.91"/>
<polygon fill="#63b8ff" stroke="#63b8ff" points="338.21,-243.27 328.45,-239.15 333.51,-248.45 338.21,-243.27"/>
</a>
</g>
</g>
<!-- Node2&#45;&gt;Node12 -->
<g id="edge18_Node000002_Node000012" class="edge">
<title>Node2&#45;&gt;Node12</title>
<g id="a_edge18_Node000002_Node000012"><a xlink:title=" ">
<path fill="none" stroke="#63b8ff" d="M382.05,-384.74C392.43,-359.09 422.93,-283.78 437.1,-248.78"/>
<polygon fill="#63b8ff" stroke="#63b8ff" points="440.43,-249.89 440.93,-239.31 433.94,-247.26 440.43,-249.89"/>
</a>
</g>
</g>
<!-- Node5 -->
<g id="Node000005" class="node">
<title>Node5</title>
<g id="a_Node000005"><a xlink:href="l4_2sys_2types_8h.html" target="_top" xlink:title="Common L4 ABI Data Types.">
<polygon fill="white" stroke="#666666" points="254.5,-184 170.5,-184 170.5,-165 254.5,-165 254.5,-184"/>
<text text-anchor="middle" x="212.5" y="-172" font-family="Helvetica,sans-Serif" font-size="10.00">l4/sys/types.h</text>
</a>
</g>
</g>
<!-- Node4&#45;&gt;Node5 -->
<g id="edge4_Node000004_Node000005" class="edge">
<title>Node4&#45;&gt;Node5</title>
<g id="a_edge4_Node000004_Node000005"><a xlink:title=" ">
<path fill="none" stroke="#63b8ff" d="M300.63,-219.98C283.89,-211.54 258,-198.47 238.61,-188.68"/>
<polygon fill="#63b8ff" stroke="#63b8ff" points="240.18,-185.55 229.68,-184.17 237.03,-191.8 240.18,-185.55"/>
</a>
</g>
</g>
<!-- Node6 -->
<g id="Node000006" class="node">
<title>Node6</title>
<g id="a_Node000006"><a xlink:href="l4_2sys_2l4int_8h.html" target="_top" xlink:title="Fixed sized integer types, generic version.">
<polygon fill="white" stroke="#666666" points="211,-74 132,-74 132,-55 211,-55 211,-74"/>
<text text-anchor="middle" x="171.5" y="-62" font-family="Helvetica,sans-Serif" font-size="10.00">l4/sys/l4int.h</text>
</a>
</g>
</g>
<!-- Node4&#45;&gt;Node6 -->
<g id="edge17_Node000004_Node000006" class="edge">
<title>Node4&#45;&gt;Node6</title>
<g id="a_edge17_Node000004_Node000006"><a xlink:title=" ">
<path fill="none" stroke="#63b8ff" d="M315.44,-219.93C309.97,-198.73 293.18,-143.18 260.5,-110 246.18,-95.46 226.13,-84.86 208.68,-77.67"/>
<polygon fill="#63b8ff" stroke="#63b8ff" points="209.9,-74.39 199.31,-74.02 207.35,-80.91 209.9,-74.39"/>
</a>
</g>
</g>
<!-- Node7 -->
<g id="Node000007" class="node">
<title>Node7</title>
<g id="a_Node000007"><a xlink:href="compiler_8h.html" target="_top" xlink:title="L4 compiler related defines.">
<polygon fill="white" stroke="#666666" points="355,-74 256,-74 256,-55 355,-55 355,-74"/>
<text text-anchor="middle" x="305.5" y="-62" font-family="Helvetica,sans-Serif" font-size="10.00">l4/sys/compiler.h</text>
</a>
</g>
</g>
<!-- Node4&#45;&gt;Node7 -->
<g id="edge16_Node000004_Node000007" class="edge">
<title>Node4&#45;&gt;Node7</title>
<g id="a_edge16_Node000004_Node000007"><a xlink:title=" ">
<path fill="none" stroke="#63b8ff" d="M345.95,-219.93C398.7,-202.59 502.93,-160.67 464.5,-110 452.24,-93.84 404.95,-81.95 365.11,-74.54"/>
<polygon fill="#63b8ff" stroke="#63b8ff" points="365.62,-71.08 355.16,-72.76 364.39,-77.97 365.62,-71.08"/>
</a>
</g>
</g>
<!-- Node5&#45;&gt;Node6 -->
<g id="edge5_Node000005_Node000006" class="edge">
<title>Node5&#45;&gt;Node6</title>
<g id="a_edge5_Node000005_Node000006"><a xlink:title=" ">
<path fill="none" stroke="#63b8ff" d="M184.11,-164.92C167.04,-158.13 146.69,-146.77 136.5,-129 127.18,-112.75 140.52,-93.94 153.33,-81.03"/>
<polygon fill="#63b8ff" stroke="#63b8ff" points="155.73,-83.57 160.63,-74.18 150.94,-78.47 155.73,-83.57"/>
</a>
</g>
</g>
<!-- Node5&#45;&gt;Node7 -->
<g id="edge6_Node000005_Node000007" class="edge">
<title>Node5&#45;&gt;Node7</title>
<g id="a_edge6_Node000005_Node000007"><a xlink:title=" ">
<path fill="none" stroke="#63b8ff" d="M223.01,-164.86C233.15,-156.29 248.66,-142.5 260.5,-129 273.4,-114.28 286.11,-95.89 294.71,-82.7"/>
<polygon fill="#63b8ff" stroke="#63b8ff" points="297.75,-84.44 300.2,-74.13 291.86,-80.67 297.75,-84.44"/>
</a>
</g>
</g>
<!-- Node9 -->
<g id="Node000009" class="node">
<title>Node9</title>
<g id="a_Node000009"><a xlink:href="l4_2sys_2consts_8h.html" target="_top" xlink:title="Common constants.">
<polygon fill="white" stroke="#666666" points="89,-129 0,-129 0,-110 89,-110 89,-129"/>
<text text-anchor="middle" x="44.5" y="-117" font-family="Helvetica,sans-Serif" font-size="10.00">l4/sys/consts.h</text>
</a>
</g>
</g>
<!-- Node5&#45;&gt;Node9 -->
<g id="edge8_Node000005_Node000009" class="edge">
<title>Node5&#45;&gt;Node9</title>
<g id="a_edge8_Node000005_Node000009"><a xlink:title=" ">
<path fill="none" stroke="#63b8ff" d="M185.51,-164.98C157.3,-156.09 112.86,-142.07 81.42,-132.15"/>
<polygon fill="#63b8ff" stroke="#63b8ff" points="82.29,-128.75 71.7,-129.08 80.19,-135.43 82.29,-128.75"/>
</a>
</g>
</g>
<!-- Node10 -->
<g id="Node000010" class="node">
<title>Node10</title>
<g id="a_Node000010"><a xlink:href="____l4__fpage_8h_source.html" target="_top" xlink:title=" ">
<polygon fill="white" stroke="#666666" points="455.5,-129 345.5,-129 345.5,-110 455.5,-110 455.5,-129"/>
<text text-anchor="middle" x="400.5" y="-117" font-family="Helvetica,sans-Serif" font-size="10.00">l4/sys/__l4_fpage.h</text>
</a>
</g>
</g>
<!-- Node5&#45;&gt;Node10 -->
<g id="edge11_Node000005_Node000010" class="edge">
<title>Node5&#45;&gt;Node10</title>
<g id="a_edge11_Node000005_Node000010"><a xlink:title=" ">
<path fill="none" stroke="#63b8ff" d="M242.71,-164.98C274.54,-156.01 324.86,-141.82 360.1,-131.89"/>
<polygon fill="#63b8ff" stroke="#63b8ff" points="361.38,-135.16 370.06,-129.08 359.48,-128.43 361.38,-135.16"/>
</a>
</g>
</g>
<!-- Node11 -->
<g id="Node000011" class="node">
<title>Node11</title>
<g id="a_Node000011"><a xlink:href="____timeout_8h_source.html" target="_top" xlink:title=" ">
<polygon fill="white" stroke="#666666" points="251.5,-129 145.5,-129 145.5,-110 251.5,-110 251.5,-129"/>
<text text-anchor="middle" x="198.5" y="-117" font-family="Helvetica,sans-Serif" font-size="10.00">l4/sys/__timeout.h</text>
</a>
</g>
</g>
<!-- Node5&#45;&gt;Node11 -->
<g id="edge13_Node000005_Node000011" class="edge">
<title>Node5&#45;&gt;Node11</title>
<g id="a_edge13_Node000005_Node000011"><a xlink:title=" ">
<path fill="none" stroke="#63b8ff" d="M210.19,-164.75C208.33,-157.72 205.66,-147.62 203.35,-138.84"/>
<polygon fill="#63b8ff" stroke="#63b8ff" points="206.71,-137.86 200.77,-129.09 199.94,-139.65 206.71,-137.86"/>
</a>
</g>
</g>
<!-- Node8 -->
<g id="Node000008" class="node">
<title>Node8</title>
<g id="a_Node000008"><a xlink:title=" ">
<polygon fill="#e0e0e0" stroke="#999999" points="351.5,-19 259.5,-19 259.5,0 351.5,0 351.5,-19"/>
<text text-anchor="middle" x="305.5" y="-7" font-family="Helvetica,sans-Serif" font-size="10.00">l4/sys/linkage.h</text>
</a>
</g>
</g>
<!-- Node7&#45;&gt;Node8 -->
<g id="edge7_Node000007_Node000008" class="edge">
<title>Node7&#45;&gt;Node8</title>
<g id="a_edge7_Node000007_Node000008"><a xlink:title=" ">
<path fill="none" stroke="#63b8ff" d="M305.5,-54.75C305.5,-47.8 305.5,-37.85 305.5,-29.13"/>
<polygon fill="#63b8ff" stroke="#63b8ff" points="309,-29.09 305.5,-19.09 302,-29.09 309,-29.09"/>
</a>
</g>
</g>
<!-- Node9&#45;&gt;Node6 -->
<g id="edge10_Node000009_Node000006" class="edge">
<title>Node9&#45;&gt;Node6</title>
<g id="a_edge10_Node000009_Node000006"><a xlink:title=" ">
<path fill="none" stroke="#63b8ff" d="M64.9,-109.98C85.52,-101.38 117.61,-87.99 141.19,-78.15"/>
<polygon fill="#63b8ff" stroke="#63b8ff" points="142.84,-81.25 150.72,-74.17 140.15,-74.79 142.84,-81.25"/>
</a>
</g>
</g>
<!-- Node9&#45;&gt;Node7 -->
<g id="edge9_Node000009_Node000007" class="edge">
<title>Node9&#45;&gt;Node7</title>
<g id="a_edge9_Node000009_Node000007"><a xlink:title=" ">
<path fill="none" stroke="#63b8ff" d="M86.43,-109.98C131.77,-100.78 204.11,-86.09 253.15,-76.13"/>
<polygon fill="#63b8ff" stroke="#63b8ff" points="254.13,-79.5 263.24,-74.08 252.74,-72.64 254.13,-79.5"/>
</a>
</g>
</g>
<!-- Node10&#45;&gt;Node7 -->
<g id="edge12_Node000010_Node000007" class="edge">
<title>Node10&#45;&gt;Node7</title>
<g id="a_edge12_Node000010_Node000007"><a xlink:title=" ">
<path fill="none" stroke="#63b8ff" d="M385.24,-109.98C370.37,-101.69 347.52,-88.94 330.08,-79.22"/>
<polygon fill="#63b8ff" stroke="#63b8ff" points="331.48,-75.99 321.04,-74.17 328.07,-82.1 331.48,-75.99"/>
</a>
</g>
</g>
<!-- Node11&#45;&gt;Node6 -->
<g id="edge14_Node000011_Node000006" class="edge">
<title>Node11&#45;&gt;Node6</title>
<g id="a_edge14_Node000011_Node000006"><a xlink:title=" ">
<path fill="none" stroke="#63b8ff" d="M194.04,-109.75C190.38,-102.57 185.09,-92.18 180.55,-83.27"/>
<polygon fill="#63b8ff" stroke="#63b8ff" points="183.53,-81.41 175.88,-74.09 177.3,-84.59 183.53,-81.41"/>
</a>
</g>
</g>
<!-- Node11&#45;&gt;Node7 -->
<g id="edge15_Node000011_Node000007" class="edge">
<title>Node11&#45;&gt;Node7</title>
<g id="a_edge15_Node000011_Node000007"><a xlink:title=" ">
<path fill="none" stroke="#63b8ff" d="M215.69,-109.98C232.75,-101.54 259.13,-88.47 278.9,-78.68"/>
<polygon fill="#63b8ff" stroke="#63b8ff" points="280.59,-81.75 288,-74.17 277.48,-75.47 280.59,-81.75"/>
</a>
</g>
</g>
<!-- Node12&#45;&gt;Node7 -->
<g id="edge19_Node000012_Node000007" class="edge">
<title>Node12&#45;&gt;Node7</title>
<g id="a_edge19_Node000012_Node000007"><a xlink:title=" ">
<path fill="none" stroke="#63b8ff" d="M452.06,-219.8C469.36,-198.81 508.38,-144.52 481.5,-110 467.14,-91.56 410.37,-79.55 365.13,-72.71"/>
<polygon fill="#63b8ff" stroke="#63b8ff" points="365.49,-69.23 355.09,-71.25 364.48,-76.15 365.49,-69.23"/>
</a>
</g>
</g>
<!-- Node13&#45;&gt;Node2 -->
<g id="edge32_Node000013_Node000002" class="edge">
<title>Node13&#45;&gt;Node2</title>
<g id="a_edge32_Node000013_Node000002"><a xlink:title=" ">
<path fill="none" stroke="#63b8ff" d="M316.39,-439.98C327.65,-431.92 344.79,-419.65 358.21,-410.03"/>
<polygon fill="#63b8ff" stroke="#63b8ff" points="360.3,-412.84 366.39,-404.17 356.23,-407.15 360.3,-412.84"/>
</a>
</g>
</g>
<!-- Node13&#45;&gt;Node3 -->
<g id="edge31_Node000013_Node000003" class="edge">
<title>Node13&#45;&gt;Node3</title>
<g id="a_edge31_Node000013_Node000003"><a xlink:title=" ">
<path fill="none" stroke="#63b8ff" d="M304.73,-439.82C305.17,-427.54 306.36,-404.43 309.5,-385 310.9,-376.36 313.13,-366.93 315.21,-358.98"/>
<polygon fill="#63b8ff" stroke="#63b8ff" points="318.6,-359.85 317.88,-349.28 311.85,-357.99 318.6,-359.85"/>
</a>
</g>
</g>
<!-- Node14 -->
<g id="Node000014" class="node">
<title>Node14</title>
<g id="a_Node000014"><a xlink:href="capability_8h_source.html" target="_top" xlink:title=" ">
<polygon fill="white" stroke="#666666" points="210.5,-404 138.5,-404 138.5,-385 210.5,-385 210.5,-404"/>
<text text-anchor="middle" x="174.5" y="-392" font-family="Helvetica,sans-Serif" font-size="10.00">capability.h</text>
</a>
</g>
</g>
<!-- Node13&#45;&gt;Node14 -->
<g id="edge21_Node000013_Node000014" class="edge">
<title>Node13&#45;&gt;Node14</title>
<g id="a_edge21_Node000013_Node000014"><a xlink:title=" ">
<path fill="none" stroke="#63b8ff" d="M283.61,-439.98C262.42,-431.34 229.37,-417.87 205.2,-408.02"/>
<polygon fill="#63b8ff" stroke="#63b8ff" points="206.35,-404.7 195.77,-404.17 203.71,-411.19 206.35,-404.7"/>
</a>
</g>
</g>
<!-- Node14&#45;&gt;Node5 -->
<g id="edge23_Node000014_Node000005" class="edge">
<title>Node14&#45;&gt;Node5</title>
<g id="a_edge23_Node000014_Node000005"><a xlink:title=" ">
<path fill="none" stroke="#63b8ff" d="M175.99,-384.95C181.58,-352.88 201.4,-239.2 209.26,-194.12"/>
<polygon fill="#63b8ff" stroke="#63b8ff" points="212.71,-194.68 210.98,-184.22 205.81,-193.47 212.71,-194.68"/>
</a>
</g>
</g>
<!-- Node14&#45;&gt;Node9 -->
<g id="edge22_Node000014_Node000009" class="edge">
<title>Node14&#45;&gt;Node9</title>
<g id="a_edge22_Node000014_Node000009"><a xlink:title=" ">
<path fill="none" stroke="#63b8ff" d="M161,-384.92C137.26,-368.66 90.5,-330.87 90.5,-285.5 90.5,-285.5 90.5,-285.5 90.5,-228.5 90.5,-194.04 70.43,-157.98 56.8,-137.47"/>
<polygon fill="#63b8ff" stroke="#63b8ff" points="59.65,-135.44 51.09,-129.2 53.9,-139.42 59.65,-135.44"/>
</a>
</g>
</g>
<!-- Node15 -->
<g id="Node000015" class="node">
<title>Node15</title>
<g id="a_Node000015"><a xlink:href="l4_2sys_2task_8h.html" target="_top" xlink:title="Common task related definitions.">
<polygon fill="white" stroke="#666666" points="280.5,-349 202.5,-349 202.5,-330 280.5,-330 280.5,-349"/>
<text text-anchor="middle" x="241.5" y="-337" font-family="Helvetica,sans-Serif" font-size="10.00">l4/sys/task.h</text>
</a>
</g>
</g>
<!-- Node14&#45;&gt;Node15 -->
<g id="edge24_Node000014_Node000015" class="edge">
<title>Node14&#45;&gt;Node15</title>
<g id="a_edge24_Node000014_Node000015"><a xlink:title=" ">
<path fill="none" stroke="#63b8ff" d="M185.26,-384.98C195.27,-377.07 210.39,-365.11 222.43,-355.58"/>
<polygon fill="#63b8ff" stroke="#63b8ff" points="224.87,-358.12 230.54,-349.17 220.53,-352.63 224.87,-358.12"/>
</a>
</g>
</g>
<!-- Node15&#45;&gt;Node4 -->
<g id="edge26_Node000015_Node000004" class="edge">
<title>Node15&#45;&gt;Node4</title>
<g id="a_edge26_Node000015_Node000004"><a xlink:title=" ">
<path fill="none" stroke="#63b8ff" d="M244.11,-329.7C248.18,-316.88 256.91,-292.66 269.5,-275 277.36,-263.98 288.29,-253.58 297.74,-245.61"/>
<polygon fill="#63b8ff" stroke="#63b8ff" points="299.99,-248.3 305.55,-239.28 295.58,-242.86 299.99,-248.3"/>
</a>
</g>
</g>
<!-- Node15&#45;&gt;Node5 -->
<g id="edge25_Node000015_Node000005" class="edge">
<title>Node15&#45;&gt;Node5</title>
<g id="a_edge25_Node000015_Node000005"><a xlink:title=" ">
<path fill="none" stroke="#63b8ff" d="M239.94,-329.74C235.4,-304.2 222.1,-229.43 215.83,-194.23"/>
<polygon fill="#63b8ff" stroke="#63b8ff" points="219.26,-193.54 214.07,-184.31 212.37,-194.77 219.26,-193.54"/>
</a>
</g>
</g>
<!-- Node16 -->
<g id="Node000016" class="node">
<title>Node16</title>
<g id="a_Node000016"><a xlink:href="l4_2sys_2ipc_8h.html" target="_top" xlink:title="Common IPC interface.">
<polygon fill="white" stroke="#666666" points="350,-294 279,-294 279,-275 350,-275 350,-294"/>
<text text-anchor="middle" x="314.5" y="-282" font-family="Helvetica,sans-Serif" font-size="10.00">l4/sys/ipc.h</text>
</a>
</g>
</g>
<!-- Node15&#45;&gt;Node16 -->
<g id="edge27_Node000015_Node000016" class="edge">
<title>Node15&#45;&gt;Node16</title>
<g id="a_edge27_Node000015_Node000016"><a xlink:title=" ">
<path fill="none" stroke="#63b8ff" d="M253.23,-329.98C264.23,-322 280.92,-309.88 294.1,-300.31"/>
<polygon fill="#63b8ff" stroke="#63b8ff" points="296.52,-302.88 302.56,-294.17 292.41,-297.21 296.52,-302.88"/>
</a>
</g>
</g>
<!-- Node16&#45;&gt;Node4 -->
<g id="edge29_Node000016_Node000004" class="edge">
<title>Node16&#45;&gt;Node4</title>
<g id="a_edge29_Node000016_Node000004"><a xlink:title=" ">
<path fill="none" stroke="#63b8ff" d="M315,-274.75C315.39,-267.8 315.95,-257.85 316.45,-249.13"/>
<polygon fill="#63b8ff" stroke="#63b8ff" points="319.94,-249.27 317.01,-239.09 312.95,-248.88 319.94,-249.27"/>
</a>
</g>
</g>
<!-- Node16&#45;&gt;Node5 -->
<g id="edge28_Node000016_Node000005" class="edge">
<title>Node16&#45;&gt;Node5</title>
<g id="a_edge28_Node000016_Node000005"><a xlink:title=" ">
<path fill="none" stroke="#63b8ff" d="M305.38,-274.79C296.17,-265.93 281.63,-251.73 269.5,-239 254.58,-223.34 238.13,-204.89 226.76,-191.92"/>
<polygon fill="#63b8ff" stroke="#63b8ff" points="229.3,-189.51 220.08,-184.28 224.03,-194.11 229.3,-189.51"/>
</a>
</g>
</g>
<!-- Node16&#45;&gt;Node12 -->
<g id="edge30_Node000016_Node000012" class="edge">
<title>Node16&#45;&gt;Node12</title>
<g id="a_edge30_Node000016_Node000012"><a xlink:title=" ">
<path fill="none" stroke="#63b8ff" d="M335.39,-274.98C356.58,-266.34 389.63,-252.87 413.8,-243.02"/>
<polygon fill="#63b8ff" stroke="#63b8ff" points="415.29,-246.19 423.23,-239.17 412.65,-239.7 415.29,-246.19"/>
</a>
</g>
</g>
<!-- Node17&#45;&gt;Node2 -->
<g id="edge34_Node000017_Node000002" class="edge">
<title>Node17&#45;&gt;Node2</title>
<g id="a_edge34_Node000017_Node000002"><a xlink:title=" ">
<path fill="none" stroke="#63b8ff" d="M351.02,-494.81C357.12,-486.2 365.96,-472.39 370.5,-459 375.41,-444.51 377.36,-427.24 378.1,-414.37"/>
<polygon fill="#63b8ff" stroke="#63b8ff" points="381.6,-414.51 378.49,-404.38 374.61,-414.23 381.6,-414.51"/>
</a>
</g>
</g>
<!-- Node17&#45;&gt;Node13 -->
<g id="edge35_Node000017_Node000013" class="edge">
<title>Node17&#45;&gt;Node13</title>
<g id="a_edge35_Node000017_Node000013"><a xlink:title=" ">
<path fill="none" stroke="#63b8ff" d="M337.89,-494.75C332.24,-487.26 323.96,-476.28 317.05,-467.13"/>
<polygon fill="#63b8ff" stroke="#63b8ff" points="319.8,-464.96 310.98,-459.09 314.21,-469.18 319.8,-464.96"/>
</a>
</g>
</g>
<!-- Node17&#45;&gt;Node18 -->
<g id="edge36_Node000017_Node000018" class="edge">
<title>Node17&#45;&gt;Node18</title>
<g id="a_edge36_Node000017_Node000018"><a xlink:title=" ">
<path fill="none" stroke="#63b8ff" d="M317.19,-494.98C288.65,-486.09 243.67,-472.07 211.86,-462.15"/>
<polygon fill="#63b8ff" stroke="#63b8ff" points="212.62,-458.72 202.03,-459.08 210.53,-465.4 212.62,-458.72"/>
</a>
</g>
</g>
<!-- Node18&#45;&gt;Node2 -->
<g id="edge38_Node000018_Node000002" class="edge">
<title>Node18&#45;&gt;Node2</title>
<g id="a_edge38_Node000018_Node000002"><a xlink:title=" ">
<path fill="none" stroke="#63b8ff" d="M207.28,-439.98C242.12,-430.93 297.37,-416.58 335.64,-406.64"/>
<polygon fill="#63b8ff" stroke="#63b8ff" points="336.67,-409.98 345.47,-404.08 334.91,-403.21 336.67,-409.98"/>
</a>
</g>
</g>
<!-- Node18&#45;&gt;Node3 -->
<g id="edge37_Node000018_Node000003" class="edge">
<title>Node18&#45;&gt;Node3</title>
<g id="a_edge37_Node000018_Node000003"><a xlink:title=" ">
<path fill="none" stroke="#63b8ff" d="M186.2,-439.84C211.08,-421.44 269.49,-378.23 300.44,-355.34"/>
<polygon fill="#63b8ff" stroke="#63b8ff" points="302.79,-357.96 308.74,-349.2 298.62,-352.33 302.79,-357.96"/>
</a>
</g>
</g>
<!-- Node18&#45;&gt;Node14 -->
<g id="edge39_Node000018_Node000014" class="edge">
<title>Node18&#45;&gt;Node14</title>
<g id="a_edge39_Node000018_Node000014"><a xlink:title=" ">
<path fill="none" stroke="#63b8ff" d="M174.5,-439.75C174.5,-432.8 174.5,-422.85 174.5,-414.13"/>
<polygon fill="#63b8ff" stroke="#63b8ff" points="178,-414.09 174.5,-404.09 171,-414.09 178,-414.09"/>
</a>
</g>
</g>
</g>
</svg>
