<?xml version="1.0" encoding="UTF-8" standalone="no"?>
<!DOCTYPE svg PUBLIC "-//W3C//DTD SVG 1.1//EN"
 "http://www.w3.org/Graphics/SVG/1.1/DTD/svg11.dtd">
<!-- Generated by graphviz version 2.43.0 (0)
 -->
<!-- Title: l4/sys/cxx/ipc_client Pages: 1 -->
<svg width="625pt" height="225pt"
 viewBox="0.00 0.00 624.50 225.00" xmlns="http://www.w3.org/2000/svg" xmlns:xlink="http://www.w3.org/1999/xlink">
<g id="graph0" class="graph" transform="scale(1 1) rotate(0) translate(4 221)">
<title>l4/sys/cxx/ipc_client</title>
<!-- Node1 -->
<g id="Node000001" class="node">
<title>Node1</title>
<g id="a_Node000001"><a xlink:title=" ">
<polygon fill="#999999" stroke="#666666" points="410,-217 295,-217 295,-198 410,-198 410,-217"/>
<text text-anchor="middle" x="352.5" y="-205" font-family="Helvetica,sans-Serif" font-size="10.00">l4/sys/cxx/ipc_client</text>
</a>
</g>
</g>
<!-- Node2 -->
<g id="Node000002" class="node">
<title>Node2</title>
<g id="a_Node000002"><a xlink:href="l4virtio_source.html" target="_top" xlink:title=" ">
<polygon fill="white" stroke="#666666" points="208,-156.5 107,-156.5 107,-137.5 208,-137.5 208,-156.5"/>
<text text-anchor="middle" x="157.5" y="-144.5" font-family="Helvetica,sans-Serif" font-size="10.00">l4/l4virtio/l4virtio</text>
</a>
</g>
</g>
<!-- Node1&#45;&gt;Node2 -->
<g id="edge1_Node000001_Node000002" class="edge">
<title>Node1&#45;&gt;Node2</title>
<g id="a_edge1_Node000001_Node000002"><a xlink:title=" ">
<path fill="none" stroke="#63b8ff" d="M314.53,-195.11C276.81,-183.79 219.84,-166.7 185.89,-156.52"/>
<polygon fill="#63b8ff" stroke="#63b8ff" points="313.56,-198.47 324.15,-197.99 315.57,-191.77 313.56,-198.47"/>
</a>
</g>
</g>
<!-- Node8 -->
<g id="Node000008" class="node">
<title>Node8</title>
<g id="a_Node000008"><a xlink:href="dataspace__impl_8h.html" target="_top" xlink:title="Dataspace client stub implementation.">
<polygon fill="white" stroke="#666666" points="342.5,-162 226.5,-162 226.5,-132 342.5,-132 342.5,-162"/>
<text text-anchor="start" x="234.5" y="-150" font-family="Helvetica,sans-Serif" font-size="10.00">l4/re/impl/dataspace</text>
<text text-anchor="middle" x="284.5" y="-139" font-family="Helvetica,sans-Serif" font-size="10.00">_impl.h</text>
</a>
</g>
</g>
<!-- Node1&#45;&gt;Node8 -->
<g id="edge9_Node000001_Node000008" class="edge">
<title>Node1&#45;&gt;Node8</title>
<g id="a_edge9_Node000001_Node000008"><a xlink:title=" ">
<path fill="none" stroke="#63b8ff" d="M334.76,-191.23C324.29,-182.23 311.13,-170.91 300.91,-162.11"/>
<polygon fill="#63b8ff" stroke="#63b8ff" points="332.6,-194 342.47,-197.87 337.17,-188.69 332.6,-194"/>
</a>
</g>
</g>
<!-- Node9 -->
<g id="Node000009" class="node">
<title>Node9</title>
<g id="a_Node000009"><a xlink:href="namespace__impl_8h.html" target="_top" xlink:title="Namespace client stub implementation.">
<polygon fill="white" stroke="#666666" points="482.5,-162 360.5,-162 360.5,-132 482.5,-132 482.5,-162"/>
<text text-anchor="start" x="368.5" y="-150" font-family="Helvetica,sans-Serif" font-size="10.00">l4/re/impl/namespace</text>
<text text-anchor="middle" x="421.5" y="-139" font-family="Helvetica,sans-Serif" font-size="10.00">_impl.h</text>
</a>
</g>
</g>
<!-- Node1&#45;&gt;Node9 -->
<g id="edge10_Node000001_Node000009" class="edge">
<title>Node1&#45;&gt;Node9</title>
<g id="a_edge10_Node000001_Node000009"><a xlink:title=" ">
<path fill="none" stroke="#63b8ff" d="M370.51,-191.23C381.13,-182.23 394.48,-170.91 404.85,-162.11"/>
<polygon fill="#63b8ff" stroke="#63b8ff" points="368.05,-188.73 362.68,-197.87 372.57,-194.07 368.05,-188.73"/>
</a>
</g>
</g>
<!-- Node10 -->
<g id="Node000010" class="node">
<title>Node10</title>
<g id="a_Node000010"><a xlink:href="rm__impl_8h.html" target="_top" xlink:title="Region map client stub implementation.">
<polygon fill="white" stroke="#666666" points="616.5,-156.5 500.5,-156.5 500.5,-137.5 616.5,-137.5 616.5,-156.5"/>
<text text-anchor="middle" x="558.5" y="-144.5" font-family="Helvetica,sans-Serif" font-size="10.00">l4/re/impl/rm_impl.h</text>
</a>
</g>
</g>
<!-- Node1&#45;&gt;Node10 -->
<g id="edge11_Node000001_Node000010" class="edge">
<title>Node1&#45;&gt;Node10</title>
<g id="a_edge11_Node000001_Node000010"><a xlink:title=" ">
<path fill="none" stroke="#63b8ff" d="M392.11,-195.25C431.95,-183.94 492.49,-166.75 528.51,-156.52"/>
<polygon fill="#63b8ff" stroke="#63b8ff" points="391.12,-191.89 382.45,-197.99 393.03,-198.63 391.12,-191.89"/>
</a>
</g>
</g>
<!-- Node3 -->
<g id="Node000003" class="node">
<title>Node3</title>
<g id="a_Node000003"><a xlink:href="client_2l4virtio_source.html" target="_top" xlink:title=" ">
<polygon fill="white" stroke="#666666" points="167,-96 74,-96 74,-66 167,-66 167,-96"/>
<text text-anchor="start" x="82" y="-84" font-family="Helvetica,sans-Serif" font-size="10.00">l4/l4virtio/client</text>
<text text-anchor="middle" x="120.5" y="-73" font-family="Helvetica,sans-Serif" font-size="10.00">/l4virtio</text>
</a>
</g>
</g>
<!-- Node2&#45;&gt;Node3 -->
<g id="edge2_Node000002_Node000003" class="edge">
<title>Node2&#45;&gt;Node3</title>
<g id="a_edge2_Node000002_Node000003"><a xlink:title=" ">
<path fill="none" stroke="#63b8ff" d="M147.45,-128.61C141.6,-118.5 134.32,-105.91 128.8,-96.36"/>
<polygon fill="#63b8ff" stroke="#63b8ff" points="144.47,-130.46 152.51,-137.37 150.54,-126.96 144.47,-130.46"/>
</a>
</g>
</g>
<!-- Node4 -->
<g id="Node000004" class="node">
<title>Node4</title>
<g id="a_Node000004"><a xlink:href="client_2virtio-block_source.html" target="_top" xlink:title=" ">
<polygon fill="white" stroke="#666666" points="93,-30 0,-30 0,0 93,0 93,-30"/>
<text text-anchor="start" x="8" y="-18" font-family="Helvetica,sans-Serif" font-size="10.00">l4/l4virtio/client</text>
<text text-anchor="middle" x="46.5" y="-7" font-family="Helvetica,sans-Serif" font-size="10.00">/virtio&#45;block</text>
</a>
</g>
</g>
<!-- Node2&#45;&gt;Node4 -->
<g id="edge5_Node000002_Node000004" class="edge">
<title>Node2&#45;&gt;Node4</title>
<g id="a_edge5_Node000002_Node000004"><a xlink:title=" ">
<path fill="none" stroke="#63b8ff" d="M118.6,-133.78C99.59,-125.9 77.97,-113.74 64.5,-96 49.78,-76.61 46.69,-47.43 46.27,-30.19"/>
<polygon fill="#63b8ff" stroke="#63b8ff" points="117.37,-137.06 127.96,-137.42 119.91,-130.53 117.37,-137.06"/>
</a>
</g>
</g>
<!-- Node5 -->
<g id="Node000005" class="node">
<title>Node5</title>
<g id="a_Node000005"><a xlink:href="virtio-net_source.html" target="_top" xlink:title=" ">
<polygon fill="white" stroke="#666666" points="205,-30 112,-30 112,0 205,0 205,-30"/>
<text text-anchor="start" x="120" y="-18" font-family="Helvetica,sans-Serif" font-size="10.00">l4/l4virtio/client</text>
<text text-anchor="middle" x="158.5" y="-7" font-family="Helvetica,sans-Serif" font-size="10.00">/virtio&#45;net</text>
</a>
</g>
</g>
<!-- Node2&#45;&gt;Node5 -->
<g id="edge6_Node000002_Node000005" class="edge">
<title>Node2&#45;&gt;Node5</title>
<g id="a_edge6_Node000002_Node000005"><a xlink:title=" ">
<path fill="none" stroke="#63b8ff" d="M165.67,-128.04C169.48,-118.69 173.59,-106.96 175.5,-96 177.79,-82.87 177.68,-79.15 175.5,-66 173.44,-53.52 168.66,-39.96 164.69,-30.12"/>
<polygon fill="#63b8ff" stroke="#63b8ff" points="162.38,-126.83 161.63,-137.4 168.81,-129.6 162.38,-126.83"/>
</a>
</g>
</g>
<!-- Node6 -->
<g id="Node000006" class="node">
<title>Node6</title>
<g id="a_Node000006"><a xlink:href="server_2l4virtio_source.html" target="_top" xlink:title=" ">
<polygon fill="white" stroke="#666666" points="321,-96 224,-96 224,-66 321,-66 321,-96"/>
<text text-anchor="start" x="232" y="-84" font-family="Helvetica,sans-Serif" font-size="10.00">l4/l4virtio/server</text>
<text text-anchor="middle" x="272.5" y="-73" font-family="Helvetica,sans-Serif" font-size="10.00">/l4virtio</text>
</a>
</g>
</g>
<!-- Node2&#45;&gt;Node6 -->
<g id="edge7_Node000002_Node000006" class="edge">
<title>Node2&#45;&gt;Node6</title>
<g id="a_edge7_Node000002_Node000006"><a xlink:title=" ">
<path fill="none" stroke="#63b8ff" d="M181.76,-132.5C200.95,-121.82 227.66,-106.95 247.14,-96.12"/>
<polygon fill="#63b8ff" stroke="#63b8ff" points="180.05,-129.45 173.01,-137.37 183.45,-135.56 180.05,-129.45"/>
</a>
</g>
</g>
<!-- Node3&#45;&gt;Node4 -->
<g id="edge3_Node000003_Node000004" class="edge">
<title>Node3&#45;&gt;Node4</title>
<g id="a_edge3_Node000003_Node000004"><a xlink:title=" ">
<path fill="none" stroke="#63b8ff" d="M96.45,-59.2C85.47,-49.7 72.74,-38.69 62.88,-30.16"/>
<polygon fill="#63b8ff" stroke="#63b8ff" points="94.22,-61.9 104.08,-65.8 98.8,-56.61 94.22,-61.9"/>
</a>
</g>
</g>
<!-- Node3&#45;&gt;Node5 -->
<g id="edge4_Node000003_Node000005" class="edge">
<title>Node3&#45;&gt;Node5</title>
<g id="a_edge4_Node000003_Node000005"><a xlink:title=" ">
<path fill="none" stroke="#63b8ff" d="M134.18,-56.96C139.5,-48 145.42,-38.03 150.09,-30.16"/>
<polygon fill="#63b8ff" stroke="#63b8ff" points="131.03,-55.41 128.93,-65.8 137.05,-58.98 131.03,-55.41"/>
</a>
</g>
</g>
<!-- Node7 -->
<g id="Node000007" class="node">
<title>Node7</title>
<g id="a_Node000007"><a xlink:href="server_2virtio-block_source.html" target="_top" xlink:title=" ">
<polygon fill="white" stroke="#666666" points="321,-30 224,-30 224,0 321,0 321,-30"/>
<text text-anchor="start" x="232" y="-18" font-family="Helvetica,sans-Serif" font-size="10.00">l4/l4virtio/server</text>
<text text-anchor="middle" x="272.5" y="-7" font-family="Helvetica,sans-Serif" font-size="10.00">/virtio&#45;block</text>
</a>
</g>
</g>
<!-- Node6&#45;&gt;Node7 -->
<g id="edge8_Node000006_Node000007" class="edge">
<title>Node6&#45;&gt;Node7</title>
<g id="a_edge8_Node000006_Node000007"><a xlink:title=" ">
<path fill="none" stroke="#63b8ff" d="M272.5,-55.54C272.5,-46.96 272.5,-37.61 272.5,-30.16"/>
<polygon fill="#63b8ff" stroke="#63b8ff" points="269,-55.8 272.5,-65.8 276,-55.8 269,-55.8"/>
</a>
</g>
</g>
</g>
</svg>
