<?xml version="1.0" encoding="UTF-8" standalone="no"?>
<!DOCTYPE svg PUBLIC "-//W3C//DTD SVG 1.1//EN"
 "http://www.w3.org/Graphics/SVG/1.1/DTD/svg11.dtd">
<!-- Generated by graphviz version 2.42.4 (0)
 -->
<!-- Title: operator&gt;&gt; Pages: 1 -->
<svg width="412pt" height="64pt"
 viewBox="0.00 0.00 412.00 64.00" xmlns="http://www.w3.org/2000/svg" xmlns:xlink="http://www.w3.org/1999/xlink">
<g id="graph0" class="graph" transform="scale(1 1) rotate(0) translate(4 60)">
<title>operator&gt;&gt;</title>
<!-- Node1 -->
<g id="Node000001" class="node">
<title>Node1</title>
<g id="a_Node000001"><a xlink:title="Extract an array of T elements from the stream s.">
<polygon fill="#999999" stroke="#666666" points="74,-37 0,-37 0,-18 74,-18 74,-37"/>
<text text-anchor="middle" x="37" y="-25" font-family="Helvetica,sans-Serif" font-size="10.00">operator&gt;&gt;</text>
</a>
</g>
</g>
<!-- Node2 -->
<g id="Node000002" class="node">
<title>Node2</title>
<g id="a_Node000002"><a xlink:href="classL4_1_1Ipc_1_1Istream.html#af4d28aa64235c822f624891154109a0c" target="_top" xlink:title="Copy out an array of type T with size elements.">
<polygon fill="white" stroke="#666666" points="239.5,-56 126.5,-56 126.5,-37 239.5,-37 239.5,-56"/>
<text text-anchor="middle" x="183" y="-44" font-family="Helvetica,sans-Serif" font-size="10.00">L4::Ipc::Istream::get</text>
</a>
</g>
</g>
<!-- Node1&#45;&gt;Node2 -->
<g id="edge1_Node000001_Node000002" class="edge">
<title>Node1&#45;&gt;Node2</title>
<g id="a_edge1_Node000001_Node000002"><a xlink:title=" ">
<path fill="none" stroke="#63b8ff" d="M74.34,-32.29C87.13,-33.98 101.94,-35.94 116.39,-37.84"/>
<polygon fill="#63b8ff" stroke="#63b8ff" points="115.95,-41.31 126.32,-39.15 116.86,-34.38 115.95,-41.31"/>
</a>
</g>
</g>
<!-- Node3 -->
<g id="Node000003" class="node">
<title>Node3</title>
<g id="a_Node000003"><a xlink:href="classL4_1_1Ipc_1_1Istream.html#a8087f571b556efae9b7738741f6dc3e0" target="_top" xlink:title="Check whether a value of type T can be obtained from the stream.">
<polygon fill="white" stroke="#666666" points="256,-19 110,-19 110,0 256,0 256,-19"/>
<text text-anchor="middle" x="183" y="-7" font-family="Helvetica,sans-Serif" font-size="10.00">L4::Ipc::Istream::has_more</text>
</a>
</g>
</g>
<!-- Node1&#45;&gt;Node3 -->
<g id="edge2_Node000001_Node000003" class="edge">
<title>Node1&#45;&gt;Node3</title>
<g id="a_edge2_Node000001_Node000003"><a xlink:title=" ">
<path fill="none" stroke="#63b8ff" d="M74.34,-22.96C82.21,-21.97 90.84,-20.9 99.68,-19.79"/>
<polygon fill="#63b8ff" stroke="#63b8ff" points="100.23,-23.25 109.72,-18.53 99.37,-16.3 100.23,-23.25"/>
</a>
</g>
</g>
<!-- Node4 -->
<g id="Node000004" class="node">
<title>Node4</title>
<g id="a_Node000004"><a xlink:href="structl4__msgtag__t.html#a98577ea730d9abcd938b89d5c7adb18c" target="_top" xlink:title="Get the number of untyped words.">
<polygon fill="white" stroke="#666666" points="404,-19 292,-19 292,0 404,0 404,-19"/>
<text text-anchor="middle" x="348" y="-7" font-family="Helvetica,sans-Serif" font-size="10.00">l4_msgtag_t::words</text>
</a>
</g>
</g>
<!-- Node3&#45;&gt;Node4 -->
<g id="edge3_Node000003_Node000004" class="edge">
<title>Node3&#45;&gt;Node4</title>
<g id="a_edge3_Node000003_Node000004"><a xlink:title=" ">
<path fill="none" stroke="#63b8ff" d="M256.44,-9.5C264.91,-9.5 273.5,-9.5 281.86,-9.5"/>
<polygon fill="#63b8ff" stroke="#63b8ff" points="281.9,-13 291.9,-9.5 281.9,-6 281.9,-13"/>
</a>
</g>
</g>
</g>
</svg>
