<?xml version="1.0" encoding="UTF-8" standalone="no"?>
<!DOCTYPE svg PUBLIC "-//W3C//DTD SVG 1.1//EN"
 "http://www.w3.org/Graphics/SVG/1.1/DTD/svg11.dtd">
<!-- Generated by graphviz version 2.42.4 (0)
 -->
<!-- Title: l4/sys/irq Pages: 1 -->
<svg width="1103pt" height="808pt"
 viewBox="0.00 0.00 1102.52 808.00" xmlns="http://www.w3.org/2000/svg" xmlns:xlink="http://www.w3.org/1999/xlink">
<g id="graph0" class="graph" transform="scale(1 1) rotate(0) translate(4 804)">
<title>l4/sys/irq</title>
<!-- Node1 -->
<g id="Node000001" class="node">
<title>Node1</title>
<g id="a_Node000001"><a xlink:title="C++ Irq interface.">
<polygon fill="#999999" stroke="#666666" points="768.5,-800 707.5,-800 707.5,-781 768.5,-781 768.5,-800"/>
<text text-anchor="middle" x="738" y="-788" font-family="Helvetica,sans-Serif" font-size="10.00">l4/sys/irq</text>
</a>
</g>
</g>
<!-- Node2 -->
<g id="Node000002" class="node">
<title>Node2</title>
<g id="a_Node000002"><a xlink:href="icu_8h.html" target="_top" xlink:title="Interrupt controller.">
<polygon fill="white" stroke="#666666" points="238.5,-470 167.5,-470 167.5,-451 238.5,-451 238.5,-470"/>
<text text-anchor="middle" x="203" y="-458" font-family="Helvetica,sans-Serif" font-size="10.00">l4/sys/icu.h</text>
</a>
</g>
</g>
<!-- Node1&#45;&gt;Node2 -->
<g id="edge1_Node000001_Node000002" class="edge">
<title>Node1&#45;&gt;Node2</title>
<g id="a_edge1_Node000001_Node000002"><a xlink:title=" ">
<path fill="none" stroke="#63b8ff" d="M707.23,-789.02C602.89,-786.59 269,-771.74 269,-681.5 269,-681.5 269,-681.5 269,-569.5 269,-532.23 240.02,-496.93 220.47,-477.36"/>
<polygon fill="#63b8ff" stroke="#63b8ff" points="222.66,-474.61 213.02,-470.2 217.81,-479.65 222.66,-474.61"/>
</a>
</g>
</g>
<!-- Node15 -->
<g id="Node000015" class="node">
<title>Node15</title>
<g id="a_Node000015"><a xlink:href="l4_2sys_2irq_8h.html" target="_top" xlink:title="C Irq interface.">
<polygon fill="white" stroke="#666666" points="396,-470 326,-470 326,-451 396,-451 396,-470"/>
<text text-anchor="middle" x="361" y="-458" font-family="Helvetica,sans-Serif" font-size="10.00">l4/sys/irq.h</text>
</a>
</g>
</g>
<!-- Node1&#45;&gt;Node15 -->
<g id="edge28_Node000001_Node000015" class="edge">
<title>Node1&#45;&gt;Node15</title>
<g id="a_edge28_Node000001_Node000015"><a xlink:title=" ">
<path fill="none" stroke="#63b8ff" d="M707.22,-786.95C619.92,-778.86 377,-750.19 377,-681.5 377,-681.5 377,-681.5 377,-569.5 377,-537.85 370.19,-501.54 365.46,-480.11"/>
<polygon fill="#63b8ff" stroke="#63b8ff" points="368.81,-479.08 363.16,-470.12 361.99,-480.65 368.81,-479.08"/>
</a>
</g>
</g>
<!-- Node17 -->
<g id="Node000017" class="node">
<title>Node17</title>
<g id="a_Node000017"><a xlink:href="capability.html" target="_top" xlink:title="L4::Cap related definitions.">
<polygon fill="white" stroke="#666666" points="744,-690 648,-690 648,-671 744,-671 744,-690"/>
<text text-anchor="middle" x="696" y="-678" font-family="Helvetica,sans-Serif" font-size="10.00">l4/sys/capability</text>
</a>
</g>
</g>
<!-- Node1&#45;&gt;Node17 -->
<g id="edge35_Node000001_Node000017" class="edge">
<title>Node1&#45;&gt;Node17</title>
<g id="a_edge35_Node000001_Node000017"><a xlink:title=" ">
<path fill="none" stroke="#63b8ff" d="M733.21,-780.82C728.45,-771.98 721.14,-757.79 716,-745 710.07,-730.24 704.73,-712.99 701.07,-700.19"/>
<polygon fill="#63b8ff" stroke="#63b8ff" points="704.36,-698.97 698.3,-690.28 697.61,-700.85 704.36,-698.97"/>
</a>
</g>
</g>
<!-- Node25 -->
<g id="Node000025" class="node">
<title>Node25</title>
<g id="a_Node000025"><a xlink:href="ipc__iface.html" target="_top" xlink:title="Interface Definition Language.">
<polygon fill="white" stroke="#666666" points="879,-580 799,-580 799,-561 879,-561 879,-580"/>
<text text-anchor="middle" x="839" y="-568" font-family="Helvetica,sans-Serif" font-size="10.00">cxx/ipc_iface</text>
</a>
</g>
</g>
<!-- Node1&#45;&gt;Node25 -->
<g id="edge76_Node000001_Node000025" class="edge">
<title>Node1&#45;&gt;Node25</title>
<g id="a_edge76_Node000001_Node000025"><a xlink:title=" ">
<path fill="none" stroke="#63b8ff" d="M768.73,-785.94C793.94,-781.21 828.14,-770.27 845,-745 877.15,-696.81 857.64,-623.18 845.92,-589.48"/>
<polygon fill="#63b8ff" stroke="#63b8ff" points="849.19,-588.21 842.47,-580.02 842.61,-590.61 849.19,-588.21"/>
</a>
</g>
</g>
<!-- Node26 -->
<g id="Node000026" class="node">
<title>Node26</title>
<g id="a_Node000026"><a xlink:href="ipc__types.html" target="_top" xlink:title=" ">
<polygon fill="white" stroke="#666666" points="1022.5,-470 907.5,-470 907.5,-451 1022.5,-451 1022.5,-470"/>
<text text-anchor="middle" x="965" y="-458" font-family="Helvetica,sans-Serif" font-size="10.00">l4/sys/cxx/ipc_types</text>
</a>
</g>
</g>
<!-- Node1&#45;&gt;Node26 -->
<g id="edge77_Node000001_Node000026" class="edge">
<title>Node1&#45;&gt;Node26</title>
<g id="a_edge77_Node000001_Node000026"><a xlink:title=" ">
<path fill="none" stroke="#63b8ff" d="M768.58,-785.61C847.34,-774.72 1051,-740.85 1051,-681.5 1051,-681.5 1051,-681.5 1051,-569.5 1051,-528.76 1013.09,-494.51 987.61,-476.09"/>
<polygon fill="#63b8ff" stroke="#63b8ff" points="989.41,-473.08 979.2,-470.25 985.42,-478.83 989.41,-473.08"/>
</a>
</g>
</g>
<!-- Node29 -->
<g id="Node000029" class="node">
<title>Node29</title>
<g id="a_Node000029"><a xlink:href="rcv__endpoint.html" target="_top" xlink:title="The C++ Receive endpoint interface.">
<polygon fill="white" stroke="#666666" points="835.5,-745 724.5,-745 724.5,-726 835.5,-726 835.5,-745"/>
<text text-anchor="middle" x="780" y="-733" font-family="Helvetica,sans-Serif" font-size="10.00">l4/sys/rcv_endpoint</text>
</a>
</g>
</g>
<!-- Node1&#45;&gt;Node29 -->
<g id="edge71_Node000001_Node000029" class="edge">
<title>Node1&#45;&gt;Node29</title>
<g id="a_edge71_Node000001_Node000029"><a xlink:title=" ">
<path fill="none" stroke="#63b8ff" d="M744.94,-780.75C750.87,-773.26 759.57,-762.28 766.82,-753.13"/>
<polygon fill="#63b8ff" stroke="#63b8ff" points="769.73,-755.1 773.19,-745.09 764.24,-750.75 769.73,-755.1"/>
</a>
</g>
</g>
<!-- Node3 -->
<g id="Node000003" class="node">
<title>Node3</title>
<g id="a_Node000003"><a xlink:href="kernel__object_8h.html" target="_top" xlink:title="Kernel object system calls.">
<polygon fill="white" stroke="#666666" points="264,-415 142,-415 142,-396 264,-396 264,-415"/>
<text text-anchor="middle" x="203" y="-403" font-family="Helvetica,sans-Serif" font-size="10.00">l4/sys/kernel_object.h</text>
</a>
</g>
</g>
<!-- Node2&#45;&gt;Node3 -->
<g id="edge2_Node000002_Node000003" class="edge">
<title>Node2&#45;&gt;Node3</title>
<g id="a_edge2_Node000002_Node000003"><a xlink:title=" ">
<path fill="none" stroke="#63b8ff" d="M203,-450.75C203,-443.8 203,-433.85 203,-425.13"/>
<polygon fill="#63b8ff" stroke="#63b8ff" points="206.5,-425.09 203,-415.09 199.5,-425.09 206.5,-425.09"/>
</a>
</g>
</g>
<!-- Node13 -->
<g id="Node000013" class="node">
<title>Node13</title>
<g id="a_Node000013"><a xlink:href="l4_2sys_2ipc_8h.html" target="_top" xlink:title="Common IPC interface.">
<polygon fill="white" stroke="#666666" points="385.5,-294 314.5,-294 314.5,-275 385.5,-275 385.5,-294"/>
<text text-anchor="middle" x="350" y="-282" font-family="Helvetica,sans-Serif" font-size="10.00">l4/sys/ipc.h</text>
</a>
</g>
</g>
<!-- Node2&#45;&gt;Node13 -->
<g id="edge27_Node000002_Node000013" class="edge">
<title>Node2&#45;&gt;Node13</title>
<g id="a_edge27_Node000002_Node000013"><a xlink:title=" ">
<path fill="none" stroke="#63b8ff" d="M178.19,-450.95C162.16,-443.99 142.57,-432.42 133,-415 117.41,-386.61 144.9,-344.24 162,-330 202.03,-296.65 262.7,-287.39 304.22,-285.26"/>
<polygon fill="#63b8ff" stroke="#63b8ff" points="304.49,-288.75 314.34,-284.86 304.21,-281.76 304.49,-288.75"/>
</a>
</g>
</g>
<!-- Node4 -->
<g id="Node000004" class="node">
<title>Node4</title>
<g id="a_Node000004"><a xlink:href="l4_2sys_2types_8h.html" target="_top" xlink:title="Common L4 ABI Data Types.">
<polygon fill="white" stroke="#666666" points="665,-184 581,-184 581,-165 665,-165 665,-184"/>
<text text-anchor="middle" x="623" y="-172" font-family="Helvetica,sans-Serif" font-size="10.00">l4/sys/types.h</text>
</a>
</g>
</g>
<!-- Node3&#45;&gt;Node4 -->
<g id="edge3_Node000003_Node000004" class="edge">
<title>Node3&#45;&gt;Node4</title>
<g id="a_edge3_Node000003_Node000004"><a xlink:title=" ">
<path fill="none" stroke="#63b8ff" d="M187.87,-395.73C176.19,-387.99 160.88,-375.55 154,-360 148.6,-347.81 148.68,-342.23 154,-330 188.13,-251.54 230.9,-247.29 312,-220 399.78,-190.46 507.93,-180.53 570.82,-177.19"/>
<polygon fill="#63b8ff" stroke="#63b8ff" points="571.07,-180.68 580.89,-176.69 570.73,-173.69 571.07,-180.68"/>
</a>
</g>
</g>
<!-- Node6 -->
<g id="Node000006" class="node">
<title>Node6</title>
<g id="a_Node000006"><a xlink:href="compiler_8h.html" target="_top" xlink:title="L4 compiler related defines.">
<polygon fill="white" stroke="#666666" points="481.5,-74 382.5,-74 382.5,-55 481.5,-55 481.5,-74"/>
<text text-anchor="middle" x="432" y="-62" font-family="Helvetica,sans-Serif" font-size="10.00">l4/sys/compiler.h</text>
</a>
</g>
</g>
<!-- Node3&#45;&gt;Node6 -->
<g id="edge15_Node000003_Node000006" class="edge">
<title>Node3&#45;&gt;Node6</title>
<g id="a_edge15_Node000003_Node000006"><a xlink:title=" ">
<path fill="none" stroke="#63b8ff" d="M145.91,-395.98C85.87,-383.4 0,-353.52 0,-285.5 0,-285.5 0,-285.5 0,-173.5 0,-97.63 253.95,-74.61 372.44,-68"/>
<polygon fill="#63b8ff" stroke="#63b8ff" points="372.65,-71.5 382.44,-67.47 372.27,-64.51 372.65,-71.5"/>
</a>
</g>
</g>
<!-- Node11 -->
<g id="Node000011" class="node">
<title>Node11</title>
<g id="a_Node000011"><a xlink:href="l4_2sys_2utcb_8h.html" target="_top" xlink:title="UTCB definitions.">
<polygon fill="white" stroke="#666666" points="494,-239 416,-239 416,-220 494,-220 494,-239"/>
<text text-anchor="middle" x="455" y="-227" font-family="Helvetica,sans-Serif" font-size="10.00">l4/sys/utcb.h</text>
</a>
</g>
</g>
<!-- Node3&#45;&gt;Node11 -->
<g id="edge16_Node000003_Node000011" class="edge">
<title>Node3&#45;&gt;Node11</title>
<g id="a_edge16_Node000003_Node000011"><a xlink:title=" ">
<path fill="none" stroke="#63b8ff" d="M191.99,-395.91C175.13,-381.7 146.43,-352.62 162,-330 190.14,-289.14 330.2,-255.44 406.03,-239.84"/>
<polygon fill="#63b8ff" stroke="#63b8ff" points="406.74,-243.27 415.84,-237.85 405.34,-236.41 406.74,-243.27"/>
</a>
</g>
</g>
<!-- Node12 -->
<g id="Node000012" class="node">
<title>Node12</title>
<g id="a_Node000012"><a xlink:href="____kernel__object__impl_8h.html" target="_top" xlink:title="Low&#45;level kernel debugger functions.">
<polygon fill="white" stroke="#666666" points="304,-360 180,-360 180,-330 304,-330 304,-360"/>
<text text-anchor="start" x="188" y="-348" font-family="Helvetica,sans-Serif" font-size="10.00">l4/sys/__kernel_object</text>
<text text-anchor="middle" x="242" y="-337" font-family="Helvetica,sans-Serif" font-size="10.00">_impl.h</text>
</a>
</g>
</g>
<!-- Node3&#45;&gt;Node12 -->
<g id="edge20_Node000003_Node000012" class="edge">
<title>Node3&#45;&gt;Node12</title>
<g id="a_edge20_Node000003_Node000012"><a xlink:title=" ">
<path fill="none" stroke="#63b8ff" d="M208.75,-395.87C213.56,-388.67 220.62,-378.07 227,-368.49"/>
<polygon fill="#63b8ff" stroke="#63b8ff" points="229.96,-370.38 232.59,-360.11 224.13,-366.49 229.96,-370.38"/>
</a>
</g>
</g>
<!-- Node3&#45;&gt;Node13 -->
<g id="edge26_Node000003_Node000013" class="edge">
<title>Node3&#45;&gt;Node13</title>
<g id="a_edge26_Node000003_Node000013"><a xlink:title=" ">
<path fill="none" stroke="#63b8ff" d="M193.98,-395.94C179.6,-381.25 154.7,-350.85 171,-330 187.26,-309.2 256.84,-296.73 304.31,-290.49"/>
<polygon fill="#63b8ff" stroke="#63b8ff" points="304.89,-293.95 314.37,-289.22 304.01,-287 304.89,-293.95"/>
</a>
</g>
</g>
<!-- Node5 -->
<g id="Node000005" class="node">
<title>Node5</title>
<g id="a_Node000005"><a xlink:href="l4_2sys_2l4int_8h.html" target="_top" xlink:title="Fixed sized integer types, generic version.">
<polygon fill="white" stroke="#666666" points="758.5,-74 679.5,-74 679.5,-55 758.5,-55 758.5,-74"/>
<text text-anchor="middle" x="719" y="-62" font-family="Helvetica,sans-Serif" font-size="10.00">l4/sys/l4int.h</text>
</a>
</g>
</g>
<!-- Node4&#45;&gt;Node5 -->
<g id="edge4_Node000004_Node000005" class="edge">
<title>Node4&#45;&gt;Node5</title>
<g id="a_edge4_Node000004_Node000005"><a xlink:title=" ">
<path fill="none" stroke="#63b8ff" d="M665.02,-169.53C691.58,-164.6 724,-153.58 741,-129 750.71,-114.97 742.14,-96.24 733.02,-82.77"/>
<polygon fill="#63b8ff" stroke="#63b8ff" points="735.59,-80.36 726.82,-74.4 729.96,-84.52 735.59,-80.36"/>
</a>
</g>
</g>
<!-- Node4&#45;&gt;Node6 -->
<g id="edge5_Node000004_Node000006" class="edge">
<title>Node4&#45;&gt;Node6</title>
<g id="a_edge5_Node000004_Node000006"><a xlink:title=" ">
<path fill="none" stroke="#63b8ff" d="M580.96,-165.45C553.23,-158.77 516.99,-147.34 489,-129 470.3,-116.75 453.83,-96.87 443.47,-82.62"/>
<polygon fill="#63b8ff" stroke="#63b8ff" points="446.18,-80.38 437.58,-74.2 440.45,-84.4 446.18,-80.38"/>
</a>
</g>
</g>
<!-- Node8 -->
<g id="Node000008" class="node">
<title>Node8</title>
<g id="a_Node000008"><a xlink:href="l4_2sys_2consts_8h.html" target="_top" xlink:title="Common constants.">
<polygon fill="white" stroke="#666666" points="877.5,-129 788.5,-129 788.5,-110 877.5,-110 877.5,-129"/>
<text text-anchor="middle" x="833" y="-117" font-family="Helvetica,sans-Serif" font-size="10.00">l4/sys/consts.h</text>
</a>
</g>
</g>
<!-- Node4&#45;&gt;Node8 -->
<g id="edge7_Node000004_Node000008" class="edge">
<title>Node4&#45;&gt;Node8</title>
<g id="a_edge7_Node000004_Node000008"><a xlink:title=" ">
<path fill="none" stroke="#63b8ff" d="M656.74,-164.98C692.68,-155.91 749.72,-141.52 789.13,-131.57"/>
<polygon fill="#63b8ff" stroke="#63b8ff" points="790.16,-134.92 799,-129.08 788.44,-128.14 790.16,-134.92"/>
</a>
</g>
</g>
<!-- Node9 -->
<g id="Node000009" class="node">
<title>Node9</title>
<g id="a_Node000009"><a xlink:href="____l4__fpage_8h_source.html" target="_top" xlink:title=" ">
<polygon fill="white" stroke="#666666" points="608,-129 498,-129 498,-110 608,-110 608,-129"/>
<text text-anchor="middle" x="553" y="-117" font-family="Helvetica,sans-Serif" font-size="10.00">l4/sys/__l4_fpage.h</text>
</a>
</g>
</g>
<!-- Node4&#45;&gt;Node9 -->
<g id="edge10_Node000004_Node000009" class="edge">
<title>Node4&#45;&gt;Node9</title>
<g id="a_edge10_Node000004_Node000009"><a xlink:title=" ">
<path fill="none" stroke="#63b8ff" d="M611.75,-164.98C601.2,-157 585.2,-144.88 572.56,-135.31"/>
<polygon fill="#63b8ff" stroke="#63b8ff" points="574.54,-132.42 564.45,-129.17 570.31,-138 574.54,-132.42"/>
</a>
</g>
</g>
<!-- Node10 -->
<g id="Node000010" class="node">
<title>Node10</title>
<g id="a_Node000010"><a xlink:href="____timeout_8h_source.html" target="_top" xlink:title=" ">
<polygon fill="white" stroke="#666666" points="732,-129 626,-129 626,-110 732,-110 732,-129"/>
<text text-anchor="middle" x="679" y="-117" font-family="Helvetica,sans-Serif" font-size="10.00">l4/sys/__timeout.h</text>
</a>
</g>
</g>
<!-- Node4&#45;&gt;Node10 -->
<g id="edge12_Node000004_Node000010" class="edge">
<title>Node4&#45;&gt;Node10</title>
<g id="a_edge12_Node000004_Node000010"><a xlink:title=" ">
<path fill="none" stroke="#63b8ff" d="M632,-164.98C640.19,-157.23 652.51,-145.58 662.47,-136.14"/>
<polygon fill="#63b8ff" stroke="#63b8ff" points="664.98,-138.59 669.84,-129.17 660.17,-133.5 664.98,-138.59"/>
</a>
</g>
</g>
<!-- Node7 -->
<g id="Node000007" class="node">
<title>Node7</title>
<g id="a_Node000007"><a xlink:title=" ">
<polygon fill="#e0e0e0" stroke="#999999" points="478,-19 386,-19 386,0 478,0 478,-19"/>
<text text-anchor="middle" x="432" y="-7" font-family="Helvetica,sans-Serif" font-size="10.00">l4/sys/linkage.h</text>
</a>
</g>
</g>
<!-- Node6&#45;&gt;Node7 -->
<g id="edge6_Node000006_Node000007" class="edge">
<title>Node6&#45;&gt;Node7</title>
<g id="a_edge6_Node000006_Node000007"><a xlink:title=" ">
<path fill="none" stroke="#63b8ff" d="M432,-54.75C432,-47.8 432,-37.85 432,-29.13"/>
<polygon fill="#63b8ff" stroke="#63b8ff" points="435.5,-29.09 432,-19.09 428.5,-29.09 435.5,-29.09"/>
</a>
</g>
</g>
<!-- Node8&#45;&gt;Node5 -->
<g id="edge9_Node000008_Node000005" class="edge">
<title>Node8&#45;&gt;Node5</title>
<g id="a_edge9_Node000008_Node000005"><a xlink:title=" ">
<path fill="none" stroke="#63b8ff" d="M814.68,-109.98C796.34,-101.46 767.89,-88.23 746.77,-78.41"/>
<polygon fill="#63b8ff" stroke="#63b8ff" points="748.19,-75.21 737.65,-74.17 745.24,-81.56 748.19,-75.21"/>
</a>
</g>
</g>
<!-- Node8&#45;&gt;Node6 -->
<g id="edge8_Node000008_Node000006" class="edge">
<title>Node8&#45;&gt;Node6</title>
<g id="a_edge8_Node000008_Node000006"><a xlink:title=" ">
<path fill="none" stroke="#63b8ff" d="M788.17,-112.57C715.65,-102.99 572.59,-84.08 491.59,-73.38"/>
<polygon fill="#63b8ff" stroke="#63b8ff" points="491.92,-69.89 481.54,-72.05 491,-76.83 491.92,-69.89"/>
</a>
</g>
</g>
<!-- Node9&#45;&gt;Node6 -->
<g id="edge11_Node000009_Node000006" class="edge">
<title>Node9&#45;&gt;Node6</title>
<g id="a_edge11_Node000009_Node000006"><a xlink:title=" ">
<path fill="none" stroke="#63b8ff" d="M533.56,-109.98C514.01,-101.42 483.62,-88.11 461.18,-78.28"/>
<polygon fill="#63b8ff" stroke="#63b8ff" points="462.36,-74.98 451.79,-74.17 459.55,-81.39 462.36,-74.98"/>
</a>
</g>
</g>
<!-- Node10&#45;&gt;Node5 -->
<g id="edge13_Node000010_Node000005" class="edge">
<title>Node10&#45;&gt;Node5</title>
<g id="a_edge13_Node000010_Node000005"><a xlink:title=" ">
<path fill="none" stroke="#63b8ff" d="M685.61,-109.75C691.26,-102.26 699.54,-91.28 706.45,-82.13"/>
<polygon fill="#63b8ff" stroke="#63b8ff" points="709.29,-84.18 712.52,-74.09 703.7,-79.96 709.29,-84.18"/>
</a>
</g>
</g>
<!-- Node10&#45;&gt;Node6 -->
<g id="edge14_Node000010_Node000006" class="edge">
<title>Node10&#45;&gt;Node6</title>
<g id="a_edge14_Node000010_Node000006"><a xlink:title=" ">
<path fill="none" stroke="#63b8ff" d="M639.32,-109.98C596.5,-100.8 528.24,-86.15 481.84,-76.19"/>
<polygon fill="#63b8ff" stroke="#63b8ff" points="482.51,-72.76 472,-74.08 481.04,-79.6 482.51,-72.76"/>
</a>
</g>
</g>
<!-- Node11&#45;&gt;Node4 -->
<g id="edge17_Node000011_Node000004" class="edge">
<title>Node11&#45;&gt;Node4</title>
<g id="a_edge17_Node000011_Node000004"><a xlink:title=" ">
<path fill="none" stroke="#63b8ff" d="M481.99,-219.98C510.2,-211.09 554.64,-197.07 586.08,-187.15"/>
<polygon fill="#63b8ff" stroke="#63b8ff" points="587.31,-190.43 595.8,-184.08 585.21,-183.75 587.31,-190.43"/>
</a>
</g>
</g>
<!-- Node11&#45;&gt;Node5 -->
<g id="edge19_Node000011_Node000005" class="edge">
<title>Node11&#45;&gt;Node5</title>
<g id="a_edge19_Node000011_Node000005"><a xlink:title=" ">
<path fill="none" stroke="#63b8ff" d="M454.66,-219.79C454.3,-197.79 456.64,-139.63 489,-110 514.75,-86.43 609.42,-74.46 668.97,-69.13"/>
<polygon fill="#63b8ff" stroke="#63b8ff" points="669.64,-72.59 679.3,-68.24 669.04,-65.61 669.64,-72.59"/>
</a>
</g>
</g>
<!-- Node11&#45;&gt;Node6 -->
<g id="edge18_Node000011_Node000006" class="edge">
<title>Node11&#45;&gt;Node6</title>
<g id="a_edge18_Node000011_Node000006"><a xlink:title=" ">
<path fill="none" stroke="#63b8ff" d="M453.76,-219.74C450.16,-194.2 439.61,-119.43 434.64,-84.23"/>
<polygon fill="#63b8ff" stroke="#63b8ff" points="438.11,-83.72 433.24,-74.31 431.17,-84.7 438.11,-83.72"/>
</a>
</g>
</g>
<!-- Node12&#45;&gt;Node13 -->
<g id="edge21_Node000012_Node000013" class="edge">
<title>Node12&#45;&gt;Node13</title>
<g id="a_edge21_Node000012_Node000013"><a xlink:title=" ">
<path fill="none" stroke="#63b8ff" d="M267.87,-329.99C285.24,-320.58 308.01,-308.24 325.17,-298.95"/>
<polygon fill="#63b8ff" stroke="#63b8ff" points="326.92,-301.98 334.05,-294.14 323.59,-295.82 326.92,-301.98"/>
</a>
</g>
</g>
<!-- Node13&#45;&gt;Node4 -->
<g id="edge22_Node000013_Node000004" class="edge">
<title>Node13&#45;&gt;Node4</title>
<g id="a_edge22_Node000013_Node000004"><a xlink:title=" ">
<path fill="none" stroke="#63b8ff" d="M385.63,-275.33C417.09,-267.6 463.9,-254.84 503,-239 538.14,-224.77 576.49,-203.35 600.15,-189.4"/>
<polygon fill="#63b8ff" stroke="#63b8ff" points="602.25,-192.22 609.04,-184.1 598.66,-186.21 602.25,-192.22"/>
</a>
</g>
</g>
<!-- Node13&#45;&gt;Node11 -->
<g id="edge23_Node000013_Node000011" class="edge">
<title>Node13&#45;&gt;Node11</title>
<g id="a_edge23_Node000013_Node000011"><a xlink:title=" ">
<path fill="none" stroke="#63b8ff" d="M366.87,-274.98C383.61,-266.54 409.5,-253.47 428.89,-243.68"/>
<polygon fill="#63b8ff" stroke="#63b8ff" points="430.47,-246.8 437.82,-239.17 427.32,-240.55 430.47,-246.8"/>
</a>
</g>
</g>
<!-- Node14 -->
<g id="Node000014" class="node">
<title>Node14</title>
<g id="a_Node000014"><a xlink:href="err_8h.html" target="_top" xlink:title="Error codes.">
<polygon fill="white" stroke="#666666" points="391,-239 321,-239 321,-220 391,-220 391,-239"/>
<text text-anchor="middle" x="356" y="-227" font-family="Helvetica,sans-Serif" font-size="10.00">l4/sys/err.h</text>
</a>
</g>
</g>
<!-- Node13&#45;&gt;Node14 -->
<g id="edge24_Node000013_Node000014" class="edge">
<title>Node13&#45;&gt;Node14</title>
<g id="a_edge24_Node000013_Node000014"><a xlink:title=" ">
<path fill="none" stroke="#63b8ff" d="M350.99,-274.75C351.78,-267.8 352.9,-257.85 353.89,-249.13"/>
<polygon fill="#63b8ff" stroke="#63b8ff" points="357.38,-249.42 355.03,-239.09 350.42,-248.63 357.38,-249.42"/>
</a>
</g>
</g>
<!-- Node14&#45;&gt;Node6 -->
<g id="edge25_Node000014_Node000006" class="edge">
<title>Node14&#45;&gt;Node6</title>
<g id="a_edge25_Node000014_Node000006"><a xlink:title=" ">
<path fill="none" stroke="#63b8ff" d="M360.09,-219.74C372.05,-194.09 407.16,-118.78 423.48,-83.78"/>
<polygon fill="#63b8ff" stroke="#63b8ff" points="426.84,-84.85 427.89,-74.31 420.5,-81.89 426.84,-84.85"/>
</a>
</g>
</g>
<!-- Node15&#45;&gt;Node3 -->
<g id="edge29_Node000015_Node000003" class="edge">
<title>Node15&#45;&gt;Node3</title>
<g id="a_edge29_Node000015_Node000003"><a xlink:title=" ">
<path fill="none" stroke="#63b8ff" d="M335.61,-450.98C309.2,-442.13 267.65,-428.19 238.11,-418.28"/>
<polygon fill="#63b8ff" stroke="#63b8ff" points="239.18,-414.94 228.58,-415.08 236.95,-421.58 239.18,-414.94"/>
</a>
</g>
</g>
<!-- Node15&#45;&gt;Node13 -->
<g id="edge30_Node000015_Node000013" class="edge">
<title>Node15&#45;&gt;Node13</title>
<g id="a_edge30_Node000015_Node000013"><a xlink:title=" ">
<path fill="none" stroke="#63b8ff" d="M359.86,-450.74C357.67,-433.43 352.91,-393.63 351,-360 349.92,-341.06 349.75,-319.38 349.8,-304.31"/>
<polygon fill="#63b8ff" stroke="#63b8ff" points="353.3,-304.25 349.87,-294.23 346.3,-304.2 353.3,-304.25"/>
</a>
</g>
</g>
<!-- Node16 -->
<g id="Node000016" class="node">
<title>Node16</title>
<g id="a_Node000016"><a xlink:href="rcv__endpoint_8h.html" target="_top" xlink:title="Receive endpoint C interface.">
<polygon fill="white" stroke="#666666" points="480,-354.5 360,-354.5 360,-335.5 480,-335.5 480,-354.5"/>
<text text-anchor="middle" x="420" y="-342.5" font-family="Helvetica,sans-Serif" font-size="10.00">l4/sys/rcv_endpoint.h</text>
</a>
</g>
</g>
<!-- Node15&#45;&gt;Node16 -->
<g id="edge31_Node000015_Node000016" class="edge">
<title>Node15&#45;&gt;Node16</title>
<g id="a_edge31_Node000015_Node000016"><a xlink:title=" ">
<path fill="none" stroke="#63b8ff" d="M365.43,-450.97C375.04,-432.48 397.96,-388.4 410.83,-363.64"/>
<polygon fill="#63b8ff" stroke="#63b8ff" points="414.01,-365.12 415.51,-354.63 407.8,-361.89 414.01,-365.12"/>
</a>
</g>
</g>
<!-- Node16&#45;&gt;Node4 -->
<g id="edge33_Node000016_Node000004" class="edge">
<title>Node16&#45;&gt;Node4</title>
<g id="a_edge33_Node000016_Node000004"><a xlink:title=" ">
<path fill="none" stroke="#63b8ff" d="M430.35,-335.41C462.85,-308.43 563.21,-225.13 604.73,-190.67"/>
<polygon fill="#63b8ff" stroke="#63b8ff" points="606.97,-193.35 612.43,-184.27 602.5,-187.97 606.97,-193.35"/>
</a>
</g>
</g>
<!-- Node16&#45;&gt;Node11 -->
<g id="edge32_Node000016_Node000011" class="edge">
<title>Node16&#45;&gt;Node11</title>
<g id="a_edge32_Node000016_Node000011"><a xlink:title=" ">
<path fill="none" stroke="#63b8ff" d="M422.63,-335.47C428.28,-317.15 441.68,-273.68 449.35,-248.81"/>
<polygon fill="#63b8ff" stroke="#63b8ff" points="452.74,-249.72 452.34,-239.13 446.05,-247.65 452.74,-249.72"/>
</a>
</g>
</g>
<!-- Node16&#45;&gt;Node13 -->
<g id="edge34_Node000016_Node000013" class="edge">
<title>Node16&#45;&gt;Node13</title>
<g id="a_edge34_Node000016_Node000013"><a xlink:title=" ">
<path fill="none" stroke="#63b8ff" d="M409.67,-335.37C398.81,-326.3 381.51,-311.84 368.33,-300.82"/>
<polygon fill="#63b8ff" stroke="#63b8ff" points="370.29,-297.89 360.37,-294.17 365.8,-303.27 370.29,-297.89"/>
</a>
</g>
</g>
<!-- Node17&#45;&gt;Node4 -->
<g id="edge37_Node000017_Node000004" class="edge">
<title>Node17&#45;&gt;Node4</title>
<g id="a_edge37_Node000017_Node000004"><a xlink:title=" ">
<path fill="none" stroke="#63b8ff" d="M686.13,-670.77C667.94,-653.67 631,-613.74 631,-571.5 631,-571.5 631,-571.5 631,-514.5 631,-407.92 643.97,-381.57 643,-275 642.78,-250.55 647.12,-243.91 642,-220 640.02,-210.76 636.11,-201.05 632.35,-193.06"/>
<polygon fill="#63b8ff" stroke="#63b8ff" points="635.44,-191.4 627.82,-184.04 629.18,-194.54 635.44,-191.4"/>
</a>
</g>
</g>
<!-- Node17&#45;&gt;Node8 -->
<g id="edge36_Node000017_Node000008" class="edge">
<title>Node17&#45;&gt;Node8</title>
<g id="a_edge36_Node000017_Node000008"><a xlink:title=" ">
<path fill="none" stroke="#63b8ff" d="M744.19,-675.17C849.13,-662.83 1089,-617.55 1089,-461.5 1089,-461.5 1089,-461.5 1089,-228.5 1089,-141.89 963.06,-123.64 887.85,-120.47"/>
<polygon fill="#63b8ff" stroke="#63b8ff" points="887.71,-116.96 877.59,-120.12 887.47,-123.96 887.71,-116.96"/>
</a>
</g>
</g>
<!-- Node18 -->
<g id="Node000018" class="node">
<title>Node18</title>
<g id="a_Node000018"><a xlink:href="kobject_source.html" target="_top" xlink:title=" ">
<polygon fill="white" stroke="#666666" points="602.5,-525 519.5,-525 519.5,-506 602.5,-506 602.5,-525"/>
<text text-anchor="middle" x="561" y="-513" font-family="Helvetica,sans-Serif" font-size="10.00">l4/sys/kobject</text>
</a>
</g>
</g>
<!-- Node17&#45;&gt;Node18 -->
<g id="edge38_Node000017_Node000018" class="edge">
<title>Node17&#45;&gt;Node18</title>
<g id="a_edge38_Node000017_Node000018"><a xlink:title=" ">
<path fill="none" stroke="#63b8ff" d="M672.74,-670.93C655.51,-663.6 632.45,-651.59 617,-635 589.58,-605.55 573.32,-560.24 565.89,-535.04"/>
<polygon fill="#63b8ff" stroke="#63b8ff" points="569.22,-533.97 563.16,-525.29 562.48,-535.86 569.22,-533.97"/>
</a>
</g>
</g>
<!-- Node23 -->
<g id="Node000023" class="node">
<title>Node23</title>
<g id="a_Node000023"><a xlink:href="l4_2sys_2task_8h.html" target="_top" xlink:title="Common task related definitions.">
<polygon fill="white" stroke="#666666" points="614,-354.5 536,-354.5 536,-335.5 614,-335.5 614,-354.5"/>
<text text-anchor="middle" x="575" y="-342.5" font-family="Helvetica,sans-Serif" font-size="10.00">l4/sys/task.h</text>
</a>
</g>
</g>
<!-- Node17&#45;&gt;Node23 -->
<g id="edge54_Node000017_Node000023" class="edge">
<title>Node17&#45;&gt;Node23</title>
<g id="a_edge54_Node000017_Node000023"><a xlink:title=" ">
<path fill="none" stroke="#63b8ff" d="M647.94,-675.12C587.34,-666.66 491,-642.1 491,-571.5 491,-571.5 491,-571.5 491,-459.5 491,-417.18 529.2,-380.32 554.08,-360.8"/>
<polygon fill="#63b8ff" stroke="#63b8ff" points="556.37,-363.46 562.24,-354.64 552.15,-357.87 556.37,-363.46"/>
</a>
</g>
</g>
<!-- Node24 -->
<g id="Node000024" class="node">
<title>Node24</title>
<g id="a_Node000024"><a xlink:href="sys_2meta.html" target="_top" xlink:title="Meta interface for getting dynamic type information about objects behind capabilities.">
<polygon fill="white" stroke="#666666" points="754,-635 680,-635 680,-616 754,-616 754,-635"/>
<text text-anchor="middle" x="717" y="-623" font-family="Helvetica,sans-Serif" font-size="10.00">l4/sys/meta</text>
</a>
</g>
</g>
<!-- Node17&#45;&gt;Node24 -->
<g id="edge55_Node000017_Node000024" class="edge">
<title>Node17&#45;&gt;Node24</title>
<g id="a_edge55_Node000017_Node000024"><a xlink:title=" ">
<path fill="none" stroke="#63b8ff" d="M699.47,-670.75C702.28,-663.65 706.34,-653.4 709.85,-644.56"/>
<polygon fill="#63b8ff" stroke="#63b8ff" points="713.17,-645.68 713.6,-635.09 706.66,-643.1 713.17,-645.68"/>
</a>
</g>
</g>
<!-- Node18&#45;&gt;Node3 -->
<g id="edge39_Node000018_Node000003" class="edge">
<title>Node18&#45;&gt;Node3</title>
<g id="a_edge39_Node000018_Node000003"><a xlink:title=" ">
<path fill="none" stroke="#63b8ff" d="M519.35,-511.09C469.9,-506.09 385.5,-494.56 317,-470 282.48,-457.62 246.03,-435.51 223.9,-420.92"/>
<polygon fill="#63b8ff" stroke="#63b8ff" points="225.59,-417.84 215.34,-415.18 221.7,-423.66 225.59,-417.84"/>
</a>
</g>
</g>
<!-- Node18&#45;&gt;Node4 -->
<g id="edge40_Node000018_Node000004" class="edge">
<title>Node18&#45;&gt;Node4</title>
<g id="a_edge40_Node000018_Node000004"><a xlink:title=" ">
<path fill="none" stroke="#63b8ff" d="M565.88,-505.81C578.44,-482.88 611.71,-418.46 623,-360 634.52,-300.36 628.97,-227.83 625.32,-194.24"/>
<polygon fill="#63b8ff" stroke="#63b8ff" points="628.77,-193.6 624.14,-184.07 621.82,-194.41 628.77,-193.6"/>
</a>
</g>
</g>
<!-- Node19 -->
<g id="Node000019" class="node">
<title>Node19</title>
<g id="a_Node000019"><a xlink:href="____typeinfo_8h.html" target="_top" xlink:title="Type information handling.">
<polygon fill="white" stroke="#666666" points="812.5,-470 735.5,-470 735.5,-451 812.5,-451 812.5,-470"/>
<text text-anchor="middle" x="774" y="-458" font-family="Helvetica,sans-Serif" font-size="10.00">__typeinfo.h</text>
</a>
</g>
</g>
<!-- Node18&#45;&gt;Node19 -->
<g id="edge41_Node000018_Node000019" class="edge">
<title>Node18&#45;&gt;Node19</title>
<g id="a_edge41_Node000018_Node000019"><a xlink:title=" ">
<path fill="none" stroke="#63b8ff" d="M595.22,-505.98C631.76,-496.89 689.78,-482.46 729.76,-472.51"/>
<polygon fill="#63b8ff" stroke="#63b8ff" points="730.65,-475.89 739.51,-470.08 728.96,-469.1 730.65,-475.89"/>
</a>
</g>
</g>
<!-- Node20 -->
<g id="Node000020" class="node">
<title>Node20</title>
<g id="a_Node000020"><a xlink:href="types.html" target="_top" xlink:title=" ">
<polygon fill="white" stroke="#666666" points="975,-354.5 911,-354.5 911,-335.5 975,-335.5 975,-354.5"/>
<text text-anchor="middle" x="943" y="-342.5" font-family="Helvetica,sans-Serif" font-size="10.00">cxx/types</text>
</a>
</g>
</g>
<!-- Node19&#45;&gt;Node20 -->
<g id="edge42_Node000019_Node000020" class="edge">
<title>Node19&#45;&gt;Node20</title>
<g id="a_edge42_Node000019_Node000020"><a xlink:title=" ">
<path fill="none" stroke="#63b8ff" d="M798.01,-450.88C818.15,-443.08 847.19,-430.46 870,-415 892.66,-399.65 914.97,-377.19 928.84,-362.1"/>
<polygon fill="#63b8ff" stroke="#63b8ff" points="931.54,-364.34 935.63,-354.57 926.34,-359.66 931.54,-364.34"/>
</a>
</g>
</g>
<!-- Node21 -->
<g id="Node000021" class="node">
<title>Node21</title>
<g id="a_Node000021"><a xlink:href="ipc__basics_source.html" target="_top" xlink:title=" ">
<polygon fill="white" stroke="#666666" points="750.5,-415 663.5,-415 663.5,-396 750.5,-396 750.5,-415"/>
<text text-anchor="middle" x="707" y="-403" font-family="Helvetica,sans-Serif" font-size="10.00">cxx/ipc_basics</text>
</a>
</g>
</g>
<!-- Node19&#45;&gt;Node21 -->
<g id="edge43_Node000019_Node000021" class="edge">
<title>Node19&#45;&gt;Node21</title>
<g id="a_edge43_Node000019_Node000021"><a xlink:title=" ">
<path fill="none" stroke="#63b8ff" d="M763.24,-450.98C753.23,-443.07 738.11,-431.11 726.07,-421.58"/>
<polygon fill="#63b8ff" stroke="#63b8ff" points="727.97,-418.63 717.96,-415.17 723.63,-424.12 727.97,-418.63"/>
</a>
</g>
</g>
<!-- Node22 -->
<g id="Node000022" class="node">
<title>Node22</title>
<g id="a_Node000022"><a xlink:href="capability_8h_source.html" target="_top" xlink:title=" ">
<polygon fill="white" stroke="#666666" points="861,-415 769,-415 769,-396 861,-396 861,-415"/>
<text text-anchor="middle" x="815" y="-403" font-family="Helvetica,sans-Serif" font-size="10.00">cxx/capability.h</text>
</a>
</g>
</g>
<!-- Node19&#45;&gt;Node22 -->
<g id="edge47_Node000019_Node000022" class="edge">
<title>Node19&#45;&gt;Node22</title>
<g id="a_edge47_Node000019_Node000022"><a xlink:title=" ">
<path fill="none" stroke="#63b8ff" d="M780.77,-450.75C786.56,-443.26 795.06,-432.28 802.14,-423.13"/>
<polygon fill="#63b8ff" stroke="#63b8ff" points="805.01,-425.14 808.36,-415.09 799.47,-420.86 805.01,-425.14"/>
</a>
</g>
</g>
<!-- Node21&#45;&gt;Node11 -->
<g id="edge45_Node000021_Node000011" class="edge">
<title>Node21&#45;&gt;Node11</title>
<g id="a_edge45_Node000021_Node000011"><a xlink:title=" ">
<path fill="none" stroke="#63b8ff" d="M698.16,-395.63C683.36,-381.01 652.29,-351.36 623,-330 575.39,-295.28 514.97,-261.83 481.09,-243.94"/>
<polygon fill="#63b8ff" stroke="#63b8ff" points="482.36,-240.65 471.87,-239.11 479.11,-246.85 482.36,-240.65"/>
</a>
</g>
</g>
<!-- Node21&#45;&gt;Node14 -->
<g id="edge46_Node000021_Node000014" class="edge">
<title>Node21&#45;&gt;Node14</title>
<g id="a_edge46_Node000021_Node000014"><a xlink:title=" ">
<path fill="none" stroke="#63b8ff" d="M663.4,-399.03C625.8,-393.09 570.8,-381.45 527,-360 507.67,-350.54 506.06,-343.11 489,-330 449.32,-299.5 402.32,-264.63 376.16,-245.33"/>
<polygon fill="#63b8ff" stroke="#63b8ff" points="377.95,-242.3 367.82,-239.18 373.79,-247.93 377.95,-242.3"/>
</a>
</g>
</g>
<!-- Node21&#45;&gt;Node20 -->
<g id="edge44_Node000021_Node000020" class="edge">
<title>Node21&#45;&gt;Node20</title>
<g id="a_edge44_Node000021_Node000020"><a xlink:title=" ">
<path fill="none" stroke="#63b8ff" d="M741.32,-395.99C783.63,-385.51 855.51,-367.69 901.06,-356.4"/>
<polygon fill="#63b8ff" stroke="#63b8ff" points="902.05,-359.76 910.91,-353.95 900.37,-352.96 902.05,-359.76"/>
</a>
</g>
</g>
<!-- Node22&#45;&gt;Node4 -->
<g id="edge49_Node000022_Node000004" class="edge">
<title>Node22&#45;&gt;Node4</title>
<g id="a_edge49_Node000022_Node000004"><a xlink:title=" ">
<path fill="none" stroke="#63b8ff" d="M811.03,-395.86C797.77,-367.75 752.56,-277.36 694,-220 681.25,-207.51 664.41,-196.77 650.34,-188.97"/>
<polygon fill="#63b8ff" stroke="#63b8ff" points="651.59,-185.67 641.12,-184.06 648.29,-191.85 651.59,-185.67"/>
</a>
</g>
</g>
<!-- Node22&#45;&gt;Node8 -->
<g id="edge48_Node000022_Node000008" class="edge">
<title>Node22&#45;&gt;Node8</title>
<g id="a_edge48_Node000022_Node000008"><a xlink:title=" ">
<path fill="none" stroke="#63b8ff" d="M824.17,-395.92C842.73,-377.58 883,-332.38 883,-285.5 883,-285.5 883,-285.5 883,-228.5 883,-193.56 861.18,-157.66 846.37,-137.31"/>
<polygon fill="#63b8ff" stroke="#63b8ff" points="848.99,-134.97 840.16,-129.11 843.41,-139.2 848.99,-134.97"/>
</a>
</g>
</g>
<!-- Node22&#45;&gt;Node23 -->
<g id="edge50_Node000022_Node000023" class="edge">
<title>Node22&#45;&gt;Node23</title>
<g id="a_edge50_Node000022_Node000023"><a xlink:title=" ">
<path fill="none" stroke="#63b8ff" d="M780.1,-395.99C737.71,-385.66 666.13,-368.21 619.73,-356.9"/>
<polygon fill="#63b8ff" stroke="#63b8ff" points="620.48,-353.48 609.94,-354.52 618.83,-360.29 620.48,-353.48"/>
</a>
</g>
</g>
<!-- Node23&#45;&gt;Node4 -->
<g id="edge51_Node000023_Node000004" class="edge">
<title>Node23&#45;&gt;Node4</title>
<g id="a_edge51_Node000023_Node000004"><a xlink:title=" ">
<path fill="none" stroke="#63b8ff" d="M577.45,-335.41C584.89,-309.28 607.39,-230.29 617.72,-194.04"/>
<polygon fill="#63b8ff" stroke="#63b8ff" points="621.13,-194.85 620.5,-184.27 614.4,-192.93 621.13,-194.85"/>
</a>
</g>
</g>
<!-- Node23&#45;&gt;Node11 -->
<g id="edge52_Node000023_Node000011" class="edge">
<title>Node23&#45;&gt;Node11</title>
<g id="a_edge52_Node000023_Node000011"><a xlink:title=" ">
<path fill="none" stroke="#63b8ff" d="M563.37,-335.23C550.8,-325.57 530.36,-309.38 514,-294 497.81,-278.78 480.67,-259.99 469.06,-246.82"/>
<polygon fill="#63b8ff" stroke="#63b8ff" points="471.5,-244.3 462.29,-239.06 466.23,-248.9 471.5,-244.3"/>
</a>
</g>
</g>
<!-- Node23&#45;&gt;Node13 -->
<g id="edge53_Node000023_Node000013" class="edge">
<title>Node23&#45;&gt;Node13</title>
<g id="a_edge53_Node000023_Node000013"><a xlink:title=" ">
<path fill="none" stroke="#63b8ff" d="M542.28,-335.49C502.71,-325.2 435.99,-307.86 392.48,-296.54"/>
<polygon fill="#63b8ff" stroke="#63b8ff" points="393.32,-293.15 382.76,-294.02 391.55,-299.92 393.32,-293.15"/>
</a>
</g>
</g>
<!-- Node24&#45;&gt;Node18 -->
<g id="edge56_Node000024_Node000018" class="edge">
<title>Node24&#45;&gt;Node18</title>
<g id="a_edge56_Node000024_Node000018"><a xlink:title=" ">
<path fill="none" stroke="#63b8ff" d="M704.5,-615.84C677.8,-597.36 614.96,-553.86 582.01,-531.05"/>
<polygon fill="#63b8ff" stroke="#63b8ff" points="583.78,-528.01 573.56,-525.2 579.79,-533.77 583.78,-528.01"/>
</a>
</g>
</g>
<!-- Node24&#45;&gt;Node25 -->
<g id="edge57_Node000024_Node000025" class="edge">
<title>Node24&#45;&gt;Node25</title>
<g id="a_edge57_Node000024_Node000025"><a xlink:title=" ">
<path fill="none" stroke="#63b8ff" d="M736.6,-615.98C756.32,-607.42 786.95,-594.11 809.58,-584.28"/>
<polygon fill="#63b8ff" stroke="#63b8ff" points="811.26,-587.37 819.04,-580.17 808.48,-580.94 811.26,-587.37"/>
</a>
</g>
</g>
<!-- Node27 -->
<g id="Node000027" class="node">
<title>Node27</title>
<g id="a_Node000027"><a xlink:href="ipc__string_source.html" target="_top" xlink:title=" ">
<polygon fill="white" stroke="#666666" points="781,-580 697,-580 697,-561 781,-561 781,-580"/>
<text text-anchor="middle" x="739" y="-568" font-family="Helvetica,sans-Serif" font-size="10.00">cxx/ipc_string</text>
</a>
</g>
</g>
<!-- Node24&#45;&gt;Node27 -->
<g id="edge64_Node000024_Node000027" class="edge">
<title>Node24&#45;&gt;Node27</title>
<g id="a_edge64_Node000024_Node000027"><a xlink:title=" ">
<path fill="none" stroke="#63b8ff" d="M720.63,-615.75C723.58,-608.65 727.83,-598.4 731.51,-589.56"/>
<polygon fill="#63b8ff" stroke="#63b8ff" points="734.83,-590.67 735.43,-580.09 728.37,-587.98 734.83,-590.67"/>
</a>
</g>
</g>
<!-- Node25&#45;&gt;Node19 -->
<g id="edge63_Node000025_Node000019" class="edge">
<title>Node25&#45;&gt;Node19</title>
<g id="a_edge63_Node000025_Node000019"><a xlink:title=" ">
<path fill="none" stroke="#63b8ff" d="M833.68,-560.66C822.96,-542.85 798.6,-502.37 784.54,-479.01"/>
<polygon fill="#63b8ff" stroke="#63b8ff" points="787.37,-476.92 779.21,-470.16 781.37,-480.53 787.37,-476.92"/>
</a>
</g>
</g>
<!-- Node25&#45;&gt;Node21 -->
<g id="edge58_Node000025_Node000021" class="edge">
<title>Node25&#45;&gt;Node21</title>
<g id="a_edge58_Node000025_Node000021"><a xlink:title=" ">
<path fill="none" stroke="#63b8ff" d="M825.12,-560.86C801.52,-545.46 753.58,-511.04 727,-470 718.16,-456.36 713,-438.54 710.14,-425.26"/>
<polygon fill="#63b8ff" stroke="#63b8ff" points="713.56,-424.52 708.25,-415.35 706.69,-425.83 713.56,-424.52"/>
</a>
</g>
</g>
<!-- Node25&#45;&gt;Node26 -->
<g id="edge59_Node000025_Node000026" class="edge">
<title>Node25&#45;&gt;Node26</title>
<g id="a_edge59_Node000025_Node000026"><a xlink:title=" ">
<path fill="none" stroke="#63b8ff" d="M850.81,-560.96C862.72,-552.23 881.51,-538.13 897,-525 915.34,-509.46 935.33,-490.54 948.86,-477.41"/>
<polygon fill="#63b8ff" stroke="#63b8ff" points="951.31,-479.91 956.02,-470.42 946.42,-474.9 951.31,-479.91"/>
</a>
</g>
</g>
<!-- Node26&#45;&gt;Node20 -->
<g id="edge61_Node000026_Node000020" class="edge">
<title>Node26&#45;&gt;Node20</title>
<g id="a_edge61_Node000026_Node000020"><a xlink:title=" ">
<path fill="none" stroke="#63b8ff" d="M963.35,-450.97C959.81,-432.73 951.45,-389.57 946.61,-364.64"/>
<polygon fill="#63b8ff" stroke="#63b8ff" points="950.01,-363.78 944.67,-354.63 943.14,-365.11 950.01,-363.78"/>
</a>
</g>
</g>
<!-- Node26&#45;&gt;Node21 -->
<g id="edge62_Node000026_Node000021" class="edge">
<title>Node26&#45;&gt;Node21</title>
<g id="a_edge62_Node000026_Node000021"><a xlink:title=" ">
<path fill="none" stroke="#63b8ff" d="M923.55,-450.98C878.73,-441.78 807.23,-427.09 758.75,-417.13"/>
<polygon fill="#63b8ff" stroke="#63b8ff" points="759.28,-413.67 748.78,-415.08 757.87,-420.52 759.28,-413.67"/>
</a>
</g>
</g>
<!-- Node26&#45;&gt;Node22 -->
<g id="edge60_Node000026_Node000022" class="edge">
<title>Node26&#45;&gt;Node22</title>
<g id="a_edge60_Node000026_Node000022"><a xlink:title=" ">
<path fill="none" stroke="#63b8ff" d="M940.9,-450.98C916.12,-442.23 877.3,-428.51 849.31,-418.62"/>
<polygon fill="#63b8ff" stroke="#63b8ff" points="850.13,-415.2 839.54,-415.17 847.8,-421.8 850.13,-415.2"/>
</a>
</g>
</g>
<!-- Node27&#45;&gt;Node20 -->
<g id="edge65_Node000027_Node000020" class="edge">
<title>Node27&#45;&gt;Node20</title>
<g id="a_edge65_Node000027_Node000020"><a xlink:title=" ">
<path fill="none" stroke="#63b8ff" d="M781.12,-561.63C855.14,-546.83 1003.45,-512.46 1032,-470 1059.28,-429.43 1001,-382.92 966.33,-360.12"/>
<polygon fill="#63b8ff" stroke="#63b8ff" points="967.99,-357.02 957.67,-354.59 964.22,-362.92 967.99,-357.02"/>
</a>
</g>
</g>
<!-- Node27&#45;&gt;Node21 -->
<g id="edge66_Node000027_Node000021" class="edge">
<title>Node27&#45;&gt;Node21</title>
<g id="a_edge66_Node000027_Node000021"><a xlink:title=" ">
<path fill="none" stroke="#63b8ff" d="M725.22,-560.82C714.18,-552.99 699.51,-540.35 693,-525 678.91,-491.76 690.49,-448.85 699.33,-424.84"/>
<polygon fill="#63b8ff" stroke="#63b8ff" points="702.7,-425.84 703.09,-415.25 696.18,-423.28 702.7,-425.84"/>
</a>
</g>
</g>
<!-- Node28 -->
<g id="Node000028" class="node">
<title>Node28</title>
<g id="a_Node000028"><a xlink:href="ipc__array_source.html" target="_top" xlink:title=" ">
<polygon fill="white" stroke="#666666" points="888,-525 826,-525 826,-506 888,-506 888,-525"/>
<text text-anchor="middle" x="857" y="-513" font-family="Helvetica,sans-Serif" font-size="10.00">ipc_array</text>
</a>
</g>
</g>
<!-- Node27&#45;&gt;Node28 -->
<g id="edge67_Node000027_Node000028" class="edge">
<title>Node27&#45;&gt;Node28</title>
<g id="a_edge67_Node000027_Node000028"><a xlink:title=" ">
<path fill="none" stroke="#63b8ff" d="M757.96,-560.98C777.03,-552.42 806.66,-539.11 828.55,-529.28"/>
<polygon fill="#63b8ff" stroke="#63b8ff" points="830.01,-532.46 837.7,-525.17 827.14,-526.07 830.01,-532.46"/>
</a>
</g>
</g>
<!-- Node28&#45;&gt;Node20 -->
<g id="edge68_Node000028_Node000020" class="edge">
<title>Node28&#45;&gt;Node20</title>
<g id="a_edge68_Node000028_Node000020"><a xlink:title=" ">
<path fill="none" stroke="#63b8ff" d="M861.38,-505.91C874.78,-479.67 915.38,-400.11 933.77,-364.08"/>
<polygon fill="#63b8ff" stroke="#63b8ff" points="937.09,-365.27 938.52,-354.77 930.86,-362.09 937.09,-365.27"/>
</a>
</g>
</g>
<!-- Node28&#45;&gt;Node21 -->
<g id="edge69_Node000028_Node000021" class="edge">
<title>Node28&#45;&gt;Node21</title>
<g id="a_edge69_Node000028_Node000021"><a xlink:title=" ">
<path fill="none" stroke="#63b8ff" d="M854.39,-505.87C849.89,-492.38 839.44,-466.24 822,-451 803.97,-435.24 779.73,-424.76 758.16,-417.95"/>
<polygon fill="#63b8ff" stroke="#63b8ff" points="759.05,-414.56 748.47,-415.07 757.06,-421.27 759.05,-414.56"/>
</a>
</g>
</g>
<!-- Node28&#45;&gt;Node26 -->
<g id="edge70_Node000028_Node000026" class="edge">
<title>Node28&#45;&gt;Node26</title>
<g id="a_edge70_Node000028_Node000026"><a xlink:title=" ">
<path fill="none" stroke="#63b8ff" d="M874.35,-505.98C891.57,-497.54 918.2,-484.47 938.15,-474.68"/>
<polygon fill="#63b8ff" stroke="#63b8ff" points="939.9,-477.72 947.33,-470.17 936.81,-471.43 939.9,-477.72"/>
</a>
</g>
</g>
<!-- Node29&#45;&gt;Node4 -->
<g id="edge73_Node000029_Node000004" class="edge">
<title>Node29&#45;&gt;Node4</title>
<g id="a_edge73_Node000029_Node000004"><a xlink:title=" ">
<path fill="none" stroke="#63b8ff" d="M819.34,-725.99C910.03,-704.02 1123.59,-637.7 1091,-506 1069.01,-417.14 1055.85,-386.72 984,-330 885.11,-251.93 740.87,-206.06 668.29,-186.59"/>
<polygon fill="#63b8ff" stroke="#63b8ff" points="669.09,-183.18 658.53,-184.01 667.31,-189.95 669.09,-183.18"/>
</a>
</g>
</g>
<!-- Node29&#45;&gt;Node16 -->
<g id="edge72_Node000029_Node000016" class="edge">
<title>Node29&#45;&gt;Node16</title>
<g id="a_edge72_Node000029_Node000016"><a xlink:title=" ">
<path fill="none" stroke="#63b8ff" d="M724.31,-728.91C625.78,-717.46 431,-687.15 431,-626.5 431,-626.5 431,-626.5 431,-459.5 431,-425.95 426.18,-387.08 422.92,-364.64"/>
<polygon fill="#63b8ff" stroke="#63b8ff" points="426.35,-363.88 421.39,-354.52 419.42,-364.93 426.35,-363.88"/>
</a>
</g>
</g>
<!-- Node29&#45;&gt;Node17 -->
<g id="edge74_Node000029_Node000017" class="edge">
<title>Node29&#45;&gt;Node17</title>
<g id="a_edge74_Node000029_Node000017"><a xlink:title=" ">
<path fill="none" stroke="#63b8ff" d="M766.5,-725.98C753.6,-717.84 733.9,-705.41 718.6,-695.76"/>
<polygon fill="#63b8ff" stroke="#63b8ff" points="720.07,-692.55 709.74,-690.17 716.33,-698.47 720.07,-692.55"/>
</a>
</g>
</g>
<!-- Node29&#45;&gt;Node25 -->
<g id="edge75_Node000029_Node000025" class="edge">
<title>Node29&#45;&gt;Node25</title>
<g id="a_edge75_Node000029_Node000025"><a xlink:title=" ">
<path fill="none" stroke="#63b8ff" d="M783.17,-725.74C792.46,-700.09 819.71,-624.78 832.38,-589.78"/>
<polygon fill="#63b8ff" stroke="#63b8ff" points="835.7,-590.9 835.81,-580.31 829.12,-588.52 835.7,-590.9"/>
</a>
</g>
</g>
</g>
</svg>
