<?xml version="1.0" encoding="UTF-8" standalone="no"?>
<!DOCTYPE svg PUBLIC "-//W3C//DTD SVG 1.1//EN"
 "http://www.w3.org/Graphics/SVG/1.1/DTD/svg11.dtd">
<!-- Generated by graphviz version 2.43.0 (0)
 -->
<!-- Title: __kdebug_text Pages: 1 -->
<svg width="354pt" height="138pt"
 viewBox="0.00 0.00 354.00 138.00" xmlns="http://www.w3.org/2000/svg" xmlns:xlink="http://www.w3.org/1999/xlink">
<g id="graph0" class="graph" transform="scale(1 1) rotate(0) translate(4 134)">
<title>__kdebug_text</title>
<!-- Node1 -->
<g id="Node000001" class="node">
<title>Node1</title>
<g id="a_Node000001"><a xlink:title="Invoke a text output operation on the base debugger capability.">
<polygon fill="#999999" stroke="#666666" points="346,-74 258,-74 258,-55 346,-55 346,-74"/>
<text text-anchor="middle" x="302" y="-62" font-family="Helvetica,sans-Serif" font-size="10.00">__kdebug_text</text>
</a>
</g>
</g>
<!-- Node2 -->
<g id="Node000002" class="node">
<title>Node2</title>
<g id="a_Node000002"><a xlink:href="kdebug_8h.html#a2e5f690a7b317bd50ba2d40461939033" target="_top" xlink:title="Enter the kernel debugger.">
<polygon fill="white" stroke="#666666" points="200.5,-130 117.5,-130 117.5,-111 200.5,-111 200.5,-130"/>
<text text-anchor="middle" x="159" y="-118" font-family="Helvetica,sans-Serif" font-size="10.00">enter_kdebug</text>
</a>
</g>
</g>
<!-- Node1&#45;&gt;Node2 -->
<g id="edge1_Node000001_Node000002" class="edge">
<title>Node1&#45;&gt;Node2</title>
<g id="a_edge1_Node000001_Node000002"><a xlink:title=" ">
<path fill="none" stroke="#63b8ff" d="M273.96,-78.88C258.92,-86.53 239.72,-95.72 222,-102.5 213.94,-105.58 205.12,-108.44 196.72,-110.93"/>
<polygon fill="#63b8ff" stroke="#63b8ff" points="275.9,-81.82 283.18,-74.13 272.69,-75.6 275.9,-81.82"/>
</a>
</g>
</g>
<!-- Node3 -->
<g id="Node000003" class="node">
<title>Node3</title>
<g id="a_Node000003"><a xlink:href="group__fiasco__trace__api.html#ga11d469f93c5befca8389362282c5cb74" target="_top" xlink:title="Create new trace&#45;buffer entry with describing &lt;text&gt;.">
<polygon fill="white" stroke="#666666" points="204,-93 114,-93 114,-74 204,-74 204,-93"/>
<text text-anchor="middle" x="159" y="-81" font-family="Helvetica,sans-Serif" font-size="10.00">fiasco_tbuf_log</text>
</a>
</g>
</g>
<!-- Node1&#45;&gt;Node3 -->
<g id="edge2_Node000001_Node000003" class="edge">
<title>Node1&#45;&gt;Node3</title>
<g id="a_edge2_Node000001_Node000003"><a xlink:title=" ">
<path fill="none" stroke="#63b8ff" d="M247.71,-71.68C233.38,-73.61 218.05,-75.68 204.27,-77.53"/>
<polygon fill="#63b8ff" stroke="#63b8ff" points="248.49,-75.11 257.93,-70.3 247.55,-68.17 248.49,-75.11"/>
</a>
</g>
</g>
<!-- Node4 -->
<g id="Node000004" class="node">
<title>Node4</title>
<g id="a_Node000004"><a xlink:href="group__fiasco__trace__api.html#gacec61dde47b1cf788fcc51614bcc1a2f" target="_top" xlink:title="Create new trace&#45;buffer entry with binary data.">
<polygon fill="white" stroke="#666666" points="222,-56 96,-56 96,-37 222,-37 222,-56"/>
<text text-anchor="middle" x="159" y="-44" font-family="Helvetica,sans-Serif" font-size="10.00">fiasco_tbuf_log_binary</text>
</a>
</g>
</g>
<!-- Node1&#45;&gt;Node4 -->
<g id="edge3_Node000001_Node000004" class="edge">
<title>Node1&#45;&gt;Node4</title>
<g id="a_edge3_Node000001_Node000004"><a xlink:title=" ">
<path fill="none" stroke="#63b8ff" d="M247.85,-57.72C239.42,-56.64 230.63,-55.52 222.01,-54.42"/>
<polygon fill="#63b8ff" stroke="#63b8ff" points="247.57,-61.21 257.93,-59 248.45,-54.26 247.57,-61.21"/>
</a>
</g>
</g>
<!-- Node5 -->
<g id="Node000005" class="node">
<title>Node5</title>
<g id="a_Node000005"><a xlink:href="kdebug_8h.html#adbcd0f5c67e586ed88fba868cea537fb" target="_top" xlink:title="Output a fixed&#45;length string via the kernel debugger.">
<polygon fill="white" stroke="#666666" points="192,-19 126,-19 126,0 192,0 192,-19"/>
<text text-anchor="middle" x="159" y="-7" font-family="Helvetica,sans-Serif" font-size="10.00">outnstring</text>
</a>
</g>
</g>
<!-- Node1&#45;&gt;Node5 -->
<g id="edge4_Node000001_Node000005" class="edge">
<title>Node1&#45;&gt;Node5</title>
<g id="a_edge4_Node000001_Node000005"><a xlink:title=" ">
<path fill="none" stroke="#63b8ff" d="M272.64,-50.49C257.76,-43.42 239.11,-34.99 222,-28.5 212.42,-24.87 201.82,-21.42 192.13,-18.48"/>
<polygon fill="#63b8ff" stroke="#63b8ff" points="271.29,-53.73 281.82,-54.91 274.33,-47.42 271.29,-53.73"/>
</a>
</g>
</g>
<!-- Node6 -->
<g id="Node000006" class="node">
<title>Node6</title>
<g id="a_Node000006"><a xlink:href="kdebug_8h.html#a138dbb0bf857e381e9fb7cd4ef19a5f2" target="_top" xlink:title="Output a string via the kernel debugger.">
<polygon fill="white" stroke="#666666" points="60,-19 0,-19 0,0 60,0 60,-19"/>
<text text-anchor="middle" x="30" y="-7" font-family="Helvetica,sans-Serif" font-size="10.00">outstring</text>
</a>
</g>
</g>
<!-- Node5&#45;&gt;Node6 -->
<g id="edge5_Node000005_Node000006" class="edge">
<title>Node5&#45;&gt;Node6</title>
<g id="a_edge5_Node000005_Node000006"><a xlink:title=" ">
<path fill="none" stroke="#63b8ff" d="M115.89,-9.5C97.72,-9.5 76.9,-9.5 60.43,-9.5"/>
<polygon fill="#63b8ff" stroke="#63b8ff" points="115.95,-13 125.95,-9.5 115.95,-6 115.95,-13"/>
</a>
</g>
</g>
</g>
</svg>
