<?xml version="1.0" encoding="UTF-8" standalone="no"?>
<!DOCTYPE svg PUBLIC "-//W3C//DTD SVG 1.1//EN"
 "http://www.w3.org/Graphics/SVG/1.1/DTD/svg11.dtd">
<!-- Generated by graphviz version 2.42.4 (0)
 -->
<!-- Title: outdec Pages: 1 -->
<svg width="371pt" height="101pt"
 viewBox="0.00 0.00 371.00 101.00" xmlns="http://www.w3.org/2000/svg" xmlns:xlink="http://www.w3.org/1999/xlink">
<g id="graph0" class="graph" transform="scale(1 1) rotate(0) translate(4 97)">
<title>outdec</title>
<!-- Node1 -->
<g id="Node000001" class="node">
<title>Node1</title>
<g id="a_Node000001"><a xlink:title="Output a decimal unsigned machine word via the kernel debugger.">
<polygon fill="#999999" stroke="#666666" points="50,-56 0,-56 0,-37 50,-37 50,-56"/>
<text text-anchor="middle" x="25" y="-44" font-family="Helvetica,sans-Serif" font-size="10.00">outdec</text>
</a>
</g>
</g>
<!-- Node2 -->
<g id="Node000002" class="node">
<title>Node2</title>
<g id="a_Node000002"><a xlink:href="kdebug_8h.html#ad326b039e207cdd00785d01b5cc18e46" target="_top" xlink:title="Invoke an unary operation on the base debugger capability.">
<polygon fill="white" stroke="#666666" points="178,-56 86,-56 86,-37 178,-37 178,-56"/>
<text text-anchor="middle" x="132" y="-44" font-family="Helvetica,sans-Serif" font-size="10.00">__kdebug_op_1</text>
</a>
</g>
</g>
<!-- Node1&#45;&gt;Node2 -->
<g id="edge1_Node000001_Node000002" class="edge">
<title>Node1&#45;&gt;Node2</title>
<g id="a_edge1_Node000001_Node000002"><a xlink:title=" ">
<path fill="none" stroke="#63b8ff" d="M50.09,-46.5C57.83,-46.5 66.75,-46.5 75.78,-46.5"/>
<polygon fill="#63b8ff" stroke="#63b8ff" points="75.97,-50 85.97,-46.5 75.97,-43 75.97,-50"/>
</a>
</g>
</g>
<!-- Node3 -->
<g id="Node000003" class="node">
<title>Node3</title>
<g id="a_Node000003"><a xlink:href="group__l4__ipc__api.html#gab96d1669dcd54657237ee27b7f6862c6" target="_top" xlink:title="Object call (usual invocation).">
<polygon fill="white" stroke="#666666" points="282,-93 214,-93 214,-74 282,-74 282,-93"/>
<text text-anchor="middle" x="248" y="-81" font-family="Helvetica,sans-Serif" font-size="10.00">l4_ipc_call</text>
</a>
</g>
</g>
<!-- Node2&#45;&gt;Node3 -->
<g id="edge2_Node000002_Node000003" class="edge">
<title>Node2&#45;&gt;Node3</title>
<g id="a_edge2_Node000002_Node000003"><a xlink:title=" ">
<path fill="none" stroke="#63b8ff" d="M162.36,-56.03C176.08,-60.48 192.62,-65.85 207.43,-70.66"/>
<polygon fill="#63b8ff" stroke="#63b8ff" points="206.75,-74.12 217.35,-73.88 208.91,-67.46 206.75,-74.12"/>
</a>
</g>
</g>
<!-- Node5 -->
<g id="Node000005" class="node">
<title>Node5</title>
<g id="a_Node000005"><a xlink:href="group__l4__msgtag__api.html#ga661d71acad9d096fa990f7c94943bc78" target="_top" xlink:title="Create a message tag from the specified values.">
<polygon fill="white" stroke="#666666" points="282,-56 214,-56 214,-37 282,-37 282,-56"/>
<text text-anchor="middle" x="248" y="-44" font-family="Helvetica,sans-Serif" font-size="10.00">l4_msgtag</text>
</a>
</g>
</g>
<!-- Node2&#45;&gt;Node5 -->
<g id="edge4_Node000002_Node000005" class="edge">
<title>Node2&#45;&gt;Node5</title>
<g id="a_edge4_Node000002_Node000005"><a xlink:title=" ">
<path fill="none" stroke="#63b8ff" d="M178.06,-46.5C186.55,-46.5 195.42,-46.5 203.85,-46.5"/>
<polygon fill="#63b8ff" stroke="#63b8ff" points="203.87,-50 213.87,-46.5 203.87,-43 203.87,-50"/>
</a>
</g>
</g>
<!-- Node6 -->
<g id="Node000006" class="node">
<title>Node6</title>
<g id="a_Node000006"><a xlink:href="group__l4__utcb__api.html#gadc099b4a59e1d99638c72c11a8c8b644" target="_top" xlink:title="Get the UTCB address.">
<polygon fill="white" stroke="#666666" points="274,-19 222,-19 222,0 274,0 274,-19"/>
<text text-anchor="middle" x="248" y="-7" font-family="Helvetica,sans-Serif" font-size="10.00">l4_utcb</text>
</a>
</g>
</g>
<!-- Node2&#45;&gt;Node6 -->
<g id="edge5_Node000002_Node000006" class="edge">
<title>Node2&#45;&gt;Node6</title>
<g id="a_edge5_Node000002_Node000006"><a xlink:title=" ">
<path fill="none" stroke="#63b8ff" d="M162.36,-36.97C177.65,-32.01 196.46,-25.9 212.45,-20.71"/>
<polygon fill="#63b8ff" stroke="#63b8ff" points="213.56,-24.03 221.99,-17.62 211.4,-17.38 213.56,-24.03"/>
</a>
</g>
</g>
<!-- Node4 -->
<g id="Node000004" class="node">
<title>Node4</title>
<g id="a_Node000004"><a xlink:href="group__l4__ipc__api.html#ga1caa56d45e0453b3002e7f5cfdb0dec7" target="_top" xlink:title="Generic L4 object invocation.">
<polygon fill="white" stroke="#666666" points="363,-93 318,-93 318,-74 363,-74 363,-93"/>
<text text-anchor="middle" x="340.5" y="-81" font-family="Helvetica,sans-Serif" font-size="10.00">l4_ipc</text>
</a>
</g>
</g>
<!-- Node3&#45;&gt;Node4 -->
<g id="edge3_Node000003_Node000004" class="edge">
<title>Node3&#45;&gt;Node4</title>
<g id="a_edge3_Node000003_Node000004"><a xlink:title=" ">
<path fill="none" stroke="#63b8ff" d="M282.18,-83.5C290.56,-83.5 299.52,-83.5 307.82,-83.5"/>
<polygon fill="#63b8ff" stroke="#63b8ff" points="307.87,-87 317.87,-83.5 307.87,-80 307.87,-87"/>
</a>
</g>
</g>
</g>
</svg>
