<?xml version="1.0" encoding="UTF-8" standalone="no"?>
<!DOCTYPE svg PUBLIC "-//W3C//DTD SVG 1.1//EN"
 "http://www.w3.org/Graphics/SVG/1.1/DTD/svg11.dtd">
<!-- Generated by graphviz version 2.42.4 (0)
 -->
<!-- Title: l4/sys/kdebug.h Pages: 1 -->
<svg width="569pt" height="357pt"
 viewBox="0.00 0.00 568.89 357.00" xmlns="http://www.w3.org/2000/svg" xmlns:xlink="http://www.w3.org/1999/xlink">
<g id="graph0" class="graph" transform="scale(1 1) rotate(0) translate(4 353)">
<title>l4/sys/kdebug.h</title>
<!-- Node1 -->
<g id="Node000001" class="node">
<title>Node1</title>
<g id="a_Node000001"><a xlink:title="Functionality for invoking the kernel debugger.">
<polygon fill="#999999" stroke="#666666" points="253.5,-349 160.5,-349 160.5,-330 253.5,-330 253.5,-349"/>
<text text-anchor="middle" x="207" y="-337" font-family="Helvetica,sans-Serif" font-size="10.00">l4/sys/kdebug.h</text>
</a>
</g>
</g>
<!-- Node2 -->
<g id="Node000002" class="node">
<title>Node2</title>
<g id="a_Node000002"><a xlink:href="compiler_8h.html" target="_top" xlink:title="L4 compiler related defines.">
<polygon fill="white" stroke="#666666" points="188.5,-74 89.5,-74 89.5,-55 188.5,-55 188.5,-74"/>
<text text-anchor="middle" x="139" y="-62" font-family="Helvetica,sans-Serif" font-size="10.00">l4/sys/compiler.h</text>
</a>
</g>
</g>
<!-- Node1&#45;&gt;Node2 -->
<g id="edge1_Node000001_Node000002" class="edge">
<title>Node1&#45;&gt;Node2</title>
<g id="a_edge1_Node000001_Node000002"><a xlink:title=" ">
<path fill="none" stroke="#63b8ff" d="M160.29,-334.52C99.23,-326.48 0,-302.35 0,-230.5 0,-230.5 0,-230.5 0,-173.5 0,-122.86 58.24,-92.52 99.33,-77.43"/>
<polygon fill="#63b8ff" stroke="#63b8ff" points="100.56,-80.7 108.84,-74.09 98.24,-74.1 100.56,-80.7"/>
</a>
</g>
</g>
<!-- Node4 -->
<g id="Node000004" class="node">
<title>Node4</title>
<g id="a_Node000004"><a xlink:href="l4_2sys_2consts_8h.html" target="_top" xlink:title="Common constants.">
<polygon fill="white" stroke="#666666" points="546.5,-129 457.5,-129 457.5,-110 546.5,-110 546.5,-129"/>
<text text-anchor="middle" x="502" y="-117" font-family="Helvetica,sans-Serif" font-size="10.00">l4/sys/consts.h</text>
</a>
</g>
</g>
<!-- Node1&#45;&gt;Node4 -->
<g id="edge3_Node000001_Node000004" class="edge">
<title>Node1&#45;&gt;Node4</title>
<g id="a_edge3_Node000001_Node000004"><a xlink:title=" ">
<path fill="none" stroke="#63b8ff" d="M218.56,-329.95C263.26,-296.93 425.03,-177.38 481.99,-135.29"/>
<polygon fill="#63b8ff" stroke="#63b8ff" points="484.23,-137.98 490.2,-129.22 480.07,-132.35 484.23,-137.98"/>
</a>
</g>
</g>
<!-- Node6 -->
<g id="Node000006" class="node">
<title>Node6</title>
<g id="a_Node000006"><a xlink:href="l4_2sys_2ipc_8h.html" target="_top" xlink:title="Common IPC interface.">
<polygon fill="white" stroke="#666666" points="242.5,-294 171.5,-294 171.5,-275 242.5,-275 242.5,-294"/>
<text text-anchor="middle" x="207" y="-282" font-family="Helvetica,sans-Serif" font-size="10.00">l4/sys/ipc.h</text>
</a>
</g>
</g>
<!-- Node1&#45;&gt;Node6 -->
<g id="edge6_Node000001_Node000006" class="edge">
<title>Node1&#45;&gt;Node6</title>
<g id="a_edge6_Node000001_Node000006"><a xlink:title=" ">
<path fill="none" stroke="#63b8ff" d="M207,-329.75C207,-322.8 207,-312.85 207,-304.13"/>
<polygon fill="#63b8ff" stroke="#63b8ff" points="210.5,-304.09 207,-294.09 203.5,-304.09 210.5,-304.09"/>
</a>
</g>
</g>
<!-- Node3 -->
<g id="Node000003" class="node">
<title>Node3</title>
<g id="a_Node000003"><a xlink:title=" ">
<polygon fill="#e0e0e0" stroke="#999999" points="185,-19 93,-19 93,0 185,0 185,-19"/>
<text text-anchor="middle" x="139" y="-7" font-family="Helvetica,sans-Serif" font-size="10.00">l4/sys/linkage.h</text>
</a>
</g>
</g>
<!-- Node2&#45;&gt;Node3 -->
<g id="edge2_Node000002_Node000003" class="edge">
<title>Node2&#45;&gt;Node3</title>
<g id="a_edge2_Node000002_Node000003"><a xlink:title=" ">
<path fill="none" stroke="#63b8ff" d="M139,-54.75C139,-47.8 139,-37.85 139,-29.13"/>
<polygon fill="#63b8ff" stroke="#63b8ff" points="142.5,-29.09 139,-19.09 135.5,-29.09 142.5,-29.09"/>
</a>
</g>
</g>
<!-- Node4&#45;&gt;Node2 -->
<g id="edge4_Node000004_Node000002" class="edge">
<title>Node4&#45;&gt;Node2</title>
<g id="a_edge4_Node000004_Node000002"><a xlink:title=" ">
<path fill="none" stroke="#63b8ff" d="M457.49,-112C392.4,-102.5 271.1,-84.79 198.44,-74.18"/>
<polygon fill="#63b8ff" stroke="#63b8ff" points="198.92,-70.71 188.52,-72.73 197.91,-77.64 198.92,-70.71"/>
</a>
</g>
</g>
<!-- Node5 -->
<g id="Node000005" class="node">
<title>Node5</title>
<g id="a_Node000005"><a xlink:href="l4_2sys_2l4int_8h.html" target="_top" xlink:title="Fixed sized integer types, generic version.">
<polygon fill="white" stroke="#666666" points="504.5,-74 425.5,-74 425.5,-55 504.5,-55 504.5,-74"/>
<text text-anchor="middle" x="465" y="-62" font-family="Helvetica,sans-Serif" font-size="10.00">l4/sys/l4int.h</text>
</a>
</g>
</g>
<!-- Node4&#45;&gt;Node5 -->
<g id="edge5_Node000004_Node000005" class="edge">
<title>Node4&#45;&gt;Node5</title>
<g id="a_edge5_Node000004_Node000005"><a xlink:title=" ">
<path fill="none" stroke="#63b8ff" d="M495.89,-109.75C490.72,-102.34 483.15,-91.5 476.81,-82.41"/>
<polygon fill="#63b8ff" stroke="#63b8ff" points="479.59,-80.29 471,-74.09 473.85,-84.29 479.59,-80.29"/>
</a>
</g>
</g>
<!-- Node7 -->
<g id="Node000007" class="node">
<title>Node7</title>
<g id="a_Node000007"><a xlink:href="l4_2sys_2types_8h.html" target="_top" xlink:title="Common L4 ABI Data Types.">
<polygon fill="white" stroke="#666666" points="316,-184 232,-184 232,-165 316,-165 316,-184"/>
<text text-anchor="middle" x="274" y="-172" font-family="Helvetica,sans-Serif" font-size="10.00">l4/sys/types.h</text>
</a>
</g>
</g>
<!-- Node6&#45;&gt;Node7 -->
<g id="edge7_Node000006_Node000007" class="edge">
<title>Node6&#45;&gt;Node7</title>
<g id="a_edge7_Node000006_Node000007"><a xlink:title=" ">
<path fill="none" stroke="#63b8ff" d="M219.81,-274.69C230.66,-266.6 245.87,-253.66 255,-239 263.55,-225.26 268.44,-207.46 271.11,-194.2"/>
<polygon fill="#63b8ff" stroke="#63b8ff" points="274.57,-194.78 272.87,-184.32 267.67,-193.55 274.57,-194.78"/>
</a>
</g>
</g>
<!-- Node10 -->
<g id="Node000010" class="node">
<title>Node10</title>
<g id="a_Node000010"><a xlink:href="l4_2sys_2utcb_8h.html" target="_top" xlink:title="UTCB definitions.">
<polygon fill="white" stroke="#666666" points="246,-239 168,-239 168,-220 246,-220 246,-239"/>
<text text-anchor="middle" x="207" y="-227" font-family="Helvetica,sans-Serif" font-size="10.00">l4/sys/utcb.h</text>
</a>
</g>
</g>
<!-- Node6&#45;&gt;Node10 -->
<g id="edge16_Node000006_Node000010" class="edge">
<title>Node6&#45;&gt;Node10</title>
<g id="a_edge16_Node000006_Node000010"><a xlink:title=" ">
<path fill="none" stroke="#63b8ff" d="M207,-274.75C207,-267.8 207,-257.85 207,-249.13"/>
<polygon fill="#63b8ff" stroke="#63b8ff" points="210.5,-249.09 207,-239.09 203.5,-249.09 210.5,-249.09"/>
</a>
</g>
</g>
<!-- Node11 -->
<g id="Node000011" class="node">
<title>Node11</title>
<g id="a_Node000011"><a xlink:href="err_8h.html" target="_top" xlink:title="Error codes.">
<polygon fill="white" stroke="#666666" points="98,-184 28,-184 28,-165 98,-165 98,-184"/>
<text text-anchor="middle" x="63" y="-172" font-family="Helvetica,sans-Serif" font-size="10.00">l4/sys/err.h</text>
</a>
</g>
</g>
<!-- Node6&#45;&gt;Node11 -->
<g id="edge20_Node000006_Node000011" class="edge">
<title>Node6&#45;&gt;Node11</title>
<g id="a_edge20_Node000006_Node000011"><a xlink:title=" ">
<path fill="none" stroke="#63b8ff" d="M195.22,-274.66C170.52,-256.14 113.1,-213.08 82.7,-190.28"/>
<polygon fill="#63b8ff" stroke="#63b8ff" points="84.64,-187.36 74.54,-184.16 80.44,-192.96 84.64,-187.36"/>
</a>
</g>
</g>
<!-- Node7&#45;&gt;Node2 -->
<g id="edge9_Node000007_Node000002" class="edge">
<title>Node7&#45;&gt;Node2</title>
<g id="a_edge9_Node000007_Node000002"><a xlink:title=" ">
<path fill="none" stroke="#63b8ff" d="M231.78,-166.85C207.14,-160.89 177.21,-149.72 158,-129 146.75,-116.87 142.15,-98.34 140.27,-84.42"/>
<polygon fill="#63b8ff" stroke="#63b8ff" points="143.71,-83.67 139.25,-74.06 136.74,-84.35 143.71,-83.67"/>
</a>
</g>
</g>
<!-- Node7&#45;&gt;Node4 -->
<g id="edge10_Node000007_Node000004" class="edge">
<title>Node7&#45;&gt;Node4</title>
<g id="a_edge10_Node000007_Node000004"><a xlink:title=" ">
<path fill="none" stroke="#63b8ff" d="M310.63,-164.98C349.91,-155.86 412.37,-141.33 455.19,-131.38"/>
<polygon fill="#63b8ff" stroke="#63b8ff" points="456.13,-134.76 465.08,-129.08 454.55,-127.94 456.13,-134.76"/>
</a>
</g>
</g>
<!-- Node7&#45;&gt;Node5 -->
<g id="edge8_Node000007_Node000005" class="edge">
<title>Node7&#45;&gt;Node5</title>
<g id="a_edge8_Node000007_Node000005"><a xlink:title=" ">
<path fill="none" stroke="#63b8ff" d="M316.16,-165.88C344.43,-159.34 381.55,-147.91 410,-129 428.33,-116.81 444.17,-96.92 454.08,-82.65"/>
<polygon fill="#63b8ff" stroke="#63b8ff" points="457.06,-84.48 459.7,-74.22 451.24,-80.6 457.06,-84.48"/>
</a>
</g>
</g>
<!-- Node8 -->
<g id="Node000008" class="node">
<title>Node8</title>
<g id="a_Node000008"><a xlink:href="____l4__fpage_8h_source.html" target="_top" xlink:title=" ">
<polygon fill="white" stroke="#666666" points="277,-129 167,-129 167,-110 277,-110 277,-129"/>
<text text-anchor="middle" x="222" y="-117" font-family="Helvetica,sans-Serif" font-size="10.00">l4/sys/__l4_fpage.h</text>
</a>
</g>
</g>
<!-- Node7&#45;&gt;Node8 -->
<g id="edge11_Node000007_Node000008" class="edge">
<title>Node7&#45;&gt;Node8</title>
<g id="a_edge11_Node000007_Node000008"><a xlink:title=" ">
<path fill="none" stroke="#63b8ff" d="M265.41,-164.75C257.84,-157.03 246.62,-145.6 237.49,-136.28"/>
<polygon fill="#63b8ff" stroke="#63b8ff" points="239.93,-133.78 230.43,-129.09 234.93,-138.68 239.93,-133.78"/>
</a>
</g>
</g>
<!-- Node9 -->
<g id="Node000009" class="node">
<title>Node9</title>
<g id="a_Node000009"><a xlink:href="____timeout_8h_source.html" target="_top" xlink:title=" ">
<polygon fill="white" stroke="#666666" points="401,-129 295,-129 295,-110 401,-110 401,-129"/>
<text text-anchor="middle" x="348" y="-117" font-family="Helvetica,sans-Serif" font-size="10.00">l4/sys/__timeout.h</text>
</a>
</g>
</g>
<!-- Node7&#45;&gt;Node9 -->
<g id="edge13_Node000007_Node000009" class="edge">
<title>Node7&#45;&gt;Node9</title>
<g id="a_edge13_Node000007_Node000009"><a xlink:title=" ">
<path fill="none" stroke="#63b8ff" d="M285.89,-164.98C297.15,-156.92 314.29,-144.65 327.71,-135.03"/>
<polygon fill="#63b8ff" stroke="#63b8ff" points="329.8,-137.84 335.89,-129.17 325.73,-132.15 329.8,-137.84"/>
</a>
</g>
</g>
<!-- Node8&#45;&gt;Node2 -->
<g id="edge12_Node000008_Node000002" class="edge">
<title>Node8&#45;&gt;Node2</title>
<g id="a_edge12_Node000008_Node000002"><a xlink:title=" ">
<path fill="none" stroke="#63b8ff" d="M208.66,-109.98C195.91,-101.84 176.45,-89.41 161.33,-79.76"/>
<polygon fill="#63b8ff" stroke="#63b8ff" points="162.89,-76.6 152.58,-74.17 159.12,-82.5 162.89,-76.6"/>
</a>
</g>
</g>
<!-- Node9&#45;&gt;Node2 -->
<g id="edge15_Node000009_Node000002" class="edge">
<title>Node9&#45;&gt;Node2</title>
<g id="a_edge15_Node000009_Node000002"><a xlink:title=" ">
<path fill="none" stroke="#63b8ff" d="M314.42,-109.98C278.65,-100.91 221.88,-86.52 182.66,-76.57"/>
<polygon fill="#63b8ff" stroke="#63b8ff" points="183.4,-73.15 172.84,-74.08 181.68,-79.93 183.4,-73.15"/>
</a>
</g>
</g>
<!-- Node9&#45;&gt;Node5 -->
<g id="edge14_Node000009_Node000005" class="edge">
<title>Node9&#45;&gt;Node5</title>
<g id="a_edge14_Node000009_Node000005"><a xlink:title=" ">
<path fill="none" stroke="#63b8ff" d="M366.8,-109.98C385.62,-101.46 414.82,-88.23 436.5,-78.41"/>
<polygon fill="#63b8ff" stroke="#63b8ff" points="438.2,-81.48 445.86,-74.17 435.31,-75.11 438.2,-81.48"/>
</a>
</g>
</g>
<!-- Node10&#45;&gt;Node2 -->
<g id="edge18_Node000010_Node000002" class="edge">
<title>Node10&#45;&gt;Node2</title>
<g id="a_edge18_Node000010_Node000002"><a xlink:title=" ">
<path fill="none" stroke="#63b8ff" d="M199.31,-219.98C185.15,-203.7 155.3,-166.47 143,-129 138.26,-114.55 137.46,-97.28 137.73,-84.4"/>
<polygon fill="#63b8ff" stroke="#63b8ff" points="141.23,-84.54 138.18,-74.39 134.24,-84.22 141.23,-84.54"/>
</a>
</g>
</g>
<!-- Node10&#45;&gt;Node5 -->
<g id="edge19_Node000010_Node000005" class="edge">
<title>Node10&#45;&gt;Node5</title>
<g id="a_edge19_Node000010_Node000005"><a xlink:title=" ">
<path fill="none" stroke="#63b8ff" d="M246.21,-223.25C329.25,-211.24 518.33,-178.91 556,-129 573.46,-105.87 538.97,-87.99 507.56,-77.19"/>
<polygon fill="#63b8ff" stroke="#63b8ff" points="508.57,-73.83 497.98,-74.06 506.4,-80.49 508.57,-73.83"/>
</a>
</g>
</g>
<!-- Node10&#45;&gt;Node7 -->
<g id="edge17_Node000010_Node000007" class="edge">
<title>Node10&#45;&gt;Node7</title>
<g id="a_edge17_Node000010_Node000007"><a xlink:title=" ">
<path fill="none" stroke="#63b8ff" d="M217.76,-219.98C227.77,-212.07 242.89,-200.11 254.93,-190.58"/>
<polygon fill="#63b8ff" stroke="#63b8ff" points="257.37,-193.12 263.04,-184.17 253.03,-187.63 257.37,-193.12"/>
</a>
</g>
</g>
<!-- Node11&#45;&gt;Node2 -->
<g id="edge21_Node000011_Node000002" class="edge">
<title>Node11&#45;&gt;Node2</title>
<g id="a_edge21_Node000011_Node000002"><a xlink:title=" ">
<path fill="none" stroke="#63b8ff" d="M64.87,-164.62C67.9,-151.7 74.81,-127.36 87,-110 95.11,-98.45 106.88,-88.04 117.18,-80.2"/>
<polygon fill="#63b8ff" stroke="#63b8ff" points="119.34,-82.96 125.37,-74.25 115.22,-77.3 119.34,-82.96"/>
</a>
</g>
</g>
</g>
</svg>
