<?xml version="1.0" encoding="UTF-8" standalone="no"?>
<!DOCTYPE svg PUBLIC "-//W3C//DTD SVG 1.1//EN"
 "http://www.w3.org/Graphics/SVG/1.1/DTD/svg11.dtd">
<!-- Generated by graphviz version 2.43.0 (0)
 -->
<!-- Title: l4/sys/ktrace.h Pages: 1 -->
<svg width="570pt" height="467pt"
 viewBox="0.00 0.00 569.54 467.00" xmlns="http://www.w3.org/2000/svg" xmlns:xlink="http://www.w3.org/1999/xlink">
<g id="graph0" class="graph" transform="scale(1 1) rotate(0) translate(4 463)">
<title>l4/sys/ktrace.h</title>
<!-- Node1 -->
<g id="Node000001" class="node">
<title>Node1</title>
<g id="a_Node000001"><a xlink:title="L4 kernel event tracing.">
<polygon fill="#999999" stroke="#666666" points="352,-459 264,-459 264,-440 352,-440 352,-459"/>
<text text-anchor="middle" x="308" y="-447" font-family="Helvetica,sans-Serif" font-size="10.00">l4/sys/ktrace.h</text>
</a>
</g>
</g>
<!-- Node2 -->
<g id="Node000002" class="node">
<title>Node2</title>
<g id="a_Node000002"><a xlink:href="l4_2sys_2types_8h.html" target="_top" xlink:title="Common L4 ABI Data Types.">
<polygon fill="white" stroke="#666666" points="312,-184 228,-184 228,-165 312,-165 312,-184"/>
<text text-anchor="middle" x="270" y="-172" font-family="Helvetica,sans-Serif" font-size="10.00">l4/sys/types.h</text>
</a>
</g>
</g>
<!-- Node1&#45;&gt;Node2 -->
<g id="edge1_Node000001_Node000002" class="edge">
<title>Node1&#45;&gt;Node2</title>
<g id="a_edge1_Node000001_Node000002"><a xlink:title=" ">
<path fill="none" stroke="#63b8ff" d="M308,-439.82C308,-421.48 308,-377.44 308,-340.5 308,-340.5 308,-340.5 308,-283.5 308,-250.02 291.55,-213.84 280.3,-193.01"/>
<polygon fill="#63b8ff" stroke="#63b8ff" points="283.24,-191.1 275.28,-184.1 277.13,-194.53 283.24,-191.1"/>
</a>
</g>
</g>
<!-- Node9 -->
<g id="Node000009" class="node">
<title>Node9</title>
<g id="a_Node000009"><a xlink:title=" ">
<polygon fill="#e0e0e0" stroke="#999999" points="462,-404 336,-404 336,-385 462,-385 462,-404"/>
<text text-anchor="middle" x="399" y="-392" font-family="Helvetica,sans-Serif" font-size="10.00">l4/sys/ktrace_events.h</text>
</a>
</g>
</g>
<!-- Node1&#45;&gt;Node9 -->
<g id="edge12_Node000001_Node000009" class="edge">
<title>Node1&#45;&gt;Node9</title>
<g id="a_edge12_Node000001_Node000009"><a xlink:title=" ">
<path fill="none" stroke="#63b8ff" d="M322.62,-439.98C336.86,-431.69 358.75,-418.94 375.45,-409.22"/>
<polygon fill="#63b8ff" stroke="#63b8ff" points="377.23,-412.23 384.11,-404.17 373.71,-406.18 377.23,-412.23"/>
</a>
</g>
</g>
<!-- Node10 -->
<g id="Node000010" class="node">
<title>Node10</title>
<g id="a_Node000010"><a xlink:href="____ktrace-impl_8h.html" target="_top" xlink:title="L4 kernel event tracing.">
<polygon fill="white" stroke="#666666" points="280,-404 156,-404 156,-385 280,-385 280,-404"/>
<text text-anchor="middle" x="218" y="-392" font-family="Helvetica,sans-Serif" font-size="10.00">l4/sys/__ktrace&#45;impl.h</text>
</a>
</g>
</g>
<!-- Node1&#45;&gt;Node10 -->
<g id="edge13_Node000001_Node000010" class="edge">
<title>Node1&#45;&gt;Node10</title>
<g id="a_edge13_Node000001_Node000010"><a xlink:title=" ">
<path fill="none" stroke="#63b8ff" d="M293.54,-439.98C279.58,-431.77 258.21,-419.18 241.75,-409.49"/>
<polygon fill="#63b8ff" stroke="#63b8ff" points="243.12,-406.23 232.72,-404.17 239.56,-412.26 243.12,-406.23"/>
</a>
</g>
</g>
<!-- Node3 -->
<g id="Node000003" class="node">
<title>Node3</title>
<g id="a_Node000003"><a xlink:href="l4_2sys_2l4int_8h.html" target="_top" xlink:title="Fixed sized integer types, generic version.">
<polygon fill="white" stroke="#666666" points="474.5,-74 395.5,-74 395.5,-55 474.5,-55 474.5,-74"/>
<text text-anchor="middle" x="435" y="-62" font-family="Helvetica,sans-Serif" font-size="10.00">l4/sys/l4int.h</text>
</a>
</g>
</g>
<!-- Node2&#45;&gt;Node3 -->
<g id="edge2_Node000002_Node000003" class="edge">
<title>Node2&#45;&gt;Node3</title>
<g id="a_edge2_Node000002_Node000003"><a xlink:title=" ">
<path fill="none" stroke="#63b8ff" d="M312.02,-173.34C383.55,-172.07 524.23,-164.95 555,-129 579.32,-100.59 527.41,-83.01 484.42,-73.74"/>
<polygon fill="#63b8ff" stroke="#63b8ff" points="485.07,-70.3 474.57,-71.73 483.67,-77.16 485.07,-70.3"/>
</a>
</g>
</g>
<!-- Node4 -->
<g id="Node000004" class="node">
<title>Node4</title>
<g id="a_Node000004"><a xlink:href="compiler_8h.html" target="_top" xlink:title="L4 compiler related defines.">
<polygon fill="white" stroke="#666666" points="169.5,-74 70.5,-74 70.5,-55 169.5,-55 169.5,-74"/>
<text text-anchor="middle" x="120" y="-62" font-family="Helvetica,sans-Serif" font-size="10.00">l4/sys/compiler.h</text>
</a>
</g>
</g>
<!-- Node2&#45;&gt;Node4 -->
<g id="edge3_Node000002_Node000004" class="edge">
<title>Node2&#45;&gt;Node4</title>
<g id="a_edge3_Node000002_Node000004"><a xlink:title=" ">
<path fill="none" stroke="#63b8ff" d="M254.25,-164.97C238.96,-156.47 215.3,-142.74 196,-129 174.73,-113.85 151.95,-94.33 136.93,-80.95"/>
<polygon fill="#63b8ff" stroke="#63b8ff" points="139.23,-78.31 129.45,-74.22 134.54,-83.51 139.23,-78.31"/>
</a>
</g>
</g>
<!-- Node6 -->
<g id="Node000006" class="node">
<title>Node6</title>
<g id="a_Node000006"><a xlink:href="l4_2sys_2consts_8h.html" target="_top" xlink:title="Common constants.">
<polygon fill="white" stroke="#666666" points="422.5,-129 333.5,-129 333.5,-110 422.5,-110 422.5,-129"/>
<text text-anchor="middle" x="378" y="-117" font-family="Helvetica,sans-Serif" font-size="10.00">l4/sys/consts.h</text>
</a>
</g>
</g>
<!-- Node2&#45;&gt;Node6 -->
<g id="edge5_Node000002_Node000006" class="edge">
<title>Node2&#45;&gt;Node6</title>
<g id="a_edge5_Node000002_Node000006"><a xlink:title=" ">
<path fill="none" stroke="#63b8ff" d="M287.35,-164.98C304.57,-156.54 331.2,-143.47 351.15,-133.68"/>
<polygon fill="#63b8ff" stroke="#63b8ff" points="352.9,-136.72 360.33,-129.17 349.81,-130.43 352.9,-136.72"/>
</a>
</g>
</g>
<!-- Node7 -->
<g id="Node000007" class="node">
<title>Node7</title>
<g id="a_Node000007"><a xlink:href="____l4__fpage_8h_source.html" target="_top" xlink:title=" ">
<polygon fill="white" stroke="#666666" points="315,-129 205,-129 205,-110 315,-110 315,-129"/>
<text text-anchor="middle" x="260" y="-117" font-family="Helvetica,sans-Serif" font-size="10.00">l4/sys/__l4_fpage.h</text>
</a>
</g>
</g>
<!-- Node2&#45;&gt;Node7 -->
<g id="edge8_Node000002_Node000007" class="edge">
<title>Node2&#45;&gt;Node7</title>
<g id="a_edge8_Node000002_Node000007"><a xlink:title=" ">
<path fill="none" stroke="#63b8ff" d="M268.35,-164.75C267.04,-157.8 265.16,-147.85 263.52,-139.13"/>
<polygon fill="#63b8ff" stroke="#63b8ff" points="266.91,-138.27 261.62,-129.09 260.04,-139.56 266.91,-138.27"/>
</a>
</g>
</g>
<!-- Node8 -->
<g id="Node000008" class="node">
<title>Node8</title>
<g id="a_Node000008"><a xlink:href="____timeout_8h_source.html" target="_top" xlink:title=" ">
<polygon fill="white" stroke="#666666" points="546,-129 440,-129 440,-110 546,-110 546,-129"/>
<text text-anchor="middle" x="493" y="-117" font-family="Helvetica,sans-Serif" font-size="10.00">l4/sys/__timeout.h</text>
</a>
</g>
</g>
<!-- Node2&#45;&gt;Node8 -->
<g id="edge10_Node000002_Node000008" class="edge">
<title>Node2&#45;&gt;Node8</title>
<g id="a_edge10_Node000002_Node000008"><a xlink:title=" ">
<path fill="none" stroke="#63b8ff" d="M305.83,-164.98C344.16,-155.87 405.08,-141.4 446.95,-131.45"/>
<polygon fill="#63b8ff" stroke="#63b8ff" points="447.97,-134.8 456.89,-129.08 446.35,-127.99 447.97,-134.8"/>
</a>
</g>
</g>
<!-- Node5 -->
<g id="Node000005" class="node">
<title>Node5</title>
<g id="a_Node000005"><a xlink:title=" ">
<polygon fill="#e0e0e0" stroke="#999999" points="166,-19 74,-19 74,0 166,0 166,-19"/>
<text text-anchor="middle" x="120" y="-7" font-family="Helvetica,sans-Serif" font-size="10.00">l4/sys/linkage.h</text>
</a>
</g>
</g>
<!-- Node4&#45;&gt;Node5 -->
<g id="edge4_Node000004_Node000005" class="edge">
<title>Node4&#45;&gt;Node5</title>
<g id="a_edge4_Node000004_Node000005"><a xlink:title=" ">
<path fill="none" stroke="#63b8ff" d="M120,-54.75C120,-47.8 120,-37.85 120,-29.13"/>
<polygon fill="#63b8ff" stroke="#63b8ff" points="123.5,-29.09 120,-19.09 116.5,-29.09 123.5,-29.09"/>
</a>
</g>
</g>
<!-- Node6&#45;&gt;Node3 -->
<g id="edge7_Node000006_Node000003" class="edge">
<title>Node6&#45;&gt;Node3</title>
<g id="a_edge7_Node000006_Node000003"><a xlink:title=" ">
<path fill="none" stroke="#63b8ff" d="M387.16,-109.98C395.5,-102.23 408.03,-90.58 418.18,-81.14"/>
<polygon fill="#63b8ff" stroke="#63b8ff" points="420.74,-83.54 425.68,-74.17 415.97,-78.42 420.74,-83.54"/>
</a>
</g>
</g>
<!-- Node6&#45;&gt;Node4 -->
<g id="edge6_Node000006_Node000004" class="edge">
<title>Node6&#45;&gt;Node4</title>
<g id="a_edge6_Node000006_Node000004"><a xlink:title=" ">
<path fill="none" stroke="#63b8ff" d="M336.55,-109.98C291.73,-100.78 220.23,-86.09 171.75,-76.13"/>
<polygon fill="#63b8ff" stroke="#63b8ff" points="172.28,-72.67 161.78,-74.08 170.87,-79.52 172.28,-72.67"/>
</a>
</g>
</g>
<!-- Node7&#45;&gt;Node4 -->
<g id="edge9_Node000007_Node000004" class="edge">
<title>Node7&#45;&gt;Node4</title>
<g id="a_edge9_Node000007_Node000004"><a xlink:title=" ">
<path fill="none" stroke="#63b8ff" d="M237.51,-109.98C214.48,-101.27 178.46,-87.63 152.37,-77.75"/>
<polygon fill="#63b8ff" stroke="#63b8ff" points="153.49,-74.44 142.9,-74.17 151.02,-80.98 153.49,-74.44"/>
</a>
</g>
</g>
<!-- Node8&#45;&gt;Node3 -->
<g id="edge11_Node000008_Node000003" class="edge">
<title>Node8&#45;&gt;Node3</title>
<g id="a_edge11_Node000008_Node000003"><a xlink:title=" ">
<path fill="none" stroke="#63b8ff" d="M483.68,-109.98C475.19,-102.23 462.44,-90.58 452.12,-81.14"/>
<polygon fill="#63b8ff" stroke="#63b8ff" points="454.23,-78.33 444.49,-74.17 449.51,-83.5 454.23,-78.33"/>
</a>
</g>
</g>
<!-- Node10&#45;&gt;Node2 -->
<g id="edge14_Node000010_Node000002" class="edge">
<title>Node10&#45;&gt;Node2</title>
<g id="a_edge14_Node000010_Node000002"><a xlink:title=" ">
<path fill="none" stroke="#63b8ff" d="M221.83,-384.78C225.6,-375.92 231.32,-361.71 235,-349 250.99,-293.8 262.3,-226.65 267.23,-194.47"/>
<polygon fill="#63b8ff" stroke="#63b8ff" points="270.74,-194.7 268.76,-184.29 263.81,-193.66 270.74,-194.7"/>
</a>
</g>
</g>
<!-- Node11 -->
<g id="Node000011" class="node">
<title>Node11</title>
<g id="a_Node000011"><a xlink:href="kdebug_8h.html" target="_top" xlink:title="Functionality for invoking the kernel debugger.">
<polygon fill="white" stroke="#666666" points="226.5,-349 133.5,-349 133.5,-330 226.5,-330 226.5,-349"/>
<text text-anchor="middle" x="180" y="-337" font-family="Helvetica,sans-Serif" font-size="10.00">l4/sys/kdebug.h</text>
</a>
</g>
</g>
<!-- Node10&#45;&gt;Node11 -->
<g id="edge15_Node000010_Node000011" class="edge">
<title>Node10&#45;&gt;Node11</title>
<g id="a_edge15_Node000010_Node000011"><a xlink:title=" ">
<path fill="none" stroke="#63b8ff" d="M211.73,-384.75C206.41,-377.34 198.64,-366.5 192.12,-357.41"/>
<polygon fill="#63b8ff" stroke="#63b8ff" points="194.83,-355.18 186.16,-349.09 189.14,-359.26 194.83,-355.18"/>
</a>
</g>
</g>
<!-- Node11&#45;&gt;Node4 -->
<g id="edge16_Node000011_Node000004" class="edge">
<title>Node11&#45;&gt;Node4</title>
<g id="a_edge16_Node000011_Node000004"><a xlink:title=" ">
<path fill="none" stroke="#63b8ff" d="M133.18,-331.2C79.84,-319.91 0,-292.64 0,-230.5 0,-230.5 0,-230.5 0,-173.5 0,-126.36 51.8,-94.54 87.33,-78.26"/>
<polygon fill="#63b8ff" stroke="#63b8ff" points="89.11,-81.31 96.86,-74.09 86.3,-74.89 89.11,-81.31"/>
</a>
</g>
</g>
<!-- Node11&#45;&gt;Node6 -->
<g id="edge17_Node000011_Node000006" class="edge">
<title>Node11&#45;&gt;Node6</title>
<g id="a_edge17_Node000011_Node000006"><a xlink:title=" ">
<path fill="none" stroke="#63b8ff" d="M187.98,-329.81C209.5,-306.35 270.56,-239.73 321,-184 335.52,-167.96 352.02,-149.56 363.52,-136.71"/>
<polygon fill="#63b8ff" stroke="#63b8ff" points="366.22,-138.94 370.28,-129.15 361,-134.27 366.22,-138.94"/>
</a>
</g>
</g>
<!-- Node12 -->
<g id="Node000012" class="node">
<title>Node12</title>
<g id="a_Node000012"><a xlink:href="l4_2sys_2ipc_8h.html" target="_top" xlink:title="Common IPC interface.">
<polygon fill="white" stroke="#666666" points="207.5,-294 136.5,-294 136.5,-275 207.5,-275 207.5,-294"/>
<text text-anchor="middle" x="172" y="-282" font-family="Helvetica,sans-Serif" font-size="10.00">l4/sys/ipc.h</text>
</a>
</g>
</g>
<!-- Node11&#45;&gt;Node12 -->
<g id="edge18_Node000011_Node000012" class="edge">
<title>Node11&#45;&gt;Node12</title>
<g id="a_edge18_Node000011_Node000012"><a xlink:title=" ">
<path fill="none" stroke="#63b8ff" d="M178.68,-329.75C177.63,-322.8 176.13,-312.85 174.81,-304.13"/>
<polygon fill="#63b8ff" stroke="#63b8ff" points="178.25,-303.45 173.3,-294.09 171.33,-304.5 178.25,-303.45"/>
</a>
</g>
</g>
<!-- Node12&#45;&gt;Node2 -->
<g id="edge19_Node000012_Node000002" class="edge">
<title>Node12&#45;&gt;Node2</title>
<g id="a_edge19_Node000012_Node000002"><a xlink:title=" ">
<path fill="none" stroke="#63b8ff" d="M179.89,-275C188.17,-266.07 201.55,-251.59 213,-239 227.55,-223 244.05,-204.59 255.54,-191.73"/>
<polygon fill="#63b8ff" stroke="#63b8ff" points="258.24,-193.95 262.29,-184.16 253.02,-189.29 258.24,-193.95"/>
</a>
</g>
</g>
<!-- Node13 -->
<g id="Node000013" class="node">
<title>Node13</title>
<g id="a_Node000013"><a xlink:href="l4_2sys_2utcb_8h.html" target="_top" xlink:title="UTCB definitions.">
<polygon fill="white" stroke="#666666" points="204,-239 126,-239 126,-220 204,-220 204,-239"/>
<text text-anchor="middle" x="165" y="-227" font-family="Helvetica,sans-Serif" font-size="10.00">l4/sys/utcb.h</text>
</a>
</g>
</g>
<!-- Node12&#45;&gt;Node13 -->
<g id="edge20_Node000012_Node000013" class="edge">
<title>Node12&#45;&gt;Node13</title>
<g id="a_edge20_Node000012_Node000013"><a xlink:title=" ">
<path fill="none" stroke="#63b8ff" d="M170.84,-274.75C169.93,-267.8 168.61,-257.85 167.46,-249.13"/>
<polygon fill="#63b8ff" stroke="#63b8ff" points="170.91,-248.54 166.13,-239.09 163.97,-249.46 170.91,-248.54"/>
</a>
</g>
</g>
<!-- Node14 -->
<g id="Node000014" class="node">
<title>Node14</title>
<g id="a_Node000014"><a xlink:href="err_8h.html" target="_top" xlink:title="Error codes.">
<polygon fill="white" stroke="#666666" points="98,-184 28,-184 28,-165 98,-165 98,-184"/>
<text text-anchor="middle" x="63" y="-172" font-family="Helvetica,sans-Serif" font-size="10.00">l4/sys/err.h</text>
</a>
</g>
</g>
<!-- Node12&#45;&gt;Node14 -->
<g id="edge24_Node000012_Node000014" class="edge">
<title>Node12&#45;&gt;Node14</title>
<g id="a_edge24_Node000012_Node000014"><a xlink:title=" ">
<path fill="none" stroke="#63b8ff" d="M160.1,-274.89C148.58,-266.33 130.89,-252.55 117,-239 101.85,-224.22 86.39,-205.6 75.91,-192.36"/>
<polygon fill="#63b8ff" stroke="#63b8ff" points="78.43,-189.89 69.52,-184.16 72.91,-194.2 78.43,-189.89"/>
</a>
</g>
</g>
<!-- Node13&#45;&gt;Node2 -->
<g id="edge21_Node000013_Node000002" class="edge">
<title>Node13&#45;&gt;Node2</title>
<g id="a_edge21_Node000013_Node000002"><a xlink:title=" ">
<path fill="none" stroke="#63b8ff" d="M181.87,-219.98C198.61,-211.54 224.5,-198.47 243.89,-188.68"/>
<polygon fill="#63b8ff" stroke="#63b8ff" points="245.47,-191.8 252.82,-184.17 242.32,-185.55 245.47,-191.8"/>
</a>
</g>
</g>
<!-- Node13&#45;&gt;Node3 -->
<g id="edge23_Node000013_Node000003" class="edge">
<title>Node13&#45;&gt;Node3</title>
<g id="a_edge23_Node000013_Node000003"><a xlink:title=" ">
<path fill="none" stroke="#63b8ff" d="M164.4,-219.8C163.41,-197.82 164.09,-139.7 196,-110 222.8,-85.06 323.01,-73.49 384.85,-68.62"/>
<polygon fill="#63b8ff" stroke="#63b8ff" points="385.46,-72.08 395.17,-67.84 384.94,-65.1 385.46,-72.08"/>
</a>
</g>
</g>
<!-- Node13&#45;&gt;Node4 -->
<g id="edge22_Node000013_Node000004" class="edge">
<title>Node13&#45;&gt;Node4</title>
<g id="a_edge22_Node000013_Node000004"><a xlink:title=" ">
<path fill="none" stroke="#63b8ff" d="M162.58,-219.74C155.53,-194.2 134.89,-119.43 125.17,-84.23"/>
<polygon fill="#63b8ff" stroke="#63b8ff" points="128.47,-83.01 122.43,-74.31 121.72,-84.88 128.47,-83.01"/>
</a>
</g>
</g>
<!-- Node14&#45;&gt;Node4 -->
<g id="edge25_Node000014_Node000004" class="edge">
<title>Node14&#45;&gt;Node4</title>
<g id="a_edge25_Node000014_Node000004"><a xlink:title=" ">
<path fill="none" stroke="#63b8ff" d="M65.4,-164.96C69.1,-152.45 76.83,-128.62 87,-110 92.35,-100.2 99.63,-90.15 105.99,-82.08"/>
<polygon fill="#63b8ff" stroke="#63b8ff" points="108.8,-84.17 112.4,-74.21 103.37,-79.75 108.8,-84.17"/>
</a>
</g>
</g>
</g>
</svg>
