<?xml version="1.0" encoding="UTF-8" standalone="no"?>
<!DOCTYPE svg PUBLIC "-//W3C//DTD SVG 1.1//EN"
 "http://www.w3.org/Graphics/SVG/1.1/DTD/svg11.dtd">
<!-- Generated by graphviz version 2.42.4 (0)
 -->
<!-- Title: l4/re/c/util/kumem_alloc.h Pages: 1 -->
<svg width="427pt" height="258pt"
 viewBox="0.00 0.00 427.25 258.00" xmlns="http://www.w3.org/2000/svg" xmlns:xlink="http://www.w3.org/1999/xlink">
<g id="graph0" class="graph" transform="scale(1 1) rotate(0) translate(4 254)">
<title>l4/re/c/util/kumem_alloc.h</title>
<!-- Node1 -->
<g id="Node000001" class="node">
<title>Node1</title>
<g id="a_Node000001"><a xlink:title="Kumem allocator utility C interface.">
<polygon fill="#999999" stroke="#666666" points="105,-250 0,-250 0,-220 105,-220 105,-250"/>
<text text-anchor="start" x="8" y="-238" font-family="Helvetica,sans-Serif" font-size="10.00">l4/re/c/util/kumem</text>
<text text-anchor="middle" x="52.5" y="-227" font-family="Helvetica,sans-Serif" font-size="10.00">_alloc.h</text>
</a>
</g>
</g>
<!-- Node2 -->
<g id="Node000002" class="node">
<title>Node2</title>
<g id="a_Node000002"><a xlink:href="l4_2sys_2types_8h.html" target="_top" xlink:title="Common L4 ABI Data Types.">
<polygon fill="white" stroke="#666666" points="212.5,-184 128.5,-184 128.5,-165 212.5,-165 212.5,-184"/>
<text text-anchor="middle" x="170.5" y="-172" font-family="Helvetica,sans-Serif" font-size="10.00">l4/sys/types.h</text>
</a>
</g>
</g>
<!-- Node1&#45;&gt;Node2 -->
<g id="edge1_Node000001_Node000002" class="edge">
<title>Node1&#45;&gt;Node2</title>
<g id="a_edge1_Node000001_Node000002"><a xlink:title=" ">
<path fill="none" stroke="#63b8ff" d="M80.76,-219.99C99.92,-210.49 125.08,-198.02 143.89,-188.69"/>
<polygon fill="#63b8ff" stroke="#63b8ff" points="145.67,-191.72 153.07,-184.14 142.56,-185.45 145.67,-191.72"/>
</a>
</g>
</g>
<!-- Node5 -->
<g id="Node000005" class="node">
<title>Node5</title>
<g id="a_Node000005"><a xlink:title=" ">
<polygon fill="#e0e0e0" stroke="#999999" points="156.5,-19 64.5,-19 64.5,0 156.5,0 156.5,-19"/>
<text text-anchor="middle" x="110.5" y="-7" font-family="Helvetica,sans-Serif" font-size="10.00">l4/sys/linkage.h</text>
</a>
</g>
</g>
<!-- Node1&#45;&gt;Node5 -->
<g id="edge13_Node000001_Node000005" class="edge">
<title>Node1&#45;&gt;Node5</title>
<g id="a_edge13_Node000001_Node000005"><a xlink:title=" ">
<path fill="none" stroke="#63b8ff" d="M49.14,-219.74C44.18,-196.54 36.26,-149.27 43.5,-110 48.25,-84.27 50.09,-76.84 64.5,-55 71.72,-44.07 82.04,-33.76 91.08,-25.83"/>
<polygon fill="#63b8ff" stroke="#63b8ff" points="93.5,-28.38 98.9,-19.26 88.99,-23.02 93.5,-28.38"/>
</a>
</g>
</g>
<!-- Node3 -->
<g id="Node000003" class="node">
<title>Node3</title>
<g id="a_Node000003"><a xlink:href="l4_2sys_2l4int_8h.html" target="_top" xlink:title="Fixed sized integer types, generic version.">
<polygon fill="white" stroke="#666666" points="152,-74 73,-74 73,-55 152,-55 152,-74"/>
<text text-anchor="middle" x="112.5" y="-62" font-family="Helvetica,sans-Serif" font-size="10.00">l4/sys/l4int.h</text>
</a>
</g>
</g>
<!-- Node2&#45;&gt;Node3 -->
<g id="edge2_Node000002_Node000003" class="edge">
<title>Node2&#45;&gt;Node3</title>
<g id="a_edge2_Node000002_Node000003"><a xlink:title=" ">
<path fill="none" stroke="#63b8ff" d="M128.38,-169.84C101.27,-165.06 67.95,-154.08 50.5,-129 37.1,-109.74 61.57,-90.93 83.6,-78.85"/>
<polygon fill="#63b8ff" stroke="#63b8ff" points="85.51,-81.8 92.78,-74.1 82.29,-75.59 85.51,-81.8"/>
</a>
</g>
</g>
<!-- Node4 -->
<g id="Node000004" class="node">
<title>Node4</title>
<g id="a_Node000004"><a xlink:href="compiler_8h.html" target="_top" xlink:title="L4 compiler related defines.">
<polygon fill="white" stroke="#666666" points="278,-74 179,-74 179,-55 278,-55 278,-74"/>
<text text-anchor="middle" x="228.5" y="-62" font-family="Helvetica,sans-Serif" font-size="10.00">l4/sys/compiler.h</text>
</a>
</g>
</g>
<!-- Node2&#45;&gt;Node4 -->
<g id="edge3_Node000002_Node000004" class="edge">
<title>Node2&#45;&gt;Node4</title>
<g id="a_edge3_Node000002_Node000004"><a xlink:title=" ">
<path fill="none" stroke="#63b8ff" d="M212.63,-171.94C274.64,-168.66 385.81,-158.69 410.5,-129 446.91,-85.22 354.52,-71.59 288.46,-67.36"/>
<polygon fill="#63b8ff" stroke="#63b8ff" points="288.3,-63.85 278.11,-66.76 287.89,-70.84 288.3,-63.85"/>
</a>
</g>
</g>
<!-- Node6 -->
<g id="Node000006" class="node">
<title>Node6</title>
<g id="a_Node000006"><a xlink:href="l4_2sys_2consts_8h.html" target="_top" xlink:title="Common constants.">
<polygon fill="white" stroke="#666666" points="273,-129 184,-129 184,-110 273,-110 273,-129"/>
<text text-anchor="middle" x="228.5" y="-117" font-family="Helvetica,sans-Serif" font-size="10.00">l4/sys/consts.h</text>
</a>
</g>
</g>
<!-- Node2&#45;&gt;Node6 -->
<g id="edge5_Node000002_Node000006" class="edge">
<title>Node2&#45;&gt;Node6</title>
<g id="a_edge5_Node000002_Node000006"><a xlink:title=" ">
<path fill="none" stroke="#63b8ff" d="M179.82,-164.98C188.31,-157.23 201.06,-145.58 211.38,-136.14"/>
<polygon fill="#63b8ff" stroke="#63b8ff" points="213.99,-138.5 219.01,-129.17 209.27,-133.33 213.99,-138.5"/>
</a>
</g>
</g>
<!-- Node7 -->
<g id="Node000007" class="node">
<title>Node7</title>
<g id="a_Node000007"><a xlink:href="____l4__fpage_8h_source.html" target="_top" xlink:title=" ">
<polygon fill="white" stroke="#666666" points="401.5,-129 291.5,-129 291.5,-110 401.5,-110 401.5,-129"/>
<text text-anchor="middle" x="346.5" y="-117" font-family="Helvetica,sans-Serif" font-size="10.00">l4/sys/__l4_fpage.h</text>
</a>
</g>
</g>
<!-- Node2&#45;&gt;Node7 -->
<g id="edge8_Node000002_Node000007" class="edge">
<title>Node2&#45;&gt;Node7</title>
<g id="a_edge8_Node000002_Node000007"><a xlink:title=" ">
<path fill="none" stroke="#63b8ff" d="M198.78,-164.98C228.45,-156.05 275.29,-141.94 308.25,-132.02"/>
<polygon fill="#63b8ff" stroke="#63b8ff" points="309.43,-135.32 318,-129.08 307.42,-128.61 309.43,-135.32"/>
</a>
</g>
</g>
<!-- Node8 -->
<g id="Node000008" class="node">
<title>Node8</title>
<g id="a_Node000008"><a xlink:href="____timeout_8h_source.html" target="_top" xlink:title=" ">
<polygon fill="white" stroke="#666666" points="165.5,-129 59.5,-129 59.5,-110 165.5,-110 165.5,-129"/>
<text text-anchor="middle" x="112.5" y="-117" font-family="Helvetica,sans-Serif" font-size="10.00">l4/sys/__timeout.h</text>
</a>
</g>
</g>
<!-- Node2&#45;&gt;Node8 -->
<g id="edge10_Node000002_Node000008" class="edge">
<title>Node2&#45;&gt;Node8</title>
<g id="a_edge10_Node000002_Node000008"><a xlink:title=" ">
<path fill="none" stroke="#63b8ff" d="M161.18,-164.98C152.69,-157.23 139.94,-145.58 129.62,-136.14"/>
<polygon fill="#63b8ff" stroke="#63b8ff" points="131.73,-133.33 121.99,-129.17 127.01,-138.5 131.73,-133.33"/>
</a>
</g>
</g>
<!-- Node4&#45;&gt;Node5 -->
<g id="edge4_Node000004_Node000005" class="edge">
<title>Node4&#45;&gt;Node5</title>
<g id="a_edge4_Node000004_Node000005"><a xlink:title=" ">
<path fill="none" stroke="#63b8ff" d="M209.54,-54.98C190.47,-46.42 160.84,-33.11 138.95,-23.28"/>
<polygon fill="#63b8ff" stroke="#63b8ff" points="140.36,-20.07 129.8,-19.17 137.49,-26.46 140.36,-20.07"/>
</a>
</g>
</g>
<!-- Node6&#45;&gt;Node3 -->
<g id="edge7_Node000006_Node000003" class="edge">
<title>Node6&#45;&gt;Node3</title>
<g id="a_edge7_Node000006_Node000003"><a xlink:title=" ">
<path fill="none" stroke="#63b8ff" d="M209.86,-109.98C191.2,-101.46 162.25,-88.23 140.76,-78.41"/>
<polygon fill="#63b8ff" stroke="#63b8ff" points="142.03,-75.14 131.48,-74.17 139.12,-81.51 142.03,-75.14"/>
</a>
</g>
</g>
<!-- Node6&#45;&gt;Node4 -->
<g id="edge6_Node000006_Node000004" class="edge">
<title>Node6&#45;&gt;Node4</title>
<g id="a_edge6_Node000006_Node000004"><a xlink:title=" ">
<path fill="none" stroke="#63b8ff" d="M228.5,-109.75C228.5,-102.8 228.5,-92.85 228.5,-84.13"/>
<polygon fill="#63b8ff" stroke="#63b8ff" points="232,-84.09 228.5,-74.09 225,-84.09 232,-84.09"/>
</a>
</g>
</g>
<!-- Node7&#45;&gt;Node4 -->
<g id="edge9_Node000007_Node000004" class="edge">
<title>Node7&#45;&gt;Node4</title>
<g id="a_edge9_Node000007_Node000004"><a xlink:title=" ">
<path fill="none" stroke="#63b8ff" d="M327.54,-109.98C308.47,-101.42 278.84,-88.11 256.95,-78.28"/>
<polygon fill="#63b8ff" stroke="#63b8ff" points="258.36,-75.07 247.8,-74.17 255.49,-81.46 258.36,-75.07"/>
</a>
</g>
</g>
<!-- Node8&#45;&gt;Node3 -->
<g id="edge11_Node000008_Node000003" class="edge">
<title>Node8&#45;&gt;Node3</title>
<g id="a_edge11_Node000008_Node000003"><a xlink:title=" ">
<path fill="none" stroke="#63b8ff" d="M112.5,-109.75C112.5,-102.8 112.5,-92.85 112.5,-84.13"/>
<polygon fill="#63b8ff" stroke="#63b8ff" points="116,-84.09 112.5,-74.09 109,-84.09 116,-84.09"/>
</a>
</g>
</g>
<!-- Node8&#45;&gt;Node4 -->
<g id="edge12_Node000008_Node000004" class="edge">
<title>Node8&#45;&gt;Node4</title>
<g id="a_edge12_Node000008_Node000004"><a xlink:title=" ">
<path fill="none" stroke="#63b8ff" d="M131.14,-109.98C149.8,-101.46 178.75,-88.23 200.24,-78.41"/>
<polygon fill="#63b8ff" stroke="#63b8ff" points="201.88,-81.51 209.52,-74.17 198.97,-75.14 201.88,-81.51"/>
</a>
</g>
</g>
</g>
</svg>
