<?xml version="1.0" encoding="UTF-8" standalone="no"?>
<!DOCTYPE svg PUBLIC "-//W3C//DTD SVG 1.1//EN"
 "http://www.w3.org/Graphics/SVG/1.1/DTD/svg11.dtd">
<!-- Generated by graphviz version 2.43.0 (0)
 -->
<!-- Title: l4/sys/irq.h Pages: 1 -->
<svg width="1547pt" height="511pt"
 viewBox="0.00 0.00 1546.50 511.00" xmlns="http://www.w3.org/2000/svg" xmlns:xlink="http://www.w3.org/1999/xlink">
<g id="graph0" class="graph" transform="scale(1 1) rotate(0) translate(4 507)">
<title>l4/sys/irq.h</title>
<!-- Node1 -->
<g id="Node000001" class="node">
<title>Node1</title>
<g id="a_Node000001"><a xlink:title="C Irq interface.">
<polygon fill="#999999" stroke="#666666" points="1456,-503 1386,-503 1386,-484 1456,-484 1456,-503"/>
<text text-anchor="middle" x="1421" y="-491" font-family="Helvetica,sans-Serif" font-size="10.00">l4/sys/irq.h</text>
</a>
</g>
</g>
<!-- Node2 -->
<g id="Node000002" class="node">
<title>Node2</title>
<g id="a_Node000002"><a xlink:href="irq.html" target="_top" xlink:title="C++ Irq interface.">
<polygon fill="white" stroke="#666666" points="1399.5,-448 1338.5,-448 1338.5,-429 1399.5,-429 1399.5,-448"/>
<text text-anchor="middle" x="1369" y="-436" font-family="Helvetica,sans-Serif" font-size="10.00">l4/sys/irq</text>
</a>
</g>
</g>
<!-- Node1&#45;&gt;Node2 -->
<g id="edge1_Node000001_Node000002" class="edge">
<title>Node1&#45;&gt;Node2</title>
<g id="a_edge1_Node000001_Node000002"><a xlink:title=" ">
<path fill="none" stroke="#63b8ff" d="M1405.32,-476.52C1396.16,-467.18 1384.95,-455.75 1377.43,-448.09"/>
<polygon fill="#63b8ff" stroke="#63b8ff" points="1402.91,-479.06 1412.41,-483.75 1407.91,-474.16 1402.91,-479.06"/>
</a>
</g>
</g>
<!-- Node36 -->
<g id="Node000036" class="node">
<title>Node36</title>
<g id="a_Node000036"><a xlink:href="semaphore_8h.html" target="_top" xlink:title="C semaphore interface.">
<polygon fill="white" stroke="#666666" points="1536,-448 1424,-448 1424,-429 1536,-429 1536,-448"/>
<text text-anchor="middle" x="1480" y="-436" font-family="Helvetica,sans-Serif" font-size="10.00">l4/sys/semaphore.h</text>
</a>
</g>
</g>
<!-- Node1&#45;&gt;Node36 -->
<g id="edge52_Node000001_Node000036" class="edge">
<title>Node1&#45;&gt;Node36</title>
<g id="a_edge52_Node000001_Node000036"><a xlink:title=" ">
<path fill="none" stroke="#63b8ff" d="M1438.2,-477.04C1448.67,-467.64 1461.65,-455.98 1470.35,-448.17"/>
<polygon fill="#63b8ff" stroke="#63b8ff" points="1435.58,-474.7 1430.48,-483.98 1440.26,-479.91 1435.58,-474.7"/>
</a>
</g>
</g>
<!-- Node3 -->
<g id="Node000003" class="node">
<title>Node3</title>
<g id="a_Node000003"><a xlink:href="l4virtio_source.html" target="_top" xlink:title=" ">
<polygon fill="white" stroke="#666666" points="1538.5,-156.5 1437.5,-156.5 1437.5,-137.5 1538.5,-137.5 1538.5,-156.5"/>
<text text-anchor="middle" x="1488" y="-144.5" font-family="Helvetica,sans-Serif" font-size="10.00">l4/l4virtio/l4virtio</text>
</a>
</g>
</g>
<!-- Node2&#45;&gt;Node3 -->
<g id="edge2_Node000002_Node000003" class="edge">
<title>Node2&#45;&gt;Node3</title>
<g id="a_edge2_Node000002_Node000003"><a xlink:title=" ">
<path fill="none" stroke="#63b8ff" d="M1389.97,-422.59C1413.68,-403.82 1449,-369.19 1449,-329.5 1449,-329.5 1449,-329.5 1449,-272.5 1449,-227.2 1472.8,-176.69 1483.22,-156.76"/>
<polygon fill="#63b8ff" stroke="#63b8ff" points="1387.69,-419.93 1381.85,-428.77 1391.93,-425.5 1387.69,-419.93"/>
</a>
</g>
</g>
<!-- Node9 -->
<g id="Node000009" class="node">
<title>Node9</title>
<g id="a_Node000009"><a xlink:href="event_source.html" target="_top" xlink:title=" ">
<polygon fill="white" stroke="#666666" points="207.5,-393 138.5,-393 138.5,-374 207.5,-374 207.5,-393"/>
<text text-anchor="middle" x="173" y="-381" font-family="Helvetica,sans-Serif" font-size="10.00">l4/re/event</text>
</a>
</g>
</g>
<!-- Node2&#45;&gt;Node9 -->
<g id="edge10_Node000002_Node000009" class="edge">
<title>Node2&#45;&gt;Node9</title>
<g id="a_edge10_Node000002_Node000009"><a xlink:title=" ">
<path fill="none" stroke="#63b8ff" d="M1328.07,-435.69C1142.22,-427.45 379.36,-393.64 207.5,-386.03"/>
<polygon fill="#63b8ff" stroke="#63b8ff" points="1328.09,-439.19 1338.23,-436.14 1328.4,-432.2 1328.09,-439.19"/>
</a>
</g>
</g>
<!-- Node18 -->
<g id="Node000018" class="node">
<title>Node18</title>
<g id="a_Node000018"><a xlink:href="icu.html" target="_top" xlink:title="Interrupt controller.">
<polygon fill="white" stroke="#666666" points="753,-393 691,-393 691,-374 753,-374 753,-393"/>
<text text-anchor="middle" x="722" y="-381" font-family="Helvetica,sans-Serif" font-size="10.00">l4/sys/icu</text>
</a>
</g>
</g>
<!-- Node2&#45;&gt;Node18 -->
<g id="edge19_Node000002_Node000018" class="edge">
<title>Node2&#45;&gt;Node18</title>
<g id="a_edge19_Node000002_Node000018"><a xlink:title=" ">
<path fill="none" stroke="#63b8ff" d="M1328.01,-434.14C1208.12,-424.32 859.88,-395.79 753.34,-387.07"/>
<polygon fill="#63b8ff" stroke="#63b8ff" points="1327.98,-437.65 1338.23,-434.98 1328.55,-430.67 1327.98,-437.65"/>
</a>
</g>
</g>
<!-- Node35 -->
<g id="Node000035" class="node">
<title>Node35</title>
<g id="a_Node000035"><a xlink:href="semaphore.html" target="_top" xlink:title="Semaphore class definition.">
<polygon fill="white" stroke="#666666" points="1420.5,-283 1317.5,-283 1317.5,-264 1420.5,-264 1420.5,-283"/>
<text text-anchor="middle" x="1369" y="-271" font-family="Helvetica,sans-Serif" font-size="10.00">l4/sys/semaphore</text>
</a>
</g>
</g>
<!-- Node2&#45;&gt;Node35 -->
<g id="edge48_Node000002_Node000035" class="edge">
<title>Node2&#45;&gt;Node35</title>
<g id="a_edge48_Node000002_Node000035"><a xlink:title=" ">
<path fill="none" stroke="#63b8ff" d="M1369,-418.37C1369,-383.03 1369,-308.79 1369,-283.31"/>
<polygon fill="#63b8ff" stroke="#63b8ff" points="1365.5,-418.74 1369,-428.74 1372.5,-418.74 1365.5,-418.74"/>
</a>
</g>
</g>
<!-- Node4 -->
<g id="Node000004" class="node">
<title>Node4</title>
<g id="a_Node000004"><a xlink:href="client_2l4virtio_source.html" target="_top" xlink:title=" ">
<polygon fill="white" stroke="#666666" points="1246.5,-96 1153.5,-96 1153.5,-66 1246.5,-66 1246.5,-96"/>
<text text-anchor="start" x="1161.5" y="-84" font-family="Helvetica,sans-Serif" font-size="10.00">l4/l4virtio/client</text>
<text text-anchor="middle" x="1200" y="-73" font-family="Helvetica,sans-Serif" font-size="10.00">/l4virtio</text>
</a>
</g>
</g>
<!-- Node3&#45;&gt;Node4 -->
<g id="edge3_Node000003_Node000004" class="edge">
<title>Node3&#45;&gt;Node4</title>
<g id="a_edge3_Node000003_Node000004"><a xlink:title=" ">
<path fill="none" stroke="#63b8ff" d="M1439.5,-135.22C1385.83,-123.3 1299.93,-104.21 1246.9,-92.42"/>
<polygon fill="#63b8ff" stroke="#63b8ff" points="1438.94,-138.68 1449.46,-137.44 1440.46,-131.85 1438.94,-138.68"/>
</a>
</g>
</g>
<!-- Node5 -->
<g id="Node000005" class="node">
<title>Node5</title>
<g id="a_Node000005"><a xlink:href="client_2virtio-block_source.html" target="_top" xlink:title=" ">
<polygon fill="white" stroke="#666666" points="1190.5,-30 1097.5,-30 1097.5,0 1190.5,0 1190.5,-30"/>
<text text-anchor="start" x="1105.5" y="-18" font-family="Helvetica,sans-Serif" font-size="10.00">l4/l4virtio/client</text>
<text text-anchor="middle" x="1144" y="-7" font-family="Helvetica,sans-Serif" font-size="10.00">/virtio&#45;block</text>
</a>
</g>
</g>
<!-- Node3&#45;&gt;Node5 -->
<g id="edge6_Node000003_Node000005" class="edge">
<title>Node3&#45;&gt;Node5</title>
<g id="a_edge6_Node000003_Node000005"><a xlink:title=" ">
<path fill="none" stroke="#63b8ff" d="M1478.78,-128.27C1468.04,-109.55 1448.48,-80.73 1423,-66 1336.09,-15.74 1298.34,-50.19 1200,-30 1196.96,-29.38 1193.83,-28.7 1190.68,-27.99"/>
<polygon fill="#63b8ff" stroke="#63b8ff" points="1475.82,-130.16 1483.7,-137.25 1481.96,-126.8 1475.82,-130.16"/>
</a>
</g>
</g>
<!-- Node6 -->
<g id="Node000006" class="node">
<title>Node6</title>
<g id="a_Node000006"><a xlink:href="virtio-net_source.html" target="_top" xlink:title=" ">
<polygon fill="white" stroke="#666666" points="1301.5,-30 1208.5,-30 1208.5,0 1301.5,0 1301.5,-30"/>
<text text-anchor="start" x="1216.5" y="-18" font-family="Helvetica,sans-Serif" font-size="10.00">l4/l4virtio/client</text>
<text text-anchor="middle" x="1255" y="-7" font-family="Helvetica,sans-Serif" font-size="10.00">/virtio&#45;net</text>
</a>
</g>
</g>
<!-- Node3&#45;&gt;Node6 -->
<g id="edge7_Node000003_Node000006" class="edge">
<title>Node3&#45;&gt;Node6</title>
<g id="a_edge7_Node000003_Node000006"><a xlink:title=" ">
<path fill="none" stroke="#63b8ff" d="M1486.97,-127.04C1484.94,-108.81 1479.04,-81.77 1462,-66 1438.94,-44.65 1355.22,-29.61 1301.58,-21.91"/>
<polygon fill="#63b8ff" stroke="#63b8ff" points="1483.49,-127.39 1487.8,-137.07 1490.46,-126.82 1483.49,-127.39"/>
</a>
</g>
</g>
<!-- Node7 -->
<g id="Node000007" class="node">
<title>Node7</title>
<g id="a_Node000007"><a xlink:href="server_2l4virtio_source.html" target="_top" xlink:title=" ">
<polygon fill="white" stroke="#666666" points="709.5,-96 612.5,-96 612.5,-66 709.5,-66 709.5,-96"/>
<text text-anchor="start" x="620.5" y="-84" font-family="Helvetica,sans-Serif" font-size="10.00">l4/l4virtio/server</text>
<text text-anchor="middle" x="661" y="-73" font-family="Helvetica,sans-Serif" font-size="10.00">/l4virtio</text>
</a>
</g>
</g>
<!-- Node3&#45;&gt;Node7 -->
<g id="edge8_Node000003_Node000007" class="edge">
<title>Node3&#45;&gt;Node7</title>
<g id="a_edge8_Node000003_Node000007"><a xlink:title=" ">
<path fill="none" stroke="#63b8ff" d="M1427.17,-139.34C1403.7,-136.87 1376.61,-134.16 1352,-132 1111.16,-110.9 822.53,-92.11 709.63,-85.01"/>
<polygon fill="#63b8ff" stroke="#63b8ff" points="1427.02,-142.84 1437.34,-140.42 1427.76,-135.88 1427.02,-142.84"/>
</a>
</g>
</g>
<!-- Node4&#45;&gt;Node5 -->
<g id="edge4_Node000004_Node000005" class="edge">
<title>Node4&#45;&gt;Node5</title>
<g id="a_edge4_Node000004_Node000005"><a xlink:title=" ">
<path fill="none" stroke="#63b8ff" d="M1180.83,-58.09C1172.74,-48.85 1163.56,-38.36 1156.39,-30.16"/>
<polygon fill="#63b8ff" stroke="#63b8ff" points="1178.35,-60.58 1187.57,-65.8 1183.62,-55.97 1178.35,-60.58"/>
</a>
</g>
</g>
<!-- Node4&#45;&gt;Node6 -->
<g id="edge5_Node000004_Node000006" class="edge">
<title>Node4&#45;&gt;Node6</title>
<g id="a_edge5_Node000004_Node000006"><a xlink:title=" ">
<path fill="none" stroke="#63b8ff" d="M1218.83,-58.09C1226.77,-48.85 1235.78,-38.36 1242.83,-30.16"/>
<polygon fill="#63b8ff" stroke="#63b8ff" points="1216.07,-55.93 1212.21,-65.8 1221.38,-60.49 1216.07,-55.93"/>
</a>
</g>
</g>
<!-- Node8 -->
<g id="Node000008" class="node">
<title>Node8</title>
<g id="a_Node000008"><a xlink:href="server_2virtio-block_source.html" target="_top" xlink:title=" ">
<polygon fill="white" stroke="#666666" points="709.5,-30 612.5,-30 612.5,0 709.5,0 709.5,-30"/>
<text text-anchor="start" x="620.5" y="-18" font-family="Helvetica,sans-Serif" font-size="10.00">l4/l4virtio/server</text>
<text text-anchor="middle" x="661" y="-7" font-family="Helvetica,sans-Serif" font-size="10.00">/virtio&#45;block</text>
</a>
</g>
</g>
<!-- Node7&#45;&gt;Node8 -->
<g id="edge9_Node000007_Node000008" class="edge">
<title>Node7&#45;&gt;Node8</title>
<g id="a_edge9_Node000007_Node000008"><a xlink:title=" ">
<path fill="none" stroke="#63b8ff" d="M661,-55.54C661,-46.96 661,-37.61 661,-30.16"/>
<polygon fill="#63b8ff" stroke="#63b8ff" points="657.5,-55.8 661,-65.8 664.5,-55.8 657.5,-55.8"/>
</a>
</g>
</g>
<!-- Node10 -->
<g id="Node000010" class="node">
<title>Node10</title>
<g id="a_Node000010"><a xlink:href="console_source.html" target="_top" xlink:title=" ">
<polygon fill="white" stroke="#666666" points="144.5,-338 65.5,-338 65.5,-319 144.5,-319 144.5,-338"/>
<text text-anchor="middle" x="105" y="-326" font-family="Helvetica,sans-Serif" font-size="10.00">l4/re/console</text>
</a>
</g>
</g>
<!-- Node9&#45;&gt;Node10 -->
<g id="edge11_Node000009_Node000010" class="edge">
<title>Node9&#45;&gt;Node10</title>
<g id="a_edge11_Node000009_Node000010"><a xlink:title=" ">
<path fill="none" stroke="#63b8ff" d="M153.88,-367.6C141.7,-358.11 126.34,-346.13 116.12,-338.17"/>
<polygon fill="#63b8ff" stroke="#63b8ff" points="152.04,-370.6 162.07,-373.98 156.34,-365.08 152.04,-370.6"/>
</a>
</g>
</g>
<!-- Node11 -->
<g id="Node000011" class="node">
<title>Node11</title>
<g id="a_Node000011"><a xlink:href="event__buffer_source.html" target="_top" xlink:title=" ">
<polygon fill="white" stroke="#666666" points="122,-222.5 0,-222.5 0,-203.5 122,-203.5 122,-222.5"/>
<text text-anchor="middle" x="61" y="-210.5" font-family="Helvetica,sans-Serif" font-size="10.00">l4/re/util/event_buffer</text>
</a>
</g>
</g>
<!-- Node9&#45;&gt;Node11 -->
<g id="edge12_Node000009_Node000011" class="edge">
<title>Node9&#45;&gt;Node11</title>
<g id="a_edge12_Node000009_Node000011"><a xlink:title=" ">
<path fill="none" stroke="#63b8ff" d="M128.43,-377.86C102.67,-372.63 72.23,-361.53 56,-338 31.05,-301.82 49.04,-244.56 57.38,-222.79"/>
<polygon fill="#63b8ff" stroke="#63b8ff" points="127.94,-381.33 138.4,-379.65 129.18,-374.44 127.94,-381.33"/>
</a>
</g>
</g>
<!-- Node13 -->
<g id="Node000013" class="node">
<title>Node13</title>
<g id="a_Node000013"><a xlink:href="event__svr_source.html" target="_top" xlink:title=" ">
<polygon fill="white" stroke="#666666" points="259,-90.5 151,-90.5 151,-71.5 259,-71.5 259,-90.5"/>
<text text-anchor="middle" x="205" y="-78.5" font-family="Helvetica,sans-Serif" font-size="10.00">l4/re/util/event_svr</text>
</a>
</g>
</g>
<!-- Node9&#45;&gt;Node13 -->
<g id="edge14_Node000009_Node000013" class="edge">
<title>Node9&#45;&gt;Node13</title>
<g id="a_edge14_Node000009_Node000013"><a xlink:title=" ">
<path fill="none" stroke="#63b8ff" d="M173,-363.77C173,-342.23 173,-305.81 173,-274.5 173,-274.5 173,-274.5 173,-212 173,-165.05 192.92,-111.25 201.33,-90.65"/>
<polygon fill="#63b8ff" stroke="#63b8ff" points="169.5,-363.82 173,-373.82 176.5,-363.82 169.5,-363.82"/>
</a>
</g>
</g>
<!-- Node14 -->
<g id="Node000014" class="node">
<title>Node14</title>
<g id="a_Node000014"><a xlink:href="vbus_source.html" target="_top" xlink:title=" ">
<polygon fill="white" stroke="#666666" points="415,-338 337,-338 337,-319 415,-319 415,-338"/>
<text text-anchor="middle" x="376" y="-326" font-family="Helvetica,sans-Serif" font-size="10.00">l4/vbus/vbus</text>
</a>
</g>
</g>
<!-- Node9&#45;&gt;Node14 -->
<g id="edge15_Node000009_Node000014" class="edge">
<title>Node9&#45;&gt;Node14</title>
<g id="a_edge15_Node000009_Node000014"><a xlink:title=" ">
<path fill="none" stroke="#63b8ff" d="M215.37,-371.44C253.37,-361.52 308.36,-347.16 343.13,-338.08"/>
<polygon fill="#63b8ff" stroke="#63b8ff" points="214.41,-368.07 205.62,-373.98 216.18,-374.84 214.41,-368.07"/>
</a>
</g>
</g>
<!-- Node12 -->
<g id="Node000012" class="node">
<title>Node12</title>
<g id="a_Node000012"><a xlink:href="util_2event.html" target="_top" xlink:title=" ">
<polygon fill="white" stroke="#666666" points="137,-156.5 49,-156.5 49,-137.5 137,-137.5 137,-156.5"/>
<text text-anchor="middle" x="93" y="-144.5" font-family="Helvetica,sans-Serif" font-size="10.00">l4/re/util/event</text>
</a>
</g>
</g>
<!-- Node11&#45;&gt;Node12 -->
<g id="edge13_Node000011_Node000012" class="edge">
<title>Node11&#45;&gt;Node12</title>
<g id="a_edge13_Node000011_Node000012"><a xlink:title=" ">
<path fill="none" stroke="#63b8ff" d="M69.91,-194.18C75.97,-182.05 83.75,-166.51 88.55,-156.91"/>
<polygon fill="#63b8ff" stroke="#63b8ff" points="66.66,-192.86 65.32,-203.37 72.92,-195.99 66.66,-192.86"/>
</a>
</g>
</g>
<!-- Node15 -->
<g id="Node000015" class="node">
<title>Node15</title>
<g id="a_Node000015"><a xlink:href="vbus__generic_source.html" target="_top" xlink:title=" ">
<polygon fill="white" stroke="#666666" points="562.5,-283 443.5,-283 443.5,-264 562.5,-264 562.5,-283"/>
<text text-anchor="middle" x="503" y="-271" font-family="Helvetica,sans-Serif" font-size="10.00">l4/vbus/vbus_generic</text>
</a>
</g>
</g>
<!-- Node14&#45;&gt;Node15 -->
<g id="edge16_Node000014_Node000015" class="edge">
<title>Node14&#45;&gt;Node15</title>
<g id="a_edge16_Node000014_Node000015"><a xlink:title=" ">
<path fill="none" stroke="#63b8ff" d="M405.88,-315.03C429.37,-305.23 461.47,-291.83 482.22,-283.17"/>
<polygon fill="#63b8ff" stroke="#63b8ff" points="404.29,-311.9 396.4,-318.98 406.98,-318.36 404.29,-311.9"/>
</a>
</g>
</g>
<!-- Node16 -->
<g id="Node000016" class="node">
<title>Node16</title>
<g id="a_Node000016"><a xlink:href="vbus__gpio_source.html" target="_top" xlink:title=" ">
<polygon fill="white" stroke="#666666" points="309,-283 205,-283 205,-264 309,-264 309,-283"/>
<text text-anchor="middle" x="257" y="-271" font-family="Helvetica,sans-Serif" font-size="10.00">l4/vbus/vbus_gpio</text>
</a>
</g>
</g>
<!-- Node14&#45;&gt;Node16 -->
<g id="edge17_Node000014_Node000016" class="edge">
<title>Node14&#45;&gt;Node16</title>
<g id="a_edge17_Node000014_Node000016"><a xlink:title=" ">
<path fill="none" stroke="#63b8ff" d="M347.7,-314.9C325.72,-305.11 295.82,-291.79 276.47,-283.17"/>
<polygon fill="#63b8ff" stroke="#63b8ff" points="346.32,-318.11 356.88,-318.98 349.17,-311.72 346.32,-318.11"/>
</a>
</g>
</g>
<!-- Node17 -->
<g id="Node000017" class="node">
<title>Node17</title>
<g id="a_Node000017"><a xlink:href="vbus__pci_source.html" target="_top" xlink:title=" ">
<polygon fill="white" stroke="#666666" points="425,-283 327,-283 327,-264 425,-264 425,-283"/>
<text text-anchor="middle" x="376" y="-271" font-family="Helvetica,sans-Serif" font-size="10.00">l4/vbus/vbus_pci</text>
</a>
</g>
</g>
<!-- Node14&#45;&gt;Node17 -->
<g id="edge18_Node000014_Node000017" class="edge">
<title>Node14&#45;&gt;Node17</title>
<g id="a_edge18_Node000014_Node000017"><a xlink:title=" ">
<path fill="none" stroke="#63b8ff" d="M376,-308.66C376,-299.93 376,-289.99 376,-283.09"/>
<polygon fill="#63b8ff" stroke="#63b8ff" points="372.5,-308.75 376,-318.75 379.5,-308.75 372.5,-308.75"/>
</a>
</g>
</g>
<!-- Node18&#45;&gt;Node14 -->
<g id="edge47_Node000018_Node000014" class="edge">
<title>Node18&#45;&gt;Node14</title>
<g id="a_edge47_Node000018_Node000014"><a xlink:title=" ">
<path fill="none" stroke="#63b8ff" d="M680.78,-376.19C613.52,-365.88 481.08,-345.6 415.17,-335.5"/>
<polygon fill="#63b8ff" stroke="#63b8ff" points="680.58,-379.7 690.99,-377.75 681.64,-372.78 680.58,-379.7"/>
</a>
</g>
</g>
<!-- Node19 -->
<g id="Node000019" class="node">
<title>Node19</title>
<g id="a_Node000019"><a xlink:href="random.html" target="_top" xlink:title="Random number generator interface definition.">
<polygon fill="white" stroke="#666666" points="814.5,-338 735.5,-338 735.5,-319 814.5,-319 814.5,-338"/>
<text text-anchor="middle" x="775" y="-326" font-family="Helvetica,sans-Serif" font-size="10.00">l4/re/random</text>
</a>
</g>
</g>
<!-- Node18&#45;&gt;Node19 -->
<g id="edge20_Node000018_Node000019" class="edge">
<title>Node18&#45;&gt;Node19</title>
<g id="a_edge20_Node000018_Node000019"><a xlink:title=" ">
<path fill="none" stroke="#63b8ff" d="M737.98,-366.52C747.32,-357.18 758.75,-345.75 766.41,-338.09"/>
<polygon fill="#63b8ff" stroke="#63b8ff" points="735.35,-364.2 730.75,-373.75 740.3,-369.15 735.35,-364.2"/>
</a>
</g>
</g>
<!-- Node20 -->
<g id="Node000020" class="node">
<title>Node20</title>
<g id="a_Node000020"><a xlink:href="icu__svr_source.html" target="_top" xlink:title=" ">
<polygon fill="white" stroke="#666666" points="296.5,-156.5 201.5,-156.5 201.5,-137.5 296.5,-137.5 296.5,-156.5"/>
<text text-anchor="middle" x="249" y="-144.5" font-family="Helvetica,sans-Serif" font-size="10.00">l4/re/util/icu_svr</text>
</a>
</g>
</g>
<!-- Node18&#45;&gt;Node20 -->
<g id="edge21_Node000018_Node000020" class="edge">
<title>Node18&#45;&gt;Node20</title>
<g id="a_edge21_Node000018_Node000020"><a xlink:title=" ">
<path fill="none" stroke="#63b8ff" d="M681.05,-372.84C658.94,-366 632.3,-354.97 613,-338 584.6,-313.03 599.92,-288.37 571,-264 525.39,-225.57 353.3,-176.08 281.15,-156.51"/>
<polygon fill="#63b8ff" stroke="#63b8ff" points="680.27,-376.26 690.85,-375.69 682.23,-369.54 680.27,-376.26"/>
</a>
</g>
</g>
<!-- Node21 -->
<g id="Node000021" class="node">
<title>Node21</title>
<g id="a_Node000021"><a xlink:href="scheduler.html" target="_top" xlink:title="Scheduler object functions.">
<polygon fill="white" stroke="#666666" points="717.5,-338 622.5,-338 622.5,-319 717.5,-319 717.5,-338"/>
<text text-anchor="middle" x="670" y="-326" font-family="Helvetica,sans-Serif" font-size="10.00">l4/sys/scheduler</text>
</a>
</g>
</g>
<!-- Node18&#45;&gt;Node21 -->
<g id="edge23_Node000018_Node000021" class="edge">
<title>Node18&#45;&gt;Node21</title>
<g id="a_edge23_Node000018_Node000021"><a xlink:title=" ">
<path fill="none" stroke="#63b8ff" d="M706.32,-366.52C697.16,-357.18 685.95,-345.75 678.43,-338.09"/>
<polygon fill="#63b8ff" stroke="#63b8ff" points="703.91,-369.06 713.41,-373.75 708.91,-364.16 703.91,-369.06"/>
</a>
</g>
</g>
<!-- Node22 -->
<g id="Node000022" class="node">
<title>Node22</title>
<g id="a_Node000022"><a xlink:href="vcon.html" target="_top" xlink:title="C++ Virtual console interface.">
<polygon fill="white" stroke="#666666" points="904.5,-338 833.5,-338 833.5,-319 904.5,-319 904.5,-338"/>
<text text-anchor="middle" x="869" y="-326" font-family="Helvetica,sans-Serif" font-size="10.00">l4/sys/vcon</text>
</a>
</g>
</g>
<!-- Node18&#45;&gt;Node22 -->
<g id="edge24_Node000018_Node000022" class="edge">
<title>Node18&#45;&gt;Node22</title>
<g id="a_edge24_Node000018_Node000022"><a xlink:title=" ">
<path fill="none" stroke="#63b8ff" d="M755.14,-370.55C782.44,-360.71 820.5,-346.98 844.95,-338.17"/>
<polygon fill="#63b8ff" stroke="#63b8ff" points="753.84,-367.3 745.62,-373.98 756.21,-373.89 753.84,-367.3"/>
</a>
</g>
</g>
<!-- Node20&#45;&gt;Node13 -->
<g id="edge22_Node000020_Node000013" class="edge">
<title>Node20&#45;&gt;Node13</title>
<g id="a_edge22_Node000020_Node000013"><a xlink:title=" ">
<path fill="none" stroke="#63b8ff" d="M237.25,-128.91C228.84,-116.68 217.86,-100.7 211.12,-90.91"/>
<polygon fill="#63b8ff" stroke="#63b8ff" points="234.52,-131.11 243.07,-137.37 240.28,-127.15 234.52,-131.11"/>
</a>
</g>
</g>
<!-- Node23 -->
<g id="Node000023" class="node">
<title>Node23</title>
<g id="a_Node000023"><a xlink:href="vcon__stream_8h_source.html" target="_top" xlink:title=" ">
<polygon fill="white" stroke="#666666" points="1278.5,-228 1159.5,-228 1159.5,-198 1278.5,-198 1278.5,-228"/>
<text text-anchor="start" x="1167.5" y="-216" font-family="Helvetica,sans-Serif" font-size="10.00">l4/l4re_vfs/impl/vcon</text>
<text text-anchor="middle" x="1219" y="-205" font-family="Helvetica,sans-Serif" font-size="10.00">_stream.h</text>
</a>
</g>
</g>
<!-- Node22&#45;&gt;Node23 -->
<g id="edge25_Node000022_Node000023" class="edge">
<title>Node22&#45;&gt;Node23</title>
<g id="a_edge25_Node000022_Node000023"><a xlink:title=" ">
<path fill="none" stroke="#63b8ff" d="M905.08,-315.8C969.89,-294.78 1105.76,-250.72 1175.56,-228.09"/>
<polygon fill="#63b8ff" stroke="#63b8ff" points="903.74,-312.55 895.31,-318.97 905.9,-319.21 903.74,-312.55"/>
</a>
</g>
</g>
<!-- Node26 -->
<g id="Node000026" class="node">
<title>Node26</title>
<g id="a_Node000026"><a xlink:href="log.html" target="_top" xlink:title="Log interface.">
<polygon fill="white" stroke="#666666" points="800,-283 744,-283 744,-264 800,-264 800,-283"/>
<text text-anchor="middle" x="772" y="-271" font-family="Helvetica,sans-Serif" font-size="10.00">l4/re/log</text>
</a>
</g>
</g>
<!-- Node22&#45;&gt;Node26 -->
<g id="edge28_Node000022_Node000026" class="edge">
<title>Node22&#45;&gt;Node26</title>
<g id="a_edge28_Node000022_Node000026"><a xlink:title=" ">
<path fill="none" stroke="#63b8ff" d="M844.23,-313.97C826.5,-304.28 803.15,-291.52 787.87,-283.17"/>
<polygon fill="#63b8ff" stroke="#63b8ff" points="842.96,-317.26 853.42,-318.98 846.32,-311.12 842.96,-317.26"/>
</a>
</g>
</g>
<!-- Node34 -->
<g id="Node000034" class="node">
<title>Node34</title>
<g id="a_Node000034"><a xlink:href="vcon__svr_source.html" target="_top" xlink:title=" ">
<polygon fill="white" stroke="#666666" points="922,-283 818,-283 818,-264 922,-264 922,-283"/>
<text text-anchor="middle" x="870" y="-271" font-family="Helvetica,sans-Serif" font-size="10.00">l4/re/util/vcon_svr</text>
</a>
</g>
</g>
<!-- Node22&#45;&gt;Node34 -->
<g id="edge46_Node000022_Node000034" class="edge">
<title>Node22&#45;&gt;Node34</title>
<g id="a_edge46_Node000022_Node000034"><a xlink:title=" ">
<path fill="none" stroke="#63b8ff" d="M869.36,-308.66C869.52,-299.93 869.71,-289.99 869.84,-283.09"/>
<polygon fill="#63b8ff" stroke="#63b8ff" points="865.85,-308.68 869.17,-318.75 872.85,-308.82 865.85,-308.68"/>
</a>
</g>
</g>
<!-- Node24 -->
<g id="Node000024" class="node">
<title>Node24</title>
<g id="a_Node000024"><a xlink:href="vcon__stream__impl_8h_source.html" target="_top" xlink:title=" ">
<polygon fill="white" stroke="#666666" points="1214.5,-162 1095.5,-162 1095.5,-132 1214.5,-132 1214.5,-162"/>
<text text-anchor="start" x="1103.5" y="-150" font-family="Helvetica,sans-Serif" font-size="10.00">l4/l4re_vfs/impl/vcon</text>
<text text-anchor="middle" x="1155" y="-139" font-family="Helvetica,sans-Serif" font-size="10.00">_stream_impl.h</text>
</a>
</g>
</g>
<!-- Node23&#45;&gt;Node24 -->
<g id="edge26_Node000023_Node000024" class="edge">
<title>Node23&#45;&gt;Node24</title>
<g id="a_edge26_Node000023_Node000024"><a xlink:title=" ">
<path fill="none" stroke="#63b8ff" d="M1197.65,-190.65C1188.27,-181.27 1177.53,-170.53 1169.16,-162.16"/>
<polygon fill="#63b8ff" stroke="#63b8ff" points="1195.25,-193.2 1204.8,-197.8 1200.2,-188.25 1195.25,-193.2"/>
</a>
</g>
</g>
<!-- Node25 -->
<g id="Node000025" class="node">
<title>Node25</title>
<g id="a_Node000025"><a xlink:href="vfs__impl_8h_source.html" target="_top" xlink:title=" ">
<polygon fill="white" stroke="#666666" points="1343,-162 1233,-162 1233,-132 1343,-132 1343,-162"/>
<text text-anchor="start" x="1241" y="-150" font-family="Helvetica,sans-Serif" font-size="10.00">l4/l4re_vfs/impl/vfs</text>
<text text-anchor="middle" x="1288" y="-139" font-family="Helvetica,sans-Serif" font-size="10.00">_impl.h</text>
</a>
</g>
</g>
<!-- Node23&#45;&gt;Node25 -->
<g id="edge27_Node000023_Node000025" class="edge">
<title>Node23&#45;&gt;Node25</title>
<g id="a_edge27_Node000023_Node000025"><a xlink:title=" ">
<path fill="none" stroke="#63b8ff" d="M1241.72,-190.92C1251.9,-181.49 1263.63,-170.61 1272.73,-162.16"/>
<polygon fill="#63b8ff" stroke="#63b8ff" points="1239.26,-188.43 1234.31,-197.8 1244.03,-193.56 1239.26,-188.43"/>
</a>
</g>
</g>
<!-- Node27 -->
<g id="Node000027" class="node">
<title>Node27</title>
<g id="a_Node000027"><a xlink:href="env.html" target="_top" xlink:title="Environment interface.">
<polygon fill="white" stroke="#666666" points="801.5,-222.5 742.5,-222.5 742.5,-203.5 801.5,-203.5 801.5,-222.5"/>
<text text-anchor="middle" x="772" y="-210.5" font-family="Helvetica,sans-Serif" font-size="10.00">l4/re/env</text>
</a>
</g>
</g>
<!-- Node26&#45;&gt;Node27 -->
<g id="edge29_Node000026_Node000027" class="edge">
<title>Node26&#45;&gt;Node27</title>
<g id="a_edge29_Node000026_Node000027"><a xlink:title=" ">
<path fill="none" stroke="#63b8ff" d="M772,-253.66C772,-243.24 772,-230.8 772,-222.67"/>
<polygon fill="#63b8ff" stroke="#63b8ff" points="768.5,-253.87 772,-263.87 775.5,-253.87 768.5,-253.87"/>
</a>
</g>
</g>
<!-- Node27&#45;&gt;Node4 -->
<g id="edge33_Node000027_Node000004" class="edge">
<title>Node27&#45;&gt;Node4</title>
<g id="a_edge33_Node000027_Node000004"><a xlink:title=" ">
<path fill="none" stroke="#63b8ff" d="M811.6,-210.67C866.79,-207.54 968.96,-197.06 1048,-162 1067.99,-153.13 1068.2,-143.17 1087,-132 1110.98,-117.75 1139.74,-105.08 1162.25,-96.06"/>
<polygon fill="#63b8ff" stroke="#63b8ff" points="811.34,-207.18 801.53,-211.19 811.7,-214.17 811.34,-207.18"/>
</a>
</g>
</g>
<!-- Node27&#45;&gt;Node5 -->
<g id="edge34_Node000027_Node000005" class="edge">
<title>Node27&#45;&gt;Node5</title>
<g id="a_edge34_Node000027_Node000005"><a xlink:title=" ">
<path fill="none" stroke="#63b8ff" d="M787.15,-195.81C804.24,-178.26 833.53,-150.33 863,-132 939.86,-84.2 1039.85,-48.39 1097.49,-29.95"/>
<polygon fill="#63b8ff" stroke="#63b8ff" points="784.17,-193.85 779.79,-203.5 789.23,-198.69 784.17,-193.85"/>
</a>
</g>
</g>
<!-- Node27&#45;&gt;Node6 -->
<g id="edge35_Node000027_Node000006" class="edge">
<title>Node27&#45;&gt;Node6</title>
<g id="a_edge35_Node000027_Node000006"><a xlink:title=" ">
<path fill="none" stroke="#63b8ff" d="M797.27,-198.55C814.72,-188.96 838.24,-175.44 858,-162 875.79,-149.9 877.02,-142.13 896,-132 951.25,-102.5 1124.31,-52.34 1208.32,-28.85"/>
<polygon fill="#63b8ff" stroke="#63b8ff" points="795.38,-195.59 788.26,-203.44 798.72,-201.74 795.38,-195.59"/>
</a>
</g>
</g>
<!-- Node27&#45;&gt;Node7 -->
<g id="edge36_Node000027_Node000007" class="edge">
<title>Node27&#45;&gt;Node7</title>
<g id="a_edge36_Node000027_Node000007"><a xlink:title=" ">
<path fill="none" stroke="#63b8ff" d="M732.39,-207.36C681.78,-200.52 598.48,-185.9 580,-162 560.36,-136.59 598.29,-111.2 628.62,-96.05"/>
<polygon fill="#63b8ff" stroke="#63b8ff" points="731.99,-210.84 742.36,-208.66 732.9,-203.9 731.99,-210.84"/>
</a>
</g>
</g>
<!-- Node27&#45;&gt;Node12 -->
<g id="edge39_Node000027_Node000012" class="edge">
<title>Node27&#45;&gt;Node12</title>
<g id="a_edge39_Node000027_Node000012"><a xlink:title=" ">
<path fill="none" stroke="#63b8ff" d="M732.16,-209.32C638.03,-202.81 394.57,-185.04 192,-162 174.06,-159.96 154.36,-157.27 137.29,-154.79"/>
<polygon fill="#63b8ff" stroke="#63b8ff" points="732.15,-212.82 742.37,-210.02 732.63,-205.84 732.15,-212.82"/>
</a>
</g>
</g>
<!-- Node27&#45;&gt;Node20 -->
<g id="edge40_Node000027_Node000020" class="edge">
<title>Node27&#45;&gt;Node20</title>
<g id="a_edge40_Node000027_Node000020"><a xlink:title=" ">
<path fill="none" stroke="#63b8ff" d="M732.25,-208.46C634.97,-199.68 386.91,-176.55 305,-162 296.81,-160.55 288.04,-158.56 279.94,-156.55"/>
<polygon fill="#63b8ff" stroke="#63b8ff" points="732,-211.95 742.27,-209.36 732.62,-204.98 732,-211.95"/>
</a>
</g>
</g>
<!-- Node27&#45;&gt;Node24 -->
<g id="edge31_Node000027_Node000024" class="edge">
<title>Node27&#45;&gt;Node24</title>
<g id="a_edge31_Node000027_Node000024"><a xlink:title=" ">
<path fill="none" stroke="#63b8ff" d="M811.88,-205.89C870.8,-196.79 984.56,-178.92 1081,-162 1085.64,-161.19 1090.43,-160.32 1095.25,-159.44"/>
<polygon fill="#63b8ff" stroke="#63b8ff" points="811.22,-202.45 801.87,-207.44 812.29,-209.37 811.22,-202.45"/>
</a>
</g>
</g>
<!-- Node27&#45;&gt;Node25 -->
<g id="edge32_Node000027_Node000025" class="edge">
<title>Node27&#45;&gt;Node25</title>
<g id="a_edge32_Node000027_Node000025"><a xlink:title=" ">
<path fill="none" stroke="#63b8ff" d="M811.76,-209.02C890.7,-202.78 1072.64,-186.86 1224,-162 1226.92,-161.52 1229.9,-160.99 1232.91,-160.44"/>
<polygon fill="#63b8ff" stroke="#63b8ff" points="811.46,-205.53 801.76,-209.8 812.01,-212.51 811.46,-205.53"/>
</a>
</g>
</g>
<!-- Node28 -->
<g id="Node000028" class="node">
<title>Node28</title>
<g id="a_Node000028"><a xlink:href="ro__file__impl_8h_source.html" target="_top" xlink:title=" ">
<polygon fill="white" stroke="#666666" points="532.5,-162 427.5,-162 427.5,-132 532.5,-132 532.5,-162"/>
<text text-anchor="start" x="435.5" y="-150" font-family="Helvetica,sans-Serif" font-size="10.00">l4/l4re_vfs/impl/ro</text>
<text text-anchor="middle" x="480" y="-139" font-family="Helvetica,sans-Serif" font-size="10.00">_file_impl.h</text>
</a>
</g>
</g>
<!-- Node27&#45;&gt;Node28 -->
<g id="edge30_Node000027_Node000028" class="edge">
<title>Node27&#45;&gt;Node28</title>
<g id="a_edge30_Node000027_Node000028"><a xlink:title=" ">
<path fill="none" stroke="#63b8ff" d="M732.6,-203.36C680.9,-192.03 590.02,-172.11 532.52,-159.51"/>
<polygon fill="#63b8ff" stroke="#63b8ff" points="731.88,-206.79 742.39,-205.51 733.38,-199.95 731.88,-206.79"/>
</a>
</g>
</g>
<!-- Node29 -->
<g id="Node000029" class="node">
<title>Node29</title>
<g id="a_Node000029"><a xlink:href="env__ns_source.html" target="_top" xlink:title=" ">
<polygon fill="white" stroke="#666666" points="409.5,-156.5 314.5,-156.5 314.5,-137.5 409.5,-137.5 409.5,-156.5"/>
<text text-anchor="middle" x="362" y="-144.5" font-family="Helvetica,sans-Serif" font-size="10.00">l4/re/util/env_ns</text>
</a>
</g>
</g>
<!-- Node27&#45;&gt;Node29 -->
<g id="edge37_Node000027_Node000029" class="edge">
<title>Node27&#45;&gt;Node29</title>
<g id="a_edge37_Node000027_Node000029"><a xlink:title=" ">
<path fill="none" stroke="#63b8ff" d="M732.13,-207.75C666.35,-200.42 531.11,-184.06 418,-162 410.03,-160.45 401.5,-158.47 393.56,-156.5"/>
<polygon fill="#63b8ff" stroke="#63b8ff" points="732.13,-211.27 742.45,-208.89 732.9,-204.31 732.13,-211.27"/>
</a>
</g>
</g>
<!-- Node31 -->
<g id="Node000031" class="node">
<title>Node31</title>
<g id="a_Node000031"><a xlink:href="kumem__alloc.html" target="_top" xlink:title="Kumem allocator helper.">
<polygon fill="white" stroke="#666666" points="714.5,-156.5 589.5,-156.5 589.5,-137.5 714.5,-137.5 714.5,-156.5"/>
<text text-anchor="middle" x="652" y="-144.5" font-family="Helvetica,sans-Serif" font-size="10.00">l4/re/util/kumem_alloc</text>
</a>
</g>
</g>
<!-- Node27&#45;&gt;Node31 -->
<g id="edge41_Node000027_Node000031" class="edge">
<title>Node27&#45;&gt;Node31</title>
<g id="a_edge41_Node000027_Node000031"><a xlink:title=" ">
<path fill="none" stroke="#63b8ff" d="M746.74,-198.53C723.1,-185.92 688.5,-167.47 668.31,-156.7"/>
<polygon fill="#63b8ff" stroke="#63b8ff" points="745.35,-201.75 755.82,-203.37 748.64,-195.57 745.35,-201.75"/>
</a>
</g>
</g>
<!-- Node32 -->
<g id="Node000032" class="node">
<title>Node32</title>
<g id="a_Node000032"><a xlink:href="object__registry_source.html" target="_top" xlink:title=" ">
<polygon fill="white" stroke="#666666" points="1038.5,-156.5 905.5,-156.5 905.5,-137.5 1038.5,-137.5 1038.5,-156.5"/>
<text text-anchor="middle" x="972" y="-144.5" font-family="Helvetica,sans-Serif" font-size="10.00">l4/re/util/object_registry</text>
</a>
</g>
</g>
<!-- Node27&#45;&gt;Node32 -->
<g id="edge42_Node000027_Node000032" class="edge">
<title>Node27&#45;&gt;Node32</title>
<g id="a_edge42_Node000027_Node000032"><a xlink:title=" ">
<path fill="none" stroke="#63b8ff" d="M808.74,-200.24C848.21,-187.61 909.98,-167.85 945.14,-156.6"/>
<polygon fill="#63b8ff" stroke="#63b8ff" points="807.43,-196.99 798.97,-203.37 809.56,-203.65 807.43,-196.99"/>
</a>
</g>
</g>
<!-- Node33 -->
<g id="Node000033" class="node">
<title>Node33</title>
<g id="a_Node000033"><a xlink:href="vcpu.html" target="_top" xlink:title="vCPU support library (C++ interface).">
<polygon fill="white" stroke="#666666" points="811,-156.5 733,-156.5 733,-137.5 811,-137.5 811,-156.5"/>
<text text-anchor="middle" x="772" y="-144.5" font-family="Helvetica,sans-Serif" font-size="10.00">l4/vcpu/vcpu</text>
</a>
</g>
</g>
<!-- Node27&#45;&gt;Node33 -->
<g id="edge45_Node000027_Node000033" class="edge">
<title>Node27&#45;&gt;Node33</title>
<g id="a_edge45_Node000027_Node000033"><a xlink:title=" ">
<path fill="none" stroke="#63b8ff" d="M772,-193.08C772,-181.13 772,-166.22 772,-156.91"/>
<polygon fill="#63b8ff" stroke="#63b8ff" points="768.5,-193.37 772,-203.37 775.5,-193.37 768.5,-193.37"/>
</a>
</g>
</g>
<!-- Node30 -->
<g id="Node000030" class="node">
<title>Node30</title>
<g id="a_Node000030"><a xlink:href="ns__fs__impl_8h_source.html" target="_top" xlink:title=" ">
<polygon fill="white" stroke="#666666" points="415.5,-96 308.5,-96 308.5,-66 415.5,-66 415.5,-96"/>
<text text-anchor="start" x="316.5" y="-84" font-family="Helvetica,sans-Serif" font-size="10.00">l4/l4re_vfs/impl/ns</text>
<text text-anchor="middle" x="362" y="-73" font-family="Helvetica,sans-Serif" font-size="10.00">_fs_impl.h</text>
</a>
</g>
</g>
<!-- Node29&#45;&gt;Node30 -->
<g id="edge38_Node000029_Node000030" class="edge">
<title>Node29&#45;&gt;Node30</title>
<g id="a_edge38_Node000029_Node000030"><a xlink:title=" ">
<path fill="none" stroke="#63b8ff" d="M362,-127.35C362,-117.47 362,-105.51 362,-96.36"/>
<polygon fill="#63b8ff" stroke="#63b8ff" points="358.5,-127.37 362,-137.37 365.5,-127.37 358.5,-127.37"/>
</a>
</g>
</g>
<!-- Node32&#45;&gt;Node4 -->
<g id="edge43_Node000032_Node000004" class="edge">
<title>Node32&#45;&gt;Node4</title>
<g id="a_edge43_Node000032_Node000004"><a xlink:title=" ">
<path fill="none" stroke="#63b8ff" d="M1012.55,-134.62C1051.95,-123.56 1111.74,-106.78 1153.15,-95.15"/>
<polygon fill="#63b8ff" stroke="#63b8ff" points="1011.43,-131.3 1002.75,-137.37 1013.32,-138.04 1011.43,-131.3"/>
</a>
</g>
</g>
<!-- Node32&#45;&gt;Node5 -->
<g id="edge44_Node000032_Node000005" class="edge">
<title>Node32&#45;&gt;Node5</title>
<g id="a_edge44_Node000032_Node000005"><a xlink:title=" ">
<path fill="none" stroke="#63b8ff" d="M991.35,-131.38C1024.69,-106.17 1092.56,-54.88 1125.39,-30.07"/>
<polygon fill="#63b8ff" stroke="#63b8ff" points="989.15,-128.65 983.29,-137.47 993.37,-134.23 989.15,-128.65"/>
</a>
</g>
</g>
<!-- Node35&#45;&gt;Node4 -->
<g id="edge50_Node000035_Node000004" class="edge">
<title>Node35&#45;&gt;Node4</title>
<g id="a_edge50_Node000035_Node000004"><a xlink:title=" ">
<path fill="none" stroke="#63b8ff" d="M1372.55,-253.53C1376.92,-224.02 1380.6,-166.89 1352,-132 1326.46,-100.85 1281.09,-88.95 1246.54,-84.48"/>
<polygon fill="#63b8ff" stroke="#63b8ff" points="1369.05,-253.26 1370.85,-263.7 1375.95,-254.42 1369.05,-253.26"/>
</a>
</g>
</g>
<!-- Node35&#45;&gt;Node5 -->
<g id="edge51_Node000035_Node000005" class="edge">
<title>Node35&#45;&gt;Node5</title>
<g id="a_edge51_Node000035_Node000005"><a xlink:title=" ">
<path fill="none" stroke="#63b8ff" d="M1379.07,-254.71C1383,-246.8 1387.03,-237.2 1389,-228 1398.07,-185.71 1399.09,-166.5 1373,-132 1348.07,-99.03 1239.03,-52.93 1180.86,-30.05"/>
<polygon fill="#63b8ff" stroke="#63b8ff" points="1375.91,-253.21 1374.32,-263.68 1382.09,-256.49 1375.91,-253.21"/>
</a>
</g>
</g>
<!-- Node35&#45;&gt;Node23 -->
<g id="edge49_Node000035_Node000023" class="edge">
<title>Node35&#45;&gt;Node23</title>
<g id="a_edge49_Node000035_Node000023"><a xlink:title=" ">
<path fill="none" stroke="#63b8ff" d="M1337.8,-260.33C1313.7,-250.93 1280.31,-237.91 1255.06,-228.06"/>
<polygon fill="#63b8ff" stroke="#63b8ff" points="1336.6,-263.62 1347.19,-263.99 1339.14,-257.1 1336.6,-263.62"/>
</a>
</g>
</g>
<!-- Node36&#45;&gt;Node35 -->
<g id="edge53_Node000036_Node000035" class="edge">
<title>Node36&#45;&gt;Node35</title>
<g id="a_edge53_Node000036_Node000035"><a xlink:title=" ">
<path fill="none" stroke="#63b8ff" d="M1468.2,-420.18C1444.67,-385.62 1392.65,-309.23 1375,-283.31"/>
<polygon fill="#63b8ff" stroke="#63b8ff" points="1465.51,-422.44 1474.03,-428.74 1471.3,-418.5 1465.51,-422.44"/>
</a>
</g>
</g>
</g>
</svg>
