<?xml version="1.0" encoding="UTF-8" standalone="no"?>
<!DOCTYPE svg PUBLIC "-//W3C//DTD SVG 1.1//EN"
 "http://www.w3.org/Graphics/SVG/1.1/DTD/svg11.dtd">
<!-- Generated by graphviz version 2.42.4 (0)
 -->
<!-- Title: l4/sys/irq.h Pages: 1 -->
<svg width="1862pt" height="511pt"
 viewBox="0.00 0.00 1862.00 511.00" xmlns="http://www.w3.org/2000/svg" xmlns:xlink="http://www.w3.org/1999/xlink">
<g id="graph0" class="graph" transform="scale(1 1) rotate(0) translate(4 507)">
<title>l4/sys/irq.h</title>
<!-- Node1 -->
<g id="Node000001" class="node">
<title>Node1</title>
<g id="a_Node000001"><a xlink:title="C Irq interface.">
<polygon fill="#999999" stroke="#666666" points="1372,-503 1302,-503 1302,-484 1372,-484 1372,-503"/>
<text text-anchor="middle" x="1337" y="-491" font-family="Helvetica,sans-Serif" font-size="10.00">l4/sys/irq.h</text>
</a>
</g>
</g>
<!-- Node2 -->
<g id="Node000002" class="node">
<title>Node2</title>
<g id="a_Node000002"><a xlink:href="irq.html" target="_top" xlink:title="C++ Irq interface.">
<polygon fill="white" stroke="#666666" points="1315.5,-448 1254.5,-448 1254.5,-429 1315.5,-429 1315.5,-448"/>
<text text-anchor="middle" x="1285" y="-436" font-family="Helvetica,sans-Serif" font-size="10.00">l4/sys/irq</text>
</a>
</g>
</g>
<!-- Node1&#45;&gt;Node2 -->
<g id="edge1_Node000001_Node000002" class="edge">
<title>Node1&#45;&gt;Node2</title>
<g id="a_edge1_Node000001_Node000002"><a xlink:title=" ">
<path fill="none" stroke="#63b8ff" d="M1321.32,-476.52C1312.16,-467.18 1300.95,-455.75 1293.43,-448.09"/>
<polygon fill="#63b8ff" stroke="#63b8ff" points="1318.91,-479.06 1328.41,-483.75 1323.91,-474.16 1318.91,-479.06"/>
</a>
</g>
</g>
<!-- Node40 -->
<g id="Node000040" class="node">
<title>Node40</title>
<g id="a_Node000040"><a xlink:href="semaphore_8h.html" target="_top" xlink:title="C semaphore interface.">
<polygon fill="white" stroke="#666666" points="1452,-448 1340,-448 1340,-429 1452,-429 1452,-448"/>
<text text-anchor="middle" x="1396" y="-436" font-family="Helvetica,sans-Serif" font-size="10.00">l4/sys/semaphore.h</text>
</a>
</g>
</g>
<!-- Node1&#45;&gt;Node40 -->
<g id="edge61_Node000001_Node000040" class="edge">
<title>Node1&#45;&gt;Node40</title>
<g id="a_edge61_Node000001_Node000040"><a xlink:title=" ">
<path fill="none" stroke="#63b8ff" d="M1354.2,-477.04C1364.67,-467.64 1377.65,-455.98 1386.35,-448.17"/>
<polygon fill="#63b8ff" stroke="#63b8ff" points="1351.58,-474.7 1346.48,-483.98 1356.26,-479.91 1351.58,-474.7"/>
</a>
</g>
</g>
<!-- Node3 -->
<g id="Node000003" class="node">
<title>Node3</title>
<g id="a_Node000003"><a xlink:href="l4virtio_source.html" target="_top" xlink:title=" ">
<polygon fill="white" stroke="#666666" points="1613.5,-222.5 1512.5,-222.5 1512.5,-203.5 1613.5,-203.5 1613.5,-222.5"/>
<text text-anchor="middle" x="1563" y="-210.5" font-family="Helvetica,sans-Serif" font-size="10.00">l4/l4virtio/l4virtio</text>
</a>
</g>
</g>
<!-- Node2&#45;&gt;Node3 -->
<g id="edge2_Node000002_Node000003" class="edge">
<title>Node2&#45;&gt;Node3</title>
<g id="a_edge2_Node000002_Node000003"><a xlink:title=" ">
<path fill="none" stroke="#63b8ff" d="M1303.92,-422.29C1357.69,-379.06 1510.18,-256.46 1552.18,-222.7"/>
<polygon fill="#63b8ff" stroke="#63b8ff" points="1301.5,-419.74 1295.9,-428.74 1305.88,-425.2 1301.5,-419.74"/>
</a>
</g>
</g>
<!-- Node12 -->
<g id="Node000012" class="node">
<title>Node12</title>
<g id="a_Node000012"><a xlink:href="event_source.html" target="_top" xlink:title=" ">
<polygon fill="white" stroke="#666666" points="207.5,-393 138.5,-393 138.5,-374 207.5,-374 207.5,-393"/>
<text text-anchor="middle" x="173" y="-381" font-family="Helvetica,sans-Serif" font-size="10.00">l4/re/event</text>
</a>
</g>
</g>
<!-- Node2&#45;&gt;Node12 -->
<g id="edge15_Node000002_Node000012" class="edge">
<title>Node2&#45;&gt;Node12</title>
<g id="a_edge15_Node000002_Node000012"><a xlink:title=" ">
<path fill="none" stroke="#63b8ff" d="M1244.23,-435.56C1067.77,-427.15 371.24,-393.95 207.56,-386.15"/>
<polygon fill="#63b8ff" stroke="#63b8ff" points="1244.23,-439.06 1254.39,-436.04 1244.57,-432.07 1244.23,-439.06"/>
</a>
</g>
</g>
<!-- Node21 -->
<g id="Node000021" class="node">
<title>Node21</title>
<g id="a_Node000021"><a xlink:href="icu.html" target="_top" xlink:title="Interrupt controller.">
<polygon fill="white" stroke="#666666" points="774,-393 712,-393 712,-374 774,-374 774,-393"/>
<text text-anchor="middle" x="743" y="-381" font-family="Helvetica,sans-Serif" font-size="10.00">l4/sys/icu</text>
</a>
</g>
</g>
<!-- Node2&#45;&gt;Node21 -->
<g id="edge24_Node000002_Node000021" class="edge">
<title>Node2&#45;&gt;Node21</title>
<g id="a_edge24_Node000002_Node000021"><a xlink:title=" ">
<path fill="none" stroke="#63b8ff" d="M1244.2,-433.51C1140.12,-423.33 866.48,-396.57 774.03,-387.53"/>
<polygon fill="#63b8ff" stroke="#63b8ff" points="1244.01,-437.01 1254.31,-434.5 1244.69,-430.04 1244.01,-437.01"/>
</a>
</g>
</g>
<!-- Node39 -->
<g id="Node000039" class="node">
<title>Node39</title>
<g id="a_Node000039"><a xlink:href="semaphore.html" target="_top" xlink:title="Semaphore class definition.">
<polygon fill="white" stroke="#666666" points="1336.5,-283 1233.5,-283 1233.5,-264 1336.5,-264 1336.5,-283"/>
<text text-anchor="middle" x="1285" y="-271" font-family="Helvetica,sans-Serif" font-size="10.00">l4/sys/semaphore</text>
</a>
</g>
</g>
<!-- Node2&#45;&gt;Node39 -->
<g id="edge57_Node000002_Node000039" class="edge">
<title>Node2&#45;&gt;Node39</title>
<g id="a_edge57_Node000002_Node000039"><a xlink:title=" ">
<path fill="none" stroke="#63b8ff" d="M1285,-418.37C1285,-383.03 1285,-308.79 1285,-283.31"/>
<polygon fill="#63b8ff" stroke="#63b8ff" points="1281.5,-418.74 1285,-428.74 1288.5,-418.74 1281.5,-418.74"/>
</a>
</g>
</g>
<!-- Node4 -->
<g id="Node000004" class="node">
<title>Node4</title>
<g id="a_Node000004"><a xlink:href="client_2l4virtio_source.html" target="_top" xlink:title=" ">
<polygon fill="white" stroke="#666666" points="1254.5,-96 1161.5,-96 1161.5,-66 1254.5,-66 1254.5,-96"/>
<text text-anchor="start" x="1169.5" y="-84" font-family="Helvetica,sans-Serif" font-size="10.00">l4/l4virtio/client</text>
<text text-anchor="middle" x="1208" y="-73" font-family="Helvetica,sans-Serif" font-size="10.00">/l4virtio</text>
</a>
</g>
</g>
<!-- Node3&#45;&gt;Node4 -->
<g id="edge3_Node000003_Node000004" class="edge">
<title>Node3&#45;&gt;Node4</title>
<g id="a_edge3_Node000003_Node000004"><a xlink:title=" ">
<path fill="none" stroke="#63b8ff" d="M1536.06,-198.85C1516.79,-189.2 1490.41,-175.48 1468,-162 1447.72,-149.8 1445.68,-141.5 1424,-132 1368.47,-107.67 1299.51,-94.35 1254.66,-87.71"/>
<polygon fill="#63b8ff" stroke="#63b8ff" points="1534.65,-202.06 1545.16,-203.37 1537.76,-195.79 1534.65,-202.06"/>
</a>
</g>
</g>
<!-- Node5 -->
<g id="Node000005" class="node">
<title>Node5</title>
<g id="a_Node000005"><a xlink:href="client_2virtio-block_source.html" target="_top" xlink:title=" ">
<polygon fill="white" stroke="#666666" points="1141.5,-30 1048.5,-30 1048.5,0 1141.5,0 1141.5,-30"/>
<text text-anchor="start" x="1056.5" y="-18" font-family="Helvetica,sans-Serif" font-size="10.00">l4/l4virtio/client</text>
<text text-anchor="middle" x="1095" y="-7" font-family="Helvetica,sans-Serif" font-size="10.00">/virtio&#45;block</text>
</a>
</g>
</g>
<!-- Node3&#45;&gt;Node5 -->
<g id="edge6_Node000003_Node000005" class="edge">
<title>Node3&#45;&gt;Node5</title>
<g id="a_edge6_Node000003_Node000005"><a xlink:title=" ">
<path fill="none" stroke="#63b8ff" d="M1576.6,-195.38C1599.27,-165.61 1639.06,-102.88 1605,-66 1570.82,-28.99 1202.75,-37.94 1153,-30 1149.32,-29.41 1145.52,-28.71 1141.72,-27.95"/>
<polygon fill="#63b8ff" stroke="#63b8ff" points="1573.65,-193.47 1570.22,-203.49 1579.15,-197.8 1573.65,-193.47"/>
</a>
</g>
</g>
<!-- Node6 -->
<g id="Node000006" class="node">
<title>Node6</title>
<g id="a_Node000006"><a xlink:href="virtio-net_source.html" target="_top" xlink:title=" ">
<polygon fill="white" stroke="#666666" points="1254.5,-30 1161.5,-30 1161.5,0 1254.5,0 1254.5,-30"/>
<text text-anchor="start" x="1169.5" y="-18" font-family="Helvetica,sans-Serif" font-size="10.00">l4/l4virtio/client</text>
<text text-anchor="middle" x="1208" y="-7" font-family="Helvetica,sans-Serif" font-size="10.00">/virtio&#45;net</text>
</a>
</g>
</g>
<!-- Node3&#45;&gt;Node6 -->
<g id="edge7_Node000003_Node000006" class="edge">
<title>Node3&#45;&gt;Node6</title>
<g id="a_edge7_Node000003_Node000006"><a xlink:title=" ">
<path fill="none" stroke="#63b8ff" d="M1605.01,-199.77C1623.45,-192.09 1643.29,-180.1 1654,-162 1675.72,-125.28 1682.44,-97.81 1654,-66 1627.71,-36.6 1363.95,-22.42 1254.85,-17.79"/>
<polygon fill="#63b8ff" stroke="#63b8ff" points="1603.63,-196.55 1595.56,-203.41 1606.15,-203.09 1603.63,-196.55"/>
</a>
</g>
</g>
<!-- Node7 -->
<g id="Node000007" class="node">
<title>Node7</title>
<g id="a_Node000007"><a xlink:href="server_2l4virtio_source.html" target="_top" xlink:title=" ">
<polygon fill="white" stroke="#666666" points="1573.5,-162 1476.5,-162 1476.5,-132 1573.5,-132 1573.5,-162"/>
<text text-anchor="start" x="1484.5" y="-150" font-family="Helvetica,sans-Serif" font-size="10.00">l4/l4virtio/server</text>
<text text-anchor="middle" x="1525" y="-139" font-family="Helvetica,sans-Serif" font-size="10.00">/l4virtio</text>
</a>
</g>
</g>
<!-- Node3&#45;&gt;Node7 -->
<g id="edge8_Node000003_Node000007" class="edge">
<title>Node3&#45;&gt;Node7</title>
<g id="a_edge8_Node000003_Node000007"><a xlink:title=" ">
<path fill="none" stroke="#63b8ff" d="M1552.68,-194.61C1546.67,-184.5 1539.19,-171.91 1533.53,-162.36"/>
<polygon fill="#63b8ff" stroke="#63b8ff" points="1549.76,-196.56 1557.88,-203.37 1555.78,-192.98 1549.76,-196.56"/>
</a>
</g>
</g>
<!-- Node11 -->
<g id="Node000011" class="node">
<title>Node11</title>
<g id="a_Node000011"><a xlink:href="virtio-scmi-device_source.html" target="_top" xlink:title=" ">
<polygon fill="white" stroke="#666666" points="1596,-96 1488,-96 1488,-66 1596,-66 1596,-96"/>
<text text-anchor="start" x="1496" y="-84" font-family="Helvetica,sans-Serif" font-size="10.00">l4/l4virtio/server</text>
<text text-anchor="middle" x="1542" y="-73" font-family="Helvetica,sans-Serif" font-size="10.00">/virtio&#45;scmi&#45;device</text>
</a>
</g>
</g>
<!-- Node3&#45;&gt;Node11 -->
<g id="edge14_Node000003_Node000011" class="edge">
<title>Node3&#45;&gt;Node11</title>
<g id="a_edge14_Node000003_Node000011"><a xlink:title=" ">
<path fill="none" stroke="#63b8ff" d="M1573.26,-194.44C1581.48,-178.04 1590.5,-152.99 1583,-132 1578.01,-118.05 1567.27,-105.19 1558.03,-96.01"/>
<polygon fill="#63b8ff" stroke="#63b8ff" points="1570.08,-192.97 1568.4,-203.43 1576.24,-196.3 1570.08,-192.97"/>
</a>
</g>
</g>
<!-- Node4&#45;&gt;Node5 -->
<g id="edge4_Node000004_Node000005" class="edge">
<title>Node4&#45;&gt;Node5</title>
<g id="a_edge4_Node000004_Node000005"><a xlink:title=" ">
<path fill="none" stroke="#63b8ff" d="M1174.4,-60.97C1156.86,-51.03 1135.77,-39.09 1119.74,-30.01"/>
<polygon fill="#63b8ff" stroke="#63b8ff" points="1172.78,-64.07 1183.2,-65.95 1176.23,-57.98 1172.78,-64.07"/>
</a>
</g>
</g>
<!-- Node4&#45;&gt;Node6 -->
<g id="edge5_Node000004_Node000006" class="edge">
<title>Node4&#45;&gt;Node6</title>
<g id="a_edge5_Node000004_Node000006"><a xlink:title=" ">
<path fill="none" stroke="#63b8ff" d="M1208,-55.54C1208,-46.96 1208,-37.61 1208,-30.16"/>
<polygon fill="#63b8ff" stroke="#63b8ff" points="1204.5,-55.8 1208,-65.8 1211.5,-55.8 1204.5,-55.8"/>
</a>
</g>
</g>
<!-- Node8 -->
<g id="Node000008" class="node">
<title>Node8</title>
<g id="a_Node000008"><a xlink:href="server_2virtio-block_source.html" target="_top" xlink:title=" ">
<polygon fill="white" stroke="#666666" points="1469.5,-96 1372.5,-96 1372.5,-66 1469.5,-66 1469.5,-96"/>
<text text-anchor="start" x="1380.5" y="-84" font-family="Helvetica,sans-Serif" font-size="10.00">l4/l4virtio/server</text>
<text text-anchor="middle" x="1421" y="-73" font-family="Helvetica,sans-Serif" font-size="10.00">/virtio&#45;block</text>
</a>
</g>
</g>
<!-- Node7&#45;&gt;Node8 -->
<g id="edge9_Node000007_Node000008" class="edge">
<title>Node7&#45;&gt;Node8</title>
<g id="a_edge9_Node000007_Node000008"><a xlink:title=" ">
<path fill="none" stroke="#63b8ff" d="M1493.63,-126.69C1477.57,-116.82 1458.39,-105.01 1443.77,-96.01"/>
<polygon fill="#63b8ff" stroke="#63b8ff" points="1491.83,-129.69 1502.18,-131.95 1495.49,-123.73 1491.83,-129.69"/>
</a>
</g>
</g>
<!-- Node9 -->
<g id="Node000009" class="node">
<title>Node9</title>
<g id="a_Node000009"><a xlink:href="virtio-console_source.html" target="_top" xlink:title=" ">
<polygon fill="white" stroke="#666666" points="1803.5,-96 1706.5,-96 1706.5,-66 1803.5,-66 1803.5,-96"/>
<text text-anchor="start" x="1714.5" y="-84" font-family="Helvetica,sans-Serif" font-size="10.00">l4/l4virtio/server</text>
<text text-anchor="middle" x="1755" y="-73" font-family="Helvetica,sans-Serif" font-size="10.00">/virtio&#45;console</text>
</a>
</g>
</g>
<!-- Node7&#45;&gt;Node9 -->
<g id="edge10_Node000007_Node000009" class="edge">
<title>Node7&#45;&gt;Node9</title>
<g id="a_edge10_Node000007_Node000009"><a xlink:title=" ">
<path fill="none" stroke="#63b8ff" d="M1583.68,-129.67C1621.64,-119.11 1670.48,-105.52 1706.29,-95.55"/>
<polygon fill="#63b8ff" stroke="#63b8ff" points="1582.47,-126.37 1573.78,-132.43 1584.35,-133.12 1582.47,-126.37"/>
</a>
</g>
</g>
<!-- Node10 -->
<g id="Node000010" class="node">
<title>Node10</title>
<g id="a_Node000010"><a xlink:href="virtio-console-device_source.html" target="_top" xlink:title=" ">
<polygon fill="white" stroke="#666666" points="1854,-30 1732,-30 1732,0 1854,0 1854,-30"/>
<text text-anchor="start" x="1740" y="-18" font-family="Helvetica,sans-Serif" font-size="10.00">l4/l4virtio/server</text>
<text text-anchor="middle" x="1793" y="-7" font-family="Helvetica,sans-Serif" font-size="10.00">/virtio&#45;console&#45;device</text>
</a>
</g>
</g>
<!-- Node7&#45;&gt;Node10 -->
<g id="edge12_Node000007_Node000010" class="edge">
<title>Node7&#45;&gt;Node10</title>
<g id="a_edge12_Node000007_Node000010"><a xlink:title=" ">
<path fill="none" stroke="#63b8ff" d="M1584.02,-144.39C1659.62,-140.93 1784.33,-130.07 1813,-96 1828.85,-77.16 1814.38,-47.52 1803.17,-30.1"/>
<polygon fill="#63b8ff" stroke="#63b8ff" points="1583.54,-140.9 1573.7,-144.83 1583.84,-147.9 1583.54,-140.9"/>
</a>
</g>
</g>
<!-- Node7&#45;&gt;Node11 -->
<g id="edge13_Node000007_Node000011" class="edge">
<title>Node7&#45;&gt;Node11</title>
<g id="a_edge13_Node000007_Node000011"><a xlink:title=" ">
<path fill="none" stroke="#63b8ff" d="M1531.35,-122.11C1533.67,-113.38 1536.21,-103.78 1538.24,-96.16"/>
<polygon fill="#63b8ff" stroke="#63b8ff" points="1527.96,-121.23 1528.77,-131.8 1534.72,-123.03 1527.96,-121.23"/>
</a>
</g>
</g>
<!-- Node9&#45;&gt;Node10 -->
<g id="edge11_Node000009_Node000010" class="edge">
<title>Node9&#45;&gt;Node10</title>
<g id="a_edge11_Node000009_Node000010"><a xlink:title=" ">
<path fill="none" stroke="#63b8ff" d="M1768.68,-56.96C1774,-48 1779.92,-38.03 1784.59,-30.16"/>
<polygon fill="#63b8ff" stroke="#63b8ff" points="1765.53,-55.41 1763.43,-65.8 1771.55,-58.98 1765.53,-55.41"/>
</a>
</g>
</g>
<!-- Node13 -->
<g id="Node000013" class="node">
<title>Node13</title>
<g id="a_Node000013"><a xlink:href="console_source.html" target="_top" xlink:title=" ">
<polygon fill="white" stroke="#666666" points="144.5,-338 65.5,-338 65.5,-319 144.5,-319 144.5,-338"/>
<text text-anchor="middle" x="105" y="-326" font-family="Helvetica,sans-Serif" font-size="10.00">l4/re/console</text>
</a>
</g>
</g>
<!-- Node12&#45;&gt;Node13 -->
<g id="edge16_Node000012_Node000013" class="edge">
<title>Node12&#45;&gt;Node13</title>
<g id="a_edge16_Node000012_Node000013"><a xlink:title=" ">
<path fill="none" stroke="#63b8ff" d="M153.88,-367.6C141.7,-358.11 126.34,-346.13 116.12,-338.17"/>
<polygon fill="#63b8ff" stroke="#63b8ff" points="152.04,-370.6 162.07,-373.98 156.34,-365.08 152.04,-370.6"/>
</a>
</g>
</g>
<!-- Node14 -->
<g id="Node000014" class="node">
<title>Node14</title>
<g id="a_Node000014"><a xlink:href="event__buffer_source.html" target="_top" xlink:title=" ">
<polygon fill="white" stroke="#666666" points="122,-222.5 0,-222.5 0,-203.5 122,-203.5 122,-222.5"/>
<text text-anchor="middle" x="61" y="-210.5" font-family="Helvetica,sans-Serif" font-size="10.00">l4/re/util/event_buffer</text>
</a>
</g>
</g>
<!-- Node12&#45;&gt;Node14 -->
<g id="edge17_Node000012_Node000014" class="edge">
<title>Node12&#45;&gt;Node14</title>
<g id="a_edge17_Node000012_Node000014"><a xlink:title=" ">
<path fill="none" stroke="#63b8ff" d="M128.43,-377.86C102.67,-372.63 72.23,-361.53 56,-338 31.05,-301.82 49.04,-244.56 57.38,-222.79"/>
<polygon fill="#63b8ff" stroke="#63b8ff" points="127.94,-381.33 138.4,-379.65 129.18,-374.44 127.94,-381.33"/>
</a>
</g>
</g>
<!-- Node16 -->
<g id="Node000016" class="node">
<title>Node16</title>
<g id="a_Node000016"><a xlink:href="event__svr_source.html" target="_top" xlink:title=" ">
<polygon fill="white" stroke="#666666" points="229,-90.5 121,-90.5 121,-71.5 229,-71.5 229,-90.5"/>
<text text-anchor="middle" x="175" y="-78.5" font-family="Helvetica,sans-Serif" font-size="10.00">l4/re/util/event_svr</text>
</a>
</g>
</g>
<!-- Node12&#45;&gt;Node16 -->
<g id="edge19_Node000012_Node000016" class="edge">
<title>Node12&#45;&gt;Node16</title>
<g id="a_edge19_Node000012_Node000016"><a xlink:title=" ">
<path fill="none" stroke="#63b8ff" d="M173,-363.77C173,-342.23 173,-305.81 173,-274.5 173,-274.5 173,-274.5 173,-212 173,-166.18 174.26,-111.28 174.78,-90.52"/>
<polygon fill="#63b8ff" stroke="#63b8ff" points="169.5,-363.82 173,-373.82 176.5,-363.82 169.5,-363.82"/>
</a>
</g>
</g>
<!-- Node17 -->
<g id="Node000017" class="node">
<title>Node17</title>
<g id="a_Node000017"><a xlink:href="vbus_source.html" target="_top" xlink:title=" ">
<polygon fill="white" stroke="#666666" points="428,-338 350,-338 350,-319 428,-319 428,-338"/>
<text text-anchor="middle" x="389" y="-326" font-family="Helvetica,sans-Serif" font-size="10.00">l4/vbus/vbus</text>
</a>
</g>
</g>
<!-- Node12&#45;&gt;Node17 -->
<g id="edge20_Node000012_Node000017" class="edge">
<title>Node12&#45;&gt;Node17</title>
<g id="a_edge20_Node000012_Node000017"><a xlink:title=" ">
<path fill="none" stroke="#63b8ff" d="M217.57,-371.56C258.02,-361.64 316.87,-347.2 354.02,-338.08"/>
<polygon fill="#63b8ff" stroke="#63b8ff" points="216.58,-368.2 207.7,-373.98 218.25,-375 216.58,-368.2"/>
</a>
</g>
</g>
<!-- Node15 -->
<g id="Node000015" class="node">
<title>Node15</title>
<g id="a_Node000015"><a xlink:href="util_2event.html" target="_top" xlink:title=" ">
<polygon fill="white" stroke="#666666" points="137,-156.5 49,-156.5 49,-137.5 137,-137.5 137,-156.5"/>
<text text-anchor="middle" x="93" y="-144.5" font-family="Helvetica,sans-Serif" font-size="10.00">l4/re/util/event</text>
</a>
</g>
</g>
<!-- Node14&#45;&gt;Node15 -->
<g id="edge18_Node000014_Node000015" class="edge">
<title>Node14&#45;&gt;Node15</title>
<g id="a_edge18_Node000014_Node000015"><a xlink:title=" ">
<path fill="none" stroke="#63b8ff" d="M69.91,-194.18C75.97,-182.05 83.75,-166.51 88.55,-156.91"/>
<polygon fill="#63b8ff" stroke="#63b8ff" points="66.66,-192.86 65.32,-203.37 72.92,-195.99 66.66,-192.86"/>
</a>
</g>
</g>
<!-- Node18 -->
<g id="Node000018" class="node">
<title>Node18</title>
<g id="a_Node000018"><a xlink:href="vbus__generic_source.html" target="_top" xlink:title=" ">
<polygon fill="white" stroke="#666666" points="575.5,-283 456.5,-283 456.5,-264 575.5,-264 575.5,-283"/>
<text text-anchor="middle" x="516" y="-271" font-family="Helvetica,sans-Serif" font-size="10.00">l4/vbus/vbus_generic</text>
</a>
</g>
</g>
<!-- Node17&#45;&gt;Node18 -->
<g id="edge21_Node000017_Node000018" class="edge">
<title>Node17&#45;&gt;Node18</title>
<g id="a_edge21_Node000017_Node000018"><a xlink:title=" ">
<path fill="none" stroke="#63b8ff" d="M418.88,-315.03C442.37,-305.23 474.47,-291.83 495.22,-283.17"/>
<polygon fill="#63b8ff" stroke="#63b8ff" points="417.29,-311.9 409.4,-318.98 419.98,-318.36 417.29,-311.9"/>
</a>
</g>
</g>
<!-- Node19 -->
<g id="Node000019" class="node">
<title>Node19</title>
<g id="a_Node000019"><a xlink:href="vbus__gpio_source.html" target="_top" xlink:title=" ">
<polygon fill="white" stroke="#666666" points="322,-283 218,-283 218,-264 322,-264 322,-283"/>
<text text-anchor="middle" x="270" y="-271" font-family="Helvetica,sans-Serif" font-size="10.00">l4/vbus/vbus_gpio</text>
</a>
</g>
</g>
<!-- Node17&#45;&gt;Node19 -->
<g id="edge22_Node000017_Node000019" class="edge">
<title>Node17&#45;&gt;Node19</title>
<g id="a_edge22_Node000017_Node000019"><a xlink:title=" ">
<path fill="none" stroke="#63b8ff" d="M360.7,-314.9C338.72,-305.11 308.82,-291.79 289.47,-283.17"/>
<polygon fill="#63b8ff" stroke="#63b8ff" points="359.32,-318.11 369.88,-318.98 362.17,-311.72 359.32,-318.11"/>
</a>
</g>
</g>
<!-- Node20 -->
<g id="Node000020" class="node">
<title>Node20</title>
<g id="a_Node000020"><a xlink:href="vbus__pci_source.html" target="_top" xlink:title=" ">
<polygon fill="white" stroke="#666666" points="438,-283 340,-283 340,-264 438,-264 438,-283"/>
<text text-anchor="middle" x="389" y="-271" font-family="Helvetica,sans-Serif" font-size="10.00">l4/vbus/vbus_pci</text>
</a>
</g>
</g>
<!-- Node17&#45;&gt;Node20 -->
<g id="edge23_Node000017_Node000020" class="edge">
<title>Node17&#45;&gt;Node20</title>
<g id="a_edge23_Node000017_Node000020"><a xlink:title=" ">
<path fill="none" stroke="#63b8ff" d="M389,-308.66C389,-299.93 389,-289.99 389,-283.09"/>
<polygon fill="#63b8ff" stroke="#63b8ff" points="385.5,-308.75 389,-318.75 392.5,-308.75 385.5,-308.75"/>
</a>
</g>
</g>
<!-- Node21&#45;&gt;Node17 -->
<g id="edge56_Node000021_Node000017" class="edge">
<title>Node21&#45;&gt;Node17</title>
<g id="a_edge56_Node000021_Node000017"><a xlink:title=" ">
<path fill="none" stroke="#63b8ff" d="M701.86,-376.34C633.06,-366.04 495.58,-345.46 428.14,-335.36"/>
<polygon fill="#63b8ff" stroke="#63b8ff" points="701.49,-379.82 711.9,-377.84 702.52,-372.9 701.49,-379.82"/>
</a>
</g>
</g>
<!-- Node22 -->
<g id="Node000022" class="node">
<title>Node22</title>
<g id="a_Node000022"><a xlink:href="random.html" target="_top" xlink:title="Random number generator interface definition.">
<polygon fill="white" stroke="#666666" points="834.5,-338 755.5,-338 755.5,-319 834.5,-319 834.5,-338"/>
<text text-anchor="middle" x="795" y="-326" font-family="Helvetica,sans-Serif" font-size="10.00">l4/re/random</text>
</a>
</g>
</g>
<!-- Node21&#45;&gt;Node22 -->
<g id="edge25_Node000021_Node000022" class="edge">
<title>Node21&#45;&gt;Node22</title>
<g id="a_edge25_Node000021_Node000022"><a xlink:title=" ">
<path fill="none" stroke="#63b8ff" d="M758.68,-366.52C767.84,-357.18 779.05,-345.75 786.57,-338.09"/>
<polygon fill="#63b8ff" stroke="#63b8ff" points="756.09,-364.16 751.59,-373.75 761.09,-369.06 756.09,-364.16"/>
</a>
</g>
</g>
<!-- Node23 -->
<g id="Node000023" class="node">
<title>Node23</title>
<g id="a_Node000023"><a xlink:href="icu__svr_source.html" target="_top" xlink:title=" ">
<polygon fill="white" stroke="#666666" points="296.5,-156.5 201.5,-156.5 201.5,-137.5 296.5,-137.5 296.5,-156.5"/>
<text text-anchor="middle" x="249" y="-144.5" font-family="Helvetica,sans-Serif" font-size="10.00">l4/re/util/icu_svr</text>
</a>
</g>
</g>
<!-- Node21&#45;&gt;Node23 -->
<g id="edge26_Node000021_Node000023" class="edge">
<title>Node21&#45;&gt;Node23</title>
<g id="a_edge26_Node000021_Node000023"><a xlink:title=" ">
<path fill="none" stroke="#63b8ff" d="M702.04,-372.17C680.16,-365.17 653.74,-354.18 634,-338 603.5,-312.99 616.18,-288.16 585,-264 535.97,-226.01 356.8,-176.17 282.07,-156.5"/>
<polygon fill="#63b8ff" stroke="#63b8ff" points="701.15,-375.56 711.74,-375.12 703.18,-368.86 701.15,-375.56"/>
</a>
</g>
</g>
<!-- Node24 -->
<g id="Node000024" class="node">
<title>Node24</title>
<g id="a_Node000024"><a xlink:href="scheduler.html" target="_top" xlink:title="Scheduler object functions.">
<polygon fill="white" stroke="#666666" points="737.5,-338 642.5,-338 642.5,-319 737.5,-319 737.5,-338"/>
<text text-anchor="middle" x="690" y="-326" font-family="Helvetica,sans-Serif" font-size="10.00">l4/sys/scheduler</text>
</a>
</g>
</g>
<!-- Node21&#45;&gt;Node24 -->
<g id="edge28_Node000021_Node000024" class="edge">
<title>Node21&#45;&gt;Node24</title>
<g id="a_edge28_Node000021_Node000024"><a xlink:title=" ">
<path fill="none" stroke="#63b8ff" d="M727.02,-366.52C717.68,-357.18 706.25,-345.75 698.59,-338.09"/>
<polygon fill="#63b8ff" stroke="#63b8ff" points="724.7,-369.15 734.25,-373.75 729.65,-364.2 724.7,-369.15"/>
</a>
</g>
</g>
<!-- Node25 -->
<g id="Node000025" class="node">
<title>Node25</title>
<g id="a_Node000025"><a xlink:href="vcon.html" target="_top" xlink:title="C++ Virtual console interface.">
<polygon fill="white" stroke="#666666" points="925.5,-338 854.5,-338 854.5,-319 925.5,-319 925.5,-338"/>
<text text-anchor="middle" x="890" y="-326" font-family="Helvetica,sans-Serif" font-size="10.00">l4/sys/vcon</text>
</a>
</g>
</g>
<!-- Node21&#45;&gt;Node25 -->
<g id="edge29_Node000021_Node000025" class="edge">
<title>Node21&#45;&gt;Node25</title>
<g id="a_edge29_Node000021_Node000025"><a xlink:title=" ">
<path fill="none" stroke="#63b8ff" d="M776.14,-370.55C803.44,-360.71 841.5,-346.98 865.95,-338.17"/>
<polygon fill="#63b8ff" stroke="#63b8ff" points="774.84,-367.3 766.62,-373.98 777.21,-373.89 774.84,-367.3"/>
</a>
</g>
</g>
<!-- Node23&#45;&gt;Node16 -->
<g id="edge27_Node000023_Node000016" class="edge">
<title>Node23&#45;&gt;Node16</title>
<g id="a_edge27_Node000023_Node000016"><a xlink:title=" ">
<path fill="none" stroke="#63b8ff" d="M231.29,-130.68C216.92,-118.26 197.18,-101.18 185.3,-90.91"/>
<polygon fill="#63b8ff" stroke="#63b8ff" points="229.17,-133.47 239.02,-137.37 233.75,-128.18 229.17,-133.47"/>
</a>
</g>
</g>
<!-- Node26 -->
<g id="Node000026" class="node">
<title>Node26</title>
<g id="a_Node000026"><a xlink:href="vcon__stream_8h_source.html" target="_top" xlink:title=" ">
<polygon fill="white" stroke="#666666" points="1279.5,-228 1160.5,-228 1160.5,-198 1279.5,-198 1279.5,-228"/>
<text text-anchor="start" x="1168.5" y="-216" font-family="Helvetica,sans-Serif" font-size="10.00">l4/l4re_vfs/impl/vcon</text>
<text text-anchor="middle" x="1220" y="-205" font-family="Helvetica,sans-Serif" font-size="10.00">_stream.h</text>
</a>
</g>
</g>
<!-- Node25&#45;&gt;Node26 -->
<g id="edge30_Node000025_Node000026" class="edge">
<title>Node25&#45;&gt;Node26</title>
<g id="a_edge30_Node000025_Node000026"><a xlink:title=" ">
<path fill="none" stroke="#63b8ff" d="M924.39,-315.67C985.65,-294.6 1113.36,-250.68 1179.05,-228.09"/>
<polygon fill="#63b8ff" stroke="#63b8ff" points="923.12,-312.41 914.8,-318.97 925.4,-319.03 923.12,-312.41"/>
</a>
</g>
</g>
<!-- Node29 -->
<g id="Node000029" class="node">
<title>Node29</title>
<g id="a_Node000029"><a xlink:href="log.html" target="_top" xlink:title="Log interface.">
<polygon fill="white" stroke="#666666" points="821,-283 765,-283 765,-264 821,-264 821,-283"/>
<text text-anchor="middle" x="793" y="-271" font-family="Helvetica,sans-Serif" font-size="10.00">l4/re/log</text>
</a>
</g>
</g>
<!-- Node25&#45;&gt;Node29 -->
<g id="edge33_Node000025_Node000029" class="edge">
<title>Node25&#45;&gt;Node29</title>
<g id="a_edge33_Node000025_Node000029"><a xlink:title=" ">
<path fill="none" stroke="#63b8ff" d="M865.23,-313.97C847.5,-304.28 824.15,-291.52 808.87,-283.17"/>
<polygon fill="#63b8ff" stroke="#63b8ff" points="863.96,-317.26 874.42,-318.98 867.32,-311.12 863.96,-317.26"/>
</a>
</g>
</g>
<!-- Node38 -->
<g id="Node000038" class="node">
<title>Node38</title>
<g id="a_Node000038"><a xlink:href="vcon__svr_source.html" target="_top" xlink:title=" ">
<polygon fill="white" stroke="#666666" points="943,-283 839,-283 839,-264 943,-264 943,-283"/>
<text text-anchor="middle" x="891" y="-271" font-family="Helvetica,sans-Serif" font-size="10.00">l4/re/util/vcon_svr</text>
</a>
</g>
</g>
<!-- Node25&#45;&gt;Node38 -->
<g id="edge55_Node000025_Node000038" class="edge">
<title>Node25&#45;&gt;Node38</title>
<g id="a_edge55_Node000025_Node000038"><a xlink:title=" ">
<path fill="none" stroke="#63b8ff" d="M890.36,-308.66C890.52,-299.93 890.71,-289.99 890.84,-283.09"/>
<polygon fill="#63b8ff" stroke="#63b8ff" points="886.85,-308.68 890.17,-318.75 893.85,-308.82 886.85,-308.68"/>
</a>
</g>
</g>
<!-- Node27 -->
<g id="Node000027" class="node">
<title>Node27</title>
<g id="a_Node000027"><a xlink:href="vcon__stream__impl_8h_source.html" target="_top" xlink:title=" ">
<polygon fill="white" stroke="#666666" points="1215.5,-162 1096.5,-162 1096.5,-132 1215.5,-132 1215.5,-162"/>
<text text-anchor="start" x="1104.5" y="-150" font-family="Helvetica,sans-Serif" font-size="10.00">l4/l4re_vfs/impl/vcon</text>
<text text-anchor="middle" x="1156" y="-139" font-family="Helvetica,sans-Serif" font-size="10.00">_stream_impl.h</text>
</a>
</g>
</g>
<!-- Node26&#45;&gt;Node27 -->
<g id="edge31_Node000026_Node000027" class="edge">
<title>Node26&#45;&gt;Node27</title>
<g id="a_edge31_Node000026_Node000027"><a xlink:title=" ">
<path fill="none" stroke="#63b8ff" d="M1198.65,-190.65C1189.27,-181.27 1178.53,-170.53 1170.16,-162.16"/>
<polygon fill="#63b8ff" stroke="#63b8ff" points="1196.25,-193.2 1205.8,-197.8 1201.2,-188.25 1196.25,-193.2"/>
</a>
</g>
</g>
<!-- Node28 -->
<g id="Node000028" class="node">
<title>Node28</title>
<g id="a_Node000028"><a xlink:href="vfs__impl_8h_source.html" target="_top" xlink:title=" ">
<polygon fill="white" stroke="#666666" points="1344,-162 1234,-162 1234,-132 1344,-132 1344,-162"/>
<text text-anchor="start" x="1242" y="-150" font-family="Helvetica,sans-Serif" font-size="10.00">l4/l4re_vfs/impl/vfs</text>
<text text-anchor="middle" x="1289" y="-139" font-family="Helvetica,sans-Serif" font-size="10.00">_impl.h</text>
</a>
</g>
</g>
<!-- Node26&#45;&gt;Node28 -->
<g id="edge32_Node000026_Node000028" class="edge">
<title>Node26&#45;&gt;Node28</title>
<g id="a_edge32_Node000026_Node000028"><a xlink:title=" ">
<path fill="none" stroke="#63b8ff" d="M1242.72,-190.92C1252.9,-181.49 1264.63,-170.61 1273.73,-162.16"/>
<polygon fill="#63b8ff" stroke="#63b8ff" points="1240.26,-188.43 1235.31,-197.8 1245.03,-193.56 1240.26,-188.43"/>
</a>
</g>
</g>
<!-- Node30 -->
<g id="Node000030" class="node">
<title>Node30</title>
<g id="a_Node000030"><a xlink:href="env.html" target="_top" xlink:title="Environment interface.">
<polygon fill="white" stroke="#666666" points="822.5,-222.5 763.5,-222.5 763.5,-203.5 822.5,-203.5 822.5,-222.5"/>
<text text-anchor="middle" x="793" y="-210.5" font-family="Helvetica,sans-Serif" font-size="10.00">l4/re/env</text>
</a>
</g>
</g>
<!-- Node29&#45;&gt;Node30 -->
<g id="edge34_Node000029_Node000030" class="edge">
<title>Node29&#45;&gt;Node30</title>
<g id="a_edge34_Node000029_Node000030"><a xlink:title=" ">
<path fill="none" stroke="#63b8ff" d="M793,-253.66C793,-243.24 793,-230.8 793,-222.67"/>
<polygon fill="#63b8ff" stroke="#63b8ff" points="789.5,-253.87 793,-263.87 796.5,-253.87 789.5,-253.87"/>
</a>
</g>
</g>
<!-- Node30&#45;&gt;Node4 -->
<g id="edge38_Node000030_Node000004" class="edge">
<title>Node30&#45;&gt;Node4</title>
<g id="a_edge38_Node000030_Node000004"><a xlink:title=" ">
<path fill="none" stroke="#63b8ff" d="M832.86,-209.88C884.72,-205.88 977.19,-194.44 1049,-162 1068.93,-153 1069.08,-142.97 1088,-132 1113.09,-117.46 1143.23,-104.92 1167.02,-96.03"/>
<polygon fill="#63b8ff" stroke="#63b8ff" points="832.46,-206.4 822.74,-210.61 832.96,-213.38 832.46,-206.4"/>
</a>
</g>
</g>
<!-- Node30&#45;&gt;Node5 -->
<g id="edge39_Node000030_Node000005" class="edge">
<title>Node30&#45;&gt;Node5</title>
<g id="a_edge39_Node000030_Node000005"><a xlink:title=" ">
<path fill="none" stroke="#63b8ff" d="M770.27,-197.51C747.94,-181.44 719.43,-154.76 736,-132 808.65,-32.17 968.96,-16.46 1048.44,-15.12"/>
<polygon fill="#63b8ff" stroke="#63b8ff" points="768.5,-200.54 778.72,-203.32 772.46,-194.77 768.5,-200.54"/>
</a>
</g>
</g>
<!-- Node30&#45;&gt;Node6 -->
<g id="edge40_Node000030_Node000006" class="edge">
<title>Node30&#45;&gt;Node6</title>
<g id="a_edge40_Node000030_Node000006"><a xlink:title=" ">
<path fill="none" stroke="#63b8ff" d="M812.99,-196.91C826.1,-187.01 843.59,-173.76 859,-162 876.38,-148.73 878.88,-142.62 898,-132 986.17,-83.04 1099.14,-46.69 1161.47,-28.67"/>
<polygon fill="#63b8ff" stroke="#63b8ff" points="810.57,-194.35 804.7,-203.17 814.79,-199.94 810.57,-194.35"/>
</a>
</g>
</g>
<!-- Node30&#45;&gt;Node7 -->
<g id="edge41_Node000030_Node000007" class="edge">
<title>Node30&#45;&gt;Node7</title>
<g id="a_edge41_Node000030_Node000007"><a xlink:title=" ">
<path fill="none" stroke="#63b8ff" d="M832.84,-208.52C957.61,-197.61 1340.54,-164.13 1476.5,-152.24"/>
<polygon fill="#63b8ff" stroke="#63b8ff" points="832.26,-205.05 822.6,-209.41 832.87,-212.03 832.26,-205.05"/>
</a>
</g>
</g>
<!-- Node30&#45;&gt;Node15 -->
<g id="edge46_Node000030_Node000015" class="edge">
<title>Node30&#45;&gt;Node15</title>
<g id="a_edge46_Node000030_Node000015"><a xlink:title=" ">
<path fill="none" stroke="#63b8ff" d="M753.05,-209.47C656.5,-203.19 402.86,-185.66 192,-162 174.06,-159.99 154.36,-157.3 137.28,-154.82"/>
<polygon fill="#63b8ff" stroke="#63b8ff" points="753.03,-212.98 763.24,-210.13 753.48,-205.99 753.03,-212.98"/>
</a>
</g>
</g>
<!-- Node30&#45;&gt;Node23 -->
<g id="edge47_Node000030_Node000023" class="edge">
<title>Node30&#45;&gt;Node23</title>
<g id="a_edge47_Node000030_Node000023"><a xlink:title=" ">
<path fill="none" stroke="#63b8ff" d="M753.2,-208.66C652.79,-200.12 391.08,-177.09 305,-162 296.81,-160.56 288.04,-158.59 279.93,-156.57"/>
<polygon fill="#63b8ff" stroke="#63b8ff" points="752.98,-212.16 763.24,-209.51 753.57,-205.18 752.98,-212.16"/>
</a>
</g>
</g>
<!-- Node30&#45;&gt;Node27 -->
<g id="edge36_Node000030_Node000027" class="edge">
<title>Node30&#45;&gt;Node27</title>
<g id="a_edge36_Node000030_Node000027"><a xlink:title=" ">
<path fill="none" stroke="#63b8ff" d="M832.72,-205.33C888.46,-195.93 993.04,-178.11 1082,-162 1086.63,-161.16 1091.42,-160.28 1096.24,-159.39"/>
<polygon fill="#63b8ff" stroke="#63b8ff" points="831.84,-201.93 822.57,-207.04 833.01,-208.83 831.84,-201.93"/>
</a>
</g>
</g>
<!-- Node30&#45;&gt;Node28 -->
<g id="edge37_Node000030_Node000028" class="edge">
<title>Node30&#45;&gt;Node28</title>
<g id="a_edge37_Node000030_Node000028"><a xlink:title=" ">
<path fill="none" stroke="#63b8ff" d="M832.87,-208.73C909.28,-202.17 1081.5,-185.94 1225,-162 1227.92,-161.51 1230.9,-160.98 1233.91,-160.42"/>
<polygon fill="#63b8ff" stroke="#63b8ff" points="832.4,-205.26 822.74,-209.59 833,-212.23 832.4,-205.26"/>
</a>
</g>
</g>
<!-- Node31 -->
<g id="Node000031" class="node">
<title>Node31</title>
<g id="a_Node000031"><a xlink:href="ro__file__impl_8h_source.html" target="_top" xlink:title=" ">
<polygon fill="white" stroke="#666666" points="849.5,-162 744.5,-162 744.5,-132 849.5,-132 849.5,-162"/>
<text text-anchor="start" x="752.5" y="-150" font-family="Helvetica,sans-Serif" font-size="10.00">l4/l4re_vfs/impl/ro</text>
<text text-anchor="middle" x="797" y="-139" font-family="Helvetica,sans-Serif" font-size="10.00">_file_impl.h</text>
</a>
</g>
</g>
<!-- Node30&#45;&gt;Node31 -->
<g id="edge35_Node000030_Node000031" class="edge">
<title>Node30&#45;&gt;Node31</title>
<g id="a_edge35_Node000030_Node000031"><a xlink:title=" ">
<path fill="none" stroke="#63b8ff" d="M794.17,-193.35C794.78,-183.47 795.53,-171.51 796.1,-162.36"/>
<polygon fill="#63b8ff" stroke="#63b8ff" points="790.67,-193.17 793.54,-203.37 797.66,-193.61 790.67,-193.17"/>
</a>
</g>
</g>
<!-- Node32 -->
<g id="Node000032" class="node">
<title>Node32</title>
<g id="a_Node000032"><a xlink:href="env__ns_source.html" target="_top" xlink:title=" ">
<polygon fill="white" stroke="#666666" points="409.5,-156.5 314.5,-156.5 314.5,-137.5 409.5,-137.5 409.5,-156.5"/>
<text text-anchor="middle" x="362" y="-144.5" font-family="Helvetica,sans-Serif" font-size="10.00">l4/re/util/env_ns</text>
</a>
</g>
</g>
<!-- Node30&#45;&gt;Node32 -->
<g id="edge42_Node000030_Node000032" class="edge">
<title>Node30&#45;&gt;Node32</title>
<g id="a_edge42_Node000030_Node000032"><a xlink:title=" ">
<path fill="none" stroke="#63b8ff" d="M752.96,-207.74C685.02,-200.24 542.97,-183.45 424,-162 415.31,-160.43 406,-158.48 397.3,-156.53"/>
<polygon fill="#63b8ff" stroke="#63b8ff" points="752.89,-211.25 763.21,-208.86 753.65,-204.29 752.89,-211.25"/>
</a>
</g>
</g>
<!-- Node34 -->
<g id="Node000034" class="node">
<title>Node34</title>
<g id="a_Node000034"><a xlink:href="goos__fb_source.html" target="_top" xlink:title=" ">
<polygon fill="white" stroke="#666666" points="502,-90.5 374,-90.5 374,-71.5 502,-71.5 502,-90.5"/>
<text text-anchor="middle" x="438" y="-78.5" font-family="Helvetica,sans-Serif" font-size="10.00">l4/re/util/video/goos_fb</text>
</a>
</g>
</g>
<!-- Node30&#45;&gt;Node34 -->
<g id="edge53_Node000030_Node000034" class="edge">
<title>Node30&#45;&gt;Node34</title>
<g id="a_edge53_Node000030_Node000034"><a xlink:title=" ">
<path fill="none" stroke="#63b8ff" d="M753.17,-208.54C669.14,-200.87 479.61,-181.61 458,-162 437.43,-143.33 436.55,-107.02 437.33,-90.52"/>
<polygon fill="#63b8ff" stroke="#63b8ff" points="753.08,-212.04 763.36,-209.45 753.71,-205.07 753.08,-212.04"/>
</a>
</g>
</g>
<!-- Node35 -->
<g id="Node000035" class="node">
<title>Node35</title>
<g id="a_Node000035"><a xlink:href="kumem__alloc.html" target="_top" xlink:title="Kumem allocator helper.">
<polygon fill="white" stroke="#666666" points="591.5,-156.5 466.5,-156.5 466.5,-137.5 591.5,-137.5 591.5,-156.5"/>
<text text-anchor="middle" x="529" y="-144.5" font-family="Helvetica,sans-Serif" font-size="10.00">l4/re/util/kumem_alloc</text>
</a>
</g>
</g>
<!-- Node30&#45;&gt;Node35 -->
<g id="edge48_Node000030_Node000035" class="edge">
<title>Node30&#45;&gt;Node35</title>
<g id="a_edge48_Node000030_Node000035"><a xlink:title=" ">
<path fill="none" stroke="#63b8ff" d="M753.75,-202.49C702.45,-190.05 613.37,-168.45 564.17,-156.53"/>
<polygon fill="#63b8ff" stroke="#63b8ff" points="752.94,-205.89 763.48,-204.84 754.59,-199.09 752.94,-205.89"/>
</a>
</g>
</g>
<!-- Node36 -->
<g id="Node000036" class="node">
<title>Node36</title>
<g id="a_Node000036"><a xlink:href="object__registry_source.html" target="_top" xlink:title=" ">
<polygon fill="white" stroke="#666666" points="1039.5,-156.5 906.5,-156.5 906.5,-137.5 1039.5,-137.5 1039.5,-156.5"/>
<text text-anchor="middle" x="973" y="-144.5" font-family="Helvetica,sans-Serif" font-size="10.00">l4/re/util/object_registry</text>
</a>
</g>
</g>
<!-- Node30&#45;&gt;Node36 -->
<g id="edge49_Node000030_Node000036" class="edge">
<title>Node30&#45;&gt;Node36</title>
<g id="a_edge49_Node000030_Node000036"><a xlink:title=" ">
<path fill="none" stroke="#63b8ff" d="M826.75,-200C862.29,-187.36 917.38,-167.78 948.82,-156.6"/>
<polygon fill="#63b8ff" stroke="#63b8ff" points="825.53,-196.72 817.28,-203.37 827.87,-203.32 825.53,-196.72"/>
</a>
</g>
</g>
<!-- Node37 -->
<g id="Node000037" class="node">
<title>Node37</title>
<g id="a_Node000037"><a xlink:href="vcpu.html" target="_top" xlink:title="vCPU support library (C++ interface).">
<polygon fill="white" stroke="#666666" points="688,-156.5 610,-156.5 610,-137.5 688,-137.5 688,-156.5"/>
<text text-anchor="middle" x="649" y="-144.5" font-family="Helvetica,sans-Serif" font-size="10.00">l4/vcpu/vcpu</text>
</a>
</g>
</g>
<!-- Node30&#45;&gt;Node37 -->
<g id="edge54_Node000030_Node000037" class="edge">
<title>Node30&#45;&gt;Node37</title>
<g id="a_edge54_Node000030_Node000037"><a xlink:title=" ">
<path fill="none" stroke="#63b8ff" d="M764.19,-199.19C735.81,-186.58 693.23,-167.66 668.57,-156.7"/>
<polygon fill="#63b8ff" stroke="#63b8ff" points="763.02,-202.51 773.58,-203.37 765.86,-196.11 763.02,-202.51"/>
</a>
</g>
</g>
<!-- Node33 -->
<g id="Node000033" class="node">
<title>Node33</title>
<g id="a_Node000033"><a xlink:href="ns__fs__impl_8h_source.html" target="_top" xlink:title=" ">
<polygon fill="white" stroke="#666666" points="355.5,-96 248.5,-96 248.5,-66 355.5,-66 355.5,-96"/>
<text text-anchor="start" x="256.5" y="-84" font-family="Helvetica,sans-Serif" font-size="10.00">l4/l4re_vfs/impl/ns</text>
<text text-anchor="middle" x="302" y="-73" font-family="Helvetica,sans-Serif" font-size="10.00">_fs_impl.h</text>
</a>
</g>
</g>
<!-- Node32&#45;&gt;Node33 -->
<g id="edge43_Node000032_Node000033" class="edge">
<title>Node32&#45;&gt;Node33</title>
<g id="a_edge43_Node000032_Node000033"><a xlink:title=" ">
<path fill="none" stroke="#63b8ff" d="M346.86,-129.85C337.2,-119.54 324.78,-106.3 315.46,-96.36"/>
<polygon fill="#63b8ff" stroke="#63b8ff" points="344.52,-132.47 353.91,-137.37 349.62,-127.68 344.52,-132.47"/>
</a>
</g>
</g>
<!-- Node32&#45;&gt;Node34 -->
<g id="edge44_Node000032_Node000034" class="edge">
<title>Node32&#45;&gt;Node34</title>
<g id="a_edge44_Node000032_Node000034"><a xlink:title=" ">
<path fill="none" stroke="#63b8ff" d="M380.19,-130.68C394.94,-118.26 415.22,-101.18 427.43,-90.91"/>
<polygon fill="#63b8ff" stroke="#63b8ff" points="377.64,-128.25 372.25,-137.37 382.15,-133.6 377.64,-128.25"/>
</a>
</g>
</g>
<!-- Node34&#45;&gt;Node34 -->
<g id="edge45_Node000034_Node000034" class="edge">
<title>Node34&#45;&gt;Node34</title>
<g id="a_edge45_Node000034_Node000034"><a xlink:title=" ">
<path fill="none" stroke="#63b8ff" d="M473.67,-92.32C497.19,-95.43 520,-91.66 520,-81 520,-68.82 490.2,-65.63 463.61,-71.44"/>
<polygon fill="#63b8ff" stroke="#63b8ff" points="474.06,-88.84 463.61,-90.56 472.86,-95.73 474.06,-88.84"/>
</a>
</g>
</g>
<!-- Node36&#45;&gt;Node4 -->
<g id="edge50_Node000036_Node000004" class="edge">
<title>Node36&#45;&gt;Node4</title>
<g id="a_edge50_Node000036_Node000004"><a xlink:title=" ">
<path fill="none" stroke="#63b8ff" d="M1014.4,-134.72C1055.56,-123.51 1118.58,-106.35 1161.45,-94.68"/>
<polygon fill="#63b8ff" stroke="#63b8ff" points="1013.42,-131.36 1004.69,-137.37 1015.26,-138.12 1013.42,-131.36"/>
</a>
</g>
</g>
<!-- Node36&#45;&gt;Node5 -->
<g id="edge51_Node000036_Node000005" class="edge">
<title>Node36&#45;&gt;Node5</title>
<g id="a_edge51_Node000036_Node000005"><a xlink:title=" ">
<path fill="none" stroke="#63b8ff" d="M987.95,-130.07C1012.01,-104.44 1058.91,-54.46 1081.8,-30.07"/>
<polygon fill="#63b8ff" stroke="#63b8ff" points="985.3,-127.78 981,-137.47 990.4,-132.57 985.3,-127.78"/>
</a>
</g>
</g>
<!-- Node36&#45;&gt;Node11 -->
<g id="edge52_Node000036_Node000011" class="edge">
<title>Node36&#45;&gt;Node11</title>
<g id="a_edge52_Node000036_Node000011"><a xlink:title=" ">
<path fill="none" stroke="#63b8ff" d="M1049.71,-136.34C1062.49,-134.83 1075.61,-133.32 1088,-132 1261.52,-113.45 1306.59,-122.98 1479,-96 1481.88,-95.55 1484.82,-95.05 1487.79,-94.51"/>
<polygon fill="#63b8ff" stroke="#63b8ff" points="1049.06,-132.9 1039.55,-137.56 1049.9,-139.85 1049.06,-132.9"/>
</a>
</g>
</g>
<!-- Node39&#45;&gt;Node4 -->
<g id="edge59_Node000039_Node000004" class="edge">
<title>Node39&#45;&gt;Node4</title>
<g id="a_edge59_Node000039_Node000004"><a xlink:title=" ">
<path fill="none" stroke="#63b8ff" d="M1340.83,-260.69C1358.28,-254.09 1375.67,-243.84 1386,-228 1409.31,-192.26 1411.77,-166.01 1386,-132 1370.15,-111.09 1301.94,-96.49 1254.72,-88.67"/>
<polygon fill="#63b8ff" stroke="#63b8ff" points="1339.49,-257.45 1331.16,-264 1341.76,-264.07 1339.49,-257.45"/>
</a>
</g>
</g>
<!-- Node39&#45;&gt;Node5 -->
<g id="edge60_Node000039_Node000005" class="edge">
<title>Node39&#45;&gt;Node5</title>
<g id="a_edge60_Node000039_Node000005"><a xlink:title=" ">
<path fill="none" stroke="#63b8ff" d="M1303.19,-256.83C1333.01,-229.28 1385.89,-171.34 1353,-132 1295.07,-62.71 1229.48,-144.04 1153,-96 1127.58,-80.03 1109.81,-48.51 1101.11,-30.16"/>
<polygon fill="#63b8ff" stroke="#63b8ff" points="1300.58,-254.47 1295.47,-263.76 1305.25,-259.68 1300.58,-254.47"/>
</a>
</g>
</g>
<!-- Node39&#45;&gt;Node26 -->
<g id="edge58_Node000039_Node000026" class="edge">
<title>Node39&#45;&gt;Node26</title>
<g id="a_edge58_Node000039_Node000026"><a xlink:title=" ">
<path fill="none" stroke="#63b8ff" d="M1267.74,-256.97C1257.78,-248.01 1245.36,-236.82 1235.68,-228.11"/>
<polygon fill="#63b8ff" stroke="#63b8ff" points="1265.63,-259.78 1275.41,-263.87 1270.32,-254.58 1265.63,-259.78"/>
</a>
</g>
</g>
<!-- Node40&#45;&gt;Node39 -->
<g id="edge62_Node000040_Node000039" class="edge">
<title>Node40&#45;&gt;Node39</title>
<g id="a_edge62_Node000040_Node000039"><a xlink:title=" ">
<path fill="none" stroke="#63b8ff" d="M1384.2,-420.18C1360.67,-385.62 1308.65,-309.23 1291,-283.31"/>
<polygon fill="#63b8ff" stroke="#63b8ff" points="1381.51,-422.44 1390.03,-428.74 1387.3,-418.5 1381.51,-422.44"/>
</a>
</g>
</g>
</g>
</svg>
