<?xml version="1.0" encoding="UTF-8" standalone="no"?>
<!DOCTYPE svg PUBLIC "-//W3C//DTD SVG 1.1//EN"
 "http://www.w3.org/Graphics/SVG/1.1/DTD/svg11.dtd">
<!-- Generated by graphviz version 2.43.0 (0)
 -->
<!-- Title: l4/sys/task.h Pages: 1 -->
<svg width="566pt" height="357pt"
 viewBox="0.00 0.00 565.91 357.00" xmlns="http://www.w3.org/2000/svg" xmlns:xlink="http://www.w3.org/1999/xlink">
<g id="graph0" class="graph" transform="scale(1 1) rotate(0) translate(4 353)">
<title>l4/sys/task.h</title>
<!-- Node1 -->
<g id="Node000001" class="node">
<title>Node1</title>
<g id="a_Node000001"><a xlink:title="Common task related definitions.">
<polygon fill="#999999" stroke="#666666" points="305,-349 227,-349 227,-330 305,-330 305,-349"/>
<text text-anchor="middle" x="266" y="-337" font-family="Helvetica,sans-Serif" font-size="10.00">l4/sys/task.h</text>
</a>
</g>
</g>
<!-- Node2 -->
<g id="Node000002" class="node">
<title>Node2</title>
<g id="a_Node000002"><a xlink:href="l4_2sys_2types_8h.html" target="_top" xlink:title="Common L4 ABI Data Types.">
<polygon fill="white" stroke="#666666" points="342,-184 258,-184 258,-165 342,-165 342,-184"/>
<text text-anchor="middle" x="300" y="-172" font-family="Helvetica,sans-Serif" font-size="10.00">l4/sys/types.h</text>
</a>
</g>
</g>
<!-- Node1&#45;&gt;Node2 -->
<g id="edge1_Node000001_Node000002" class="edge">
<title>Node1&#45;&gt;Node2</title>
<g id="a_edge1_Node000001_Node000002"><a xlink:title=" ">
<path fill="none" stroke="#63b8ff" d="M271.79,-329.94C282.66,-313.31 305.75,-275.09 314,-239 317.5,-223.7 313.07,-206.28 308.28,-193.56"/>
<polygon fill="#63b8ff" stroke="#63b8ff" points="311.43,-192.02 304.35,-184.14 304.97,-194.71 311.43,-192.02"/>
</a>
</g>
</g>
<!-- Node9 -->
<g id="Node000009" class="node">
<title>Node9</title>
<g id="a_Node000009"><a xlink:href="l4_2sys_2utcb_8h.html" target="_top" xlink:title="UTCB definitions.">
<polygon fill="white" stroke="#666666" points="305,-239 227,-239 227,-220 305,-220 305,-239"/>
<text text-anchor="middle" x="266" y="-227" font-family="Helvetica,sans-Serif" font-size="10.00">l4/sys/utcb.h</text>
</a>
</g>
</g>
<!-- Node1&#45;&gt;Node9 -->
<g id="edge12_Node000001_Node000009" class="edge">
<title>Node1&#45;&gt;Node9</title>
<g id="a_edge12_Node000001_Node000009"><a xlink:title=" ">
<path fill="none" stroke="#63b8ff" d="M266,-329.66C266,-312.17 266,-272.8 266,-249.27"/>
<polygon fill="#63b8ff" stroke="#63b8ff" points="269.5,-249.16 266,-239.16 262.5,-249.16 269.5,-249.16"/>
</a>
</g>
</g>
<!-- Node10 -->
<g id="Node000010" class="node">
<title>Node10</title>
<g id="a_Node000010"><a xlink:href="l4_2sys_2ipc_8h.html" target="_top" xlink:title="Common IPC interface.">
<polygon fill="white" stroke="#666666" points="236.5,-294 165.5,-294 165.5,-275 236.5,-275 236.5,-294"/>
<text text-anchor="middle" x="201" y="-282" font-family="Helvetica,sans-Serif" font-size="10.00">l4/sys/ipc.h</text>
</a>
</g>
</g>
<!-- Node1&#45;&gt;Node10 -->
<g id="edge16_Node000001_Node000010" class="edge">
<title>Node1&#45;&gt;Node10</title>
<g id="a_edge16_Node000001_Node000010"><a xlink:title=" ">
<path fill="none" stroke="#63b8ff" d="M255.56,-329.98C245.85,-322.07 231.18,-310.11 219.5,-300.58"/>
<polygon fill="#63b8ff" stroke="#63b8ff" points="221.6,-297.78 211.63,-294.17 217.17,-303.2 221.6,-297.78"/>
</a>
</g>
</g>
<!-- Node3 -->
<g id="Node000003" class="node">
<title>Node3</title>
<g id="a_Node000003"><a xlink:href="l4_2sys_2l4int_8h.html" target="_top" xlink:title="Fixed sized integer types, generic version.">
<polygon fill="white" stroke="#666666" points="489.5,-74 410.5,-74 410.5,-55 489.5,-55 489.5,-74"/>
<text text-anchor="middle" x="450" y="-62" font-family="Helvetica,sans-Serif" font-size="10.00">l4/sys/l4int.h</text>
</a>
</g>
</g>
<!-- Node2&#45;&gt;Node3 -->
<g id="edge2_Node000002_Node000003" class="edge">
<title>Node2&#45;&gt;Node3</title>
<g id="a_edge2_Node000002_Node000003"><a xlink:title=" ">
<path fill="none" stroke="#63b8ff" d="M322.7,-164.92C341.69,-157.15 368.97,-144.54 390,-129 408.21,-115.54 425.59,-96.18 436.91,-82.38"/>
<polygon fill="#63b8ff" stroke="#63b8ff" points="439.91,-84.23 443.42,-74.24 434.44,-79.86 439.91,-84.23"/>
</a>
</g>
</g>
<!-- Node4 -->
<g id="Node000004" class="node">
<title>Node4</title>
<g id="a_Node000004"><a xlink:href="compiler_8h.html" target="_top" xlink:title="L4 compiler related defines.">
<polygon fill="white" stroke="#666666" points="230.5,-74 131.5,-74 131.5,-55 230.5,-55 230.5,-74"/>
<text text-anchor="middle" x="181" y="-62" font-family="Helvetica,sans-Serif" font-size="10.00">l4/sys/compiler.h</text>
</a>
</g>
</g>
<!-- Node2&#45;&gt;Node4 -->
<g id="edge3_Node000002_Node000004" class="edge">
<title>Node2&#45;&gt;Node4</title>
<g id="a_edge3_Node000002_Node000004"><a xlink:title=" ">
<path fill="none" stroke="#63b8ff" d="M293.5,-164.67C283.78,-151.81 264.52,-127.55 245,-110 232.37,-98.64 216.73,-87.72 204.08,-79.54"/>
<polygon fill="#63b8ff" stroke="#63b8ff" points="205.8,-76.49 195.48,-74.1 202.06,-82.41 205.8,-76.49"/>
</a>
</g>
</g>
<!-- Node6 -->
<g id="Node000006" class="node">
<title>Node6</title>
<g id="a_Node000006"><a xlink:href="l4_2sys_2consts_8h.html" target="_top" xlink:title="Common constants.">
<polygon fill="white" stroke="#666666" points="381.5,-129 292.5,-129 292.5,-110 381.5,-110 381.5,-129"/>
<text text-anchor="middle" x="337" y="-117" font-family="Helvetica,sans-Serif" font-size="10.00">l4/sys/consts.h</text>
</a>
</g>
</g>
<!-- Node2&#45;&gt;Node6 -->
<g id="edge5_Node000002_Node000006" class="edge">
<title>Node2&#45;&gt;Node6</title>
<g id="a_edge5_Node000002_Node000006"><a xlink:title=" ">
<path fill="none" stroke="#63b8ff" d="M306.11,-164.75C311.28,-157.34 318.85,-146.5 325.19,-137.41"/>
<polygon fill="#63b8ff" stroke="#63b8ff" points="328.15,-139.29 331,-129.09 322.41,-135.29 328.15,-139.29"/>
</a>
</g>
</g>
<!-- Node7 -->
<g id="Node000007" class="node">
<title>Node7</title>
<g id="a_Node000007"><a xlink:href="____l4__fpage_8h_source.html" target="_top" xlink:title=" ">
<polygon fill="white" stroke="#666666" points="236,-129 126,-129 126,-110 236,-110 236,-129"/>
<text text-anchor="middle" x="181" y="-117" font-family="Helvetica,sans-Serif" font-size="10.00">l4/sys/__l4_fpage.h</text>
</a>
</g>
</g>
<!-- Node2&#45;&gt;Node7 -->
<g id="edge8_Node000002_Node000007" class="edge">
<title>Node2&#45;&gt;Node7</title>
<g id="a_edge8_Node000002_Node000007"><a xlink:title=" ">
<path fill="none" stroke="#63b8ff" d="M280.88,-164.98C261.65,-156.42 231.77,-143.11 209.69,-133.28"/>
<polygon fill="#63b8ff" stroke="#63b8ff" points="211.03,-130.04 200.47,-129.17 208.18,-136.44 211.03,-130.04"/>
</a>
</g>
</g>
<!-- Node8 -->
<g id="Node000008" class="node">
<title>Node8</title>
<g id="a_Node000008"><a xlink:href="____timeout_8h_source.html" target="_top" xlink:title=" ">
<polygon fill="white" stroke="#666666" points="544,-129 438,-129 438,-110 544,-110 544,-129"/>
<text text-anchor="middle" x="491" y="-117" font-family="Helvetica,sans-Serif" font-size="10.00">l4/sys/__timeout.h</text>
</a>
</g>
</g>
<!-- Node2&#45;&gt;Node8 -->
<g id="edge10_Node000002_Node000008" class="edge">
<title>Node2&#45;&gt;Node8</title>
<g id="a_edge10_Node000002_Node000008"><a xlink:title=" ">
<path fill="none" stroke="#63b8ff" d="M330.69,-164.98C363.17,-155.97 414.6,-141.7 450.41,-131.76"/>
<polygon fill="#63b8ff" stroke="#63b8ff" points="451.37,-135.13 460.07,-129.08 449.5,-128.38 451.37,-135.13"/>
</a>
</g>
</g>
<!-- Node5 -->
<g id="Node000005" class="node">
<title>Node5</title>
<g id="a_Node000005"><a xlink:title=" ">
<polygon fill="#e0e0e0" stroke="#999999" points="227,-19 135,-19 135,0 227,0 227,-19"/>
<text text-anchor="middle" x="181" y="-7" font-family="Helvetica,sans-Serif" font-size="10.00">l4/sys/linkage.h</text>
</a>
</g>
</g>
<!-- Node4&#45;&gt;Node5 -->
<g id="edge4_Node000004_Node000005" class="edge">
<title>Node4&#45;&gt;Node5</title>
<g id="a_edge4_Node000004_Node000005"><a xlink:title=" ">
<path fill="none" stroke="#63b8ff" d="M181,-54.75C181,-47.8 181,-37.85 181,-29.13"/>
<polygon fill="#63b8ff" stroke="#63b8ff" points="184.5,-29.09 181,-19.09 177.5,-29.09 184.5,-29.09"/>
</a>
</g>
</g>
<!-- Node6&#45;&gt;Node3 -->
<g id="edge7_Node000006_Node000003" class="edge">
<title>Node6&#45;&gt;Node3</title>
<g id="a_edge7_Node000006_Node000003"><a xlink:title=" ">
<path fill="none" stroke="#63b8ff" d="M355.16,-109.98C373.25,-101.5 401.28,-88.35 422.19,-78.54"/>
<polygon fill="#63b8ff" stroke="#63b8ff" points="423.95,-81.59 431.51,-74.17 420.97,-75.25 423.95,-81.59"/>
</a>
</g>
</g>
<!-- Node6&#45;&gt;Node4 -->
<g id="edge6_Node000006_Node000004" class="edge">
<title>Node6&#45;&gt;Node4</title>
<g id="a_edge6_Node000006_Node000004"><a xlink:title=" ">
<path fill="none" stroke="#63b8ff" d="M311.94,-109.98C285.97,-101.16 245.19,-87.31 216.04,-77.41"/>
<polygon fill="#63b8ff" stroke="#63b8ff" points="216.85,-73.99 206.26,-74.08 214.6,-80.61 216.85,-73.99"/>
</a>
</g>
</g>
<!-- Node7&#45;&gt;Node4 -->
<g id="edge9_Node000007_Node000004" class="edge">
<title>Node7&#45;&gt;Node4</title>
<g id="a_edge9_Node000007_Node000004"><a xlink:title=" ">
<path fill="none" stroke="#63b8ff" d="M181,-109.75C181,-102.8 181,-92.85 181,-84.13"/>
<polygon fill="#63b8ff" stroke="#63b8ff" points="184.5,-84.09 181,-74.09 177.5,-84.09 184.5,-84.09"/>
</a>
</g>
</g>
<!-- Node8&#45;&gt;Node3 -->
<g id="edge11_Node000008_Node000003" class="edge">
<title>Node8&#45;&gt;Node3</title>
<g id="a_edge11_Node000008_Node000003"><a xlink:title=" ">
<path fill="none" stroke="#63b8ff" d="M484.23,-109.75C478.44,-102.26 469.94,-91.28 462.86,-82.13"/>
<polygon fill="#63b8ff" stroke="#63b8ff" points="465.53,-79.86 456.64,-74.09 459.99,-84.14 465.53,-79.86"/>
</a>
</g>
</g>
<!-- Node9&#45;&gt;Node2 -->
<g id="edge13_Node000009_Node000002" class="edge">
<title>Node9&#45;&gt;Node2</title>
<g id="a_edge13_Node000009_Node000002"><a xlink:title=" ">
<path fill="none" stroke="#63b8ff" d="M271.61,-219.75C276.32,-212.42 283.17,-201.73 288.97,-192.7"/>
<polygon fill="#63b8ff" stroke="#63b8ff" points="292.04,-194.4 294.49,-184.09 286.14,-190.62 292.04,-194.4"/>
</a>
</g>
</g>
<!-- Node9&#45;&gt;Node3 -->
<g id="edge15_Node000009_Node000003" class="edge">
<title>Node9&#45;&gt;Node3</title>
<g id="a_edge15_Node000009_Node000003"><a xlink:title=" ">
<path fill="none" stroke="#63b8ff" d="M305.11,-228.21C369.38,-225.36 495.89,-209.24 553,-129 570.9,-103.84 534.29,-86.64 499.86,-76.55"/>
<polygon fill="#63b8ff" stroke="#63b8ff" points="500.36,-73.06 489.79,-73.77 498.49,-79.8 500.36,-73.06"/>
</a>
</g>
</g>
<!-- Node9&#45;&gt;Node4 -->
<g id="edge14_Node000009_Node000004" class="edge">
<title>Node9&#45;&gt;Node4</title>
<g id="a_edge14_Node000009_Node000004"><a xlink:title=" ">
<path fill="none" stroke="#63b8ff" d="M239.91,-219.9C204.6,-206.69 143.03,-177.69 117,-129 105.96,-108.35 129.69,-90.14 151.31,-78.58"/>
<polygon fill="#63b8ff" stroke="#63b8ff" points="152.98,-81.66 160.34,-74.05 149.84,-75.41 152.98,-81.66"/>
</a>
</g>
</g>
<!-- Node10&#45;&gt;Node2 -->
<g id="edge17_Node000010_Node000002" class="edge">
<title>Node10&#45;&gt;Node2</title>
<g id="a_edge17_Node000010_Node000002"><a xlink:title=" ">
<path fill="none" stroke="#63b8ff" d="M201.22,-274.74C201.97,-261.53 205.14,-236.31 218,-220 229.38,-205.57 246.77,-195.19 262.62,-188.1"/>
<polygon fill="#63b8ff" stroke="#63b8ff" points="264.33,-191.18 272.22,-184.11 261.65,-184.72 264.33,-191.18"/>
</a>
</g>
</g>
<!-- Node10&#45;&gt;Node9 -->
<g id="edge18_Node000010_Node000009" class="edge">
<title>Node10&#45;&gt;Node9</title>
<g id="a_edge18_Node000010_Node000009"><a xlink:title=" ">
<path fill="none" stroke="#63b8ff" d="M211.44,-274.98C221.15,-267.07 235.82,-255.11 247.5,-245.58"/>
<polygon fill="#63b8ff" stroke="#63b8ff" points="249.83,-248.2 255.37,-239.17 245.4,-242.78 249.83,-248.2"/>
</a>
</g>
</g>
<!-- Node11 -->
<g id="Node000011" class="node">
<title>Node11</title>
<g id="a_Node000011"><a xlink:href="err_8h.html" target="_top" xlink:title="Error codes.">
<polygon fill="white" stroke="#666666" points="70,-184 0,-184 0,-165 70,-165 70,-184"/>
<text text-anchor="middle" x="35" y="-172" font-family="Helvetica,sans-Serif" font-size="10.00">l4/sys/err.h</text>
</a>
</g>
</g>
<!-- Node10&#45;&gt;Node11 -->
<g id="edge19_Node000010_Node000011" class="edge">
<title>Node10&#45;&gt;Node11</title>
<g id="a_edge19_Node000010_Node000011"><a xlink:title=" ">
<path fill="none" stroke="#63b8ff" d="M187.7,-274.84C159.16,-256.28 91.85,-212.49 56.91,-189.75"/>
<polygon fill="#63b8ff" stroke="#63b8ff" points="58.66,-186.72 48.37,-184.2 54.84,-192.58 58.66,-186.72"/>
</a>
</g>
</g>
<!-- Node11&#45;&gt;Node4 -->
<g id="edge20_Node000011_Node000004" class="edge">
<title>Node11&#45;&gt;Node4</title>
<g id="a_edge20_Node000011_Node000004"><a xlink:title=" ">
<path fill="none" stroke="#63b8ff" d="M39.94,-164.6C47.77,-151.21 64.16,-125.77 84,-110 101.78,-95.86 124.78,-85.05 143.93,-77.64"/>
<polygon fill="#63b8ff" stroke="#63b8ff" points="145.38,-80.83 153.54,-74.06 142.94,-74.27 145.38,-80.83"/>
</a>
</g>
</g>
</g>
</svg>
