<?xml version="1.0" encoding="UTF-8" standalone="no"?>
<!DOCTYPE svg PUBLIC "-//W3C//DTD SVG 1.1//EN"
 "http://www.w3.org/Graphics/SVG/1.1/DTD/svg11.dtd">
<!-- Generated by graphviz version 2.43.0 (0)
 -->
<!-- Title: l4/irq/irq.h Pages: 1 -->
<svg width="427pt" height="247pt"
 viewBox="0.00 0.00 427.00 247.00" xmlns="http://www.w3.org/2000/svg" xmlns:xlink="http://www.w3.org/1999/xlink">
<g id="graph0" class="graph" transform="scale(1 1) rotate(0) translate(4 243)">
<title>l4/irq/irq.h</title>
<!-- Node1 -->
<g id="Node000001" class="node">
<title>Node1</title>
<g id="a_Node000001"><a xlink:title="IRQ handling routines.">
<polygon fill="#999999" stroke="#666666" points="66,-239 0,-239 0,-220 66,-220 66,-239"/>
<text text-anchor="middle" x="33" y="-227" font-family="Helvetica,sans-Serif" font-size="10.00">l4/irq/irq.h</text>
</a>
</g>
</g>
<!-- Node2 -->
<g id="Node000002" class="node">
<title>Node2</title>
<g id="a_Node000002"><a xlink:href="compiler_8h.html" target="_top" xlink:title="L4 compiler related defines.">
<polygon fill="white" stroke="#666666" points="102.5,-74 3.5,-74 3.5,-55 102.5,-55 102.5,-74"/>
<text text-anchor="middle" x="53" y="-62" font-family="Helvetica,sans-Serif" font-size="10.00">l4/sys/compiler.h</text>
</a>
</g>
</g>
<!-- Node1&#45;&gt;Node2 -->
<g id="edge1_Node000001_Node000002" class="edge">
<title>Node1&#45;&gt;Node2</title>
<g id="a_edge1_Node000001_Node000002"><a xlink:title=" ">
<path fill="none" stroke="#63b8ff" d="M29.97,-219.93C23.44,-200.08 9.56,-149.62 22,-110 25.23,-99.71 31.78,-89.72 38.03,-81.82"/>
<polygon fill="#63b8ff" stroke="#63b8ff" points="40.73,-84.04 44.52,-74.15 35.39,-79.52 40.73,-84.04"/>
</a>
</g>
</g>
<!-- Node4 -->
<g id="Node000004" class="node">
<title>Node4</title>
<g id="a_Node000004"><a xlink:href="l4_2sys_2types_8h.html" target="_top" xlink:title="Common L4 ABI Data Types.">
<polygon fill="white" stroke="#666666" points="195,-184 111,-184 111,-165 195,-165 195,-184"/>
<text text-anchor="middle" x="153" y="-172" font-family="Helvetica,sans-Serif" font-size="10.00">l4/sys/types.h</text>
</a>
</g>
</g>
<!-- Node1&#45;&gt;Node4 -->
<g id="edge3_Node000001_Node000004" class="edge">
<title>Node1&#45;&gt;Node4</title>
<g id="a_edge3_Node000001_Node000004"><a xlink:title=" ">
<path fill="none" stroke="#63b8ff" d="M52.28,-219.98C71.67,-211.42 101.81,-198.11 124.07,-188.28"/>
<polygon fill="#63b8ff" stroke="#63b8ff" points="125.64,-191.41 133.37,-184.17 122.81,-185.01 125.64,-191.41"/>
</a>
</g>
</g>
<!-- Node3 -->
<g id="Node000003" class="node">
<title>Node3</title>
<g id="a_Node000003"><a xlink:title=" ">
<polygon fill="#e0e0e0" stroke="#999999" points="99,-19 7,-19 7,0 99,0 99,-19"/>
<text text-anchor="middle" x="53" y="-7" font-family="Helvetica,sans-Serif" font-size="10.00">l4/sys/linkage.h</text>
</a>
</g>
</g>
<!-- Node2&#45;&gt;Node3 -->
<g id="edge2_Node000002_Node000003" class="edge">
<title>Node2&#45;&gt;Node3</title>
<g id="a_edge2_Node000002_Node000003"><a xlink:title=" ">
<path fill="none" stroke="#63b8ff" d="M53,-54.75C53,-47.8 53,-37.85 53,-29.13"/>
<polygon fill="#63b8ff" stroke="#63b8ff" points="56.5,-29.09 53,-19.09 49.5,-29.09 56.5,-29.09"/>
</a>
</g>
</g>
<!-- Node4&#45;&gt;Node2 -->
<g id="edge5_Node000004_Node000002" class="edge">
<title>Node4&#45;&gt;Node2</title>
<g id="a_edge5_Node000004_Node000002"><a xlink:title=" ">
<path fill="none" stroke="#63b8ff" d="M110.77,-170.3C82.83,-165.74 48.13,-154.84 30,-129 20.06,-114.83 29.23,-95.88 38.78,-82.38"/>
<polygon fill="#63b8ff" stroke="#63b8ff" points="41.6,-84.46 44.92,-74.4 36.05,-80.2 41.6,-84.46"/>
</a>
</g>
</g>
<!-- Node5 -->
<g id="Node000005" class="node">
<title>Node5</title>
<g id="a_Node000005"><a xlink:href="l4_2sys_2l4int_8h.html" target="_top" xlink:title="Fixed sized integer types, generic version.">
<polygon fill="white" stroke="#666666" points="324.5,-74 245.5,-74 245.5,-55 324.5,-55 324.5,-74"/>
<text text-anchor="middle" x="285" y="-62" font-family="Helvetica,sans-Serif" font-size="10.00">l4/sys/l4int.h</text>
</a>
</g>
</g>
<!-- Node4&#45;&gt;Node5 -->
<g id="edge4_Node000004_Node000005" class="edge">
<title>Node4&#45;&gt;Node5</title>
<g id="a_edge4_Node000004_Node000005"><a xlink:title=" ">
<path fill="none" stroke="#63b8ff" d="M195.25,-166.3C219.05,-160.17 247.6,-149.03 266,-129 277.19,-116.82 281.81,-98.3 283.7,-84.39"/>
<polygon fill="#63b8ff" stroke="#63b8ff" points="287.22,-84.34 284.74,-74.04 280.26,-83.65 287.22,-84.34"/>
</a>
</g>
</g>
<!-- Node6 -->
<g id="Node000006" class="node">
<title>Node6</title>
<g id="a_Node000006"><a xlink:href="l4_2sys_2consts_8h.html" target="_top" xlink:title="Common constants.">
<polygon fill="white" stroke="#666666" points="256.5,-129 167.5,-129 167.5,-110 256.5,-110 256.5,-129"/>
<text text-anchor="middle" x="212" y="-117" font-family="Helvetica,sans-Serif" font-size="10.00">l4/sys/consts.h</text>
</a>
</g>
</g>
<!-- Node4&#45;&gt;Node6 -->
<g id="edge6_Node000004_Node000006" class="edge">
<title>Node4&#45;&gt;Node6</title>
<g id="a_edge6_Node000004_Node000006"><a xlink:title=" ">
<path fill="none" stroke="#63b8ff" d="M162.48,-164.98C171.2,-157.15 184.34,-145.34 194.9,-135.86"/>
<polygon fill="#63b8ff" stroke="#63b8ff" points="197.25,-138.46 202.35,-129.17 192.57,-133.25 197.25,-138.46"/>
</a>
</g>
</g>
<!-- Node7 -->
<g id="Node000007" class="node">
<title>Node7</title>
<g id="a_Node000007"><a xlink:href="____l4__fpage_8h_source.html" target="_top" xlink:title=" ">
<polygon fill="white" stroke="#666666" points="149,-129 39,-129 39,-110 149,-110 149,-129"/>
<text text-anchor="middle" x="94" y="-117" font-family="Helvetica,sans-Serif" font-size="10.00">l4/sys/__l4_fpage.h</text>
</a>
</g>
</g>
<!-- Node4&#45;&gt;Node7 -->
<g id="edge9_Node000004_Node000007" class="edge">
<title>Node4&#45;&gt;Node7</title>
<g id="a_edge9_Node000004_Node000007"><a xlink:title=" ">
<path fill="none" stroke="#63b8ff" d="M143.52,-164.98C134.8,-157.15 121.66,-145.34 111.1,-135.86"/>
<polygon fill="#63b8ff" stroke="#63b8ff" points="113.43,-133.25 103.65,-129.17 108.75,-138.46 113.43,-133.25"/>
</a>
</g>
</g>
<!-- Node8 -->
<g id="Node000008" class="node">
<title>Node8</title>
<g id="a_Node000008"><a xlink:href="____timeout_8h_source.html" target="_top" xlink:title=" ">
<polygon fill="white" stroke="#666666" points="419,-129 313,-129 313,-110 419,-110 419,-129"/>
<text text-anchor="middle" x="366" y="-117" font-family="Helvetica,sans-Serif" font-size="10.00">l4/sys/__timeout.h</text>
</a>
</g>
</g>
<!-- Node4&#45;&gt;Node8 -->
<g id="edge11_Node000004_Node000008" class="edge">
<title>Node4&#45;&gt;Node8</title>
<g id="a_edge11_Node000004_Node000008"><a xlink:title=" ">
<path fill="none" stroke="#63b8ff" d="M187.22,-164.98C223.76,-155.89 281.78,-141.46 321.76,-131.51"/>
<polygon fill="#63b8ff" stroke="#63b8ff" points="322.65,-134.89 331.51,-129.08 320.96,-128.1 322.65,-134.89"/>
</a>
</g>
</g>
<!-- Node6&#45;&gt;Node2 -->
<g id="edge7_Node000006_Node000002" class="edge">
<title>Node6&#45;&gt;Node2</title>
<g id="a_edge7_Node000006_Node000002"><a xlink:title=" ">
<path fill="none" stroke="#63b8ff" d="M186.45,-109.98C159.88,-101.13 118.06,-87.19 88.33,-77.28"/>
<polygon fill="#63b8ff" stroke="#63b8ff" points="89.34,-73.92 78.75,-74.08 87.13,-80.56 89.34,-73.92"/>
</a>
</g>
</g>
<!-- Node6&#45;&gt;Node5 -->
<g id="edge8_Node000006_Node000005" class="edge">
<title>Node6&#45;&gt;Node5</title>
<g id="a_edge8_Node000006_Node000005"><a xlink:title=" ">
<path fill="none" stroke="#63b8ff" d="M223.73,-109.98C234.73,-102 251.42,-89.88 264.6,-80.31"/>
<polygon fill="#63b8ff" stroke="#63b8ff" points="267.02,-82.88 273.06,-74.17 262.91,-77.21 267.02,-82.88"/>
</a>
</g>
</g>
<!-- Node7&#45;&gt;Node2 -->
<g id="edge10_Node000007_Node000002" class="edge">
<title>Node7&#45;&gt;Node2</title>
<g id="a_edge10_Node000007_Node000002"><a xlink:title=" ">
<path fill="none" stroke="#63b8ff" d="M87.23,-109.75C81.44,-102.26 72.94,-91.28 65.86,-82.13"/>
<polygon fill="#63b8ff" stroke="#63b8ff" points="68.53,-79.86 59.64,-74.09 62.99,-84.14 68.53,-79.86"/>
</a>
</g>
</g>
<!-- Node8&#45;&gt;Node5 -->
<g id="edge12_Node000008_Node000005" class="edge">
<title>Node8&#45;&gt;Node5</title>
<g id="a_edge12_Node000008_Node000005"><a xlink:title=" ">
<path fill="none" stroke="#63b8ff" d="M352.99,-109.98C340.54,-101.84 321.54,-89.41 306.79,-79.76"/>
<polygon fill="#63b8ff" stroke="#63b8ff" points="308.54,-76.72 298.25,-74.17 304.7,-82.57 308.54,-76.72"/>
</a>
</g>
</g>
</g>
</svg>
