<?xml version="1.0" encoding="UTF-8" standalone="no"?>
<!DOCTYPE svg PUBLIC "-//W3C//DTD SVG 1.1//EN"
 "http://www.w3.org/Graphics/SVG/1.1/DTD/svg11.dtd">
<!-- Generated by graphviz version 2.43.0 (0)
 -->
<!-- Title: l4/util/thread.h Pages: 1 -->
<svg width="618pt" height="533pt"
 viewBox="0.00 0.00 618.00 533.00" xmlns="http://www.w3.org/2000/svg" xmlns:xlink="http://www.w3.org/1999/xlink">
<g id="graph0" class="graph" transform="scale(1 1) rotate(0) translate(4 529)">
<title>l4/util/thread.h</title>
<!-- Node1 -->
<g id="Node000001" class="node">
<title>Node1</title>
<g id="a_Node000001"><a xlink:title="Low&#45;level Thread Functions.">
<polygon fill="#999999" stroke="#666666" points="255,-525 167,-525 167,-506 255,-506 255,-525"/>
<text text-anchor="middle" x="211" y="-513" font-family="Helvetica,sans-Serif" font-size="10.00">l4/util/thread.h</text>
</a>
</g>
</g>
<!-- Node2 -->
<g id="Node000002" class="node">
<title>Node2</title>
<g id="a_Node000002"><a xlink:href="l4_2sys_2types_8h.html" target="_top" xlink:title="Common L4 ABI Data Types.">
<polygon fill="white" stroke="#666666" points="327,-184 243,-184 243,-165 327,-165 327,-184"/>
<text text-anchor="middle" x="285" y="-172" font-family="Helvetica,sans-Serif" font-size="10.00">l4/sys/types.h</text>
</a>
</g>
</g>
<!-- Node1&#45;&gt;Node2 -->
<g id="edge1_Node000001_Node000002" class="edge">
<title>Node1&#45;&gt;Node2</title>
<g id="a_edge1_Node000001_Node000002"><a xlink:title=" ">
<path fill="none" stroke="#63b8ff" d="M224.34,-505.88C247.8,-489.56 294,-451.67 294,-406.5 294,-406.5 294,-406.5 294,-283.5 294,-252.08 290.17,-215.7 287.51,-194.2"/>
<polygon fill="#63b8ff" stroke="#63b8ff" points="290.96,-193.63 286.21,-184.16 284.02,-194.52 290.96,-193.63"/>
</a>
</g>
</g>
<!-- Node9 -->
<g id="Node000009" class="node">
<title>Node9</title>
<g id="a_Node000009"><a xlink:href="scheduler_8h.html" target="_top" xlink:title="Scheduler object functions.">
<polygon fill="white" stroke="#666666" points="180,-470 76,-470 76,-451 180,-451 180,-470"/>
<text text-anchor="middle" x="128" y="-458" font-family="Helvetica,sans-Serif" font-size="10.00">l4/sys/scheduler.h</text>
</a>
</g>
</g>
<!-- Node1&#45;&gt;Node9 -->
<g id="edge12_Node000001_Node000009" class="edge">
<title>Node1&#45;&gt;Node9</title>
<g id="a_edge12_Node000001_Node000009"><a xlink:title=" ">
<path fill="none" stroke="#63b8ff" d="M197.66,-505.98C184.91,-497.84 165.45,-485.41 150.33,-475.76"/>
<polygon fill="#63b8ff" stroke="#63b8ff" points="151.89,-472.6 141.58,-470.17 148.12,-478.5 151.89,-472.6"/>
</a>
</g>
</g>
<!-- Node3 -->
<g id="Node000003" class="node">
<title>Node3</title>
<g id="a_Node000003"><a xlink:href="l4_2sys_2l4int_8h.html" target="_top" xlink:title="Fixed sized integer types, generic version.">
<polygon fill="white" stroke="#666666" points="478.5,-74 399.5,-74 399.5,-55 478.5,-55 478.5,-74"/>
<text text-anchor="middle" x="439" y="-62" font-family="Helvetica,sans-Serif" font-size="10.00">l4/sys/l4int.h</text>
</a>
</g>
</g>
<!-- Node2&#45;&gt;Node3 -->
<g id="edge2_Node000002_Node000003" class="edge">
<title>Node2&#45;&gt;Node3</title>
<g id="a_edge2_Node000002_Node000003"><a xlink:title=" ">
<path fill="none" stroke="#63b8ff" d="M327.36,-168.39C372.74,-161.95 440.38,-149.2 456,-129 466.32,-115.65 459.05,-96.53 451.06,-82.77"/>
<polygon fill="#63b8ff" stroke="#63b8ff" points="453.95,-80.79 445.62,-74.23 448.04,-84.55 453.95,-80.79"/>
</a>
</g>
</g>
<!-- Node4 -->
<g id="Node000004" class="node">
<title>Node4</title>
<g id="a_Node000004"><a xlink:href="compiler_8h.html" target="_top" xlink:title="L4 compiler related defines.">
<polygon fill="white" stroke="#666666" points="213.5,-74 114.5,-74 114.5,-55 213.5,-55 213.5,-74"/>
<text text-anchor="middle" x="164" y="-62" font-family="Helvetica,sans-Serif" font-size="10.00">l4/sys/compiler.h</text>
</a>
</g>
</g>
<!-- Node2&#45;&gt;Node4 -->
<g id="edge3_Node000002_Node000004" class="edge">
<title>Node2&#45;&gt;Node4</title>
<g id="a_edge3_Node000002_Node000004"><a xlink:title=" ">
<path fill="none" stroke="#63b8ff" d="M270.83,-164.99C257.39,-156.62 236.93,-143.06 221,-129 204.6,-114.52 188.16,-95.62 177.18,-82.21"/>
<polygon fill="#63b8ff" stroke="#63b8ff" points="179.8,-79.89 170.8,-74.3 174.35,-84.28 179.8,-79.89"/>
</a>
</g>
</g>
<!-- Node6 -->
<g id="Node000006" class="node">
<title>Node6</title>
<g id="a_Node000006"><a xlink:href="l4_2sys_2consts_8h.html" target="_top" xlink:title="Common constants.">
<polygon fill="white" stroke="#666666" points="447.5,-129 358.5,-129 358.5,-110 447.5,-110 447.5,-129"/>
<text text-anchor="middle" x="403" y="-117" font-family="Helvetica,sans-Serif" font-size="10.00">l4/sys/consts.h</text>
</a>
</g>
</g>
<!-- Node2&#45;&gt;Node6 -->
<g id="edge5_Node000002_Node000006" class="edge">
<title>Node2&#45;&gt;Node6</title>
<g id="a_edge5_Node000002_Node000006"><a xlink:title=" ">
<path fill="none" stroke="#63b8ff" d="M303.96,-164.98C323.03,-156.42 352.66,-143.11 374.55,-133.28"/>
<polygon fill="#63b8ff" stroke="#63b8ff" points="376.01,-136.46 383.7,-129.17 373.14,-130.07 376.01,-136.46"/>
</a>
</g>
</g>
<!-- Node7 -->
<g id="Node000007" class="node">
<title>Node7</title>
<g id="a_Node000007"><a xlink:href="____l4__fpage_8h_source.html" target="_top" xlink:title=" ">
<polygon fill="white" stroke="#666666" points="340,-129 230,-129 230,-110 340,-110 340,-129"/>
<text text-anchor="middle" x="285" y="-117" font-family="Helvetica,sans-Serif" font-size="10.00">l4/sys/__l4_fpage.h</text>
</a>
</g>
</g>
<!-- Node2&#45;&gt;Node7 -->
<g id="edge8_Node000002_Node000007" class="edge">
<title>Node2&#45;&gt;Node7</title>
<g id="a_edge8_Node000002_Node000007"><a xlink:title=" ">
<path fill="none" stroke="#63b8ff" d="M285,-164.75C285,-157.8 285,-147.85 285,-139.13"/>
<polygon fill="#63b8ff" stroke="#63b8ff" points="288.5,-139.09 285,-129.09 281.5,-139.09 288.5,-139.09"/>
</a>
</g>
</g>
<!-- Node8 -->
<g id="Node000008" class="node">
<title>Node8</title>
<g id="a_Node000008"><a xlink:href="____timeout_8h_source.html" target="_top" xlink:title=" ">
<polygon fill="white" stroke="#666666" points="610,-129 504,-129 504,-110 610,-110 610,-129"/>
<text text-anchor="middle" x="557" y="-117" font-family="Helvetica,sans-Serif" font-size="10.00">l4/sys/__timeout.h</text>
</a>
</g>
</g>
<!-- Node2&#45;&gt;Node8 -->
<g id="edge10_Node000002_Node000008" class="edge">
<title>Node2&#45;&gt;Node8</title>
<g id="a_edge10_Node000002_Node000008"><a xlink:title=" ">
<path fill="none" stroke="#63b8ff" d="M327.2,-165.28C374.62,-156.04 451.72,-141.01 503.37,-130.95"/>
<polygon fill="#63b8ff" stroke="#63b8ff" points="504.2,-134.35 513.35,-129.01 502.86,-127.48 504.2,-134.35"/>
</a>
</g>
</g>
<!-- Node5 -->
<g id="Node000005" class="node">
<title>Node5</title>
<g id="a_Node000005"><a xlink:title=" ">
<polygon fill="#e0e0e0" stroke="#999999" points="210,-19 118,-19 118,0 210,0 210,-19"/>
<text text-anchor="middle" x="164" y="-7" font-family="Helvetica,sans-Serif" font-size="10.00">l4/sys/linkage.h</text>
</a>
</g>
</g>
<!-- Node4&#45;&gt;Node5 -->
<g id="edge4_Node000004_Node000005" class="edge">
<title>Node4&#45;&gt;Node5</title>
<g id="a_edge4_Node000004_Node000005"><a xlink:title=" ">
<path fill="none" stroke="#63b8ff" d="M164,-54.75C164,-47.8 164,-37.85 164,-29.13"/>
<polygon fill="#63b8ff" stroke="#63b8ff" points="167.5,-29.09 164,-19.09 160.5,-29.09 167.5,-29.09"/>
</a>
</g>
</g>
<!-- Node6&#45;&gt;Node3 -->
<g id="edge7_Node000006_Node000003" class="edge">
<title>Node6&#45;&gt;Node3</title>
<g id="a_edge7_Node000006_Node000003"><a xlink:title=" ">
<path fill="none" stroke="#63b8ff" d="M408.94,-109.75C413.98,-102.34 421.34,-91.5 427.51,-82.41"/>
<polygon fill="#63b8ff" stroke="#63b8ff" points="430.44,-84.33 433.17,-74.09 424.65,-80.39 430.44,-84.33"/>
</a>
</g>
</g>
<!-- Node6&#45;&gt;Node4 -->
<g id="edge6_Node000006_Node000004" class="edge">
<title>Node6&#45;&gt;Node4</title>
<g id="a_edge6_Node000006_Node000004"><a xlink:title=" ">
<path fill="none" stroke="#63b8ff" d="M364.6,-109.98C323.26,-100.82 257.4,-86.21 212.51,-76.26"/>
<polygon fill="#63b8ff" stroke="#63b8ff" points="213.22,-72.83 202.7,-74.08 211.71,-79.66 213.22,-72.83"/>
</a>
</g>
</g>
<!-- Node7&#45;&gt;Node4 -->
<g id="edge9_Node000007_Node000004" class="edge">
<title>Node7&#45;&gt;Node4</title>
<g id="a_edge9_Node000007_Node000004"><a xlink:title=" ">
<path fill="none" stroke="#63b8ff" d="M265.56,-109.98C246.01,-101.42 215.62,-88.11 193.18,-78.28"/>
<polygon fill="#63b8ff" stroke="#63b8ff" points="194.36,-74.98 183.79,-74.17 191.55,-81.39 194.36,-74.98"/>
</a>
</g>
</g>
<!-- Node8&#45;&gt;Node3 -->
<g id="edge11_Node000008_Node000003" class="edge">
<title>Node8&#45;&gt;Node3</title>
<g id="a_edge11_Node000008_Node000003"><a xlink:title=" ">
<path fill="none" stroke="#63b8ff" d="M538.04,-109.98C518.97,-101.42 489.34,-88.11 467.45,-78.28"/>
<polygon fill="#63b8ff" stroke="#63b8ff" points="468.86,-75.07 458.3,-74.17 465.99,-81.46 468.86,-75.07"/>
</a>
</g>
</g>
<!-- Node10 -->
<g id="Node000010" class="node">
<title>Node10</title>
<g id="a_Node000010"><a xlink:href="kernel__object_8h.html" target="_top" xlink:title="Kernel object system calls.">
<polygon fill="white" stroke="#666666" points="189,-415 67,-415 67,-396 189,-396 189,-415"/>
<text text-anchor="middle" x="128" y="-403" font-family="Helvetica,sans-Serif" font-size="10.00">l4/sys/kernel_object.h</text>
</a>
</g>
</g>
<!-- Node9&#45;&gt;Node10 -->
<g id="edge13_Node000009_Node000010" class="edge">
<title>Node9&#45;&gt;Node10</title>
<g id="a_edge13_Node000009_Node000010"><a xlink:title=" ">
<path fill="none" stroke="#63b8ff" d="M128,-450.75C128,-443.8 128,-433.85 128,-425.13"/>
<polygon fill="#63b8ff" stroke="#63b8ff" points="131.5,-425.09 128,-415.09 124.5,-425.09 131.5,-425.09"/>
</a>
</g>
</g>
<!-- Node13 -->
<g id="Node000013" class="node">
<title>Node13</title>
<g id="a_Node000013"><a xlink:href="l4_2sys_2ipc_8h.html" target="_top" xlink:title="Common IPC interface.">
<polygon fill="white" stroke="#666666" points="131.5,-294 60.5,-294 60.5,-275 131.5,-275 131.5,-294"/>
<text text-anchor="middle" x="96" y="-282" font-family="Helvetica,sans-Serif" font-size="10.00">l4/sys/ipc.h</text>
</a>
</g>
</g>
<!-- Node9&#45;&gt;Node13 -->
<g id="edge27_Node000009_Node000013" class="edge">
<title>Node9&#45;&gt;Node13</title>
<g id="a_edge27_Node000009_Node000013"><a xlink:title=" ">
<path fill="none" stroke="#63b8ff" d="M105.08,-450.89C89.28,-443.73 69.18,-431.95 58,-415 37.07,-383.29 33.98,-364.9 49,-330 54.15,-318.03 64.29,-307.76 73.83,-300.12"/>
<polygon fill="#63b8ff" stroke="#63b8ff" points="75.99,-302.88 81.93,-294.11 71.81,-297.26 75.99,-302.88"/>
</a>
</g>
</g>
<!-- Node10&#45;&gt;Node2 -->
<g id="edge14_Node000010_Node000002" class="edge">
<title>Node10&#45;&gt;Node2</title>
<g id="a_edge14_Node000010_Node000002"><a xlink:title=" ">
<path fill="none" stroke="#63b8ff" d="M158,-395.87C177.19,-388.97 201.33,-377.51 217,-360 260.97,-310.88 277.3,-230.89 282.66,-194.55"/>
<polygon fill="#63b8ff" stroke="#63b8ff" points="286.17,-194.75 284.04,-184.37 279.23,-193.81 286.17,-194.75"/>
</a>
</g>
</g>
<!-- Node10&#45;&gt;Node4 -->
<g id="edge15_Node000010_Node000004" class="edge">
<title>Node10&#45;&gt;Node4</title>
<g id="a_edge15_Node000010_Node000004"><a xlink:title=" ">
<path fill="none" stroke="#63b8ff" d="M106,-395.97C69.4,-380.18 0,-342.7 0,-285.5 0,-285.5 0,-285.5 0,-173.5 0,-118.96 64.05,-90.41 112.09,-76.67"/>
<polygon fill="#63b8ff" stroke="#63b8ff" points="113.04,-80.04 121.77,-74.03 111.2,-73.28 113.04,-80.04"/>
</a>
</g>
</g>
<!-- Node11 -->
<g id="Node000011" class="node">
<title>Node11</title>
<g id="a_Node000011"><a xlink:href="l4_2sys_2utcb_8h.html" target="_top" xlink:title="UTCB definitions.">
<polygon fill="white" stroke="#666666" points="190,-239 112,-239 112,-220 190,-220 190,-239"/>
<text text-anchor="middle" x="151" y="-227" font-family="Helvetica,sans-Serif" font-size="10.00">l4/sys/utcb.h</text>
</a>
</g>
</g>
<!-- Node10&#45;&gt;Node11 -->
<g id="edge16_Node000010_Node000011" class="edge">
<title>Node10&#45;&gt;Node11</title>
<g id="a_edge16_Node000010_Node000011"><a xlink:title=" ">
<path fill="none" stroke="#63b8ff" d="M153.51,-395.9C169.69,-388.96 189.35,-377.44 199,-360 220.19,-321.72 186.78,-272.21 165.84,-246.93"/>
<polygon fill="#63b8ff" stroke="#63b8ff" points="168.24,-244.36 159.07,-239.06 162.94,-248.92 168.24,-244.36"/>
</a>
</g>
</g>
<!-- Node12 -->
<g id="Node000012" class="node">
<title>Node12</title>
<g id="a_Node000012"><a xlink:href="____kernel__object__impl_8h.html" target="_top" xlink:title="Low&#45;level kernel debugger functions.">
<polygon fill="white" stroke="#666666" points="190,-360 66,-360 66,-330 190,-330 190,-360"/>
<text text-anchor="start" x="74" y="-348" font-family="Helvetica,sans-Serif" font-size="10.00">l4/sys/__kernel_object</text>
<text text-anchor="middle" x="128" y="-337" font-family="Helvetica,sans-Serif" font-size="10.00">_impl.h</text>
</a>
</g>
</g>
<!-- Node10&#45;&gt;Node12 -->
<g id="edge20_Node000010_Node000012" class="edge">
<title>Node10&#45;&gt;Node12</title>
<g id="a_edge20_Node000010_Node000012"><a xlink:title=" ">
<path fill="none" stroke="#63b8ff" d="M128,-395.87C128,-389.11 128,-379.35 128,-370.26"/>
<polygon fill="#63b8ff" stroke="#63b8ff" points="131.5,-370.11 128,-360.11 124.5,-370.11 131.5,-370.11"/>
</a>
</g>
</g>
<!-- Node10&#45;&gt;Node13 -->
<g id="edge26_Node000010_Node000013" class="edge">
<title>Node10&#45;&gt;Node13</title>
<g id="a_edge26_Node000010_Node000013"><a xlink:title=" ">
<path fill="none" stroke="#63b8ff" d="M102.49,-395.9C86.31,-388.96 66.65,-377.44 57,-360 50.54,-348.33 52.31,-342.48 57,-330 61.18,-318.89 69.52,-308.75 77.43,-300.96"/>
<polygon fill="#63b8ff" stroke="#63b8ff" points="80.01,-303.35 85.01,-294.01 75.28,-298.19 80.01,-303.35"/>
</a>
</g>
</g>
<!-- Node11&#45;&gt;Node2 -->
<g id="edge17_Node000011_Node000002" class="edge">
<title>Node11&#45;&gt;Node2</title>
<g id="a_edge17_Node000011_Node000002"><a xlink:title=" ">
<path fill="none" stroke="#63b8ff" d="M172.53,-219.98C194.47,-211.3 228.74,-197.75 253.69,-187.88"/>
<polygon fill="#63b8ff" stroke="#63b8ff" points="255.07,-191.1 263.08,-184.17 252.49,-184.59 255.07,-191.1"/>
</a>
</g>
</g>
<!-- Node11&#45;&gt;Node3 -->
<g id="edge19_Node000011_Node000003" class="edge">
<title>Node11&#45;&gt;Node3</title>
<g id="a_edge19_Node000011_Node000003"><a xlink:title=" ">
<path fill="none" stroke="#63b8ff" d="M153.38,-219.97C160.02,-197.89 180.92,-138.57 221,-110 247.5,-91.11 333.57,-77.81 389.31,-70.92"/>
<polygon fill="#63b8ff" stroke="#63b8ff" points="389.83,-74.38 399.34,-69.71 388.99,-67.43 389.83,-74.38"/>
</a>
</g>
</g>
<!-- Node11&#45;&gt;Node4 -->
<g id="edge18_Node000011_Node000004" class="edge">
<title>Node11&#45;&gt;Node4</title>
<g id="a_edge18_Node000011_Node000004"><a xlink:title=" ">
<path fill="none" stroke="#63b8ff" d="M149.98,-219.81C147.88,-200.12 143.75,-150.67 150,-110 151.35,-101.19 154.13,-91.74 156.85,-83.82"/>
<polygon fill="#63b8ff" stroke="#63b8ff" points="160.23,-84.77 160.4,-74.18 153.66,-82.35 160.23,-84.77"/>
</a>
</g>
</g>
<!-- Node12&#45;&gt;Node13 -->
<g id="edge21_Node000012_Node000013" class="edge">
<title>Node12&#45;&gt;Node13</title>
<g id="a_edge21_Node000012_Node000013"><a xlink:title=" ">
<path fill="none" stroke="#63b8ff" d="M120.25,-329.84C115.85,-321.78 110.29,-311.62 105.6,-303.06"/>
<polygon fill="#63b8ff" stroke="#63b8ff" points="108.66,-301.36 100.8,-294.27 102.52,-304.72 108.66,-301.36"/>
</a>
</g>
</g>
<!-- Node13&#45;&gt;Node2 -->
<g id="edge22_Node000013_Node000002" class="edge">
<title>Node13&#45;&gt;Node2</title>
<g id="a_edge22_Node000013_Node000002"><a xlink:title=" ">
<path fill="none" stroke="#63b8ff" d="M120.06,-274.9C141.42,-266.85 173.16,-253.86 199,-239 223.93,-224.66 250.2,-204.41 267.04,-190.66"/>
<polygon fill="#63b8ff" stroke="#63b8ff" points="269.46,-193.2 274.94,-184.13 265,-187.81 269.46,-193.2"/>
</a>
</g>
</g>
<!-- Node13&#45;&gt;Node11 -->
<g id="edge23_Node000013_Node000011" class="edge">
<title>Node13&#45;&gt;Node11</title>
<g id="a_edge23_Node000013_Node000011"><a xlink:title=" ">
<path fill="none" stroke="#63b8ff" d="M105.08,-274.75C113.09,-267.03 124.96,-255.6 134.62,-246.28"/>
<polygon fill="#63b8ff" stroke="#63b8ff" points="137.31,-248.55 142.09,-239.09 132.46,-243.51 137.31,-248.55"/>
</a>
</g>
</g>
<!-- Node14 -->
<g id="Node000014" class="node">
<title>Node14</title>
<g id="a_Node000014"><a xlink:href="err_8h.html" target="_top" xlink:title="Error codes.">
<polygon fill="white" stroke="#666666" points="98,-184 28,-184 28,-165 98,-165 98,-184"/>
<text text-anchor="middle" x="63" y="-172" font-family="Helvetica,sans-Serif" font-size="10.00">l4/sys/err.h</text>
</a>
</g>
</g>
<!-- Node13&#45;&gt;Node14 -->
<g id="edge24_Node000013_Node000014" class="edge">
<title>Node13&#45;&gt;Node14</title>
<g id="a_edge24_Node000013_Node000014"><a xlink:title=" ">
<path fill="none" stroke="#63b8ff" d="M93.3,-274.66C87.93,-257.09 75.82,-217.45 68.64,-193.95"/>
<polygon fill="#63b8ff" stroke="#63b8ff" points="71.92,-192.7 65.65,-184.16 65.22,-194.74 71.92,-192.7"/>
</a>
</g>
</g>
<!-- Node14&#45;&gt;Node4 -->
<g id="edge25_Node000014_Node000004" class="edge">
<title>Node14&#45;&gt;Node4</title>
<g id="a_edge25_Node000014_Node000004"><a xlink:title=" ">
<path fill="none" stroke="#63b8ff" d="M68.83,-164.84C77.52,-152.18 94.73,-128.17 112,-110 122.11,-99.37 134.56,-88.64 144.74,-80.39"/>
<polygon fill="#63b8ff" stroke="#63b8ff" points="147.01,-83.05 152.66,-74.09 142.65,-77.57 147.01,-83.05"/>
</a>
</g>
</g>
</g>
</svg>
