<?xml version="1.0" encoding="UTF-8" standalone="no"?>
<!DOCTYPE svg PUBLIC "-//W3C//DTD SVG 1.1//EN"
 "http://www.w3.org/Graphics/SVG/1.1/DTD/svg11.dtd">
<!-- Generated by graphviz version 2.42.4 (0)
 -->
<!-- Title: l4/sys/thread.h Pages: 1 -->
<svg width="1112pt" height="522pt"
 viewBox="0.00 0.00 1111.50 522.00" xmlns="http://www.w3.org/2000/svg" xmlns:xlink="http://www.w3.org/1999/xlink">
<g id="graph0" class="graph" transform="scale(1 1) rotate(0) translate(4 518)">
<title>l4/sys/thread.h</title>
<!-- Node1 -->
<g id="Node000001" class="node">
<title>Node1</title>
<g id="a_Node000001"><a xlink:title="Common thread related definitions.">
<polygon fill="#999999" stroke="#666666" points="370,-514 281,-514 281,-495 370,-495 370,-514"/>
<text text-anchor="middle" x="325.5" y="-502" font-family="Helvetica,sans-Serif" font-size="10.00">l4/sys/thread.h</text>
</a>
</g>
</g>
<!-- Node2 -->
<g id="Node000002" class="node">
<title>Node2</title>
<g id="a_Node000002"><a xlink:href="amd64_2l4_2sys_2segment_8h.html" target="_top" xlink:title="Segment handling.">
<polygon fill="white" stroke="#666666" points="137,-459 0,-459 0,-440 137,-440 137,-459"/>
<text text-anchor="middle" x="68.5" y="-447" font-family="Helvetica,sans-Serif" font-size="10.00">amd64/l4/sys/segment.h</text>
</a>
</g>
</g>
<!-- Node1&#45;&gt;Node2 -->
<g id="edge1_Node000001_Node000002" class="edge">
<title>Node1&#45;&gt;Node2</title>
<g id="a_edge1_Node000001_Node000002"><a xlink:title=" ">
<path fill="none" stroke="#63b8ff" d="M274.3,-492.94C226.12,-483.01 154.88,-468.31 110.12,-459.08"/>
<polygon fill="#63b8ff" stroke="#63b8ff" points="273.71,-496.39 284.21,-494.98 275.12,-489.54 273.71,-496.39"/>
</a>
</g>
</g>
<!-- Node3 -->
<g id="Node000003" class="node">
<title>Node3</title>
<g id="a_Node000003"><a xlink:href="ringbuf_8h.html" target="_top" xlink:title=" ">
<polygon fill="white" stroke="#666666" points="256,-459 155,-459 155,-440 256,-440 256,-459"/>
<text text-anchor="middle" x="205.5" y="-447" font-family="Helvetica,sans-Serif" font-size="10.00">l4/shmc/ringbuf.h</text>
</a>
</g>
</g>
<!-- Node1&#45;&gt;Node3 -->
<g id="edge2_Node000001_Node000003" class="edge">
<title>Node1&#45;&gt;Node3</title>
<g id="a_edge2_Node000001_Node000003"><a xlink:title=" ">
<path fill="none" stroke="#63b8ff" d="M296.97,-490.9C274.8,-481.11 244.65,-467.79 225.13,-459.17"/>
<polygon fill="#63b8ff" stroke="#63b8ff" points="295.66,-494.15 306.22,-494.98 298.49,-487.74 295.66,-494.15"/>
</a>
</g>
</g>
<!-- Node4 -->
<g id="Node000004" class="node">
<title>Node4</title>
<g id="a_Node000004"><a xlink:href="sys_2assert_8h.html" target="_top" xlink:title="Low&#45;level assert implementation.">
<polygon fill="white" stroke="#666666" points="478,-459 391,-459 391,-440 478,-440 478,-459"/>
<text text-anchor="middle" x="434.5" y="-447" font-family="Helvetica,sans-Serif" font-size="10.00">l4/sys/assert.h</text>
</a>
</g>
</g>
<!-- Node1&#45;&gt;Node4 -->
<g id="edge3_Node000001_Node000004" class="edge">
<title>Node1&#45;&gt;Node4</title>
<g id="a_edge3_Node000001_Node000004"><a xlink:title=" ">
<path fill="none" stroke="#63b8ff" d="M352.23,-490.5C372.29,-480.75 399.18,-467.68 416.67,-459.17"/>
<polygon fill="#63b8ff" stroke="#63b8ff" points="350.48,-487.46 343.01,-494.98 353.54,-493.76 350.48,-487.46"/>
</a>
</g>
</g>
<!-- Node29 -->
<g id="Node000029" class="node">
<title>Node29</title>
<g id="a_Node000029"><a xlink:href="sys_2thread.html" target="_top" xlink:title="Common thread related definitions.">
<polygon fill="white" stroke="#666666" points="324.5,-332.5 244.5,-332.5 244.5,-313.5 324.5,-313.5 324.5,-332.5"/>
<text text-anchor="middle" x="284.5" y="-320.5" font-family="Helvetica,sans-Serif" font-size="10.00">l4/sys/thread</text>
</a>
</g>
</g>
<!-- Node1&#45;&gt;Node29 -->
<g id="edge42_Node000001_Node000029" class="edge">
<title>Node1&#45;&gt;Node29</title>
<g id="a_edge42_Node000001_Node000029"><a xlink:title=" ">
<path fill="none" stroke="#63b8ff" d="M321.28,-485.03C312.54,-446.76 292.75,-360.11 286.46,-332.57"/>
<polygon fill="#63b8ff" stroke="#63b8ff" points="317.88,-485.87 323.52,-494.84 324.71,-484.31 317.88,-485.87"/>
</a>
</g>
</g>
<!-- Node30 -->
<g id="Node000030" class="node">
<title>Node30</title>
<g id="a_Node000030"><a xlink:href="lock_8h.html" target="_top" xlink:title="Simple lock implementation.">
<polygon fill="white" stroke="#666666" points="573,-459 496,-459 496,-440 573,-440 573,-459"/>
<text text-anchor="middle" x="534.5" y="-447" font-family="Helvetica,sans-Serif" font-size="10.00">l4/util/lock.h</text>
</a>
</g>
</g>
<!-- Node1&#45;&gt;Node30 -->
<g id="edge44_Node000001_Node000030" class="edge">
<title>Node1&#45;&gt;Node30</title>
<g id="a_edge44_Node000001_Node000030"><a xlink:title=" ">
<path fill="none" stroke="#63b8ff" d="M368.87,-492.5C408.01,-482.58 464.78,-468.18 500.66,-459.08"/>
<polygon fill="#63b8ff" stroke="#63b8ff" points="367.91,-489.13 359.08,-494.98 369.63,-495.92 367.91,-489.13"/>
</a>
</g>
</g>
<!-- Node31 -->
<g id="Node000031" class="node">
<title>Node31</title>
<g id="a_Node000031"><a xlink:href="x86_2l4_2sys_2segment_8h.html" target="_top" xlink:title="Segment handling.">
<polygon fill="white" stroke="#666666" points="712,-459 591,-459 591,-440 712,-440 712,-459"/>
<text text-anchor="middle" x="651.5" y="-447" font-family="Helvetica,sans-Serif" font-size="10.00">x86/l4/sys/segment.h</text>
</a>
</g>
</g>
<!-- Node1&#45;&gt;Node31 -->
<g id="edge45_Node000001_Node000031" class="edge">
<title>Node1&#45;&gt;Node31</title>
<g id="a_edge45_Node000001_Node000031"><a xlink:title=" ">
<path fill="none" stroke="#63b8ff" d="M380.34,-494.58C441.31,-484.67 539.06,-468.78 599.05,-459.03"/>
<polygon fill="#63b8ff" stroke="#63b8ff" points="379.45,-491.18 370.15,-496.24 380.58,-498.09 379.45,-491.18"/>
</a>
</g>
</g>
<!-- Node5 -->
<g id="Node000005" class="node">
<title>Node5</title>
<g id="a_Node000005"><a xlink:href="vfs__impl_8h_source.html" target="_top" xlink:title=" ">
<polygon fill="white" stroke="#666666" points="422.5,-404 312.5,-404 312.5,-374 422.5,-374 422.5,-404"/>
<text text-anchor="start" x="320.5" y="-392" font-family="Helvetica,sans-Serif" font-size="10.00">l4/l4re_vfs/impl/vfs</text>
<text text-anchor="middle" x="367.5" y="-381" font-family="Helvetica,sans-Serif" font-size="10.00">_impl.h</text>
</a>
</g>
</g>
<!-- Node4&#45;&gt;Node5 -->
<g id="edge4_Node000004_Node000005" class="edge">
<title>Node4&#45;&gt;Node5</title>
<g id="a_edge4_Node000004_Node000005"><a xlink:title=" ">
<path fill="none" stroke="#63b8ff" d="M417.02,-433.23C406.7,-424.23 393.74,-412.91 383.67,-404.11"/>
<polygon fill="#63b8ff" stroke="#63b8ff" points="414.78,-435.93 424.61,-439.87 419.38,-430.65 414.78,-435.93"/>
</a>
</g>
</g>
<!-- Node6 -->
<g id="Node000006" class="node">
<title>Node6</title>
<g id="a_Node000006"><a xlink:href="namespace__impl_8h.html" target="_top" xlink:title="Namespace client stub implementation.">
<polygon fill="white" stroke="#666666" points="562.5,-404 440.5,-404 440.5,-374 562.5,-374 562.5,-404"/>
<text text-anchor="start" x="448.5" y="-392" font-family="Helvetica,sans-Serif" font-size="10.00">l4/re/impl/namespace</text>
<text text-anchor="middle" x="501.5" y="-381" font-family="Helvetica,sans-Serif" font-size="10.00">_impl.h</text>
</a>
</g>
</g>
<!-- Node4&#45;&gt;Node6 -->
<g id="edge5_Node000004_Node000006" class="edge">
<title>Node4&#45;&gt;Node6</title>
<g id="a_edge5_Node000004_Node000006"><a xlink:title=" ">
<path fill="none" stroke="#63b8ff" d="M451.98,-433.23C462.3,-424.23 475.26,-412.91 485.33,-404.11"/>
<polygon fill="#63b8ff" stroke="#63b8ff" points="449.62,-430.65 444.39,-439.87 454.22,-435.93 449.62,-430.65"/>
</a>
</g>
</g>
<!-- Node7 -->
<g id="Node000007" class="node">
<title>Node7</title>
<g id="a_Node000007"><a xlink:href="bitmap__cap__alloc.html" target="_top" xlink:title="Bitmap capability allocator.">
<polygon fill="white" stroke="#666666" points="698,-404 581,-404 581,-374 698,-374 698,-404"/>
<text text-anchor="start" x="589" y="-392" font-family="Helvetica,sans-Serif" font-size="10.00">l4/re/util/bitmap_cap</text>
<text text-anchor="middle" x="639.5" y="-381" font-family="Helvetica,sans-Serif" font-size="10.00">_alloc</text>
</a>
</g>
</g>
<!-- Node4&#45;&gt;Node7 -->
<g id="edge6_Node000004_Node000007" class="edge">
<title>Node4&#45;&gt;Node7</title>
<g id="a_edge6_Node000004_Node000007"><a xlink:title=" ">
<path fill="none" stroke="#63b8ff" d="M474.1,-437.2C507.23,-427.75 554.64,-414.22 590.22,-404.06"/>
<polygon fill="#63b8ff" stroke="#63b8ff" points="472.96,-433.88 464.31,-439.99 474.89,-440.62 472.96,-433.88"/>
</a>
</g>
</g>
<!-- Node8 -->
<g id="Node000008" class="node">
<title>Node8</title>
<g id="a_Node000008"><a xlink:href="br__manager_source.html" target="_top" xlink:title=" ">
<polygon fill="white" stroke="#666666" points="1096,-217 977,-217 977,-198 1096,-198 1096,-217"/>
<text text-anchor="middle" x="1036.5" y="-205" font-family="Helvetica,sans-Serif" font-size="10.00">l4/re/util/br_manager</text>
</a>
</g>
</g>
<!-- Node4&#45;&gt;Node8 -->
<g id="edge7_Node000004_Node000008" class="edge">
<title>Node4&#45;&gt;Node8</title>
<g id="a_edge7_Node000004_Node000008"><a xlink:title=" ">
<path fill="none" stroke="#63b8ff" d="M488.29,-439.89C639.79,-421.7 691.87,-465.98 827.5,-404 926.02,-358.98 1008.3,-248.87 1030.56,-217.17"/>
<polygon fill="#63b8ff" stroke="#63b8ff" points="487.64,-436.44 478.17,-441.18 488.53,-443.39 487.64,-436.44"/>
</a>
</g>
</g>
<!-- Node9 -->
<g id="Node000009" class="node">
<title>Node9</title>
<g id="a_Node000009"><a xlink:href="counting__cap__alloc.html" target="_top" xlink:title="Reference&#45;counting capability allocator.">
<polygon fill="white" stroke="#666666" points="818.5,-404 716.5,-404 716.5,-374 818.5,-374 818.5,-404"/>
<text text-anchor="start" x="724.5" y="-392" font-family="Helvetica,sans-Serif" font-size="10.00">l4/re/util/counting</text>
<text text-anchor="middle" x="767.5" y="-381" font-family="Helvetica,sans-Serif" font-size="10.00">_cap_alloc</text>
</a>
</g>
</g>
<!-- Node4&#45;&gt;Node9 -->
<g id="edge8_Node000004_Node000009" class="edge">
<title>Node4&#45;&gt;Node9</title>
<g id="a_edge8_Node000004_Node000009"><a xlink:title=" ">
<path fill="none" stroke="#63b8ff" d="M488.49,-439.68C567.42,-426.78 705.16,-404.26 706.5,-404 709.7,-403.37 712.99,-402.7 716.3,-402"/>
<polygon fill="#63b8ff" stroke="#63b8ff" points="487.54,-436.29 478.23,-441.35 488.66,-443.2 487.54,-436.29"/>
</a>
</g>
</g>
<!-- Node10 -->
<g id="Node000010" class="node">
<title>Node10</title>
<g id="a_Node000010"><a xlink:href="cap__alloc__impl_8h.html" target="_top" xlink:title="Capability allocator implementation.">
<polygon fill="white" stroke="#666666" points="798.5,-338 692.5,-338 692.5,-308 798.5,-308 798.5,-338"/>
<text text-anchor="start" x="700.5" y="-326" font-family="Helvetica,sans-Serif" font-size="10.00">l4/re/util/cap_alloc</text>
<text text-anchor="middle" x="745.5" y="-315" font-family="Helvetica,sans-Serif" font-size="10.00">_impl.h</text>
</a>
</g>
</g>
<!-- Node9&#45;&gt;Node10 -->
<g id="edge9_Node000009_Node000010" class="edge">
<title>Node9&#45;&gt;Node10</title>
<g id="a_edge9_Node000009_Node000010"><a xlink:title=" ">
<path fill="none" stroke="#63b8ff" d="M759.29,-364.11C756.29,-355.38 752.99,-345.78 750.37,-338.16"/>
<polygon fill="#63b8ff" stroke="#63b8ff" points="756.06,-365.48 762.62,-373.8 762.68,-363.2 756.06,-365.48"/>
</a>
</g>
</g>
<!-- Node11 -->
<g id="Node000011" class="node">
<title>Node11</title>
<g id="a_Node000011"><a xlink:href="util_2cap__alloc.html" target="_top" xlink:title="Capability allocator.">
<polygon fill="white" stroke="#666666" points="767.5,-272 661.5,-272 661.5,-253 767.5,-253 767.5,-272"/>
<text text-anchor="middle" x="714.5" y="-260" font-family="Helvetica,sans-Serif" font-size="10.00">l4/re/util/cap_alloc</text>
</a>
</g>
</g>
<!-- Node10&#45;&gt;Node11 -->
<g id="edge10_Node000010_Node000011" class="edge">
<title>Node10&#45;&gt;Node11</title>
<g id="a_edge10_Node000010_Node000011"><a xlink:title=" ">
<path fill="none" stroke="#63b8ff" d="M733.27,-298.92C728.31,-289.56 722.88,-279.32 719.15,-272.27"/>
<polygon fill="#63b8ff" stroke="#63b8ff" points="730.22,-300.64 738,-307.84 736.41,-297.36 730.22,-300.64"/>
</a>
</g>
</g>
<!-- Node11&#45;&gt;Node8 -->
<g id="edge17_Node000011_Node000008" class="edge">
<title>Node11&#45;&gt;Node8</title>
<g id="a_edge17_Node000011_Node000008"><a xlink:title=" ">
<path fill="none" stroke="#63b8ff" d="M776.41,-251.31C836.88,-241.36 927.85,-226.38 984.63,-217.04"/>
<polygon fill="#63b8ff" stroke="#63b8ff" points="775.53,-247.91 766.23,-252.98 776.67,-254.81 775.53,-247.91"/>
</a>
</g>
</g>
<!-- Node12 -->
<g id="Node000012" class="node">
<title>Node12</title>
<g id="a_Node000012"><a xlink:href="server_2l4virtio_source.html" target="_top" xlink:title=" ">
<polygon fill="white" stroke="#666666" points="581,-162 484,-162 484,-132 581,-132 581,-162"/>
<text text-anchor="start" x="492" y="-150" font-family="Helvetica,sans-Serif" font-size="10.00">l4/l4virtio/server</text>
<text text-anchor="middle" x="532.5" y="-139" font-family="Helvetica,sans-Serif" font-size="10.00">/l4virtio</text>
</a>
</g>
</g>
<!-- Node11&#45;&gt;Node12 -->
<g id="edge11_Node000011_Node000012" class="edge">
<title>Node11&#45;&gt;Node12</title>
<g id="a_edge11_Node000011_Node000012"><a xlink:title=" ">
<path fill="none" stroke="#63b8ff" d="M651.15,-254.52C604.05,-247.87 545.46,-236.01 530.5,-217 518.27,-201.46 522.64,-177.29 527.29,-162.07"/>
<polygon fill="#63b8ff" stroke="#63b8ff" points="650.93,-258.02 661.31,-255.9 651.87,-251.08 650.93,-258.02"/>
</a>
</g>
</g>
<!-- Node17 -->
<g id="Node000017" class="node">
<title>Node17</title>
<g id="a_Node000017"><a xlink:href="env__ns_source.html" target="_top" xlink:title=" ">
<polygon fill="white" stroke="#666666" points="920,-217 825,-217 825,-198 920,-198 920,-217"/>
<text text-anchor="middle" x="872.5" y="-205" font-family="Helvetica,sans-Serif" font-size="10.00">l4/re/util/env_ns</text>
</a>
</g>
</g>
<!-- Node11&#45;&gt;Node17 -->
<g id="edge18_Node000011_Node000017" class="edge">
<title>Node11&#45;&gt;Node17</title>
<g id="a_edge18_Node000011_Node000017"><a xlink:title=" ">
<path fill="none" stroke="#63b8ff" d="M749.38,-249.8C778.87,-239.91 820.43,-225.97 846.92,-217.08"/>
<polygon fill="#63b8ff" stroke="#63b8ff" points="748.25,-246.49 739.89,-252.98 750.48,-253.12 748.25,-246.49"/>
</a>
</g>
</g>
<!-- Node19 -->
<g id="Node000019" class="node">
<title>Node19</title>
<g id="a_Node000019"><a xlink:href="goos__fb_source.html" target="_top" xlink:title=" ">
<polygon fill="white" stroke="#666666" points="1085.5,-156.5 957.5,-156.5 957.5,-137.5 1085.5,-137.5 1085.5,-156.5"/>
<text text-anchor="middle" x="1021.5" y="-144.5" font-family="Helvetica,sans-Serif" font-size="10.00">l4/re/util/video/goos_fb</text>
</a>
</g>
</g>
<!-- Node11&#45;&gt;Node19 -->
<g id="edge41_Node000011_Node000019" class="edge">
<title>Node11&#45;&gt;Node19</title>
<g id="a_edge41_Node000011_Node000019"><a xlink:title=" ">
<path fill="none" stroke="#63b8ff" d="M777.76,-255.78C821.83,-250.06 881.15,-238.81 929.5,-217 963.71,-201.56 997.29,-171.59 1012.72,-156.75"/>
<polygon fill="#63b8ff" stroke="#63b8ff" points="777.25,-252.32 767.75,-257.02 778.11,-259.27 777.25,-252.32"/>
</a>
</g>
</g>
<!-- Node20 -->
<g id="Node000020" class="node">
<title>Node20</title>
<g id="a_Node000020"><a xlink:href="util_2event.html" target="_top" xlink:title=" ">
<polygon fill="white" stroke="#666666" points="687.5,-156.5 599.5,-156.5 599.5,-137.5 687.5,-137.5 687.5,-156.5"/>
<text text-anchor="middle" x="643.5" y="-144.5" font-family="Helvetica,sans-Serif" font-size="10.00">l4/re/util/event</text>
</a>
</g>
</g>
<!-- Node11&#45;&gt;Node20 -->
<g id="edge22_Node000011_Node000020" class="edge">
<title>Node11&#45;&gt;Node20</title>
<g id="a_edge22_Node000011_Node000020"><a xlink:title=" ">
<path fill="none" stroke="#63b8ff" d="M703.75,-244.32C688.35,-219.69 660.57,-175.29 648.9,-156.63"/>
<polygon fill="#63b8ff" stroke="#63b8ff" points="700.89,-246.35 709.16,-252.97 706.83,-242.63 700.89,-246.35"/>
</a>
</g>
</g>
<!-- Node21 -->
<g id="Node000021" class="node">
<title>Node21</title>
<g id="a_Node000021"><a xlink:href="icu__svr_source.html" target="_top" xlink:title=" ">
<polygon fill="white" stroke="#666666" points="807,-217 712,-217 712,-198 807,-198 807,-217"/>
<text text-anchor="middle" x="759.5" y="-205" font-family="Helvetica,sans-Serif" font-size="10.00">l4/re/util/icu_svr</text>
</a>
</g>
</g>
<!-- Node11&#45;&gt;Node21 -->
<g id="edge23_Node000011_Node000021" class="edge">
<title>Node11&#45;&gt;Node21</title>
<g id="a_edge23_Node000011_Node000021"><a xlink:title=" ">
<path fill="none" stroke="#63b8ff" d="M728.55,-244.96C736.39,-235.72 745.83,-224.6 752.21,-217.09"/>
<polygon fill="#63b8ff" stroke="#63b8ff" points="725.74,-242.86 721.93,-252.75 731.07,-247.39 725.74,-242.86"/>
</a>
</g>
</g>
<!-- Node23 -->
<g id="Node000023" class="node">
<title>Node23</title>
<g id="a_Node000023"><a xlink:href="object__registry_source.html" target="_top" xlink:title=" ">
<polygon fill="white" stroke="#666666" points="351,-156.5 218,-156.5 218,-137.5 351,-137.5 351,-156.5"/>
<text text-anchor="middle" x="284.5" y="-144.5" font-family="Helvetica,sans-Serif" font-size="10.00">l4/re/util/object_registry</text>
</a>
</g>
</g>
<!-- Node11&#45;&gt;Node23 -->
<g id="edge25_Node000011_Node000023" class="edge">
<title>Node11&#45;&gt;Node23</title>
<g id="a_edge25_Node000011_Node000023"><a xlink:title=" ">
<path fill="none" stroke="#63b8ff" d="M651.11,-258.56C562.14,-253.61 405.42,-241.63 354.5,-217 325.31,-202.88 300.89,-171.71 290.24,-156.58"/>
<polygon fill="#63b8ff" stroke="#63b8ff" points="651.17,-262.07 661.34,-259.11 651.55,-255.08 651.17,-262.07"/>
</a>
</g>
</g>
<!-- Node27 -->
<g id="Node000027" class="node">
<title>Node27</title>
<g id="a_Node000027"><a xlink:href="util_2shared__cap.html" target="_top" xlink:title="Shared_cap / Shared_del_cap.">
<polygon fill="white" stroke="#666666" points="655.5,-217 539.5,-217 539.5,-198 655.5,-198 655.5,-217"/>
<text text-anchor="middle" x="597.5" y="-205" font-family="Helvetica,sans-Serif" font-size="10.00">l4/re/util/shared_cap</text>
</a>
</g>
</g>
<!-- Node11&#45;&gt;Node27 -->
<g id="edge31_Node000011_Node000027" class="edge">
<title>Node11&#45;&gt;Node27</title>
<g id="a_edge31_Node000011_Node000027"><a xlink:title=" ">
<path fill="none" stroke="#63b8ff" d="M686.39,-248.77C664.81,-238.99 635.59,-225.75 616.64,-217.17"/>
<polygon fill="#63b8ff" stroke="#63b8ff" points="685.15,-252.05 695.7,-252.98 688.04,-245.67 685.15,-252.05"/>
</a>
</g>
</g>
<!-- Node28 -->
<g id="Node000028" class="node">
<title>Node28</title>
<g id="a_Node000028"><a xlink:href="util_2unique__cap.html" target="_top" xlink:title="Unique_cap / Unique_del_cap.">
<polygon fill="white" stroke="#666666" points="479.5,-217 363.5,-217 363.5,-198 479.5,-198 479.5,-217"/>
<text text-anchor="middle" x="421.5" y="-205" font-family="Helvetica,sans-Serif" font-size="10.00">l4/re/util/unique_cap</text>
</a>
</g>
</g>
<!-- Node11&#45;&gt;Node28 -->
<g id="edge33_Node000011_Node000028" class="edge">
<title>Node11&#45;&gt;Node28</title>
<g id="a_edge33_Node000011_Node000028"><a xlink:title=" ">
<path fill="none" stroke="#63b8ff" d="M657.5,-251.19C602.56,-241.25 520.41,-226.39 468.94,-217.08"/>
<polygon fill="#63b8ff" stroke="#63b8ff" points="656.96,-254.65 667.42,-252.98 658.21,-247.76 656.96,-254.65"/>
</a>
</g>
</g>
<!-- Node13 -->
<g id="Node000013" class="node">
<title>Node13</title>
<g id="a_Node000013"><a xlink:href="server_2virtio-block_source.html" target="_top" xlink:title=" ">
<polygon fill="white" stroke="#666666" points="543,-96 446,-96 446,-66 543,-66 543,-96"/>
<text text-anchor="start" x="454" y="-84" font-family="Helvetica,sans-Serif" font-size="10.00">l4/l4virtio/server</text>
<text text-anchor="middle" x="494.5" y="-73" font-family="Helvetica,sans-Serif" font-size="10.00">/virtio&#45;block</text>
</a>
</g>
</g>
<!-- Node12&#45;&gt;Node13 -->
<g id="edge12_Node000012_Node000013" class="edge">
<title>Node12&#45;&gt;Node13</title>
<g id="a_edge12_Node000012_Node000013"><a xlink:title=" ">
<path fill="none" stroke="#63b8ff" d="M518.82,-122.96C513.5,-114 507.58,-104.03 502.91,-96.16"/>
<polygon fill="#63b8ff" stroke="#63b8ff" points="515.95,-124.98 524.07,-131.8 521.97,-121.41 515.95,-124.98"/>
</a>
</g>
</g>
<!-- Node14 -->
<g id="Node000014" class="node">
<title>Node14</title>
<g id="a_Node000014"><a xlink:href="virtio-console_source.html" target="_top" xlink:title=" ">
<polygon fill="white" stroke="#666666" points="658,-96 561,-96 561,-66 658,-66 658,-96"/>
<text text-anchor="start" x="569" y="-84" font-family="Helvetica,sans-Serif" font-size="10.00">l4/l4virtio/server</text>
<text text-anchor="middle" x="609.5" y="-73" font-family="Helvetica,sans-Serif" font-size="10.00">/virtio&#45;console</text>
</a>
</g>
</g>
<!-- Node12&#45;&gt;Node14 -->
<g id="edge13_Node000012_Node000014" class="edge">
<title>Node12&#45;&gt;Node14</title>
<g id="a_edge13_Node000012_Node000014"><a xlink:title=" ">
<path fill="none" stroke="#63b8ff" d="M557.52,-125.2C568.95,-115.7 582.2,-104.69 592.46,-96.16"/>
<polygon fill="#63b8ff" stroke="#63b8ff" points="555.04,-122.71 549.59,-131.8 559.52,-128.1 555.04,-122.71"/>
</a>
</g>
</g>
<!-- Node15 -->
<g id="Node000015" class="node">
<title>Node15</title>
<g id="a_Node000015"><a xlink:href="virtio-console-device_source.html" target="_top" xlink:title=" ">
<polygon fill="white" stroke="#666666" points="708.5,-30 586.5,-30 586.5,0 708.5,0 708.5,-30"/>
<text text-anchor="start" x="594.5" y="-18" font-family="Helvetica,sans-Serif" font-size="10.00">l4/l4virtio/server</text>
<text text-anchor="middle" x="647.5" y="-7" font-family="Helvetica,sans-Serif" font-size="10.00">/virtio&#45;console&#45;device</text>
</a>
</g>
</g>
<!-- Node12&#45;&gt;Node15 -->
<g id="edge15_Node000012_Node000015" class="edge">
<title>Node12&#45;&gt;Node15</title>
<g id="a_edge15_Node000012_Node000015"><a xlink:title=" ">
<path fill="none" stroke="#63b8ff" d="M590.88,-131.33C622.62,-122.04 657.26,-109.31 666.5,-96 680.34,-76.06 667.42,-47.33 657.18,-30.27"/>
<polygon fill="#63b8ff" stroke="#63b8ff" points="589.81,-127.99 581.15,-134.1 591.72,-134.73 589.81,-127.99"/>
</a>
</g>
</g>
<!-- Node16 -->
<g id="Node000016" class="node">
<title>Node16</title>
<g id="a_Node000016"><a xlink:href="virtio-scmi-device_source.html" target="_top" xlink:title=" ">
<polygon fill="white" stroke="#666666" points="389.5,-96 281.5,-96 281.5,-66 389.5,-66 389.5,-96"/>
<text text-anchor="start" x="289.5" y="-84" font-family="Helvetica,sans-Serif" font-size="10.00">l4/l4virtio/server</text>
<text text-anchor="middle" x="335.5" y="-73" font-family="Helvetica,sans-Serif" font-size="10.00">/virtio&#45;scmi&#45;device</text>
</a>
</g>
</g>
<!-- Node12&#45;&gt;Node16 -->
<g id="edge16_Node000012_Node000016" class="edge">
<title>Node12&#45;&gt;Node16</title>
<g id="a_edge16_Node000012_Node000016"><a xlink:title=" ">
<path fill="none" stroke="#63b8ff" d="M479.73,-128.86C448.1,-118.58 408.38,-105.68 378.63,-96.01"/>
<polygon fill="#63b8ff" stroke="#63b8ff" points="478.68,-132.19 489.27,-131.95 480.84,-125.54 478.68,-132.19"/>
</a>
</g>
</g>
<!-- Node14&#45;&gt;Node15 -->
<g id="edge14_Node000014_Node000015" class="edge">
<title>Node14&#45;&gt;Node15</title>
<g id="a_edge14_Node000014_Node000015"><a xlink:title=" ">
<path fill="none" stroke="#63b8ff" d="M623.18,-56.96C628.5,-48 634.42,-38.03 639.09,-30.16"/>
<polygon fill="#63b8ff" stroke="#63b8ff" points="620.03,-55.41 617.93,-65.8 626.05,-58.98 620.03,-55.41"/>
</a>
</g>
</g>
<!-- Node18 -->
<g id="Node000018" class="node">
<title>Node18</title>
<g id="a_Node000018"><a xlink:href="ns__fs__impl_8h_source.html" target="_top" xlink:title=" ">
<polygon fill="white" stroke="#666666" points="939,-162 832,-162 832,-132 939,-132 939,-162"/>
<text text-anchor="start" x="840" y="-150" font-family="Helvetica,sans-Serif" font-size="10.00">l4/l4re_vfs/impl/ns</text>
<text text-anchor="middle" x="885.5" y="-139" font-family="Helvetica,sans-Serif" font-size="10.00">_fs_impl.h</text>
</a>
</g>
</g>
<!-- Node17&#45;&gt;Node18 -->
<g id="edge19_Node000017_Node000018" class="edge">
<title>Node17&#45;&gt;Node18</title>
<g id="a_edge19_Node000017_Node000018"><a xlink:title=" ">
<path fill="none" stroke="#63b8ff" d="M876.63,-187.93C878.48,-179.58 880.64,-169.87 882.36,-162.11"/>
<polygon fill="#63b8ff" stroke="#63b8ff" points="873.17,-187.35 874.42,-197.87 880,-188.87 873.17,-187.35"/>
</a>
</g>
</g>
<!-- Node17&#45;&gt;Node19 -->
<g id="edge20_Node000017_Node000019" class="edge">
<title>Node17&#45;&gt;Node19</title>
<g id="a_edge20_Node000017_Node000019"><a xlink:title=" ">
<path fill="none" stroke="#63b8ff" d="M903.75,-194.23C932.55,-182.92 974.53,-166.44 999.81,-156.52"/>
<polygon fill="#63b8ff" stroke="#63b8ff" points="902.2,-191.08 894.17,-197.99 904.75,-197.6 902.2,-191.08"/>
</a>
</g>
</g>
<!-- Node19&#45;&gt;Node19 -->
<g id="edge21_Node000019_Node000019" class="edge">
<title>Node19&#45;&gt;Node19</title>
<g id="a_edge21_Node000019_Node000019"><a xlink:title=" ">
<path fill="none" stroke="#63b8ff" d="M1061.85,-157.77C1083.62,-159.64 1103.5,-156.04 1103.5,-147 1103.5,-136.57 1077.07,-133.39 1051.78,-137.47"/>
<polygon fill="#63b8ff" stroke="#63b8ff" points="1062.13,-154.28 1051.78,-156.53 1061.28,-161.23 1062.13,-154.28"/>
</a>
</g>
</g>
<!-- Node22 -->
<g id="Node000022" class="node">
<title>Node22</title>
<g id="a_Node000022"><a xlink:href="event__svr_source.html" target="_top" xlink:title=" ">
<polygon fill="white" stroke="#666666" points="813.5,-156.5 705.5,-156.5 705.5,-137.5 813.5,-137.5 813.5,-156.5"/>
<text text-anchor="middle" x="759.5" y="-144.5" font-family="Helvetica,sans-Serif" font-size="10.00">l4/re/util/event_svr</text>
</a>
</g>
</g>
<!-- Node21&#45;&gt;Node22 -->
<g id="edge24_Node000021_Node000022" class="edge">
<title>Node21&#45;&gt;Node22</title>
<g id="a_edge24_Node000021_Node000022"><a xlink:title=" ">
<path fill="none" stroke="#63b8ff" d="M759.5,-187.66C759.5,-177.24 759.5,-164.8 759.5,-156.67"/>
<polygon fill="#63b8ff" stroke="#63b8ff" points="756,-187.87 759.5,-197.87 763,-187.87 756,-187.87"/>
</a>
</g>
</g>
<!-- Node23&#45;&gt;Node16 -->
<g id="edge30_Node000023_Node000016" class="edge">
<title>Node23&#45;&gt;Node16</title>
<g id="a_edge30_Node000023_Node000016"><a xlink:title=" ">
<path fill="none" stroke="#63b8ff" d="M297.61,-129.54C305.79,-119.28 316.21,-106.2 324.06,-96.36"/>
<polygon fill="#63b8ff" stroke="#63b8ff" points="294.87,-127.37 291.38,-137.37 300.35,-131.73 294.87,-127.37"/>
</a>
</g>
</g>
<!-- Node24 -->
<g id="Node000024" class="node">
<title>Node24</title>
<g id="a_Node000024"><a xlink:href="client_2l4virtio_source.html" target="_top" xlink:title=" ">
<polygon fill="white" stroke="#666666" points="263,-96 170,-96 170,-66 263,-66 263,-96"/>
<text text-anchor="start" x="178" y="-84" font-family="Helvetica,sans-Serif" font-size="10.00">l4/l4virtio/client</text>
<text text-anchor="middle" x="216.5" y="-73" font-family="Helvetica,sans-Serif" font-size="10.00">/l4virtio</text>
</a>
</g>
</g>
<!-- Node23&#45;&gt;Node24 -->
<g id="edge26_Node000023_Node000024" class="edge">
<title>Node23&#45;&gt;Node24</title>
<g id="a_edge26_Node000023_Node000024"><a xlink:title=" ">
<path fill="none" stroke="#63b8ff" d="M267.94,-130.41C256.81,-119.94 242.28,-106.26 231.5,-96.12"/>
<polygon fill="#63b8ff" stroke="#63b8ff" points="265.65,-133.06 275.33,-137.37 270.45,-127.97 265.65,-133.06"/>
</a>
</g>
</g>
<!-- Node25 -->
<g id="Node000025" class="node">
<title>Node25</title>
<g id="a_Node000025"><a xlink:href="client_2virtio-block_source.html" target="_top" xlink:title=" ">
<polygon fill="white" stroke="#666666" points="263,-30 170,-30 170,0 263,0 263,-30"/>
<text text-anchor="start" x="178" y="-18" font-family="Helvetica,sans-Serif" font-size="10.00">l4/l4virtio/client</text>
<text text-anchor="middle" x="216.5" y="-7" font-family="Helvetica,sans-Serif" font-size="10.00">/virtio&#45;block</text>
</a>
</g>
</g>
<!-- Node23&#45;&gt;Node25 -->
<g id="edge29_Node000023_Node000025" class="edge">
<title>Node23&#45;&gt;Node25</title>
<g id="a_edge29_Node000023_Node000025"><a xlink:title=" ">
<path fill="none" stroke="#63b8ff" d="M217.35,-134.49C195.51,-127.22 173.57,-115.36 160.5,-96 144.75,-72.67 172.98,-45.96 194.76,-30.06"/>
<polygon fill="#63b8ff" stroke="#63b8ff" points="216.42,-137.87 227,-137.43 218.45,-131.17 216.42,-137.87"/>
</a>
</g>
</g>
<!-- Node24&#45;&gt;Node25 -->
<g id="edge27_Node000024_Node000025" class="edge">
<title>Node24&#45;&gt;Node25</title>
<g id="a_edge27_Node000024_Node000025"><a xlink:title=" ">
<path fill="none" stroke="#63b8ff" d="M216.5,-55.54C216.5,-46.96 216.5,-37.61 216.5,-30.16"/>
<polygon fill="#63b8ff" stroke="#63b8ff" points="213,-55.8 216.5,-65.8 220,-55.8 213,-55.8"/>
</a>
</g>
</g>
<!-- Node26 -->
<g id="Node000026" class="node">
<title>Node26</title>
<g id="a_Node000026"><a xlink:href="virtio-net_source.html" target="_top" xlink:title=" ">
<polygon fill="white" stroke="#666666" points="151,-30 58,-30 58,0 151,0 151,-30"/>
<text text-anchor="start" x="66" y="-18" font-family="Helvetica,sans-Serif" font-size="10.00">l4/l4virtio/client</text>
<text text-anchor="middle" x="104.5" y="-7" font-family="Helvetica,sans-Serif" font-size="10.00">/virtio&#45;net</text>
</a>
</g>
</g>
<!-- Node24&#45;&gt;Node26 -->
<g id="edge28_Node000024_Node000026" class="edge">
<title>Node24&#45;&gt;Node26</title>
<g id="a_edge28_Node000024_Node000026"><a xlink:title=" ">
<path fill="none" stroke="#63b8ff" d="M183.19,-60.97C165.81,-51.03 144.91,-39.09 129.02,-30.01"/>
<polygon fill="#63b8ff" stroke="#63b8ff" points="181.5,-64.03 191.92,-65.95 184.98,-57.95 181.5,-64.03"/>
</a>
</g>
</g>
<!-- Node27&#45;&gt;Node12 -->
<g id="edge32_Node000027_Node000012" class="edge">
<title>Node27&#45;&gt;Node12</title>
<g id="a_edge32_Node000027_Node000012"><a xlink:title=" ">
<path fill="none" stroke="#63b8ff" d="M580.24,-190.97C570.28,-182.01 557.86,-170.82 548.18,-162.11"/>
<polygon fill="#63b8ff" stroke="#63b8ff" points="578.13,-193.78 587.91,-197.87 582.82,-188.58 578.13,-193.78"/>
</a>
</g>
</g>
<!-- Node28&#45;&gt;Node12 -->
<g id="edge37_Node000028_Node000012" class="edge">
<title>Node28&#45;&gt;Node12</title>
<g id="a_edge37_Node000028_Node000012"><a xlink:title=" ">
<path fill="none" stroke="#63b8ff" d="M446.98,-193.07C464.55,-183.81 487.87,-171.52 505.72,-162.11"/>
<polygon fill="#63b8ff" stroke="#63b8ff" points="445.09,-190.11 437.88,-197.87 448.36,-196.3 445.09,-190.11"/>
</a>
</g>
</g>
<!-- Node28&#45;&gt;Node13 -->
<g id="edge38_Node000028_Node000013" class="edge">
<title>Node28&#45;&gt;Node13</title>
<g id="a_edge38_Node000028_Node000013"><a xlink:title=" ">
<path fill="none" stroke="#63b8ff" d="M431.62,-189.24C446.17,-164.43 472.73,-119.13 486.2,-96.16"/>
<polygon fill="#63b8ff" stroke="#63b8ff" points="428.56,-187.55 426.52,-197.94 434.59,-191.09 428.56,-187.55"/>
</a>
</g>
</g>
<!-- Node28&#45;&gt;Node20 -->
<g id="edge39_Node000028_Node000020" class="edge">
<title>Node28&#45;&gt;Node20</title>
<g id="a_edge39_Node000028_Node000020"><a xlink:title=" ">
<path fill="none" stroke="#63b8ff" d="M463.64,-195.4C506.56,-184.08 572.2,-166.79 611.18,-156.52"/>
<polygon fill="#63b8ff" stroke="#63b8ff" points="462.56,-192.06 453.78,-197.99 464.34,-198.83 462.56,-192.06"/>
</a>
</g>
</g>
<!-- Node28&#45;&gt;Node23 -->
<g id="edge40_Node000028_Node000023" class="edge">
<title>Node28&#45;&gt;Node23</title>
<g id="a_edge40_Node000028_Node000023"><a xlink:title=" ">
<path fill="none" stroke="#63b8ff" d="M392.07,-193.93C365.62,-182.64 327.49,-166.36 304.45,-156.52"/>
<polygon fill="#63b8ff" stroke="#63b8ff" points="391.01,-197.29 401.58,-197.99 393.76,-190.85 391.01,-197.29"/>
</a>
</g>
</g>
<!-- Node28&#45;&gt;Node24 -->
<g id="edge34_Node000028_Node000024" class="edge">
<title>Node28&#45;&gt;Node24</title>
<g id="a_edge34_Node000028_Node000024"><a xlink:title=" ">
<path fill="none" stroke="#63b8ff" d="M410.97,-189.03C400.04,-172.24 381.46,-147.23 359.5,-132 343.56,-120.94 298.52,-106.03 263.2,-95.37"/>
<polygon fill="#63b8ff" stroke="#63b8ff" points="408.22,-191.22 416.5,-197.83 414.15,-187.5 408.22,-191.22"/>
</a>
</g>
</g>
<!-- Node28&#45;&gt;Node25 -->
<g id="edge35_Node000028_Node000025" class="edge">
<title>Node28&#45;&gt;Node25</title>
<g id="a_edge35_Node000028_Node000025"><a xlink:title=" ">
<path fill="none" stroke="#63b8ff" d="M424.26,-187.68C427.48,-157.92 429,-99.91 398.5,-66 364.54,-28.24 304.98,-17.87 263.27,-15.57"/>
<polygon fill="#63b8ff" stroke="#63b8ff" points="420.74,-187.55 422.95,-197.92 427.69,-188.44 420.74,-187.55"/>
</a>
</g>
</g>
<!-- Node28&#45;&gt;Node26 -->
<g id="edge36_Node000028_Node000026" class="edge">
<title>Node28&#45;&gt;Node26</title>
<g id="a_edge36_Node000028_Node000026"><a xlink:title=" ">
<path fill="none" stroke="#63b8ff" d="M353.09,-203.54C309.16,-199.02 252.33,-188.07 208.5,-162 155.54,-130.5 122.29,-60.39 109.94,-30.24"/>
<polygon fill="#63b8ff" stroke="#63b8ff" points="352.83,-207.04 363.11,-204.49 353.48,-200.07 352.83,-207.04"/>
</a>
</g>
</g>
<!-- Node29&#45;&gt;Node23 -->
<g id="edge43_Node000029_Node000023" class="edge">
<title>Node29&#45;&gt;Node23</title>
<g id="a_edge43_Node000029_Node000023"><a xlink:title=" ">
<path fill="none" stroke="#63b8ff" d="M284.5,-303.06C284.5,-265.62 284.5,-183.45 284.5,-156.64"/>
<polygon fill="#63b8ff" stroke="#63b8ff" points="281,-303.13 284.5,-313.13 288,-303.13 281,-303.13"/>
</a>
</g>
</g>
</g>
</svg>
