<?xml version="1.0" encoding="UTF-8" standalone="no"?>
<!DOCTYPE svg PUBLIC "-//W3C//DTD SVG 1.1//EN"
 "http://www.w3.org/Graphics/SVG/1.1/DTD/svg11.dtd">
<!-- Generated by graphviz version 2.42.4 (0)
 -->
<!-- Title: l4/sys/types.h Pages: 1 -->
<svg width="379pt" height="192pt"
 viewBox="0.00 0.00 378.51 192.00" xmlns="http://www.w3.org/2000/svg" xmlns:xlink="http://www.w3.org/1999/xlink">
<g id="graph0" class="graph" transform="scale(1 1) rotate(0) translate(4 188)">
<title>l4/sys/types.h</title>
<!-- Node1 -->
<g id="Node000001" class="node">
<title>Node1</title>
<g id="a_Node000001"><a xlink:title="Common L4 ABI Data Types.">
<polygon fill="#999999" stroke="#666666" points="224.46,-184 140.46,-184 140.46,-165 224.46,-165 224.46,-184"/>
<text text-anchor="middle" x="182.46" y="-172" font-family="Helvetica,sans-Serif" font-size="10.00">l4/sys/types.h</text>
</a>
</g>
</g>
<!-- Node2 -->
<g id="Node000002" class="node">
<title>Node2</title>
<g id="a_Node000002"><a xlink:href="l4_2sys_2l4int_8h.html" target="_top" xlink:title="Fixed sized integer types, generic version.">
<polygon fill="white" stroke="#666666" points="105.96,-74 26.96,-74 26.96,-55 105.96,-55 105.96,-74"/>
<text text-anchor="middle" x="66.46" y="-62" font-family="Helvetica,sans-Serif" font-size="10.00">l4/sys/l4int.h</text>
</a>
</g>
</g>
<!-- Node1&#45;&gt;Node2 -->
<g id="edge1_Node000001_Node000002" class="edge">
<title>Node1&#45;&gt;Node2</title>
<g id="a_edge1_Node000001_Node000002"><a xlink:title=" ">
<path fill="none" stroke="#63b8ff" d="M140.08,-168.87C92.87,-162.74 20.98,-150.15 4.46,-129 -10.12,-110.32 15.2,-91.16 37.74,-78.85"/>
<polygon fill="#63b8ff" stroke="#63b8ff" points="39.51,-81.87 46.78,-74.17 36.29,-75.65 39.51,-81.87"/>
</a>
</g>
</g>
<!-- Node3 -->
<g id="Node000003" class="node">
<title>Node3</title>
<g id="a_Node000003"><a xlink:href="compiler_8h.html" target="_top" xlink:title="L4 compiler related defines.">
<polygon fill="white" stroke="#666666" points="290.96,-74 191.96,-74 191.96,-55 290.96,-55 290.96,-74"/>
<text text-anchor="middle" x="241.46" y="-62" font-family="Helvetica,sans-Serif" font-size="10.00">l4/sys/compiler.h</text>
</a>
</g>
</g>
<!-- Node1&#45;&gt;Node3 -->
<g id="edge2_Node000001_Node000003" class="edge">
<title>Node1&#45;&gt;Node3</title>
<g id="a_edge2_Node000001_Node000003"><a xlink:title=" ">
<path fill="none" stroke="#63b8ff" d="M224.5,-169.17C272.73,-163.24 347.39,-150.75 364.46,-129 386.3,-101.17 342.36,-84.35 301.06,-75.08"/>
<polygon fill="#63b8ff" stroke="#63b8ff" points="301.73,-71.64 291.22,-73 300.27,-78.49 301.73,-71.64"/>
</a>
</g>
</g>
<!-- Node5 -->
<g id="Node000005" class="node">
<title>Node5</title>
<g id="a_Node000005"><a xlink:href="l4_2sys_2consts_8h.html" target="_top" xlink:title="Common constants.">
<polygon fill="white" stroke="#666666" points="226.96,-129 137.96,-129 137.96,-110 226.96,-110 226.96,-129"/>
<text text-anchor="middle" x="182.46" y="-117" font-family="Helvetica,sans-Serif" font-size="10.00">l4/sys/consts.h</text>
</a>
</g>
</g>
<!-- Node1&#45;&gt;Node5 -->
<g id="edge4_Node000001_Node000005" class="edge">
<title>Node1&#45;&gt;Node5</title>
<g id="a_edge4_Node000001_Node000005"><a xlink:title=" ">
<path fill="none" stroke="#63b8ff" d="M182.46,-164.75C182.46,-157.8 182.46,-147.85 182.46,-139.13"/>
<polygon fill="#63b8ff" stroke="#63b8ff" points="185.96,-139.09 182.46,-129.09 178.96,-139.09 185.96,-139.09"/>
</a>
</g>
</g>
<!-- Node6 -->
<g id="Node000006" class="node">
<title>Node6</title>
<g id="a_Node000006"><a xlink:href="____l4__fpage_8h_source.html" target="_top" xlink:title=" ">
<polygon fill="white" stroke="#666666" points="355.46,-129 245.46,-129 245.46,-110 355.46,-110 355.46,-129"/>
<text text-anchor="middle" x="300.46" y="-117" font-family="Helvetica,sans-Serif" font-size="10.00">l4/sys/__l4_fpage.h</text>
</a>
</g>
</g>
<!-- Node1&#45;&gt;Node6 -->
<g id="edge7_Node000001_Node000006" class="edge">
<title>Node1&#45;&gt;Node6</title>
<g id="a_edge7_Node000001_Node000006"><a xlink:title=" ">
<path fill="none" stroke="#63b8ff" d="M201.42,-164.98C220.49,-156.42 250.12,-143.11 272.01,-133.28"/>
<polygon fill="#63b8ff" stroke="#63b8ff" points="273.47,-136.46 281.16,-129.17 270.6,-130.07 273.47,-136.46"/>
</a>
</g>
</g>
<!-- Node7 -->
<g id="Node000007" class="node">
<title>Node7</title>
<g id="a_Node000007"><a xlink:href="____timeout_8h_source.html" target="_top" xlink:title=" ">
<polygon fill="white" stroke="#666666" points="119.46,-129 13.46,-129 13.46,-110 119.46,-110 119.46,-129"/>
<text text-anchor="middle" x="66.46" y="-117" font-family="Helvetica,sans-Serif" font-size="10.00">l4/sys/__timeout.h</text>
</a>
</g>
</g>
<!-- Node1&#45;&gt;Node7 -->
<g id="edge9_Node000001_Node000007" class="edge">
<title>Node1&#45;&gt;Node7</title>
<g id="a_edge9_Node000001_Node000007"><a xlink:title=" ">
<path fill="none" stroke="#63b8ff" d="M163.82,-164.98C145.16,-156.46 116.21,-143.23 94.72,-133.41"/>
<polygon fill="#63b8ff" stroke="#63b8ff" points="95.99,-130.14 85.44,-129.17 93.08,-136.51 95.99,-130.14"/>
</a>
</g>
</g>
<!-- Node4 -->
<g id="Node000004" class="node">
<title>Node4</title>
<g id="a_Node000004"><a xlink:title=" ">
<polygon fill="#e0e0e0" stroke="#999999" points="287.46,-19 195.46,-19 195.46,0 287.46,0 287.46,-19"/>
<text text-anchor="middle" x="241.46" y="-7" font-family="Helvetica,sans-Serif" font-size="10.00">l4/sys/linkage.h</text>
</a>
</g>
</g>
<!-- Node3&#45;&gt;Node4 -->
<g id="edge3_Node000003_Node000004" class="edge">
<title>Node3&#45;&gt;Node4</title>
<g id="a_edge3_Node000003_Node000004"><a xlink:title=" ">
<path fill="none" stroke="#63b8ff" d="M241.46,-54.75C241.46,-47.8 241.46,-37.85 241.46,-29.13"/>
<polygon fill="#63b8ff" stroke="#63b8ff" points="244.96,-29.09 241.46,-19.09 237.96,-29.09 244.96,-29.09"/>
</a>
</g>
</g>
<!-- Node5&#45;&gt;Node2 -->
<g id="edge6_Node000005_Node000002" class="edge">
<title>Node5&#45;&gt;Node2</title>
<g id="a_edge6_Node000005_Node000002"><a xlink:title=" ">
<path fill="none" stroke="#63b8ff" d="M163.82,-109.98C145.16,-101.46 116.21,-88.23 94.72,-78.41"/>
<polygon fill="#63b8ff" stroke="#63b8ff" points="95.99,-75.14 85.44,-74.17 93.08,-81.51 95.99,-75.14"/>
</a>
</g>
</g>
<!-- Node5&#45;&gt;Node3 -->
<g id="edge5_Node000005_Node000003" class="edge">
<title>Node5&#45;&gt;Node3</title>
<g id="a_edge5_Node000005_Node000003"><a xlink:title=" ">
<path fill="none" stroke="#63b8ff" d="M191.94,-109.98C200.66,-102.15 213.8,-90.34 224.36,-80.86"/>
<polygon fill="#63b8ff" stroke="#63b8ff" points="226.71,-83.46 231.81,-74.17 222.03,-78.25 226.71,-83.46"/>
</a>
</g>
</g>
<!-- Node6&#45;&gt;Node3 -->
<g id="edge8_Node000006_Node000003" class="edge">
<title>Node6&#45;&gt;Node3</title>
<g id="a_edge8_Node000006_Node000003"><a xlink:title=" ">
<path fill="none" stroke="#63b8ff" d="M290.98,-109.98C282.26,-102.15 269.12,-90.34 258.56,-80.86"/>
<polygon fill="#63b8ff" stroke="#63b8ff" points="260.89,-78.25 251.11,-74.17 256.21,-83.46 260.89,-78.25"/>
</a>
</g>
</g>
<!-- Node7&#45;&gt;Node2 -->
<g id="edge10_Node000007_Node000002" class="edge">
<title>Node7&#45;&gt;Node2</title>
<g id="a_edge10_Node000007_Node000002"><a xlink:title=" ">
<path fill="none" stroke="#63b8ff" d="M66.46,-109.75C66.46,-102.8 66.46,-92.85 66.46,-84.13"/>
<polygon fill="#63b8ff" stroke="#63b8ff" points="69.96,-84.09 66.46,-74.09 62.96,-84.09 69.96,-84.09"/>
</a>
</g>
</g>
<!-- Node7&#45;&gt;Node3 -->
<g id="edge11_Node000007_Node000003" class="edge">
<title>Node7&#45;&gt;Node3</title>
<g id="a_edge11_Node000007_Node000003"><a xlink:title=" ">
<path fill="none" stroke="#63b8ff" d="M94.58,-109.98C124.08,-101.05 170.65,-86.94 203.43,-77.02"/>
<polygon fill="#63b8ff" stroke="#63b8ff" points="204.57,-80.33 213.12,-74.08 202.54,-73.63 204.57,-80.33"/>
</a>
</g>
</g>
</g>
</svg>
