<?xml version="1.0" encoding="UTF-8" standalone="no"?>
<!DOCTYPE svg PUBLIC "-//W3C//DTD SVG 1.1//EN"
 "http://www.w3.org/Graphics/SVG/1.1/DTD/svg11.dtd">
<!-- Generated by graphviz version 2.43.0 (0)
 -->
<!-- Title: l4/sys/vm Pages: 1 -->
<svg width="825pt" height="808pt"
 viewBox="0.00 0.00 824.54 808.00" xmlns="http://www.w3.org/2000/svg" xmlns:xlink="http://www.w3.org/1999/xlink">
<g id="graph0" class="graph" transform="scale(1 1) rotate(0) translate(4 804)">
<title>l4/sys/vm</title>
<!-- Node1 -->
<g id="Node000001" class="node">
<title>Node1</title>
<g id="a_Node000001"><a xlink:title="Virtualization interface.">
<polygon fill="#999999" stroke="#666666" points="112.5,-800 48.5,-800 48.5,-781 112.5,-781 112.5,-800"/>
<text text-anchor="middle" x="80.5" y="-788" font-family="Helvetica,sans-Serif" font-size="10.00">l4/sys/vm</text>
</a>
</g>
</g>
<!-- Node2 -->
<g id="Node000002" class="node">
<title>Node2</title>
<g id="a_Node000002"><a xlink:title=" ">
<polygon fill="#e0e0e0" stroke="#999999" points="73,-745 0,-745 0,-726 73,-726 73,-745"/>
<text text-anchor="middle" x="36.5" y="-733" font-family="Helvetica,sans-Serif" font-size="10.00">l4/sys/vm.h</text>
</a>
</g>
</g>
<!-- Node1&#45;&gt;Node2 -->
<g id="edge1_Node000001_Node000002" class="edge">
<title>Node1&#45;&gt;Node2</title>
<g id="a_edge1_Node000001_Node000002"><a xlink:title=" ">
<path fill="none" stroke="#63b8ff" d="M73.23,-780.75C66.96,-773.18 57.71,-762.05 50.07,-752.84"/>
<polygon fill="#63b8ff" stroke="#63b8ff" points="52.71,-750.55 43.63,-745.09 47.33,-755.02 52.71,-750.55"/>
</a>
</g>
</g>
<!-- Node3 -->
<g id="Node000003" class="node">
<title>Node3</title>
<g id="a_Node000003"><a xlink:href="task.html" target="_top" xlink:title="Common task related definitions.">
<polygon fill="white" stroke="#666666" points="160,-745 91,-745 91,-726 160,-726 160,-745"/>
<text text-anchor="middle" x="125.5" y="-733" font-family="Helvetica,sans-Serif" font-size="10.00">l4/sys/task</text>
</a>
</g>
</g>
<!-- Node1&#45;&gt;Node3 -->
<g id="edge2_Node000001_Node000003" class="edge">
<title>Node1&#45;&gt;Node3</title>
<g id="a_edge2_Node000001_Node000003"><a xlink:title=" ">
<path fill="none" stroke="#63b8ff" d="M87.93,-780.75C94.35,-773.18 103.81,-762.05 111.62,-752.84"/>
<polygon fill="#63b8ff" stroke="#63b8ff" points="114.4,-754.98 118.21,-745.09 109.07,-750.45 114.4,-754.98"/>
</a>
</g>
</g>
<!-- Node4 -->
<g id="Node000004" class="node">
<title>Node4</title>
<g id="a_Node000004"><a xlink:href="l4_2sys_2task_8h.html" target="_top" xlink:title="Common task related definitions.">
<polygon fill="white" stroke="#666666" points="307.5,-354.5 229.5,-354.5 229.5,-335.5 307.5,-335.5 307.5,-354.5"/>
<text text-anchor="middle" x="268.5" y="-342.5" font-family="Helvetica,sans-Serif" font-size="10.00">l4/sys/task.h</text>
</a>
</g>
</g>
<!-- Node3&#45;&gt;Node4 -->
<g id="edge3_Node000003_Node000004" class="edge">
<title>Node3&#45;&gt;Node4</title>
<g id="a_edge3_Node000003_Node000004"><a xlink:title=" ">
<path fill="none" stroke="#63b8ff" d="M125.58,-725.94C126.07,-700.27 129.23,-621.87 149.5,-561 175.86,-481.86 231.37,-398.19 256.13,-363.07"/>
<polygon fill="#63b8ff" stroke="#63b8ff" points="259.03,-365.04 261.99,-354.86 253.33,-360.97 259.03,-365.04"/>
</a>
</g>
</g>
<!-- Node15 -->
<g id="Node000015" class="node">
<title>Node15</title>
<g id="a_Node000015"><a xlink:href="capability.html" target="_top" xlink:title="L4::Cap related definitions.">
<polygon fill="white" stroke="#666666" points="256.5,-690 160.5,-690 160.5,-671 256.5,-671 256.5,-690"/>
<text text-anchor="middle" x="208.5" y="-678" font-family="Helvetica,sans-Serif" font-size="10.00">l4/sys/capability</text>
</a>
</g>
</g>
<!-- Node3&#45;&gt;Node15 -->
<g id="edge24_Node000003_Node000015" class="edge">
<title>Node3&#45;&gt;Node15</title>
<g id="a_edge24_Node000003_Node000015"><a xlink:title=" ">
<path fill="none" stroke="#63b8ff" d="M138.84,-725.98C151.59,-717.84 171.05,-705.41 186.17,-695.76"/>
<polygon fill="#63b8ff" stroke="#63b8ff" points="188.38,-698.5 194.92,-690.17 184.61,-692.6 188.38,-698.5"/>
</a>
</g>
</g>
<!-- Node5 -->
<g id="Node000005" class="node">
<title>Node5</title>
<g id="a_Node000005"><a xlink:href="l4_2sys_2types_8h.html" target="_top" xlink:title="Common L4 ABI Data Types.">
<polygon fill="white" stroke="#666666" points="285.5,-184 201.5,-184 201.5,-165 285.5,-165 285.5,-184"/>
<text text-anchor="middle" x="243.5" y="-172" font-family="Helvetica,sans-Serif" font-size="10.00">l4/sys/types.h</text>
</a>
</g>
</g>
<!-- Node4&#45;&gt;Node5 -->
<g id="edge4_Node000004_Node000005" class="edge">
<title>Node4&#45;&gt;Node5</title>
<g id="a_edge4_Node000004_Node000005"><a xlink:title=" ">
<path fill="none" stroke="#63b8ff" d="M267.23,-335.41C263.37,-309.39 251.73,-230.97 246.32,-194.51"/>
<polygon fill="#63b8ff" stroke="#63b8ff" points="249.73,-193.65 244.8,-184.27 242.81,-194.68 249.73,-193.65"/>
</a>
</g>
</g>
<!-- Node12 -->
<g id="Node000012" class="node">
<title>Node12</title>
<g id="a_Node000012"><a xlink:href="l4_2sys_2utcb_8h.html" target="_top" xlink:title="UTCB definitions.">
<polygon fill="white" stroke="#666666" points="390.5,-239 312.5,-239 312.5,-220 390.5,-220 390.5,-239"/>
<text text-anchor="middle" x="351.5" y="-227" font-family="Helvetica,sans-Serif" font-size="10.00">l4/sys/utcb.h</text>
</a>
</g>
</g>
<!-- Node4&#45;&gt;Node12 -->
<g id="edge15_Node000004_Node000012" class="edge">
<title>Node4&#45;&gt;Node12</title>
<g id="a_edge15_Node000004_Node000012"><a xlink:title=" ">
<path fill="none" stroke="#63b8ff" d="M274.74,-335.47C288.38,-316.82 321.07,-272.11 339.08,-247.49"/>
<polygon fill="#63b8ff" stroke="#63b8ff" points="342.11,-249.27 345.19,-239.13 336.46,-245.14 342.11,-249.27"/>
</a>
</g>
</g>
<!-- Node13 -->
<g id="Node000013" class="node">
<title>Node13</title>
<g id="a_Node000013"><a xlink:href="l4_2sys_2ipc_8h.html" target="_top" xlink:title="Common IPC interface.">
<polygon fill="white" stroke="#666666" points="448,-294 377,-294 377,-275 448,-275 448,-294"/>
<text text-anchor="middle" x="412.5" y="-282" font-family="Helvetica,sans-Serif" font-size="10.00">l4/sys/ipc.h</text>
</a>
</g>
</g>
<!-- Node4&#45;&gt;Node13 -->
<g id="edge19_Node000004_Node000013" class="edge">
<title>Node4&#45;&gt;Node13</title>
<g id="a_edge19_Node000004_Node000013"><a xlink:title=" ">
<path fill="none" stroke="#63b8ff" d="M289.44,-335.49C313.86,-325.57 354.43,-309.09 382.27,-297.78"/>
<polygon fill="#63b8ff" stroke="#63b8ff" points="383.59,-301.02 391.54,-294.02 380.95,-294.54 383.59,-301.02"/>
</a>
</g>
</g>
<!-- Node6 -->
<g id="Node000006" class="node">
<title>Node6</title>
<g id="a_Node000006"><a xlink:href="l4_2sys_2l4int_8h.html" target="_top" xlink:title="Fixed sized integer types, generic version.">
<polygon fill="white" stroke="#666666" points="247,-74 168,-74 168,-55 247,-55 247,-74"/>
<text text-anchor="middle" x="207.5" y="-62" font-family="Helvetica,sans-Serif" font-size="10.00">l4/sys/l4int.h</text>
</a>
</g>
</g>
<!-- Node5&#45;&gt;Node6 -->
<g id="edge5_Node000005_Node000006" class="edge">
<title>Node5&#45;&gt;Node6</title>
<g id="a_edge5_Node000005_Node000006"><a xlink:title=" ">
<path fill="none" stroke="#63b8ff" d="M226.61,-164.95C213.79,-157.43 197.12,-145.15 189.5,-129 182.49,-114.13 188.98,-95.99 196.05,-82.91"/>
<polygon fill="#63b8ff" stroke="#63b8ff" points="199.23,-84.41 201.36,-74.03 193.22,-80.82 199.23,-84.41"/>
</a>
</g>
</g>
<!-- Node7 -->
<g id="Node000007" class="node">
<title>Node7</title>
<g id="a_Node000007"><a xlink:href="compiler_8h.html" target="_top" xlink:title="L4 compiler related defines.">
<polygon fill="white" stroke="#666666" points="551,-74 452,-74 452,-55 551,-55 551,-74"/>
<text text-anchor="middle" x="501.5" y="-62" font-family="Helvetica,sans-Serif" font-size="10.00">l4/sys/compiler.h</text>
</a>
</g>
</g>
<!-- Node5&#45;&gt;Node7 -->
<g id="edge6_Node000005_Node000007" class="edge">
<title>Node5&#45;&gt;Node7</title>
<g id="a_edge6_Node000005_Node000007"><a xlink:title=" ">
<path fill="none" stroke="#63b8ff" d="M285.85,-169.04C341.49,-162.49 435.42,-148.86 463.5,-129 479.2,-117.9 489.53,-98.07 495.4,-83.52"/>
<polygon fill="#63b8ff" stroke="#63b8ff" points="498.72,-84.65 498.91,-74.05 492.15,-82.22 498.72,-84.65"/>
</a>
</g>
</g>
<!-- Node9 -->
<g id="Node000009" class="node">
<title>Node9</title>
<g id="a_Node000009"><a xlink:href="l4_2sys_2consts_8h.html" target="_top" xlink:title="Common constants.">
<polygon fill="white" stroke="#666666" points="288,-129 199,-129 199,-110 288,-110 288,-129"/>
<text text-anchor="middle" x="243.5" y="-117" font-family="Helvetica,sans-Serif" font-size="10.00">l4/sys/consts.h</text>
</a>
</g>
</g>
<!-- Node5&#45;&gt;Node9 -->
<g id="edge8_Node000005_Node000009" class="edge">
<title>Node5&#45;&gt;Node9</title>
<g id="a_edge8_Node000005_Node000009"><a xlink:title=" ">
<path fill="none" stroke="#63b8ff" d="M243.5,-164.75C243.5,-157.8 243.5,-147.85 243.5,-139.13"/>
<polygon fill="#63b8ff" stroke="#63b8ff" points="247,-139.09 243.5,-129.09 240,-139.09 247,-139.09"/>
</a>
</g>
</g>
<!-- Node10 -->
<g id="Node000010" class="node">
<title>Node10</title>
<g id="a_Node000010"><a xlink:href="____l4__fpage_8h_source.html" target="_top" xlink:title=" ">
<polygon fill="white" stroke="#666666" points="454.5,-129 344.5,-129 344.5,-110 454.5,-110 454.5,-129"/>
<text text-anchor="middle" x="399.5" y="-117" font-family="Helvetica,sans-Serif" font-size="10.00">l4/sys/__l4_fpage.h</text>
</a>
</g>
</g>
<!-- Node5&#45;&gt;Node10 -->
<g id="edge11_Node000005_Node000010" class="edge">
<title>Node5&#45;&gt;Node10</title>
<g id="a_edge11_Node000005_Node000010"><a xlink:title=" ">
<path fill="none" stroke="#63b8ff" d="M268.56,-164.98C294.53,-156.16 335.31,-142.31 364.46,-132.41"/>
<polygon fill="#63b8ff" stroke="#63b8ff" points="365.9,-135.61 374.24,-129.08 363.65,-128.99 365.9,-135.61"/>
</a>
</g>
</g>
<!-- Node11 -->
<g id="Node000011" class="node">
<title>Node11</title>
<g id="a_Node000011"><a xlink:href="____timeout_8h_source.html" target="_top" xlink:title=" ">
<polygon fill="white" stroke="#666666" points="142.5,-129 36.5,-129 36.5,-110 142.5,-110 142.5,-129"/>
<text text-anchor="middle" x="89.5" y="-117" font-family="Helvetica,sans-Serif" font-size="10.00">l4/sys/__timeout.h</text>
</a>
</g>
</g>
<!-- Node5&#45;&gt;Node11 -->
<g id="edge13_Node000005_Node000011" class="edge">
<title>Node5&#45;&gt;Node11</title>
<g id="a_edge13_Node000005_Node000011"><a xlink:title=" ">
<path fill="none" stroke="#63b8ff" d="M218.76,-164.98C193.13,-156.16 152.87,-142.31 124.09,-132.41"/>
<polygon fill="#63b8ff" stroke="#63b8ff" points="125.03,-129.03 114.44,-129.08 122.75,-135.65 125.03,-129.03"/>
</a>
</g>
</g>
<!-- Node8 -->
<g id="Node000008" class="node">
<title>Node8</title>
<g id="a_Node000008"><a xlink:title=" ">
<polygon fill="#e0e0e0" stroke="#999999" points="547.5,-19 455.5,-19 455.5,0 547.5,0 547.5,-19"/>
<text text-anchor="middle" x="501.5" y="-7" font-family="Helvetica,sans-Serif" font-size="10.00">l4/sys/linkage.h</text>
</a>
</g>
</g>
<!-- Node7&#45;&gt;Node8 -->
<g id="edge7_Node000007_Node000008" class="edge">
<title>Node7&#45;&gt;Node8</title>
<g id="a_edge7_Node000007_Node000008"><a xlink:title=" ">
<path fill="none" stroke="#63b8ff" d="M501.5,-54.75C501.5,-47.8 501.5,-37.85 501.5,-29.13"/>
<polygon fill="#63b8ff" stroke="#63b8ff" points="505,-29.09 501.5,-19.09 498,-29.09 505,-29.09"/>
</a>
</g>
</g>
<!-- Node9&#45;&gt;Node6 -->
<g id="edge10_Node000009_Node000006" class="edge">
<title>Node9&#45;&gt;Node6</title>
<g id="a_edge10_Node000009_Node000006"><a xlink:title=" ">
<path fill="none" stroke="#63b8ff" d="M237.56,-109.75C232.52,-102.34 225.16,-91.5 218.99,-82.41"/>
<polygon fill="#63b8ff" stroke="#63b8ff" points="221.85,-80.39 213.33,-74.09 216.06,-84.33 221.85,-80.39"/>
</a>
</g>
</g>
<!-- Node9&#45;&gt;Node7 -->
<g id="edge9_Node000009_Node000007" class="edge">
<title>Node9&#45;&gt;Node7</title>
<g id="a_edge9_Node000009_Node000007"><a xlink:title=" ">
<path fill="none" stroke="#63b8ff" d="M284.95,-109.98C329.77,-100.78 401.27,-86.09 449.75,-76.13"/>
<polygon fill="#63b8ff" stroke="#63b8ff" points="450.63,-79.52 459.72,-74.08 449.22,-72.67 450.63,-79.52"/>
</a>
</g>
</g>
<!-- Node10&#45;&gt;Node7 -->
<g id="edge12_Node000010_Node000007" class="edge">
<title>Node10&#45;&gt;Node7</title>
<g id="a_edge12_Node000010_Node000007"><a xlink:title=" ">
<path fill="none" stroke="#63b8ff" d="M415.89,-109.98C432.07,-101.57 457.07,-88.59 475.88,-78.81"/>
<polygon fill="#63b8ff" stroke="#63b8ff" points="477.55,-81.89 484.81,-74.17 474.33,-75.68 477.55,-81.89"/>
</a>
</g>
</g>
<!-- Node11&#45;&gt;Node6 -->
<g id="edge14_Node000011_Node000006" class="edge">
<title>Node11&#45;&gt;Node6</title>
<g id="a_edge14_Node000011_Node000006"><a xlink:title=" ">
<path fill="none" stroke="#63b8ff" d="M108.46,-109.98C127.53,-101.42 157.16,-88.11 179.05,-78.28"/>
<polygon fill="#63b8ff" stroke="#63b8ff" points="180.51,-81.46 188.2,-74.17 177.64,-75.07 180.51,-81.46"/>
</a>
</g>
</g>
<!-- Node12&#45;&gt;Node5 -->
<g id="edge16_Node000012_Node000005" class="edge">
<title>Node12&#45;&gt;Node5</title>
<g id="a_edge16_Node000012_Node000005"><a xlink:title=" ">
<path fill="none" stroke="#63b8ff" d="M334.15,-219.98C316.93,-211.54 290.3,-198.47 270.35,-188.68"/>
<polygon fill="#63b8ff" stroke="#63b8ff" points="271.69,-185.43 261.17,-184.17 268.6,-191.72 271.69,-185.43"/>
</a>
</g>
</g>
<!-- Node12&#45;&gt;Node6 -->
<g id="edge18_Node000012_Node000006" class="edge">
<title>Node12&#45;&gt;Node6</title>
<g id="a_edge18_Node000012_Node000006"><a xlink:title=" ">
<path fill="none" stroke="#63b8ff" d="M349.6,-219.93C344.52,-198.73 328.74,-143.19 296.5,-110 282.38,-95.47 262.52,-84.91 245.14,-77.74"/>
<polygon fill="#63b8ff" stroke="#63b8ff" points="246.38,-74.46 235.79,-74.1 243.84,-80.99 246.38,-74.46"/>
</a>
</g>
</g>
<!-- Node12&#45;&gt;Node7 -->
<g id="edge17_Node000012_Node000007" class="edge">
<title>Node12&#45;&gt;Node7</title>
<g id="a_edge17_Node000012_Node000007"><a xlink:title=" ">
<path fill="none" stroke="#63b8ff" d="M370.52,-219.92C400.15,-205.55 456.97,-173.7 486.5,-129 495.38,-115.56 499.02,-97.46 500.51,-84.02"/>
<polygon fill="#63b8ff" stroke="#63b8ff" points="504,-84.29 501.31,-74.04 497.02,-83.72 504,-84.29"/>
</a>
</g>
</g>
<!-- Node13&#45;&gt;Node5 -->
<g id="edge20_Node000013_Node000005" class="edge">
<title>Node13&#45;&gt;Node5</title>
<g id="a_edge20_Node000013_Node000005"><a xlink:title=" ">
<path fill="none" stroke="#63b8ff" d="M382.11,-274.95C359.23,-267.64 327.78,-255.64 303.5,-239 284.61,-226.06 267.14,-206.31 255.98,-192.27"/>
<polygon fill="#63b8ff" stroke="#63b8ff" points="258.48,-189.78 249.61,-184 252.94,-194.06 258.48,-189.78"/>
</a>
</g>
</g>
<!-- Node13&#45;&gt;Node12 -->
<g id="edge21_Node000013_Node000012" class="edge">
<title>Node13&#45;&gt;Node12</title>
<g id="a_edge21_Node000013_Node000012"><a xlink:title=" ">
<path fill="none" stroke="#63b8ff" d="M402.7,-274.98C393.68,-267.15 380.09,-255.34 369.18,-245.86"/>
<polygon fill="#63b8ff" stroke="#63b8ff" points="371.32,-243.09 361.48,-239.17 366.73,-248.37 371.32,-243.09"/>
</a>
</g>
</g>
<!-- Node14 -->
<g id="Node000014" class="node">
<title>Node14</title>
<g id="a_Node000014"><a xlink:href="err_8h.html" target="_top" xlink:title="Error codes.">
<polygon fill="white" stroke="#666666" points="727.5,-239 657.5,-239 657.5,-220 727.5,-220 727.5,-239"/>
<text text-anchor="middle" x="692.5" y="-227" font-family="Helvetica,sans-Serif" font-size="10.00">l4/sys/err.h</text>
</a>
</g>
</g>
<!-- Node13&#45;&gt;Node14 -->
<g id="edge22_Node000013_Node000014" class="edge">
<title>Node13&#45;&gt;Node14</title>
<g id="a_edge22_Node000013_Node000014"><a xlink:title=" ">
<path fill="none" stroke="#63b8ff" d="M448.25,-276.73C499.04,-267.12 592.09,-249.51 647.51,-239.02"/>
<polygon fill="#63b8ff" stroke="#63b8ff" points="648.23,-242.44 657.41,-237.14 646.93,-235.56 648.23,-242.44"/>
</a>
</g>
</g>
<!-- Node14&#45;&gt;Node7 -->
<g id="edge23_Node000014_Node000007" class="edge">
<title>Node14&#45;&gt;Node7</title>
<g id="a_edge23_Node000014_Node000007"><a xlink:title=" ">
<path fill="none" stroke="#63b8ff" d="M684.93,-219.81C666.78,-199.26 618.88,-146.7 572.5,-110 558.04,-98.56 540.5,-87.54 526.46,-79.33"/>
<polygon fill="#63b8ff" stroke="#63b8ff" points="527.81,-76.06 517.39,-74.12 524.32,-82.13 527.81,-76.06"/>
</a>
</g>
</g>
<!-- Node15&#45;&gt;Node4 -->
<g id="edge46_Node000015_Node000004" class="edge">
<title>Node15&#45;&gt;Node4</title>
<g id="a_edge46_Node000015_Node000004"><a xlink:title=" ">
<path fill="none" stroke="#63b8ff" d="M215.09,-670.8C227.81,-653.1 254.5,-611.24 254.5,-571.5 254.5,-571.5 254.5,-571.5 254.5,-459.5 254.5,-425.87 260.63,-387.05 264.78,-364.64"/>
<polygon fill="#63b8ff" stroke="#63b8ff" points="268.22,-365.27 266.67,-354.78 261.35,-363.94 268.22,-365.27"/>
</a>
</g>
</g>
<!-- Node15&#45;&gt;Node5 -->
<g id="edge26_Node000015_Node000005" class="edge">
<title>Node15&#45;&gt;Node5</title>
<g id="a_edge26_Node000015_Node000005"><a xlink:title=" ">
<path fill="none" stroke="#63b8ff" d="M202.05,-670.77C189.61,-653.04 163.5,-611.11 163.5,-571.5 163.5,-571.5 163.5,-571.5 163.5,-514.5 163.5,-437.73 125.5,-422.77 125.5,-346 125.5,-346 125.5,-346 125.5,-283.5 125.5,-236.67 176.71,-204.67 211.66,-188.28"/>
<polygon fill="#63b8ff" stroke="#63b8ff" points="213.34,-191.37 221.03,-184.08 210.47,-184.98 213.34,-191.37"/>
</a>
</g>
</g>
<!-- Node15&#45;&gt;Node9 -->
<g id="edge25_Node000015_Node000009" class="edge">
<title>Node15&#45;&gt;Node9</title>
<g id="a_edge25_Node000015_Node000009"><a xlink:title=" ">
<path fill="none" stroke="#63b8ff" d="M199.41,-670.92C171.27,-643.39 87.5,-553.7 87.5,-461.5 87.5,-461.5 87.5,-461.5 87.5,-228.5 87.5,-175.1 150.05,-146.02 195.94,-131.88"/>
<polygon fill="#63b8ff" stroke="#63b8ff" points="197.13,-135.18 205.74,-129 195.16,-128.46 197.13,-135.18"/>
</a>
</g>
</g>
<!-- Node16 -->
<g id="Node000016" class="node">
<title>Node16</title>
<g id="a_Node000016"><a xlink:href="kobject_source.html" target="_top" xlink:title=" ">
<polygon fill="white" stroke="#666666" points="442,-525 359,-525 359,-506 442,-506 442,-525"/>
<text text-anchor="middle" x="400.5" y="-513" font-family="Helvetica,sans-Serif" font-size="10.00">l4/sys/kobject</text>
</a>
</g>
</g>
<!-- Node15&#45;&gt;Node16 -->
<g id="edge27_Node000015_Node000016" class="edge">
<title>Node15&#45;&gt;Node16</title>
<g id="a_edge27_Node000015_Node000016"><a xlink:title=" ">
<path fill="none" stroke="#63b8ff" d="M220.7,-670.96C233.01,-662.23 252.43,-648.13 268.5,-635 311.57,-599.82 359.56,-555.31 384.1,-532.13"/>
<polygon fill="#63b8ff" stroke="#63b8ff" points="386.63,-534.56 391.48,-525.14 381.81,-529.48 386.63,-534.56"/>
</a>
</g>
</g>
<!-- Node23 -->
<g id="Node000023" class="node">
<title>Node23</title>
<g id="a_Node000023"><a xlink:href="sys_2meta.html" target="_top" xlink:title="Meta interface for getting dynamic type information about objects behind capabilities.">
<polygon fill="white" stroke="#666666" points="506.5,-635 432.5,-635 432.5,-616 506.5,-616 506.5,-635"/>
<text text-anchor="middle" x="469.5" y="-623" font-family="Helvetica,sans-Serif" font-size="10.00">l4/sys/meta</text>
</a>
</g>
</g>
<!-- Node15&#45;&gt;Node23 -->
<g id="edge47_Node000015_Node000023" class="edge">
<title>Node15&#45;&gt;Node23</title>
<g id="a_edge47_Node000015_Node000023"><a xlink:title=" ">
<path fill="none" stroke="#63b8ff" d="M250.43,-670.98C297.39,-661.45 373.3,-646.04 422.29,-636.09"/>
<polygon fill="#63b8ff" stroke="#63b8ff" points="423.22,-639.47 432.32,-634.05 421.82,-632.61 423.22,-639.47"/>
</a>
</g>
</g>
<!-- Node16&#45;&gt;Node5 -->
<g id="edge35_Node000016_Node000005" class="edge">
<title>Node16&#45;&gt;Node5</title>
<g id="a_edge35_Node000016_Node000005"><a xlink:title=" ">
<path fill="none" stroke="#63b8ff" d="M361.89,-505.94C294.74,-488.52 163.5,-442.17 163.5,-346 163.5,-346 163.5,-346 163.5,-283.5 163.5,-243.81 198.82,-209.18 222.53,-190.41"/>
<polygon fill="#63b8ff" stroke="#63b8ff" points="224.81,-193.07 230.65,-184.23 220.57,-187.5 224.81,-193.07"/>
</a>
</g>
</g>
<!-- Node17 -->
<g id="Node000017" class="node">
<title>Node17</title>
<g id="a_Node000017"><a xlink:href="kernel__object_8h.html" target="_top" xlink:title="Kernel object system calls.">
<polygon fill="white" stroke="#666666" points="454,-415 363,-415 363,-396 454,-396 454,-415"/>
<text text-anchor="middle" x="408.5" y="-403" font-family="Helvetica,sans-Serif" font-size="10.00">kernel_object.h</text>
</a>
</g>
</g>
<!-- Node16&#45;&gt;Node17 -->
<g id="edge28_Node000016_Node000017" class="edge">
<title>Node16&#45;&gt;Node17</title>
<g id="a_edge28_Node000016_Node000017"><a xlink:title=" ">
<path fill="none" stroke="#63b8ff" d="M401.15,-505.66C402.45,-488.17 405.37,-448.8 407.11,-425.27"/>
<polygon fill="#63b8ff" stroke="#63b8ff" points="410.61,-425.39 407.86,-415.16 403.63,-424.87 410.61,-425.39"/>
</a>
</g>
</g>
<!-- Node19 -->
<g id="Node000019" class="node">
<title>Node19</title>
<g id="a_Node000019"><a xlink:href="____typeinfo_8h.html" target="_top" xlink:title="Type information handling.">
<polygon fill="white" stroke="#666666" points="506,-470 429,-470 429,-451 506,-451 506,-470"/>
<text text-anchor="middle" x="467.5" y="-458" font-family="Helvetica,sans-Serif" font-size="10.00">__typeinfo.h</text>
</a>
</g>
</g>
<!-- Node16&#45;&gt;Node19 -->
<g id="edge36_Node000016_Node000019" class="edge">
<title>Node16&#45;&gt;Node19</title>
<g id="a_edge36_Node000016_Node000019"><a xlink:title=" ">
<path fill="none" stroke="#63b8ff" d="M411.26,-505.98C421.27,-498.07 436.39,-486.11 448.43,-476.58"/>
<polygon fill="#63b8ff" stroke="#63b8ff" points="450.87,-479.12 456.54,-470.17 446.53,-473.63 450.87,-479.12"/>
</a>
</g>
</g>
<!-- Node17&#45;&gt;Node5 -->
<g id="edge29_Node000017_Node000005" class="edge">
<title>Node17&#45;&gt;Node5</title>
<g id="a_edge29_Node000017_Node000005"><a xlink:title=" ">
<path fill="none" stroke="#63b8ff" d="M362.88,-400.12C313.03,-394.28 237.93,-382.03 220.5,-360 181.5,-310.69 215.16,-229.61 233.49,-193.65"/>
<polygon fill="#63b8ff" stroke="#63b8ff" points="236.8,-194.87 238.39,-184.39 230.62,-191.6 236.8,-194.87"/>
</a>
</g>
</g>
<!-- Node17&#45;&gt;Node7 -->
<g id="edge30_Node000017_Node000007" class="edge">
<title>Node17&#45;&gt;Node7</title>
<g id="a_edge30_Node000017_Node000007"><a xlink:title=" ">
<path fill="none" stroke="#63b8ff" d="M454.27,-397.09C476.09,-391.01 500.27,-379.97 513.5,-360 572.2,-271.37 527.72,-132.63 508.87,-83.49"/>
<polygon fill="#63b8ff" stroke="#63b8ff" points="512.12,-82.19 505.19,-74.18 505.61,-84.76 512.12,-82.19"/>
</a>
</g>
</g>
<!-- Node17&#45;&gt;Node12 -->
<g id="edge31_Node000017_Node000012" class="edge">
<title>Node17&#45;&gt;Node12</title>
<g id="a_edge31_Node000017_Node000012"><a xlink:title=" ">
<path fill="none" stroke="#63b8ff" d="M391.71,-395.9C378.95,-388.35 362.31,-376.06 354.5,-360 337.03,-324.06 342.37,-275.61 347.27,-249.34"/>
<polygon fill="#63b8ff" stroke="#63b8ff" points="350.76,-249.75 349.34,-239.25 343.9,-248.34 350.76,-249.75"/>
</a>
</g>
</g>
<!-- Node17&#45;&gt;Node13 -->
<g id="edge34_Node000017_Node000013" class="edge">
<title>Node17&#45;&gt;Node13</title>
<g id="a_edge34_Node000017_Node000013"><a xlink:title=" ">
<path fill="none" stroke="#63b8ff" d="M444.79,-395.94C463.71,-389.44 485.2,-378.38 496.5,-360 503.48,-348.64 503.38,-341.42 496.5,-330 487.41,-314.89 471.28,-304.65 455.56,-297.83"/>
<polygon fill="#63b8ff" stroke="#63b8ff" points="456.49,-294.44 445.9,-294.02 453.92,-300.95 456.49,-294.44"/>
</a>
</g>
</g>
<!-- Node18 -->
<g id="Node000018" class="node">
<title>Node18</title>
<g id="a_Node000018"><a xlink:href="____kernel__object__impl_8h.html" target="_top" xlink:title="Low&#45;level kernel debugger functions.">
<polygon fill="white" stroke="#666666" points="487.5,-360 363.5,-360 363.5,-330 487.5,-330 487.5,-360"/>
<text text-anchor="start" x="371.5" y="-348" font-family="Helvetica,sans-Serif" font-size="10.00">l4/sys/__kernel_object</text>
<text text-anchor="middle" x="425.5" y="-337" font-family="Helvetica,sans-Serif" font-size="10.00">_impl.h</text>
</a>
</g>
</g>
<!-- Node17&#45;&gt;Node18 -->
<g id="edge32_Node000017_Node000018" class="edge">
<title>Node17&#45;&gt;Node18</title>
<g id="a_edge32_Node000017_Node000018"><a xlink:title=" ">
<path fill="none" stroke="#63b8ff" d="M411.01,-395.87C412.99,-389.03 415.87,-379.14 418.54,-369.97"/>
<polygon fill="#63b8ff" stroke="#63b8ff" points="421.97,-370.69 421.4,-360.11 415.25,-368.74 421.97,-370.69"/>
</a>
</g>
</g>
<!-- Node18&#45;&gt;Node13 -->
<g id="edge33_Node000018_Node000013" class="edge">
<title>Node18&#45;&gt;Node13</title>
<g id="a_edge33_Node000018_Node000013"><a xlink:title=" ">
<path fill="none" stroke="#63b8ff" d="M422.35,-329.84C420.64,-322.13 418.5,-312.49 416.65,-304.17"/>
<polygon fill="#63b8ff" stroke="#63b8ff" points="420.03,-303.27 414.45,-294.27 413.2,-304.79 420.03,-303.27"/>
</a>
</g>
</g>
<!-- Node20 -->
<g id="Node000020" class="node">
<title>Node20</title>
<g id="a_Node000020"><a xlink:href="types.html" target="_top" xlink:title=" ">
<polygon fill="white" stroke="#666666" points="797.5,-354.5 733.5,-354.5 733.5,-335.5 797.5,-335.5 797.5,-354.5"/>
<text text-anchor="middle" x="765.5" y="-342.5" font-family="Helvetica,sans-Serif" font-size="10.00">cxx/types</text>
</a>
</g>
</g>
<!-- Node19&#45;&gt;Node20 -->
<g id="edge37_Node000019_Node000020" class="edge">
<title>Node19&#45;&gt;Node20</title>
<g id="a_edge37_Node000019_Node000020"><a xlink:title=" ">
<path fill="none" stroke="#63b8ff" d="M491.31,-450.85C514.53,-442.26 550.75,-428.47 581.5,-415 599.16,-407.27 602.69,-403.38 620.5,-396 656.26,-381.19 698.16,-367.08 727.7,-357.64"/>
<polygon fill="#63b8ff" stroke="#63b8ff" points="729.12,-360.87 737.6,-354.51 727.01,-354.19 729.12,-360.87"/>
</a>
</g>
</g>
<!-- Node21 -->
<g id="Node000021" class="node">
<title>Node21</title>
<g id="a_Node000021"><a xlink:href="ipc__basics_source.html" target="_top" xlink:title=" ">
<polygon fill="white" stroke="#666666" points="716,-415 629,-415 629,-396 716,-396 716,-415"/>
<text text-anchor="middle" x="672.5" y="-403" font-family="Helvetica,sans-Serif" font-size="10.00">cxx/ipc_basics</text>
</a>
</g>
</g>
<!-- Node19&#45;&gt;Node21 -->
<g id="edge38_Node000019_Node000021" class="edge">
<title>Node19&#45;&gt;Node21</title>
<g id="a_edge38_Node000019_Node000021"><a xlink:title=" ">
<path fill="none" stroke="#63b8ff" d="M500.44,-450.98C535.45,-441.93 590.97,-427.58 629.43,-417.64"/>
<polygon fill="#63b8ff" stroke="#63b8ff" points="630.5,-420.97 639.31,-415.08 628.75,-414.2 630.5,-420.97"/>
</a>
</g>
</g>
<!-- Node22 -->
<g id="Node000022" class="node">
<title>Node22</title>
<g id="a_Node000022"><a xlink:href="capability_8h_source.html" target="_top" xlink:title=" ">
<polygon fill="white" stroke="#666666" points="572.5,-415 480.5,-415 480.5,-396 572.5,-396 572.5,-415"/>
<text text-anchor="middle" x="526.5" y="-403" font-family="Helvetica,sans-Serif" font-size="10.00">cxx/capability.h</text>
</a>
</g>
</g>
<!-- Node19&#45;&gt;Node22 -->
<g id="edge42_Node000019_Node000022" class="edge">
<title>Node19&#45;&gt;Node22</title>
<g id="a_edge42_Node000019_Node000022"><a xlink:title=" ">
<path fill="none" stroke="#63b8ff" d="M476.98,-450.98C485.7,-443.15 498.84,-431.34 509.4,-421.86"/>
<polygon fill="#63b8ff" stroke="#63b8ff" points="511.75,-424.46 516.85,-415.17 507.07,-419.25 511.75,-424.46"/>
</a>
</g>
</g>
<!-- Node21&#45;&gt;Node12 -->
<g id="edge40_Node000021_Node000012" class="edge">
<title>Node21&#45;&gt;Node12</title>
<g id="a_edge40_Node000021_Node000012"><a xlink:title=" ">
<path fill="none" stroke="#63b8ff" d="M659.71,-395.97C626.84,-374.23 536.39,-315.63 456.5,-275 432.73,-262.91 404.91,-251.23 383.88,-242.87"/>
<polygon fill="#63b8ff" stroke="#63b8ff" points="385.03,-239.56 374.45,-239.16 382.47,-246.07 385.03,-239.56"/>
</a>
</g>
</g>
<!-- Node21&#45;&gt;Node14 -->
<g id="edge41_Node000021_Node000014" class="edge">
<title>Node21&#45;&gt;Node14</title>
<g id="a_edge41_Node000021_Node000014"><a xlink:title=" ">
<path fill="none" stroke="#63b8ff" d="M674.59,-395.69C676.64,-386.75 679.71,-372.48 681.5,-360 687.1,-320.86 690.19,-274.62 691.58,-249.34"/>
<polygon fill="#63b8ff" stroke="#63b8ff" points="695.09,-249.19 692.12,-239.02 688.1,-248.83 695.09,-249.19"/>
</a>
</g>
</g>
<!-- Node21&#45;&gt;Node20 -->
<g id="edge39_Node000021_Node000020" class="edge">
<title>Node21&#45;&gt;Node20</title>
<g id="a_edge39_Node000021_Node000020"><a xlink:title=" ">
<path fill="none" stroke="#63b8ff" d="M686.22,-395.87C701.2,-386.45 725.39,-371.23 743.12,-360.08"/>
<polygon fill="#63b8ff" stroke="#63b8ff" points="745.12,-362.95 751.72,-354.67 741.39,-357.03 745.12,-362.95"/>
</a>
</g>
</g>
<!-- Node22&#45;&gt;Node4 -->
<g id="edge45_Node000022_Node000004" class="edge">
<title>Node22&#45;&gt;Node4</title>
<g id="a_edge45_Node000022_Node000004"><a xlink:title=" ">
<path fill="none" stroke="#63b8ff" d="M488.98,-395.99C443.22,-385.62 365.81,-368.07 315.95,-356.76"/>
<polygon fill="#63b8ff" stroke="#63b8ff" points="316.59,-353.31 306.06,-354.52 315.04,-360.14 316.59,-353.31"/>
</a>
</g>
</g>
<!-- Node22&#45;&gt;Node5 -->
<g id="edge44_Node000022_Node000005" class="edge">
<title>Node22&#45;&gt;Node5</title>
<g id="a_edge44_Node000022_Node000005"><a xlink:title=" ">
<path fill="none" stroke="#63b8ff" d="M538.43,-395.8C548.33,-387.77 561.69,-374.87 567.5,-360 572.35,-347.58 573.84,-341.73 567.5,-330 525.06,-251.49 480.67,-257.11 399.5,-220 366.22,-204.78 326.53,-193.55 295.52,-186.18"/>
<polygon fill="#63b8ff" stroke="#63b8ff" points="296.3,-182.77 285.77,-183.92 294.72,-189.58 296.3,-182.77"/>
</a>
</g>
</g>
<!-- Node22&#45;&gt;Node9 -->
<g id="edge43_Node000022_Node000009" class="edge">
<title>Node22&#45;&gt;Node9</title>
<g id="a_edge43_Node000022_Node000009"><a xlink:title=" ">
<path fill="none" stroke="#63b8ff" d="M544.85,-395.88C558.29,-388.46 575.52,-376.36 583.5,-360 601.49,-323.13 578.05,-302.38 547.5,-275 465.44,-201.45 341.99,-153.18 280.73,-132.31"/>
<polygon fill="#63b8ff" stroke="#63b8ff" points="281.69,-128.94 271.09,-129.08 279.46,-135.57 281.69,-128.94"/>
</a>
</g>
</g>
<!-- Node23&#45;&gt;Node16 -->
<g id="edge48_Node000023_Node000016" class="edge">
<title>Node23&#45;&gt;Node16</title>
<g id="a_edge48_Node000023_Node000016"><a xlink:title=" ">
<path fill="none" stroke="#63b8ff" d="M463.85,-615.66C452.42,-597.77 426.38,-557 411.48,-533.69"/>
<polygon fill="#63b8ff" stroke="#63b8ff" points="414.37,-531.7 406.03,-525.16 408.47,-535.47 414.37,-531.7"/>
</a>
</g>
</g>
<!-- Node24 -->
<g id="Node000024" class="node">
<title>Node24</title>
<g id="a_Node000024"><a xlink:href="ipc__iface.html" target="_top" xlink:title="Interface Definition Language.">
<polygon fill="white" stroke="#666666" points="557.5,-525 477.5,-525 477.5,-506 557.5,-506 557.5,-525"/>
<text text-anchor="middle" x="517.5" y="-513" font-family="Helvetica,sans-Serif" font-size="10.00">cxx/ipc_iface</text>
</a>
</g>
</g>
<!-- Node23&#45;&gt;Node24 -->
<g id="edge49_Node000023_Node000024" class="edge">
<title>Node23&#45;&gt;Node24</title>
<g id="a_edge49_Node000023_Node000024"><a xlink:title=" ">
<path fill="none" stroke="#63b8ff" d="M473.43,-615.66C481.31,-597.93 499.18,-557.73 509.58,-534.32"/>
<polygon fill="#63b8ff" stroke="#63b8ff" points="512.79,-535.72 513.65,-525.16 506.39,-532.87 512.79,-535.72"/>
</a>
</g>
</g>
<!-- Node26 -->
<g id="Node000026" class="node">
<title>Node26</title>
<g id="a_Node000026"><a xlink:href="ipc__string_source.html" target="_top" xlink:title=" ">
<polygon fill="white" stroke="#666666" points="777.5,-580 693.5,-580 693.5,-561 777.5,-561 777.5,-580"/>
<text text-anchor="middle" x="735.5" y="-568" font-family="Helvetica,sans-Serif" font-size="10.00">cxx/ipc_string</text>
</a>
</g>
</g>
<!-- Node23&#45;&gt;Node26 -->
<g id="edge56_Node000023_Node000026" class="edge">
<title>Node23&#45;&gt;Node26</title>
<g id="a_edge56_Node000023_Node000026"><a xlink:title=" ">
<path fill="none" stroke="#63b8ff" d="M506.77,-617.07C552.74,-607.91 631.19,-592.28 683.19,-581.92"/>
<polygon fill="#63b8ff" stroke="#63b8ff" points="684.1,-585.31 693.22,-579.92 682.73,-578.45 684.1,-585.31"/>
</a>
</g>
</g>
<!-- Node24&#45;&gt;Node19 -->
<g id="edge55_Node000024_Node000019" class="edge">
<title>Node24&#45;&gt;Node19</title>
<g id="a_edge55_Node000024_Node000019"><a xlink:title=" ">
<path fill="none" stroke="#63b8ff" d="M509.24,-505.75C502.04,-498.11 491.39,-486.82 482.65,-477.56"/>
<polygon fill="#63b8ff" stroke="#63b8ff" points="485.01,-474.96 475.6,-470.09 479.92,-479.76 485.01,-474.96"/>
</a>
</g>
</g>
<!-- Node24&#45;&gt;Node21 -->
<g id="edge50_Node000024_Node000021" class="edge">
<title>Node24&#45;&gt;Node21</title>
<g id="a_edge50_Node000024_Node000021"><a xlink:title=" ">
<path fill="none" stroke="#63b8ff" d="M520.38,-505.85C525.3,-492.33 536.57,-466.16 554.5,-451 573.29,-435.11 598.32,-424.6 620.49,-417.8"/>
<polygon fill="#63b8ff" stroke="#63b8ff" points="621.48,-421.16 630.11,-415.02 619.54,-414.44 621.48,-421.16"/>
</a>
</g>
</g>
<!-- Node25 -->
<g id="Node000025" class="node">
<title>Node25</title>
<g id="a_Node000025"><a xlink:href="ipc__types.html" target="_top" xlink:title=" ">
<polygon fill="white" stroke="#666666" points="678,-470 563,-470 563,-451 678,-451 678,-470"/>
<text text-anchor="middle" x="620.5" y="-458" font-family="Helvetica,sans-Serif" font-size="10.00">l4/sys/cxx/ipc_types</text>
</a>
</g>
</g>
<!-- Node24&#45;&gt;Node25 -->
<g id="edge51_Node000024_Node000025" class="edge">
<title>Node24&#45;&gt;Node25</title>
<g id="a_edge51_Node000024_Node000025"><a xlink:title=" ">
<path fill="none" stroke="#63b8ff" d="M534.05,-505.98C550.39,-497.57 575.63,-484.59 594.63,-474.81"/>
<polygon fill="#63b8ff" stroke="#63b8ff" points="596.36,-477.86 603.65,-470.17 593.16,-471.63 596.36,-477.86"/>
</a>
</g>
</g>
<!-- Node25&#45;&gt;Node20 -->
<g id="edge53_Node000025_Node000020" class="edge">
<title>Node25&#45;&gt;Node20</title>
<g id="a_edge53_Node000025_Node000020"><a xlink:title=" ">
<path fill="none" stroke="#63b8ff" d="M655.27,-450.93C677.36,-444.1 705.46,-432.69 725.5,-415 741.19,-401.15 752.29,-379.61 758.76,-364.28"/>
<polygon fill="#63b8ff" stroke="#63b8ff" points="762.07,-365.42 762.49,-354.83 755.56,-362.85 762.07,-365.42"/>
</a>
</g>
</g>
<!-- Node25&#45;&gt;Node21 -->
<g id="edge54_Node000025_Node000021" class="edge">
<title>Node25&#45;&gt;Node21</title>
<g id="a_edge54_Node000025_Node000021"><a xlink:title=" ">
<path fill="none" stroke="#63b8ff" d="M629.09,-450.75C636.66,-443.03 647.88,-431.6 657.01,-422.28"/>
<polygon fill="#63b8ff" stroke="#63b8ff" points="659.57,-424.68 664.07,-415.09 654.57,-419.78 659.57,-424.68"/>
</a>
</g>
</g>
<!-- Node25&#45;&gt;Node22 -->
<g id="edge52_Node000025_Node000022" class="edge">
<title>Node25&#45;&gt;Node22</title>
<g id="a_edge52_Node000025_Node000022"><a xlink:title=" ">
<path fill="none" stroke="#63b8ff" d="M605.4,-450.98C590.68,-442.69 568.08,-429.94 550.83,-420.22"/>
<polygon fill="#63b8ff" stroke="#63b8ff" points="552.31,-417.03 541.88,-415.17 548.87,-423.13 552.31,-417.03"/>
</a>
</g>
</g>
<!-- Node26&#45;&gt;Node20 -->
<g id="edge57_Node000026_Node000020" class="edge">
<title>Node26&#45;&gt;Node20</title>
<g id="a_edge57_Node000026_Node000020"><a xlink:title=" ">
<path fill="none" stroke="#63b8ff" d="M760.31,-560.95C776.34,-553.99 795.93,-542.42 805.5,-525 835.08,-471.15 797.35,-396.78 776.97,-363.42"/>
<polygon fill="#63b8ff" stroke="#63b8ff" points="779.82,-361.39 771.52,-354.8 773.9,-365.13 779.82,-361.39"/>
</a>
</g>
</g>
<!-- Node26&#45;&gt;Node21 -->
<g id="edge58_Node000026_Node000021" class="edge">
<title>Node26&#45;&gt;Node21</title>
<g id="a_edge58_Node000026_Node000021"><a xlink:title=" ">
<path fill="none" stroke="#63b8ff" d="M732.11,-560.74C722.2,-535.09 693.09,-459.78 679.56,-424.78"/>
<polygon fill="#63b8ff" stroke="#63b8ff" points="682.77,-423.37 675.9,-415.31 676.24,-425.9 682.77,-423.37"/>
</a>
</g>
</g>
<!-- Node27 -->
<g id="Node000027" class="node">
<title>Node27</title>
<g id="a_Node000027"><a xlink:href="ipc__array_source.html" target="_top" xlink:title=" ">
<polygon fill="white" stroke="#666666" points="796.5,-525 734.5,-525 734.5,-506 796.5,-506 796.5,-525"/>
<text text-anchor="middle" x="765.5" y="-513" font-family="Helvetica,sans-Serif" font-size="10.00">ipc_array</text>
</a>
</g>
</g>
<!-- Node26&#45;&gt;Node27 -->
<g id="edge59_Node000026_Node000027" class="edge">
<title>Node26&#45;&gt;Node27</title>
<g id="a_edge59_Node000026_Node000027"><a xlink:title=" ">
<path fill="none" stroke="#63b8ff" d="M740.45,-560.75C744.56,-553.49 750.53,-542.95 755.6,-533.98"/>
<polygon fill="#63b8ff" stroke="#63b8ff" points="758.76,-535.52 760.64,-525.09 752.67,-532.07 758.76,-535.52"/>
</a>
</g>
</g>
<!-- Node27&#45;&gt;Node20 -->
<g id="edge60_Node000027_Node000020" class="edge">
<title>Node27&#45;&gt;Node20</title>
<g id="a_edge60_Node000027_Node000020"><a xlink:title=" ">
<path fill="none" stroke="#63b8ff" d="M765.5,-505.91C765.5,-479.89 765.5,-401.47 765.5,-365.01"/>
<polygon fill="#63b8ff" stroke="#63b8ff" points="769,-364.77 765.5,-354.77 762,-364.77 769,-364.77"/>
</a>
</g>
</g>
<!-- Node27&#45;&gt;Node21 -->
<g id="edge61_Node000027_Node000021" class="edge">
<title>Node27&#45;&gt;Node21</title>
<g id="a_edge61_Node000027_Node000021"><a xlink:title=" ">
<path fill="none" stroke="#63b8ff" d="M760.2,-505.87C752.27,-493.25 736.53,-469.29 720.5,-451 711.34,-440.56 699.99,-429.95 690.63,-421.7"/>
<polygon fill="#63b8ff" stroke="#63b8ff" points="692.87,-419.02 683.01,-415.14 688.3,-424.32 692.87,-419.02"/>
</a>
</g>
</g>
<!-- Node27&#45;&gt;Node25 -->
<g id="edge62_Node000027_Node000025" class="edge">
<title>Node27&#45;&gt;Node25</title>
<g id="a_edge62_Node000027_Node000025"><a xlink:title=" ">
<path fill="none" stroke="#63b8ff" d="M742.2,-505.98C718.25,-497.23 680.72,-483.51 653.67,-473.62"/>
<polygon fill="#63b8ff" stroke="#63b8ff" points="654.81,-470.32 644.22,-470.17 652.41,-476.89 654.81,-470.32"/>
</a>
</g>
</g>
</g>
</svg>
