<?xml version="1.0" encoding="UTF-8" standalone="no"?>
<!DOCTYPE svg PUBLIC "-//W3C//DTD SVG 1.1//EN"
 "http://www.w3.org/Graphics/SVG/1.1/DTD/svg11.dtd">
<!-- Generated by graphviz version 2.43.0 (0)
 -->
<!-- Title: l4/util/lock.h Pages: 1 -->
<svg width="629pt" height="412pt"
 viewBox="0.00 0.00 628.51 412.00" xmlns="http://www.w3.org/2000/svg" xmlns:xlink="http://www.w3.org/1999/xlink">
<g id="graph0" class="graph" transform="scale(1 1) rotate(0) translate(4 408)">
<title>l4/util/lock.h</title>
<!-- Node1 -->
<g id="Node000001" class="node">
<title>Node1</title>
<g id="a_Node000001"><a xlink:title="Simple lock implementation.">
<polygon fill="#999999" stroke="#666666" points="164.5,-404 87.5,-404 87.5,-385 164.5,-385 164.5,-404"/>
<text text-anchor="middle" x="126" y="-392" font-family="Helvetica,sans-Serif" font-size="10.00">l4/util/lock.h</text>
</a>
</g>
</g>
<!-- Node2 -->
<g id="Node000002" class="node">
<title>Node2</title>
<g id="a_Node000002"><a xlink:href="l4_2sys_2thread_8h.html" target="_top" xlink:title="Common thread related definitions.">
<polygon fill="white" stroke="#666666" points="294.5,-349 205.5,-349 205.5,-330 294.5,-330 294.5,-349"/>
<text text-anchor="middle" x="250" y="-337" font-family="Helvetica,sans-Serif" font-size="10.00">l4/sys/thread.h</text>
</a>
</g>
</g>
<!-- Node1&#45;&gt;Node2 -->
<g id="edge1_Node000001_Node000002" class="edge">
<title>Node1&#45;&gt;Node2</title>
<g id="a_edge1_Node000001_Node000002"><a xlink:title=" ">
<path fill="none" stroke="#63b8ff" d="M145.92,-384.98C166.05,-376.38 197.38,-362.99 220.41,-353.15"/>
<polygon fill="#63b8ff" stroke="#63b8ff" points="221.9,-356.32 229.71,-349.17 219.14,-349.88 221.9,-356.32"/>
</a>
</g>
</g>
<!-- Node5 -->
<g id="Node000005" class="node">
<title>Node5</title>
<g id="a_Node000005"><a xlink:href="compiler_8h.html" target="_top" xlink:title="L4 compiler related defines.">
<polygon fill="white" stroke="#666666" points="233.5,-74 134.5,-74 134.5,-55 233.5,-55 233.5,-74"/>
<text text-anchor="middle" x="184" y="-62" font-family="Helvetica,sans-Serif" font-size="10.00">l4/sys/compiler.h</text>
</a>
</g>
</g>
<!-- Node1&#45;&gt;Node5 -->
<g id="edge22_Node000001_Node000005" class="edge">
<title>Node1&#45;&gt;Node5</title>
<g id="a_edge22_Node000001_Node000005"><a xlink:title=" ">
<path fill="none" stroke="#63b8ff" d="M100.8,-384.91C64.03,-370.58 0,-338.08 0,-285.5 0,-285.5 0,-285.5 0,-173.5 0,-114.74 70.65,-87.34 124.39,-74.99"/>
<polygon fill="#63b8ff" stroke="#63b8ff" points="125.18,-78.4 134.21,-72.85 123.69,-71.56 125.18,-78.4"/>
</a>
</g>
</g>
<!-- Node13 -->
<g id="Node000013" class="node">
<title>Node13</title>
<g id="a_Node000013"><a xlink:href="l4_2util_2atomic_8h.html" target="_top" xlink:title="atomic operations header and generic implementations">
<polygon fill="white" stroke="#666666" points="156,-129 66,-129 66,-110 156,-110 156,-129"/>
<text text-anchor="middle" x="111" y="-117" font-family="Helvetica,sans-Serif" font-size="10.00">l4/util/atomic.h</text>
</a>
</g>
</g>
<!-- Node1&#45;&gt;Node13 -->
<g id="edge23_Node000001_Node000013" class="edge">
<title>Node1&#45;&gt;Node13</title>
<g id="a_edge23_Node000001_Node000013"><a xlink:title=" ">
<path fill="none" stroke="#63b8ff" d="M126,-384.82C126,-366.48 126,-322.44 126,-285.5 126,-285.5 126,-285.5 126,-228.5 126,-196.89 119.62,-160.56 115.18,-139.13"/>
<polygon fill="#63b8ff" stroke="#63b8ff" points="118.55,-138.16 113.02,-129.12 111.71,-139.64 118.55,-138.16"/>
</a>
</g>
</g>
<!-- Node3 -->
<g id="Node000003" class="node">
<title>Node3</title>
<g id="a_Node000003"><a xlink:href="l4_2sys_2types_8h.html" target="_top" xlink:title="Common L4 ABI Data Types.">
<polygon fill="white" stroke="#666666" points="392,-184 308,-184 308,-165 392,-165 392,-184"/>
<text text-anchor="middle" x="350" y="-172" font-family="Helvetica,sans-Serif" font-size="10.00">l4/sys/types.h</text>
</a>
</g>
</g>
<!-- Node2&#45;&gt;Node3 -->
<g id="edge2_Node000002_Node000003" class="edge">
<title>Node2&#45;&gt;Node3</title>
<g id="a_edge2_Node000002_Node000003"><a xlink:title=" ">
<path fill="none" stroke="#63b8ff" d="M259.16,-329.79C275.8,-313.48 311.09,-276.6 331,-239 338.5,-224.84 343.46,-207.3 346.43,-194.25"/>
<polygon fill="#63b8ff" stroke="#63b8ff" points="349.92,-194.63 348.53,-184.13 343.07,-193.2 349.92,-194.63"/>
</a>
</g>
</g>
<!-- Node10 -->
<g id="Node000010" class="node">
<title>Node10</title>
<g id="a_Node000010"><a xlink:href="l4_2sys_2utcb_8h.html" target="_top" xlink:title="UTCB definitions.">
<polygon fill="white" stroke="#666666" points="322,-239 244,-239 244,-220 322,-220 322,-239"/>
<text text-anchor="middle" x="283" y="-227" font-family="Helvetica,sans-Serif" font-size="10.00">l4/sys/utcb.h</text>
</a>
</g>
</g>
<!-- Node2&#45;&gt;Node10 -->
<g id="edge13_Node000002_Node000010" class="edge">
<title>Node2&#45;&gt;Node10</title>
<g id="a_edge13_Node000002_Node000010"><a xlink:title=" ">
<path fill="none" stroke="#63b8ff" d="M252.7,-329.66C258.07,-312.09 270.18,-272.45 277.36,-248.95"/>
<polygon fill="#63b8ff" stroke="#63b8ff" points="280.78,-249.74 280.35,-239.16 274.08,-247.7 280.78,-249.74"/>
</a>
</g>
</g>
<!-- Node11 -->
<g id="Node000011" class="node">
<title>Node11</title>
<g id="a_Node000011"><a xlink:href="l4_2sys_2ipc_8h.html" target="_top" xlink:title="Common IPC interface.">
<polygon fill="white" stroke="#666666" points="252.5,-294 181.5,-294 181.5,-275 252.5,-275 252.5,-294"/>
<text text-anchor="middle" x="217" y="-282" font-family="Helvetica,sans-Serif" font-size="10.00">l4/sys/ipc.h</text>
</a>
</g>
</g>
<!-- Node2&#45;&gt;Node11 -->
<g id="edge17_Node000002_Node000011" class="edge">
<title>Node2&#45;&gt;Node11</title>
<g id="a_edge17_Node000002_Node000011"><a xlink:title=" ">
<path fill="none" stroke="#63b8ff" d="M244.55,-329.75C239.99,-322.42 233.33,-311.73 227.71,-302.7"/>
<polygon fill="#63b8ff" stroke="#63b8ff" points="230.6,-300.73 222.35,-294.09 224.66,-304.43 230.6,-300.73"/>
</a>
</g>
</g>
<!-- Node4 -->
<g id="Node000004" class="node">
<title>Node4</title>
<g id="a_Node000004"><a xlink:href="l4_2sys_2l4int_8h.html" target="_top" xlink:title="Fixed sized integer types, generic version.">
<polygon fill="white" stroke="#666666" points="577.5,-74 498.5,-74 498.5,-55 577.5,-55 577.5,-74"/>
<text text-anchor="middle" x="538" y="-62" font-family="Helvetica,sans-Serif" font-size="10.00">l4/sys/l4int.h</text>
</a>
</g>
</g>
<!-- Node3&#45;&gt;Node4 -->
<g id="edge3_Node000003_Node000004" class="edge">
<title>Node3&#45;&gt;Node4</title>
<g id="a_edge3_Node000003_Node000004"><a xlink:title=" ">
<path fill="none" stroke="#63b8ff" d="M392.02,-172.3C456.2,-169.48 573.95,-160.09 600,-129 615.31,-110.73 589.48,-91.35 566.64,-78.88"/>
<polygon fill="#63b8ff" stroke="#63b8ff" points="567.97,-75.63 557.48,-74.14 564.75,-81.85 567.97,-75.63"/>
</a>
</g>
</g>
<!-- Node3&#45;&gt;Node5 -->
<g id="edge4_Node000003_Node000005" class="edge">
<title>Node3&#45;&gt;Node5</title>
<g id="a_edge4_Node000003_Node000005"><a xlink:title=" ">
<path fill="none" stroke="#63b8ff" d="M349.88,-164.82C349.22,-151.24 345.95,-125 331,-110 308,-86.92 273.47,-75.74 243.65,-70.35"/>
<polygon fill="#63b8ff" stroke="#63b8ff" points="244.18,-66.89 233.74,-68.74 243.05,-73.8 244.18,-66.89"/>
</a>
</g>
</g>
<!-- Node7 -->
<g id="Node000007" class="node">
<title>Node7</title>
<g id="a_Node000007"><a xlink:href="l4_2sys_2consts_8h.html" target="_top" xlink:title="Common constants.">
<polygon fill="white" stroke="#666666" points="467.5,-129 378.5,-129 378.5,-110 467.5,-110 467.5,-129"/>
<text text-anchor="middle" x="423" y="-117" font-family="Helvetica,sans-Serif" font-size="10.00">l4/sys/consts.h</text>
</a>
</g>
</g>
<!-- Node3&#45;&gt;Node7 -->
<g id="edge6_Node000003_Node000007" class="edge">
<title>Node3&#45;&gt;Node7</title>
<g id="a_edge6_Node000003_Node000007"><a xlink:title=" ">
<path fill="none" stroke="#63b8ff" d="M361.73,-164.98C372.73,-157 389.42,-144.88 402.6,-135.31"/>
<polygon fill="#63b8ff" stroke="#63b8ff" points="405.02,-137.88 411.06,-129.17 400.91,-132.21 405.02,-137.88"/>
</a>
</g>
</g>
<!-- Node8 -->
<g id="Node000008" class="node">
<title>Node8</title>
<g id="a_Node000008"><a xlink:href="____l4__fpage_8h_source.html" target="_top" xlink:title=" ">
<polygon fill="white" stroke="#666666" points="322,-129 212,-129 212,-110 322,-110 322,-129"/>
<text text-anchor="middle" x="267" y="-117" font-family="Helvetica,sans-Serif" font-size="10.00">l4/sys/__l4_fpage.h</text>
</a>
</g>
</g>
<!-- Node3&#45;&gt;Node8 -->
<g id="edge9_Node000003_Node000008" class="edge">
<title>Node3&#45;&gt;Node8</title>
<g id="a_edge9_Node000003_Node000008"><a xlink:title=" ">
<path fill="none" stroke="#63b8ff" d="M336.66,-164.98C323.91,-156.84 304.45,-144.41 289.33,-134.76"/>
<polygon fill="#63b8ff" stroke="#63b8ff" points="290.89,-131.6 280.58,-129.17 287.12,-137.5 290.89,-131.6"/>
</a>
</g>
</g>
<!-- Node9 -->
<g id="Node000009" class="node">
<title>Node9</title>
<g id="a_Node000009"><a xlink:href="____timeout_8h_source.html" target="_top" xlink:title=" ">
<polygon fill="white" stroke="#666666" points="591,-129 485,-129 485,-110 591,-110 591,-129"/>
<text text-anchor="middle" x="538" y="-117" font-family="Helvetica,sans-Serif" font-size="10.00">l4/sys/__timeout.h</text>
</a>
</g>
</g>
<!-- Node3&#45;&gt;Node9 -->
<g id="edge11_Node000003_Node000009" class="edge">
<title>Node3&#45;&gt;Node9</title>
<g id="a_edge11_Node000003_Node000009"><a xlink:title=" ">
<path fill="none" stroke="#63b8ff" d="M380.21,-164.98C412.04,-156.01 462.36,-141.82 497.6,-131.89"/>
<polygon fill="#63b8ff" stroke="#63b8ff" points="498.88,-135.16 507.56,-129.08 496.98,-128.43 498.88,-135.16"/>
</a>
</g>
</g>
<!-- Node6 -->
<g id="Node000006" class="node">
<title>Node6</title>
<g id="a_Node000006"><a xlink:title=" ">
<polygon fill="#e0e0e0" stroke="#999999" points="230,-19 138,-19 138,0 230,0 230,-19"/>
<text text-anchor="middle" x="184" y="-7" font-family="Helvetica,sans-Serif" font-size="10.00">l4/sys/linkage.h</text>
</a>
</g>
</g>
<!-- Node5&#45;&gt;Node6 -->
<g id="edge5_Node000005_Node000006" class="edge">
<title>Node5&#45;&gt;Node6</title>
<g id="a_edge5_Node000005_Node000006"><a xlink:title=" ">
<path fill="none" stroke="#63b8ff" d="M184,-54.75C184,-47.8 184,-37.85 184,-29.13"/>
<polygon fill="#63b8ff" stroke="#63b8ff" points="187.5,-29.09 184,-19.09 180.5,-29.09 187.5,-29.09"/>
</a>
</g>
</g>
<!-- Node7&#45;&gt;Node4 -->
<g id="edge8_Node000007_Node000004" class="edge">
<title>Node7&#45;&gt;Node4</title>
<g id="a_edge8_Node000007_Node000004"><a xlink:title=" ">
<path fill="none" stroke="#63b8ff" d="M441.48,-109.98C459.98,-101.46 488.68,-88.23 509.98,-78.41"/>
<polygon fill="#63b8ff" stroke="#63b8ff" points="511.57,-81.53 519.19,-74.17 508.64,-75.18 511.57,-81.53"/>
</a>
</g>
</g>
<!-- Node7&#45;&gt;Node5 -->
<g id="edge7_Node000007_Node000005" class="edge">
<title>Node7&#45;&gt;Node5</title>
<g id="a_edge7_Node000007_Node000005"><a xlink:title=" ">
<path fill="none" stroke="#63b8ff" d="M384.6,-109.98C343.26,-100.82 277.4,-86.21 232.51,-76.26"/>
<polygon fill="#63b8ff" stroke="#63b8ff" points="233.22,-72.83 222.7,-74.08 231.71,-79.66 233.22,-72.83"/>
</a>
</g>
</g>
<!-- Node8&#45;&gt;Node5 -->
<g id="edge10_Node000008_Node000005" class="edge">
<title>Node8&#45;&gt;Node5</title>
<g id="a_edge10_Node000008_Node000005"><a xlink:title=" ">
<path fill="none" stroke="#63b8ff" d="M253.66,-109.98C240.91,-101.84 221.45,-89.41 206.33,-79.76"/>
<polygon fill="#63b8ff" stroke="#63b8ff" points="207.89,-76.6 197.58,-74.17 204.12,-82.5 207.89,-76.6"/>
</a>
</g>
</g>
<!-- Node9&#45;&gt;Node4 -->
<g id="edge12_Node000009_Node000004" class="edge">
<title>Node9&#45;&gt;Node4</title>
<g id="a_edge12_Node000009_Node000004"><a xlink:title=" ">
<path fill="none" stroke="#63b8ff" d="M538,-109.75C538,-102.8 538,-92.85 538,-84.13"/>
<polygon fill="#63b8ff" stroke="#63b8ff" points="541.5,-84.09 538,-74.09 534.5,-84.09 541.5,-84.09"/>
</a>
</g>
</g>
<!-- Node10&#45;&gt;Node3 -->
<g id="edge14_Node000010_Node000003" class="edge">
<title>Node10&#45;&gt;Node3</title>
<g id="a_edge14_Node000010_Node000003"><a xlink:title=" ">
<path fill="none" stroke="#63b8ff" d="M293.76,-219.98C303.77,-212.07 318.89,-200.11 330.93,-190.58"/>
<polygon fill="#63b8ff" stroke="#63b8ff" points="333.37,-193.12 339.04,-184.17 329.03,-187.63 333.37,-193.12"/>
</a>
</g>
</g>
<!-- Node10&#45;&gt;Node4 -->
<g id="edge16_Node000010_Node000004" class="edge">
<title>Node10&#45;&gt;Node4</title>
<g id="a_edge16_Node000010_Node000004"><a xlink:title=" ">
<path fill="none" stroke="#63b8ff" d="M322.25,-222.68C402.44,-209.89 580.5,-176.66 616,-129 631.91,-107.64 601.18,-89.19 573.73,-77.77"/>
<polygon fill="#63b8ff" stroke="#63b8ff" points="574.83,-74.44 564.24,-74.03 572.26,-80.95 574.83,-74.44"/>
</a>
</g>
</g>
<!-- Node10&#45;&gt;Node5 -->
<g id="edge15_Node000010_Node000005" class="edge">
<title>Node10&#45;&gt;Node5</title>
<g id="a_edge15_Node000010_Node000005"><a xlink:title=" ">
<path fill="none" stroke="#63b8ff" d="M273.96,-219.76C257.54,-203.42 222.7,-166.47 203,-129 195.55,-114.82 190.58,-97.28 187.6,-84.23"/>
<polygon fill="#63b8ff" stroke="#63b8ff" points="190.96,-83.19 185.48,-74.12 184.11,-84.62 190.96,-83.19"/>
</a>
</g>
</g>
<!-- Node11&#45;&gt;Node3 -->
<g id="edge18_Node000011_Node000003" class="edge">
<title>Node11&#45;&gt;Node3</title>
<g id="a_edge18_Node000011_Node000003"><a xlink:title=" ">
<path fill="none" stroke="#63b8ff" d="M217.1,-274.96C217.71,-261.57 220.8,-235.59 235,-220 251.39,-202.01 275.9,-191.22 298.09,-184.79"/>
<polygon fill="#63b8ff" stroke="#63b8ff" points="298.99,-188.17 307.75,-182.21 297.19,-181.41 298.99,-188.17"/>
</a>
</g>
</g>
<!-- Node11&#45;&gt;Node10 -->
<g id="edge19_Node000011_Node000010" class="edge">
<title>Node11&#45;&gt;Node10</title>
<g id="a_edge19_Node000011_Node000010"><a xlink:title=" ">
<path fill="none" stroke="#63b8ff" d="M227.6,-274.98C237.46,-267.07 252.35,-255.11 264.22,-245.58"/>
<polygon fill="#63b8ff" stroke="#63b8ff" points="266.6,-248.16 272.2,-239.17 262.21,-242.7 266.6,-248.16"/>
</a>
</g>
</g>
<!-- Node12 -->
<g id="Node000012" class="node">
<title>Node12</title>
<g id="a_Node000012"><a xlink:href="err_8h.html" target="_top" xlink:title="Error codes.">
<polygon fill="white" stroke="#666666" points="98,-184 28,-184 28,-165 98,-165 98,-184"/>
<text text-anchor="middle" x="63" y="-172" font-family="Helvetica,sans-Serif" font-size="10.00">l4/sys/err.h</text>
</a>
</g>
</g>
<!-- Node11&#45;&gt;Node12 -->
<g id="edge20_Node000011_Node000012" class="edge">
<title>Node11&#45;&gt;Node12</title>
<g id="a_edge20_Node000011_Node000012"><a xlink:title=" ">
<path fill="none" stroke="#63b8ff" d="M204.66,-274.84C178.3,-256.36 116.27,-212.86 83.74,-190.05"/>
<polygon fill="#63b8ff" stroke="#63b8ff" points="85.6,-187.07 75.4,-184.2 81.58,-192.8 85.6,-187.07"/>
</a>
</g>
</g>
<!-- Node12&#45;&gt;Node5 -->
<g id="edge21_Node000012_Node000005" class="edge">
<title>Node12&#45;&gt;Node5</title>
<g id="a_edge21_Node000012_Node000005"><a xlink:title=" ">
<path fill="none" stroke="#63b8ff" d="M58.86,-164.77C53.29,-151.6 45.34,-126.44 57,-110 72.45,-88.21 99.43,-77.01 124.56,-71.28"/>
<polygon fill="#63b8ff" stroke="#63b8ff" points="125.33,-74.7 134.44,-69.28 123.94,-67.84 125.33,-74.7"/>
</a>
</g>
</g>
<!-- Node13&#45;&gt;Node4 -->
<g id="edge24_Node000013_Node000004" class="edge">
<title>Node13&#45;&gt;Node4</title>
<g id="a_edge24_Node000013_Node000004"><a xlink:title=" ">
<path fill="none" stroke="#63b8ff" d="M156.29,-112.88C236.96,-102.87 404.87,-82.02 488.48,-71.65"/>
<polygon fill="#63b8ff" stroke="#63b8ff" points="488.99,-75.11 498.49,-70.4 488.13,-68.16 488.99,-75.11"/>
</a>
</g>
</g>
<!-- Node13&#45;&gt;Node5 -->
<g id="edge25_Node000013_Node000005" class="edge">
<title>Node13&#45;&gt;Node5</title>
<g id="a_edge25_Node000013_Node000005"><a xlink:title=" ">
<path fill="none" stroke="#63b8ff" d="M122.73,-109.98C133.73,-102 150.42,-89.88 163.6,-80.31"/>
<polygon fill="#63b8ff" stroke="#63b8ff" points="166.02,-82.88 172.06,-74.17 161.91,-77.21 166.02,-82.88"/>
</a>
</g>
</g>
</g>
</svg>
