<?xml version="1.0" encoding="UTF-8" standalone="no"?>
<!DOCTYPE svg PUBLIC "-//W3C//DTD SVG 1.1//EN"
 "http://www.w3.org/Graphics/SVG/1.1/DTD/svg11.dtd">
<!-- Generated by graphviz version 2.43.0 (0)
 -->
<!-- Title: l4/cxx/main_thread Pages: 1 -->
<svg width="849pt" height="808pt"
 viewBox="0.00 0.00 848.62 808.00" xmlns="http://www.w3.org/2000/svg" xmlns:xlink="http://www.w3.org/1999/xlink">
<g id="graph0" class="graph" transform="scale(1 1) rotate(0) translate(4 804)">
<title>l4/cxx/main_thread</title>
<!-- Node1 -->
<g id="Node000001" class="node">
<title>Node1</title>
<g id="a_Node000001"><a xlink:title="Main thread.">
<polygon fill="#999999" stroke="#666666" points="216,-800 106,-800 106,-781 216,-781 216,-800"/>
<text text-anchor="middle" x="161" y="-788" font-family="Helvetica,sans-Serif" font-size="10.00">l4/cxx/main_thread</text>
</a>
</g>
</g>
<!-- Node2 -->
<g id="Node000002" class="node">
<title>Node2</title>
<g id="a_Node000002"><a xlink:href="cxx_2thread.html" target="_top" xlink:title="Thread implementation.">
<polygon fill="white" stroke="#666666" points="201,-745 121,-745 121,-726 201,-726 201,-745"/>
<text text-anchor="middle" x="161" y="-733" font-family="Helvetica,sans-Serif" font-size="10.00">l4/cxx/thread</text>
</a>
</g>
</g>
<!-- Node1&#45;&gt;Node2 -->
<g id="edge1_Node000001_Node000002" class="edge">
<title>Node1&#45;&gt;Node2</title>
<g id="a_edge1_Node000001_Node000002"><a xlink:title=" ">
<path fill="none" stroke="#63b8ff" d="M161,-780.75C161,-773.8 161,-763.85 161,-755.13"/>
<polygon fill="#63b8ff" stroke="#63b8ff" points="164.5,-755.09 161,-745.09 157.5,-755.09 164.5,-755.09"/>
</a>
</g>
</g>
<!-- Node3 -->
<g id="Node000003" class="node">
<title>Node3</title>
<g id="a_Node000003"><a xlink:href="capability.html" target="_top" xlink:title="L4::Cap related definitions.">
<polygon fill="white" stroke="#666666" points="424,-690 328,-690 328,-671 424,-671 424,-690"/>
<text text-anchor="middle" x="376" y="-678" font-family="Helvetica,sans-Serif" font-size="10.00">l4/sys/capability</text>
</a>
</g>
</g>
<!-- Node2&#45;&gt;Node3 -->
<g id="edge2_Node000002_Node000003" class="edge">
<title>Node2&#45;&gt;Node3</title>
<g id="a_edge2_Node000002_Node000003"><a xlink:title=" ">
<path fill="none" stroke="#63b8ff" d="M195.54,-725.98C232.42,-716.89 290.99,-702.46 331.34,-692.51"/>
<polygon fill="#63b8ff" stroke="#63b8ff" points="332.31,-695.87 341.19,-690.08 330.64,-689.08 332.31,-695.87"/>
</a>
</g>
</g>
<!-- Node8 -->
<g id="Node000008" class="node">
<title>Node8</title>
<g id="a_Node000008"><a xlink:href="l4_2sys_2types_8h.html" target="_top" xlink:title="Common L4 ABI Data Types.">
<polygon fill="white" stroke="#666666" points="286,-184 202,-184 202,-165 286,-165 286,-184"/>
<text text-anchor="middle" x="244" y="-172" font-family="Helvetica,sans-Serif" font-size="10.00">l4/sys/types.h</text>
</a>
</g>
</g>
<!-- Node2&#45;&gt;Node8 -->
<g id="edge61_Node000002_Node000008" class="edge">
<title>Node2&#45;&gt;Node8</title>
<g id="a_edge61_Node000002_Node000008"><a xlink:title=" ">
<path fill="none" stroke="#63b8ff" d="M120.79,-726.06C73.1,-713.41 0,-684.56 0,-626.5 0,-626.5 0,-626.5 0,-283.5 0,-200.38 119.86,-180.72 191.57,-176.4"/>
<polygon fill="#63b8ff" stroke="#63b8ff" points="191.97,-179.88 201.78,-175.87 191.61,-172.89 191.97,-179.88"/>
</a>
</g>
</g>
<!-- Node4 -->
<g id="Node000004" class="node">
<title>Node4</title>
<g id="a_Node000004"><a xlink:href="l4_2sys_2consts_8h.html" target="_top" xlink:title="Common constants.">
<polygon fill="white" stroke="#666666" points="589.5,-129 500.5,-129 500.5,-110 589.5,-110 589.5,-129"/>
<text text-anchor="middle" x="545" y="-117" font-family="Helvetica,sans-Serif" font-size="10.00">l4/sys/consts.h</text>
</a>
</g>
</g>
<!-- Node3&#45;&gt;Node4 -->
<g id="edge3_Node000003_Node000004" class="edge">
<title>Node3&#45;&gt;Node4</title>
<g id="a_edge3_Node000003_Node000004"><a xlink:title=" ">
<path fill="none" stroke="#63b8ff" d="M384.41,-670.8C400.27,-653.44 433,-612.63 433,-571.5 433,-571.5 433,-571.5 433,-459.5 433,-430.04 438.21,-422.03 452,-396 481.65,-340.03 542,-348.84 542,-285.5 542,-285.5 542,-285.5 542,-228.5 542,-197.18 543.28,-160.77 544.16,-139.23"/>
<polygon fill="#63b8ff" stroke="#63b8ff" points="547.66,-139.32 544.6,-129.18 540.67,-139.02 547.66,-139.32"/>
</a>
</g>
</g>
<!-- Node3&#45;&gt;Node8 -->
<g id="edge7_Node000003_Node000008" class="edge">
<title>Node3&#45;&gt;Node8</title>
<g id="a_edge7_Node000003_Node000008"><a xlink:title=" ">
<path fill="none" stroke="#63b8ff" d="M327.93,-674.3C234.62,-662.87 38,-631.64 38,-571.5 38,-571.5 38,-571.5 38,-283.5 38,-214.22 130.53,-189.29 191.56,-180.39"/>
<polygon fill="#63b8ff" stroke="#63b8ff" points="192.38,-183.81 201.82,-178.99 191.44,-176.87 192.38,-183.81"/>
</a>
</g>
</g>
<!-- Node11 -->
<g id="Node000011" class="node">
<title>Node11</title>
<g id="a_Node000011"><a xlink:href="kobject_source.html" target="_top" xlink:title=" ">
<polygon fill="white" stroke="#666666" points="366.5,-525 283.5,-525 283.5,-506 366.5,-506 366.5,-525"/>
<text text-anchor="middle" x="325" y="-513" font-family="Helvetica,sans-Serif" font-size="10.00">l4/sys/kobject</text>
</a>
</g>
</g>
<!-- Node3&#45;&gt;Node11 -->
<g id="edge15_Node000003_Node000011" class="edge">
<title>Node3&#45;&gt;Node11</title>
<g id="a_edge15_Node000003_Node000011"><a xlink:title=" ">
<path fill="none" stroke="#63b8ff" d="M373.26,-670.74C365.27,-645.2 341.87,-570.43 330.86,-535.23"/>
<polygon fill="#63b8ff" stroke="#63b8ff" points="334.08,-533.81 327.76,-525.31 327.4,-535.9 334.08,-533.81"/>
</a>
</g>
</g>
<!-- Node21 -->
<g id="Node000021" class="node">
<title>Node21</title>
<g id="a_Node000021"><a xlink:href="l4_2sys_2task_8h.html" target="_top" xlink:title="Common task related definitions.">
<polygon fill="white" stroke="#666666" points="438,-354.5 360,-354.5 360,-335.5 438,-335.5 438,-354.5"/>
<text text-anchor="middle" x="399" y="-342.5" font-family="Helvetica,sans-Serif" font-size="10.00">l4/sys/task.h</text>
</a>
</g>
</g>
<!-- Node3&#45;&gt;Node21 -->
<g id="edge44_Node000003_Node000021" class="edge">
<title>Node3&#45;&gt;Node21</title>
<g id="a_edge44_Node000003_Node000021"><a xlink:title=" ">
<path fill="none" stroke="#63b8ff" d="M378.56,-670.91C383.75,-652.74 395,-609 395,-571.5 395,-571.5 395,-571.5 395,-459.5 395,-426.09 396.75,-387.18 397.94,-364.69"/>
<polygon fill="#63b8ff" stroke="#63b8ff" points="401.44,-364.72 398.49,-354.54 394.45,-364.33 401.44,-364.72"/>
</a>
</g>
</g>
<!-- Node22 -->
<g id="Node000022" class="node">
<title>Node22</title>
<g id="a_Node000022"><a xlink:href="sys_2meta.html" target="_top" xlink:title="Meta interface for getting dynamic type information about objects behind capabilities.">
<polygon fill="white" stroke="#666666" points="544,-635 470,-635 470,-616 544,-616 544,-635"/>
<text text-anchor="middle" x="507" y="-623" font-family="Helvetica,sans-Serif" font-size="10.00">l4/sys/meta</text>
</a>
</g>
</g>
<!-- Node3&#45;&gt;Node22 -->
<g id="edge45_Node000003_Node000022" class="edge">
<title>Node3&#45;&gt;Node22</title>
<g id="a_edge45_Node000003_Node000022"><a xlink:title=" ">
<path fill="none" stroke="#63b8ff" d="M397.05,-670.98C418.41,-662.34 451.7,-648.87 476.06,-639.02"/>
<polygon fill="#63b8ff" stroke="#63b8ff" points="477.61,-642.17 485.57,-635.17 474.99,-635.68 477.61,-642.17"/>
</a>
</g>
</g>
<!-- Node5 -->
<g id="Node000005" class="node">
<title>Node5</title>
<g id="a_Node000005"><a xlink:href="compiler_8h.html" target="_top" xlink:title="L4 compiler related defines.">
<polygon fill="white" stroke="#666666" points="630.5,-74 531.5,-74 531.5,-55 630.5,-55 630.5,-74"/>
<text text-anchor="middle" x="581" y="-62" font-family="Helvetica,sans-Serif" font-size="10.00">l4/sys/compiler.h</text>
</a>
</g>
</g>
<!-- Node4&#45;&gt;Node5 -->
<g id="edge4_Node000004_Node000005" class="edge">
<title>Node4&#45;&gt;Node5</title>
<g id="a_edge4_Node000004_Node000005"><a xlink:title=" ">
<path fill="none" stroke="#63b8ff" d="M550.94,-109.75C555.98,-102.34 563.34,-91.5 569.51,-82.41"/>
<polygon fill="#63b8ff" stroke="#63b8ff" points="572.44,-84.33 575.17,-74.09 566.65,-80.39 572.44,-84.33"/>
</a>
</g>
</g>
<!-- Node7 -->
<g id="Node000007" class="node">
<title>Node7</title>
<g id="a_Node000007"><a xlink:href="l4_2sys_2l4int_8h.html" target="_top" xlink:title="Fixed sized integer types, generic version.">
<polygon fill="white" stroke="#666666" points="326.5,-74 247.5,-74 247.5,-55 326.5,-55 326.5,-74"/>
<text text-anchor="middle" x="287" y="-62" font-family="Helvetica,sans-Serif" font-size="10.00">l4/sys/l4int.h</text>
</a>
</g>
</g>
<!-- Node4&#45;&gt;Node7 -->
<g id="edge6_Node000004_Node000007" class="edge">
<title>Node4&#45;&gt;Node7</title>
<g id="a_edge6_Node000004_Node000007"><a xlink:title=" ">
<path fill="none" stroke="#63b8ff" d="M503.55,-109.98C458.07,-100.64 385.1,-85.65 336.61,-75.69"/>
<polygon fill="#63b8ff" stroke="#63b8ff" points="337.15,-72.23 326.65,-73.65 335.75,-79.09 337.15,-72.23"/>
</a>
</g>
</g>
<!-- Node6 -->
<g id="Node000006" class="node">
<title>Node6</title>
<g id="a_Node000006"><a xlink:title=" ">
<polygon fill="#e0e0e0" stroke="#999999" points="627,-19 535,-19 535,0 627,0 627,-19"/>
<text text-anchor="middle" x="581" y="-7" font-family="Helvetica,sans-Serif" font-size="10.00">l4/sys/linkage.h</text>
</a>
</g>
</g>
<!-- Node5&#45;&gt;Node6 -->
<g id="edge5_Node000005_Node000006" class="edge">
<title>Node5&#45;&gt;Node6</title>
<g id="a_edge5_Node000005_Node000006"><a xlink:title=" ">
<path fill="none" stroke="#63b8ff" d="M581,-54.75C581,-47.8 581,-37.85 581,-29.13"/>
<polygon fill="#63b8ff" stroke="#63b8ff" points="584.5,-29.09 581,-19.09 577.5,-29.09 584.5,-29.09"/>
</a>
</g>
</g>
<!-- Node8&#45;&gt;Node4 -->
<g id="edge10_Node000008_Node000004" class="edge">
<title>Node8&#45;&gt;Node4</title>
<g id="a_edge10_Node000008_Node000004"><a xlink:title=" ">
<path fill="none" stroke="#63b8ff" d="M286.17,-166.07C339.44,-156.7 431.22,-140.53 489.96,-130.19"/>
<polygon fill="#63b8ff" stroke="#63b8ff" points="490.93,-133.57 500.17,-128.39 489.72,-126.68 490.93,-133.57"/>
</a>
</g>
</g>
<!-- Node8&#45;&gt;Node5 -->
<g id="edge9_Node000008_Node000005" class="edge">
<title>Node8&#45;&gt;Node5</title>
<g id="a_edge9_Node000008_Node000005"><a xlink:title=" ">
<path fill="none" stroke="#63b8ff" d="M256.98,-164.94C278.25,-151.31 322.24,-124.68 363,-110 414.92,-91.3 476.79,-79.61 521.33,-72.93"/>
<polygon fill="#63b8ff" stroke="#63b8ff" points="522.02,-76.37 531.41,-71.46 521.01,-69.44 522.02,-76.37"/>
</a>
</g>
</g>
<!-- Node8&#45;&gt;Node7 -->
<g id="edge8_Node000008_Node000007" class="edge">
<title>Node8&#45;&gt;Node7</title>
<g id="a_edge8_Node000008_Node000007"><a xlink:title=" ">
<path fill="none" stroke="#63b8ff" d="M247.52,-164.66C254.55,-147.01 270.44,-107.09 279.78,-83.64"/>
<polygon fill="#63b8ff" stroke="#63b8ff" points="283.11,-84.74 283.55,-74.16 276.6,-82.15 283.11,-84.74"/>
</a>
</g>
</g>
<!-- Node9 -->
<g id="Node000009" class="node">
<title>Node9</title>
<g id="a_Node000009"><a xlink:href="____l4__fpage_8h_source.html" target="_top" xlink:title=" ">
<polygon fill="white" stroke="#666666" points="482,-129 372,-129 372,-110 482,-110 482,-129"/>
<text text-anchor="middle" x="427" y="-117" font-family="Helvetica,sans-Serif" font-size="10.00">l4/sys/__l4_fpage.h</text>
</a>
</g>
</g>
<!-- Node8&#45;&gt;Node9 -->
<g id="edge11_Node000008_Node000009" class="edge">
<title>Node8&#45;&gt;Node9</title>
<g id="a_edge11_Node000008_Node000009"><a xlink:title=" ">
<path fill="none" stroke="#63b8ff" d="M273.4,-164.98C304.39,-156.01 353.38,-141.82 387.67,-131.89"/>
<polygon fill="#63b8ff" stroke="#63b8ff" points="388.74,-135.23 397.37,-129.08 386.79,-128.5 388.74,-135.23"/>
</a>
</g>
</g>
<!-- Node10 -->
<g id="Node000010" class="node">
<title>Node10</title>
<g id="a_Node000010"><a xlink:href="____timeout_8h_source.html" target="_top" xlink:title=" ">
<polygon fill="white" stroke="#666666" points="240,-129 134,-129 134,-110 240,-110 240,-129"/>
<text text-anchor="middle" x="187" y="-117" font-family="Helvetica,sans-Serif" font-size="10.00">l4/sys/__timeout.h</text>
</a>
</g>
</g>
<!-- Node8&#45;&gt;Node10 -->
<g id="edge13_Node000008_Node000010" class="edge">
<title>Node8&#45;&gt;Node10</title>
<g id="a_edge13_Node000008_Node000010"><a xlink:title=" ">
<path fill="none" stroke="#63b8ff" d="M234.84,-164.98C226.5,-157.23 213.97,-145.58 203.82,-136.14"/>
<polygon fill="#63b8ff" stroke="#63b8ff" points="206.03,-133.42 196.32,-129.17 201.26,-138.54 206.03,-133.42"/>
</a>
</g>
</g>
<!-- Node9&#45;&gt;Node5 -->
<g id="edge12_Node000009_Node000005" class="edge">
<title>Node9&#45;&gt;Node5</title>
<g id="a_edge12_Node000009_Node000005"><a xlink:title=" ">
<path fill="none" stroke="#63b8ff" d="M451.74,-109.98C477.37,-101.16 517.63,-87.31 546.41,-77.41"/>
<polygon fill="#63b8ff" stroke="#63b8ff" points="547.75,-80.65 556.06,-74.08 545.47,-74.03 547.75,-80.65"/>
</a>
</g>
</g>
<!-- Node10&#45;&gt;Node7 -->
<g id="edge14_Node000010_Node000007" class="edge">
<title>Node10&#45;&gt;Node7</title>
<g id="a_edge14_Node000010_Node000007"><a xlink:title=" ">
<path fill="none" stroke="#63b8ff" d="M203.07,-109.98C218.86,-101.61 243.22,-88.7 261.63,-78.95"/>
<polygon fill="#63b8ff" stroke="#63b8ff" points="263.44,-81.95 270.64,-74.17 260.17,-75.76 263.44,-81.95"/>
</a>
</g>
</g>
<!-- Node11&#45;&gt;Node8 -->
<g id="edge30_Node000011_Node000008" class="edge">
<title>Node11&#45;&gt;Node8</title>
<g id="a_edge30_Node000011_Node000008"><a xlink:title=" ">
<path fill="none" stroke="#63b8ff" d="M283.32,-514.5C212.44,-512.07 76,-495.79 76,-406.5 76,-406.5 76,-406.5 76,-283.5 76,-227.71 142.38,-199.38 191.69,-186.04"/>
<polygon fill="#63b8ff" stroke="#63b8ff" points="192.79,-189.37 201.61,-183.49 191.05,-182.59 192.79,-189.37"/>
</a>
</g>
</g>
<!-- Node12 -->
<g id="Node000012" class="node">
<title>Node12</title>
<g id="a_Node000012"><a xlink:href="kernel__object_8h.html" target="_top" xlink:title="Kernel object system calls.">
<polygon fill="white" stroke="#666666" points="328.5,-415 237.5,-415 237.5,-396 328.5,-396 328.5,-415"/>
<text text-anchor="middle" x="283" y="-403" font-family="Helvetica,sans-Serif" font-size="10.00">kernel_object.h</text>
</a>
</g>
</g>
<!-- Node11&#45;&gt;Node12 -->
<g id="edge16_Node000011_Node000012" class="edge">
<title>Node11&#45;&gt;Node12</title>
<g id="a_edge16_Node000011_Node000012"><a xlink:title=" ">
<path fill="none" stroke="#63b8ff" d="M321.56,-505.66C314.7,-488.01 299.17,-448.09 290.05,-424.64"/>
<polygon fill="#63b8ff" stroke="#63b8ff" points="293.25,-423.21 286.37,-415.16 286.73,-425.75 293.25,-423.21"/>
</a>
</g>
</g>
<!-- Node17 -->
<g id="Node000017" class="node">
<title>Node17</title>
<g id="a_Node000017"><a xlink:href="____typeinfo_8h.html" target="_top" xlink:title="Type information handling.">
<polygon fill="white" stroke="#666666" points="538.5,-470 461.5,-470 461.5,-451 538.5,-451 538.5,-470"/>
<text text-anchor="middle" x="500" y="-458" font-family="Helvetica,sans-Serif" font-size="10.00">__typeinfo.h</text>
</a>
</g>
</g>
<!-- Node11&#45;&gt;Node17 -->
<g id="edge31_Node000011_Node000017" class="edge">
<title>Node11&#45;&gt;Node17</title>
<g id="a_edge31_Node000011_Node000017"><a xlink:title=" ">
<path fill="none" stroke="#63b8ff" d="M353.12,-505.98C382.62,-497.05 429.19,-482.94 461.97,-473.02"/>
<polygon fill="#63b8ff" stroke="#63b8ff" points="463.11,-476.33 471.66,-470.08 461.08,-469.63 463.11,-476.33"/>
</a>
</g>
</g>
<!-- Node12&#45;&gt;Node5 -->
<g id="edge18_Node000012_Node000005" class="edge">
<title>Node12&#45;&gt;Node5</title>
<g id="a_edge18_Node000012_Node000005"><a xlink:title=" ">
<path fill="none" stroke="#63b8ff" d="M328.55,-400.43C363.54,-395.45 411.69,-384.41 447,-360 551.21,-287.96 574.99,-249.53 614,-129 619.52,-111.93 608.32,-93.92 597.5,-81.46"/>
<polygon fill="#63b8ff" stroke="#63b8ff" points="600.02,-79.03 590.63,-74.13 594.92,-83.82 600.02,-79.03"/>
</a>
</g>
</g>
<!-- Node12&#45;&gt;Node8 -->
<g id="edge17_Node000012_Node000008" class="edge">
<title>Node12&#45;&gt;Node8</title>
<g id="a_edge17_Node000012_Node000008"><a xlink:title=" ">
<path fill="none" stroke="#63b8ff" d="M237.23,-400.35C210.55,-395.3 178.91,-384.23 162,-360 122.45,-303.31 192.48,-224.49 226.74,-191.26"/>
<polygon fill="#63b8ff" stroke="#63b8ff" points="229.36,-193.6 234.22,-184.18 224.55,-188.52 229.36,-193.6"/>
</a>
</g>
</g>
<!-- Node13 -->
<g id="Node000013" class="node">
<title>Node13</title>
<g id="a_Node000013"><a xlink:href="l4_2sys_2utcb_8h.html" target="_top" xlink:title="UTCB definitions.">
<polygon fill="white" stroke="#666666" points="476,-239 398,-239 398,-220 476,-220 476,-239"/>
<text text-anchor="middle" x="437" y="-227" font-family="Helvetica,sans-Serif" font-size="10.00">l4/sys/utcb.h</text>
</a>
</g>
</g>
<!-- Node12&#45;&gt;Node13 -->
<g id="edge19_Node000012_Node000013" class="edge">
<title>Node12&#45;&gt;Node13</title>
<g id="a_edge19_Node000012_Node000013"><a xlink:title=" ">
<path fill="none" stroke="#63b8ff" d="M237.43,-398.67C213.39,-393.02 185.86,-381.9 171,-360 163.51,-348.97 166.01,-342.37 171,-330 203.87,-248.51 319.89,-232.26 387.36,-229.91"/>
<polygon fill="#63b8ff" stroke="#63b8ff" points="387.84,-233.39 397.75,-229.64 387.66,-226.4 387.84,-233.39"/>
</a>
</g>
</g>
<!-- Node14 -->
<g id="Node000014" class="node">
<title>Node14</title>
<g id="a_Node000014"><a xlink:href="____kernel__object__impl_8h.html" target="_top" xlink:title="Low&#45;level kernel debugger functions.">
<polygon fill="white" stroke="#666666" points="304,-360 180,-360 180,-330 304,-330 304,-360"/>
<text text-anchor="start" x="188" y="-348" font-family="Helvetica,sans-Serif" font-size="10.00">l4/sys/__kernel_object</text>
<text text-anchor="middle" x="242" y="-337" font-family="Helvetica,sans-Serif" font-size="10.00">_impl.h</text>
</a>
</g>
</g>
<!-- Node12&#45;&gt;Node14 -->
<g id="edge23_Node000012_Node000014" class="edge">
<title>Node12&#45;&gt;Node14</title>
<g id="a_edge23_Node000012_Node000014"><a xlink:title=" ">
<path fill="none" stroke="#63b8ff" d="M276.95,-395.87C271.9,-388.67 264.48,-378.07 257.76,-368.49"/>
<polygon fill="#63b8ff" stroke="#63b8ff" points="260.5,-366.29 251.89,-360.11 254.77,-370.31 260.5,-366.29"/>
</a>
</g>
</g>
<!-- Node15 -->
<g id="Node000015" class="node">
<title>Node15</title>
<g id="a_Node000015"><a xlink:href="l4_2sys_2ipc_8h.html" target="_top" xlink:title="Common IPC interface.">
<polygon fill="white" stroke="#666666" points="303.5,-294 232.5,-294 232.5,-275 303.5,-275 303.5,-294"/>
<text text-anchor="middle" x="268" y="-282" font-family="Helvetica,sans-Serif" font-size="10.00">l4/sys/ipc.h</text>
</a>
</g>
</g>
<!-- Node12&#45;&gt;Node15 -->
<g id="edge29_Node000012_Node000015" class="edge">
<title>Node12&#45;&gt;Node15</title>
<g id="a_edge29_Node000012_Node000015"><a xlink:title=" ">
<path fill="none" stroke="#63b8ff" d="M291.21,-395.8C298.54,-387.38 308.75,-373.9 313,-360 316.9,-347.25 318.14,-342.3 313,-330 308.14,-318.36 298.58,-308.2 289.52,-300.55"/>
<polygon fill="#63b8ff" stroke="#63b8ff" points="291.52,-297.67 281.49,-294.25 287.2,-303.17 291.52,-297.67"/>
</a>
</g>
</g>
<!-- Node13&#45;&gt;Node5 -->
<g id="edge21_Node000013_Node000005" class="edge">
<title>Node13&#45;&gt;Node5</title>
<g id="a_edge21_Node000013_Node000005"><a xlink:title=" ">
<path fill="none" stroke="#63b8ff" d="M467.25,-219.95C505.83,-207.24 570.88,-179.27 599,-129 607.1,-114.51 600.27,-96.09 592.82,-82.83"/>
<polygon fill="#63b8ff" stroke="#63b8ff" points="595.72,-80.87 587.48,-74.21 589.77,-84.55 595.72,-80.87"/>
</a>
</g>
</g>
<!-- Node13&#45;&gt;Node7 -->
<g id="edge22_Node000013_Node000007" class="edge">
<title>Node13&#45;&gt;Node7</title>
<g id="a_edge22_Node000013_Node000007"><a xlink:title=" ">
<path fill="none" stroke="#63b8ff" d="M428.94,-219.74C404.93,-193.65 333.63,-116.17 302.19,-82"/>
<polygon fill="#63b8ff" stroke="#63b8ff" points="304.45,-79.3 295.1,-74.31 299.3,-84.04 304.45,-79.3"/>
</a>
</g>
</g>
<!-- Node13&#45;&gt;Node8 -->
<g id="edge20_Node000013_Node000008" class="edge">
<title>Node13&#45;&gt;Node8</title>
<g id="a_edge20_Node000013_Node000008"><a xlink:title=" ">
<path fill="none" stroke="#63b8ff" d="M405.99,-219.98C373.17,-210.97 321.2,-196.7 285.01,-186.76"/>
<polygon fill="#63b8ff" stroke="#63b8ff" points="285.82,-183.36 275.25,-184.08 283.97,-190.11 285.82,-183.36"/>
</a>
</g>
</g>
<!-- Node14&#45;&gt;Node15 -->
<g id="edge24_Node000014_Node000015" class="edge">
<title>Node14&#45;&gt;Node15</title>
<g id="a_edge24_Node000014_Node000015"><a xlink:title=" ">
<path fill="none" stroke="#63b8ff" d="M248.29,-329.84C251.8,-321.95 256.2,-312.05 259.95,-303.61"/>
<polygon fill="#63b8ff" stroke="#63b8ff" points="263.24,-304.83 264.1,-294.27 256.84,-301.98 263.24,-304.83"/>
</a>
</g>
</g>
<!-- Node15&#45;&gt;Node8 -->
<g id="edge25_Node000015_Node000008" class="edge">
<title>Node15&#45;&gt;Node8</title>
<g id="a_edge25_Node000015_Node000008"><a xlink:title=" ">
<path fill="none" stroke="#63b8ff" d="M266.04,-274.66C262.13,-257.09 253.32,-217.45 248.1,-193.95"/>
<polygon fill="#63b8ff" stroke="#63b8ff" points="251.51,-193.16 245.92,-184.16 244.68,-194.68 251.51,-193.16"/>
</a>
</g>
</g>
<!-- Node15&#45;&gt;Node13 -->
<g id="edge26_Node000015_Node000013" class="edge">
<title>Node15&#45;&gt;Node13</title>
<g id="a_edge26_Node000015_Node000013"><a xlink:title=" ">
<path fill="none" stroke="#63b8ff" d="M295.15,-274.98C323.53,-266.09 368.23,-252.07 399.86,-242.15"/>
<polygon fill="#63b8ff" stroke="#63b8ff" points="401.14,-245.41 409.63,-239.08 399.05,-238.73 401.14,-245.41"/>
</a>
</g>
</g>
<!-- Node16 -->
<g id="Node000016" class="node">
<title>Node16</title>
<g id="a_Node000016"><a xlink:href="err_8h.html" target="_top" xlink:title="Error codes.">
<polygon fill="white" stroke="#666666" points="691,-239 621,-239 621,-220 691,-220 691,-239"/>
<text text-anchor="middle" x="656" y="-227" font-family="Helvetica,sans-Serif" font-size="10.00">l4/sys/err.h</text>
</a>
</g>
</g>
<!-- Node15&#45;&gt;Node16 -->
<g id="edge27_Node000015_Node000016" class="edge">
<title>Node15&#45;&gt;Node16</title>
<g id="a_edge27_Node000015_Node000016"><a xlink:title=" ">
<path fill="none" stroke="#63b8ff" d="M303.81,-278.61C374.73,-268.92 532.91,-247.31 610.84,-236.67"/>
<polygon fill="#63b8ff" stroke="#63b8ff" points="611.41,-240.12 620.84,-235.3 610.46,-233.19 611.41,-240.12"/>
</a>
</g>
</g>
<!-- Node16&#45;&gt;Node5 -->
<g id="edge28_Node000016_Node000005" class="edge">
<title>Node16&#45;&gt;Node5</title>
<g id="a_edge28_Node000016_Node000005"><a xlink:title=" ">
<path fill="none" stroke="#63b8ff" d="M660.39,-219.97C670.35,-199.32 692.11,-145.77 670,-110 660.51,-94.64 643.94,-84.41 627.65,-77.68"/>
<polygon fill="#63b8ff" stroke="#63b8ff" points="628.74,-74.35 618.15,-74.1 626.27,-80.9 628.74,-74.35"/>
</a>
</g>
</g>
<!-- Node18 -->
<g id="Node000018" class="node">
<title>Node18</title>
<g id="a_Node000018"><a xlink:href="types.html" target="_top" xlink:title=" ">
<polygon fill="white" stroke="#666666" points="757,-354.5 693,-354.5 693,-335.5 757,-335.5 757,-354.5"/>
<text text-anchor="middle" x="725" y="-342.5" font-family="Helvetica,sans-Serif" font-size="10.00">cxx/types</text>
</a>
</g>
</g>
<!-- Node17&#45;&gt;Node18 -->
<g id="edge32_Node000017_Node000018" class="edge">
<title>Node17&#45;&gt;Node18</title>
<g id="a_edge32_Node000017_Node000018"><a xlink:title=" ">
<path fill="none" stroke="#63b8ff" d="M512.02,-450.95C530.54,-438.01 567.43,-413.15 601,-396 630.38,-380.99 665.36,-367.24 690.66,-357.97"/>
<polygon fill="#63b8ff" stroke="#63b8ff" points="691.98,-361.21 700.19,-354.52 689.6,-354.63 691.98,-361.21"/>
</a>
</g>
</g>
<!-- Node19 -->
<g id="Node000019" class="node">
<title>Node19</title>
<g id="a_Node000019"><a xlink:href="ipc__basics_source.html" target="_top" xlink:title=" ">
<polygon fill="white" stroke="#666666" points="696.5,-415 609.5,-415 609.5,-396 696.5,-396 696.5,-415"/>
<text text-anchor="middle" x="653" y="-403" font-family="Helvetica,sans-Serif" font-size="10.00">cxx/ipc_basics</text>
</a>
</g>
</g>
<!-- Node17&#45;&gt;Node19 -->
<g id="edge33_Node000017_Node000019" class="edge">
<title>Node17&#45;&gt;Node19</title>
<g id="a_edge33_Node000017_Node000019"><a xlink:title=" ">
<path fill="none" stroke="#63b8ff" d="M524.58,-450.98C550.05,-442.16 590.04,-428.31 618.63,-418.41"/>
<polygon fill="#63b8ff" stroke="#63b8ff" points="619.92,-421.66 628.23,-415.08 617.63,-415.05 619.92,-421.66"/>
</a>
</g>
</g>
<!-- Node20 -->
<g id="Node000020" class="node">
<title>Node20</title>
<g id="a_Node000020"><a xlink:href="capability_8h_source.html" target="_top" xlink:title=" ">
<polygon fill="white" stroke="#666666" points="553,-415 461,-415 461,-396 553,-396 553,-415"/>
<text text-anchor="middle" x="507" y="-403" font-family="Helvetica,sans-Serif" font-size="10.00">cxx/capability.h</text>
</a>
</g>
</g>
<!-- Node17&#45;&gt;Node20 -->
<g id="edge37_Node000017_Node000020" class="edge">
<title>Node17&#45;&gt;Node20</title>
<g id="a_edge37_Node000017_Node000020"><a xlink:title=" ">
<path fill="none" stroke="#63b8ff" d="M501.16,-450.75C502.07,-443.8 503.39,-433.85 504.54,-425.13"/>
<polygon fill="#63b8ff" stroke="#63b8ff" points="508.03,-425.46 505.87,-415.09 501.09,-424.54 508.03,-425.46"/>
</a>
</g>
</g>
<!-- Node19&#45;&gt;Node13 -->
<g id="edge35_Node000019_Node000013" class="edge">
<title>Node19&#45;&gt;Node13</title>
<g id="a_edge35_Node000019_Node000013"><a xlink:title=" ">
<path fill="none" stroke="#63b8ff" d="M642.29,-395.87C607.81,-368.1 499.43,-280.79 455.63,-245.51"/>
<polygon fill="#63b8ff" stroke="#63b8ff" points="457.76,-242.73 447.78,-239.18 453.37,-248.18 457.76,-242.73"/>
</a>
</g>
</g>
<!-- Node19&#45;&gt;Node16 -->
<g id="edge36_Node000019_Node000016" class="edge">
<title>Node19&#45;&gt;Node16</title>
<g id="a_edge36_Node000019_Node000016"><a xlink:title=" ">
<path fill="none" stroke="#63b8ff" d="M653.15,-395.63C653.62,-368.64 655.03,-287.03 655.67,-249.61"/>
<polygon fill="#63b8ff" stroke="#63b8ff" points="659.18,-249.2 655.85,-239.14 652.18,-249.08 659.18,-249.2"/>
</a>
</g>
</g>
<!-- Node19&#45;&gt;Node18 -->
<g id="edge34_Node000019_Node000018" class="edge">
<title>Node19&#45;&gt;Node18</title>
<g id="a_edge34_Node000019_Node000018"><a xlink:title=" ">
<path fill="none" stroke="#63b8ff" d="M663.62,-395.87C674.9,-386.71 692.92,-372.06 706.53,-361.01"/>
<polygon fill="#63b8ff" stroke="#63b8ff" points="708.78,-363.69 714.33,-354.67 704.36,-358.26 708.78,-363.69"/>
</a>
</g>
</g>
<!-- Node20&#45;&gt;Node4 -->
<g id="edge38_Node000020_Node000004" class="edge">
<title>Node20&#45;&gt;Node4</title>
<g id="a_edge38_Node000020_Node000004"><a xlink:title=" ">
<path fill="none" stroke="#63b8ff" d="M520,-395.7C531.04,-387.62 546.54,-374.68 556,-360 574.85,-330.76 580,-320.29 580,-285.5 580,-285.5 580,-285.5 580,-228.5 580,-195.3 564.85,-159.03 554.48,-138.11"/>
<polygon fill="#63b8ff" stroke="#63b8ff" points="557.56,-136.44 549.87,-129.15 551.34,-139.64 557.56,-136.44"/>
</a>
</g>
</g>
<!-- Node20&#45;&gt;Node8 -->
<g id="edge39_Node000020_Node000008" class="edge">
<title>Node20&#45;&gt;Node8</title>
<g id="a_edge39_Node000020_Node000008"><a xlink:title=" ">
<path fill="none" stroke="#63b8ff" d="M500.92,-395.71C490.69,-381.2 468.97,-351.71 447,-330 387.5,-271.21 305.31,-215.08 266.29,-189.68"/>
<polygon fill="#63b8ff" stroke="#63b8ff" points="268.07,-186.66 257.77,-184.17 264.27,-192.54 268.07,-186.66"/>
</a>
</g>
</g>
<!-- Node20&#45;&gt;Node21 -->
<g id="edge40_Node000020_Node000021" class="edge">
<title>Node20&#45;&gt;Node21</title>
<g id="a_edge40_Node000020_Node000021"><a xlink:title=" ">
<path fill="none" stroke="#63b8ff" d="M491.06,-395.87C473.36,-386.28 444.54,-370.67 423.86,-359.47"/>
<polygon fill="#63b8ff" stroke="#63b8ff" points="425.46,-356.35 415,-354.67 422.13,-362.51 425.46,-356.35"/>
</a>
</g>
</g>
<!-- Node21&#45;&gt;Node8 -->
<g id="edge41_Node000021_Node000008" class="edge">
<title>Node21&#45;&gt;Node8</title>
<g id="a_edge41_Node000021_Node000008"><a xlink:title=" ">
<path fill="none" stroke="#63b8ff" d="M391.1,-335.41C366.54,-308.71 291.25,-226.86 258.96,-191.76"/>
<polygon fill="#63b8ff" stroke="#63b8ff" points="261.42,-189.26 252.07,-184.27 256.26,-194 261.42,-189.26"/>
</a>
</g>
</g>
<!-- Node21&#45;&gt;Node13 -->
<g id="edge42_Node000021_Node000013" class="edge">
<title>Node21&#45;&gt;Node13</title>
<g id="a_edge42_Node000021_Node000013"><a xlink:title=" ">
<path fill="none" stroke="#63b8ff" d="M401.86,-335.47C407.99,-317.15 422.54,-273.68 430.87,-248.81"/>
<polygon fill="#63b8ff" stroke="#63b8ff" points="434.25,-249.72 434.11,-239.13 427.62,-247.5 434.25,-249.72"/>
</a>
</g>
</g>
<!-- Node21&#45;&gt;Node15 -->
<g id="edge43_Node000021_Node000015" class="edge">
<title>Node21&#45;&gt;Node15</title>
<g id="a_edge43_Node000021_Node000015"><a xlink:title=" ">
<path fill="none" stroke="#63b8ff" d="M379.95,-335.49C358.03,-325.7 321.79,-309.52 296.5,-298.23"/>
<polygon fill="#63b8ff" stroke="#63b8ff" points="297.63,-294.9 287.07,-294.02 294.78,-301.29 297.63,-294.9"/>
</a>
</g>
</g>
<!-- Node22&#45;&gt;Node11 -->
<g id="edge46_Node000022_Node000011" class="edge">
<title>Node22&#45;&gt;Node11</title>
<g id="a_edge46_Node000022_Node000011"><a xlink:title=" ">
<path fill="none" stroke="#63b8ff" d="M492.41,-615.84C460.92,-597.16 386.33,-552.9 348.25,-530.3"/>
<polygon fill="#63b8ff" stroke="#63b8ff" points="349.79,-527.14 339.4,-525.05 346.22,-533.16 349.79,-527.14"/>
</a>
</g>
</g>
<!-- Node23 -->
<g id="Node000023" class="node">
<title>Node23</title>
<g id="a_Node000023"><a xlink:href="ipc__iface.html" target="_top" xlink:title="Interface Definition Language.">
<polygon fill="white" stroke="#666666" points="598,-525 518,-525 518,-506 598,-506 598,-525"/>
<text text-anchor="middle" x="558" y="-513" font-family="Helvetica,sans-Serif" font-size="10.00">cxx/ipc_iface</text>
</a>
</g>
</g>
<!-- Node22&#45;&gt;Node23 -->
<g id="edge47_Node000022_Node000023" class="edge">
<title>Node22&#45;&gt;Node23</title>
<g id="a_edge47_Node000022_Node000023"><a xlink:title=" ">
<path fill="none" stroke="#63b8ff" d="M511.17,-615.66C519.55,-597.93 538.53,-557.73 549.59,-534.32"/>
<polygon fill="#63b8ff" stroke="#63b8ff" points="552.81,-535.7 553.91,-525.16 546.48,-532.71 552.81,-535.7"/>
</a>
</g>
</g>
<!-- Node25 -->
<g id="Node000025" class="node">
<title>Node25</title>
<g id="a_Node000025"><a xlink:href="ipc__string_source.html" target="_top" xlink:title=" ">
<polygon fill="white" stroke="#666666" points="810,-580 726,-580 726,-561 810,-561 810,-580"/>
<text text-anchor="middle" x="768" y="-568" font-family="Helvetica,sans-Serif" font-size="10.00">cxx/ipc_string</text>
</a>
</g>
</g>
<!-- Node22&#45;&gt;Node25 -->
<g id="edge54_Node000022_Node000025" class="edge">
<title>Node22&#45;&gt;Node25</title>
<g id="a_edge54_Node000022_Node000025"><a xlink:title=" ">
<path fill="none" stroke="#63b8ff" d="M544.12,-616.96C589.11,-607.83 665.2,-592.38 716.01,-582.06"/>
<polygon fill="#63b8ff" stroke="#63b8ff" points="716.72,-585.49 725.82,-580.06 715.33,-578.63 716.72,-585.49"/>
</a>
</g>
</g>
<!-- Node23&#45;&gt;Node17 -->
<g id="edge53_Node000023_Node000017" class="edge">
<title>Node23&#45;&gt;Node17</title>
<g id="a_edge53_Node000023_Node000017"><a xlink:title=" ">
<path fill="none" stroke="#63b8ff" d="M548.68,-505.98C540.19,-498.23 527.44,-486.58 517.12,-477.14"/>
<polygon fill="#63b8ff" stroke="#63b8ff" points="519.23,-474.33 509.49,-470.17 514.51,-479.5 519.23,-474.33"/>
</a>
</g>
</g>
<!-- Node23&#45;&gt;Node19 -->
<g id="edge48_Node000023_Node000019" class="edge">
<title>Node23&#45;&gt;Node19</title>
<g id="a_edge48_Node000023_Node000019"><a xlink:title=" ">
<path fill="none" stroke="#63b8ff" d="M560.29,-505.87C564.1,-492.82 572.74,-467.83 587,-451 597.71,-438.36 612.87,-427.8 625.95,-420.14"/>
<polygon fill="#63b8ff" stroke="#63b8ff" points="627.99,-423.01 635.03,-415.09 624.59,-416.9 627.99,-423.01"/>
</a>
</g>
</g>
<!-- Node24 -->
<g id="Node000024" class="node">
<title>Node24</title>
<g id="a_Node000024"><a xlink:href="ipc__types.html" target="_top" xlink:title=" ">
<polygon fill="white" stroke="#666666" points="710.5,-470 595.5,-470 595.5,-451 710.5,-451 710.5,-470"/>
<text text-anchor="middle" x="653" y="-458" font-family="Helvetica,sans-Serif" font-size="10.00">l4/sys/cxx/ipc_types</text>
</a>
</g>
</g>
<!-- Node23&#45;&gt;Node24 -->
<g id="edge49_Node000023_Node000024" class="edge">
<title>Node23&#45;&gt;Node24</title>
<g id="a_edge49_Node000023_Node000024"><a xlink:title=" ">
<path fill="none" stroke="#63b8ff" d="M573.26,-505.98C588.13,-497.69 610.98,-484.94 628.42,-475.22"/>
<polygon fill="#63b8ff" stroke="#63b8ff" points="630.43,-478.1 637.46,-470.17 627.02,-471.99 630.43,-478.1"/>
</a>
</g>
</g>
<!-- Node24&#45;&gt;Node18 -->
<g id="edge51_Node000024_Node000018" class="edge">
<title>Node24&#45;&gt;Node18</title>
<g id="a_edge51_Node000024_Node000018"><a xlink:title=" ">
<path fill="none" stroke="#63b8ff" d="M667.73,-450.73C679.74,-442.84 696.27,-430.17 706,-415 715.74,-399.82 720.55,-379.66 722.88,-365.06"/>
<polygon fill="#63b8ff" stroke="#63b8ff" points="726.4,-365.12 724.27,-354.74 719.46,-364.18 726.4,-365.12"/>
</a>
</g>
</g>
<!-- Node24&#45;&gt;Node19 -->
<g id="edge52_Node000024_Node000019" class="edge">
<title>Node24&#45;&gt;Node19</title>
<g id="a_edge52_Node000024_Node000019"><a xlink:title=" ">
<path fill="none" stroke="#63b8ff" d="M653,-450.75C653,-443.8 653,-433.85 653,-425.13"/>
<polygon fill="#63b8ff" stroke="#63b8ff" points="656.5,-425.09 653,-415.09 649.5,-425.09 656.5,-425.09"/>
</a>
</g>
</g>
<!-- Node24&#45;&gt;Node20 -->
<g id="edge50_Node000024_Node000020" class="edge">
<title>Node24&#45;&gt;Node20</title>
<g id="a_edge50_Node000024_Node000020"><a xlink:title=" ">
<path fill="none" stroke="#63b8ff" d="M629.54,-450.98C605.42,-442.23 567.63,-428.51 540.4,-418.62"/>
<polygon fill="#63b8ff" stroke="#63b8ff" points="541.48,-415.29 530.88,-415.17 539.09,-421.87 541.48,-415.29"/>
</a>
</g>
</g>
<!-- Node25&#45;&gt;Node18 -->
<g id="edge55_Node000025_Node000018" class="edge">
<title>Node25&#45;&gt;Node18</title>
<g id="a_edge55_Node000025_Node000018"><a xlink:title=" ">
<path fill="none" stroke="#63b8ff" d="M792.81,-560.95C808.84,-553.99 828.43,-542.42 838,-525 842.07,-517.6 840.36,-514.11 838,-506 820.34,-445.34 768.8,-388.46 741.85,-361.82"/>
<polygon fill="#63b8ff" stroke="#63b8ff" points="743.97,-358.99 734.35,-354.55 739.1,-364.02 743.97,-358.99"/>
</a>
</g>
</g>
<!-- Node25&#45;&gt;Node19 -->
<g id="edge56_Node000025_Node000019" class="edge">
<title>Node25&#45;&gt;Node19</title>
<g id="a_edge56_Node000025_Node000019"><a xlink:title=" ">
<path fill="none" stroke="#63b8ff" d="M766.34,-560.85C761.98,-539.96 748.5,-485.9 720,-451 709.38,-437.99 693.95,-427.39 680.58,-419.8"/>
<polygon fill="#63b8ff" stroke="#63b8ff" points="682.2,-416.69 671.73,-415.03 678.88,-422.85 682.2,-416.69"/>
</a>
</g>
</g>
<!-- Node26 -->
<g id="Node000026" class="node">
<title>Node26</title>
<g id="a_Node000026"><a xlink:href="ipc__array_source.html" target="_top" xlink:title=" ">
<polygon fill="white" stroke="#666666" points="829,-525 767,-525 767,-506 829,-506 829,-525"/>
<text text-anchor="middle" x="798" y="-513" font-family="Helvetica,sans-Serif" font-size="10.00">ipc_array</text>
</a>
</g>
</g>
<!-- Node25&#45;&gt;Node26 -->
<g id="edge57_Node000025_Node000026" class="edge">
<title>Node25&#45;&gt;Node26</title>
<g id="a_edge57_Node000025_Node000026"><a xlink:title=" ">
<path fill="none" stroke="#63b8ff" d="M772.95,-560.75C777.06,-553.49 783.03,-542.95 788.1,-533.98"/>
<polygon fill="#63b8ff" stroke="#63b8ff" points="791.26,-535.52 793.14,-525.09 785.17,-532.07 791.26,-535.52"/>
</a>
</g>
</g>
<!-- Node26&#45;&gt;Node18 -->
<g id="edge58_Node000026_Node000018" class="edge">
<title>Node26&#45;&gt;Node18</title>
<g id="a_edge58_Node000026_Node000018"><a xlink:title=" ">
<path fill="none" stroke="#63b8ff" d="M795.14,-505.77C791.02,-493.43 783.05,-470.26 775,-451 761.94,-419.77 744.54,-384.4 734.09,-363.72"/>
<polygon fill="#63b8ff" stroke="#63b8ff" points="737.09,-361.91 729.44,-354.58 730.85,-365.08 737.09,-361.91"/>
</a>
</g>
</g>
<!-- Node26&#45;&gt;Node19 -->
<g id="edge59_Node000026_Node000019" class="edge">
<title>Node26&#45;&gt;Node19</title>
<g id="a_edge59_Node000026_Node000019"><a xlink:title=" ">
<path fill="none" stroke="#63b8ff" d="M793.89,-506C787.06,-492.67 772.23,-466.76 753,-451 735.27,-436.47 712.05,-425.76 692.44,-418.48"/>
<polygon fill="#63b8ff" stroke="#63b8ff" points="693.46,-415.13 682.86,-415.09 691.12,-421.73 693.46,-415.13"/>
</a>
</g>
</g>
<!-- Node26&#45;&gt;Node24 -->
<g id="edge60_Node000026_Node000024" class="edge">
<title>Node26&#45;&gt;Node24</title>
<g id="a_edge60_Node000026_Node000024"><a xlink:title=" ">
<path fill="none" stroke="#63b8ff" d="M774.7,-505.98C750.75,-497.23 713.22,-483.51 686.17,-473.62"/>
<polygon fill="#63b8ff" stroke="#63b8ff" points="687.31,-470.32 676.72,-470.17 684.91,-476.89 687.31,-470.32"/>
</a>
</g>
</g>
</g>
</svg>
