<?xml version="1.0" encoding="UTF-8" standalone="no"?>
<!DOCTYPE svg PUBLIC "-//W3C//DTD SVG 1.1//EN"
 "http://www.w3.org/Graphics/SVG/1.1/DTD/svg11.dtd">
<!-- Generated by graphviz version 2.42.4 (0)
 -->
<!-- Title: l4/util/mb_info.h Pages: 1 -->
<svg width="287pt" height="137pt"
 viewBox="0.00 0.00 287.00 137.00" xmlns="http://www.w3.org/2000/svg" xmlns:xlink="http://www.w3.org/1999/xlink">
<g id="graph0" class="graph" transform="scale(1 1) rotate(0) translate(4 133)">
<title>l4/util/mb_info.h</title>
<!-- Node1 -->
<g id="Node000001" class="node">
<title>Node1</title>
<g id="a_Node000001"><a xlink:title="Multiboot info structure as defined by GRUB.">
<polygon fill="#999999" stroke="#666666" points="191,-129 95,-129 95,-110 191,-110 191,-129"/>
<text text-anchor="middle" x="143" y="-117" font-family="Helvetica,sans-Serif" font-size="10.00">l4/util/mb_info.h</text>
</a>
</g>
</g>
<!-- Node2 -->
<g id="Node000002" class="node">
<title>Node2</title>
<g id="a_Node000002"><a xlink:href="amd64_2l4_2util_2mbi__argv_8h.html" target="_top" xlink:title="command line handling">
<polygon fill="white" stroke="#666666" points="138,-74 0,-74 0,-55 138,-55 138,-74"/>
<text text-anchor="middle" x="69" y="-62" font-family="Helvetica,sans-Serif" font-size="10.00">amd64/l4/util/mbi_argv.h</text>
</a>
</g>
</g>
<!-- Node1&#45;&gt;Node2 -->
<g id="edge1_Node000001_Node000002" class="edge">
<title>Node1&#45;&gt;Node2</title>
<g id="a_edge1_Node000001_Node000002"><a xlink:title=" ">
<path fill="none" stroke="#63b8ff" d="M122.97,-104.15C109.59,-94.57 92.44,-82.29 81.11,-74.17"/>
<polygon fill="#63b8ff" stroke="#63b8ff" points="120.94,-107.01 131.11,-109.98 125.02,-101.32 120.94,-107.01"/>
</a>
</g>
</g>
<!-- Node3 -->
<g id="Node000003" class="node">
<title>Node3</title>
<g id="a_Node000003"><a xlink:href="x86_2l4_2util_2mbi__argv_8h.html" target="_top" xlink:title="command line handling">
<polygon fill="white" stroke="#666666" points="278,-74 156,-74 156,-55 278,-55 278,-74"/>
<text text-anchor="middle" x="217" y="-62" font-family="Helvetica,sans-Serif" font-size="10.00">x86/l4/util/mbi_argv.h</text>
</a>
</g>
</g>
<!-- Node1&#45;&gt;Node3 -->
<g id="edge2_Node000001_Node000003" class="edge">
<title>Node1&#45;&gt;Node3</title>
<g id="a_edge2_Node000001_Node000003"><a xlink:title=" ">
<path fill="none" stroke="#63b8ff" d="M163.03,-104.15C176.41,-94.57 193.56,-82.29 204.89,-74.17"/>
<polygon fill="#63b8ff" stroke="#63b8ff" points="160.98,-101.32 154.89,-109.98 165.06,-107.01 160.98,-101.32"/>
</a>
</g>
</g>
<!-- Node4 -->
<g id="Node000004" class="node">
<title>Node4</title>
<g id="a_Node000004"><a xlink:href="arm_2l4_2util_2mbi__argv_8h.html" target="_top" xlink:title="Multiboot.">
<polygon fill="white" stroke="#666666" points="279,-19 155,-19 155,0 279,0 279,-19"/>
<text text-anchor="middle" x="217" y="-7" font-family="Helvetica,sans-Serif" font-size="10.00">arm/l4/util/mbi_argv.h</text>
</a>
</g>
</g>
<!-- Node3&#45;&gt;Node4 -->
<g id="edge3_Node000003_Node000004" class="edge">
<title>Node3&#45;&gt;Node4</title>
<g id="a_edge3_Node000003_Node000004"><a xlink:title=" ">
<path fill="none" stroke="#63b8ff" d="M217,-44.66C217,-35.93 217,-25.99 217,-19.09"/>
<polygon fill="#63b8ff" stroke="#63b8ff" points="213.5,-44.75 217,-54.75 220.5,-44.75 213.5,-44.75"/>
</a>
</g>
</g>
</g>
</svg>
