<?xml version="1.0" encoding="UTF-8" standalone="no"?>
<!DOCTYPE svg PUBLIC "-//W3C//DTD SVG 1.1//EN"
 "http://www.w3.org/Graphics/SVG/1.1/DTD/svg11.dtd">
<!-- Generated by graphviz version 2.43.0 (0)
 -->
<!-- Title: l4/re/mem_alloc Pages: 1 -->
<svg width="894pt" height="808pt"
 viewBox="0.00 0.00 893.59 808.00" xmlns="http://www.w3.org/2000/svg" xmlns:xlink="http://www.w3.org/1999/xlink">
<g id="graph0" class="graph" transform="scale(1 1) rotate(0) translate(4 804)">
<title>l4/re/mem_alloc</title>
<!-- Node1 -->
<g id="Node000001" class="node">
<title>Node1</title>
<g id="a_Node000001"><a xlink:title="Memory allocator interface.">
<polygon fill="#999999" stroke="#666666" points="544.5,-800 449.5,-800 449.5,-781 544.5,-781 544.5,-800"/>
<text text-anchor="middle" x="497" y="-788" font-family="Helvetica,sans-Serif" font-size="10.00">l4/re/mem_alloc</text>
</a>
</g>
</g>
<!-- Node2 -->
<g id="Node000002" class="node">
<title>Node2</title>
<g id="a_Node000002"><a xlink:href="capability.html" target="_top" xlink:title="L4::Cap related definitions.">
<polygon fill="white" stroke="#666666" points="586,-690 490,-690 490,-671 586,-671 586,-690"/>
<text text-anchor="middle" x="538" y="-678" font-family="Helvetica,sans-Serif" font-size="10.00">l4/sys/capability</text>
</a>
</g>
</g>
<!-- Node1&#45;&gt;Node2 -->
<g id="edge1_Node000001_Node000002" class="edge">
<title>Node1&#45;&gt;Node2</title>
<g id="a_edge1_Node000001_Node000002"><a xlink:title=" ">
<path fill="none" stroke="#63b8ff" d="M500.36,-780.66C507.06,-763.01 522.21,-723.09 531.12,-699.64"/>
<polygon fill="#63b8ff" stroke="#63b8ff" points="534.44,-700.75 534.71,-690.16 527.89,-698.27 534.44,-700.75"/>
</a>
</g>
</g>
<!-- Node26 -->
<g id="Node000026" class="node">
<title>Node26</title>
<g id="a_Node000026"><a xlink:href="factory.html" target="_top" xlink:title="Common factory related definitions.">
<polygon fill="white" stroke="#666666" points="503.5,-745 420.5,-745 420.5,-726 503.5,-726 503.5,-745"/>
<text text-anchor="middle" x="462" y="-733" font-family="Helvetica,sans-Serif" font-size="10.00">l4/sys/factory</text>
</a>
</g>
</g>
<!-- Node1&#45;&gt;Node26 -->
<g id="edge60_Node000001_Node000026" class="edge">
<title>Node1&#45;&gt;Node26</title>
<g id="a_edge60_Node000001_Node000026"><a xlink:title=" ">
<path fill="none" stroke="#63b8ff" d="M491.22,-780.75C486.38,-773.42 479.32,-762.73 473.36,-753.7"/>
<polygon fill="#63b8ff" stroke="#63b8ff" points="476.1,-751.5 467.67,-745.09 470.26,-755.36 476.1,-751.5"/>
</a>
</g>
</g>
<!-- Node3 -->
<g id="Node000003" class="node">
<title>Node3</title>
<g id="a_Node000003"><a xlink:href="l4_2sys_2consts_8h.html" target="_top" xlink:title="Common constants.">
<polygon fill="white" stroke="#666666" points="527.5,-129 438.5,-129 438.5,-110 527.5,-110 527.5,-129"/>
<text text-anchor="middle" x="483" y="-117" font-family="Helvetica,sans-Serif" font-size="10.00">l4/sys/consts.h</text>
</a>
</g>
</g>
<!-- Node2&#45;&gt;Node3 -->
<g id="edge2_Node000002_Node000003" class="edge">
<title>Node2&#45;&gt;Node3</title>
<g id="a_edge2_Node000002_Node000003"><a xlink:title=" ">
<path fill="none" stroke="#63b8ff" d="M489.78,-675.3C357.73,-662.49 0,-618.37 0,-516.5 0,-516.5 0,-516.5 0,-228.5 0,-141.58 301.66,-124.59 428.18,-121.29"/>
<polygon fill="#63b8ff" stroke="#63b8ff" points="428.51,-124.78 438.43,-121.04 428.34,-117.78 428.51,-124.78"/>
</a>
</g>
</g>
<!-- Node7 -->
<g id="Node000007" class="node">
<title>Node7</title>
<g id="a_Node000007"><a xlink:href="l4_2sys_2types_8h.html" target="_top" xlink:title="Common L4 ABI Data Types.">
<polygon fill="white" stroke="#666666" points="719,-184 635,-184 635,-165 719,-165 719,-184"/>
<text text-anchor="middle" x="677" y="-172" font-family="Helvetica,sans-Serif" font-size="10.00">l4/sys/types.h</text>
</a>
</g>
</g>
<!-- Node2&#45;&gt;Node7 -->
<g id="edge6_Node000002_Node000007" class="edge">
<title>Node2&#45;&gt;Node7</title>
<g id="a_edge6_Node000002_Node000007"><a xlink:title=" ">
<path fill="none" stroke="#63b8ff" d="M586.19,-674.55C680.87,-663.48 882,-632.77 882,-571.5 882,-571.5 882,-571.5 882,-283.5 882,-214.67 790.42,-189.6 729.68,-180.55"/>
<polygon fill="#63b8ff" stroke="#63b8ff" points="729.86,-177.04 719.48,-179.13 728.9,-183.97 729.86,-177.04"/>
</a>
</g>
</g>
<!-- Node10 -->
<g id="Node000010" class="node">
<title>Node10</title>
<g id="a_Node000010"><a xlink:href="kobject_source.html" target="_top" xlink:title=" ">
<polygon fill="white" stroke="#666666" points="661.5,-525 578.5,-525 578.5,-506 661.5,-506 661.5,-525"/>
<text text-anchor="middle" x="620" y="-513" font-family="Helvetica,sans-Serif" font-size="10.00">l4/sys/kobject</text>
</a>
</g>
</g>
<!-- Node2&#45;&gt;Node10 -->
<g id="edge14_Node000002_Node000010" class="edge">
<title>Node2&#45;&gt;Node10</title>
<g id="a_edge14_Node000002_Node000010"><a xlink:title=" ">
<path fill="none" stroke="#63b8ff" d="M548.03,-670.87C557.21,-662.51 570.59,-649.07 579,-635 598.48,-602.42 610.44,-559.24 616.09,-535.02"/>
<polygon fill="#63b8ff" stroke="#63b8ff" points="619.56,-535.58 618.31,-525.06 612.72,-534.06 619.56,-535.58"/>
</a>
</g>
</g>
<!-- Node20 -->
<g id="Node000020" class="node">
<title>Node20</title>
<g id="a_Node000020"><a xlink:href="l4_2sys_2task_8h.html" target="_top" xlink:title="Common task related definitions.">
<polygon fill="white" stroke="#666666" points="740,-354.5 662,-354.5 662,-335.5 740,-335.5 740,-354.5"/>
<text text-anchor="middle" x="701" y="-342.5" font-family="Helvetica,sans-Serif" font-size="10.00">l4/sys/task.h</text>
</a>
</g>
</g>
<!-- Node2&#45;&gt;Node20 -->
<g id="edge43_Node000002_Node000020" class="edge">
<title>Node2&#45;&gt;Node20</title>
<g id="a_edge43_Node000002_Node000020"><a xlink:title=" ">
<path fill="none" stroke="#63b8ff" d="M583.16,-670.98C659.54,-655.28 806,-618.97 806,-571.5 806,-571.5 806,-571.5 806,-459.5 806,-413.28 758.5,-377.89 727.39,-359.67"/>
<polygon fill="#63b8ff" stroke="#63b8ff" points="728.77,-356.43 718.34,-354.57 725.34,-362.53 728.77,-356.43"/>
</a>
</g>
</g>
<!-- Node21 -->
<g id="Node000021" class="node">
<title>Node21</title>
<g id="a_Node000021"><a xlink:href="sys_2meta.html" target="_top" xlink:title="Meta interface for getting dynamic type information about objects behind capabilities.">
<polygon fill="white" stroke="#666666" points="570,-635 496,-635 496,-616 570,-616 570,-635"/>
<text text-anchor="middle" x="533" y="-623" font-family="Helvetica,sans-Serif" font-size="10.00">l4/sys/meta</text>
</a>
</g>
</g>
<!-- Node2&#45;&gt;Node21 -->
<g id="edge44_Node000002_Node000021" class="edge">
<title>Node2&#45;&gt;Node21</title>
<g id="a_edge44_Node000002_Node000021"><a xlink:title=" ">
<path fill="none" stroke="#63b8ff" d="M537.17,-670.75C536.52,-663.8 535.58,-653.85 534.76,-645.13"/>
<polygon fill="#63b8ff" stroke="#63b8ff" points="538.23,-644.72 533.81,-635.09 531.27,-645.37 538.23,-644.72"/>
</a>
</g>
</g>
<!-- Node4 -->
<g id="Node000004" class="node">
<title>Node4</title>
<g id="a_Node000004"><a xlink:href="compiler_8h.html" target="_top" xlink:title="L4 compiler related defines.">
<polygon fill="white" stroke="#666666" points="532.5,-74 433.5,-74 433.5,-55 532.5,-55 532.5,-74"/>
<text text-anchor="middle" x="483" y="-62" font-family="Helvetica,sans-Serif" font-size="10.00">l4/sys/compiler.h</text>
</a>
</g>
</g>
<!-- Node3&#45;&gt;Node4 -->
<g id="edge3_Node000003_Node000004" class="edge">
<title>Node3&#45;&gt;Node4</title>
<g id="a_edge3_Node000003_Node000004"><a xlink:title=" ">
<path fill="none" stroke="#63b8ff" d="M483,-109.75C483,-102.8 483,-92.85 483,-84.13"/>
<polygon fill="#63b8ff" stroke="#63b8ff" points="486.5,-84.09 483,-74.09 479.5,-84.09 486.5,-84.09"/>
</a>
</g>
</g>
<!-- Node6 -->
<g id="Node000006" class="node">
<title>Node6</title>
<g id="a_Node000006"><a xlink:href="l4_2sys_2l4int_8h.html" target="_top" xlink:title="Fixed sized integer types, generic version.">
<polygon fill="white" stroke="#666666" points="882.5,-74 803.5,-74 803.5,-55 882.5,-55 882.5,-74"/>
<text text-anchor="middle" x="843" y="-62" font-family="Helvetica,sans-Serif" font-size="10.00">l4/sys/l4int.h</text>
</a>
</g>
</g>
<!-- Node3&#45;&gt;Node6 -->
<g id="edge5_Node000003_Node000006" class="edge">
<title>Node3&#45;&gt;Node6</title>
<g id="a_edge5_Node000003_Node000006"><a xlink:title=" ">
<path fill="none" stroke="#63b8ff" d="M527.5,-111.95C595.01,-102.01 722.87,-83.19 793.32,-72.81"/>
<polygon fill="#63b8ff" stroke="#63b8ff" points="793.9,-76.27 803.29,-71.35 792.88,-69.34 793.9,-76.27"/>
</a>
</g>
</g>
<!-- Node5 -->
<g id="Node000005" class="node">
<title>Node5</title>
<g id="a_Node000005"><a xlink:title=" ">
<polygon fill="#e0e0e0" stroke="#999999" points="529,-19 437,-19 437,0 529,0 529,-19"/>
<text text-anchor="middle" x="483" y="-7" font-family="Helvetica,sans-Serif" font-size="10.00">l4/sys/linkage.h</text>
</a>
</g>
</g>
<!-- Node4&#45;&gt;Node5 -->
<g id="edge4_Node000004_Node000005" class="edge">
<title>Node4&#45;&gt;Node5</title>
<g id="a_edge4_Node000004_Node000005"><a xlink:title=" ">
<path fill="none" stroke="#63b8ff" d="M483,-54.75C483,-47.8 483,-37.85 483,-29.13"/>
<polygon fill="#63b8ff" stroke="#63b8ff" points="486.5,-29.09 483,-19.09 479.5,-29.09 486.5,-29.09"/>
</a>
</g>
</g>
<!-- Node7&#45;&gt;Node3 -->
<g id="edge9_Node000007_Node000003" class="edge">
<title>Node7&#45;&gt;Node3</title>
<g id="a_edge9_Node000007_Node000003"><a xlink:title=" ">
<path fill="none" stroke="#63b8ff" d="M645.83,-164.98C612.84,-155.97 560.6,-141.7 524.23,-131.76"/>
<polygon fill="#63b8ff" stroke="#63b8ff" points="524.98,-128.34 514.41,-129.08 523.14,-135.09 524.98,-128.34"/>
</a>
</g>
</g>
<!-- Node7&#45;&gt;Node4 -->
<g id="edge8_Node000007_Node000004" class="edge">
<title>Node7&#45;&gt;Node4</title>
<g id="a_edge8_Node000007_Node000004"><a xlink:title=" ">
<path fill="none" stroke="#63b8ff" d="M663.31,-165C643.11,-152.55 604.04,-128.78 570,-110 549.95,-98.94 526.85,-87.17 509.5,-78.51"/>
<polygon fill="#63b8ff" stroke="#63b8ff" points="511.01,-75.36 500.5,-74.05 507.9,-81.63 511.01,-75.36"/>
</a>
</g>
</g>
<!-- Node7&#45;&gt;Node6 -->
<g id="edge7_Node000007_Node000006" class="edge">
<title>Node7&#45;&gt;Node6</title>
<g id="a_edge7_Node000007_Node000006"><a xlink:title=" ">
<path fill="none" stroke="#63b8ff" d="M719.1,-169.53C768.85,-163.86 847.16,-151.56 865,-129 875.81,-115.34 866.53,-96.01 856.91,-82.28"/>
<polygon fill="#63b8ff" stroke="#63b8ff" points="859.59,-80.02 850.75,-74.18 854.02,-84.25 859.59,-80.02"/>
</a>
</g>
</g>
<!-- Node8 -->
<g id="Node000008" class="node">
<title>Node8</title>
<g id="a_Node000008"><a xlink:href="____l4__fpage_8h_source.html" target="_top" xlink:title=" ">
<polygon fill="white" stroke="#666666" points="732,-129 622,-129 622,-110 732,-110 732,-129"/>
<text text-anchor="middle" x="677" y="-117" font-family="Helvetica,sans-Serif" font-size="10.00">l4/sys/__l4_fpage.h</text>
</a>
</g>
</g>
<!-- Node7&#45;&gt;Node8 -->
<g id="edge10_Node000007_Node000008" class="edge">
<title>Node7&#45;&gt;Node8</title>
<g id="a_edge10_Node000007_Node000008"><a xlink:title=" ">
<path fill="none" stroke="#63b8ff" d="M677,-164.75C677,-157.8 677,-147.85 677,-139.13"/>
<polygon fill="#63b8ff" stroke="#63b8ff" points="680.5,-139.09 677,-129.09 673.5,-139.09 680.5,-139.09"/>
</a>
</g>
</g>
<!-- Node9 -->
<g id="Node000009" class="node">
<title>Node9</title>
<g id="a_Node000009"><a xlink:href="____timeout_8h_source.html" target="_top" xlink:title=" ">
<polygon fill="white" stroke="#666666" points="856,-129 750,-129 750,-110 856,-110 856,-129"/>
<text text-anchor="middle" x="803" y="-117" font-family="Helvetica,sans-Serif" font-size="10.00">l4/sys/__timeout.h</text>
</a>
</g>
</g>
<!-- Node7&#45;&gt;Node9 -->
<g id="edge12_Node000007_Node000009" class="edge">
<title>Node7&#45;&gt;Node9</title>
<g id="a_edge12_Node000007_Node000009"><a xlink:title=" ">
<path fill="none" stroke="#63b8ff" d="M697.24,-164.98C717.7,-156.38 749.53,-142.99 772.93,-133.15"/>
<polygon fill="#63b8ff" stroke="#63b8ff" points="774.53,-136.27 782.39,-129.17 771.81,-129.82 774.53,-136.27"/>
</a>
</g>
</g>
<!-- Node8&#45;&gt;Node4 -->
<g id="edge11_Node000008_Node000004" class="edge">
<title>Node8&#45;&gt;Node4</title>
<g id="a_edge11_Node000008_Node000004"><a xlink:title=" ">
<path fill="none" stroke="#63b8ff" d="M645.83,-109.98C612.84,-100.97 560.6,-86.7 524.23,-76.76"/>
<polygon fill="#63b8ff" stroke="#63b8ff" points="524.98,-73.34 514.41,-74.08 523.14,-80.09 524.98,-73.34"/>
</a>
</g>
</g>
<!-- Node9&#45;&gt;Node6 -->
<g id="edge13_Node000009_Node000006" class="edge">
<title>Node9&#45;&gt;Node6</title>
<g id="a_edge13_Node000009_Node000006"><a xlink:title=" ">
<path fill="none" stroke="#63b8ff" d="M809.61,-109.75C815.26,-102.26 823.54,-91.28 830.45,-82.13"/>
<polygon fill="#63b8ff" stroke="#63b8ff" points="833.29,-84.18 836.52,-74.09 827.7,-79.96 833.29,-84.18"/>
</a>
</g>
</g>
<!-- Node10&#45;&gt;Node7 -->
<g id="edge29_Node000010_Node000007" class="edge">
<title>Node10&#45;&gt;Node7</title>
<g id="a_edge29_Node000010_Node000007"><a xlink:title=" ">
<path fill="none" stroke="#63b8ff" d="M654.02,-505.97C716.68,-488 844,-439.92 844,-346 844,-346 844,-346 844,-283.5 844,-227.94 778.02,-199.56 729,-186.14"/>
<polygon fill="#63b8ff" stroke="#63b8ff" points="729.7,-182.7 719.14,-183.57 727.94,-189.48 729.7,-182.7"/>
</a>
</g>
</g>
<!-- Node11 -->
<g id="Node000011" class="node">
<title>Node11</title>
<g id="a_Node000011"><a xlink:href="kernel__object_8h.html" target="_top" xlink:title="Kernel object system calls.">
<polygon fill="white" stroke="#666666" points="661.5,-415 570.5,-415 570.5,-396 661.5,-396 661.5,-415"/>
<text text-anchor="middle" x="616" y="-403" font-family="Helvetica,sans-Serif" font-size="10.00">kernel_object.h</text>
</a>
</g>
</g>
<!-- Node10&#45;&gt;Node11 -->
<g id="edge15_Node000010_Node000011" class="edge">
<title>Node10&#45;&gt;Node11</title>
<g id="a_edge15_Node000010_Node000011"><a xlink:title=" ">
<path fill="none" stroke="#63b8ff" d="M619.67,-505.66C619.02,-488.17 617.57,-448.8 616.7,-425.27"/>
<polygon fill="#63b8ff" stroke="#63b8ff" points="620.19,-425.02 616.32,-415.16 613.19,-425.28 620.19,-425.02"/>
</a>
</g>
</g>
<!-- Node16 -->
<g id="Node000016" class="node">
<title>Node16</title>
<g id="a_Node000016"><a xlink:href="____typeinfo_8h.html" target="_top" xlink:title="Type information handling.">
<polygon fill="white" stroke="#666666" points="595.5,-470 518.5,-470 518.5,-451 595.5,-451 595.5,-470"/>
<text text-anchor="middle" x="557" y="-458" font-family="Helvetica,sans-Serif" font-size="10.00">__typeinfo.h</text>
</a>
</g>
</g>
<!-- Node10&#45;&gt;Node16 -->
<g id="edge30_Node000010_Node000016" class="edge">
<title>Node10&#45;&gt;Node16</title>
<g id="a_edge30_Node000010_Node000016"><a xlink:title=" ">
<path fill="none" stroke="#63b8ff" d="M609.88,-505.98C600.56,-498.15 586.53,-486.34 575.26,-476.86"/>
<polygon fill="#63b8ff" stroke="#63b8ff" points="577.21,-473.93 567.31,-470.17 572.71,-479.29 577.21,-473.93"/>
</a>
</g>
</g>
<!-- Node11&#45;&gt;Node4 -->
<g id="edge17_Node000011_Node000004" class="edge">
<title>Node11&#45;&gt;Node4</title>
<g id="a_edge17_Node000011_Node000004"><a xlink:title=" ">
<path fill="none" stroke="#63b8ff" d="M570.41,-396.47C547.09,-390.19 519.93,-379.16 502,-360 428.42,-281.39 445.41,-235.41 429,-129 427.71,-120.65 425.4,-117.64 429,-110 435.01,-97.26 446.66,-86.92 457.61,-79.44"/>
<polygon fill="#63b8ff" stroke="#63b8ff" points="459.54,-82.36 466.11,-74.05 455.79,-76.44 459.54,-82.36"/>
</a>
</g>
</g>
<!-- Node11&#45;&gt;Node7 -->
<g id="edge16_Node000011_Node000007" class="edge">
<title>Node11&#45;&gt;Node7</title>
<g id="a_edge16_Node000011_Node000007"><a xlink:title=" ">
<path fill="none" stroke="#63b8ff" d="M661.57,-397.29C701.51,-389.93 755.14,-377.16 768,-360 791.71,-328.35 782.38,-285.81 737,-220 728.32,-207.41 714.9,-196.97 702.95,-189.38"/>
<polygon fill="#63b8ff" stroke="#63b8ff" points="704.59,-186.28 694.21,-184.14 700.99,-192.28 704.59,-186.28"/>
</a>
</g>
</g>
<!-- Node12 -->
<g id="Node000012" class="node">
<title>Node12</title>
<g id="a_Node000012"><a xlink:href="l4_2sys_2utcb_8h.html" target="_top" xlink:title="UTCB definitions.">
<polygon fill="white" stroke="#666666" points="711,-239 633,-239 633,-220 711,-220 711,-239"/>
<text text-anchor="middle" x="672" y="-227" font-family="Helvetica,sans-Serif" font-size="10.00">l4/sys/utcb.h</text>
</a>
</g>
</g>
<!-- Node11&#45;&gt;Node12 -->
<g id="edge18_Node000011_Node000012" class="edge">
<title>Node11&#45;&gt;Node12</title>
<g id="a_edge18_Node000011_Node000012"><a xlink:title=" ">
<path fill="none" stroke="#63b8ff" d="M661.56,-402.32C691.72,-398.23 729.23,-387.47 749,-360 777.36,-320.61 724.15,-270.29 692.72,-245.57"/>
<polygon fill="#63b8ff" stroke="#63b8ff" points="694.6,-242.6 684.52,-239.31 690.35,-248.16 694.6,-242.6"/>
</a>
</g>
</g>
<!-- Node13 -->
<g id="Node000013" class="node">
<title>Node13</title>
<g id="a_Node000013"><a xlink:href="____kernel__object__impl_8h.html" target="_top" xlink:title="Low&#45;level kernel debugger functions.">
<polygon fill="white" stroke="#666666" points="644,-360 520,-360 520,-330 644,-330 644,-360"/>
<text text-anchor="start" x="528" y="-348" font-family="Helvetica,sans-Serif" font-size="10.00">l4/sys/__kernel_object</text>
<text text-anchor="middle" x="582" y="-337" font-family="Helvetica,sans-Serif" font-size="10.00">_impl.h</text>
</a>
</g>
</g>
<!-- Node11&#45;&gt;Node13 -->
<g id="edge22_Node000011_Node000013" class="edge">
<title>Node11&#45;&gt;Node13</title>
<g id="a_edge22_Node000011_Node000013"><a xlink:title=" ">
<path fill="none" stroke="#63b8ff" d="M610.98,-395.87C606.84,-388.74 600.76,-378.28 595.24,-368.79"/>
<polygon fill="#63b8ff" stroke="#63b8ff" points="598.25,-367 590.2,-360.11 592.2,-370.52 598.25,-367"/>
</a>
</g>
</g>
<!-- Node14 -->
<g id="Node000014" class="node">
<title>Node14</title>
<g id="a_Node000014"><a xlink:href="l4_2sys_2ipc_8h.html" target="_top" xlink:title="Common IPC interface.">
<polygon fill="white" stroke="#666666" points="617.5,-294 546.5,-294 546.5,-275 617.5,-275 617.5,-294"/>
<text text-anchor="middle" x="582" y="-282" font-family="Helvetica,sans-Serif" font-size="10.00">l4/sys/ipc.h</text>
</a>
</g>
</g>
<!-- Node11&#45;&gt;Node14 -->
<g id="edge28_Node000011_Node000014" class="edge">
<title>Node11&#45;&gt;Node14</title>
<g id="a_edge28_Node000011_Node000014"><a xlink:title=" ">
<path fill="none" stroke="#63b8ff" d="M570.23,-397.09C548.41,-391.01 524.23,-379.97 511,-360 503.64,-348.88 504.54,-341.67 511,-330 518.84,-315.83 533.29,-305.57 547.11,-298.5"/>
<polygon fill="#63b8ff" stroke="#63b8ff" points="548.92,-301.52 556.49,-294.1 545.95,-295.18 548.92,-301.52"/>
</a>
</g>
</g>
<!-- Node12&#45;&gt;Node4 -->
<g id="edge20_Node000012_Node000004" class="edge">
<title>Node12&#45;&gt;Node4</title>
<g id="a_edge20_Node000012_Node000004"><a xlink:title=" ">
<path fill="none" stroke="#63b8ff" d="M662.16,-219.81C639.83,-200.14 583.6,-150.71 536,-110 524.59,-100.24 511.68,-89.4 501.47,-80.86"/>
<polygon fill="#63b8ff" stroke="#63b8ff" points="503.53,-78.03 493.61,-74.31 499.04,-83.4 503.53,-78.03"/>
</a>
</g>
</g>
<!-- Node12&#45;&gt;Node6 -->
<g id="edge21_Node000012_Node000006" class="edge">
<title>Node12&#45;&gt;Node6</title>
<g id="a_edge21_Node000012_Node000006"><a xlink:title=" ">
<path fill="none" stroke="#63b8ff" d="M711.28,-222.67C760.94,-212.97 844.46,-188.32 882,-129 892.39,-112.58 877.17,-93.57 862.81,-80.66"/>
<polygon fill="#63b8ff" stroke="#63b8ff" points="864.99,-77.93 855.08,-74.17 860.49,-83.29 864.99,-77.93"/>
</a>
</g>
</g>
<!-- Node12&#45;&gt;Node7 -->
<g id="edge19_Node000012_Node000007" class="edge">
<title>Node12&#45;&gt;Node7</title>
<g id="a_edge19_Node000012_Node000007"><a xlink:title=" ">
<path fill="none" stroke="#63b8ff" d="M672.83,-219.75C673.48,-212.8 674.42,-202.85 675.24,-194.13"/>
<polygon fill="#63b8ff" stroke="#63b8ff" points="678.73,-194.37 676.19,-184.09 671.77,-193.72 678.73,-194.37"/>
</a>
</g>
</g>
<!-- Node13&#45;&gt;Node14 -->
<g id="edge23_Node000013_Node000014" class="edge">
<title>Node13&#45;&gt;Node14</title>
<g id="a_edge23_Node000013_Node000014"><a xlink:title=" ">
<path fill="none" stroke="#63b8ff" d="M582,-329.84C582,-322.21 582,-312.7 582,-304.45"/>
<polygon fill="#63b8ff" stroke="#63b8ff" points="585.5,-304.27 582,-294.27 578.5,-304.27 585.5,-304.27"/>
</a>
</g>
</g>
<!-- Node14&#45;&gt;Node7 -->
<g id="edge24_Node000014_Node000007" class="edge">
<title>Node14&#45;&gt;Node7</title>
<g id="a_edge24_Node000014_Node000007"><a xlink:title=" ">
<path fill="none" stroke="#63b8ff" d="M586.72,-274.73C593.83,-261.94 608.16,-237.75 624,-220 633.75,-209.07 646.23,-198.46 656.63,-190.35"/>
<polygon fill="#63b8ff" stroke="#63b8ff" points="658.92,-193 664.77,-184.16 654.69,-187.42 658.92,-193"/>
</a>
</g>
</g>
<!-- Node14&#45;&gt;Node12 -->
<g id="edge25_Node000014_Node000012" class="edge">
<title>Node14&#45;&gt;Node12</title>
<g id="a_edge25_Node000014_Node000012"><a xlink:title=" ">
<path fill="none" stroke="#63b8ff" d="M596.46,-274.98C610.42,-266.77 631.79,-254.18 648.25,-244.49"/>
<polygon fill="#63b8ff" stroke="#63b8ff" points="650.44,-247.26 657.28,-239.17 646.88,-241.23 650.44,-247.26"/>
</a>
</g>
</g>
<!-- Node15 -->
<g id="Node000015" class="node">
<title>Node15</title>
<g id="a_Node000015"><a xlink:href="err_8h.html" target="_top" xlink:title="Error codes.">
<polygon fill="white" stroke="#666666" points="350,-239 280,-239 280,-220 350,-220 350,-239"/>
<text text-anchor="middle" x="315" y="-227" font-family="Helvetica,sans-Serif" font-size="10.00">l4/sys/err.h</text>
</a>
</g>
</g>
<!-- Node14&#45;&gt;Node15 -->
<g id="edge26_Node000014_Node000015" class="edge">
<title>Node14&#45;&gt;Node15</title>
<g id="a_edge26_Node000014_Node000015"><a xlink:title=" ">
<path fill="none" stroke="#63b8ff" d="M546.27,-276.41C498.18,-266.86 412.61,-249.88 360.13,-239.46"/>
<polygon fill="#63b8ff" stroke="#63b8ff" points="360.59,-235.98 350.1,-237.47 359.22,-242.85 360.59,-235.98"/>
</a>
</g>
</g>
<!-- Node15&#45;&gt;Node4 -->
<g id="edge27_Node000015_Node000004" class="edge">
<title>Node15&#45;&gt;Node4</title>
<g id="a_edge27_Node000015_Node000004"><a xlink:title=" ">
<path fill="none" stroke="#63b8ff" d="M318.95,-219.98C329.06,-198.9 357.85,-143.6 396,-110 411.54,-96.32 432.04,-85.57 449.23,-78.06"/>
<polygon fill="#63b8ff" stroke="#63b8ff" points="451.03,-81.1 458.91,-74.02 448.34,-74.64 451.03,-81.1"/>
</a>
</g>
</g>
<!-- Node17 -->
<g id="Node000017" class="node">
<title>Node17</title>
<g id="a_Node000017"><a xlink:href="types.html" target="_top" xlink:title=" ">
<polygon fill="white" stroke="#666666" points="274,-354.5 210,-354.5 210,-335.5 274,-335.5 274,-354.5"/>
<text text-anchor="middle" x="242" y="-342.5" font-family="Helvetica,sans-Serif" font-size="10.00">cxx/types</text>
</a>
</g>
</g>
<!-- Node16&#45;&gt;Node17 -->
<g id="edge31_Node000016_Node000017" class="edge">
<title>Node16&#45;&gt;Node17</title>
<g id="a_edge31_Node000016_Node000017"><a xlink:title=" ">
<path fill="none" stroke="#63b8ff" d="M533.19,-450.85C509.97,-442.26 473.75,-428.47 443,-415 425.34,-407.27 421.93,-403.09 404,-396 364.06,-380.22 317.02,-366.18 283.95,-357.03"/>
<polygon fill="#63b8ff" stroke="#63b8ff" points="284.73,-353.61 274.16,-354.35 282.88,-360.37 284.73,-353.61"/>
</a>
</g>
</g>
<!-- Node18 -->
<g id="Node000018" class="node">
<title>Node18</title>
<g id="a_Node000018"><a xlink:href="ipc__basics_source.html" target="_top" xlink:title=" ">
<polygon fill="white" stroke="#666666" points="395.5,-415 308.5,-415 308.5,-396 395.5,-396 395.5,-415"/>
<text text-anchor="middle" x="352" y="-403" font-family="Helvetica,sans-Serif" font-size="10.00">cxx/ipc_basics</text>
</a>
</g>
</g>
<!-- Node16&#45;&gt;Node18 -->
<g id="edge32_Node000016_Node000018" class="edge">
<title>Node16&#45;&gt;Node18</title>
<g id="a_edge32_Node000016_Node000018"><a xlink:title=" ">
<path fill="none" stroke="#63b8ff" d="M524.06,-450.98C489.05,-441.93 433.53,-427.58 395.07,-417.64"/>
<polygon fill="#63b8ff" stroke="#63b8ff" points="395.75,-414.2 385.19,-415.08 394,-420.97 395.75,-414.2"/>
</a>
</g>
</g>
<!-- Node19 -->
<g id="Node000019" class="node">
<title>Node19</title>
<g id="a_Node000019"><a xlink:href="capability_8h_source.html" target="_top" xlink:title=" ">
<polygon fill="white" stroke="#666666" points="544,-415 452,-415 452,-396 544,-396 544,-415"/>
<text text-anchor="middle" x="498" y="-403" font-family="Helvetica,sans-Serif" font-size="10.00">cxx/capability.h</text>
</a>
</g>
</g>
<!-- Node16&#45;&gt;Node19 -->
<g id="edge36_Node000016_Node000019" class="edge">
<title>Node16&#45;&gt;Node19</title>
<g id="a_edge36_Node000016_Node000019"><a xlink:title=" ">
<path fill="none" stroke="#63b8ff" d="M547.52,-450.98C538.8,-443.15 525.66,-431.34 515.1,-421.86"/>
<polygon fill="#63b8ff" stroke="#63b8ff" points="517.43,-419.25 507.65,-415.17 512.75,-424.46 517.43,-419.25"/>
</a>
</g>
</g>
<!-- Node18&#45;&gt;Node12 -->
<g id="edge34_Node000018_Node000012" class="edge">
<title>Node18&#45;&gt;Node12</title>
<g id="a_edge34_Node000018_Node000012"><a xlink:title=" ">
<path fill="none" stroke="#63b8ff" d="M362.15,-395.75C389,-372.99 464.8,-311.18 537,-275 565.66,-260.64 600,-249.39 626.87,-241.8"/>
<polygon fill="#63b8ff" stroke="#63b8ff" points="628.06,-245.1 636.77,-239.07 626.2,-238.35 628.06,-245.1"/>
</a>
</g>
</g>
<!-- Node18&#45;&gt;Node15 -->
<g id="edge35_Node000018_Node000015" class="edge">
<title>Node18&#45;&gt;Node15</title>
<g id="a_edge35_Node000018_Node000015"><a xlink:title=" ">
<path fill="none" stroke="#63b8ff" d="M345.36,-395.85C339.17,-387.27 330.27,-373.48 326,-360 314.01,-322.13 313.31,-275.11 314.04,-249.43"/>
<polygon fill="#63b8ff" stroke="#63b8ff" points="317.54,-249.37 314.44,-239.24 310.55,-249.09 317.54,-249.37"/>
</a>
</g>
</g>
<!-- Node18&#45;&gt;Node17 -->
<g id="edge33_Node000018_Node000017" class="edge">
<title>Node18&#45;&gt;Node17</title>
<g id="a_edge33_Node000018_Node000017"><a xlink:title=" ">
<path fill="none" stroke="#63b8ff" d="M335.77,-395.87C317.73,-386.28 288.38,-370.67 267.32,-359.47"/>
<polygon fill="#63b8ff" stroke="#63b8ff" points="268.77,-356.27 258.3,-354.67 265.48,-362.45 268.77,-356.27"/>
</a>
</g>
</g>
<!-- Node19&#45;&gt;Node3 -->
<g id="edge37_Node000019_Node000003" class="edge">
<title>Node19&#45;&gt;Node3</title>
<g id="a_edge37_Node000019_Node000003"><a xlink:title=" ">
<path fill="none" stroke="#63b8ff" d="M478.18,-395.97C444.1,-379.79 378,-341.25 378,-285.5 378,-285.5 378,-285.5 378,-228.5 378,-184.18 424.01,-151.21 455.12,-133.99"/>
<polygon fill="#63b8ff" stroke="#63b8ff" points="457.04,-136.93 464.23,-129.15 453.75,-130.75 457.04,-136.93"/>
</a>
</g>
</g>
<!-- Node19&#45;&gt;Node7 -->
<g id="edge38_Node000019_Node000007" class="edge">
<title>Node19&#45;&gt;Node7</title>
<g id="a_edge38_Node000019_Node000007"><a xlink:title=" ">
<path fill="none" stroke="#63b8ff" d="M497.08,-395.98C495.87,-381.87 494.65,-352.94 502,-330 510.84,-302.41 517.63,-296.55 537,-275 570.82,-237.38 621.29,-205.93 651.5,-188.99"/>
<polygon fill="#63b8ff" stroke="#63b8ff" points="653.47,-191.9 660.55,-184.01 650.1,-185.76 653.47,-191.9"/>
</a>
</g>
</g>
<!-- Node19&#45;&gt;Node20 -->
<g id="edge39_Node000019_Node000020" class="edge">
<title>Node19&#45;&gt;Node20</title>
<g id="a_edge39_Node000019_Node000020"><a xlink:title=" ">
<path fill="none" stroke="#63b8ff" d="M528.01,-395.92C559.25,-386.99 609.57,-372.57 653,-360 655.95,-359.15 659,-358.26 662.06,-357.37"/>
<polygon fill="#63b8ff" stroke="#63b8ff" points="663.19,-360.69 671.81,-354.53 661.24,-353.97 663.19,-360.69"/>
</a>
</g>
</g>
<!-- Node20&#45;&gt;Node7 -->
<g id="edge40_Node000020_Node000007" class="edge">
<title>Node20&#45;&gt;Node7</title>
<g id="a_edge40_Node000020_Node000007"><a xlink:title=" ">
<path fill="none" stroke="#63b8ff" d="M705.38,-335.22C715.13,-314.41 736.49,-260.79 720,-220 715.31,-208.41 706,-198.16 697.24,-190.43"/>
<polygon fill="#63b8ff" stroke="#63b8ff" points="699.44,-187.71 689.49,-184.07 695,-193.12 699.44,-187.71"/>
</a>
</g>
</g>
<!-- Node20&#45;&gt;Node12 -->
<g id="edge41_Node000020_Node000012" class="edge">
<title>Node20&#45;&gt;Node12</title>
<g id="a_edge41_Node000020_Node000012"><a xlink:title=" ">
<path fill="none" stroke="#63b8ff" d="M698.82,-335.47C694.16,-317.23 683.13,-274.07 676.76,-249.14"/>
<polygon fill="#63b8ff" stroke="#63b8ff" points="680.07,-247.95 674.21,-239.13 673.29,-249.69 680.07,-247.95"/>
</a>
</g>
</g>
<!-- Node20&#45;&gt;Node14 -->
<g id="edge42_Node000020_Node000014" class="edge">
<title>Node20&#45;&gt;Node14</title>
<g id="a_edge42_Node000020_Node000014"><a xlink:title=" ">
<path fill="none" stroke="#63b8ff" d="M683.7,-335.49C663.95,-325.79 631.45,-309.81 608.51,-298.53"/>
<polygon fill="#63b8ff" stroke="#63b8ff" points="609.84,-295.29 599.32,-294.02 606.75,-301.57 609.84,-295.29"/>
</a>
</g>
</g>
<!-- Node21&#45;&gt;Node10 -->
<g id="edge45_Node000021_Node000010" class="edge">
<title>Node21&#45;&gt;Node10</title>
<g id="a_edge45_Node000021_Node000010"><a xlink:title=" ">
<path fill="none" stroke="#63b8ff" d="M540.12,-615.66C554.66,-597.61 587.96,-556.28 606.65,-533.08"/>
<polygon fill="#63b8ff" stroke="#63b8ff" points="609.48,-535.14 613.03,-525.16 604.03,-530.75 609.48,-535.14"/>
</a>
</g>
</g>
<!-- Node22 -->
<g id="Node000022" class="node">
<title>Node22</title>
<g id="a_Node000022"><a xlink:href="ipc__iface.html" target="_top" xlink:title="Interface Definition Language.">
<polygon fill="white" stroke="#666666" points="560,-525 480,-525 480,-506 560,-506 560,-525"/>
<text text-anchor="middle" x="520" y="-513" font-family="Helvetica,sans-Serif" font-size="10.00">cxx/ipc_iface</text>
</a>
</g>
</g>
<!-- Node21&#45;&gt;Node22 -->
<g id="edge46_Node000021_Node000022" class="edge">
<title>Node21&#45;&gt;Node22</title>
<g id="a_edge46_Node000021_Node000022"><a xlink:title=" ">
<path fill="none" stroke="#63b8ff" d="M531.94,-615.66C529.83,-598.17 525.09,-558.8 522.26,-535.27"/>
<polygon fill="#63b8ff" stroke="#63b8ff" points="525.71,-534.67 521.04,-525.16 518.76,-535.51 525.71,-534.67"/>
</a>
</g>
</g>
<!-- Node24 -->
<g id="Node000024" class="node">
<title>Node24</title>
<g id="a_Node000024"><a xlink:href="ipc__string_source.html" target="_top" xlink:title=" ">
<polygon fill="white" stroke="#666666" points="406,-580 322,-580 322,-561 406,-561 406,-580"/>
<text text-anchor="middle" x="364" y="-568" font-family="Helvetica,sans-Serif" font-size="10.00">cxx/ipc_string</text>
</a>
</g>
</g>
<!-- Node21&#45;&gt;Node24 -->
<g id="edge53_Node000021_Node000024" class="edge">
<title>Node21&#45;&gt;Node24</title>
<g id="a_edge53_Node000021_Node000024"><a xlink:title=" ">
<path fill="none" stroke="#63b8ff" d="M505.85,-615.98C477.47,-607.09 432.77,-593.07 401.14,-583.15"/>
<polygon fill="#63b8ff" stroke="#63b8ff" points="401.95,-579.73 391.37,-580.08 399.86,-586.41 401.95,-579.73"/>
</a>
</g>
</g>
<!-- Node22&#45;&gt;Node16 -->
<g id="edge52_Node000022_Node000016" class="edge">
<title>Node22&#45;&gt;Node16</title>
<g id="a_edge52_Node000022_Node000016"><a xlink:title=" ">
<path fill="none" stroke="#63b8ff" d="M526.11,-505.75C531.28,-498.34 538.85,-487.5 545.19,-478.41"/>
<polygon fill="#63b8ff" stroke="#63b8ff" points="548.15,-480.29 551,-470.09 542.41,-476.29 548.15,-480.29"/>
</a>
</g>
</g>
<!-- Node22&#45;&gt;Node18 -->
<g id="edge47_Node000022_Node000018" class="edge">
<title>Node22&#45;&gt;Node18</title>
<g id="a_edge47_Node000022_Node000018"><a xlink:title=" ">
<path fill="none" stroke="#63b8ff" d="M514.73,-505.92C506.09,-492.5 487.69,-466.45 466,-451 444.97,-436.02 418.22,-425.23 395.92,-418.03"/>
<polygon fill="#63b8ff" stroke="#63b8ff" points="396.93,-414.68 386.34,-415.07 394.86,-421.37 396.93,-414.68"/>
</a>
</g>
</g>
<!-- Node23 -->
<g id="Node000023" class="node">
<title>Node23</title>
<g id="a_Node000023"><a xlink:href="ipc__types.html" target="_top" xlink:title=" ">
<polygon fill="white" stroke="#666666" points="423.5,-470 308.5,-470 308.5,-451 423.5,-451 423.5,-470"/>
<text text-anchor="middle" x="366" y="-458" font-family="Helvetica,sans-Serif" font-size="10.00">l4/sys/cxx/ipc_types</text>
</a>
</g>
</g>
<!-- Node22&#45;&gt;Node23 -->
<g id="edge48_Node000022_Node000023" class="edge">
<title>Node22&#45;&gt;Node23</title>
<g id="a_edge48_Node000022_Node000023"><a xlink:title=" ">
<path fill="none" stroke="#63b8ff" d="M495.26,-505.98C469.63,-497.16 429.37,-483.31 400.59,-473.41"/>
<polygon fill="#63b8ff" stroke="#63b8ff" points="401.53,-470.03 390.94,-470.08 399.25,-476.65 401.53,-470.03"/>
</a>
</g>
</g>
<!-- Node23&#45;&gt;Node17 -->
<g id="edge50_Node000023_Node000017" class="edge">
<title>Node23&#45;&gt;Node17</title>
<g id="a_edge50_Node000023_Node000017"><a xlink:title=" ">
<path fill="none" stroke="#63b8ff" d="M350.45,-450.95C336.25,-442.74 315.08,-429.49 299,-415 281.41,-399.15 264.57,-377.73 253.81,-362.97"/>
<polygon fill="#63b8ff" stroke="#63b8ff" points="256.61,-360.87 247.95,-354.76 250.91,-364.94 256.61,-360.87"/>
</a>
</g>
</g>
<!-- Node23&#45;&gt;Node18 -->
<g id="edge51_Node000023_Node000018" class="edge">
<title>Node23&#45;&gt;Node18</title>
<g id="a_edge51_Node000023_Node000018"><a xlink:title=" ">
<path fill="none" stroke="#63b8ff" d="M363.69,-450.75C361.83,-443.72 359.16,-433.62 356.85,-424.84"/>
<polygon fill="#63b8ff" stroke="#63b8ff" points="360.21,-423.86 354.27,-415.09 353.44,-425.65 360.21,-423.86"/>
</a>
</g>
</g>
<!-- Node23&#45;&gt;Node19 -->
<g id="edge49_Node000023_Node000019" class="edge">
<title>Node23&#45;&gt;Node19</title>
<g id="a_edge49_Node000023_Node000019"><a xlink:title=" ">
<path fill="none" stroke="#63b8ff" d="M387.21,-450.98C408.73,-442.34 442.28,-428.87 466.83,-419.02"/>
<polygon fill="#63b8ff" stroke="#63b8ff" points="468.43,-422.14 476.41,-415.17 465.82,-415.65 468.43,-422.14"/>
</a>
</g>
</g>
<!-- Node24&#45;&gt;Node17 -->
<g id="edge54_Node000024_Node000017" class="edge">
<title>Node24&#45;&gt;Node17</title>
<g id="a_edge54_Node000024_Node000017"><a xlink:title=" ">
<path fill="none" stroke="#63b8ff" d="M325.09,-560.93C304.93,-554.45 281.72,-543.41 268,-525 231.92,-476.59 235.37,-399.93 239.32,-364.76"/>
<polygon fill="#63b8ff" stroke="#63b8ff" points="242.84,-364.88 240.63,-354.52 235.89,-364 242.84,-364.88"/>
</a>
</g>
</g>
<!-- Node24&#45;&gt;Node18 -->
<g id="edge55_Node000024_Node000018" class="edge">
<title>Node24&#45;&gt;Node18</title>
<g id="a_edge55_Node000024_Node000018"><a xlink:title=" ">
<path fill="none" stroke="#63b8ff" d="M375.79,-560.84C401.02,-541.22 456.05,-491.89 432,-451 423.26,-436.14 407.56,-425.88 392.37,-418.99"/>
<polygon fill="#63b8ff" stroke="#63b8ff" points="393.62,-415.72 383.05,-415.13 390.94,-422.19 393.62,-415.72"/>
</a>
</g>
</g>
<!-- Node25 -->
<g id="Node000025" class="node">
<title>Node25</title>
<g id="a_Node000025"><a xlink:href="ipc__array_source.html" target="_top" xlink:title=" ">
<polygon fill="white" stroke="#666666" points="339,-525 277,-525 277,-506 339,-506 339,-525"/>
<text text-anchor="middle" x="308" y="-513" font-family="Helvetica,sans-Serif" font-size="10.00">ipc_array</text>
</a>
</g>
</g>
<!-- Node24&#45;&gt;Node25 -->
<g id="edge56_Node000024_Node000025" class="edge">
<title>Node24&#45;&gt;Node25</title>
<g id="a_edge56_Node000024_Node000025"><a xlink:title=" ">
<path fill="none" stroke="#63b8ff" d="M355,-560.98C346.81,-553.23 334.49,-541.58 324.53,-532.14"/>
<polygon fill="#63b8ff" stroke="#63b8ff" points="326.83,-529.5 317.16,-525.17 322.02,-534.59 326.83,-529.5"/>
</a>
</g>
</g>
<!-- Node25&#45;&gt;Node17 -->
<g id="edge57_Node000025_Node000017" class="edge">
<title>Node25&#45;&gt;Node17</title>
<g id="a_edge57_Node000025_Node000017"><a xlink:title=" ">
<path fill="none" stroke="#63b8ff" d="M304.64,-505.91C294.4,-479.78 263.46,-400.79 249.26,-364.54"/>
<polygon fill="#63b8ff" stroke="#63b8ff" points="252.34,-362.81 245.44,-354.77 245.82,-365.36 252.34,-362.81"/>
</a>
</g>
</g>
<!-- Node25&#45;&gt;Node18 -->
<g id="edge58_Node000025_Node000018" class="edge">
<title>Node25&#45;&gt;Node18</title>
<g id="a_edge58_Node000025_Node000018"><a xlink:title=" ">
<path fill="none" stroke="#63b8ff" d="M303.85,-505.84C298.42,-493.18 290.53,-469.17 299,-451 304.83,-438.49 316.09,-428.25 326.75,-420.76"/>
<polygon fill="#63b8ff" stroke="#63b8ff" points="328.94,-423.51 335.42,-415.13 325.12,-417.64 328.94,-423.51"/>
</a>
</g>
</g>
<!-- Node25&#45;&gt;Node23 -->
<g id="edge59_Node000025_Node000023" class="edge">
<title>Node25&#45;&gt;Node23</title>
<g id="a_edge59_Node000025_Node000023"><a xlink:title=" ">
<path fill="none" stroke="#63b8ff" d="M317.32,-505.98C325.81,-498.23 338.56,-486.58 348.88,-477.14"/>
<polygon fill="#63b8ff" stroke="#63b8ff" points="351.49,-479.5 356.51,-470.17 346.77,-474.33 351.49,-479.5"/>
</a>
</g>
</g>
<!-- Node26&#45;&gt;Node2 -->
<g id="edge66_Node000026_Node000002" class="edge">
<title>Node26&#45;&gt;Node2</title>
<g id="a_edge66_Node000026_Node000002"><a xlink:title=" ">
<path fill="none" stroke="#63b8ff" d="M474.21,-725.98C485.78,-717.92 503.38,-705.65 517.16,-696.03"/>
<polygon fill="#63b8ff" stroke="#63b8ff" points="519.37,-698.76 525.57,-690.17 515.36,-693.02 519.37,-698.76"/>
</a>
</g>
</g>
<!-- Node26&#45;&gt;Node22 -->
<g id="edge67_Node000026_Node000022" class="edge">
<title>Node26&#45;&gt;Node22</title>
<g id="a_edge67_Node000026_Node000022"><a xlink:title=" ">
<path fill="none" stroke="#63b8ff" d="M463.49,-725.8C466.94,-706.09 476.02,-656.59 487,-616 494.78,-587.24 506.1,-554.58 513.26,-534.76"/>
<polygon fill="#63b8ff" stroke="#63b8ff" points="516.61,-535.78 516.75,-525.18 510.04,-533.38 516.61,-535.78"/>
</a>
</g>
</g>
<!-- Node27 -->
<g id="Node000027" class="node">
<title>Node27</title>
<g id="a_Node000027"><a xlink:href="factory_8h.html" target="_top" xlink:title="Common factory related definitions.">
<polygon fill="white" stroke="#666666" points="192,-354.5 102,-354.5 102,-335.5 192,-335.5 192,-354.5"/>
<text text-anchor="middle" x="147" y="-342.5" font-family="Helvetica,sans-Serif" font-size="10.00">l4/sys/factory.h</text>
</a>
</g>
</g>
<!-- Node26&#45;&gt;Node27 -->
<g id="edge61_Node000026_Node000027" class="edge">
<title>Node26&#45;&gt;Node27</title>
<g id="a_edge61_Node000026_Node000027"><a xlink:title=" ">
<path fill="none" stroke="#63b8ff" d="M420.36,-732.15C340.13,-727.15 167.3,-713.9 113,-690 73.03,-672.4 38,-670.18 38,-626.5 38,-626.5 38,-626.5 38,-459.5 38,-412.5 87.22,-377.42 119.51,-359.46"/>
<polygon fill="#63b8ff" stroke="#63b8ff" points="121.34,-362.44 128.51,-354.64 118.04,-356.27 121.34,-362.44"/>
</a>
</g>
</g>
<!-- Node28 -->
<g id="Node000028" class="node">
<title>Node28</title>
<g id="a_Node000028"><a xlink:href="ipc__varg_source.html" target="_top" xlink:title=" ">
<polygon fill="white" stroke="#666666" points="176,-470 66,-470 66,-451 176,-451 176,-470"/>
<text text-anchor="middle" x="121" y="-458" font-family="Helvetica,sans-Serif" font-size="10.00">l4/sys/cxx/ipc_varg</text>
</a>
</g>
</g>
<!-- Node26&#45;&gt;Node28 -->
<g id="edge68_Node000026_Node000028" class="edge">
<title>Node26&#45;&gt;Node28</title>
<g id="a_edge68_Node000026_Node000028"><a xlink:title=" ">
<path fill="none" stroke="#63b8ff" d="M420.32,-731.7C320.51,-723.85 76,-697.39 76,-626.5 76,-626.5 76,-626.5 76,-569.5 76,-535.31 95.46,-499.38 108.78,-478.79"/>
<polygon fill="#63b8ff" stroke="#63b8ff" points="111.87,-480.48 114.55,-470.23 106.06,-476.57 111.87,-480.48"/>
</a>
</g>
</g>
<!-- Node27&#45;&gt;Node4 -->
<g id="edge62_Node000027_Node000004" class="edge">
<title>Node27&#45;&gt;Node4</title>
<g id="a_edge62_Node000027_Node000004"><a xlink:title=" ">
<path fill="none" stroke="#63b8ff" d="M147.76,-335.47C149.37,-316.57 153,-269.77 153,-230.5 153,-230.5 153,-230.5 153,-173.5 153,-117.3 328.06,-85.67 423.17,-72.64"/>
<polygon fill="#63b8ff" stroke="#63b8ff" points="423.79,-76.09 433.24,-71.29 422.86,-69.15 423.79,-76.09"/>
</a>
</g>
</g>
<!-- Node27&#45;&gt;Node7 -->
<g id="edge63_Node000027_Node000007" class="edge">
<title>Node27&#45;&gt;Node7</title>
<g id="a_edge63_Node000027_Node000007"><a xlink:title=" ">
<path fill="none" stroke="#63b8ff" d="M152.42,-335.45C167.73,-312.13 213.9,-247.39 271,-220 332.24,-190.62 529.18,-180.29 624.43,-176.96"/>
<polygon fill="#63b8ff" stroke="#63b8ff" points="624.82,-180.44 634.7,-176.61 624.59,-173.45 624.82,-180.44"/>
</a>
</g>
</g>
<!-- Node27&#45;&gt;Node12 -->
<g id="edge64_Node000027_Node000012" class="edge">
<title>Node27&#45;&gt;Node12</title>
<g id="a_edge64_Node000027_Node000012"><a xlink:title=" ">
<path fill="none" stroke="#63b8ff" d="M164.83,-335.47C196.49,-320.69 264.98,-290.45 326,-275 429.52,-248.8 554.57,-237.58 622.39,-233.13"/>
<polygon fill="#63b8ff" stroke="#63b8ff" points="623.01,-236.6 632.77,-232.48 622.57,-229.62 623.01,-236.6"/>
</a>
</g>
</g>
<!-- Node27&#45;&gt;Node14 -->
<g id="edge65_Node000027_Node000014" class="edge">
<title>Node27&#45;&gt;Node14</title>
<g id="a_edge65_Node000027_Node000014"><a xlink:title=" ">
<path fill="none" stroke="#63b8ff" d="M176.83,-335.49C184.64,-333.47 193.1,-331.48 201,-330 320.95,-307.56 464.38,-294.44 536.23,-288.8"/>
<polygon fill="#63b8ff" stroke="#63b8ff" points="536.6,-292.28 546.3,-288.02 536.06,-285.3 536.6,-292.28"/>
</a>
</g>
</g>
<!-- Node28&#45;&gt;Node17 -->
<g id="edge69_Node000028_Node000017" class="edge">
<title>Node28&#45;&gt;Node17</title>
<g id="a_edge69_Node000028_Node000017"><a xlink:title=" ">
<path fill="none" stroke="#63b8ff" d="M130.09,-450.97C150.33,-431.99 199.32,-386.03 225.26,-361.71"/>
<polygon fill="#63b8ff" stroke="#63b8ff" points="227.9,-364.02 232.8,-354.63 223.11,-358.92 227.9,-364.02"/>
</a>
</g>
</g>
<!-- Node28&#45;&gt;Node18 -->
<g id="edge70_Node000028_Node000018" class="edge">
<title>Node28&#45;&gt;Node18</title>
<g id="a_edge70_Node000028_Node000018"><a xlink:title=" ">
<path fill="none" stroke="#63b8ff" d="M158.11,-450.98C197.99,-441.84 261.46,-427.27 304.84,-417.32"/>
<polygon fill="#63b8ff" stroke="#63b8ff" points="305.63,-420.73 314.59,-415.08 304.07,-413.91 305.63,-420.73"/>
</a>
</g>
</g>
</g>
</svg>
