<?xml version="1.0" encoding="UTF-8" standalone="no"?>
<!DOCTYPE svg PUBLIC "-//W3C//DTD SVG 1.1//EN"
 "http://www.w3.org/Graphics/SVG/1.1/DTD/svg11.dtd">
<!-- Generated by graphviz version 2.43.0 (0)
 -->
<!-- Title: l4/re/mem_alloc Pages: 1 -->
<svg width="1332pt" height="291pt"
 viewBox="0.00 0.00 1331.50 291.00" xmlns="http://www.w3.org/2000/svg" xmlns:xlink="http://www.w3.org/1999/xlink">
<g id="graph0" class="graph" transform="scale(1 1) rotate(0) translate(4 287)">
<title>l4/re/mem_alloc</title>
<!-- Node1 -->
<g id="Node000001" class="node">
<title>Node1</title>
<g id="a_Node000001"><a xlink:title="Memory allocator interface.">
<polygon fill="#999999" stroke="#666666" points="766,-283 671,-283 671,-264 766,-264 766,-283"/>
<text text-anchor="middle" x="718.5" y="-271" font-family="Helvetica,sans-Serif" font-size="10.00">l4/re/mem_alloc</text>
</a>
</g>
</g>
<!-- Node2 -->
<g id="Node000002" class="node">
<title>Node2</title>
<g id="a_Node000002"><a xlink:href="env.html" target="_top" xlink:title="Environment interface.">
<polygon fill="white" stroke="#666666" points="694,-222.5 635,-222.5 635,-203.5 694,-203.5 694,-222.5"/>
<text text-anchor="middle" x="664.5" y="-210.5" font-family="Helvetica,sans-Serif" font-size="10.00">l4/re/env</text>
</a>
</g>
</g>
<!-- Node1&#45;&gt;Node2 -->
<g id="edge1_Node000001_Node000002" class="edge">
<title>Node1&#45;&gt;Node2</title>
<g id="a_edge1_Node000001_Node000002"><a xlink:title=" ">
<path fill="none" stroke="#63b8ff" d="M703.52,-256.27C693.48,-245.39 680.65,-231.49 672.5,-222.67"/>
<polygon fill="#63b8ff" stroke="#63b8ff" points="701.18,-258.89 710.53,-263.87 706.32,-254.15 701.18,-258.89"/>
</a>
</g>
</g>
<!-- Node19 -->
<g id="Node000019" class="node">
<title>Node19</title>
<g id="a_Node000019"><a xlink:href="mem__alloc__impl_8h.html" target="_top" xlink:title="Memory allocator client stub implementation.">
<polygon fill="white" stroke="#666666" points="832.5,-228 712.5,-228 712.5,-198 832.5,-198 832.5,-228"/>
<text text-anchor="start" x="720.5" y="-216" font-family="Helvetica,sans-Serif" font-size="10.00">l4/re/impl/mem_alloc</text>
<text text-anchor="middle" x="772.5" y="-205" font-family="Helvetica,sans-Serif" font-size="10.00">_impl.h</text>
</a>
</g>
</g>
<!-- Node1&#45;&gt;Node19 -->
<g id="edge22_Node000001_Node000019" class="edge">
<title>Node1&#45;&gt;Node19</title>
<g id="a_edge22_Node000001_Node000019"><a xlink:title=" ">
<path fill="none" stroke="#63b8ff" d="M733.34,-256.43C741.52,-247.56 751.59,-236.65 759.47,-228.11"/>
<polygon fill="#63b8ff" stroke="#63b8ff" points="730.68,-254.15 726.47,-263.87 735.82,-258.89 730.68,-254.15"/>
</a>
</g>
</g>
<!-- Node3 -->
<g id="Node000003" class="node">
<title>Node3</title>
<g id="a_Node000003"><a xlink:href="ro__file__impl_8h_source.html" target="_top" xlink:title=" ">
<polygon fill="white" stroke="#666666" points="105,-162 0,-162 0,-132 105,-132 105,-162"/>
<text text-anchor="start" x="8" y="-150" font-family="Helvetica,sans-Serif" font-size="10.00">l4/l4re_vfs/impl/ro</text>
<text text-anchor="middle" x="52.5" y="-139" font-family="Helvetica,sans-Serif" font-size="10.00">_file_impl.h</text>
</a>
</g>
</g>
<!-- Node2&#45;&gt;Node3 -->
<g id="edge2_Node000002_Node000003" class="edge">
<title>Node2&#45;&gt;Node3</title>
<g id="a_edge2_Node000002_Node000003"><a xlink:title=" ">
<path fill="none" stroke="#63b8ff" d="M624.61,-210.23C533.53,-205.79 303.51,-192.28 113.5,-162 110.82,-161.57 108.08,-161.09 105.32,-160.58"/>
<polygon fill="#63b8ff" stroke="#63b8ff" points="624.6,-213.73 634.76,-210.72 624.94,-206.74 624.6,-213.73"/>
</a>
</g>
</g>
<!-- Node4 -->
<g id="Node000004" class="node">
<title>Node4</title>
<g id="a_Node000004"><a xlink:href="vcon__stream__impl_8h_source.html" target="_top" xlink:title=" ">
<polygon fill="white" stroke="#666666" points="242,-162 123,-162 123,-132 242,-132 242,-162"/>
<text text-anchor="start" x="131" y="-150" font-family="Helvetica,sans-Serif" font-size="10.00">l4/l4re_vfs/impl/vcon</text>
<text text-anchor="middle" x="182.5" y="-139" font-family="Helvetica,sans-Serif" font-size="10.00">_stream_impl.h</text>
</a>
</g>
</g>
<!-- Node2&#45;&gt;Node4 -->
<g id="edge3_Node000002_Node000004" class="edge">
<title>Node2&#45;&gt;Node4</title>
<g id="a_edge3_Node000002_Node000004"><a xlink:title=" ">
<path fill="none" stroke="#63b8ff" d="M624.6,-208.24C550.73,-201.03 387.75,-184.03 251.5,-162 248.48,-161.51 245.4,-160.99 242.29,-160.43"/>
<polygon fill="#63b8ff" stroke="#63b8ff" points="624.55,-211.75 634.84,-209.23 625.22,-204.78 624.55,-211.75"/>
</a>
</g>
</g>
<!-- Node5 -->
<g id="Node000005" class="node">
<title>Node5</title>
<g id="a_Node000005"><a xlink:href="vfs__impl_8h_source.html" target="_top" xlink:title=" ">
<polygon fill="white" stroke="#666666" points="370.5,-162 260.5,-162 260.5,-132 370.5,-132 370.5,-162"/>
<text text-anchor="start" x="268.5" y="-150" font-family="Helvetica,sans-Serif" font-size="10.00">l4/l4re_vfs/impl/vfs</text>
<text text-anchor="middle" x="315.5" y="-139" font-family="Helvetica,sans-Serif" font-size="10.00">_impl.h</text>
</a>
</g>
</g>
<!-- Node2&#45;&gt;Node5 -->
<g id="edge4_Node000002_Node000005" class="edge">
<title>Node2&#45;&gt;Node5</title>
<g id="a_edge4_Node000002_Node000005"><a xlink:title=" ">
<path fill="none" stroke="#63b8ff" d="M624.71,-205.2C570.37,-195.84 469.94,-178.29 384.5,-162 380.06,-161.15 375.46,-160.26 370.84,-159.35"/>
<polygon fill="#63b8ff" stroke="#63b8ff" points="624.17,-208.66 634.62,-206.9 625.36,-201.76 624.17,-208.66"/>
</a>
</g>
</g>
<!-- Node6 -->
<g id="Node000006" class="node">
<title>Node6</title>
<g id="a_Node000006"><a xlink:href="client_2l4virtio_source.html" target="_top" xlink:title=" ">
<polygon fill="white" stroke="#666666" points="520,-96 427,-96 427,-66 520,-66 520,-96"/>
<text text-anchor="start" x="435" y="-84" font-family="Helvetica,sans-Serif" font-size="10.00">l4/l4virtio/client</text>
<text text-anchor="middle" x="473.5" y="-73" font-family="Helvetica,sans-Serif" font-size="10.00">/l4virtio</text>
</a>
</g>
</g>
<!-- Node2&#45;&gt;Node6 -->
<g id="edge5_Node000002_Node000006" class="edge">
<title>Node2&#45;&gt;Node6</title>
<g id="a_edge5_Node000002_Node000006"><a xlink:title=" ">
<path fill="none" stroke="#63b8ff" d="M624.73,-208.26C570.09,-202.21 476.18,-188.21 455.5,-162 440.42,-142.89 453.52,-113.61 463.88,-96.28"/>
<polygon fill="#63b8ff" stroke="#63b8ff" points="624.46,-211.75 634.78,-209.33 625.21,-204.79 624.46,-211.75"/>
</a>
</g>
</g>
<!-- Node7 -->
<g id="Node000007" class="node">
<title>Node7</title>
<g id="a_Node000007"><a xlink:href="client_2virtio-block_source.html" target="_top" xlink:title=" ">
<polygon fill="white" stroke="#666666" points="595,-30 502,-30 502,0 595,0 595,-30"/>
<text text-anchor="start" x="510" y="-18" font-family="Helvetica,sans-Serif" font-size="10.00">l4/l4virtio/client</text>
<text text-anchor="middle" x="548.5" y="-7" font-family="Helvetica,sans-Serif" font-size="10.00">/virtio&#45;block</text>
</a>
</g>
</g>
<!-- Node2&#45;&gt;Node7 -->
<g id="edge8_Node000002_Node000007" class="edge">
<title>Node2&#45;&gt;Node7</title>
<g id="a_edge8_Node000002_Node000007"><a xlink:title=" ">
<path fill="none" stroke="#63b8ff" d="M694.86,-200.21C697.75,-199.36 700.66,-198.6 703.5,-198 757.45,-186.58 1160.95,-202.38 1198.5,-162 1207.58,-152.24 1205.59,-143.29 1198.5,-132 1134.09,-29.48 733.37,-17.17 595.24,-16"/>
<polygon fill="#63b8ff" stroke="#63b8ff" points="693.65,-196.92 685.25,-203.37 695.84,-203.57 693.65,-196.92"/>
</a>
</g>
</g>
<!-- Node8 -->
<g id="Node000008" class="node">
<title>Node8</title>
<g id="a_Node000008"><a xlink:href="virtio-net_source.html" target="_top" xlink:title=" ">
<polygon fill="white" stroke="#666666" points="465,-30 372,-30 372,0 465,0 465,-30"/>
<text text-anchor="start" x="380" y="-18" font-family="Helvetica,sans-Serif" font-size="10.00">l4/l4virtio/client</text>
<text text-anchor="middle" x="418.5" y="-7" font-family="Helvetica,sans-Serif" font-size="10.00">/virtio&#45;net</text>
</a>
</g>
</g>
<!-- Node2&#45;&gt;Node8 -->
<g id="edge9_Node000002_Node000008" class="edge">
<title>Node2&#45;&gt;Node8</title>
<g id="a_edge9_Node000002_Node000008"><a xlink:title=" ">
<path fill="none" stroke="#63b8ff" d="M624.65,-207.29C569.14,-200 472.33,-184.46 445.5,-162 406.37,-129.24 411.62,-59.82 416,-30.04"/>
<polygon fill="#63b8ff" stroke="#63b8ff" points="624.47,-210.79 634.84,-208.59 625.36,-203.85 624.47,-210.79"/>
</a>
</g>
</g>
<!-- Node9 -->
<g id="Node000009" class="node">
<title>Node9</title>
<g id="a_Node000009"><a xlink:href="server_2l4virtio_source.html" target="_top" xlink:title=" ">
<polygon fill="white" stroke="#666666" points="713,-162 616,-162 616,-132 713,-132 713,-162"/>
<text text-anchor="start" x="624" y="-150" font-family="Helvetica,sans-Serif" font-size="10.00">l4/l4virtio/server</text>
<text text-anchor="middle" x="664.5" y="-139" font-family="Helvetica,sans-Serif" font-size="10.00">/l4virtio</text>
</a>
</g>
</g>
<!-- Node2&#45;&gt;Node9 -->
<g id="edge10_Node000002_Node000009" class="edge">
<title>Node2&#45;&gt;Node9</title>
<g id="a_edge10_Node000002_Node000009"><a xlink:title=" ">
<path fill="none" stroke="#63b8ff" d="M664.5,-193.35C664.5,-183.47 664.5,-171.51 664.5,-162.36"/>
<polygon fill="#63b8ff" stroke="#63b8ff" points="661,-193.37 664.5,-203.37 668,-193.37 661,-193.37"/>
</a>
</g>
</g>
<!-- Node11 -->
<g id="Node000011" class="node">
<title>Node11</title>
<g id="a_Node000011"><a xlink:href="env__ns_source.html" target="_top" xlink:title=" ">
<polygon fill="white" stroke="#666666" points="826,-156.5 731,-156.5 731,-137.5 826,-137.5 826,-156.5"/>
<text text-anchor="middle" x="778.5" y="-144.5" font-family="Helvetica,sans-Serif" font-size="10.00">l4/re/util/env_ns</text>
</a>
</g>
</g>
<!-- Node2&#45;&gt;Node11 -->
<g id="edge12_Node000002_Node000011" class="edge">
<title>Node2&#45;&gt;Node11</title>
<g id="a_edge12_Node000002_Node000011"><a xlink:title=" ">
<path fill="none" stroke="#63b8ff" d="M688.8,-198.36C711.24,-185.76 743.91,-167.42 763,-156.7"/>
<polygon fill="#63b8ff" stroke="#63b8ff" points="686.88,-195.42 679.87,-203.37 690.31,-201.53 686.88,-195.42"/>
</a>
</g>
</g>
<!-- Node13 -->
<g id="Node000013" class="node">
<title>Node13</title>
<g id="a_Node000013"><a xlink:href="util_2event.html" target="_top" xlink:title=" ">
<polygon fill="white" stroke="#666666" points="932.5,-156.5 844.5,-156.5 844.5,-137.5 932.5,-137.5 932.5,-156.5"/>
<text text-anchor="middle" x="888.5" y="-144.5" font-family="Helvetica,sans-Serif" font-size="10.00">l4/re/util/event</text>
</a>
</g>
</g>
<!-- Node2&#45;&gt;Node13 -->
<g id="edge14_Node000002_Node000013" class="edge">
<title>Node2&#45;&gt;Node13</title>
<g id="a_edge14_Node000002_Node000013"><a xlink:title=" ">
<path fill="none" stroke="#63b8ff" d="M697.02,-200.11C699.21,-199.37 701.38,-198.67 703.5,-198 731.83,-189.1 810.6,-168.3 855.69,-156.53"/>
<polygon fill="#63b8ff" stroke="#63b8ff" points="695.8,-196.82 687.49,-203.4 698.09,-203.44 695.8,-196.82"/>
</a>
</g>
</g>
<!-- Node14 -->
<g id="Node000014" class="node">
<title>Node14</title>
<g id="a_Node000014"><a xlink:href="icu__svr_source.html" target="_top" xlink:title=" ">
<polygon fill="white" stroke="#666666" points="1046,-156.5 951,-156.5 951,-137.5 1046,-137.5 1046,-156.5"/>
<text text-anchor="middle" x="998.5" y="-144.5" font-family="Helvetica,sans-Serif" font-size="10.00">l4/re/util/icu_svr</text>
</a>
</g>
</g>
<!-- Node2&#45;&gt;Node14 -->
<g id="edge15_Node000002_Node000014" class="edge">
<title>Node2&#45;&gt;Node14</title>
<g id="a_edge15_Node000002_Node000014"><a xlink:title=" ">
<path fill="none" stroke="#63b8ff" d="M695.87,-200.15C698.43,-199.36 701,-198.63 703.5,-198 807.22,-171.8 836.56,-182.78 941.5,-162 949.5,-160.42 958.06,-158.46 966.06,-156.51"/>
<polygon fill="#63b8ff" stroke="#63b8ff" points="694.51,-196.91 686.13,-203.39 696.73,-203.55 694.51,-196.91"/>
</a>
</g>
</g>
<!-- Node16 -->
<g id="Node000016" class="node">
<title>Node16</title>
<g id="a_Node000016"><a xlink:href="kumem__alloc.html" target="_top" xlink:title="Kumem allocator helper.">
<polygon fill="white" stroke="#666666" points="1189,-156.5 1064,-156.5 1064,-137.5 1189,-137.5 1189,-156.5"/>
<text text-anchor="middle" x="1126.5" y="-144.5" font-family="Helvetica,sans-Serif" font-size="10.00">l4/re/util/kumem_alloc</text>
</a>
</g>
</g>
<!-- Node2&#45;&gt;Node16 -->
<g id="edge17_Node000002_Node000016" class="edge">
<title>Node2&#45;&gt;Node16</title>
<g id="a_edge17_Node000002_Node000016"><a xlink:title=" ">
<path fill="none" stroke="#63b8ff" d="M694.88,-200.3C697.77,-199.43 700.67,-198.64 703.5,-198 856.86,-163.18 899.97,-185.24 1055.5,-162 1065.69,-160.48 1076.64,-158.49 1086.81,-156.5"/>
<polygon fill="#63b8ff" stroke="#63b8ff" points="693.66,-197.02 685.27,-203.49 695.87,-203.66 693.66,-197.02"/>
</a>
</g>
</g>
<!-- Node17 -->
<g id="Node000017" class="node">
<title>Node17</title>
<g id="a_Node000017"><a xlink:href="object__registry_source.html" target="_top" xlink:title=" ">
<polygon fill="white" stroke="#666666" points="598,-156.5 465,-156.5 465,-137.5 598,-137.5 598,-156.5"/>
<text text-anchor="middle" x="531.5" y="-144.5" font-family="Helvetica,sans-Serif" font-size="10.00">l4/re/util/object_registry</text>
</a>
</g>
</g>
<!-- Node2&#45;&gt;Node17 -->
<g id="edge18_Node000002_Node000017" class="edge">
<title>Node2&#45;&gt;Node17</title>
<g id="a_edge18_Node000002_Node000017"><a xlink:title=" ">
<path fill="none" stroke="#63b8ff" d="M637.54,-199.03C611.33,-186.42 572.25,-167.61 549.58,-156.7"/>
<polygon fill="#63b8ff" stroke="#63b8ff" points="636.03,-202.19 646.56,-203.37 639.07,-195.88 636.03,-202.19"/>
</a>
</g>
</g>
<!-- Node18 -->
<g id="Node000018" class="node">
<title>Node18</title>
<g id="a_Node000018"><a xlink:href="vcpu.html" target="_top" xlink:title="vCPU support library (C++ interface).">
<polygon fill="white" stroke="#666666" points="1323.5,-156.5 1245.5,-156.5 1245.5,-137.5 1323.5,-137.5 1323.5,-156.5"/>
<text text-anchor="middle" x="1284.5" y="-144.5" font-family="Helvetica,sans-Serif" font-size="10.00">l4/vcpu/vcpu</text>
</a>
</g>
</g>
<!-- Node2&#45;&gt;Node18 -->
<g id="edge21_Node000002_Node000018" class="edge">
<title>Node2&#45;&gt;Node18</title>
<g id="a_edge21_Node000002_Node000018"><a xlink:title=" ">
<path fill="none" stroke="#63b8ff" d="M694.86,-200.2C697.75,-199.35 700.66,-198.59 703.5,-198 933.72,-149.81 999.41,-200.21 1231.5,-162 1239.58,-160.67 1248.21,-158.65 1256.11,-156.56"/>
<polygon fill="#63b8ff" stroke="#63b8ff" points="693.65,-196.91 685.24,-203.36 695.84,-203.56 693.65,-196.91"/>
</a>
</g>
</g>
<!-- Node6&#45;&gt;Node7 -->
<g id="edge6_Node000006_Node000007" class="edge">
<title>Node6&#45;&gt;Node7</title>
<g id="a_edge6_Node000006_Node000007"><a xlink:title=" ">
<path fill="none" stroke="#63b8ff" d="M497.87,-59.2C509.01,-49.7 521.91,-38.69 531.9,-30.16"/>
<polygon fill="#63b8ff" stroke="#63b8ff" points="495.48,-56.64 490.14,-65.8 500.02,-61.97 495.48,-56.64"/>
</a>
</g>
</g>
<!-- Node6&#45;&gt;Node8 -->
<g id="edge7_Node000006_Node000008" class="edge">
<title>Node6&#45;&gt;Node8</title>
<g id="a_edge7_Node000006_Node000008"><a xlink:title=" ">
<path fill="none" stroke="#63b8ff" d="M454.67,-58.09C446.73,-48.85 437.72,-38.36 430.67,-30.16"/>
<polygon fill="#63b8ff" stroke="#63b8ff" points="452.12,-60.49 461.29,-65.8 457.43,-55.93 452.12,-60.49"/>
</a>
</g>
</g>
<!-- Node10 -->
<g id="Node000010" class="node">
<title>Node10</title>
<g id="a_Node000010"><a xlink:href="server_2virtio-block_source.html" target="_top" xlink:title=" ">
<polygon fill="white" stroke="#666666" points="710,-96 613,-96 613,-66 710,-66 710,-96"/>
<text text-anchor="start" x="621" y="-84" font-family="Helvetica,sans-Serif" font-size="10.00">l4/l4virtio/server</text>
<text text-anchor="middle" x="661.5" y="-73" font-family="Helvetica,sans-Serif" font-size="10.00">/virtio&#45;block</text>
</a>
</g>
</g>
<!-- Node9&#45;&gt;Node10 -->
<g id="edge11_Node000009_Node000010" class="edge">
<title>Node9&#45;&gt;Node10</title>
<g id="a_edge11_Node000009_Node000010"><a xlink:title=" ">
<path fill="none" stroke="#63b8ff" d="M663.35,-121.54C662.95,-112.96 662.51,-103.61 662.16,-96.16"/>
<polygon fill="#63b8ff" stroke="#63b8ff" points="659.87,-121.97 663.83,-131.8 666.86,-121.64 659.87,-121.97"/>
</a>
</g>
</g>
<!-- Node12 -->
<g id="Node000012" class="node">
<title>Node12</title>
<g id="a_Node000012"><a xlink:href="ns__fs__impl_8h_source.html" target="_top" xlink:title=" ">
<polygon fill="white" stroke="#666666" points="835,-96 728,-96 728,-66 835,-66 835,-96"/>
<text text-anchor="start" x="736" y="-84" font-family="Helvetica,sans-Serif" font-size="10.00">l4/l4re_vfs/impl/ns</text>
<text text-anchor="middle" x="781.5" y="-73" font-family="Helvetica,sans-Serif" font-size="10.00">_fs_impl.h</text>
</a>
</g>
</g>
<!-- Node11&#45;&gt;Node12 -->
<g id="edge13_Node000011_Node000012" class="edge">
<title>Node11&#45;&gt;Node12</title>
<g id="a_edge13_Node000011_Node000012"><a xlink:title=" ">
<path fill="none" stroke="#63b8ff" d="M779.37,-127.35C779.84,-117.47 780.4,-105.51 780.83,-96.36"/>
<polygon fill="#63b8ff" stroke="#63b8ff" points="775.88,-127.22 778.9,-137.37 782.87,-127.54 775.88,-127.22"/>
</a>
</g>
</g>
<!-- Node15 -->
<g id="Node000015" class="node">
<title>Node15</title>
<g id="a_Node000015"><a xlink:href="event__svr_source.html" target="_top" xlink:title=" ">
<polygon fill="white" stroke="#666666" points="1052.5,-90.5 944.5,-90.5 944.5,-71.5 1052.5,-71.5 1052.5,-90.5"/>
<text text-anchor="middle" x="998.5" y="-78.5" font-family="Helvetica,sans-Serif" font-size="10.00">l4/re/util/event_svr</text>
</a>
</g>
</g>
<!-- Node14&#45;&gt;Node15 -->
<g id="edge16_Node000014_Node000015" class="edge">
<title>Node14&#45;&gt;Node15</title>
<g id="a_edge16_Node000014_Node000015"><a xlink:title=" ">
<path fill="none" stroke="#63b8ff" d="M998.5,-127.08C998.5,-115.13 998.5,-100.22 998.5,-90.91"/>
<polygon fill="#63b8ff" stroke="#63b8ff" points="995,-127.37 998.5,-137.37 1002,-127.37 995,-127.37"/>
</a>
</g>
</g>
<!-- Node17&#45;&gt;Node6 -->
<g id="edge19_Node000017_Node000006" class="edge">
<title>Node17&#45;&gt;Node6</title>
<g id="a_edge19_Node000017_Node000006"><a xlink:title=" ">
<path fill="none" stroke="#63b8ff" d="M516.86,-129.85C507.52,-119.54 495.52,-106.3 486.51,-96.36"/>
<polygon fill="#63b8ff" stroke="#63b8ff" points="514.37,-132.31 523.68,-137.37 519.56,-127.61 514.37,-132.31"/>
</a>
</g>
</g>
<!-- Node17&#45;&gt;Node7 -->
<g id="edge20_Node000017_Node000007" class="edge">
<title>Node17&#45;&gt;Node7</title>
<g id="a_edge20_Node000017_Node000007"><a xlink:title=" ">
<path fill="none" stroke="#63b8ff" d="M533.94,-127.32C537.38,-101 543.58,-53.61 546.66,-30.07"/>
<polygon fill="#63b8ff" stroke="#63b8ff" points="530.44,-127.1 532.62,-137.47 537.38,-128.01 530.44,-127.1"/>
</a>
</g>
</g>
</g>
</svg>
