<?xml version="1.0" encoding="UTF-8" standalone="no"?>
<!DOCTYPE svg PUBLIC "-//W3C//DTD SVG 1.1//EN"
 "http://www.w3.org/Graphics/SVG/1.1/DTD/svg11.dtd">
<!-- Generated by graphviz version 2.42.4 (0)
 -->
<!-- Title: l4/sys/memdesc.h Pages: 1 -->
<svg width="572pt" height="357pt"
 viewBox="0.00 0.00 572.10 357.00" xmlns="http://www.w3.org/2000/svg" xmlns:xlink="http://www.w3.org/1999/xlink">
<g id="graph0" class="graph" transform="scale(1 1) rotate(0) translate(4 353)">
<title>l4/sys/memdesc.h</title>
<!-- Node1 -->
<g id="Node000001" class="node">
<title>Node1</title>
<g id="a_Node000001"><a xlink:title="Memory description functions.">
<polygon fill="#999999" stroke="#666666" points="452.1,-349 347.1,-349 347.1,-330 452.1,-330 452.1,-349"/>
<text text-anchor="middle" x="399.6" y="-337" font-family="Helvetica,sans-Serif" font-size="10.00">l4/sys/memdesc.h</text>
</a>
</g>
</g>
<!-- Node2 -->
<g id="Node000002" class="node">
<title>Node2</title>
<g id="a_Node000002"><a xlink:href="sys_2kip_8h.html" target="_top" xlink:title="Kernel Info Page access functions.">
<polygon fill="white" stroke="#666666" points="435.6,-294 363.6,-294 363.6,-275 435.6,-275 435.6,-294"/>
<text text-anchor="middle" x="399.6" y="-282" font-family="Helvetica,sans-Serif" font-size="10.00">l4/sys/kip.h</text>
</a>
</g>
</g>
<!-- Node1&#45;&gt;Node2 -->
<g id="edge1_Node000001_Node000002" class="edge">
<title>Node1&#45;&gt;Node2</title>
<g id="a_edge1_Node000001_Node000002"><a xlink:title=" ">
<path fill="none" stroke="#63b8ff" d="M399.6,-329.75C399.6,-322.8 399.6,-312.85 399.6,-304.13"/>
<polygon fill="#63b8ff" stroke="#63b8ff" points="403.1,-304.09 399.6,-294.09 396.1,-304.09 403.1,-304.09"/>
</a>
</g>
</g>
<!-- Node3 -->
<g id="Node000003" class="node">
<title>Node3</title>
<g id="a_Node000003"><a xlink:href="compiler_8h.html" target="_top" xlink:title="L4 compiler related defines.">
<polygon fill="white" stroke="#666666" points="125.1,-74 26.1,-74 26.1,-55 125.1,-55 125.1,-74"/>
<text text-anchor="middle" x="75.6" y="-62" font-family="Helvetica,sans-Serif" font-size="10.00">l4/sys/compiler.h</text>
</a>
</g>
</g>
<!-- Node2&#45;&gt;Node3 -->
<g id="edge2_Node000002_Node000003" class="edge">
<title>Node2&#45;&gt;Node3</title>
<g id="a_edge2_Node000002_Node000003"><a xlink:title=" ">
<path fill="none" stroke="#63b8ff" d="M363.4,-282.65C281.18,-278.49 81.47,-255.25 3.6,-129 -9.59,-107.62 17.72,-89.4 42.4,-78.03"/>
<polygon fill="#63b8ff" stroke="#63b8ff" points="43.87,-81.21 51.65,-74.02 41.08,-74.79 43.87,-81.21"/>
</a>
</g>
</g>
<!-- Node5 -->
<g id="Node000005" class="node">
<title>Node5</title>
<g id="a_Node000005"><a xlink:href="l4_2sys_2l4int_8h.html" target="_top" xlink:title="Fixed sized integer types, generic version.">
<polygon fill="white" stroke="#666666" points="393.1,-74 314.1,-74 314.1,-55 393.1,-55 393.1,-74"/>
<text text-anchor="middle" x="353.6" y="-62" font-family="Helvetica,sans-Serif" font-size="10.00">l4/sys/l4int.h</text>
</a>
</g>
</g>
<!-- Node2&#45;&gt;Node5 -->
<g id="edge4_Node000002_Node000005" class="edge">
<title>Node2&#45;&gt;Node5</title>
<g id="a_edge4_Node000002_Node000005"><a xlink:title=" ">
<path fill="none" stroke="#63b8ff" d="M400.7,-274.83C403.66,-248.82 410.09,-169.61 387.6,-110 383.63,-99.47 376.29,-89.36 369.45,-81.45"/>
<polygon fill="#63b8ff" stroke="#63b8ff" points="372.01,-79.06 362.66,-74.07 366.86,-83.8 372.01,-79.06"/>
</a>
</g>
</g>
<!-- Node6 -->
<g id="Node000006" class="node">
<title>Node6</title>
<g id="a_Node000006"><a xlink:title=" ">
<polygon fill="#e0e0e0" stroke="#999999" points="564.1,-239 457.1,-239 457.1,-220 564.1,-220 564.1,-239"/>
<text text-anchor="middle" x="510.6" y="-227" font-family="Helvetica,sans-Serif" font-size="10.00">l4/sys/__kip&#45;arch.h</text>
</a>
</g>
</g>
<!-- Node2&#45;&gt;Node6 -->
<g id="edge5_Node000002_Node000006" class="edge">
<title>Node2&#45;&gt;Node6</title>
<g id="a_edge5_Node000002_Node000006"><a xlink:title=" ">
<path fill="none" stroke="#63b8ff" d="M417.43,-274.98C435.21,-266.5 462.75,-253.35 483.28,-243.54"/>
<polygon fill="#63b8ff" stroke="#63b8ff" points="484.92,-246.64 492.44,-239.17 481.91,-240.32 484.92,-246.64"/>
</a>
</g>
</g>
<!-- Node7 -->
<g id="Node000007" class="node">
<title>Node7</title>
<g id="a_Node000007"><a xlink:href="____kip-64bit_8h_source.html" target="_top" xlink:title=" ">
<polygon fill="white" stroke="#666666" points="342.1,-239 231.1,-239 231.1,-220 342.1,-220 342.1,-239"/>
<text text-anchor="middle" x="286.6" y="-227" font-family="Helvetica,sans-Serif" font-size="10.00">l4/sys/__kip&#45;64bit.h</text>
</a>
</g>
</g>
<!-- Node2&#45;&gt;Node7 -->
<g id="edge6_Node000002_Node000007" class="edge">
<title>Node2&#45;&gt;Node7</title>
<g id="a_edge6_Node000002_Node000007"><a xlink:title=" ">
<path fill="none" stroke="#63b8ff" d="M381.44,-274.98C363.35,-266.5 335.31,-253.35 314.41,-243.54"/>
<polygon fill="#63b8ff" stroke="#63b8ff" points="315.62,-240.25 305.08,-239.17 312.65,-246.59 315.62,-240.25"/>
</a>
</g>
</g>
<!-- Node4 -->
<g id="Node000004" class="node">
<title>Node4</title>
<g id="a_Node000004"><a xlink:title=" ">
<polygon fill="#e0e0e0" stroke="#999999" points="121.6,-19 29.6,-19 29.6,0 121.6,0 121.6,-19"/>
<text text-anchor="middle" x="75.6" y="-7" font-family="Helvetica,sans-Serif" font-size="10.00">l4/sys/linkage.h</text>
</a>
</g>
</g>
<!-- Node3&#45;&gt;Node4 -->
<g id="edge3_Node000003_Node000004" class="edge">
<title>Node3&#45;&gt;Node4</title>
<g id="a_edge3_Node000003_Node000004"><a xlink:title=" ">
<path fill="none" stroke="#63b8ff" d="M75.6,-54.75C75.6,-47.8 75.6,-37.85 75.6,-29.13"/>
<polygon fill="#63b8ff" stroke="#63b8ff" points="79.1,-29.09 75.6,-19.09 72.1,-29.09 79.1,-29.09"/>
</a>
</g>
</g>
<!-- Node8 -->
<g id="Node000008" class="node">
<title>Node8</title>
<g id="a_Node000008"><a xlink:href="l4_2sys_2types_8h.html" target="_top" xlink:title="Common L4 ABI Data Types.">
<polygon fill="white" stroke="#666666" points="271.6,-184 187.6,-184 187.6,-165 271.6,-165 271.6,-184"/>
<text text-anchor="middle" x="229.6" y="-172" font-family="Helvetica,sans-Serif" font-size="10.00">l4/sys/types.h</text>
</a>
</g>
</g>
<!-- Node7&#45;&gt;Node8 -->
<g id="edge7_Node000007_Node000008" class="edge">
<title>Node7&#45;&gt;Node8</title>
<g id="a_edge7_Node000007_Node000008"><a xlink:title=" ">
<path fill="none" stroke="#63b8ff" d="M277.44,-219.98C269.1,-212.23 256.57,-200.58 246.42,-191.14"/>
<polygon fill="#63b8ff" stroke="#63b8ff" points="248.63,-188.42 238.92,-184.17 243.86,-193.54 248.63,-188.42"/>
</a>
</g>
</g>
<!-- Node8&#45;&gt;Node3 -->
<g id="edge9_Node000008_Node000003" class="edge">
<title>Node8&#45;&gt;Node3</title>
<g id="a_edge9_Node000008_Node000003"><a xlink:title=" ">
<path fill="none" stroke="#63b8ff" d="M187.27,-171.04C130.24,-166.74 33.34,-155.63 11.6,-129 -3.69,-110.27 22.78,-91.02 46.18,-78.7"/>
<polygon fill="#63b8ff" stroke="#63b8ff" points="47.85,-81.78 55.23,-74.18 44.72,-75.52 47.85,-81.78"/>
</a>
</g>
</g>
<!-- Node8&#45;&gt;Node5 -->
<g id="edge8_Node000008_Node000005" class="edge">
<title>Node8&#45;&gt;Node5</title>
<g id="a_edge8_Node000008_Node000005"><a xlink:title=" ">
<path fill="none" stroke="#63b8ff" d="M271.67,-172.91C304.74,-169.94 348.89,-159.92 371.6,-129 381.63,-115.34 374.07,-96.28 365.89,-82.61"/>
<polygon fill="#63b8ff" stroke="#63b8ff" points="368.75,-80.58 360.34,-74.14 362.89,-84.42 368.75,-80.58"/>
</a>
</g>
</g>
<!-- Node9 -->
<g id="Node000009" class="node">
<title>Node9</title>
<g id="a_Node000009"><a xlink:href="l4_2sys_2consts_8h.html" target="_top" xlink:title="Common constants.">
<polygon fill="white" stroke="#666666" points="362.1,-129 273.1,-129 273.1,-110 362.1,-110 362.1,-129"/>
<text text-anchor="middle" x="317.6" y="-117" font-family="Helvetica,sans-Serif" font-size="10.00">l4/sys/consts.h</text>
</a>
</g>
</g>
<!-- Node8&#45;&gt;Node9 -->
<g id="edge10_Node000008_Node000009" class="edge">
<title>Node8&#45;&gt;Node9</title>
<g id="a_edge10_Node000008_Node000009"><a xlink:title=" ">
<path fill="none" stroke="#63b8ff" d="M243.74,-164.98C257.38,-156.77 278.29,-144.18 294.38,-134.49"/>
<polygon fill="#63b8ff" stroke="#63b8ff" points="296.44,-137.33 303.2,-129.17 292.83,-131.33 296.44,-137.33"/>
</a>
</g>
</g>
<!-- Node10 -->
<g id="Node000010" class="node">
<title>Node10</title>
<g id="a_Node000010"><a xlink:href="____l4__fpage_8h_source.html" target="_top" xlink:title=" ">
<polygon fill="white" stroke="#666666" points="130.6,-129 20.6,-129 20.6,-110 130.6,-110 130.6,-129"/>
<text text-anchor="middle" x="75.6" y="-117" font-family="Helvetica,sans-Serif" font-size="10.00">l4/sys/__l4_fpage.h</text>
</a>
</g>
</g>
<!-- Node8&#45;&gt;Node10 -->
<g id="edge13_Node000008_Node000010" class="edge">
<title>Node8&#45;&gt;Node10</title>
<g id="a_edge13_Node000008_Node000010"><a xlink:title=" ">
<path fill="none" stroke="#63b8ff" d="M204.86,-164.98C179.23,-156.16 138.97,-142.31 110.19,-132.41"/>
<polygon fill="#63b8ff" stroke="#63b8ff" points="111.13,-129.03 100.54,-129.08 108.85,-135.65 111.13,-129.03"/>
</a>
</g>
</g>
<!-- Node11 -->
<g id="Node000011" class="node">
<title>Node11</title>
<g id="a_Node000011"><a xlink:href="____timeout_8h_source.html" target="_top" xlink:title=" ">
<polygon fill="white" stroke="#666666" points="254.6,-129 148.6,-129 148.6,-110 254.6,-110 254.6,-129"/>
<text text-anchor="middle" x="201.6" y="-117" font-family="Helvetica,sans-Serif" font-size="10.00">l4/sys/__timeout.h</text>
</a>
</g>
</g>
<!-- Node8&#45;&gt;Node11 -->
<g id="edge15_Node000008_Node000011" class="edge">
<title>Node8&#45;&gt;Node11</title>
<g id="a_edge15_Node000008_Node000011"><a xlink:title=" ">
<path fill="none" stroke="#63b8ff" d="M224.98,-164.75C221.14,-157.49 215.57,-146.95 210.83,-137.98"/>
<polygon fill="#63b8ff" stroke="#63b8ff" points="213.9,-136.3 206.14,-129.09 207.71,-139.57 213.9,-136.3"/>
</a>
</g>
</g>
<!-- Node9&#45;&gt;Node3 -->
<g id="edge11_Node000009_Node000003" class="edge">
<title>Node9&#45;&gt;Node3</title>
<g id="a_edge11_Node000009_Node000003"><a xlink:title=" ">
<path fill="none" stroke="#63b8ff" d="M278.72,-109.98C236.86,-100.82 170.17,-86.21 124.71,-76.26"/>
<polygon fill="#63b8ff" stroke="#63b8ff" points="125.3,-72.8 114.79,-74.08 123.8,-79.64 125.3,-72.8"/>
</a>
</g>
</g>
<!-- Node9&#45;&gt;Node5 -->
<g id="edge12_Node000009_Node000005" class="edge">
<title>Node9&#45;&gt;Node5</title>
<g id="a_edge12_Node000009_Node000005"><a xlink:title=" ">
<path fill="none" stroke="#63b8ff" d="M323.54,-109.75C328.58,-102.34 335.94,-91.5 342.11,-82.41"/>
<polygon fill="#63b8ff" stroke="#63b8ff" points="345.04,-84.33 347.77,-74.09 339.25,-80.39 345.04,-84.33"/>
</a>
</g>
</g>
<!-- Node10&#45;&gt;Node3 -->
<g id="edge14_Node000010_Node000003" class="edge">
<title>Node10&#45;&gt;Node3</title>
<g id="a_edge14_Node000010_Node000003"><a xlink:title=" ">
<path fill="none" stroke="#63b8ff" d="M75.6,-109.75C75.6,-102.8 75.6,-92.85 75.6,-84.13"/>
<polygon fill="#63b8ff" stroke="#63b8ff" points="79.1,-84.09 75.6,-74.09 72.1,-84.09 79.1,-84.09"/>
</a>
</g>
</g>
<!-- Node11&#45;&gt;Node3 -->
<g id="edge17_Node000011_Node000003" class="edge">
<title>Node11&#45;&gt;Node3</title>
<g id="a_edge17_Node000011_Node000003"><a xlink:title=" ">
<path fill="none" stroke="#63b8ff" d="M181.36,-109.98C160.9,-101.38 129.07,-87.99 105.67,-78.15"/>
<polygon fill="#63b8ff" stroke="#63b8ff" points="106.79,-74.82 96.21,-74.17 104.07,-81.27 106.79,-74.82"/>
</a>
</g>
</g>
<!-- Node11&#45;&gt;Node5 -->
<g id="edge16_Node000011_Node000005" class="edge">
<title>Node11&#45;&gt;Node5</title>
<g id="a_edge16_Node000011_Node000005"><a xlink:title=" ">
<path fill="none" stroke="#63b8ff" d="M226.02,-109.98C251.32,-101.16 291.05,-87.31 319.46,-77.41"/>
<polygon fill="#63b8ff" stroke="#63b8ff" points="320.7,-80.68 328.99,-74.08 318.39,-74.07 320.7,-80.68"/>
</a>
</g>
</g>
</g>
</svg>
