<?xml version="1.0" encoding="UTF-8" standalone="no"?>
<!DOCTYPE svg PUBLIC "-//W3C//DTD SVG 1.1//EN"
 "http://www.w3.org/Graphics/SVG/1.1/DTD/svg11.dtd">
<!-- Generated by graphviz version 2.42.4 (0)
 -->
<!-- Title: l4/re/namespace Pages: 1 -->
<svg width="590pt" height="159pt"
 viewBox="0.00 0.00 590.00 159.00" xmlns="http://www.w3.org/2000/svg" xmlns:xlink="http://www.w3.org/1999/xlink">
<g id="graph0" class="graph" transform="scale(1 1) rotate(0) translate(4 155)">
<title>l4/re/namespace</title>
<!-- Node1 -->
<g id="Node000001" class="node">
<title>Node1</title>
<g id="a_Node000001"><a xlink:title="Namespace interface.">
<polygon fill="#999999" stroke="#666666" points="385,-151 287,-151 287,-132 385,-132 385,-151"/>
<text text-anchor="middle" x="336" y="-139" font-family="Helvetica,sans-Serif" font-size="10.00">l4/re/namespace</text>
</a>
</g>
</g>
<!-- Node2 -->
<g id="Node000002" class="node">
<title>Node2</title>
<g id="a_Node000002"><a xlink:href="ns__fs_8h_source.html" target="_top" xlink:title=" ">
<polygon fill="white" stroke="#666666" points="130,-90.5 0,-90.5 0,-71.5 130,-71.5 130,-90.5"/>
<text text-anchor="middle" x="65" y="-78.5" font-family="Helvetica,sans-Serif" font-size="10.00">l4/l4re_vfs/impl/ns_fs.h</text>
</a>
</g>
</g>
<!-- Node1&#45;&gt;Node2 -->
<g id="edge1_Node000001_Node000002" class="edge">
<title>Node1&#45;&gt;Node2</title>
<g id="a_edge1_Node000001_Node000002"><a xlink:title=" ">
<path fill="none" stroke="#63b8ff" d="M286.53,-129.82C234.19,-118.52 152.64,-100.92 104.45,-90.52"/>
<polygon fill="#63b8ff" stroke="#63b8ff" points="286.08,-133.3 296.59,-131.99 287.56,-126.46 286.08,-133.3"/>
</a>
</g>
</g>
<!-- Node5 -->
<g id="Node000005" class="node">
<title>Node5</title>
<g id="a_Node000005"><a xlink:href="namespace__impl_8h.html" target="_top" xlink:title="Namespace client stub implementation.">
<polygon fill="white" stroke="#666666" points="270,-96 148,-96 148,-66 270,-66 270,-96"/>
<text text-anchor="start" x="156" y="-84" font-family="Helvetica,sans-Serif" font-size="10.00">l4/re/impl/namespace</text>
<text text-anchor="middle" x="209" y="-73" font-family="Helvetica,sans-Serif" font-size="10.00">_impl.h</text>
</a>
</g>
</g>
<!-- Node1&#45;&gt;Node5 -->
<g id="edge4_Node000001_Node000005" class="edge">
<title>Node1&#45;&gt;Node5</title>
<g id="a_edge4_Node000001_Node000005"><a xlink:title=" ">
<path fill="none" stroke="#63b8ff" d="M308.25,-127.72C288.04,-118.41 260.66,-105.8 239.78,-96.18"/>
<polygon fill="#63b8ff" stroke="#63b8ff" points="306.99,-130.99 317.53,-131.99 309.91,-124.63 306.99,-130.99"/>
</a>
</g>
</g>
<!-- Node6 -->
<g id="Node000006" class="node">
<title>Node6</title>
<g id="a_Node000006"><a xlink:href="env__ns_source.html" target="_top" xlink:title=" ">
<polygon fill="white" stroke="#666666" points="383.5,-90.5 288.5,-90.5 288.5,-71.5 383.5,-71.5 383.5,-90.5"/>
<text text-anchor="middle" x="336" y="-78.5" font-family="Helvetica,sans-Serif" font-size="10.00">l4/re/util/env_ns</text>
</a>
</g>
</g>
<!-- Node1&#45;&gt;Node6 -->
<g id="edge5_Node000001_Node000006" class="edge">
<title>Node1&#45;&gt;Node6</title>
<g id="a_edge5_Node000001_Node000006"><a xlink:title=" ">
<path fill="none" stroke="#63b8ff" d="M336,-121.66C336,-111.24 336,-98.8 336,-90.67"/>
<polygon fill="#63b8ff" stroke="#63b8ff" points="332.5,-121.87 336,-131.87 339.5,-121.87 332.5,-121.87"/>
</a>
</g>
</g>
<!-- Node7 -->
<g id="Node000007" class="node">
<title>Node7</title>
<g id="a_Node000007"><a xlink:href="goos__fb_source.html" target="_top" xlink:title=" ">
<polygon fill="white" stroke="#666666" points="438,-24.5 310,-24.5 310,-5.5 438,-5.5 438,-24.5"/>
<text text-anchor="middle" x="374" y="-12.5" font-family="Helvetica,sans-Serif" font-size="10.00">l4/re/util/video/goos_fb</text>
</a>
</g>
</g>
<!-- Node1&#45;&gt;Node7 -->
<g id="edge10_Node000001_Node000007" class="edge">
<title>Node1&#45;&gt;Node7</title>
<g id="a_edge10_Node000001_Node000007"><a xlink:title=" ">
<path fill="none" stroke="#63b8ff" d="M363.24,-126.57C374.65,-119.17 386.7,-108.91 393,-96 404.77,-71.88 389.01,-40.04 379.8,-24.83"/>
<polygon fill="#63b8ff" stroke="#63b8ff" points="361.14,-123.75 354.35,-131.88 364.73,-129.75 361.14,-123.75"/>
</a>
</g>
</g>
<!-- Node8 -->
<g id="Node000008" class="node">
<title>Node8</title>
<g id="a_Node000008"><a xlink:href="name__space__svr_source.html" target="_top" xlink:title=" ">
<polygon fill="white" stroke="#666666" points="582,-90.5 440,-90.5 440,-71.5 582,-71.5 582,-90.5"/>
<text text-anchor="middle" x="511" y="-78.5" font-family="Helvetica,sans-Serif" font-size="10.00">l4/re/util/name_space_svr</text>
</a>
</g>
</g>
<!-- Node1&#45;&gt;Node8 -->
<g id="edge9_Node000001_Node000008" class="edge">
<title>Node1&#45;&gt;Node8</title>
<g id="a_edge9_Node000001_Node000008"><a xlink:title=" ">
<path fill="none" stroke="#63b8ff" d="M370.95,-128.82C404.8,-117.5 455.31,-100.62 485.52,-90.52"/>
<polygon fill="#63b8ff" stroke="#63b8ff" points="369.82,-125.5 361.45,-131.99 372.04,-132.14 369.82,-125.5"/>
</a>
</g>
</g>
<!-- Node3 -->
<g id="Node000003" class="node">
<title>Node3</title>
<g id="a_Node000003"><a xlink:href="ns__fs__impl_8h_source.html" target="_top" xlink:title=" ">
<polygon fill="white" stroke="#666666" points="287.5,-30 180.5,-30 180.5,0 287.5,0 287.5,-30"/>
<text text-anchor="start" x="188.5" y="-18" font-family="Helvetica,sans-Serif" font-size="10.00">l4/l4re_vfs/impl/ns</text>
<text text-anchor="middle" x="234" y="-7" font-family="Helvetica,sans-Serif" font-size="10.00">_fs_impl.h</text>
</a>
</g>
</g>
<!-- Node2&#45;&gt;Node3 -->
<g id="edge2_Node000002_Node000003" class="edge">
<title>Node2&#45;&gt;Node3</title>
<g id="a_edge2_Node000002_Node000003"><a xlink:title=" ">
<path fill="none" stroke="#63b8ff" d="M97.25,-67.79C125.63,-57.04 166.94,-41.4 196.73,-30.12"/>
<polygon fill="#63b8ff" stroke="#63b8ff" points="95.9,-64.55 87.79,-71.37 98.38,-71.1 95.9,-64.55"/>
</a>
</g>
</g>
<!-- Node4 -->
<g id="Node000004" class="node">
<title>Node4</title>
<g id="a_Node000004"><a xlink:href="vfs__impl_8h_source.html" target="_top" xlink:title=" ">
<polygon fill="white" stroke="#666666" points="120,-30 10,-30 10,0 120,0 120,-30"/>
<text text-anchor="start" x="18" y="-18" font-family="Helvetica,sans-Serif" font-size="10.00">l4/l4re_vfs/impl/vfs</text>
<text text-anchor="middle" x="65" y="-7" font-family="Helvetica,sans-Serif" font-size="10.00">_impl.h</text>
</a>
</g>
</g>
<!-- Node2&#45;&gt;Node4 -->
<g id="edge3_Node000002_Node000004" class="edge">
<title>Node2&#45;&gt;Node4</title>
<g id="a_edge3_Node000002_Node000004"><a xlink:title=" ">
<path fill="none" stroke="#63b8ff" d="M65,-61.35C65,-51.47 65,-39.51 65,-30.36"/>
<polygon fill="#63b8ff" stroke="#63b8ff" points="61.5,-61.37 65,-71.37 68.5,-61.37 61.5,-61.37"/>
</a>
</g>
</g>
<!-- Node6&#45;&gt;Node3 -->
<g id="edge6_Node000006_Node000003" class="edge">
<title>Node6&#45;&gt;Node3</title>
<g id="a_edge6_Node000006_Node000003"><a xlink:title=" ">
<path fill="none" stroke="#63b8ff" d="M313.55,-65.91C296.6,-55.28 273.45,-40.75 256.5,-30.12"/>
<polygon fill="#63b8ff" stroke="#63b8ff" points="311.91,-69.02 322.24,-71.37 315.63,-63.09 311.91,-69.02"/>
</a>
</g>
</g>
<!-- Node6&#45;&gt;Node7 -->
<g id="edge7_Node000006_Node000007" class="edge">
<title>Node6&#45;&gt;Node7</title>
<g id="a_edge7_Node000006_Node000007"><a xlink:title=" ">
<path fill="none" stroke="#63b8ff" d="M346.36,-62.55C353.6,-50.36 362.95,-34.61 368.71,-24.91"/>
<polygon fill="#63b8ff" stroke="#63b8ff" points="343.22,-60.98 341.12,-71.37 349.24,-64.56 343.22,-60.98"/>
</a>
</g>
</g>
<!-- Node7&#45;&gt;Node7 -->
<g id="edge8_Node000007_Node000007" class="edge">
<title>Node7&#45;&gt;Node7</title>
<g id="a_edge8_Node000007_Node000007"><a xlink:title=" ">
<path fill="none" stroke="#63b8ff" d="M409.67,-26.32C433.19,-29.43 456,-25.66 456,-15 456,-2.82 426.2,0.37 399.61,-5.44"/>
<polygon fill="#63b8ff" stroke="#63b8ff" points="410.06,-22.84 399.61,-24.56 408.86,-29.73 410.06,-22.84"/>
</a>
</g>
</g>
</g>
</svg>
