<?xml version="1.0" encoding="UTF-8" standalone="no"?>
<!DOCTYPE svg PUBLIC "-//W3C//DTD SVG 1.1//EN"
 "http://www.w3.org/Graphics/SVG/1.1/DTD/svg11.dtd">
<!-- Generated by graphviz version 2.43.0 (0)
 -->
<!-- Title: L4Re::throw_error Pages: 1 -->
<svg width="607pt" height="770pt"
 viewBox="0.00 0.00 607.00 770.28" xmlns="http://www.w3.org/2000/svg" xmlns:xlink="http://www.w3.org/1999/xlink">
<g id="graph0" class="graph" transform="scale(1 1) rotate(0) translate(4 766.28)">
<title>L4Re::throw_error</title>
<!-- Node1 -->
<g id="Node000001" class="node">
<title>Node1</title>
<g id="a_Node000001"><a xlink:title="Generate C++ exception.">
<polygon fill="#999999" stroke="#666666" points="599,-537.5 496,-537.5 496,-518.5 599,-518.5 599,-537.5"/>
<text text-anchor="middle" x="547.5" y="-525.5" font-family="Helvetica,sans-Serif" font-size="10.00">L4Re::throw_error</text>
</a>
</g>
</g>
<!-- Node2 -->
<g id="Node000002" class="node">
<title>Node2</title>
<g id="a_Node000002"><a xlink:href="namespaceL4Re.html#a64b057254a760643ba67a9ed452fede8" target="_top" xlink:title="Check for valid capability or raise C++ exception.">
<polygon fill="white" stroke="#666666" points="460,-695.5 379,-695.5 379,-676.5 460,-676.5 460,-695.5"/>
<text text-anchor="middle" x="419.5" y="-683.5" font-family="Helvetica,sans-Serif" font-size="10.00">L4Re::chkcap</text>
</a>
</g>
</g>
<!-- Node1&#45;&gt;Node2 -->
<g id="edge1_Node000001_Node000002" class="edge">
<title>Node1&#45;&gt;Node2</title>
<g id="a_edge1_Node000001_Node000002"><a xlink:title=" ">
<path fill="none" stroke="#63b8ff" d="M532.24,-545.88C505.61,-579.27 449.15,-650.08 428.38,-676.12"/>
<polygon fill="#63b8ff" stroke="#63b8ff" points="535.12,-547.88 538.62,-537.88 529.65,-543.52 535.12,-547.88"/>
</a>
</g>
</g>
<!-- Node7 -->
<g id="Node000007" class="node">
<title>Node7</title>
<g id="a_Node000007"><a xlink:href="namespaceL4Re.html#ae0dd5d25abdc1d195edd8ab6b744334c" target="_top" xlink:title="Generate C++ exception on error.">
<polygon fill="white" stroke="#666666" points="459.5,-537.5 379.5,-537.5 379.5,-518.5 459.5,-518.5 459.5,-537.5"/>
<text text-anchor="middle" x="419.5" y="-525.5" font-family="Helvetica,sans-Serif" font-size="10.00">L4Re::chksys</text>
</a>
</g>
</g>
<!-- Node1&#45;&gt;Node7 -->
<g id="edge8_Node000001_Node000007" class="edge">
<title>Node1&#45;&gt;Node7</title>
<g id="a_edge8_Node000001_Node000007"><a xlink:title=" ">
<path fill="none" stroke="#63b8ff" d="M485.7,-528C476.89,-528 468.02,-528 459.78,-528"/>
<polygon fill="#63b8ff" stroke="#63b8ff" points="485.98,-531.5 495.98,-528 485.98,-524.5 485.98,-531.5"/>
</a>
</g>
</g>
<!-- Node8 -->
<g id="Node000008" class="node">
<title>Node8</title>
<g id="a_Node000008"><a xlink:href="namespaceL4Re.html#a3f17984019f06676a7e3eecb41bbb0bb" target="_top" xlink:title="Generate C++ exception on error.">
<polygon fill="white" stroke="#666666" points="459.5,-379.5 379.5,-379.5 379.5,-360.5 459.5,-360.5 459.5,-379.5"/>
<text text-anchor="middle" x="419.5" y="-367.5" font-family="Helvetica,sans-Serif" font-size="10.00">L4Re::chksys</text>
</a>
</g>
</g>
<!-- Node1&#45;&gt;Node8 -->
<g id="edge9_Node000001_Node000008" class="edge">
<title>Node1&#45;&gt;Node8</title>
<g id="a_edge9_Node000001_Node000008"><a xlink:title=" ">
<path fill="none" stroke="#63b8ff" d="M532.24,-510.12C505.61,-476.73 449.15,-405.92 428.38,-379.88"/>
<polygon fill="#63b8ff" stroke="#63b8ff" points="529.65,-512.48 538.62,-518.12 535.12,-508.12 529.65,-512.48"/>
</a>
</g>
</g>
<!-- Node3 -->
<g id="Node000003" class="node">
<title>Node3</title>
<g id="a_Node000003"><a xlink:href="classL4virtio_1_1Svr_1_1Dev__config.html#a663b81f49e6ce03f9b7e136d6646bf89" target="_top" xlink:title="Create a L4&#45;Virtio config data space.">
<polygon fill="white" stroke="#666666" points="318,-701 207,-701 207,-671 318,-671 318,-701"/>
<text text-anchor="start" x="215" y="-689" font-family="Helvetica,sans-Serif" font-size="10.00">L4virtio::Svr::Dev</text>
<text text-anchor="middle" x="262.5" y="-678" font-family="Helvetica,sans-Serif" font-size="10.00">_config::Dev_config</text>
</a>
</g>
</g>
<!-- Node2&#45;&gt;Node3 -->
<g id="edge2_Node000002_Node000003" class="edge">
<title>Node2&#45;&gt;Node3</title>
<g id="a_edge2_Node000002_Node000003"><a xlink:title=" ">
<path fill="none" stroke="#63b8ff" d="M368.69,-686C352.57,-686 334.6,-686 318.15,-686"/>
<polygon fill="#63b8ff" stroke="#63b8ff" points="368.99,-689.5 378.99,-686 368.99,-682.5 368.99,-689.5"/>
</a>
</g>
</g>
<!-- Node4 -->
<g id="Node000004" class="node">
<title>Node4</title>
<g id="a_Node000004"><a xlink:href="classL4virtio_1_1Driver_1_1Device.html#a4f8b3d73188c3b6664755b81b80e441c" target="_top" xlink:title="Contacts the device and starts the initial handshake.">
<polygon fill="white" stroke="#666666" points="327,-615 198,-615 198,-585 327,-585 327,-615"/>
<text text-anchor="start" x="206" y="-603" font-family="Helvetica,sans-Serif" font-size="10.00">L4virtio::Driver::Device</text>
<text text-anchor="middle" x="262.5" y="-592" font-family="Helvetica,sans-Serif" font-size="10.00">::driver_connect</text>
</a>
</g>
</g>
<!-- Node2&#45;&gt;Node4 -->
<g id="edge3_Node000002_Node000004" class="edge">
<title>Node2&#45;&gt;Node4</title>
<g id="a_edge3_Node000002_Node000004"><a xlink:title=" ">
<path fill="none" stroke="#63b8ff" d="M392.42,-671.53C364.17,-655.86 319.3,-630.96 290.64,-615.06"/>
<polygon fill="#63b8ff" stroke="#63b8ff" points="390.88,-674.68 401.32,-676.47 394.27,-668.56 390.88,-674.68"/>
</a>
</g>
</g>
<!-- Node5 -->
<g id="Node000005" class="node">
<title>Node5</title>
<g id="a_Node000005"><a xlink:href="classL4virtio_1_1Driver_1_1Virtio__net__device.html#aa5d34e5156db18773cf46c2d06a2aa3a" target="_top" xlink:title="Establish a connection to the device and set up shared memory.">
<polygon fill="white" stroke="#666666" points="146,-578 0,-578 0,-548 146,-548 146,-578"/>
<text text-anchor="start" x="8" y="-566" font-family="Helvetica,sans-Serif" font-size="10.00">L4virtio::Driver::Virtio</text>
<text text-anchor="middle" x="73" y="-555" font-family="Helvetica,sans-Serif" font-size="10.00">_net_device::setup_device</text>
</a>
</g>
</g>
<!-- Node2&#45;&gt;Node5 -->
<g id="edge6_Node000002_Node000005" class="edge">
<title>Node2&#45;&gt;Node5</title>
<g id="a_edge6_Node000002_Node000005"><a xlink:title=" ">
<path fill="none" stroke="#63b8ff" d="M390.39,-699.81C342.75,-721.02 245.2,-754.71 182,-710 142.76,-682.23 176.07,-645.51 146,-608 135.95,-595.46 121.41,-585.44 108.02,-578.07"/>
<polygon fill="#63b8ff" stroke="#63b8ff" points="391.87,-702.98 399.5,-695.63 388.95,-696.62 391.87,-702.98"/>
</a>
</g>
</g>
<!-- Node6 -->
<g id="Node000006" class="node">
<title>Node6</title>
<g id="a_Node000006"><a xlink:href="classL4virtio_1_1Driver_1_1Block__device.html#af509c2785789dd2daf6b13f3369c6581" target="_top" xlink:title="Establish a connection to the device and set up shared memory.">
<polygon fill="white" stroke="#666666" points="135.5,-647 10.5,-647 10.5,-617 135.5,-617 135.5,-647"/>
<text text-anchor="start" x="18.5" y="-635" font-family="Helvetica,sans-Serif" font-size="10.00">L4virtio::Driver::Block</text>
<text text-anchor="middle" x="73" y="-624" font-family="Helvetica,sans-Serif" font-size="10.00">_device::setup_device</text>
</a>
</g>
</g>
<!-- Node2&#45;&gt;Node6 -->
<g id="edge7_Node000002_Node000006" class="edge">
<title>Node2&#45;&gt;Node6</title>
<g id="a_edge7_Node000002_Node000006"><a xlink:title=" ">
<path fill="none" stroke="#63b8ff" d="M402.53,-703.07C388.4,-716.83 366.43,-735.15 343,-743 275.15,-765.74 247.92,-770.84 182,-743 135.43,-723.34 99.02,-672.69 82.96,-647.17"/>
<polygon fill="#63b8ff" stroke="#63b8ff" points="405.37,-705.18 409.9,-695.6 400.38,-700.26 405.37,-705.18"/>
</a>
</g>
</g>
<!-- Node4&#45;&gt;Node5 -->
<g id="edge4_Node000004_Node000005" class="edge">
<title>Node4&#45;&gt;Node5</title>
<g id="a_edge4_Node000004_Node000005"><a xlink:title=" ">
<path fill="none" stroke="#63b8ff" d="M187.91,-585.48C174.22,-582.78 159.93,-579.96 146.27,-577.26"/>
<polygon fill="#63b8ff" stroke="#63b8ff" points="187.27,-588.92 197.76,-587.42 188.63,-582.05 187.27,-588.92"/>
</a>
</g>
</g>
<!-- Node4&#45;&gt;Node6 -->
<g id="edge5_Node000004_Node000006" class="edge">
<title>Node4&#45;&gt;Node6</title>
<g id="a_edge5_Node000004_Node000006"><a xlink:title=" ">
<path fill="none" stroke="#63b8ff" d="M187.74,-612.59C170.5,-615.53 152.31,-618.63 135.66,-621.48"/>
<polygon fill="#63b8ff" stroke="#63b8ff" points="188.49,-616.01 197.76,-610.88 187.31,-609.11 188.49,-616.01"/>
</a>
</g>
</g>
<!-- Node8&#45;&gt;Node3 -->
<g id="edge13_Node000008_Node000003" class="edge">
<title>Node8&#45;&gt;Node3</title>
<g id="a_edge13_Node000008_Node000003"><a xlink:title=" ">
<path fill="none" stroke="#63b8ff" d="M412.74,-389.57C404.85,-416.59 390.37,-466.86 379,-510 361.86,-575.04 387.89,-606.9 343,-657 336.33,-664.44 327.6,-669.97 318.37,-674.09"/>
<polygon fill="#63b8ff" stroke="#63b8ff" points="416.15,-390.39 415.6,-379.81 409.43,-388.43 416.15,-390.39"/>
</a>
</g>
</g>
<!-- Node8&#45;&gt;Node4 -->
<g id="edge20_Node000008_Node000004" class="edge">
<title>Node8&#45;&gt;Node4</title>
<g id="a_edge20_Node000008_Node000004"><a xlink:title=" ">
<path fill="none" stroke="#63b8ff" d="M413.71,-389.57C402.05,-435.73 371.09,-549.5 343,-576 338.39,-580.35 333.01,-583.92 327.27,-586.84"/>
<polygon fill="#63b8ff" stroke="#63b8ff" points="417.17,-390.17 416.19,-379.62 410.38,-388.48 417.17,-390.17"/>
</a>
</g>
</g>
<!-- Node8&#45;&gt;Node5 -->
<g id="edge27_Node000008_Node000005" class="edge">
<title>Node8&#45;&gt;Node5</title>
<g id="a_edge27_Node000008_Node000005"><a xlink:title=" ">
<path fill="none" stroke="#63b8ff" d="M411.88,-388.99C401.53,-415.81 378.89,-464.35 343,-490 283.18,-532.75 252.81,-508.21 182,-528 160.64,-533.97 137.2,-541.45 117.63,-547.96"/>
<polygon fill="#63b8ff" stroke="#63b8ff" points="415.18,-390.16 415.36,-379.56 408.62,-387.74 415.18,-390.16"/>
</a>
</g>
</g>
<!-- Node8&#45;&gt;Node6 -->
<g id="edge28_Node000008_Node000006" class="edge">
<title>Node8&#45;&gt;Node6</title>
<g id="a_edge28_Node000008_Node000006"><a xlink:title=" ">
<path fill="none" stroke="#63b8ff" d="M412.97,-389.73C396.37,-448.78 347.83,-620.29 343,-624 281.16,-671.58 185.53,-660.49 126.51,-647.02"/>
<polygon fill="#63b8ff" stroke="#63b8ff" points="416.43,-390.36 415.76,-379.79 409.69,-388.47 416.43,-390.36"/>
</a>
</g>
</g>
<!-- Node9 -->
<g id="Node000009" class="node">
<title>Node9</title>
<g id="a_Node000009"><a xlink:href="classL4virtio_1_1Svr_1_1Driver__mem__list__t.html#a4325ef36d8d9d159d8d6a774b11378f4" target="_top" xlink:title="Add a new region to the list.">
<polygon fill="white" stroke="#666666" points="318,-337 207,-337 207,-307 318,-307 318,-337"/>
<text text-anchor="start" x="215" y="-325" font-family="Helvetica,sans-Serif" font-size="10.00">L4virtio::Svr::Driver</text>
<text text-anchor="middle" x="262.5" y="-314" font-family="Helvetica,sans-Serif" font-size="10.00">_mem_list_t::add</text>
</a>
</g>
</g>
<!-- Node8&#45;&gt;Node9 -->
<g id="edge10_Node000008_Node000009" class="edge">
<title>Node8&#45;&gt;Node9</title>
<g id="a_edge10_Node000008_Node000009"><a xlink:title=" ">
<path fill="none" stroke="#63b8ff" d="M378.94,-357.3C367.36,-353.62 354.69,-349.62 343,-346 333.64,-343.1 323.64,-340.04 314,-337.12"/>
<polygon fill="#63b8ff" stroke="#63b8ff" points="378.18,-360.74 388.77,-360.44 380.3,-354.07 378.18,-360.74"/>
</a>
</g>
</g>
<!-- Node10 -->
<g id="Node000010" class="node">
<title>Node10</title>
<g id="a_Node000010"><a xlink:href="namespaceL4Re.html#ae21329b88c6ffc4917048e8d9564ea99" target="_top" xlink:title="Test a message tag for IPC errors.">
<polygon fill="white" stroke="#666666" points="301.5,-288.5 223.5,-288.5 223.5,-269.5 301.5,-269.5 301.5,-288.5"/>
<text text-anchor="middle" x="262.5" y="-276.5" font-family="Helvetica,sans-Serif" font-size="10.00">L4Re::chkipc</text>
</a>
</g>
</g>
<!-- Node8&#45;&gt;Node10 -->
<g id="edge11_Node000008_Node000010" class="edge">
<title>Node8&#45;&gt;Node10</title>
<g id="a_edge11_Node000008_Node000010"><a xlink:title=" ">
<path fill="none" stroke="#63b8ff" d="M404.93,-352.56C391.12,-336.01 368.2,-311.71 343,-298 330.41,-291.15 315.38,-286.75 301.79,-283.93"/>
<polygon fill="#63b8ff" stroke="#63b8ff" points="402.28,-354.84 411.29,-360.4 407.71,-350.43 402.28,-354.84"/>
</a>
</g>
</g>
<!-- Node11 -->
<g id="Node000011" class="node">
<title>Node11</title>
<g id="a_Node000011"><a xlink:href="namespaceL4Re.html#ad17a205e6270588606dd85399b0f9b6c" target="_top" xlink:title="Generate C++ exception on error.">
<polygon fill="white" stroke="#666666" points="302.5,-251.5 222.5,-251.5 222.5,-232.5 302.5,-232.5 302.5,-251.5"/>
<text text-anchor="middle" x="262.5" y="-239.5" font-family="Helvetica,sans-Serif" font-size="10.00">L4Re::chksys</text>
</a>
</g>
</g>
<!-- Node8&#45;&gt;Node11 -->
<g id="edge12_Node000008_Node000011" class="edge">
<title>Node8&#45;&gt;Node11</title>
<g id="a_edge12_Node000008_Node000011"><a xlink:title=" ">
<path fill="none" stroke="#63b8ff" d="M410.59,-351C399.32,-326.33 376.25,-283.74 343,-261 331.17,-252.91 316.3,-248.25 302.63,-245.56"/>
<polygon fill="#63b8ff" stroke="#63b8ff" points="407.48,-352.61 414.7,-360.37 413.89,-349.8 407.48,-352.61"/>
</a>
</g>
</g>
<!-- Node12 -->
<g id="Node000012" class="node">
<title>Node12</title>
<g id="a_Node000012"><a xlink:href="classL4virtio_1_1Svr_1_1Device__t.html#ae96ab79bacd9bb862b0cf2aa4d3d18ac" target="_top" xlink:title="callback to gather the device notification IRQ (old&#45;style)">
<polygon fill="white" stroke="#666666" points="320,-176 205,-176 205,-146 320,-146 320,-176"/>
<text text-anchor="start" x="213" y="-164" font-family="Helvetica,sans-Serif" font-size="10.00">L4virtio::Svr::Device</text>
<text text-anchor="middle" x="262.5" y="-153" font-family="Helvetica,sans-Serif" font-size="10.00">_t::device_notify_irq</text>
</a>
</g>
</g>
<!-- Node8&#45;&gt;Node12 -->
<g id="edge14_Node000008_Node000012" class="edge">
<title>Node8&#45;&gt;Node12</title>
<g id="a_edge14_Node000008_Node000012"><a xlink:title=" ">
<path fill="none" stroke="#63b8ff" d="M415.54,-350.37C409.04,-313.81 390.11,-234.93 343,-190 336.51,-183.81 328.61,-178.93 320.32,-175.08"/>
<polygon fill="#63b8ff" stroke="#63b8ff" points="412.1,-350.98 417.18,-360.27 419,-349.83 412.1,-350.98"/>
</a>
</g>
</g>
<!-- Node13 -->
<g id="Node000013" class="node">
<title>Node13</title>
<g id="a_Node000013"><a xlink:href="classL4virtio_1_1Svr_1_1Device__t.html#ae684a9e7816579ca93e4f3bf6c765999" target="_top" xlink:title="Callback to gather the device notification IRQ (multi IRQ).">
<polygon fill="white" stroke="#666666" points="130.5,-164 15.5,-164 15.5,-134 130.5,-134 130.5,-164"/>
<text text-anchor="start" x="23.5" y="-152" font-family="Helvetica,sans-Serif" font-size="10.00">L4virtio::Svr::Device</text>
<text text-anchor="middle" x="73" y="-141" font-family="Helvetica,sans-Serif" font-size="10.00">_t::device_notify_irq</text>
</a>
</g>
</g>
<!-- Node8&#45;&gt;Node13 -->
<g id="edge16_Node000008_Node000013" class="edge">
<title>Node8&#45;&gt;Node13</title>
<g id="a_edge16_Node000008_Node000013"><a xlink:title=" ">
<path fill="none" stroke="#63b8ff" d="M419.11,-350.26C419.34,-303.79 412.59,-187.6 343,-137 274.38,-87.1 167.84,-113.99 111.65,-133.86"/>
<polygon fill="#63b8ff" stroke="#63b8ff" points="415.61,-350.43 418.94,-360.49 422.61,-350.55 415.61,-350.43"/>
</a>
</g>
</g>
<!-- Node14 -->
<g id="Node000014" class="node">
<title>Node14</title>
<g id="a_Node000014"><a xlink:href="classL4virtio_1_1Driver_1_1Device.html#af06d27e63124749456ddc8d959231741" target="_top" xlink:title="Finalize handshake with the device.">
<polygon fill="white" stroke="#666666" points="327,-567 198,-567 198,-537 327,-537 327,-567"/>
<text text-anchor="start" x="206" y="-555" font-family="Helvetica,sans-Serif" font-size="10.00">L4virtio::Driver::Device</text>
<text text-anchor="middle" x="262.5" y="-544" font-family="Helvetica,sans-Serif" font-size="10.00">::driver_acknowledge</text>
</a>
</g>
</g>
<!-- Node8&#45;&gt;Node14 -->
<g id="edge17_Node000008_Node000014" class="edge">
<title>Node8&#45;&gt;Node14</title>
<g id="a_edge17_Node000008_Node000014"><a xlink:title=" ">
<path fill="none" stroke="#63b8ff" d="M413.86,-389.78C405.3,-422.07 384.03,-486.2 343,-523 336.77,-528.59 329.37,-533.13 321.63,-536.81"/>
<polygon fill="#63b8ff" stroke="#63b8ff" points="417.33,-390.33 416.37,-379.78 410.54,-388.63 417.33,-390.33"/>
</a>
</g>
</g>
<!-- Node15 -->
<g id="Node000015" class="node">
<title>Node15</title>
<g id="a_Node000015"><a xlink:href="classL4virtio_1_1Svr_1_1Driver__mem__region__t.html#abdad88a18e5428fb2276148ceccf0434" target="_top" xlink:title="Make a local memory region for the given driver values.">
<polygon fill="white" stroke="#666666" points="326.5,-89.5 198.5,-89.5 198.5,-48.5 326.5,-48.5 326.5,-89.5"/>
<text text-anchor="start" x="206.5" y="-77.5" font-family="Helvetica,sans-Serif" font-size="10.00">L4virtio::Svr::Driver</text>
<text text-anchor="start" x="206.5" y="-66.5" font-family="Helvetica,sans-Serif" font-size="10.00">_mem_region_t::Driver</text>
<text text-anchor="middle" x="262.5" y="-55.5" font-family="Helvetica,sans-Serif" font-size="10.00">_mem_region_t</text>
</a>
</g>
</g>
<!-- Node8&#45;&gt;Node15 -->
<g id="edge21_Node000008_Node000015" class="edge">
<title>Node8&#45;&gt;Node15</title>
<g id="a_edge21_Node000008_Node000015"><a xlink:title=" ">
<path fill="none" stroke="#63b8ff" d="M418.36,-350.14C416.99,-301.99 407.06,-177.59 343,-104 338.15,-98.43 332.24,-93.7 325.86,-89.71"/>
<polygon fill="#63b8ff" stroke="#63b8ff" points="414.87,-350.49 418.55,-360.42 421.87,-350.36 414.87,-350.49"/>
</a>
</g>
</g>
<!-- Node16 -->
<g id="Node000016" class="node">
<title>Node16</title>
<g id="a_Node000016"><a xlink:href="classL4virtio_1_1Driver_1_1Block__device.html#a9f1a7a08e90ca6c1441bd48abc8b574a" target="_top" xlink:title="Process and free all items in the used queue.">
<polygon fill="white" stroke="#666666" points="343,-30 182,-30 182,0 343,0 343,-30"/>
<text text-anchor="start" x="190" y="-18" font-family="Helvetica,sans-Serif" font-size="10.00">L4virtio::Driver::Block</text>
<text text-anchor="middle" x="262.5" y="-7" font-family="Helvetica,sans-Serif" font-size="10.00">_device::process_used_queue</text>
</a>
</g>
</g>
<!-- Node8&#45;&gt;Node16 -->
<g id="edge22_Node000008_Node000016" class="edge">
<title>Node8&#45;&gt;Node16</title>
<g id="a_edge22_Node000008_Node000016"><a xlink:title=" ">
<path fill="none" stroke="#63b8ff" d="M416.6,-350.47C410.02,-286.58 386.16,-85.24 343,-39 339.85,-35.63 336.25,-32.72 332.35,-30.22"/>
<polygon fill="#63b8ff" stroke="#63b8ff" points="413.12,-350.83 417.6,-360.43 420.09,-350.13 413.12,-350.83"/>
</a>
</g>
</g>
<!-- Node17 -->
<g id="Node000017" class="node">
<title>Node17</title>
<g id="a_Node000017"><a xlink:href="classL4virtio_1_1Svr_1_1Device__t.html#a66d09e200e34ccad61e5843d2b5bb0a0" target="_top" xlink:title="Callback for registering an notification IRQ (multi IRQ).">
<polygon fill="white" stroke="#666666" points="133.5,-231 12.5,-231 12.5,-201 133.5,-201 133.5,-231"/>
<text text-anchor="start" x="20.5" y="-219" font-family="Helvetica,sans-Serif" font-size="10.00">L4virtio::Svr::Device</text>
<text text-anchor="middle" x="73" y="-208" font-family="Helvetica,sans-Serif" font-size="10.00">_t::register_driver_irq</text>
</a>
</g>
</g>
<!-- Node8&#45;&gt;Node17 -->
<g id="edge23_Node000008_Node000017" class="edge">
<title>Node8&#45;&gt;Node17</title>
<g id="a_edge23_Node000008_Node000017"><a xlink:title=" ">
<path fill="none" stroke="#63b8ff" d="M414.84,-350.07C407.62,-317.19 388.15,-252.41 343,-224 280.12,-184.44 191.58,-190.93 133.51,-201.53"/>
<polygon fill="#63b8ff" stroke="#63b8ff" points="411.49,-351.15 416.9,-360.26 418.35,-349.76 411.49,-351.15"/>
</a>
</g>
</g>
<!-- Node18 -->
<g id="Node000018" class="node">
<title>Node18</title>
<g id="a_Node000018"><a xlink:href="classL4virtio_1_1Svr_1_1Device__t.html#a8047b37ac63d6b5f84bcb1886a06f1b2" target="_top" xlink:title="callback for registering a single guest IRQ for all queues (old&#45;style)">
<polygon fill="white" stroke="#666666" points="340,-385 185,-385 185,-355 340,-355 340,-385"/>
<text text-anchor="start" x="193" y="-373" font-family="Helvetica,sans-Serif" font-size="10.00">L4virtio::Svr::Device</text>
<text text-anchor="middle" x="262.5" y="-362" font-family="Helvetica,sans-Serif" font-size="10.00">_t::register_single_driver_irq</text>
</a>
</g>
</g>
<!-- Node8&#45;&gt;Node18 -->
<g id="edge24_Node000008_Node000018" class="edge">
<title>Node8&#45;&gt;Node18</title>
<g id="a_edge24_Node000008_Node000018"><a xlink:title=" ">
<path fill="none" stroke="#63b8ff" d="M369.19,-370C359.9,-370 349.98,-370 340.08,-370"/>
<polygon fill="#63b8ff" stroke="#63b8ff" points="369.39,-373.5 379.39,-370 369.39,-366.5 369.39,-373.5"/>
</a>
</g>
</g>
<!-- Node19 -->
<g id="Node000019" class="node">
<title>Node19</title>
<g id="a_Node000019"><a xlink:href="classL4virtio_1_1Svr_1_1Driver__mem__list__t.html#a36efa2f3d99ee6e3e7d07e1dec0343d8" target="_top" xlink:title="Remove the given region from the list.">
<polygon fill="white" stroke="#666666" points="322.5,-481 202.5,-481 202.5,-451 322.5,-451 322.5,-481"/>
<text text-anchor="start" x="210.5" y="-469" font-family="Helvetica,sans-Serif" font-size="10.00">L4virtio::Svr::Driver</text>
<text text-anchor="middle" x="262.5" y="-458" font-family="Helvetica,sans-Serif" font-size="10.00">_mem_list_t::remove</text>
</a>
</g>
</g>
<!-- Node8&#45;&gt;Node19 -->
<g id="edge26_Node000008_Node000019" class="edge">
<title>Node8&#45;&gt;Node19</title>
<g id="a_edge26_Node000008_Node000019"><a xlink:title=" ">
<path fill="none" stroke="#63b8ff" d="M404.3,-387.65C390.31,-403.94 367.52,-427.72 343,-442 336.65,-445.7 329.67,-448.88 322.57,-451.6"/>
<polygon fill="#63b8ff" stroke="#63b8ff" points="407.05,-389.82 410.78,-379.9 401.68,-385.33 407.05,-389.82"/>
</a>
</g>
</g>
<!-- Node20 -->
<g id="Node000020" class="node">
<title>Node20</title>
<g id="a_Node000020"><a xlink:href="classL4virtio_1_1Driver_1_1Virtio__net__device.html#a90e89b3a94f186cb9b3191f35868668e" target="_top" xlink:title="Block until a network packet has been received from the device and return the descriptor number.">
<polygon fill="white" stroke="#666666" points="323.5,-433 201.5,-433 201.5,-403 323.5,-403 323.5,-433"/>
<text text-anchor="start" x="209.5" y="-421" font-family="Helvetica,sans-Serif" font-size="10.00">L4virtio::Driver::Virtio</text>
<text text-anchor="middle" x="262.5" y="-410" font-family="Helvetica,sans-Serif" font-size="10.00">_net_device::wait_rx</text>
</a>
</g>
</g>
<!-- Node8&#45;&gt;Node20 -->
<g id="edge29_Node000008_Node000020" class="edge">
<title>Node8&#45;&gt;Node20</title>
<g id="a_edge29_Node000008_Node000020"><a xlink:title=" ">
<path fill="none" stroke="#63b8ff" d="M378.94,-382.7C367.36,-386.38 354.69,-390.38 343,-394 333.64,-396.9 323.64,-399.96 314,-402.88"/>
<polygon fill="#63b8ff" stroke="#63b8ff" points="380.3,-385.93 388.77,-379.56 378.18,-379.26 380.3,-385.93"/>
</a>
</g>
</g>
<!-- Node12&#45;&gt;Node13 -->
<g id="edge15_Node000012_Node000013" class="edge">
<title>Node12&#45;&gt;Node13</title>
<g id="a_edge15_Node000012_Node000013"><a xlink:title=" ">
<path fill="none" stroke="#63b8ff" d="M194.87,-156.74C173.9,-155.39 150.94,-153.92 130.72,-152.63"/>
<polygon fill="#63b8ff" stroke="#63b8ff" points="194.79,-160.24 204.99,-157.38 195.23,-153.25 194.79,-160.24"/>
</a>
</g>
</g>
<!-- Node14&#45;&gt;Node5 -->
<g id="edge18_Node000014_Node000005" class="edge">
<title>Node14&#45;&gt;Node5</title>
<g id="a_edge18_Node000014_Node000005"><a xlink:title=" ">
<path fill="none" stroke="#63b8ff" d="M187.51,-556.34C173.94,-557.14 159.79,-557.97 146.27,-558.76"/>
<polygon fill="#63b8ff" stroke="#63b8ff" points="187.98,-559.82 197.76,-555.74 187.57,-552.83 187.98,-559.82"/>
</a>
</g>
</g>
<!-- Node14&#45;&gt;Node6 -->
<g id="edge19_Node000014_Node000006" class="edge">
<title>Node14&#45;&gt;Node6</title>
<g id="a_edge19_Node000014_Node000006"><a xlink:title=" ">
<path fill="none" stroke="#63b8ff" d="M196.91,-570.39C191.82,-572.17 186.8,-574.05 182,-576 153.04,-587.76 121.47,-604.64 99.98,-616.79"/>
<polygon fill="#63b8ff" stroke="#63b8ff" points="198.37,-573.59 206.72,-567.08 196.13,-566.96 198.37,-573.59"/>
</a>
</g>
</g>
<!-- Node18&#45;&gt;Node17 -->
<g id="edge25_Node000018_Node000017" class="edge">
<title>Node18&#45;&gt;Node17</title>
<g id="a_edge25_Node000018_Node000017"><a xlink:title=" ">
<path fill="none" stroke="#63b8ff" d="M189.57,-350.51C186.96,-349.11 184.42,-347.61 182,-346 135.53,-315.2 98.55,-258.51 82.57,-231.32"/>
<polygon fill="#63b8ff" stroke="#63b8ff" points="188.18,-353.73 198.71,-354.92 191.22,-347.42 188.18,-353.73"/>
</a>
</g>
</g>
</g>
</svg>
