<?xml version="1.0" encoding="UTF-8" standalone="no"?>
<!DOCTYPE svg PUBLIC "-//W3C//DTD SVG 1.1//EN"
 "http://www.w3.org/Graphics/SVG/1.1/DTD/svg11.dtd">
<!-- Generated by graphviz version 2.42.4 (0)
 -->
<!-- Title: l4/re/namespace Pages: 1 -->
<svg width="718pt" height="753pt"
 viewBox="0.00 0.00 718.00 753.00" xmlns="http://www.w3.org/2000/svg" xmlns:xlink="http://www.w3.org/1999/xlink">
<g id="graph0" class="graph" transform="scale(1 1) rotate(0) translate(4 749)">
<title>l4/re/namespace</title>
<!-- Node1 -->
<g id="Node000001" class="node">
<title>Node1</title>
<g id="a_Node000001"><a xlink:title="Namespace interface.">
<polygon fill="#999999" stroke="#666666" points="551,-745 453,-745 453,-726 551,-726 551,-745"/>
<text text-anchor="middle" x="502" y="-733" font-family="Helvetica,sans-Serif" font-size="10.00">l4/re/namespace</text>
</a>
</g>
</g>
<!-- Node2 -->
<g id="Node000002" class="node">
<title>Node2</title>
<g id="a_Node000002"><a xlink:href="capability.html" target="_top" xlink:title="L4::Cap related definitions.">
<polygon fill="white" stroke="#666666" points="331,-690 235,-690 235,-671 331,-671 331,-690"/>
<text text-anchor="middle" x="283" y="-678" font-family="Helvetica,sans-Serif" font-size="10.00">l4/sys/capability</text>
</a>
</g>
</g>
<!-- Node1&#45;&gt;Node2 -->
<g id="edge1_Node000001_Node000002" class="edge">
<title>Node1&#45;&gt;Node2</title>
<g id="a_edge1_Node000001_Node000002"><a xlink:title=" ">
<path fill="none" stroke="#63b8ff" d="M466.81,-725.98C429.17,-716.87 369.34,-702.4 328.23,-692.45"/>
<polygon fill="#63b8ff" stroke="#63b8ff" points="329,-689.03 318.46,-690.08 327.36,-695.84 329,-689.03"/>
</a>
</g>
</g>
<!-- Node22 -->
<g id="Node000022" class="node">
<title>Node22</title>
<g id="a_Node000022"><a xlink:href="ipc__iface.html" target="_top" xlink:title="Interface Definition Language.">
<polygon fill="white" stroke="#666666" points="465,-525 385,-525 385,-506 465,-506 465,-525"/>
<text text-anchor="middle" x="425" y="-513" font-family="Helvetica,sans-Serif" font-size="10.00">cxx/ipc_iface</text>
</a>
</g>
</g>
<!-- Node1&#45;&gt;Node22 -->
<g id="edge62_Node000001_Node000022" class="edge">
<title>Node1&#45;&gt;Node22</title>
<g id="a_edge62_Node000001_Node000022"><a xlink:title=" ">
<path fill="none" stroke="#63b8ff" d="M498.98,-725.95C487.63,-693.81 447.33,-579.72 431.47,-534.83"/>
<polygon fill="#63b8ff" stroke="#63b8ff" points="434.71,-533.49 428.08,-525.22 428.11,-535.82 434.71,-533.49"/>
</a>
</g>
</g>
<!-- Node24 -->
<g id="Node000024" class="node">
<title>Node24</title>
<g id="a_Node000024"><a xlink:href="ipc__string_source.html" target="_top" xlink:title=" ">
<polygon fill="white" stroke="#666666" points="544,-580 460,-580 460,-561 544,-561 544,-580"/>
<text text-anchor="middle" x="502" y="-568" font-family="Helvetica,sans-Serif" font-size="10.00">cxx/ipc_string</text>
</a>
</g>
</g>
<!-- Node1&#45;&gt;Node24 -->
<g id="edge64_Node000001_Node000024" class="edge">
<title>Node1&#45;&gt;Node24</title>
<g id="a_edge64_Node000001_Node000024"><a xlink:title=" ">
<path fill="none" stroke="#63b8ff" d="M502,-725.74C502,-700.31 502,-626.08 502,-590.69"/>
<polygon fill="#63b8ff" stroke="#63b8ff" points="505.5,-590.31 502,-580.31 498.5,-590.31 505.5,-590.31"/>
</a>
</g>
</g>
<!-- Node25 -->
<g id="Node000025" class="node">
<title>Node25</title>
<g id="a_Node000025"><a xlink:href="ipc__array_source.html" target="_top" xlink:title=" ">
<polygon fill="white" stroke="#666666" points="610,-525 548,-525 548,-506 610,-506 610,-525"/>
<text text-anchor="middle" x="579" y="-513" font-family="Helvetica,sans-Serif" font-size="10.00">ipc_array</text>
</a>
</g>
</g>
<!-- Node1&#45;&gt;Node25 -->
<g id="edge63_Node000001_Node000025" class="edge">
<title>Node1&#45;&gt;Node25</title>
<g id="a_edge63_Node000001_Node000025"><a xlink:title=" ">
<path fill="none" stroke="#63b8ff" d="M505.02,-725.95C516.37,-693.81 556.67,-579.72 572.53,-534.83"/>
<polygon fill="#63b8ff" stroke="#63b8ff" points="575.89,-535.82 575.92,-525.22 569.29,-533.49 575.89,-535.82"/>
</a>
</g>
</g>
<!-- Node26 -->
<g id="Node000026" class="node">
<title>Node26</title>
<g id="a_Node000026"><a xlink:href="protocols_8h.html" target="_top" xlink:title="L4Re Protocol Constants (C version)">
<polygon fill="white" stroke="#666666" points="695.5,-690 600.5,-690 600.5,-671 695.5,-671 695.5,-690"/>
<text text-anchor="middle" x="648" y="-678" font-family="Helvetica,sans-Serif" font-size="10.00">l4/re/protocols.h</text>
</a>
</g>
</g>
<!-- Node1&#45;&gt;Node26 -->
<g id="edge61_Node000001_Node000026" class="edge">
<title>Node1&#45;&gt;Node26</title>
<g id="a_edge61_Node000001_Node000026"><a xlink:title=" ">
<path fill="none" stroke="#63b8ff" d="M525.46,-725.98C549.58,-717.23 587.37,-703.51 614.6,-693.62"/>
<polygon fill="#63b8ff" stroke="#63b8ff" points="615.91,-696.87 624.12,-690.17 613.52,-690.29 615.91,-696.87"/>
</a>
</g>
</g>
<!-- Node3 -->
<g id="Node000003" class="node">
<title>Node3</title>
<g id="a_Node000003"><a xlink:href="l4_2sys_2consts_8h.html" target="_top" xlink:title="Common constants.">
<polygon fill="white" stroke="#666666" points="509.5,-129 420.5,-129 420.5,-110 509.5,-110 509.5,-129"/>
<text text-anchor="middle" x="465" y="-117" font-family="Helvetica,sans-Serif" font-size="10.00">l4/sys/consts.h</text>
</a>
</g>
</g>
<!-- Node2&#45;&gt;Node3 -->
<g id="edge2_Node000002_Node000003" class="edge">
<title>Node2&#45;&gt;Node3</title>
<g id="a_edge2_Node000002_Node000003"><a xlink:title=" ">
<path fill="none" stroke="#63b8ff" d="M234.99,-671.39C154.25,-656.38 0,-621.2 0,-571.5 0,-571.5 0,-571.5 0,-344 0,-276.42 33.46,-259.9 88,-220 139.41,-182.39 318.97,-146.31 410.49,-129.83"/>
<polygon fill="#63b8ff" stroke="#63b8ff" points="411.17,-133.26 420.4,-128.06 409.94,-126.37 411.17,-133.26"/>
</a>
</g>
</g>
<!-- Node7 -->
<g id="Node000007" class="node">
<title>Node7</title>
<g id="a_Node000007"><a xlink:href="l4_2sys_2types_8h.html" target="_top" xlink:title="Common L4 ABI Data Types.">
<polygon fill="white" stroke="#666666" points="353,-184 269,-184 269,-165 353,-165 353,-184"/>
<text text-anchor="middle" x="311" y="-172" font-family="Helvetica,sans-Serif" font-size="10.00">l4/sys/types.h</text>
</a>
</g>
</g>
<!-- Node2&#45;&gt;Node7 -->
<g id="edge6_Node000002_Node000007" class="edge">
<title>Node2&#45;&gt;Node7</title>
<g id="a_edge6_Node000002_Node000007"><a xlink:title=" ">
<path fill="none" stroke="#63b8ff" d="M234.99,-675.35C173.84,-667.14 76,-642.84 76,-571.5 76,-571.5 76,-571.5 76,-283.5 76,-203.64 189.45,-182.61 258.69,-177.22"/>
<polygon fill="#63b8ff" stroke="#63b8ff" points="259.25,-180.69 268.99,-176.51 258.77,-173.71 259.25,-180.69"/>
</a>
</g>
</g>
<!-- Node10 -->
<g id="Node000010" class="node">
<title>Node10</title>
<g id="a_Node000010"><a xlink:href="kobject_source.html" target="_top" xlink:title=" ">
<polygon fill="white" stroke="#666666" points="273.5,-525 190.5,-525 190.5,-506 273.5,-506 273.5,-525"/>
<text text-anchor="middle" x="232" y="-513" font-family="Helvetica,sans-Serif" font-size="10.00">l4/sys/kobject</text>
</a>
</g>
</g>
<!-- Node2&#45;&gt;Node10 -->
<g id="edge15_Node000002_Node000010" class="edge">
<title>Node2&#45;&gt;Node10</title>
<g id="a_edge15_Node000002_Node000010"><a xlink:title=" ">
<path fill="none" stroke="#63b8ff" d="M280.26,-670.74C272.27,-645.2 248.87,-570.43 237.86,-535.23"/>
<polygon fill="#63b8ff" stroke="#63b8ff" points="241.08,-533.81 234.76,-525.31 234.4,-535.9 241.08,-533.81"/>
</a>
</g>
</g>
<!-- Node20 -->
<g id="Node000020" class="node">
<title>Node20</title>
<g id="a_Node000020"><a xlink:href="l4_2sys_2task_8h.html" target="_top" xlink:title="Common task related definitions.">
<polygon fill="white" stroke="#666666" points="476,-354.5 398,-354.5 398,-335.5 476,-335.5 476,-354.5"/>
<text text-anchor="middle" x="437" y="-342.5" font-family="Helvetica,sans-Serif" font-size="10.00">l4/sys/task.h</text>
</a>
</g>
</g>
<!-- Node2&#45;&gt;Node20 -->
<g id="edge44_Node000002_Node000020" class="edge">
<title>Node2&#45;&gt;Node20</title>
<g id="a_edge44_Node000002_Node000020"><a xlink:title=" ">
<path fill="none" stroke="#63b8ff" d="M285.56,-670.91C290.75,-652.74 302,-609 302,-571.5 302,-571.5 302,-571.5 302,-459.5 302,-407.45 361.52,-374.48 401.52,-358.2"/>
<polygon fill="#63b8ff" stroke="#63b8ff" points="402.93,-361.41 410.97,-354.51 400.38,-354.89 402.93,-361.41"/>
</a>
</g>
</g>
<!-- Node21 -->
<g id="Node000021" class="node">
<title>Node21</title>
<g id="a_Node000021"><a xlink:href="sys_2meta.html" target="_top" xlink:title="Meta interface for getting dynamic type information about objects behind capabilities.">
<polygon fill="white" stroke="#666666" points="404,-635 330,-635 330,-616 404,-616 404,-635"/>
<text text-anchor="middle" x="367" y="-623" font-family="Helvetica,sans-Serif" font-size="10.00">l4/sys/meta</text>
</a>
</g>
</g>
<!-- Node2&#45;&gt;Node21 -->
<g id="edge45_Node000002_Node000021" class="edge">
<title>Node2&#45;&gt;Node21</title>
<g id="a_edge45_Node000002_Node000021"><a xlink:title=" ">
<path fill="none" stroke="#63b8ff" d="M296.5,-670.98C309.4,-662.84 329.1,-650.41 344.4,-640.76"/>
<polygon fill="#63b8ff" stroke="#63b8ff" points="346.67,-643.47 353.26,-635.17 342.93,-637.55 346.67,-643.47"/>
</a>
</g>
</g>
<!-- Node4 -->
<g id="Node000004" class="node">
<title>Node4</title>
<g id="a_Node000004"><a xlink:href="compiler_8h.html" target="_top" xlink:title="L4 compiler related defines.">
<polygon fill="white" stroke="#666666" points="360.5,-74 261.5,-74 261.5,-55 360.5,-55 360.5,-74"/>
<text text-anchor="middle" x="311" y="-62" font-family="Helvetica,sans-Serif" font-size="10.00">l4/sys/compiler.h</text>
</a>
</g>
</g>
<!-- Node3&#45;&gt;Node4 -->
<g id="edge3_Node000003_Node000004" class="edge">
<title>Node3&#45;&gt;Node4</title>
<g id="a_edge3_Node000003_Node000004"><a xlink:title=" ">
<path fill="none" stroke="#63b8ff" d="M440.26,-109.98C414.63,-101.16 374.37,-87.31 345.59,-77.41"/>
<polygon fill="#63b8ff" stroke="#63b8ff" points="346.53,-74.03 335.94,-74.08 344.25,-80.65 346.53,-74.03"/>
</a>
</g>
</g>
<!-- Node6 -->
<g id="Node000006" class="node">
<title>Node6</title>
<g id="a_Node000006"><a xlink:href="l4_2sys_2l4int_8h.html" target="_top" xlink:title="Fixed sized integer types, generic version.">
<polygon fill="white" stroke="#666666" points="540.5,-74 461.5,-74 461.5,-55 540.5,-55 540.5,-74"/>
<text text-anchor="middle" x="501" y="-62" font-family="Helvetica,sans-Serif" font-size="10.00">l4/sys/l4int.h</text>
</a>
</g>
</g>
<!-- Node3&#45;&gt;Node6 -->
<g id="edge5_Node000003_Node000006" class="edge">
<title>Node3&#45;&gt;Node6</title>
<g id="a_edge5_Node000003_Node000006"><a xlink:title=" ">
<path fill="none" stroke="#63b8ff" d="M470.94,-109.75C475.98,-102.34 483.34,-91.5 489.51,-82.41"/>
<polygon fill="#63b8ff" stroke="#63b8ff" points="492.44,-84.33 495.17,-74.09 486.65,-80.39 492.44,-84.33"/>
</a>
</g>
</g>
<!-- Node5 -->
<g id="Node000005" class="node">
<title>Node5</title>
<g id="a_Node000005"><a xlink:title=" ">
<polygon fill="#e0e0e0" stroke="#999999" points="357,-19 265,-19 265,0 357,0 357,-19"/>
<text text-anchor="middle" x="311" y="-7" font-family="Helvetica,sans-Serif" font-size="10.00">l4/sys/linkage.h</text>
</a>
</g>
</g>
<!-- Node4&#45;&gt;Node5 -->
<g id="edge4_Node000004_Node000005" class="edge">
<title>Node4&#45;&gt;Node5</title>
<g id="a_edge4_Node000004_Node000005"><a xlink:title=" ">
<path fill="none" stroke="#63b8ff" d="M311,-54.75C311,-47.8 311,-37.85 311,-29.13"/>
<polygon fill="#63b8ff" stroke="#63b8ff" points="314.5,-29.09 311,-19.09 307.5,-29.09 314.5,-29.09"/>
</a>
</g>
</g>
<!-- Node7&#45;&gt;Node3 -->
<g id="edge9_Node000007_Node000003" class="edge">
<title>Node7&#45;&gt;Node3</title>
<g id="a_edge9_Node000007_Node000003"><a xlink:title=" ">
<path fill="none" stroke="#63b8ff" d="M335.74,-164.98C361.37,-156.16 401.63,-142.31 430.41,-132.41"/>
<polygon fill="#63b8ff" stroke="#63b8ff" points="431.75,-135.65 440.06,-129.08 429.47,-129.03 431.75,-135.65"/>
</a>
</g>
</g>
<!-- Node7&#45;&gt;Node4 -->
<g id="edge8_Node000007_Node000004" class="edge">
<title>Node7&#45;&gt;Node4</title>
<g id="a_edge8_Node000007_Node000004"><a xlink:title=" ">
<path fill="none" stroke="#63b8ff" d="M290.48,-165C275.98,-157.77 257.65,-145.86 249,-129 238.52,-108.58 261.23,-90.43 282.05,-78.81"/>
<polygon fill="#63b8ff" stroke="#63b8ff" points="283.82,-81.84 291.05,-74.1 280.57,-75.63 283.82,-81.84"/>
</a>
</g>
</g>
<!-- Node7&#45;&gt;Node6 -->
<g id="edge7_Node000007_Node000006" class="edge">
<title>Node7&#45;&gt;Node6</title>
<g id="a_edge7_Node000007_Node000006"><a xlink:title=" ">
<path fill="none" stroke="#63b8ff" d="M353.26,-170.58C407.92,-165.83 498.57,-154.27 519,-129 529.65,-115.82 521.99,-96.68 513.62,-82.86"/>
<polygon fill="#63b8ff" stroke="#63b8ff" points="516.38,-80.68 507.93,-74.29 510.54,-84.55 516.38,-80.68"/>
</a>
</g>
</g>
<!-- Node8 -->
<g id="Node000008" class="node">
<title>Node8</title>
<g id="a_Node000008"><a xlink:href="____l4__fpage_8h_source.html" target="_top" xlink:title=" ">
<polygon fill="white" stroke="#666666" points="202,-129 92,-129 92,-110 202,-110 202,-129"/>
<text text-anchor="middle" x="147" y="-117" font-family="Helvetica,sans-Serif" font-size="10.00">l4/sys/__l4_fpage.h</text>
</a>
</g>
</g>
<!-- Node7&#45;&gt;Node8 -->
<g id="edge10_Node000007_Node000008" class="edge">
<title>Node7&#45;&gt;Node8</title>
<g id="a_edge10_Node000007_Node000008"><a xlink:title=" ">
<path fill="none" stroke="#63b8ff" d="M284.65,-164.98C257.24,-156.13 214.11,-142.19 183.44,-132.28"/>
<polygon fill="#63b8ff" stroke="#63b8ff" points="184.15,-128.83 173.56,-129.08 182,-135.49 184.15,-128.83"/>
</a>
</g>
</g>
<!-- Node9 -->
<g id="Node000009" class="node">
<title>Node9</title>
<g id="a_Node000009"><a xlink:href="____timeout_8h_source.html" target="_top" xlink:title=" ">
<polygon fill="white" stroke="#666666" points="364,-129 258,-129 258,-110 364,-110 364,-129"/>
<text text-anchor="middle" x="311" y="-117" font-family="Helvetica,sans-Serif" font-size="10.00">l4/sys/__timeout.h</text>
</a>
</g>
</g>
<!-- Node7&#45;&gt;Node9 -->
<g id="edge12_Node000007_Node000009" class="edge">
<title>Node7&#45;&gt;Node9</title>
<g id="a_edge12_Node000007_Node000009"><a xlink:title=" ">
<path fill="none" stroke="#63b8ff" d="M311,-164.75C311,-157.8 311,-147.85 311,-139.13"/>
<polygon fill="#63b8ff" stroke="#63b8ff" points="314.5,-139.09 311,-129.09 307.5,-139.09 314.5,-139.09"/>
</a>
</g>
</g>
<!-- Node8&#45;&gt;Node4 -->
<g id="edge11_Node000008_Node000004" class="edge">
<title>Node8&#45;&gt;Node4</title>
<g id="a_edge11_Node000008_Node000004"><a xlink:title=" ">
<path fill="none" stroke="#63b8ff" d="M173.35,-109.98C200.76,-101.13 243.89,-87.19 274.56,-77.28"/>
<polygon fill="#63b8ff" stroke="#63b8ff" points="276,-80.49 284.44,-74.08 273.85,-73.83 276,-80.49"/>
</a>
</g>
</g>
<!-- Node9&#45;&gt;Node4 -->
<g id="edge14_Node000009_Node000004" class="edge">
<title>Node9&#45;&gt;Node4</title>
<g id="a_edge14_Node000009_Node000004"><a xlink:title=" ">
<path fill="none" stroke="#63b8ff" d="M311,-109.75C311,-102.8 311,-92.85 311,-84.13"/>
<polygon fill="#63b8ff" stroke="#63b8ff" points="314.5,-84.09 311,-74.09 307.5,-84.09 314.5,-84.09"/>
</a>
</g>
</g>
<!-- Node9&#45;&gt;Node6 -->
<g id="edge13_Node000009_Node000006" class="edge">
<title>Node9&#45;&gt;Node6</title>
<g id="a_edge13_Node000009_Node000006"><a xlink:title=" ">
<path fill="none" stroke="#63b8ff" d="M341.53,-109.98C373.7,-101.01 424.56,-86.82 460.17,-76.89"/>
<polygon fill="#63b8ff" stroke="#63b8ff" points="461.54,-80.14 470.23,-74.08 459.66,-73.4 461.54,-80.14"/>
</a>
</g>
</g>
<!-- Node10&#45;&gt;Node7 -->
<g id="edge30_Node000010_Node000007" class="edge">
<title>Node10&#45;&gt;Node7</title>
<g id="a_edge30_Node000010_Node000007"><a xlink:title=" ">
<path fill="none" stroke="#63b8ff" d="M209.53,-505.92C175.29,-491.22 114,-457.74 114,-406.5 114,-406.5 114,-406.5 114,-283.5 114,-217.45 200.19,-191.53 258.55,-181.54"/>
<polygon fill="#63b8ff" stroke="#63b8ff" points="259.42,-184.95 268.74,-179.91 258.31,-178.04 259.42,-184.95"/>
</a>
</g>
</g>
<!-- Node11 -->
<g id="Node000011" class="node">
<title>Node11</title>
<g id="a_Node000011"><a xlink:href="kernel__object_8h.html" target="_top" xlink:title="Kernel object system calls.">
<polygon fill="white" stroke="#666666" points="250.5,-415 159.5,-415 159.5,-396 250.5,-396 250.5,-415"/>
<text text-anchor="middle" x="205" y="-403" font-family="Helvetica,sans-Serif" font-size="10.00">kernel_object.h</text>
</a>
</g>
</g>
<!-- Node10&#45;&gt;Node11 -->
<g id="edge16_Node000010_Node000011" class="edge">
<title>Node10&#45;&gt;Node11</title>
<g id="a_edge16_Node000010_Node000011"><a xlink:title=" ">
<path fill="none" stroke="#63b8ff" d="M229.79,-505.66C225.4,-488.09 215.49,-448.45 209.61,-424.95"/>
<polygon fill="#63b8ff" stroke="#63b8ff" points="212.99,-424.01 207.16,-415.16 206.19,-425.71 212.99,-424.01"/>
</a>
</g>
</g>
<!-- Node16 -->
<g id="Node000016" class="node">
<title>Node16</title>
<g id="a_Node000016"><a xlink:href="____typeinfo_8h.html" target="_top" xlink:title="Type information handling.">
<polygon fill="white" stroke="#666666" points="426.5,-470 349.5,-470 349.5,-451 426.5,-451 426.5,-470"/>
<text text-anchor="middle" x="388" y="-458" font-family="Helvetica,sans-Serif" font-size="10.00">__typeinfo.h</text>
</a>
</g>
</g>
<!-- Node10&#45;&gt;Node16 -->
<g id="edge31_Node000010_Node000016" class="edge">
<title>Node10&#45;&gt;Node16</title>
<g id="a_edge31_Node000010_Node000016"><a xlink:title=" ">
<path fill="none" stroke="#63b8ff" d="M257.06,-505.98C283.03,-497.16 323.81,-483.31 352.96,-473.41"/>
<polygon fill="#63b8ff" stroke="#63b8ff" points="354.4,-476.61 362.74,-470.08 352.15,-469.99 354.4,-476.61"/>
</a>
</g>
</g>
<!-- Node11&#45;&gt;Node4 -->
<g id="edge18_Node000011_Node000004" class="edge">
<title>Node11&#45;&gt;Node4</title>
<g id="a_edge18_Node000011_Node000004"><a xlink:title=" ">
<path fill="none" stroke="#63b8ff" d="M193.04,-395.77C163.78,-373.59 89.02,-311.6 62,-239 47.41,-199.8 26.59,-166.65 83,-110 106.14,-86.77 191.86,-75.1 251.33,-69.67"/>
<polygon fill="#63b8ff" stroke="#63b8ff" points="251.71,-73.15 261.37,-68.79 251.1,-66.18 251.71,-73.15"/>
</a>
</g>
</g>
<!-- Node11&#45;&gt;Node7 -->
<g id="edge17_Node000011_Node000007" class="edge">
<title>Node11&#45;&gt;Node7</title>
<g id="a_edge17_Node000011_Node000007"><a xlink:title=" ">
<path fill="none" stroke="#63b8ff" d="M202.14,-395.6C198.03,-381.44 191.62,-353.04 198,-330 214.32,-271.08 265.54,-217.06 293.07,-191.32"/>
<polygon fill="#63b8ff" stroke="#63b8ff" points="295.77,-193.59 300.79,-184.26 291.05,-188.43 295.77,-193.59"/>
</a>
</g>
</g>
<!-- Node12 -->
<g id="Node000012" class="node">
<title>Node12</title>
<g id="a_Node000012"><a xlink:href="l4_2sys_2utcb_8h.html" target="_top" xlink:title="UTCB definitions.">
<polygon fill="white" stroke="#666666" points="476,-239 398,-239 398,-220 476,-220 476,-239"/>
<text text-anchor="middle" x="437" y="-227" font-family="Helvetica,sans-Serif" font-size="10.00">l4/sys/utcb.h</text>
</a>
</g>
</g>
<!-- Node11&#45;&gt;Node12 -->
<g id="edge19_Node000011_Node000012" class="edge">
<title>Node11&#45;&gt;Node12</title>
<g id="a_edge19_Node000011_Node000012"><a xlink:title=" ">
<path fill="none" stroke="#63b8ff" d="M203.47,-395.74C201.36,-381.29 198.9,-351.87 209,-330 223.9,-297.75 235.95,-292.26 267,-275 304.62,-254.09 352.4,-242.71 387.72,-236.71"/>
<polygon fill="#63b8ff" stroke="#63b8ff" points="388.48,-240.13 397.79,-235.08 387.37,-233.22 388.48,-240.13"/>
</a>
</g>
</g>
<!-- Node13 -->
<g id="Node000013" class="node">
<title>Node13</title>
<g id="a_Node000013"><a xlink:href="____kernel__object__impl_8h.html" target="_top" xlink:title="Low&#45;level kernel debugger functions.">
<polygon fill="white" stroke="#666666" points="342,-360 218,-360 218,-330 342,-330 342,-360"/>
<text text-anchor="start" x="226" y="-348" font-family="Helvetica,sans-Serif" font-size="10.00">l4/sys/__kernel_object</text>
<text text-anchor="middle" x="280" y="-337" font-family="Helvetica,sans-Serif" font-size="10.00">_impl.h</text>
</a>
</g>
</g>
<!-- Node11&#45;&gt;Node13 -->
<g id="edge23_Node000011_Node000013" class="edge">
<title>Node11&#45;&gt;Node13</title>
<g id="a_edge23_Node000011_Node000013"><a xlink:title=" ">
<path fill="none" stroke="#63b8ff" d="M216.07,-395.87C225.96,-388.15 240.85,-376.54 253.77,-366.46"/>
<polygon fill="#63b8ff" stroke="#63b8ff" points="256.17,-369.02 261.9,-360.11 251.87,-363.51 256.17,-369.02"/>
</a>
</g>
</g>
<!-- Node14 -->
<g id="Node000014" class="node">
<title>Node14</title>
<g id="a_Node000014"><a xlink:href="l4_2sys_2ipc_8h.html" target="_top" xlink:title="Common IPC interface.">
<polygon fill="white" stroke="#666666" points="346.5,-294 275.5,-294 275.5,-275 346.5,-275 346.5,-294"/>
<text text-anchor="middle" x="311" y="-282" font-family="Helvetica,sans-Serif" font-size="10.00">l4/sys/ipc.h</text>
</a>
</g>
</g>
<!-- Node11&#45;&gt;Node14 -->
<g id="edge29_Node000011_Node000014" class="edge">
<title>Node11&#45;&gt;Node14</title>
<g id="a_edge29_Node000011_Node000014"><a xlink:title=" ">
<path fill="none" stroke="#63b8ff" d="M250.65,-396.67C288.82,-389.09 338.9,-376.34 351,-360 365.04,-341.04 345.69,-316.53 329.34,-300.9"/>
<polygon fill="#63b8ff" stroke="#63b8ff" points="331.48,-298.12 321.71,-294.01 326.78,-303.31 331.48,-298.12"/>
</a>
</g>
</g>
<!-- Node12&#45;&gt;Node4 -->
<g id="edge21_Node000012_Node000004" class="edge">
<title>Node12&#45;&gt;Node4</title>
<g id="a_edge21_Node000012_Node000004"><a xlink:title=" ">
<path fill="none" stroke="#63b8ff" d="M433.94,-219.95C426.23,-199.27 404.36,-145.63 373,-110 362.4,-97.95 347.95,-87.34 335.67,-79.51"/>
<polygon fill="#63b8ff" stroke="#63b8ff" points="337.15,-76.32 326.8,-74.08 333.5,-82.29 337.15,-76.32"/>
</a>
</g>
</g>
<!-- Node12&#45;&gt;Node6 -->
<g id="edge22_Node000012_Node000006" class="edge">
<title>Node12&#45;&gt;Node6</title>
<g id="a_edge22_Node000012_Node000006"><a xlink:title=" ">
<path fill="none" stroke="#63b8ff" d="M450.77,-219.86C473.44,-204.71 517.81,-170.95 535,-129 541.85,-112.29 530.16,-94.23 518.66,-81.66"/>
<polygon fill="#63b8ff" stroke="#63b8ff" points="520.85,-78.9 511.33,-74.26 515.88,-83.83 520.85,-78.9"/>
</a>
</g>
</g>
<!-- Node12&#45;&gt;Node7 -->
<g id="edge20_Node000012_Node000007" class="edge">
<title>Node12&#45;&gt;Node7</title>
<g id="a_edge20_Node000012_Node000007"><a xlink:title=" ">
<path fill="none" stroke="#63b8ff" d="M416.76,-219.98C396.3,-211.38 364.47,-197.99 341.07,-188.15"/>
<polygon fill="#63b8ff" stroke="#63b8ff" points="342.19,-184.82 331.61,-184.17 339.47,-191.27 342.19,-184.82"/>
</a>
</g>
</g>
<!-- Node13&#45;&gt;Node14 -->
<g id="edge24_Node000013_Node000014" class="edge">
<title>Node13&#45;&gt;Node14</title>
<g id="a_edge24_Node000013_Node000014"><a xlink:title=" ">
<path fill="none" stroke="#63b8ff" d="M287.5,-329.84C291.73,-321.87 297.04,-311.84 301.55,-303.33"/>
<polygon fill="#63b8ff" stroke="#63b8ff" points="304.77,-304.74 306.35,-294.27 298.58,-301.46 304.77,-304.74"/>
</a>
</g>
</g>
<!-- Node14&#45;&gt;Node7 -->
<g id="edge25_Node000014_Node000007" class="edge">
<title>Node14&#45;&gt;Node7</title>
<g id="a_edge25_Node000014_Node000007"><a xlink:title=" ">
<path fill="none" stroke="#63b8ff" d="M311,-274.66C311,-257.17 311,-217.8 311,-194.27"/>
<polygon fill="#63b8ff" stroke="#63b8ff" points="314.5,-194.16 311,-184.16 307.5,-194.16 314.5,-194.16"/>
</a>
</g>
</g>
<!-- Node14&#45;&gt;Node12 -->
<g id="edge26_Node000014_Node000012" class="edge">
<title>Node14&#45;&gt;Node12</title>
<g id="a_edge26_Node000014_Node000012"><a xlink:title=" ">
<path fill="none" stroke="#63b8ff" d="M331.24,-274.98C351.7,-266.38 383.53,-252.99 406.93,-243.15"/>
<polygon fill="#63b8ff" stroke="#63b8ff" points="408.53,-246.27 416.39,-239.17 405.81,-239.82 408.53,-246.27"/>
</a>
</g>
</g>
<!-- Node15 -->
<g id="Node000015" class="node">
<title>Node15</title>
<g id="a_Node000015"><a xlink:href="err_8h.html" target="_top" xlink:title="Error codes.">
<polygon fill="white" stroke="#666666" points="640,-239 570,-239 570,-220 640,-220 640,-239"/>
<text text-anchor="middle" x="605" y="-227" font-family="Helvetica,sans-Serif" font-size="10.00">l4/sys/err.h</text>
</a>
</g>
</g>
<!-- Node14&#45;&gt;Node15 -->
<g id="edge27_Node000014_Node000015" class="edge">
<title>Node14&#45;&gt;Node15</title>
<g id="a_edge27_Node000014_Node000015"><a xlink:title=" ">
<path fill="none" stroke="#63b8ff" d="M346.76,-277.05C400.31,-267.4 501.32,-249.19 559.88,-238.63"/>
<polygon fill="#63b8ff" stroke="#63b8ff" points="560.73,-242.04 569.95,-236.82 559.49,-235.15 560.73,-242.04"/>
</a>
</g>
</g>
<!-- Node15&#45;&gt;Node4 -->
<g id="edge28_Node000015_Node000004" class="edge">
<title>Node15&#45;&gt;Node4</title>
<g id="a_edge28_Node000015_Node000004"><a xlink:title=" ">
<path fill="none" stroke="#63b8ff" d="M601.46,-219.97C591.83,-197.89 562.89,-138.56 519,-110 474.63,-81.13 414.74,-70.64 370.62,-67"/>
<polygon fill="#63b8ff" stroke="#63b8ff" points="370.84,-63.5 360.61,-66.26 370.33,-70.48 370.84,-63.5"/>
</a>
</g>
</g>
<!-- Node17 -->
<g id="Node000017" class="node">
<title>Node17</title>
<g id="a_Node000017"><a xlink:href="types.html" target="_top" xlink:title=" ">
<polygon fill="white" stroke="#666666" points="710,-354.5 646,-354.5 646,-335.5 710,-335.5 710,-354.5"/>
<text text-anchor="middle" x="678" y="-342.5" font-family="Helvetica,sans-Serif" font-size="10.00">cxx/types</text>
</a>
</g>
</g>
<!-- Node16&#45;&gt;Node17 -->
<g id="edge32_Node000016_Node000017" class="edge">
<title>Node16&#45;&gt;Node17</title>
<g id="a_edge32_Node000016_Node000017"><a xlink:title=" ">
<path fill="none" stroke="#63b8ff" d="M408.85,-450.93C429.94,-442.18 463.42,-428.07 492,-415 509.54,-406.98 513.17,-403.34 531,-396 567.28,-381.06 609.82,-366.95 639.78,-357.55"/>
<polygon fill="#63b8ff" stroke="#63b8ff" points="640.92,-360.86 649.43,-354.55 638.84,-354.18 640.92,-360.86"/>
</a>
</g>
</g>
<!-- Node18 -->
<g id="Node000018" class="node">
<title>Node18</title>
<g id="a_Node000018"><a xlink:href="ipc__basics_source.html" target="_top" xlink:title=" ">
<polygon fill="white" stroke="#666666" points="626.5,-415 539.5,-415 539.5,-396 626.5,-396 626.5,-415"/>
<text text-anchor="middle" x="583" y="-403" font-family="Helvetica,sans-Serif" font-size="10.00">cxx/ipc_basics</text>
</a>
</g>
</g>
<!-- Node16&#45;&gt;Node18 -->
<g id="edge33_Node000016_Node000018" class="edge">
<title>Node16&#45;&gt;Node18</title>
<g id="a_edge33_Node000016_Node000018"><a xlink:title=" ">
<path fill="none" stroke="#63b8ff" d="M419.33,-450.98C452.49,-441.97 505,-427.7 541.56,-417.76"/>
<polygon fill="#63b8ff" stroke="#63b8ff" points="542.69,-421.08 551.42,-415.08 540.86,-414.33 542.69,-421.08"/>
</a>
</g>
</g>
<!-- Node19 -->
<g id="Node000019" class="node">
<title>Node19</title>
<g id="a_Node000019"><a xlink:href="capability_8h_source.html" target="_top" xlink:title=" ">
<polygon fill="white" stroke="#666666" points="483,-415 391,-415 391,-396 483,-396 483,-415"/>
<text text-anchor="middle" x="437" y="-403" font-family="Helvetica,sans-Serif" font-size="10.00">cxx/capability.h</text>
</a>
</g>
</g>
<!-- Node16&#45;&gt;Node19 -->
<g id="edge37_Node000016_Node000019" class="edge">
<title>Node16&#45;&gt;Node19</title>
<g id="a_edge37_Node000016_Node000019"><a xlink:title=" ">
<path fill="none" stroke="#63b8ff" d="M396.09,-450.75C403.16,-443.11 413.59,-431.82 422.15,-422.56"/>
<polygon fill="#63b8ff" stroke="#63b8ff" points="424.84,-424.81 429.06,-415.09 419.7,-420.06 424.84,-424.81"/>
</a>
</g>
</g>
<!-- Node18&#45;&gt;Node12 -->
<g id="edge35_Node000018_Node000012" class="edge">
<title>Node18&#45;&gt;Node12</title>
<g id="a_edge35_Node000018_Node000012"><a xlink:title=" ">
<path fill="none" stroke="#63b8ff" d="M575.56,-395.63C552.42,-368.05 481.44,-283.47 451.05,-247.25"/>
<polygon fill="#63b8ff" stroke="#63b8ff" points="453.36,-244.55 444.25,-239.14 448,-249.05 453.36,-244.55"/>
</a>
</g>
</g>
<!-- Node18&#45;&gt;Node15 -->
<g id="edge36_Node000018_Node000015" class="edge">
<title>Node18&#45;&gt;Node15</title>
<g id="a_edge36_Node000018_Node000015"><a xlink:title=" ">
<path fill="none" stroke="#63b8ff" d="M585.61,-395.72C588.15,-386.81 591.93,-372.56 594,-360 600.47,-320.81 603.24,-274.28 604.34,-249.04"/>
<polygon fill="#63b8ff" stroke="#63b8ff" points="607.84,-249.17 604.74,-239.04 600.85,-248.9 607.84,-249.17"/>
</a>
</g>
</g>
<!-- Node18&#45;&gt;Node17 -->
<g id="edge34_Node000018_Node000017" class="edge">
<title>Node18&#45;&gt;Node17</title>
<g id="a_edge34_Node000018_Node000017"><a xlink:title=" ">
<path fill="none" stroke="#63b8ff" d="M597.02,-395.87C612.31,-386.45 637.03,-371.23 655.14,-360.08"/>
<polygon fill="#63b8ff" stroke="#63b8ff" points="657.25,-362.89 663.92,-354.67 653.57,-356.93 657.25,-362.89"/>
</a>
</g>
</g>
<!-- Node19&#45;&gt;Node3 -->
<g id="edge38_Node000019_Node000003" class="edge">
<title>Node19&#45;&gt;Node3</title>
<g id="a_edge38_Node000019_Node000003"><a xlink:title=" ">
<path fill="none" stroke="#63b8ff" d="M454.78,-395.97C469.45,-388.23 490.06,-375.63 504,-360 528.73,-332.25 542,-322.67 542,-285.5 542,-285.5 542,-285.5 542,-228.5 542,-189.3 507.94,-154.47 485.13,-135.54"/>
<polygon fill="#63b8ff" stroke="#63b8ff" points="487.03,-132.58 477.03,-129.09 482.67,-138.05 487.03,-132.58"/>
</a>
</g>
</g>
<!-- Node19&#45;&gt;Node7 -->
<g id="edge39_Node000019_Node000007" class="edge">
<title>Node19&#45;&gt;Node7</title>
<g id="a_edge39_Node000019_Node000007"><a xlink:title=" ">
<path fill="none" stroke="#63b8ff" d="M451.37,-395.96C462.87,-388.21 478.18,-375.62 485,-360 509.89,-302.97 523.16,-269.15 485,-220 470.11,-200.82 408.95,-188.51 363.32,-181.81"/>
<polygon fill="#63b8ff" stroke="#63b8ff" points="363.66,-178.32 353.26,-180.38 362.68,-185.25 363.66,-178.32"/>
</a>
</g>
</g>
<!-- Node19&#45;&gt;Node20 -->
<g id="edge40_Node000019_Node000020" class="edge">
<title>Node19&#45;&gt;Node20</title>
<g id="a_edge40_Node000019_Node000020"><a xlink:title=" ">
<path fill="none" stroke="#63b8ff" d="M437,-395.87C437,-387.75 437,-375.31 437,-364.89"/>
<polygon fill="#63b8ff" stroke="#63b8ff" points="440.5,-364.67 437,-354.67 433.5,-364.67 440.5,-364.67"/>
</a>
</g>
</g>
<!-- Node20&#45;&gt;Node7 -->
<g id="edge41_Node000020_Node000007" class="edge">
<title>Node20&#45;&gt;Node7</title>
<g id="a_edge41_Node000020_Node000007"><a xlink:title=" ">
<path fill="none" stroke="#63b8ff" d="M430.58,-335.41C410.78,-308.94 350.44,-228.24 323.83,-192.66"/>
<polygon fill="#63b8ff" stroke="#63b8ff" points="326.35,-190.18 317.56,-184.27 320.75,-194.38 326.35,-190.18"/>
</a>
</g>
</g>
<!-- Node20&#45;&gt;Node12 -->
<g id="edge42_Node000020_Node000012" class="edge">
<title>Node20&#45;&gt;Node12</title>
<g id="a_edge42_Node000020_Node000012"><a xlink:title=" ">
<path fill="none" stroke="#63b8ff" d="M437,-335.47C437,-317.23 437,-274.07 437,-249.14"/>
<polygon fill="#63b8ff" stroke="#63b8ff" points="440.5,-249.13 437,-239.13 433.5,-249.13 440.5,-249.13"/>
</a>
</g>
</g>
<!-- Node20&#45;&gt;Node14 -->
<g id="edge43_Node000020_Node000014" class="edge">
<title>Node20&#45;&gt;Node14</title>
<g id="a_edge43_Node000020_Node000014"><a xlink:title=" ">
<path fill="none" stroke="#63b8ff" d="M418.68,-335.49C397.59,-325.7 362.74,-309.52 338.42,-298.23"/>
<polygon fill="#63b8ff" stroke="#63b8ff" points="339.89,-295.05 329.34,-294.02 336.94,-301.4 339.89,-295.05"/>
</a>
</g>
</g>
<!-- Node21&#45;&gt;Node10 -->
<g id="edge46_Node000021_Node000010" class="edge">
<title>Node21&#45;&gt;Node10</title>
<g id="a_edge46_Node000021_Node000010"><a xlink:title=" ">
<path fill="none" stroke="#63b8ff" d="M355.95,-615.66C332.9,-597.22 279.43,-554.45 250.84,-531.57"/>
<polygon fill="#63b8ff" stroke="#63b8ff" points="252.82,-528.67 242.82,-525.16 248.45,-534.14 252.82,-528.67"/>
</a>
</g>
</g>
<!-- Node21&#45;&gt;Node22 -->
<g id="edge47_Node000021_Node000022" class="edge">
<title>Node21&#45;&gt;Node22</title>
<g id="a_edge47_Node000021_Node000022"><a xlink:title=" ">
<path fill="none" stroke="#63b8ff" d="M371.75,-615.66C381.31,-597.85 403.05,-557.37 415.6,-534.01"/>
<polygon fill="#63b8ff" stroke="#63b8ff" points="418.7,-535.62 420.35,-525.16 412.54,-532.31 418.7,-535.62"/>
</a>
</g>
</g>
<!-- Node21&#45;&gt;Node24 -->
<g id="edge54_Node000021_Node000024" class="edge">
<title>Node21&#45;&gt;Node24</title>
<g id="a_edge54_Node000021_Node000024"><a xlink:title=" ">
<path fill="none" stroke="#63b8ff" d="M388.69,-615.98C410.8,-607.3 445.32,-593.75 470.45,-583.88"/>
<polygon fill="#63b8ff" stroke="#63b8ff" points="471.89,-587.08 479.92,-580.17 469.33,-580.57 471.89,-587.08"/>
</a>
</g>
</g>
<!-- Node22&#45;&gt;Node16 -->
<g id="edge53_Node000022_Node000016" class="edge">
<title>Node22&#45;&gt;Node16</title>
<g id="a_edge53_Node000022_Node000016"><a xlink:title=" ">
<path fill="none" stroke="#63b8ff" d="M418.89,-505.75C413.72,-498.34 406.15,-487.5 399.81,-478.41"/>
<polygon fill="#63b8ff" stroke="#63b8ff" points="402.59,-476.29 394,-470.09 396.85,-480.29 402.59,-476.29"/>
</a>
</g>
</g>
<!-- Node22&#45;&gt;Node18 -->
<g id="edge48_Node000022_Node000018" class="edge">
<title>Node22&#45;&gt;Node18</title>
<g id="a_edge48_Node000022_Node000018"><a xlink:title=" ">
<path fill="none" stroke="#63b8ff" d="M430.61,-505.57C439.45,-492.13 457.8,-466.63 479,-451 498.43,-436.68 523.17,-425.85 543.64,-418.47"/>
<polygon fill="#63b8ff" stroke="#63b8ff" points="545.01,-421.7 553.31,-415.12 542.72,-415.08 545.01,-421.7"/>
</a>
</g>
</g>
<!-- Node23 -->
<g id="Node000023" class="node">
<title>Node23</title>
<g id="a_Node000023"><a xlink:href="ipc__types.html" target="_top" xlink:title=" ">
<polygon fill="white" stroke="#666666" points="636.5,-470 521.5,-470 521.5,-451 636.5,-451 636.5,-470"/>
<text text-anchor="middle" x="579" y="-458" font-family="Helvetica,sans-Serif" font-size="10.00">l4/sys/cxx/ipc_types</text>
</a>
</g>
</g>
<!-- Node22&#45;&gt;Node23 -->
<g id="edge49_Node000022_Node000023" class="edge">
<title>Node22&#45;&gt;Node23</title>
<g id="a_edge49_Node000022_Node000023"><a xlink:title=" ">
<path fill="none" stroke="#63b8ff" d="M449.74,-505.98C475.37,-497.16 515.63,-483.31 544.41,-473.41"/>
<polygon fill="#63b8ff" stroke="#63b8ff" points="545.75,-476.65 554.06,-470.08 543.47,-470.03 545.75,-476.65"/>
</a>
</g>
</g>
<!-- Node23&#45;&gt;Node17 -->
<g id="edge51_Node000023_Node000017" class="edge">
<title>Node23&#45;&gt;Node17</title>
<g id="a_edge51_Node000023_Node000017"><a xlink:title=" ">
<path fill="none" stroke="#63b8ff" d="M592.81,-450.81C605.13,-442.61 623.14,-429.44 636,-415 649.94,-399.34 661.92,-378.44 669.48,-363.76"/>
<polygon fill="#63b8ff" stroke="#63b8ff" points="672.65,-365.24 673.97,-354.73 666.38,-362.12 672.65,-365.24"/>
</a>
</g>
</g>
<!-- Node23&#45;&gt;Node18 -->
<g id="edge52_Node000023_Node000018" class="edge">
<title>Node23&#45;&gt;Node18</title>
<g id="a_edge52_Node000023_Node000018"><a xlink:title=" ">
<path fill="none" stroke="#63b8ff" d="M579.66,-450.75C580.18,-443.8 580.94,-433.85 581.59,-425.13"/>
<polygon fill="#63b8ff" stroke="#63b8ff" points="585.09,-425.32 582.35,-415.09 578.11,-424.8 585.09,-425.32"/>
</a>
</g>
</g>
<!-- Node23&#45;&gt;Node19 -->
<g id="edge50_Node000023_Node000019" class="edge">
<title>Node23&#45;&gt;Node19</title>
<g id="a_edge50_Node000023_Node000019"><a xlink:title=" ">
<path fill="none" stroke="#63b8ff" d="M556.19,-450.98C532.83,-442.27 496.3,-428.63 469.83,-418.75"/>
<polygon fill="#63b8ff" stroke="#63b8ff" points="470.82,-415.39 460.23,-415.17 468.37,-421.95 470.82,-415.39"/>
</a>
</g>
</g>
<!-- Node24&#45;&gt;Node17 -->
<g id="edge55_Node000024_Node000017" class="edge">
<title>Node24&#45;&gt;Node17</title>
<g id="a_edge55_Node000024_Node000017"><a xlink:title=" ">
<path fill="none" stroke="#63b8ff" d="M537.2,-560.9C579.19,-548.57 647.62,-521.47 679,-470 696.47,-441.35 699.18,-429.16 694,-396 692.3,-385.14 688.66,-373.41 685.27,-364.05"/>
<polygon fill="#63b8ff" stroke="#63b8ff" points="688.52,-362.74 681.68,-354.65 681.98,-365.24 688.52,-362.74"/>
</a>
</g>
</g>
<!-- Node24&#45;&gt;Node18 -->
<g id="edge56_Node000024_Node000018" class="edge">
<title>Node24&#45;&gt;Node18</title>
<g id="a_edge56_Node000024_Node000018"><a xlink:title=" ">
<path fill="none" stroke="#63b8ff" d="M500.41,-560.97C497.03,-540.33 491.13,-486.79 513,-451 521.54,-437.02 536.31,-426.68 550.09,-419.5"/>
<polygon fill="#63b8ff" stroke="#63b8ff" points="551.89,-422.52 559.38,-415.03 548.85,-416.21 551.89,-422.52"/>
</a>
</g>
</g>
<!-- Node24&#45;&gt;Node25 -->
<g id="edge57_Node000024_Node000025" class="edge">
<title>Node24&#45;&gt;Node25</title>
<g id="a_edge57_Node000024_Node000025"><a xlink:title=" ">
<path fill="none" stroke="#63b8ff" d="M514.37,-560.98C526.09,-552.92 543.92,-540.65 557.89,-531.03"/>
<polygon fill="#63b8ff" stroke="#63b8ff" points="560.15,-533.72 566.4,-525.17 556.18,-527.96 560.15,-533.72"/>
</a>
</g>
</g>
<!-- Node25&#45;&gt;Node17 -->
<g id="edge58_Node000025_Node000017" class="edge">
<title>Node25&#45;&gt;Node17</title>
<g id="a_edge58_Node000025_Node000017"><a xlink:title=" ">
<path fill="none" stroke="#63b8ff" d="M608.71,-505.98C626.77,-499.21 648.66,-487.85 661,-470 682.96,-438.24 682.62,-390.82 680.36,-364.79"/>
<polygon fill="#63b8ff" stroke="#63b8ff" points="683.84,-364.33 679.3,-354.76 676.87,-365.07 683.84,-364.33"/>
</a>
</g>
</g>
<!-- Node25&#45;&gt;Node18 -->
<g id="edge59_Node000025_Node000018" class="edge">
<title>Node25&#45;&gt;Node18</title>
<g id="a_edge59_Node000025_Node000018"><a xlink:title=" ">
<path fill="none" stroke="#63b8ff" d="M602.11,-505.98C617.59,-498.92 636.76,-487.23 646,-470 656.98,-449.52 633.61,-431.29 612.28,-419.67"/>
<polygon fill="#63b8ff" stroke="#63b8ff" points="613.87,-416.56 603.37,-415.11 610.68,-422.79 613.87,-416.56"/>
</a>
</g>
</g>
<!-- Node25&#45;&gt;Node23 -->
<g id="edge60_Node000025_Node000023" class="edge">
<title>Node25&#45;&gt;Node23</title>
<g id="a_edge60_Node000025_Node000023"><a xlink:title=" ">
<path fill="none" stroke="#63b8ff" d="M579,-505.75C579,-498.8 579,-488.85 579,-480.13"/>
<polygon fill="#63b8ff" stroke="#63b8ff" points="582.5,-480.09 579,-470.09 575.5,-480.09 582.5,-480.09"/>
</a>
</g>
</g>
</g>
</svg>
