<?xml version="1.0" encoding="UTF-8" standalone="no"?>
<!DOCTYPE svg PUBLIC "-//W3C//DTD SVG 1.1//EN"
 "http://www.w3.org/Graphics/SVG/1.1/DTD/svg11.dtd">
<!-- Generated by graphviz version 2.42.4 (0)
 -->
<!-- Title: l4/re/c/namespace.h Pages: 1 -->
<svg width="534pt" height="412pt"
 viewBox="0.00 0.00 533.99 412.00" xmlns="http://www.w3.org/2000/svg" xmlns:xlink="http://www.w3.org/1999/xlink">
<g id="graph0" class="graph" transform="scale(1 1) rotate(0) translate(4 408)">
<title>l4/re/c/namespace.h</title>
<!-- Node1 -->
<g id="Node000001" class="node">
<title>Node1</title>
<g id="a_Node000001"><a xlink:title="Namespace functions, C interface.">
<polygon fill="#999999" stroke="#666666" points="315.5,-404 200.5,-404 200.5,-385 315.5,-385 315.5,-404"/>
<text text-anchor="middle" x="258" y="-392" font-family="Helvetica,sans-Serif" font-size="10.00">l4/re/c/namespace.h</text>
</a>
</g>
</g>
<!-- Node2 -->
<g id="Node000002" class="node">
<title>Node2</title>
<g id="a_Node000002"><a xlink:href="env_8h.html" target="_top" xlink:title="Environment interface.">
<polygon fill="white" stroke="#666666" points="292,-349 224,-349 224,-330 292,-330 292,-349"/>
<text text-anchor="middle" x="258" y="-337" font-family="Helvetica,sans-Serif" font-size="10.00">l4/re/env.h</text>
</a>
</g>
</g>
<!-- Node1&#45;&gt;Node2 -->
<g id="edge1_Node000001_Node000002" class="edge">
<title>Node1&#45;&gt;Node2</title>
<g id="a_edge1_Node000001_Node000002"><a xlink:title=" ">
<path fill="none" stroke="#63b8ff" d="M258,-384.75C258,-377.8 258,-367.85 258,-359.13"/>
<polygon fill="#63b8ff" stroke="#63b8ff" points="261.5,-359.09 258,-349.09 254.5,-359.09 261.5,-359.09"/>
</a>
</g>
</g>
<!-- Node3 -->
<g id="Node000003" class="node">
<title>Node3</title>
<g id="a_Node000003"><a xlink:href="l4_2sys_2consts_8h.html" target="_top" xlink:title="Common constants.">
<polygon fill="white" stroke="#666666" points="521.5,-129 432.5,-129 432.5,-110 521.5,-110 521.5,-129"/>
<text text-anchor="middle" x="477" y="-117" font-family="Helvetica,sans-Serif" font-size="10.00">l4/sys/consts.h</text>
</a>
</g>
</g>
<!-- Node2&#45;&gt;Node3 -->
<g id="edge2_Node000002_Node000003" class="edge">
<title>Node2&#45;&gt;Node3</title>
<g id="a_edge2_Node000002_Node000003"><a xlink:title=" ">
<path fill="none" stroke="#63b8ff" d="M292.02,-331.04C352.43,-315.68 476.44,-274.14 523,-184 532.22,-166.14 515.51,-147.76 499.7,-135.4"/>
<polygon fill="#63b8ff" stroke="#63b8ff" points="501.33,-132.25 491.19,-129.19 497.21,-137.91 501.33,-132.25"/>
</a>
</g>
</g>
<!-- Node4 -->
<g id="Node000004" class="node">
<title>Node4</title>
<g id="a_Node000004"><a xlink:href="compiler_8h.html" target="_top" xlink:title="L4 compiler related defines.">
<polygon fill="white" stroke="#666666" points="167.5,-74 68.5,-74 68.5,-55 167.5,-55 167.5,-74"/>
<text text-anchor="middle" x="118" y="-62" font-family="Helvetica,sans-Serif" font-size="10.00">l4/sys/compiler.h</text>
</a>
</g>
</g>
<!-- Node2&#45;&gt;Node4 -->
<g id="edge21_Node000002_Node000004" class="edge">
<title>Node2&#45;&gt;Node4</title>
<g id="a_edge21_Node000002_Node000004"><a xlink:title=" ">
<path fill="none" stroke="#63b8ff" d="M223.74,-339.18C153.56,-338.61 0,-326.4 0,-230.5 0,-230.5 0,-230.5 0,-173.5 0,-126.67 51.21,-94.67 86.16,-78.28"/>
<polygon fill="#63b8ff" stroke="#63b8ff" points="87.84,-81.37 95.53,-74.08 84.97,-74.98 87.84,-81.37"/>
</a>
</g>
</g>
<!-- Node7 -->
<g id="Node000007" class="node">
<title>Node7</title>
<g id="a_Node000007"><a xlink:href="l4_2sys_2types_8h.html" target="_top" xlink:title="Common L4 ABI Data Types.">
<polygon fill="white" stroke="#666666" points="237,-184 153,-184 153,-165 237,-165 237,-184"/>
<text text-anchor="middle" x="195" y="-172" font-family="Helvetica,sans-Serif" font-size="10.00">l4/sys/types.h</text>
</a>
</g>
</g>
<!-- Node2&#45;&gt;Node7 -->
<g id="edge6_Node000002_Node000007" class="edge">
<title>Node2&#45;&gt;Node7</title>
<g id="a_edge6_Node000002_Node000007"><a xlink:title=" ">
<path fill="none" stroke="#63b8ff" d="M237.74,-329.9C207.71,-315.89 152.51,-285.01 130,-239 119.69,-217.92 143.3,-199.9 164.9,-188.5"/>
<polygon fill="#63b8ff" stroke="#63b8ff" points="166.52,-191.6 173.93,-184.03 163.42,-185.33 166.52,-191.6"/>
</a>
</g>
</g>
<!-- Node10 -->
<g id="Node000010" class="node">
<title>Node10</title>
<g id="a_Node000010"><a xlink:href="sys_2kip_8h.html" target="_top" xlink:title="Kernel Info Page access functions.">
<polygon fill="white" stroke="#666666" points="294,-294 222,-294 222,-275 294,-275 294,-294"/>
<text text-anchor="middle" x="258" y="-282" font-family="Helvetica,sans-Serif" font-size="10.00">l4/sys/kip.h</text>
</a>
</g>
</g>
<!-- Node2&#45;&gt;Node10 -->
<g id="edge15_Node000002_Node000010" class="edge">
<title>Node2&#45;&gt;Node10</title>
<g id="a_edge15_Node000002_Node000010"><a xlink:title=" ">
<path fill="none" stroke="#63b8ff" d="M258,-329.75C258,-322.8 258,-312.85 258,-304.13"/>
<polygon fill="#63b8ff" stroke="#63b8ff" points="261.5,-304.09 258,-294.09 254.5,-304.09 261.5,-304.09"/>
</a>
</g>
</g>
<!-- Node13 -->
<g id="Node000013" class="node">
<title>Node13</title>
<g id="a_Node000013"><a xlink:href="l4_2re_2consts_8h.html" target="_top" xlink:title="Constants.">
<polygon fill="white" stroke="#666666" points="514,-184 432,-184 432,-165 514,-165 514,-184"/>
<text text-anchor="middle" x="473" y="-172" font-family="Helvetica,sans-Serif" font-size="10.00">l4/re/consts.h</text>
</a>
</g>
</g>
<!-- Node2&#45;&gt;Node13 -->
<g id="edge22_Node000002_Node000013" class="edge">
<title>Node2&#45;&gt;Node13</title>
<g id="a_edge22_Node000002_Node000013"><a xlink:title=" ">
<path fill="none" stroke="#63b8ff" d="M275.48,-329.87C306.18,-314.25 370.98,-279.14 418,-239 434.56,-224.86 450.51,-205.62 460.93,-192.03"/>
<polygon fill="#63b8ff" stroke="#63b8ff" points="463.73,-194.13 466.93,-184.03 458.13,-189.93 463.73,-194.13"/>
</a>
</g>
</g>
<!-- Node3&#45;&gt;Node4 -->
<g id="edge3_Node000003_Node000004" class="edge">
<title>Node3&#45;&gt;Node4</title>
<g id="a_edge3_Node000003_Node000004"><a xlink:title=" ">
<path fill="none" stroke="#63b8ff" d="M432.26,-111.89C368.03,-102.41 249.57,-84.92 177.86,-74.34"/>
<polygon fill="#63b8ff" stroke="#63b8ff" points="178.04,-70.83 167.63,-72.83 177.01,-77.75 178.04,-70.83"/>
</a>
</g>
</g>
<!-- Node6 -->
<g id="Node000006" class="node">
<title>Node6</title>
<g id="a_Node000006"><a xlink:href="l4_2sys_2l4int_8h.html" target="_top" xlink:title="Fixed sized integer types, generic version.">
<polygon fill="white" stroke="#666666" points="424.5,-74 345.5,-74 345.5,-55 424.5,-55 424.5,-74"/>
<text text-anchor="middle" x="385" y="-62" font-family="Helvetica,sans-Serif" font-size="10.00">l4/sys/l4int.h</text>
</a>
</g>
</g>
<!-- Node3&#45;&gt;Node6 -->
<g id="edge5_Node000003_Node000006" class="edge">
<title>Node3&#45;&gt;Node6</title>
<g id="a_edge5_Node000003_Node000006"><a xlink:title=" ">
<path fill="none" stroke="#63b8ff" d="M462.22,-109.98C447.82,-101.69 425.69,-88.94 408.81,-79.22"/>
<polygon fill="#63b8ff" stroke="#63b8ff" points="410.46,-76.13 400.05,-74.17 406.97,-82.19 410.46,-76.13"/>
</a>
</g>
</g>
<!-- Node5 -->
<g id="Node000005" class="node">
<title>Node5</title>
<g id="a_Node000005"><a xlink:title=" ">
<polygon fill="#e0e0e0" stroke="#999999" points="164,-19 72,-19 72,0 164,0 164,-19"/>
<text text-anchor="middle" x="118" y="-7" font-family="Helvetica,sans-Serif" font-size="10.00">l4/sys/linkage.h</text>
</a>
</g>
</g>
<!-- Node4&#45;&gt;Node5 -->
<g id="edge4_Node000004_Node000005" class="edge">
<title>Node4&#45;&gt;Node5</title>
<g id="a_edge4_Node000004_Node000005"><a xlink:title=" ">
<path fill="none" stroke="#63b8ff" d="M118,-54.75C118,-47.8 118,-37.85 118,-29.13"/>
<polygon fill="#63b8ff" stroke="#63b8ff" points="121.5,-29.09 118,-19.09 114.5,-29.09 121.5,-29.09"/>
</a>
</g>
</g>
<!-- Node7&#45;&gt;Node3 -->
<g id="edge9_Node000007_Node000003" class="edge">
<title>Node7&#45;&gt;Node3</title>
<g id="a_edge9_Node000007_Node000003"><a xlink:title=" ">
<path fill="none" stroke="#63b8ff" d="M237.22,-165.57C286.44,-156.31 367.94,-141 422.05,-130.83"/>
<polygon fill="#63b8ff" stroke="#63b8ff" points="422.98,-134.21 432.16,-128.93 421.68,-127.33 422.98,-134.21"/>
</a>
</g>
</g>
<!-- Node7&#45;&gt;Node4 -->
<g id="edge8_Node000007_Node000004" class="edge">
<title>Node7&#45;&gt;Node4</title>
<g id="a_edge8_Node000007_Node000004"><a xlink:title=" ">
<path fill="none" stroke="#63b8ff" d="M152.89,-165.97C131.7,-159.82 107.84,-148.76 95,-129 85.66,-114.62 94.5,-95.95 103.79,-82.58"/>
<polygon fill="#63b8ff" stroke="#63b8ff" points="106.83,-84.37 110.08,-74.29 101.25,-80.14 106.83,-84.37"/>
</a>
</g>
</g>
<!-- Node7&#45;&gt;Node6 -->
<g id="edge7_Node000007_Node000006" class="edge">
<title>Node7&#45;&gt;Node6</title>
<g id="a_edge7_Node000007_Node000006"><a xlink:title=" ">
<path fill="none" stroke="#63b8ff" d="M237.15,-169.56C269.96,-164.65 315.13,-153.64 347,-129 362.05,-117.36 372.4,-97.95 378.46,-83.64"/>
<polygon fill="#63b8ff" stroke="#63b8ff" points="381.72,-84.9 382.11,-74.31 375.2,-82.35 381.72,-84.9"/>
</a>
</g>
</g>
<!-- Node8 -->
<g id="Node000008" class="node">
<title>Node8</title>
<g id="a_Node000008"><a xlink:href="____l4__fpage_8h_source.html" target="_top" xlink:title=" ">
<polygon fill="white" stroke="#666666" points="214,-129 104,-129 104,-110 214,-110 214,-129"/>
<text text-anchor="middle" x="159" y="-117" font-family="Helvetica,sans-Serif" font-size="10.00">l4/sys/__l4_fpage.h</text>
</a>
</g>
</g>
<!-- Node7&#45;&gt;Node8 -->
<g id="edge10_Node000007_Node000008" class="edge">
<title>Node7&#45;&gt;Node8</title>
<g id="a_edge10_Node000007_Node000008"><a xlink:title=" ">
<path fill="none" stroke="#63b8ff" d="M189.06,-164.75C184.02,-157.34 176.66,-146.5 170.49,-137.41"/>
<polygon fill="#63b8ff" stroke="#63b8ff" points="173.35,-135.39 164.83,-129.09 167.56,-139.33 173.35,-135.39"/>
</a>
</g>
</g>
<!-- Node9 -->
<g id="Node000009" class="node">
<title>Node9</title>
<g id="a_Node000009"><a xlink:href="____timeout_8h_source.html" target="_top" xlink:title=" ">
<polygon fill="white" stroke="#666666" points="338,-129 232,-129 232,-110 338,-110 338,-129"/>
<text text-anchor="middle" x="285" y="-117" font-family="Helvetica,sans-Serif" font-size="10.00">l4/sys/__timeout.h</text>
</a>
</g>
</g>
<!-- Node7&#45;&gt;Node9 -->
<g id="edge12_Node000007_Node000009" class="edge">
<title>Node7&#45;&gt;Node9</title>
<g id="a_edge12_Node000007_Node000009"><a xlink:title=" ">
<path fill="none" stroke="#63b8ff" d="M209.46,-164.98C223.42,-156.77 244.79,-144.18 261.25,-134.49"/>
<polygon fill="#63b8ff" stroke="#63b8ff" points="263.44,-137.26 270.28,-129.17 259.88,-131.23 263.44,-137.26"/>
</a>
</g>
</g>
<!-- Node8&#45;&gt;Node4 -->
<g id="edge11_Node000008_Node000004" class="edge">
<title>Node8&#45;&gt;Node4</title>
<g id="a_edge11_Node000008_Node000004"><a xlink:title=" ">
<path fill="none" stroke="#63b8ff" d="M152.23,-109.75C146.44,-102.26 137.94,-91.28 130.86,-82.13"/>
<polygon fill="#63b8ff" stroke="#63b8ff" points="133.53,-79.86 124.64,-74.09 127.99,-84.14 133.53,-79.86"/>
</a>
</g>
</g>
<!-- Node9&#45;&gt;Node4 -->
<g id="edge14_Node000009_Node000004" class="edge">
<title>Node9&#45;&gt;Node4</title>
<g id="a_edge14_Node000009_Node000004"><a xlink:title=" ">
<path fill="none" stroke="#63b8ff" d="M258.17,-109.98C230.13,-101.09 185.95,-87.07 154.7,-77.15"/>
<polygon fill="#63b8ff" stroke="#63b8ff" points="155.63,-73.77 145.04,-74.08 153.51,-80.44 155.63,-73.77"/>
</a>
</g>
</g>
<!-- Node9&#45;&gt;Node6 -->
<g id="edge13_Node000009_Node000006" class="edge">
<title>Node9&#45;&gt;Node6</title>
<g id="a_edge13_Node000009_Node000006"><a xlink:title=" ">
<path fill="none" stroke="#63b8ff" d="M301.07,-109.98C316.86,-101.61 341.22,-88.7 359.63,-78.95"/>
<polygon fill="#63b8ff" stroke="#63b8ff" points="361.44,-81.95 368.64,-74.17 358.17,-75.76 361.44,-81.95"/>
</a>
</g>
</g>
<!-- Node10&#45;&gt;Node4 -->
<g id="edge16_Node000010_Node000004" class="edge">
<title>Node10&#45;&gt;Node4</title>
<g id="a_edge16_Node000010_Node000004"><a xlink:title=" ">
<path fill="none" stroke="#63b8ff" d="M221.93,-279.32C193.6,-274.26 154.91,-263.17 130,-239 86.73,-197.01 70.38,-167.66 88,-110 91.09,-99.9 97.32,-90.02 103.31,-82.15"/>
<polygon fill="#63b8ff" stroke="#63b8ff" points="106.18,-84.16 109.79,-74.2 100.76,-79.74 106.18,-84.16"/>
</a>
</g>
</g>
<!-- Node10&#45;&gt;Node6 -->
<g id="edge17_Node000010_Node000006" class="edge">
<title>Node10&#45;&gt;Node6</title>
<g id="a_edge17_Node000010_Node000006"><a xlink:title=" ">
<path fill="none" stroke="#63b8ff" d="M294.24,-281.55C323.77,-277.83 363.76,-267.45 384,-239 417.57,-191.83 401.3,-117.69 391.1,-83.67"/>
<polygon fill="#63b8ff" stroke="#63b8ff" points="394.43,-82.59 388.07,-74.12 387.76,-84.71 394.43,-82.59"/>
</a>
</g>
</g>
<!-- Node11 -->
<g id="Node000011" class="node">
<title>Node11</title>
<g id="a_Node000011"><a xlink:title=" ">
<polygon fill="#e0e0e0" stroke="#999999" points="375.5,-239 268.5,-239 268.5,-220 375.5,-220 375.5,-239"/>
<text text-anchor="middle" x="322" y="-227" font-family="Helvetica,sans-Serif" font-size="10.00">l4/sys/__kip&#45;arch.h</text>
</a>
</g>
</g>
<!-- Node10&#45;&gt;Node11 -->
<g id="edge18_Node000010_Node000011" class="edge">
<title>Node10&#45;&gt;Node11</title>
<g id="a_edge18_Node000010_Node000011"><a xlink:title=" ">
<path fill="none" stroke="#63b8ff" d="M268.28,-274.98C277.84,-267.07 292.28,-255.11 303.78,-245.58"/>
<polygon fill="#63b8ff" stroke="#63b8ff" points="306.06,-248.24 311.53,-239.17 301.6,-242.85 306.06,-248.24"/>
</a>
</g>
</g>
<!-- Node12 -->
<g id="Node000012" class="node">
<title>Node12</title>
<g id="a_Node000012"><a xlink:href="____kip-64bit_8h_source.html" target="_top" xlink:title=" ">
<polygon fill="white" stroke="#666666" points="250.5,-239 139.5,-239 139.5,-220 250.5,-220 250.5,-239"/>
<text text-anchor="middle" x="195" y="-227" font-family="Helvetica,sans-Serif" font-size="10.00">l4/sys/__kip&#45;64bit.h</text>
</a>
</g>
</g>
<!-- Node10&#45;&gt;Node12 -->
<g id="edge19_Node000010_Node000012" class="edge">
<title>Node10&#45;&gt;Node12</title>
<g id="a_edge19_Node000010_Node000012"><a xlink:title=" ">
<path fill="none" stroke="#63b8ff" d="M247.88,-274.98C238.56,-267.15 224.53,-255.34 213.26,-245.86"/>
<polygon fill="#63b8ff" stroke="#63b8ff" points="215.21,-242.93 205.31,-239.17 210.71,-248.29 215.21,-242.93"/>
</a>
</g>
</g>
<!-- Node12&#45;&gt;Node7 -->
<g id="edge20_Node000012_Node000007" class="edge">
<title>Node12&#45;&gt;Node7</title>
<g id="a_edge20_Node000012_Node000007"><a xlink:title=" ">
<path fill="none" stroke="#63b8ff" d="M195,-219.75C195,-212.8 195,-202.85 195,-194.13"/>
<polygon fill="#63b8ff" stroke="#63b8ff" points="198.5,-194.09 195,-184.09 191.5,-194.09 198.5,-194.09"/>
</a>
</g>
</g>
<!-- Node13&#45;&gt;Node3 -->
<g id="edge23_Node000013_Node000003" class="edge">
<title>Node13&#45;&gt;Node3</title>
<g id="a_edge23_Node000013_Node000003"><a xlink:title=" ">
<path fill="none" stroke="#63b8ff" d="M473.66,-164.75C474.18,-157.8 474.94,-147.85 475.59,-139.13"/>
<polygon fill="#63b8ff" stroke="#63b8ff" points="479.09,-139.32 476.35,-129.09 472.11,-138.8 479.09,-139.32"/>
</a>
</g>
</g>
</g>
</svg>
