<?xml version="1.0" encoding="UTF-8" standalone="no"?>
<!DOCTYPE svg PUBLIC "-//W3C//DTD SVG 1.1//EN"
 "http://www.w3.org/Graphics/SVG/1.1/DTD/svg11.dtd">
<!-- Generated by graphviz version 2.42.4 (0)
 -->
<!-- Title: L4Re::chkcap Pages: 1 -->
<svg width="441pt" height="222pt"
 viewBox="0.00 0.00 441.00 221.50" xmlns="http://www.w3.org/2000/svg" xmlns:xlink="http://www.w3.org/1999/xlink">
<g id="graph0" class="graph" transform="scale(1 1) rotate(0) translate(4 217.5)">
<title>L4Re::chkcap</title>
<!-- Node1 -->
<g id="Node000001" class="node">
<title>Node1</title>
<g id="a_Node000001"><a xlink:title="Check for valid capability or raise C++ exception.">
<polygon fill="#999999" stroke="#666666" points="433,-122 352,-122 352,-103 433,-103 433,-122"/>
<text text-anchor="middle" x="392.5" y="-110" font-family="Helvetica,sans-Serif" font-size="10.00">L4Re::chkcap</text>
</a>
</g>
</g>
<!-- Node2 -->
<g id="Node000002" class="node">
<title>Node2</title>
<g id="a_Node000002"><a xlink:href="classL4virtio_1_1Svr_1_1Dev__config.html#a663b81f49e6ce03f9b7e136d6646bf89" target="_top" xlink:title="Create a L4&#45;Virtio config data space.">
<polygon fill="white" stroke="#666666" points="304.5,-213.5 193.5,-213.5 193.5,-183.5 304.5,-183.5 304.5,-213.5"/>
<text text-anchor="start" x="201.5" y="-201.5" font-family="Helvetica,sans-Serif" font-size="10.00">L4virtio::Svr::Dev</text>
<text text-anchor="middle" x="249" y="-190.5" font-family="Helvetica,sans-Serif" font-size="10.00">_config::Dev_config</text>
</a>
</g>
</g>
<!-- Node1&#45;&gt;Node2 -->
<g id="edge1_Node000001_Node000002" class="edge">
<title>Node1&#45;&gt;Node2</title>
<g id="a_edge1_Node000001_Node000002"><a xlink:title=" ">
<path fill="none" stroke="#63b8ff" d="M372.44,-128.87C357.68,-141.05 336.37,-157.56 316,-169.5 307.36,-174.56 297.68,-179.3 288.45,-183.41"/>
<polygon fill="#63b8ff" stroke="#63b8ff" points="374.9,-131.37 380.32,-122.27 370.41,-126.01 374.9,-131.37"/>
</a>
</g>
</g>
<!-- Node3 -->
<g id="Node000003" class="node">
<title>Node3</title>
<g id="a_Node000003"><a xlink:href="classL4virtio_1_1Driver_1_1Device.html#a4f8b3d73188c3b6664755b81b80e441c" target="_top" xlink:title="Contacts the device and starts the initial handshake.">
<polygon fill="white" stroke="#666666" points="313.5,-127.5 184.5,-127.5 184.5,-97.5 313.5,-97.5 313.5,-127.5"/>
<text text-anchor="start" x="192.5" y="-115.5" font-family="Helvetica,sans-Serif" font-size="10.00">L4virtio::Driver::Device</text>
<text text-anchor="middle" x="249" y="-104.5" font-family="Helvetica,sans-Serif" font-size="10.00">::driver_connect</text>
</a>
</g>
</g>
<!-- Node1&#45;&gt;Node3 -->
<g id="edge2_Node000001_Node000003" class="edge">
<title>Node1&#45;&gt;Node3</title>
<g id="a_edge2_Node000001_Node000003"><a xlink:title=" ">
<path fill="none" stroke="#63b8ff" d="M341.7,-112.5C332.61,-112.5 323.01,-112.5 313.59,-112.5"/>
<polygon fill="#63b8ff" stroke="#63b8ff" points="341.71,-116 351.71,-112.5 341.71,-109 341.71,-116"/>
</a>
</g>
</g>
<!-- Node4 -->
<g id="Node000004" class="node">
<title>Node4</title>
<g id="a_Node000004"><a xlink:href="classL4virtio_1_1Driver_1_1Virtio__net__device.html#aa5d34e5156db18773cf46c2d06a2aa3a" target="_top" xlink:title="Establish a connection to the device and set up shared memory.">
<polygon fill="white" stroke="#666666" points="146,-160.5 0,-160.5 0,-130.5 146,-130.5 146,-160.5"/>
<text text-anchor="start" x="8" y="-148.5" font-family="Helvetica,sans-Serif" font-size="10.00">L4virtio::Driver::Virtio</text>
<text text-anchor="middle" x="73" y="-137.5" font-family="Helvetica,sans-Serif" font-size="10.00">_net_device::setup_device</text>
</a>
</g>
</g>
<!-- Node1&#45;&gt;Node4 -->
<g id="edge6_Node000001_Node000004" class="edge">
<title>Node1&#45;&gt;Node4</title>
<g id="a_edge6_Node000001_Node000004"><a xlink:title=" ">
<path fill="none" stroke="#63b8ff" d="M357.33,-125.52C344.55,-129.81 329.79,-134.1 316,-136.5 259.46,-146.35 194.42,-148.25 146.01,-147.89"/>
<polygon fill="#63b8ff" stroke="#63b8ff" points="358.81,-128.71 367.1,-122.11 356.5,-122.1 358.81,-128.71"/>
</a>
</g>
</g>
<!-- Node5 -->
<g id="Node000005" class="node">
<title>Node5</title>
<g id="a_Node000005"><a xlink:href="classL4virtio_1_1Driver_1_1Block__device.html#af509c2785789dd2daf6b13f3369c6581" target="_top" xlink:title="Establish a connection to the device and set up shared memory.">
<polygon fill="white" stroke="#666666" points="135.5,-103.5 10.5,-103.5 10.5,-73.5 135.5,-73.5 135.5,-103.5"/>
<text text-anchor="start" x="18.5" y="-91.5" font-family="Helvetica,sans-Serif" font-size="10.00">L4virtio::Driver::Block</text>
<text text-anchor="middle" x="73" y="-80.5" font-family="Helvetica,sans-Serif" font-size="10.00">_device::setup_device</text>
</a>
</g>
</g>
<!-- Node1&#45;&gt;Node5 -->
<g id="edge7_Node000001_Node000005" class="edge">
<title>Node1&#45;&gt;Node5</title>
<g id="a_edge7_Node000001_Node000005"><a xlink:title=" ">
<path fill="none" stroke="#63b8ff" d="M358.35,-99.53C345.36,-95.1 330.19,-90.7 316,-88.5 255.18,-79.07 184.72,-80.43 135.57,-83.32"/>
<polygon fill="#63b8ff" stroke="#63b8ff" points="357.22,-102.84 367.81,-102.9 359.56,-96.25 357.22,-102.84"/>
</a>
</g>
</g>
<!-- Node6 -->
<g id="Node000006" class="node">
<title>Node6</title>
<g id="a_Node000006"><a xlink:href="classL4virtio_1_1Svr_1_1Console_1_1Device.html#afd3abeb259c86c3eea5d63b772e01cdd" target="_top" xlink:title="callback for registering a single guest IRQ for all queues (old&#45;style)">
<polygon fill="white" stroke="#666666" points="316,-41 182,-41 182,0 316,0 316,-41"/>
<text text-anchor="start" x="190" y="-29" font-family="Helvetica,sans-Serif" font-size="10.00">L4virtio::Svr::Console</text>
<text text-anchor="start" x="190" y="-18" font-family="Helvetica,sans-Serif" font-size="10.00">::Device::register_single</text>
<text text-anchor="middle" x="249" y="-7" font-family="Helvetica,sans-Serif" font-size="10.00">_driver_irq</text>
</a>
</g>
</g>
<!-- Node1&#45;&gt;Node6 -->
<g id="edge5_Node000001_Node000006" class="edge">
<title>Node1&#45;&gt;Node6</title>
<g id="a_edge5_Node000001_Node000006"><a xlink:title=" ">
<path fill="none" stroke="#63b8ff" d="M371.92,-96.35C357.03,-84.41 335.8,-68.11 316,-55.5 308.23,-50.55 299.7,-45.66 291.42,-41.17"/>
<polygon fill="#63b8ff" stroke="#63b8ff" points="369.92,-99.23 379.89,-102.81 374.33,-93.8 369.92,-99.23"/>
</a>
</g>
</g>
<!-- Node3&#45;&gt;Node4 -->
<g id="edge3_Node000003_Node000004" class="edge">
<title>Node3&#45;&gt;Node4</title>
<g id="a_edge3_Node000003_Node000004"><a xlink:title=" ">
<path fill="none" stroke="#63b8ff" d="M174.18,-126.5C164.86,-128.27 155.32,-130.08 146.03,-131.84"/>
<polygon fill="#63b8ff" stroke="#63b8ff" points="175.02,-129.9 184.2,-124.6 173.72,-123.03 175.02,-129.9"/>
</a>
</g>
</g>
<!-- Node3&#45;&gt;Node5 -->
<g id="edge4_Node000003_Node000005" class="edge">
<title>Node3&#45;&gt;Node5</title>
<g id="a_edge4_Node000003_Node000005"><a xlink:title=" ">
<path fill="none" stroke="#63b8ff" d="M174.07,-102.3C161.31,-100.54 148.16,-98.73 135.76,-97.02"/>
<polygon fill="#63b8ff" stroke="#63b8ff" points="173.81,-105.8 184.2,-103.7 174.77,-98.87 173.81,-105.8"/>
</a>
</g>
</g>
</g>
</svg>
