<?xml version="1.0" encoding="UTF-8" standalone="no"?>
<!DOCTYPE svg PUBLIC "-//W3C//DTD SVG 1.1//EN"
 "http://www.w3.org/Graphics/SVG/1.1/DTD/svg11.dtd">
<!-- Generated by graphviz version 2.43.0 (0)
 -->
<!-- Title: l4/re/namespace Pages: 1 -->
<svg width="777pt" height="753pt"
 viewBox="0.00 0.00 777.00 753.00" xmlns="http://www.w3.org/2000/svg" xmlns:xlink="http://www.w3.org/1999/xlink">
<g id="graph0" class="graph" transform="scale(1 1) rotate(0) translate(4 749)">
<title>l4/re/namespace</title>
<!-- Node1 -->
<g id="Node000001" class="node">
<title>Node1</title>
<g id="a_Node000001"><a xlink:title="Namespace interface.">
<polygon fill="#999999" stroke="#666666" points="531,-745 433,-745 433,-726 531,-726 531,-745"/>
<text text-anchor="middle" x="482" y="-733" font-family="Helvetica,sans-Serif" font-size="10.00">l4/re/namespace</text>
</a>
</g>
</g>
<!-- Node2 -->
<g id="Node000002" class="node">
<title>Node2</title>
<g id="a_Node000002"><a xlink:href="capability.html" target="_top" xlink:title="L4::Cap related definitions.">
<polygon fill="white" stroke="#666666" points="262,-690 166,-690 166,-671 262,-671 262,-690"/>
<text text-anchor="middle" x="214" y="-678" font-family="Helvetica,sans-Serif" font-size="10.00">l4/sys/capability</text>
</a>
</g>
</g>
<!-- Node1&#45;&gt;Node2 -->
<g id="edge1_Node000001_Node000002" class="edge">
<title>Node1&#45;&gt;Node2</title>
<g id="a_edge1_Node000001_Node000002"><a xlink:title=" ">
<path fill="none" stroke="#63b8ff" d="M438.94,-725.98C392.29,-716.76 317.8,-702.03 267.44,-692.07"/>
<polygon fill="#63b8ff" stroke="#63b8ff" points="267.89,-688.59 257.4,-690.08 266.53,-695.46 267.89,-688.59"/>
</a>
</g>
</g>
<!-- Node22 -->
<g id="Node000022" class="node">
<title>Node22</title>
<g id="a_Node000022"><a xlink:href="ipc__iface.html" target="_top" xlink:title="Interface Definition Language.">
<polygon fill="white" stroke="#666666" points="452,-525 372,-525 372,-506 452,-506 452,-525"/>
<text text-anchor="middle" x="412" y="-513" font-family="Helvetica,sans-Serif" font-size="10.00">cxx/ipc_iface</text>
</a>
</g>
</g>
<!-- Node1&#45;&gt;Node22 -->
<g id="edge61_Node000001_Node000022" class="edge">
<title>Node1&#45;&gt;Node22</title>
<g id="a_edge61_Node000001_Node000022"><a xlink:title=" ">
<path fill="none" stroke="#63b8ff" d="M479.04,-725.82C471.06,-702.37 448.55,-635.78 431,-580 426.25,-564.89 421.11,-547.67 417.38,-534.97"/>
<polygon fill="#63b8ff" stroke="#63b8ff" points="420.67,-533.77 414.5,-525.15 413.95,-535.73 420.67,-533.77"/>
</a>
</g>
</g>
<!-- Node24 -->
<g id="Node000024" class="node">
<title>Node24</title>
<g id="a_Node000024"><a xlink:href="ipc__string_source.html" target="_top" xlink:title=" ">
<polygon fill="white" stroke="#666666" points="524,-580 440,-580 440,-561 524,-561 524,-580"/>
<text text-anchor="middle" x="482" y="-568" font-family="Helvetica,sans-Serif" font-size="10.00">cxx/ipc_string</text>
</a>
</g>
</g>
<!-- Node1&#45;&gt;Node24 -->
<g id="edge63_Node000001_Node000024" class="edge">
<title>Node1&#45;&gt;Node24</title>
<g id="a_edge63_Node000001_Node000024"><a xlink:title=" ">
<path fill="none" stroke="#63b8ff" d="M482,-725.74C482,-700.31 482,-626.08 482,-590.69"/>
<polygon fill="#63b8ff" stroke="#63b8ff" points="485.5,-590.31 482,-580.31 478.5,-590.31 485.5,-590.31"/>
</a>
</g>
</g>
<!-- Node25 -->
<g id="Node000025" class="node">
<title>Node25</title>
<g id="a_Node000025"><a xlink:href="ipc__array_source.html" target="_top" xlink:title=" ">
<polygon fill="white" stroke="#666666" points="769,-525 707,-525 707,-506 769,-506 769,-525"/>
<text text-anchor="middle" x="738" y="-513" font-family="Helvetica,sans-Serif" font-size="10.00">ipc_array</text>
</a>
</g>
</g>
<!-- Node1&#45;&gt;Node25 -->
<g id="edge62_Node000001_Node000025" class="edge">
<title>Node1&#45;&gt;Node25</title>
<g id="a_edge62_Node000001_Node000025"><a xlink:title=" ">
<path fill="none" stroke="#63b8ff" d="M492.04,-725.95C530.66,-693.06 670.05,-574.36 720.02,-531.81"/>
<polygon fill="#63b8ff" stroke="#63b8ff" points="722.41,-534.37 727.76,-525.22 717.87,-529.04 722.41,-534.37"/>
</a>
</g>
</g>
<!-- Node26 -->
<g id="Node000026" class="node">
<title>Node26</title>
<g id="a_Node000026"><a xlink:href="protocols_8h.html" target="_top" xlink:title="L4Re Protocol Constants (C version)">
<polygon fill="white" stroke="#666666" points="675.5,-690 580.5,-690 580.5,-671 675.5,-671 675.5,-690"/>
<text text-anchor="middle" x="628" y="-678" font-family="Helvetica,sans-Serif" font-size="10.00">l4/re/protocols.h</text>
</a>
</g>
</g>
<!-- Node1&#45;&gt;Node26 -->
<g id="edge60_Node000001_Node000026" class="edge">
<title>Node1&#45;&gt;Node26</title>
<g id="a_edge60_Node000001_Node000026"><a xlink:title=" ">
<path fill="none" stroke="#63b8ff" d="M505.46,-725.98C529.58,-717.23 567.37,-703.51 594.6,-693.62"/>
<polygon fill="#63b8ff" stroke="#63b8ff" points="595.91,-696.87 604.12,-690.17 593.52,-690.29 595.91,-696.87"/>
</a>
</g>
</g>
<!-- Node3 -->
<g id="Node000003" class="node">
<title>Node3</title>
<g id="a_Node000003"><a xlink:href="l4_2sys_2consts_8h.html" target="_top" xlink:title="Common constants.">
<polygon fill="white" stroke="#666666" points="233.5,-129 144.5,-129 144.5,-110 233.5,-110 233.5,-129"/>
<text text-anchor="middle" x="189" y="-117" font-family="Helvetica,sans-Serif" font-size="10.00">l4/sys/consts.h</text>
</a>
</g>
</g>
<!-- Node2&#45;&gt;Node3 -->
<g id="edge2_Node000002_Node000003" class="edge">
<title>Node2&#45;&gt;Node3</title>
<g id="a_edge2_Node000002_Node000003"><a xlink:title=" ">
<path fill="none" stroke="#63b8ff" d="M165.97,-676.1C102.88,-668.72 0,-645.37 0,-571.5 0,-571.5 0,-571.5 0,-228.5 0,-193.46 99.19,-152.51 153.86,-132.6"/>
<polygon fill="#63b8ff" stroke="#63b8ff" points="155.28,-135.81 163.51,-129.13 152.92,-129.22 155.28,-135.81"/>
</a>
</g>
</g>
<!-- Node7 -->
<g id="Node000007" class="node">
<title>Node7</title>
<g id="a_Node000007"><a xlink:href="l4_2sys_2types_8h.html" target="_top" xlink:title="Common L4 ABI Data Types.">
<polygon fill="white" stroke="#666666" points="214,-184 130,-184 130,-165 214,-165 214,-184"/>
<text text-anchor="middle" x="172" y="-172" font-family="Helvetica,sans-Serif" font-size="10.00">l4/sys/types.h</text>
</a>
</g>
</g>
<!-- Node2&#45;&gt;Node7 -->
<g id="edge6_Node000002_Node000007" class="edge">
<title>Node2&#45;&gt;Node7</title>
<g id="a_edge6_Node000002_Node000007"><a xlink:title=" ">
<path fill="none" stroke="#63b8ff" d="M165.91,-671.34C113.8,-659.42 38,-631.73 38,-571.5 38,-571.5 38,-571.5 38,-283.5 38,-233.68 94.85,-202.94 134.5,-187.56"/>
<polygon fill="#63b8ff" stroke="#63b8ff" points="135.75,-190.83 143.91,-184.07 133.32,-184.26 135.75,-190.83"/>
</a>
</g>
</g>
<!-- Node10 -->
<g id="Node000010" class="node">
<title>Node10</title>
<g id="a_Node000010"><a xlink:href="kobject_source.html" target="_top" xlink:title=" ">
<polygon fill="white" stroke="#666666" points="327.5,-525 244.5,-525 244.5,-506 327.5,-506 327.5,-525"/>
<text text-anchor="middle" x="286" y="-513" font-family="Helvetica,sans-Serif" font-size="10.00">l4/sys/kobject</text>
</a>
</g>
</g>
<!-- Node2&#45;&gt;Node10 -->
<g id="edge14_Node000002_Node000010" class="edge">
<title>Node2&#45;&gt;Node10</title>
<g id="a_edge14_Node000002_Node000010"><a xlink:title=" ">
<path fill="none" stroke="#63b8ff" d="M217.87,-670.74C229.2,-645.09 262.46,-569.78 277.93,-534.78"/>
<polygon fill="#63b8ff" stroke="#63b8ff" points="281.27,-535.87 282.11,-525.31 274.87,-533.04 281.27,-535.87"/>
</a>
</g>
</g>
<!-- Node20 -->
<g id="Node000020" class="node">
<title>Node20</title>
<g id="a_Node000020"><a xlink:href="l4_2sys_2task_8h.html" target="_top" xlink:title="Common task related definitions.">
<polygon fill="white" stroke="#666666" points="220,-354.5 142,-354.5 142,-335.5 220,-335.5 220,-354.5"/>
<text text-anchor="middle" x="181" y="-342.5" font-family="Helvetica,sans-Serif" font-size="10.00">l4/sys/task.h</text>
</a>
</g>
</g>
<!-- Node2&#45;&gt;Node20 -->
<g id="edge43_Node000002_Node000020" class="edge">
<title>Node2&#45;&gt;Node20</title>
<g id="a_edge43_Node000002_Node000020"><a xlink:title=" ">
<path fill="none" stroke="#63b8ff" d="M211.57,-670.9C206.66,-652.72 196,-608.95 196,-571.5 196,-571.5 196,-571.5 196,-459.5 196,-425.83 189.43,-387.03 184.99,-364.63"/>
<polygon fill="#63b8ff" stroke="#63b8ff" points="188.41,-363.87 182.96,-354.78 181.55,-365.28 188.41,-363.87"/>
</a>
</g>
</g>
<!-- Node21 -->
<g id="Node000021" class="node">
<title>Node21</title>
<g id="a_Node000021"><a xlink:href="sys_2meta.html" target="_top" xlink:title="Meta interface for getting dynamic type information about objects behind capabilities.">
<polygon fill="white" stroke="#666666" points="379,-635 305,-635 305,-616 379,-616 379,-635"/>
<text text-anchor="middle" x="342" y="-623" font-family="Helvetica,sans-Serif" font-size="10.00">l4/sys/meta</text>
</a>
</g>
</g>
<!-- Node2&#45;&gt;Node21 -->
<g id="edge44_Node000002_Node000021" class="edge">
<title>Node2&#45;&gt;Node21</title>
<g id="a_edge44_Node000002_Node000021"><a xlink:title=" ">
<path fill="none" stroke="#63b8ff" d="M234.57,-670.98C255.43,-662.34 287.97,-648.87 311.77,-639.02"/>
<polygon fill="#63b8ff" stroke="#63b8ff" points="313.16,-642.23 321.06,-635.17 310.48,-635.76 313.16,-642.23"/>
</a>
</g>
</g>
<!-- Node4 -->
<g id="Node000004" class="node">
<title>Node4</title>
<g id="a_Node000004"><a xlink:href="compiler_8h.html" target="_top" xlink:title="L4 compiler related defines.">
<polygon fill="white" stroke="#666666" points="496.5,-74 397.5,-74 397.5,-55 496.5,-55 496.5,-74"/>
<text text-anchor="middle" x="447" y="-62" font-family="Helvetica,sans-Serif" font-size="10.00">l4/sys/compiler.h</text>
</a>
</g>
</g>
<!-- Node3&#45;&gt;Node4 -->
<g id="edge3_Node000003_Node000004" class="edge">
<title>Node3&#45;&gt;Node4</title>
<g id="a_edge3_Node000003_Node000004"><a xlink:title=" ">
<path fill="none" stroke="#63b8ff" d="M230.45,-109.98C275.27,-100.78 346.77,-86.09 395.25,-76.13"/>
<polygon fill="#63b8ff" stroke="#63b8ff" points="396.13,-79.52 405.22,-74.08 394.72,-72.67 396.13,-79.52"/>
</a>
</g>
</g>
<!-- Node6 -->
<g id="Node000006" class="node">
<title>Node6</title>
<g id="a_Node000006"><a xlink:href="l4_2sys_2l4int_8h.html" target="_top" xlink:title="Fixed sized integer types, generic version.">
<polygon fill="white" stroke="#666666" points="170.5,-74 91.5,-74 91.5,-55 170.5,-55 170.5,-74"/>
<text text-anchor="middle" x="131" y="-62" font-family="Helvetica,sans-Serif" font-size="10.00">l4/sys/l4int.h</text>
</a>
</g>
</g>
<!-- Node3&#45;&gt;Node6 -->
<g id="edge5_Node000003_Node000006" class="edge">
<title>Node3&#45;&gt;Node6</title>
<g id="a_edge5_Node000003_Node000006"><a xlink:title=" ">
<path fill="none" stroke="#63b8ff" d="M179.68,-109.98C171.19,-102.23 158.44,-90.58 148.12,-81.14"/>
<polygon fill="#63b8ff" stroke="#63b8ff" points="150.23,-78.33 140.49,-74.17 145.51,-83.5 150.23,-78.33"/>
</a>
</g>
</g>
<!-- Node5 -->
<g id="Node000005" class="node">
<title>Node5</title>
<g id="a_Node000005"><a xlink:title=" ">
<polygon fill="#e0e0e0" stroke="#999999" points="493,-19 401,-19 401,0 493,0 493,-19"/>
<text text-anchor="middle" x="447" y="-7" font-family="Helvetica,sans-Serif" font-size="10.00">l4/sys/linkage.h</text>
</a>
</g>
</g>
<!-- Node4&#45;&gt;Node5 -->
<g id="edge4_Node000004_Node000005" class="edge">
<title>Node4&#45;&gt;Node5</title>
<g id="a_edge4_Node000004_Node000005"><a xlink:title=" ">
<path fill="none" stroke="#63b8ff" d="M447,-54.75C447,-47.8 447,-37.85 447,-29.13"/>
<polygon fill="#63b8ff" stroke="#63b8ff" points="450.5,-29.09 447,-19.09 443.5,-29.09 450.5,-29.09"/>
</a>
</g>
</g>
<!-- Node7&#45;&gt;Node3 -->
<g id="edge9_Node000007_Node000003" class="edge">
<title>Node7&#45;&gt;Node3</title>
<g id="a_edge9_Node000007_Node000003"><a xlink:title=" ">
<path fill="none" stroke="#63b8ff" d="M174.81,-164.75C177.06,-157.72 180.3,-147.62 183.12,-138.84"/>
<polygon fill="#63b8ff" stroke="#63b8ff" points="186.52,-139.68 186.25,-129.09 179.86,-137.54 186.52,-139.68"/>
</a>
</g>
</g>
<!-- Node7&#45;&gt;Node4 -->
<g id="edge8_Node000007_Node000004" class="edge">
<title>Node7&#45;&gt;Node4</title>
<g id="a_edge8_Node000007_Node000004"><a xlink:title=" ">
<path fill="none" stroke="#63b8ff" d="M214.09,-169.76C273.48,-163.79 378.09,-150.54 409,-129 424.78,-118.01 435.09,-98.16 440.94,-83.57"/>
<polygon fill="#63b8ff" stroke="#63b8ff" points="444.27,-84.68 444.43,-74.08 437.7,-82.26 444.27,-84.68"/>
</a>
</g>
</g>
<!-- Node7&#45;&gt;Node6 -->
<g id="edge7_Node000007_Node000006" class="edge">
<title>Node7&#45;&gt;Node6</title>
<g id="a_edge7_Node000007_Node000006"><a xlink:title=" ">
<path fill="none" stroke="#63b8ff" d="M129.75,-167.66C87.05,-160.78 25.36,-147.86 11,-129 -11.47,-99.48 39.04,-82.26 81.29,-73.37"/>
<polygon fill="#63b8ff" stroke="#63b8ff" points="82.13,-76.77 91.26,-71.39 80.76,-69.91 82.13,-76.77"/>
</a>
</g>
</g>
<!-- Node8 -->
<g id="Node000008" class="node">
<title>Node8</title>
<g id="a_Node000008"><a xlink:href="____l4__fpage_8h_source.html" target="_top" xlink:title=" ">
<polygon fill="white" stroke="#666666" points="400,-129 290,-129 290,-110 400,-110 400,-129"/>
<text text-anchor="middle" x="345" y="-117" font-family="Helvetica,sans-Serif" font-size="10.00">l4/sys/__l4_fpage.h</text>
</a>
</g>
</g>
<!-- Node7&#45;&gt;Node8 -->
<g id="edge10_Node000007_Node000008" class="edge">
<title>Node7&#45;&gt;Node8</title>
<g id="a_edge10_Node000007_Node000008"><a xlink:title=" ">
<path fill="none" stroke="#63b8ff" d="M199.8,-164.98C228.97,-156.05 275,-141.94 307.4,-132.02"/>
<polygon fill="#63b8ff" stroke="#63b8ff" points="308.45,-135.36 316.99,-129.08 306.4,-128.66 308.45,-135.36"/>
</a>
</g>
</g>
<!-- Node9 -->
<g id="Node000009" class="node">
<title>Node9</title>
<g id="a_Node000009"><a xlink:href="____timeout_8h_source.html" target="_top" xlink:title=" ">
<polygon fill="white" stroke="#666666" points="126,-129 20,-129 20,-110 126,-110 126,-129"/>
<text text-anchor="middle" x="73" y="-117" font-family="Helvetica,sans-Serif" font-size="10.00">l4/sys/__timeout.h</text>
</a>
</g>
</g>
<!-- Node7&#45;&gt;Node9 -->
<g id="edge12_Node000007_Node000009" class="edge">
<title>Node7&#45;&gt;Node9</title>
<g id="a_edge12_Node000007_Node000009"><a xlink:title=" ">
<path fill="none" stroke="#63b8ff" d="M156.09,-164.98C140.45,-156.61 116.34,-143.7 98.12,-133.95"/>
<polygon fill="#63b8ff" stroke="#63b8ff" points="99.66,-130.8 89.2,-129.17 96.36,-136.98 99.66,-130.8"/>
</a>
</g>
</g>
<!-- Node8&#45;&gt;Node4 -->
<g id="edge11_Node000008_Node000004" class="edge">
<title>Node8&#45;&gt;Node4</title>
<g id="a_edge11_Node000008_Node000004"><a xlink:title=" ">
<path fill="none" stroke="#63b8ff" d="M361.39,-109.98C377.57,-101.57 402.57,-88.59 421.38,-78.81"/>
<polygon fill="#63b8ff" stroke="#63b8ff" points="423.05,-81.89 430.31,-74.17 419.83,-75.68 423.05,-81.89"/>
</a>
</g>
</g>
<!-- Node9&#45;&gt;Node6 -->
<g id="edge13_Node000009_Node000006" class="edge">
<title>Node9&#45;&gt;Node6</title>
<g id="a_edge13_Node000009_Node000006"><a xlink:title=" ">
<path fill="none" stroke="#63b8ff" d="M82.32,-109.98C90.81,-102.23 103.56,-90.58 113.88,-81.14"/>
<polygon fill="#63b8ff" stroke="#63b8ff" points="116.49,-83.5 121.51,-74.17 111.77,-78.33 116.49,-83.5"/>
</a>
</g>
</g>
<!-- Node10&#45;&gt;Node7 -->
<g id="edge29_Node000010_Node000007" class="edge">
<title>Node10&#45;&gt;Node7</title>
<g id="a_edge29_Node000010_Node000007"><a xlink:title=" ">
<path fill="none" stroke="#63b8ff" d="M244.26,-511.44C183.02,-504.41 76,-481.42 76,-406.5 76,-406.5 76,-406.5 76,-283.5 76,-240.72 118.6,-207.01 147.05,-189.27"/>
<polygon fill="#63b8ff" stroke="#63b8ff" points="148.93,-192.22 155.71,-184.08 145.34,-186.21 148.93,-192.22"/>
</a>
</g>
</g>
<!-- Node11 -->
<g id="Node000011" class="node">
<title>Node11</title>
<g id="a_Node000011"><a xlink:href="kernel__object_8h.html" target="_top" xlink:title="Kernel object system calls.">
<polygon fill="white" stroke="#666666" points="331.5,-415 240.5,-415 240.5,-396 331.5,-396 331.5,-415"/>
<text text-anchor="middle" x="286" y="-403" font-family="Helvetica,sans-Serif" font-size="10.00">kernel_object.h</text>
</a>
</g>
</g>
<!-- Node10&#45;&gt;Node11 -->
<g id="edge15_Node000010_Node000011" class="edge">
<title>Node10&#45;&gt;Node11</title>
<g id="a_edge15_Node000010_Node000011"><a xlink:title=" ">
<path fill="none" stroke="#63b8ff" d="M286,-505.66C286,-488.17 286,-448.8 286,-425.27"/>
<polygon fill="#63b8ff" stroke="#63b8ff" points="289.5,-425.16 286,-415.16 282.5,-425.16 289.5,-425.16"/>
</a>
</g>
</g>
<!-- Node16 -->
<g id="Node000016" class="node">
<title>Node16</title>
<g id="a_Node000016"><a xlink:href="____typeinfo_8h.html" target="_top" xlink:title="Type information handling.">
<polygon fill="white" stroke="#666666" points="450.5,-470 373.5,-470 373.5,-451 450.5,-451 450.5,-470"/>
<text text-anchor="middle" x="412" y="-458" font-family="Helvetica,sans-Serif" font-size="10.00">__typeinfo.h</text>
</a>
</g>
</g>
<!-- Node10&#45;&gt;Node16 -->
<g id="edge30_Node000010_Node000016" class="edge">
<title>Node10&#45;&gt;Node16</title>
<g id="a_edge30_Node000010_Node000016"><a xlink:title=" ">
<path fill="none" stroke="#63b8ff" d="M306.24,-505.98C326.7,-497.38 358.53,-483.99 381.93,-474.15"/>
<polygon fill="#63b8ff" stroke="#63b8ff" points="383.53,-477.27 391.39,-470.17 380.81,-470.82 383.53,-477.27"/>
</a>
</g>
</g>
<!-- Node11&#45;&gt;Node4 -->
<g id="edge17_Node000011_Node000004" class="edge">
<title>Node11&#45;&gt;Node4</title>
<g id="a_edge17_Node000011_Node000004"><a xlink:title=" ">
<path fill="none" stroke="#63b8ff" d="M331.61,-399.81C365.77,-394.52 412.39,-383.36 447,-360 481.56,-336.68 504,-327.19 504,-285.5 504,-285.5 504,-285.5 504,-173.5 504,-137.51 478.94,-101.76 462.05,-81.76"/>
<polygon fill="#63b8ff" stroke="#63b8ff" points="464.64,-79.4 455.41,-74.2 459.38,-84.02 464.64,-79.4"/>
</a>
</g>
</g>
<!-- Node11&#45;&gt;Node7 -->
<g id="edge16_Node000011_Node000007" class="edge">
<title>Node11&#45;&gt;Node7</title>
<g id="a_edge16_Node000011_Node000007"><a xlink:title=" ">
<path fill="none" stroke="#63b8ff" d="M240.13,-397.33C199.93,-390.01 145.95,-377.26 133,-360 94.56,-308.78 137.63,-228.12 160.09,-192.91"/>
<polygon fill="#63b8ff" stroke="#63b8ff" points="163.22,-194.52 165.8,-184.24 157.38,-190.67 163.22,-194.52"/>
</a>
</g>
</g>
<!-- Node12 -->
<g id="Node000012" class="node">
<title>Node12</title>
<g id="a_Node000012"><a xlink:href="l4_2sys_2utcb_8h.html" target="_top" xlink:title="UTCB definitions.">
<polygon fill="white" stroke="#666666" points="319,-239 241,-239 241,-220 319,-220 319,-239"/>
<text text-anchor="middle" x="280" y="-227" font-family="Helvetica,sans-Serif" font-size="10.00">l4/sys/utcb.h</text>
</a>
</g>
</g>
<!-- Node11&#45;&gt;Node12 -->
<g id="edge18_Node000011_Node000012" class="edge">
<title>Node11&#45;&gt;Node12</title>
<g id="a_edge18_Node000011_Node000012"><a xlink:title=" ">
<path fill="none" stroke="#63b8ff" d="M283.13,-395.71C276.67,-374.81 261.98,-320.45 268,-275 269.16,-266.27 271.53,-256.83 273.87,-248.9"/>
<polygon fill="#63b8ff" stroke="#63b8ff" points="277.25,-249.82 276.91,-239.23 270.57,-247.72 277.25,-249.82"/>
</a>
</g>
</g>
<!-- Node13 -->
<g id="Node000013" class="node">
<title>Node13</title>
<g id="a_Node000013"><a xlink:href="____kernel__object__impl_8h.html" target="_top" xlink:title="Low&#45;level kernel debugger functions.">
<polygon fill="white" stroke="#666666" points="438,-360 314,-360 314,-330 438,-330 438,-360"/>
<text text-anchor="start" x="322" y="-348" font-family="Helvetica,sans-Serif" font-size="10.00">l4/sys/__kernel_object</text>
<text text-anchor="middle" x="376" y="-337" font-family="Helvetica,sans-Serif" font-size="10.00">_impl.h</text>
</a>
</g>
</g>
<!-- Node11&#45;&gt;Node13 -->
<g id="edge22_Node000011_Node000013" class="edge">
<title>Node11&#45;&gt;Node13</title>
<g id="a_edge22_Node000011_Node000013"><a xlink:title=" ">
<path fill="none" stroke="#63b8ff" d="M299.28,-395.87C311.49,-387.93 330.04,-375.87 345.85,-365.6"/>
<polygon fill="#63b8ff" stroke="#63b8ff" points="347.81,-368.5 354.29,-360.11 343.99,-362.63 347.81,-368.5"/>
</a>
</g>
</g>
<!-- Node14 -->
<g id="Node000014" class="node">
<title>Node14</title>
<g id="a_Node000014"><a xlink:href="l4_2sys_2ipc_8h.html" target="_top" xlink:title="Common IPC interface.">
<polygon fill="white" stroke="#666666" points="347.5,-294 276.5,-294 276.5,-275 347.5,-275 347.5,-294"/>
<text text-anchor="middle" x="312" y="-282" font-family="Helvetica,sans-Serif" font-size="10.00">l4/sys/ipc.h</text>
</a>
</g>
</g>
<!-- Node11&#45;&gt;Node14 -->
<g id="edge28_Node000011_Node000014" class="edge">
<title>Node11&#45;&gt;Node14</title>
<g id="a_edge28_Node000011_Node000014"><a xlink:title=" ">
<path fill="none" stroke="#63b8ff" d="M287.87,-395.94C292.05,-376.82 302.22,-330.27 307.93,-304.12"/>
<polygon fill="#63b8ff" stroke="#63b8ff" points="311.36,-304.82 310.08,-294.3 304.52,-303.32 311.36,-304.82"/>
</a>
</g>
</g>
<!-- Node12&#45;&gt;Node4 -->
<g id="edge20_Node000012_Node000004" class="edge">
<title>Node12&#45;&gt;Node4</title>
<g id="a_edge20_Node000012_Node000004"><a xlink:title=" ">
<path fill="none" stroke="#63b8ff" d="M302.54,-219.93C335.9,-206.06 398.01,-175.46 431,-129 440.36,-115.82 444.26,-97.69 445.87,-84.18"/>
<polygon fill="#63b8ff" stroke="#63b8ff" points="449.37,-84.39 446.77,-74.12 442.4,-83.77 449.37,-84.39"/>
</a>
</g>
</g>
<!-- Node12&#45;&gt;Node6 -->
<g id="edge21_Node000012_Node000006" class="edge">
<title>Node12&#45;&gt;Node6</title>
<g id="a_edge21_Node000012_Node000006"><a xlink:title=" ">
<path fill="none" stroke="#63b8ff" d="M279.74,-219.81C278.64,-198.35 272.89,-142.24 243,-110 226.59,-92.3 202.24,-81.52 180.42,-75.01"/>
<polygon fill="#63b8ff" stroke="#63b8ff" points="181.19,-71.59 170.62,-72.31 179.33,-78.34 181.19,-71.59"/>
</a>
</g>
</g>
<!-- Node12&#45;&gt;Node7 -->
<g id="edge19_Node000012_Node000007" class="edge">
<title>Node12&#45;&gt;Node7</title>
<g id="a_edge19_Node000012_Node000007"><a xlink:title=" ">
<path fill="none" stroke="#63b8ff" d="M262.65,-219.98C245.43,-211.54 218.8,-198.47 198.85,-188.68"/>
<polygon fill="#63b8ff" stroke="#63b8ff" points="200.19,-185.43 189.67,-184.17 197.1,-191.72 200.19,-185.43"/>
</a>
</g>
</g>
<!-- Node13&#45;&gt;Node14 -->
<g id="edge23_Node000013_Node000014" class="edge">
<title>Node13&#45;&gt;Node14</title>
<g id="a_edge23_Node000013_Node000014"><a xlink:title=" ">
<path fill="none" stroke="#63b8ff" d="M360.51,-329.84C351.03,-321.17 338.89,-310.08 329.12,-301.15"/>
<polygon fill="#63b8ff" stroke="#63b8ff" points="331.33,-298.43 321.59,-294.27 326.61,-303.6 331.33,-298.43"/>
</a>
</g>
</g>
<!-- Node14&#45;&gt;Node7 -->
<g id="edge24_Node000014_Node000007" class="edge">
<title>Node14&#45;&gt;Node7</title>
<g id="a_edge24_Node000014_Node000007"><a xlink:title=" ">
<path fill="none" stroke="#63b8ff" d="M292.89,-274.93C276.03,-266.9 251.2,-253.92 232,-239 214.12,-225.1 196.69,-205.82 185.26,-192.16"/>
<polygon fill="#63b8ff" stroke="#63b8ff" points="187.72,-189.63 178.68,-184.1 182.3,-194.06 187.72,-189.63"/>
</a>
</g>
</g>
<!-- Node14&#45;&gt;Node12 -->
<g id="edge25_Node000014_Node000012" class="edge">
<title>Node14&#45;&gt;Node12</title>
<g id="a_edge25_Node000014_Node000012"><a xlink:title=" ">
<path fill="none" stroke="#63b8ff" d="M306.72,-274.75C302.29,-267.42 295.84,-256.73 290.38,-247.7"/>
<polygon fill="#63b8ff" stroke="#63b8ff" points="293.35,-245.84 285.19,-239.09 287.36,-249.46 293.35,-245.84"/>
</a>
</g>
</g>
<!-- Node15 -->
<g id="Node000015" class="node">
<title>Node15</title>
<g id="a_Node000015"><a xlink:href="err_8h.html" target="_top" xlink:title="Error codes.">
<polygon fill="white" stroke="#666666" points="640,-239 570,-239 570,-220 640,-220 640,-239"/>
<text text-anchor="middle" x="605" y="-227" font-family="Helvetica,sans-Serif" font-size="10.00">l4/sys/err.h</text>
</a>
</g>
</g>
<!-- Node14&#45;&gt;Node15 -->
<g id="edge26_Node000014_Node000015" class="edge">
<title>Node14&#45;&gt;Node15</title>
<g id="a_edge26_Node000014_Node000015"><a xlink:title=" ">
<path fill="none" stroke="#63b8ff" d="M347.63,-277.05C400.87,-267.43 501.13,-249.29 559.56,-238.72"/>
<polygon fill="#63b8ff" stroke="#63b8ff" points="560.4,-242.13 569.61,-236.9 559.15,-235.24 560.4,-242.13"/>
</a>
</g>
</g>
<!-- Node15&#45;&gt;Node4 -->
<g id="edge27_Node000015_Node000004" class="edge">
<title>Node15&#45;&gt;Node4</title>
<g id="a_edge27_Node000015_Node000004"><a xlink:title=" ">
<path fill="none" stroke="#63b8ff" d="M600.24,-219.9C588.42,-199.11 555.96,-145.27 518,-110 504.84,-97.77 487.85,-86.98 473.79,-79.09"/>
<polygon fill="#63b8ff" stroke="#63b8ff" points="475.07,-75.81 464.61,-74.11 471.73,-81.96 475.07,-75.81"/>
</a>
</g>
</g>
<!-- Node17 -->
<g id="Node000017" class="node">
<title>Node17</title>
<g id="a_Node000017"><a xlink:href="types.html" target="_top" xlink:title=" ">
<polygon fill="white" stroke="#666666" points="634,-354.5 570,-354.5 570,-335.5 634,-335.5 634,-354.5"/>
<text text-anchor="middle" x="602" y="-342.5" font-family="Helvetica,sans-Serif" font-size="10.00">cxx/types</text>
</a>
</g>
</g>
<!-- Node16&#45;&gt;Node17 -->
<g id="edge31_Node000016_Node000017" class="edge">
<title>Node16&#45;&gt;Node17</title>
<g id="a_edge31_Node000016_Node000017"><a xlink:title=" ">
<path fill="none" stroke="#63b8ff" d="M424.03,-450.86C441.81,-438.24 476.31,-414.26 507,-396 529.61,-382.55 556.17,-368.73 575.45,-359.04"/>
<polygon fill="#63b8ff" stroke="#63b8ff" points="577.15,-362.1 584.54,-354.5 574.03,-355.83 577.15,-362.1"/>
</a>
</g>
</g>
<!-- Node18 -->
<g id="Node000018" class="node">
<title>Node18</title>
<g id="a_Node000018"><a xlink:href="ipc__basics_source.html" target="_top" xlink:title=" ">
<polygon fill="white" stroke="#666666" points="699.5,-415 612.5,-415 612.5,-396 699.5,-396 699.5,-415"/>
<text text-anchor="middle" x="656" y="-403" font-family="Helvetica,sans-Serif" font-size="10.00">cxx/ipc_basics</text>
</a>
</g>
</g>
<!-- Node16&#45;&gt;Node18 -->
<g id="edge32_Node000016_Node000018" class="edge">
<title>Node16&#45;&gt;Node18</title>
<g id="a_edge32_Node000016_Node000018"><a xlink:title=" ">
<path fill="none" stroke="#63b8ff" d="M450.66,-451.1C492.89,-441.93 560.63,-427.22 606.66,-417.22"/>
<polygon fill="#63b8ff" stroke="#63b8ff" points="607.68,-420.58 616.71,-415.03 606.2,-413.74 607.68,-420.58"/>
</a>
</g>
</g>
<!-- Node19 -->
<g id="Node000019" class="node">
<title>Node19</title>
<g id="a_Node000019"><a xlink:href="capability_8h_source.html" target="_top" xlink:title=" ">
<polygon fill="white" stroke="#666666" points="455,-415 363,-415 363,-396 455,-396 455,-415"/>
<text text-anchor="middle" x="409" y="-403" font-family="Helvetica,sans-Serif" font-size="10.00">cxx/capability.h</text>
</a>
</g>
</g>
<!-- Node16&#45;&gt;Node19 -->
<g id="edge36_Node000016_Node000019" class="edge">
<title>Node16&#45;&gt;Node19</title>
<g id="a_edge36_Node000016_Node000019"><a xlink:title=" ">
<path fill="none" stroke="#63b8ff" d="M411.5,-450.75C411.11,-443.8 410.55,-433.85 410.05,-425.13"/>
<polygon fill="#63b8ff" stroke="#63b8ff" points="413.55,-424.88 409.49,-415.09 406.56,-425.27 413.55,-424.88"/>
</a>
</g>
</g>
<!-- Node18&#45;&gt;Node12 -->
<g id="edge34_Node000018_Node000012" class="edge">
<title>Node18&#45;&gt;Node12</title>
<g id="a_edge34_Node000018_Node000012"><a xlink:title=" ">
<path fill="none" stroke="#63b8ff" d="M657.2,-395.88C658.82,-380.55 659.78,-348.46 643,-330 600.87,-283.67 418.35,-250.94 329.28,-237.42"/>
<polygon fill="#63b8ff" stroke="#63b8ff" points="329.56,-233.92 319.15,-235.9 328.52,-240.84 329.56,-233.92"/>
</a>
</g>
</g>
<!-- Node18&#45;&gt;Node15 -->
<g id="edge35_Node000018_Node000015" class="edge">
<title>Node18&#45;&gt;Node15</title>
<g id="a_edge35_Node000018_Node000015"><a xlink:title=" ">
<path fill="none" stroke="#63b8ff" d="M661.64,-395.7C669.89,-381.69 683.51,-353.47 676,-330 665.28,-296.52 638.71,-264.71 621.29,-246.43"/>
<polygon fill="#63b8ff" stroke="#63b8ff" points="623.52,-243.71 614.02,-239.02 618.52,-248.61 623.52,-243.71"/>
</a>
</g>
</g>
<!-- Node18&#45;&gt;Node17 -->
<g id="edge33_Node000018_Node000017" class="edge">
<title>Node18&#45;&gt;Node17</title>
<g id="a_edge33_Node000018_Node000017"><a xlink:title=" ">
<path fill="none" stroke="#63b8ff" d="M648.03,-395.87C639.9,-387.05 627.07,-373.16 617.02,-362.27"/>
<polygon fill="#63b8ff" stroke="#63b8ff" points="619.36,-359.64 610,-354.67 614.21,-364.39 619.36,-359.64"/>
</a>
</g>
</g>
<!-- Node19&#45;&gt;Node3 -->
<g id="edge37_Node000019_Node000003" class="edge">
<title>Node19&#45;&gt;Node3</title>
<g id="a_edge37_Node000019_Node000003"><a xlink:title=" ">
<path fill="none" stroke="#63b8ff" d="M455.06,-397.92C478.06,-392.05 503.92,-380.95 518,-360 525.44,-348.93 524.21,-341.8 518,-330 457.86,-215.67 304.64,-155.39 230.47,-132.1"/>
<polygon fill="#63b8ff" stroke="#63b8ff" points="231.14,-128.65 220.55,-129.06 229.09,-135.34 231.14,-128.65"/>
</a>
</g>
</g>
<!-- Node19&#45;&gt;Node7 -->
<g id="edge38_Node000019_Node000007" class="edge">
<title>Node19&#45;&gt;Node7</title>
<g id="a_edge38_Node000019_Node000007"><a xlink:title=" ">
<path fill="none" stroke="#63b8ff" d="M419.71,-395.93C428.93,-387.8 441.59,-374.68 447,-360 451.61,-347.49 452.34,-342.22 447,-330 418.14,-264.01 390.79,-255.29 328,-220 295.77,-201.88 255.56,-190.65 224.04,-184"/>
<polygon fill="#63b8ff" stroke="#63b8ff" points="224.63,-180.54 214.14,-181.99 223.25,-187.4 224.63,-180.54"/>
</a>
</g>
</g>
<!-- Node19&#45;&gt;Node20 -->
<g id="edge39_Node000019_Node000020" class="edge">
<title>Node19&#45;&gt;Node20</title>
<g id="a_edge39_Node000019_Node000020"><a xlink:title=" ">
<path fill="none" stroke="#63b8ff" d="M375.85,-395.99C335.74,-385.7 268.14,-368.36 224.05,-357.04"/>
<polygon fill="#63b8ff" stroke="#63b8ff" points="224.75,-353.61 214.19,-354.52 223.01,-360.39 224.75,-353.61"/>
</a>
</g>
</g>
<!-- Node20&#45;&gt;Node7 -->
<g id="edge40_Node000020_Node000007" class="edge">
<title>Node20&#45;&gt;Node7</title>
<g id="a_edge40_Node000020_Node000007"><a xlink:title=" ">
<path fill="none" stroke="#63b8ff" d="M180.54,-335.41C179.15,-309.39 174.96,-230.97 173.02,-194.51"/>
<polygon fill="#63b8ff" stroke="#63b8ff" points="176.5,-194.07 172.47,-184.27 169.51,-194.44 176.5,-194.07"/>
</a>
</g>
</g>
<!-- Node20&#45;&gt;Node12 -->
<g id="edge41_Node000020_Node000012" class="edge">
<title>Node20&#45;&gt;Node12</title>
<g id="a_edge41_Node000020_Node000012"><a xlink:title=" ">
<path fill="none" stroke="#63b8ff" d="M187.14,-335.18C196.63,-321.73 215.7,-295.51 234,-275 242.95,-264.97 253.71,-254.48 262.58,-246.21"/>
<polygon fill="#63b8ff" stroke="#63b8ff" points="265.09,-248.66 270.08,-239.31 260.35,-243.51 265.09,-248.66"/>
</a>
</g>
</g>
<!-- Node20&#45;&gt;Node14 -->
<g id="edge42_Node000020_Node000014" class="edge">
<title>Node20&#45;&gt;Node14</title>
<g id="a_edge42_Node000020_Node000014"><a xlink:title=" ">
<path fill="none" stroke="#63b8ff" d="M200.05,-335.49C221.97,-325.7 258.21,-309.52 283.5,-298.23"/>
<polygon fill="#63b8ff" stroke="#63b8ff" points="285.22,-301.29 292.93,-294.02 282.37,-294.9 285.22,-301.29"/>
</a>
</g>
</g>
<!-- Node21&#45;&gt;Node10 -->
<g id="edge45_Node000021_Node000010" class="edge">
<title>Node21&#45;&gt;Node10</title>
<g id="a_edge45_Node000021_Node000010"><a xlink:title=" ">
<path fill="none" stroke="#63b8ff" d="M337.42,-615.66C328.22,-597.93 307.38,-557.73 295.24,-534.32"/>
<polygon fill="#63b8ff" stroke="#63b8ff" points="298.2,-532.42 290.49,-525.16 291.99,-535.65 298.2,-532.42"/>
</a>
</g>
</g>
<!-- Node21&#45;&gt;Node22 -->
<g id="edge46_Node000021_Node000022" class="edge">
<title>Node21&#45;&gt;Node22</title>
<g id="a_edge46_Node000021_Node000022"><a xlink:title=" ">
<path fill="none" stroke="#63b8ff" d="M347.73,-615.66C359.32,-597.77 385.75,-557 400.86,-533.69"/>
<polygon fill="#63b8ff" stroke="#63b8ff" points="403.89,-535.45 406.39,-525.16 398.01,-531.65 403.89,-535.45"/>
</a>
</g>
</g>
<!-- Node21&#45;&gt;Node24 -->
<g id="edge53_Node000021_Node000024" class="edge">
<title>Node21&#45;&gt;Node24</title>
<g id="a_edge53_Node000021_Node000024"><a xlink:title=" ">
<path fill="none" stroke="#63b8ff" d="M364.49,-615.98C387.52,-607.27 423.54,-593.63 449.63,-583.75"/>
<polygon fill="#63b8ff" stroke="#63b8ff" points="450.98,-586.98 459.1,-580.17 448.51,-580.44 450.98,-586.98"/>
</a>
</g>
</g>
<!-- Node22&#45;&gt;Node16 -->
<g id="edge52_Node000022_Node000016" class="edge">
<title>Node22&#45;&gt;Node16</title>
<g id="a_edge52_Node000022_Node000016"><a xlink:title=" ">
<path fill="none" stroke="#63b8ff" d="M412,-505.75C412,-498.8 412,-488.85 412,-480.13"/>
<polygon fill="#63b8ff" stroke="#63b8ff" points="415.5,-480.09 412,-470.09 408.5,-480.09 415.5,-480.09"/>
</a>
</g>
</g>
<!-- Node22&#45;&gt;Node18 -->
<g id="edge47_Node000022_Node000018" class="edge">
<title>Node22&#45;&gt;Node18</title>
<g id="a_edge47_Node000022_Node000018"><a xlink:title=" ">
<path fill="none" stroke="#63b8ff" d="M452.28,-511.09C508.44,-505.58 606.38,-492.92 633,-470 645.9,-458.89 651.56,-439.96 654.05,-425.65"/>
<polygon fill="#63b8ff" stroke="#63b8ff" points="657.57,-425.78 655.44,-415.4 650.63,-424.84 657.57,-425.78"/>
</a>
</g>
</g>
<!-- Node23 -->
<g id="Node000023" class="node">
<title>Node23</title>
<g id="a_Node000023"><a xlink:href="ipc__types.html" target="_top" xlink:title=" ">
<polygon fill="white" stroke="#666666" points="623.5,-470 508.5,-470 508.5,-451 623.5,-451 623.5,-470"/>
<text text-anchor="middle" x="566" y="-458" font-family="Helvetica,sans-Serif" font-size="10.00">l4/sys/cxx/ipc_types</text>
</a>
</g>
</g>
<!-- Node22&#45;&gt;Node23 -->
<g id="edge48_Node000022_Node000023" class="edge">
<title>Node22&#45;&gt;Node23</title>
<g id="a_edge48_Node000022_Node000023"><a xlink:title=" ">
<path fill="none" stroke="#63b8ff" d="M436.74,-505.98C462.37,-497.16 502.63,-483.31 531.41,-473.41"/>
<polygon fill="#63b8ff" stroke="#63b8ff" points="532.75,-476.65 541.06,-470.08 530.47,-470.03 532.75,-476.65"/>
</a>
</g>
</g>
<!-- Node23&#45;&gt;Node17 -->
<g id="edge50_Node000023_Node000017" class="edge">
<title>Node23&#45;&gt;Node17</title>
<g id="a_edge50_Node000023_Node000017"><a xlink:title=" ">
<path fill="none" stroke="#63b8ff" d="M568.71,-450.97C574.52,-432.65 588.3,-389.18 596.19,-364.31"/>
<polygon fill="#63b8ff" stroke="#63b8ff" points="599.58,-365.22 599.26,-354.63 592.9,-363.1 599.58,-365.22"/>
</a>
</g>
</g>
<!-- Node23&#45;&gt;Node18 -->
<g id="edge51_Node000023_Node000018" class="edge">
<title>Node23&#45;&gt;Node18</title>
<g id="a_edge51_Node000023_Node000018"><a xlink:title=" ">
<path fill="none" stroke="#63b8ff" d="M580.46,-450.98C594.42,-442.77 615.79,-430.18 632.25,-420.49"/>
<polygon fill="#63b8ff" stroke="#63b8ff" points="634.44,-423.26 641.28,-415.17 630.88,-417.23 634.44,-423.26"/>
</a>
</g>
</g>
<!-- Node23&#45;&gt;Node19 -->
<g id="edge49_Node000023_Node000019" class="edge">
<title>Node23&#45;&gt;Node19</title>
<g id="a_edge49_Node000023_Node000019"><a xlink:title=" ">
<path fill="none" stroke="#63b8ff" d="M540.78,-450.98C514.64,-442.16 473.6,-428.31 444.27,-418.41"/>
<polygon fill="#63b8ff" stroke="#63b8ff" points="445.02,-414.96 434.42,-415.08 442.78,-421.6 445.02,-414.96"/>
</a>
</g>
</g>
<!-- Node24&#45;&gt;Node17 -->
<g id="edge54_Node000024_Node000017" class="edge">
<title>Node24&#45;&gt;Node17</title>
<g id="a_edge54_Node000024_Node000017"><a xlink:title=" ">
<path fill="none" stroke="#63b8ff" d="M481.57,-560.93C480.91,-540.66 481.31,-488.65 500,-451 519.12,-412.48 557.53,-379.01 581.38,-360.74"/>
<polygon fill="#63b8ff" stroke="#63b8ff" points="583.52,-363.5 589.44,-354.71 579.33,-357.9 583.52,-363.5"/>
</a>
</g>
</g>
<!-- Node24&#45;&gt;Node18 -->
<g id="edge55_Node000024_Node000018" class="edge">
<title>Node24&#45;&gt;Node18</title>
<g id="a_edge55_Node000024_Node000018"><a xlink:title=" ">
<path fill="none" stroke="#63b8ff" d="M514.55,-560.92C554.92,-548.38 622.17,-520.8 653,-470 661.14,-456.58 661.17,-438.48 659.58,-425.04"/>
<polygon fill="#63b8ff" stroke="#63b8ff" points="663.02,-424.38 658.01,-415.05 656.1,-425.47 663.02,-424.38"/>
</a>
</g>
</g>
<!-- Node24&#45;&gt;Node25 -->
<g id="edge56_Node000024_Node000025" class="edge">
<title>Node24&#45;&gt;Node25</title>
<g id="a_edge56_Node000024_Node000025"><a xlink:title=" ">
<path fill="none" stroke="#63b8ff" d="M523.13,-560.98C570.8,-551.12 648.9,-534.95 696.65,-525.06"/>
<polygon fill="#63b8ff" stroke="#63b8ff" points="697.57,-528.44 706.65,-522.99 696.15,-521.59 697.57,-528.44"/>
</a>
</g>
</g>
<!-- Node25&#45;&gt;Node17 -->
<g id="edge57_Node000025_Node000017" class="edge">
<title>Node25&#45;&gt;Node17</title>
<g id="a_edge57_Node000025_Node000017"><a xlink:title=" ">
<path fill="none" stroke="#63b8ff" d="M738.34,-505.91C738.72,-484.67 736.83,-429.05 709,-396 692.32,-376.19 666.05,-363.76 643.71,-356.24"/>
<polygon fill="#63b8ff" stroke="#63b8ff" points="644.69,-352.88 634.1,-353.22 642.59,-359.56 644.69,-352.88"/>
</a>
</g>
</g>
<!-- Node25&#45;&gt;Node18 -->
<g id="edge58_Node000025_Node000018" class="edge">
<title>Node25&#45;&gt;Node18</title>
<g id="a_edge58_Node000025_Node000018"><a xlink:title=" ">
<path fill="none" stroke="#63b8ff" d="M734.43,-505.74C728.98,-492.97 717.75,-468.82 704,-451 695.62,-440.15 684.48,-429.64 675.04,-421.56"/>
<polygon fill="#63b8ff" stroke="#63b8ff" points="677.22,-418.83 667.29,-415.14 672.76,-424.22 677.22,-418.83"/>
</a>
</g>
</g>
<!-- Node25&#45;&gt;Node23 -->
<g id="edge59_Node000025_Node000023" class="edge">
<title>Node25&#45;&gt;Node23</title>
<g id="a_edge59_Node000025_Node000023"><a xlink:title=" ">
<path fill="none" stroke="#63b8ff" d="M710.37,-505.98C681.49,-497.09 635.99,-483.07 603.8,-473.15"/>
<polygon fill="#63b8ff" stroke="#63b8ff" points="604.44,-469.68 593.85,-470.08 602.38,-476.37 604.44,-469.68"/>
</a>
</g>
</g>
</g>
</svg>
