<?xml version="1.0" encoding="UTF-8" standalone="no"?>
<!DOCTYPE svg PUBLIC "-//W3C//DTD SVG 1.1//EN"
 "http://www.w3.org/Graphics/SVG/1.1/DTD/svg11.dtd">
<!-- Generated by graphviz version 2.43.0 (0)
 -->
<!-- Title: l4/cxx/pair Pages: 1 -->
<svg width="788pt" height="346pt"
 viewBox="0.00 0.00 788.00 346.00" xmlns="http://www.w3.org/2000/svg" xmlns:xlink="http://www.w3.org/1999/xlink">
<g id="graph0" class="graph" transform="scale(1 1) rotate(0) translate(4 342)">
<title>l4/cxx/pair</title>
<!-- Node1 -->
<g id="Node000001" class="node">
<title>Node1</title>
<g id="a_Node000001"><a xlink:title="Pair implementation.">
<polygon fill="#999999" stroke="#666666" points="500.5,-338 432.5,-338 432.5,-319 500.5,-319 500.5,-338"/>
<text text-anchor="middle" x="466.5" y="-326" font-family="Helvetica,sans-Serif" font-size="10.00">l4/cxx/pair</text>
</a>
</g>
</g>
<!-- Node2 -->
<g id="Node000002" class="node">
<title>Node2</title>
<g id="a_Node000002"><a xlink:href="avl__map.html" target="_top" xlink:title="AVL map.">
<polygon fill="white" stroke="#666666" points="133,-156.5 42,-156.5 42,-137.5 133,-137.5 133,-156.5"/>
<text text-anchor="middle" x="87.5" y="-144.5" font-family="Helvetica,sans-Serif" font-size="10.00">l4/cxx/avl_map</text>
</a>
</g>
</g>
<!-- Node1&#45;&gt;Node2 -->
<g id="edge1_Node000001_Node000002" class="edge">
<title>Node1&#45;&gt;Node2</title>
<g id="a_edge1_Node000001_Node000002"><a xlink:title=" ">
<path fill="none" stroke="#63b8ff" d="M422.37,-324.9C354.01,-318.72 221.65,-297.91 137.5,-228 113.31,-207.9 97.28,-172.95 90.78,-156.73"/>
<polygon fill="#63b8ff" stroke="#63b8ff" points="422.12,-328.39 432.38,-325.74 422.7,-321.42 422.12,-328.39"/>
</a>
</g>
</g>
<!-- Node5 -->
<g id="Node000005" class="node">
<title>Node5</title>
<g id="a_Node000005"><a xlink:href="avl__tree.html" target="_top" xlink:title="AVL tree.">
<polygon fill="white" stroke="#666666" points="376,-283 287,-283 287,-264 376,-264 376,-283"/>
<text text-anchor="middle" x="331.5" y="-271" font-family="Helvetica,sans-Serif" font-size="10.00">l4/cxx/avl_tree</text>
</a>
</g>
</g>
<!-- Node1&#45;&gt;Node5 -->
<g id="edge4_Node000001_Node000005" class="edge">
<title>Node1&#45;&gt;Node5</title>
<g id="a_edge4_Node000001_Node000005"><a xlink:title=" ">
<path fill="none" stroke="#63b8ff" d="M435.4,-315.29C410.38,-305.47 375.84,-291.91 353.58,-283.17"/>
<polygon fill="#63b8ff" stroke="#63b8ff" points="434.22,-318.59 444.81,-318.98 436.78,-312.07 434.22,-318.59"/>
</a>
</g>
</g>
<!-- Node8 -->
<g id="Node000008" class="node">
<title>Node8</title>
<g id="a_Node000008"><a xlink:href="vfs__impl_8h_source.html" target="_top" xlink:title=" ">
<polygon fill="white" stroke="#666666" points="661.5,-96 551.5,-96 551.5,-66 661.5,-66 661.5,-96"/>
<text text-anchor="start" x="559.5" y="-84" font-family="Helvetica,sans-Serif" font-size="10.00">l4/l4re_vfs/impl/vfs</text>
<text text-anchor="middle" x="606.5" y="-73" font-family="Helvetica,sans-Serif" font-size="10.00">_impl.h</text>
</a>
</g>
</g>
<!-- Node1&#45;&gt;Node8 -->
<g id="edge8_Node000001_Node000008" class="edge">
<title>Node1&#45;&gt;Node8</title>
<g id="a_edge8_Node000001_Node000008"><a xlink:title=" ">
<path fill="none" stroke="#63b8ff" d="M481.67,-311.3C498.88,-292.36 527.06,-259.57 546.5,-228 563.39,-200.56 564.17,-191.77 576.5,-162 585.92,-139.25 595.74,-112.37 601.48,-96.28"/>
<polygon fill="#63b8ff" stroke="#63b8ff" points="479.01,-309.02 474.82,-318.75 484.16,-313.76 479.01,-309.02"/>
</a>
</g>
</g>
<!-- Node9 -->
<g id="Node000009" class="node">
<title>Node9</title>
<g id="a_Node000009"><a xlink:href="vfs_8h_source.html" target="_top" xlink:title=" ">
<polygon fill="white" stroke="#666666" points="732,-283 637,-283 637,-264 732,-264 732,-283"/>
<text text-anchor="middle" x="684.5" y="-271" font-family="Helvetica,sans-Serif" font-size="10.00">l4/l4re_vfs/vfs.h</text>
</a>
</g>
</g>
<!-- Node1&#45;&gt;Node9 -->
<g id="edge9_Node000001_Node000009" class="edge">
<title>Node1&#45;&gt;Node9</title>
<g id="a_edge9_Node000001_Node000009"><a xlink:title=" ">
<path fill="none" stroke="#63b8ff" d="M510.51,-316.8C551.38,-306.86 611.44,-292.26 649.23,-283.07"/>
<polygon fill="#63b8ff" stroke="#63b8ff" points="509.45,-313.46 500.56,-319.22 511.11,-320.26 509.45,-313.46"/>
</a>
</g>
</g>
<!-- Node3 -->
<g id="Node000003" class="node">
<title>Node3</title>
<g id="a_Node000003"><a xlink:href="region__mapping.html" target="_top" xlink:title="Region handling.">
<polygon fill="white" stroke="#666666" points="139,-90.5 0,-90.5 0,-71.5 139,-71.5 139,-90.5"/>
<text text-anchor="middle" x="69.5" y="-78.5" font-family="Helvetica,sans-Serif" font-size="10.00">l4/re/util/region_mapping</text>
</a>
</g>
</g>
<!-- Node2&#45;&gt;Node3 -->
<g id="edge2_Node000002_Node000003" class="edge">
<title>Node2&#45;&gt;Node3</title>
<g id="a_edge2_Node000002_Node000003"><a xlink:title=" ">
<path fill="none" stroke="#63b8ff" d="M82.28,-127.45C78.9,-115.43 74.65,-100.32 72,-90.91"/>
<polygon fill="#63b8ff" stroke="#63b8ff" points="79,-128.69 85.07,-137.37 85.73,-126.79 79,-128.69"/>
</a>
</g>
</g>
<!-- Node4 -->
<g id="Node000004" class="node">
<title>Node4</title>
<g id="a_Node000004"><a xlink:href="region__mapping__svr__2_source.html" target="_top" xlink:title=" ">
<polygon fill="white" stroke="#666666" points="139,-30 0,-30 0,0 139,0 139,-30"/>
<text text-anchor="start" x="8" y="-18" font-family="Helvetica,sans-Serif" font-size="10.00">l4/re/util/region_mapping</text>
<text text-anchor="middle" x="69.5" y="-7" font-family="Helvetica,sans-Serif" font-size="10.00">_svr_2</text>
</a>
</g>
</g>
<!-- Node3&#45;&gt;Node4 -->
<g id="edge3_Node000003_Node000004" class="edge">
<title>Node3&#45;&gt;Node4</title>
<g id="a_edge3_Node000003_Node000004"><a xlink:title=" ">
<path fill="none" stroke="#63b8ff" d="M69.5,-61.35C69.5,-51.47 69.5,-39.51 69.5,-30.36"/>
<polygon fill="#63b8ff" stroke="#63b8ff" points="66,-61.37 69.5,-71.37 73,-61.37 66,-61.37"/>
</a>
</g>
</g>
<!-- Node6 -->
<g id="Node000006" class="node">
<title>Node6</title>
<g id="a_Node000006"><a xlink:href="avl__set.html" target="_top" xlink:title="AVL set.">
<polygon fill="white" stroke="#666666" points="230.5,-222.5 146.5,-222.5 146.5,-203.5 230.5,-203.5 230.5,-222.5"/>
<text text-anchor="middle" x="188.5" y="-210.5" font-family="Helvetica,sans-Serif" font-size="10.00">l4/cxx/avl_set</text>
</a>
</g>
</g>
<!-- Node5&#45;&gt;Node6 -->
<g id="edge5_Node000005_Node000006" class="edge">
<title>Node5&#45;&gt;Node6</title>
<g id="a_edge5_Node000005_Node000006"><a xlink:title=" ">
<path fill="none" stroke="#63b8ff" d="M301.14,-260.08C273.52,-248.78 233.48,-232.4 209.32,-222.52"/>
<polygon fill="#63b8ff" stroke="#63b8ff" points="300.13,-263.45 310.71,-263.99 302.78,-256.97 300.13,-263.45"/>
</a>
</g>
</g>
<!-- Node7 -->
<g id="Node000007" class="node">
<title>Node7</title>
<g id="a_Node000007"><a xlink:href="name__space__svr_source.html" target="_top" xlink:title=" ">
<polygon fill="white" stroke="#666666" points="402.5,-222.5 260.5,-222.5 260.5,-203.5 402.5,-203.5 402.5,-222.5"/>
<text text-anchor="middle" x="331.5" y="-210.5" font-family="Helvetica,sans-Serif" font-size="10.00">l4/re/util/name_space_svr</text>
</a>
</g>
</g>
<!-- Node5&#45;&gt;Node7 -->
<g id="edge7_Node000005_Node000007" class="edge">
<title>Node5&#45;&gt;Node7</title>
<g id="a_edge7_Node000005_Node000007"><a xlink:title=" ">
<path fill="none" stroke="#63b8ff" d="M331.5,-253.66C331.5,-243.24 331.5,-230.8 331.5,-222.67"/>
<polygon fill="#63b8ff" stroke="#63b8ff" points="328,-253.87 331.5,-263.87 335,-253.87 328,-253.87"/>
</a>
</g>
</g>
<!-- Node6&#45;&gt;Node2 -->
<g id="edge6_Node000006_Node000002" class="edge">
<title>Node6&#45;&gt;Node2</title>
<g id="a_edge6_Node000006_Node000002"><a xlink:title=" ">
<path fill="none" stroke="#63b8ff" d="M166.17,-197.85C146.31,-185.27 117.92,-167.28 101.23,-156.7"/>
<polygon fill="#63b8ff" stroke="#63b8ff" points="164.56,-200.97 174.88,-203.37 168.31,-195.06 164.56,-200.97"/>
</a>
</g>
</g>
<!-- Node10 -->
<g id="Node000010" class="node">
<title>Node10</title>
<g id="a_Node000010"><a xlink:href="backend_source.html" target="_top" xlink:title=" ">
<polygon fill="white" stroke="#666666" points="538,-222.5 427,-222.5 427,-203.5 538,-203.5 538,-222.5"/>
<text text-anchor="middle" x="482.5" y="-210.5" font-family="Helvetica,sans-Serif" font-size="10.00">l4/l4re_vfs/backend</text>
</a>
</g>
</g>
<!-- Node9&#45;&gt;Node10 -->
<g id="edge10_Node000009_Node000010" class="edge">
<title>Node9&#45;&gt;Node10</title>
<g id="a_edge10_Node000009_Node000010"><a xlink:title=" ">
<path fill="none" stroke="#63b8ff" d="M645.16,-261.11C606.09,-249.79 547.08,-232.7 511.91,-222.52"/>
<polygon fill="#63b8ff" stroke="#63b8ff" points="644.55,-264.57 655.13,-263.99 646.5,-257.85 644.55,-264.57"/>
</a>
</g>
</g>
<!-- Node17 -->
<g id="Node000017" class="node">
<title>Node17</title>
<g id="a_Node000017"><a xlink:href="fd__store_8h_source.html" target="_top" xlink:title=" ">
<polygon fill="white" stroke="#666666" points="742,-228 637,-228 637,-198 742,-198 742,-228"/>
<text text-anchor="start" x="645" y="-216" font-family="Helvetica,sans-Serif" font-size="10.00">l4/l4re_vfs/impl/fd</text>
<text text-anchor="middle" x="689.5" y="-205" font-family="Helvetica,sans-Serif" font-size="10.00">_store.h</text>
</a>
</g>
</g>
<!-- Node9&#45;&gt;Node17 -->
<g id="edge20_Node000009_Node000017" class="edge">
<title>Node9&#45;&gt;Node17</title>
<g id="a_edge20_Node000009_Node000017"><a xlink:title=" ">
<path fill="none" stroke="#63b8ff" d="M686.11,-253.65C686.82,-245.36 687.64,-235.78 688.29,-228.11"/>
<polygon fill="#63b8ff" stroke="#63b8ff" points="682.6,-253.61 685.24,-263.87 689.58,-254.2 682.6,-253.61"/>
</a>
</g>
</g>
<!-- Node10&#45;&gt;Node8 -->
<g id="edge19_Node000010_Node000008" class="edge">
<title>Node10&#45;&gt;Node8</title>
<g id="a_edge19_Node000010_Node000008"><a xlink:title=" ">
<path fill="none" stroke="#63b8ff" d="M505.37,-197.92C519.31,-188.71 536.98,-175.84 550.5,-162 570.64,-141.38 588.73,-112.87 598.61,-96.04"/>
<polygon fill="#63b8ff" stroke="#63b8ff" points="503.34,-195.07 496.83,-203.43 507.13,-200.95 503.34,-195.07"/>
</a>
</g>
</g>
<!-- Node11 -->
<g id="Node000011" class="node">
<title>Node11</title>
<g id="a_Node000011"><a xlink:href="ns__fs_8h_source.html" target="_top" xlink:title=" ">
<polygon fill="white" stroke="#666666" points="404.5,-156.5 274.5,-156.5 274.5,-137.5 404.5,-137.5 404.5,-156.5"/>
<text text-anchor="middle" x="339.5" y="-144.5" font-family="Helvetica,sans-Serif" font-size="10.00">l4/l4re_vfs/impl/ns_fs.h</text>
</a>
</g>
</g>
<!-- Node10&#45;&gt;Node11 -->
<g id="edge11_Node000010_Node000011" class="edge">
<title>Node10&#45;&gt;Node11</title>
<g id="a_edge11_Node000010_Node000011"><a xlink:title=" ">
<path fill="none" stroke="#63b8ff" d="M453.89,-199.19C425.7,-186.58 383.42,-167.66 358.94,-156.7"/>
<polygon fill="#63b8ff" stroke="#63b8ff" points="452.66,-202.48 463.21,-203.37 455.52,-196.09 452.66,-202.48"/>
</a>
</g>
</g>
<!-- Node13 -->
<g id="Node000013" class="node">
<title>Node13</title>
<g id="a_Node000013"><a xlink:href="ro__file_8h_source.html" target="_top" xlink:title=" ">
<polygon fill="white" stroke="#666666" points="256,-162 151,-162 151,-132 256,-132 256,-162"/>
<text text-anchor="start" x="159" y="-150" font-family="Helvetica,sans-Serif" font-size="10.00">l4/l4re_vfs/impl/ro</text>
<text text-anchor="middle" x="203.5" y="-139" font-family="Helvetica,sans-Serif" font-size="10.00">_file.h</text>
</a>
</g>
</g>
<!-- Node10&#45;&gt;Node13 -->
<g id="edge14_Node000010_Node000013" class="edge">
<title>Node10&#45;&gt;Node13</title>
<g id="a_edge14_Node000010_Node000013"><a xlink:title=" ">
<path fill="none" stroke="#63b8ff" d="M435.32,-201.18C385.66,-189.79 307.68,-171.9 256.08,-160.06"/>
<polygon fill="#63b8ff" stroke="#63b8ff" points="434.63,-204.61 445.16,-203.44 436.2,-197.79 434.63,-204.61"/>
</a>
</g>
</g>
<!-- Node15 -->
<g id="Node000015" class="node">
<title>Node15</title>
<g id="a_Node000015"><a xlink:href="vcon__stream_8h_source.html" target="_top" xlink:title=" ">
<polygon fill="white" stroke="#666666" points="542,-162 423,-162 423,-132 542,-132 542,-162"/>
<text text-anchor="start" x="431" y="-150" font-family="Helvetica,sans-Serif" font-size="10.00">l4/l4re_vfs/impl/vcon</text>
<text text-anchor="middle" x="482.5" y="-139" font-family="Helvetica,sans-Serif" font-size="10.00">_stream.h</text>
</a>
</g>
</g>
<!-- Node10&#45;&gt;Node15 -->
<g id="edge16_Node000010_Node000015" class="edge">
<title>Node10&#45;&gt;Node15</title>
<g id="a_edge16_Node000010_Node000015"><a xlink:title=" ">
<path fill="none" stroke="#63b8ff" d="M482.5,-193.35C482.5,-183.47 482.5,-171.51 482.5,-162.36"/>
<polygon fill="#63b8ff" stroke="#63b8ff" points="479,-193.37 482.5,-203.37 486,-193.37 479,-193.37"/>
</a>
</g>
</g>
<!-- Node11&#45;&gt;Node8 -->
<g id="edge13_Node000011_Node000008" class="edge">
<title>Node11&#45;&gt;Node8</title>
<g id="a_edge13_Node000011_Node000008"><a xlink:title=" ">
<path fill="none" stroke="#63b8ff" d="M385.2,-135.05C431.11,-124.04 501.91,-107.07 551.02,-95.3"/>
<polygon fill="#63b8ff" stroke="#63b8ff" points="384.14,-131.7 375.23,-137.44 385.77,-138.51 384.14,-131.7"/>
</a>
</g>
</g>
<!-- Node12 -->
<g id="Node000012" class="node">
<title>Node12</title>
<g id="a_Node000012"><a xlink:href="ns__fs__impl_8h_source.html" target="_top" xlink:title=" ">
<polygon fill="white" stroke="#666666" points="393,-96 286,-96 286,-66 393,-66 393,-96"/>
<text text-anchor="start" x="294" y="-84" font-family="Helvetica,sans-Serif" font-size="10.00">l4/l4re_vfs/impl/ns</text>
<text text-anchor="middle" x="339.5" y="-73" font-family="Helvetica,sans-Serif" font-size="10.00">_fs_impl.h</text>
</a>
</g>
</g>
<!-- Node11&#45;&gt;Node12 -->
<g id="edge12_Node000011_Node000012" class="edge">
<title>Node11&#45;&gt;Node12</title>
<g id="a_edge12_Node000011_Node000012"><a xlink:title=" ">
<path fill="none" stroke="#63b8ff" d="M339.5,-127.35C339.5,-117.47 339.5,-105.51 339.5,-96.36"/>
<polygon fill="#63b8ff" stroke="#63b8ff" points="336,-127.37 339.5,-137.37 343,-127.37 336,-127.37"/>
</a>
</g>
</g>
<!-- Node14 -->
<g id="Node000014" class="node">
<title>Node14</title>
<g id="a_Node000014"><a xlink:href="ro__file__impl_8h_source.html" target="_top" xlink:title=" ">
<polygon fill="white" stroke="#666666" points="262,-96 157,-96 157,-66 262,-66 262,-96"/>
<text text-anchor="start" x="165" y="-84" font-family="Helvetica,sans-Serif" font-size="10.00">l4/l4re_vfs/impl/ro</text>
<text text-anchor="middle" x="209.5" y="-73" font-family="Helvetica,sans-Serif" font-size="10.00">_file_impl.h</text>
</a>
</g>
</g>
<!-- Node13&#45;&gt;Node14 -->
<g id="edge15_Node000013_Node000014" class="edge">
<title>Node13&#45;&gt;Node14</title>
<g id="a_edge15_Node000013_Node000014"><a xlink:title=" ">
<path fill="none" stroke="#63b8ff" d="M205.77,-121.83C206.58,-113.17 207.47,-103.7 208.17,-96.16"/>
<polygon fill="#63b8ff" stroke="#63b8ff" points="202.28,-121.51 204.83,-131.8 209.25,-122.17 202.28,-121.51"/>
</a>
</g>
</g>
<!-- Node15&#45;&gt;Node8 -->
<g id="edge18_Node000015_Node000008" class="edge">
<title>Node15&#45;&gt;Node8</title>
<g id="a_edge18_Node000015_Node000008"><a xlink:title=" ">
<path fill="none" stroke="#63b8ff" d="M518.84,-127.24C538.2,-117.25 561.6,-105.18 579.35,-96.01"/>
<polygon fill="#63b8ff" stroke="#63b8ff" points="516.99,-124.26 509.71,-131.95 520.2,-130.48 516.99,-124.26"/>
</a>
</g>
</g>
<!-- Node16 -->
<g id="Node000016" class="node">
<title>Node16</title>
<g id="a_Node000016"><a xlink:href="vcon__stream__impl_8h_source.html" target="_top" xlink:title=" ">
<polygon fill="white" stroke="#666666" points="533,-96 414,-96 414,-66 533,-66 533,-96"/>
<text text-anchor="start" x="422" y="-84" font-family="Helvetica,sans-Serif" font-size="10.00">l4/l4re_vfs/impl/vcon</text>
<text text-anchor="middle" x="473.5" y="-73" font-family="Helvetica,sans-Serif" font-size="10.00">_stream_impl.h</text>
</a>
</g>
</g>
<!-- Node15&#45;&gt;Node16 -->
<g id="edge17_Node000015_Node000016" class="edge">
<title>Node15&#45;&gt;Node16</title>
<g id="a_edge17_Node000015_Node000016"><a xlink:title=" ">
<path fill="none" stroke="#63b8ff" d="M479.1,-121.83C477.88,-113.17 476.55,-103.7 475.49,-96.16"/>
<polygon fill="#63b8ff" stroke="#63b8ff" points="475.64,-122.38 480.5,-131.8 482.58,-121.41 475.64,-122.38"/>
</a>
</g>
</g>
<!-- Node17&#45;&gt;Node8 -->
<g id="edge22_Node000017_Node000008" class="edge">
<title>Node17&#45;&gt;Node8</title>
<g id="a_edge22_Node000017_Node000008"><a xlink:title=" ">
<path fill="none" stroke="#63b8ff" d="M674.88,-189.1C657.72,-162.23 629.8,-118.5 615.53,-96.14"/>
<polygon fill="#63b8ff" stroke="#63b8ff" points="672.13,-191.3 680.46,-197.84 678.03,-187.53 672.13,-191.3"/>
</a>
</g>
</g>
<!-- Node18 -->
<g id="Node000018" class="node">
<title>Node18</title>
<g id="a_Node000018"><a xlink:href="fd__store__impl_8h_source.html" target="_top" xlink:title=" ">
<polygon fill="white" stroke="#666666" points="780,-162 675,-162 675,-132 780,-132 780,-162"/>
<text text-anchor="start" x="683" y="-150" font-family="Helvetica,sans-Serif" font-size="10.00">l4/l4re_vfs/impl/fd</text>
<text text-anchor="middle" x="727.5" y="-139" font-family="Helvetica,sans-Serif" font-size="10.00">_store_impl.h</text>
</a>
</g>
</g>
<!-- Node17&#45;&gt;Node18 -->
<g id="edge21_Node000017_Node000018" class="edge">
<title>Node17&#45;&gt;Node18</title>
<g id="a_edge21_Node000017_Node000018"><a xlink:title=" ">
<path fill="none" stroke="#63b8ff" d="M703.18,-188.96C708.5,-180 714.42,-170.03 719.09,-162.16"/>
<polygon fill="#63b8ff" stroke="#63b8ff" points="700.03,-187.41 697.93,-197.8 706.05,-190.98 700.03,-187.41"/>
</a>
</g>
</g>
</g>
</svg>
