<?xml version="1.0" encoding="UTF-8" standalone="no"?>
<!DOCTYPE svg PUBLIC "-//W3C//DTD SVG 1.1//EN"
 "http://www.w3.org/Graphics/SVG/1.1/DTD/svg11.dtd">
<!-- Generated by graphviz version 2.43.0 (0)
 -->
<!-- Title: l4/sys/rcv_endpoint Pages: 1 -->
<svg width="958pt" height="753pt"
 viewBox="0.00 0.00 958.00 753.00" xmlns="http://www.w3.org/2000/svg" xmlns:xlink="http://www.w3.org/1999/xlink">
<g id="graph0" class="graph" transform="scale(1 1) rotate(0) translate(4 749)">
<title>l4/sys/rcv_endpoint</title>
<!-- Node1 -->
<g id="Node000001" class="node">
<title>Node1</title>
<g id="a_Node000001"><a xlink:title="The C++ Receive endpoint interface.">
<polygon fill="#999999" stroke="#666666" points="212.5,-745 101.5,-745 101.5,-726 212.5,-726 212.5,-745"/>
<text text-anchor="middle" x="157" y="-733" font-family="Helvetica,sans-Serif" font-size="10.00">l4/sys/rcv_endpoint</text>
</a>
</g>
</g>
<!-- Node2 -->
<g id="Node000002" class="node">
<title>Node2</title>
<g id="a_Node000002"><a xlink:href="rcv__endpoint_8h.html" target="_top" xlink:title="Receive endpoint C interface.">
<polygon fill="white" stroke="#666666" points="287,-354.5 167,-354.5 167,-335.5 287,-335.5 287,-354.5"/>
<text text-anchor="middle" x="227" y="-342.5" font-family="Helvetica,sans-Serif" font-size="10.00">l4/sys/rcv_endpoint.h</text>
</a>
</g>
</g>
<!-- Node1&#45;&gt;Node2 -->
<g id="edge1_Node000001_Node000002" class="edge">
<title>Node1&#45;&gt;Node2</title>
<g id="a_edge1_Node000001_Node000002"><a xlink:title=" ">
<path fill="none" stroke="#63b8ff" d="M134.34,-725.98C99.81,-711.35 38,-677.97 38,-626.5 38,-626.5 38,-626.5 38,-459.5 38,-399.51 108.85,-370.43 163.8,-356.9"/>
<polygon fill="#63b8ff" stroke="#63b8ff" points="164.91,-360.23 173.85,-354.55 163.32,-353.42 164.91,-360.23"/>
</a>
</g>
</g>
<!-- Node4 -->
<g id="Node000004" class="node">
<title>Node4</title>
<g id="a_Node000004"><a xlink:href="l4_2sys_2types_8h.html" target="_top" xlink:title="Common L4 ABI Data Types.">
<polygon fill="white" stroke="#666666" points="769,-184 685,-184 685,-165 769,-165 769,-184"/>
<text text-anchor="middle" x="727" y="-172" font-family="Helvetica,sans-Serif" font-size="10.00">l4/sys/types.h</text>
</a>
</g>
</g>
<!-- Node1&#45;&gt;Node4 -->
<g id="edge22_Node000001_Node000004" class="edge">
<title>Node1&#45;&gt;Node4</title>
<g id="a_edge22_Node000001_Node000004"><a xlink:title=" ">
<path fill="none" stroke="#63b8ff" d="M212.62,-732.28C385.34,-724.65 901,-696.04 901,-626.5 901,-626.5 901,-626.5 901,-283.5 901,-225.5 830.35,-197.57 779.09,-184.93"/>
<polygon fill="#63b8ff" stroke="#63b8ff" points="779.65,-181.47 769.12,-182.6 778.06,-188.28 779.65,-181.47"/>
</a>
</g>
</g>
<!-- Node13 -->
<g id="Node000013" class="node">
<title>Node13</title>
<g id="a_Node000013"><a xlink:href="capability.html" target="_top" xlink:title="L4::Cap related definitions.">
<polygon fill="white" stroke="#666666" points="504,-690 408,-690 408,-671 504,-671 504,-690"/>
<text text-anchor="middle" x="456" y="-678" font-family="Helvetica,sans-Serif" font-size="10.00">l4/sys/capability</text>
</a>
</g>
</g>
<!-- Node1&#45;&gt;Node13 -->
<g id="edge23_Node000001_Node000013" class="edge">
<title>Node1&#45;&gt;Node13</title>
<g id="a_edge23_Node000001_Node000013"><a xlink:title=" ">
<path fill="none" stroke="#63b8ff" d="M205.04,-725.98C257.41,-716.7 341.24,-701.84 397.43,-691.88"/>
<polygon fill="#63b8ff" stroke="#63b8ff" points="398.35,-695.27 407.58,-690.08 397.13,-688.38 398.35,-695.27"/>
</a>
</g>
</g>
<!-- Node23 -->
<g id="Node000023" class="node">
<title>Node23</title>
<g id="a_Node000023"><a xlink:href="ipc__iface.html" target="_top" xlink:title="Interface Definition Language.">
<polygon fill="white" stroke="#666666" points="146,-525 66,-525 66,-506 146,-506 146,-525"/>
<text text-anchor="middle" x="106" y="-513" font-family="Helvetica,sans-Serif" font-size="10.00">cxx/ipc_iface</text>
</a>
</g>
</g>
<!-- Node1&#45;&gt;Node23 -->
<g id="edge65_Node000001_Node000023" class="edge">
<title>Node1&#45;&gt;Node23</title>
<g id="a_edge65_Node000001_Node000023"><a xlink:title=" ">
<path fill="none" stroke="#63b8ff" d="M155,-725.95C147.5,-693.88 120.9,-580.2 110.36,-535.12"/>
<polygon fill="#63b8ff" stroke="#63b8ff" points="113.73,-534.16 108.04,-525.22 106.91,-535.76 113.73,-534.16"/>
</a>
</g>
</g>
<!-- Node3 -->
<g id="Node000003" class="node">
<title>Node3</title>
<g id="a_Node000003"><a xlink:href="l4_2sys_2utcb_8h.html" target="_top" xlink:title="UTCB definitions.">
<polygon fill="white" stroke="#666666" points="535,-239 457,-239 457,-220 535,-220 535,-239"/>
<text text-anchor="middle" x="496" y="-227" font-family="Helvetica,sans-Serif" font-size="10.00">l4/sys/utcb.h</text>
</a>
</g>
</g>
<!-- Node2&#45;&gt;Node3 -->
<g id="edge2_Node000002_Node000003" class="edge">
<title>Node2&#45;&gt;Node3</title>
<g id="a_edge2_Node000002_Node000003"><a xlink:title=" ">
<path fill="none" stroke="#63b8ff" d="M233.71,-335.25C245.59,-320.43 271.82,-290.47 301,-275 346.96,-250.64 405.91,-239.55 446.9,-234.54"/>
<polygon fill="#63b8ff" stroke="#63b8ff" points="447.38,-238.01 456.92,-233.4 446.58,-231.06 447.38,-238.01"/>
</a>
</g>
</g>
<!-- Node2&#45;&gt;Node4 -->
<g id="edge16_Node000002_Node000004" class="edge">
<title>Node2&#45;&gt;Node4</title>
<g id="a_edge16_Node000002_Node000004"><a xlink:title=" ">
<path fill="none" stroke="#63b8ff" d="M230.04,-335.41C235.64,-320.82 248.98,-291.2 270,-275 333.18,-226.31 568.53,-193.75 674.59,-181.24"/>
<polygon fill="#63b8ff" stroke="#63b8ff" points="675.21,-184.69 684.74,-180.06 674.4,-177.74 675.21,-184.69"/>
</a>
</g>
</g>
<!-- Node11 -->
<g id="Node000011" class="node">
<title>Node11</title>
<g id="a_Node000011"><a xlink:href="l4_2sys_2ipc_8h.html" target="_top" xlink:title="Common IPC interface.">
<polygon fill="white" stroke="#666666" points="563.5,-294 492.5,-294 492.5,-275 563.5,-275 563.5,-294"/>
<text text-anchor="middle" x="528" y="-282" font-family="Helvetica,sans-Serif" font-size="10.00">l4/sys/ipc.h</text>
</a>
</g>
</g>
<!-- Node2&#45;&gt;Node11 -->
<g id="edge17_Node000002_Node000011" class="edge">
<title>Node2&#45;&gt;Node11</title>
<g id="a_edge17_Node000002_Node000011"><a xlink:title=" ">
<path fill="none" stroke="#63b8ff" d="M270.77,-335.49C327.22,-324.52 424.94,-305.53 482.31,-294.38"/>
<polygon fill="#63b8ff" stroke="#63b8ff" points="483.04,-297.8 492.19,-292.46 481.71,-290.93 483.04,-297.8"/>
</a>
</g>
</g>
<!-- Node3&#45;&gt;Node4 -->
<g id="edge3_Node000003_Node000004" class="edge">
<title>Node3&#45;&gt;Node4</title>
<g id="a_edge3_Node000003_Node000004"><a xlink:title=" ">
<path fill="none" stroke="#63b8ff" d="M533.11,-219.98C572.99,-210.84 636.46,-196.27 679.84,-186.32"/>
<polygon fill="#63b8ff" stroke="#63b8ff" points="680.63,-189.73 689.59,-184.08 679.07,-182.91 680.63,-189.73"/>
</a>
</g>
</g>
<!-- Node5 -->
<g id="Node000005" class="node">
<title>Node5</title>
<g id="a_Node000005"><a xlink:href="l4_2sys_2l4int_8h.html" target="_top" xlink:title="Fixed sized integer types, generic version.">
<polygon fill="white" stroke="#666666" points="772.5,-74 693.5,-74 693.5,-55 772.5,-55 772.5,-74"/>
<text text-anchor="middle" x="733" y="-62" font-family="Helvetica,sans-Serif" font-size="10.00">l4/sys/l4int.h</text>
</a>
</g>
</g>
<!-- Node3&#45;&gt;Node5 -->
<g id="edge15_Node000003_Node000005" class="edge">
<title>Node3&#45;&gt;Node5</title>
<g id="a_edge15_Node000003_Node000005"><a xlink:title=" ">
<path fill="none" stroke="#63b8ff" d="M508.41,-219.97C546.79,-193.57 663.91,-113.02 712.02,-79.93"/>
<polygon fill="#63b8ff" stroke="#63b8ff" points="714.17,-82.7 720.43,-74.15 710.21,-76.93 714.17,-82.7"/>
</a>
</g>
</g>
<!-- Node6 -->
<g id="Node000006" class="node">
<title>Node6</title>
<g id="a_Node000006"><a xlink:href="compiler_8h.html" target="_top" xlink:title="L4 compiler related defines.">
<polygon fill="white" stroke="#666666" points="551.5,-74 452.5,-74 452.5,-55 551.5,-55 551.5,-74"/>
<text text-anchor="middle" x="502" y="-62" font-family="Helvetica,sans-Serif" font-size="10.00">l4/sys/compiler.h</text>
</a>
</g>
</g>
<!-- Node3&#45;&gt;Node6 -->
<g id="edge14_Node000003_Node000006" class="edge">
<title>Node3&#45;&gt;Node6</title>
<g id="a_edge14_Node000003_Node000006"><a xlink:title=" ">
<path fill="none" stroke="#63b8ff" d="M488.03,-219.72C470.99,-199.85 434.03,-150.04 452,-110 457.5,-97.74 468.23,-87.48 478.35,-79.91"/>
<polygon fill="#63b8ff" stroke="#63b8ff" points="480.35,-82.78 486.57,-74.2 476.36,-77.03 480.35,-82.78"/>
</a>
</g>
</g>
<!-- Node4&#45;&gt;Node5 -->
<g id="edge4_Node000004_Node000005" class="edge">
<title>Node4&#45;&gt;Node5</title>
<g id="a_edge4_Node000004_Node000005"><a xlink:title=" ">
<path fill="none" stroke="#63b8ff" d="M751.81,-164.95C767.84,-157.99 787.43,-146.42 797,-129 808.27,-108.47 784.51,-90.25 762.81,-78.65"/>
<polygon fill="#63b8ff" stroke="#63b8ff" points="764.25,-75.46 753.74,-74.09 761.11,-81.71 764.25,-75.46"/>
</a>
</g>
</g>
<!-- Node4&#45;&gt;Node6 -->
<g id="edge5_Node000004_Node000006" class="edge">
<title>Node4&#45;&gt;Node6</title>
<g id="a_edge5_Node000004_Node000006"><a xlink:title=" ">
<path fill="none" stroke="#63b8ff" d="M708.97,-164.84C669.54,-145.92 575.47,-100.77 528.97,-78.45"/>
<polygon fill="#63b8ff" stroke="#63b8ff" points="530.34,-75.22 519.81,-74.05 527.31,-81.53 530.34,-75.22"/>
</a>
</g>
</g>
<!-- Node8 -->
<g id="Node000008" class="node">
<title>Node8</title>
<g id="a_Node000008"><a xlink:href="l4_2sys_2consts_8h.html" target="_top" xlink:title="Common constants.">
<polygon fill="white" stroke="#666666" points="583.5,-129 494.5,-129 494.5,-110 583.5,-110 583.5,-129"/>
<text text-anchor="middle" x="539" y="-117" font-family="Helvetica,sans-Serif" font-size="10.00">l4/sys/consts.h</text>
</a>
</g>
</g>
<!-- Node4&#45;&gt;Node8 -->
<g id="edge7_Node000004_Node000008" class="edge">
<title>Node4&#45;&gt;Node8</title>
<g id="a_edge7_Node000004_Node000008"><a xlink:title=" ">
<path fill="none" stroke="#63b8ff" d="M696.79,-164.98C664.96,-156.01 614.64,-141.82 579.4,-131.89"/>
<polygon fill="#63b8ff" stroke="#63b8ff" points="580.02,-128.43 569.44,-129.08 578.12,-135.16 580.02,-128.43"/>
</a>
</g>
</g>
<!-- Node9 -->
<g id="Node000009" class="node">
<title>Node9</title>
<g id="a_Node000009"><a xlink:href="____l4__fpage_8h_source.html" target="_top" xlink:title=" ">
<polygon fill="white" stroke="#666666" points="788,-129 678,-129 678,-110 788,-110 788,-129"/>
<text text-anchor="middle" x="733" y="-117" font-family="Helvetica,sans-Serif" font-size="10.00">l4/sys/__l4_fpage.h</text>
</a>
</g>
</g>
<!-- Node4&#45;&gt;Node9 -->
<g id="edge10_Node000004_Node000009" class="edge">
<title>Node4&#45;&gt;Node9</title>
<g id="a_edge10_Node000004_Node000009"><a xlink:title=" ">
<path fill="none" stroke="#63b8ff" d="M727.99,-164.75C728.78,-157.8 729.9,-147.85 730.89,-139.13"/>
<polygon fill="#63b8ff" stroke="#63b8ff" points="734.38,-139.42 732.03,-129.09 727.42,-138.63 734.38,-139.42"/>
</a>
</g>
</g>
<!-- Node10 -->
<g id="Node000010" class="node">
<title>Node10</title>
<g id="a_Node000010"><a xlink:href="____timeout_8h_source.html" target="_top" xlink:title=" ">
<polygon fill="white" stroke="#666666" points="950,-129 844,-129 844,-110 950,-110 950,-129"/>
<text text-anchor="middle" x="897" y="-117" font-family="Helvetica,sans-Serif" font-size="10.00">l4/sys/__timeout.h</text>
</a>
</g>
</g>
<!-- Node4&#45;&gt;Node10 -->
<g id="edge12_Node000004_Node000010" class="edge">
<title>Node4&#45;&gt;Node10</title>
<g id="a_edge12_Node000004_Node000010"><a xlink:title=" ">
<path fill="none" stroke="#63b8ff" d="M754.31,-164.98C782.85,-156.09 827.83,-142.07 859.64,-132.15"/>
<polygon fill="#63b8ff" stroke="#63b8ff" points="860.97,-135.4 869.47,-129.08 858.88,-128.72 860.97,-135.4"/>
</a>
</g>
</g>
<!-- Node7 -->
<g id="Node000007" class="node">
<title>Node7</title>
<g id="a_Node000007"><a xlink:title=" ">
<polygon fill="#e0e0e0" stroke="#999999" points="548,-19 456,-19 456,0 548,0 548,-19"/>
<text text-anchor="middle" x="502" y="-7" font-family="Helvetica,sans-Serif" font-size="10.00">l4/sys/linkage.h</text>
</a>
</g>
</g>
<!-- Node6&#45;&gt;Node7 -->
<g id="edge6_Node000006_Node000007" class="edge">
<title>Node6&#45;&gt;Node7</title>
<g id="a_edge6_Node000006_Node000007"><a xlink:title=" ">
<path fill="none" stroke="#63b8ff" d="M502,-54.75C502,-47.8 502,-37.85 502,-29.13"/>
<polygon fill="#63b8ff" stroke="#63b8ff" points="505.5,-29.09 502,-19.09 498.5,-29.09 505.5,-29.09"/>
</a>
</g>
</g>
<!-- Node8&#45;&gt;Node5 -->
<g id="edge9_Node000008_Node000005" class="edge">
<title>Node8&#45;&gt;Node5</title>
<g id="a_edge9_Node000008_Node000005"><a xlink:title=" ">
<path fill="none" stroke="#63b8ff" d="M570.17,-109.98C603.16,-100.97 655.4,-86.7 691.77,-76.76"/>
<polygon fill="#63b8ff" stroke="#63b8ff" points="692.86,-80.09 701.59,-74.08 691.02,-73.34 692.86,-80.09"/>
</a>
</g>
</g>
<!-- Node8&#45;&gt;Node6 -->
<g id="edge8_Node000008_Node000006" class="edge">
<title>Node8&#45;&gt;Node6</title>
<g id="a_edge8_Node000008_Node000006"><a xlink:title=" ">
<path fill="none" stroke="#63b8ff" d="M532.89,-109.75C527.72,-102.34 520.15,-91.5 513.81,-82.41"/>
<polygon fill="#63b8ff" stroke="#63b8ff" points="516.59,-80.29 508,-74.09 510.85,-84.29 516.59,-80.29"/>
</a>
</g>
</g>
<!-- Node9&#45;&gt;Node6 -->
<g id="edge11_Node000009_Node000006" class="edge">
<title>Node9&#45;&gt;Node6</title>
<g id="a_edge11_Node000009_Node000006"><a xlink:title=" ">
<path fill="none" stroke="#63b8ff" d="M695.89,-109.98C656.01,-100.84 592.54,-86.27 549.16,-76.32"/>
<polygon fill="#63b8ff" stroke="#63b8ff" points="549.93,-72.91 539.41,-74.08 548.37,-79.73 549.93,-72.91"/>
</a>
</g>
</g>
<!-- Node10&#45;&gt;Node5 -->
<g id="edge13_Node000010_Node000005" class="edge">
<title>Node10&#45;&gt;Node5</title>
<g id="a_edge13_Node000010_Node000005"><a xlink:title=" ">
<path fill="none" stroke="#63b8ff" d="M870.65,-109.98C843.24,-101.13 800.11,-87.19 769.44,-77.28"/>
<polygon fill="#63b8ff" stroke="#63b8ff" points="770.15,-73.83 759.56,-74.08 768,-80.49 770.15,-73.83"/>
</a>
</g>
</g>
<!-- Node11&#45;&gt;Node3 -->
<g id="edge19_Node000011_Node000003" class="edge">
<title>Node11&#45;&gt;Node3</title>
<g id="a_edge19_Node000011_Node000003"><a xlink:title=" ">
<path fill="none" stroke="#63b8ff" d="M522.72,-274.75C518.29,-267.42 511.84,-256.73 506.38,-247.7"/>
<polygon fill="#63b8ff" stroke="#63b8ff" points="509.35,-245.84 501.19,-239.09 503.36,-249.46 509.35,-245.84"/>
</a>
</g>
</g>
<!-- Node11&#45;&gt;Node4 -->
<g id="edge18_Node000011_Node000004" class="edge">
<title>Node11&#45;&gt;Node4</title>
<g id="a_edge18_Node000011_Node000004"><a xlink:title=" ">
<path fill="none" stroke="#63b8ff" d="M543.95,-274.84C578.6,-256.04 660.98,-211.33 702.37,-188.87"/>
<polygon fill="#63b8ff" stroke="#63b8ff" points="704.13,-191.89 711.25,-184.05 700.79,-185.74 704.13,-191.89"/>
</a>
</g>
</g>
<!-- Node12 -->
<g id="Node000012" class="node">
<title>Node12</title>
<g id="a_Node000012"><a xlink:href="err_8h.html" target="_top" xlink:title="Error codes.">
<polygon fill="white" stroke="#666666" points="98,-239 28,-239 28,-220 98,-220 98,-239"/>
<text text-anchor="middle" x="63" y="-227" font-family="Helvetica,sans-Serif" font-size="10.00">l4/sys/err.h</text>
</a>
</g>
</g>
<!-- Node11&#45;&gt;Node12 -->
<g id="edge20_Node000011_Node000012" class="edge">
<title>Node11&#45;&gt;Node12</title>
<g id="a_edge20_Node000011_Node000012"><a xlink:title=" ">
<path fill="none" stroke="#63b8ff" d="M492.28,-279.43C408.74,-269.91 200.66,-246.19 108.34,-235.67"/>
<polygon fill="#63b8ff" stroke="#63b8ff" points="108.53,-232.17 98.2,-234.51 107.74,-239.12 108.53,-232.17"/>
</a>
</g>
</g>
<!-- Node12&#45;&gt;Node6 -->
<g id="edge21_Node000012_Node000006" class="edge">
<title>Node12&#45;&gt;Node6</title>
<g id="a_edge21_Node000012_Node000006"><a xlink:title=" ">
<path fill="none" stroke="#63b8ff" d="M67.37,-219.6C74.64,-205.72 90.59,-179.08 112,-165 215.02,-97.25 361.31,-75.63 442.28,-68.73"/>
<polygon fill="#63b8ff" stroke="#63b8ff" points="442.61,-72.21 452.3,-67.92 442.05,-65.23 442.61,-72.21"/>
</a>
</g>
</g>
<!-- Node13&#45;&gt;Node4 -->
<g id="edge25_Node000013_Node000004" class="edge">
<title>Node13&#45;&gt;Node4</title>
<g id="a_edge25_Node000013_Node000004"><a xlink:title=" ">
<path fill="none" stroke="#63b8ff" d="M504.29,-676.86C612.1,-669.65 863,-644.97 863,-571.5 863,-571.5 863,-571.5 863,-283.5 863,-233.36 805.62,-202.79 765.4,-187.52"/>
<polygon fill="#63b8ff" stroke="#63b8ff" points="766.44,-184.18 755.84,-184.05 764.05,-190.76 766.44,-184.18"/>
</a>
</g>
</g>
<!-- Node13&#45;&gt;Node8 -->
<g id="edge24_Node000013_Node000008" class="edge">
<title>Node13&#45;&gt;Node8</title>
<g id="a_edge24_Node000013_Node000008"><a xlink:title=" ">
<path fill="none" stroke="#63b8ff" d="M407.63,-672.74C290.27,-654.97 0,-602.36 0,-516.5 0,-516.5 0,-516.5 0,-228.5 0,-130.49 346.98,-120.23 484.15,-120"/>
<polygon fill="#63b8ff" stroke="#63b8ff" points="484.43,-123.5 494.43,-120 484.43,-116.5 484.43,-123.5"/>
</a>
</g>
</g>
<!-- Node14 -->
<g id="Node000014" class="node">
<title>Node14</title>
<g id="a_Node000014"><a xlink:href="kobject_source.html" target="_top" xlink:title=" ">
<polygon fill="white" stroke="#666666" points="570.5,-525 487.5,-525 487.5,-506 570.5,-506 570.5,-525"/>
<text text-anchor="middle" x="529" y="-513" font-family="Helvetica,sans-Serif" font-size="10.00">l4/sys/kobject</text>
</a>
</g>
</g>
<!-- Node13&#45;&gt;Node14 -->
<g id="edge26_Node000013_Node000014" class="edge">
<title>Node13&#45;&gt;Node14</title>
<g id="a_edge26_Node000013_Node000014"><a xlink:title=" ">
<path fill="none" stroke="#63b8ff" d="M459.92,-670.74C471.41,-645.09 505.14,-569.78 520.81,-534.78"/>
<polygon fill="#63b8ff" stroke="#63b8ff" points="524.16,-535.86 525.06,-525.31 517.77,-533 524.16,-535.86"/>
</a>
</g>
</g>
<!-- Node21 -->
<g id="Node000021" class="node">
<title>Node21</title>
<g id="a_Node000021"><a xlink:href="l4_2sys_2task_8h.html" target="_top" xlink:title="Common task related definitions.">
<polygon fill="white" stroke="#666666" points="503,-354.5 425,-354.5 425,-335.5 503,-335.5 503,-354.5"/>
<text text-anchor="middle" x="464" y="-342.5" font-family="Helvetica,sans-Serif" font-size="10.00">l4/sys/task.h</text>
</a>
</g>
</g>
<!-- Node13&#45;&gt;Node21 -->
<g id="edge48_Node000013_Node000021" class="edge">
<title>Node13&#45;&gt;Node21</title>
<g id="a_edge48_Node000013_Node000021"><a xlink:title=" ">
<path fill="none" stroke="#63b8ff" d="M487.74,-670.95C529.87,-657.46 599,-626.88 599,-571.5 599,-571.5 599,-571.5 599,-459.5 599,-407.45 539.48,-374.48 499.48,-358.2"/>
<polygon fill="#63b8ff" stroke="#63b8ff" points="500.62,-354.89 490.03,-354.51 498.07,-361.41 500.62,-354.89"/>
</a>
</g>
</g>
<!-- Node22 -->
<g id="Node000022" class="node">
<title>Node22</title>
<g id="a_Node000022"><a xlink:href="sys_2meta.html" target="_top" xlink:title="Meta interface for getting dynamic type information about objects behind capabilities.">
<polygon fill="white" stroke="#666666" points="372,-635 298,-635 298,-616 372,-616 372,-635"/>
<text text-anchor="middle" x="335" y="-623" font-family="Helvetica,sans-Serif" font-size="10.00">l4/sys/meta</text>
</a>
</g>
</g>
<!-- Node13&#45;&gt;Node22 -->
<g id="edge49_Node000013_Node000022" class="edge">
<title>Node13&#45;&gt;Node22</title>
<g id="a_edge49_Node000013_Node000022"><a xlink:title=" ">
<path fill="none" stroke="#63b8ff" d="M436.56,-670.98C417.01,-662.42 386.62,-649.11 364.18,-639.28"/>
<polygon fill="#63b8ff" stroke="#63b8ff" points="365.36,-635.98 354.79,-635.17 362.55,-642.39 365.36,-635.98"/>
</a>
</g>
</g>
<!-- Node14&#45;&gt;Node4 -->
<g id="edge34_Node000014_Node000004" class="edge">
<title>Node14&#45;&gt;Node4</title>
<g id="a_edge34_Node000014_Node000004"><a xlink:title=" ">
<path fill="none" stroke="#63b8ff" d="M570.78,-508.21C652.37,-494.76 825,-459.97 825,-406.5 825,-406.5 825,-406.5 825,-283.5 825,-240.55 781.97,-207.1 752.93,-189.42"/>
<polygon fill="#63b8ff" stroke="#63b8ff" points="754.47,-186.26 744.07,-184.24 750.94,-192.3 754.47,-186.26"/>
</a>
</g>
</g>
<!-- Node15 -->
<g id="Node000015" class="node">
<title>Node15</title>
<g id="a_Node000015"><a xlink:href="kernel__object_8h.html" target="_top" xlink:title="Kernel object system calls.">
<polygon fill="white" stroke="#666666" points="719.5,-415 628.5,-415 628.5,-396 719.5,-396 719.5,-415"/>
<text text-anchor="middle" x="674" y="-403" font-family="Helvetica,sans-Serif" font-size="10.00">kernel_object.h</text>
</a>
</g>
</g>
<!-- Node14&#45;&gt;Node15 -->
<g id="edge27_Node000014_Node000015" class="edge">
<title>Node14&#45;&gt;Node15</title>
<g id="a_edge27_Node000014_Node000015"><a xlink:title=" ">
<path fill="none" stroke="#63b8ff" d="M540.87,-505.66C565.74,-487.14 623.55,-444.08 654.16,-421.28"/>
<polygon fill="#63b8ff" stroke="#63b8ff" points="656.45,-423.94 662.38,-415.16 652.26,-418.32 656.45,-423.94"/>
</a>
</g>
</g>
<!-- Node17 -->
<g id="Node000017" class="node">
<title>Node17</title>
<g id="a_Node000017"><a xlink:href="____typeinfo_8h.html" target="_top" xlink:title="Type information handling.">
<polygon fill="white" stroke="#666666" points="392.5,-470 315.5,-470 315.5,-451 392.5,-451 392.5,-470"/>
<text text-anchor="middle" x="354" y="-458" font-family="Helvetica,sans-Serif" font-size="10.00">__typeinfo.h</text>
</a>
</g>
</g>
<!-- Node14&#45;&gt;Node17 -->
<g id="edge35_Node000014_Node000017" class="edge">
<title>Node14&#45;&gt;Node17</title>
<g id="a_edge35_Node000014_Node000017"><a xlink:title=" ">
<path fill="none" stroke="#63b8ff" d="M500.88,-505.98C471.38,-497.05 424.81,-482.94 392.03,-473.02"/>
<polygon fill="#63b8ff" stroke="#63b8ff" points="392.92,-469.63 382.34,-470.08 390.89,-476.33 392.92,-469.63"/>
</a>
</g>
</g>
<!-- Node15&#45;&gt;Node3 -->
<g id="edge30_Node000015_Node000003" class="edge">
<title>Node15&#45;&gt;Node3</title>
<g id="a_edge30_Node000015_Node000003"><a xlink:title=" ">
<path fill="none" stroke="#63b8ff" d="M676.78,-395.96C681.01,-381.31 687.33,-350.96 675,-330 646.57,-281.67 585.23,-255.12 542.32,-241.86"/>
<polygon fill="#63b8ff" stroke="#63b8ff" points="543.24,-238.49 532.65,-239 541.25,-245.2 543.24,-238.49"/>
</a>
</g>
</g>
<!-- Node15&#45;&gt;Node4 -->
<g id="edge28_Node000015_Node000004" class="edge">
<title>Node15&#45;&gt;Node4</title>
<g id="a_edge28_Node000015_Node000004"><a xlink:title=" ">
<path fill="none" stroke="#63b8ff" d="M711.15,-395.9C730.16,-389.41 751.65,-378.37 763,-360 796.26,-306.18 758.5,-228.07 738.21,-193.32"/>
<polygon fill="#63b8ff" stroke="#63b8ff" points="740.97,-191.11 732.8,-184.36 734.98,-194.73 740.97,-191.11"/>
</a>
</g>
</g>
<!-- Node15&#45;&gt;Node6 -->
<g id="edge29_Node000015_Node000006" class="edge">
<title>Node15&#45;&gt;Node6</title>
<g id="a_edge29_Node000015_Node000006"><a xlink:title=" ">
<path fill="none" stroke="#63b8ff" d="M679.51,-395.58C687.54,-381.38 700.6,-352.92 692,-330 647.09,-210.23 537.27,-246.19 486,-129 479.46,-114.06 485.27,-95.93 491.65,-82.87"/>
<polygon fill="#63b8ff" stroke="#63b8ff" points="494.76,-84.47 496.44,-74.01 488.6,-81.14 494.76,-84.47"/>
</a>
</g>
</g>
<!-- Node15&#45;&gt;Node11 -->
<g id="edge33_Node000015_Node000011" class="edge">
<title>Node15&#45;&gt;Node11</title>
<g id="a_edge33_Node000015_Node000011"><a xlink:title=" ">
<path fill="none" stroke="#63b8ff" d="M674.14,-395.92C673.93,-380.67 671.28,-348.67 654,-330 633.25,-307.58 600.51,-296.45 573.6,-290.93"/>
<polygon fill="#63b8ff" stroke="#63b8ff" points="574.09,-287.46 563.62,-289.08 572.81,-294.34 574.09,-287.46"/>
</a>
</g>
</g>
<!-- Node16 -->
<g id="Node000016" class="node">
<title>Node16</title>
<g id="a_Node000016"><a xlink:href="____kernel__object__impl_8h.html" target="_top" xlink:title="Low&#45;level kernel debugger functions.">
<polygon fill="white" stroke="#666666" points="645,-360 521,-360 521,-330 645,-330 645,-360"/>
<text text-anchor="start" x="529" y="-348" font-family="Helvetica,sans-Serif" font-size="10.00">l4/sys/__kernel_object</text>
<text text-anchor="middle" x="583" y="-337" font-family="Helvetica,sans-Serif" font-size="10.00">_impl.h</text>
</a>
</g>
</g>
<!-- Node15&#45;&gt;Node16 -->
<g id="edge31_Node000015_Node000016" class="edge">
<title>Node15&#45;&gt;Node16</title>
<g id="a_edge31_Node000015_Node000016"><a xlink:title=" ">
<path fill="none" stroke="#63b8ff" d="M660.57,-395.87C648.23,-387.93 629.47,-375.87 613.49,-365.6"/>
<polygon fill="#63b8ff" stroke="#63b8ff" points="615.26,-362.58 604.96,-360.11 611.48,-368.47 615.26,-362.58"/>
</a>
</g>
</g>
<!-- Node16&#45;&gt;Node11 -->
<g id="edge32_Node000016_Node000011" class="edge">
<title>Node16&#45;&gt;Node11</title>
<g id="a_edge32_Node000016_Node000011"><a xlink:title=" ">
<path fill="none" stroke="#63b8ff" d="M569.69,-329.84C561.7,-321.35 551.52,-310.52 543.22,-301.69"/>
<polygon fill="#63b8ff" stroke="#63b8ff" points="545.64,-299.15 536.24,-294.27 540.54,-303.95 545.64,-299.15"/>
</a>
</g>
</g>
<!-- Node18 -->
<g id="Node000018" class="node">
<title>Node18</title>
<g id="a_Node000018"><a xlink:href="types.html" target="_top" xlink:title=" ">
<polygon fill="white" stroke="#666666" points="407,-354.5 343,-354.5 343,-335.5 407,-335.5 407,-354.5"/>
<text text-anchor="middle" x="375" y="-342.5" font-family="Helvetica,sans-Serif" font-size="10.00">cxx/types</text>
</a>
</g>
</g>
<!-- Node17&#45;&gt;Node18 -->
<g id="edge36_Node000017_Node000018" class="edge">
<title>Node17&#45;&gt;Node18</title>
<g id="a_edge36_Node000017_Node000018"><a xlink:title=" ">
<path fill="none" stroke="#63b8ff" d="M355.58,-450.97C358.95,-432.73 366.94,-389.57 371.55,-364.64"/>
<polygon fill="#63b8ff" stroke="#63b8ff" points="375.03,-365.1 373.4,-354.63 368.14,-363.83 375.03,-365.1"/>
</a>
</g>
</g>
<!-- Node19 -->
<g id="Node000019" class="node">
<title>Node19</title>
<g id="a_Node000019"><a xlink:href="ipc__basics_source.html" target="_top" xlink:title=" ">
<polygon fill="white" stroke="#666666" points="197.5,-415 110.5,-415 110.5,-396 197.5,-396 197.5,-415"/>
<text text-anchor="middle" x="154" y="-403" font-family="Helvetica,sans-Serif" font-size="10.00">cxx/ipc_basics</text>
</a>
</g>
</g>
<!-- Node17&#45;&gt;Node19 -->
<g id="edge37_Node000017_Node000019" class="edge">
<title>Node17&#45;&gt;Node19</title>
<g id="a_edge37_Node000017_Node000019"><a xlink:title=" ">
<path fill="none" stroke="#63b8ff" d="M321.87,-450.98C287.85,-441.97 234,-427.7 196.5,-417.76"/>
<polygon fill="#63b8ff" stroke="#63b8ff" points="196.95,-414.26 186.39,-415.08 195.16,-421.03 196.95,-414.26"/>
</a>
</g>
</g>
<!-- Node20 -->
<g id="Node000020" class="node">
<title>Node20</title>
<g id="a_Node000020"><a xlink:href="capability_8h_source.html" target="_top" xlink:title=" ">
<polygon fill="white" stroke="#666666" points="347,-415 255,-415 255,-396 347,-396 347,-415"/>
<text text-anchor="middle" x="301" y="-403" font-family="Helvetica,sans-Serif" font-size="10.00">cxx/capability.h</text>
</a>
</g>
</g>
<!-- Node17&#45;&gt;Node20 -->
<g id="edge41_Node000017_Node000020" class="edge">
<title>Node17&#45;&gt;Node20</title>
<g id="a_edge41_Node000017_Node000020"><a xlink:title=" ">
<path fill="none" stroke="#63b8ff" d="M345.25,-450.75C337.53,-443.03 326.1,-431.6 316.78,-422.28"/>
<polygon fill="#63b8ff" stroke="#63b8ff" points="319.14,-419.69 309.59,-415.09 314.19,-424.64 319.14,-419.69"/>
</a>
</g>
</g>
<!-- Node19&#45;&gt;Node3 -->
<g id="edge39_Node000019_Node000003" class="edge">
<title>Node19&#45;&gt;Node3</title>
<g id="a_edge39_Node000019_Node000003"><a xlink:title=" ">
<path fill="none" stroke="#63b8ff" d="M194.72,-395.93C223.98,-388.79 263.79,-377.01 296,-360 315.03,-349.95 316.36,-342.32 334,-330 381.29,-296.98 439.51,-262.68 471.69,-244.23"/>
<polygon fill="#63b8ff" stroke="#63b8ff" points="473.48,-247.24 480.43,-239.24 470.01,-241.16 473.48,-247.24"/>
</a>
</g>
</g>
<!-- Node19&#45;&gt;Node12 -->
<g id="edge40_Node000019_Node000012" class="edge">
<title>Node19&#45;&gt;Node12</title>
<g id="a_edge40_Node000019_Node000012"><a xlink:title=" ">
<path fill="none" stroke="#63b8ff" d="M132.8,-395.88C117.62,-388.59 98.01,-376.66 87,-360 64.49,-325.93 61.71,-276.38 62.08,-249.52"/>
<polygon fill="#63b8ff" stroke="#63b8ff" points="65.59,-249.32 62.4,-239.21 58.59,-249.1 65.59,-249.32"/>
</a>
</g>
</g>
<!-- Node19&#45;&gt;Node18 -->
<g id="edge38_Node000019_Node000018" class="edge">
<title>Node19&#45;&gt;Node18</title>
<g id="a_edge38_Node000019_Node000018"><a xlink:title=" ">
<path fill="none" stroke="#63b8ff" d="M189.66,-395.95C225.11,-387.32 280.99,-373.4 329,-360 331.96,-359.17 335.02,-358.3 338.09,-357.4"/>
<polygon fill="#63b8ff" stroke="#63b8ff" points="339.23,-360.71 347.82,-354.5 337.24,-354 339.23,-360.71"/>
</a>
</g>
</g>
<!-- Node20&#45;&gt;Node4 -->
<g id="edge43_Node000020_Node000004" class="edge">
<title>Node20&#45;&gt;Node4</title>
<g id="a_edge43_Node000020_Node000004"><a xlink:title=" ">
<path fill="none" stroke="#63b8ff" d="M254.89,-403.65C222.08,-400.32 180.04,-389.94 158,-360 150.1,-349.26 151.45,-341.61 158,-330 181.22,-288.84 207.92,-298.36 249,-275 294.11,-249.35 302.49,-235.55 352,-220 463.19,-185.08 600.77,-177.2 674.48,-175.64"/>
<polygon fill="#63b8ff" stroke="#63b8ff" points="674.95,-179.14 684.88,-175.46 674.82,-172.14 674.95,-179.14"/>
</a>
</g>
</g>
<!-- Node20&#45;&gt;Node8 -->
<g id="edge42_Node000020_Node000008" class="edge">
<title>Node20&#45;&gt;Node8</title>
<g id="a_edge42_Node000020_Node000008"><a xlink:title=" ">
<path fill="none" stroke="#63b8ff" d="M254.66,-397.15C214.8,-389.77 161.78,-377.05 149,-360 141.01,-349.33 144.25,-342.46 149,-330 200.86,-193.82 389.81,-144.44 484.35,-127.99"/>
<polygon fill="#63b8ff" stroke="#63b8ff" points="485.02,-131.43 494.3,-126.32 483.86,-124.52 485.02,-131.43"/>
</a>
</g>
</g>
<!-- Node20&#45;&gt;Node21 -->
<g id="edge44_Node000020_Node000021" class="edge">
<title>Node20&#45;&gt;Node21</title>
<g id="a_edge44_Node000020_Node000021"><a xlink:title=" ">
<path fill="none" stroke="#63b8ff" d="M324.7,-395.99C352.59,-385.99 399.07,-369.3 430.6,-357.99"/>
<polygon fill="#63b8ff" stroke="#63b8ff" points="432.04,-361.19 440.27,-354.52 429.68,-354.6 432.04,-361.19"/>
</a>
</g>
</g>
<!-- Node21&#45;&gt;Node3 -->
<g id="edge46_Node000021_Node000003" class="edge">
<title>Node21&#45;&gt;Node3</title>
<g id="a_edge46_Node000021_Node000003"><a xlink:title=" ">
<path fill="none" stroke="#63b8ff" d="M466.41,-335.47C471.57,-317.15 483.83,-273.68 490.84,-248.81"/>
<polygon fill="#63b8ff" stroke="#63b8ff" points="494.22,-249.7 493.57,-239.13 487.48,-247.8 494.22,-249.7"/>
</a>
</g>
</g>
<!-- Node21&#45;&gt;Node4 -->
<g id="edge45_Node000021_Node000004" class="edge">
<title>Node21&#45;&gt;Node4</title>
<g id="a_edge45_Node000021_Node000004"><a xlink:title=" ">
<path fill="none" stroke="#63b8ff" d="M486.46,-335.44C509.03,-326.44 544.48,-311.21 573,-294 626.14,-261.93 682.43,-214.76 709.9,-190.75"/>
<polygon fill="#63b8ff" stroke="#63b8ff" points="712.28,-193.32 717.47,-184.08 707.65,-188.07 712.28,-193.32"/>
</a>
</g>
</g>
<!-- Node21&#45;&gt;Node11 -->
<g id="edge47_Node000021_Node000011" class="edge">
<title>Node21&#45;&gt;Node11</title>
<g id="a_edge47_Node000021_Node000011"><a xlink:title=" ">
<path fill="none" stroke="#63b8ff" d="M473.44,-335.37C483.27,-326.38 498.89,-312.11 510.89,-301.14"/>
<polygon fill="#63b8ff" stroke="#63b8ff" points="513.5,-303.5 518.52,-294.17 508.78,-298.33 513.5,-303.5"/>
</a>
</g>
</g>
<!-- Node22&#45;&gt;Node14 -->
<g id="edge50_Node000022_Node000014" class="edge">
<title>Node22&#45;&gt;Node14</title>
<g id="a_edge50_Node000022_Node000014"><a xlink:title=" ">
<path fill="none" stroke="#63b8ff" d="M350.55,-615.84C384.26,-597.08 464.3,-552.52 504.73,-530.01"/>
<polygon fill="#63b8ff" stroke="#63b8ff" points="506.61,-532.97 513.65,-525.05 503.21,-526.85 506.61,-532.97"/>
</a>
</g>
</g>
<!-- Node22&#45;&gt;Node23 -->
<g id="edge51_Node000022_Node000023" class="edge">
<title>Node22&#45;&gt;Node23</title>
<g id="a_edge51_Node000022_Node000023"><a xlink:title=" ">
<path fill="none" stroke="#63b8ff" d="M311.05,-615.93C288.14,-607.51 252.75,-593.92 223,-580 189.7,-564.42 152.61,-543.68 129.29,-530.21"/>
<polygon fill="#63b8ff" stroke="#63b8ff" points="130.89,-527.09 120.49,-525.09 127.37,-533.14 130.89,-527.09"/>
</a>
</g>
</g>
<!-- Node25 -->
<g id="Node000025" class="node">
<title>Node25</title>
<g id="a_Node000025"><a xlink:href="ipc__string_source.html" target="_top" xlink:title=" ">
<polygon fill="white" stroke="#666666" points="316,-580 232,-580 232,-561 316,-561 316,-580"/>
<text text-anchor="middle" x="274" y="-568" font-family="Helvetica,sans-Serif" font-size="10.00">cxx/ipc_string</text>
</a>
</g>
</g>
<!-- Node22&#45;&gt;Node25 -->
<g id="edge58_Node000022_Node000025" class="edge">
<title>Node22&#45;&gt;Node25</title>
<g id="a_edge58_Node000022_Node000025"><a xlink:title=" ">
<path fill="none" stroke="#63b8ff" d="M325.2,-615.98C316.18,-608.15 302.59,-596.34 291.68,-586.86"/>
<polygon fill="#63b8ff" stroke="#63b8ff" points="293.82,-584.09 283.98,-580.17 289.23,-589.37 293.82,-584.09"/>
</a>
</g>
</g>
<!-- Node23&#45;&gt;Node17 -->
<g id="edge57_Node000023_Node000017" class="edge">
<title>Node23&#45;&gt;Node17</title>
<g id="a_edge57_Node000023_Node000017"><a xlink:title=" ">
<path fill="none" stroke="#63b8ff" d="M145.85,-505.98C189.34,-496.69 259,-481.8 305.61,-471.84"/>
<polygon fill="#63b8ff" stroke="#63b8ff" points="306.43,-475.25 315.48,-469.73 304.97,-468.4 306.43,-475.25"/>
</a>
</g>
</g>
<!-- Node23&#45;&gt;Node19 -->
<g id="edge52_Node000023_Node000019" class="edge">
<title>Node23&#45;&gt;Node19</title>
<g id="a_edge52_Node000023_Node000019"><a xlink:title=" ">
<path fill="none" stroke="#63b8ff" d="M102.95,-505.81C99.04,-493.12 93.68,-469.06 102,-451 107.75,-438.52 118.91,-428.24 129.42,-420.71"/>
<polygon fill="#63b8ff" stroke="#63b8ff" points="131.57,-423.49 137.97,-415.05 127.7,-417.65 131.57,-423.49"/>
</a>
</g>
</g>
<!-- Node24 -->
<g id="Node000024" class="node">
<title>Node24</title>
<g id="a_Node000024"><a xlink:href="ipc__types.html" target="_top" xlink:title=" ">
<polygon fill="white" stroke="#666666" points="297.5,-470 182.5,-470 182.5,-451 297.5,-451 297.5,-470"/>
<text text-anchor="middle" x="240" y="-458" font-family="Helvetica,sans-Serif" font-size="10.00">l4/sys/cxx/ipc_types</text>
</a>
</g>
</g>
<!-- Node23&#45;&gt;Node24 -->
<g id="edge53_Node000023_Node000024" class="edge">
<title>Node23&#45;&gt;Node24</title>
<g id="a_edge53_Node000023_Node000024"><a xlink:title=" ">
<path fill="none" stroke="#63b8ff" d="M127.53,-505.98C149.47,-497.3 183.74,-483.75 208.69,-473.88"/>
<polygon fill="#63b8ff" stroke="#63b8ff" points="210.07,-477.1 218.08,-470.17 207.49,-470.59 210.07,-477.1"/>
</a>
</g>
</g>
<!-- Node24&#45;&gt;Node18 -->
<g id="edge55_Node000024_Node000018" class="edge">
<title>Node24&#45;&gt;Node18</title>
<g id="a_edge55_Node000024_Node000018"><a xlink:title=" ">
<path fill="none" stroke="#63b8ff" d="M238.17,-450.68C235.94,-437.39 233.84,-412.07 246,-396 251.93,-388.16 302.97,-369.92 339.04,-357.77"/>
<polygon fill="#63b8ff" stroke="#63b8ff" points="340.39,-361.01 348.77,-354.52 338.18,-354.37 340.39,-361.01"/>
</a>
</g>
</g>
<!-- Node24&#45;&gt;Node19 -->
<g id="edge56_Node000024_Node000019" class="edge">
<title>Node24&#45;&gt;Node19</title>
<g id="a_edge56_Node000024_Node000019"><a xlink:title=" ">
<path fill="none" stroke="#63b8ff" d="M226.18,-450.98C212.85,-442.77 192.42,-430.18 176.69,-420.49"/>
<polygon fill="#63b8ff" stroke="#63b8ff" points="178.42,-417.44 168.07,-415.17 174.75,-423.4 178.42,-417.44"/>
</a>
</g>
</g>
<!-- Node24&#45;&gt;Node20 -->
<g id="edge54_Node000024_Node000020" class="edge">
<title>Node24&#45;&gt;Node20</title>
<g id="a_edge54_Node000024_Node000020"><a xlink:title=" ">
<path fill="none" stroke="#63b8ff" d="M249.8,-450.98C258.82,-443.15 272.41,-431.34 283.32,-421.86"/>
<polygon fill="#63b8ff" stroke="#63b8ff" points="285.77,-424.37 291.02,-415.17 281.18,-419.09 285.77,-424.37"/>
</a>
</g>
</g>
<!-- Node25&#45;&gt;Node18 -->
<g id="edge59_Node000025_Node000018" class="edge">
<title>Node25&#45;&gt;Node18</title>
<g id="a_edge59_Node000025_Node000018"><a xlink:title=" ">
<path fill="none" stroke="#63b8ff" d="M299,-560.97C333.52,-547.68 394.41,-518.41 420,-470 435.37,-440.92 431.78,-426.71 420,-396 414.84,-382.54 404.19,-370.44 394.55,-361.51"/>
<polygon fill="#63b8ff" stroke="#63b8ff" points="396.67,-358.72 386.83,-354.8 392.08,-364 396.67,-358.72"/>
</a>
</g>
</g>
<!-- Node25&#45;&gt;Node19 -->
<g id="edge60_Node000025_Node000019" class="edge">
<title>Node25&#45;&gt;Node19</title>
<g id="a_edge60_Node000025_Node000019"><a xlink:title=" ">
<path fill="none" stroke="#63b8ff" d="M256.51,-560.85C229.5,-546.37 178.72,-514.4 159,-470 152.75,-455.93 151.82,-438.38 152.27,-425.3"/>
<polygon fill="#63b8ff" stroke="#63b8ff" points="155.77,-425.36 152.92,-415.16 148.79,-424.91 155.77,-425.36"/>
</a>
</g>
</g>
<!-- Node26 -->
<g id="Node000026" class="node">
<title>Node26</title>
<g id="a_Node000026"><a xlink:href="ipc__array_source.html" target="_top" xlink:title=" ">
<polygon fill="white" stroke="#666666" points="282,-525 220,-525 220,-506 282,-506 282,-525"/>
<text text-anchor="middle" x="251" y="-513" font-family="Helvetica,sans-Serif" font-size="10.00">ipc_array</text>
</a>
</g>
</g>
<!-- Node25&#45;&gt;Node26 -->
<g id="edge61_Node000025_Node000026" class="edge">
<title>Node25&#45;&gt;Node26</title>
<g id="a_edge61_Node000025_Node000026"><a xlink:title=" ">
<path fill="none" stroke="#63b8ff" d="M270.2,-560.75C267.09,-553.57 262.58,-543.18 258.71,-534.27"/>
<polygon fill="#63b8ff" stroke="#63b8ff" points="261.92,-532.87 254.73,-525.09 255.5,-535.66 261.92,-532.87"/>
</a>
</g>
</g>
<!-- Node26&#45;&gt;Node18 -->
<g id="edge62_Node000026_Node000018" class="edge">
<title>Node26&#45;&gt;Node18</title>
<g id="a_edge62_Node000026_Node000018"><a xlink:title=" ">
<path fill="none" stroke="#63b8ff" d="M282.2,-515.38C317.73,-514.49 374.42,-506.88 402,-470 425.87,-438.08 402.52,-389.36 386.77,-363.52"/>
<polygon fill="#63b8ff" stroke="#63b8ff" points="389.55,-361.36 381.22,-354.81 383.65,-365.13 389.55,-361.36"/>
</a>
</g>
</g>
<!-- Node26&#45;&gt;Node19 -->
<g id="edge63_Node000026_Node000019" class="edge">
<title>Node26&#45;&gt;Node19</title>
<g id="a_edge63_Node000026_Node000019"><a xlink:title=" ">
<path fill="none" stroke="#63b8ff" d="M225.83,-505.89C208.63,-498.79 186.58,-487.09 173,-470 162.82,-457.19 158.09,-439.02 155.89,-425.4"/>
<polygon fill="#63b8ff" stroke="#63b8ff" points="159.33,-424.71 154.58,-415.24 152.39,-425.61 159.33,-424.71"/>
</a>
</g>
</g>
<!-- Node26&#45;&gt;Node24 -->
<g id="edge64_Node000026_Node000024" class="edge">
<title>Node26&#45;&gt;Node24</title>
<g id="a_edge64_Node000026_Node000024"><a xlink:title=" ">
<path fill="none" stroke="#63b8ff" d="M249.18,-505.75C247.74,-498.8 245.68,-488.85 243.87,-480.13"/>
<polygon fill="#63b8ff" stroke="#63b8ff" points="247.24,-479.17 241.78,-470.09 240.39,-480.59 247.24,-479.17"/>
</a>
</g>
</g>
</g>
</svg>
