<?xml version="1.0" encoding="UTF-8" standalone="no"?>
<!DOCTYPE svg PUBLIC "-//W3C//DTD SVG 1.1//EN"
 "http://www.w3.org/Graphics/SVG/1.1/DTD/svg11.dtd">
<!-- Generated by graphviz version 2.42.4 (0)
 -->
<!-- Title: l4/sys/rcv_endpoint Pages: 1 -->
<svg width="1077pt" height="753pt"
 viewBox="0.00 0.00 1076.58 753.00" xmlns="http://www.w3.org/2000/svg" xmlns:xlink="http://www.w3.org/1999/xlink">
<g id="graph0" class="graph" transform="scale(1 1) rotate(0) translate(4 749)">
<title>l4/sys/rcv_endpoint</title>
<!-- Node1 -->
<g id="Node000001" class="node">
<title>Node1</title>
<g id="a_Node000001"><a xlink:title="The C++ Receive endpoint interface.">
<polygon fill="#999999" stroke="#666666" points="836.08,-745 725.08,-745 725.08,-726 836.08,-726 836.08,-745"/>
<text text-anchor="middle" x="780.58" y="-733" font-family="Helvetica,sans-Serif" font-size="10.00">l4/sys/rcv_endpoint</text>
</a>
</g>
</g>
<!-- Node2 -->
<g id="Node000002" class="node">
<title>Node2</title>
<g id="a_Node000002"><a xlink:href="rcv__endpoint_8h.html" target="_top" xlink:title="Receive endpoint C interface.">
<polygon fill="white" stroke="#666666" points="149.58,-354.5 29.58,-354.5 29.58,-335.5 149.58,-335.5 149.58,-354.5"/>
<text text-anchor="middle" x="89.58" y="-342.5" font-family="Helvetica,sans-Serif" font-size="10.00">l4/sys/rcv_endpoint.h</text>
</a>
</g>
</g>
<!-- Node1&#45;&gt;Node2 -->
<g id="edge1_Node000001_Node000002" class="edge">
<title>Node1&#45;&gt;Node2</title>
<g id="a_edge1_Node000001_Node000002"><a xlink:title=" ">
<path fill="none" stroke="#63b8ff" d="M724.99,-730.94C569.53,-720.24 141.58,-685.43 141.58,-626.5 141.58,-626.5 141.58,-626.5 141.58,-459.5 141.58,-422.31 118.21,-383.98 102.81,-362.75"/>
<polygon fill="#63b8ff" stroke="#63b8ff" points="105.41,-360.38 96.59,-354.5 99.82,-364.59 105.41,-360.38"/>
</a>
</g>
</g>
<!-- Node4 -->
<g id="Node000004" class="node">
<title>Node4</title>
<g id="a_Node000004"><a xlink:href="l4_2sys_2types_8h.html" target="_top" xlink:title="Common L4 ABI Data Types.">
<polygon fill="white" stroke="#666666" points="582.58,-184 498.58,-184 498.58,-165 582.58,-165 582.58,-184"/>
<text text-anchor="middle" x="540.58" y="-172" font-family="Helvetica,sans-Serif" font-size="10.00">l4/sys/types.h</text>
</a>
</g>
</g>
<!-- Node1&#45;&gt;Node4 -->
<g id="edge23_Node000001_Node000004" class="edge">
<title>Node1&#45;&gt;Node4</title>
<g id="a_edge23_Node000001_Node000004"><a xlink:title=" ">
<path fill="none" stroke="#63b8ff" d="M836.37,-733.95C910.06,-729.94 1030.58,-710.54 1030.58,-626.5 1030.58,-626.5 1030.58,-626.5 1030.58,-404.5 1030.58,-212.93 719.38,-181.26 592.99,-176.29"/>
<polygon fill="#63b8ff" stroke="#63b8ff" points="592.9,-172.79 582.78,-175.94 592.65,-179.79 592.9,-172.79"/>
</a>
</g>
</g>
<!-- Node13 -->
<g id="Node000013" class="node">
<title>Node13</title>
<g id="a_Node000013"><a xlink:href="capability.html" target="_top" xlink:title="L4::Cap related definitions.">
<polygon fill="white" stroke="#666666" points="701.58,-690 605.58,-690 605.58,-671 701.58,-671 701.58,-690"/>
<text text-anchor="middle" x="653.58" y="-678" font-family="Helvetica,sans-Serif" font-size="10.00">l4/sys/capability</text>
</a>
</g>
</g>
<!-- Node1&#45;&gt;Node13 -->
<g id="edge24_Node000001_Node000013" class="edge">
<title>Node1&#45;&gt;Node13</title>
<g id="a_edge24_Node000001_Node000013"><a xlink:title=" ">
<path fill="none" stroke="#63b8ff" d="M760.18,-725.98C739.56,-717.38 707.47,-703.99 683.89,-694.15"/>
<polygon fill="#63b8ff" stroke="#63b8ff" points="684.93,-690.79 674.36,-690.17 682.24,-697.25 684.93,-690.79"/>
</a>
</g>
</g>
<!-- Node23 -->
<g id="Node000023" class="node">
<title>Node23</title>
<g id="a_Node000023"><a xlink:href="ipc__iface.html" target="_top" xlink:title="Interface Definition Language.">
<polygon fill="white" stroke="#666666" points="746.58,-525 666.58,-525 666.58,-506 746.58,-506 746.58,-525"/>
<text text-anchor="middle" x="706.58" y="-513" font-family="Helvetica,sans-Serif" font-size="10.00">cxx/ipc_iface</text>
</a>
</g>
</g>
<!-- Node1&#45;&gt;Node23 -->
<g id="edge66_Node000001_Node000023" class="edge">
<title>Node1&#45;&gt;Node23</title>
<g id="a_edge66_Node000001_Node000023"><a xlink:title=" ">
<path fill="none" stroke="#63b8ff" d="M777.68,-725.95C766.77,-693.81 728.04,-579.72 712.8,-534.83"/>
<polygon fill="#63b8ff" stroke="#63b8ff" points="716.07,-533.57 709.54,-525.22 709.44,-535.82 716.07,-533.57"/>
</a>
</g>
</g>
<!-- Node3 -->
<g id="Node000003" class="node">
<title>Node3</title>
<g id="a_Node000003"><a xlink:href="l4_2sys_2utcb_8h.html" target="_top" xlink:title="UTCB definitions.">
<polygon fill="white" stroke="#666666" points="387.58,-239 309.58,-239 309.58,-220 387.58,-220 387.58,-239"/>
<text text-anchor="middle" x="348.58" y="-227" font-family="Helvetica,sans-Serif" font-size="10.00">l4/sys/utcb.h</text>
</a>
</g>
</g>
<!-- Node2&#45;&gt;Node3 -->
<g id="edge2_Node000002_Node000003" class="edge">
<title>Node2&#45;&gt;Node3</title>
<g id="a_edge2_Node000002_Node000003"><a xlink:title=" ">
<path fill="none" stroke="#63b8ff" d="M96.31,-335.29C108.22,-320.52 134.49,-290.64 163.58,-275 206.18,-252.1 260.57,-240.84 299.32,-235.39"/>
<polygon fill="#63b8ff" stroke="#63b8ff" points="299.87,-238.85 309.32,-234.07 298.95,-231.91 299.87,-238.85"/>
</a>
</g>
</g>
<!-- Node2&#45;&gt;Node4 -->
<g id="edge17_Node000002_Node000004" class="edge">
<title>Node2&#45;&gt;Node4</title>
<g id="a_edge17_Node000002_Node000004"><a xlink:title=" ">
<path fill="none" stroke="#63b8ff" d="M92.52,-335.44C97.95,-320.9 110.9,-291.36 131.58,-275 237.76,-190.99 404.47,-176.47 488.49,-174.85"/>
<polygon fill="#63b8ff" stroke="#63b8ff" points="488.61,-178.35 498.56,-174.71 488.51,-171.35 488.61,-178.35"/>
</a>
</g>
</g>
<!-- Node11 -->
<g id="Node000011" class="node">
<title>Node11</title>
<g id="a_Node000011"><a xlink:href="l4_2sys_2ipc_8h.html" target="_top" xlink:title="Common IPC interface.">
<polygon fill="white" stroke="#666666" points="387.08,-294 316.08,-294 316.08,-275 387.08,-275 387.08,-294"/>
<text text-anchor="middle" x="351.58" y="-282" font-family="Helvetica,sans-Serif" font-size="10.00">l4/sys/ipc.h</text>
</a>
</g>
</g>
<!-- Node2&#45;&gt;Node11 -->
<g id="edge18_Node000002_Node000011" class="edge">
<title>Node2&#45;&gt;Node11</title>
<g id="a_edge18_Node000002_Node000011"><a xlink:title=" ">
<path fill="none" stroke="#63b8ff" d="M127.68,-335.49C174.95,-324.94 255.46,-306.96 305.97,-295.68"/>
<polygon fill="#63b8ff" stroke="#63b8ff" points="306.96,-299.05 315.96,-293.45 305.44,-292.22 306.96,-299.05"/>
</a>
</g>
</g>
<!-- Node3&#45;&gt;Node4 -->
<g id="edge3_Node000003_Node000004" class="edge">
<title>Node3&#45;&gt;Node4</title>
<g id="a_edge3_Node000003_Node000004"><a xlink:title=" ">
<path fill="none" stroke="#63b8ff" d="M379.43,-219.98C412.08,-210.97 463.78,-196.7 499.78,-186.76"/>
<polygon fill="#63b8ff" stroke="#63b8ff" points="500.78,-190.12 509.49,-184.08 498.92,-183.37 500.78,-190.12"/>
</a>
</g>
</g>
<!-- Node5 -->
<g id="Node000005" class="node">
<title>Node5</title>
<g id="a_Node000005"><a xlink:href="l4_2sys_2l4int_8h.html" target="_top" xlink:title="Fixed sized integer types, generic version.">
<polygon fill="white" stroke="#666666" points="751.08,-74 672.08,-74 672.08,-55 751.08,-55 751.08,-74"/>
<text text-anchor="middle" x="711.58" y="-62" font-family="Helvetica,sans-Serif" font-size="10.00">l4/sys/l4int.h</text>
</a>
</g>
</g>
<!-- Node3&#45;&gt;Node5 -->
<g id="edge16_Node000003_Node000005" class="edge">
<title>Node3&#45;&gt;Node5</title>
<g id="a_edge16_Node000003_Node000005"><a xlink:title=" ">
<path fill="none" stroke="#63b8ff" d="M367.21,-219.93C409.96,-200.28 518.43,-150.57 609.58,-110 634,-99.13 661.82,-87.01 682.23,-78.17"/>
<polygon fill="#63b8ff" stroke="#63b8ff" points="683.82,-81.29 691.61,-74.11 681.04,-74.87 683.82,-81.29"/>
</a>
</g>
</g>
<!-- Node6 -->
<g id="Node000006" class="node">
<title>Node6</title>
<g id="a_Node000006"><a xlink:href="compiler_8h.html" target="_top" xlink:title="L4 compiler related defines.">
<polygon fill="white" stroke="#666666" points="564.08,-74 465.08,-74 465.08,-55 564.08,-55 564.08,-74"/>
<text text-anchor="middle" x="514.58" y="-62" font-family="Helvetica,sans-Serif" font-size="10.00">l4/sys/compiler.h</text>
</a>
</g>
</g>
<!-- Node3&#45;&gt;Node6 -->
<g id="edge15_Node000003_Node000006" class="edge">
<title>Node3&#45;&gt;Node6</title>
<g id="a_edge15_Node000003_Node000006"><a xlink:title=" ">
<path fill="none" stroke="#63b8ff" d="M347.15,-219.78C344.16,-198.25 339.62,-142.01 367.58,-110 389.25,-85.19 424.24,-73.96 454.64,-68.99"/>
<polygon fill="#63b8ff" stroke="#63b8ff" points="455.35,-72.42 464.75,-67.53 454.35,-65.49 455.35,-72.42"/>
</a>
</g>
</g>
<!-- Node4&#45;&gt;Node5 -->
<g id="edge4_Node000004_Node000005" class="edge">
<title>Node4&#45;&gt;Node5</title>
<g id="a_edge4_Node000004_Node000005"><a xlink:title=" ">
<path fill="none" stroke="#63b8ff" d="M582.89,-169.79C633.9,-164.34 715.11,-152.21 733.58,-129 744.43,-115.37 735.14,-96.04 725.51,-82.3"/>
<polygon fill="#63b8ff" stroke="#63b8ff" points="728.19,-80.03 719.35,-74.18 722.61,-84.26 728.19,-80.03"/>
</a>
</g>
</g>
<!-- Node4&#45;&gt;Node6 -->
<g id="edge5_Node000004_Node000006" class="edge">
<title>Node4&#45;&gt;Node6</title>
<g id="a_edge5_Node000004_Node000006"><a xlink:title=" ">
<path fill="none" stroke="#63b8ff" d="M538.45,-164.66C534.22,-147.09 524.68,-107.45 519.02,-83.95"/>
<polygon fill="#63b8ff" stroke="#63b8ff" points="522.41,-83.06 516.67,-74.16 515.6,-84.7 522.41,-83.06"/>
</a>
</g>
</g>
<!-- Node8 -->
<g id="Node000008" class="node">
<title>Node8</title>
<g id="a_Node000008"><a xlink:href="l4_2sys_2consts_8h.html" target="_top" xlink:title="Common constants.">
<polygon fill="white" stroke="#666666" points="870.08,-129 781.08,-129 781.08,-110 870.08,-110 870.08,-129"/>
<text text-anchor="middle" x="825.58" y="-117" font-family="Helvetica,sans-Serif" font-size="10.00">l4/sys/consts.h</text>
</a>
</g>
</g>
<!-- Node4&#45;&gt;Node8 -->
<g id="edge7_Node000004_Node000008" class="edge">
<title>Node4&#45;&gt;Node8</title>
<g id="a_edge7_Node000004_Node000008"><a xlink:title=" ">
<path fill="none" stroke="#63b8ff" d="M582.63,-165.68C632.63,-156.38 716.2,-140.84 771.1,-130.63"/>
<polygon fill="#63b8ff" stroke="#63b8ff" points="771.81,-134.06 781.01,-128.79 770.53,-127.18 771.81,-134.06"/>
</a>
</g>
</g>
<!-- Node9 -->
<g id="Node000009" class="node">
<title>Node9</title>
<g id="a_Node000009"><a xlink:href="____l4__fpage_8h_source.html" target="_top" xlink:title=" ">
<polygon fill="white" stroke="#666666" points="486.58,-129 376.58,-129 376.58,-110 486.58,-110 486.58,-129"/>
<text text-anchor="middle" x="431.58" y="-117" font-family="Helvetica,sans-Serif" font-size="10.00">l4/sys/__l4_fpage.h</text>
</a>
</g>
</g>
<!-- Node4&#45;&gt;Node9 -->
<g id="edge10_Node000004_Node000009" class="edge">
<title>Node4&#45;&gt;Node9</title>
<g id="a_edge10_Node000004_Node000009"><a xlink:title=" ">
<path fill="none" stroke="#63b8ff" d="M523.07,-164.98C505.61,-156.5 478.57,-143.35 458.41,-133.54"/>
<polygon fill="#63b8ff" stroke="#63b8ff" points="459.94,-130.4 449.41,-129.17 456.87,-136.69 459.94,-130.4"/>
</a>
</g>
</g>
<!-- Node10 -->
<g id="Node000010" class="node">
<title>Node10</title>
<g id="a_Node000010"><a xlink:href="____timeout_8h_source.html" target="_top" xlink:title=" ">
<polygon fill="white" stroke="#666666" points="724.58,-129 618.58,-129 618.58,-110 724.58,-110 724.58,-129"/>
<text text-anchor="middle" x="671.58" y="-117" font-family="Helvetica,sans-Serif" font-size="10.00">l4/sys/__timeout.h</text>
</a>
</g>
</g>
<!-- Node4&#45;&gt;Node10 -->
<g id="edge12_Node000004_Node000010" class="edge">
<title>Node4&#45;&gt;Node10</title>
<g id="a_edge12_Node000004_Node000010"><a xlink:title=" ">
<path fill="none" stroke="#63b8ff" d="M561.63,-164.98C582.99,-156.34 616.29,-142.87 640.65,-133.02"/>
<polygon fill="#63b8ff" stroke="#63b8ff" points="642.19,-136.17 650.15,-129.17 639.57,-129.68 642.19,-136.17"/>
</a>
</g>
</g>
<!-- Node7 -->
<g id="Node000007" class="node">
<title>Node7</title>
<g id="a_Node000007"><a xlink:title=" ">
<polygon fill="#e0e0e0" stroke="#999999" points="560.58,-19 468.58,-19 468.58,0 560.58,0 560.58,-19"/>
<text text-anchor="middle" x="514.58" y="-7" font-family="Helvetica,sans-Serif" font-size="10.00">l4/sys/linkage.h</text>
</a>
</g>
</g>
<!-- Node6&#45;&gt;Node7 -->
<g id="edge6_Node000006_Node000007" class="edge">
<title>Node6&#45;&gt;Node7</title>
<g id="a_edge6_Node000006_Node000007"><a xlink:title=" ">
<path fill="none" stroke="#63b8ff" d="M514.58,-54.75C514.58,-47.8 514.58,-37.85 514.58,-29.13"/>
<polygon fill="#63b8ff" stroke="#63b8ff" points="518.08,-29.09 514.58,-19.09 511.08,-29.09 518.08,-29.09"/>
</a>
</g>
</g>
<!-- Node8&#45;&gt;Node5 -->
<g id="edge9_Node000008_Node000005" class="edge">
<title>Node8&#45;&gt;Node5</title>
<g id="a_edge9_Node000008_Node000005"><a xlink:title=" ">
<path fill="none" stroke="#63b8ff" d="M807.26,-109.98C788.93,-101.46 760.47,-88.23 739.35,-78.41"/>
<polygon fill="#63b8ff" stroke="#63b8ff" points="740.77,-75.21 730.23,-74.17 737.82,-81.56 740.77,-75.21"/>
</a>
</g>
</g>
<!-- Node8&#45;&gt;Node6 -->
<g id="edge8_Node000008_Node000006" class="edge">
<title>Node8&#45;&gt;Node6</title>
<g id="a_edge8_Node000008_Node000006"><a xlink:title=" ">
<path fill="none" stroke="#63b8ff" d="M781.02,-110.91C726.72,-101.65 634.76,-85.98 574.35,-75.69"/>
<polygon fill="#63b8ff" stroke="#63b8ff" points="574.64,-72.19 564.2,-73.96 573.47,-79.09 574.64,-72.19"/>
</a>
</g>
</g>
<!-- Node9&#45;&gt;Node6 -->
<g id="edge11_Node000009_Node000006" class="edge">
<title>Node9&#45;&gt;Node6</title>
<g id="a_edge11_Node000009_Node000006"><a xlink:title=" ">
<path fill="none" stroke="#63b8ff" d="M444.92,-109.98C457.67,-101.84 477.13,-89.41 492.25,-79.76"/>
<polygon fill="#63b8ff" stroke="#63b8ff" points="494.46,-82.5 501,-74.17 490.69,-76.6 494.46,-82.5"/>
</a>
</g>
</g>
<!-- Node10&#45;&gt;Node5 -->
<g id="edge13_Node000010_Node000005" class="edge">
<title>Node10&#45;&gt;Node5</title>
<g id="a_edge13_Node000010_Node000005"><a xlink:title=" ">
<path fill="none" stroke="#63b8ff" d="M678.19,-109.75C683.84,-102.26 692.13,-91.28 699.03,-82.13"/>
<polygon fill="#63b8ff" stroke="#63b8ff" points="701.87,-84.18 705.1,-74.09 696.28,-79.96 701.87,-84.18"/>
</a>
</g>
</g>
<!-- Node10&#45;&gt;Node6 -->
<g id="edge14_Node000010_Node000006" class="edge">
<title>Node10&#45;&gt;Node6</title>
<g id="a_edge14_Node000010_Node000006"><a xlink:title=" ">
<path fill="none" stroke="#63b8ff" d="M646.36,-109.98C620.23,-101.16 579.18,-87.31 549.85,-77.41"/>
<polygon fill="#63b8ff" stroke="#63b8ff" points="550.6,-73.96 540,-74.08 548.36,-80.6 550.6,-73.96"/>
</a>
</g>
</g>
<!-- Node11&#45;&gt;Node3 -->
<g id="edge20_Node000011_Node000003" class="edge">
<title>Node11&#45;&gt;Node3</title>
<g id="a_edge20_Node000011_Node000003"><a xlink:title=" ">
<path fill="none" stroke="#63b8ff" d="M351.09,-274.75C350.69,-267.8 350.13,-257.85 349.64,-249.13"/>
<polygon fill="#63b8ff" stroke="#63b8ff" points="353.13,-248.88 349.07,-239.09 346.14,-249.27 353.13,-248.88"/>
</a>
</g>
</g>
<!-- Node11&#45;&gt;Node4 -->
<g id="edge19_Node000011_Node000004" class="edge">
<title>Node11&#45;&gt;Node4</title>
<g id="a_edge19_Node000011_Node000004"><a xlink:title=" ">
<path fill="none" stroke="#63b8ff" d="M361.93,-274.92C377.9,-261.95 409.82,-237.04 439.58,-220 461.59,-207.4 487.83,-195.93 508.05,-187.8"/>
<polygon fill="#63b8ff" stroke="#63b8ff" points="509.44,-191.01 517.45,-184.08 506.87,-184.5 509.44,-191.01"/>
</a>
</g>
</g>
<!-- Node12 -->
<g id="Node000012" class="node">
<title>Node12</title>
<g id="a_Node000012"><a xlink:href="err_8h.html" target="_top" xlink:title="Error codes.">
<polygon fill="white" stroke="#666666" points="741.58,-239 671.58,-239 671.58,-220 741.58,-220 741.58,-239"/>
<text text-anchor="middle" x="706.58" y="-227" font-family="Helvetica,sans-Serif" font-size="10.00">l4/sys/err.h</text>
</a>
</g>
</g>
<!-- Node11&#45;&gt;Node12 -->
<g id="edge21_Node000011_Node000012" class="edge">
<title>Node11&#45;&gt;Node12</title>
<g id="a_edge21_Node000011_Node000012"><a xlink:title=" ">
<path fill="none" stroke="#63b8ff" d="M387.24,-278.18C452.27,-268.47 589.96,-247.91 661.42,-237.24"/>
<polygon fill="#63b8ff" stroke="#63b8ff" points="662.09,-240.68 671.47,-235.74 661.06,-233.76 662.09,-240.68"/>
</a>
</g>
</g>
<!-- Node12&#45;&gt;Node6 -->
<g id="edge22_Node000012_Node000006" class="edge">
<title>Node12&#45;&gt;Node6</title>
<g id="a_edge22_Node000012_Node000006"><a xlink:title=" ">
<path fill="none" stroke="#63b8ff" d="M696.53,-219.97C665.83,-193.9 572.95,-115.06 533.09,-81.21"/>
<polygon fill="#63b8ff" stroke="#63b8ff" points="534.89,-78.15 525,-74.34 530.36,-83.48 534.89,-78.15"/>
</a>
</g>
</g>
<!-- Node13&#45;&gt;Node4 -->
<g id="edge26_Node000013_Node000004" class="edge">
<title>Node13&#45;&gt;Node4</title>
<g id="a_edge26_Node000013_Node000004"><a xlink:title=" ">
<path fill="none" stroke="#63b8ff" d="M650.19,-670.7C646.8,-661.78 641.53,-647.53 637.58,-635 614.7,-562.51 608.61,-544.3 592.58,-470 568.85,-360.01 576.15,-330.03 552.58,-220 550.74,-211.39 548.26,-201.97 546.04,-194.01"/>
<polygon fill="#63b8ff" stroke="#63b8ff" points="549.37,-192.94 543.25,-184.3 542.65,-194.88 549.37,-192.94"/>
</a>
</g>
</g>
<!-- Node13&#45;&gt;Node8 -->
<g id="edge25_Node000013_Node000008" class="edge">
<title>Node13&#45;&gt;Node8</title>
<g id="a_edge25_Node000013_Node000008"><a xlink:title=" ">
<path fill="none" stroke="#63b8ff" d="M701.59,-676.4C810.83,-666.48 1068.58,-625.69 1068.58,-461.5 1068.58,-461.5 1068.58,-461.5 1068.58,-228.5 1068.58,-146.66 952.05,-126.37 880.38,-121.64"/>
<polygon fill="#63b8ff" stroke="#63b8ff" points="880.34,-118.13 870.15,-121.05 879.93,-125.12 880.34,-118.13"/>
</a>
</g>
</g>
<!-- Node14 -->
<g id="Node000014" class="node">
<title>Node14</title>
<g id="a_Node000014"><a xlink:href="kobject_source.html" target="_top" xlink:title=" ">
<polygon fill="white" stroke="#666666" points="573.08,-525 490.08,-525 490.08,-506 573.08,-506 573.08,-525"/>
<text text-anchor="middle" x="531.58" y="-513" font-family="Helvetica,sans-Serif" font-size="10.00">l4/sys/kobject</text>
</a>
</g>
</g>
<!-- Node13&#45;&gt;Node14 -->
<g id="edge27_Node000013_Node000014" class="edge">
<title>Node13&#45;&gt;Node14</title>
<g id="a_edge27_Node000013_Node000014"><a xlink:title=" ">
<path fill="none" stroke="#63b8ff" d="M635.66,-670.86C621.15,-663.13 601,-650.62 587.58,-635 561.37,-604.47 544.65,-559.58 536.81,-534.73"/>
<polygon fill="#63b8ff" stroke="#63b8ff" points="540.16,-533.69 533.92,-525.13 533.45,-535.71 540.16,-533.69"/>
</a>
</g>
</g>
<!-- Node21 -->
<g id="Node000021" class="node">
<title>Node21</title>
<g id="a_Node000021"><a xlink:href="l4_2sys_2task_8h.html" target="_top" xlink:title="Common task related definitions.">
<polygon fill="white" stroke="#666666" points="501.58,-354.5 423.58,-354.5 423.58,-335.5 501.58,-335.5 501.58,-354.5"/>
<text text-anchor="middle" x="462.58" y="-342.5" font-family="Helvetica,sans-Serif" font-size="10.00">l4/sys/task.h</text>
</a>
</g>
</g>
<!-- Node13&#45;&gt;Node21 -->
<g id="edge49_Node000013_Node000021" class="edge">
<title>Node13&#45;&gt;Node21</title>
<g id="a_edge49_Node000013_Node000021"><a xlink:title=" ">
<path fill="none" stroke="#63b8ff" d="M605.38,-673.92C547.63,-664.23 458.58,-638.45 458.58,-571.5 458.58,-571.5 458.58,-571.5 458.58,-459.5 458.58,-426.09 460.33,-387.18 461.52,-364.69"/>
<polygon fill="#63b8ff" stroke="#63b8ff" points="465.02,-364.72 462.07,-354.54 458.03,-364.33 465.02,-364.72"/>
</a>
</g>
</g>
<!-- Node22 -->
<g id="Node000022" class="node">
<title>Node22</title>
<g id="a_Node000022"><a xlink:href="sys_2meta.html" target="_top" xlink:title="Meta interface for getting dynamic type information about objects behind capabilities.">
<polygon fill="white" stroke="#666666" points="720.58,-635 646.58,-635 646.58,-616 720.58,-616 720.58,-635"/>
<text text-anchor="middle" x="683.58" y="-623" font-family="Helvetica,sans-Serif" font-size="10.00">l4/sys/meta</text>
</a>
</g>
</g>
<!-- Node13&#45;&gt;Node22 -->
<g id="edge50_Node000013_Node000022" class="edge">
<title>Node13&#45;&gt;Node22</title>
<g id="a_edge50_Node000013_Node000022"><a xlink:title=" ">
<path fill="none" stroke="#63b8ff" d="M658.53,-670.75C662.64,-663.49 668.61,-652.95 673.69,-643.98"/>
<polygon fill="#63b8ff" stroke="#63b8ff" points="676.84,-645.52 678.72,-635.09 670.75,-642.07 676.84,-645.52"/>
</a>
</g>
</g>
<!-- Node14&#45;&gt;Node4 -->
<g id="edge35_Node000014_Node000004" class="edge">
<title>Node14&#45;&gt;Node4</title>
<g id="a_edge35_Node000014_Node000004"><a xlink:title=" ">
<path fill="none" stroke="#63b8ff" d="M531.81,-505.78C533,-461.1 538.4,-257.45 540.08,-194.26"/>
<polygon fill="#63b8ff" stroke="#63b8ff" points="543.58,-194.25 540.35,-184.16 536.59,-194.07 543.58,-194.25"/>
</a>
</g>
</g>
<!-- Node15 -->
<g id="Node000015" class="node">
<title>Node15</title>
<g id="a_Node000015"><a xlink:href="kernel__object_8h.html" target="_top" xlink:title="Kernel object system calls.">
<polygon fill="white" stroke="#666666" points="358.08,-415 267.08,-415 267.08,-396 358.08,-396 358.08,-415"/>
<text text-anchor="middle" x="312.58" y="-403" font-family="Helvetica,sans-Serif" font-size="10.00">kernel_object.h</text>
</a>
</g>
</g>
<!-- Node14&#45;&gt;Node15 -->
<g id="edge28_Node000014_Node000015" class="edge">
<title>Node14&#45;&gt;Node15</title>
<g id="a_edge28_Node000014_Node000015"><a xlink:title=" ">
<path fill="none" stroke="#63b8ff" d="M514.03,-505.84C475.73,-486.96 384.48,-441.96 339.12,-419.59"/>
<polygon fill="#63b8ff" stroke="#63b8ff" points="340.43,-416.33 329.91,-415.05 337.33,-422.61 340.43,-416.33"/>
</a>
</g>
</g>
<!-- Node17 -->
<g id="Node000017" class="node">
<title>Node17</title>
<g id="a_Node000017"><a xlink:href="____typeinfo_8h.html" target="_top" xlink:title="Type information handling.">
<polygon fill="white" stroke="#666666" points="678.08,-470 601.08,-470 601.08,-451 678.08,-451 678.08,-470"/>
<text text-anchor="middle" x="639.58" y="-458" font-family="Helvetica,sans-Serif" font-size="10.00">__typeinfo.h</text>
</a>
</g>
</g>
<!-- Node14&#45;&gt;Node17 -->
<g id="edge36_Node000014_Node000017" class="edge">
<title>Node14&#45;&gt;Node17</title>
<g id="a_edge36_Node000014_Node000017"><a xlink:title=" ">
<path fill="none" stroke="#63b8ff" d="M548.93,-505.98C566.15,-497.54 592.78,-484.47 612.73,-474.68"/>
<polygon fill="#63b8ff" stroke="#63b8ff" points="614.48,-477.72 621.91,-470.17 611.39,-471.43 614.48,-477.72"/>
</a>
</g>
</g>
<!-- Node15&#45;&gt;Node3 -->
<g id="edge31_Node000015_Node000003" class="edge">
<title>Node15&#45;&gt;Node3</title>
<g id="a_edge31_Node000015_Node000003"><a xlink:title=" ">
<path fill="none" stroke="#63b8ff" d="M266.9,-399.44C241.68,-394.05 212.34,-382.93 196.58,-360 189.03,-349.01 190.24,-341.73 196.58,-330 220.95,-284.92 275.62,-256.98 312.3,-242.59"/>
<polygon fill="#63b8ff" stroke="#63b8ff" points="313.55,-245.85 321.67,-239.05 311.08,-239.31 313.55,-245.85"/>
</a>
</g>
</g>
<!-- Node15&#45;&gt;Node4 -->
<g id="edge29_Node000015_Node000004" class="edge">
<title>Node15&#45;&gt;Node4</title>
<g id="a_edge29_Node000015_Node000004"><a xlink:title=" ">
<path fill="none" stroke="#63b8ff" d="M321.24,-395.8C355.31,-361.58 480.43,-235.92 524.83,-191.32"/>
<polygon fill="#63b8ff" stroke="#63b8ff" points="527.34,-193.76 531.91,-184.21 522.38,-188.82 527.34,-193.76"/>
</a>
</g>
</g>
<!-- Node15&#45;&gt;Node6 -->
<g id="edge30_Node000015_Node000006" class="edge">
<title>Node15&#45;&gt;Node6</title>
<g id="a_edge30_Node000015_Node000006"><a xlink:title=" ">
<path fill="none" stroke="#63b8ff" d="M266.95,-403.52C194.05,-401 55.92,-392.02 20.58,-360 -4.74,-337.06 1.58,-319.67 1.58,-285.5 1.58,-285.5 1.58,-285.5 1.58,-173.5 1.58,-81.8 319.41,-67.55 454.73,-65.63"/>
<polygon fill="#63b8ff" stroke="#63b8ff" points="454.97,-69.13 464.93,-65.51 454.88,-62.13 454.97,-69.13"/>
</a>
</g>
</g>
<!-- Node15&#45;&gt;Node11 -->
<g id="edge34_Node000015_Node000011" class="edge">
<title>Node15&#45;&gt;Node11</title>
<g id="a_edge34_Node000015_Node000011"><a xlink:title=" ">
<path fill="none" stroke="#63b8ff" d="M318.96,-395.77C324.96,-387.12 333.72,-373.28 338.58,-360 345.27,-341.72 348.57,-319.64 350.16,-304.28"/>
<polygon fill="#63b8ff" stroke="#63b8ff" points="353.68,-304.29 351.08,-294.02 346.7,-303.67 353.68,-304.29"/>
</a>
</g>
</g>
<!-- Node16 -->
<g id="Node000016" class="node">
<title>Node16</title>
<g id="a_Node000016"><a xlink:href="____kernel__object__impl_8h.html" target="_top" xlink:title="Low&#45;level kernel debugger functions.">
<polygon fill="white" stroke="#666666" points="329.58,-360 205.58,-360 205.58,-330 329.58,-330 329.58,-360"/>
<text text-anchor="start" x="213.58" y="-348" font-family="Helvetica,sans-Serif" font-size="10.00">l4/sys/__kernel_object</text>
<text text-anchor="middle" x="267.58" y="-337" font-family="Helvetica,sans-Serif" font-size="10.00">_impl.h</text>
</a>
</g>
</g>
<!-- Node15&#45;&gt;Node16 -->
<g id="edge32_Node000015_Node000016" class="edge">
<title>Node15&#45;&gt;Node16</title>
<g id="a_edge32_Node000015_Node000016"><a xlink:title=" ">
<path fill="none" stroke="#63b8ff" d="M305.94,-395.87C300.34,-388.59 292.08,-377.85 284.66,-368.2"/>
<polygon fill="#63b8ff" stroke="#63b8ff" points="287.31,-365.91 278.44,-360.11 281.76,-370.17 287.31,-365.91"/>
</a>
</g>
</g>
<!-- Node16&#45;&gt;Node11 -->
<g id="edge33_Node000016_Node000011" class="edge">
<title>Node16&#45;&gt;Node11</title>
<g id="a_edge33_Node000016_Node000011"><a xlink:title=" ">
<path fill="none" stroke="#63b8ff" d="M287.91,-329.84C300.85,-320.83 317.57,-309.18 330.63,-300.09"/>
<polygon fill="#63b8ff" stroke="#63b8ff" points="332.79,-302.85 338.99,-294.27 328.79,-297.11 332.79,-302.85"/>
</a>
</g>
</g>
<!-- Node18 -->
<g id="Node000018" class="node">
<title>Node18</title>
<g id="a_Node000018"><a xlink:href="types.html" target="_top" xlink:title=" ">
<polygon fill="white" stroke="#666666" points="896.58,-354.5 832.58,-354.5 832.58,-335.5 896.58,-335.5 896.58,-354.5"/>
<text text-anchor="middle" x="864.58" y="-342.5" font-family="Helvetica,sans-Serif" font-size="10.00">cxx/types</text>
</a>
</g>
</g>
<!-- Node17&#45;&gt;Node18 -->
<g id="edge37_Node000017_Node000018" class="edge">
<title>Node17&#45;&gt;Node18</title>
<g id="a_edge37_Node000017_Node000018"><a xlink:title=" ">
<path fill="none" stroke="#63b8ff" d="M651.6,-450.95C670.12,-438.01 707.01,-413.15 740.58,-396 769.96,-380.99 804.94,-367.24 830.25,-357.97"/>
<polygon fill="#63b8ff" stroke="#63b8ff" points="831.56,-361.21 839.78,-354.52 829.18,-354.63 831.56,-361.21"/>
</a>
</g>
</g>
<!-- Node19 -->
<g id="Node000019" class="node">
<title>Node19</title>
<g id="a_Node000019"><a xlink:href="ipc__basics_source.html" target="_top" xlink:title=" ">
<polygon fill="white" stroke="#666666" points="836.08,-415 749.08,-415 749.08,-396 836.08,-396 836.08,-415"/>
<text text-anchor="middle" x="792.58" y="-403" font-family="Helvetica,sans-Serif" font-size="10.00">cxx/ipc_basics</text>
</a>
</g>
</g>
<!-- Node17&#45;&gt;Node19 -->
<g id="edge38_Node000017_Node000019" class="edge">
<title>Node17&#45;&gt;Node19</title>
<g id="a_edge38_Node000017_Node000019"><a xlink:title=" ">
<path fill="none" stroke="#63b8ff" d="M664.16,-450.98C689.63,-442.16 729.62,-428.31 758.21,-418.41"/>
<polygon fill="#63b8ff" stroke="#63b8ff" points="759.5,-421.66 767.81,-415.08 757.21,-415.05 759.5,-421.66"/>
</a>
</g>
</g>
<!-- Node20 -->
<g id="Node000020" class="node">
<title>Node20</title>
<g id="a_Node000020"><a xlink:href="capability_8h_source.html" target="_top" xlink:title=" ">
<polygon fill="white" stroke="#666666" points="692.58,-415 600.58,-415 600.58,-396 692.58,-396 692.58,-415"/>
<text text-anchor="middle" x="646.58" y="-403" font-family="Helvetica,sans-Serif" font-size="10.00">cxx/capability.h</text>
</a>
</g>
</g>
<!-- Node17&#45;&gt;Node20 -->
<g id="edge42_Node000017_Node000020" class="edge">
<title>Node17&#45;&gt;Node20</title>
<g id="a_edge42_Node000017_Node000020"><a xlink:title=" ">
<path fill="none" stroke="#63b8ff" d="M640.74,-450.75C641.65,-443.8 642.97,-433.85 644.12,-425.13"/>
<polygon fill="#63b8ff" stroke="#63b8ff" points="647.61,-425.46 645.45,-415.09 640.67,-424.54 647.61,-425.46"/>
</a>
</g>
</g>
<!-- Node19&#45;&gt;Node3 -->
<g id="edge40_Node000019_Node000003" class="edge">
<title>Node19&#45;&gt;Node3</title>
<g id="a_edge40_Node000019_Node000003"><a xlink:title=" ">
<path fill="none" stroke="#63b8ff" d="M770.87,-395.99C698.43,-367.6 464.9,-276.08 379.9,-242.77"/>
<polygon fill="#63b8ff" stroke="#63b8ff" points="381.1,-239.49 370.52,-239.1 378.55,-246 381.1,-239.49"/>
</a>
</g>
</g>
<!-- Node19&#45;&gt;Node12 -->
<g id="edge41_Node000019_Node000012" class="edge">
<title>Node19&#45;&gt;Node12</title>
<g id="a_edge41_Node000019_Node000012"><a xlink:title=" ">
<path fill="none" stroke="#63b8ff" d="M788.2,-395.63C774.68,-368.29 733.47,-284.9 715.32,-248.18"/>
<polygon fill="#63b8ff" stroke="#63b8ff" points="718.42,-246.56 710.85,-239.14 712.15,-249.66 718.42,-246.56"/>
</a>
</g>
</g>
<!-- Node19&#45;&gt;Node18 -->
<g id="edge39_Node000019_Node000018" class="edge">
<title>Node19&#45;&gt;Node18</title>
<g id="a_edge39_Node000019_Node000018"><a xlink:title=" ">
<path fill="none" stroke="#63b8ff" d="M803.2,-395.87C814.48,-386.71 832.51,-372.06 846.11,-361.01"/>
<polygon fill="#63b8ff" stroke="#63b8ff" points="848.36,-363.69 853.91,-354.67 843.94,-358.26 848.36,-363.69"/>
</a>
</g>
</g>
<!-- Node20&#45;&gt;Node4 -->
<g id="edge44_Node000020_Node000004" class="edge">
<title>Node20&#45;&gt;Node4</title>
<g id="a_edge44_Node000020_Node000004"><a xlink:title=" ">
<path fill="none" stroke="#63b8ff" d="M647.8,-395.84C651.31,-367.67 658.79,-277.12 619.58,-220 609.55,-205.38 593.05,-195.01 577.72,-187.99"/>
<polygon fill="#63b8ff" stroke="#63b8ff" points="578.97,-184.71 568.4,-184.03 576.24,-191.16 578.97,-184.71"/>
</a>
</g>
</g>
<!-- Node20&#45;&gt;Node8 -->
<g id="edge43_Node000020_Node000008" class="edge">
<title>Node20&#45;&gt;Node8</title>
<g id="a_edge43_Node000020_Node000008"><a xlink:title=" ">
<path fill="none" stroke="#63b8ff" d="M652.13,-395.69C677.24,-355.85 780.42,-192.16 814.56,-137.99"/>
<polygon fill="#63b8ff" stroke="#63b8ff" points="817.72,-139.53 820.09,-129.21 811.8,-135.8 817.72,-139.53"/>
</a>
</g>
</g>
<!-- Node20&#45;&gt;Node21 -->
<g id="edge45_Node000020_Node000021" class="edge">
<title>Node20&#45;&gt;Node21</title>
<g id="a_edge45_Node000020_Node000021"><a xlink:title=" ">
<path fill="none" stroke="#63b8ff" d="M619.83,-395.99C587.94,-385.86 534.51,-368.87 498.9,-357.55"/>
<polygon fill="#63b8ff" stroke="#63b8ff" points="499.96,-354.21 489.37,-354.52 497.84,-360.88 499.96,-354.21"/>
</a>
</g>
</g>
<!-- Node21&#45;&gt;Node3 -->
<g id="edge47_Node000021_Node000003" class="edge">
<title>Node21&#45;&gt;Node3</title>
<g id="a_edge47_Node000021_Node000003"><a xlink:title=" ">
<path fill="none" stroke="#63b8ff" d="M454.61,-335.34C442.37,-322.11 418.08,-296.17 396.58,-275 386.56,-265.13 375.01,-254.41 365.75,-245.96"/>
<polygon fill="#63b8ff" stroke="#63b8ff" points="368.06,-243.33 358.3,-239.2 363.36,-248.51 368.06,-243.33"/>
</a>
</g>
</g>
<!-- Node21&#45;&gt;Node4 -->
<g id="edge46_Node000021_Node000004" class="edge">
<title>Node21&#45;&gt;Node4</title>
<g id="a_edge46_Node000021_Node000004"><a xlink:title=" ">
<path fill="none" stroke="#63b8ff" d="M466.56,-335.41C478.71,-309.17 515.53,-229.61 532.21,-193.58"/>
<polygon fill="#63b8ff" stroke="#63b8ff" points="535.5,-194.82 536.52,-184.27 529.14,-191.88 535.5,-194.82"/>
</a>
</g>
</g>
<!-- Node21&#45;&gt;Node11 -->
<g id="edge48_Node000021_Node000011" class="edge">
<title>Node21&#45;&gt;Node11</title>
<g id="a_edge48_Node000021_Node000011"><a xlink:title=" ">
<path fill="none" stroke="#63b8ff" d="M446.2,-335.37C428,-325.78 398.39,-310.17 377.13,-298.97"/>
<polygon fill="#63b8ff" stroke="#63b8ff" points="378.5,-295.73 368.03,-294.17 375.24,-301.93 378.5,-295.73"/>
</a>
</g>
</g>
<!-- Node22&#45;&gt;Node14 -->
<g id="edge51_Node000022_Node000014" class="edge">
<title>Node22&#45;&gt;Node14</title>
<g id="a_edge51_Node000022_Node000014"><a xlink:title=" ">
<path fill="none" stroke="#63b8ff" d="M671.4,-615.84C645.38,-597.36 584.16,-553.86 552.05,-531.05"/>
<polygon fill="#63b8ff" stroke="#63b8ff" points="554,-528.14 543.82,-525.2 549.95,-533.84 554,-528.14"/>
</a>
</g>
</g>
<!-- Node22&#45;&gt;Node23 -->
<g id="edge52_Node000022_Node000023" class="edge">
<title>Node22&#45;&gt;Node23</title>
<g id="a_edge52_Node000022_Node000023"><a xlink:title=" ">
<path fill="none" stroke="#63b8ff" d="M685.46,-615.66C689.2,-598.09 697.65,-558.45 702.65,-534.95"/>
<polygon fill="#63b8ff" stroke="#63b8ff" points="706.08,-535.67 704.74,-525.16 699.23,-534.21 706.08,-535.67"/>
</a>
</g>
</g>
<!-- Node25 -->
<g id="Node000025" class="node">
<title>Node25</title>
<g id="a_Node000025"><a xlink:href="ipc__string_source.html" target="_top" xlink:title=" ">
<polygon fill="white" stroke="#666666" points="964.58,-580 880.58,-580 880.58,-561 964.58,-561 964.58,-580"/>
<text text-anchor="middle" x="922.58" y="-568" font-family="Helvetica,sans-Serif" font-size="10.00">cxx/ipc_string</text>
</a>
</g>
</g>
<!-- Node22&#45;&gt;Node25 -->
<g id="edge59_Node000022_Node000025" class="edge">
<title>Node22&#45;&gt;Node25</title>
<g id="a_edge59_Node000022_Node000025"><a xlink:title=" ">
<path fill="none" stroke="#63b8ff" d="M720.66,-616.28C761.98,-607.11 828.94,-592.26 874.32,-582.2"/>
<polygon fill="#63b8ff" stroke="#63b8ff" points="875.22,-585.59 884.22,-580.01 873.7,-578.75 875.22,-585.59"/>
</a>
</g>
</g>
<!-- Node23&#45;&gt;Node17 -->
<g id="edge58_Node000023_Node000017" class="edge">
<title>Node23&#45;&gt;Node17</title>
<g id="a_edge58_Node000023_Node000017"><a xlink:title=" ">
<path fill="none" stroke="#63b8ff" d="M695.82,-505.98C685.81,-498.07 670.69,-486.11 658.65,-476.58"/>
<polygon fill="#63b8ff" stroke="#63b8ff" points="660.56,-473.63 650.54,-470.17 656.21,-479.12 660.56,-473.63"/>
</a>
</g>
</g>
<!-- Node23&#45;&gt;Node19 -->
<g id="edge53_Node000023_Node000019" class="edge">
<title>Node23&#45;&gt;Node19</title>
<g id="a_edge53_Node000023_Node000019"><a xlink:title=" ">
<path fill="none" stroke="#63b8ff" d="M707.47,-505.88C709.2,-492.84 714,-467.86 726.58,-451 736.29,-437.99 750.99,-427.55 764.05,-420.06"/>
<polygon fill="#63b8ff" stroke="#63b8ff" points="766.04,-422.96 773.18,-415.13 762.72,-416.8 766.04,-422.96"/>
</a>
</g>
</g>
<!-- Node24 -->
<g id="Node000024" class="node">
<title>Node24</title>
<g id="a_Node000024"><a xlink:href="ipc__types.html" target="_top" xlink:title=" ">
<polygon fill="white" stroke="#666666" points="850.08,-470 735.08,-470 735.08,-451 850.08,-451 850.08,-470"/>
<text text-anchor="middle" x="792.58" y="-458" font-family="Helvetica,sans-Serif" font-size="10.00">l4/sys/cxx/ipc_types</text>
</a>
</g>
</g>
<!-- Node23&#45;&gt;Node24 -->
<g id="edge54_Node000023_Node000024" class="edge">
<title>Node23&#45;&gt;Node24</title>
<g id="a_edge54_Node000023_Node000024"><a xlink:title=" ">
<path fill="none" stroke="#63b8ff" d="M720.4,-505.98C733.73,-497.77 754.16,-485.18 769.89,-475.49"/>
<polygon fill="#63b8ff" stroke="#63b8ff" points="771.83,-478.4 778.51,-470.17 768.16,-472.44 771.83,-478.4"/>
</a>
</g>
</g>
<!-- Node24&#45;&gt;Node18 -->
<g id="edge56_Node000024_Node000018" class="edge">
<title>Node24&#45;&gt;Node18</title>
<g id="a_edge56_Node000024_Node000018"><a xlink:title=" ">
<path fill="none" stroke="#63b8ff" d="M807.31,-450.73C819.32,-442.84 835.85,-430.17 845.58,-415 855.32,-399.82 860.13,-379.66 862.46,-365.06"/>
<polygon fill="#63b8ff" stroke="#63b8ff" points="865.98,-365.12 863.85,-354.74 859.05,-364.18 865.98,-365.12"/>
</a>
</g>
</g>
<!-- Node24&#45;&gt;Node19 -->
<g id="edge57_Node000024_Node000019" class="edge">
<title>Node24&#45;&gt;Node19</title>
<g id="a_edge57_Node000024_Node000019"><a xlink:title=" ">
<path fill="none" stroke="#63b8ff" d="M792.58,-450.75C792.58,-443.8 792.58,-433.85 792.58,-425.13"/>
<polygon fill="#63b8ff" stroke="#63b8ff" points="796.08,-425.09 792.58,-415.09 789.08,-425.09 796.08,-425.09"/>
</a>
</g>
</g>
<!-- Node24&#45;&gt;Node20 -->
<g id="edge55_Node000024_Node000020" class="edge">
<title>Node24&#45;&gt;Node20</title>
<g id="a_edge55_Node000024_Node000020"><a xlink:title=" ">
<path fill="none" stroke="#63b8ff" d="M769.12,-450.98C745,-442.23 707.22,-428.51 679.98,-418.62"/>
<polygon fill="#63b8ff" stroke="#63b8ff" points="681.06,-415.29 670.46,-415.17 678.67,-421.87 681.06,-415.29"/>
</a>
</g>
</g>
<!-- Node25&#45;&gt;Node18 -->
<g id="edge60_Node000025_Node000018" class="edge">
<title>Node25&#45;&gt;Node18</title>
<g id="a_edge60_Node000025_Node000018"><a xlink:title=" ">
<path fill="none" stroke="#63b8ff" d="M938.31,-560.88C950.46,-553.23 966.38,-540.83 973.58,-525 977.08,-517.31 975.81,-514.15 973.58,-506 957.11,-445.77 907.14,-388.69 880.97,-361.91"/>
<polygon fill="#63b8ff" stroke="#63b8ff" points="883.21,-359.21 873.67,-354.61 878.26,-364.16 883.21,-359.21"/>
</a>
</g>
</g>
<!-- Node25&#45;&gt;Node19 -->
<g id="edge61_Node000025_Node000019" class="edge">
<title>Node25&#45;&gt;Node19</title>
<g id="a_edge61_Node000025_Node000019"><a xlink:title=" ">
<path fill="none" stroke="#63b8ff" d="M916.41,-560.87C910.25,-552.07 900.71,-537.92 893.58,-525 876.1,-493.31 883.11,-478.5 859.58,-451 848.59,-438.15 833.01,-427.51 819.64,-419.85"/>
<polygon fill="#63b8ff" stroke="#63b8ff" points="821.28,-416.75 810.82,-415.04 817.92,-422.9 821.28,-416.75"/>
</a>
</g>
</g>
<!-- Node26 -->
<g id="Node000026" class="node">
<title>Node26</title>
<g id="a_Node000026"><a xlink:href="ipc__array_source.html" target="_top" xlink:title=" ">
<polygon fill="white" stroke="#666666" points="964.58,-525 902.58,-525 902.58,-506 964.58,-506 964.58,-525"/>
<text text-anchor="middle" x="933.58" y="-513" font-family="Helvetica,sans-Serif" font-size="10.00">ipc_array</text>
</a>
</g>
</g>
<!-- Node25&#45;&gt;Node26 -->
<g id="edge62_Node000025_Node000026" class="edge">
<title>Node25&#45;&gt;Node26</title>
<g id="a_edge62_Node000025_Node000026"><a xlink:title=" ">
<path fill="none" stroke="#63b8ff" d="M924.4,-560.75C925.84,-553.8 927.91,-543.85 929.71,-535.13"/>
<polygon fill="#63b8ff" stroke="#63b8ff" points="933.19,-535.59 931.8,-525.09 926.34,-534.17 933.19,-535.59"/>
</a>
</g>
</g>
<!-- Node26&#45;&gt;Node18 -->
<g id="edge63_Node000026_Node000018" class="edge">
<title>Node26&#45;&gt;Node18</title>
<g id="a_edge63_Node000026_Node000018"><a xlink:title=" ">
<path fill="none" stroke="#63b8ff" d="M931.41,-505.73C928.25,-493.35 921.94,-470.11 914.58,-451 902.42,-419.41 884.74,-384.16 873.99,-363.59"/>
<polygon fill="#63b8ff" stroke="#63b8ff" points="876.96,-361.72 869.19,-354.51 870.77,-364.99 876.96,-361.72"/>
</a>
</g>
</g>
<!-- Node26&#45;&gt;Node19 -->
<g id="edge64_Node000026_Node000019" class="edge">
<title>Node26&#45;&gt;Node19</title>
<g id="a_edge64_Node000026_Node000019"><a xlink:title=" ">
<path fill="none" stroke="#63b8ff" d="M930.03,-505.98C924.08,-492.64 910.92,-466.7 892.58,-451 875.42,-436.3 852.62,-425.66 833.13,-418.47"/>
<polygon fill="#63b8ff" stroke="#63b8ff" points="834.17,-415.13 823.58,-415.12 831.86,-421.74 834.17,-415.13"/>
</a>
</g>
</g>
<!-- Node26&#45;&gt;Node24 -->
<g id="edge65_Node000026_Node000024" class="edge">
<title>Node26&#45;&gt;Node24</title>
<g id="a_edge65_Node000026_Node000024"><a xlink:title=" ">
<path fill="none" stroke="#63b8ff" d="M910.93,-505.98C887.73,-497.27 851.46,-483.63 825.18,-473.75"/>
<polygon fill="#63b8ff" stroke="#63b8ff" points="826.24,-470.41 815.65,-470.17 823.78,-476.97 826.24,-470.41"/>
</a>
</g>
</g>
</g>
</svg>
