<?xml version="1.0" encoding="UTF-8" standalone="no"?>
<!DOCTYPE svg PUBLIC "-//W3C//DTD SVG 1.1//EN"
 "http://www.w3.org/Graphics/SVG/1.1/DTD/svg11.dtd">
<!-- Generated by graphviz version 2.43.0 (0)
 -->
<!-- Title: l4/cxx/ref_ptr_list Pages: 1 -->
<svg width="315pt" height="192pt"
 viewBox="0.00 0.00 314.50 192.00" xmlns="http://www.w3.org/2000/svg" xmlns:xlink="http://www.w3.org/1999/xlink">
<g id="graph0" class="graph" transform="scale(1 1) rotate(0) translate(4 188)">
<title>l4/cxx/ref_ptr_list</title>
<!-- Node1 -->
<g id="Node000001" class="node">
<title>Node1</title>
<g id="a_Node000001"><a xlink:title="Implementation of a list of ref&#45;ptr&#45;managed objects.">
<polygon fill="#999999" stroke="#666666" points="165.5,-184 64.5,-184 64.5,-165 165.5,-165 165.5,-184"/>
<text text-anchor="middle" x="115" y="-172" font-family="Helvetica,sans-Serif" font-size="10.00">l4/cxx/ref_ptr_list</text>
</a>
</g>
</g>
<!-- Node2 -->
<g id="Node000002" class="node">
<title>Node2</title>
<g id="a_Node000002"><a xlink:href="ref__ptr_source.html" target="_top" xlink:title=" ">
<polygon fill="white" stroke="#666666" points="213.5,-129 132.5,-129 132.5,-110 213.5,-110 213.5,-129"/>
<text text-anchor="middle" x="173" y="-117" font-family="Helvetica,sans-Serif" font-size="10.00">l4/cxx/ref_ptr</text>
</a>
</g>
</g>
<!-- Node1&#45;&gt;Node2 -->
<g id="edge1_Node000001_Node000002" class="edge">
<title>Node1&#45;&gt;Node2</title>
<g id="a_edge1_Node000001_Node000002"><a xlink:title=" ">
<path fill="none" stroke="#63b8ff" d="M124.32,-164.98C132.81,-157.23 145.56,-145.58 155.88,-136.14"/>
<polygon fill="#63b8ff" stroke="#63b8ff" points="158.49,-138.5 163.51,-129.17 153.77,-133.33 158.49,-138.5"/>
</a>
</g>
</g>
<!-- Node8 -->
<g id="Node000008" class="node">
<title>Node8</title>
<g id="a_Node000008"><a xlink:href="smart__ptr__list_8h.html" target="_top" xlink:title="Implementation of a list of smart&#45;pointer&#45;managed objects.">
<polygon fill="white" stroke="#666666" points="114,-129 0,-129 0,-110 114,-110 114,-129"/>
<text text-anchor="middle" x="57" y="-117" font-family="Helvetica,sans-Serif" font-size="10.00">bits/smart_ptr_list.h</text>
</a>
</g>
</g>
<!-- Node1&#45;&gt;Node8 -->
<g id="edge7_Node000001_Node000008" class="edge">
<title>Node1&#45;&gt;Node8</title>
<g id="a_edge7_Node000001_Node000008"><a xlink:title=" ">
<path fill="none" stroke="#63b8ff" d="M105.68,-164.98C97.19,-157.23 84.44,-145.58 74.12,-136.14"/>
<polygon fill="#63b8ff" stroke="#63b8ff" points="76.23,-133.33 66.49,-129.17 71.51,-138.5 76.23,-133.33"/>
</a>
</g>
</g>
<!-- Node3 -->
<g id="Node000003" class="node">
<title>Node3</title>
<g id="a_Node000003"><a xlink:href="type__traits_source.html" target="_top" xlink:title=" ">
<polygon fill="white" stroke="#666666" points="109.5,-74 40.5,-74 40.5,-55 109.5,-55 109.5,-74"/>
<text text-anchor="middle" x="75" y="-62" font-family="Helvetica,sans-Serif" font-size="10.00">type_traits</text>
</a>
</g>
</g>
<!-- Node2&#45;&gt;Node3 -->
<g id="edge2_Node000002_Node000003" class="edge">
<title>Node2&#45;&gt;Node3</title>
<g id="a_edge2_Node000002_Node000003"><a xlink:title=" ">
<path fill="none" stroke="#63b8ff" d="M157.25,-109.98C141.77,-101.61 117.91,-88.7 99.86,-78.95"/>
<polygon fill="#63b8ff" stroke="#63b8ff" points="101.49,-75.85 91.03,-74.17 98.16,-82.01 101.49,-75.85"/>
</a>
</g>
</g>
<!-- Node5 -->
<g id="Node000005" class="node">
<title>Node5</title>
<g id="a_Node000005"><a xlink:title=" ">
<polygon fill="#e0e0e0" stroke="#999999" points="189.5,-74 136.5,-74 136.5,-55 189.5,-55 189.5,-74"/>
<text text-anchor="middle" x="163" y="-62" font-family="Helvetica,sans-Serif" font-size="10.00">cstddef</text>
</a>
</g>
</g>
<!-- Node2&#45;&gt;Node5 -->
<g id="edge4_Node000002_Node000005" class="edge">
<title>Node2&#45;&gt;Node5</title>
<g id="a_edge4_Node000002_Node000005"><a xlink:title=" ">
<path fill="none" stroke="#63b8ff" d="M171.35,-109.75C170.04,-102.8 168.16,-92.85 166.52,-84.13"/>
<polygon fill="#63b8ff" stroke="#63b8ff" points="169.91,-83.27 164.62,-74.09 163.04,-84.56 169.91,-83.27"/>
</a>
</g>
</g>
<!-- Node6 -->
<g id="Node000006" class="node">
<title>Node6</title>
<g id="a_Node000006"><a xlink:href="compiler_8h.html" target="_top" xlink:title="L4 compiler related defines.">
<polygon fill="white" stroke="#666666" points="306.5,-74 207.5,-74 207.5,-55 306.5,-55 306.5,-74"/>
<text text-anchor="middle" x="257" y="-62" font-family="Helvetica,sans-Serif" font-size="10.00">l4/sys/compiler.h</text>
</a>
</g>
</g>
<!-- Node2&#45;&gt;Node6 -->
<g id="edge5_Node000002_Node000006" class="edge">
<title>Node2&#45;&gt;Node6</title>
<g id="a_edge5_Node000002_Node000006"><a xlink:title=" ">
<path fill="none" stroke="#63b8ff" d="M186.5,-109.98C199.4,-101.84 219.1,-89.41 234.4,-79.76"/>
<polygon fill="#63b8ff" stroke="#63b8ff" points="236.67,-82.47 243.26,-74.17 232.93,-76.55 236.67,-82.47"/>
</a>
</g>
</g>
<!-- Node4 -->
<g id="Node000004" class="node">
<title>Node4</title>
<g id="a_Node000004"><a xlink:href="type__traits_8h_source.html" target="_top" xlink:title=" ">
<polygon fill="white" stroke="#666666" points="124.5,-19 25.5,-19 25.5,0 124.5,0 124.5,-19"/>
<text text-anchor="middle" x="75" y="-7" font-family="Helvetica,sans-Serif" font-size="10.00">bits/type_traits.h</text>
</a>
</g>
</g>
<!-- Node3&#45;&gt;Node4 -->
<g id="edge3_Node000003_Node000004" class="edge">
<title>Node3&#45;&gt;Node4</title>
<g id="a_edge3_Node000003_Node000004"><a xlink:title=" ">
<path fill="none" stroke="#63b8ff" d="M75,-54.75C75,-47.8 75,-37.85 75,-29.13"/>
<polygon fill="#63b8ff" stroke="#63b8ff" points="78.5,-29.09 75,-19.09 71.5,-29.09 78.5,-29.09"/>
</a>
</g>
</g>
<!-- Node7 -->
<g id="Node000007" class="node">
<title>Node7</title>
<g id="a_Node000007"><a xlink:title=" ">
<polygon fill="#e0e0e0" stroke="#999999" points="303,-19 211,-19 211,0 303,0 303,-19"/>
<text text-anchor="middle" x="257" y="-7" font-family="Helvetica,sans-Serif" font-size="10.00">l4/sys/linkage.h</text>
</a>
</g>
</g>
<!-- Node6&#45;&gt;Node7 -->
<g id="edge6_Node000006_Node000007" class="edge">
<title>Node6&#45;&gt;Node7</title>
<g id="a_edge6_Node000006_Node000007"><a xlink:title=" ">
<path fill="none" stroke="#63b8ff" d="M257,-54.75C257,-47.8 257,-37.85 257,-29.13"/>
<polygon fill="#63b8ff" stroke="#63b8ff" points="260.5,-29.09 257,-19.09 253.5,-29.09 260.5,-29.09"/>
</a>
</g>
</g>
<!-- Node8&#45;&gt;Node3 -->
<g id="edge8_Node000008_Node000003" class="edge">
<title>Node8&#45;&gt;Node3</title>
<g id="a_edge8_Node000008_Node000003"><a xlink:title=" ">
<path fill="none" stroke="#63b8ff" d="M59.97,-109.75C62.36,-102.72 65.79,-92.62 68.77,-83.84"/>
<polygon fill="#63b8ff" stroke="#63b8ff" points="72.18,-84.68 72.08,-74.09 65.55,-82.43 72.18,-84.68"/>
</a>
</g>
</g>
</g>
</svg>
