<?xml version="1.0" encoding="UTF-8" standalone="no"?>
<!DOCTYPE svg PUBLIC "-//W3C//DTD SVG 1.1//EN"
 "http://www.w3.org/Graphics/SVG/1.1/DTD/svg11.dtd">
<!-- Generated by graphviz version 2.43.0 (0)
 -->
<!-- Title: l4/shmc/ringbuf.h Pages: 1 -->
<svg width="788pt" height="412pt"
 viewBox="0.00 0.00 787.65 412.00" xmlns="http://www.w3.org/2000/svg" xmlns:xlink="http://www.w3.org/1999/xlink">
<g id="graph0" class="graph" transform="scale(1 1) rotate(0) translate(4 408)">
<title>l4/shmc/ringbuf.h</title>
<!-- Node1 -->
<g id="Node000001" class="node">
<title>Node1</title>
<g id="a_Node000001"><a xlink:title=" ">
<polygon fill="#999999" stroke="#666666" points="563.5,-404 462.5,-404 462.5,-385 563.5,-385 563.5,-404"/>
<text text-anchor="middle" x="513" y="-392" font-family="Helvetica,sans-Serif" font-size="10.00">l4/shmc/ringbuf.h</text>
</a>
</g>
</g>
<!-- Node2 -->
<g id="Node000002" class="node">
<title>Node2</title>
<g id="a_Node000002"><a xlink:href="shmc_8h.html" target="_top" xlink:title="Shared memory library header file.">
<polygon fill="white" stroke="#666666" points="322.5,-239 229.5,-239 229.5,-220 322.5,-220 322.5,-239"/>
<text text-anchor="middle" x="276" y="-227" font-family="Helvetica,sans-Serif" font-size="10.00">l4/shmc/shmc.h</text>
</a>
</g>
</g>
<!-- Node1&#45;&gt;Node2 -->
<g id="edge1_Node000001_Node000002" class="edge">
<title>Node1&#45;&gt;Node2</title>
<g id="a_edge1_Node000001_Node000002"><a xlink:title=" ">
<path fill="none" stroke="#63b8ff" d="M500.59,-384.97C462.21,-358.57 345.09,-278.02 296.98,-244.93"/>
<polygon fill="#63b8ff" stroke="#63b8ff" points="298.79,-241.93 288.57,-239.15 294.83,-247.7 298.79,-241.93"/>
</a>
</g>
</g>
<!-- Node13 -->
<g id="Node000013" class="node">
<title>Node13</title>
<g id="a_Node000013"><a xlink:href="util_2assert_8h.html" target="_top" xlink:title="Some useful assert&#45;style macros.">
<polygon fill="white" stroke="#666666" points="667,-349 581,-349 581,-330 667,-330 667,-349"/>
<text text-anchor="middle" x="624" y="-337" font-family="Helvetica,sans-Serif" font-size="10.00">l4/util/assert.h</text>
</a>
</g>
</g>
<!-- Node1&#45;&gt;Node13 -->
<g id="edge18_Node000001_Node000013" class="edge">
<title>Node1&#45;&gt;Node13</title>
<g id="a_edge18_Node000001_Node000013"><a xlink:title=" ">
<path fill="none" stroke="#63b8ff" d="M530.83,-384.98C548.61,-376.5 576.15,-363.35 596.68,-353.54"/>
<polygon fill="#63b8ff" stroke="#63b8ff" points="598.33,-356.64 605.84,-349.17 595.31,-350.32 598.33,-356.64"/>
</a>
</g>
</g>
<!-- Node15 -->
<g id="Node000015" class="node">
<title>Node15</title>
<g id="a_Node000015"><a xlink:href="l4_2sys_2thread_8h.html" target="_top" xlink:title="Common thread related definitions.">
<polygon fill="white" stroke="#666666" points="557.5,-349 468.5,-349 468.5,-330 557.5,-330 557.5,-349"/>
<text text-anchor="middle" x="513" y="-337" font-family="Helvetica,sans-Serif" font-size="10.00">l4/sys/thread.h</text>
</a>
</g>
</g>
<!-- Node1&#45;&gt;Node15 -->
<g id="edge21_Node000001_Node000015" class="edge">
<title>Node1&#45;&gt;Node15</title>
<g id="a_edge21_Node000001_Node000015"><a xlink:title=" ">
<path fill="none" stroke="#63b8ff" d="M513,-384.75C513,-377.8 513,-367.85 513,-359.13"/>
<polygon fill="#63b8ff" stroke="#63b8ff" points="516.5,-359.09 513,-349.09 509.5,-359.09 516.5,-359.09"/>
</a>
</g>
</g>
<!-- Node3 -->
<g id="Node000003" class="node">
<title>Node3</title>
<g id="a_Node000003"><a xlink:title=" ">
<polygon fill="#e0e0e0" stroke="#999999" points="350,-19 258,-19 258,0 350,0 350,-19"/>
<text text-anchor="middle" x="304" y="-7" font-family="Helvetica,sans-Serif" font-size="10.00">l4/sys/linkage.h</text>
</a>
</g>
</g>
<!-- Node2&#45;&gt;Node3 -->
<g id="edge2_Node000002_Node000003" class="edge">
<title>Node2&#45;&gt;Node3</title>
<g id="a_edge2_Node000002_Node000003"><a xlink:title=" ">
<path fill="none" stroke="#63b8ff" d="M272.66,-219.8C269.45,-210.94 264.82,-196.75 263,-184 261.8,-175.64 261.91,-173.37 263,-165 269.56,-114.71 287.65,-57.49 297.46,-28.86"/>
<polygon fill="#63b8ff" stroke="#63b8ff" points="300.89,-29.65 300.89,-19.05 294.28,-27.34 300.89,-29.65"/>
</a>
</g>
</g>
<!-- Node4 -->
<g id="Node000004" class="node">
<title>Node4</title>
<g id="a_Node000004"><a xlink:href="l4_2sys_2types_8h.html" target="_top" xlink:title="Common L4 ABI Data Types.">
<polygon fill="white" stroke="#666666" points="554,-184 470,-184 470,-165 554,-165 554,-184"/>
<text text-anchor="middle" x="512" y="-172" font-family="Helvetica,sans-Serif" font-size="10.00">l4/sys/types.h</text>
</a>
</g>
</g>
<!-- Node2&#45;&gt;Node4 -->
<g id="edge3_Node000002_Node000004" class="edge">
<title>Node2&#45;&gt;Node4</title>
<g id="a_edge3_Node000002_Node000004"><a xlink:title=" ">
<path fill="none" stroke="#63b8ff" d="M313.92,-219.98C354.65,-210.84 419.5,-196.27 463.82,-186.32"/>
<polygon fill="#63b8ff" stroke="#63b8ff" points="464.8,-189.69 473.79,-184.08 463.26,-182.86 464.8,-189.69"/>
</a>
</g>
</g>
<!-- Node10 -->
<g id="Node000010" class="node">
<title>Node10</title>
<g id="a_Node000010"><a xlink:href="err_8h.html" target="_top" xlink:title="Error codes.">
<polygon fill="white" stroke="#666666" points="342,-184 272,-184 272,-165 342,-165 342,-184"/>
<text text-anchor="middle" x="307" y="-172" font-family="Helvetica,sans-Serif" font-size="10.00">l4/sys/err.h</text>
</a>
</g>
</g>
<!-- Node2&#45;&gt;Node10 -->
<g id="edge14_Node000002_Node000010" class="edge">
<title>Node2&#45;&gt;Node10</title>
<g id="a_edge14_Node000002_Node000010"><a xlink:title=" ">
<path fill="none" stroke="#63b8ff" d="M281.12,-219.75C285.36,-212.49 291.53,-201.95 296.78,-192.98"/>
<polygon fill="#63b8ff" stroke="#63b8ff" points="299.95,-194.49 301.98,-184.09 293.91,-190.95 299.95,-194.49"/>
</a>
</g>
</g>
<!-- Node11 -->
<g id="Node000011" class="node">
<title>Node11</title>
<g id="a_Node000011"><a xlink:title=" ">
<polygon fill="#e0e0e0" stroke="#999999" points="94,-184 0,-184 0,-165 94,-165 94,-184"/>
<text text-anchor="middle" x="47" y="-172" font-family="Helvetica,sans-Serif" font-size="10.00">l4/shmc/types.h</text>
</a>
</g>
</g>
<!-- Node2&#45;&gt;Node11 -->
<g id="edge16_Node000002_Node000011" class="edge">
<title>Node2&#45;&gt;Node11</title>
<g id="a_edge16_Node000002_Node000011"><a xlink:title=" ">
<path fill="none" stroke="#63b8ff" d="M239.21,-219.98C199.76,-210.86 137.02,-196.33 94.02,-186.38"/>
<polygon fill="#63b8ff" stroke="#63b8ff" points="94.61,-182.93 84.08,-184.08 93.03,-189.75 94.61,-182.93"/>
</a>
</g>
</g>
<!-- Node12 -->
<g id="Node000012" class="node">
<title>Node12</title>
<g id="a_Node000012"><a xlink:title=" ">
<polygon fill="#e0e0e0" stroke="#999999" points="216,-184 112,-184 112,-165 216,-165 216,-184"/>
<text text-anchor="middle" x="164" y="-172" font-family="Helvetica,sans-Serif" font-size="10.00">l4/shmc/internal.h</text>
</a>
</g>
</g>
<!-- Node2&#45;&gt;Node12 -->
<g id="edge17_Node000002_Node000012" class="edge">
<title>Node2&#45;&gt;Node12</title>
<g id="a_edge17_Node000002_Node000012"><a xlink:title=" ">
<path fill="none" stroke="#63b8ff" d="M258.01,-219.98C240.07,-211.5 212.28,-198.35 191.57,-188.54"/>
<polygon fill="#63b8ff" stroke="#63b8ff" points="192.86,-185.28 182.32,-184.17 189.86,-191.61 192.86,-185.28"/>
</a>
</g>
</g>
<!-- Node5 -->
<g id="Node000005" class="node">
<title>Node5</title>
<g id="a_Node000005"><a xlink:href="l4_2sys_2l4int_8h.html" target="_top" xlink:title="Fixed sized integer types, generic version.">
<polygon fill="white" stroke="#666666" points="692.5,-74 613.5,-74 613.5,-55 692.5,-55 692.5,-74"/>
<text text-anchor="middle" x="653" y="-62" font-family="Helvetica,sans-Serif" font-size="10.00">l4/sys/l4int.h</text>
</a>
</g>
</g>
<!-- Node4&#45;&gt;Node5 -->
<g id="edge4_Node000004_Node000005" class="edge">
<title>Node4&#45;&gt;Node5</title>
<g id="a_edge4_Node000004_Node000005"><a xlink:title=" ">
<path fill="none" stroke="#63b8ff" d="M524.5,-164.83C537.12,-156 557.12,-141.83 574,-129 595.16,-112.92 618.85,-93.71 634.72,-80.66"/>
<polygon fill="#63b8ff" stroke="#63b8ff" points="637.18,-83.17 642.66,-74.11 632.72,-77.77 637.18,-83.17"/>
</a>
</g>
</g>
<!-- Node6 -->
<g id="Node000006" class="node">
<title>Node6</title>
<g id="a_Node000006"><a xlink:href="compiler_8h.html" target="_top" xlink:title="L4 compiler related defines.">
<polygon fill="white" stroke="#666666" points="455.5,-74 356.5,-74 356.5,-55 455.5,-55 455.5,-74"/>
<text text-anchor="middle" x="406" y="-62" font-family="Helvetica,sans-Serif" font-size="10.00">l4/sys/compiler.h</text>
</a>
</g>
</g>
<!-- Node4&#45;&gt;Node6 -->
<g id="edge5_Node000004_Node000006" class="edge">
<title>Node4&#45;&gt;Node6</title>
<g id="a_edge5_Node000004_Node000006"><a xlink:title=" ">
<path fill="none" stroke="#63b8ff" d="M503.55,-164.98C494.68,-156.04 480.34,-141.55 468,-129 452.08,-112.8 433.94,-94.2 421.41,-81.34"/>
<polygon fill="#63b8ff" stroke="#63b8ff" points="423.89,-78.87 414.41,-74.14 418.87,-83.75 423.89,-78.87"/>
</a>
</g>
</g>
<!-- Node7 -->
<g id="Node000007" class="node">
<title>Node7</title>
<g id="a_Node000007"><a xlink:href="l4_2sys_2consts_8h.html" target="_top" xlink:title="Common constants.">
<polygon fill="white" stroke="#666666" points="565.5,-129 476.5,-129 476.5,-110 565.5,-110 565.5,-129"/>
<text text-anchor="middle" x="521" y="-117" font-family="Helvetica,sans-Serif" font-size="10.00">l4/sys/consts.h</text>
</a>
</g>
</g>
<!-- Node4&#45;&gt;Node7 -->
<g id="edge7_Node000004_Node000007" class="edge">
<title>Node4&#45;&gt;Node7</title>
<g id="a_edge7_Node000004_Node000007"><a xlink:title=" ">
<path fill="none" stroke="#63b8ff" d="M513.49,-164.75C514.67,-157.8 516.36,-147.85 517.84,-139.13"/>
<polygon fill="#63b8ff" stroke="#63b8ff" points="521.32,-139.53 519.54,-129.09 514.42,-138.36 521.32,-139.53"/>
</a>
</g>
</g>
<!-- Node8 -->
<g id="Node000008" class="node">
<title>Node8</title>
<g id="a_Node000008"><a xlink:href="____l4__fpage_8h_source.html" target="_top" xlink:title=" ">
<polygon fill="white" stroke="#666666" points="420,-129 310,-129 310,-110 420,-110 420,-129"/>
<text text-anchor="middle" x="365" y="-117" font-family="Helvetica,sans-Serif" font-size="10.00">l4/sys/__l4_fpage.h</text>
</a>
</g>
</g>
<!-- Node4&#45;&gt;Node8 -->
<g id="edge10_Node000004_Node000008" class="edge">
<title>Node4&#45;&gt;Node8</title>
<g id="a_edge10_Node000004_Node000008"><a xlink:title=" ">
<path fill="none" stroke="#63b8ff" d="M488.38,-164.98C464.1,-156.23 426.05,-142.51 398.63,-132.62"/>
<polygon fill="#63b8ff" stroke="#63b8ff" points="399.64,-129.27 389.05,-129.17 397.27,-135.85 399.64,-129.27"/>
</a>
</g>
</g>
<!-- Node9 -->
<g id="Node000009" class="node">
<title>Node9</title>
<g id="a_Node000009"><a xlink:href="____timeout_8h_source.html" target="_top" xlink:title=" ">
<polygon fill="white" stroke="#666666" points="766,-129 660,-129 660,-110 766,-110 766,-129"/>
<text text-anchor="middle" x="713" y="-117" font-family="Helvetica,sans-Serif" font-size="10.00">l4/sys/__timeout.h</text>
</a>
</g>
</g>
<!-- Node4&#45;&gt;Node9 -->
<g id="edge12_Node000004_Node000009" class="edge">
<title>Node4&#45;&gt;Node9</title>
<g id="a_edge12_Node000004_Node000009"><a xlink:title=" ">
<path fill="none" stroke="#63b8ff" d="M544.29,-164.98C578.62,-155.93 633.06,-141.58 670.77,-131.64"/>
<polygon fill="#63b8ff" stroke="#63b8ff" points="671.68,-135.02 680.45,-129.08 669.89,-128.25 671.68,-135.02"/>
</a>
</g>
</g>
<!-- Node6&#45;&gt;Node3 -->
<g id="edge6_Node000006_Node000003" class="edge">
<title>Node6&#45;&gt;Node3</title>
<g id="a_edge6_Node000006_Node000003"><a xlink:title=" ">
<path fill="none" stroke="#63b8ff" d="M389.61,-54.98C373.43,-46.57 348.43,-33.59 329.62,-23.81"/>
<polygon fill="#63b8ff" stroke="#63b8ff" points="331.17,-20.68 320.69,-19.17 327.95,-26.89 331.17,-20.68"/>
</a>
</g>
</g>
<!-- Node7&#45;&gt;Node5 -->
<g id="edge9_Node000007_Node000005" class="edge">
<title>Node7&#45;&gt;Node5</title>
<g id="a_edge9_Node000007_Node000005"><a xlink:title=" ">
<path fill="none" stroke="#63b8ff" d="M542.21,-109.98C563.73,-101.34 597.28,-87.87 621.83,-78.02"/>
<polygon fill="#63b8ff" stroke="#63b8ff" points="623.43,-81.14 631.41,-74.17 620.82,-74.65 623.43,-81.14"/>
</a>
</g>
</g>
<!-- Node7&#45;&gt;Node6 -->
<g id="edge8_Node000007_Node000006" class="edge">
<title>Node7&#45;&gt;Node6</title>
<g id="a_edge8_Node000007_Node000006"><a xlink:title=" ">
<path fill="none" stroke="#63b8ff" d="M502.52,-109.98C484.02,-101.46 455.32,-88.23 434.02,-78.41"/>
<polygon fill="#63b8ff" stroke="#63b8ff" points="435.36,-75.18 424.81,-74.17 432.43,-81.53 435.36,-75.18"/>
</a>
</g>
</g>
<!-- Node8&#45;&gt;Node6 -->
<g id="edge11_Node000008_Node000006" class="edge">
<title>Node8&#45;&gt;Node6</title>
<g id="a_edge11_Node000008_Node000006"><a xlink:title=" ">
<path fill="none" stroke="#63b8ff" d="M371.77,-109.75C377.56,-102.26 386.06,-91.28 393.14,-82.13"/>
<polygon fill="#63b8ff" stroke="#63b8ff" points="396.01,-84.14 399.36,-74.09 390.47,-79.86 396.01,-84.14"/>
</a>
</g>
</g>
<!-- Node9&#45;&gt;Node5 -->
<g id="edge13_Node000009_Node000005" class="edge">
<title>Node9&#45;&gt;Node5</title>
<g id="a_edge13_Node000009_Node000005"><a xlink:title=" ">
<path fill="none" stroke="#63b8ff" d="M703.36,-109.98C694.49,-102.15 681.13,-90.34 670.39,-80.86"/>
<polygon fill="#63b8ff" stroke="#63b8ff" points="672.63,-78.17 662.82,-74.17 667.99,-83.41 672.63,-78.17"/>
</a>
</g>
</g>
<!-- Node10&#45;&gt;Node6 -->
<g id="edge15_Node000010_Node000006" class="edge">
<title>Node10&#45;&gt;Node6</title>
<g id="a_edge15_Node000010_Node000006"><a xlink:title=" ">
<path fill="none" stroke="#63b8ff" d="M303,-164.86C297.6,-151.81 289.87,-126.8 301,-110 311.52,-94.12 328.95,-83.89 346.62,-77.31"/>
<polygon fill="#63b8ff" stroke="#63b8ff" points="348.06,-80.52 356.42,-74.02 345.83,-73.89 348.06,-80.52"/>
</a>
</g>
</g>
<!-- Node13&#45;&gt;Node13 -->
<g id="edge20_Node000013_Node000013" class="edge">
<title>Node13&#45;&gt;Node13</title>
<g id="a_edge20_Node000013_Node000013"><a xlink:title=" ">
<path fill="none" stroke="#63b8ff" d="M652.55,-349.03C669.31,-351.06 685,-347.88 685,-339.5 685,-332.88 675.23,-329.51 662.88,-329.38"/>
<polygon fill="#63b8ff" stroke="#63b8ff" points="662.34,-325.9 652.55,-329.97 662.74,-332.89 662.34,-325.9"/>
</a>
</g>
</g>
<!-- Node14 -->
<g id="Node000014" class="node">
<title>Node14</title>
<g id="a_Node000014"><a xlink:title=" ">
<polygon fill="#e0e0e0" stroke="#999999" points="655,-294 605,-294 605,-275 655,-275 655,-294"/>
<text text-anchor="middle" x="630" y="-282" font-family="Helvetica,sans-Serif" font-size="10.00">stdio.h</text>
</a>
</g>
</g>
<!-- Node13&#45;&gt;Node14 -->
<g id="edge19_Node000013_Node000014" class="edge">
<title>Node13&#45;&gt;Node14</title>
<g id="a_edge19_Node000013_Node000014"><a xlink:title=" ">
<path fill="none" stroke="#63b8ff" d="M624.99,-329.75C625.78,-322.8 626.9,-312.85 627.89,-304.13"/>
<polygon fill="#63b8ff" stroke="#63b8ff" points="631.38,-304.42 629.03,-294.09 624.42,-303.63 631.38,-304.42"/>
</a>
</g>
</g>
<!-- Node15&#45;&gt;Node4 -->
<g id="edge22_Node000015_Node000004" class="edge">
<title>Node15&#45;&gt;Node4</title>
<g id="a_edge22_Node000015_Node000004"><a xlink:title=" ">
<path fill="none" stroke="#63b8ff" d="M499.51,-329.75C488.71,-321.87 474.35,-309.21 468,-294 453.01,-258.09 479.9,-215.06 497.84,-192.01"/>
<polygon fill="#63b8ff" stroke="#63b8ff" points="500.59,-194.19 504.18,-184.22 495.16,-189.77 500.59,-194.19"/>
</a>
</g>
</g>
<!-- Node16 -->
<g id="Node000016" class="node">
<title>Node16</title>
<g id="a_Node000016"><a xlink:href="l4_2sys_2utcb_8h.html" target="_top" xlink:title="UTCB definitions.">
<polygon fill="white" stroke="#666666" points="618,-239 540,-239 540,-220 618,-220 618,-239"/>
<text text-anchor="middle" x="579" y="-227" font-family="Helvetica,sans-Serif" font-size="10.00">l4/sys/utcb.h</text>
</a>
</g>
</g>
<!-- Node15&#45;&gt;Node16 -->
<g id="edge23_Node000015_Node000016" class="edge">
<title>Node15&#45;&gt;Node16</title>
<g id="a_edge23_Node000015_Node000016"><a xlink:title=" ">
<path fill="none" stroke="#63b8ff" d="M524.49,-329.78C534.61,-321.56 549.08,-308.38 558,-294 566.61,-280.12 572.09,-262.33 575.29,-249.11"/>
<polygon fill="#63b8ff" stroke="#63b8ff" points="578.73,-249.79 577.46,-239.27 571.89,-248.28 578.73,-249.79"/>
</a>
</g>
</g>
<!-- Node17 -->
<g id="Node000017" class="node">
<title>Node17</title>
<g id="a_Node000017"><a xlink:href="l4_2sys_2ipc_8h.html" target="_top" xlink:title="Common IPC interface.">
<polygon fill="white" stroke="#666666" points="548.5,-294 477.5,-294 477.5,-275 548.5,-275 548.5,-294"/>
<text text-anchor="middle" x="513" y="-282" font-family="Helvetica,sans-Serif" font-size="10.00">l4/sys/ipc.h</text>
</a>
</g>
</g>
<!-- Node15&#45;&gt;Node17 -->
<g id="edge27_Node000015_Node000017" class="edge">
<title>Node15&#45;&gt;Node17</title>
<g id="a_edge27_Node000015_Node000017"><a xlink:title=" ">
<path fill="none" stroke="#63b8ff" d="M513,-329.75C513,-322.8 513,-312.85 513,-304.13"/>
<polygon fill="#63b8ff" stroke="#63b8ff" points="516.5,-304.09 513,-294.09 509.5,-304.09 516.5,-304.09"/>
</a>
</g>
</g>
<!-- Node16&#45;&gt;Node4 -->
<g id="edge24_Node000016_Node000004" class="edge">
<title>Node16&#45;&gt;Node4</title>
<g id="a_edge24_Node000016_Node000004"><a xlink:title=" ">
<path fill="none" stroke="#63b8ff" d="M568.24,-219.98C558.23,-212.07 543.11,-200.11 531.07,-190.58"/>
<polygon fill="#63b8ff" stroke="#63b8ff" points="532.97,-187.63 522.96,-184.17 528.63,-193.12 532.97,-187.63"/>
</a>
</g>
</g>
<!-- Node16&#45;&gt;Node5 -->
<g id="edge26_Node000016_Node000005" class="edge">
<title>Node16&#45;&gt;Node5</title>
<g id="a_edge26_Node000016_Node000005"><a xlink:title=" ">
<path fill="none" stroke="#63b8ff" d="M618.18,-221.27C664.88,-210.33 740.86,-184.61 775,-129 794.6,-97.07 744.33,-80.42 702.49,-72.32"/>
<polygon fill="#63b8ff" stroke="#63b8ff" points="703.09,-68.87 692.63,-70.54 701.84,-75.76 703.09,-68.87"/>
</a>
</g>
</g>
<!-- Node16&#45;&gt;Node6 -->
<g id="edge25_Node000016_Node000006" class="edge">
<title>Node16&#45;&gt;Node6</title>
<g id="a_edge25_Node000016_Node000006"><a xlink:title=" ">
<path fill="none" stroke="#63b8ff" d="M581.72,-219.87C587.87,-198.55 600.32,-142.74 574,-110 560.31,-92.96 508.3,-80.96 465.74,-73.74"/>
<polygon fill="#63b8ff" stroke="#63b8ff" points="466.14,-70.26 455.71,-72.1 465.01,-77.17 466.14,-70.26"/>
</a>
</g>
</g>
<!-- Node17&#45;&gt;Node4 -->
<g id="edge28_Node000017_Node000004" class="edge">
<title>Node17&#45;&gt;Node4</title>
<g id="a_edge28_Node000017_Node000004"><a xlink:title=" ">
<path fill="none" stroke="#63b8ff" d="M512.92,-274.66C512.76,-257.17 512.39,-217.8 512.17,-194.27"/>
<polygon fill="#63b8ff" stroke="#63b8ff" points="515.67,-194.13 512.08,-184.16 508.67,-194.19 515.67,-194.13"/>
</a>
</g>
</g>
<!-- Node17&#45;&gt;Node10 -->
<g id="edge30_Node000017_Node000010" class="edge">
<title>Node17&#45;&gt;Node10</title>
<g id="a_edge30_Node000017_Node000010"><a xlink:title=" ">
<path fill="none" stroke="#63b8ff" d="M496.49,-274.84C460.54,-256 374.99,-211.14 332.23,-188.73"/>
<polygon fill="#63b8ff" stroke="#63b8ff" points="333.78,-185.59 323.3,-184.05 330.53,-191.79 333.78,-185.59"/>
</a>
</g>
</g>
<!-- Node17&#45;&gt;Node16 -->
<g id="edge29_Node000017_Node000016" class="edge">
<title>Node17&#45;&gt;Node16</title>
<g id="a_edge29_Node000017_Node000016"><a xlink:title=" ">
<path fill="none" stroke="#63b8ff" d="M523.6,-274.98C533.46,-267.07 548.35,-255.11 560.22,-245.58"/>
<polygon fill="#63b8ff" stroke="#63b8ff" points="562.6,-248.16 568.2,-239.17 558.21,-242.7 562.6,-248.16"/>
</a>
</g>
</g>
</g>
</svg>
