<?xml version="1.0" encoding="UTF-8" standalone="no"?>
<!DOCTYPE svg PUBLIC "-//W3C//DTD SVG 1.1//EN"
 "http://www.w3.org/Graphics/SVG/1.1/DTD/svg11.dtd">
<!-- Generated by graphviz version 2.43.0 (0)
 -->
<!-- Title: l4/re/rm Pages: 1 -->
<svg width="1491pt" height="280pt"
 viewBox="0.00 0.00 1490.50 280.00" xmlns="http://www.w3.org/2000/svg" xmlns:xlink="http://www.w3.org/1999/xlink">
<g id="graph0" class="graph" transform="scale(1 1) rotate(0) translate(4 276)">
<title>l4/re/rm</title>
<!-- Node1 -->
<g id="Node000001" class="node">
<title>Node1</title>
<g id="a_Node000001"><a xlink:title="Region mapper interface.">
<polygon fill="#999999" stroke="#666666" points="1074.5,-272 1019.5,-272 1019.5,-253 1074.5,-253 1074.5,-272"/>
<text text-anchor="middle" x="1047" y="-260" font-family="Helvetica,sans-Serif" font-size="10.00">l4/re/rm</text>
</a>
</g>
</g>
<!-- Node2 -->
<g id="Node000002" class="node">
<title>Node2</title>
<g id="a_Node000002"><a xlink:href="vfs__impl_8h_source.html" target="_top" xlink:title=" ">
<polygon fill="white" stroke="#666666" points="110,-162 0,-162 0,-132 110,-132 110,-162"/>
<text text-anchor="start" x="8" y="-150" font-family="Helvetica,sans-Serif" font-size="10.00">l4/l4re_vfs/impl/vfs</text>
<text text-anchor="middle" x="55" y="-139" font-family="Helvetica,sans-Serif" font-size="10.00">_impl.h</text>
</a>
</g>
</g>
<!-- Node1&#45;&gt;Node2 -->
<g id="edge1_Node000001_Node000002" class="edge">
<title>Node1&#45;&gt;Node2</title>
<g id="a_edge1_Node000001_Node000002"><a xlink:title=" ">
<path fill="none" stroke="#63b8ff" d="M1009.15,-259.84C914.8,-255.45 661.71,-242.11 452,-217 303.06,-199.17 266.32,-190.26 119,-162 116.1,-161.44 113.12,-160.85 110.12,-160.25"/>
<polygon fill="#63b8ff" stroke="#63b8ff" points="1009.19,-263.35 1019.34,-260.31 1009.51,-256.35 1009.19,-263.35"/>
</a>
</g>
</g>
<!-- Node3 -->
<g id="Node000003" class="node">
<title>Node3</title>
<g id="a_Node000003"><a xlink:href="server_2l4virtio_source.html" target="_top" xlink:title=" ">
<polygon fill="white" stroke="#666666" points="225.5,-162 128.5,-162 128.5,-132 225.5,-132 225.5,-162"/>
<text text-anchor="start" x="136.5" y="-150" font-family="Helvetica,sans-Serif" font-size="10.00">l4/l4virtio/server</text>
<text text-anchor="middle" x="177" y="-139" font-family="Helvetica,sans-Serif" font-size="10.00">/l4virtio</text>
</a>
</g>
</g>
<!-- Node1&#45;&gt;Node3 -->
<g id="edge2_Node000001_Node000003" class="edge">
<title>Node1&#45;&gt;Node3</title>
<g id="a_edge2_Node000001_Node000003"><a xlink:title=" ">
<path fill="none" stroke="#63b8ff" d="M1009.22,-258.89C892.79,-250.41 529.52,-220.74 234,-162 231.3,-161.46 228.54,-160.88 225.75,-160.28"/>
<polygon fill="#63b8ff" stroke="#63b8ff" points="1009.17,-262.39 1019.39,-259.62 1009.67,-255.41 1009.17,-262.39"/>
</a>
</g>
</g>
<!-- Node5 -->
<g id="Node000005" class="node">
<title>Node5</title>
<g id="a_Node000005"><a xlink:href="env.html" target="_top" xlink:title="Environment interface.">
<polygon fill="white" stroke="#666666" points="662.5,-217 603.5,-217 603.5,-198 662.5,-198 662.5,-217"/>
<text text-anchor="middle" x="633" y="-205" font-family="Helvetica,sans-Serif" font-size="10.00">l4/re/env</text>
</a>
</g>
</g>
<!-- Node1&#45;&gt;Node5 -->
<g id="edge4_Node000001_Node000005" class="edge">
<title>Node1&#45;&gt;Node5</title>
<g id="a_edge4_Node000001_Node000005"><a xlink:title=" ">
<path fill="none" stroke="#63b8ff" d="M1008.85,-256.62C927.03,-246.14 736.15,-221.71 662.61,-212.29"/>
<polygon fill="#63b8ff" stroke="#63b8ff" points="1008.83,-260.14 1019.19,-257.94 1009.72,-253.2 1008.83,-260.14"/>
</a>
</g>
</g>
<!-- Node13 -->
<g id="Node000013" class="node">
<title>Node13</title>
<g id="a_Node000013"><a xlink:href="util_2event.html" target="_top" xlink:title=" ">
<polygon fill="white" stroke="#666666" points="1325,-156.5 1237,-156.5 1237,-137.5 1325,-137.5 1325,-156.5"/>
<text text-anchor="middle" x="1281" y="-144.5" font-family="Helvetica,sans-Serif" font-size="10.00">l4/re/util/event</text>
</a>
</g>
</g>
<!-- Node1&#45;&gt;Node13 -->
<g id="edge25_Node000001_Node000013" class="edge">
<title>Node1&#45;&gt;Node13</title>
<g id="a_edge25_Node000001_Node000013"><a xlink:title=" ">
<path fill="none" stroke="#63b8ff" d="M1031.97,-245.05C1021.22,-231.26 1010.52,-211.68 1022,-198 1051.74,-162.58 1181.8,-171.81 1227,-162 1234.38,-160.4 1242.28,-158.47 1249.69,-156.57"/>
<polygon fill="#63b8ff" stroke="#63b8ff" points="1029.35,-247.38 1038.46,-252.79 1034.71,-242.88 1029.35,-247.38"/>
</a>
</g>
</g>
<!-- Node19 -->
<g id="Node000019" class="node">
<title>Node19</title>
<g id="a_Node000019"><a xlink:href="rm__impl_8h.html" target="_top" xlink:title="Region map client stub implementation.">
<polygon fill="white" stroke="#666666" points="1287,-217 1171,-217 1171,-198 1287,-198 1287,-217"/>
<text text-anchor="middle" x="1229" y="-205" font-family="Helvetica,sans-Serif" font-size="10.00">l4/re/impl/rm_impl.h</text>
</a>
</g>
</g>
<!-- Node1&#45;&gt;Node19 -->
<g id="edge24_Node000001_Node000019" class="edge">
<title>Node1&#45;&gt;Node19</title>
<g id="a_edge24_Node000001_Node000019"><a xlink:title=" ">
<path fill="none" stroke="#63b8ff" d="M1084.25,-250.65C1118.37,-240.72 1168.19,-226.21 1199.59,-217.07"/>
<polygon fill="#63b8ff" stroke="#63b8ff" points="1083.26,-247.29 1074.64,-253.45 1085.22,-254.01 1083.26,-247.29"/>
</a>
</g>
</g>
<!-- Node20 -->
<g id="Node000020" class="node">
<title>Node20</title>
<g id="a_Node000020"><a xlink:href="event__buffer_source.html" target="_top" xlink:title=" ">
<polygon fill="white" stroke="#666666" points="1153,-217 1031,-217 1031,-198 1153,-198 1153,-217"/>
<text text-anchor="middle" x="1092" y="-205" font-family="Helvetica,sans-Serif" font-size="10.00">l4/re/util/event_buffer</text>
</a>
</g>
</g>
<!-- Node1&#45;&gt;Node20 -->
<g id="edge26_Node000001_Node000020" class="edge">
<title>Node1&#45;&gt;Node20</title>
<g id="a_edge26_Node000001_Node000020"><a xlink:title=" ">
<path fill="none" stroke="#63b8ff" d="M1061.05,-244.96C1068.89,-235.72 1078.33,-224.6 1084.71,-217.09"/>
<polygon fill="#63b8ff" stroke="#63b8ff" points="1058.24,-242.86 1054.43,-252.75 1063.57,-247.39 1058.24,-242.86"/>
</a>
</g>
</g>
<!-- Node21 -->
<g id="Node000021" class="node">
<title>Node21</title>
<g id="a_Node000021"><a xlink:href="region__mapping.html" target="_top" xlink:title="Region handling.">
<polygon fill="white" stroke="#666666" points="1482.5,-217 1343.5,-217 1343.5,-198 1482.5,-198 1482.5,-217"/>
<text text-anchor="middle" x="1413" y="-205" font-family="Helvetica,sans-Serif" font-size="10.00">l4/re/util/region_mapping</text>
</a>
</g>
</g>
<!-- Node1&#45;&gt;Node21 -->
<g id="edge28_Node000001_Node000021" class="edge">
<title>Node1&#45;&gt;Node21</title>
<g id="a_edge28_Node000001_Node000021"><a xlink:title=" ">
<path fill="none" stroke="#63b8ff" d="M1084.52,-256.07C1148.23,-246.84 1278.06,-228.04 1354.02,-217.04"/>
<polygon fill="#63b8ff" stroke="#63b8ff" points="1083.9,-252.62 1074.51,-257.52 1084.91,-259.55 1083.9,-252.62"/>
</a>
</g>
</g>
<!-- Node22 -->
<g id="Node000022" class="node">
<title>Node22</title>
<g id="a_Node000022"><a xlink:href="region__mapping__svr__2_source.html" target="_top" xlink:title=" ">
<polygon fill="white" stroke="#666666" points="1482.5,-162 1343.5,-162 1343.5,-132 1482.5,-132 1482.5,-162"/>
<text text-anchor="start" x="1351.5" y="-150" font-family="Helvetica,sans-Serif" font-size="10.00">l4/re/util/region_mapping</text>
<text text-anchor="middle" x="1413" y="-139" font-family="Helvetica,sans-Serif" font-size="10.00">_svr_2</text>
</a>
</g>
</g>
<!-- Node1&#45;&gt;Node22 -->
<g id="edge30_Node000001_Node000022" class="edge">
<title>Node1&#45;&gt;Node22</title>
<g id="a_edge30_Node000001_Node000022"><a xlink:title=" ">
<path fill="none" stroke="#63b8ff" d="M1084.72,-258.94C1134.47,-254.64 1224.11,-243.64 1296,-217 1315.35,-209.83 1362.92,-180.22 1391.08,-162.2"/>
<polygon fill="#63b8ff" stroke="#63b8ff" points="1084.41,-255.46 1074.73,-259.76 1084.99,-262.43 1084.41,-255.46"/>
</a>
</g>
</g>
<!-- Node4 -->
<g id="Node000004" class="node">
<title>Node4</title>
<g id="a_Node000004"><a xlink:href="server_2virtio-block_source.html" target="_top" xlink:title=" ">
<polygon fill="white" stroke="#666666" points="212.5,-96 115.5,-96 115.5,-66 212.5,-66 212.5,-96"/>
<text text-anchor="start" x="123.5" y="-84" font-family="Helvetica,sans-Serif" font-size="10.00">l4/l4virtio/server</text>
<text text-anchor="middle" x="164" y="-73" font-family="Helvetica,sans-Serif" font-size="10.00">/virtio&#45;block</text>
</a>
</g>
</g>
<!-- Node3&#45;&gt;Node4 -->
<g id="edge3_Node000003_Node000004" class="edge">
<title>Node3&#45;&gt;Node4</title>
<g id="a_edge3_Node000003_Node000004"><a xlink:title=" ">
<path fill="none" stroke="#63b8ff" d="M172.09,-121.83C170.33,-113.17 168.41,-103.7 166.88,-96.16"/>
<polygon fill="#63b8ff" stroke="#63b8ff" points="168.69,-122.69 174.11,-131.8 175.55,-121.3 168.69,-122.69"/>
</a>
</g>
</g>
<!-- Node5&#45;&gt;Node2 -->
<g id="edge7_Node000005_Node000002" class="edge">
<title>Node5&#45;&gt;Node2</title>
<g id="a_edge7_Node000005_Node000002"><a xlink:title=" ">
<path fill="none" stroke="#63b8ff" d="M593.11,-204.8C506.42,-200.73 294.54,-188.68 119,-162 116.08,-161.56 113.09,-161.06 110.07,-160.52"/>
<polygon fill="#63b8ff" stroke="#63b8ff" points="593.14,-208.31 603.29,-205.27 593.46,-201.31 593.14,-208.31"/>
</a>
</g>
</g>
<!-- Node5&#45;&gt;Node3 -->
<g id="edge13_Node000005_Node000003" class="edge">
<title>Node5&#45;&gt;Node3</title>
<g id="a_edge13_Node000005_Node000003"><a xlink:title=" ">
<path fill="none" stroke="#63b8ff" d="M593.28,-203.79C521.26,-198.49 364.49,-185.2 234,-162 231.29,-161.52 228.52,-160.98 225.73,-160.41"/>
<polygon fill="#63b8ff" stroke="#63b8ff" points="593.05,-207.28 603.28,-204.51 593.56,-200.3 593.05,-207.28"/>
</a>
</g>
</g>
<!-- Node6 -->
<g id="Node000006" class="node">
<title>Node6</title>
<g id="a_Node000006"><a xlink:href="ro__file__impl_8h_source.html" target="_top" xlink:title=" ">
<polygon fill="white" stroke="#666666" points="1081.5,-162 976.5,-162 976.5,-132 1081.5,-132 1081.5,-162"/>
<text text-anchor="start" x="984.5" y="-150" font-family="Helvetica,sans-Serif" font-size="10.00">l4/l4re_vfs/impl/ro</text>
<text text-anchor="middle" x="1029" y="-139" font-family="Helvetica,sans-Serif" font-size="10.00">_file_impl.h</text>
</a>
</g>
</g>
<!-- Node5&#45;&gt;Node6 -->
<g id="edge5_Node000005_Node000006" class="edge">
<title>Node5&#45;&gt;Node6</title>
<g id="a_edge5_Node000005_Node000006"><a xlink:title=" ">
<path fill="none" stroke="#63b8ff" d="M672.88,-202.36C735.69,-195.57 861.4,-180.92 967,-162 970.04,-161.46 973.16,-160.86 976.3,-160.24"/>
<polygon fill="#63b8ff" stroke="#63b8ff" points="672.2,-198.91 662.63,-203.46 672.94,-205.87 672.2,-198.91"/>
</a>
</g>
</g>
<!-- Node7 -->
<g id="Node000007" class="node">
<title>Node7</title>
<g id="a_Node000007"><a xlink:href="vcon__stream__impl_8h_source.html" target="_top" xlink:title=" ">
<polygon fill="white" stroke="#666666" points="1218.5,-162 1099.5,-162 1099.5,-132 1218.5,-132 1218.5,-162"/>
<text text-anchor="start" x="1107.5" y="-150" font-family="Helvetica,sans-Serif" font-size="10.00">l4/l4re_vfs/impl/vcon</text>
<text text-anchor="middle" x="1159" y="-139" font-family="Helvetica,sans-Serif" font-size="10.00">_stream_impl.h</text>
</a>
</g>
</g>
<!-- Node5&#45;&gt;Node7 -->
<g id="edge6_Node000005_Node000007" class="edge">
<title>Node5&#45;&gt;Node7</title>
<g id="a_edge6_Node000005_Node000007"><a xlink:title=" ">
<path fill="none" stroke="#63b8ff" d="M672.59,-204.03C752.04,-198.75 936.46,-184.99 1090,-162 1093.02,-161.55 1096.11,-161.05 1099.23,-160.52"/>
<polygon fill="#63b8ff" stroke="#63b8ff" points="672.28,-200.54 662.53,-204.68 672.74,-207.52 672.28,-200.54"/>
</a>
</g>
</g>
<!-- Node8 -->
<g id="Node000008" class="node">
<title>Node8</title>
<g id="a_Node000008"><a xlink:href="client_2l4virtio_source.html" target="_top" xlink:title=" ">
<polygon fill="white" stroke="#666666" points="488.5,-96 395.5,-96 395.5,-66 488.5,-66 488.5,-96"/>
<text text-anchor="start" x="403.5" y="-84" font-family="Helvetica,sans-Serif" font-size="10.00">l4/l4virtio/client</text>
<text text-anchor="middle" x="442" y="-73" font-family="Helvetica,sans-Serif" font-size="10.00">/l4virtio</text>
</a>
</g>
</g>
<!-- Node5&#45;&gt;Node8 -->
<g id="edge8_Node000005_Node000008" class="edge">
<title>Node5&#45;&gt;Node8</title>
<g id="a_edge8_Node000005_Node000008"><a xlink:title=" ">
<path fill="none" stroke="#63b8ff" d="M593.29,-203.85C538.71,-199.28 444.89,-187.8 424,-162 408.59,-142.97 422.02,-113.4 432.48,-96.04"/>
<polygon fill="#63b8ff" stroke="#63b8ff" points="593.08,-207.34 603.32,-204.65 593.63,-200.36 593.08,-207.34"/>
</a>
</g>
</g>
<!-- Node9 -->
<g id="Node000009" class="node">
<title>Node9</title>
<g id="a_Node000009"><a xlink:href="client_2virtio-block_source.html" target="_top" xlink:title=" ">
<polygon fill="white" stroke="#666666" points="563.5,-30 470.5,-30 470.5,0 563.5,0 563.5,-30"/>
<text text-anchor="start" x="478.5" y="-18" font-family="Helvetica,sans-Serif" font-size="10.00">l4/l4virtio/client</text>
<text text-anchor="middle" x="517" y="-7" font-family="Helvetica,sans-Serif" font-size="10.00">/virtio&#45;block</text>
</a>
</g>
</g>
<!-- Node5&#45;&gt;Node9 -->
<g id="edge11_Node000005_Node000009" class="edge">
<title>Node5&#45;&gt;Node9</title>
<g id="a_edge11_Node000005_Node000009"><a xlink:title=" ">
<path fill="none" stroke="#63b8ff" d="M622.38,-189.06C599.6,-151.66 546.44,-64.35 525.6,-30.12"/>
<polygon fill="#63b8ff" stroke="#63b8ff" points="619.52,-191.1 627.71,-197.82 625.5,-187.46 619.52,-191.1"/>
</a>
</g>
</g>
<!-- Node10 -->
<g id="Node000010" class="node">
<title>Node10</title>
<g id="a_Node000010"><a xlink:href="virtio-net_source.html" target="_top" xlink:title=" ">
<polygon fill="white" stroke="#666666" points="433.5,-30 340.5,-30 340.5,0 433.5,0 433.5,-30"/>
<text text-anchor="start" x="348.5" y="-18" font-family="Helvetica,sans-Serif" font-size="10.00">l4/l4virtio/client</text>
<text text-anchor="middle" x="387" y="-7" font-family="Helvetica,sans-Serif" font-size="10.00">/virtio&#45;net</text>
</a>
</g>
</g>
<!-- Node5&#45;&gt;Node10 -->
<g id="edge12_Node000005_Node000010" class="edge">
<title>Node5&#45;&gt;Node10</title>
<g id="a_edge12_Node000005_Node000010"><a xlink:title=" ">
<path fill="none" stroke="#63b8ff" d="M593.18,-202.85C537.72,-197.04 440.96,-184.02 414,-162 374.48,-129.71 379.94,-60.03 384.44,-30.11"/>
<polygon fill="#63b8ff" stroke="#63b8ff" points="593.06,-206.35 603.36,-203.88 593.77,-199.39 593.06,-206.35"/>
</a>
</g>
</g>
<!-- Node11 -->
<g id="Node000011" class="node">
<title>Node11</title>
<g id="a_Node000011"><a xlink:href="env__ns_source.html" target="_top" xlink:title=" ">
<polygon fill="white" stroke="#666666" points="718.5,-156.5 623.5,-156.5 623.5,-137.5 718.5,-137.5 718.5,-156.5"/>
<text text-anchor="middle" x="671" y="-144.5" font-family="Helvetica,sans-Serif" font-size="10.00">l4/re/util/env_ns</text>
</a>
</g>
</g>
<!-- Node5&#45;&gt;Node11 -->
<g id="edge14_Node000005_Node000011" class="edge">
<title>Node5&#45;&gt;Node11</title>
<g id="a_edge14_Node000005_Node000011"><a xlink:title=" ">
<path fill="none" stroke="#63b8ff" d="M644.17,-189.3C651.14,-178.58 659.8,-165.23 665.37,-156.67"/>
<polygon fill="#63b8ff" stroke="#63b8ff" points="641.12,-187.58 638.61,-197.87 646.99,-191.39 641.12,-187.58"/>
</a>
</g>
</g>
<!-- Node5&#45;&gt;Node13 -->
<g id="edge16_Node000005_Node000013" class="edge">
<title>Node5&#45;&gt;Node13</title>
<g id="a_edge16_Node000005_Node000013"><a xlink:title=" ">
<path fill="none" stroke="#63b8ff" d="M672.7,-205.97C768.6,-204.17 1020.25,-196.26 1227,-162 1235.22,-160.64 1244.01,-158.61 1252.06,-156.52"/>
<polygon fill="#63b8ff" stroke="#63b8ff" points="672.52,-202.47 662.58,-206.15 672.64,-209.47 672.52,-202.47"/>
</a>
</g>
</g>
<!-- Node14 -->
<g id="Node000014" class="node">
<title>Node14</title>
<g id="a_Node000014"><a xlink:href="icu__svr_source.html" target="_top" xlink:title=" ">
<polygon fill="white" stroke="#666666" points="338.5,-156.5 243.5,-156.5 243.5,-137.5 338.5,-137.5 338.5,-156.5"/>
<text text-anchor="middle" x="291" y="-144.5" font-family="Helvetica,sans-Serif" font-size="10.00">l4/re/util/icu_svr</text>
</a>
</g>
</g>
<!-- Node5&#45;&gt;Node14 -->
<g id="edge17_Node000005_Node000014" class="edge">
<title>Node5&#45;&gt;Node14</title>
<g id="a_edge17_Node000005_Node000014"><a xlink:title=" ">
<path fill="none" stroke="#63b8ff" d="M593.55,-201.05C539.22,-193.35 438.37,-178.4 353,-162 344.55,-160.38 335.49,-158.44 326.98,-156.54"/>
<polygon fill="#63b8ff" stroke="#63b8ff" points="593.07,-204.52 603.46,-202.44 594.05,-197.58 593.07,-204.52"/>
</a>
</g>
</g>
<!-- Node16 -->
<g id="Node000016" class="node">
<title>Node16</title>
<g id="a_Node000016"><a xlink:href="kumem__alloc.html" target="_top" xlink:title="Kumem allocator helper.">
<polygon fill="white" stroke="#666666" points="861.5,-156.5 736.5,-156.5 736.5,-137.5 861.5,-137.5 861.5,-156.5"/>
<text text-anchor="middle" x="799" y="-144.5" font-family="Helvetica,sans-Serif" font-size="10.00">l4/re/util/kumem_alloc</text>
</a>
</g>
</g>
<!-- Node5&#45;&gt;Node16 -->
<g id="edge19_Node000005_Node000016" class="edge">
<title>Node5&#45;&gt;Node16</title>
<g id="a_edge19_Node000005_Node000016"><a xlink:title=" ">
<path fill="none" stroke="#63b8ff" d="M666.98,-194.52C699.08,-183.21 746.42,-166.53 774.83,-156.52"/>
<polygon fill="#63b8ff" stroke="#63b8ff" points="665.41,-191.37 657.14,-197.99 667.73,-197.97 665.41,-191.37"/>
</a>
</g>
</g>
<!-- Node17 -->
<g id="Node000017" class="node">
<title>Node17</title>
<g id="a_Node000017"><a xlink:href="object__registry_source.html" target="_top" xlink:title=" ">
<polygon fill="white" stroke="#666666" points="566.5,-156.5 433.5,-156.5 433.5,-137.5 566.5,-137.5 566.5,-156.5"/>
<text text-anchor="middle" x="500" y="-144.5" font-family="Helvetica,sans-Serif" font-size="10.00">l4/re/util/object_registry</text>
</a>
</g>
</g>
<!-- Node5&#45;&gt;Node17 -->
<g id="edge20_Node000005_Node000017" class="edge">
<title>Node5&#45;&gt;Node17</title>
<g id="a_edge20_Node000005_Node000017"><a xlink:title=" ">
<path fill="none" stroke="#63b8ff" d="M604.43,-193.93C578.75,-182.64 541.73,-166.36 519.36,-156.52"/>
<polygon fill="#63b8ff" stroke="#63b8ff" points="603.1,-197.17 613.66,-197.99 605.92,-190.76 603.1,-197.17"/>
</a>
</g>
</g>
<!-- Node18 -->
<g id="Node000018" class="node">
<title>Node18</title>
<g id="a_Node000018"><a xlink:href="vcpu.html" target="_top" xlink:title="vCPU support library (C++ interface).">
<polygon fill="white" stroke="#666666" points="958,-156.5 880,-156.5 880,-137.5 958,-137.5 958,-156.5"/>
<text text-anchor="middle" x="919" y="-144.5" font-family="Helvetica,sans-Serif" font-size="10.00">l4/vcpu/vcpu</text>
</a>
</g>
</g>
<!-- Node5&#45;&gt;Node18 -->
<g id="edge23_Node000005_Node000018" class="edge">
<title>Node5&#45;&gt;Node18</title>
<g id="a_edge23_Node000005_Node000018"><a xlink:title=" ">
<path fill="none" stroke="#63b8ff" d="M672.87,-200.17C720.16,-192.4 801.25,-178.24 870,-162 876.8,-160.39 884.07,-158.45 890.87,-156.52"/>
<polygon fill="#63b8ff" stroke="#63b8ff" points="672.05,-196.76 662.74,-201.83 673.18,-203.67 672.05,-196.76"/>
</a>
</g>
</g>
<!-- Node8&#45;&gt;Node9 -->
<g id="edge9_Node000008_Node000009" class="edge">
<title>Node8&#45;&gt;Node9</title>
<g id="a_edge9_Node000008_Node000009"><a xlink:title=" ">
<path fill="none" stroke="#63b8ff" d="M466.37,-59.2C477.51,-49.7 490.41,-38.69 500.4,-30.16"/>
<polygon fill="#63b8ff" stroke="#63b8ff" points="463.98,-56.64 458.64,-65.8 468.52,-61.97 463.98,-56.64"/>
</a>
</g>
</g>
<!-- Node8&#45;&gt;Node10 -->
<g id="edge10_Node000008_Node000010" class="edge">
<title>Node8&#45;&gt;Node10</title>
<g id="a_edge10_Node000008_Node000010"><a xlink:title=" ">
<path fill="none" stroke="#63b8ff" d="M423.17,-58.09C415.23,-48.85 406.22,-38.36 399.17,-30.16"/>
<polygon fill="#63b8ff" stroke="#63b8ff" points="420.62,-60.49 429.79,-65.8 425.93,-55.93 420.62,-60.49"/>
</a>
</g>
</g>
<!-- Node12 -->
<g id="Node000012" class="node">
<title>Node12</title>
<g id="a_Node000012"><a xlink:href="ns__fs__impl_8h_source.html" target="_top" xlink:title=" ">
<polygon fill="white" stroke="#666666" points="730.5,-96 623.5,-96 623.5,-66 730.5,-66 730.5,-96"/>
<text text-anchor="start" x="631.5" y="-84" font-family="Helvetica,sans-Serif" font-size="10.00">l4/l4re_vfs/impl/ns</text>
<text text-anchor="middle" x="677" y="-73" font-family="Helvetica,sans-Serif" font-size="10.00">_fs_impl.h</text>
</a>
</g>
</g>
<!-- Node11&#45;&gt;Node12 -->
<g id="edge15_Node000011_Node000012" class="edge">
<title>Node11&#45;&gt;Node12</title>
<g id="a_edge15_Node000011_Node000012"><a xlink:title=" ">
<path fill="none" stroke="#63b8ff" d="M672.75,-127.35C673.68,-117.47 674.8,-105.51 675.65,-96.36"/>
<polygon fill="#63b8ff" stroke="#63b8ff" points="669.26,-127.09 671.81,-137.37 676.23,-127.74 669.26,-127.09"/>
</a>
</g>
</g>
<!-- Node15 -->
<g id="Node000015" class="node">
<title>Node15</title>
<g id="a_Node000015"><a xlink:href="event__svr_source.html" target="_top" xlink:title=" ">
<polygon fill="white" stroke="#666666" points="339,-90.5 231,-90.5 231,-71.5 339,-71.5 339,-90.5"/>
<text text-anchor="middle" x="285" y="-78.5" font-family="Helvetica,sans-Serif" font-size="10.00">l4/re/util/event_svr</text>
</a>
</g>
</g>
<!-- Node14&#45;&gt;Node15 -->
<g id="edge18_Node000014_Node000015" class="edge">
<title>Node14&#45;&gt;Node15</title>
<g id="a_edge18_Node000014_Node000015"><a xlink:title=" ">
<path fill="none" stroke="#63b8ff" d="M289.23,-127.08C288.11,-115.13 286.71,-100.22 285.83,-90.91"/>
<polygon fill="#63b8ff" stroke="#63b8ff" points="285.77,-127.74 290.19,-137.37 292.74,-127.09 285.77,-127.74"/>
</a>
</g>
</g>
<!-- Node17&#45;&gt;Node8 -->
<g id="edge21_Node000017_Node000008" class="edge">
<title>Node17&#45;&gt;Node8</title>
<g id="a_edge21_Node000017_Node000008"><a xlink:title=" ">
<path fill="none" stroke="#63b8ff" d="M485.36,-129.85C476.02,-119.54 464.02,-106.3 455.01,-96.36"/>
<polygon fill="#63b8ff" stroke="#63b8ff" points="482.87,-132.31 492.18,-137.37 488.06,-127.61 482.87,-132.31"/>
</a>
</g>
</g>
<!-- Node17&#45;&gt;Node9 -->
<g id="edge22_Node000017_Node000009" class="edge">
<title>Node17&#45;&gt;Node9</title>
<g id="a_edge22_Node000017_Node000009"><a xlink:title=" ">
<path fill="none" stroke="#63b8ff" d="M502.44,-127.32C505.88,-101 512.08,-53.61 515.16,-30.07"/>
<polygon fill="#63b8ff" stroke="#63b8ff" points="498.94,-127.1 501.12,-137.47 505.88,-128.01 498.94,-127.1"/>
</a>
</g>
</g>
<!-- Node20&#45;&gt;Node13 -->
<g id="edge27_Node000020_Node000013" class="edge">
<title>Node20&#45;&gt;Node13</title>
<g id="a_edge27_Node000020_Node000013"><a xlink:title=" ">
<path fill="none" stroke="#63b8ff" d="M1129.27,-194.96C1165.83,-183.65 1220.72,-166.66 1253.48,-156.52"/>
<polygon fill="#63b8ff" stroke="#63b8ff" points="1128,-191.69 1119.48,-197.99 1130.07,-198.38 1128,-191.69"/>
</a>
</g>
</g>
<!-- Node21&#45;&gt;Node22 -->
<g id="edge29_Node000021_Node000022" class="edge">
<title>Node21&#45;&gt;Node22</title>
<g id="a_edge29_Node000021_Node000022"><a xlink:title=" ">
<path fill="none" stroke="#63b8ff" d="M1413,-187.65C1413,-179.36 1413,-169.78 1413,-162.11"/>
<polygon fill="#63b8ff" stroke="#63b8ff" points="1409.5,-187.87 1413,-197.87 1416.5,-187.87 1409.5,-187.87"/>
</a>
</g>
</g>
</g>
</svg>
