<?xml version="1.0" encoding="UTF-8" standalone="no"?>
<!DOCTYPE svg PUBLIC "-//W3C//DTD SVG 1.1//EN"
 "http://www.w3.org/Graphics/SVG/1.1/DTD/svg11.dtd">
<!-- Generated by graphviz version 2.43.0 (0)
 -->
<!-- Title: l4/sys/semaphore.h Pages: 1 -->
<svg width="587pt" height="533pt"
 viewBox="0.00 0.00 587.07 533.00" xmlns="http://www.w3.org/2000/svg" xmlns:xlink="http://www.w3.org/1999/xlink">
<g id="graph0" class="graph" transform="scale(1 1) rotate(0) translate(4 529)">
<title>l4/sys/semaphore.h</title>
<!-- Node1 -->
<g id="Node000001" class="node">
<title>Node1</title>
<g id="a_Node000001"><a xlink:title="C semaphore interface.">
<polygon fill="#999999" stroke="#666666" points="341.07,-525 229.07,-525 229.07,-506 341.07,-506 341.07,-525"/>
<text text-anchor="middle" x="285.07" y="-513" font-family="Helvetica,sans-Serif" font-size="10.00">l4/sys/semaphore.h</text>
</a>
</g>
</g>
<!-- Node2 -->
<g id="Node000002" class="node">
<title>Node2</title>
<g id="a_Node000002"><a xlink:href="l4_2sys_2irq_8h.html" target="_top" xlink:title="C Irq interface.">
<polygon fill="white" stroke="#666666" points="320.07,-470 250.07,-470 250.07,-451 320.07,-451 320.07,-470"/>
<text text-anchor="middle" x="285.07" y="-458" font-family="Helvetica,sans-Serif" font-size="10.00">l4/sys/irq.h</text>
</a>
</g>
</g>
<!-- Node1&#45;&gt;Node2 -->
<g id="edge1_Node000001_Node000002" class="edge">
<title>Node1&#45;&gt;Node2</title>
<g id="a_edge1_Node000001_Node000002"><a xlink:title=" ">
<path fill="none" stroke="#63b8ff" d="M285.07,-505.75C285.07,-498.8 285.07,-488.85 285.07,-480.13"/>
<polygon fill="#63b8ff" stroke="#63b8ff" points="288.57,-480.09 285.07,-470.09 281.57,-480.09 288.57,-480.09"/>
</a>
</g>
</g>
<!-- Node3 -->
<g id="Node000003" class="node">
<title>Node3</title>
<g id="a_Node000003"><a xlink:href="kernel__object_8h.html" target="_top" xlink:title="Kernel object system calls.">
<polygon fill="white" stroke="#666666" points="519.07,-415 397.07,-415 397.07,-396 519.07,-396 519.07,-415"/>
<text text-anchor="middle" x="458.07" y="-403" font-family="Helvetica,sans-Serif" font-size="10.00">l4/sys/kernel_object.h</text>
</a>
</g>
</g>
<!-- Node2&#45;&gt;Node3 -->
<g id="edge2_Node000002_Node000003" class="edge">
<title>Node2&#45;&gt;Node3</title>
<g id="a_edge2_Node000002_Node000003"><a xlink:title=" ">
<path fill="none" stroke="#63b8ff" d="M312.87,-450.98C342.04,-442.05 388.07,-427.94 420.47,-418.02"/>
<polygon fill="#63b8ff" stroke="#63b8ff" points="421.52,-421.36 430.06,-415.08 419.47,-414.66 421.52,-421.36"/>
</a>
</g>
</g>
<!-- Node13 -->
<g id="Node000013" class="node">
<title>Node13</title>
<g id="a_Node000013"><a xlink:href="l4_2sys_2ipc_8h.html" target="_top" xlink:title="Common IPC interface.">
<polygon fill="white" stroke="#666666" points="423.57,-294 352.57,-294 352.57,-275 423.57,-275 423.57,-294"/>
<text text-anchor="middle" x="388.07" y="-282" font-family="Helvetica,sans-Serif" font-size="10.00">l4/sys/ipc.h</text>
</a>
</g>
</g>
<!-- Node2&#45;&gt;Node13 -->
<g id="edge26_Node000002_Node000013" class="edge">
<title>Node2&#45;&gt;Node13</title>
<g id="a_edge26_Node000002_Node000013"><a xlink:title=" ">
<path fill="none" stroke="#63b8ff" d="M287.63,-450.73C294.24,-428.94 313.43,-371.12 342.07,-330 349.66,-319.11 360.18,-308.69 369.24,-300.68"/>
<polygon fill="#63b8ff" stroke="#63b8ff" points="371.68,-303.2 377.03,-294.05 367.15,-297.87 371.68,-303.2"/>
</a>
</g>
</g>
<!-- Node15 -->
<g id="Node000015" class="node">
<title>Node15</title>
<g id="a_Node000015"><a xlink:href="rcv__endpoint_8h.html" target="_top" xlink:title="Receive endpoint C interface.">
<polygon fill="white" stroke="#666666" points="257.07,-354.5 137.07,-354.5 137.07,-335.5 257.07,-335.5 257.07,-354.5"/>
<text text-anchor="middle" x="197.07" y="-342.5" font-family="Helvetica,sans-Serif" font-size="10.00">l4/sys/rcv_endpoint.h</text>
</a>
</g>
</g>
<!-- Node2&#45;&gt;Node15 -->
<g id="edge27_Node000002_Node000015" class="edge">
<title>Node2&#45;&gt;Node15</title>
<g id="a_edge27_Node000002_Node000015"><a xlink:title=" ">
<path fill="none" stroke="#63b8ff" d="M278.46,-450.97C263.93,-432.24 229.03,-387.22 209.99,-362.66"/>
<polygon fill="#63b8ff" stroke="#63b8ff" points="212.66,-360.39 203.76,-354.63 207.12,-364.68 212.66,-360.39"/>
</a>
</g>
</g>
<!-- Node4 -->
<g id="Node000004" class="node">
<title>Node4</title>
<g id="a_Node000004"><a xlink:href="l4_2sys_2types_8h.html" target="_top" xlink:title="Common L4 ABI Data Types.">
<polygon fill="white" stroke="#666666" points="363.07,-184 279.07,-184 279.07,-165 363.07,-165 363.07,-184"/>
<text text-anchor="middle" x="321.07" y="-172" font-family="Helvetica,sans-Serif" font-size="10.00">l4/sys/types.h</text>
</a>
</g>
</g>
<!-- Node3&#45;&gt;Node4 -->
<g id="edge3_Node000003_Node000004" class="edge">
<title>Node3&#45;&gt;Node4</title>
<g id="a_edge3_Node000003_Node000004"><a xlink:title=" ">
<path fill="none" stroke="#63b8ff" d="M470.28,-395.86C480.42,-387.88 494.11,-375.01 500.07,-360 505,-347.61 505.26,-342.28 500.07,-330 470.61,-260.21 390.61,-210.75 348.24,-188.58"/>
<polygon fill="#63b8ff" stroke="#63b8ff" points="349.81,-185.45 339.31,-184.02 346.62,-191.68 349.81,-185.45"/>
</a>
</g>
</g>
<!-- Node6 -->
<g id="Node000006" class="node">
<title>Node6</title>
<g id="a_Node000006"><a xlink:href="compiler_8h.html" target="_top" xlink:title="L4 compiler related defines.">
<polygon fill="white" stroke="#666666" points="490.57,-74 391.57,-74 391.57,-55 490.57,-55 490.57,-74"/>
<text text-anchor="middle" x="441.07" y="-62" font-family="Helvetica,sans-Serif" font-size="10.00">l4/sys/compiler.h</text>
</a>
</g>
</g>
<!-- Node3&#45;&gt;Node6 -->
<g id="edge14_Node000003_Node000006" class="edge">
<title>Node3&#45;&gt;Node6</title>
<g id="a_edge14_Node000003_Node000006"><a xlink:title=" ">
<path fill="none" stroke="#63b8ff" d="M478.32,-395.88C512.77,-379.71 579.07,-341.33 579.07,-285.5 579.07,-285.5 579.07,-285.5 579.07,-173.5 579.07,-122.94 520.92,-92.51 480.12,-77.39"/>
<polygon fill="#63b8ff" stroke="#63b8ff" points="481.27,-74.08 470.68,-74.04 478.93,-80.68 481.27,-74.08"/>
</a>
</g>
</g>
<!-- Node11 -->
<g id="Node000011" class="node">
<title>Node11</title>
<g id="a_Node000011"><a xlink:href="l4_2sys_2utcb_8h.html" target="_top" xlink:title="UTCB definitions.">
<polygon fill="white" stroke="#666666" points="360.07,-239 282.07,-239 282.07,-220 360.07,-220 360.07,-239"/>
<text text-anchor="middle" x="321.07" y="-227" font-family="Helvetica,sans-Serif" font-size="10.00">l4/sys/utcb.h</text>
</a>
</g>
</g>
<!-- Node3&#45;&gt;Node11 -->
<g id="edge15_Node000003_Node000011" class="edge">
<title>Node3&#45;&gt;Node11</title>
<g id="a_edge15_Node000003_Node000011"><a xlink:title=" ">
<path fill="none" stroke="#63b8ff" d="M404.02,-395.98C381.64,-389.7 357.38,-378.83 342.07,-360 316.17,-328.15 316.33,-276.95 318.7,-249.44"/>
<polygon fill="#63b8ff" stroke="#63b8ff" points="322.21,-249.54 319.78,-239.22 315.24,-248.8 322.21,-249.54"/>
</a>
</g>
</g>
<!-- Node12 -->
<g id="Node000012" class="node">
<title>Node12</title>
<g id="a_Node000012"><a xlink:href="____kernel__object__impl_8h.html" target="_top" xlink:title="Low&#45;level kernel debugger functions.">
<polygon fill="white" stroke="#666666" points="475.07,-360 351.07,-360 351.07,-330 475.07,-330 475.07,-360"/>
<text text-anchor="start" x="359.07" y="-348" font-family="Helvetica,sans-Serif" font-size="10.00">l4/sys/__kernel_object</text>
<text text-anchor="middle" x="413.07" y="-337" font-family="Helvetica,sans-Serif" font-size="10.00">_impl.h</text>
</a>
</g>
</g>
<!-- Node3&#45;&gt;Node12 -->
<g id="edge19_Node000003_Node000012" class="edge">
<title>Node3&#45;&gt;Node12</title>
<g id="a_edge19_Node000003_Node000012"><a xlink:title=" ">
<path fill="none" stroke="#63b8ff" d="M451.43,-395.87C445.83,-388.59 437.57,-377.85 430.15,-368.2"/>
<polygon fill="#63b8ff" stroke="#63b8ff" points="432.8,-365.91 423.93,-360.11 427.25,-370.17 432.8,-365.91"/>
</a>
</g>
</g>
<!-- Node3&#45;&gt;Node13 -->
<g id="edge25_Node000003_Node000013" class="edge">
<title>Node3&#45;&gt;Node13</title>
<g id="a_edge25_Node000003_Node000013"><a xlink:title=" ">
<path fill="none" stroke="#63b8ff" d="M465.92,-395.65C477.85,-381.07 497.79,-351.47 484.07,-330 472.79,-312.33 452.49,-301.57 433.46,-295.08"/>
<polygon fill="#63b8ff" stroke="#63b8ff" points="434.26,-291.66 423.67,-292.05 432.19,-298.35 434.26,-291.66"/>
</a>
</g>
</g>
<!-- Node5 -->
<g id="Node000005" class="node">
<title>Node5</title>
<g id="a_Node000005"><a xlink:href="l4_2sys_2l4int_8h.html" target="_top" xlink:title="Fixed sized integer types, generic version.">
<polygon fill="white" stroke="#666666" points="147.57,-74 68.57,-74 68.57,-55 147.57,-55 147.57,-74"/>
<text text-anchor="middle" x="108.07" y="-62" font-family="Helvetica,sans-Serif" font-size="10.00">l4/sys/l4int.h</text>
</a>
</g>
</g>
<!-- Node4&#45;&gt;Node5 -->
<g id="edge4_Node000004_Node000005" class="edge">
<title>Node4&#45;&gt;Node5</title>
<g id="a_edge4_Node000004_Node000005"><a xlink:title=" ">
<path fill="none" stroke="#63b8ff" d="M279.03,-167.45C246.84,-161.41 202.3,-149.91 168.07,-129 148.35,-116.95 130.85,-96.75 119.91,-82.37"/>
<polygon fill="#63b8ff" stroke="#63b8ff" points="122.72,-80.29 113.99,-74.29 117.08,-84.43 122.72,-80.29"/>
</a>
</g>
</g>
<!-- Node4&#45;&gt;Node6 -->
<g id="edge5_Node000004_Node000006" class="edge">
<title>Node4&#45;&gt;Node6</title>
<g id="a_edge5_Node000004_Node000006"><a xlink:title=" ">
<path fill="none" stroke="#63b8ff" d="M344.03,-164.98C361.73,-157.54 386,-145.37 403.07,-129 416.52,-116.1 426.93,-97.44 433.42,-83.68"/>
<polygon fill="#63b8ff" stroke="#63b8ff" points="436.73,-84.85 437.61,-74.29 430.34,-82 436.73,-84.85"/>
</a>
</g>
</g>
<!-- Node8 -->
<g id="Node000008" class="node">
<title>Node8</title>
<g id="a_Node000008"><a xlink:href="l4_2sys_2consts_8h.html" target="_top" xlink:title="Common constants.">
<polygon fill="white" stroke="#666666" points="265.57,-129 176.57,-129 176.57,-110 265.57,-110 265.57,-129"/>
<text text-anchor="middle" x="221.07" y="-117" font-family="Helvetica,sans-Serif" font-size="10.00">l4/sys/consts.h</text>
</a>
</g>
</g>
<!-- Node4&#45;&gt;Node8 -->
<g id="edge7_Node000004_Node000008" class="edge">
<title>Node4&#45;&gt;Node8</title>
<g id="a_edge7_Node000004_Node000008"><a xlink:title=" ">
<path fill="none" stroke="#63b8ff" d="M305.01,-164.98C289.21,-156.61 264.85,-143.7 246.44,-133.95"/>
<polygon fill="#63b8ff" stroke="#63b8ff" points="247.91,-130.76 237.43,-129.17 244.63,-136.95 247.91,-130.76"/>
</a>
</g>
</g>
<!-- Node9 -->
<g id="Node000009" class="node">
<title>Node9</title>
<g id="a_Node000009"><a xlink:href="____l4__fpage_8h_source.html" target="_top" xlink:title=" ">
<polygon fill="white" stroke="#666666" points="394.07,-129 284.07,-129 284.07,-110 394.07,-110 394.07,-129"/>
<text text-anchor="middle" x="339.07" y="-117" font-family="Helvetica,sans-Serif" font-size="10.00">l4/sys/__l4_fpage.h</text>
</a>
</g>
</g>
<!-- Node4&#45;&gt;Node9 -->
<g id="edge10_Node000004_Node000009" class="edge">
<title>Node4&#45;&gt;Node9</title>
<g id="a_edge10_Node000004_Node000009"><a xlink:title=" ">
<path fill="none" stroke="#63b8ff" d="M324.04,-164.75C326.43,-157.72 329.86,-147.62 332.84,-138.84"/>
<polygon fill="#63b8ff" stroke="#63b8ff" points="336.25,-139.68 336.15,-129.09 329.63,-137.43 336.25,-139.68"/>
</a>
</g>
</g>
<!-- Node10 -->
<g id="Node000010" class="node">
<title>Node10</title>
<g id="a_Node000010"><a xlink:href="____timeout_8h_source.html" target="_top" xlink:title=" ">
<polygon fill="white" stroke="#666666" points="120.07,-129 14.07,-129 14.07,-110 120.07,-110 120.07,-129"/>
<text text-anchor="middle" x="67.07" y="-117" font-family="Helvetica,sans-Serif" font-size="10.00">l4/sys/__timeout.h</text>
</a>
</g>
</g>
<!-- Node4&#45;&gt;Node10 -->
<g id="edge12_Node000004_Node000010" class="edge">
<title>Node4&#45;&gt;Node10</title>
<g id="a_edge12_Node000004_Node000010"><a xlink:title=" ">
<path fill="none" stroke="#63b8ff" d="M280.26,-164.98C236.14,-155.78 165.74,-141.09 118.02,-131.13"/>
<polygon fill="#63b8ff" stroke="#63b8ff" points="118.71,-127.7 108.2,-129.08 117.28,-134.55 118.71,-127.7"/>
</a>
</g>
</g>
<!-- Node7 -->
<g id="Node000007" class="node">
<title>Node7</title>
<g id="a_Node000007"><a xlink:title=" ">
<polygon fill="#e0e0e0" stroke="#999999" points="487.07,-19 395.07,-19 395.07,0 487.07,0 487.07,-19"/>
<text text-anchor="middle" x="441.07" y="-7" font-family="Helvetica,sans-Serif" font-size="10.00">l4/sys/linkage.h</text>
</a>
</g>
</g>
<!-- Node6&#45;&gt;Node7 -->
<g id="edge6_Node000006_Node000007" class="edge">
<title>Node6&#45;&gt;Node7</title>
<g id="a_edge6_Node000006_Node000007"><a xlink:title=" ">
<path fill="none" stroke="#63b8ff" d="M441.07,-54.75C441.07,-47.8 441.07,-37.85 441.07,-29.13"/>
<polygon fill="#63b8ff" stroke="#63b8ff" points="444.57,-29.09 441.07,-19.09 437.57,-29.09 444.57,-29.09"/>
</a>
</g>
</g>
<!-- Node8&#45;&gt;Node5 -->
<g id="edge9_Node000008_Node000005" class="edge">
<title>Node8&#45;&gt;Node5</title>
<g id="a_edge9_Node000008_Node000005"><a xlink:title=" ">
<path fill="none" stroke="#63b8ff" d="M202.92,-109.98C184.82,-101.5 156.79,-88.35 135.88,-78.54"/>
<polygon fill="#63b8ff" stroke="#63b8ff" points="137.1,-75.25 126.56,-74.17 134.13,-81.59 137.1,-75.25"/>
</a>
</g>
</g>
<!-- Node8&#45;&gt;Node6 -->
<g id="edge8_Node000008_Node000006" class="edge">
<title>Node8&#45;&gt;Node6</title>
<g id="a_edge8_Node000008_Node000006"><a xlink:title=" ">
<path fill="none" stroke="#63b8ff" d="M256.42,-109.98C294.23,-100.87 354.34,-86.4 395.64,-76.45"/>
<polygon fill="#63b8ff" stroke="#63b8ff" points="396.55,-79.83 405.45,-74.08 394.91,-73.02 396.55,-79.83"/>
</a>
</g>
</g>
<!-- Node9&#45;&gt;Node6 -->
<g id="edge11_Node000009_Node000006" class="edge">
<title>Node9&#45;&gt;Node6</title>
<g id="a_edge11_Node000009_Node000006"><a xlink:title=" ">
<path fill="none" stroke="#63b8ff" d="M355.46,-109.98C371.65,-101.57 396.64,-88.59 415.45,-78.81"/>
<polygon fill="#63b8ff" stroke="#63b8ff" points="417.13,-81.89 424.39,-74.17 413.9,-75.68 417.13,-81.89"/>
</a>
</g>
</g>
<!-- Node10&#45;&gt;Node5 -->
<g id="edge13_Node000010_Node000005" class="edge">
<title>Node10&#45;&gt;Node5</title>
<g id="a_edge13_Node000010_Node000005"><a xlink:title=" ">
<path fill="none" stroke="#63b8ff" d="M73.84,-109.75C79.63,-102.26 88.13,-91.28 95.21,-82.13"/>
<polygon fill="#63b8ff" stroke="#63b8ff" points="98.08,-84.14 101.43,-74.09 92.54,-79.86 98.08,-84.14"/>
</a>
</g>
</g>
<!-- Node11&#45;&gt;Node4 -->
<g id="edge16_Node000011_Node000004" class="edge">
<title>Node11&#45;&gt;Node4</title>
<g id="a_edge16_Node000011_Node000004"><a xlink:title=" ">
<path fill="none" stroke="#63b8ff" d="M321.07,-219.75C321.07,-212.8 321.07,-202.85 321.07,-194.13"/>
<polygon fill="#63b8ff" stroke="#63b8ff" points="324.57,-194.09 321.07,-184.09 317.57,-194.09 324.57,-194.09"/>
</a>
</g>
</g>
<!-- Node11&#45;&gt;Node5 -->
<g id="edge18_Node000011_Node000005" class="edge">
<title>Node11&#45;&gt;Node5</title>
<g id="a_edge18_Node000011_Node000005"><a xlink:title=" ">
<path fill="none" stroke="#63b8ff" d="M282.04,-222.05C205.08,-208.46 38.33,-174.33 5.07,-129 -13.33,-103.92 24.02,-86.61 58.78,-76.47"/>
<polygon fill="#63b8ff" stroke="#63b8ff" points="59.76,-79.83 68.47,-73.8 57.9,-73.08 59.76,-79.83"/>
</a>
</g>
</g>
<!-- Node11&#45;&gt;Node6 -->
<g id="edge17_Node000011_Node000006" class="edge">
<title>Node11&#45;&gt;Node6</title>
<g id="a_edge17_Node000011_Node000006"><a xlink:title=" ">
<path fill="none" stroke="#63b8ff" d="M334.19,-219.81C356.41,-204.34 401.27,-169.81 424.07,-129 431.82,-115.13 436.17,-97.57 438.52,-84.43"/>
<polygon fill="#63b8ff" stroke="#63b8ff" points="442.03,-84.64 440.12,-74.22 435.12,-83.57 442.03,-84.64"/>
</a>
</g>
</g>
<!-- Node12&#45;&gt;Node13 -->
<g id="edge20_Node000012_Node000013" class="edge">
<title>Node12&#45;&gt;Node13</title>
<g id="a_edge20_Node000012_Node000013"><a xlink:title=" ">
<path fill="none" stroke="#63b8ff" d="M407.02,-329.84C403.65,-321.95 399.42,-312.05 395.81,-303.61"/>
<polygon fill="#63b8ff" stroke="#63b8ff" points="398.97,-302.09 391.82,-294.27 392.53,-304.84 398.97,-302.09"/>
</a>
</g>
</g>
<!-- Node13&#45;&gt;Node4 -->
<g id="edge21_Node000013_Node000004" class="edge">
<title>Node13&#45;&gt;Node4</title>
<g id="a_edge21_Node000013_Node000004"><a xlink:title=" ">
<path fill="none" stroke="#63b8ff" d="M386.94,-274.68C384.97,-261.83 380.02,-237.58 369.07,-220 362.01,-208.66 351.31,-198.35 341.81,-190.52"/>
<polygon fill="#63b8ff" stroke="#63b8ff" points="343.91,-187.72 333.88,-184.31 339.59,-193.23 343.91,-187.72"/>
</a>
</g>
</g>
<!-- Node13&#45;&gt;Node11 -->
<g id="edge22_Node000013_Node000011" class="edge">
<title>Node13&#45;&gt;Node11</title>
<g id="a_edge22_Node000013_Node000011"><a xlink:title=" ">
<path fill="none" stroke="#63b8ff" d="M377.31,-274.98C367.31,-267.07 352.19,-255.11 340.14,-245.58"/>
<polygon fill="#63b8ff" stroke="#63b8ff" points="342.05,-242.63 332.03,-239.17 337.7,-248.12 342.05,-242.63"/>
</a>
</g>
</g>
<!-- Node14 -->
<g id="Node000014" class="node">
<title>Node14</title>
<g id="a_Node000014"><a xlink:href="err_8h.html" target="_top" xlink:title="Error codes.">
<polygon fill="white" stroke="#666666" points="551.07,-184 481.07,-184 481.07,-165 551.07,-165 551.07,-184"/>
<text text-anchor="middle" x="516.07" y="-172" font-family="Helvetica,sans-Serif" font-size="10.00">l4/sys/err.h</text>
</a>
</g>
</g>
<!-- Node13&#45;&gt;Node14 -->
<g id="edge23_Node000013_Node000014" class="edge">
<title>Node13&#45;&gt;Node14</title>
<g id="a_edge23_Node000013_Node000014"><a xlink:title=" ">
<path fill="none" stroke="#63b8ff" d="M398.55,-274.66C420.31,-256.3 470.66,-213.81 497.86,-190.87"/>
<polygon fill="#63b8ff" stroke="#63b8ff" points="500.42,-193.28 505.81,-184.16 495.91,-187.93 500.42,-193.28"/>
</a>
</g>
</g>
<!-- Node14&#45;&gt;Node6 -->
<g id="edge24_Node000014_Node000006" class="edge">
<title>Node14&#45;&gt;Node6</title>
<g id="a_edge24_Node000014_Node000006"><a xlink:title=" ">
<path fill="none" stroke="#63b8ff" d="M510.51,-164.77C502.6,-152.44 487.57,-129.27 474.07,-110 467.59,-100.74 460.1,-90.61 453.9,-82.35"/>
<polygon fill="#63b8ff" stroke="#63b8ff" points="456.61,-80.13 447.79,-74.26 451.02,-84.35 456.61,-80.13"/>
</a>
</g>
</g>
<!-- Node15&#45;&gt;Node4 -->
<g id="edge29_Node000015_Node000004" class="edge">
<title>Node15&#45;&gt;Node4</title>
<g id="a_edge29_Node000015_Node000004"><a xlink:title=" ">
<path fill="none" stroke="#63b8ff" d="M201.32,-335.35C211.83,-314.39 240.58,-259.64 273.07,-220 281.76,-209.4 292.92,-198.9 302.3,-190.77"/>
<polygon fill="#63b8ff" stroke="#63b8ff" points="304.59,-193.42 309.97,-184.29 300.07,-188.07 304.59,-193.42"/>
</a>
</g>
</g>
<!-- Node15&#45;&gt;Node11 -->
<g id="edge28_Node000015_Node000011" class="edge">
<title>Node15&#45;&gt;Node11</title>
<g id="a_edge28_Node000015_Node000011"><a xlink:title=" ">
<path fill="none" stroke="#63b8ff" d="M206.39,-335.47C227.22,-316.41 277.77,-270.13 304.26,-245.89"/>
<polygon fill="#63b8ff" stroke="#63b8ff" points="306.63,-248.46 311.64,-239.13 301.9,-243.3 306.63,-248.46"/>
</a>
</g>
</g>
<!-- Node15&#45;&gt;Node13 -->
<g id="edge30_Node000015_Node000013" class="edge">
<title>Node15&#45;&gt;Node13</title>
<g id="a_edge30_Node000015_Node000013"><a xlink:title=" ">
<path fill="none" stroke="#63b8ff" d="M224.85,-335.49C257.95,-325.36 313.41,-308.37 350.37,-297.05"/>
<polygon fill="#63b8ff" stroke="#63b8ff" points="351.73,-300.29 360.27,-294.02 349.68,-293.6 351.73,-300.29"/>
</a>
</g>
</g>
</g>
</svg>
