<?xml version="1.0" encoding="UTF-8" standalone="no"?>
<!DOCTYPE svg PUBLIC "-//W3C//DTD SVG 1.1//EN"
 "http://www.w3.org/Graphics/SVG/1.1/DTD/svg11.dtd">
<!-- Generated by graphviz version 2.43.0 (0)
 -->
<!-- Title: l4/cxx/bits/smart_ptr_list.h Pages: 1 -->
<svg width="248pt" height="93pt"
 viewBox="0.00 0.00 248.00 93.00" xmlns="http://www.w3.org/2000/svg" xmlns:xlink="http://www.w3.org/1999/xlink">
<g id="graph0" class="graph" transform="scale(1 1) rotate(0) translate(4 89)">
<title>l4/cxx/bits/smart_ptr_list.h</title>
<!-- Node1 -->
<g id="Node000001" class="node">
<title>Node1</title>
<g id="a_Node000001"><a xlink:title="Implementation of a list of smart&#45;pointer&#45;managed objects.">
<polygon fill="#999999" stroke="#666666" points="173,-85 56,-85 56,-55 173,-55 173,-85"/>
<text text-anchor="start" x="64" y="-73" font-family="Helvetica,sans-Serif" font-size="10.00">l4/cxx/bits/smart_ptr</text>
<text text-anchor="middle" x="114.5" y="-62" font-family="Helvetica,sans-Serif" font-size="10.00">_list.h</text>
</a>
</g>
</g>
<!-- Node2 -->
<g id="Node000002" class="node">
<title>Node2</title>
<g id="a_Node000002"><a xlink:href="ref__ptr__list.html" target="_top" xlink:title="Implementation of a list of ref&#45;ptr&#45;managed objects.">
<polygon fill="white" stroke="#666666" points="101,-19 0,-19 0,0 101,0 101,-19"/>
<text text-anchor="middle" x="50.5" y="-7" font-family="Helvetica,sans-Serif" font-size="10.00">l4/cxx/ref_ptr_list</text>
</a>
</g>
</g>
<!-- Node1&#45;&gt;Node2 -->
<g id="edge1_Node000001_Node000002" class="edge">
<title>Node1&#45;&gt;Node2</title>
<g id="a_edge1_Node000001_Node000002"><a xlink:title=" ">
<path fill="none" stroke="#63b8ff" d="M91.48,-47.96C80.67,-38.07 68.37,-26.83 60.09,-19.27"/>
<polygon fill="#63b8ff" stroke="#63b8ff" points="89.26,-50.68 99.01,-54.84 93.99,-45.51 89.26,-50.68"/>
</a>
</g>
</g>
<!-- Node3 -->
<g id="Node000003" class="node">
<title>Node3</title>
<g id="a_Node000003"><a xlink:href="unique__ptr__list.html" target="_top" xlink:title="Implementation of a list of unique&#45;ptr&#45;managed objects.">
<polygon fill="white" stroke="#666666" points="240,-19 119,-19 119,0 240,0 240,-19"/>
<text text-anchor="middle" x="179.5" y="-7" font-family="Helvetica,sans-Serif" font-size="10.00">l4/cxx/unique_ptr_list</text>
</a>
</g>
</g>
<!-- Node1&#45;&gt;Node3 -->
<g id="edge2_Node000001_Node000003" class="edge">
<title>Node1&#45;&gt;Node3</title>
<g id="a_edge2_Node000001_Node000003"><a xlink:title=" ">
<path fill="none" stroke="#63b8ff" d="M137.88,-47.96C148.86,-38.07 161.35,-26.83 169.76,-19.27"/>
<polygon fill="#63b8ff" stroke="#63b8ff" points="135.33,-45.55 130.23,-54.84 140.01,-50.75 135.33,-45.55"/>
</a>
</g>
</g>
</g>
</svg>
