<?xml version="1.0" encoding="UTF-8" standalone="no"?>
<!DOCTYPE svg PUBLIC "-//W3C//DTD SVG 1.1//EN"
 "http://www.w3.org/Graphics/SVG/1.1/DTD/svg11.dtd">
<!-- Generated by graphviz version 2.42.4 (0)
 -->
<!-- Title: l4/sys/smart_capability Pages: 1 -->
<svg width="1706pt" height="335pt"
 viewBox="0.00 0.00 1706.00 335.00" xmlns="http://www.w3.org/2000/svg" xmlns:xlink="http://www.w3.org/1999/xlink">
<g id="graph0" class="graph" transform="scale(1 1) rotate(0) translate(4 331)">
<title>l4/sys/smart_capability</title>
<!-- Node1 -->
<g id="Node000001" class="node">
<title>Node1</title>
<g id="a_Node000001"><a xlink:title="L4::Capability class.">
<polygon fill="#999999" stroke="#666666" points="893.5,-327 763.5,-327 763.5,-308 893.5,-308 893.5,-327"/>
<text text-anchor="middle" x="828.5" y="-315" font-family="Helvetica,sans-Serif" font-size="10.00">l4/sys/smart_capability</text>
</a>
</g>
</g>
<!-- Node2 -->
<g id="Node000002" class="node">
<title>Node2</title>
<g id="a_Node000002"><a xlink:href="cap__alloc.html" target="_top" xlink:title="Abstract capability&#45;allocator interface.">
<polygon fill="white" stroke="#666666" points="777,-272 690,-272 690,-253 777,-253 777,-272"/>
<text text-anchor="middle" x="733.5" y="-260" font-family="Helvetica,sans-Serif" font-size="10.00">l4/re/cap_alloc</text>
</a>
</g>
</g>
<!-- Node1&#45;&gt;Node2 -->
<g id="edge1_Node000001_Node000002" class="edge">
<title>Node1&#45;&gt;Node2</title>
<g id="a_edge1_Node000001_Node000002"><a xlink:title=" ">
<path fill="none" stroke="#63b8ff" d="M804.24,-302.97C786.87,-293.28 764.01,-280.52 749.04,-272.17"/>
<polygon fill="#63b8ff" stroke="#63b8ff" points="802.8,-306.17 813.24,-307.98 806.21,-300.06 802.8,-306.17"/>
</a>
</g>
</g>
<!-- Node19 -->
<g id="Node000019" class="node">
<title>Node19</title>
<g id="a_Node000019"><a xlink:href="util_2cap__alloc.html" target="_top" xlink:title="Capability allocator.">
<polygon fill="white" stroke="#666666" points="1058.5,-272 952.5,-272 952.5,-253 1058.5,-253 1058.5,-272"/>
<text text-anchor="middle" x="1005.5" y="-260" font-family="Helvetica,sans-Serif" font-size="10.00">l4/re/util/cap_alloc</text>
</a>
</g>
</g>
<!-- Node1&#45;&gt;Node19 -->
<g id="edge26_Node000001_Node000019" class="edge">
<title>Node1&#45;&gt;Node19</title>
<g id="a_edge26_Node000001_Node000019"><a xlink:title=" ">
<path fill="none" stroke="#63b8ff" d="M866.72,-305.06C899.8,-295.15 946.91,-281.04 976.84,-272.08"/>
<polygon fill="#63b8ff" stroke="#63b8ff" points="865.51,-301.76 856.94,-307.98 867.52,-308.47 865.51,-301.76"/>
</a>
</g>
</g>
<!-- Node3 -->
<g id="Node000003" class="node">
<title>Node3</title>
<g id="a_Node000003"><a xlink:href="vfs_8h_source.html" target="_top" xlink:title=" ">
<polygon fill="white" stroke="#666666" points="498,-217 403,-217 403,-198 498,-198 498,-217"/>
<text text-anchor="middle" x="450.5" y="-205" font-family="Helvetica,sans-Serif" font-size="10.00">l4/l4re_vfs/vfs.h</text>
</a>
</g>
</g>
<!-- Node2&#45;&gt;Node3 -->
<g id="edge2_Node000002_Node000003" class="edge">
<title>Node2&#45;&gt;Node3</title>
<g id="a_edge2_Node000002_Node000003"><a xlink:title=" ">
<path fill="none" stroke="#63b8ff" d="M679.98,-251.48C626.82,-241.52 546.2,-226.42 496.02,-217.03"/>
<polygon fill="#63b8ff" stroke="#63b8ff" points="679.43,-254.93 689.9,-253.33 680.72,-248.05 679.43,-254.93"/>
</a>
</g>
</g>
<!-- Node14 -->
<g id="Node000014" class="node">
<title>Node14</title>
<g id="a_Node000014"><a xlink:href="shared__cap.html" target="_top" xlink:title="Shared_cap / Shared_del_cap.">
<polygon fill="white" stroke="#666666" points="667,-217 570,-217 570,-198 667,-198 667,-217"/>
<text text-anchor="middle" x="618.5" y="-205" font-family="Helvetica,sans-Serif" font-size="10.00">l4/re/shared_cap</text>
</a>
</g>
</g>
<!-- Node2&#45;&gt;Node14 -->
<g id="edge16_Node000002_Node000014" class="edge">
<title>Node2&#45;&gt;Node14</title>
<g id="a_edge16_Node000002_Node000014"><a xlink:title=" ">
<path fill="none" stroke="#63b8ff" d="M705.87,-248.77C684.66,-238.99 655.94,-225.75 637.31,-217.17"/>
<polygon fill="#63b8ff" stroke="#63b8ff" points="704.48,-251.98 715.02,-252.98 707.41,-245.62 704.48,-251.98"/>
</a>
</g>
</g>
<!-- Node15 -->
<g id="Node000015" class="node">
<title>Node15</title>
<g id="a_Node000015"><a xlink:href="unique__cap.html" target="_top" xlink:title="Unique_cap / Unique_del_cap.">
<polygon fill="white" stroke="#666666" points="744,-156.5 647,-156.5 647,-137.5 744,-137.5 744,-156.5"/>
<text text-anchor="middle" x="695.5" y="-144.5" font-family="Helvetica,sans-Serif" font-size="10.00">l4/re/unique_cap</text>
</a>
</g>
</g>
<!-- Node2&#45;&gt;Node15 -->
<g id="edge18_Node000002_Node000015" class="edge">
<title>Node2&#45;&gt;Node15</title>
<g id="a_edge18_Node000002_Node000015"><a xlink:title=" ">
<path fill="none" stroke="#63b8ff" d="M725.65,-243.31C722.33,-235.31 718.53,-225.76 715.5,-217 708.07,-195.55 701.1,-169.72 697.69,-156.59"/>
<polygon fill="#63b8ff" stroke="#63b8ff" points="722.52,-244.89 729.64,-252.74 728.97,-242.16 722.52,-244.89"/>
</a>
</g>
</g>
<!-- Node16 -->
<g id="Node000016" class="node">
<title>Node16</title>
<g id="a_Node000016"><a xlink:href="env__ns_source.html" target="_top" xlink:title=" ">
<polygon fill="white" stroke="#666666" points="819,-217 724,-217 724,-198 819,-198 819,-217"/>
<text text-anchor="middle" x="771.5" y="-205" font-family="Helvetica,sans-Serif" font-size="10.00">l4/re/util/env_ns</text>
</a>
</g>
</g>
<!-- Node2&#45;&gt;Node16 -->
<g id="edge21_Node000002_Node000016" class="edge">
<title>Node2&#45;&gt;Node16</title>
<g id="a_edge21_Node000002_Node000016"><a xlink:title=" ">
<path fill="none" stroke="#63b8ff" d="M745.77,-244.39C752.31,-235.27 760.07,-224.45 765.34,-217.09"/>
<polygon fill="#63b8ff" stroke="#63b8ff" points="742.76,-242.58 739.77,-252.75 748.45,-246.66 742.76,-242.58"/>
</a>
</g>
</g>
<!-- Node18 -->
<g id="Node000018" class="node">
<title>Node18</title>
<g id="a_Node000018"><a xlink:href="util_2event.html" target="_top" xlink:title=" ">
<polygon fill="white" stroke="#666666" points="1052.5,-156.5 964.5,-156.5 964.5,-137.5 1052.5,-137.5 1052.5,-156.5"/>
<text text-anchor="middle" x="1008.5" y="-144.5" font-family="Helvetica,sans-Serif" font-size="10.00">l4/re/util/event</text>
</a>
</g>
</g>
<!-- Node2&#45;&gt;Node18 -->
<g id="edge25_Node000002_Node000018" class="edge">
<title>Node2&#45;&gt;Node18</title>
<g id="a_edge25_Node000002_Node000018"><a xlink:title=" ">
<path fill="none" stroke="#63b8ff" d="M763.57,-249.09C819.74,-225.9 939.28,-176.57 987.59,-156.63"/>
<polygon fill="#63b8ff" stroke="#63b8ff" points="762.08,-245.92 754.17,-252.97 764.75,-252.39 762.08,-245.92"/>
</a>
</g>
</g>
<!-- Node4 -->
<g id="Node000004" class="node">
<title>Node4</title>
<g id="a_Node000004"><a xlink:href="backend_source.html" target="_top" xlink:title=" ">
<polygon fill="white" stroke="#666666" points="326,-156.5 215,-156.5 215,-137.5 326,-137.5 326,-156.5"/>
<text text-anchor="middle" x="270.5" y="-144.5" font-family="Helvetica,sans-Serif" font-size="10.00">l4/l4re_vfs/backend</text>
</a>
</g>
</g>
<!-- Node3&#45;&gt;Node4 -->
<g id="edge3_Node000003_Node000004" class="edge">
<title>Node3&#45;&gt;Node4</title>
<g id="a_edge3_Node000003_Node000004"><a xlink:title=" ">
<path fill="none" stroke="#63b8ff" d="M414.55,-194.82C379.74,-183.5 327.78,-166.62 296.71,-156.52"/>
<polygon fill="#63b8ff" stroke="#63b8ff" points="413.73,-198.23 424.33,-197.99 415.9,-191.57 413.73,-198.23"/>
</a>
</g>
</g>
<!-- Node12 -->
<g id="Node000012" class="node">
<title>Node12</title>
<g id="a_Node000012"><a xlink:href="fd__store_8h_source.html" target="_top" xlink:title=" ">
<polygon fill="white" stroke="#666666" points="503,-162 398,-162 398,-132 503,-132 503,-162"/>
<text text-anchor="start" x="406" y="-150" font-family="Helvetica,sans-Serif" font-size="10.00">l4/l4re_vfs/impl/fd</text>
<text text-anchor="middle" x="450.5" y="-139" font-family="Helvetica,sans-Serif" font-size="10.00">_store.h</text>
</a>
</g>
</g>
<!-- Node3&#45;&gt;Node12 -->
<g id="edge13_Node000003_Node000012" class="edge">
<title>Node3&#45;&gt;Node12</title>
<g id="a_edge13_Node000003_Node000012"><a xlink:title=" ">
<path fill="none" stroke="#63b8ff" d="M450.5,-187.65C450.5,-179.36 450.5,-169.78 450.5,-162.11"/>
<polygon fill="#63b8ff" stroke="#63b8ff" points="447,-187.87 450.5,-197.87 454,-187.87 447,-187.87"/>
</a>
</g>
</g>
<!-- Node5 -->
<g id="Node000005" class="node">
<title>Node5</title>
<g id="a_Node000005"><a xlink:href="ns__fs_8h_source.html" target="_top" xlink:title=" ">
<polygon fill="white" stroke="#666666" points="466.5,-90.5 336.5,-90.5 336.5,-71.5 466.5,-71.5 466.5,-90.5"/>
<text text-anchor="middle" x="401.5" y="-78.5" font-family="Helvetica,sans-Serif" font-size="10.00">l4/l4re_vfs/impl/ns_fs.h</text>
</a>
</g>
</g>
<!-- Node4&#45;&gt;Node5 -->
<g id="edge4_Node000004_Node000005" class="edge">
<title>Node4&#45;&gt;Node5</title>
<g id="a_edge4_Node000004_Node000005"><a xlink:title=" ">
<path fill="none" stroke="#63b8ff" d="M297.39,-132.86C323.2,-120.25 361.46,-101.56 383.69,-90.7"/>
<polygon fill="#63b8ff" stroke="#63b8ff" points="295.62,-129.83 288.17,-137.37 298.69,-136.12 295.62,-129.83"/>
</a>
</g>
</g>
<!-- Node7 -->
<g id="Node000007" class="node">
<title>Node7</title>
<g id="a_Node000007"><a xlink:href="vfs__impl_8h_source.html" target="_top" xlink:title=" ">
<polygon fill="white" stroke="#666666" points="370.5,-30 260.5,-30 260.5,0 370.5,0 370.5,-30"/>
<text text-anchor="start" x="268.5" y="-18" font-family="Helvetica,sans-Serif" font-size="10.00">l4/l4re_vfs/impl/vfs</text>
<text text-anchor="middle" x="315.5" y="-7" font-family="Helvetica,sans-Serif" font-size="10.00">_impl.h</text>
</a>
</g>
</g>
<!-- Node4&#45;&gt;Node7 -->
<g id="edge12_Node000004_Node000007" class="edge">
<title>Node4&#45;&gt;Node7</title>
<g id="a_edge12_Node000004_Node000007"><a xlink:title=" ">
<path fill="none" stroke="#63b8ff" d="M275.41,-127.63C279.92,-111.3 287.02,-86.85 294.5,-66 298.89,-53.77 304.65,-40.2 309.03,-30.28"/>
<polygon fill="#63b8ff" stroke="#63b8ff" points="271.98,-126.93 272.73,-137.5 278.73,-128.76 271.98,-126.93"/>
</a>
</g>
</g>
<!-- Node8 -->
<g id="Node000008" class="node">
<title>Node8</title>
<g id="a_Node000008"><a xlink:href="ro__file_8h_source.html" target="_top" xlink:title=" ">
<polygon fill="white" stroke="#666666" points="105,-96 0,-96 0,-66 105,-66 105,-96"/>
<text text-anchor="start" x="8" y="-84" font-family="Helvetica,sans-Serif" font-size="10.00">l4/l4re_vfs/impl/ro</text>
<text text-anchor="middle" x="52.5" y="-73" font-family="Helvetica,sans-Serif" font-size="10.00">_file.h</text>
</a>
</g>
</g>
<!-- Node4&#45;&gt;Node8 -->
<g id="edge7_Node000004_Node000008" class="edge">
<title>Node4&#45;&gt;Node8</title>
<g id="a_edge7_Node000004_Node000008"><a xlink:title=" ">
<path fill="none" stroke="#63b8ff" d="M231.27,-134.48C194.63,-123.73 139.84,-107.64 100.58,-96.12"/>
<polygon fill="#63b8ff" stroke="#63b8ff" points="230.52,-137.91 241.1,-137.37 232.49,-131.19 230.52,-137.91"/>
</a>
</g>
</g>
<!-- Node10 -->
<g id="Node000010" class="node">
<title>Node10</title>
<g id="a_Node000010"><a xlink:href="vcon__stream_8h_source.html" target="_top" xlink:title=" ">
<polygon fill="white" stroke="#666666" points="242,-96 123,-96 123,-66 242,-66 242,-96"/>
<text text-anchor="start" x="131" y="-84" font-family="Helvetica,sans-Serif" font-size="10.00">l4/l4re_vfs/impl/vcon</text>
<text text-anchor="middle" x="182.5" y="-73" font-family="Helvetica,sans-Serif" font-size="10.00">_stream.h</text>
</a>
</g>
</g>
<!-- Node4&#45;&gt;Node10 -->
<g id="edge9_Node000004_Node000010" class="edge">
<title>Node4&#45;&gt;Node10</title>
<g id="a_edge9_Node000004_Node000010"><a xlink:title=" ">
<path fill="none" stroke="#63b8ff" d="M250.31,-131.32C235.77,-120.74 216.27,-106.56 201.91,-96.12"/>
<polygon fill="#63b8ff" stroke="#63b8ff" points="248.49,-134.32 258.63,-137.37 252.6,-128.66 248.49,-134.32"/>
</a>
</g>
</g>
<!-- Node6 -->
<g id="Node000006" class="node">
<title>Node6</title>
<g id="a_Node000006"><a xlink:href="ns__fs__impl_8h_source.html" target="_top" xlink:title=" ">
<polygon fill="white" stroke="#666666" points="749,-30 642,-30 642,0 749,0 749,-30"/>
<text text-anchor="start" x="650" y="-18" font-family="Helvetica,sans-Serif" font-size="10.00">l4/l4re_vfs/impl/ns</text>
<text text-anchor="middle" x="695.5" y="-7" font-family="Helvetica,sans-Serif" font-size="10.00">_fs_impl.h</text>
</a>
</g>
</g>
<!-- Node5&#45;&gt;Node6 -->
<g id="edge5_Node000005_Node000006" class="edge">
<title>Node5&#45;&gt;Node6</title>
<g id="a_edge5_Node000005_Node000006"><a xlink:title=" ">
<path fill="none" stroke="#63b8ff" d="M450.67,-69.3C503.57,-57.78 587.41,-39.53 641.94,-27.66"/>
<polygon fill="#63b8ff" stroke="#63b8ff" points="449.87,-65.89 440.85,-71.44 451.36,-72.73 449.87,-65.89"/>
</a>
</g>
</g>
<!-- Node5&#45;&gt;Node7 -->
<g id="edge6_Node000005_Node000007" class="edge">
<title>Node5&#45;&gt;Node7</title>
<g id="a_edge6_Node000005_Node000007"><a xlink:title=" ">
<path fill="none" stroke="#63b8ff" d="M381.77,-65.32C367.56,-54.74 348.5,-40.56 334.47,-30.12"/>
<polygon fill="#63b8ff" stroke="#63b8ff" points="379.79,-68.21 389.9,-71.37 383.97,-62.59 379.79,-68.21"/>
</a>
</g>
</g>
<!-- Node9 -->
<g id="Node000009" class="node">
<title>Node9</title>
<g id="a_Node000009"><a xlink:href="ro__file__impl_8h_source.html" target="_top" xlink:title=" ">
<polygon fill="white" stroke="#666666" points="105,-30 0,-30 0,0 105,0 105,-30"/>
<text text-anchor="start" x="8" y="-18" font-family="Helvetica,sans-Serif" font-size="10.00">l4/l4re_vfs/impl/ro</text>
<text text-anchor="middle" x="52.5" y="-7" font-family="Helvetica,sans-Serif" font-size="10.00">_file_impl.h</text>
</a>
</g>
</g>
<!-- Node8&#45;&gt;Node9 -->
<g id="edge8_Node000008_Node000009" class="edge">
<title>Node8&#45;&gt;Node9</title>
<g id="a_edge8_Node000008_Node000009"><a xlink:title=" ">
<path fill="none" stroke="#63b8ff" d="M52.5,-55.54C52.5,-46.96 52.5,-37.61 52.5,-30.16"/>
<polygon fill="#63b8ff" stroke="#63b8ff" points="49,-55.8 52.5,-65.8 56,-55.8 49,-55.8"/>
</a>
</g>
</g>
<!-- Node10&#45;&gt;Node7 -->
<g id="edge11_Node000010_Node000007" class="edge">
<title>Node10&#45;&gt;Node7</title>
<g id="a_edge11_Node000010_Node000007"><a xlink:title=" ">
<path fill="none" stroke="#63b8ff" d="M220.92,-61.51C241.78,-51.47 267.17,-39.26 286.38,-30.01"/>
<polygon fill="#63b8ff" stroke="#63b8ff" points="219.18,-58.46 211.69,-65.95 222.22,-64.77 219.18,-58.46"/>
</a>
</g>
</g>
<!-- Node11 -->
<g id="Node000011" class="node">
<title>Node11</title>
<g id="a_Node000011"><a xlink:href="vcon__stream__impl_8h_source.html" target="_top" xlink:title=" ">
<polygon fill="white" stroke="#666666" points="242,-30 123,-30 123,0 242,0 242,-30"/>
<text text-anchor="start" x="131" y="-18" font-family="Helvetica,sans-Serif" font-size="10.00">l4/l4re_vfs/impl/vcon</text>
<text text-anchor="middle" x="182.5" y="-7" font-family="Helvetica,sans-Serif" font-size="10.00">_stream_impl.h</text>
</a>
</g>
</g>
<!-- Node10&#45;&gt;Node11 -->
<g id="edge10_Node000010_Node000011" class="edge">
<title>Node10&#45;&gt;Node11</title>
<g id="a_edge10_Node000010_Node000011"><a xlink:title=" ">
<path fill="none" stroke="#63b8ff" d="M182.5,-55.54C182.5,-46.96 182.5,-37.61 182.5,-30.16"/>
<polygon fill="#63b8ff" stroke="#63b8ff" points="179,-55.8 182.5,-65.8 186,-55.8 179,-55.8"/>
</a>
</g>
</g>
<!-- Node12&#45;&gt;Node7 -->
<g id="edge15_Node000012_Node000007" class="edge">
<title>Node12&#45;&gt;Node7</title>
<g id="a_edge15_Node000012_Node000007"><a xlink:title=" ">
<path fill="none" stroke="#63b8ff" d="M387.93,-134.09C365.64,-126.74 342.4,-114.93 327.5,-96 312.56,-77.02 312.28,-47.43 313.7,-30.06"/>
<polygon fill="#63b8ff" stroke="#63b8ff" points="387.14,-137.51 397.73,-137.06 389.18,-130.81 387.14,-137.51"/>
</a>
</g>
</g>
<!-- Node13 -->
<g id="Node000013" class="node">
<title>Node13</title>
<g id="a_Node000013"><a xlink:href="fd__store__impl_8h_source.html" target="_top" xlink:title=" ">
<polygon fill="white" stroke="#666666" points="590,-96 485,-96 485,-66 590,-66 590,-96"/>
<text text-anchor="start" x="493" y="-84" font-family="Helvetica,sans-Serif" font-size="10.00">l4/l4re_vfs/impl/fd</text>
<text text-anchor="middle" x="537.5" y="-73" font-family="Helvetica,sans-Serif" font-size="10.00">_store_impl.h</text>
</a>
</g>
</g>
<!-- Node12&#45;&gt;Node13 -->
<g id="edge14_Node000012_Node000013" class="edge">
<title>Node12&#45;&gt;Node13</title>
<g id="a_edge14_Node000012_Node000013"><a xlink:title=" ">
<path fill="none" stroke="#63b8ff" d="M478.02,-125.75C491.11,-116.13 506.43,-104.86 518.25,-96.16"/>
<polygon fill="#63b8ff" stroke="#63b8ff" points="475.79,-123.05 469.81,-131.8 479.94,-128.69 475.79,-123.05"/>
</a>
</g>
</g>
<!-- Node14&#45;&gt;Node7 -->
<g id="edge17_Node000014_Node000007" class="edge">
<title>Node14&#45;&gt;Node7</title>
<g id="a_edge17_Node000014_Node000007"><a xlink:title=" ">
<path fill="none" stroke="#63b8ff" d="M622.18,-187.81C626.91,-157.79 631.11,-98.89 599.5,-66 568.71,-33.96 444.09,-22.31 370.55,-18.18"/>
<polygon fill="#63b8ff" stroke="#63b8ff" points="618.71,-187.33 620.42,-197.78 625.61,-188.54 618.71,-187.33"/>
</a>
</g>
</g>
<!-- Node15&#45;&gt;Node5 -->
<g id="edge19_Node000015_Node000005" class="edge">
<title>Node15&#45;&gt;Node5</title>
<g id="a_edge19_Node000015_Node000005"><a xlink:title=" ">
<path fill="none" stroke="#63b8ff" d="M646.15,-135.26C588.31,-122.67 493.63,-102.06 440.61,-90.51"/>
<polygon fill="#63b8ff" stroke="#63b8ff" points="645.64,-138.73 656.15,-137.44 647.13,-131.89 645.64,-138.73"/>
</a>
</g>
</g>
<!-- Node15&#45;&gt;Node6 -->
<g id="edge20_Node000015_Node000006" class="edge">
<title>Node15&#45;&gt;Node6</title>
<g id="a_edge20_Node000015_Node000006"><a xlink:title=" ">
<path fill="none" stroke="#63b8ff" d="M695.5,-127.32C695.5,-101 695.5,-53.61 695.5,-30.07"/>
<polygon fill="#63b8ff" stroke="#63b8ff" points="692,-127.47 695.5,-137.47 699,-127.47 692,-127.47"/>
</a>
</g>
</g>
<!-- Node16&#45;&gt;Node6 -->
<g id="edge22_Node000016_Node000006" class="edge">
<title>Node16&#45;&gt;Node6</title>
<g id="a_edge22_Node000016_Node000006"><a xlink:title=" ">
<path fill="none" stroke="#63b8ff" d="M768.12,-187.36C765.13,-172.1 760.2,-150.32 753.5,-132 739.51,-93.72 716.31,-51.58 703.92,-30.18"/>
<polygon fill="#63b8ff" stroke="#63b8ff" points="764.75,-188.4 770.02,-197.59 771.63,-187.12 764.75,-188.4"/>
</a>
</g>
</g>
<!-- Node17 -->
<g id="Node000017" class="node">
<title>Node17</title>
<g id="a_Node000017"><a xlink:href="goos__fb_source.html" target="_top" xlink:title=" ">
<polygon fill="white" stroke="#666666" points="928.5,-156.5 800.5,-156.5 800.5,-137.5 928.5,-137.5 928.5,-156.5"/>
<text text-anchor="middle" x="864.5" y="-144.5" font-family="Helvetica,sans-Serif" font-size="10.00">l4/re/util/video/goos_fb</text>
</a>
</g>
</g>
<!-- Node16&#45;&gt;Node17 -->
<g id="edge23_Node000016_Node000017" class="edge">
<title>Node16&#45;&gt;Node17</title>
<g id="a_edge23_Node000016_Node000017"><a xlink:title=" ">
<path fill="none" stroke="#63b8ff" d="M793.81,-192.47C811.52,-181.32 835.72,-166.1 850.72,-156.67"/>
<polygon fill="#63b8ff" stroke="#63b8ff" points="791.82,-189.58 785.22,-197.87 795.55,-195.51 791.82,-189.58"/>
</a>
</g>
</g>
<!-- Node17&#45;&gt;Node17 -->
<g id="edge24_Node000017_Node000017" class="edge">
<title>Node17&#45;&gt;Node17</title>
<g id="a_edge24_Node000017_Node000017"><a xlink:title=" ">
<path fill="none" stroke="#63b8ff" d="M904.85,-157.77C926.62,-159.64 946.5,-156.04 946.5,-147 946.5,-136.57 920.07,-133.39 894.78,-137.47"/>
<polygon fill="#63b8ff" stroke="#63b8ff" points="905.13,-154.28 894.78,-156.53 904.28,-161.23 905.13,-154.28"/>
</a>
</g>
</g>
<!-- Node19&#45;&gt;Node16 -->
<g id="edge34_Node000019_Node000016" class="edge">
<title>Node19&#45;&gt;Node16</title>
<g id="a_edge34_Node000019_Node000016"><a xlink:title=" ">
<path fill="none" stroke="#63b8ff" d="M958.05,-250.75C914.2,-240.82 849.9,-226.26 809.39,-217.08"/>
<polygon fill="#63b8ff" stroke="#63b8ff" points="957.38,-254.19 967.9,-252.98 958.92,-247.36 957.38,-254.19"/>
</a>
</g>
</g>
<!-- Node19&#45;&gt;Node17 -->
<g id="edge54_Node000019_Node000017" class="edge">
<title>Node19&#45;&gt;Node17</title>
<g id="a_edge54_Node000019_Node000017"><a xlink:title=" ">
<path fill="none" stroke="#63b8ff" d="M983.28,-247.38C970.47,-238.97 954.23,-227.85 940.5,-217 915.05,-196.89 887.37,-170.5 873.5,-156.92"/>
<polygon fill="#63b8ff" stroke="#63b8ff" points="981.63,-250.48 991.92,-252.98 985.44,-244.6 981.63,-250.48"/>
</a>
</g>
</g>
<!-- Node19&#45;&gt;Node18 -->
<g id="edge35_Node000019_Node000018" class="edge">
<title>Node19&#45;&gt;Node18</title>
<g id="a_edge35_Node000019_Node000018"><a xlink:title=" ">
<path fill="none" stroke="#63b8ff" d="M978.38,-247.91C959.05,-236.19 938.02,-218.04 947.5,-198 956.46,-179.06 976.5,-164.9 991.17,-156.57"/>
<polygon fill="#63b8ff" stroke="#63b8ff" points="976.89,-251.09 987.32,-252.97 980.34,-245 976.89,-251.09"/>
</a>
</g>
</g>
<!-- Node20 -->
<g id="Node000020" class="node">
<title>Node20</title>
<g id="a_Node000020"><a xlink:href="server_2l4virtio_source.html" target="_top" xlink:title=" ">
<polygon fill="white" stroke="#666666" points="1319,-162 1222,-162 1222,-132 1319,-132 1319,-162"/>
<text text-anchor="start" x="1230" y="-150" font-family="Helvetica,sans-Serif" font-size="10.00">l4/l4virtio/server</text>
<text text-anchor="middle" x="1270.5" y="-139" font-family="Helvetica,sans-Serif" font-size="10.00">/l4virtio</text>
</a>
</g>
</g>
<!-- Node19&#45;&gt;Node20 -->
<g id="edge27_Node000019_Node000020" class="edge">
<title>Node19&#45;&gt;Node20</title>
<g id="a_edge27_Node000019_Node000020"><a xlink:title=" ">
<path fill="none" stroke="#63b8ff" d="M990.8,-244.96C980.32,-231.11 969.95,-211.49 981.5,-198 1015.29,-158.54 1161.54,-172.1 1212.5,-162 1215.55,-161.4 1218.68,-160.74 1221.83,-160.06"/>
<polygon fill="#63b8ff" stroke="#63b8ff" points="988.11,-247.2 997.15,-252.73 993.53,-242.77 988.11,-247.2"/>
</a>
</g>
</g>
<!-- Node25 -->
<g id="Node000025" class="node">
<title>Node25</title>
<g id="a_Node000025"><a xlink:href="br__manager_source.html" target="_top" xlink:title=" ">
<polygon fill="white" stroke="#666666" points="1109,-217 990,-217 990,-198 1109,-198 1109,-217"/>
<text text-anchor="middle" x="1049.5" y="-205" font-family="Helvetica,sans-Serif" font-size="10.00">l4/re/util/br_manager</text>
</a>
</g>
</g>
<!-- Node19&#45;&gt;Node25 -->
<g id="edge33_Node000019_Node000025" class="edge">
<title>Node19&#45;&gt;Node25</title>
<g id="a_edge33_Node000019_Node000025"><a xlink:title=" ">
<path fill="none" stroke="#63b8ff" d="M1019.23,-244.96C1026.9,-235.72 1036.13,-224.6 1042.37,-217.09"/>
<polygon fill="#63b8ff" stroke="#63b8ff" points="1016.46,-242.82 1012.77,-252.75 1021.85,-247.29 1016.46,-242.82"/>
</a>
</g>
</g>
<!-- Node26 -->
<g id="Node000026" class="node">
<title>Node26</title>
<g id="a_Node000026"><a xlink:href="icu__svr_source.html" target="_top" xlink:title=" ">
<polygon fill="white" stroke="#666666" points="1222,-217 1127,-217 1127,-198 1222,-198 1222,-217"/>
<text text-anchor="middle" x="1174.5" y="-205" font-family="Helvetica,sans-Serif" font-size="10.00">l4/re/util/icu_svr</text>
</a>
</g>
</g>
<!-- Node19&#45;&gt;Node26 -->
<g id="edge36_Node000019_Node000026" class="edge">
<title>Node19&#45;&gt;Node26</title>
<g id="a_edge36_Node000019_Node000026"><a xlink:title=" ">
<path fill="none" stroke="#63b8ff" d="M1042.4,-249.93C1073.97,-240.03 1118.68,-226.01 1147.13,-217.08"/>
<polygon fill="#63b8ff" stroke="#63b8ff" points="1041.15,-246.65 1032.65,-252.98 1043.24,-253.33 1041.15,-246.65"/>
</a>
</g>
</g>
<!-- Node28 -->
<g id="Node000028" class="node">
<title>Node28</title>
<g id="a_Node000028"><a xlink:href="object__registry_source.html" target="_top" xlink:title=" ">
<polygon fill="white" stroke="#666666" points="1511,-156.5 1378,-156.5 1378,-137.5 1511,-137.5 1511,-156.5"/>
<text text-anchor="middle" x="1444.5" y="-144.5" font-family="Helvetica,sans-Serif" font-size="10.00">l4/re/util/object_registry</text>
</a>
</g>
</g>
<!-- Node19&#45;&gt;Node28 -->
<g id="edge38_Node000019_Node000028" class="edge">
<title>Node19&#45;&gt;Node28</title>
<g id="a_edge38_Node000019_Node000028"><a xlink:title=" ">
<path fill="none" stroke="#63b8ff" d="M1069.06,-258.12C1157.85,-252.65 1313.93,-240.06 1365.5,-217 1397.09,-202.88 1425.3,-171.71 1437.75,-156.58"/>
<polygon fill="#63b8ff" stroke="#63b8ff" points="1068.61,-254.65 1058.84,-258.74 1069.03,-261.63 1068.61,-254.65"/>
</a>
</g>
</g>
<!-- Node32 -->
<g id="Node000032" class="node">
<title>Node32</title>
<g id="a_Node000032"><a xlink:href="util_2shared__cap.html" target="_top" xlink:title="Shared_cap / Shared_del_cap.">
<polygon fill="white" stroke="#666666" points="1356.5,-217 1240.5,-217 1240.5,-198 1356.5,-198 1356.5,-217"/>
<text text-anchor="middle" x="1298.5" y="-205" font-family="Helvetica,sans-Serif" font-size="10.00">l4/re/util/shared_cap</text>
</a>
</g>
</g>
<!-- Node19&#45;&gt;Node32 -->
<g id="edge44_Node000019_Node000032" class="edge">
<title>Node19&#45;&gt;Node32</title>
<g id="a_edge44_Node000019_Node000032"><a xlink:title=" ">
<path fill="none" stroke="#63b8ff" d="M1062.5,-251.19C1117.44,-241.25 1199.59,-226.39 1251.06,-217.08"/>
<polygon fill="#63b8ff" stroke="#63b8ff" points="1061.79,-247.76 1052.58,-252.98 1063.04,-254.65 1061.79,-247.76"/>
</a>
</g>
</g>
<!-- Node33 -->
<g id="Node000033" class="node">
<title>Node33</title>
<g id="a_Node000033"><a xlink:href="util_2unique__cap.html" target="_top" xlink:title="Unique_cap / Unique_del_cap.">
<polygon fill="white" stroke="#666666" points="1528.5,-217 1412.5,-217 1412.5,-198 1528.5,-198 1528.5,-217"/>
<text text-anchor="middle" x="1470.5" y="-205" font-family="Helvetica,sans-Serif" font-size="10.00">l4/re/util/unique_cap</text>
</a>
</g>
</g>
<!-- Node19&#45;&gt;Node33 -->
<g id="edge46_Node000019_Node000033" class="edge">
<title>Node19&#45;&gt;Node33</title>
<g id="a_edge46_Node000019_Node000033"><a xlink:title=" ">
<path fill="none" stroke="#63b8ff" d="M1068.69,-254.44C1146.35,-245.74 1282.14,-230.46 1398.5,-217 1403,-216.48 1407.66,-215.94 1412.34,-215.39"/>
<polygon fill="#63b8ff" stroke="#63b8ff" points="1068.14,-250.98 1058.59,-255.57 1068.91,-257.94 1068.14,-250.98"/>
</a>
</g>
</g>
<!-- Node21 -->
<g id="Node000021" class="node">
<title>Node21</title>
<g id="a_Node000021"><a xlink:href="server_2virtio-block_source.html" target="_top" xlink:title=" ">
<polygon fill="white" stroke="#666666" points="1310,-96 1213,-96 1213,-66 1310,-66 1310,-96"/>
<text text-anchor="start" x="1221" y="-84" font-family="Helvetica,sans-Serif" font-size="10.00">l4/l4virtio/server</text>
<text text-anchor="middle" x="1261.5" y="-73" font-family="Helvetica,sans-Serif" font-size="10.00">/virtio&#45;block</text>
</a>
</g>
</g>
<!-- Node20&#45;&gt;Node21 -->
<g id="edge28_Node000020_Node000021" class="edge">
<title>Node20&#45;&gt;Node21</title>
<g id="a_edge28_Node000020_Node000021"><a xlink:title=" ">
<path fill="none" stroke="#63b8ff" d="M1267.1,-121.83C1265.88,-113.17 1264.55,-103.7 1263.49,-96.16"/>
<polygon fill="#63b8ff" stroke="#63b8ff" points="1263.64,-122.38 1268.5,-131.8 1270.58,-121.41 1263.64,-122.38"/>
</a>
</g>
</g>
<!-- Node22 -->
<g id="Node000022" class="node">
<title>Node22</title>
<g id="a_Node000022"><a xlink:href="virtio-console_source.html" target="_top" xlink:title=" ">
<polygon fill="white" stroke="#666666" points="1156,-96 1059,-96 1059,-66 1156,-66 1156,-96"/>
<text text-anchor="start" x="1067" y="-84" font-family="Helvetica,sans-Serif" font-size="10.00">l4/l4virtio/server</text>
<text text-anchor="middle" x="1107.5" y="-73" font-family="Helvetica,sans-Serif" font-size="10.00">/virtio&#45;console</text>
</a>
</g>
</g>
<!-- Node20&#45;&gt;Node22 -->
<g id="edge29_Node000020_Node000022" class="edge">
<title>Node20&#45;&gt;Node22</title>
<g id="a_edge29_Node000020_Node000022"><a xlink:title=" ">
<path fill="none" stroke="#63b8ff" d="M1225.14,-128.19C1199.25,-118.02 1167.27,-105.47 1143.19,-96.01"/>
<polygon fill="#63b8ff" stroke="#63b8ff" points="1224.14,-131.56 1234.73,-131.95 1226.7,-125.04 1224.14,-131.56"/>
</a>
</g>
</g>
<!-- Node23 -->
<g id="Node000023" class="node">
<title>Node23</title>
<g id="a_Node000023"><a xlink:href="virtio-console-device_source.html" target="_top" xlink:title=" ">
<polygon fill="white" stroke="#666666" points="1206.5,-30 1084.5,-30 1084.5,0 1206.5,0 1206.5,-30"/>
<text text-anchor="start" x="1092.5" y="-18" font-family="Helvetica,sans-Serif" font-size="10.00">l4/l4virtio/server</text>
<text text-anchor="middle" x="1145.5" y="-7" font-family="Helvetica,sans-Serif" font-size="10.00">/virtio&#45;console&#45;device</text>
</a>
</g>
</g>
<!-- Node20&#45;&gt;Node23 -->
<g id="edge31_Node000020_Node000023" class="edge">
<title>Node20&#45;&gt;Node23</title>
<g id="a_edge31_Node000020_Node000023"><a xlink:title=" ">
<path fill="none" stroke="#63b8ff" d="M1240.44,-126.03C1228.61,-117.48 1215.31,-106.95 1204.5,-96 1184.01,-75.24 1164.86,-47.03 1154.21,-30.25"/>
<polygon fill="#63b8ff" stroke="#63b8ff" points="1238.55,-128.98 1248.73,-131.89 1242.58,-123.26 1238.55,-128.98"/>
</a>
</g>
</g>
<!-- Node24 -->
<g id="Node000024" class="node">
<title>Node24</title>
<g id="a_Node000024"><a xlink:href="virtio-scmi-device_source.html" target="_top" xlink:title=" ">
<polygon fill="white" stroke="#666666" points="1436.5,-96 1328.5,-96 1328.5,-66 1436.5,-66 1436.5,-96"/>
<text text-anchor="start" x="1336.5" y="-84" font-family="Helvetica,sans-Serif" font-size="10.00">l4/l4virtio/server</text>
<text text-anchor="middle" x="1382.5" y="-73" font-family="Helvetica,sans-Serif" font-size="10.00">/virtio&#45;scmi&#45;device</text>
</a>
</g>
</g>
<!-- Node20&#45;&gt;Node24 -->
<g id="edge32_Node000020_Node000024" class="edge">
<title>Node20&#45;&gt;Node24</title>
<g id="a_edge32_Node000020_Node000024"><a xlink:title=" ">
<path fill="none" stroke="#63b8ff" d="M1303.81,-126.97C1321.19,-117.03 1342.09,-105.09 1357.98,-96.01"/>
<polygon fill="#63b8ff" stroke="#63b8ff" points="1302.02,-123.95 1295.08,-131.95 1305.5,-130.03 1302.02,-123.95"/>
</a>
</g>
</g>
<!-- Node22&#45;&gt;Node23 -->
<g id="edge30_Node000022_Node000023" class="edge">
<title>Node22&#45;&gt;Node23</title>
<g id="a_edge30_Node000022_Node000023"><a xlink:title=" ">
<path fill="none" stroke="#63b8ff" d="M1121.18,-56.96C1126.5,-48 1132.42,-38.03 1137.09,-30.16"/>
<polygon fill="#63b8ff" stroke="#63b8ff" points="1118.03,-55.41 1115.93,-65.8 1124.05,-58.98 1118.03,-55.41"/>
</a>
</g>
</g>
<!-- Node27 -->
<g id="Node000027" class="node">
<title>Node27</title>
<g id="a_Node000027"><a xlink:href="event__svr_source.html" target="_top" xlink:title=" ">
<polygon fill="white" stroke="#666666" points="1203.5,-156.5 1095.5,-156.5 1095.5,-137.5 1203.5,-137.5 1203.5,-156.5"/>
<text text-anchor="middle" x="1149.5" y="-144.5" font-family="Helvetica,sans-Serif" font-size="10.00">l4/re/util/event_svr</text>
</a>
</g>
</g>
<!-- Node26&#45;&gt;Node27 -->
<g id="edge37_Node000026_Node000027" class="edge">
<title>Node26&#45;&gt;Node27</title>
<g id="a_edge37_Node000026_Node000027"><a xlink:title=" ">
<path fill="none" stroke="#63b8ff" d="M1166.87,-188.65C1162.34,-178.04 1156.79,-165.06 1153.2,-156.67"/>
<polygon fill="#63b8ff" stroke="#63b8ff" points="1163.66,-190.05 1170.81,-197.87 1170.1,-187.3 1163.66,-190.05"/>
</a>
</g>
</g>
<!-- Node28&#45;&gt;Node24 -->
<g id="edge43_Node000028_Node000024" class="edge">
<title>Node28&#45;&gt;Node24</title>
<g id="a_edge43_Node000028_Node000024"><a xlink:title=" ">
<path fill="none" stroke="#63b8ff" d="M1429.15,-130.16C1419.12,-119.81 1406.14,-106.4 1396.41,-96.36"/>
<polygon fill="#63b8ff" stroke="#63b8ff" points="1426.67,-132.62 1436.14,-137.37 1431.69,-127.75 1426.67,-132.62"/>
</a>
</g>
</g>
<!-- Node29 -->
<g id="Node000029" class="node">
<title>Node29</title>
<g id="a_Node000029"><a xlink:href="client_2l4virtio_source.html" target="_top" xlink:title=" ">
<polygon fill="white" stroke="#666666" points="1586,-96 1493,-96 1493,-66 1586,-66 1586,-96"/>
<text text-anchor="start" x="1501" y="-84" font-family="Helvetica,sans-Serif" font-size="10.00">l4/l4virtio/client</text>
<text text-anchor="middle" x="1539.5" y="-73" font-family="Helvetica,sans-Serif" font-size="10.00">/l4virtio</text>
</a>
</g>
</g>
<!-- Node28&#45;&gt;Node29 -->
<g id="edge39_Node000028_Node000029" class="edge">
<title>Node28&#45;&gt;Node29</title>
<g id="a_edge39_Node000028_Node000029"><a xlink:title=" ">
<path fill="none" stroke="#63b8ff" d="M1465.85,-131.62C1481.59,-121.01 1502.9,-106.66 1518.55,-96.12"/>
<polygon fill="#63b8ff" stroke="#63b8ff" points="1463.65,-128.88 1457.31,-137.37 1467.56,-134.68 1463.65,-128.88"/>
</a>
</g>
</g>
<!-- Node30 -->
<g id="Node000030" class="node">
<title>Node30</title>
<g id="a_Node000030"><a xlink:href="client_2virtio-block_source.html" target="_top" xlink:title=" ">
<polygon fill="white" stroke="#666666" points="1586,-30 1493,-30 1493,0 1586,0 1586,-30"/>
<text text-anchor="start" x="1501" y="-18" font-family="Helvetica,sans-Serif" font-size="10.00">l4/l4virtio/client</text>
<text text-anchor="middle" x="1539.5" y="-7" font-family="Helvetica,sans-Serif" font-size="10.00">/virtio&#45;block</text>
</a>
</g>
</g>
<!-- Node28&#45;&gt;Node30 -->
<g id="edge42_Node000028_Node000030" class="edge">
<title>Node28&#45;&gt;Node30</title>
<g id="a_edge42_Node000028_Node000030"><a xlink:title=" ">
<path fill="none" stroke="#63b8ff" d="M1451.36,-127.71C1458.24,-110.75 1469.89,-85.29 1484.5,-66 1494.86,-52.32 1509.3,-39.36 1520.79,-30.06"/>
<polygon fill="#63b8ff" stroke="#63b8ff" points="1447.93,-126.89 1447.55,-137.48 1454.45,-129.44 1447.93,-126.89"/>
</a>
</g>
</g>
<!-- Node29&#45;&gt;Node30 -->
<g id="edge40_Node000029_Node000030" class="edge">
<title>Node29&#45;&gt;Node30</title>
<g id="a_edge40_Node000029_Node000030"><a xlink:title=" ">
<path fill="none" stroke="#63b8ff" d="M1539.5,-55.54C1539.5,-46.96 1539.5,-37.61 1539.5,-30.16"/>
<polygon fill="#63b8ff" stroke="#63b8ff" points="1536,-55.8 1539.5,-65.8 1543,-55.8 1536,-55.8"/>
</a>
</g>
</g>
<!-- Node31 -->
<g id="Node000031" class="node">
<title>Node31</title>
<g id="a_Node000031"><a xlink:href="virtio-net_source.html" target="_top" xlink:title=" ">
<polygon fill="white" stroke="#666666" points="1698,-30 1605,-30 1605,0 1698,0 1698,-30"/>
<text text-anchor="start" x="1613" y="-18" font-family="Helvetica,sans-Serif" font-size="10.00">l4/l4virtio/client</text>
<text text-anchor="middle" x="1651.5" y="-7" font-family="Helvetica,sans-Serif" font-size="10.00">/virtio&#45;net</text>
</a>
</g>
</g>
<!-- Node29&#45;&gt;Node31 -->
<g id="edge41_Node000029_Node000031" class="edge">
<title>Node29&#45;&gt;Node31</title>
<g id="a_edge41_Node000029_Node000031"><a xlink:title=" ">
<path fill="none" stroke="#63b8ff" d="M1572.81,-60.97C1590.19,-51.03 1611.09,-39.09 1626.98,-30.01"/>
<polygon fill="#63b8ff" stroke="#63b8ff" points="1571.02,-57.95 1564.08,-65.95 1574.5,-64.03 1571.02,-57.95"/>
</a>
</g>
</g>
<!-- Node32&#45;&gt;Node20 -->
<g id="edge45_Node000032_Node000020" class="edge">
<title>Node32&#45;&gt;Node20</title>
<g id="a_edge45_Node000032_Node000020"><a xlink:title=" ">
<path fill="none" stroke="#63b8ff" d="M1290.02,-188.78C1285.93,-180.23 1281.09,-170.13 1277.26,-162.11"/>
<polygon fill="#63b8ff" stroke="#63b8ff" points="1286.89,-190.36 1294.37,-197.87 1293.21,-187.34 1286.89,-190.36"/>
</a>
</g>
</g>
<!-- Node33&#45;&gt;Node18 -->
<g id="edge52_Node000033_Node000018" class="edge">
<title>Node33&#45;&gt;Node18</title>
<g id="a_edge52_Node000033_Node000018"><a xlink:title=" ">
<path fill="none" stroke="#63b8ff" d="M1402.42,-199.9C1325.52,-192.15 1196.74,-178.27 1086.5,-162 1075.48,-160.37 1063.62,-158.37 1052.56,-156.4"/>
<polygon fill="#63b8ff" stroke="#63b8ff" points="1402.15,-203.39 1412.45,-200.91 1402.85,-196.43 1402.15,-203.39"/>
</a>
</g>
</g>
<!-- Node33&#45;&gt;Node20 -->
<g id="edge50_Node000033_Node000020" class="edge">
<title>Node33&#45;&gt;Node20</title>
<g id="a_edge50_Node000033_Node000020"><a xlink:title=" ">
<path fill="none" stroke="#63b8ff" d="M1431.45,-195.08C1399.15,-185.63 1353.14,-172.17 1318.58,-162.06"/>
<polygon fill="#63b8ff" stroke="#63b8ff" points="1430.84,-198.55 1441.42,-197.99 1432.8,-191.83 1430.84,-198.55"/>
</a>
</g>
</g>
<!-- Node33&#45;&gt;Node21 -->
<g id="edge51_Node000033_Node000021" class="edge">
<title>Node33&#45;&gt;Node21</title>
<g id="a_edge51_Node000033_Node000021"><a xlink:title=" ">
<path fill="none" stroke="#63b8ff" d="M1437.92,-194.3C1417.68,-186.2 1391.43,-174.74 1369.5,-162 1367.14,-160.63 1310.6,-118.57 1280.29,-96"/>
<polygon fill="#63b8ff" stroke="#63b8ff" points="1436.74,-197.6 1447.33,-198 1439.3,-191.08 1436.74,-197.6"/>
</a>
</g>
</g>
<!-- Node33&#45;&gt;Node28 -->
<g id="edge53_Node000033_Node000028" class="edge">
<title>Node33&#45;&gt;Node28</title>
<g id="a_edge53_Node000033_Node000028"><a xlink:title=" ">
<path fill="none" stroke="#63b8ff" d="M1462.57,-188.65C1457.85,-178.04 1452.08,-165.06 1448.35,-156.67"/>
<polygon fill="#63b8ff" stroke="#63b8ff" points="1459.4,-190.15 1466.66,-197.87 1465.8,-187.31 1459.4,-190.15"/>
</a>
</g>
</g>
<!-- Node33&#45;&gt;Node29 -->
<g id="edge47_Node000033_Node000029" class="edge">
<title>Node33&#45;&gt;Node29</title>
<g id="a_edge47_Node000033_Node000029"><a xlink:title=" ">
<path fill="none" stroke="#63b8ff" d="M1492.41,-191.82C1502.38,-184.07 1513.5,-173.73 1520.5,-162 1532.87,-141.29 1537.19,-113.06 1538.69,-96.26"/>
<polygon fill="#63b8ff" stroke="#63b8ff" points="1490.06,-189.21 1484.07,-197.94 1494.2,-194.85 1490.06,-189.21"/>
</a>
</g>
</g>
<!-- Node33&#45;&gt;Node30 -->
<g id="edge48_Node000033_Node000030" class="edge">
<title>Node33&#45;&gt;Node30</title>
<g id="a_edge48_Node000033_Node000030"><a xlink:title=" ">
<path fill="none" stroke="#63b8ff" d="M1497.89,-192.95C1529.29,-175.58 1578.58,-142.08 1595.5,-96 1600.09,-83.48 1600.95,-78.17 1595.5,-66 1588.84,-51.13 1575.33,-38.86 1563.25,-30.2"/>
<polygon fill="#63b8ff" stroke="#63b8ff" points="1495.95,-190.02 1488.78,-197.83 1499.25,-196.2 1495.95,-190.02"/>
</a>
</g>
</g>
<!-- Node33&#45;&gt;Node31 -->
<g id="edge49_Node000033_Node000031" class="edge">
<title>Node33&#45;&gt;Node31</title>
<g id="a_edge49_Node000033_Node000031"><a xlink:title=" ">
<path fill="none" stroke="#63b8ff" d="M1513.49,-194.6C1533.16,-187.54 1555.75,-176.99 1572.5,-162 1614.6,-124.34 1638.54,-58.76 1647.45,-30.09"/>
<polygon fill="#63b8ff" stroke="#63b8ff" points="1512.16,-191.36 1503.82,-197.88 1514.41,-197.98 1512.16,-191.36"/>
</a>
</g>
</g>
</g>
</svg>
