<?xml version="1.0" encoding="UTF-8" standalone="no"?>
<!DOCTYPE svg PUBLIC "-//W3C//DTD SVG 1.1//EN"
 "http://www.w3.org/Graphics/SVG/1.1/DTD/svg11.dtd">
<!-- Generated by graphviz version 2.43.0 (0)
 -->
<!-- Title: l4/sys/cxx/smart_capability_1x Pages: 1 -->
<svg width="783pt" height="280pt"
 viewBox="0.00 0.00 783.00 280.00" xmlns="http://www.w3.org/2000/svg" xmlns:xlink="http://www.w3.org/1999/xlink">
<g id="graph0" class="graph" transform="scale(1 1) rotate(0) translate(4 276)">
<title>l4/sys/cxx/smart_capability_1x</title>
<!-- Node1 -->
<g id="Node000001" class="node">
<title>Node1</title>
<g id="a_Node000001"><a xlink:title=" ">
<polygon fill="#999999" stroke="#666666" points="320,-272 153,-272 153,-253 320,-253 320,-272"/>
<text text-anchor="middle" x="236.5" y="-260" font-family="Helvetica,sans-Serif" font-size="10.00">l4/sys/cxx/smart_capability_1x</text>
</a>
</g>
</g>
<!-- Node2 -->
<g id="Node000002" class="node">
<title>Node2</title>
<g id="a_Node000002"><a xlink:href="shared__cap.html" target="_top" xlink:title="Shared_cap / Shared_del_cap.">
<polygon fill="white" stroke="#666666" points="97,-217 0,-217 0,-198 97,-198 97,-217"/>
<text text-anchor="middle" x="48.5" y="-205" font-family="Helvetica,sans-Serif" font-size="10.00">l4/re/shared_cap</text>
</a>
</g>
</g>
<!-- Node1&#45;&gt;Node2 -->
<g id="edge1_Node000001_Node000002" class="edge">
<title>Node1&#45;&gt;Node2</title>
<g id="a_edge1_Node000001_Node000002"><a xlink:title=" ">
<path fill="none" stroke="#63b8ff" d="M196.36,-250.18C161.2,-240.27 110.87,-226.08 78.94,-217.08"/>
<polygon fill="#63b8ff" stroke="#63b8ff" points="195.72,-253.64 206.29,-252.98 197.62,-246.9 195.72,-253.64"/>
</a>
</g>
</g>
<!-- Node4 -->
<g id="Node000004" class="node">
<title>Node4</title>
<g id="a_Node000004"><a xlink:href="unique__cap.html" target="_top" xlink:title="Unique_cap / Unique_del_cap.">
<polygon fill="white" stroke="#666666" points="223,-217 126,-217 126,-198 223,-198 223,-217"/>
<text text-anchor="middle" x="174.5" y="-205" font-family="Helvetica,sans-Serif" font-size="10.00">l4/re/unique_cap</text>
</a>
</g>
</g>
<!-- Node1&#45;&gt;Node4 -->
<g id="edge3_Node000001_Node000004" class="edge">
<title>Node1&#45;&gt;Node4</title>
<g id="a_edge3_Node000001_Node000004"><a xlink:title=" ">
<path fill="none" stroke="#63b8ff" d="M218.75,-246.32C207.69,-236.87 193.87,-225.06 184.64,-217.17"/>
<polygon fill="#63b8ff" stroke="#63b8ff" points="216.66,-249.15 226.54,-252.98 221.21,-243.83 216.66,-249.15"/>
</a>
</g>
</g>
<!-- Node7 -->
<g id="Node000007" class="node">
<title>Node7</title>
<g id="a_Node000007"><a xlink:href="util_2shared__cap.html" target="_top" xlink:title="Shared_cap / Shared_del_cap.">
<polygon fill="white" stroke="#666666" points="357.5,-217 241.5,-217 241.5,-198 357.5,-198 357.5,-217"/>
<text text-anchor="middle" x="299.5" y="-205" font-family="Helvetica,sans-Serif" font-size="10.00">l4/re/util/shared_cap</text>
</a>
</g>
</g>
<!-- Node1&#45;&gt;Node7 -->
<g id="edge8_Node000001_Node000007" class="edge">
<title>Node1&#45;&gt;Node7</title>
<g id="a_edge8_Node000001_Node000007"><a xlink:title=" ">
<path fill="none" stroke="#63b8ff" d="M254.54,-246.32C265.77,-236.87 279.82,-225.06 289.19,-217.17"/>
<polygon fill="#63b8ff" stroke="#63b8ff" points="252.02,-243.87 246.62,-252.98 256.53,-249.23 252.02,-243.87"/>
</a>
</g>
</g>
<!-- Node10 -->
<g id="Node000010" class="node">
<title>Node10</title>
<g id="a_Node000010"><a xlink:href="util_2unique__cap.html" target="_top" xlink:title="Unique_cap / Unique_del_cap.">
<polygon fill="white" stroke="#666666" points="559.5,-217 443.5,-217 443.5,-198 559.5,-198 559.5,-217"/>
<text text-anchor="middle" x="501.5" y="-205" font-family="Helvetica,sans-Serif" font-size="10.00">l4/re/util/unique_cap</text>
</a>
</g>
</g>
<!-- Node1&#45;&gt;Node10 -->
<g id="edge11_Node000001_Node000010" class="edge">
<title>Node1&#45;&gt;Node10</title>
<g id="a_edge11_Node000001_Node000010"><a xlink:title=" ">
<path fill="none" stroke="#63b8ff" d="M288.99,-251C338.66,-241.07 412.33,-226.33 458.59,-217.08"/>
<polygon fill="#63b8ff" stroke="#63b8ff" points="288.2,-247.59 279.08,-252.98 289.57,-254.46 288.2,-247.59"/>
</a>
</g>
</g>
<!-- Node3 -->
<g id="Node000003" class="node">
<title>Node3</title>
<g id="a_Node000003"><a xlink:href="vfs__impl_8h_source.html" target="_top" xlink:title=" ">
<polygon fill="white" stroke="#666666" points="118.5,-96 8.5,-96 8.5,-66 118.5,-66 118.5,-96"/>
<text text-anchor="start" x="16.5" y="-84" font-family="Helvetica,sans-Serif" font-size="10.00">l4/l4re_vfs/impl/vfs</text>
<text text-anchor="middle" x="63.5" y="-73" font-family="Helvetica,sans-Serif" font-size="10.00">_impl.h</text>
</a>
</g>
</g>
<!-- Node2&#45;&gt;Node3 -->
<g id="edge2_Node000002_Node000003" class="edge">
<title>Node2&#45;&gt;Node3</title>
<g id="a_edge2_Node000002_Node000003"><a xlink:title=" ">
<path fill="none" stroke="#63b8ff" d="M49.93,-187.67C51.16,-172.59 53.1,-150.9 55.5,-132 57.03,-119.96 59.23,-106.38 60.94,-96.41"/>
<polygon fill="#63b8ff" stroke="#63b8ff" points="46.43,-187.52 49.14,-197.76 53.41,-188.07 46.43,-187.52"/>
</a>
</g>
</g>
<!-- Node5 -->
<g id="Node000005" class="node">
<title>Node5</title>
<g id="a_Node000005"><a xlink:href="ns__fs_8h_source.html" target="_top" xlink:title=" ">
<polygon fill="white" stroke="#666666" points="194.5,-156.5 64.5,-156.5 64.5,-137.5 194.5,-137.5 194.5,-156.5"/>
<text text-anchor="middle" x="129.5" y="-144.5" font-family="Helvetica,sans-Serif" font-size="10.00">l4/l4re_vfs/impl/ns_fs.h</text>
</a>
</g>
</g>
<!-- Node4&#45;&gt;Node5 -->
<g id="edge4_Node000004_Node000005" class="edge">
<title>Node4&#45;&gt;Node5</title>
<g id="a_edge4_Node000004_Node000005"><a xlink:title=" ">
<path fill="none" stroke="#63b8ff" d="M161.52,-189.63C153.23,-178.85 142.82,-165.32 136.17,-156.67"/>
<polygon fill="#63b8ff" stroke="#63b8ff" points="158.99,-192.08 167.86,-197.87 164.54,-187.81 158.99,-192.08"/>
</a>
</g>
</g>
<!-- Node6 -->
<g id="Node000006" class="node">
<title>Node6</title>
<g id="a_Node000006"><a xlink:href="ns__fs__impl_8h_source.html" target="_top" xlink:title=" ">
<polygon fill="white" stroke="#666666" points="252,-96 145,-96 145,-66 252,-66 252,-96"/>
<text text-anchor="start" x="153" y="-84" font-family="Helvetica,sans-Serif" font-size="10.00">l4/l4re_vfs/impl/ns</text>
<text text-anchor="middle" x="198.5" y="-73" font-family="Helvetica,sans-Serif" font-size="10.00">_fs_impl.h</text>
</a>
</g>
</g>
<!-- Node4&#45;&gt;Node6 -->
<g id="edge7_Node000004_Node000006" class="edge">
<title>Node4&#45;&gt;Node6</title>
<g id="a_edge7_Node000004_Node000006"><a xlink:title=" ">
<path fill="none" stroke="#63b8ff" d="M188.71,-189.78C194.5,-181.89 200.52,-172.02 203.5,-162 210.12,-139.72 205.97,-112.47 202.29,-96.21"/>
<polygon fill="#63b8ff" stroke="#63b8ff" points="185.87,-187.72 182.44,-197.75 191.37,-192.05 185.87,-187.72"/>
</a>
</g>
</g>
<!-- Node5&#45;&gt;Node3 -->
<g id="edge6_Node000005_Node000003" class="edge">
<title>Node5&#45;&gt;Node3</title>
<g id="a_edge6_Node000005_Node000003"><a xlink:title=" ">
<path fill="none" stroke="#63b8ff" d="M113.11,-130.1C102.35,-119.68 88.42,-106.16 78.06,-96.12"/>
<polygon fill="#63b8ff" stroke="#63b8ff" points="110.98,-132.92 120.6,-137.37 115.86,-127.89 110.98,-132.92"/>
</a>
</g>
</g>
<!-- Node5&#45;&gt;Node6 -->
<g id="edge5_Node000005_Node000006" class="edge">
<title>Node5&#45;&gt;Node6</title>
<g id="a_edge5_Node000005_Node000006"><a xlink:title=" ">
<path fill="none" stroke="#63b8ff" d="M146.31,-130.41C157.59,-119.94 172.34,-106.26 183.28,-96.12"/>
<polygon fill="#63b8ff" stroke="#63b8ff" points="143.76,-128 138.81,-137.37 148.52,-133.13 143.76,-128"/>
</a>
</g>
</g>
<!-- Node8 -->
<g id="Node000008" class="node">
<title>Node8</title>
<g id="a_Node000008"><a xlink:href="server_2l4virtio_source.html" target="_top" xlink:title=" ">
<polygon fill="white" stroke="#666666" points="348,-162 251,-162 251,-132 348,-132 348,-162"/>
<text text-anchor="start" x="259" y="-150" font-family="Helvetica,sans-Serif" font-size="10.00">l4/l4virtio/server</text>
<text text-anchor="middle" x="299.5" y="-139" font-family="Helvetica,sans-Serif" font-size="10.00">/l4virtio</text>
</a>
</g>
</g>
<!-- Node7&#45;&gt;Node8 -->
<g id="edge9_Node000007_Node000008" class="edge">
<title>Node7&#45;&gt;Node8</title>
<g id="a_edge9_Node000007_Node000008"><a xlink:title=" ">
<path fill="none" stroke="#63b8ff" d="M299.5,-187.65C299.5,-179.36 299.5,-169.78 299.5,-162.11"/>
<polygon fill="#63b8ff" stroke="#63b8ff" points="296,-187.87 299.5,-197.87 303,-187.87 296,-187.87"/>
</a>
</g>
</g>
<!-- Node9 -->
<g id="Node000009" class="node">
<title>Node9</title>
<g id="a_Node000009"><a xlink:href="server_2virtio-block_source.html" target="_top" xlink:title=" ">
<polygon fill="white" stroke="#666666" points="371,-96 274,-96 274,-66 371,-66 371,-96"/>
<text text-anchor="start" x="282" y="-84" font-family="Helvetica,sans-Serif" font-size="10.00">l4/l4virtio/server</text>
<text text-anchor="middle" x="322.5" y="-73" font-family="Helvetica,sans-Serif" font-size="10.00">/virtio&#45;block</text>
</a>
</g>
</g>
<!-- Node8&#45;&gt;Node9 -->
<g id="edge10_Node000008_Node000009" class="edge">
<title>Node8&#45;&gt;Node9</title>
<g id="a_edge10_Node000008_Node000009"><a xlink:title=" ">
<path fill="none" stroke="#63b8ff" d="M308.09,-122.11C311.22,-113.38 314.67,-103.78 317.41,-96.16"/>
<polygon fill="#63b8ff" stroke="#63b8ff" points="304.69,-121.2 304.6,-131.8 311.28,-123.57 304.69,-121.2"/>
</a>
</g>
</g>
<!-- Node10&#45;&gt;Node8 -->
<g id="edge17_Node000010_Node000008" class="edge">
<title>Node10&#45;&gt;Node8</title>
<g id="a_edge17_Node000010_Node000008"><a xlink:title=" ">
<path fill="none" stroke="#63b8ff" d="M462.48,-195.2C429.84,-185.75 383.12,-172.22 348.06,-162.06"/>
<polygon fill="#63b8ff" stroke="#63b8ff" points="461.55,-198.57 472.13,-197.99 463.5,-191.85 461.55,-198.57"/>
</a>
</g>
</g>
<!-- Node10&#45;&gt;Node9 -->
<g id="edge18_Node000010_Node000009" class="edge">
<title>Node10&#45;&gt;Node9</title>
<g id="a_edge18_Node000010_Node000009"><a xlink:title=" ">
<path fill="none" stroke="#63b8ff" d="M496.42,-188.07C490.9,-171.29 480.51,-146.92 463.5,-132 437.63,-109.31 400.76,-96.71 371.22,-89.84"/>
<polygon fill="#63b8ff" stroke="#63b8ff" points="493.12,-189.26 499.36,-197.82 499.82,-187.24 493.12,-189.26"/>
</a>
</g>
</g>
<!-- Node11 -->
<g id="Node000011" class="node">
<title>Node11</title>
<g id="a_Node000011"><a xlink:href="client_2l4virtio_source.html" target="_top" xlink:title=" ">
<polygon fill="white" stroke="#666666" points="720,-96 627,-96 627,-66 720,-66 720,-96"/>
<text text-anchor="start" x="635" y="-84" font-family="Helvetica,sans-Serif" font-size="10.00">l4/l4virtio/client</text>
<text text-anchor="middle" x="673.5" y="-73" font-family="Helvetica,sans-Serif" font-size="10.00">/l4virtio</text>
</a>
</g>
</g>
<!-- Node10&#45;&gt;Node11 -->
<g id="edge12_Node000010_Node000011" class="edge">
<title>Node10&#45;&gt;Node11</title>
<g id="a_edge12_Node000010_Node000011"><a xlink:title=" ">
<path fill="none" stroke="#63b8ff" d="M569.84,-199.41C617.93,-192.84 676.32,-181.15 691.5,-162 706.62,-142.92 693.51,-113.64 683.14,-96.29"/>
<polygon fill="#63b8ff" stroke="#63b8ff" points="569.21,-195.96 559.75,-200.73 570.12,-202.9 569.21,-195.96"/>
</a>
</g>
</g>
<!-- Node12 -->
<g id="Node000012" class="node">
<title>Node12</title>
<g id="a_Node000012"><a xlink:href="client_2virtio-block_source.html" target="_top" xlink:title=" ">
<polygon fill="white" stroke="#666666" points="645,-30 552,-30 552,0 645,0 645,-30"/>
<text text-anchor="start" x="560" y="-18" font-family="Helvetica,sans-Serif" font-size="10.00">l4/l4virtio/client</text>
<text text-anchor="middle" x="598.5" y="-7" font-family="Helvetica,sans-Serif" font-size="10.00">/virtio&#45;block</text>
</a>
</g>
</g>
<!-- Node10&#45;&gt;Node12 -->
<g id="edge15_Node000010_Node000012" class="edge">
<title>Node10&#45;&gt;Node12</title>
<g id="a_edge15_Node000010_Node000012"><a xlink:title=" ">
<path fill="none" stroke="#63b8ff" d="M510.62,-188.58C529.8,-150.92 573.96,-64.2 591.31,-30.12"/>
<polygon fill="#63b8ff" stroke="#63b8ff" points="507.34,-187.32 505.92,-197.82 513.58,-190.5 507.34,-187.32"/>
</a>
</g>
</g>
<!-- Node13 -->
<g id="Node000013" class="node">
<title>Node13</title>
<g id="a_Node000013"><a xlink:href="virtio-net_source.html" target="_top" xlink:title=" ">
<polygon fill="white" stroke="#666666" points="775,-30 682,-30 682,0 775,0 775,-30"/>
<text text-anchor="start" x="690" y="-18" font-family="Helvetica,sans-Serif" font-size="10.00">l4/l4virtio/client</text>
<text text-anchor="middle" x="728.5" y="-7" font-family="Helvetica,sans-Serif" font-size="10.00">/virtio&#45;net</text>
</a>
</g>
</g>
<!-- Node10&#45;&gt;Node13 -->
<g id="edge16_Node000010_Node000013" class="edge">
<title>Node10&#45;&gt;Node13</title>
<g id="a_edge16_Node000010_Node000013"><a xlink:title=" ">
<path fill="none" stroke="#63b8ff" d="M569.88,-199.31C622.11,-192.48 688.44,-180.47 708.5,-162 745.58,-127.86 737.43,-59.81 731.71,-30.25"/>
<polygon fill="#63b8ff" stroke="#63b8ff" points="569.11,-195.88 559.63,-200.61 569.99,-202.82 569.11,-195.88"/>
</a>
</g>
</g>
<!-- Node14 -->
<g id="Node000014" class="node">
<title>Node14</title>
<g id="a_Node000014"><a xlink:href="util_2event.html" target="_top" xlink:title=" ">
<polygon fill="white" stroke="#666666" points="454.5,-156.5 366.5,-156.5 366.5,-137.5 454.5,-137.5 454.5,-156.5"/>
<text text-anchor="middle" x="410.5" y="-144.5" font-family="Helvetica,sans-Serif" font-size="10.00">l4/re/util/event</text>
</a>
</g>
</g>
<!-- Node10&#45;&gt;Node14 -->
<g id="edge19_Node000010_Node000014" class="edge">
<title>Node10&#45;&gt;Node14</title>
<g id="a_edge19_Node000010_Node000014"><a xlink:title=" ">
<path fill="none" stroke="#63b8ff" d="M479.19,-192.16C461.9,-181.05 438.52,-166.01 423.98,-156.67"/>
<polygon fill="#63b8ff" stroke="#63b8ff" points="477.77,-195.4 488.07,-197.87 481.55,-189.52 477.77,-195.4"/>
</a>
</g>
</g>
<!-- Node15 -->
<g id="Node000015" class="node">
<title>Node15</title>
<g id="a_Node000015"><a xlink:href="object__registry_source.html" target="_top" xlink:title=" ">
<polygon fill="white" stroke="#666666" points="682,-156.5 549,-156.5 549,-137.5 682,-137.5 682,-156.5"/>
<text text-anchor="middle" x="615.5" y="-144.5" font-family="Helvetica,sans-Serif" font-size="10.00">l4/re/util/object_registry</text>
</a>
</g>
</g>
<!-- Node10&#45;&gt;Node15 -->
<g id="edge20_Node000010_Node000015" class="edge">
<title>Node10&#45;&gt;Node15</title>
<g id="a_edge20_Node000010_Node000015"><a xlink:title=" ">
<path fill="none" stroke="#63b8ff" d="M527.37,-193.23C549.19,-182.03 579.81,-166.32 598.61,-156.67"/>
<polygon fill="#63b8ff" stroke="#63b8ff" points="525.62,-190.19 518.32,-197.87 528.82,-196.42 525.62,-190.19"/>
</a>
</g>
</g>
<!-- Node11&#45;&gt;Node12 -->
<g id="edge13_Node000011_Node000012" class="edge">
<title>Node11&#45;&gt;Node12</title>
<g id="a_edge13_Node000011_Node000012"><a xlink:title=" ">
<path fill="none" stroke="#63b8ff" d="M649.13,-59.2C637.99,-49.7 625.09,-38.69 615.1,-30.16"/>
<polygon fill="#63b8ff" stroke="#63b8ff" points="646.98,-61.97 656.86,-65.8 651.52,-56.64 646.98,-61.97"/>
</a>
</g>
</g>
<!-- Node11&#45;&gt;Node13 -->
<g id="edge14_Node000011_Node000013" class="edge">
<title>Node11&#45;&gt;Node13</title>
<g id="a_edge14_Node000011_Node000013"><a xlink:title=" ">
<path fill="none" stroke="#63b8ff" d="M692.33,-58.09C700.27,-48.85 709.28,-38.36 716.33,-30.16"/>
<polygon fill="#63b8ff" stroke="#63b8ff" points="689.57,-55.93 685.71,-65.8 694.88,-60.49 689.57,-55.93"/>
</a>
</g>
</g>
<!-- Node15&#45;&gt;Node11 -->
<g id="edge21_Node000015_Node000011" class="edge">
<title>Node15&#45;&gt;Node11</title>
<g id="a_edge21_Node000015_Node000011"><a xlink:title=" ">
<path fill="none" stroke="#63b8ff" d="M630.14,-129.85C639.48,-119.54 651.48,-106.3 660.49,-96.36"/>
<polygon fill="#63b8ff" stroke="#63b8ff" points="627.44,-127.61 623.32,-137.37 632.63,-132.31 627.44,-127.61"/>
</a>
</g>
</g>
<!-- Node15&#45;&gt;Node12 -->
<g id="edge22_Node000015_Node000012" class="edge">
<title>Node15&#45;&gt;Node12</title>
<g id="a_edge22_Node000015_Node000012"><a xlink:title=" ">
<path fill="none" stroke="#63b8ff" d="M613.06,-127.32C609.62,-101 603.42,-53.61 600.34,-30.07"/>
<polygon fill="#63b8ff" stroke="#63b8ff" points="609.62,-128.01 614.38,-137.47 616.56,-127.1 609.62,-128.01"/>
</a>
</g>
</g>
</g>
</svg>
