<?xml version="1.0" encoding="UTF-8" standalone="no"?>
<!DOCTYPE svg PUBLIC "-//W3C//DTD SVG 1.1//EN"
 "http://www.w3.org/Graphics/SVG/1.1/DTD/svg11.dtd">
<!-- Generated by graphviz version 2.43.0 (0)
 -->
<!-- Title: l4/cxx/std_exc_io Pages: 1 -->
<svg width="996pt" height="808pt"
 viewBox="0.00 0.00 996.00 808.00" xmlns="http://www.w3.org/2000/svg" xmlns:xlink="http://www.w3.org/1999/xlink">
<g id="graph0" class="graph" transform="scale(1 1) rotate(0) translate(4 804)">
<title>l4/cxx/std_exc_io</title>
<!-- Node1 -->
<g id="Node000001" class="node">
<title>Node1</title>
<g id="a_Node000001"><a xlink:title="Base exceptions std stream operator.">
<polygon fill="#999999" stroke="#666666" points="880.5,-800 779.5,-800 779.5,-781 880.5,-781 880.5,-800"/>
<text text-anchor="middle" x="830" y="-788" font-family="Helvetica,sans-Serif" font-size="10.00">l4/cxx/std_exc_io</text>
</a>
</g>
</g>
<!-- Node2 -->
<g id="Node000002" class="node">
<title>Node2</title>
<g id="a_Node000002"><a xlink:href="exceptions.html" target="_top" xlink:title="Base exceptions.">
<polygon fill="white" stroke="#666666" points="832,-745 730,-745 730,-726 832,-726 832,-745"/>
<text text-anchor="middle" x="781" y="-733" font-family="Helvetica,sans-Serif" font-size="10.00">l4/cxx/exceptions</text>
</a>
</g>
</g>
<!-- Node1&#45;&gt;Node2 -->
<g id="edge1_Node000001_Node000002" class="edge">
<title>Node1&#45;&gt;Node2</title>
<g id="a_edge1_Node000001_Node000002"><a xlink:title=" ">
<path fill="none" stroke="#63b8ff" d="M821.91,-780.75C814.84,-773.11 804.41,-761.82 795.85,-752.56"/>
<polygon fill="#63b8ff" stroke="#63b8ff" points="798.3,-750.06 788.94,-745.09 793.16,-754.81 798.3,-750.06"/>
</a>
</g>
</g>
<!-- Node31 -->
<g id="Node000031" class="node">
<title>Node31</title>
<g id="a_Node000031"><a xlink:href="iostream.html" target="_top" xlink:title="IO Stream.">
<polygon fill="white" stroke="#666666" points="946,-745 886,-745 886,-726 946,-726 946,-745"/>
<text text-anchor="middle" x="916" y="-733" font-family="Helvetica,sans-Serif" font-size="10.00">iostream</text>
</a>
</g>
</g>
<!-- Node1&#45;&gt;Node31 -->
<g id="edge68_Node000001_Node000031" class="edge">
<title>Node1&#45;&gt;Node31</title>
<g id="a_edge68_Node000001_Node000031"><a xlink:title=" ">
<path fill="none" stroke="#63b8ff" d="M843.82,-780.98C857.15,-772.77 877.58,-760.18 893.31,-750.49"/>
<polygon fill="#63b8ff" stroke="#63b8ff" points="895.25,-753.4 901.93,-745.17 891.58,-747.44 895.25,-753.4"/>
</a>
</g>
</g>
<!-- Node3 -->
<g id="Node000003" class="node">
<title>Node3</title>
<g id="a_Node000003"><a xlink:href="l4types_8h.html" target="_top" xlink:title="L4 Types.">
<polygon fill="white" stroke="#666666" points="887,-690 793,-690 793,-671 887,-671 887,-690"/>
<text text-anchor="middle" x="840" y="-678" font-family="Helvetica,sans-Serif" font-size="10.00">l4/cxx/l4types.h</text>
</a>
</g>
</g>
<!-- Node2&#45;&gt;Node3 -->
<g id="edge2_Node000002_Node000003" class="edge">
<title>Node2&#45;&gt;Node3</title>
<g id="a_edge2_Node000002_Node000003"><a xlink:title=" ">
<path fill="none" stroke="#63b8ff" d="M790.48,-725.98C799.2,-718.15 812.34,-706.34 822.9,-696.86"/>
<polygon fill="#63b8ff" stroke="#63b8ff" points="825.25,-699.46 830.35,-690.17 820.57,-694.25 825.25,-699.46"/>
</a>
</g>
</g>
<!-- Node11 -->
<g id="Node000011" class="node">
<title>Node11</title>
<g id="a_Node000011"><a xlink:href="basic__ostream.html" target="_top" xlink:title="Basic IO stream.">
<polygon fill="white" stroke="#666666" points="988,-635 868,-635 868,-616 988,-616 988,-635"/>
<text text-anchor="middle" x="928" y="-623" font-family="Helvetica,sans-Serif" font-size="10.00">l4/cxx/basic_ostream</text>
</a>
</g>
</g>
<!-- Node2&#45;&gt;Node11 -->
<g id="edge15_Node000002_Node000011" class="edge">
<title>Node2&#45;&gt;Node11</title>
<g id="a_edge15_Node000002_Node000011"><a xlink:title=" ">
<path fill="none" stroke="#63b8ff" d="M823.55,-725.98C847.18,-719.45 875.78,-708.34 896,-690 909.41,-677.84 917.95,-658.78 922.81,-644.71"/>
<polygon fill="#63b8ff" stroke="#63b8ff" points="926.16,-645.71 925.82,-635.12 919.49,-643.61 926.16,-645.71"/>
</a>
</g>
</g>
<!-- Node12 -->
<g id="Node000012" class="node">
<title>Node12</title>
<g id="a_Node000012"><a xlink:href="err_8h.html" target="_top" xlink:title="Error codes.">
<polygon fill="white" stroke="#666666" points="199,-239 129,-239 129,-220 199,-220 199,-239"/>
<text text-anchor="middle" x="164" y="-227" font-family="Helvetica,sans-Serif" font-size="10.00">l4/sys/err.h</text>
</a>
</g>
</g>
<!-- Node2&#45;&gt;Node12 -->
<g id="edge16_Node000002_Node000012" class="edge">
<title>Node2&#45;&gt;Node12</title>
<g id="a_edge16_Node000002_Node000012"><a xlink:title=" ">
<path fill="none" stroke="#63b8ff" d="M729.87,-732.08C567.47,-723.73 74,-692.89 74,-626.5 74,-626.5 74,-626.5 74,-459.5 74,-375.19 127.49,-284.77 152,-247.77"/>
<polygon fill="#63b8ff" stroke="#63b8ff" points="155.11,-249.42 157.81,-239.17 149.31,-245.49 155.11,-249.42"/>
</a>
</g>
</g>
<!-- Node13 -->
<g id="Node000013" class="node">
<title>Node13</title>
<g id="a_Node000013"><a xlink:href="capability.html" target="_top" xlink:title="L4::Cap related definitions.">
<polygon fill="white" stroke="#666666" points="598,-690 502,-690 502,-671 598,-671 598,-690"/>
<text text-anchor="middle" x="550" y="-678" font-family="Helvetica,sans-Serif" font-size="10.00">l4/sys/capability</text>
</a>
</g>
</g>
<!-- Node2&#45;&gt;Node13 -->
<g id="edge18_Node000002_Node000013" class="edge">
<title>Node2&#45;&gt;Node13</title>
<g id="a_edge18_Node000002_Node000013"><a xlink:title=" ">
<path fill="none" stroke="#63b8ff" d="M743.89,-725.98C704.01,-716.84 640.54,-702.27 597.16,-692.32"/>
<polygon fill="#63b8ff" stroke="#63b8ff" points="597.93,-688.91 587.41,-690.08 596.37,-695.73 597.93,-688.91"/>
</a>
</g>
</g>
<!-- Node29 -->
<g id="Node000029" class="node">
<title>Node29</title>
<g id="a_Node000029"><a xlink:href="backtrace_8h.html" target="_top" xlink:title="Backtrace.">
<polygon fill="white" stroke="#666666" points="775,-690 671,-690 671,-671 775,-671 775,-690"/>
<text text-anchor="middle" x="723" y="-678" font-family="Helvetica,sans-Serif" font-size="10.00">l4/util/backtrace.h</text>
</a>
</g>
</g>
<!-- Node2&#45;&gt;Node29 -->
<g id="edge66_Node000002_Node000029" class="edge">
<title>Node2&#45;&gt;Node29</title>
<g id="a_edge66_Node000002_Node000029"><a xlink:title=" ">
<path fill="none" stroke="#63b8ff" d="M771.68,-725.98C763.19,-718.23 750.44,-706.58 740.12,-697.14"/>
<polygon fill="#63b8ff" stroke="#63b8ff" points="742.23,-694.33 732.49,-690.17 737.51,-699.5 742.23,-694.33"/>
</a>
</g>
</g>
<!-- Node4 -->
<g id="Node000004" class="node">
<title>Node4</title>
<g id="a_Node000004"><a xlink:href="l4_2sys_2types_8h.html" target="_top" xlink:title="Common L4 ABI Data Types.">
<polygon fill="white" stroke="#666666" points="450,-184 366,-184 366,-165 450,-165 450,-184"/>
<text text-anchor="middle" x="408" y="-172" font-family="Helvetica,sans-Serif" font-size="10.00">l4/sys/types.h</text>
</a>
</g>
</g>
<!-- Node3&#45;&gt;Node4 -->
<g id="edge3_Node000003_Node000004" class="edge">
<title>Node3&#45;&gt;Node4</title>
<g id="a_edge3_Node000003_Node000004"><a xlink:title=" ">
<path fill="none" stroke="#63b8ff" d="M837.45,-670.8C827.26,-635.7 790,-504.41 790,-461.5 790,-461.5 790,-461.5 790,-404.5 790,-252.59 565.03,-198.97 460.38,-182.25"/>
<polygon fill="#63b8ff" stroke="#63b8ff" points="460.76,-178.77 450.34,-180.7 459.69,-185.68 460.76,-178.77"/>
</a>
</g>
</g>
<!-- Node3&#45;&gt;Node11 -->
<g id="edge14_Node000003_Node000011" class="edge">
<title>Node3&#45;&gt;Node11</title>
<g id="a_edge14_Node000003_Node000011"><a xlink:title=" ">
<path fill="none" stroke="#63b8ff" d="M854.14,-670.98C867.79,-662.77 888.69,-650.18 904.78,-640.49"/>
<polygon fill="#63b8ff" stroke="#63b8ff" points="906.84,-643.33 913.6,-635.17 903.23,-637.33 906.84,-643.33"/>
</a>
</g>
</g>
<!-- Node5 -->
<g id="Node000005" class="node">
<title>Node5</title>
<g id="a_Node000005"><a xlink:href="l4_2sys_2l4int_8h.html" target="_top" xlink:title="Fixed sized integer types, generic version.">
<polygon fill="white" stroke="#666666" points="582.5,-74 503.5,-74 503.5,-55 582.5,-55 582.5,-74"/>
<text text-anchor="middle" x="543" y="-62" font-family="Helvetica,sans-Serif" font-size="10.00">l4/sys/l4int.h</text>
</a>
</g>
</g>
<!-- Node4&#45;&gt;Node5 -->
<g id="edge4_Node000004_Node000005" class="edge">
<title>Node4&#45;&gt;Node5</title>
<g id="a_edge4_Node000004_Node000005"><a xlink:title=" ">
<path fill="none" stroke="#63b8ff" d="M450.36,-167.31C491.97,-160.26 551.16,-147.31 565,-129 575.5,-115.1 566.27,-95.82 556.75,-82.16"/>
<polygon fill="#63b8ff" stroke="#63b8ff" points="559.49,-79.97 550.66,-74.1 553.9,-84.19 559.49,-79.97"/>
</a>
</g>
</g>
<!-- Node6 -->
<g id="Node000006" class="node">
<title>Node6</title>
<g id="a_Node000006"><a xlink:href="compiler_8h.html" target="_top" xlink:title="L4 compiler related defines.">
<polygon fill="white" stroke="#666666" points="286.5,-74 187.5,-74 187.5,-55 286.5,-55 286.5,-74"/>
<text text-anchor="middle" x="237" y="-62" font-family="Helvetica,sans-Serif" font-size="10.00">l4/sys/compiler.h</text>
</a>
</g>
</g>
<!-- Node4&#45;&gt;Node6 -->
<g id="edge5_Node000004_Node000006" class="edge">
<title>Node4&#45;&gt;Node6</title>
<g id="a_edge5_Node000004_Node000006"><a xlink:title=" ">
<path fill="none" stroke="#63b8ff" d="M385.65,-164.95C365.85,-156.94 336.5,-143.97 313,-129 290.73,-114.82 267.83,-94.8 253.07,-81.05"/>
<polygon fill="#63b8ff" stroke="#63b8ff" points="255.43,-78.47 245.76,-74.14 250.62,-83.55 255.43,-78.47"/>
</a>
</g>
</g>
<!-- Node8 -->
<g id="Node000008" class="node">
<title>Node8</title>
<g id="a_Node000008"><a xlink:href="l4_2sys_2consts_8h.html" target="_top" xlink:title="Common constants.">
<polygon fill="white" stroke="#666666" points="701.5,-129 612.5,-129 612.5,-110 701.5,-110 701.5,-129"/>
<text text-anchor="middle" x="657" y="-117" font-family="Helvetica,sans-Serif" font-size="10.00">l4/sys/consts.h</text>
</a>
</g>
</g>
<!-- Node4&#45;&gt;Node8 -->
<g id="edge7_Node000004_Node000008" class="edge">
<title>Node4&#45;&gt;Node8</title>
<g id="a_edge7_Node000004_Node000008"><a xlink:title=" ">
<path fill="none" stroke="#63b8ff" d="M448.01,-164.98C491.17,-155.8 559.98,-141.15 606.76,-131.19"/>
<polygon fill="#63b8ff" stroke="#63b8ff" points="607.63,-134.59 616.68,-129.08 606.17,-127.74 607.63,-134.59"/>
</a>
</g>
</g>
<!-- Node9 -->
<g id="Node000009" class="node">
<title>Node9</title>
<g id="a_Node000009"><a xlink:href="____l4__fpage_8h_source.html" target="_top" xlink:title=" ">
<polygon fill="white" stroke="#666666" points="432,-129 322,-129 322,-110 432,-110 432,-129"/>
<text text-anchor="middle" x="377" y="-117" font-family="Helvetica,sans-Serif" font-size="10.00">l4/sys/__l4_fpage.h</text>
</a>
</g>
</g>
<!-- Node4&#45;&gt;Node9 -->
<g id="edge10_Node000004_Node000009" class="edge">
<title>Node4&#45;&gt;Node9</title>
<g id="a_edge10_Node000004_Node000009"><a xlink:title=" ">
<path fill="none" stroke="#63b8ff" d="M402.88,-164.75C398.64,-157.49 392.47,-146.95 387.22,-137.98"/>
<polygon fill="#63b8ff" stroke="#63b8ff" points="390.09,-135.95 382.02,-129.09 384.05,-139.49 390.09,-135.95"/>
</a>
</g>
</g>
<!-- Node10 -->
<g id="Node000010" class="node">
<title>Node10</title>
<g id="a_Node000010"><a xlink:href="____timeout_8h_source.html" target="_top" xlink:title=" ">
<polygon fill="white" stroke="#666666" points="556,-129 450,-129 450,-110 556,-110 556,-129"/>
<text text-anchor="middle" x="503" y="-117" font-family="Helvetica,sans-Serif" font-size="10.00">l4/sys/__timeout.h</text>
</a>
</g>
</g>
<!-- Node4&#45;&gt;Node10 -->
<g id="edge12_Node000004_Node000010" class="edge">
<title>Node4&#45;&gt;Node10</title>
<g id="a_edge12_Node000004_Node000010"><a xlink:title=" ">
<path fill="none" stroke="#63b8ff" d="M423.26,-164.98C438.13,-156.69 460.98,-143.94 478.42,-134.22"/>
<polygon fill="#63b8ff" stroke="#63b8ff" points="480.43,-137.1 487.46,-129.17 477.02,-130.99 480.43,-137.1"/>
</a>
</g>
</g>
<!-- Node7 -->
<g id="Node000007" class="node">
<title>Node7</title>
<g id="a_Node000007"><a xlink:title=" ">
<polygon fill="#e0e0e0" stroke="#999999" points="283,-19 191,-19 191,0 283,0 283,-19"/>
<text text-anchor="middle" x="237" y="-7" font-family="Helvetica,sans-Serif" font-size="10.00">l4/sys/linkage.h</text>
</a>
</g>
</g>
<!-- Node6&#45;&gt;Node7 -->
<g id="edge6_Node000006_Node000007" class="edge">
<title>Node6&#45;&gt;Node7</title>
<g id="a_edge6_Node000006_Node000007"><a xlink:title=" ">
<path fill="none" stroke="#63b8ff" d="M237,-54.75C237,-47.8 237,-37.85 237,-29.13"/>
<polygon fill="#63b8ff" stroke="#63b8ff" points="240.5,-29.09 237,-19.09 233.5,-29.09 240.5,-29.09"/>
</a>
</g>
</g>
<!-- Node8&#45;&gt;Node5 -->
<g id="edge9_Node000008_Node000005" class="edge">
<title>Node8&#45;&gt;Node5</title>
<g id="a_edge9_Node000008_Node000005"><a xlink:title=" ">
<path fill="none" stroke="#63b8ff" d="M638.68,-109.98C620.34,-101.46 591.89,-88.23 570.77,-78.41"/>
<polygon fill="#63b8ff" stroke="#63b8ff" points="572.19,-75.21 561.65,-74.17 569.24,-81.56 572.19,-75.21"/>
</a>
</g>
</g>
<!-- Node8&#45;&gt;Node6 -->
<g id="edge8_Node000008_Node000006" class="edge">
<title>Node8&#45;&gt;Node6</title>
<g id="a_edge8_Node000008_Node000006"><a xlink:title=" ">
<path fill="none" stroke="#63b8ff" d="M612.45,-112.88C536.48,-103.29 381.82,-83.77 296.62,-73.02"/>
<polygon fill="#63b8ff" stroke="#63b8ff" points="296.94,-69.54 286.58,-71.76 296.07,-76.48 296.94,-69.54"/>
</a>
</g>
</g>
<!-- Node9&#45;&gt;Node6 -->
<g id="edge11_Node000009_Node000006" class="edge">
<title>Node9&#45;&gt;Node6</title>
<g id="a_edge11_Node000009_Node000006"><a xlink:title=" ">
<path fill="none" stroke="#63b8ff" d="M354.51,-109.98C331.48,-101.27 295.46,-87.63 269.37,-77.75"/>
<polygon fill="#63b8ff" stroke="#63b8ff" points="270.49,-74.44 259.9,-74.17 268.02,-80.98 270.49,-74.44"/>
</a>
</g>
</g>
<!-- Node10&#45;&gt;Node5 -->
<g id="edge13_Node000010_Node000005" class="edge">
<title>Node10&#45;&gt;Node5</title>
<g id="a_edge13_Node000010_Node000005"><a xlink:title=" ">
<path fill="none" stroke="#63b8ff" d="M509.61,-109.75C515.26,-102.26 523.54,-91.28 530.45,-82.13"/>
<polygon fill="#63b8ff" stroke="#63b8ff" points="533.29,-84.18 536.52,-74.09 527.7,-79.96 533.29,-84.18"/>
</a>
</g>
</g>
<!-- Node12&#45;&gt;Node6 -->
<g id="edge17_Node000012_Node000006" class="edge">
<title>Node12&#45;&gt;Node6</title>
<g id="a_edge17_Node000012_Node000006"><a xlink:title=" ">
<path fill="none" stroke="#63b8ff" d="M167.92,-219.74C179.41,-194.09 213.14,-118.78 228.81,-83.78"/>
<polygon fill="#63b8ff" stroke="#63b8ff" points="232.16,-84.86 233.06,-74.31 225.77,-82 232.16,-84.86"/>
</a>
</g>
</g>
<!-- Node13&#45;&gt;Node4 -->
<g id="edge20_Node000013_Node000004" class="edge">
<title>Node13&#45;&gt;Node4</title>
<g id="a_edge20_Node000013_Node000004"><a xlink:title=" ">
<path fill="none" stroke="#63b8ff" d="M558.91,-670.93C599.74,-630.61 763.79,-456.47 689,-330 639.07,-245.56 524.75,-204.17 458.33,-186.56"/>
<polygon fill="#63b8ff" stroke="#63b8ff" points="459.05,-183.14 448.5,-184.04 457.31,-189.92 459.05,-183.14"/>
</a>
</g>
</g>
<!-- Node13&#45;&gt;Node8 -->
<g id="edge19_Node000013_Node000008" class="edge">
<title>Node13&#45;&gt;Node8</title>
<g id="a_edge19_Node000013_Node000008"><a xlink:title=" ">
<path fill="none" stroke="#63b8ff" d="M568.28,-670.88C618.01,-646.03 752,-569.08 752,-461.5 752,-461.5 752,-461.5 752,-228.5 752,-185.91 709.84,-152.14 681.69,-134.33"/>
<polygon fill="#63b8ff" stroke="#63b8ff" points="683.48,-131.32 673.12,-129.12 679.84,-137.31 683.48,-131.32"/>
</a>
</g>
</g>
<!-- Node14 -->
<g id="Node000014" class="node">
<title>Node14</title>
<g id="a_Node000014"><a xlink:href="kobject_source.html" target="_top" xlink:title=" ">
<polygon fill="white" stroke="#666666" points="227.5,-525 144.5,-525 144.5,-506 227.5,-506 227.5,-525"/>
<text text-anchor="middle" x="186" y="-513" font-family="Helvetica,sans-Serif" font-size="10.00">l4/sys/kobject</text>
</a>
</g>
</g>
<!-- Node13&#45;&gt;Node14 -->
<g id="edge21_Node000013_Node000014" class="edge">
<title>Node13&#45;&gt;Node14</title>
<g id="a_edge21_Node000013_Node000014"><a xlink:title=" ">
<path fill="none" stroke="#63b8ff" d="M501.96,-678.01C425.91,-674.77 282.3,-664.78 242,-635 209.01,-610.62 194.72,-561.83 189.14,-535.08"/>
<polygon fill="#63b8ff" stroke="#63b8ff" points="192.55,-534.28 187.26,-525.11 185.68,-535.58 192.55,-534.28"/>
</a>
</g>
</g>
<!-- Node23 -->
<g id="Node000023" class="node">
<title>Node23</title>
<g id="a_Node000023"><a xlink:href="l4_2sys_2task_8h.html" target="_top" xlink:title="Common task related definitions.">
<polygon fill="white" stroke="#666666" points="438,-354.5 360,-354.5 360,-335.5 438,-335.5 438,-354.5"/>
<text text-anchor="middle" x="399" y="-342.5" font-family="Helvetica,sans-Serif" font-size="10.00">l4/sys/task.h</text>
</a>
</g>
</g>
<!-- Node13&#45;&gt;Node23 -->
<g id="edge49_Node000013_Node000023" class="edge">
<title>Node13&#45;&gt;Node23</title>
<g id="a_edge49_Node000013_Node000023"><a xlink:title=" ">
<path fill="none" stroke="#63b8ff" d="M501.78,-672.02C418.37,-657.72 256,-623.23 256,-571.5 256,-571.5 256,-571.5 256,-514.5 256,-453.1 280.45,-436.03 327,-396 342.58,-382.61 361.74,-369.44 376.39,-359.98"/>
<polygon fill="#63b8ff" stroke="#63b8ff" points="378.28,-362.92 384.84,-354.6 374.53,-357.01 378.28,-362.92"/>
</a>
</g>
</g>
<!-- Node24 -->
<g id="Node000024" class="node">
<title>Node24</title>
<g id="a_Node000024"><a xlink:href="sys_2meta.html" target="_top" xlink:title="Meta interface for getting dynamic type information about objects behind capabilities.">
<polygon fill="white" stroke="#666666" points="521,-635 447,-635 447,-616 521,-616 521,-635"/>
<text text-anchor="middle" x="484" y="-623" font-family="Helvetica,sans-Serif" font-size="10.00">l4/sys/meta</text>
</a>
</g>
</g>
<!-- Node13&#45;&gt;Node24 -->
<g id="edge50_Node000013_Node000024" class="edge">
<title>Node13&#45;&gt;Node24</title>
<g id="a_edge50_Node000013_Node000024"><a xlink:title=" ">
<path fill="none" stroke="#63b8ff" d="M539.4,-670.98C529.54,-663.07 514.65,-651.11 502.78,-641.58"/>
<polygon fill="#63b8ff" stroke="#63b8ff" points="504.79,-638.7 494.8,-635.17 500.4,-644.16 504.79,-638.7"/>
</a>
</g>
</g>
<!-- Node14&#45;&gt;Node4 -->
<g id="edge35_Node000014_Node000004" class="edge">
<title>Node14&#45;&gt;Node4</title>
<g id="a_edge35_Node000014_Node000004"><a xlink:title=" ">
<path fill="none" stroke="#63b8ff" d="M179.39,-505.76C150.95,-467.04 43.78,-308.9 120,-220 149.76,-185.29 281.07,-177.41 355.69,-175.78"/>
<polygon fill="#63b8ff" stroke="#63b8ff" points="355.89,-179.27 365.83,-175.59 355.76,-172.27 355.89,-179.27"/>
</a>
</g>
</g>
<!-- Node15 -->
<g id="Node000015" class="node">
<title>Node15</title>
<g id="a_Node000015"><a xlink:href="kernel__object_8h.html" target="_top" xlink:title="Kernel object system calls.">
<polygon fill="white" stroke="#666666" points="231.5,-415 140.5,-415 140.5,-396 231.5,-396 231.5,-415"/>
<text text-anchor="middle" x="186" y="-403" font-family="Helvetica,sans-Serif" font-size="10.00">kernel_object.h</text>
</a>
</g>
</g>
<!-- Node14&#45;&gt;Node15 -->
<g id="edge22_Node000014_Node000015" class="edge">
<title>Node14&#45;&gt;Node15</title>
<g id="a_edge22_Node000014_Node000015"><a xlink:title=" ">
<path fill="none" stroke="#63b8ff" d="M186,-505.66C186,-488.17 186,-448.8 186,-425.27"/>
<polygon fill="#63b8ff" stroke="#63b8ff" points="189.5,-425.16 186,-415.16 182.5,-425.16 189.5,-425.16"/>
</a>
</g>
</g>
<!-- Node19 -->
<g id="Node000019" class="node">
<title>Node19</title>
<g id="a_Node000019"><a xlink:href="____typeinfo_8h.html" target="_top" xlink:title="Type information handling.">
<polygon fill="white" stroke="#666666" points="361.5,-470 284.5,-470 284.5,-451 361.5,-451 361.5,-470"/>
<text text-anchor="middle" x="323" y="-458" font-family="Helvetica,sans-Serif" font-size="10.00">__typeinfo.h</text>
</a>
</g>
</g>
<!-- Node14&#45;&gt;Node19 -->
<g id="edge36_Node000014_Node000019" class="edge">
<title>Node14&#45;&gt;Node19</title>
<g id="a_edge36_Node000014_Node000019"><a xlink:title=" ">
<path fill="none" stroke="#63b8ff" d="M208.01,-505.98C230.45,-497.3 265.48,-483.75 290.99,-473.88"/>
<polygon fill="#63b8ff" stroke="#63b8ff" points="292.52,-477.04 300.59,-470.17 290,-470.51 292.52,-477.04"/>
</a>
</g>
</g>
<!-- Node15&#45;&gt;Node4 -->
<g id="edge23_Node000015_Node000004" class="edge">
<title>Node15&#45;&gt;Node4</title>
<g id="a_edge23_Node000015_Node000004"><a xlink:title=" ">
<path fill="none" stroke="#63b8ff" d="M223.69,-395.95C246.83,-389.21 275.97,-377.9 297,-360 352.46,-312.79 387.8,-230.56 401.52,-193.97"/>
<polygon fill="#63b8ff" stroke="#63b8ff" points="404.95,-194.77 405.08,-184.17 398.37,-192.38 404.95,-194.77"/>
</a>
</g>
</g>
<!-- Node15&#45;&gt;Node6 -->
<g id="edge24_Node000015_Node000006" class="edge">
<title>Node15&#45;&gt;Node6</title>
<g id="a_edge24_Node000015_Node000006"><a xlink:title=" ">
<path fill="none" stroke="#63b8ff" d="M163.19,-395.86C113.53,-375.39 0,-318.94 0,-230.5 0,-230.5 0,-230.5 0,-173.5 0,-95.71 107.03,-73.7 177.24,-67.63"/>
<polygon fill="#63b8ff" stroke="#63b8ff" points="177.62,-71.11 187.32,-66.84 177.08,-64.13 177.62,-71.11"/>
</a>
</g>
</g>
<!-- Node16 -->
<g id="Node000016" class="node">
<title>Node16</title>
<g id="a_Node000016"><a xlink:href="l4_2sys_2utcb_8h.html" target="_top" xlink:title="UTCB definitions.">
<polygon fill="white" stroke="#666666" points="333,-239 255,-239 255,-220 333,-220 333,-239"/>
<text text-anchor="middle" x="294" y="-227" font-family="Helvetica,sans-Serif" font-size="10.00">l4/sys/utcb.h</text>
</a>
</g>
</g>
<!-- Node15&#45;&gt;Node16 -->
<g id="edge25_Node000015_Node000016" class="edge">
<title>Node15&#45;&gt;Node16</title>
<g id="a_edge25_Node000015_Node000016"><a xlink:title=" ">
<path fill="none" stroke="#63b8ff" d="M219.89,-395.99C239.09,-389.38 261.83,-378.19 275,-360 299.01,-326.82 298.63,-276.16 296.3,-249.09"/>
<polygon fill="#63b8ff" stroke="#63b8ff" points="299.77,-248.63 295.25,-239.05 292.81,-249.36 299.77,-248.63"/>
</a>
</g>
</g>
<!-- Node17 -->
<g id="Node000017" class="node">
<title>Node17</title>
<g id="a_Node000017"><a xlink:href="____kernel__object__impl_8h.html" target="_top" xlink:title="Low&#45;level kernel debugger functions.">
<polygon fill="white" stroke="#666666" points="266,-360 142,-360 142,-330 266,-330 266,-360"/>
<text text-anchor="start" x="150" y="-348" font-family="Helvetica,sans-Serif" font-size="10.00">l4/sys/__kernel_object</text>
<text text-anchor="middle" x="204" y="-337" font-family="Helvetica,sans-Serif" font-size="10.00">_impl.h</text>
</a>
</g>
</g>
<!-- Node15&#45;&gt;Node17 -->
<g id="edge29_Node000015_Node000017" class="edge">
<title>Node15&#45;&gt;Node17</title>
<g id="a_edge29_Node000015_Node000017"><a xlink:title=" ">
<path fill="none" stroke="#63b8ff" d="M188.66,-395.87C190.76,-389.03 193.8,-379.14 196.63,-369.97"/>
<polygon fill="#63b8ff" stroke="#63b8ff" points="200.06,-370.7 199.66,-360.11 193.37,-368.64 200.06,-370.7"/>
</a>
</g>
</g>
<!-- Node18 -->
<g id="Node000018" class="node">
<title>Node18</title>
<g id="a_Node000018"><a xlink:href="l4_2sys_2ipc_8h.html" target="_top" xlink:title="Common IPC interface.">
<polygon fill="white" stroke="#666666" points="251.5,-294 180.5,-294 180.5,-275 251.5,-275 251.5,-294"/>
<text text-anchor="middle" x="216" y="-282" font-family="Helvetica,sans-Serif" font-size="10.00">l4/sys/ipc.h</text>
</a>
</g>
</g>
<!-- Node15&#45;&gt;Node18 -->
<g id="edge34_Node000015_Node000018" class="edge">
<title>Node15&#45;&gt;Node18</title>
<g id="a_edge34_Node000015_Node000018"><a xlink:title=" ">
<path fill="none" stroke="#63b8ff" d="M169.42,-395.87C156.83,-388.3 140.46,-376.01 133,-360 127.37,-347.92 126.15,-341.44 133,-330 141.97,-315.01 157.91,-304.78 173.43,-297.95"/>
<polygon fill="#63b8ff" stroke="#63b8ff" points="175,-301.1 182.98,-294.13 172.4,-294.6 175,-301.1"/>
</a>
</g>
</g>
<!-- Node16&#45;&gt;Node4 -->
<g id="edge26_Node000016_Node000004" class="edge">
<title>Node16&#45;&gt;Node4</title>
<g id="a_edge26_Node000016_Node000004"><a xlink:title=" ">
<path fill="none" stroke="#63b8ff" d="M312.32,-219.98C330.66,-211.46 359.11,-198.23 380.23,-188.41"/>
<polygon fill="#63b8ff" stroke="#63b8ff" points="381.76,-191.56 389.35,-184.17 378.81,-185.21 381.76,-191.56"/>
</a>
</g>
</g>
<!-- Node16&#45;&gt;Node5 -->
<g id="edge28_Node000016_Node000005" class="edge">
<title>Node16&#45;&gt;Node5</title>
<g id="a_edge28_Node000016_Node000005"><a xlink:title=" ">
<path fill="none" stroke="#63b8ff" d="M292.42,-219.92C288.98,-198.21 283.29,-140.68 313,-110 337.41,-84.8 433.37,-73.35 493.36,-68.57"/>
<polygon fill="#63b8ff" stroke="#63b8ff" points="493.69,-72.06 503.39,-67.81 493.16,-65.08 493.69,-72.06"/>
</a>
</g>
</g>
<!-- Node16&#45;&gt;Node6 -->
<g id="edge27_Node000016_Node000006" class="edge">
<title>Node16&#45;&gt;Node6</title>
<g id="a_edge27_Node000016_Node000006"><a xlink:title=" ">
<path fill="none" stroke="#63b8ff" d="M290.94,-219.74C281.97,-194.09 255.63,-118.78 243.39,-83.78"/>
<polygon fill="#63b8ff" stroke="#63b8ff" points="246.68,-82.59 240.08,-74.31 240.08,-84.9 246.68,-82.59"/>
</a>
</g>
</g>
<!-- Node17&#45;&gt;Node18 -->
<g id="edge30_Node000017_Node000018" class="edge">
<title>Node17&#45;&gt;Node18</title>
<g id="a_edge30_Node000017_Node000018"><a xlink:title=" ">
<path fill="none" stroke="#63b8ff" d="M206.9,-329.84C208.49,-322.13 210.46,-312.49 212.17,-304.17"/>
<polygon fill="#63b8ff" stroke="#63b8ff" points="215.62,-304.77 214.2,-294.27 208.76,-303.36 215.62,-304.77"/>
</a>
</g>
</g>
<!-- Node18&#45;&gt;Node4 -->
<g id="edge31_Node000018_Node000004" class="edge">
<title>Node18&#45;&gt;Node4</title>
<g id="a_edge31_Node000018_Node000004"><a xlink:title=" ">
<path fill="none" stroke="#63b8ff" d="M217.71,-274.68C220.84,-260.92 228.82,-234.43 246,-220 276.79,-194.13 321.41,-183.22 356.03,-178.66"/>
<polygon fill="#63b8ff" stroke="#63b8ff" points="356.45,-182.13 365.97,-177.48 355.63,-175.18 356.45,-182.13"/>
</a>
</g>
</g>
<!-- Node18&#45;&gt;Node12 -->
<g id="edge33_Node000018_Node000012" class="edge">
<title>Node18&#45;&gt;Node12</title>
<g id="a_edge33_Node000018_Node000012"><a xlink:title=" ">
<path fill="none" stroke="#63b8ff" d="M207.41,-274.75C199.84,-267.03 188.62,-255.6 179.49,-246.28"/>
<polygon fill="#63b8ff" stroke="#63b8ff" points="181.93,-243.78 172.43,-239.09 176.93,-248.68 181.93,-243.78"/>
</a>
</g>
</g>
<!-- Node18&#45;&gt;Node16 -->
<g id="edge32_Node000018_Node000016" class="edge">
<title>Node18&#45;&gt;Node16</title>
<g id="a_edge32_Node000018_Node000016"><a xlink:title=" ">
<path fill="none" stroke="#63b8ff" d="M228.53,-274.98C240.4,-266.92 258.46,-254.65 272.61,-245.03"/>
<polygon fill="#63b8ff" stroke="#63b8ff" points="274.94,-247.69 281.24,-239.17 271,-241.9 274.94,-247.69"/>
</a>
</g>
</g>
<!-- Node20 -->
<g id="Node000020" class="node">
<title>Node20</title>
<g id="a_Node000020"><a xlink:href="types.html" target="_top" xlink:title=" ">
<polygon fill="white" stroke="#666666" points="680,-354.5 616,-354.5 616,-335.5 680,-335.5 680,-354.5"/>
<text text-anchor="middle" x="648" y="-342.5" font-family="Helvetica,sans-Serif" font-size="10.00">cxx/types</text>
</a>
</g>
</g>
<!-- Node19&#45;&gt;Node20 -->
<g id="edge37_Node000019_Node000020" class="edge">
<title>Node19&#45;&gt;Node20</title>
<g id="a_edge37_Node000019_Node000020"><a xlink:title=" ">
<path fill="none" stroke="#63b8ff" d="M346.84,-450.92C370.09,-442.38 406.32,-428.62 437,-415 454.26,-407.34 457.4,-402.83 475,-396 529.7,-374.79 545.71,-376.54 602,-360 604.78,-359.18 607.65,-358.33 610.53,-357.47"/>
<polygon fill="#63b8ff" stroke="#63b8ff" points="611.73,-360.76 620.3,-354.53 609.71,-354.06 611.73,-360.76"/>
</a>
</g>
</g>
<!-- Node21 -->
<g id="Node000021" class="node">
<title>Node21</title>
<g id="a_Node000021"><a xlink:href="ipc__basics_source.html" target="_top" xlink:title=" ">
<polygon fill="white" stroke="#666666" points="571.5,-415 484.5,-415 484.5,-396 571.5,-396 571.5,-415"/>
<text text-anchor="middle" x="528" y="-403" font-family="Helvetica,sans-Serif" font-size="10.00">cxx/ipc_basics</text>
</a>
</g>
</g>
<!-- Node19&#45;&gt;Node21 -->
<g id="edge38_Node000019_Node000021" class="edge">
<title>Node19&#45;&gt;Node21</title>
<g id="a_edge38_Node000019_Node000021"><a xlink:title=" ">
<path fill="none" stroke="#63b8ff" d="M355.94,-450.98C390.95,-441.93 446.47,-427.58 484.93,-417.64"/>
<polygon fill="#63b8ff" stroke="#63b8ff" points="486,-420.97 494.81,-415.08 484.25,-414.2 486,-420.97"/>
</a>
</g>
</g>
<!-- Node22 -->
<g id="Node000022" class="node">
<title>Node22</title>
<g id="a_Node000022"><a xlink:href="capability_8h_source.html" target="_top" xlink:title=" ">
<polygon fill="white" stroke="#666666" points="428,-415 336,-415 336,-396 428,-396 428,-415"/>
<text text-anchor="middle" x="382" y="-403" font-family="Helvetica,sans-Serif" font-size="10.00">cxx/capability.h</text>
</a>
</g>
</g>
<!-- Node19&#45;&gt;Node22 -->
<g id="edge42_Node000019_Node000022" class="edge">
<title>Node19&#45;&gt;Node22</title>
<g id="a_edge42_Node000019_Node000022"><a xlink:title=" ">
<path fill="none" stroke="#63b8ff" d="M332.48,-450.98C341.2,-443.15 354.34,-431.34 364.9,-421.86"/>
<polygon fill="#63b8ff" stroke="#63b8ff" points="367.25,-424.46 372.35,-415.17 362.57,-419.25 367.25,-424.46"/>
</a>
</g>
</g>
<!-- Node21&#45;&gt;Node12 -->
<g id="edge41_Node000021_Node000012" class="edge">
<title>Node21&#45;&gt;Node12</title>
<g id="a_edge41_Node000021_Node000012"><a xlink:title=" ">
<path fill="none" stroke="#63b8ff" d="M520.83,-395.92C507.66,-380.68 478.12,-348.69 447,-330 369.5,-283.46 266.99,-254.29 209.02,-240.33"/>
<polygon fill="#63b8ff" stroke="#63b8ff" points="209.61,-236.87 199.07,-237.98 208,-243.68 209.61,-236.87"/>
</a>
</g>
</g>
<!-- Node21&#45;&gt;Node16 -->
<g id="edge40_Node000021_Node000016" class="edge">
<title>Node21&#45;&gt;Node16</title>
<g id="a_edge40_Node000021_Node000016"><a xlink:title=" ">
<path fill="none" stroke="#63b8ff" d="M530.45,-395.92C536.4,-373.03 548.98,-309.91 518,-275 495.41,-249.54 402.36,-238.22 343.53,-233.52"/>
<polygon fill="#63b8ff" stroke="#63b8ff" points="343.56,-230.01 333.33,-232.74 343.03,-236.99 343.56,-230.01"/>
</a>
</g>
</g>
<!-- Node21&#45;&gt;Node20 -->
<g id="edge39_Node000021_Node000020" class="edge">
<title>Node21&#45;&gt;Node20</title>
<g id="a_edge39_Node000021_Node000020"><a xlink:title=" ">
<path fill="none" stroke="#63b8ff" d="M545.45,-395.99C565.36,-386.29 598.14,-370.31 621.27,-359.03"/>
<polygon fill="#63b8ff" stroke="#63b8ff" points="623.07,-362.04 630.53,-354.52 620.01,-355.75 623.07,-362.04"/>
</a>
</g>
</g>
<!-- Node22&#45;&gt;Node4 -->
<g id="edge44_Node000022_Node000004" class="edge">
<title>Node22&#45;&gt;Node4</title>
<g id="a_edge44_Node000022_Node000004"><a xlink:title=" ">
<path fill="none" stroke="#63b8ff" d="M404.12,-395.95C419.2,-388.82 438.01,-377.06 447,-360 476.6,-303.86 439.01,-226.94 419.01,-192.91"/>
<polygon fill="#63b8ff" stroke="#63b8ff" points="421.87,-190.87 413.68,-184.15 415.89,-194.51 421.87,-190.87"/>
</a>
</g>
</g>
<!-- Node22&#45;&gt;Node8 -->
<g id="edge43_Node000022_Node000008" class="edge">
<title>Node22&#45;&gt;Node8</title>
<g id="a_edge43_Node000022_Node000008"><a xlink:title=" ">
<path fill="none" stroke="#63b8ff" d="M403.84,-395.9C421.72,-388.2 447.07,-375.7 466,-360 549.17,-291.02 620.63,-180.68 646.58,-138.07"/>
<polygon fill="#63b8ff" stroke="#63b8ff" points="649.64,-139.78 651.8,-129.4 643.65,-136.17 649.64,-139.78"/>
</a>
</g>
</g>
<!-- Node22&#45;&gt;Node23 -->
<g id="edge45_Node000022_Node000023" class="edge">
<title>Node22&#45;&gt;Node23</title>
<g id="a_edge45_Node000022_Node000023"><a xlink:title=" ">
<path fill="none" stroke="#63b8ff" d="M384.51,-395.87C386.89,-387.66 390.56,-375.04 393.61,-364.55"/>
<polygon fill="#63b8ff" stroke="#63b8ff" points="397.05,-365.25 396.48,-354.67 390.33,-363.29 397.05,-365.25"/>
</a>
</g>
</g>
<!-- Node23&#45;&gt;Node4 -->
<g id="edge46_Node000023_Node000004" class="edge">
<title>Node23&#45;&gt;Node4</title>
<g id="a_edge46_Node000023_Node000004"><a xlink:title=" ">
<path fill="none" stroke="#63b8ff" d="M399.46,-335.41C400.85,-309.39 405.04,-230.97 406.98,-194.51"/>
<polygon fill="#63b8ff" stroke="#63b8ff" points="410.49,-194.44 407.53,-184.27 403.5,-194.07 410.49,-194.44"/>
</a>
</g>
</g>
<!-- Node23&#45;&gt;Node16 -->
<g id="edge47_Node000023_Node000016" class="edge">
<title>Node23&#45;&gt;Node16</title>
<g id="a_edge47_Node000023_Node000016"><a xlink:title=" ">
<path fill="none" stroke="#63b8ff" d="M391.11,-335.47C373.63,-316.57 331.4,-270.93 308.82,-246.52"/>
<polygon fill="#63b8ff" stroke="#63b8ff" points="311.34,-244.09 301.98,-239.13 306.21,-248.85 311.34,-244.09"/>
</a>
</g>
</g>
<!-- Node23&#45;&gt;Node18 -->
<g id="edge48_Node000023_Node000018" class="edge">
<title>Node23&#45;&gt;Node18</title>
<g id="a_edge48_Node000023_Node000018"><a xlink:title=" ">
<path fill="none" stroke="#63b8ff" d="M372.39,-335.49C340.81,-325.4 287.99,-308.51 252.58,-297.19"/>
<polygon fill="#63b8ff" stroke="#63b8ff" points="253.23,-293.73 242.64,-294.02 251.1,-300.4 253.23,-293.73"/>
</a>
</g>
</g>
<!-- Node24&#45;&gt;Node14 -->
<g id="edge51_Node000024_Node000014" class="edge">
<title>Node24&#45;&gt;Node14</title>
<g id="a_edge51_Node000024_Node000014"><a xlink:title=" ">
<path fill="none" stroke="#63b8ff" d="M460.37,-615.94C407.55,-596.79 279.84,-550.51 219.13,-528.51"/>
<polygon fill="#63b8ff" stroke="#63b8ff" points="220.23,-525.18 209.64,-525.07 217.84,-531.76 220.23,-525.18"/>
</a>
</g>
</g>
<!-- Node25 -->
<g id="Node000025" class="node">
<title>Node25</title>
<g id="a_Node000025"><a xlink:href="ipc__iface.html" target="_top" xlink:title="Interface Definition Language.">
<polygon fill="white" stroke="#666666" points="400,-525 320,-525 320,-506 400,-506 400,-525"/>
<text text-anchor="middle" x="360" y="-513" font-family="Helvetica,sans-Serif" font-size="10.00">cxx/ipc_iface</text>
</a>
</g>
</g>
<!-- Node24&#45;&gt;Node25 -->
<g id="edge52_Node000024_Node000025" class="edge">
<title>Node24&#45;&gt;Node25</title>
<g id="a_edge52_Node000024_Node000025"><a xlink:title=" ">
<path fill="none" stroke="#63b8ff" d="M473.85,-615.66C452.77,-597.3 403.99,-554.81 377.64,-531.87"/>
<polygon fill="#63b8ff" stroke="#63b8ff" points="379.78,-529.09 369.94,-525.16 375.18,-534.37 379.78,-529.09"/>
</a>
</g>
</g>
<!-- Node27 -->
<g id="Node000027" class="node">
<title>Node27</title>
<g id="a_Node000027"><a xlink:href="ipc__string_source.html" target="_top" xlink:title=" ">
<polygon fill="white" stroke="#666666" points="582,-580 498,-580 498,-561 582,-561 582,-580"/>
<text text-anchor="middle" x="540" y="-568" font-family="Helvetica,sans-Serif" font-size="10.00">cxx/ipc_string</text>
</a>
</g>
</g>
<!-- Node24&#45;&gt;Node27 -->
<g id="edge59_Node000024_Node000027" class="edge">
<title>Node24&#45;&gt;Node27</title>
<g id="a_edge59_Node000024_Node000027"><a xlink:title=" ">
<path fill="none" stroke="#63b8ff" d="M493,-615.98C501.19,-608.23 513.51,-596.58 523.47,-587.14"/>
<polygon fill="#63b8ff" stroke="#63b8ff" points="525.98,-589.59 530.84,-580.17 521.17,-584.5 525.98,-589.59"/>
</a>
</g>
</g>
<!-- Node25&#45;&gt;Node19 -->
<g id="edge58_Node000025_Node000019" class="edge">
<title>Node25&#45;&gt;Node19</title>
<g id="a_edge58_Node000025_Node000019"><a xlink:title=" ">
<path fill="none" stroke="#63b8ff" d="M353.89,-505.75C348.72,-498.34 341.15,-487.5 334.81,-478.41"/>
<polygon fill="#63b8ff" stroke="#63b8ff" points="337.59,-476.29 329,-470.09 331.85,-480.29 337.59,-476.29"/>
</a>
</g>
</g>
<!-- Node25&#45;&gt;Node21 -->
<g id="edge53_Node000025_Node000021" class="edge">
<title>Node25&#45;&gt;Node21</title>
<g id="a_edge53_Node000025_Node000021"><a xlink:title=" ">
<path fill="none" stroke="#63b8ff" d="M365.27,-505.92C373.91,-492.5 392.31,-466.45 414,-451 435.03,-436.02 461.78,-425.23 484.08,-418.03"/>
<polygon fill="#63b8ff" stroke="#63b8ff" points="485.14,-421.37 493.66,-415.07 483.07,-414.68 485.14,-421.37"/>
</a>
</g>
</g>
<!-- Node26 -->
<g id="Node000026" class="node">
<title>Node26</title>
<g id="a_Node000026"><a xlink:href="ipc__types.html" target="_top" xlink:title=" ">
<polygon fill="white" stroke="#666666" points="571.5,-470 456.5,-470 456.5,-451 571.5,-451 571.5,-470"/>
<text text-anchor="middle" x="514" y="-458" font-family="Helvetica,sans-Serif" font-size="10.00">l4/sys/cxx/ipc_types</text>
</a>
</g>
</g>
<!-- Node25&#45;&gt;Node26 -->
<g id="edge54_Node000025_Node000026" class="edge">
<title>Node25&#45;&gt;Node26</title>
<g id="a_edge54_Node000025_Node000026"><a xlink:title=" ">
<path fill="none" stroke="#63b8ff" d="M384.74,-505.98C410.37,-497.16 450.63,-483.31 479.41,-473.41"/>
<polygon fill="#63b8ff" stroke="#63b8ff" points="480.75,-476.65 489.06,-470.08 478.47,-470.03 480.75,-476.65"/>
</a>
</g>
</g>
<!-- Node26&#45;&gt;Node20 -->
<g id="edge56_Node000026_Node000020" class="edge">
<title>Node26&#45;&gt;Node20</title>
<g id="a_edge56_Node000026_Node000020"><a xlink:title=" ">
<path fill="none" stroke="#63b8ff" d="M528.49,-450.9C542.27,-442.46 563.31,-428.86 580,-415 599.9,-398.47 620.44,-376.9 633.66,-362.31"/>
<polygon fill="#63b8ff" stroke="#63b8ff" points="636.48,-364.4 640.54,-354.61 631.26,-359.73 636.48,-364.4"/>
</a>
</g>
</g>
<!-- Node26&#45;&gt;Node21 -->
<g id="edge57_Node000026_Node000021" class="edge">
<title>Node26&#45;&gt;Node21</title>
<g id="a_edge57_Node000026_Node000021"><a xlink:title=" ">
<path fill="none" stroke="#63b8ff" d="M516.31,-450.75C518.17,-443.72 520.84,-433.62 523.15,-424.84"/>
<polygon fill="#63b8ff" stroke="#63b8ff" points="526.56,-425.65 525.73,-415.09 519.79,-423.86 526.56,-425.65"/>
</a>
</g>
</g>
<!-- Node26&#45;&gt;Node22 -->
<g id="edge55_Node000026_Node000022" class="edge">
<title>Node26&#45;&gt;Node22</title>
<g id="a_edge55_Node000026_Node000022"><a xlink:title=" ">
<path fill="none" stroke="#63b8ff" d="M492.79,-450.98C471.27,-442.34 437.72,-428.87 413.17,-419.02"/>
<polygon fill="#63b8ff" stroke="#63b8ff" points="414.18,-415.65 403.59,-415.17 411.57,-422.14 414.18,-415.65"/>
</a>
</g>
</g>
<!-- Node27&#45;&gt;Node20 -->
<g id="edge60_Node000027_Node000020" class="edge">
<title>Node27&#45;&gt;Node20</title>
<g id="a_edge60_Node000027_Node000020"><a xlink:title=" ">
<path fill="none" stroke="#63b8ff" d="M554.9,-560.99C567.59,-553.09 585.54,-540.26 597,-525 628.62,-482.9 628.44,-466.14 641,-415 645.08,-398.37 646.79,-378.93 647.5,-364.93"/>
<polygon fill="#63b8ff" stroke="#63b8ff" points="651.01,-364.75 647.89,-354.63 644.01,-364.49 651.01,-364.75"/>
</a>
</g>
</g>
<!-- Node27&#45;&gt;Node21 -->
<g id="edge61_Node000027_Node000021" class="edge">
<title>Node27&#45;&gt;Node21</title>
<g id="a_edge61_Node000027_Node000021"><a xlink:title=" ">
<path fill="none" stroke="#63b8ff" d="M527.25,-560.92C505.82,-545.63 463.32,-511.35 447,-470 437.58,-446.12 464.23,-429.05 489.45,-418.66"/>
<polygon fill="#63b8ff" stroke="#63b8ff" points="490.88,-421.86 498.96,-415.01 488.37,-415.32 490.88,-421.86"/>
</a>
</g>
</g>
<!-- Node28 -->
<g id="Node000028" class="node">
<title>Node28</title>
<g id="a_Node000028"><a xlink:href="ipc__array_source.html" target="_top" xlink:title=" ">
<polygon fill="white" stroke="#666666" points="588,-525 526,-525 526,-506 588,-506 588,-525"/>
<text text-anchor="middle" x="557" y="-513" font-family="Helvetica,sans-Serif" font-size="10.00">ipc_array</text>
</a>
</g>
</g>
<!-- Node27&#45;&gt;Node28 -->
<g id="edge62_Node000027_Node000028" class="edge">
<title>Node27&#45;&gt;Node28</title>
<g id="a_edge62_Node000027_Node000028"><a xlink:title=" ">
<path fill="none" stroke="#63b8ff" d="M542.81,-560.75C545.06,-553.72 548.3,-543.62 551.12,-534.84"/>
<polygon fill="#63b8ff" stroke="#63b8ff" points="554.52,-535.68 554.25,-525.09 547.86,-533.54 554.52,-535.68"/>
</a>
</g>
</g>
<!-- Node28&#45;&gt;Node20 -->
<g id="edge63_Node000028_Node000020" class="edge">
<title>Node28&#45;&gt;Node20</title>
<g id="a_edge63_Node000028_Node000020"><a xlink:title=" ">
<path fill="none" stroke="#63b8ff" d="M565.99,-505.98C574.56,-497.49 587.4,-483.77 596,-470 617.87,-434.99 634.34,-389.18 642.43,-364.2"/>
<polygon fill="#63b8ff" stroke="#63b8ff" points="645.8,-365.17 645.46,-354.58 639.12,-363.06 645.8,-365.17"/>
</a>
</g>
</g>
<!-- Node28&#45;&gt;Node21 -->
<g id="edge64_Node000028_Node000021" class="edge">
<title>Node28&#45;&gt;Node21</title>
<g id="a_edge64_Node000028_Node000021"><a xlink:title=" ">
<path fill="none" stroke="#63b8ff" d="M564.54,-505.69C574.2,-493.25 588.73,-469.96 580,-451 574.25,-438.52 563.09,-428.24 552.58,-420.71"/>
<polygon fill="#63b8ff" stroke="#63b8ff" points="554.3,-417.65 544.03,-415.05 550.43,-423.49 554.3,-417.65"/>
</a>
</g>
</g>
<!-- Node28&#45;&gt;Node26 -->
<g id="edge65_Node000028_Node000026" class="edge">
<title>Node28&#45;&gt;Node26</title>
<g id="a_edge65_Node000028_Node000026"><a xlink:title=" ">
<path fill="none" stroke="#63b8ff" d="M549.9,-505.75C543.83,-498.26 534.91,-487.28 527.49,-478.13"/>
<polygon fill="#63b8ff" stroke="#63b8ff" points="529.99,-475.65 520.97,-470.09 524.55,-480.06 529.99,-475.65"/>
</a>
</g>
</g>
<!-- Node30 -->
<g id="Node000030" class="node">
<title>Node30</title>
<g id="a_Node000030"><a xlink:title=" ">
<polygon fill="#e0e0e0" stroke="#999999" points="811.5,-635 740.5,-635 740.5,-616 811.5,-616 811.5,-635"/>
<text text-anchor="middle" x="776" y="-623" font-family="Helvetica,sans-Serif" font-size="10.00">sys/cdefs.h</text>
</a>
</g>
</g>
<!-- Node29&#45;&gt;Node30 -->
<g id="edge67_Node000029_Node000030" class="edge">
<title>Node29&#45;&gt;Node30</title>
<g id="a_edge67_Node000029_Node000030"><a xlink:title=" ">
<path fill="none" stroke="#63b8ff" d="M731.75,-670.75C739.47,-663.03 750.9,-651.6 760.22,-642.28"/>
<polygon fill="#63b8ff" stroke="#63b8ff" points="762.81,-644.64 767.41,-635.09 757.86,-639.69 762.81,-644.64"/>
</a>
</g>
</g>
<!-- Node31&#45;&gt;Node11 -->
<g id="edge69_Node000031_Node000011" class="edge">
<title>Node31&#45;&gt;Node11</title>
<g id="a_edge69_Node000031_Node000011"><a xlink:title=" ">
<path fill="none" stroke="#63b8ff" d="M919.34,-725.8C922.55,-716.94 927.18,-702.75 929,-690 931.13,-675.13 930.71,-658.09 929.85,-645.41"/>
<polygon fill="#63b8ff" stroke="#63b8ff" points="933.31,-644.86 929,-635.18 926.34,-645.44 933.31,-644.86"/>
</a>
</g>
</g>
</g>
</svg>
