<?xml version="1.0" encoding="UTF-8" standalone="no"?>
<!DOCTYPE svg PUBLIC "-//W3C//DTD SVG 1.1//EN"
 "http://www.w3.org/Graphics/SVG/1.1/DTD/svg11.dtd">
<!-- Generated by graphviz version 2.43.0 (0)
 -->
<!-- Title: l4/cxx/string.h Pages: 1 -->
<svg width="238pt" height="225pt"
 viewBox="0.00 0.00 237.50 225.00" xmlns="http://www.w3.org/2000/svg" xmlns:xlink="http://www.w3.org/1999/xlink">
<g id="graph0" class="graph" transform="scale(1 1) rotate(0) translate(4 221)">
<title>l4/cxx/string.h</title>
<!-- Node1 -->
<g id="Node000001" class="node">
<title>Node1</title>
<g id="a_Node000001"><a xlink:title="String.">
<polygon fill="#999999" stroke="#666666" points="153.5,-217 67.5,-217 67.5,-198 153.5,-198 153.5,-217"/>
<text text-anchor="middle" x="110.5" y="-205" font-family="Helvetica,sans-Serif" font-size="10.00">l4/cxx/string.h</text>
</a>
</g>
</g>
<!-- Node2 -->
<g id="Node000002" class="node">
<title>Node2</title>
<g id="a_Node000002"><a xlink:href="virtio_source.html" target="_top" xlink:title=" ">
<polygon fill="white" stroke="#666666" points="97,-162 0,-162 0,-132 97,-132 97,-162"/>
<text text-anchor="start" x="8" y="-150" font-family="Helvetica,sans-Serif" font-size="10.00">l4/l4virtio/server</text>
<text text-anchor="middle" x="48.5" y="-139" font-family="Helvetica,sans-Serif" font-size="10.00">/virtio</text>
</a>
</g>
</g>
<!-- Node1&#45;&gt;Node2 -->
<g id="edge1_Node000001_Node000002" class="edge">
<title>Node1&#45;&gt;Node2</title>
<g id="a_edge1_Node000001_Node000002"><a xlink:title=" ">
<path fill="none" stroke="#63b8ff" d="M94.04,-190.97C84.54,-182.01 72.69,-170.82 63.46,-162.11"/>
<polygon fill="#63b8ff" stroke="#63b8ff" points="91.68,-193.55 101.35,-197.87 96.48,-188.46 91.68,-193.55"/>
</a>
</g>
</g>
<!-- Node5 -->
<g id="Node000005" class="node">
<title>Node5</title>
<g id="a_Node000005"><a xlink:href="uart__of_8h_source.html" target="_top" xlink:title=" ">
<polygon fill="white" stroke="#666666" points="229.5,-162 115.5,-162 115.5,-132 229.5,-132 229.5,-162"/>
<text text-anchor="start" x="123.5" y="-150" font-family="Helvetica,sans-Serif" font-size="10.00">pkg/drivers&#45;frst/uart</text>
<text text-anchor="middle" x="172.5" y="-139" font-family="Helvetica,sans-Serif" font-size="10.00">/include/uart_of.h</text>
</a>
</g>
</g>
<!-- Node1&#45;&gt;Node5 -->
<g id="edge4_Node000001_Node000005" class="edge">
<title>Node1&#45;&gt;Node5</title>
<g id="a_edge4_Node000001_Node000005"><a xlink:title=" ">
<path fill="none" stroke="#63b8ff" d="M126.96,-190.97C136.46,-182.01 148.31,-170.82 157.54,-162.11"/>
<polygon fill="#63b8ff" stroke="#63b8ff" points="124.52,-188.46 119.65,-197.87 129.32,-193.55 124.52,-188.46"/>
</a>
</g>
</g>
<!-- Node3 -->
<g id="Node000003" class="node">
<title>Node3</title>
<g id="a_Node000003"><a xlink:href="server_2l4virtio_source.html" target="_top" xlink:title=" ">
<polygon fill="white" stroke="#666666" points="97,-96 0,-96 0,-66 97,-66 97,-96"/>
<text text-anchor="start" x="8" y="-84" font-family="Helvetica,sans-Serif" font-size="10.00">l4/l4virtio/server</text>
<text text-anchor="middle" x="48.5" y="-73" font-family="Helvetica,sans-Serif" font-size="10.00">/l4virtio</text>
</a>
</g>
</g>
<!-- Node2&#45;&gt;Node3 -->
<g id="edge2_Node000002_Node000003" class="edge">
<title>Node2&#45;&gt;Node3</title>
<g id="a_edge2_Node000002_Node000003"><a xlink:title=" ">
<path fill="none" stroke="#63b8ff" d="M48.5,-121.54C48.5,-112.96 48.5,-103.61 48.5,-96.16"/>
<polygon fill="#63b8ff" stroke="#63b8ff" points="45,-121.8 48.5,-131.8 52,-121.8 45,-121.8"/>
</a>
</g>
</g>
<!-- Node4 -->
<g id="Node000004" class="node">
<title>Node4</title>
<g id="a_Node000004"><a xlink:href="server_2virtio-block_source.html" target="_top" xlink:title=" ">
<polygon fill="white" stroke="#666666" points="97,-30 0,-30 0,0 97,0 97,-30"/>
<text text-anchor="start" x="8" y="-18" font-family="Helvetica,sans-Serif" font-size="10.00">l4/l4virtio/server</text>
<text text-anchor="middle" x="48.5" y="-7" font-family="Helvetica,sans-Serif" font-size="10.00">/virtio&#45;block</text>
</a>
</g>
</g>
<!-- Node3&#45;&gt;Node4 -->
<g id="edge3_Node000003_Node000004" class="edge">
<title>Node3&#45;&gt;Node4</title>
<g id="a_edge3_Node000003_Node000004"><a xlink:title=" ">
<path fill="none" stroke="#63b8ff" d="M48.5,-55.54C48.5,-46.96 48.5,-37.61 48.5,-30.16"/>
<polygon fill="#63b8ff" stroke="#63b8ff" points="45,-55.8 48.5,-65.8 52,-55.8 45,-55.8"/>
</a>
</g>
</g>
</g>
</svg>
