<?xml version="1.0" encoding="UTF-8" standalone="no"?>
<!DOCTYPE svg PUBLIC "-//W3C//DTD SVG 1.1//EN"
 "http://www.w3.org/Graphics/SVG/1.1/DTD/svg11.dtd">
<!-- Generated by graphviz version 2.43.0 (0)
 -->
<!-- Title: L4::Ipc::Msg::Do_in_items Pages: 1 -->
<svg width="246pt" height="153pt"
 viewBox="0.00 0.00 246.00 153.00" xmlns="http://www.w3.org/2000/svg" xmlns:xlink="http://www.w3.org/1999/xlink">
<g id="graph0" class="graph" transform="scale(1 1) rotate(0) translate(4 149)">
<title>L4::Ipc::Msg::Do_in_items</title>
<!-- Node1 -->
<g id="Node000001" class="node">
<title>Node1</title>
<g id="a_Node000001"><a xlink:title="Marker for Input items.">
<polygon fill="#999999" stroke="transparent" points="166.5,-60 64.5,-60 64.5,0 166.5,0 166.5,-60"/>
<text text-anchor="start" x="69.5" y="-48" font-family="Helvetica,sans-Serif" font-size="10.00">L4::Ipc::Msg::Do_in</text>
<text text-anchor="start" x="98.5" y="-37" font-family="Helvetica,sans-Serif" font-size="10.00">_items</text>
<text text-anchor="start" x="113.5" y="-22" font-family="Helvetica,sans-Serif" font-size="10.00"> </text>
<text text-anchor="start" x="113.5" y="-7" font-family="Helvetica,sans-Serif" font-size="10.00"> </text>
<polygon fill="#666666" stroke="#666666" points="64.5,-32 64.5,-32 166.5,-32 166.5,-32 64.5,-32"/>
<polygon fill="#666666" stroke="#666666" points="64.5,-17 64.5,-17 166.5,-17 166.5,-17 64.5,-17"/>
<polygon fill="none" stroke="#666666" points="64.5,0 64.5,-60 166.5,-60 166.5,0 64.5,0"/>
</a>
</g>
</g>
<!-- Node2 -->
<g id="Node000002" class="node">
<title>Node2</title>
<g id="a_Node000002"><a xlink:href="structL4_1_1Ipc_1_1Msg_1_1Dir__in.html" target="_top" xlink:title="Marker type for input values.">
<polygon fill="white" stroke="transparent" points="103,-145 0,-145 0,-96 103,-96 103,-145"/>
<text text-anchor="start" x="5.5" y="-132.5" font-family="Helvetica,sans-Serif" font-size="10.00">L4::Ipc::Msg::Dir_in</text>
<text text-anchor="start" x="50" y="-117.5" font-family="Helvetica,sans-Serif" font-size="10.00"> </text>
<text text-anchor="start" x="50" y="-102.5" font-family="Helvetica,sans-Serif" font-size="10.00"> </text>
<polygon fill="#666666" stroke="#666666" points="0.5,-127.5 0.5,-127.5 103.5,-127.5 103.5,-127.5 0.5,-127.5"/>
<polygon fill="#666666" stroke="#666666" points="0.5,-112.5 0.5,-112.5 103.5,-112.5 103.5,-112.5 0.5,-112.5"/>
<polygon fill="none" stroke="#666666" points="0,-96 0,-145 103,-145 103,-96 0,-96"/>
</a>
</g>
</g>
<!-- Node2&#45;&gt;Node1 -->
<g id="edge1_Node000001_Node000002" class="edge">
<title>Node2&#45;&gt;Node1</title>
<g id="a_edge1_Node000001_Node000002"><a xlink:title=" ">
<path fill="none" stroke="#63b8ff" d="M74.64,-87.5C81.1,-78.57 88.08,-68.91 94.42,-60.16"/>
<polygon fill="none" stroke="#63b8ff" points="71.67,-85.63 68.65,-95.78 77.35,-89.73 71.67,-85.63"/>
</a>
</g>
</g>
<!-- Node3 -->
<g id="Node000003" class="node">
<title>Node3</title>
<g id="a_Node000003"><a xlink:href="structL4_1_1Ipc_1_1Msg_1_1Cls__item.html" target="_top" xlink:title="Marker type for item values.">
<polygon fill="white" stroke="transparent" points="238,-145 121,-145 121,-96 238,-96 238,-145"/>
<text text-anchor="start" x="126.5" y="-132.5" font-family="Helvetica,sans-Serif" font-size="10.00">L4::Ipc::Msg::Cls_item</text>
<text text-anchor="start" x="178" y="-117.5" font-family="Helvetica,sans-Serif" font-size="10.00"> </text>
<text text-anchor="start" x="178" y="-102.5" font-family="Helvetica,sans-Serif" font-size="10.00"> </text>
<polygon fill="#666666" stroke="#666666" points="121.5,-127.5 121.5,-127.5 238.5,-127.5 238.5,-127.5 121.5,-127.5"/>
<polygon fill="#666666" stroke="#666666" points="121.5,-112.5 121.5,-112.5 238.5,-112.5 238.5,-112.5 121.5,-112.5"/>
<polygon fill="none" stroke="#666666" points="121,-96 121,-145 238,-145 238,-96 121,-96"/>
</a>
</g>
</g>
<!-- Node3&#45;&gt;Node1 -->
<g id="edge2_Node000001_Node000003" class="edge">
<title>Node3&#45;&gt;Node1</title>
<g id="a_edge2_Node000001_Node000003"><a xlink:title=" ">
<path fill="none" stroke="#63b8ff" d="M156.36,-87.5C149.9,-78.57 142.92,-68.91 136.58,-60.16"/>
<polygon fill="none" stroke="#63b8ff" points="153.65,-89.73 162.35,-95.78 159.33,-85.63 153.65,-89.73"/>
</a>
</g>
</g>
</g>
</svg>
