<?xml version="1.0" encoding="UTF-8" standalone="no"?>
<!DOCTYPE svg PUBLIC "-//W3C//DTD SVG 1.1//EN"
 "http://www.w3.org/Graphics/SVG/1.1/DTD/svg11.dtd">
<!-- Generated by graphviz version 2.42.4 (0)
 -->
<!-- Title: L4::Types::Flags_t&lt; DT, T &gt; Pages: 1 -->
<svg width="180pt" height="377pt"
 viewBox="0.00 0.00 179.50 377.00" xmlns="http://www.w3.org/2000/svg" xmlns:xlink="http://www.w3.org/1999/xlink">
<g id="graph0" class="graph" transform="scale(1 1) rotate(0) translate(4 373)">
<title>L4::Types::Flags_t&lt; DT, T &gt;</title>
<!-- Node1 -->
<g id="Node000001" class="node">
<title>Node1</title>
<g id="a_Node000001"><a xlink:title="Template type to define a flags type with bitwise operations.">
<polygon fill="#999999" stroke="transparent" points="111,-75 14,-75 14,0 111,0 111,-75"/>
<text text-anchor="start" x="19.5" y="-62.5" font-family="Helvetica,sans-Serif" font-size="10.00">L4::Types::Flags_t</text>
<text text-anchor="start" x="38.5" y="-51.5" font-family="Helvetica,sans-Serif" font-size="10.00">&lt; DT, T &gt;</text>
<text text-anchor="start" x="26.5" y="-36.5" font-family="Helvetica,sans-Serif" font-size="10.00">+</text>
<text text-anchor="start" x="47.5" y="-36.5" font-family="Helvetica,sans-Serif" font-size="10.00">raw</text>
<text text-anchor="start" x="26.5" y="-21.5" font-family="Helvetica,sans-Serif" font-size="10.00">+</text>
<text text-anchor="start" x="47.5" y="-21.5" font-family="Helvetica,sans-Serif" font-size="10.00">Flags_t()</text>
<text text-anchor="start" x="26.5" y="-6.5" font-family="Helvetica,sans-Serif" font-size="10.00">+</text>
<text text-anchor="start" x="47.5" y="-6.5" font-family="Helvetica,sans-Serif" font-size="10.00">Flags_t()</text>
<polygon fill="#666666" stroke="#666666" points="14.5,-46.5 14.5,-46.5 111.5,-46.5 111.5,-46.5 14.5,-46.5"/>
<polygon fill="#666666" stroke="#666666" points="14.5,-31.5 14.5,-31.5 45.5,-31.5 45.5,-31.5 14.5,-31.5"/>
<polygon fill="#666666" stroke="#666666" points="45.5,-31.5 45.5,-31.5 111.5,-31.5 111.5,-31.5 45.5,-31.5"/>
<polygon fill="none" stroke="#666666" points="14,0 14,-75 111,-75 111,0 14,0"/>
</a>
</g>
</g>
<!-- Node2 -->
<g id="Node000002" class="node">
<title>Node2</title>
<g id="a_Node000002"><a xlink:href="structL4_1_1Types_1_1Flags__ops__t.html" target="_top" xlink:title=" ">
<polygon fill="white" stroke="transparent" points="125,-217 0,-217 0,-112 125,-112 125,-217"/>
<text text-anchor="start" x="5.5" y="-204.5" font-family="Helvetica,sans-Serif" font-size="10.00">L4::Types::Flags_ops</text>
<text text-anchor="start" x="5.5" y="-193.5" font-family="Helvetica,sans-Serif" font-size="10.00">_t&lt; Flags_t&lt; DT, T &gt; &gt;</text>
<text text-anchor="start" x="61" y="-178.5" font-family="Helvetica,sans-Serif" font-size="10.00"> </text>
<text text-anchor="start" x="12" y="-163.5" font-family="Helvetica,sans-Serif" font-size="10.00">+</text>
<text text-anchor="start" x="32.5" y="-163.5" font-family="Helvetica,sans-Serif" font-size="10.00">operator|=()</text>
<text text-anchor="start" x="12" y="-148.5" font-family="Helvetica,sans-Serif" font-size="10.00">+</text>
<text text-anchor="start" x="32.5" y="-148.5" font-family="Helvetica,sans-Serif" font-size="10.00">operator&amp;=()</text>
<text text-anchor="start" x="12" y="-133.5" font-family="Helvetica,sans-Serif" font-size="10.00">+</text>
<text text-anchor="start" x="32.5" y="-133.5" font-family="Helvetica,sans-Serif" font-size="10.00">operator bool()</text>
<text text-anchor="start" x="12" y="-118.5" font-family="Helvetica,sans-Serif" font-size="10.00">+</text>
<text text-anchor="start" x="32.5" y="-118.5" font-family="Helvetica,sans-Serif" font-size="10.00">operator~()</text>
<polygon fill="#666666" stroke="#666666" points="0.5,-188.5 0.5,-188.5 125.5,-188.5 125.5,-188.5 0.5,-188.5"/>
<polygon fill="#666666" stroke="#666666" points="0.5,-173.5 0.5,-173.5 125.5,-173.5 125.5,-173.5 0.5,-173.5"/>
<polygon fill="none" stroke="#666666" points="0,-112 0,-217 125,-217 125,-112 0,-112"/>
</a>
</g>
</g>
<!-- Node2&#45;&gt;Node1 -->
<g id="edge1_Node000001_Node000002" class="edge">
<title>Node2&#45;&gt;Node1</title>
<g id="a_edge1_Node000001_Node000002"><a xlink:title=" ">
<path fill="none" stroke="#63b8ff" d="M62.5,-101.69C62.5,-92.58 62.5,-83.44 62.5,-75.06"/>
<polygon fill="none" stroke="#63b8ff" points="59,-101.94 62.5,-111.94 66,-101.94 59,-101.94"/>
</a>
</g>
</g>
<!-- Node3 -->
<g id="Node000003" class="node">
<title>Node3</title>
<g id="a_Node000003"><a xlink:href="structL4_1_1Types_1_1Flags__ops__t.html" target="_top" xlink:title="Mixin class to define a set of friend bitwise operators on DT.">
<polygon fill="white" stroke="transparent" points="117.5,-369 7.5,-369 7.5,-264 117.5,-264 117.5,-369"/>
<text text-anchor="start" x="12.5" y="-356.5" font-family="Helvetica,sans-Serif" font-size="10.00">L4::Types::Flags_ops</text>
<text text-anchor="start" x="39.5" y="-345.5" font-family="Helvetica,sans-Serif" font-size="10.00">_t&lt; DT &gt;</text>
<text text-anchor="start" x="60.5" y="-330.5" font-family="Helvetica,sans-Serif" font-size="10.00"> </text>
<text text-anchor="start" x="15.5" y="-315.5" font-family="Helvetica,sans-Serif" font-size="10.00">+</text>
<text text-anchor="start" x="32.5" y="-315.5" font-family="Helvetica,sans-Serif" font-size="10.00">operator|=()</text>
<text text-anchor="start" x="15.5" y="-300.5" font-family="Helvetica,sans-Serif" font-size="10.00">+</text>
<text text-anchor="start" x="32.5" y="-300.5" font-family="Helvetica,sans-Serif" font-size="10.00">operator&amp;=()</text>
<text text-anchor="start" x="15.5" y="-285.5" font-family="Helvetica,sans-Serif" font-size="10.00">+</text>
<text text-anchor="start" x="32.5" y="-285.5" font-family="Helvetica,sans-Serif" font-size="10.00">operator bool()</text>
<text text-anchor="start" x="15.5" y="-270.5" font-family="Helvetica,sans-Serif" font-size="10.00">+</text>
<text text-anchor="start" x="32.5" y="-270.5" font-family="Helvetica,sans-Serif" font-size="10.00">operator~()</text>
<polygon fill="#666666" stroke="#666666" points="7.5,-340.5 7.5,-340.5 117.5,-340.5 117.5,-340.5 7.5,-340.5"/>
<polygon fill="#666666" stroke="#666666" points="7.5,-325.5 7.5,-325.5 117.5,-325.5 117.5,-325.5 7.5,-325.5"/>
<polygon fill="none" stroke="#666666" points="7.5,-264 7.5,-369 117.5,-369 117.5,-264 7.5,-264"/>
</a>
</g>
</g>
<!-- Node3&#45;&gt;Node2 -->
<g id="edge2_Node000002_Node000003" class="edge">
<title>Node3&#45;&gt;Node2</title>
<g id="a_edge2_Node000002_Node000003"><a xlink:title=" ">
<path fill="none" stroke="orange" d="M62.5,-253.81C62.5,-241.65 62.5,-229.01 62.5,-217.22"/>
<polygon fill="orange" stroke="orange" points="59,-253.88 62.5,-263.88 66,-253.88 59,-253.88"/>
</a>
</g>
<text text-anchor="middle" x="117" y="-238" font-family="Helvetica,sans-Serif" font-size="10.00" fill="grey"> &lt; Flags_t&lt; DT, T &gt; &gt;</text>
</g>
</g>
</svg>
