<?xml version="1.0" encoding="UTF-8" standalone="no"?>
<!DOCTYPE svg PUBLIC "-//W3C//DTD SVG 1.1//EN"
 "http://www.w3.org/Graphics/SVG/1.1/DTD/svg11.dtd">
<!-- Generated by graphviz version 2.43.0 (0)
 -->
<!-- Title: l4re_env_cap_entry_t Pages: 1 -->
<svg width="141pt" height="102pt"
 viewBox="0.00 0.00 141.00 102.00" xmlns="http://www.w3.org/2000/svg" xmlns:xlink="http://www.w3.org/1999/xlink">
<g id="graph0" class="graph" transform="scale(1 1) rotate(0) translate(4 98)">
<title>l4re_env_cap_entry_t</title>
<!-- Node1 -->
<g id="Node000001" class="node">
<title>Node1</title>
<g id="a_Node000001"><a xlink:title="Entry in the L4Re environment array for the named inital objects.">
<polygon fill="#999999" stroke="transparent" points="133,-94 0,-94 0,0 133,0 133,-94"/>
<text text-anchor="start" x="14.5" y="-82" font-family="Helvetica,sans-Serif" font-size="10.00">l4re_env_cap_entry_t</text>
<text text-anchor="start" x="4.5" y="-67" font-family="Helvetica,sans-Serif" font-size="10.00">+</text>
<text text-anchor="start" x="17.5" y="-67" font-family="Helvetica,sans-Serif" font-size="10.00">cap</text>
<text text-anchor="start" x="4.5" y="-52" font-family="Helvetica,sans-Serif" font-size="10.00">+</text>
<text text-anchor="start" x="17.5" y="-52" font-family="Helvetica,sans-Serif" font-size="10.00">flags</text>
<text text-anchor="start" x="4.5" y="-37" font-family="Helvetica,sans-Serif" font-size="10.00">+</text>
<text text-anchor="start" x="17.5" y="-37" font-family="Helvetica,sans-Serif" font-size="10.00">name</text>
<text text-anchor="start" x="4.5" y="-22" font-family="Helvetica,sans-Serif" font-size="10.00">+</text>
<text text-anchor="start" x="17.5" y="-22" font-family="Helvetica,sans-Serif" font-size="10.00">l4re_env_cap_entry_t()</text>
<text text-anchor="start" x="4.5" y="-7" font-family="Helvetica,sans-Serif" font-size="10.00">+</text>
<text text-anchor="start" x="17.5" y="-7" font-family="Helvetica,sans-Serif" font-size="10.00">l4re_env_cap_entry_t()</text>
<polygon fill="#666666" stroke="#666666" points="0.5,-77 0.5,-77 133.5,-77 133.5,-77 0.5,-77"/>
<polygon fill="#666666" stroke="#666666" points="0.5,-32 0.5,-32 15.5,-32 15.5,-32 0.5,-32"/>
<polygon fill="#666666" stroke="#666666" points="15.5,-32 15.5,-32 133.5,-32 133.5,-32 15.5,-32"/>
<polygon fill="none" stroke="#666666" points="0,0 0,-94 133,-94 133,0 0,0"/>
</a>
</g>
</g>
</g>
</svg>
