<?xml version="1.0" encoding="UTF-8" standalone="no"?>
<!DOCTYPE svg PUBLIC "-//W3C//DTD SVG 1.1//EN"
 "http://www.w3.org/Graphics/SVG/1.1/DTD/svg11.dtd">
<!-- Generated by graphviz version 2.42.4 (0)
 -->
<!-- Title: L4::Irqep_t&lt; Derived, BASE, bool &gt; Pages: 1 -->
<svg width="132pt" height="384pt"
 viewBox="0.00 0.00 132.00 384.00" xmlns="http://www.w3.org/2000/svg" xmlns:xlink="http://www.w3.org/1999/xlink">
<g id="graph0" class="graph" transform="scale(1 1) rotate(0) translate(4 380)">
<title>L4::Irqep_t&lt; Derived, BASE, bool &gt;</title>
<!-- Node1 -->
<g id="Node000001" class="node">
<title>Node1</title>
<g id="a_Node000001"><a xlink:title="Epiface implementation for interrupt handlers.">
<polygon fill="#999999" stroke="transparent" points="119,-75 5,-75 5,0 119,0 119,-75"/>
<text text-anchor="start" x="10" y="-62.5" font-family="Helvetica,sans-Serif" font-size="10.00">L4::Irqep_t&lt; Derived,</text>
<text text-anchor="start" x="28.5" y="-51.5" font-family="Helvetica,sans-Serif" font-size="10.00"> BASE, bool &gt;</text>
<text text-anchor="start" x="60" y="-36.5" font-family="Helvetica,sans-Serif" font-size="10.00"> </text>
<text text-anchor="start" x="20" y="-21.5" font-family="Helvetica,sans-Serif" font-size="10.00">+</text>
<text text-anchor="start" x="44" y="-21.5" font-family="Helvetica,sans-Serif" font-size="10.00">dispatch()</text>
<text text-anchor="start" x="20" y="-6.5" font-family="Helvetica,sans-Serif" font-size="10.00">+</text>
<text text-anchor="start" x="44" y="-6.5" font-family="Helvetica,sans-Serif" font-size="10.00">obj_cap()</text>
<polygon fill="#666666" stroke="#666666" points="5,-46.5 5,-46.5 119,-46.5 119,-46.5 5,-46.5"/>
<polygon fill="#666666" stroke="#666666" points="5,-31.5 5,-31.5 119,-31.5 119,-31.5 5,-31.5"/>
<polygon fill="none" stroke="#666666" points="5,0 5,-75 119,-75 119,0 5,0"/>
</a>
</g>
</g>
<!-- Node2 -->
<g id="Node000002" class="node">
<title>Node2</title>
<g id="a_Node000002"><a xlink:href="structL4_1_1Epiface__t0.html" target="_top" xlink:title="Epiface mixin for generic Kobject&#45;based interfaces.">
<polygon fill="white" stroke="transparent" points="124,-186 0,-186 0,-111 124,-111 124,-186"/>
<text text-anchor="start" x="12" y="-173.5" font-family="Helvetica,sans-Serif" font-size="10.00">L4::Epiface_t0&lt; RPC</text>
<text text-anchor="start" x="24" y="-162.5" font-family="Helvetica,sans-Serif" font-size="10.00">_IFACE, BASE &gt;</text>
<text text-anchor="start" x="60" y="-147.5" font-family="Helvetica,sans-Serif" font-size="10.00"> </text>
<text text-anchor="start" x="4" y="-132.5" font-family="Helvetica,sans-Serif" font-size="10.00">+</text>
<text text-anchor="start" x="17" y="-132.5" font-family="Helvetica,sans-Serif" font-size="10.00">get_buffer_demand()</text>
<text text-anchor="start" x="4" y="-117.5" font-family="Helvetica,sans-Serif" font-size="10.00">+</text>
<text text-anchor="start" x="17" y="-117.5" font-family="Helvetica,sans-Serif" font-size="10.00">obj_cap()</text>
<polygon fill="#666666" stroke="#666666" points="0,-157.5 0,-157.5 124,-157.5 124,-157.5 0,-157.5"/>
<polygon fill="#666666" stroke="#666666" points="0,-142.5 0,-142.5 124,-142.5 124,-142.5 0,-142.5"/>
<polygon fill="none" stroke="#666666" points="0,-111 0,-186 124,-186 124,-111 0,-111"/>
</a>
</g>
</g>
<!-- Node2&#45;&gt;Node1 -->
<g id="edge1_Node000001_Node000002" class="edge">
<title>Node2&#45;&gt;Node1</title>
<g id="a_edge1_Node000001_Node000002"><a xlink:title=" ">
<path fill="none" stroke="#63b8ff" d="M62,-100.68C62,-92.15 62,-83.37 62,-75.19"/>
<polygon fill="none" stroke="#63b8ff" points="58.5,-100.9 62,-110.9 65.5,-100.9 58.5,-100.9"/>
</a>
</g>
</g>
<!-- Node3 -->
<g id="Node000003" class="node">
<title>Node3</title>
<g id="a_Node000003"><a xlink:href="structL4_1_1Epiface.html" target="_top" xlink:title="Base class for interface implementations.">
<polygon fill="white" stroke="transparent" points="124,-376 0,-376 0,-222 124,-222 124,-376"/>
<text text-anchor="start" x="35" y="-364" font-family="Helvetica,sans-Serif" font-size="10.00">L4::Epiface</text>
<text text-anchor="start" x="60" y="-349" font-family="Helvetica,sans-Serif" font-size="10.00"> </text>
<text text-anchor="start" x="4" y="-334" font-family="Helvetica,sans-Serif" font-size="10.00">+</text>
<text text-anchor="start" x="17" y="-334" font-family="Helvetica,sans-Serif" font-size="10.00">Epiface()</text>
<text text-anchor="start" x="4" y="-319" font-family="Helvetica,sans-Serif" font-size="10.00">+</text>
<text text-anchor="start" x="17" y="-319" font-family="Helvetica,sans-Serif" font-size="10.00">dispatch()</text>
<text text-anchor="start" x="4" y="-304" font-family="Helvetica,sans-Serif" font-size="10.00">+</text>
<text text-anchor="start" x="17" y="-304" font-family="Helvetica,sans-Serif" font-size="10.00">get_buffer_demand()</text>
<text text-anchor="start" x="4" y="-289" font-family="Helvetica,sans-Serif" font-size="10.00">+</text>
<text text-anchor="start" x="17" y="-289" font-family="Helvetica,sans-Serif" font-size="10.00">~Epiface()</text>
<text text-anchor="start" x="4" y="-274" font-family="Helvetica,sans-Serif" font-size="10.00">+</text>
<text text-anchor="start" x="17" y="-274" font-family="Helvetica,sans-Serif" font-size="10.00">obj_cap()</text>
<text text-anchor="start" x="4" y="-259" font-family="Helvetica,sans-Serif" font-size="10.00">+</text>
<text text-anchor="start" x="17" y="-259" font-family="Helvetica,sans-Serif" font-size="10.00">server_iface()</text>
<text text-anchor="start" x="4" y="-244" font-family="Helvetica,sans-Serif" font-size="10.00">+</text>
<text text-anchor="start" x="17" y="-244" font-family="Helvetica,sans-Serif" font-size="10.00">set_server()</text>
<text text-anchor="start" x="4" y="-229" font-family="Helvetica,sans-Serif" font-size="10.00">+</text>
<text text-anchor="start" x="17" y="-229" font-family="Helvetica,sans-Serif" font-size="10.00">set_obj_cap()</text>
<polygon fill="#666666" stroke="#666666" points="0,-359 0,-359 124,-359 124,-359 0,-359"/>
<polygon fill="#666666" stroke="#666666" points="0,-344 0,-344 124,-344 124,-344 0,-344"/>
<polygon fill="none" stroke="#666666" points="0,-222 0,-376 124,-376 124,-222 0,-222"/>
</a>
</g>
</g>
<!-- Node3&#45;&gt;Node2 -->
<g id="edge2_Node000002_Node000003" class="edge">
<title>Node3&#45;&gt;Node2</title>
<g id="a_edge2_Node000002_Node000003"><a xlink:title=" ">
<path fill="none" stroke="#63b8ff" d="M62,-211.48C62,-202.6 62,-193.96 62,-186.09"/>
<polygon fill="none" stroke="#63b8ff" points="58.5,-211.57 62,-221.57 65.5,-211.58 58.5,-211.57"/>
</a>
</g>
</g>
</g>
</svg>
