<?xml version="1.0" encoding="UTF-8" standalone="no"?>
<!DOCTYPE svg PUBLIC "-//W3C//DTD SVG 1.1//EN"
 "http://www.w3.org/Graphics/SVG/1.1/DTD/svg11.dtd">
<!-- Generated by graphviz version 2.43.0 (0)
 -->
<!-- Title: L4::Kobject_3t&lt; Derived, Base1, Base2, Base3, PROTO, S_DEMAND &gt; Pages: 1 -->
<svg width="204pt" height="395pt"
 viewBox="0.00 0.00 204.00 395.00" xmlns="http://www.w3.org/2000/svg" xmlns:xlink="http://www.w3.org/1999/xlink">
<g id="graph0" class="graph" transform="scale(1 1) rotate(0) translate(4 391)">
<title>L4::Kobject_3t&lt; Derived, Base1, Base2, Base3, PROTO, S_DEMAND &gt;</title>
<!-- Node1 -->
<g id="Node000001" class="node">
<title>Node1</title>
<g id="a_Node000001"><a xlink:title="Helper class to create an L4Re interface class that is derived from three base classes (see L4::Kobje...">
<polygon fill="#999999" stroke="transparent" points="131.5,-387 0.5,-387 0.5,-301 131.5,-301 131.5,-387"/>
<text text-anchor="start" x="6" y="-375" font-family="Helvetica,sans-Serif" font-size="10.00">L4::Kobject_3t&lt; Derived,</text>
<text text-anchor="start" x="6" y="-364" font-family="Helvetica,sans-Serif" font-size="10.00"> Base1, Base2, Base3,</text>
<text text-anchor="start" x="11.5" y="-353" font-family="Helvetica,sans-Serif" font-size="10.00"> PROTO, S_DEMAND &gt;</text>
<text text-anchor="start" x="64.5" y="-338" font-family="Helvetica,sans-Serif" font-size="10.00"> </text>
<text text-anchor="start" x="5.5" y="-323" font-family="Helvetica,sans-Serif" font-size="10.00">#</text>
<text text-anchor="start" x="19" y="-323" font-family="Helvetica,sans-Serif" font-size="10.00">c()</text>
<text text-anchor="start" x="5.5" y="-308" font-family="Helvetica,sans-Serif" font-size="10.00">#</text>
<text text-anchor="start" x="19" y="-308" font-family="Helvetica,sans-Serif" font-size="10.00">__check_protocols__()</text>
<polygon fill="#666666" stroke="#666666" points="1,-348 1,-348 132,-348 132,-348 1,-348"/>
<polygon fill="#666666" stroke="#666666" points="1,-333 1,-333 132,-333 132,-333 1,-333"/>
<polygon fill="none" stroke="#666666" points="0.5,-301 0.5,-387 131.5,-387 131.5,-301 0.5,-301"/>
</a>
</g>
</g>
<!-- Node2 -->
<g id="Node000002" class="node">
<title>Node2</title>
<g id="a_Node000002"><a xlink:href="structL4_1_1Kobject__3t.html" target="_top" xlink:title=" ">
<polygon fill="white" stroke="transparent" points="132,-232 0,-232 0,-146 132,-146 132,-232"/>
<text text-anchor="start" x="5" y="-220" font-family="Helvetica,sans-Serif" font-size="10.00">L4::Kobject_3t&lt; Vbus,</text>
<text text-anchor="start" x="5" y="-209" font-family="Helvetica,sans-Serif" font-size="10.00"> L4Re::Dataspace, L4Re</text>
<text text-anchor="start" x="5" y="-198" font-family="Helvetica,sans-Serif" font-size="10.00">::Inhibitor, L4Re::Event &gt;</text>
<text text-anchor="start" x="64" y="-183" font-family="Helvetica,sans-Serif" font-size="10.00"> </text>
<text text-anchor="start" x="4.5" y="-168" font-family="Helvetica,sans-Serif" font-size="10.00">#</text>
<text text-anchor="start" x="18" y="-168" font-family="Helvetica,sans-Serif" font-size="10.00">c()</text>
<text text-anchor="start" x="4.5" y="-153" font-family="Helvetica,sans-Serif" font-size="10.00">#</text>
<text text-anchor="start" x="18" y="-153" font-family="Helvetica,sans-Serif" font-size="10.00">__check_protocols__()</text>
<polygon fill="#666666" stroke="#666666" points="0,-193 0,-193 132,-193 132,-193 0,-193"/>
<polygon fill="#666666" stroke="#666666" points="0,-178 0,-178 132,-178 132,-178 0,-178"/>
<polygon fill="none" stroke="#666666" points="0,-146 0,-232 132,-232 132,-146 0,-146"/>
</a>
</g>
</g>
<!-- Node1&#45;&gt;Node2 -->
<g id="edge1_Node000001_Node000002" class="edge">
<title>Node1&#45;&gt;Node2</title>
<g id="a_edge1_Node000001_Node000002"><a xlink:title=" ">
<path fill="none" stroke="orange" d="M66,-290.72C66,-271.59 66,-250.2 66,-232.08"/>
<polygon fill="orange" stroke="orange" points="62.5,-290.79 66,-300.79 69.5,-290.79 62.5,-290.79"/>
</a>
</g>
<text text-anchor="start" x="66" y="-275" font-family="Helvetica,sans-Serif" font-size="10.00" fill="grey"> &lt; Vbus, L4Re::Dataspace,</text>
<text text-anchor="start" x="66" y="-264" font-family="Helvetica,sans-Serif" font-size="10.00" fill="grey"> L4Re::Inhibitor, L4Re</text>
<text text-anchor="middle" x="131" y="-253" font-family="Helvetica,sans-Serif" font-size="10.00" fill="grey">::Event &gt;</text>
</g>
<!-- Node3 -->
<g id="Node000003" class="node">
<title>Node3</title>
<g id="a_Node000003"><a xlink:href="classL4vbus_1_1Vbus.html" target="_top" xlink:title="The virtual bus (Vbus) interface.">
<polygon fill="white" stroke="transparent" points="131,-109 1,-109 1,0 131,0 131,-109"/>
<text text-anchor="start" x="33.5" y="-96.5" font-family="Helvetica,sans-Serif" font-size="10.00">L4vbus::Vbus</text>
<text text-anchor="start" x="64" y="-81.5" font-family="Helvetica,sans-Serif" font-size="10.00"> </text>
<text text-anchor="start" x="5" y="-66.5" font-family="Helvetica,sans-Serif" font-size="10.00">+</text>
<text text-anchor="start" x="18" y="-66.5" font-family="Helvetica,sans-Serif" font-size="10.00">request_ioport()</text>
<text text-anchor="start" x="5" y="-51.5" font-family="Helvetica,sans-Serif" font-size="10.00">+</text>
<text text-anchor="start" x="18" y="-51.5" font-family="Helvetica,sans-Serif" font-size="10.00">release_ioport()</text>
<text text-anchor="start" x="5" y="-36.5" font-family="Helvetica,sans-Serif" font-size="10.00">+</text>
<text text-anchor="start" x="18" y="-36.5" font-family="Helvetica,sans-Serif" font-size="10.00">root()</text>
<text text-anchor="start" x="5" y="-21.5" font-family="Helvetica,sans-Serif" font-size="10.00">+</text>
<text text-anchor="start" x="18" y="-21.5" font-family="Helvetica,sans-Serif" font-size="10.00">assign_dma_domain()</text>
<text text-anchor="start" x="5" y="-6.5" font-family="Helvetica,sans-Serif" font-size="10.00">+</text>
<text text-anchor="start" x="18" y="-6.5" font-family="Helvetica,sans-Serif" font-size="10.00">assign_dma_domain()</text>
<polygon fill="#666666" stroke="#666666" points="1,-91.5 1,-91.5 131,-91.5 131,-91.5 1,-91.5"/>
<polygon fill="#666666" stroke="#666666" points="1,-76.5 1,-76.5 131,-76.5 131,-76.5 1,-76.5"/>
<polygon fill="none" stroke="#666666" points="1,0 1,-109 131,-109 131,0 1,0"/>
</a>
</g>
</g>
<!-- Node2&#45;&gt;Node3 -->
<g id="edge2_Node000002_Node000003" class="edge">
<title>Node2&#45;&gt;Node3</title>
<g id="a_edge2_Node000002_Node000003"><a xlink:title=" ">
<path fill="none" stroke="#63b8ff" d="M66,-135.64C66,-126.89 66,-117.81 66,-109.03"/>
<polygon fill="none" stroke="#63b8ff" points="62.5,-135.71 66,-145.71 69.5,-135.71 62.5,-135.71"/>
</a>
</g>
</g>
</g>
</svg>
