<?xml version="1.0" encoding="UTF-8" standalone="no"?>
<!DOCTYPE svg PUBLIC "-//W3C//DTD SVG 1.1//EN"
 "http://www.w3.org/Graphics/SVG/1.1/DTD/svg11.dtd">
<!-- Generated by graphviz version 2.42.4 (0)
 -->
<!-- Title: L4::Server_object_t::proto_dispatch Pages: 1 -->
<svg width="261pt" height="76pt"
 viewBox="0.00 0.00 261.00 75.50" xmlns="http://www.w3.org/2000/svg" xmlns:xlink="http://www.w3.org/1999/xlink">
<g id="graph0" class="graph" transform="scale(1 1) rotate(0) translate(4 71.5)">
<title>L4::Server_object_t::proto_dispatch</title>
<!-- Node1 -->
<g id="Node000001" class="node">
<title>Node1</title>
<g id="a_Node000001"><a xlink:title="Implementation of protocol&#45;based dispatch for this server object.">
<polygon fill="#999999" stroke="#666666" points="110,-51 0,-51 0,-21 110,-21 110,-51"/>
<text text-anchor="start" x="8" y="-39" font-family="Helvetica,sans-Serif" font-size="10.00">L4::Server_object_t</text>
<text text-anchor="middle" x="55" y="-28" font-family="Helvetica,sans-Serif" font-size="10.00">::proto_dispatch</text>
</a>
</g>
</g>
<!-- Node2 -->
<g id="Node000002" class="node">
<title>Node2</title>
<g id="a_Node000002"><a xlink:href="structl4__msgtag__t.html#a002076380a3f6e4f29a1f6b50ce2bde2" target="_top" xlink:title="Get the protocol value.">
<polygon fill="white" stroke="#666666" points="253,-67.5 146,-67.5 146,-48.5 253,-48.5 253,-67.5"/>
<text text-anchor="middle" x="199.5" y="-55.5" font-family="Helvetica,sans-Serif" font-size="10.00">l4_msgtag_t::label</text>
</a>
</g>
</g>
<!-- Node1&#45;&gt;Node2 -->
<g id="edge1_Node000001_Node000002" class="edge">
<title>Node1&#45;&gt;Node2</title>
<g id="a_edge1_Node000001_Node000002"><a xlink:title=" ">
<path fill="none" stroke="#63b8ff" d="M110.28,-44.38C118.65,-45.67 127.34,-47.01 135.88,-48.33"/>
<polygon fill="#63b8ff" stroke="#63b8ff" points="135.37,-51.79 145.78,-49.86 136.43,-44.88 135.37,-51.79"/>
</a>
</g>
</g>
<!-- Node3 -->
<g id="Node000003" class="node">
<title>Node3</title>
<g id="a_Node000003"><a xlink:href="structL4_1_1Kobject__typeid.html#a51843b201030581f547799379f326ce0" target="_top" xlink:title="Protocol based server&#45;side dispatch function.">
<polygon fill="white" stroke="#666666" points="252.5,-30 146.5,-30 146.5,0 252.5,0 252.5,-30"/>
<text text-anchor="start" x="154.5" y="-18" font-family="Helvetica,sans-Serif" font-size="10.00">L4::Kobject_typeid</text>
<text text-anchor="middle" x="199.5" y="-7" font-family="Helvetica,sans-Serif" font-size="10.00">::proto_dispatch</text>
</a>
</g>
</g>
<!-- Node1&#45;&gt;Node3 -->
<g id="edge2_Node000001_Node000003" class="edge">
<title>Node1&#45;&gt;Node3</title>
<g id="a_edge2_Node000001_Node000003"><a xlink:title=" ">
<path fill="none" stroke="#63b8ff" d="M110.28,-28C118.76,-26.75 127.58,-25.45 136.22,-24.18"/>
<polygon fill="#63b8ff" stroke="#63b8ff" points="136.87,-27.62 146.25,-22.7 135.85,-20.7 136.87,-27.62"/>
</a>
</g>
</g>
</g>
</svg>
