<?xml version="1.0" encoding="UTF-8" standalone="no"?>
<!DOCTYPE svg PUBLIC "-//W3C//DTD SVG 1.1//EN"
 "http://www.w3.org/Graphics/SVG/1.1/DTD/svg11.dtd">
<!-- Generated by graphviz version 2.43.0 (0)
 -->
<!-- Title: l4re_video_goos_info_t Pages: 1 -->
<svg width="168pt" height="357pt"
 viewBox="0.00 0.00 168.00 357.00" xmlns="http://www.w3.org/2000/svg" xmlns:xlink="http://www.w3.org/1999/xlink">
<g id="graph0" class="graph" transform="scale(1 1) rotate(0) translate(4 353)">
<title>l4re_video_goos_info_t</title>
<!-- Node1 -->
<g id="Node000001" class="node">
<title>Node1</title>
<g id="a_Node000001"><a xlink:title="Goos information structure.">
<polygon fill="#999999" stroke="transparent" points="141.5,-109 18.5,-109 18.5,0 141.5,0 141.5,-109"/>
<text text-anchor="start" x="24" y="-96.5" font-family="Helvetica,sans-Serif" font-size="10.00">l4re_video_goos_info_t</text>
<text text-anchor="start" x="25" y="-81.5" font-family="Helvetica,sans-Serif" font-size="10.00">+</text>
<text text-anchor="start" x="40" y="-81.5" font-family="Helvetica,sans-Serif" font-size="10.00">width</text>
<text text-anchor="start" x="25" y="-66.5" font-family="Helvetica,sans-Serif" font-size="10.00">+</text>
<text text-anchor="start" x="40" y="-66.5" font-family="Helvetica,sans-Serif" font-size="10.00">height</text>
<text text-anchor="start" x="25" y="-51.5" font-family="Helvetica,sans-Serif" font-size="10.00">+</text>
<text text-anchor="start" x="40" y="-51.5" font-family="Helvetica,sans-Serif" font-size="10.00">flags</text>
<text text-anchor="start" x="25" y="-36.5" font-family="Helvetica,sans-Serif" font-size="10.00">+</text>
<text text-anchor="start" x="40" y="-36.5" font-family="Helvetica,sans-Serif" font-size="10.00">num_static_views</text>
<text text-anchor="start" x="25" y="-21.5" font-family="Helvetica,sans-Serif" font-size="10.00">+</text>
<text text-anchor="start" x="40" y="-21.5" font-family="Helvetica,sans-Serif" font-size="10.00">num_static_buffers</text>
<text text-anchor="start" x="78.5" y="-6.5" font-family="Helvetica,sans-Serif" font-size="10.00"> </text>
<polygon fill="#666666" stroke="#666666" points="19,-91.5 19,-91.5 142,-91.5 142,-91.5 19,-91.5"/>
<polygon fill="#666666" stroke="#666666" points="19,-16.5 19,-16.5 38,-16.5 38,-16.5 19,-16.5"/>
<polygon fill="#666666" stroke="#666666" points="38,-16.5 38,-16.5 142,-16.5 142,-16.5 38,-16.5"/>
<polygon fill="none" stroke="#666666" points="18.5,0 18.5,-109 141.5,-109 141.5,0 18.5,0"/>
</a>
</g>
</g>
<!-- Node2 -->
<g id="Node000002" class="node">
<title>Node2</title>
<g id="a_Node000002"><a xlink:href="structl4re__video__pixel__info__t.html" target="_top" xlink:title="Pixel_info structure.">
<polygon fill="white" stroke="transparent" points="141.5,-205 18.5,-205 18.5,-156 141.5,-156 141.5,-205"/>
<text text-anchor="start" x="24" y="-192.5" font-family="Helvetica,sans-Serif" font-size="10.00">l4re_video_pixel_info_t</text>
<text text-anchor="start" x="29" y="-177.5" font-family="Helvetica,sans-Serif" font-size="10.00">+</text>
<text text-anchor="start" x="48" y="-177.5" font-family="Helvetica,sans-Serif" font-size="10.00">bytes_per_pixel</text>
<text text-anchor="start" x="78.5" y="-162.5" font-family="Helvetica,sans-Serif" font-size="10.00"> </text>
<polygon fill="#666666" stroke="#666666" points="19,-187.5 19,-187.5 142,-187.5 142,-187.5 19,-187.5"/>
<polygon fill="#666666" stroke="#666666" points="19,-172.5 19,-172.5 46,-172.5 46,-172.5 19,-172.5"/>
<polygon fill="#666666" stroke="#666666" points="46,-172.5 46,-172.5 142,-172.5 142,-172.5 46,-172.5"/>
<polygon fill="none" stroke="#666666" points="18.5,-156 18.5,-205 141.5,-205 141.5,-156 18.5,-156"/>
</a>
</g>
</g>
<!-- Node2&#45;&gt;Node1 -->
<g id="edge1_Node000001_Node000002" class="edge">
<title>Node2&#45;&gt;Node1</title>
<g id="a_edge1_Node000001_Node000002"><a xlink:title=" ">
<path fill="none" stroke="#63b8ff" d="M80,-155.88C80,-145.92 80,-133.78 80,-121.44"/>
<polygon fill="none" stroke="#63b8ff" points="80,-121.09 76,-115.09 80,-109.09 84,-115.09 80,-121.09"/>
</a>
</g>
<text text-anchor="middle" x="109.5" y="-130" font-family="Helvetica,sans-Serif" font-size="10.00" fill="grey"> +pixel_info</text>
</g>
<!-- Node3 -->
<g id="Node000003" class="node">
<title>Node3</title>
<g id="a_Node000003"><a xlink:href="structl4re__video__color__component__t.html" target="_top" xlink:title="Color component structure.">
<polygon fill="white" stroke="transparent" points="160,-349 0,-349 0,-285 160,-285 160,-349"/>
<text text-anchor="start" x="5" y="-337" font-family="Helvetica,sans-Serif" font-size="10.00">l4re_video_color_component_t</text>
<text text-anchor="start" x="33" y="-322" font-family="Helvetica,sans-Serif" font-size="10.00">+</text>
<text text-anchor="start" x="75" y="-322" font-family="Helvetica,sans-Serif" font-size="10.00">size</text>
<text text-anchor="start" x="33" y="-307" font-family="Helvetica,sans-Serif" font-size="10.00">+</text>
<text text-anchor="start" x="75" y="-307" font-family="Helvetica,sans-Serif" font-size="10.00">shift</text>
<text text-anchor="start" x="78" y="-292" font-family="Helvetica,sans-Serif" font-size="10.00"> </text>
<polygon fill="#666666" stroke="#666666" points="0,-332 0,-332 160,-332 160,-332 0,-332"/>
<polygon fill="#666666" stroke="#666666" points="0,-302 0,-302 73,-302 73,-302 0,-302"/>
<polygon fill="#666666" stroke="#666666" points="73,-302 73,-302 160,-302 160,-302 73,-302"/>
<polygon fill="none" stroke="#666666" points="0,-285 0,-349 160,-349 160,-285 0,-285"/>
</a>
</g>
</g>
<!-- Node3&#45;&gt;Node2 -->
<g id="edge2_Node000002_Node000003" class="edge">
<title>Node3&#45;&gt;Node2</title>
<g id="a_edge2_Node000002_Node000003"><a xlink:title=" ">
<path fill="none" stroke="#63b8ff" d="M80,-284.8C80,-264.75 80,-238.63 80,-217.67"/>
<polygon fill="none" stroke="#63b8ff" points="80,-217.39 76,-211.39 80,-205.39 84,-211.39 80,-217.39"/>
</a>
</g>
<text text-anchor="middle" x="89" y="-259" font-family="Helvetica,sans-Serif" font-size="10.00" fill="grey"> +a</text>
<text text-anchor="middle" x="89" y="-248" font-family="Helvetica,sans-Serif" font-size="10.00" fill="grey">+b</text>
<text text-anchor="middle" x="89" y="-237" font-family="Helvetica,sans-Serif" font-size="10.00" fill="grey">+g</text>
<text text-anchor="middle" x="89" y="-226" font-family="Helvetica,sans-Serif" font-size="10.00" fill="grey">+r</text>
</g>
</g>
</svg>
