<?xml version="1.0" encoding="UTF-8" standalone="no"?>
<!DOCTYPE svg PUBLIC "-//W3C//DTD SVG 1.1//EN"
 "http://www.w3.org/Graphics/SVG/1.1/DTD/svg11.dtd">
<!-- Generated by graphviz version 2.42.4 (0)
 -->
<!-- Title: L4virtio::Svr::Console::Features Pages: 1 -->
<svg width="148pt" height="374pt"
 viewBox="0.00 0.00 148.00 374.00" xmlns="http://www.w3.org/2000/svg" xmlns:xlink="http://www.w3.org/1999/xlink">
<g id="graph0" class="graph" transform="scale(1 1) rotate(0) translate(4 370)">
<title>L4virtio::Svr::Console::Features</title>
<!-- Node1 -->
<g id="Node000001" class="node">
<title>Node1</title>
<g id="a_Node000001"><a xlink:title="Virtio console specific feature bits.">
<polygon fill="#999999" stroke="transparent" points="140,-180 0,-180 0,0 140,0 140,-180"/>
<text text-anchor="start" x="18" y="-168" font-family="Helvetica,sans-Serif" font-size="10.00">L4virtio::Svr::Console</text>
<text text-anchor="start" x="45.5" y="-157" font-family="Helvetica,sans-Serif" font-size="10.00">::Features</text>
<text text-anchor="start" x="68" y="-142" font-family="Helvetica,sans-Serif" font-size="10.00"> </text>
<text text-anchor="start" x="4" y="-127" font-family="Helvetica,sans-Serif" font-size="10.00">*</text>
<text text-anchor="start" x="14" y="-127" font-family="Helvetica,sans-Serif" font-size="10.00">console_size_bfm_t</text>
<text text-anchor="start" x="4" y="-112" font-family="Helvetica,sans-Serif" font-size="10.00">*</text>
<text text-anchor="start" x="14" y="-112" font-family="Helvetica,sans-Serif" font-size="10.00">console_size()</text>
<text text-anchor="start" x="4" y="-97" font-family="Helvetica,sans-Serif" font-size="10.00">*</text>
<text text-anchor="start" x="14" y="-97" font-family="Helvetica,sans-Serif" font-size="10.00">console_size()</text>
<text text-anchor="start" x="4" y="-82" font-family="Helvetica,sans-Serif" font-size="10.00">*</text>
<text text-anchor="start" x="14" y="-82" font-family="Helvetica,sans-Serif" font-size="10.00">console_multiport_bfm_t</text>
<text text-anchor="start" x="4" y="-67" font-family="Helvetica,sans-Serif" font-size="10.00">*</text>
<text text-anchor="start" x="14" y="-67" font-family="Helvetica,sans-Serif" font-size="10.00">console_multiport()</text>
<text text-anchor="start" x="4" y="-52" font-family="Helvetica,sans-Serif" font-size="10.00">*</text>
<text text-anchor="start" x="14" y="-52" font-family="Helvetica,sans-Serif" font-size="10.00">console_multiport()</text>
<text text-anchor="start" x="4" y="-37" font-family="Helvetica,sans-Serif" font-size="10.00">*</text>
<text text-anchor="start" x="14" y="-37" font-family="Helvetica,sans-Serif" font-size="10.00">emerg_write_bfm_t</text>
<text text-anchor="start" x="4" y="-22" font-family="Helvetica,sans-Serif" font-size="10.00">*</text>
<text text-anchor="start" x="14" y="-22" font-family="Helvetica,sans-Serif" font-size="10.00">emerg_write()</text>
<text text-anchor="start" x="4" y="-7" font-family="Helvetica,sans-Serif" font-size="10.00">*</text>
<text text-anchor="start" x="14" y="-7" font-family="Helvetica,sans-Serif" font-size="10.00">emerg_write()</text>
<polygon fill="#666666" stroke="#666666" points="0,-152 0,-152 140,-152 140,-152 0,-152"/>
<polygon fill="#666666" stroke="#666666" points="0,-137 0,-137 140,-137 140,-137 0,-137"/>
<polygon fill="none" stroke="#666666" points="0,0 0,-180 140,-180 140,0 0,0"/>
</a>
</g>
</g>
<!-- Node2 -->
<g id="Node000002" class="node">
<title>Node2</title>
<g id="a_Node000002"><a xlink:href="structL4virtio_1_1Svr_1_1Dev__features.html" target="_top" xlink:title="Type for device feature bitmap.">
<polygon fill="white" stroke="transparent" points="133.5,-366 6.5,-366 6.5,-216 133.5,-216 133.5,-366"/>
<text text-anchor="start" x="19" y="-354" font-family="Helvetica,sans-Serif" font-size="10.00">Dev_config::Features</text>
<text text-anchor="start" x="11" y="-339" font-family="Helvetica,sans-Serif" font-size="10.00">+</text>
<text text-anchor="start" x="24" y="-339" font-family="Helvetica,sans-Serif" font-size="10.00">raw</text>
<text text-anchor="start" x="11" y="-324" font-family="Helvetica,sans-Serif" font-size="10.00">+</text>
<text text-anchor="start" x="24" y="-324" font-family="Helvetica,sans-Serif" font-size="10.00">Dev_features()</text>
<text text-anchor="start" x="12.5" y="-309" font-family="Helvetica,sans-Serif" font-size="10.00">*</text>
<text text-anchor="start" x="24" y="-309" font-family="Helvetica,sans-Serif" font-size="10.00">ring_indirect_desc</text>
<text text-anchor="start" x="24" y="-298" font-family="Helvetica,sans-Serif" font-size="10.00">_bfm_t</text>
<text text-anchor="start" x="12.5" y="-283" font-family="Helvetica,sans-Serif" font-size="10.00">*</text>
<text text-anchor="start" x="24" y="-283" font-family="Helvetica,sans-Serif" font-size="10.00">ring_indirect_desc()</text>
<text text-anchor="start" x="12.5" y="-268" font-family="Helvetica,sans-Serif" font-size="10.00">*</text>
<text text-anchor="start" x="24" y="-268" font-family="Helvetica,sans-Serif" font-size="10.00">ring_indirect_desc()</text>
<text text-anchor="start" x="12.5" y="-253" font-family="Helvetica,sans-Serif" font-size="10.00">*</text>
<text text-anchor="start" x="24" y="-253" font-family="Helvetica,sans-Serif" font-size="10.00">ring_event_idx_bfm_t</text>
<text text-anchor="start" x="12.5" y="-238" font-family="Helvetica,sans-Serif" font-size="10.00">*</text>
<text text-anchor="start" x="24" y="-238" font-family="Helvetica,sans-Serif" font-size="10.00">ring_event_idx()</text>
<text text-anchor="start" x="12.5" y="-223" font-family="Helvetica,sans-Serif" font-size="10.00">*</text>
<text text-anchor="start" x="24" y="-223" font-family="Helvetica,sans-Serif" font-size="10.00">ring_event_idx()</text>
<polygon fill="#666666" stroke="#666666" points="7,-349 7,-349 134,-349 134,-349 7,-349"/>
<polygon fill="#666666" stroke="#666666" points="7,-334 7,-334 22,-334 22,-334 7,-334"/>
<polygon fill="#666666" stroke="#666666" points="22,-334 22,-334 134,-334 134,-334 22,-334"/>
<polygon fill="none" stroke="#666666" points="6.5,-216 6.5,-366 133.5,-366 133.5,-216 6.5,-216"/>
</a>
</g>
</g>
<!-- Node2&#45;&gt;Node1 -->
<g id="edge1_Node000001_Node000002" class="edge">
<title>Node2&#45;&gt;Node1</title>
<g id="a_edge1_Node000001_Node000002"><a xlink:title=" ">
<path fill="none" stroke="#63b8ff" d="M70,-205.73C70,-197.32 70,-188.76 70,-180.3"/>
<polygon fill="none" stroke="#63b8ff" points="66.5,-205.9 70,-215.9 73.5,-205.9 66.5,-205.9"/>
</a>
</g>
</g>
</g>
</svg>
