<?xml version="1.0" encoding="UTF-8" standalone="no"?>
<!DOCTYPE svg PUBLIC "-//W3C//DTD SVG 1.1//EN"
 "http://www.w3.org/Graphics/SVG/1.1/DTD/svg11.dtd">
<!-- Generated by graphviz version 2.42.4 (0)
 -->
<!-- Title: L4::Ipc::Msg::Cls_item Pages: 1 -->
<svg width="238pt" height="153pt"
 viewBox="0.00 0.00 237.50 153.00" xmlns="http://www.w3.org/2000/svg" xmlns:xlink="http://www.w3.org/1999/xlink">
<g id="graph0" class="graph" transform="scale(1 1) rotate(0) translate(4 149)">
<title>L4::Ipc::Msg::Cls_item</title>
<!-- Node1 -->
<g id="Node000001" class="node">
<title>Node1</title>
<g id="a_Node000001"><a xlink:title="Marker type for item values.">
<polygon fill="#999999" stroke="transparent" points="171.5,-145 54.5,-145 54.5,-96 171.5,-96 171.5,-145"/>
<text text-anchor="start" x="60" y="-132.5" font-family="Helvetica,sans-Serif" font-size="10.00">L4::Ipc::Msg::Cls_item</text>
<text text-anchor="start" x="111.5" y="-117.5" font-family="Helvetica,sans-Serif" font-size="10.00"> </text>
<text text-anchor="start" x="111.5" y="-102.5" font-family="Helvetica,sans-Serif" font-size="10.00"> </text>
<polygon fill="#666666" stroke="#666666" points="55,-127.5 55,-127.5 172,-127.5 172,-127.5 55,-127.5"/>
<polygon fill="#666666" stroke="#666666" points="55,-112.5 55,-112.5 172,-112.5 172,-112.5 55,-112.5"/>
<polygon fill="none" stroke="#666666" points="54.5,-96 54.5,-145 171.5,-145 171.5,-96 54.5,-96"/>
</a>
</g>
</g>
<!-- Node2 -->
<g id="Node000002" class="node">
<title>Node2</title>
<g id="a_Node000002"><a xlink:href="structL4_1_1Ipc_1_1Msg_1_1Do__in__items.html" target="_top" xlink:title="Marker for Input items.">
<polygon fill="white" stroke="transparent" points="102,-60 0,-60 0,0 102,0 102,-60"/>
<text text-anchor="start" x="5" y="-48" font-family="Helvetica,sans-Serif" font-size="10.00">L4::Ipc::Msg::Do_in</text>
<text text-anchor="start" x="34" y="-37" font-family="Helvetica,sans-Serif" font-size="10.00">_items</text>
<text text-anchor="start" x="49" y="-22" font-family="Helvetica,sans-Serif" font-size="10.00"> </text>
<text text-anchor="start" x="49" y="-7" font-family="Helvetica,sans-Serif" font-size="10.00"> </text>
<polygon fill="#666666" stroke="#666666" points="0,-32 0,-32 102,-32 102,-32 0,-32"/>
<polygon fill="#666666" stroke="#666666" points="0,-17 0,-17 102,-17 102,-17 0,-17"/>
<polygon fill="none" stroke="#666666" points="0,0 0,-60 102,-60 102,0 0,0"/>
</a>
</g>
</g>
<!-- Node1&#45;&gt;Node2 -->
<g id="edge1_Node000001_Node000002" class="edge">
<title>Node1&#45;&gt;Node2</title>
<g id="a_edge1_Node000001_Node000002"><a xlink:title=" ">
<path fill="none" stroke="#63b8ff" d="M90.58,-87.5C84.32,-78.57 77.56,-68.91 71.43,-60.16"/>
<polygon fill="none" stroke="#63b8ff" points="87.78,-89.6 96.39,-95.78 93.51,-85.59 87.78,-89.6"/>
</a>
</g>
</g>
<!-- Node3 -->
<g id="Node000003" class="node">
<title>Node3</title>
<g id="a_Node000003"><a xlink:href="structL4_1_1Ipc_1_1Msg_1_1Do__out__items.html" target="_top" xlink:title="Marker for Output items.">
<polygon fill="white" stroke="transparent" points="229.5,-60 120.5,-60 120.5,0 229.5,0 229.5,-60"/>
<text text-anchor="start" x="126" y="-48" font-family="Helvetica,sans-Serif" font-size="10.00">L4::Ipc::Msg::Do_out</text>
<text text-anchor="start" x="158.5" y="-37" font-family="Helvetica,sans-Serif" font-size="10.00">_items</text>
<text text-anchor="start" x="173.5" y="-22" font-family="Helvetica,sans-Serif" font-size="10.00"> </text>
<text text-anchor="start" x="173.5" y="-7" font-family="Helvetica,sans-Serif" font-size="10.00"> </text>
<polygon fill="#666666" stroke="#666666" points="121,-32 121,-32 230,-32 230,-32 121,-32"/>
<polygon fill="#666666" stroke="#666666" points="121,-17 121,-17 230,-17 230,-17 121,-17"/>
<polygon fill="none" stroke="#666666" points="120.5,0 120.5,-60 229.5,-60 229.5,0 120.5,0"/>
</a>
</g>
</g>
<!-- Node1&#45;&gt;Node3 -->
<g id="edge2_Node000001_Node000003" class="edge">
<title>Node1&#45;&gt;Node3</title>
<g id="a_edge2_Node000001_Node000003"><a xlink:title=" ">
<path fill="none" stroke="#63b8ff" d="M135.42,-87.5C141.68,-78.57 148.44,-68.91 154.57,-60.16"/>
<polygon fill="none" stroke="#63b8ff" points="132.49,-85.59 129.61,-95.78 138.22,-89.6 132.49,-85.59"/>
</a>
</g>
</g>
</g>
</svg>
