<?xml version="1.0" encoding="UTF-8" standalone="no"?>
<!DOCTYPE svg PUBLIC "-//W3C//DTD SVG 1.1//EN"
 "http://www.w3.org/Graphics/SVG/1.1/DTD/svg11.dtd">
<!-- Generated by graphviz version 2.42.4 (0)
 -->
<!-- Title: L4::Typeid::Rpcs&lt; RPCS &gt; Pages: 1 -->
<svg width="254pt" height="369pt"
 viewBox="0.00 0.00 253.50 369.00" xmlns="http://www.w3.org/2000/svg" xmlns:xlink="http://www.w3.org/1999/xlink">
<g id="graph0" class="graph" transform="scale(1 1) rotate(0) translate(4 365)">
<title>L4::Typeid::Rpcs&lt; RPCS &gt;</title>
<!-- Node1 -->
<g id="Node000001" class="node">
<title>Node1</title>
<g id="a_Node000001"><a xlink:title="Standard list of RPCs of an interface.">
<polygon fill="#999999" stroke="transparent" points="137,-49 0,-49 0,0 137,0 137,-49"/>
<text text-anchor="start" x="5.5" y="-36.5" font-family="Helvetica,sans-Serif" font-size="10.00">L4::Typeid::Rpcs&lt; RPCS &gt;</text>
<text text-anchor="start" x="67" y="-21.5" font-family="Helvetica,sans-Serif" font-size="10.00"> </text>
<text text-anchor="start" x="67" y="-6.5" font-family="Helvetica,sans-Serif" font-size="10.00"> </text>
<polygon fill="#666666" stroke="#666666" points="0.5,-31.5 0.5,-31.5 137.5,-31.5 137.5,-31.5 0.5,-31.5"/>
<polygon fill="#666666" stroke="#666666" points="0.5,-16.5 0.5,-16.5 137.5,-16.5 137.5,-16.5 0.5,-16.5"/>
<polygon fill="none" stroke="#666666" points="0,0 0,-49 137,-49 137,0 0,0"/>
</a>
</g>
</g>
<!-- Node2 -->
<g id="Node000002" class="node">
<title>Node2</title>
<g id="a_Node000002"><a xlink:href="structL4_1_1Typeid_1_1Detail_1_1__Rpcs.html" target="_top" xlink:title=" ">
<polygon fill="white" stroke="transparent" points="125,-157 12,-157 12,-86 125,-86 125,-157"/>
<text text-anchor="start" x="17.5" y="-144.5" font-family="Helvetica,sans-Serif" font-size="10.00">L4::Typeid::Detail</text>
<text text-anchor="start" x="17.5" y="-133.5" font-family="Helvetica,sans-Serif" font-size="10.00">::_Rpcs&lt; L4::Opcode,</text>
<text text-anchor="start" x="38.5" y="-122.5" font-family="Helvetica,sans-Serif" font-size="10.00"> 0, RPCS... &gt;</text>
<text text-anchor="start" x="67" y="-107.5" font-family="Helvetica,sans-Serif" font-size="10.00"> </text>
<text text-anchor="start" x="67" y="-92.5" font-family="Helvetica,sans-Serif" font-size="10.00"> </text>
<polygon fill="#666666" stroke="#666666" points="12.5,-117.5 12.5,-117.5 125.5,-117.5 125.5,-117.5 12.5,-117.5"/>
<polygon fill="#666666" stroke="#666666" points="12.5,-102.5 12.5,-102.5 125.5,-102.5 125.5,-102.5 12.5,-102.5"/>
<polygon fill="none" stroke="#666666" points="12,-86 12,-157 125,-157 125,-86 12,-86"/>
</a>
</g>
</g>
<!-- Node2&#45;&gt;Node1 -->
<g id="edge1_Node000001_Node000002" class="edge">
<title>Node2&#45;&gt;Node1</title>
<g id="a_edge1_Node000001_Node000002"><a xlink:title=" ">
<path fill="none" stroke="#63b8ff" d="M68.5,-75.72C68.5,-66.56 68.5,-57.26 68.5,-49.2"/>
<polygon fill="none" stroke="#63b8ff" points="65,-75.93 68.5,-85.93 72,-75.93 65,-75.93"/>
</a>
</g>
</g>
<!-- Node3 -->
<g id="Node000003" class="node">
<title>Node3</title>
<g id="a_Node000003"><a xlink:href="structL4_1_1Typeid_1_1Detail_1_1Rpcs__end.html" target="_top" xlink:title="Internal end&#45;of&#45;list marker.">
<polygon fill="white" stroke="transparent" points="112,-361 17,-361 17,-301 112,-301 112,-361"/>
<text text-anchor="start" x="22.5" y="-349" font-family="Helvetica,sans-Serif" font-size="10.00">L4::Typeid::Detail</text>
<text text-anchor="start" x="38.5" y="-338" font-family="Helvetica,sans-Serif" font-size="10.00">::Rpcs_end</text>
<text text-anchor="start" x="63" y="-323" font-family="Helvetica,sans-Serif" font-size="10.00"> </text>
<text text-anchor="start" x="63" y="-308" font-family="Helvetica,sans-Serif" font-size="10.00"> </text>
<polygon fill="#666666" stroke="#666666" points="17.5,-333 17.5,-333 112.5,-333 112.5,-333 17.5,-333"/>
<polygon fill="#666666" stroke="#666666" points="17.5,-318 17.5,-318 112.5,-318 112.5,-318 17.5,-318"/>
<polygon fill="none" stroke="#666666" points="17,-301 17,-361 112,-361 112,-301 17,-301"/>
</a>
</g>
</g>
<!-- Node3&#45;&gt;Node2 -->
<g id="edge2_Node000002_Node000003" class="edge">
<title>Node3&#45;&gt;Node2</title>
<g id="a_edge2_Node000002_Node000003"><a xlink:title=" ">
<path fill="none" stroke="#63b8ff" d="M65.26,-290.39C66.01,-251.87 67.12,-193.93 67.83,-157.17"/>
<polygon fill="none" stroke="#63b8ff" points="61.76,-290.64 65.06,-300.71 68.76,-290.78 61.76,-290.64"/>
</a>
</g>
</g>
<!-- Node4 -->
<g id="Node000004" class="node">
<title>Node4</title>
<g id="a_Node000004"><a xlink:href="structL4_1_1Typeid_1_1Detail_1_1__Rpcs.html" target="_top" xlink:title="Empty list of RPCs.">
<polygon fill="white" stroke="transparent" points="216,-264 81,-264 81,-204 216,-204 216,-264"/>
<text text-anchor="start" x="86.5" y="-252" font-family="Helvetica,sans-Serif" font-size="10.00">L4::Typeid::Detail</text>
<text text-anchor="start" x="86.5" y="-241" font-family="Helvetica,sans-Serif" font-size="10.00">::_Rpcs&lt; OPCODE, O, X &gt;</text>
<text text-anchor="start" x="147" y="-226" font-family="Helvetica,sans-Serif" font-size="10.00"> </text>
<text text-anchor="start" x="147" y="-211" font-family="Helvetica,sans-Serif" font-size="10.00"> </text>
<polygon fill="#666666" stroke="#666666" points="81.5,-236 81.5,-236 216.5,-236 216.5,-236 81.5,-236"/>
<polygon fill="#666666" stroke="#666666" points="81.5,-221 81.5,-221 216.5,-221 216.5,-221 81.5,-221"/>
<polygon fill="none" stroke="#666666" points="81,-204 81,-264 216,-264 216,-204 81,-204"/>
</a>
</g>
</g>
<!-- Node3&#45;&gt;Node4 -->
<g id="edge4_Node000004_Node000003" class="edge">
<title>Node3&#45;&gt;Node4</title>
<g id="a_edge4_Node000004_Node000003"><a xlink:title=" ">
<path fill="none" stroke="#63b8ff" d="M96.87,-293.39C105.43,-283.71 114.55,-273.39 122.71,-264.17"/>
<polygon fill="none" stroke="#63b8ff" points="94.16,-291.17 90.16,-300.98 99.41,-295.81 94.16,-291.17"/>
</a>
</g>
</g>
<!-- Node4&#45;&gt;Node2 -->
<g id="edge3_Node000002_Node000004" class="edge">
<title>Node4&#45;&gt;Node2</title>
<g id="a_edge3_Node000002_Node000004"><a xlink:title=" ">
<path fill="none" stroke="orange" d="M121.44,-195.62C112.45,-183.21 102.49,-169.44 93.65,-157.24"/>
<polygon fill="orange" stroke="orange" points="118.78,-197.92 127.48,-203.97 124.45,-193.81 118.78,-197.92"/>
</a>
</g>
<text text-anchor="middle" x="179" y="-178" font-family="Helvetica,sans-Serif" font-size="10.00" fill="grey"> &lt; L4::Opcode, 0, RPCS... &gt;</text>
</g>
</g>
</svg>
