<?xml version="1.0" encoding="UTF-8" standalone="no"?>
<!DOCTYPE svg PUBLIC "-//W3C//DTD SVG 1.1//EN"
 "http://www.w3.org/Graphics/SVG/1.1/DTD/svg11.dtd">
<!-- Generated by graphviz version 2.43.0 (0)
 -->
<!-- Title: cxx::H_list_t&lt; T &gt; Pages: 1 -->
<svg width="269pt" height="785pt"
 viewBox="0.00 0.00 268.50 785.00" xmlns="http://www.w3.org/2000/svg" xmlns:xlink="http://www.w3.org/1999/xlink">
<g id="graph0" class="graph" transform="scale(1 1) rotate(0) translate(4 781)">
<title>cxx::H_list_t&lt; T &gt;</title>
<!-- Node1 -->
<g id="Node000001" class="node">
<title>Node1</title>
<g id="a_Node000001"><a xlink:title="Double&#45;linked list of typed H_list_item_t elements.">
<polygon fill="#999999" stroke="transparent" points="144,-49 45,-49 45,0 144,0 144,-49"/>
<text text-anchor="start" x="50.5" y="-36.5" font-family="Helvetica,sans-Serif" font-size="10.00">cxx::H_list_t&lt; T &gt;</text>
<text text-anchor="start" x="93" y="-21.5" font-family="Helvetica,sans-Serif" font-size="10.00"> </text>
<text text-anchor="start" x="93" y="-6.5" font-family="Helvetica,sans-Serif" font-size="10.00"> </text>
<polygon fill="#666666" stroke="#666666" points="45.5,-31.5 45.5,-31.5 144.5,-31.5 144.5,-31.5 45.5,-31.5"/>
<polygon fill="#666666" stroke="#666666" points="45.5,-16.5 45.5,-16.5 144.5,-16.5 144.5,-16.5 45.5,-16.5"/>
<polygon fill="none" stroke="#666666" points="45,0 45,-49 144,-49 144,0 45,0"/>
</a>
</g>
</g>
<!-- Node2 -->
<g id="Node000002" class="node">
<title>Node2</title>
<g id="a_Node000002"><a xlink:href="classcxx_1_1H__list.html" target="_top" xlink:title=" ">
<polygon fill="white" stroke="transparent" points="165,-307 24,-307 24,-86 165,-86 165,-307"/>
<text text-anchor="start" x="29.5" y="-294.5" font-family="Helvetica,sans-Serif" font-size="10.00">cxx::H_list&lt; T, Bits</text>
<text text-anchor="start" x="29.5" y="-283.5" font-family="Helvetica,sans-Serif" font-size="10.00">::Basic_list_policy&lt;</text>
<text text-anchor="start" x="29.5" y="-272.5" font-family="Helvetica,sans-Serif" font-size="10.00"> T, H_list_item_t&lt; T &gt; &gt; &gt;</text>
<text text-anchor="start" x="93" y="-257.5" font-family="Helvetica,sans-Serif" font-size="10.00"> </text>
<text text-anchor="start" x="40" y="-242.5" font-family="Helvetica,sans-Serif" font-size="10.00">+</text>
<text text-anchor="start" x="64.5" y="-242.5" font-family="Helvetica,sans-Serif" font-size="10.00">add()</text>
<text text-anchor="start" x="40" y="-227.5" font-family="Helvetica,sans-Serif" font-size="10.00">+</text>
<text text-anchor="start" x="64.5" y="-227.5" font-family="Helvetica,sans-Serif" font-size="10.00">push_front()</text>
<text text-anchor="start" x="40" y="-212.5" font-family="Helvetica,sans-Serif" font-size="10.00">+</text>
<text text-anchor="start" x="64.5" y="-212.5" font-family="Helvetica,sans-Serif" font-size="10.00">pop_front()</text>
<text text-anchor="start" x="40" y="-197.5" font-family="Helvetica,sans-Serif" font-size="10.00">+</text>
<text text-anchor="start" x="64.5" y="-197.5" font-family="Helvetica,sans-Serif" font-size="10.00">insert()</text>
<text text-anchor="start" x="40" y="-182.5" font-family="Helvetica,sans-Serif" font-size="10.00">+</text>
<text text-anchor="start" x="64.5" y="-182.5" font-family="Helvetica,sans-Serif" font-size="10.00">iter()</text>
<text text-anchor="start" x="40" y="-167.5" font-family="Helvetica,sans-Serif" font-size="10.00">+</text>
<text text-anchor="start" x="64.5" y="-167.5" font-family="Helvetica,sans-Serif" font-size="10.00">in_list()</text>
<text text-anchor="start" x="40" y="-152.5" font-family="Helvetica,sans-Serif" font-size="10.00">+</text>
<text text-anchor="start" x="64.5" y="-152.5" font-family="Helvetica,sans-Serif" font-size="10.00">insert_after()</text>
<text text-anchor="start" x="40" y="-137.5" font-family="Helvetica,sans-Serif" font-size="10.00">+</text>
<text text-anchor="start" x="64.5" y="-137.5" font-family="Helvetica,sans-Serif" font-size="10.00">insert_before()</text>
<text text-anchor="start" x="40" y="-122.5" font-family="Helvetica,sans-Serif" font-size="10.00">+</text>
<text text-anchor="start" x="64.5" y="-122.5" font-family="Helvetica,sans-Serif" font-size="10.00">replace()</text>
<text text-anchor="start" x="40" y="-107.5" font-family="Helvetica,sans-Serif" font-size="10.00">+</text>
<text text-anchor="start" x="64.5" y="-107.5" font-family="Helvetica,sans-Serif" font-size="10.00">remove()</text>
<text text-anchor="start" x="40" y="-92.5" font-family="Helvetica,sans-Serif" font-size="10.00">+</text>
<text text-anchor="start" x="64.5" y="-92.5" font-family="Helvetica,sans-Serif" font-size="10.00">erase()</text>
<polygon fill="#666666" stroke="#666666" points="24.5,-267.5 24.5,-267.5 165.5,-267.5 165.5,-267.5 24.5,-267.5"/>
<polygon fill="#666666" stroke="#666666" points="24.5,-252.5 24.5,-252.5 165.5,-252.5 165.5,-252.5 24.5,-252.5"/>
<polygon fill="none" stroke="#666666" points="24,-86 24,-307 165,-307 165,-86 24,-86"/>
</a>
</g>
</g>
<!-- Node2&#45;&gt;Node1 -->
<g id="edge1_Node000001_Node000002" class="edge">
<title>Node2&#45;&gt;Node1</title>
<g id="a_edge1_Node000001_Node000002"><a xlink:title=" ">
<path fill="none" stroke="#63b8ff" d="M94.5,-75.8C94.5,-65.92 94.5,-56.79 94.5,-49.1"/>
<polygon fill="none" stroke="#63b8ff" points="91,-75.91 94.5,-85.91 98,-75.91 91,-75.91"/>
</a>
</g>
</g>
<!-- Node3 -->
<g id="Node000003" class="node">
<title>Node3</title>
<g id="a_Node000003"><a xlink:href="classcxx_1_1Bits_1_1Basic__list.html" target="_top" xlink:title="Internal: Common functions for all head&#45;based list implementations.">
<polygon fill="white" stroke="transparent" points="105,-558 0,-558 0,-393 105,-393 105,-558"/>
<text text-anchor="start" x="5.5" y="-545.5" font-family="Helvetica,sans-Serif" font-size="10.00">cxx::Bits::Basic_list</text>
<text text-anchor="start" x="24" y="-534.5" font-family="Helvetica,sans-Serif" font-size="10.00">&lt; POLICY &gt;</text>
<text text-anchor="start" x="15.5" y="-519.5" font-family="Helvetica,sans-Serif" font-size="10.00">#</text>
<text text-anchor="start" x="39.5" y="-519.5" font-family="Helvetica,sans-Serif" font-size="10.00">_f</text>
<text text-anchor="start" x="15.5" y="-504.5" font-family="Helvetica,sans-Serif" font-size="10.00">+</text>
<text text-anchor="start" x="39.5" y="-504.5" font-family="Helvetica,sans-Serif" font-size="10.00">empty()</text>
<text text-anchor="start" x="15.5" y="-489.5" font-family="Helvetica,sans-Serif" font-size="10.00">+</text>
<text text-anchor="start" x="39.5" y="-489.5" font-family="Helvetica,sans-Serif" font-size="10.00">front()</text>
<text text-anchor="start" x="15.5" y="-474.5" font-family="Helvetica,sans-Serif" font-size="10.00">+</text>
<text text-anchor="start" x="39.5" y="-474.5" font-family="Helvetica,sans-Serif" font-size="10.00">clear()</text>
<text text-anchor="start" x="15.5" y="-459.5" font-family="Helvetica,sans-Serif" font-size="10.00">+</text>
<text text-anchor="start" x="39.5" y="-459.5" font-family="Helvetica,sans-Serif" font-size="10.00">begin()</text>
<text text-anchor="start" x="15.5" y="-444.5" font-family="Helvetica,sans-Serif" font-size="10.00">+</text>
<text text-anchor="start" x="39.5" y="-444.5" font-family="Helvetica,sans-Serif" font-size="10.00">begin()</text>
<text text-anchor="start" x="15.5" y="-429.5" font-family="Helvetica,sans-Serif" font-size="10.00">+</text>
<text text-anchor="start" x="39.5" y="-429.5" font-family="Helvetica,sans-Serif" font-size="10.00">end()</text>
<text text-anchor="start" x="15.5" y="-414.5" font-family="Helvetica,sans-Serif" font-size="10.00">+</text>
<text text-anchor="start" x="39.5" y="-414.5" font-family="Helvetica,sans-Serif" font-size="10.00">end()</text>
<text text-anchor="start" x="15.5" y="-399.5" font-family="Helvetica,sans-Serif" font-size="10.00">+</text>
<text text-anchor="start" x="39.5" y="-399.5" font-family="Helvetica,sans-Serif" font-size="10.00">iter()</text>
<polygon fill="#666666" stroke="#666666" points="0.5,-529.5 0.5,-529.5 105.5,-529.5 105.5,-529.5 0.5,-529.5"/>
<polygon fill="#666666" stroke="#666666" points="0.5,-514.5 0.5,-514.5 37.5,-514.5 37.5,-514.5 0.5,-514.5"/>
<polygon fill="#666666" stroke="#666666" points="37.5,-514.5 37.5,-514.5 105.5,-514.5 105.5,-514.5 37.5,-514.5"/>
<polygon fill="none" stroke="#666666" points="0,-393 0,-558 105,-558 105,-393 0,-393"/>
</a>
</g>
</g>
<!-- Node3&#45;&gt;Node2 -->
<g id="edge2_Node000002_Node000003" class="edge">
<title>Node3&#45;&gt;Node2</title>
<g id="a_edge2_Node000002_Node000003"><a xlink:title=" ">
<path fill="none" stroke="#63b8ff" d="M66.38,-382.98C70.06,-358.67 74.08,-332.18 77.89,-307.02"/>
<polygon fill="none" stroke="#63b8ff" points="62.91,-382.48 64.87,-392.89 69.83,-383.53 62.91,-382.48"/>
</a>
</g>
</g>
<!-- Node4 -->
<g id="Node000004" class="node">
<title>Node4</title>
<g id="a_Node000004"><a xlink:href="classcxx_1_1H__list.html" target="_top" xlink:title="General double&#45;linked list of unspecified cxx::H_list_item elements.">
<polygon fill="white" stroke="transparent" points="254,-575 123,-575 123,-376 254,-376 254,-575"/>
<text text-anchor="start" x="128.5" y="-562.5" font-family="Helvetica,sans-Serif" font-size="10.00">cxx::H_list&lt; T, POLICY &gt;</text>
<text text-anchor="start" x="187" y="-547.5" font-family="Helvetica,sans-Serif" font-size="10.00"> </text>
<text text-anchor="start" x="136.5" y="-532.5" font-family="Helvetica,sans-Serif" font-size="10.00">+</text>
<text text-anchor="start" x="158.5" y="-532.5" font-family="Helvetica,sans-Serif" font-size="10.00">add()</text>
<text text-anchor="start" x="136.5" y="-517.5" font-family="Helvetica,sans-Serif" font-size="10.00">+</text>
<text text-anchor="start" x="158.5" y="-517.5" font-family="Helvetica,sans-Serif" font-size="10.00">push_front()</text>
<text text-anchor="start" x="136.5" y="-502.5" font-family="Helvetica,sans-Serif" font-size="10.00">+</text>
<text text-anchor="start" x="158.5" y="-502.5" font-family="Helvetica,sans-Serif" font-size="10.00">pop_front()</text>
<text text-anchor="start" x="136.5" y="-487.5" font-family="Helvetica,sans-Serif" font-size="10.00">+</text>
<text text-anchor="start" x="158.5" y="-487.5" font-family="Helvetica,sans-Serif" font-size="10.00">insert()</text>
<text text-anchor="start" x="136.5" y="-472.5" font-family="Helvetica,sans-Serif" font-size="10.00">+</text>
<text text-anchor="start" x="158.5" y="-472.5" font-family="Helvetica,sans-Serif" font-size="10.00">iter()</text>
<text text-anchor="start" x="136.5" y="-457.5" font-family="Helvetica,sans-Serif" font-size="10.00">+</text>
<text text-anchor="start" x="158.5" y="-457.5" font-family="Helvetica,sans-Serif" font-size="10.00">in_list()</text>
<text text-anchor="start" x="136.5" y="-442.5" font-family="Helvetica,sans-Serif" font-size="10.00">+</text>
<text text-anchor="start" x="158.5" y="-442.5" font-family="Helvetica,sans-Serif" font-size="10.00">insert_after()</text>
<text text-anchor="start" x="136.5" y="-427.5" font-family="Helvetica,sans-Serif" font-size="10.00">+</text>
<text text-anchor="start" x="158.5" y="-427.5" font-family="Helvetica,sans-Serif" font-size="10.00">insert_before()</text>
<text text-anchor="start" x="136.5" y="-412.5" font-family="Helvetica,sans-Serif" font-size="10.00">+</text>
<text text-anchor="start" x="158.5" y="-412.5" font-family="Helvetica,sans-Serif" font-size="10.00">replace()</text>
<text text-anchor="start" x="136.5" y="-397.5" font-family="Helvetica,sans-Serif" font-size="10.00">+</text>
<text text-anchor="start" x="158.5" y="-397.5" font-family="Helvetica,sans-Serif" font-size="10.00">remove()</text>
<text text-anchor="start" x="136.5" y="-382.5" font-family="Helvetica,sans-Serif" font-size="10.00">+</text>
<text text-anchor="start" x="158.5" y="-382.5" font-family="Helvetica,sans-Serif" font-size="10.00">erase()</text>
<polygon fill="#666666" stroke="#666666" points="123.5,-557.5 123.5,-557.5 254.5,-557.5 254.5,-557.5 123.5,-557.5"/>
<polygon fill="#666666" stroke="#666666" points="123.5,-542.5 123.5,-542.5 254.5,-542.5 254.5,-542.5 123.5,-542.5"/>
<polygon fill="none" stroke="#666666" points="123,-376 123,-575 254,-575 254,-376 123,-376"/>
</a>
</g>
</g>
<!-- Node4&#45;&gt;Node2 -->
<g id="edge3_Node000002_Node000004" class="edge">
<title>Node4&#45;&gt;Node2</title>
<g id="a_edge3_Node000002_Node000004"><a xlink:title=" ">
<path fill="none" stroke="orange" d="M151.66,-365.95C145.1,-346.62 138.27,-326.48 131.7,-307.12"/>
<polygon fill="orange" stroke="orange" points="148.43,-367.32 154.96,-375.67 155.06,-365.08 148.43,-367.32"/>
</a>
</g>
<text text-anchor="start" x="146.5" y="-350" font-family="Helvetica,sans-Serif" font-size="10.00" fill="grey"> &lt; T, Bits::Basic_list</text>
<text text-anchor="start" x="146.5" y="-339" font-family="Helvetica,sans-Serif" font-size="10.00" fill="grey">_policy&lt; T, H_list_item</text>
<text text-anchor="middle" x="203.5" y="-328" font-family="Helvetica,sans-Serif" font-size="10.00" fill="grey">_t&lt; T &gt; &gt; &gt;</text>
</g>
<!-- Node5 -->
<g id="Node000005" class="node">
<title>Node5</title>
<g id="a_Node000005"><a xlink:href="classcxx_1_1Bits_1_1Basic__list.html" target="_top" xlink:title="Internal: Common functions for all head&#45;based list implementations.">
<polygon fill="white" stroke="transparent" points="241,-777 136,-777 136,-612 241,-612 241,-777"/>
<text text-anchor="start" x="141.5" y="-764.5" font-family="Helvetica,sans-Serif" font-size="10.00">cxx::Bits::Basic_list</text>
<text text-anchor="start" x="160" y="-753.5" font-family="Helvetica,sans-Serif" font-size="10.00">&lt; POLICY &gt;</text>
<text text-anchor="start" x="151.5" y="-738.5" font-family="Helvetica,sans-Serif" font-size="10.00">#</text>
<text text-anchor="start" x="175.5" y="-738.5" font-family="Helvetica,sans-Serif" font-size="10.00">_f</text>
<text text-anchor="start" x="151.5" y="-723.5" font-family="Helvetica,sans-Serif" font-size="10.00">+</text>
<text text-anchor="start" x="175.5" y="-723.5" font-family="Helvetica,sans-Serif" font-size="10.00">empty()</text>
<text text-anchor="start" x="151.5" y="-708.5" font-family="Helvetica,sans-Serif" font-size="10.00">+</text>
<text text-anchor="start" x="175.5" y="-708.5" font-family="Helvetica,sans-Serif" font-size="10.00">front()</text>
<text text-anchor="start" x="151.5" y="-693.5" font-family="Helvetica,sans-Serif" font-size="10.00">+</text>
<text text-anchor="start" x="175.5" y="-693.5" font-family="Helvetica,sans-Serif" font-size="10.00">clear()</text>
<text text-anchor="start" x="151.5" y="-678.5" font-family="Helvetica,sans-Serif" font-size="10.00">+</text>
<text text-anchor="start" x="175.5" y="-678.5" font-family="Helvetica,sans-Serif" font-size="10.00">begin()</text>
<text text-anchor="start" x="151.5" y="-663.5" font-family="Helvetica,sans-Serif" font-size="10.00">+</text>
<text text-anchor="start" x="175.5" y="-663.5" font-family="Helvetica,sans-Serif" font-size="10.00">begin()</text>
<text text-anchor="start" x="151.5" y="-648.5" font-family="Helvetica,sans-Serif" font-size="10.00">+</text>
<text text-anchor="start" x="175.5" y="-648.5" font-family="Helvetica,sans-Serif" font-size="10.00">end()</text>
<text text-anchor="start" x="151.5" y="-633.5" font-family="Helvetica,sans-Serif" font-size="10.00">+</text>
<text text-anchor="start" x="175.5" y="-633.5" font-family="Helvetica,sans-Serif" font-size="10.00">end()</text>
<text text-anchor="start" x="151.5" y="-618.5" font-family="Helvetica,sans-Serif" font-size="10.00">+</text>
<text text-anchor="start" x="175.5" y="-618.5" font-family="Helvetica,sans-Serif" font-size="10.00">iter()</text>
<polygon fill="#666666" stroke="#666666" points="136.5,-748.5 136.5,-748.5 241.5,-748.5 241.5,-748.5 136.5,-748.5"/>
<polygon fill="#666666" stroke="#666666" points="136.5,-733.5 136.5,-733.5 173.5,-733.5 173.5,-733.5 136.5,-733.5"/>
<polygon fill="#666666" stroke="#666666" points="173.5,-733.5 173.5,-733.5 241.5,-733.5 241.5,-733.5 173.5,-733.5"/>
<polygon fill="none" stroke="#666666" points="136,-612 136,-777 241,-777 241,-612 136,-612"/>
</a>
</g>
</g>
<!-- Node5&#45;&gt;Node4 -->
<g id="edge4_Node000004_Node000005" class="edge">
<title>Node5&#45;&gt;Node4</title>
<g id="a_edge4_Node000004_Node000005"><a xlink:title=" ">
<path fill="none" stroke="#63b8ff" d="M188.5,-601.64C188.5,-592.94 188.5,-584.1 188.5,-575.34"/>
<polygon fill="none" stroke="#63b8ff" points="185,-601.77 188.5,-611.77 192,-601.77 185,-601.77"/>
</a>
</g>
</g>
</g>
</svg>
