<?xml version="1.0" encoding="UTF-8" standalone="no"?>
<!DOCTYPE svg PUBLIC "-//W3C//DTD SVG 1.1//EN"
 "http://www.w3.org/Graphics/SVG/1.1/DTD/svg11.dtd">
<!-- Generated by graphviz version 2.43.0 (0)
 -->
<!-- Title: L4::Triggerable::trigger Pages: 1 -->
<svg width="453pt" height="64pt"
 viewBox="0.00 0.00 453.00 64.00" xmlns="http://www.w3.org/2000/svg" xmlns:xlink="http://www.w3.org/1999/xlink">
<g id="graph0" class="graph" transform="scale(1 1) rotate(0) translate(4 60)">
<title>L4::Triggerable::trigger</title>
<!-- Node1 -->
<g id="Node000001" class="node">
<title>Node1</title>
<g id="a_Node000001"><a xlink:title="Trigger the object.">
<polygon fill="#999999" stroke="#666666" points="126,-37 0,-37 0,-18 126,-18 126,-37"/>
<text text-anchor="middle" x="63" y="-25" font-family="Helvetica,sans-Serif" font-size="10.00">L4::Triggerable::trigger</text>
</a>
</g>
</g>
<!-- Node2 -->
<g id="Node000002" class="node">
<title>Node2</title>
<g id="a_Node000002"><a xlink:href="group__l4__irq__api.html#ga180cfaf342ce9ff484a6aa7c276e1597" target="_top" xlink:title="Trigger the object.">
<polygon fill="white" stroke="#666666" points="254,-37 162,-37 162,-18 254,-18 254,-37"/>
<text text-anchor="middle" x="208" y="-25" font-family="Helvetica,sans-Serif" font-size="10.00">l4_irq_trigger_u</text>
</a>
</g>
</g>
<!-- Node1&#45;&gt;Node2 -->
<g id="edge1_Node000001_Node000002" class="edge">
<title>Node1&#45;&gt;Node2</title>
<g id="a_edge1_Node000001_Node000002"><a xlink:title=" ">
<path fill="none" stroke="#63b8ff" d="M126.31,-27.5C134.67,-27.5 143.2,-27.5 151.43,-27.5"/>
<polygon fill="#63b8ff" stroke="#63b8ff" points="151.67,-31 161.67,-27.5 151.67,-24 151.67,-31"/>
</a>
</g>
</g>
<!-- Node3 -->
<g id="Node000003" class="node">
<title>Node3</title>
<g id="a_Node000003"><a xlink:href="group__l4__ipc__api.html#ga7de45eb59ce852466362ea85da00299e" target="_top" xlink:title="Send a message to an object (do not wait for a reply).">
<polygon fill="white" stroke="#666666" points="364,-56 290,-56 290,-37 364,-37 364,-56"/>
<text text-anchor="middle" x="327" y="-44" font-family="Helvetica,sans-Serif" font-size="10.00">l4_ipc_send</text>
</a>
</g>
</g>
<!-- Node2&#45;&gt;Node3 -->
<g id="edge2_Node000002_Node000003" class="edge">
<title>Node2&#45;&gt;Node3</title>
<g id="a_edge2_Node000002_Node000003"><a xlink:title=" ">
<path fill="none" stroke="#63b8ff" d="M254.24,-34.85C262.65,-36.21 271.45,-37.64 279.88,-39.01"/>
<polygon fill="#63b8ff" stroke="#63b8ff" points="279.51,-42.5 289.95,-40.65 280.64,-35.59 279.51,-42.5"/>
</a>
</g>
</g>
<!-- Node5 -->
<g id="Node000005" class="node">
<title>Node5</title>
<g id="a_Node000005"><a xlink:href="group__l4__msgtag__api.html#ga661d71acad9d096fa990f7c94943bc78" target="_top" xlink:title="Create a message tag from the specified values.">
<polygon fill="white" stroke="#666666" points="361,-19 293,-19 293,0 361,0 361,-19"/>
<text text-anchor="middle" x="327" y="-7" font-family="Helvetica,sans-Serif" font-size="10.00">l4_msgtag</text>
</a>
</g>
</g>
<!-- Node2&#45;&gt;Node5 -->
<g id="edge4_Node000002_Node000005" class="edge">
<title>Node2&#45;&gt;Node5</title>
<g id="a_edge4_Node000002_Node000005"><a xlink:title=" ">
<path fill="none" stroke="#63b8ff" d="M254.24,-20.54C263.68,-19.09 273.61,-17.56 282.97,-16.12"/>
<polygon fill="#63b8ff" stroke="#63b8ff" points="283.51,-19.58 292.86,-14.6 282.44,-12.66 283.51,-19.58"/>
</a>
</g>
</g>
<!-- Node4 -->
<g id="Node000004" class="node">
<title>Node4</title>
<g id="a_Node000004"><a xlink:href="group__l4__ipc__api.html#ga1caa56d45e0453b3002e7f5cfdb0dec7" target="_top" xlink:title="Generic L4 object invocation.">
<polygon fill="white" stroke="#666666" points="445,-56 400,-56 400,-37 445,-37 445,-56"/>
<text text-anchor="middle" x="422.5" y="-44" font-family="Helvetica,sans-Serif" font-size="10.00">l4_ipc</text>
</a>
</g>
</g>
<!-- Node3&#45;&gt;Node4 -->
<g id="edge3_Node000003_Node000004" class="edge">
<title>Node3&#45;&gt;Node4</title>
<g id="a_edge3_Node000003_Node000004"><a xlink:title=" ">
<path fill="none" stroke="#63b8ff" d="M364.15,-46.5C372.51,-46.5 381.35,-46.5 389.52,-46.5"/>
<polygon fill="#63b8ff" stroke="#63b8ff" points="389.77,-50 399.77,-46.5 389.77,-43 389.77,-50"/>
</a>
</g>
</g>
</g>
</svg>
