<?xml version="1.0" encoding="UTF-8" standalone="no"?>
<!DOCTYPE svg PUBLIC "-//W3C//DTD SVG 1.1//EN"
 "http://www.w3.org/Graphics/SVG/1.1/DTD/svg11.dtd">
<!-- Generated by graphviz version 2.43.0 (0)
 -->
<!-- Title: l4_vm_svm_vmcb_state_save_area Pages: 1 -->
<svg width="137pt" height="285pt"
 viewBox="0.00 0.00 137.00 285.00" xmlns="http://www.w3.org/2000/svg" xmlns:xlink="http://www.w3.org/1999/xlink">
<g id="graph0" class="graph" transform="scale(1 1) rotate(0) translate(4 281)">
<title>l4_vm_svm_vmcb_state_save_area</title>
<!-- Node1 -->
<g id="Node000001" class="node">
<title>Node1</title>
<g id="a_Node000001"><a xlink:title="State save area structure for SVM VMs.">
<polygon fill="#999999" stroke="transparent" points="129,-60 0,-60 0,0 129,0 129,-60"/>
<text text-anchor="start" x="5.5" y="-48" font-family="Helvetica,sans-Serif" font-size="10.00">l4_vm_svm_vmcb_state</text>
<text text-anchor="start" x="37" y="-37" font-family="Helvetica,sans-Serif" font-size="10.00">_save_area</text>
<text text-anchor="start" x="63" y="-22" font-family="Helvetica,sans-Serif" font-size="10.00"> </text>
<text text-anchor="start" x="63" y="-7" font-family="Helvetica,sans-Serif" font-size="10.00"> </text>
<polygon fill="#666666" stroke="#666666" points="0.5,-32 0.5,-32 129.5,-32 129.5,-32 0.5,-32"/>
<polygon fill="#666666" stroke="#666666" points="0.5,-17 0.5,-17 129.5,-17 129.5,-17 0.5,-17"/>
<polygon fill="none" stroke="#666666" points="0,0 0,-60 129,-60 129,0 0,0"/>
</a>
</g>
</g>
<!-- Node2 -->
<g id="Node000002" class="node">
<title>Node2</title>
<g id="a_Node000002"><a xlink:href="structl4__vm__svm__vmcb__state__save__area__seg.html" target="_top" xlink:title="State save area segment selector struct.">
<polygon fill="white" stroke="transparent" points="129,-277 0,-277 0,-217 129,-217 129,-277"/>
<text text-anchor="start" x="5.5" y="-265" font-family="Helvetica,sans-Serif" font-size="10.00">l4_vm_svm_vmcb_state</text>
<text text-anchor="start" x="25.5" y="-254" font-family="Helvetica,sans-Serif" font-size="10.00">_save_area_seg</text>
<text text-anchor="start" x="63" y="-239" font-family="Helvetica,sans-Serif" font-size="10.00"> </text>
<text text-anchor="start" x="63" y="-224" font-family="Helvetica,sans-Serif" font-size="10.00"> </text>
<polygon fill="#666666" stroke="#666666" points="0.5,-249 0.5,-249 129.5,-249 129.5,-249 0.5,-249"/>
<polygon fill="#666666" stroke="#666666" points="0.5,-234 0.5,-234 129.5,-234 129.5,-234 0.5,-234"/>
<polygon fill="none" stroke="#666666" points="0,-217 0,-277 129,-277 129,-217 0,-217"/>
</a>
</g>
</g>
<!-- Node2&#45;&gt;Node1 -->
<g id="edge1_Node000001_Node000002" class="edge">
<title>Node2&#45;&gt;Node1</title>
<g id="a_edge1_Node000001_Node000002"><a xlink:title=" ">
<path fill="none" stroke="#63b8ff" d="M64.5,-216.56C64.5,-179.16 64.5,-114.43 64.5,-72.17"/>
<polygon fill="none" stroke="#63b8ff" points="64.5,-72.09 60.5,-66.09 64.5,-60.09 68.5,-66.09 64.5,-72.09"/>
</a>
</g>
<text text-anchor="middle" x="78.5" y="-191" font-family="Helvetica,sans-Serif" font-size="10.00" fill="grey"> +cs</text>
<text text-anchor="middle" x="78.5" y="-180" font-family="Helvetica,sans-Serif" font-size="10.00" fill="grey">+ds</text>
<text text-anchor="middle" x="78.5" y="-169" font-family="Helvetica,sans-Serif" font-size="10.00" fill="grey">+es</text>
<text text-anchor="middle" x="78.5" y="-158" font-family="Helvetica,sans-Serif" font-size="10.00" fill="grey">+fs</text>
<text text-anchor="middle" x="78.5" y="-147" font-family="Helvetica,sans-Serif" font-size="10.00" fill="grey">+gdtr</text>
<text text-anchor="middle" x="78.5" y="-136" font-family="Helvetica,sans-Serif" font-size="10.00" fill="grey">+gs</text>
<text text-anchor="middle" x="78.5" y="-125" font-family="Helvetica,sans-Serif" font-size="10.00" fill="grey">+idtr</text>
<text text-anchor="middle" x="78.5" y="-114" font-family="Helvetica,sans-Serif" font-size="10.00" fill="grey">+ldtr</text>
<text text-anchor="middle" x="78.5" y="-103" font-family="Helvetica,sans-Serif" font-size="10.00" fill="grey">+ss</text>
<text text-anchor="middle" x="78.5" y="-92" font-family="Helvetica,sans-Serif" font-size="10.00" fill="grey">+tr</text>
<text text-anchor="middle" x="78.5" y="-81" font-family="Helvetica,sans-Serif" font-size="10.00" fill="grey">...</text>
</g>
</g>
</svg>
