<?xml version="1.0" encoding="UTF-8" standalone="no"?>
<!DOCTYPE svg PUBLIC "-//W3C//DTD SVG 1.1//EN"
 "http://www.w3.org/Graphics/SVG/1.1/DTD/svg11.dtd">
<!-- Generated by graphviz version 2.42.4 (0)
 -->
<!-- Title: L4::Epiface Pages: 1 -->
<svg width="1735pt" height="667pt"
 viewBox="0.00 0.00 1735.00 667.00" xmlns="http://www.w3.org/2000/svg" xmlns:xlink="http://www.w3.org/1999/xlink">
<g id="graph0" class="graph" transform="scale(1 1) rotate(0) translate(4 663)">
<title>L4::Epiface</title>
<!-- Node1 -->
<g id="Node000001" class="node">
<title>Node1</title>
<g id="a_Node000001"><a xlink:title="Base class for interface implementations.">
<polygon fill="#999999" stroke="transparent" points="555,-659 431,-659 431,-505 555,-505 555,-659"/>
<text text-anchor="start" x="466" y="-647" font-family="Helvetica,sans-Serif" font-size="10.00">L4::Epiface</text>
<text text-anchor="start" x="491" y="-632" font-family="Helvetica,sans-Serif" font-size="10.00"> </text>
<text text-anchor="start" x="435" y="-617" font-family="Helvetica,sans-Serif" font-size="10.00">+</text>
<text text-anchor="start" x="448" y="-617" font-family="Helvetica,sans-Serif" font-size="10.00">Epiface()</text>
<text text-anchor="start" x="435" y="-602" font-family="Helvetica,sans-Serif" font-size="10.00">+</text>
<text text-anchor="start" x="448" y="-602" font-family="Helvetica,sans-Serif" font-size="10.00">dispatch()</text>
<text text-anchor="start" x="435" y="-587" font-family="Helvetica,sans-Serif" font-size="10.00">+</text>
<text text-anchor="start" x="448" y="-587" font-family="Helvetica,sans-Serif" font-size="10.00">get_buffer_demand()</text>
<text text-anchor="start" x="435" y="-572" font-family="Helvetica,sans-Serif" font-size="10.00">+</text>
<text text-anchor="start" x="448" y="-572" font-family="Helvetica,sans-Serif" font-size="10.00">~Epiface()</text>
<text text-anchor="start" x="435" y="-557" font-family="Helvetica,sans-Serif" font-size="10.00">+</text>
<text text-anchor="start" x="448" y="-557" font-family="Helvetica,sans-Serif" font-size="10.00">obj_cap()</text>
<text text-anchor="start" x="435" y="-542" font-family="Helvetica,sans-Serif" font-size="10.00">+</text>
<text text-anchor="start" x="448" y="-542" font-family="Helvetica,sans-Serif" font-size="10.00">server_iface()</text>
<text text-anchor="start" x="435" y="-527" font-family="Helvetica,sans-Serif" font-size="10.00">+</text>
<text text-anchor="start" x="448" y="-527" font-family="Helvetica,sans-Serif" font-size="10.00">set_server()</text>
<text text-anchor="start" x="435" y="-512" font-family="Helvetica,sans-Serif" font-size="10.00">+</text>
<text text-anchor="start" x="448" y="-512" font-family="Helvetica,sans-Serif" font-size="10.00">set_obj_cap()</text>
<polygon fill="#666666" stroke="#666666" points="431,-642 431,-642 555,-642 555,-642 431,-642"/>
<polygon fill="#666666" stroke="#666666" points="431,-627 431,-627 555,-627 555,-627 431,-627"/>
<polygon fill="none" stroke="#666666" points="431,-505 431,-659 555,-659 555,-505 431,-505"/>
</a>
</g>
</g>
<!-- Node2 -->
<g id="Node000002" class="node">
<title>Node2</title>
<g id="a_Node000002"><a xlink:href="structL4_1_1Epiface__t0.html" target="_top" xlink:title=" ">
<polygon fill="white" stroke="transparent" points="124,-327.5 0,-327.5 0,-252.5 124,-252.5 124,-327.5"/>
<text text-anchor="start" x="7" y="-315" font-family="Helvetica,sans-Serif" font-size="10.00">L4::Epiface_t0&lt; IFACE,</text>
<text text-anchor="start" x="28" y="-304" font-family="Helvetica,sans-Serif" font-size="10.00"> L4::Epiface &gt;</text>
<text text-anchor="start" x="60" y="-289" font-family="Helvetica,sans-Serif" font-size="10.00"> </text>
<text text-anchor="start" x="4" y="-274" font-family="Helvetica,sans-Serif" font-size="10.00">+</text>
<text text-anchor="start" x="17" y="-274" font-family="Helvetica,sans-Serif" font-size="10.00">get_buffer_demand()</text>
<text text-anchor="start" x="4" y="-259" font-family="Helvetica,sans-Serif" font-size="10.00">+</text>
<text text-anchor="start" x="17" y="-259" font-family="Helvetica,sans-Serif" font-size="10.00">obj_cap()</text>
<polygon fill="#666666" stroke="#666666" points="0,-299 0,-299 124,-299 124,-299 0,-299"/>
<polygon fill="#666666" stroke="#666666" points="0,-284 0,-284 124,-284 124,-284 0,-284"/>
<polygon fill="none" stroke="#666666" points="0,-252.5 0,-327.5 124,-327.5 124,-252.5 0,-252.5"/>
</a>
</g>
</g>
<!-- Node1&#45;&gt;Node2 -->
<g id="edge1_Node000001_Node000002" class="edge">
<title>Node1&#45;&gt;Node2</title>
<g id="a_edge1_Node000001_Node000002"><a xlink:title=" ">
<path fill="none" stroke="#63b8ff" d="M420.5,-577.42C338.76,-569.59 206.77,-544.96 126,-468 86.85,-430.69 71.57,-367.65 65.66,-327.73"/>
<polygon fill="none" stroke="#63b8ff" points="420.43,-580.93 430.7,-578.33 421.06,-573.96 420.43,-580.93"/>
</a>
</g>
</g>
<!-- Node3 -->
<g id="Node000003" class="node">
<title>Node3</title>
<g id="a_Node000003"><a xlink:href="structL4_1_1Epiface__t0.html" target="_top" xlink:title=" ">
<polygon fill="white" stroke="transparent" points="266,-327.5 142,-327.5 142,-252.5 266,-252.5 266,-327.5"/>
<text text-anchor="start" x="152" y="-315" font-family="Helvetica,sans-Serif" font-size="10.00">L4::Epiface_t0&lt; void,</text>
<text text-anchor="start" x="178.5" y="-304" font-family="Helvetica,sans-Serif" font-size="10.00"> Epiface &gt;</text>
<text text-anchor="start" x="202" y="-289" font-family="Helvetica,sans-Serif" font-size="10.00"> </text>
<text text-anchor="start" x="146" y="-274" font-family="Helvetica,sans-Serif" font-size="10.00">+</text>
<text text-anchor="start" x="159" y="-274" font-family="Helvetica,sans-Serif" font-size="10.00">get_buffer_demand()</text>
<text text-anchor="start" x="146" y="-259" font-family="Helvetica,sans-Serif" font-size="10.00">+</text>
<text text-anchor="start" x="159" y="-259" font-family="Helvetica,sans-Serif" font-size="10.00">obj_cap()</text>
<polygon fill="#666666" stroke="#666666" points="142,-299 142,-299 266,-299 266,-299 142,-299"/>
<polygon fill="#666666" stroke="#666666" points="142,-284 142,-284 266,-284 266,-284 142,-284"/>
<polygon fill="none" stroke="#666666" points="142,-252.5 142,-327.5 266,-327.5 266,-252.5 142,-252.5"/>
</a>
</g>
</g>
<!-- Node1&#45;&gt;Node3 -->
<g id="edge2_Node000001_Node000003" class="edge">
<title>Node1&#45;&gt;Node3</title>
<g id="a_edge2_Node000001_Node000003"><a xlink:title=" ">
<path fill="none" stroke="#63b8ff" d="M420.94,-565.25C331.27,-541.33 182.06,-486.35 117,-375 112.07,-366.56 112.52,-361.69 117,-353 120.61,-345.99 131.41,-336.8 144.24,-327.65"/>
<polygon fill="none" stroke="#63b8ff" points="420.2,-568.67 430.76,-567.81 421.97,-561.9 420.2,-568.67"/>
</a>
</g>
</g>
<!-- Node4 -->
<g id="Node000004" class="node">
<title>Node4</title>
<g id="a_Node000004"><a xlink:href="structL4_1_1Epiface__t0.html" target="_top" xlink:title=" ">
<polygon fill="white" stroke="transparent" points="408,-327.5 284,-327.5 284,-252.5 408,-252.5 408,-327.5"/>
<text text-anchor="start" x="289.5" y="-315" font-family="Helvetica,sans-Serif" font-size="10.00">L4::Epiface_t0&lt; L4</text>
<text text-anchor="start" x="289.5" y="-304" font-family="Helvetica,sans-Serif" font-size="10.00">::Kobject, L4::Epiface &gt;</text>
<text text-anchor="start" x="344" y="-289" font-family="Helvetica,sans-Serif" font-size="10.00"> </text>
<text text-anchor="start" x="288" y="-274" font-family="Helvetica,sans-Serif" font-size="10.00">+</text>
<text text-anchor="start" x="301" y="-274" font-family="Helvetica,sans-Serif" font-size="10.00">get_buffer_demand()</text>
<text text-anchor="start" x="288" y="-259" font-family="Helvetica,sans-Serif" font-size="10.00">+</text>
<text text-anchor="start" x="301" y="-259" font-family="Helvetica,sans-Serif" font-size="10.00">obj_cap()</text>
<polygon fill="#666666" stroke="#666666" points="284,-299 284,-299 408,-299 408,-299 284,-299"/>
<polygon fill="#666666" stroke="#666666" points="284,-284 284,-284 408,-284 408,-284 284,-284"/>
<polygon fill="none" stroke="#666666" points="284,-252.5 284,-327.5 408,-327.5 408,-252.5 284,-252.5"/>
</a>
</g>
</g>
<!-- Node1&#45;&gt;Node4 -->
<g id="edge3_Node000001_Node000004" class="edge">
<title>Node1&#45;&gt;Node4</title>
<g id="a_edge3_Node000001_Node000004"><a xlink:title=" ">
<path fill="none" stroke="#63b8ff" d="M422.5,-536.95C371.45,-500.56 306.46,-443.82 277,-375 269.65,-357.82 278.3,-341.37 291.68,-327.65"/>
<polygon fill="none" stroke="#63b8ff" points="420.69,-539.95 430.88,-542.83 424.71,-534.22 420.69,-539.95"/>
</a>
</g>
</g>
<!-- Node5 -->
<g id="Node000005" class="node">
<title>Node5</title>
<g id="a_Node000005"><a xlink:href="structL4_1_1Epiface__t0.html" target="_top" xlink:title=" ">
<polygon fill="white" stroke="transparent" points="1279.5,-327.5 1152.5,-327.5 1152.5,-252.5 1279.5,-252.5 1279.5,-327.5"/>
<text text-anchor="start" x="1158" y="-315" font-family="Helvetica,sans-Serif" font-size="10.00">L4::Epiface_t0&lt; L4virtio</text>
<text text-anchor="start" x="1161" y="-304" font-family="Helvetica,sans-Serif" font-size="10.00">::Device, L4::Epiface &gt;</text>
<text text-anchor="start" x="1214.5" y="-289" font-family="Helvetica,sans-Serif" font-size="10.00"> </text>
<text text-anchor="start" x="1157.5" y="-274" font-family="Helvetica,sans-Serif" font-size="10.00">+</text>
<text text-anchor="start" x="1171" y="-274" font-family="Helvetica,sans-Serif" font-size="10.00">get_buffer_demand()</text>
<text text-anchor="start" x="1157.5" y="-259" font-family="Helvetica,sans-Serif" font-size="10.00">+</text>
<text text-anchor="start" x="1171" y="-259" font-family="Helvetica,sans-Serif" font-size="10.00">obj_cap()</text>
<polygon fill="#666666" stroke="#666666" points="1153,-299 1153,-299 1280,-299 1280,-299 1153,-299"/>
<polygon fill="#666666" stroke="#666666" points="1153,-284 1153,-284 1280,-284 1280,-284 1153,-284"/>
<polygon fill="none" stroke="#666666" points="1152.5,-252.5 1152.5,-327.5 1279.5,-327.5 1279.5,-252.5 1152.5,-252.5"/>
</a>
</g>
</g>
<!-- Node1&#45;&gt;Node5 -->
<g id="edge4_Node000001_Node000005" class="edge">
<title>Node1&#45;&gt;Node5</title>
<g id="a_edge4_Node000001_Node000005"><a xlink:title=" ">
<path fill="none" stroke="#63b8ff" d="M565.16,-572.47C737.99,-550.4 1167.63,-485.33 1252,-375 1262.7,-361.01 1257.35,-343.36 1247.86,-327.85"/>
<polygon fill="none" stroke="#63b8ff" points="564.62,-569.01 555.14,-573.74 565.5,-575.95 564.62,-569.01"/>
</a>
</g>
</g>
<!-- Node6 -->
<g id="Node000006" class="node">
<title>Node6</title>
<g id="a_Node000006"><a xlink:href="structL4_1_1Epiface__t0.html" target="_top" xlink:title="Epiface mixin for generic Kobject&#45;based interfaces.">
<polygon fill="white" stroke="transparent" points="786,-468 662,-468 662,-393 786,-393 786,-468"/>
<text text-anchor="start" x="674" y="-455.5" font-family="Helvetica,sans-Serif" font-size="10.00">L4::Epiface_t0&lt; RPC</text>
<text text-anchor="start" x="686" y="-444.5" font-family="Helvetica,sans-Serif" font-size="10.00">_IFACE, BASE &gt;</text>
<text text-anchor="start" x="722" y="-429.5" font-family="Helvetica,sans-Serif" font-size="10.00"> </text>
<text text-anchor="start" x="666" y="-414.5" font-family="Helvetica,sans-Serif" font-size="10.00">+</text>
<text text-anchor="start" x="679" y="-414.5" font-family="Helvetica,sans-Serif" font-size="10.00">get_buffer_demand()</text>
<text text-anchor="start" x="666" y="-399.5" font-family="Helvetica,sans-Serif" font-size="10.00">+</text>
<text text-anchor="start" x="679" y="-399.5" font-family="Helvetica,sans-Serif" font-size="10.00">obj_cap()</text>
<polygon fill="#666666" stroke="#666666" points="662,-439.5 662,-439.5 786,-439.5 786,-439.5 662,-439.5"/>
<polygon fill="#666666" stroke="#666666" points="662,-424.5 662,-424.5 786,-424.5 786,-424.5 662,-424.5"/>
<polygon fill="none" stroke="#666666" points="662,-393 662,-468 786,-468 786,-393 662,-393"/>
</a>
</g>
</g>
<!-- Node1&#45;&gt;Node6 -->
<g id="edge5_Node000001_Node000006" class="edge">
<title>Node1&#45;&gt;Node6</title>
<g id="a_edge5_Node000001_Node000006"><a xlink:title=" ">
<path fill="none" stroke="#63b8ff" d="M563.95,-535.08C597.11,-513.62 636.05,-488.42 667.22,-468.25"/>
<polygon fill="none" stroke="#63b8ff" points="561.7,-532.37 555.21,-540.74 565.5,-538.25 561.7,-532.37"/>
</a>
</g>
</g>
<!-- Node15 -->
<g id="Node000015" class="node">
<title>Node15</title>
<g id="a_Node000015"><a xlink:href="classL4_1_1Server__object.html" target="_top" xlink:title="Abstract server object to be used with L4::Server and L4::Basic_registry.">
<polygon fill="white" stroke="transparent" points="1465.5,-462.5 1370.5,-462.5 1370.5,-398.5 1465.5,-398.5 1465.5,-462.5"/>
<text text-anchor="start" x="1376" y="-450.5" font-family="Helvetica,sans-Serif" font-size="10.00">L4::Server_object</text>
<text text-anchor="start" x="1416.5" y="-435.5" font-family="Helvetica,sans-Serif" font-size="10.00"> </text>
<text text-anchor="start" x="1381" y="-420.5" font-family="Helvetica,sans-Serif" font-size="10.00">+</text>
<text text-anchor="start" x="1400" y="-420.5" font-family="Helvetica,sans-Serif" font-size="10.00">dispatch()</text>
<text text-anchor="start" x="1381" y="-405.5" font-family="Helvetica,sans-Serif" font-size="10.00">+</text>
<text text-anchor="start" x="1400" y="-405.5" font-family="Helvetica,sans-Serif" font-size="10.00">dispatch()</text>
<polygon fill="#666666" stroke="#666666" points="1371,-445.5 1371,-445.5 1466,-445.5 1466,-445.5 1371,-445.5"/>
<polygon fill="#666666" stroke="#666666" points="1371,-430.5 1371,-430.5 1466,-430.5 1466,-430.5 1371,-430.5"/>
<polygon fill="none" stroke="#666666" points="1370.5,-398.5 1370.5,-462.5 1465.5,-462.5 1465.5,-398.5 1370.5,-398.5"/>
</a>
</g>
</g>
<!-- Node1&#45;&gt;Node15 -->
<g id="edge22_Node000001_Node000015" class="edge">
<title>Node1&#45;&gt;Node15</title>
<g id="a_edge22_Node000001_Node000015"><a xlink:title=" ">
<path fill="none" stroke="#63b8ff" d="M565.42,-578.71C705.52,-572.88 1022.5,-552.92 1280,-487 1310.9,-479.09 1344.1,-465.9 1370.19,-454.36"/>
<polygon fill="none" stroke="#63b8ff" points="565.09,-575.22 555.24,-579.12 565.37,-582.21 565.09,-575.22"/>
</a>
</g>
</g>
<!-- Node6&#45;&gt;Node2 -->
<g id="edge16_Node000006_Node000002" class="edge">
<title>Node6&#45;&gt;Node2</title>
<g id="a_edge16_Node000006_Node000002"><a xlink:title=" ">
<path fill="none" stroke="orange" d="M651.72,-428.49C517.99,-425.67 237.63,-415.02 150,-375 126.75,-364.38 105.82,-345.04 90.21,-327.58"/>
<polygon fill="orange" stroke="orange" points="651.79,-431.99 661.86,-428.7 651.94,-424.99 651.79,-431.99"/>
</a>
</g>
<text text-anchor="middle" x="206" y="-361.5" font-family="Helvetica,sans-Serif" font-size="10.00" fill="grey"> &lt; IFACE, L4::Epiface &gt;</text>
</g>
<!-- Node6&#45;&gt;Node3 -->
<g id="edge18_Node000006_Node000003" class="edge">
<title>Node6&#45;&gt;Node3</title>
<g id="a_edge18_Node000006_Node000003"><a xlink:title=" ">
<path fill="none" stroke="orange" d="M651.83,-425.17C548.2,-418.12 362.99,-402.13 302,-375 277.43,-364.07 254.36,-344.93 236.79,-327.68"/>
<polygon fill="orange" stroke="orange" points="651.69,-428.67 661.9,-425.85 652.16,-421.69 651.69,-428.67"/>
</a>
</g>
<text text-anchor="middle" x="346.5" y="-361.5" font-family="Helvetica,sans-Serif" font-size="10.00" fill="grey"> &lt; void, Epiface &gt;</text>
</g>
<!-- Node6&#45;&gt;Node4 -->
<g id="edge20_Node000006_Node000004" class="edge">
<title>Node6&#45;&gt;Node4</title>
<g id="a_edge20_Node000006_Node000004"><a xlink:title=" ">
<path fill="none" stroke="orange" d="M651.66,-429.55C587.32,-426.67 492.62,-415.06 421,-375 400.7,-363.64 383.06,-344.69 370,-327.67"/>
<polygon fill="orange" stroke="orange" points="651.58,-433.05 661.71,-429.94 651.86,-426.05 651.58,-433.05"/>
</a>
</g>
<text text-anchor="start" x="421" y="-367" font-family="Helvetica,sans-Serif" font-size="10.00" fill="grey"> &lt; L4::Kobject, L4::</text>
<text text-anchor="middle" x="466.5" y="-356" font-family="Helvetica,sans-Serif" font-size="10.00" fill="grey">Epiface &gt;</text>
</g>
<!-- Node6&#45;&gt;Node5 -->
<g id="edge21_Node000006_Node000005" class="edge">
<title>Node6&#45;&gt;Node5</title>
<g id="a_edge21_Node000006_Node000005"><a xlink:title=" ">
<path fill="none" stroke="orange" d="M796.58,-425.62C898.31,-419.21 1077.31,-404.14 1135,-375 1138.1,-373.44 1161.08,-349.49 1181.77,-327.56"/>
<polygon fill="orange" stroke="orange" points="796.15,-422.14 786.38,-426.25 796.58,-429.13 796.15,-422.14"/>
</a>
</g>
<text text-anchor="start" x="1158" y="-367" font-family="Helvetica,sans-Serif" font-size="10.00" fill="grey"> &lt; L4virtio::Device,</text>
<text text-anchor="middle" x="1205" y="-356" font-family="Helvetica,sans-Serif" font-size="10.00" fill="grey"> L4::Epiface &gt;</text>
</g>
<!-- Node7 -->
<g id="Node000007" class="node">
<title>Node7</title>
<g id="a_Node000007"><a xlink:href="structL4_1_1Epiface__t.html" target="_top" xlink:title=" ">
<polygon fill="white" stroke="transparent" points="700.5,-166.5 577.5,-166.5 577.5,-106.5 700.5,-106.5 700.5,-166.5"/>
<text text-anchor="start" x="583" y="-154.5" font-family="Helvetica,sans-Serif" font-size="10.00">L4::Epiface_t&lt; Null</text>
<text text-anchor="start" x="583" y="-143.5" font-family="Helvetica,sans-Serif" font-size="10.00">_handler, L4::Kobject &gt;</text>
<text text-anchor="start" x="637.5" y="-128.5" font-family="Helvetica,sans-Serif" font-size="10.00"> </text>
<text text-anchor="start" x="637.5" y="-113.5" font-family="Helvetica,sans-Serif" font-size="10.00"> </text>
<polygon fill="#666666" stroke="#666666" points="578,-138.5 578,-138.5 701,-138.5 701,-138.5 578,-138.5"/>
<polygon fill="#666666" stroke="#666666" points="578,-123.5 578,-123.5 701,-123.5 701,-123.5 578,-123.5"/>
<polygon fill="none" stroke="#666666" points="577.5,-106.5 577.5,-166.5 700.5,-166.5 700.5,-106.5 577.5,-106.5"/>
</a>
</g>
</g>
<!-- Node6&#45;&gt;Node7 -->
<g id="edge6_Node000006_Node000007" class="edge">
<title>Node6&#45;&gt;Node7</title>
<g id="a_edge6_Node000006_Node000007"><a xlink:title=" ">
<path fill="none" stroke="#63b8ff" d="M729.71,-382.92C732.14,-342.78 729.38,-285.12 701,-245 690.67,-230.4 676.45,-240.74 665,-227 650.81,-209.97 644.36,-185.54 641.43,-166.5"/>
<polygon fill="none" stroke="#63b8ff" points="726.22,-382.75 728.97,-392.98 733.2,-383.26 726.22,-382.75"/>
</a>
</g>
</g>
<!-- Node8 -->
<g id="Node000008" class="node">
<title>Node8</title>
<g id="a_Node000008"><a xlink:href="structL4_1_1Epiface__t.html" target="_top" xlink:title=" ">
<polygon fill="white" stroke="transparent" points="872.5,-172 733.5,-172 733.5,-101 872.5,-101 872.5,-172"/>
<text text-anchor="start" x="739" y="-159.5" font-family="Helvetica,sans-Serif" font-size="10.00">L4::Epiface_t&lt; Block</text>
<text text-anchor="start" x="739" y="-148.5" font-family="Helvetica,sans-Serif" font-size="10.00">_dev&lt; Ds_data &gt;, L4virtio</text>
<text text-anchor="start" x="777.5" y="-137.5" font-family="Helvetica,sans-Serif" font-size="10.00">::Device &gt;</text>
<text text-anchor="start" x="801.5" y="-122.5" font-family="Helvetica,sans-Serif" font-size="10.00"> </text>
<text text-anchor="start" x="801.5" y="-107.5" font-family="Helvetica,sans-Serif" font-size="10.00"> </text>
<polygon fill="#666666" stroke="#666666" points="734,-132.5 734,-132.5 873,-132.5 873,-132.5 734,-132.5"/>
<polygon fill="#666666" stroke="#666666" points="734,-117.5 734,-117.5 873,-117.5 873,-117.5 734,-117.5"/>
<polygon fill="none" stroke="#666666" points="733.5,-101 733.5,-172 872.5,-172 872.5,-101 733.5,-101"/>
</a>
</g>
</g>
<!-- Node6&#45;&gt;Node8 -->
<g id="edge7_Node000006_Node000008" class="edge">
<title>Node6&#45;&gt;Node8</title>
<g id="a_edge7_Node000006_Node000008"><a xlink:title=" ">
<path fill="none" stroke="#63b8ff" d="M795.55,-402.86C826.81,-387.65 861.05,-365.43 882,-335 915.11,-286.91 928.16,-256.69 901,-205 896.22,-195.9 880.35,-183.68 862.73,-172.14"/>
<polygon fill="none" stroke="#63b8ff" points="793.95,-399.74 786.39,-407.17 796.93,-406.08 793.95,-399.74"/>
</a>
</g>
</g>
<!-- Node9 -->
<g id="Node000009" class="node">
<title>Node9</title>
<g id="a_Node000009"><a xlink:href="structL4_1_1Irqep__t.html" target="_top" xlink:title=" ">
<polygon fill="white" stroke="transparent" points="1025,-161 893,-161 893,-112 1025,-112 1025,-161"/>
<text text-anchor="start" x="898" y="-148.5" font-family="Helvetica,sans-Serif" font-size="10.00">L4::Irqep_t&lt; Irq_object &gt;</text>
<text text-anchor="start" x="957" y="-133.5" font-family="Helvetica,sans-Serif" font-size="10.00"> </text>
<text text-anchor="start" x="913" y="-118.5" font-family="Helvetica,sans-Serif" font-size="10.00">+</text>
<text text-anchor="start" x="942" y="-118.5" font-family="Helvetica,sans-Serif" font-size="10.00">obj_cap()</text>
<polygon fill="#666666" stroke="#666666" points="893,-143.5 893,-143.5 1025,-143.5 1025,-143.5 893,-143.5"/>
<polygon fill="#666666" stroke="#666666" points="893,-128.5 893,-128.5 1025,-128.5 1025,-128.5 893,-128.5"/>
<polygon fill="none" stroke="#666666" points="893,-112 893,-161 1025,-161 1025,-112 893,-112"/>
</a>
</g>
</g>
<!-- Node6&#45;&gt;Node9 -->
<g id="edge8_Node000006_Node000009" class="edge">
<title>Node6&#45;&gt;Node9</title>
<g id="a_edge8_Node000006_Node000009"><a xlink:title=" ">
<path fill="none" stroke="#63b8ff" d="M796.18,-414.06C838.5,-400.82 888.36,-376.97 913,-335 946.16,-278.53 955.41,-199.86 958,-161.06"/>
<polygon fill="none" stroke="#63b8ff" points="795.02,-410.75 786.44,-416.96 797.02,-417.46 795.02,-410.75"/>
</a>
</g>
</g>
<!-- Node10 -->
<g id="Node000010" class="node">
<title>Node10</title>
<g id="a_Node000010"><a xlink:href="structL4_1_1Irqep__t.html" target="_top" xlink:title=" ">
<polygon fill="white" stroke="transparent" points="1169.5,-161 1044.5,-161 1044.5,-112 1169.5,-112 1169.5,-161"/>
<text text-anchor="start" x="1050" y="-148.5" font-family="Helvetica,sans-Serif" font-size="10.00">L4::Irqep_t&lt; Host_irq &gt;</text>
<text text-anchor="start" x="1105.5" y="-133.5" font-family="Helvetica,sans-Serif" font-size="10.00"> </text>
<text text-anchor="start" x="1063.5" y="-118.5" font-family="Helvetica,sans-Serif" font-size="10.00">+</text>
<text text-anchor="start" x="1091" y="-118.5" font-family="Helvetica,sans-Serif" font-size="10.00">obj_cap()</text>
<polygon fill="#666666" stroke="#666666" points="1045,-143.5 1045,-143.5 1170,-143.5 1170,-143.5 1045,-143.5"/>
<polygon fill="#666666" stroke="#666666" points="1045,-128.5 1045,-128.5 1170,-128.5 1170,-128.5 1045,-128.5"/>
<polygon fill="none" stroke="#666666" points="1044.5,-112 1044.5,-161 1169.5,-161 1169.5,-112 1044.5,-112"/>
</a>
</g>
</g>
<!-- Node6&#45;&gt;Node10 -->
<g id="edge9_Node000006_Node000010" class="edge">
<title>Node6&#45;&gt;Node10</title>
<g id="a_edge9_Node000006_Node000010"><a xlink:title=" ">
<path fill="none" stroke="#63b8ff" d="M796.24,-419.28C890.59,-404.56 1048.74,-374.73 1091,-335 1135.76,-292.92 1151.12,-265.02 1138,-205 1134.67,-189.76 1127.56,-173.84 1120.99,-161.3"/>
<polygon fill="none" stroke="#63b8ff" points="795.54,-415.85 786.19,-420.83 796.6,-422.77 795.54,-415.85"/>
</a>
</g>
</g>
<!-- Node11 -->
<g id="Node000011" class="node">
<title>Node11</title>
<g id="a_Node000011"><a xlink:href="structL4_1_1Epiface__t.html" target="_top" xlink:title="Epiface implementation for Kobject&#45;based interface implementations.">
<polygon fill="white" stroke="transparent" points="873.5,-320 748.5,-320 748.5,-260 873.5,-260 873.5,-320"/>
<text text-anchor="start" x="754" y="-308" font-family="Helvetica,sans-Serif" font-size="10.00">L4::Epiface_t&lt; Derived,</text>
<text text-anchor="start" x="761.5" y="-297" font-family="Helvetica,sans-Serif" font-size="10.00"> IFACE, BASE, bool &gt;</text>
<text text-anchor="start" x="809.5" y="-282" font-family="Helvetica,sans-Serif" font-size="10.00"> </text>
<text text-anchor="start" x="766.5" y="-267" font-family="Helvetica,sans-Serif" font-size="10.00">+</text>
<text text-anchor="start" x="793" y="-267" font-family="Helvetica,sans-Serif" font-size="10.00">dispatch()</text>
<polygon fill="#666666" stroke="#666666" points="749,-292 749,-292 874,-292 874,-292 749,-292"/>
<polygon fill="#666666" stroke="#666666" points="749,-277 749,-277 874,-277 874,-277 749,-277"/>
<polygon fill="none" stroke="#666666" points="748.5,-260 748.5,-320 873.5,-320 873.5,-260 748.5,-260"/>
</a>
</g>
</g>
<!-- Node6&#45;&gt;Node11 -->
<g id="edge10_Node000006_Node000011" class="edge">
<title>Node6&#45;&gt;Node11</title>
<g id="a_edge10_Node000006_Node000011"><a xlink:title=" ">
<path fill="none" stroke="#63b8ff" d="M752.43,-384.24C765.7,-363.12 781.09,-338.61 792.77,-320.02"/>
<polygon fill="none" stroke="#63b8ff" points="749.44,-382.42 747.09,-392.75 755.37,-386.14 749.44,-382.42"/>
</a>
</g>
</g>
<!-- Node12 -->
<g id="Node000012" class="node">
<title>Node12</title>
<g id="a_Node000012"><a xlink:href="structL4_1_1Irqep__t.html" target="_top" xlink:title="Epiface implementation for interrupt handlers.">
<polygon fill="white" stroke="transparent" points="1082,-327.5 968,-327.5 968,-252.5 1082,-252.5 1082,-327.5"/>
<text text-anchor="start" x="973" y="-315" font-family="Helvetica,sans-Serif" font-size="10.00">L4::Irqep_t&lt; Derived,</text>
<text text-anchor="start" x="991.5" y="-304" font-family="Helvetica,sans-Serif" font-size="10.00"> BASE, bool &gt;</text>
<text text-anchor="start" x="1023" y="-289" font-family="Helvetica,sans-Serif" font-size="10.00"> </text>
<text text-anchor="start" x="983" y="-274" font-family="Helvetica,sans-Serif" font-size="10.00">+</text>
<text text-anchor="start" x="1007" y="-274" font-family="Helvetica,sans-Serif" font-size="10.00">dispatch()</text>
<text text-anchor="start" x="983" y="-259" font-family="Helvetica,sans-Serif" font-size="10.00">+</text>
<text text-anchor="start" x="1007" y="-259" font-family="Helvetica,sans-Serif" font-size="10.00">obj_cap()</text>
<polygon fill="#666666" stroke="#666666" points="968,-299 968,-299 1082,-299 1082,-299 968,-299"/>
<polygon fill="#666666" stroke="#666666" points="968,-284 968,-284 1082,-284 1082,-284 968,-284"/>
<polygon fill="none" stroke="#666666" points="968,-252.5 968,-327.5 1082,-327.5 1082,-252.5 968,-252.5"/>
</a>
</g>
</g>
<!-- Node6&#45;&gt;Node12 -->
<g id="edge13_Node000006_Node000012" class="edge">
<title>Node6&#45;&gt;Node12</title>
<g id="a_edge13_Node000006_Node000012"><a xlink:title=" ">
<path fill="none" stroke="#63b8ff" d="M796.08,-424.16C843.8,-417.92 906.18,-404.38 954,-375 973.2,-363.21 989.78,-344.44 1002.09,-327.63"/>
<polygon fill="none" stroke="#63b8ff" points="795.62,-420.69 786.13,-425.39 796.48,-427.64 795.62,-420.69"/>
</a>
</g>
</g>
<!-- Node13 -->
<g id="Node000013" class="node">
<title>Node13</title>
<g id="a_Node000013"><a xlink:href="structL4_1_1Epiface__t0.html" target="_top" xlink:title=" ">
<polygon fill="white" stroke="transparent" points="550,-327.5 426,-327.5 426,-252.5 550,-252.5 550,-327.5"/>
<text text-anchor="start" x="433" y="-315" font-family="Helvetica,sans-Serif" font-size="10.00">L4::Epiface_t0&lt; IFACE,</text>
<text text-anchor="start" x="468" y="-304" font-family="Helvetica,sans-Serif" font-size="10.00"> BASE &gt;</text>
<text text-anchor="start" x="486" y="-289" font-family="Helvetica,sans-Serif" font-size="10.00"> </text>
<text text-anchor="start" x="430" y="-274" font-family="Helvetica,sans-Serif" font-size="10.00">+</text>
<text text-anchor="start" x="443" y="-274" font-family="Helvetica,sans-Serif" font-size="10.00">get_buffer_demand()</text>
<text text-anchor="start" x="430" y="-259" font-family="Helvetica,sans-Serif" font-size="10.00">+</text>
<text text-anchor="start" x="443" y="-259" font-family="Helvetica,sans-Serif" font-size="10.00">obj_cap()</text>
<polygon fill="#666666" stroke="#666666" points="426,-299 426,-299 550,-299 550,-299 426,-299"/>
<polygon fill="#666666" stroke="#666666" points="426,-284 426,-284 550,-284 550,-284 426,-284"/>
<polygon fill="none" stroke="#666666" points="426,-252.5 426,-327.5 550,-327.5 550,-252.5 426,-252.5"/>
</a>
</g>
</g>
<!-- Node6&#45;&gt;Node13 -->
<g id="edge17_Node000006_Node000013" class="edge">
<title>Node6&#45;&gt;Node13</title>
<g id="a_edge17_Node000006_Node000013"><a xlink:title=" ">
<path fill="none" stroke="orange" d="M651.88,-422.03C613.83,-415.01 568.28,-401.4 535,-375 519.68,-362.85 508.55,-344.26 500.98,-327.65"/>
<polygon fill="orange" stroke="orange" points="651.44,-425.51 661.89,-423.76 652.63,-418.61 651.44,-425.51"/>
</a>
</g>
<text text-anchor="middle" x="577.5" y="-361.5" font-family="Helvetica,sans-Serif" font-size="10.00" fill="grey"> &lt; IFACE, BASE &gt;</text>
</g>
<!-- Node14 -->
<g id="Node000014" class="node">
<title>Node14</title>
<g id="a_Node000014"><a xlink:href="structL4_1_1Epiface__t0.html" target="_top" xlink:title=" ">
<polygon fill="white" stroke="transparent" points="692,-327.5 568,-327.5 568,-252.5 692,-252.5 692,-327.5"/>
<text text-anchor="start" x="578" y="-315" font-family="Helvetica,sans-Serif" font-size="10.00">L4::Epiface_t0&lt; void,</text>
<text text-anchor="start" x="610" y="-304" font-family="Helvetica,sans-Serif" font-size="10.00"> BASE &gt;</text>
<text text-anchor="start" x="628" y="-289" font-family="Helvetica,sans-Serif" font-size="10.00"> </text>
<text text-anchor="start" x="572" y="-274" font-family="Helvetica,sans-Serif" font-size="10.00">+</text>
<text text-anchor="start" x="585" y="-274" font-family="Helvetica,sans-Serif" font-size="10.00">get_buffer_demand()</text>
<text text-anchor="start" x="572" y="-259" font-family="Helvetica,sans-Serif" font-size="10.00">+</text>
<text text-anchor="start" x="585" y="-259" font-family="Helvetica,sans-Serif" font-size="10.00">obj_cap()</text>
<polygon fill="#666666" stroke="#666666" points="568,-299 568,-299 692,-299 692,-299 568,-299"/>
<polygon fill="#666666" stroke="#666666" points="568,-284 568,-284 692,-284 692,-284 568,-284"/>
<polygon fill="none" stroke="#666666" points="568,-252.5 568,-327.5 692,-327.5 692,-252.5 568,-252.5"/>
</a>
</g>
</g>
<!-- Node6&#45;&gt;Node14 -->
<g id="edge19_Node000006_Node000014" class="edge">
<title>Node6&#45;&gt;Node14</title>
<g id="a_edge19_Node000006_Node000014"><a xlink:title=" ">
<path fill="none" stroke="orange" d="M653.37,-399.29C644.46,-392.58 636.54,-384.54 631,-375 622.87,-361 621.6,-343.35 622.77,-327.85"/>
<polygon fill="orange" stroke="orange" points="651.58,-402.31 661.8,-405.1 655.55,-396.54 651.58,-402.31"/>
</a>
</g>
<text text-anchor="middle" x="670.5" y="-361.5" font-family="Helvetica,sans-Serif" font-size="10.00" fill="grey"> &lt; void, BASE &gt;</text>
</g>
<!-- Node11&#45;&gt;Node7 -->
<g id="edge11_Node000011_Node000007" class="edge">
<title>Node11&#45;&gt;Node7</title>
<g id="a_edge11_Node000011_Node000007"><a xlink:title=" ">
<path fill="none" stroke="orange" d="M753.83,-255C747.22,-251.47 740.52,-248.06 734,-245 713.38,-235.32 703.08,-242.07 686,-227 667.84,-210.98 655.6,-186.22 648.18,-166.8"/>
<polygon fill="orange" stroke="orange" points="752.29,-258.15 762.75,-259.86 755.64,-252 752.29,-258.15"/>
</a>
</g>
<text text-anchor="start" x="686" y="-219" font-family="Helvetica,sans-Serif" font-size="10.00" fill="grey"> &lt; Null_handler, L4</text>
<text text-anchor="middle" x="733" y="-208" font-family="Helvetica,sans-Serif" font-size="10.00" fill="grey">::Kobject &gt;</text>
</g>
<!-- Node11&#45;&gt;Node8 -->
<g id="edge12_Node000011_Node000008" class="edge">
<title>Node11&#45;&gt;Node8</title>
<g id="a_edge12_Node000011_Node000008"><a xlink:title=" ">
<path fill="none" stroke="orange" d="M792.09,-250.46C789.15,-242.85 786.57,-234.8 785,-227 781.37,-208.98 784.73,-188.91 789.48,-172.35"/>
<polygon fill="orange" stroke="orange" points="788.9,-251.9 795.95,-259.8 795.37,-249.23 788.9,-251.9"/>
</a>
</g>
<text text-anchor="start" x="785" y="-219" font-family="Helvetica,sans-Serif" font-size="10.00" fill="grey"> &lt; Block_dev&lt; Ds_data</text>
<text text-anchor="middle" x="843" y="-208" font-family="Helvetica,sans-Serif" font-size="10.00" fill="grey"> &gt;, L4virtio::Device &gt;</text>
</g>
<!-- Node12&#45;&gt;Node9 -->
<g id="edge14_Node000012_Node000009" class="edge">
<title>Node12&#45;&gt;Node9</title>
<g id="a_edge14_Node000012_Node000009"><a xlink:title=" ">
<path fill="none" stroke="orange" d="M983.7,-244.04C980,-238.56 976.65,-232.83 974,-227 964.47,-206.07 960.93,-179.9 959.65,-161.28"/>
<polygon fill="orange" stroke="orange" points="981.06,-246.38 989.76,-252.43 986.74,-242.28 981.06,-246.38"/>
</a>
</g>
<text text-anchor="middle" x="1011" y="-213.5" font-family="Helvetica,sans-Serif" font-size="10.00" fill="grey"> &lt; Irq_object &gt;</text>
</g>
<!-- Node12&#45;&gt;Node10 -->
<g id="edge15_Node000012_Node000010" class="edge">
<title>Node12&#45;&gt;Node10</title>
<g id="a_edge15_Node000012_Node000010"><a xlink:title=" ">
<path fill="none" stroke="orange" d="M1049.68,-243.39C1064.36,-216.29 1082.36,-183.03 1094.23,-161.1"/>
<polygon fill="orange" stroke="orange" points="1046.53,-241.87 1044.85,-252.33 1052.69,-245.2 1046.53,-241.87"/>
</a>
</g>
<text text-anchor="middle" x="1102.5" y="-213.5" font-family="Helvetica,sans-Serif" font-size="10.00" fill="grey"> &lt; Host_irq &gt;</text>
</g>
<!-- Node16 -->
<g id="Node000016" class="node">
<title>Node16</title>
<g id="a_Node000016"><a xlink:href="structL4_1_1Server__object__t.html" target="_top" xlink:title=" ">
<polygon fill="white" stroke="transparent" points="1331.5,-181.5 1188.5,-181.5 1188.5,-91.5 1331.5,-91.5 1331.5,-181.5"/>
<text text-anchor="start" x="1213.5" y="-169.5" font-family="Helvetica,sans-Serif" font-size="10.00">L4::Server_object_t</text>
<text text-anchor="start" x="1231" y="-158.5" font-family="Helvetica,sans-Serif" font-size="10.00">&lt; Kobject &gt;</text>
<text text-anchor="start" x="1258.5" y="-143.5" font-family="Helvetica,sans-Serif" font-size="10.00"> </text>
<text text-anchor="start" x="1193" y="-128.5" font-family="Helvetica,sans-Serif" font-size="10.00">+</text>
<text text-anchor="start" x="1206" y="-128.5" font-family="Helvetica,sans-Serif" font-size="10.00">get_buffer_demand()</text>
<text text-anchor="start" x="1193" y="-113.5" font-family="Helvetica,sans-Serif" font-size="10.00">+</text>
<text text-anchor="start" x="1206" y="-113.5" font-family="Helvetica,sans-Serif" font-size="10.00">dispatch_meta_request()</text>
<text text-anchor="start" x="1193" y="-98.5" font-family="Helvetica,sans-Serif" font-size="10.00">+</text>
<text text-anchor="start" x="1206" y="-98.5" font-family="Helvetica,sans-Serif" font-size="10.00">proto_dispatch()</text>
<polygon fill="#666666" stroke="#666666" points="1189,-153.5 1189,-153.5 1332,-153.5 1332,-153.5 1189,-153.5"/>
<polygon fill="#666666" stroke="#666666" points="1189,-138.5 1189,-138.5 1332,-138.5 1332,-138.5 1189,-138.5"/>
<polygon fill="none" stroke="#666666" points="1188.5,-91.5 1188.5,-181.5 1331.5,-181.5 1331.5,-91.5 1188.5,-91.5"/>
</a>
</g>
</g>
<!-- Node15&#45;&gt;Node16 -->
<g id="edge23_Node000015_Node000016" class="edge">
<title>Node15&#45;&gt;Node16</title>
<g id="a_edge23_Node000015_Node000016"><a xlink:title=" ">
<path fill="none" stroke="#63b8ff" d="M1379.53,-390.68C1364.86,-374.43 1348.84,-354.75 1337,-335 1307.47,-285.76 1285.34,-223.19 1272.55,-181.83"/>
<polygon fill="none" stroke="#63b8ff" points="1377.25,-393.37 1386.59,-398.36 1382.4,-388.63 1377.25,-393.37"/>
</a>
</g>
</g>
<!-- Node18 -->
<g id="Node000018" class="node">
<title>Node18</title>
<g id="a_Node000018"><a xlink:href="structL4_1_1Server__object__t.html" target="_top" xlink:title=" ">
<polygon fill="white" stroke="transparent" points="1647.5,-187 1504.5,-187 1504.5,-86 1647.5,-86 1647.5,-187"/>
<text text-anchor="start" x="1529.5" y="-174.5" font-family="Helvetica,sans-Serif" font-size="10.00">L4::Server_object_t</text>
<text text-anchor="start" x="1529.5" y="-163.5" font-family="Helvetica,sans-Serif" font-size="10.00">&lt; IFACE, L4::Server</text>
<text text-anchor="start" x="1553" y="-152.5" font-family="Helvetica,sans-Serif" font-size="10.00">_object &gt;</text>
<text text-anchor="start" x="1574.5" y="-137.5" font-family="Helvetica,sans-Serif" font-size="10.00"> </text>
<text text-anchor="start" x="1509" y="-122.5" font-family="Helvetica,sans-Serif" font-size="10.00">+</text>
<text text-anchor="start" x="1522" y="-122.5" font-family="Helvetica,sans-Serif" font-size="10.00">get_buffer_demand()</text>
<text text-anchor="start" x="1509" y="-107.5" font-family="Helvetica,sans-Serif" font-size="10.00">+</text>
<text text-anchor="start" x="1522" y="-107.5" font-family="Helvetica,sans-Serif" font-size="10.00">dispatch_meta_request()</text>
<text text-anchor="start" x="1509" y="-92.5" font-family="Helvetica,sans-Serif" font-size="10.00">+</text>
<text text-anchor="start" x="1522" y="-92.5" font-family="Helvetica,sans-Serif" font-size="10.00">proto_dispatch()</text>
<polygon fill="#666666" stroke="#666666" points="1505,-147.5 1505,-147.5 1648,-147.5 1648,-147.5 1505,-147.5"/>
<polygon fill="#666666" stroke="#666666" points="1505,-132.5 1505,-132.5 1648,-132.5 1648,-132.5 1505,-132.5"/>
<polygon fill="none" stroke="#666666" points="1504.5,-86 1504.5,-187 1647.5,-187 1647.5,-86 1504.5,-86"/>
</a>
</g>
</g>
<!-- Node15&#45;&gt;Node18 -->
<g id="edge25_Node000015_Node000018" class="edge">
<title>Node15&#45;&gt;Node18</title>
<g id="a_edge25_Node000015_Node000018"><a xlink:title=" ">
<path fill="none" stroke="#63b8ff" d="M1454.93,-390.58C1469.41,-374.18 1485.5,-354.42 1498,-335 1526.73,-290.36 1529.95,-276.55 1549,-227 1553.89,-214.28 1558.48,-200.26 1562.44,-187.18"/>
<polygon fill="none" stroke="#63b8ff" points="1452.05,-388.55 1447.98,-398.34 1457.26,-393.22 1452.05,-388.55"/>
</a>
</g>
</g>
<!-- Node19 -->
<g id="Node000019" class="node">
<title>Node19</title>
<g id="a_Node000019"><a xlink:href="structL4_1_1Server__object__t.html" target="_top" xlink:title="Base class (template) for server implementing server objects.">
<polygon fill="white" stroke="transparent" points="1489.5,-335 1346.5,-335 1346.5,-245 1489.5,-245 1489.5,-335"/>
<text text-anchor="start" x="1371.5" y="-323" font-family="Helvetica,sans-Serif" font-size="10.00">L4::Server_object_t</text>
<text text-anchor="start" x="1377.5" y="-312" font-family="Helvetica,sans-Serif" font-size="10.00">&lt; IFACE, BASE &gt;</text>
<text text-anchor="start" x="1416.5" y="-297" font-family="Helvetica,sans-Serif" font-size="10.00"> </text>
<text text-anchor="start" x="1351" y="-282" font-family="Helvetica,sans-Serif" font-size="10.00">+</text>
<text text-anchor="start" x="1364" y="-282" font-family="Helvetica,sans-Serif" font-size="10.00">get_buffer_demand()</text>
<text text-anchor="start" x="1351" y="-267" font-family="Helvetica,sans-Serif" font-size="10.00">+</text>
<text text-anchor="start" x="1364" y="-267" font-family="Helvetica,sans-Serif" font-size="10.00">dispatch_meta_request()</text>
<text text-anchor="start" x="1351" y="-252" font-family="Helvetica,sans-Serif" font-size="10.00">+</text>
<text text-anchor="start" x="1364" y="-252" font-family="Helvetica,sans-Serif" font-size="10.00">proto_dispatch()</text>
<polygon fill="#666666" stroke="#666666" points="1347,-307 1347,-307 1490,-307 1490,-307 1347,-307"/>
<polygon fill="#666666" stroke="#666666" points="1347,-292 1347,-292 1490,-292 1490,-292 1347,-292"/>
<polygon fill="none" stroke="#666666" points="1346.5,-245 1346.5,-335 1489.5,-335 1489.5,-245 1346.5,-245"/>
</a>
</g>
</g>
<!-- Node15&#45;&gt;Node19 -->
<g id="edge26_Node000015_Node000019" class="edge">
<title>Node15&#45;&gt;Node19</title>
<g id="a_edge26_Node000015_Node000019"><a xlink:title=" ">
<path fill="none" stroke="#63b8ff" d="M1418,-388.36C1418,-371.59 1418,-352.17 1418,-335.11"/>
<polygon fill="none" stroke="#63b8ff" points="1414.5,-388.42 1418,-398.42 1421.5,-388.42 1414.5,-388.42"/>
</a>
</g>
</g>
<!-- Node21 -->
<g id="Node000021" class="node">
<title>Node21</title>
<g id="a_Node000021"><a xlink:href="structL4_1_1Server__object__x.html" target="_top" xlink:title="Helper class to implement p_dispatch based server objects.">
<polygon fill="white" stroke="transparent" points="1727,-320 1591,-320 1591,-260 1727,-260 1727,-320"/>
<text text-anchor="start" x="1596" y="-308" font-family="Helvetica,sans-Serif" font-size="10.00">L4::Server_object_x</text>
<text text-anchor="start" x="1596" y="-297" font-family="Helvetica,sans-Serif" font-size="10.00">&lt; Derived, IFACE, BASE &gt;</text>
<text text-anchor="start" x="1657" y="-282" font-family="Helvetica,sans-Serif" font-size="10.00"> </text>
<text text-anchor="start" x="1611.5" y="-267" font-family="Helvetica,sans-Serif" font-size="10.00">+</text>
<text text-anchor="start" x="1641" y="-267" font-family="Helvetica,sans-Serif" font-size="10.00">dispatch()</text>
<polygon fill="#666666" stroke="#666666" points="1591,-292 1591,-292 1727,-292 1727,-292 1591,-292"/>
<polygon fill="#666666" stroke="#666666" points="1591,-277 1591,-277 1727,-277 1727,-277 1591,-277"/>
<polygon fill="none" stroke="#666666" points="1591,-260 1591,-320 1727,-320 1727,-260 1591,-260"/>
</a>
</g>
</g>
<!-- Node15&#45;&gt;Node21 -->
<g id="edge30_Node000015_Node000021" class="edge">
<title>Node15&#45;&gt;Node21</title>
<g id="a_edge30_Node000015_Node000021"><a xlink:title=" ">
<path fill="none" stroke="#63b8ff" d="M1475.75,-416.69C1507.28,-408.04 1546.07,-394.56 1577,-375 1600.08,-360.41 1621.47,-338.07 1636.61,-320.11"/>
<polygon fill="none" stroke="#63b8ff" points="1474.56,-413.39 1465.79,-419.34 1476.36,-420.16 1474.56,-413.39"/>
</a>
</g>
</g>
<!-- Node17 -->
<g id="Node000017" class="node">
<title>Node17</title>
<g id="a_Node000017"><a xlink:href="structL4_1_1Irq__handler__object.html" target="_top" xlink:title="Server object base class for handling IRQ messages.">
<polygon fill="white" stroke="transparent" points="1319,-49 1201,-49 1201,0 1319,0 1319,-49"/>
<text text-anchor="start" x="1206" y="-36.5" font-family="Helvetica,sans-Serif" font-size="10.00">L4::Irq_handler_object</text>
<text text-anchor="start" x="1258" y="-21.5" font-family="Helvetica,sans-Serif" font-size="10.00"> </text>
<text text-anchor="start" x="1258" y="-6.5" font-family="Helvetica,sans-Serif" font-size="10.00"> </text>
<polygon fill="#666666" stroke="#666666" points="1201,-31.5 1201,-31.5 1319,-31.5 1319,-31.5 1201,-31.5"/>
<polygon fill="#666666" stroke="#666666" points="1201,-16.5 1201,-16.5 1319,-16.5 1319,-16.5 1201,-16.5"/>
<polygon fill="none" stroke="#666666" points="1201,0 1201,-49 1319,-49 1319,0 1201,0"/>
</a>
</g>
</g>
<!-- Node16&#45;&gt;Node17 -->
<g id="edge24_Node000016_Node000017" class="edge">
<title>Node16&#45;&gt;Node17</title>
<g id="a_edge24_Node000016_Node000017"><a xlink:title=" ">
<path fill="none" stroke="#63b8ff" d="M1260,-81.1C1260,-69.83 1260,-58.52 1260,-49.08"/>
<polygon fill="none" stroke="#63b8ff" points="1256.5,-81.39 1260,-91.39 1263.5,-81.39 1256.5,-81.39"/>
</a>
</g>
</g>
<!-- Node19&#45;&gt;Node16 -->
<g id="edge28_Node000019_Node000016" class="edge">
<title>Node19&#45;&gt;Node16</title>
<g id="a_edge28_Node000019_Node000016"><a xlink:title=" ">
<path fill="none" stroke="orange" d="M1363.29,-237.75C1359.46,-234.12 1355.67,-230.51 1352,-227 1336.7,-212.37 1320.08,-196.28 1305.24,-181.81"/>
<polygon fill="orange" stroke="orange" points="1361.01,-240.4 1370.68,-244.73 1365.82,-235.32 1361.01,-240.4"/>
</a>
</g>
<text text-anchor="middle" x="1383" y="-213.5" font-family="Helvetica,sans-Serif" font-size="10.00" fill="grey"> &lt; Kobject &gt;</text>
</g>
<!-- Node19&#45;&gt;Node18 -->
<g id="edge29_Node000019_Node000018" class="edge">
<title>Node19&#45;&gt;Node18</title>
<g id="a_edge29_Node000019_Node000018"><a xlink:title=" ">
<path fill="none" stroke="orange" d="M1432.51,-235C1437.35,-224.08 1443.7,-213.4 1452,-205 1466.56,-190.26 1476.55,-196.43 1495,-187 1498.08,-185.42 1501.2,-183.78 1504.34,-182.07"/>
<polygon fill="orange" stroke="orange" points="1429.13,-234.02 1428.64,-244.6 1435.63,-236.64 1429.13,-234.02"/>
</a>
</g>
<text text-anchor="start" x="1452" y="-219" font-family="Helvetica,sans-Serif" font-size="10.00" fill="grey"> &lt; IFACE, L4::Server</text>
<text text-anchor="middle" x="1500.5" y="-208" font-family="Helvetica,sans-Serif" font-size="10.00" fill="grey">_object &gt;</text>
</g>
<!-- Node20 -->
<g id="Node000020" class="node">
<title>Node20</title>
<g id="a_Node000020"><a xlink:href="structL4_1_1Server__object__x.html" target="_top" xlink:title="Helper class to implement p_dispatch based server objects.">
<polygon fill="white" stroke="transparent" points="1486,-166.5 1350,-166.5 1350,-106.5 1486,-106.5 1486,-166.5"/>
<text text-anchor="start" x="1355" y="-154.5" font-family="Helvetica,sans-Serif" font-size="10.00">L4::Server_object_x</text>
<text text-anchor="start" x="1355" y="-143.5" font-family="Helvetica,sans-Serif" font-size="10.00">&lt; Derived, IFACE, BASE &gt;</text>
<text text-anchor="start" x="1416" y="-128.5" font-family="Helvetica,sans-Serif" font-size="10.00"> </text>
<text text-anchor="start" x="1370.5" y="-113.5" font-family="Helvetica,sans-Serif" font-size="10.00">+</text>
<text text-anchor="start" x="1400" y="-113.5" font-family="Helvetica,sans-Serif" font-size="10.00">dispatch()</text>
<polygon fill="#666666" stroke="#666666" points="1350,-138.5 1350,-138.5 1486,-138.5 1486,-138.5 1350,-138.5"/>
<polygon fill="#666666" stroke="#666666" points="1350,-123.5 1350,-123.5 1486,-123.5 1486,-123.5 1350,-123.5"/>
<polygon fill="none" stroke="#666666" points="1350,-106.5 1350,-166.5 1486,-166.5 1486,-106.5 1350,-106.5"/>
</a>
</g>
</g>
<!-- Node19&#45;&gt;Node20 -->
<g id="edge27_Node000019_Node000020" class="edge">
<title>Node19&#45;&gt;Node20</title>
<g id="a_edge27_Node000019_Node000020"><a xlink:title=" ">
<path fill="none" stroke="#63b8ff" d="M1418,-234.49C1418,-211.59 1418,-185.88 1418,-166.69"/>
<polygon fill="none" stroke="#63b8ff" points="1414.5,-234.77 1418,-244.77 1421.5,-234.77 1414.5,-234.77"/>
</a>
</g>
</g>
</g>
</svg>
