<?xml version="1.0" encoding="UTF-8" standalone="no"?>
<!DOCTYPE svg PUBLIC "-//W3C//DTD SVG 1.1//EN"
 "http://www.w3.org/Graphics/SVG/1.1/DTD/svg11.dtd">
<!-- Generated by graphviz version 2.43.0 (0)
 -->
<!-- Title: L4::Typeid::Rpc_nocode&lt; OPERATION &gt; Pages: 1 -->
<svg width="253pt" height="369pt"
 viewBox="0.00 0.00 252.50 369.00" xmlns="http://www.w3.org/2000/svg" xmlns:xlink="http://www.w3.org/1999/xlink">
<g id="graph0" class="graph" transform="scale(1 1) rotate(0) translate(4 365)">
<title>L4::Typeid::Rpc_nocode&lt; OPERATION &gt;</title>
<!-- Node1 -->
<g id="Node000001" class="node">
<title>Node1</title>
<g id="a_Node000001"><a xlink:title="List of RPCs of an interface using a single operation without an opcode.">
<polygon fill="#999999" stroke="transparent" points="143.5,-60 19.5,-60 19.5,0 143.5,0 143.5,-60"/>
<text text-anchor="start" x="24.5" y="-48" font-family="Helvetica,sans-Serif" font-size="10.00">L4::Typeid::Rpc_nocode</text>
<text text-anchor="start" x="42" y="-37" font-family="Helvetica,sans-Serif" font-size="10.00">&lt; OPERATION &gt;</text>
<text text-anchor="start" x="79.5" y="-22" font-family="Helvetica,sans-Serif" font-size="10.00"> </text>
<text text-anchor="start" x="79.5" y="-7" font-family="Helvetica,sans-Serif" font-size="10.00"> </text>
<polygon fill="#666666" stroke="#666666" points="19.5,-32 19.5,-32 143.5,-32 143.5,-32 19.5,-32"/>
<polygon fill="#666666" stroke="#666666" points="19.5,-17 19.5,-17 143.5,-17 143.5,-17 19.5,-17"/>
<polygon fill="none" stroke="#666666" points="19.5,0 19.5,-60 143.5,-60 143.5,0 19.5,0"/>
</a>
</g>
</g>
<!-- Node2 -->
<g id="Node000002" class="node">
<title>Node2</title>
<g id="a_Node000002"><a xlink:href="structL4_1_1Typeid_1_1Detail_1_1__Rpcs.html" target="_top" xlink:title=" ">
<polygon fill="white" stroke="transparent" points="163,-157 0,-157 0,-97 163,-97 163,-157"/>
<text text-anchor="start" x="5.5" y="-145" font-family="Helvetica,sans-Serif" font-size="10.00">L4::Typeid::Detail</text>
<text text-anchor="start" x="5.5" y="-134" font-family="Helvetica,sans-Serif" font-size="10.00">::_Rpcs&lt; void, 0, OPERATION &gt;</text>
<text text-anchor="start" x="80" y="-119" font-family="Helvetica,sans-Serif" font-size="10.00"> </text>
<text text-anchor="start" x="80" y="-104" font-family="Helvetica,sans-Serif" font-size="10.00"> </text>
<polygon fill="#666666" stroke="#666666" points="0.5,-129 0.5,-129 163.5,-129 163.5,-129 0.5,-129"/>
<polygon fill="#666666" stroke="#666666" points="0.5,-114 0.5,-114 163.5,-114 163.5,-114 0.5,-114"/>
<polygon fill="none" stroke="#666666" points="0,-97 0,-157 163,-157 163,-97 0,-97"/>
</a>
</g>
</g>
<!-- Node2&#45;&gt;Node1 -->
<g id="edge1_Node000001_Node000002" class="edge">
<title>Node2&#45;&gt;Node1</title>
<g id="a_edge1_Node000001_Node000002"><a xlink:title=" ">
<path fill="none" stroke="#63b8ff" d="M81.5,-86.79C81.5,-77.88 81.5,-68.57 81.5,-60.17"/>
<polygon fill="none" stroke="#63b8ff" points="78,-86.98 81.5,-96.98 85,-86.98 78,-86.98"/>
</a>
</g>
</g>
<!-- Node3 -->
<g id="Node000003" class="node">
<title>Node3</title>
<g id="a_Node000003"><a xlink:href="structL4_1_1Typeid_1_1Detail_1_1Rpcs__end.html" target="_top" xlink:title="Internal end&#45;of&#45;list marker.">
<polygon fill="white" stroke="transparent" points="125,-361 30,-361 30,-301 125,-301 125,-361"/>
<text text-anchor="start" x="35.5" y="-349" font-family="Helvetica,sans-Serif" font-size="10.00">L4::Typeid::Detail</text>
<text text-anchor="start" x="51.5" y="-338" font-family="Helvetica,sans-Serif" font-size="10.00">::Rpcs_end</text>
<text text-anchor="start" x="76" y="-323" font-family="Helvetica,sans-Serif" font-size="10.00"> </text>
<text text-anchor="start" x="76" y="-308" font-family="Helvetica,sans-Serif" font-size="10.00"> </text>
<polygon fill="#666666" stroke="#666666" points="30.5,-333 30.5,-333 125.5,-333 125.5,-333 30.5,-333"/>
<polygon fill="#666666" stroke="#666666" points="30.5,-318 30.5,-318 125.5,-318 125.5,-318 30.5,-318"/>
<polygon fill="none" stroke="#666666" points="30,-301 30,-361 125,-361 125,-301 30,-301"/>
</a>
</g>
</g>
<!-- Node3&#45;&gt;Node2 -->
<g id="edge2_Node000002_Node000003" class="edge">
<title>Node3&#45;&gt;Node2</title>
<g id="a_edge2_Node000002_Node000003"><a xlink:title=" ">
<path fill="none" stroke="#63b8ff" d="M78.28,-290.38C79.06,-251.19 80.23,-192.13 80.92,-157.08"/>
<polygon fill="none" stroke="#63b8ff" points="74.78,-290.56 78.08,-300.63 81.78,-290.7 74.78,-290.56"/>
</a>
</g>
</g>
<!-- Node4 -->
<g id="Node000004" class="node">
<title>Node4</title>
<g id="a_Node000004"><a xlink:href="structL4_1_1Typeid_1_1Detail_1_1__Rpcs.html" target="_top" xlink:title="Empty list of RPCs.">
<polygon fill="white" stroke="transparent" points="229,-264 94,-264 94,-204 229,-204 229,-264"/>
<text text-anchor="start" x="99.5" y="-252" font-family="Helvetica,sans-Serif" font-size="10.00">L4::Typeid::Detail</text>
<text text-anchor="start" x="99.5" y="-241" font-family="Helvetica,sans-Serif" font-size="10.00">::_Rpcs&lt; OPCODE, O, X &gt;</text>
<text text-anchor="start" x="160" y="-226" font-family="Helvetica,sans-Serif" font-size="10.00"> </text>
<text text-anchor="start" x="160" y="-211" font-family="Helvetica,sans-Serif" font-size="10.00"> </text>
<polygon fill="#666666" stroke="#666666" points="94.5,-236 94.5,-236 229.5,-236 229.5,-236 94.5,-236"/>
<polygon fill="#666666" stroke="#666666" points="94.5,-221 94.5,-221 229.5,-221 229.5,-221 94.5,-221"/>
<polygon fill="none" stroke="#666666" points="94,-204 94,-264 229,-264 229,-204 94,-204"/>
</a>
</g>
</g>
<!-- Node3&#45;&gt;Node4 -->
<g id="edge4_Node000004_Node000003" class="edge">
<title>Node3&#45;&gt;Node4</title>
<g id="a_edge4_Node000004_Node000003"><a xlink:title=" ">
<path fill="none" stroke="#63b8ff" d="M109.87,-293.39C118.43,-283.71 127.55,-273.39 135.71,-264.17"/>
<polygon fill="none" stroke="#63b8ff" points="107.16,-291.17 103.16,-300.98 112.41,-295.81 107.16,-291.17"/>
</a>
</g>
</g>
<!-- Node4&#45;&gt;Node2 -->
<g id="edge3_Node000002_Node000004" class="edge">
<title>Node4&#45;&gt;Node2</title>
<g id="a_edge3_Node000002_Node000004"><a xlink:title=" ">
<path fill="none" stroke="orange" d="M133.04,-195.65C123.39,-182.98 112.75,-169.02 103.66,-157.09"/>
<polygon fill="orange" stroke="orange" points="130.37,-197.92 139.22,-203.75 135.94,-193.68 130.37,-197.92"/>
</a>
</g>
<text text-anchor="middle" x="184" y="-178" font-family="Helvetica,sans-Serif" font-size="10.00" fill="grey"> &lt; void, 0, OPERATION &gt;</text>
</g>
</g>
</svg>
