<?xml version="1.0" encoding="UTF-8" standalone="no"?>
<!DOCTYPE svg PUBLIC "-//W3C//DTD SVG 1.1//EN"
 "http://www.w3.org/Graphics/SVG/1.1/DTD/svg11.dtd">
<!-- Generated by graphviz version 2.43.0 (0)
 -->
<!-- Title: L4::Types::Bool&lt; V &gt; Pages: 1 -->
<svg width="1124pt" height="542pt"
 viewBox="0.00 0.00 1123.50 542.00" xmlns="http://www.w3.org/2000/svg" xmlns:xlink="http://www.w3.org/1999/xlink">
<g id="graph0" class="graph" transform="scale(1 1) rotate(0) translate(4 538)">
<title>L4::Types::Bool&lt; V &gt;</title>
<!-- Node1 -->
<g id="Node000001" class="node">
<title>Node1</title>
<g id="a_Node000001"><a xlink:title="Boolean meta type.">
<polygon fill="#999999" stroke="transparent" points="583,-534 470,-534 470,-485 583,-485 583,-534"/>
<text text-anchor="start" x="475.5" y="-521.5" font-family="Helvetica,sans-Serif" font-size="10.00">L4::Types::Bool&lt; V &gt;</text>
<text text-anchor="start" x="525" y="-506.5" font-family="Helvetica,sans-Serif" font-size="10.00"> </text>
<text text-anchor="start" x="525" y="-491.5" font-family="Helvetica,sans-Serif" font-size="10.00"> </text>
<polygon fill="#666666" stroke="#666666" points="470.5,-516.5 470.5,-516.5 583.5,-516.5 583.5,-516.5 470.5,-516.5"/>
<polygon fill="#666666" stroke="#666666" points="470.5,-501.5 470.5,-501.5 583.5,-501.5 583.5,-501.5 470.5,-501.5"/>
<polygon fill="none" stroke="#666666" points="470,-485 470,-534 583,-534 583,-485 470,-485"/>
</a>
</g>
</g>
<!-- Node2 -->
<g id="Node000002" class="node">
<title>Node2</title>
<g id="a_Node000002"><a xlink:href="structL4_1_1Types_1_1Bool.html" target="_top" xlink:title=" ">
<polygon fill="white" stroke="transparent" points="139,-377.5 0,-377.5 0,-295.5 139,-295.5 139,-377.5"/>
<text text-anchor="start" x="5.5" y="-365.5" font-family="Helvetica,sans-Serif" font-size="10.00">L4::Types::Bool&lt; Iface</text>
<text text-anchor="start" x="5.5" y="-354.5" font-family="Helvetica,sans-Serif" font-size="10.00">_conflict&lt; I, L2::type</text>
<text text-anchor="start" x="5.5" y="-343.5" font-family="Helvetica,sans-Serif" font-size="10.00"> &gt;::value||_Conflict&lt; L1</text>
<text text-anchor="start" x="5.5" y="-332.5" font-family="Helvetica,sans-Serif" font-size="10.00">::type, L2::type &gt;::value &gt;</text>
<text text-anchor="start" x="68" y="-317.5" font-family="Helvetica,sans-Serif" font-size="10.00"> </text>
<text text-anchor="start" x="68" y="-302.5" font-family="Helvetica,sans-Serif" font-size="10.00"> </text>
<polygon fill="#666666" stroke="#666666" points="0.5,-327.5 0.5,-327.5 139.5,-327.5 139.5,-327.5 0.5,-327.5"/>
<polygon fill="#666666" stroke="#666666" points="0.5,-312.5 0.5,-312.5 139.5,-312.5 139.5,-312.5 0.5,-312.5"/>
<polygon fill="none" stroke="#666666" points="0,-295.5 0,-377.5 139,-377.5 139,-295.5 0,-295.5"/>
</a>
</g>
</g>
<!-- Node1&#45;&gt;Node2 -->
<g id="edge1_Node000001_Node000002" class="edge">
<title>Node1&#45;&gt;Node2</title>
<g id="a_edge1_Node000001_Node000002"><a xlink:title=" ">
<path fill="none" stroke="orange" d="M459.67,-505.25C352.58,-499.5 151.81,-486.3 125.5,-467 96.86,-445.99 82.7,-407.24 75.8,-377.58"/>
<polygon fill="orange" stroke="orange" points="459.56,-508.75 469.74,-505.78 459.93,-501.76 459.56,-508.75"/>
</a>
</g>
<text text-anchor="start" x="125.5" y="-448" font-family="Helvetica,sans-Serif" font-size="10.00" fill="grey"> &lt; Iface_conflict&lt; I,</text>
<text text-anchor="start" x="125.5" y="-437" font-family="Helvetica,sans-Serif" font-size="10.00" fill="grey"> L2::type &gt;::value||</text>
<text text-anchor="start" x="125.5" y="-426" font-family="Helvetica,sans-Serif" font-size="10.00" fill="grey">_Conflict&lt; L1::type,</text>
<text text-anchor="middle" x="174.5" y="-415" font-family="Helvetica,sans-Serif" font-size="10.00" fill="grey"> L2::type &gt;::value &gt;</text>
</g>
<!-- Node3 -->
<g id="Node000003" class="node">
<title>Node3</title>
<g id="a_Node000003"><a xlink:href="structL4_1_1Types_1_1Bool.html" target="_top" xlink:title=" ">
<polygon fill="white" stroke="transparent" points="276,-383 157,-383 157,-290 276,-290 276,-383"/>
<text text-anchor="start" x="162.5" y="-370.5" font-family="Helvetica,sans-Serif" font-size="10.00">L4::Types::Bool&lt; _</text>
<text text-anchor="start" x="162.5" y="-359.5" font-family="Helvetica,sans-Serif" font-size="10.00">_Iface_conflict&lt; I,</text>
<text text-anchor="start" x="162.5" y="-348.5" font-family="Helvetica,sans-Serif" font-size="10.00"> I2 &gt;::value||_Iface</text>
<text text-anchor="start" x="162.5" y="-337.5" font-family="Helvetica,sans-Serif" font-size="10.00">_conflict&lt; I, LIST::type</text>
<text text-anchor="start" x="189" y="-326.5" font-family="Helvetica,sans-Serif" font-size="10.00"> &gt;::value &gt;</text>
<text text-anchor="start" x="215" y="-311.5" font-family="Helvetica,sans-Serif" font-size="10.00"> </text>
<text text-anchor="start" x="215" y="-296.5" font-family="Helvetica,sans-Serif" font-size="10.00"> </text>
<polygon fill="#666666" stroke="#666666" points="157.5,-321.5 157.5,-321.5 276.5,-321.5 276.5,-321.5 157.5,-321.5"/>
<polygon fill="#666666" stroke="#666666" points="157.5,-306.5 157.5,-306.5 276.5,-306.5 276.5,-306.5 157.5,-306.5"/>
<polygon fill="none" stroke="#666666" points="157,-290 157,-383 276,-383 276,-290 157,-290"/>
</a>
</g>
</g>
<!-- Node1&#45;&gt;Node3 -->
<g id="edge2_Node000001_Node000003" class="edge">
<title>Node1&#45;&gt;Node3</title>
<g id="a_edge2_Node000001_Node000003"><a xlink:title=" ">
<path fill="none" stroke="orange" d="M459.83,-505.41C392.53,-501 294.52,-490.63 265.5,-467 240.34,-446.51 228.09,-411.62 222.13,-383.21"/>
<polygon fill="orange" stroke="orange" points="459.74,-508.91 469.94,-506.04 460.17,-501.92 459.74,-508.91"/>
</a>
</g>
<text text-anchor="start" x="265.5" y="-448" font-family="Helvetica,sans-Serif" font-size="10.00" fill="grey"> &lt; __Iface_conflict</text>
<text text-anchor="start" x="265.5" y="-437" font-family="Helvetica,sans-Serif" font-size="10.00" fill="grey">&lt; I, I2 &gt;::value||_Iface</text>
<text text-anchor="start" x="265.5" y="-426" font-family="Helvetica,sans-Serif" font-size="10.00" fill="grey">_conflict&lt; I, LIST::type</text>
<text text-anchor="middle" x="320" y="-415" font-family="Helvetica,sans-Serif" font-size="10.00" fill="grey"> &gt;::value &gt;</text>
</g>
<!-- Node4 -->
<g id="Node000004" class="node">
<title>Node4</title>
<g id="a_Node000004"><a xlink:href="structL4_1_1Types_1_1Bool.html" target="_top" xlink:title=" ">
<polygon fill="white" stroke="transparent" points="431,-372 294,-372 294,-301 431,-301 431,-372"/>
<text text-anchor="start" x="299.5" y="-359.5" font-family="Helvetica,sans-Serif" font-size="10.00">L4::Types::Bool&lt; I1</text>
<text text-anchor="start" x="299.5" y="-348.5" font-family="Helvetica,sans-Serif" font-size="10.00">::Proto !=PROTO_EMPTY</text>
<text text-anchor="start" x="299.5" y="-337.5" font-family="Helvetica,sans-Serif" font-size="10.00"> &amp;&amp;I1::Proto==I2::Proto &gt;</text>
<text text-anchor="start" x="361" y="-322.5" font-family="Helvetica,sans-Serif" font-size="10.00"> </text>
<text text-anchor="start" x="361" y="-307.5" font-family="Helvetica,sans-Serif" font-size="10.00"> </text>
<polygon fill="#666666" stroke="#666666" points="294.5,-332.5 294.5,-332.5 431.5,-332.5 431.5,-332.5 294.5,-332.5"/>
<polygon fill="#666666" stroke="#666666" points="294.5,-317.5 294.5,-317.5 431.5,-317.5 431.5,-317.5 294.5,-317.5"/>
<polygon fill="none" stroke="#666666" points="294,-301 294,-372 431,-372 431,-301 294,-301"/>
</a>
</g>
</g>
<!-- Node1&#45;&gt;Node4 -->
<g id="edge3_Node000001_Node000004" class="edge">
<title>Node1&#45;&gt;Node4</title>
<g id="a_edge3_Node000001_Node000004"><a xlink:title=" ">
<path fill="none" stroke="orange" d="M460.04,-493.25C444.3,-487.15 428.59,-478.69 416.5,-467 390.05,-441.44 376.01,-400.98 368.95,-372.09"/>
<polygon fill="orange" stroke="orange" points="459.21,-496.68 469.81,-496.76 461.58,-490.09 459.21,-496.68"/>
</a>
</g>
<text text-anchor="start" x="416.5" y="-442.5" font-family="Helvetica,sans-Serif" font-size="10.00" fill="grey"> &lt; I1::Proto !=PROTO</text>
<text text-anchor="start" x="416.5" y="-431.5" font-family="Helvetica,sans-Serif" font-size="10.00" fill="grey">_EMPTY &amp;&amp;I1::Proto=</text>
<text text-anchor="middle" x="469.5" y="-420.5" font-family="Helvetica,sans-Serif" font-size="10.00" fill="grey">=I2::Proto &gt;</text>
</g>
<!-- Node5 -->
<g id="Node000005" class="node">
<title>Node5</title>
<g id="a_Node000005"><a xlink:href="structL4_1_1Types_1_1Bool.html" target="_top" xlink:title=" ">
<polygon fill="white" stroke="transparent" points="604,-383 449,-383 449,-290 604,-290 604,-383"/>
<text text-anchor="start" x="454.5" y="-370.5" font-family="Helvetica,sans-Serif" font-size="10.00">L4::Types::Bool&lt; Typeid</text>
<text text-anchor="start" x="454.5" y="-359.5" font-family="Helvetica,sans-Serif" font-size="10.00">::Conflict&lt; L1::type,</text>
<text text-anchor="start" x="454.5" y="-348.5" font-family="Helvetica,sans-Serif" font-size="10.00"> L2::type &gt;::value||Conflict</text>
<text text-anchor="start" x="454.5" y="-337.5" font-family="Helvetica,sans-Serif" font-size="10.00">&lt; L1, LIST... &gt;::value||Conflict</text>
<text text-anchor="start" x="470.5" y="-326.5" font-family="Helvetica,sans-Serif" font-size="10.00">&lt; L2, LIST... &gt;::value &gt;</text>
<text text-anchor="start" x="525" y="-311.5" font-family="Helvetica,sans-Serif" font-size="10.00"> </text>
<text text-anchor="start" x="525" y="-296.5" font-family="Helvetica,sans-Serif" font-size="10.00"> </text>
<polygon fill="#666666" stroke="#666666" points="449.5,-321.5 449.5,-321.5 604.5,-321.5 604.5,-321.5 449.5,-321.5"/>
<polygon fill="#666666" stroke="#666666" points="449.5,-306.5 449.5,-306.5 604.5,-306.5 604.5,-306.5 449.5,-306.5"/>
<polygon fill="none" stroke="#666666" points="449,-290 449,-383 604,-383 604,-290 449,-290"/>
</a>
</g>
</g>
<!-- Node1&#45;&gt;Node5 -->
<g id="edge4_Node000001_Node000005" class="edge">
<title>Node1&#45;&gt;Node5</title>
<g id="a_edge4_Node000001_Node000005"><a xlink:title=" ">
<path fill="none" stroke="orange" d="M526.5,-474.54C526.5,-448.38 526.5,-411.96 526.5,-383.23"/>
<polygon fill="orange" stroke="orange" points="523,-474.72 526.5,-484.72 530,-474.72 523,-474.72"/>
</a>
</g>
<text text-anchor="start" x="526.5" y="-459" font-family="Helvetica,sans-Serif" font-size="10.00" fill="grey"> &lt; Typeid::Conflict</text>
<text text-anchor="start" x="526.5" y="-448" font-family="Helvetica,sans-Serif" font-size="10.00" fill="grey">&lt; L1::type, L2::type</text>
<text text-anchor="start" x="526.5" y="-437" font-family="Helvetica,sans-Serif" font-size="10.00" fill="grey"> &gt;::value||Conflict&lt;</text>
<text text-anchor="start" x="526.5" y="-426" font-family="Helvetica,sans-Serif" font-size="10.00" fill="grey"> L1, LIST... &gt;::value|</text>
<text text-anchor="start" x="526.5" y="-415" font-family="Helvetica,sans-Serif" font-size="10.00" fill="grey">|Conflict&lt; L2, LIST...</text>
<text text-anchor="middle" x="575" y="-404" font-family="Helvetica,sans-Serif" font-size="10.00" fill="grey"> &gt;::value &gt;</text>
</g>
<!-- Node6 -->
<g id="Node000006" class="node">
<title>Node6</title>
<g id="a_Node000006"><a xlink:href="structL4_1_1Types_1_1Bool.html" target="_top" xlink:title=" ">
<polygon fill="white" stroke="transparent" points="777,-377.5 622,-377.5 622,-295.5 777,-295.5 777,-377.5"/>
<text text-anchor="start" x="627.5" y="-365.5" font-family="Helvetica,sans-Serif" font-size="10.00">L4::Types::Bool&lt; Typeid</text>
<text text-anchor="start" x="627.5" y="-354.5" font-family="Helvetica,sans-Serif" font-size="10.00">::Iface_conflict&lt; I::type,</text>
<text text-anchor="start" x="627.5" y="-343.5" font-family="Helvetica,sans-Serif" font-size="10.00"> L::type &gt;::value||Iface</text>
<text text-anchor="start" x="627.5" y="-332.5" font-family="Helvetica,sans-Serif" font-size="10.00">_conflict&lt; I, LIST... &gt;::value &gt;</text>
<text text-anchor="start" x="698" y="-317.5" font-family="Helvetica,sans-Serif" font-size="10.00"> </text>
<text text-anchor="start" x="698" y="-302.5" font-family="Helvetica,sans-Serif" font-size="10.00"> </text>
<polygon fill="#666666" stroke="#666666" points="622.5,-327.5 622.5,-327.5 777.5,-327.5 777.5,-327.5 622.5,-327.5"/>
<polygon fill="#666666" stroke="#666666" points="622.5,-312.5 622.5,-312.5 777.5,-312.5 777.5,-312.5 622.5,-312.5"/>
<polygon fill="none" stroke="#666666" points="622,-295.5 622,-377.5 777,-377.5 777,-295.5 622,-295.5"/>
</a>
</g>
</g>
<!-- Node1&#45;&gt;Node6 -->
<g id="edge5_Node000001_Node000006" class="edge">
<title>Node1&#45;&gt;Node6</title>
<g id="a_edge5_Node000001_Node000006"><a xlink:title=" ">
<path fill="none" stroke="orange" d="M592.57,-488.89C605.08,-483.18 617.39,-475.98 627.5,-467 654.71,-442.82 673.83,-405.8 685.5,-377.53"/>
<polygon fill="orange" stroke="orange" points="590.83,-485.83 583,-492.97 593.58,-492.27 590.83,-485.83"/>
</a>
</g>
<text text-anchor="start" x="674.5" y="-448" font-family="Helvetica,sans-Serif" font-size="10.00" fill="grey"> &lt; Typeid::Iface_conflict</text>
<text text-anchor="start" x="674.5" y="-437" font-family="Helvetica,sans-Serif" font-size="10.00" fill="grey">&lt; I::type, L::type &gt;::value|</text>
<text text-anchor="start" x="674.5" y="-426" font-family="Helvetica,sans-Serif" font-size="10.00" fill="grey">|Iface_conflict&lt; I, LIST...</text>
<text text-anchor="middle" x="739" y="-415" font-family="Helvetica,sans-Serif" font-size="10.00" fill="grey"> &gt;::value &gt;</text>
</g>
<!-- Node7 -->
<g id="Node000007" class="node">
<title>Node7</title>
<g id="a_Node000007"><a xlink:href="structL4_1_1Types_1_1Bool.html" target="_top" xlink:title=" ">
<polygon fill="white" stroke="transparent" points="925.5,-361 795.5,-361 795.5,-312 925.5,-312 925.5,-361"/>
<text text-anchor="start" x="800.5" y="-348.5" font-family="Helvetica,sans-Serif" font-size="10.00">L4::Types::Bool&lt; false &gt;</text>
<text text-anchor="start" x="858.5" y="-333.5" font-family="Helvetica,sans-Serif" font-size="10.00"> </text>
<text text-anchor="start" x="858.5" y="-318.5" font-family="Helvetica,sans-Serif" font-size="10.00"> </text>
<polygon fill="#666666" stroke="#666666" points="795.5,-343.5 795.5,-343.5 925.5,-343.5 925.5,-343.5 795.5,-343.5"/>
<polygon fill="#666666" stroke="#666666" points="795.5,-328.5 795.5,-328.5 925.5,-328.5 925.5,-328.5 795.5,-328.5"/>
<polygon fill="none" stroke="#666666" points="795.5,-312 795.5,-361 925.5,-361 925.5,-312 795.5,-312"/>
</a>
</g>
</g>
<!-- Node1&#45;&gt;Node7 -->
<g id="edge6_Node000001_Node000007" class="edge">
<title>Node1&#45;&gt;Node7</title>
<g id="a_edge6_Node000001_Node000007"><a xlink:title=" ">
<path fill="none" stroke="orange" d="M593.59,-506.12C665.96,-502.26 775.17,-492.32 807.5,-467 840.68,-441.01 853.23,-390.77 857.87,-361.08"/>
<polygon fill="orange" stroke="orange" points="593.01,-502.64 583.2,-506.64 593.36,-509.63 593.01,-502.64"/>
</a>
</g>
<text text-anchor="middle" x="873.5" y="-431.5" font-family="Helvetica,sans-Serif" font-size="10.00" fill="grey"> &lt; false &gt;</text>
</g>
<!-- Node10 -->
<g id="Node000010" class="node">
<title>Node10</title>
<g id="a_Node000010"><a xlink:href="structL4_1_1Types_1_1Bool.html" target="_top" xlink:title=" ">
<polygon fill="white" stroke="transparent" points="1069,-361 944,-361 944,-312 1069,-312 1069,-361"/>
<text text-anchor="start" x="949.5" y="-348.5" font-family="Helvetica,sans-Serif" font-size="10.00">L4::Types::Bool&lt; true &gt;</text>
<text text-anchor="start" x="1005" y="-333.5" font-family="Helvetica,sans-Serif" font-size="10.00"> </text>
<text text-anchor="start" x="1005" y="-318.5" font-family="Helvetica,sans-Serif" font-size="10.00"> </text>
<polygon fill="#666666" stroke="#666666" points="944.5,-343.5 944.5,-343.5 1069.5,-343.5 1069.5,-343.5 944.5,-343.5"/>
<polygon fill="#666666" stroke="#666666" points="944.5,-328.5 944.5,-328.5 1069.5,-328.5 1069.5,-328.5 944.5,-328.5"/>
<polygon fill="none" stroke="#666666" points="944,-312 944,-361 1069,-361 1069,-312 944,-312"/>
</a>
</g>
</g>
<!-- Node1&#45;&gt;Node10 -->
<g id="edge9_Node000001_Node000010" class="edge">
<title>Node1&#45;&gt;Node10</title>
<g id="a_edge9_Node000001_Node000010"><a xlink:title=" ">
<path fill="none" stroke="orange" d="M593.29,-507.2C686.73,-504.36 850.83,-495.37 902.5,-467 946.61,-442.79 978.91,-391.41 995,-361.16"/>
<polygon fill="orange" stroke="orange" points="592.98,-503.7 583.09,-507.49 593.18,-510.7 592.98,-503.7"/>
</a>
</g>
<text text-anchor="middle" x="993.5" y="-431.5" font-family="Helvetica,sans-Serif" font-size="10.00" fill="grey"> &lt; true &gt;</text>
</g>
<!-- Node8 -->
<g id="Node000008" class="node">
<title>Node8</title>
<g id="a_Node000008"><a xlink:href="structL4_1_1Types_1_1False.html" target="_top" xlink:title="False meta value.">
<polygon fill="white" stroke="transparent" points="903.5,-253 817.5,-253 817.5,-204 903.5,-204 903.5,-253"/>
<text text-anchor="start" x="822.5" y="-240.5" font-family="Helvetica,sans-Serif" font-size="10.00">L4::Types::False</text>
<text text-anchor="start" x="858.5" y="-225.5" font-family="Helvetica,sans-Serif" font-size="10.00"> </text>
<text text-anchor="start" x="858.5" y="-210.5" font-family="Helvetica,sans-Serif" font-size="10.00"> </text>
<polygon fill="#666666" stroke="#666666" points="817.5,-235.5 817.5,-235.5 903.5,-235.5 903.5,-235.5 817.5,-235.5"/>
<polygon fill="#666666" stroke="#666666" points="817.5,-220.5 817.5,-220.5 903.5,-220.5 903.5,-220.5 817.5,-220.5"/>
<polygon fill="none" stroke="#666666" points="817.5,-204 817.5,-253 903.5,-253 903.5,-204 817.5,-204"/>
</a>
</g>
</g>
<!-- Node7&#45;&gt;Node8 -->
<g id="edge7_Node000007_Node000008" class="edge">
<title>Node7&#45;&gt;Node8</title>
<g id="a_edge7_Node000007_Node000008"><a xlink:title=" ">
<path fill="none" stroke="#63b8ff" d="M860.5,-301.59C860.5,-285.86 860.5,-267.56 860.5,-253.33"/>
<polygon fill="none" stroke="#63b8ff" points="857,-301.98 860.5,-311.98 864,-301.98 857,-301.98"/>
</a>
</g>
</g>
<!-- Node9 -->
<g id="Node000009" class="node">
<title>Node9</title>
<g id="a_Node000009"><a xlink:href="structL4_1_1Types_1_1Same.html" target="_top" xlink:title="Compare two data types for equality.">
<polygon fill="white" stroke="transparent" points="926,-161.5 795,-161.5 795,-112.5 926,-112.5 926,-161.5"/>
<text text-anchor="start" x="800.5" y="-149" font-family="Helvetica,sans-Serif" font-size="10.00">L4::Types::Same&lt; A, B &gt;</text>
<text text-anchor="start" x="859" y="-134" font-family="Helvetica,sans-Serif" font-size="10.00"> </text>
<text text-anchor="start" x="859" y="-119" font-family="Helvetica,sans-Serif" font-size="10.00"> </text>
<polygon fill="#666666" stroke="#666666" points="795.5,-144 795.5,-144 926.5,-144 926.5,-144 795.5,-144"/>
<polygon fill="#666666" stroke="#666666" points="795.5,-129 795.5,-129 926.5,-129 926.5,-129 795.5,-129"/>
<polygon fill="none" stroke="#666666" points="795,-112.5 795,-161.5 926,-161.5 926,-112.5 795,-112.5"/>
</a>
</g>
</g>
<!-- Node8&#45;&gt;Node9 -->
<g id="edge8_Node000008_Node000009" class="edge">
<title>Node8&#45;&gt;Node9</title>
<g id="a_edge8_Node000008_Node000009"><a xlink:title=" ">
<path fill="none" stroke="#63b8ff" d="M860.5,-193.71C860.5,-183.03 860.5,-171.48 860.5,-161.67"/>
<polygon fill="none" stroke="#63b8ff" points="857,-193.98 860.5,-203.98 864,-193.98 857,-193.98"/>
</a>
</g>
</g>
<!-- Node11 -->
<g id="Node000011" class="node">
<title>Node11</title>
<g id="a_Node000011"><a xlink:href="structL4_1_1Types_1_1True.html" target="_top" xlink:title="True meta value.">
<polygon fill="white" stroke="transparent" points="1047.5,-253 965.5,-253 965.5,-204 1047.5,-204 1047.5,-253"/>
<text text-anchor="start" x="970.5" y="-240.5" font-family="Helvetica,sans-Serif" font-size="10.00">L4::Types::True</text>
<text text-anchor="start" x="1004.5" y="-225.5" font-family="Helvetica,sans-Serif" font-size="10.00"> </text>
<text text-anchor="start" x="1004.5" y="-210.5" font-family="Helvetica,sans-Serif" font-size="10.00"> </text>
<polygon fill="#666666" stroke="#666666" points="965.5,-235.5 965.5,-235.5 1047.5,-235.5 1047.5,-235.5 965.5,-235.5"/>
<polygon fill="#666666" stroke="#666666" points="965.5,-220.5 965.5,-220.5 1047.5,-220.5 1047.5,-220.5 965.5,-220.5"/>
<polygon fill="none" stroke="#666666" points="965.5,-204 965.5,-253 1047.5,-253 1047.5,-204 965.5,-204"/>
</a>
</g>
</g>
<!-- Node10&#45;&gt;Node11 -->
<g id="edge10_Node000010_Node000011" class="edge">
<title>Node10&#45;&gt;Node11</title>
<g id="a_edge10_Node000010_Node000011"><a xlink:title=" ">
<path fill="none" stroke="#63b8ff" d="M1006.5,-301.59C1006.5,-285.86 1006.5,-267.56 1006.5,-253.33"/>
<polygon fill="none" stroke="#63b8ff" points="1003,-301.98 1006.5,-311.98 1010,-301.98 1003,-301.98"/>
</a>
</g>
</g>
<!-- Node12 -->
<g id="Node000012" class="node">
<title>Node12</title>
<g id="a_Node000012"><a xlink:href="structL4_1_1Ipc_1_1Msg_1_1Is__valid__rpc__type.html" target="_top" xlink:title=" ">
<polygon fill="white" stroke="transparent" points="1047.5,-60 935.5,-60 935.5,0 1047.5,0 1047.5,-60"/>
<text text-anchor="start" x="940.5" y="-48" font-family="Helvetica,sans-Serif" font-size="10.00">L4::Ipc::Msg::Is_valid</text>
<text text-anchor="start" x="949" y="-37" font-family="Helvetica,sans-Serif" font-size="10.00">_rpc_type&lt; A * &gt;</text>
<text text-anchor="start" x="989.5" y="-22" font-family="Helvetica,sans-Serif" font-size="10.00"> </text>
<text text-anchor="start" x="989.5" y="-7" font-family="Helvetica,sans-Serif" font-size="10.00"> </text>
<polygon fill="#666666" stroke="#666666" points="935.5,-32 935.5,-32 1047.5,-32 1047.5,-32 935.5,-32"/>
<polygon fill="#666666" stroke="#666666" points="935.5,-17 935.5,-17 1047.5,-17 1047.5,-17 935.5,-17"/>
<polygon fill="none" stroke="#666666" points="935.5,0 935.5,-60 1047.5,-60 1047.5,0 935.5,0"/>
</a>
</g>
</g>
<!-- Node11&#45;&gt;Node12 -->
<g id="edge11_Node000011_Node000012" class="edge">
<title>Node11&#45;&gt;Node12</title>
<g id="a_edge11_Node000011_Node000012"><a xlink:title=" ">
<path fill="none" stroke="#63b8ff" d="M998.77,-193.95C997.05,-185.22 995.46,-175.8 994.5,-167 990.48,-130.26 990.26,-87.61 990.69,-60.01"/>
<polygon fill="none" stroke="#63b8ff" points="995.35,-194.72 1000.81,-203.8 1002.21,-193.3 995.35,-194.72"/>
</a>
</g>
</g>
<!-- Node13 -->
<g id="Node000013" class="node">
<title>Node13</title>
<g id="a_Node000013"><a xlink:href="structL4_1_1Ipc_1_1Msg_1_1Is__valid__rpc__type.html" target="_top" xlink:title="Type trait defining a valid RPC parameter type.">
<polygon fill="white" stroke="transparent" points="1115.5,-167 1003.5,-167 1003.5,-107 1115.5,-107 1115.5,-167"/>
<text text-anchor="start" x="1008.5" y="-155" font-family="Helvetica,sans-Serif" font-size="10.00">L4::Ipc::Msg::Is_valid</text>
<text text-anchor="start" x="1021.5" y="-144" font-family="Helvetica,sans-Serif" font-size="10.00">_rpc_type&lt; T &gt;</text>
<text text-anchor="start" x="1057.5" y="-129" font-family="Helvetica,sans-Serif" font-size="10.00"> </text>
<text text-anchor="start" x="1057.5" y="-114" font-family="Helvetica,sans-Serif" font-size="10.00"> </text>
<polygon fill="#666666" stroke="#666666" points="1003.5,-139 1003.5,-139 1115.5,-139 1115.5,-139 1003.5,-139"/>
<polygon fill="#666666" stroke="#666666" points="1003.5,-124 1003.5,-124 1115.5,-124 1115.5,-124 1003.5,-124"/>
<polygon fill="none" stroke="#666666" points="1003.5,-107 1003.5,-167 1115.5,-167 1115.5,-107 1003.5,-107"/>
</a>
</g>
</g>
<!-- Node11&#45;&gt;Node13 -->
<g id="edge12_Node000011_Node000013" class="edge">
<title>Node11&#45;&gt;Node13</title>
<g id="a_edge12_Node000011_Node000013"><a xlink:title=" ">
<path fill="none" stroke="#63b8ff" d="M1025.66,-195.14C1031.09,-185.98 1036.96,-176.07 1042.26,-167.12"/>
<polygon fill="none" stroke="#63b8ff" points="1022.51,-193.6 1020.43,-203.98 1028.53,-197.16 1022.51,-193.6"/>
</a>
</g>
</g>
<!-- Node13&#45;&gt;Node12 -->
<g id="edge13_Node000013_Node000012" class="edge">
<title>Node13&#45;&gt;Node12</title>
<g id="a_edge13_Node000013_Node000012"><a xlink:title=" ">
<path fill="none" stroke="orange" d="M1035.07,-98.28C1026.93,-85.71 1017.99,-71.91 1010.34,-60.09"/>
<polygon fill="orange" stroke="orange" points="1032.18,-100.26 1040.56,-106.75 1038.06,-96.46 1032.18,-100.26"/>
</a>
</g>
<text text-anchor="middle" x="1049" y="-81" font-family="Helvetica,sans-Serif" font-size="10.00" fill="grey"> &lt; A * &gt;</text>
</g>
</g>
</svg>
