<?xml version="1.0" encoding="UTF-8" standalone="no"?>
<!DOCTYPE svg PUBLIC "-//W3C//DTD SVG 1.1//EN"
 "http://www.w3.org/Graphics/SVG/1.1/DTD/svg11.dtd">
<!-- Generated by graphviz version 2.43.0 (0)
 -->
<!-- Title: L4::Ipc::Msg::Dir_out Pages: 1 -->
<svg width="272pt" height="153pt"
 viewBox="0.00 0.00 271.50 153.00" xmlns="http://www.w3.org/2000/svg" xmlns:xlink="http://www.w3.org/1999/xlink">
<g id="graph0" class="graph" transform="scale(1 1) rotate(0) translate(4 149)">
<title>L4::Ipc::Msg::Dir_out</title>
<!-- Node1 -->
<g id="Node000001" class="node">
<title>Node1</title>
<g id="a_Node000001"><a xlink:title="Marker type for output values.">
<polygon fill="#999999" stroke="transparent" points="193,-145 83,-145 83,-96 193,-96 193,-145"/>
<text text-anchor="start" x="88" y="-132.5" font-family="Helvetica,sans-Serif" font-size="10.00">L4::Ipc::Msg::Dir_out</text>
<text text-anchor="start" x="136" y="-117.5" font-family="Helvetica,sans-Serif" font-size="10.00"> </text>
<text text-anchor="start" x="136" y="-102.5" font-family="Helvetica,sans-Serif" font-size="10.00"> </text>
<polygon fill="#666666" stroke="#666666" points="83,-127.5 83,-127.5 193,-127.5 193,-127.5 83,-127.5"/>
<polygon fill="#666666" stroke="#666666" points="83,-112.5 83,-112.5 193,-112.5 193,-112.5 83,-112.5"/>
<polygon fill="none" stroke="#666666" points="83,-96 83,-145 193,-145 193,-96 83,-96"/>
</a>
</g>
</g>
<!-- Node2 -->
<g id="Node000002" class="node">
<title>Node2</title>
<g id="a_Node000002"><a xlink:href="structL4_1_1Ipc_1_1Msg_1_1Do__out__data.html" target="_top" xlink:title="Marker for Output data.">
<polygon fill="white" stroke="transparent" points="136,-54.5 0,-54.5 0,-5.5 136,-5.5 136,-54.5"/>
<text text-anchor="start" x="5" y="-42" font-family="Helvetica,sans-Serif" font-size="10.00">L4::Ipc::Msg::Do_out_data</text>
<text text-anchor="start" x="66" y="-27" font-family="Helvetica,sans-Serif" font-size="10.00"> </text>
<text text-anchor="start" x="66" y="-12" font-family="Helvetica,sans-Serif" font-size="10.00"> </text>
<polygon fill="#666666" stroke="#666666" points="0,-37 0,-37 136,-37 136,-37 0,-37"/>
<polygon fill="#666666" stroke="#666666" points="0,-22 0,-22 136,-22 136,-22 0,-22"/>
<polygon fill="none" stroke="#666666" points="0,-5.5 0,-54.5 136,-54.5 136,-5.5 0,-5.5"/>
</a>
</g>
</g>
<!-- Node1&#45;&gt;Node2 -->
<g id="edge1_Node000001_Node000002" class="edge">
<title>Node1&#45;&gt;Node2</title>
<g id="a_edge1_Node000001_Node000002"><a xlink:title=" ">
<path fill="none" stroke="#63b8ff" d="M112.88,-87.74C104.28,-76.87 94.82,-64.91 86.81,-54.78"/>
<polygon fill="none" stroke="#63b8ff" points="110.29,-90.11 119.24,-95.78 115.78,-85.77 110.29,-90.11"/>
</a>
</g>
</g>
<!-- Node3 -->
<g id="Node000003" class="node">
<title>Node3</title>
<g id="a_Node000003"><a xlink:href="structL4_1_1Ipc_1_1Msg_1_1Do__out__items.html" target="_top" xlink:title="Marker for Output items.">
<polygon fill="white" stroke="transparent" points="263.5,-60 154.5,-60 154.5,0 263.5,0 263.5,-60"/>
<text text-anchor="start" x="160" y="-48" font-family="Helvetica,sans-Serif" font-size="10.00">L4::Ipc::Msg::Do_out</text>
<text text-anchor="start" x="192.5" y="-37" font-family="Helvetica,sans-Serif" font-size="10.00">_items</text>
<text text-anchor="start" x="207.5" y="-22" font-family="Helvetica,sans-Serif" font-size="10.00"> </text>
<text text-anchor="start" x="207.5" y="-7" font-family="Helvetica,sans-Serif" font-size="10.00"> </text>
<polygon fill="#666666" stroke="#666666" points="155,-32 155,-32 264,-32 264,-32 155,-32"/>
<polygon fill="#666666" stroke="#666666" points="155,-17 155,-17 264,-17 264,-17 155,-17"/>
<polygon fill="none" stroke="#666666" points="154.5,0 154.5,-60 263.5,-60 263.5,0 154.5,0"/>
</a>
</g>
</g>
<!-- Node1&#45;&gt;Node3 -->
<g id="edge2_Node000001_Node000003" class="edge">
<title>Node1&#45;&gt;Node3</title>
<g id="a_edge2_Node000001_Node000003"><a xlink:title=" ">
<path fill="none" stroke="#63b8ff" d="M163.45,-87.77C170.68,-78.76 178.51,-69 185.61,-60.16"/>
<polygon fill="none" stroke="#63b8ff" points="160.55,-85.79 157.03,-95.78 166.01,-90.17 160.55,-85.79"/>
</a>
</g>
</g>
</g>
</svg>
