<?xml version="1.0" encoding="UTF-8" standalone="no"?>
<!DOCTYPE svg PUBLIC "-//W3C//DTD SVG 1.1//EN"
 "http://www.w3.org/Graphics/SVG/1.1/DTD/svg11.dtd">
<!-- Generated by graphviz version 2.42.4 (0)
 -->
<!-- Title: L4virtio::Svr::Console::Device_port Pages: 1 -->
<svg width="595pt" height="1413pt"
 viewBox="0.00 0.00 594.50 1413.00" xmlns="http://www.w3.org/2000/svg" xmlns:xlink="http://www.w3.org/1999/xlink">
<g id="graph0" class="graph" transform="scale(1 1) rotate(0) translate(4 1409)">
<title>L4virtio::Svr::Console::Device_port</title>
<!-- Node1 -->
<g id="Node000001" class="node">
<title>Node1</title>
<g id="a_Node000001"><a xlink:title="A console port with associated read/write state.">
<polygon fill="#999999" stroke="transparent" points="421,-75 307,-75 307,0 421,0 421,-75"/>
<text text-anchor="start" x="312" y="-62.5" font-family="Helvetica,sans-Serif" font-size="10.00">L4virtio::Svr::Console</text>
<text text-anchor="start" x="331.5" y="-51.5" font-family="Helvetica,sans-Serif" font-size="10.00">::Device_port</text>
<text text-anchor="start" x="325" y="-36.5" font-family="Helvetica,sans-Serif" font-size="10.00">+</text>
<text text-anchor="start" x="352" y="-36.5" font-family="Helvetica,sans-Serif" font-size="10.00">request</text>
<text text-anchor="start" x="325" y="-21.5" font-family="Helvetica,sans-Serif" font-size="10.00">+</text>
<text text-anchor="start" x="352" y="-21.5" font-family="Helvetica,sans-Serif" font-size="10.00">src</text>
<text text-anchor="start" x="325" y="-6.5" font-family="Helvetica,sans-Serif" font-size="10.00">+</text>
<text text-anchor="start" x="352" y="-6.5" font-family="Helvetica,sans-Serif" font-size="10.00">reset()</text>
<polygon fill="#666666" stroke="#666666" points="307,-46.5 307,-46.5 421,-46.5 421,-46.5 307,-46.5"/>
<polygon fill="#666666" stroke="#666666" points="307,-16.5 307,-16.5 350,-16.5 350,-16.5 307,-16.5"/>
<polygon fill="#666666" stroke="#666666" points="350,-16.5 350,-16.5 421,-16.5 421,-16.5 350,-16.5"/>
<polygon fill="none" stroke="#666666" points="307,0 307,-75 421,-75 421,0 307,0"/>
</a>
</g>
</g>
<!-- Node2 -->
<g id="Node000002" class="node">
<title>Node2</title>
<g id="a_Node000002"><a xlink:href="structL4virtio_1_1Svr_1_1Console_1_1Port.html" target="_top" xlink:title="Representation of a Virtio console port.">
<polygon fill="white" stroke="transparent" points="355,-257 241,-257 241,-122 355,-122 355,-257"/>
<text text-anchor="start" x="246" y="-244.5" font-family="Helvetica,sans-Serif" font-size="10.00">L4virtio::Svr::Console</text>
<text text-anchor="start" x="285" y="-233.5" font-family="Helvetica,sans-Serif" font-size="10.00">::Port</text>
<text text-anchor="start" x="249" y="-218.5" font-family="Helvetica,sans-Serif" font-size="10.00">+</text>
<text text-anchor="start" x="266" y="-218.5" font-family="Helvetica,sans-Serif" font-size="10.00">status</text>
<text text-anchor="start" x="249" y="-203.5" font-family="Helvetica,sans-Serif" font-size="10.00">+</text>
<text text-anchor="start" x="266" y="-203.5" font-family="Helvetica,sans-Serif" font-size="10.00">vq_max</text>
<text text-anchor="start" x="249" y="-188.5" font-family="Helvetica,sans-Serif" font-size="10.00">+</text>
<text text-anchor="start" x="266" y="-188.5" font-family="Helvetica,sans-Serif" font-size="10.00">is_open()</text>
<text text-anchor="start" x="249" y="-173.5" font-family="Helvetica,sans-Serif" font-size="10.00">+</text>
<text text-anchor="start" x="266" y="-173.5" font-family="Helvetica,sans-Serif" font-size="10.00">reset()</text>
<text text-anchor="start" x="249" y="-158.5" font-family="Helvetica,sans-Serif" font-size="10.00">+</text>
<text text-anchor="start" x="266" y="-158.5" font-family="Helvetica,sans-Serif" font-size="10.00">queues_ready()</text>
<text text-anchor="start" x="249" y="-143.5" font-family="Helvetica,sans-Serif" font-size="10.00">+</text>
<text text-anchor="start" x="266" y="-143.5" font-family="Helvetica,sans-Serif" font-size="10.00">rx_ready()</text>
<text text-anchor="start" x="249" y="-128.5" font-family="Helvetica,sans-Serif" font-size="10.00">+</text>
<text text-anchor="start" x="266" y="-128.5" font-family="Helvetica,sans-Serif" font-size="10.00">tx_ready()</text>
<polygon fill="#666666" stroke="#666666" points="241,-228.5 241,-228.5 355,-228.5 355,-228.5 241,-228.5"/>
<polygon fill="#666666" stroke="#666666" points="241,-198.5 241,-198.5 264,-198.5 264,-198.5 241,-198.5"/>
<polygon fill="#666666" stroke="#666666" points="264,-198.5 264,-198.5 355,-198.5 355,-198.5 264,-198.5"/>
<polygon fill="none" stroke="#666666" points="241,-122 241,-257 355,-257 355,-122 241,-122"/>
</a>
</g>
</g>
<!-- Node2&#45;&gt;Node1 -->
<g id="edge1_Node000001_Node000002" class="edge">
<title>Node2&#45;&gt;Node1</title>
<g id="a_edge1_Node000001_Node000002"><a xlink:title=" ">
<path fill="none" stroke="#63b8ff" d="M331.46,-112.45C337.15,-99.53 342.81,-86.66 347.78,-75.36"/>
<polygon fill="none" stroke="#63b8ff" points="328.16,-111.27 327.33,-121.83 334.56,-114.09 328.16,-111.27"/>
</a>
</g>
</g>
<!-- Node3 -->
<g id="Node000003" class="node">
<title>Node3</title>
<g id="a_Node000003"><a xlink:href="classL4virtio_1_1Svr_1_1Virtqueue.html" target="_top" xlink:title="Virtqueue implementation for the device.">
<polygon fill="white" stroke="transparent" points="359,-484 237,-484 237,-315 359,-315 359,-484"/>
<text text-anchor="start" x="242" y="-471.5" font-family="Helvetica,sans-Serif" font-size="10.00">L4virtio::Svr::Virtqueue</text>
<text text-anchor="start" x="296" y="-456.5" font-family="Helvetica,sans-Serif" font-size="10.00"> </text>
<text text-anchor="start" x="247" y="-441.5" font-family="Helvetica,sans-Serif" font-size="10.00">+</text>
<text text-anchor="start" x="266" y="-441.5" font-family="Helvetica,sans-Serif" font-size="10.00">next_avail()</text>
<text text-anchor="start" x="247" y="-426.5" font-family="Helvetica,sans-Serif" font-size="10.00">+</text>
<text text-anchor="start" x="266" y="-426.5" font-family="Helvetica,sans-Serif" font-size="10.00">desc_avail()</text>
<text text-anchor="start" x="247" y="-411.5" font-family="Helvetica,sans-Serif" font-size="10.00">+</text>
<text text-anchor="start" x="266" y="-411.5" font-family="Helvetica,sans-Serif" font-size="10.00">consumed()</text>
<text text-anchor="start" x="247" y="-396.5" font-family="Helvetica,sans-Serif" font-size="10.00">+</text>
<text text-anchor="start" x="266" y="-396.5" font-family="Helvetica,sans-Serif" font-size="10.00">consumed()</text>
<text text-anchor="start" x="247" y="-381.5" font-family="Helvetica,sans-Serif" font-size="10.00">+</text>
<text text-anchor="start" x="266" y="-381.5" font-family="Helvetica,sans-Serif" font-size="10.00">finish()</text>
<text text-anchor="start" x="247" y="-366.5" font-family="Helvetica,sans-Serif" font-size="10.00">+</text>
<text text-anchor="start" x="266" y="-366.5" font-family="Helvetica,sans-Serif" font-size="10.00">finish()</text>
<text text-anchor="start" x="247" y="-351.5" font-family="Helvetica,sans-Serif" font-size="10.00">+</text>
<text text-anchor="start" x="266" y="-351.5" font-family="Helvetica,sans-Serif" font-size="10.00">disable_notify()</text>
<text text-anchor="start" x="247" y="-336.5" font-family="Helvetica,sans-Serif" font-size="10.00">+</text>
<text text-anchor="start" x="266" y="-336.5" font-family="Helvetica,sans-Serif" font-size="10.00">enable_notify()</text>
<text text-anchor="start" x="247" y="-321.5" font-family="Helvetica,sans-Serif" font-size="10.00">+</text>
<text text-anchor="start" x="266" y="-321.5" font-family="Helvetica,sans-Serif" font-size="10.00">desc()</text>
<polygon fill="#666666" stroke="#666666" points="237,-466.5 237,-466.5 359,-466.5 359,-466.5 237,-466.5"/>
<polygon fill="#666666" stroke="#666666" points="237,-451.5 237,-451.5 359,-451.5 359,-451.5 237,-451.5"/>
<polygon fill="none" stroke="#666666" points="237,-315 237,-484 359,-484 359,-315 237,-315"/>
</a>
</g>
</g>
<!-- Node3&#45;&gt;Node2 -->
<g id="edge2_Node000002_Node000003" class="edge">
<title>Node3&#45;&gt;Node2</title>
<g id="a_edge2_Node000002_Node000003"><a xlink:title=" ">
<path fill="none" stroke="#63b8ff" d="M298,-314.8C298,-299.8 298,-284.23 298,-269.38"/>
<polygon fill="none" stroke="#63b8ff" points="298,-269.1 294,-263.1 298,-257.1 302,-263.1 298,-269.1"/>
</a>
</g>
<text text-anchor="middle" x="309" y="-289" font-family="Helvetica,sans-Serif" font-size="10.00" fill="grey"> +rx</text>
<text text-anchor="middle" x="309" y="-278" font-family="Helvetica,sans-Serif" font-size="10.00" fill="grey">+tx</text>
</g>
<!-- Node4 -->
<g id="Node000004" class="node">
<title>Node4</title>
<g id="a_Node000004"><a xlink:href="classL4virtio_1_1Virtqueue.html" target="_top" xlink:title="Low&#45;level Virtqueue.">
<polygon fill="white" stroke="transparent" points="355.5,-900 240.5,-900 240.5,-521 355.5,-521 355.5,-900"/>
<text text-anchor="start" x="253" y="-887.5" font-family="Helvetica,sans-Serif" font-size="10.00">L4virtio::Virtqueue</text>
<text text-anchor="start" x="245" y="-872.5" font-family="Helvetica,sans-Serif" font-size="10.00">#</text>
<text text-anchor="start" x="258" y="-872.5" font-family="Helvetica,sans-Serif" font-size="10.00">_current_avail</text>
<text text-anchor="start" x="245" y="-857.5" font-family="Helvetica,sans-Serif" font-size="10.00">#</text>
<text text-anchor="start" x="258" y="-857.5" font-family="Helvetica,sans-Serif" font-size="10.00">_idx_mask</text>
<text text-anchor="start" x="245" y="-842.5" font-family="Helvetica,sans-Serif" font-size="10.00">+</text>
<text text-anchor="start" x="258" y="-842.5" font-family="Helvetica,sans-Serif" font-size="10.00">disable()</text>
<text text-anchor="start" x="245" y="-827.5" font-family="Helvetica,sans-Serif" font-size="10.00">+</text>
<text text-anchor="start" x="258" y="-827.5" font-family="Helvetica,sans-Serif" font-size="10.00">total_size()</text>
<text text-anchor="start" x="245" y="-812.5" font-family="Helvetica,sans-Serif" font-size="10.00">+</text>
<text text-anchor="start" x="258" y="-812.5" font-family="Helvetica,sans-Serif" font-size="10.00">avail_offset()</text>
<text text-anchor="start" x="245" y="-797.5" font-family="Helvetica,sans-Serif" font-size="10.00">+</text>
<text text-anchor="start" x="258" y="-797.5" font-family="Helvetica,sans-Serif" font-size="10.00">used_offset()</text>
<text text-anchor="start" x="245" y="-782.5" font-family="Helvetica,sans-Serif" font-size="10.00">+</text>
<text text-anchor="start" x="258" y="-782.5" font-family="Helvetica,sans-Serif" font-size="10.00">setup()</text>
<text text-anchor="start" x="245" y="-767.5" font-family="Helvetica,sans-Serif" font-size="10.00">+</text>
<text text-anchor="start" x="258" y="-767.5" font-family="Helvetica,sans-Serif" font-size="10.00">setup_simple()</text>
<text text-anchor="start" x="245" y="-752.5" font-family="Helvetica,sans-Serif" font-size="10.00">+</text>
<text text-anchor="start" x="258" y="-752.5" font-family="Helvetica,sans-Serif" font-size="10.00">dump()</text>
<text text-anchor="start" x="245" y="-737.5" font-family="Helvetica,sans-Serif" font-size="10.00">+</text>
<text text-anchor="start" x="258" y="-737.5" font-family="Helvetica,sans-Serif" font-size="10.00">ready()</text>
<text text-anchor="start" x="245" y="-722.5" font-family="Helvetica,sans-Serif" font-size="10.00">+</text>
<text text-anchor="start" x="258" y="-722.5" font-family="Helvetica,sans-Serif" font-size="10.00">num()</text>
<text text-anchor="start" x="245" y="-707.5" font-family="Helvetica,sans-Serif" font-size="10.00">+</text>
<text text-anchor="start" x="258" y="-707.5" font-family="Helvetica,sans-Serif" font-size="10.00">no_notify_guest()</text>
<text text-anchor="start" x="245" y="-692.5" font-family="Helvetica,sans-Serif" font-size="10.00">+</text>
<text text-anchor="start" x="258" y="-692.5" font-family="Helvetica,sans-Serif" font-size="10.00">no_notify_host()</text>
<text text-anchor="start" x="245" y="-677.5" font-family="Helvetica,sans-Serif" font-size="10.00">+</text>
<text text-anchor="start" x="258" y="-677.5" font-family="Helvetica,sans-Serif" font-size="10.00">no_notify_host()</text>
<text text-anchor="start" x="245" y="-662.5" font-family="Helvetica,sans-Serif" font-size="10.00">+</text>
<text text-anchor="start" x="258" y="-662.5" font-family="Helvetica,sans-Serif" font-size="10.00">get_avail_idx()</text>
<text text-anchor="start" x="245" y="-647.5" font-family="Helvetica,sans-Serif" font-size="10.00">+</text>
<text text-anchor="start" x="258" y="-647.5" font-family="Helvetica,sans-Serif" font-size="10.00">get_tail_avail_idx()</text>
<text text-anchor="start" x="245" y="-632.5" font-family="Helvetica,sans-Serif" font-size="10.00">+</text>
<text text-anchor="start" x="258" y="-632.5" font-family="Helvetica,sans-Serif" font-size="10.00">total_size()</text>
<text text-anchor="start" x="245" y="-617.5" font-family="Helvetica,sans-Serif" font-size="10.00">+</text>
<text text-anchor="start" x="258" y="-617.5" font-family="Helvetica,sans-Serif" font-size="10.00">desc_size()</text>
<text text-anchor="start" x="245" y="-602.5" font-family="Helvetica,sans-Serif" font-size="10.00">+</text>
<text text-anchor="start" x="258" y="-602.5" font-family="Helvetica,sans-Serif" font-size="10.00">desc_align()</text>
<text text-anchor="start" x="245" y="-587.5" font-family="Helvetica,sans-Serif" font-size="10.00">+</text>
<text text-anchor="start" x="258" y="-587.5" font-family="Helvetica,sans-Serif" font-size="10.00">avail_size()</text>
<text text-anchor="start" x="245" y="-572.5" font-family="Helvetica,sans-Serif" font-size="10.00">+</text>
<text text-anchor="start" x="258" y="-572.5" font-family="Helvetica,sans-Serif" font-size="10.00">avail_align()</text>
<text text-anchor="start" x="245" y="-557.5" font-family="Helvetica,sans-Serif" font-size="10.00">+</text>
<text text-anchor="start" x="258" y="-557.5" font-family="Helvetica,sans-Serif" font-size="10.00">used_size()</text>
<text text-anchor="start" x="245" y="-542.5" font-family="Helvetica,sans-Serif" font-size="10.00">+</text>
<text text-anchor="start" x="258" y="-542.5" font-family="Helvetica,sans-Serif" font-size="10.00">used_align()</text>
<text text-anchor="start" x="245" y="-527.5" font-family="Helvetica,sans-Serif" font-size="10.00">#</text>
<text text-anchor="start" x="258" y="-527.5" font-family="Helvetica,sans-Serif" font-size="10.00">Virtqueue()</text>
<polygon fill="#666666" stroke="#666666" points="241,-882.5 241,-882.5 356,-882.5 356,-882.5 241,-882.5"/>
<polygon fill="#666666" stroke="#666666" points="241,-852.5 241,-852.5 256,-852.5 256,-852.5 241,-852.5"/>
<polygon fill="#666666" stroke="#666666" points="256,-852.5 256,-852.5 356,-852.5 356,-852.5 256,-852.5"/>
<polygon fill="none" stroke="#666666" points="240.5,-521 240.5,-900 355.5,-900 355.5,-521 240.5,-521"/>
</a>
</g>
</g>
<!-- Node4&#45;&gt;Node3 -->
<g id="edge3_Node000003_Node000004" class="edge">
<title>Node4&#45;&gt;Node3</title>
<g id="a_edge3_Node000003_Node000004"><a xlink:title=" ">
<path fill="none" stroke="#63b8ff" d="M298,-510.81C298,-501.64 298,-492.69 298,-484.12"/>
<polygon fill="none" stroke="#63b8ff" points="294.5,-510.85 298,-520.85 301.5,-510.85 294.5,-510.85"/>
</a>
</g>
</g>
<!-- Node5 -->
<g id="Node000005" class="node">
<title>Node5</title>
<g id="a_Node000005"><a xlink:href="classL4virtio_1_1Virtqueue_1_1Desc.html" target="_top" xlink:title="Descriptor in the descriptor table.">
<polygon fill="white" stroke="transparent" points="229.5,-1022 128.5,-1022 128.5,-947 229.5,-947 229.5,-1022"/>
<text text-anchor="start" x="134" y="-1009.5" font-family="Helvetica,sans-Serif" font-size="10.00">L4virtio::Virtqueue</text>
<text text-anchor="start" x="164" y="-998.5" font-family="Helvetica,sans-Serif" font-size="10.00">::Desc</text>
<text text-anchor="start" x="144" y="-983.5" font-family="Helvetica,sans-Serif" font-size="10.00">+</text>
<text text-anchor="start" x="168" y="-983.5" font-family="Helvetica,sans-Serif" font-size="10.00">len</text>
<text text-anchor="start" x="144" y="-968.5" font-family="Helvetica,sans-Serif" font-size="10.00">+</text>
<text text-anchor="start" x="168" y="-968.5" font-family="Helvetica,sans-Serif" font-size="10.00">next</text>
<text text-anchor="start" x="144" y="-953.5" font-family="Helvetica,sans-Serif" font-size="10.00">+</text>
<text text-anchor="start" x="168" y="-953.5" font-family="Helvetica,sans-Serif" font-size="10.00">dump()</text>
<polygon fill="#666666" stroke="#666666" points="129,-993.5 129,-993.5 230,-993.5 230,-993.5 129,-993.5"/>
<polygon fill="#666666" stroke="#666666" points="129,-963.5 129,-963.5 166,-963.5 166,-963.5 129,-963.5"/>
<polygon fill="#666666" stroke="#666666" points="166,-963.5 166,-963.5 230,-963.5 230,-963.5 166,-963.5"/>
<polygon fill="none" stroke="#666666" points="128.5,-947 128.5,-1022 229.5,-1022 229.5,-947 128.5,-947"/>
</a>
</g>
</g>
<!-- Node5&#45;&gt;Node4 -->
<g id="edge4_Node000004_Node000005" class="edge">
<title>Node5&#45;&gt;Node4</title>
<g id="a_edge4_Node000004_Node000005"><a xlink:title=" ">
<path fill="none" stroke="#63b8ff" d="M195.05,-946.82C205.73,-922.41 220.51,-888.63 235.54,-854.27"/>
<polygon fill="none" stroke="#63b8ff" points="235.61,-854.1 234.35,-847 240.42,-843.1 241.68,-850.2 235.61,-854.1"/>
</a>
</g>
<text text-anchor="middle" x="225" y="-921" font-family="Helvetica,sans-Serif" font-size="10.00" fill="grey"> #_desc</text>
</g>
<!-- Node6 -->
<g id="Node000006" class="node">
<title>Node6</title>
<g id="a_Node000006"><a xlink:href="classL4virtio_1_1Ptr.html" target="_top" xlink:title=" ">
<polygon fill="white" stroke="transparent" points="110,-1213.5 0,-1213.5 0,-1119.5 110,-1119.5 110,-1213.5"/>
<text text-anchor="start" x="5" y="-1201.5" font-family="Helvetica,sans-Serif" font-size="10.00">L4virtio::Ptr&lt; void &gt;</text>
<text text-anchor="start" x="53" y="-1186.5" font-family="Helvetica,sans-Serif" font-size="10.00"> </text>
<text text-anchor="start" x="14.5" y="-1171.5" font-family="Helvetica,sans-Serif" font-size="10.00">+</text>
<text text-anchor="start" x="38" y="-1171.5" font-family="Helvetica,sans-Serif" font-size="10.00">Ptr()</text>
<text text-anchor="start" x="14.5" y="-1156.5" font-family="Helvetica,sans-Serif" font-size="10.00">+</text>
<text text-anchor="start" x="38" y="-1156.5" font-family="Helvetica,sans-Serif" font-size="10.00">Ptr()</text>
<text text-anchor="start" x="14.5" y="-1141.5" font-family="Helvetica,sans-Serif" font-size="10.00">+</text>
<text text-anchor="start" x="38" y="-1141.5" font-family="Helvetica,sans-Serif" font-size="10.00">get()</text>
<text text-anchor="start" x="14.5" y="-1126.5" font-family="Helvetica,sans-Serif" font-size="10.00">+</text>
<text text-anchor="start" x="38" y="-1126.5" font-family="Helvetica,sans-Serif" font-size="10.00">is_valid()</text>
<polygon fill="#666666" stroke="#666666" points="0,-1196.5 0,-1196.5 110,-1196.5 110,-1196.5 0,-1196.5"/>
<polygon fill="#666666" stroke="#666666" points="0,-1181.5 0,-1181.5 110,-1181.5 110,-1181.5 0,-1181.5"/>
<polygon fill="none" stroke="#666666" points="0,-1119.5 0,-1213.5 110,-1213.5 110,-1119.5 0,-1119.5"/>
</a>
</g>
</g>
<!-- Node6&#45;&gt;Node5 -->
<g id="edge5_Node000005_Node000006" class="edge">
<title>Node6&#45;&gt;Node5</title>
<g id="a_edge5_Node000005_Node000006"><a xlink:title=" ">
<path fill="none" stroke="#63b8ff" d="M85.25,-1119.12C95.8,-1103.15 107.81,-1085.21 119,-1069 127.32,-1056.95 136.47,-1044.05 145.06,-1032.08"/>
<polygon fill="none" stroke="#63b8ff" points="145.1,-1032.02 145.37,-1024.81 152.12,-1022.28 151.86,-1029.49 145.1,-1032.02"/>
</a>
</g>
<text text-anchor="middle" x="156" y="-1043" font-family="Helvetica,sans-Serif" font-size="10.00" fill="grey"> +addr</text>
</g>
<!-- Node7 -->
<g id="Node000007" class="node">
<title>Node7</title>
<g id="a_Node000007"><a xlink:href="classL4virtio_1_1Ptr.html" target="_top" xlink:title="Pointer used in virtio descriptors.">
<polygon fill="white" stroke="transparent" points="102.5,-1405 7.5,-1405 7.5,-1311 102.5,-1311 102.5,-1405"/>
<text text-anchor="start" x="13" y="-1393" font-family="Helvetica,sans-Serif" font-size="10.00">L4virtio::Ptr&lt; T &gt;</text>
<text text-anchor="start" x="53.5" y="-1378" font-family="Helvetica,sans-Serif" font-size="10.00"> </text>
<text text-anchor="start" x="19" y="-1363" font-family="Helvetica,sans-Serif" font-size="10.00">+</text>
<text text-anchor="start" x="39" y="-1363" font-family="Helvetica,sans-Serif" font-size="10.00">Ptr()</text>
<text text-anchor="start" x="19" y="-1348" font-family="Helvetica,sans-Serif" font-size="10.00">+</text>
<text text-anchor="start" x="39" y="-1348" font-family="Helvetica,sans-Serif" font-size="10.00">Ptr()</text>
<text text-anchor="start" x="19" y="-1333" font-family="Helvetica,sans-Serif" font-size="10.00">+</text>
<text text-anchor="start" x="39" y="-1333" font-family="Helvetica,sans-Serif" font-size="10.00">get()</text>
<text text-anchor="start" x="19" y="-1318" font-family="Helvetica,sans-Serif" font-size="10.00">+</text>
<text text-anchor="start" x="39" y="-1318" font-family="Helvetica,sans-Serif" font-size="10.00">is_valid()</text>
<polygon fill="#666666" stroke="#666666" points="8,-1388 8,-1388 103,-1388 103,-1388 8,-1388"/>
<polygon fill="#666666" stroke="#666666" points="8,-1373 8,-1373 103,-1373 103,-1373 8,-1373"/>
<polygon fill="none" stroke="#666666" points="7.5,-1311 7.5,-1405 102.5,-1405 102.5,-1311 7.5,-1311"/>
</a>
</g>
</g>
<!-- Node7&#45;&gt;Node6 -->
<g id="edge6_Node000006_Node000007" class="edge">
<title>Node7&#45;&gt;Node6</title>
<g id="a_edge6_Node000006_Node000007"><a xlink:title=" ">
<path fill="none" stroke="orange" d="M55,-1300.32C55,-1272.67 55,-1239.82 55,-1213.71"/>
<polygon fill="orange" stroke="orange" points="51.5,-1300.64 55,-1310.64 58.5,-1300.64 51.5,-1300.64"/>
</a>
</g>
<text text-anchor="middle" x="78.5" y="-1285" font-family="Helvetica,sans-Serif" font-size="10.00" fill="grey"> &lt; void &gt;</text>
</g>
<!-- Node8 -->
<g id="Node000008" class="node">
<title>Node8</title>
<g id="a_Node000008"><a xlink:href="structL4virtio_1_1Virtqueue_1_1Desc_1_1Flags.html" target="_top" xlink:title="Type for descriptor flags.">
<polygon fill="white" stroke="transparent" points="229.5,-1264 128.5,-1264 128.5,-1069 229.5,-1069 229.5,-1264"/>
<text text-anchor="start" x="134" y="-1251.5" font-family="Helvetica,sans-Serif" font-size="10.00">L4virtio::Virtqueue</text>
<text text-anchor="start" x="148" y="-1240.5" font-family="Helvetica,sans-Serif" font-size="10.00">::Desc::Flags</text>
<text text-anchor="start" x="135" y="-1225.5" font-family="Helvetica,sans-Serif" font-size="10.00">+</text>
<text text-anchor="start" x="150" y="-1225.5" font-family="Helvetica,sans-Serif" font-size="10.00">raw</text>
<text text-anchor="start" x="135" y="-1210.5" font-family="Helvetica,sans-Serif" font-size="10.00">+</text>
<text text-anchor="start" x="150" y="-1210.5" font-family="Helvetica,sans-Serif" font-size="10.00">Flags()</text>
<text text-anchor="start" x="136.5" y="-1195.5" font-family="Helvetica,sans-Serif" font-size="10.00">*</text>
<text text-anchor="start" x="150" y="-1195.5" font-family="Helvetica,sans-Serif" font-size="10.00">next_bfm_t</text>
<text text-anchor="start" x="136.5" y="-1180.5" font-family="Helvetica,sans-Serif" font-size="10.00">*</text>
<text text-anchor="start" x="150" y="-1180.5" font-family="Helvetica,sans-Serif" font-size="10.00">next()</text>
<text text-anchor="start" x="136.5" y="-1165.5" font-family="Helvetica,sans-Serif" font-size="10.00">*</text>
<text text-anchor="start" x="150" y="-1165.5" font-family="Helvetica,sans-Serif" font-size="10.00">next()</text>
<text text-anchor="start" x="136.5" y="-1150.5" font-family="Helvetica,sans-Serif" font-size="10.00">*</text>
<text text-anchor="start" x="150" y="-1150.5" font-family="Helvetica,sans-Serif" font-size="10.00">write_bfm_t</text>
<text text-anchor="start" x="136.5" y="-1135.5" font-family="Helvetica,sans-Serif" font-size="10.00">*</text>
<text text-anchor="start" x="150" y="-1135.5" font-family="Helvetica,sans-Serif" font-size="10.00">write()</text>
<text text-anchor="start" x="136.5" y="-1120.5" font-family="Helvetica,sans-Serif" font-size="10.00">*</text>
<text text-anchor="start" x="150" y="-1120.5" font-family="Helvetica,sans-Serif" font-size="10.00">write()</text>
<text text-anchor="start" x="136.5" y="-1105.5" font-family="Helvetica,sans-Serif" font-size="10.00">*</text>
<text text-anchor="start" x="150" y="-1105.5" font-family="Helvetica,sans-Serif" font-size="10.00">indirect_bfm_t</text>
<text text-anchor="start" x="136.5" y="-1090.5" font-family="Helvetica,sans-Serif" font-size="10.00">*</text>
<text text-anchor="start" x="150" y="-1090.5" font-family="Helvetica,sans-Serif" font-size="10.00">indirect()</text>
<text text-anchor="start" x="136.5" y="-1075.5" font-family="Helvetica,sans-Serif" font-size="10.00">*</text>
<text text-anchor="start" x="150" y="-1075.5" font-family="Helvetica,sans-Serif" font-size="10.00">indirect()</text>
<polygon fill="#666666" stroke="#666666" points="129,-1235.5 129,-1235.5 230,-1235.5 230,-1235.5 129,-1235.5"/>
<polygon fill="#666666" stroke="#666666" points="129,-1220.5 129,-1220.5 148,-1220.5 148,-1220.5 129,-1220.5"/>
<polygon fill="#666666" stroke="#666666" points="148,-1220.5 148,-1220.5 230,-1220.5 230,-1220.5 148,-1220.5"/>
<polygon fill="none" stroke="#666666" points="128.5,-1069 128.5,-1264 229.5,-1264 229.5,-1069 128.5,-1069"/>
</a>
</g>
</g>
<!-- Node8&#45;&gt;Node5 -->
<g id="edge7_Node000005_Node000008" class="edge">
<title>Node8&#45;&gt;Node5</title>
<g id="a_edge7_Node000005_Node000008"><a xlink:title=" ">
<path fill="none" stroke="#63b8ff" d="M179,-1068.91C179,-1056.92 179,-1045.09 179,-1034.27"/>
<polygon fill="none" stroke="#63b8ff" points="179,-1034.09 175,-1028.09 179,-1022.09 183,-1028.09 179,-1034.09"/>
</a>
</g>
<text text-anchor="middle" x="196.5" y="-1043" font-family="Helvetica,sans-Serif" font-size="10.00" fill="grey"> +flags</text>
</g>
<!-- Node9 -->
<g id="Node000009" class="node">
<title>Node9</title>
<g id="a_Node000009"><a xlink:href="classL4virtio_1_1Virtqueue_1_1Avail.html" target="_top" xlink:title="Type of available ring, this is read&#45;only for the host.">
<polygon fill="white" stroke="transparent" points="348.5,-1022 247.5,-1022 247.5,-947 348.5,-947 348.5,-1022"/>
<text text-anchor="start" x="253" y="-1009.5" font-family="Helvetica,sans-Serif" font-size="10.00">L4virtio::Virtqueue</text>
<text text-anchor="start" x="283" y="-998.5" font-family="Helvetica,sans-Serif" font-size="10.00">::Avail</text>
<text text-anchor="start" x="267" y="-983.5" font-family="Helvetica,sans-Serif" font-size="10.00">+</text>
<text text-anchor="start" x="295" y="-983.5" font-family="Helvetica,sans-Serif" font-size="10.00">idx</text>
<text text-anchor="start" x="267" y="-968.5" font-family="Helvetica,sans-Serif" font-size="10.00">+</text>
<text text-anchor="start" x="295" y="-968.5" font-family="Helvetica,sans-Serif" font-size="10.00">ring</text>
<text text-anchor="start" x="296.5" y="-953.5" font-family="Helvetica,sans-Serif" font-size="10.00"> </text>
<polygon fill="#666666" stroke="#666666" points="248,-993.5 248,-993.5 349,-993.5 349,-993.5 248,-993.5"/>
<polygon fill="#666666" stroke="#666666" points="248,-963.5 248,-963.5 293,-963.5 293,-963.5 248,-963.5"/>
<polygon fill="#666666" stroke="#666666" points="293,-963.5 293,-963.5 349,-963.5 349,-963.5 293,-963.5"/>
<polygon fill="none" stroke="#666666" points="247.5,-947 247.5,-1022 348.5,-1022 348.5,-947 247.5,-947"/>
</a>
</g>
</g>
<!-- Node9&#45;&gt;Node4 -->
<g id="edge8_Node000004_Node000009" class="edge">
<title>Node9&#45;&gt;Node4</title>
<g id="a_edge8_Node000004_Node000009"><a xlink:title=" ">
<path fill="none" stroke="#63b8ff" d="M298,-946.82C298,-936.76 298,-925.11 298,-912.49"/>
<polygon fill="none" stroke="#63b8ff" points="298,-912.11 294,-906.11 298,-900.11 302,-906.11 298,-912.11"/>
</a>
</g>
<text text-anchor="middle" x="318.5" y="-921" font-family="Helvetica,sans-Serif" font-size="10.00" fill="grey"> #_avail</text>
</g>
<!-- Node10 -->
<g id="Node000010" class="node">
<title>Node10</title>
<g id="a_Node000010"><a xlink:href="structL4virtio_1_1Virtqueue_1_1Avail_1_1Flags.html" target="_top" xlink:title="Flags of the available ring.">
<polygon fill="white" stroke="transparent" points="348.5,-1219 247.5,-1219 247.5,-1114 348.5,-1114 348.5,-1219"/>
<text text-anchor="start" x="253" y="-1206.5" font-family="Helvetica,sans-Serif" font-size="10.00">L4virtio::Virtqueue</text>
<text text-anchor="start" x="267" y="-1195.5" font-family="Helvetica,sans-Serif" font-size="10.00">::Avail::Flags</text>
<text text-anchor="start" x="256" y="-1180.5" font-family="Helvetica,sans-Serif" font-size="10.00">+</text>
<text text-anchor="start" x="273" y="-1180.5" font-family="Helvetica,sans-Serif" font-size="10.00">raw</text>
<text text-anchor="start" x="256" y="-1165.5" font-family="Helvetica,sans-Serif" font-size="10.00">+</text>
<text text-anchor="start" x="273" y="-1165.5" font-family="Helvetica,sans-Serif" font-size="10.00">Flags()</text>
<text text-anchor="start" x="257.5" y="-1150.5" font-family="Helvetica,sans-Serif" font-size="10.00">*</text>
<text text-anchor="start" x="273" y="-1150.5" font-family="Helvetica,sans-Serif" font-size="10.00">no_irq_bfm_t</text>
<text text-anchor="start" x="257.5" y="-1135.5" font-family="Helvetica,sans-Serif" font-size="10.00">*</text>
<text text-anchor="start" x="273" y="-1135.5" font-family="Helvetica,sans-Serif" font-size="10.00">no_irq()</text>
<text text-anchor="start" x="257.5" y="-1120.5" font-family="Helvetica,sans-Serif" font-size="10.00">*</text>
<text text-anchor="start" x="273" y="-1120.5" font-family="Helvetica,sans-Serif" font-size="10.00">no_irq()</text>
<polygon fill="#666666" stroke="#666666" points="248,-1190.5 248,-1190.5 349,-1190.5 349,-1190.5 248,-1190.5"/>
<polygon fill="#666666" stroke="#666666" points="248,-1175.5 248,-1175.5 271,-1175.5 271,-1175.5 248,-1175.5"/>
<polygon fill="#666666" stroke="#666666" points="271,-1175.5 271,-1175.5 349,-1175.5 349,-1175.5 271,-1175.5"/>
<polygon fill="none" stroke="#666666" points="247.5,-1114 247.5,-1219 348.5,-1219 348.5,-1114 247.5,-1114"/>
</a>
</g>
</g>
<!-- Node10&#45;&gt;Node9 -->
<g id="edge9_Node000009_Node000010" class="edge">
<title>Node10&#45;&gt;Node9</title>
<g id="a_edge9_Node000009_Node000010"><a xlink:title=" ">
<path fill="none" stroke="#63b8ff" d="M298,-1113.92C298,-1088.86 298,-1058.9 298,-1034.23"/>
<polygon fill="none" stroke="#63b8ff" points="298,-1034.23 294,-1028.23 298,-1022.23 302,-1028.23 298,-1034.23"/>
</a>
</g>
<text text-anchor="middle" x="315.5" y="-1043" font-family="Helvetica,sans-Serif" font-size="10.00" fill="grey"> +flags</text>
</g>
<!-- Node11 -->
<g id="Node000011" class="node">
<title>Node11</title>
<g id="a_Node000011"><a xlink:href="classL4virtio_1_1Virtqueue_1_1Used.html" target="_top" xlink:title="Used ring.">
<polygon fill="white" stroke="transparent" points="467.5,-1014.5 366.5,-1014.5 366.5,-954.5 467.5,-954.5 467.5,-1014.5"/>
<text text-anchor="start" x="372" y="-1002.5" font-family="Helvetica,sans-Serif" font-size="10.00">L4virtio::Virtqueue</text>
<text text-anchor="start" x="402" y="-991.5" font-family="Helvetica,sans-Serif" font-size="10.00">::Used</text>
<text text-anchor="start" x="387" y="-976.5" font-family="Helvetica,sans-Serif" font-size="10.00">+</text>
<text text-anchor="start" x="416" y="-976.5" font-family="Helvetica,sans-Serif" font-size="10.00">idx</text>
<text text-anchor="start" x="415.5" y="-961.5" font-family="Helvetica,sans-Serif" font-size="10.00"> </text>
<polygon fill="#666666" stroke="#666666" points="367,-986.5 367,-986.5 468,-986.5 468,-986.5 367,-986.5"/>
<polygon fill="#666666" stroke="#666666" points="367,-971.5 367,-971.5 414,-971.5 414,-971.5 367,-971.5"/>
<polygon fill="#666666" stroke="#666666" points="414,-971.5 414,-971.5 468,-971.5 468,-971.5 414,-971.5"/>
<polygon fill="none" stroke="#666666" points="366.5,-954.5 366.5,-1014.5 467.5,-1014.5 467.5,-954.5 366.5,-954.5"/>
</a>
</g>
</g>
<!-- Node11&#45;&gt;Node4 -->
<g id="edge10_Node000004_Node000011" class="edge">
<title>Node11&#45;&gt;Node4</title>
<g id="a_edge10_Node000004_Node000011"><a xlink:title=" ">
<path fill="none" stroke="#63b8ff" d="M404.26,-954.39C393.49,-929.76 377.18,-892.48 360.55,-854.48"/>
<polygon fill="none" stroke="#63b8ff" points="360.43,-854.21 354.36,-850.31 355.62,-843.21 361.69,-847.1 360.43,-854.21"/>
</a>
</g>
<text text-anchor="middle" x="412" y="-921" font-family="Helvetica,sans-Serif" font-size="10.00" fill="grey"> #_used</text>
</g>
<!-- Node12 -->
<g id="Node000012" class="node">
<title>Node12</title>
<g id="a_Node000012"><a xlink:href="structL4virtio_1_1Virtqueue_1_1Used_1_1Flags.html" target="_top" xlink:title="flags for the used ring.">
<polygon fill="white" stroke="transparent" points="467.5,-1219 366.5,-1219 366.5,-1114 467.5,-1114 467.5,-1219"/>
<text text-anchor="start" x="372" y="-1206.5" font-family="Helvetica,sans-Serif" font-size="10.00">L4virtio::Virtqueue</text>
<text text-anchor="start" x="385.5" y="-1195.5" font-family="Helvetica,sans-Serif" font-size="10.00">::Used::Flags</text>
<text text-anchor="start" x="371" y="-1180.5" font-family="Helvetica,sans-Serif" font-size="10.00">+</text>
<text text-anchor="start" x="384" y="-1180.5" font-family="Helvetica,sans-Serif" font-size="10.00">raw</text>
<text text-anchor="start" x="371" y="-1165.5" font-family="Helvetica,sans-Serif" font-size="10.00">+</text>
<text text-anchor="start" x="384" y="-1165.5" font-family="Helvetica,sans-Serif" font-size="10.00">Flags()</text>
<text text-anchor="start" x="372.5" y="-1150.5" font-family="Helvetica,sans-Serif" font-size="10.00">*</text>
<text text-anchor="start" x="384" y="-1150.5" font-family="Helvetica,sans-Serif" font-size="10.00">no_notify_bfm_t</text>
<text text-anchor="start" x="372.5" y="-1135.5" font-family="Helvetica,sans-Serif" font-size="10.00">*</text>
<text text-anchor="start" x="384" y="-1135.5" font-family="Helvetica,sans-Serif" font-size="10.00">no_notify()</text>
<text text-anchor="start" x="372.5" y="-1120.5" font-family="Helvetica,sans-Serif" font-size="10.00">*</text>
<text text-anchor="start" x="384" y="-1120.5" font-family="Helvetica,sans-Serif" font-size="10.00">no_notify()</text>
<polygon fill="#666666" stroke="#666666" points="367,-1190.5 367,-1190.5 468,-1190.5 468,-1190.5 367,-1190.5"/>
<polygon fill="#666666" stroke="#666666" points="367,-1175.5 367,-1175.5 382,-1175.5 382,-1175.5 367,-1175.5"/>
<polygon fill="#666666" stroke="#666666" points="382,-1175.5 382,-1175.5 468,-1175.5 468,-1175.5 382,-1175.5"/>
<polygon fill="none" stroke="#666666" points="366.5,-1114 366.5,-1219 467.5,-1219 467.5,-1114 366.5,-1114"/>
</a>
</g>
</g>
<!-- Node12&#45;&gt;Node11 -->
<g id="edge11_Node000011_Node000012" class="edge">
<title>Node12&#45;&gt;Node11</title>
<g id="a_edge11_Node000011_Node000012"><a xlink:title=" ">
<path fill="none" stroke="#63b8ff" d="M417,-1113.92C417,-1086.24 417,-1052.6 417,-1026.69"/>
<polygon fill="none" stroke="#63b8ff" points="417,-1026.66 413,-1020.66 417,-1014.66 421,-1020.66 417,-1026.66"/>
</a>
</g>
<text text-anchor="middle" x="434.5" y="-1043" font-family="Helvetica,sans-Serif" font-size="10.00" fill="grey"> +flags</text>
</g>
<!-- Node13 -->
<g id="Node000013" class="node">
<title>Node13</title>
<g id="a_Node000013"><a xlink:href="structL4virtio_1_1Virtqueue_1_1Used__elem.html" target="_top" xlink:title="Type of an element of the used ring.">
<polygon fill="white" stroke="transparent" points="586.5,-1204 485.5,-1204 485.5,-1129 586.5,-1129 586.5,-1204"/>
<text text-anchor="start" x="491" y="-1191.5" font-family="Helvetica,sans-Serif" font-size="10.00">L4virtio::Virtqueue</text>
<text text-anchor="start" x="506" y="-1180.5" font-family="Helvetica,sans-Serif" font-size="10.00">::Used_elem</text>
<text text-anchor="start" x="494" y="-1165.5" font-family="Helvetica,sans-Serif" font-size="10.00">+</text>
<text text-anchor="start" x="511" y="-1165.5" font-family="Helvetica,sans-Serif" font-size="10.00">id</text>
<text text-anchor="start" x="494" y="-1150.5" font-family="Helvetica,sans-Serif" font-size="10.00">+</text>
<text text-anchor="start" x="511" y="-1150.5" font-family="Helvetica,sans-Serif" font-size="10.00">len</text>
<text text-anchor="start" x="494" y="-1135.5" font-family="Helvetica,sans-Serif" font-size="10.00">+</text>
<text text-anchor="start" x="511" y="-1135.5" font-family="Helvetica,sans-Serif" font-size="10.00">Used_elem()</text>
<polygon fill="#666666" stroke="#666666" points="486,-1175.5 486,-1175.5 587,-1175.5 587,-1175.5 486,-1175.5"/>
<polygon fill="#666666" stroke="#666666" points="486,-1145.5 486,-1145.5 509,-1145.5 509,-1145.5 486,-1145.5"/>
<polygon fill="#666666" stroke="#666666" points="509,-1145.5 509,-1145.5 587,-1145.5 587,-1145.5 509,-1145.5"/>
<polygon fill="none" stroke="#666666" points="485.5,-1129 485.5,-1204 586.5,-1204 586.5,-1129 485.5,-1129"/>
</a>
</g>
</g>
<!-- Node13&#45;&gt;Node11 -->
<g id="edge12_Node000011_Node000013" class="edge">
<title>Node13&#45;&gt;Node11</title>
<g id="a_edge12_Node000011_Node000013"><a xlink:title=" ">
<path fill="none" stroke="#63b8ff" d="M514.5,-1128.9C503.58,-1110.69 489.92,-1088.47 477,-1069 467.23,-1054.28 456.05,-1038.46 446,-1024.59"/>
<polygon fill="none" stroke="#63b8ff" points="445.99,-1024.58 439.23,-1022.09 438.93,-1014.88 445.69,-1017.37 445.99,-1024.58"/>
</a>
</g>
<text text-anchor="middle" x="479.5" y="-1043" font-family="Helvetica,sans-Serif" font-size="10.00" fill="grey"> +ring</text>
</g>
<!-- Node14 -->
<g id="Node000014" class="node">
<title>Node14</title>
<g id="a_Node000014"><a xlink:href="classL4virtio_1_1Svr_1_1Request__processor.html" target="_top" xlink:title="Encapsulate the state for processing a VIRTIO request.">
<polygon fill="white" stroke="transparent" points="488.5,-249.5 373.5,-249.5 373.5,-129.5 488.5,-129.5 488.5,-249.5"/>
<text text-anchor="start" x="379" y="-237.5" font-family="Helvetica,sans-Serif" font-size="10.00">L4virtio::Svr::Request</text>
<text text-anchor="start" x="405" y="-226.5" font-family="Helvetica,sans-Serif" font-size="10.00">_processor</text>
<text text-anchor="start" x="429.5" y="-211.5" font-family="Helvetica,sans-Serif" font-size="10.00"> </text>
<text text-anchor="start" x="383.5" y="-196.5" font-family="Helvetica,sans-Serif" font-size="10.00">+</text>
<text text-anchor="start" x="402" y="-196.5" font-family="Helvetica,sans-Serif" font-size="10.00">start()</text>
<text text-anchor="start" x="383.5" y="-181.5" font-family="Helvetica,sans-Serif" font-size="10.00">+</text>
<text text-anchor="start" x="402" y="-181.5" font-family="Helvetica,sans-Serif" font-size="10.00">start()</text>
<text text-anchor="start" x="383.5" y="-166.5" font-family="Helvetica,sans-Serif" font-size="10.00">+</text>
<text text-anchor="start" x="402" y="-166.5" font-family="Helvetica,sans-Serif" font-size="10.00">current_flags()</text>
<text text-anchor="start" x="383.5" y="-151.5" font-family="Helvetica,sans-Serif" font-size="10.00">+</text>
<text text-anchor="start" x="402" y="-151.5" font-family="Helvetica,sans-Serif" font-size="10.00">has_more()</text>
<text text-anchor="start" x="383.5" y="-136.5" font-family="Helvetica,sans-Serif" font-size="10.00">+</text>
<text text-anchor="start" x="402" y="-136.5" font-family="Helvetica,sans-Serif" font-size="10.00">next()</text>
<polygon fill="#666666" stroke="#666666" points="374,-221.5 374,-221.5 489,-221.5 489,-221.5 374,-221.5"/>
<polygon fill="#666666" stroke="#666666" points="374,-206.5 374,-206.5 489,-206.5 489,-206.5 374,-206.5"/>
<polygon fill="none" stroke="#666666" points="373.5,-129.5 373.5,-249.5 488.5,-249.5 488.5,-129.5 373.5,-129.5"/>
</a>
</g>
</g>
<!-- Node14&#45;&gt;Node1 -->
<g id="edge13_Node000001_Node000014" class="edge">
<title>Node14&#45;&gt;Node1</title>
<g id="a_edge13_Node000001_Node000014"><a xlink:title=" ">
<path fill="none" stroke="#63b8ff" d="M404.52,-129.22C398.18,-115.01 391.48,-100.02 385.4,-86.41"/>
<polygon fill="none" stroke="#63b8ff" points="385.35,-86.3 379.25,-82.45 380.46,-75.34 386.56,-79.19 385.35,-86.3"/>
</a>
</g>
<text text-anchor="middle" x="403" y="-96" font-family="Helvetica,sans-Serif" font-size="10.00" fill="grey"> +rp</text>
</g>
</g>
</svg>
