<?xml version="1.0" encoding="UTF-8" standalone="no"?>
<!DOCTYPE svg PUBLIC "-//W3C//DTD SVG 1.1//EN"
 "http://www.w3.org/Graphics/SVG/1.1/DTD/svg11.dtd">
<!-- Generated by graphviz version 2.43.0 (0)
 -->
<!-- Title: L4drivers::Mmio_register_block&lt; MAX_BITS &gt; Pages: 1 -->
<svg width="142pt" height="175pt"
 viewBox="0.00 0.00 142.00 175.00" xmlns="http://www.w3.org/2000/svg" xmlns:xlink="http://www.w3.org/1999/xlink">
<g id="graph0" class="graph" transform="scale(1 1) rotate(0) translate(4 171)">
<title>L4drivers::Mmio_register_block&lt; MAX_BITS &gt;</title>
<!-- Node1 -->
<g id="Node000001" class="node">
<title>Node1</title>
<g id="a_Node000001"><a xlink:title="An MMIO block with up to 64&#45;bit register access (32&#45;bit default) and little endian byte order.">
<polygon fill="#999999" stroke="transparent" points="133,-60 1,-60 1,0 133,0 133,-60"/>
<text text-anchor="start" x="6" y="-48" font-family="Helvetica,sans-Serif" font-size="10.00">L4drivers::Mmio_register</text>
<text text-anchor="start" x="15" y="-37" font-family="Helvetica,sans-Serif" font-size="10.00">_block&lt; MAX_BITS &gt;</text>
<text text-anchor="start" x="65" y="-22" font-family="Helvetica,sans-Serif" font-size="10.00"> </text>
<text text-anchor="start" x="65" y="-7" font-family="Helvetica,sans-Serif" font-size="10.00"> </text>
<polygon fill="#666666" stroke="#666666" points="1,-32 1,-32 133,-32 133,-32 1,-32"/>
<polygon fill="#666666" stroke="#666666" points="1,-17 1,-17 133,-17 133,-17 1,-17"/>
<polygon fill="none" stroke="#666666" points="1,0 1,-60 133,-60 133,0 1,0"/>
</a>
</g>
</g>
<!-- Node2 -->
<g id="Node000002" class="node">
<title>Node2</title>
<g id="a_Node000002"><a xlink:href="structL4drivers_1_1Register__block__impl.html" target="_top" xlink:title="Implementation helper for register blocks.">
<polygon fill="white" stroke="transparent" points="134,-167 0,-167 0,-96 134,-96 134,-167"/>
<text text-anchor="start" x="5" y="-154.5" font-family="Helvetica,sans-Serif" font-size="10.00">L4drivers::Register</text>
<text text-anchor="start" x="5" y="-143.5" font-family="Helvetica,sans-Serif" font-size="10.00">_block_impl&lt; BASE, MAX</text>
<text text-anchor="start" x="47.5" y="-132.5" font-family="Helvetica,sans-Serif" font-size="10.00">_BITS &gt;</text>
<text text-anchor="start" x="65" y="-117.5" font-family="Helvetica,sans-Serif" font-size="10.00"> </text>
<text text-anchor="start" x="65" y="-102.5" font-family="Helvetica,sans-Serif" font-size="10.00"> </text>
<polygon fill="#666666" stroke="#666666" points="0,-127.5 0,-127.5 134,-127.5 134,-127.5 0,-127.5"/>
<polygon fill="#666666" stroke="#666666" points="0,-112.5 0,-112.5 134,-112.5 134,-112.5 0,-112.5"/>
<polygon fill="none" stroke="#666666" points="0,-96 0,-167 134,-167 134,-96 0,-96"/>
</a>
</g>
</g>
<!-- Node2&#45;&gt;Node1 -->
<g id="edge1_Node000001_Node000002" class="edge">
<title>Node2&#45;&gt;Node1</title>
<g id="a_edge1_Node000001_Node000002"><a xlink:title=" ">
<path fill="none" stroke="#63b8ff" d="M67,-85.9C67,-77.17 67,-68.24 67,-60.17"/>
<polygon fill="none" stroke="#63b8ff" points="63.5,-85.98 67,-95.98 70.5,-85.98 63.5,-85.98"/>
</a>
</g>
</g>
</g>
</svg>
