<?xml version="1.0" encoding="UTF-8" standalone="no"?>
<!DOCTYPE svg PUBLIC "-//W3C//DTD SVG 1.1//EN"
 "http://www.w3.org/Graphics/SVG/1.1/DTD/svg11.dtd">
<!-- Generated by graphviz version 2.42.4 (0)
 -->
<!-- Title: l4virtio_input_config_t Pages: 1 -->
<svg width="274pt" height="153pt"
 viewBox="0.00 0.00 273.50 153.00" xmlns="http://www.w3.org/2000/svg" xmlns:xlink="http://www.w3.org/1999/xlink">
<g id="graph0" class="graph" transform="scale(1 1) rotate(0) translate(4 149)">
<title>l4virtio_input_config_t</title>
<!-- Node1 -->
<g id="Node000001" class="node">
<title>Node1</title>
<g id="a_Node000001"><a xlink:title="Device configuration for input devices.">
<polygon fill="#999999" stroke="transparent" points="193,-49 74,-49 74,0 193,0 193,-49"/>
<text text-anchor="start" x="79.5" y="-36.5" font-family="Helvetica,sans-Serif" font-size="10.00">l4virtio_input_config_t</text>
<text text-anchor="start" x="132" y="-21.5" font-family="Helvetica,sans-Serif" font-size="10.00"> </text>
<text text-anchor="start" x="132" y="-6.5" font-family="Helvetica,sans-Serif" font-size="10.00"> </text>
<polygon fill="#666666" stroke="#666666" points="74.5,-31.5 74.5,-31.5 193.5,-31.5 193.5,-31.5 74.5,-31.5"/>
<polygon fill="#666666" stroke="#666666" points="74.5,-16.5 74.5,-16.5 193.5,-16.5 193.5,-16.5 74.5,-16.5"/>
<polygon fill="none" stroke="#666666" points="74,0 74,-49 193,-49 193,0 74,0"/>
</a>
</g>
</g>
<!-- Node2 -->
<g id="Node000002" class="node">
<title>Node2</title>
<g id="a_Node000002"><a xlink:href="structl4virtio__input__absinfo__t.html" target="_top" xlink:title="Information about the absolute axis in the underlying evdev implementation.">
<polygon fill="white" stroke="transparent" points="125,-145 0,-145 0,-96 125,-96 125,-145"/>
<text text-anchor="start" x="5.5" y="-132.5" font-family="Helvetica,sans-Serif" font-size="10.00">l4virtio_input_absinfo_t</text>
<text text-anchor="start" x="61" y="-117.5" font-family="Helvetica,sans-Serif" font-size="10.00"> </text>
<text text-anchor="start" x="61" y="-102.5" font-family="Helvetica,sans-Serif" font-size="10.00"> </text>
<polygon fill="#666666" stroke="#666666" points="0.5,-127.5 0.5,-127.5 125.5,-127.5 125.5,-127.5 0.5,-127.5"/>
<polygon fill="#666666" stroke="#666666" points="0.5,-112.5 0.5,-112.5 125.5,-112.5 125.5,-112.5 0.5,-112.5"/>
<polygon fill="none" stroke="#666666" points="0,-96 0,-145 125,-145 125,-96 0,-96"/>
</a>
</g>
</g>
<!-- Node2&#45;&gt;Node1 -->
<g id="edge1_Node000001_Node000002" class="edge">
<title>Node2&#45;&gt;Node1</title>
<g id="a_edge1_Node000001_Node000002"><a xlink:title=" ">
<path fill="none" stroke="#63b8ff" d="M80.42,-95.78C88.82,-84.65 98.99,-71.18 108.17,-59.03"/>
<polygon fill="none" stroke="#63b8ff" points="108.36,-58.79 108.78,-51.59 115.59,-49.21 115.16,-56.41 108.36,-58.79"/>
</a>
</g>
<text text-anchor="middle" x="115" y="-70" font-family="Helvetica,sans-Serif" font-size="10.00" fill="grey"> +abs</text>
</g>
<!-- Node3 -->
<g id="Node000003" class="node">
<title>Node3</title>
<g id="a_Node000003"><a xlink:href="structl4virtio__input__devids__t.html" target="_top" xlink:title="Device ID information for the device.">
<polygon fill="white" stroke="transparent" points="265.5,-145 143.5,-145 143.5,-96 265.5,-96 265.5,-145"/>
<text text-anchor="start" x="148.5" y="-132.5" font-family="Helvetica,sans-Serif" font-size="10.00">l4virtio_input_devids_t</text>
<text text-anchor="start" x="202.5" y="-117.5" font-family="Helvetica,sans-Serif" font-size="10.00"> </text>
<text text-anchor="start" x="202.5" y="-102.5" font-family="Helvetica,sans-Serif" font-size="10.00"> </text>
<polygon fill="#666666" stroke="#666666" points="143.5,-127.5 143.5,-127.5 265.5,-127.5 265.5,-127.5 143.5,-127.5"/>
<polygon fill="#666666" stroke="#666666" points="143.5,-112.5 143.5,-112.5 265.5,-112.5 265.5,-112.5 143.5,-112.5"/>
<polygon fill="none" stroke="#666666" points="143.5,-96 143.5,-145 265.5,-145 265.5,-96 143.5,-96"/>
</a>
</g>
</g>
<!-- Node3&#45;&gt;Node1 -->
<g id="edge2_Node000001_Node000003" class="edge">
<title>Node3&#45;&gt;Node1</title>
<g id="a_edge2_Node000001_Node000003"><a xlink:title=" ">
<path fill="none" stroke="#63b8ff" d="M186.58,-95.78C178.18,-84.65 168.01,-71.18 158.83,-59.03"/>
<polygon fill="none" stroke="#63b8ff" points="158.64,-58.79 151.84,-56.41 151.41,-49.21 158.22,-51.59 158.64,-58.79"/>
</a>
</g>
<text text-anchor="middle" x="183.5" y="-70" font-family="Helvetica,sans-Serif" font-size="10.00" fill="grey"> +ids</text>
</g>
</g>
</svg>
