<?xml version="1.0" encoding="UTF-8" standalone="no"?>
<!DOCTYPE svg PUBLIC "-//W3C//DTD SVG 1.1//EN"
 "http://www.w3.org/Graphics/SVG/1.1/DTD/svg11.dtd">
<!-- Generated by graphviz version 2.43.0 (0)
 -->
<!-- Title: L4::Ipc::Msg::Do_in_data Pages: 1 -->
<svg width="246pt" height="142pt"
 viewBox="0.00 0.00 245.50 142.00" xmlns="http://www.w3.org/2000/svg" xmlns:xlink="http://www.w3.org/1999/xlink">
<g id="graph0" class="graph" transform="scale(1 1) rotate(0) translate(4 138)">
<title>L4::Ipc::Msg::Do_in_data</title>
<!-- Node1 -->
<g id="Node000001" class="node">
<title>Node1</title>
<g id="a_Node000001"><a xlink:title="Marker for Input data.">
<polygon fill="#999999" stroke="transparent" points="180,-49 51,-49 51,0 180,0 180,-49"/>
<text text-anchor="start" x="56.5" y="-36.5" font-family="Helvetica,sans-Serif" font-size="10.00">L4::Ipc::Msg::Do_in_data</text>
<text text-anchor="start" x="114" y="-21.5" font-family="Helvetica,sans-Serif" font-size="10.00"> </text>
<text text-anchor="start" x="114" y="-6.5" font-family="Helvetica,sans-Serif" font-size="10.00"> </text>
<polygon fill="#666666" stroke="#666666" points="51.5,-31.5 51.5,-31.5 180.5,-31.5 180.5,-31.5 51.5,-31.5"/>
<polygon fill="#666666" stroke="#666666" points="51.5,-16.5 51.5,-16.5 180.5,-16.5 180.5,-16.5 51.5,-16.5"/>
<polygon fill="none" stroke="#666666" points="51,0 51,-49 180,-49 180,0 51,0"/>
</a>
</g>
</g>
<!-- Node2 -->
<g id="Node000002" class="node">
<title>Node2</title>
<g id="a_Node000002"><a xlink:href="structL4_1_1Ipc_1_1Msg_1_1Dir__in.html" target="_top" xlink:title="Marker type for input values.">
<polygon fill="white" stroke="transparent" points="103,-134 0,-134 0,-85 103,-85 103,-134"/>
<text text-anchor="start" x="5.5" y="-121.5" font-family="Helvetica,sans-Serif" font-size="10.00">L4::Ipc::Msg::Dir_in</text>
<text text-anchor="start" x="50" y="-106.5" font-family="Helvetica,sans-Serif" font-size="10.00"> </text>
<text text-anchor="start" x="50" y="-91.5" font-family="Helvetica,sans-Serif" font-size="10.00"> </text>
<polygon fill="#666666" stroke="#666666" points="0.5,-116.5 0.5,-116.5 103.5,-116.5 103.5,-116.5 0.5,-116.5"/>
<polygon fill="#666666" stroke="#666666" points="0.5,-101.5 0.5,-101.5 103.5,-101.5 103.5,-101.5 0.5,-101.5"/>
<polygon fill="none" stroke="#666666" points="0,-85 0,-134 103,-134 103,-85 0,-85"/>
</a>
</g>
</g>
<!-- Node2&#45;&gt;Node1 -->
<g id="edge1_Node000001_Node000002" class="edge">
<title>Node2&#45;&gt;Node1</title>
<g id="a_edge1_Node000001_Node000002"><a xlink:title=" ">
<path fill="none" stroke="#63b8ff" d="M75.98,-76.75C83.06,-67.57 90.66,-57.71 97.29,-49.12"/>
<polygon fill="none" stroke="#63b8ff" points="73,-74.88 69.67,-84.94 78.55,-79.16 73,-74.88"/>
</a>
</g>
</g>
<!-- Node3 -->
<g id="Node000003" class="node">
<title>Node3</title>
<g id="a_Node000003"><a xlink:href="structL4_1_1Ipc_1_1Msg_1_1Cls__data.html" target="_top" xlink:title="Marker type for data values.">
<polygon fill="white" stroke="transparent" points="237.5,-134 121.5,-134 121.5,-85 237.5,-85 237.5,-134"/>
<text text-anchor="start" x="126.5" y="-121.5" font-family="Helvetica,sans-Serif" font-size="10.00">L4::Ipc::Msg::Cls_data</text>
<text text-anchor="start" x="177.5" y="-106.5" font-family="Helvetica,sans-Serif" font-size="10.00"> </text>
<text text-anchor="start" x="177.5" y="-91.5" font-family="Helvetica,sans-Serif" font-size="10.00"> </text>
<polygon fill="#666666" stroke="#666666" points="121.5,-116.5 121.5,-116.5 237.5,-116.5 237.5,-116.5 121.5,-116.5"/>
<polygon fill="#666666" stroke="#666666" points="121.5,-101.5 121.5,-101.5 237.5,-101.5 237.5,-101.5 121.5,-101.5"/>
<polygon fill="none" stroke="#666666" points="121.5,-85 121.5,-134 237.5,-134 237.5,-85 121.5,-85"/>
</a>
</g>
</g>
<!-- Node3&#45;&gt;Node1 -->
<g id="edge2_Node000001_Node000003" class="edge">
<title>Node3&#45;&gt;Node1</title>
<g id="a_edge2_Node000001_Node000003"><a xlink:title=" ">
<path fill="none" stroke="#63b8ff" d="M155.02,-76.75C147.94,-67.57 140.34,-57.71 133.71,-49.12"/>
<polygon fill="none" stroke="#63b8ff" points="152.45,-79.16 161.33,-84.94 158,-74.88 152.45,-79.16"/>
</a>
</g>
</g>
</g>
</svg>
