<?xml version="1.0" encoding="UTF-8" standalone="no"?>
<!DOCTYPE svg PUBLIC "-//W3C//DTD SVG 1.1//EN"
 "http://www.w3.org/Graphics/SVG/1.1/DTD/svg11.dtd">
<!-- Generated by graphviz version 2.43.0 (0)
 -->
<!-- Title: L4Re::Video::Goos::Info Pages: 1 -->
<svg width="141pt" height="408pt"
 viewBox="0.00 0.00 141.00 408.00" xmlns="http://www.w3.org/2000/svg" xmlns:xlink="http://www.w3.org/1999/xlink">
<g id="graph0" class="graph" transform="scale(1 1) rotate(0) translate(4 404)">
<title>L4Re::Video::Goos::Info</title>
<!-- Node1 -->
<g id="Node000001" class="node">
<title>Node1</title>
<g id="a_Node000001"><a xlink:title="Information structure of a Goos.">
<polygon fill="#999999" stroke="transparent" points="133,-154 0,-154 0,0 133,0 133,-154"/>
<text text-anchor="start" x="10" y="-142" font-family="Helvetica,sans-Serif" font-size="10.00">L4Re::Video::Goos::Info</text>
<text text-anchor="start" x="4.5" y="-127" font-family="Helvetica,sans-Serif" font-size="10.00">+</text>
<text text-anchor="start" x="17.5" y="-127" font-family="Helvetica,sans-Serif" font-size="10.00">width</text>
<text text-anchor="start" x="4.5" y="-112" font-family="Helvetica,sans-Serif" font-size="10.00">+</text>
<text text-anchor="start" x="17.5" y="-112" font-family="Helvetica,sans-Serif" font-size="10.00">height</text>
<text text-anchor="start" x="4.5" y="-97" font-family="Helvetica,sans-Serif" font-size="10.00">+</text>
<text text-anchor="start" x="17.5" y="-97" font-family="Helvetica,sans-Serif" font-size="10.00">flags</text>
<text text-anchor="start" x="4.5" y="-82" font-family="Helvetica,sans-Serif" font-size="10.00">+</text>
<text text-anchor="start" x="17.5" y="-82" font-family="Helvetica,sans-Serif" font-size="10.00">num_static_views</text>
<text text-anchor="start" x="4.5" y="-67" font-family="Helvetica,sans-Serif" font-size="10.00">+</text>
<text text-anchor="start" x="17.5" y="-67" font-family="Helvetica,sans-Serif" font-size="10.00">num_static_buffers</text>
<text text-anchor="start" x="4.5" y="-52" font-family="Helvetica,sans-Serif" font-size="10.00">+</text>
<text text-anchor="start" x="17.5" y="-52" font-family="Helvetica,sans-Serif" font-size="10.00">auto_refresh()</text>
<text text-anchor="start" x="4.5" y="-37" font-family="Helvetica,sans-Serif" font-size="10.00">+</text>
<text text-anchor="start" x="17.5" y="-37" font-family="Helvetica,sans-Serif" font-size="10.00">has_pointer()</text>
<text text-anchor="start" x="4.5" y="-22" font-family="Helvetica,sans-Serif" font-size="10.00">+</text>
<text text-anchor="start" x="17.5" y="-22" font-family="Helvetica,sans-Serif" font-size="10.00">has_dynamic_views()</text>
<text text-anchor="start" x="4.5" y="-7" font-family="Helvetica,sans-Serif" font-size="10.00">+</text>
<text text-anchor="start" x="17.5" y="-7" font-family="Helvetica,sans-Serif" font-size="10.00">has_dynamic_buffers()</text>
<polygon fill="#666666" stroke="#666666" points="0.5,-137 0.5,-137 133.5,-137 133.5,-137 0.5,-137"/>
<polygon fill="#666666" stroke="#666666" points="0.5,-62 0.5,-62 15.5,-62 15.5,-62 0.5,-62"/>
<polygon fill="#666666" stroke="#666666" points="15.5,-62 15.5,-62 133.5,-62 133.5,-62 15.5,-62"/>
<polygon fill="none" stroke="#666666" points="0,0 0,-154 133,-154 133,0 0,0"/>
</a>
</g>
</g>
<!-- Node2 -->
<g id="Node000002" class="node">
<title>Node2</title>
<g id="a_Node000002"><a xlink:href="classL4Re_1_1Video_1_1Pixel__info.html" target="_top" xlink:title="Pixel information.">
<polygon fill="white" stroke="transparent" points="127.5,-400 5.5,-400 5.5,-201 127.5,-201 127.5,-400"/>
<text text-anchor="start" x="10.5" y="-387.5" font-family="Helvetica,sans-Serif" font-size="10.00">L4Re::Video::Pixel_info</text>
<text text-anchor="start" x="64.5" y="-372.5" font-family="Helvetica,sans-Serif" font-size="10.00"> </text>
<text text-anchor="start" x="13.5" y="-357.5" font-family="Helvetica,sans-Serif" font-size="10.00">+</text>
<text text-anchor="start" x="30.5" y="-357.5" font-family="Helvetica,sans-Serif" font-size="10.00">r()</text>
<text text-anchor="start" x="13.5" y="-342.5" font-family="Helvetica,sans-Serif" font-size="10.00">+</text>
<text text-anchor="start" x="30.5" y="-342.5" font-family="Helvetica,sans-Serif" font-size="10.00">g()</text>
<text text-anchor="start" x="13.5" y="-327.5" font-family="Helvetica,sans-Serif" font-size="10.00">+</text>
<text text-anchor="start" x="30.5" y="-327.5" font-family="Helvetica,sans-Serif" font-size="10.00">b()</text>
<text text-anchor="start" x="13.5" y="-312.5" font-family="Helvetica,sans-Serif" font-size="10.00">+</text>
<text text-anchor="start" x="30.5" y="-312.5" font-family="Helvetica,sans-Serif" font-size="10.00">a()</text>
<text text-anchor="start" x="13.5" y="-297.5" font-family="Helvetica,sans-Serif" font-size="10.00">+</text>
<text text-anchor="start" x="30.5" y="-297.5" font-family="Helvetica,sans-Serif" font-size="10.00">padding()</text>
<text text-anchor="start" x="13.5" y="-282.5" font-family="Helvetica,sans-Serif" font-size="10.00">+</text>
<text text-anchor="start" x="30.5" y="-282.5" font-family="Helvetica,sans-Serif" font-size="10.00">bytes_per_pixel()</text>
<text text-anchor="start" x="13.5" y="-267.5" font-family="Helvetica,sans-Serif" font-size="10.00">+</text>
<text text-anchor="start" x="30.5" y="-267.5" font-family="Helvetica,sans-Serif" font-size="10.00">bits_per_pixel()</text>
<text text-anchor="start" x="13.5" y="-252.5" font-family="Helvetica,sans-Serif" font-size="10.00">+</text>
<text text-anchor="start" x="30.5" y="-252.5" font-family="Helvetica,sans-Serif" font-size="10.00">has_alpha()</text>
<text text-anchor="start" x="13.5" y="-237.5" font-family="Helvetica,sans-Serif" font-size="10.00">+</text>
<text text-anchor="start" x="30.5" y="-237.5" font-family="Helvetica,sans-Serif" font-size="10.00">r()</text>
<text text-anchor="start" x="13.5" y="-222.5" font-family="Helvetica,sans-Serif" font-size="10.00">+</text>
<text text-anchor="start" x="30.5" y="-222.5" font-family="Helvetica,sans-Serif" font-size="10.00">g()</text>
<text text-anchor="start" x="30.5" y="-207.5" font-family="Helvetica,sans-Serif" font-size="10.00">and 8 more...</text>
<polygon fill="#666666" stroke="#666666" points="5.5,-382.5 5.5,-382.5 127.5,-382.5 127.5,-382.5 5.5,-382.5"/>
<polygon fill="#666666" stroke="#666666" points="5.5,-367.5 5.5,-367.5 127.5,-367.5 127.5,-367.5 5.5,-367.5"/>
<polygon fill="none" stroke="#666666" points="5.5,-201 5.5,-400 127.5,-400 127.5,-201 5.5,-201"/>
</a>
</g>
</g>
<!-- Node2&#45;&gt;Node1 -->
<g id="edge1_Node000001_Node000002" class="edge">
<title>Node2&#45;&gt;Node1</title>
<g id="a_edge1_Node000001_Node000002"><a xlink:title=" ">
<path fill="none" stroke="#63b8ff" d="M66.5,-200.73C66.5,-189.3 66.5,-177.69 66.5,-166.4"/>
<polygon fill="none" stroke="#63b8ff" points="66.5,-166.3 62.5,-160.3 66.5,-154.3 70.5,-160.3 66.5,-166.3"/>
</a>
</g>
<text text-anchor="middle" x="96" y="-175" font-family="Helvetica,sans-Serif" font-size="10.00" fill="grey"> +pixel_info</text>
</g>
</g>
</svg>
