<?xml version="1.0" encoding="UTF-8" standalone="no"?>
<!DOCTYPE svg PUBLIC "-//W3C//DTD SVG 1.1//EN"
 "http://www.w3.org/Graphics/SVG/1.1/DTD/svg11.dtd">
<!-- Generated by graphviz version 2.42.4 (0)
 -->
<!-- Title: l4_vhw_descriptor Pages: 1 -->
<svg width="107pt" height="288pt"
 viewBox="0.00 0.00 107.00 288.00" xmlns="http://www.w3.org/2000/svg" xmlns:xlink="http://www.w3.org/1999/xlink">
<g id="graph0" class="graph" transform="scale(1 1) rotate(0) translate(4 284)">
<title>l4_vhw_descriptor</title>
<!-- Node1 -->
<g id="Node000001" class="node">
<title>Node1</title>
<g id="a_Node000001"><a xlink:title="Virtual hardware devices description.">
<polygon fill="#999999" stroke="transparent" points="99,-109 0,-109 0,0 99,0 99,-109"/>
<text text-anchor="start" x="5.5" y="-96.5" font-family="Helvetica,sans-Serif" font-size="10.00">l4_vhw_descriptor</text>
<text text-anchor="start" x="14.5" y="-81.5" font-family="Helvetica,sans-Serif" font-size="10.00">+</text>
<text text-anchor="start" x="37.5" y="-81.5" font-family="Helvetica,sans-Serif" font-size="10.00">magic</text>
<text text-anchor="start" x="14.5" y="-66.5" font-family="Helvetica,sans-Serif" font-size="10.00">+</text>
<text text-anchor="start" x="37.5" y="-66.5" font-family="Helvetica,sans-Serif" font-size="10.00">version</text>
<text text-anchor="start" x="14.5" y="-51.5" font-family="Helvetica,sans-Serif" font-size="10.00">+</text>
<text text-anchor="start" x="37.5" y="-51.5" font-family="Helvetica,sans-Serif" font-size="10.00">count</text>
<text text-anchor="start" x="14.5" y="-36.5" font-family="Helvetica,sans-Serif" font-size="10.00">+</text>
<text text-anchor="start" x="37.5" y="-36.5" font-family="Helvetica,sans-Serif" font-size="10.00">pad1</text>
<text text-anchor="start" x="14.5" y="-21.5" font-family="Helvetica,sans-Serif" font-size="10.00">+</text>
<text text-anchor="start" x="37.5" y="-21.5" font-family="Helvetica,sans-Serif" font-size="10.00">pad2</text>
<text text-anchor="start" x="48" y="-6.5" font-family="Helvetica,sans-Serif" font-size="10.00"> </text>
<polygon fill="#666666" stroke="#666666" points="0.5,-91.5 0.5,-91.5 99.5,-91.5 99.5,-91.5 0.5,-91.5"/>
<polygon fill="#666666" stroke="#666666" points="0.5,-16.5 0.5,-16.5 35.5,-16.5 35.5,-16.5 0.5,-16.5"/>
<polygon fill="#666666" stroke="#666666" points="35.5,-16.5 35.5,-16.5 99.5,-16.5 99.5,-16.5 35.5,-16.5"/>
<polygon fill="none" stroke="#666666" points="0,0 0,-109 99,-109 99,0 0,0"/>
</a>
</g>
</g>
<!-- Node2 -->
<g id="Node000002" class="node">
<title>Node2</title>
<g id="a_Node000002"><a xlink:href="structl4__vhw__entry.html" target="_top" xlink:title="Description of a device.">
<polygon fill="white" stroke="transparent" points="90.5,-280 8.5,-280 8.5,-156 90.5,-156 90.5,-280"/>
<text text-anchor="start" x="16.5" y="-268" font-family="Helvetica,sans-Serif" font-size="10.00">l4_vhw_entry</text>
<text text-anchor="start" x="12.5" y="-253" font-family="Helvetica,sans-Serif" font-size="10.00">+</text>
<text text-anchor="start" x="25.5" y="-253" font-family="Helvetica,sans-Serif" font-size="10.00">type</text>
<text text-anchor="start" x="12.5" y="-238" font-family="Helvetica,sans-Serif" font-size="10.00">+</text>
<text text-anchor="start" x="25.5" y="-238" font-family="Helvetica,sans-Serif" font-size="10.00">provider_pid</text>
<text text-anchor="start" x="12.5" y="-223" font-family="Helvetica,sans-Serif" font-size="10.00">+</text>
<text text-anchor="start" x="25.5" y="-223" font-family="Helvetica,sans-Serif" font-size="10.00">mem_start</text>
<text text-anchor="start" x="12.5" y="-208" font-family="Helvetica,sans-Serif" font-size="10.00">+</text>
<text text-anchor="start" x="25.5" y="-208" font-family="Helvetica,sans-Serif" font-size="10.00">mem_size</text>
<text text-anchor="start" x="12.5" y="-193" font-family="Helvetica,sans-Serif" font-size="10.00">+</text>
<text text-anchor="start" x="25.5" y="-193" font-family="Helvetica,sans-Serif" font-size="10.00">irq_no</text>
<text text-anchor="start" x="12.5" y="-178" font-family="Helvetica,sans-Serif" font-size="10.00">+</text>
<text text-anchor="start" x="25.5" y="-178" font-family="Helvetica,sans-Serif" font-size="10.00">fd</text>
<text text-anchor="start" x="47.5" y="-163" font-family="Helvetica,sans-Serif" font-size="10.00"> </text>
<polygon fill="#666666" stroke="#666666" points="8.5,-263 8.5,-263 90.5,-263 90.5,-263 8.5,-263"/>
<polygon fill="#666666" stroke="#666666" points="8.5,-173 8.5,-173 23.5,-173 23.5,-173 8.5,-173"/>
<polygon fill="#666666" stroke="#666666" points="23.5,-173 23.5,-173 90.5,-173 90.5,-173 23.5,-173"/>
<polygon fill="none" stroke="#666666" points="8.5,-156 8.5,-280 90.5,-280 90.5,-156 8.5,-156"/>
</a>
</g>
</g>
<!-- Node2&#45;&gt;Node1 -->
<g id="edge1_Node000001_Node000002" class="edge">
<title>Node2&#45;&gt;Node1</title>
<g id="a_edge1_Node000001_Node000002"><a xlink:title=" ">
<path fill="none" stroke="#63b8ff" d="M49.5,-155.94C49.5,-144.66 49.5,-132.83 49.5,-121.41"/>
<polygon fill="none" stroke="#63b8ff" points="49.5,-121.23 45.5,-115.23 49.5,-109.23 53.5,-115.23 49.5,-121.23"/>
</a>
</g>
<text text-anchor="middle" x="69.5" y="-130" font-family="Helvetica,sans-Serif" font-size="10.00" fill="grey"> +descs</text>
</g>
</g>
</svg>
