<?xml version="1.0" encoding="UTF-8" standalone="no"?>
<!DOCTYPE svg PUBLIC "-//W3C//DTD SVG 1.1//EN"
 "http://www.w3.org/Graphics/SVG/1.1/DTD/svg11.dtd">
<!-- Generated by graphviz version 2.42.4 (0)
 -->
<!-- Title: L4::Ipc::Array_in_buf&lt; ELEM_TYPE, LEN_TYPE, MAX &gt; Pages: 1 -->
<svg width="142pt" height="124pt"
 viewBox="0.00 0.00 142.00 124.00" xmlns="http://www.w3.org/2000/svg" xmlns:xlink="http://www.w3.org/1999/xlink">
<g id="graph0" class="graph" transform="scale(1 1) rotate(0) translate(4 120)">
<title>L4::Ipc::Array_in_buf&lt; ELEM_TYPE, LEN_TYPE, MAX &gt;</title>
<!-- Node1 -->
<g id="Node000001" class="node">
<title>Node1</title>
<g id="a_Node000001"><a xlink:title="Server&#45;side copy in buffer for Array.">
<polygon fill="#999999" stroke="transparent" points="134,-116 0,-116 0,0 134,0 134,-116"/>
<text text-anchor="start" x="5" y="-104" font-family="Helvetica,sans-Serif" font-size="10.00">L4::Ipc::Array_in_buf</text>
<text text-anchor="start" x="5" y="-93" font-family="Helvetica,sans-Serif" font-size="10.00">&lt; ELEM_TYPE, LEN_TYPE,</text>
<text text-anchor="start" x="48.5" y="-82" font-family="Helvetica,sans-Serif" font-size="10.00"> MAX &gt;</text>
<text text-anchor="start" x="14.5" y="-67" font-family="Helvetica,sans-Serif" font-size="10.00">+</text>
<text text-anchor="start" x="38" y="-67" font-family="Helvetica,sans-Serif" font-size="10.00">data</text>
<text text-anchor="start" x="14.5" y="-52" font-family="Helvetica,sans-Serif" font-size="10.00">+</text>
<text text-anchor="start" x="38" y="-52" font-family="Helvetica,sans-Serif" font-size="10.00">length</text>
<text text-anchor="start" x="14.5" y="-37" font-family="Helvetica,sans-Serif" font-size="10.00">+</text>
<text text-anchor="start" x="38" y="-37" font-family="Helvetica,sans-Serif" font-size="10.00">copy_in()</text>
<text text-anchor="start" x="14.5" y="-22" font-family="Helvetica,sans-Serif" font-size="10.00">+</text>
<text text-anchor="start" x="38" y="-22" font-family="Helvetica,sans-Serif" font-size="10.00">Array_in_buf()</text>
<text text-anchor="start" x="14.5" y="-7" font-family="Helvetica,sans-Serif" font-size="10.00">+</text>
<text text-anchor="start" x="38" y="-7" font-family="Helvetica,sans-Serif" font-size="10.00">Array_in_buf()</text>
<polygon fill="#666666" stroke="#666666" points="0,-77 0,-77 134,-77 134,-77 0,-77"/>
<polygon fill="#666666" stroke="#666666" points="0,-47 0,-47 36,-47 36,-47 0,-47"/>
<polygon fill="#666666" stroke="#666666" points="36,-47 36,-47 134,-47 134,-47 36,-47"/>
<polygon fill="none" stroke="#666666" points="0,0 0,-116 134,-116 134,0 0,0"/>
</a>
</g>
</g>
</g>
</svg>
