<?xml version="1.0" encoding="UTF-8" standalone="no"?>
<!DOCTYPE svg PUBLIC "-//W3C//DTD SVG 1.1//EN"
 "http://www.w3.org/Graphics/SVG/1.1/DTD/svg11.dtd">
<!-- Generated by graphviz version 2.42.4 (0)
 -->
<!-- Title: L4virtio::Svr::Console::Control_message Pages: 1 -->
<svg width="122pt" height="98pt"
 viewBox="0.00 0.00 122.00 98.00" xmlns="http://www.w3.org/2000/svg" xmlns:xlink="http://www.w3.org/1999/xlink">
<g id="graph0" class="graph" transform="scale(1 1) rotate(0) translate(4 94)">
<title>L4virtio::Svr::Console::Control_message</title>
<!-- Node1 -->
<g id="Node000001" class="node">
<title>Node1</title>
<g id="a_Node000001"><a xlink:title="Virtio console control message.">
<polygon fill="#999999" stroke="transparent" points="114,-90 0,-90 0,0 114,0 114,-90"/>
<text text-anchor="start" x="5" y="-78" font-family="Helvetica,sans-Serif" font-size="10.00">L4virtio::Svr::Console</text>
<text text-anchor="start" x="11.5" y="-67" font-family="Helvetica,sans-Serif" font-size="10.00">::Control_message</text>
<text text-anchor="start" x="20" y="-52" font-family="Helvetica,sans-Serif" font-size="10.00">+</text>
<text text-anchor="start" x="49" y="-52" font-family="Helvetica,sans-Serif" font-size="10.00">id</text>
<text text-anchor="start" x="20" y="-37" font-family="Helvetica,sans-Serif" font-size="10.00">+</text>
<text text-anchor="start" x="49" y="-37" font-family="Helvetica,sans-Serif" font-size="10.00">event</text>
<text text-anchor="start" x="20" y="-22" font-family="Helvetica,sans-Serif" font-size="10.00">+</text>
<text text-anchor="start" x="49" y="-22" font-family="Helvetica,sans-Serif" font-size="10.00">value</text>
<text text-anchor="start" x="55" y="-7" font-family="Helvetica,sans-Serif" font-size="10.00"> </text>
<polygon fill="#666666" stroke="#666666" points="0,-62 0,-62 114,-62 114,-62 0,-62"/>
<polygon fill="#666666" stroke="#666666" points="0,-17 0,-17 47,-17 47,-17 0,-17"/>
<polygon fill="#666666" stroke="#666666" points="47,-17 47,-17 114,-17 114,-17 47,-17"/>
<polygon fill="none" stroke="#666666" points="0,0 0,-90 114,-90 114,0 0,0"/>
</a>
</g>
</g>
</g>
</svg>
