<?xml version="1.0" encoding="UTF-8" standalone="no"?>
<!DOCTYPE svg PUBLIC "-//W3C//DTD SVG 1.1//EN"
 "http://www.w3.org/Graphics/SVG/1.1/DTD/svg11.dtd">
<!-- Generated by graphviz version 2.43.0 (0)
 -->
<!-- Title: L4::Server_object_t&lt; IFACE, BASE &gt; Pages: 1 -->
<svg width="151pt" height="388pt"
 viewBox="0.00 0.00 151.00 388.00" xmlns="http://www.w3.org/2000/svg" xmlns:xlink="http://www.w3.org/1999/xlink">
<g id="graph0" class="graph" transform="scale(1 1) rotate(0) translate(4 384)">
<title>L4::Server_object_t&lt; IFACE, BASE &gt;</title>
<!-- Node1 -->
<g id="Node000001" class="node">
<title>Node1</title>
<g id="a_Node000001"><a xlink:title="Base class (template) for server implementing server objects.">
<polygon fill="#999999" stroke="transparent" points="143,-90 0,-90 0,0 143,0 143,-90"/>
<text text-anchor="start" x="25" y="-78" font-family="Helvetica,sans-Serif" font-size="10.00">L4::Server_object_t</text>
<text text-anchor="start" x="31" y="-67" font-family="Helvetica,sans-Serif" font-size="10.00">&lt; IFACE, BASE &gt;</text>
<text text-anchor="start" x="70" y="-52" font-family="Helvetica,sans-Serif" font-size="10.00"> </text>
<text text-anchor="start" x="4.5" y="-37" font-family="Helvetica,sans-Serif" font-size="10.00">+</text>
<text text-anchor="start" x="17.5" y="-37" font-family="Helvetica,sans-Serif" font-size="10.00">get_buffer_demand()</text>
<text text-anchor="start" x="4.5" y="-22" font-family="Helvetica,sans-Serif" font-size="10.00">+</text>
<text text-anchor="start" x="17.5" y="-22" font-family="Helvetica,sans-Serif" font-size="10.00">dispatch_meta_request()</text>
<text text-anchor="start" x="4.5" y="-7" font-family="Helvetica,sans-Serif" font-size="10.00">+</text>
<text text-anchor="start" x="17.5" y="-7" font-family="Helvetica,sans-Serif" font-size="10.00">proto_dispatch()</text>
<polygon fill="#666666" stroke="#666666" points="0.5,-62 0.5,-62 143.5,-62 143.5,-62 0.5,-62"/>
<polygon fill="#666666" stroke="#666666" points="0.5,-47 0.5,-47 143.5,-47 143.5,-47 0.5,-47"/>
<polygon fill="none" stroke="#666666" points="0,0 0,-90 143,-90 143,0 0,0"/>
</a>
</g>
</g>
<!-- Node2 -->
<g id="Node000002" class="node">
<title>Node2</title>
<g id="a_Node000002"><a xlink:href="classL4_1_1Server__object.html" target="_top" xlink:title="Abstract server object to be used with L4::Server and L4::Basic_registry.">
<polygon fill="white" stroke="transparent" points="119,-190 24,-190 24,-126 119,-126 119,-190"/>
<text text-anchor="start" x="29.5" y="-178" font-family="Helvetica,sans-Serif" font-size="10.00">L4::Server_object</text>
<text text-anchor="start" x="70" y="-163" font-family="Helvetica,sans-Serif" font-size="10.00"> </text>
<text text-anchor="start" x="34.5" y="-148" font-family="Helvetica,sans-Serif" font-size="10.00">+</text>
<text text-anchor="start" x="53.5" y="-148" font-family="Helvetica,sans-Serif" font-size="10.00">dispatch()</text>
<text text-anchor="start" x="34.5" y="-133" font-family="Helvetica,sans-Serif" font-size="10.00">+</text>
<text text-anchor="start" x="53.5" y="-133" font-family="Helvetica,sans-Serif" font-size="10.00">dispatch()</text>
<polygon fill="#666666" stroke="#666666" points="24.5,-173 24.5,-173 119.5,-173 119.5,-173 24.5,-173"/>
<polygon fill="#666666" stroke="#666666" points="24.5,-158 24.5,-158 119.5,-158 119.5,-158 24.5,-158"/>
<polygon fill="none" stroke="#666666" points="24,-126 24,-190 119,-190 119,-126 24,-126"/>
</a>
</g>
</g>
<!-- Node2&#45;&gt;Node1 -->
<g id="edge1_Node000001_Node000002" class="edge">
<title>Node2&#45;&gt;Node1</title>
<g id="a_edge1_Node000001_Node000002"><a xlink:title=" ">
<path fill="none" stroke="#63b8ff" d="M71.5,-115.6C71.5,-107.32 71.5,-98.6 71.5,-90.23"/>
<polygon fill="none" stroke="#63b8ff" points="68,-115.78 71.5,-125.78 75,-115.78 68,-115.78"/>
</a>
</g>
</g>
<!-- Node3 -->
<g id="Node000003" class="node">
<title>Node3</title>
<g id="a_Node000003"><a xlink:href="structL4_1_1Epiface.html" target="_top" xlink:title="Base class for interface implementations.">
<polygon fill="white" stroke="transparent" points="133.5,-380 9.5,-380 9.5,-226 133.5,-226 133.5,-380"/>
<text text-anchor="start" x="44.5" y="-368" font-family="Helvetica,sans-Serif" font-size="10.00">L4::Epiface</text>
<text text-anchor="start" x="69.5" y="-353" font-family="Helvetica,sans-Serif" font-size="10.00"> </text>
<text text-anchor="start" x="13.5" y="-338" font-family="Helvetica,sans-Serif" font-size="10.00">+</text>
<text text-anchor="start" x="26.5" y="-338" font-family="Helvetica,sans-Serif" font-size="10.00">Epiface()</text>
<text text-anchor="start" x="13.5" y="-323" font-family="Helvetica,sans-Serif" font-size="10.00">+</text>
<text text-anchor="start" x="26.5" y="-323" font-family="Helvetica,sans-Serif" font-size="10.00">dispatch()</text>
<text text-anchor="start" x="13.5" y="-308" font-family="Helvetica,sans-Serif" font-size="10.00">+</text>
<text text-anchor="start" x="26.5" y="-308" font-family="Helvetica,sans-Serif" font-size="10.00">get_buffer_demand()</text>
<text text-anchor="start" x="13.5" y="-293" font-family="Helvetica,sans-Serif" font-size="10.00">+</text>
<text text-anchor="start" x="26.5" y="-293" font-family="Helvetica,sans-Serif" font-size="10.00">~Epiface()</text>
<text text-anchor="start" x="13.5" y="-278" font-family="Helvetica,sans-Serif" font-size="10.00">+</text>
<text text-anchor="start" x="26.5" y="-278" font-family="Helvetica,sans-Serif" font-size="10.00">obj_cap()</text>
<text text-anchor="start" x="13.5" y="-263" font-family="Helvetica,sans-Serif" font-size="10.00">+</text>
<text text-anchor="start" x="26.5" y="-263" font-family="Helvetica,sans-Serif" font-size="10.00">server_iface()</text>
<text text-anchor="start" x="13.5" y="-248" font-family="Helvetica,sans-Serif" font-size="10.00">+</text>
<text text-anchor="start" x="26.5" y="-248" font-family="Helvetica,sans-Serif" font-size="10.00">set_server()</text>
<text text-anchor="start" x="13.5" y="-233" font-family="Helvetica,sans-Serif" font-size="10.00">+</text>
<text text-anchor="start" x="26.5" y="-233" font-family="Helvetica,sans-Serif" font-size="10.00">set_obj_cap()</text>
<polygon fill="#666666" stroke="#666666" points="9.5,-363 9.5,-363 133.5,-363 133.5,-363 9.5,-363"/>
<polygon fill="#666666" stroke="#666666" points="9.5,-348 9.5,-348 133.5,-348 133.5,-348 9.5,-348"/>
<polygon fill="none" stroke="#666666" points="9.5,-226 9.5,-380 133.5,-380 133.5,-226 9.5,-226"/>
</a>
</g>
</g>
<!-- Node3&#45;&gt;Node2 -->
<g id="edge2_Node000002_Node000003" class="edge">
<title>Node3&#45;&gt;Node2</title>
<g id="a_edge2_Node000002_Node000003"><a xlink:title=" ">
<path fill="none" stroke="#63b8ff" d="M71.5,-215.87C71.5,-206.72 71.5,-197.9 71.5,-190.06"/>
<polygon fill="none" stroke="#63b8ff" points="68,-215.89 71.5,-225.89 75,-215.89 68,-215.89"/>
</a>
</g>
</g>
</g>
</svg>
