<?xml version="1.0" encoding="UTF-8" standalone="no"?>
<!DOCTYPE svg PUBLIC "-//W3C//DTD SVG 1.1//EN"
 "http://www.w3.org/Graphics/SVG/1.1/DTD/svg11.dtd">
<!-- Generated by graphviz version 2.43.0 (0)
 -->
<!-- Title: L4::Epiface_t&lt; Derived, IFACE, BASE, bool &gt; Pages: 1 -->
<svg width="323pt" height="500pt"
 viewBox="0.00 0.00 322.50 500.00" xmlns="http://www.w3.org/2000/svg" xmlns:xlink="http://www.w3.org/1999/xlink">
<g id="graph0" class="graph" transform="scale(1 1) rotate(0) translate(4 496)">
<title>L4::Epiface_t&lt; Derived, IFACE, BASE, bool &gt;</title>
<!-- Node1 -->
<g id="Node000001" class="node">
<title>Node1</title>
<g id="a_Node000001"><a xlink:title="Epiface implementation for Kobject&#45;based interface implementations.">
<polygon fill="#999999" stroke="transparent" points="198,-189 73,-189 73,-129 198,-129 198,-189"/>
<text text-anchor="start" x="78.5" y="-177" font-family="Helvetica,sans-Serif" font-size="10.00">L4::Epiface_t&lt; Derived,</text>
<text text-anchor="start" x="86" y="-166" font-family="Helvetica,sans-Serif" font-size="10.00"> IFACE, BASE, bool &gt;</text>
<text text-anchor="start" x="134" y="-151" font-family="Helvetica,sans-Serif" font-size="10.00"> </text>
<text text-anchor="start" x="91" y="-136" font-family="Helvetica,sans-Serif" font-size="10.00">+</text>
<text text-anchor="start" x="117.5" y="-136" font-family="Helvetica,sans-Serif" font-size="10.00">dispatch()</text>
<polygon fill="#666666" stroke="#666666" points="73.5,-161 73.5,-161 198.5,-161 198.5,-161 73.5,-161"/>
<polygon fill="#666666" stroke="#666666" points="73.5,-146 73.5,-146 198.5,-146 198.5,-146 73.5,-146"/>
<polygon fill="none" stroke="#666666" points="73,-129 73,-189 198,-189 198,-129 73,-129"/>
</a>
</g>
</g>
<!-- Node4 -->
<g id="Node000004" class="node">
<title>Node4</title>
<g id="a_Node000004"><a xlink:href="structL4_1_1Epiface__t.html" target="_top" xlink:title=" ">
<polygon fill="white" stroke="transparent" points="123,-65.5 0,-65.5 0,-5.5 123,-5.5 123,-65.5"/>
<text text-anchor="start" x="5.5" y="-53.5" font-family="Helvetica,sans-Serif" font-size="10.00">L4::Epiface_t&lt; Null</text>
<text text-anchor="start" x="5.5" y="-42.5" font-family="Helvetica,sans-Serif" font-size="10.00">_handler, L4::Kobject &gt;</text>
<text text-anchor="start" x="60" y="-27.5" font-family="Helvetica,sans-Serif" font-size="10.00"> </text>
<text text-anchor="start" x="60" y="-12.5" font-family="Helvetica,sans-Serif" font-size="10.00"> </text>
<polygon fill="#666666" stroke="#666666" points="0.5,-37.5 0.5,-37.5 123.5,-37.5 123.5,-37.5 0.5,-37.5"/>
<polygon fill="#666666" stroke="#666666" points="0.5,-22.5 0.5,-22.5 123.5,-22.5 123.5,-22.5 0.5,-22.5"/>
<polygon fill="none" stroke="#666666" points="0,-5.5 0,-65.5 123,-65.5 123,-5.5 0,-5.5"/>
</a>
</g>
</g>
<!-- Node1&#45;&gt;Node4 -->
<g id="edge3_Node000001_Node000004" class="edge">
<title>Node1&#45;&gt;Node4</title>
<g id="a_edge3_Node000001_Node000004"><a xlink:title=" ">
<path fill="none" stroke="orange" d="M101.47,-120.98C98.99,-117.7 96.63,-114.35 94.5,-111 85.53,-96.92 77.82,-79.99 72.11,-65.83"/>
<polygon fill="orange" stroke="orange" points="98.87,-123.33 107.83,-128.98 104.35,-118.97 98.87,-123.33"/>
</a>
</g>
<text text-anchor="start" x="94.5" y="-103" font-family="Helvetica,sans-Serif" font-size="10.00" fill="grey"> &lt; Null_handler, L4</text>
<text text-anchor="middle" x="141.5" y="-92" font-family="Helvetica,sans-Serif" font-size="10.00" fill="grey">::Kobject &gt;</text>
</g>
<!-- Node5 -->
<g id="Node000005" class="node">
<title>Node5</title>
<g id="a_Node000005"><a xlink:href="structL4_1_1Epiface__t.html" target="_top" xlink:title=" ">
<polygon fill="white" stroke="transparent" points="280,-71 141,-71 141,0 280,0 280,-71"/>
<text text-anchor="start" x="146.5" y="-58.5" font-family="Helvetica,sans-Serif" font-size="10.00">L4::Epiface_t&lt; Block</text>
<text text-anchor="start" x="146.5" y="-47.5" font-family="Helvetica,sans-Serif" font-size="10.00">_dev&lt; Ds_data &gt;, L4virtio</text>
<text text-anchor="start" x="185" y="-36.5" font-family="Helvetica,sans-Serif" font-size="10.00">::Device &gt;</text>
<text text-anchor="start" x="209" y="-21.5" font-family="Helvetica,sans-Serif" font-size="10.00"> </text>
<text text-anchor="start" x="209" y="-6.5" font-family="Helvetica,sans-Serif" font-size="10.00"> </text>
<polygon fill="#666666" stroke="#666666" points="141.5,-31.5 141.5,-31.5 280.5,-31.5 280.5,-31.5 141.5,-31.5"/>
<polygon fill="#666666" stroke="#666666" points="141.5,-16.5 141.5,-16.5 280.5,-16.5 280.5,-16.5 141.5,-16.5"/>
<polygon fill="none" stroke="#666666" points="141,0 141,-71 280,-71 280,0 141,0"/>
</a>
</g>
</g>
<!-- Node1&#45;&gt;Node5 -->
<g id="edge4_Node000001_Node000005" class="edge">
<title>Node1&#45;&gt;Node5</title>
<g id="a_edge4_Node000001_Node000005"><a xlink:title=" ">
<path fill="none" stroke="orange" d="M180.81,-121.32C183.63,-118.01 186.24,-114.56 188.5,-111 196.1,-99.05 201.16,-84.37 204.5,-71.21"/>
<polygon fill="orange" stroke="orange" points="178.14,-119.04 173.9,-128.75 183.27,-123.81 178.14,-119.04"/>
</a>
</g>
<text text-anchor="start" x="198.5" y="-103" font-family="Helvetica,sans-Serif" font-size="10.00" fill="grey"> &lt; Block_dev&lt; Ds_data</text>
<text text-anchor="middle" x="256.5" y="-92" font-family="Helvetica,sans-Serif" font-size="10.00" fill="grey"> &gt;, L4virtio::Device &gt;</text>
</g>
<!-- Node2 -->
<g id="Node000002" class="node">
<title>Node2</title>
<g id="a_Node000002"><a xlink:href="structL4_1_1Epiface__t0.html" target="_top" xlink:title="Epiface mixin for generic Kobject&#45;based interfaces.">
<polygon fill="white" stroke="transparent" points="197.5,-301 73.5,-301 73.5,-226 197.5,-226 197.5,-301"/>
<text text-anchor="start" x="85.5" y="-288.5" font-family="Helvetica,sans-Serif" font-size="10.00">L4::Epiface_t0&lt; RPC</text>
<text text-anchor="start" x="97.5" y="-277.5" font-family="Helvetica,sans-Serif" font-size="10.00">_IFACE, BASE &gt;</text>
<text text-anchor="start" x="133.5" y="-262.5" font-family="Helvetica,sans-Serif" font-size="10.00"> </text>
<text text-anchor="start" x="77.5" y="-247.5" font-family="Helvetica,sans-Serif" font-size="10.00">+</text>
<text text-anchor="start" x="90.5" y="-247.5" font-family="Helvetica,sans-Serif" font-size="10.00">get_buffer_demand()</text>
<text text-anchor="start" x="77.5" y="-232.5" font-family="Helvetica,sans-Serif" font-size="10.00">+</text>
<text text-anchor="start" x="90.5" y="-232.5" font-family="Helvetica,sans-Serif" font-size="10.00">obj_cap()</text>
<polygon fill="#666666" stroke="#666666" points="73.5,-272.5 73.5,-272.5 197.5,-272.5 197.5,-272.5 73.5,-272.5"/>
<polygon fill="#666666" stroke="#666666" points="73.5,-257.5 73.5,-257.5 197.5,-257.5 197.5,-257.5 73.5,-257.5"/>
<polygon fill="none" stroke="#666666" points="73.5,-226 73.5,-301 197.5,-301 197.5,-226 73.5,-226"/>
</a>
</g>
</g>
<!-- Node2&#45;&gt;Node1 -->
<g id="edge1_Node000001_Node000002" class="edge">
<title>Node2&#45;&gt;Node1</title>
<g id="a_edge1_Node000001_Node000002"><a xlink:title=" ">
<path fill="none" stroke="#63b8ff" d="M135.5,-215.69C135.5,-206.62 135.5,-197.37 135.5,-189.07"/>
<polygon fill="none" stroke="#63b8ff" points="132,-215.78 135.5,-225.78 139,-215.78 132,-215.78"/>
</a>
</g>
</g>
<!-- Node3 -->
<g id="Node000003" class="node">
<title>Node3</title>
<g id="a_Node000003"><a xlink:href="structL4_1_1Epiface.html" target="_top" xlink:title="Base class for interface implementations.">
<polygon fill="white" stroke="transparent" points="197.5,-492 73.5,-492 73.5,-338 197.5,-338 197.5,-492"/>
<text text-anchor="start" x="108.5" y="-480" font-family="Helvetica,sans-Serif" font-size="10.00">L4::Epiface</text>
<text text-anchor="start" x="133.5" y="-465" font-family="Helvetica,sans-Serif" font-size="10.00"> </text>
<text text-anchor="start" x="77.5" y="-450" font-family="Helvetica,sans-Serif" font-size="10.00">+</text>
<text text-anchor="start" x="90.5" y="-450" font-family="Helvetica,sans-Serif" font-size="10.00">Epiface()</text>
<text text-anchor="start" x="77.5" y="-435" font-family="Helvetica,sans-Serif" font-size="10.00">+</text>
<text text-anchor="start" x="90.5" y="-435" font-family="Helvetica,sans-Serif" font-size="10.00">dispatch()</text>
<text text-anchor="start" x="77.5" y="-420" font-family="Helvetica,sans-Serif" font-size="10.00">+</text>
<text text-anchor="start" x="90.5" y="-420" font-family="Helvetica,sans-Serif" font-size="10.00">get_buffer_demand()</text>
<text text-anchor="start" x="77.5" y="-405" font-family="Helvetica,sans-Serif" font-size="10.00">+</text>
<text text-anchor="start" x="90.5" y="-405" font-family="Helvetica,sans-Serif" font-size="10.00">~Epiface()</text>
<text text-anchor="start" x="77.5" y="-390" font-family="Helvetica,sans-Serif" font-size="10.00">+</text>
<text text-anchor="start" x="90.5" y="-390" font-family="Helvetica,sans-Serif" font-size="10.00">obj_cap()</text>
<text text-anchor="start" x="77.5" y="-375" font-family="Helvetica,sans-Serif" font-size="10.00">+</text>
<text text-anchor="start" x="90.5" y="-375" font-family="Helvetica,sans-Serif" font-size="10.00">server_iface()</text>
<text text-anchor="start" x="77.5" y="-360" font-family="Helvetica,sans-Serif" font-size="10.00">+</text>
<text text-anchor="start" x="90.5" y="-360" font-family="Helvetica,sans-Serif" font-size="10.00">set_server()</text>
<text text-anchor="start" x="77.5" y="-345" font-family="Helvetica,sans-Serif" font-size="10.00">+</text>
<text text-anchor="start" x="90.5" y="-345" font-family="Helvetica,sans-Serif" font-size="10.00">set_obj_cap()</text>
<polygon fill="#666666" stroke="#666666" points="73.5,-475 73.5,-475 197.5,-475 197.5,-475 73.5,-475"/>
<polygon fill="#666666" stroke="#666666" points="73.5,-460 73.5,-460 197.5,-460 197.5,-460 73.5,-460"/>
<polygon fill="none" stroke="#666666" points="73.5,-338 73.5,-492 197.5,-492 197.5,-338 73.5,-338"/>
</a>
</g>
</g>
<!-- Node3&#45;&gt;Node2 -->
<g id="edge2_Node000002_Node000003" class="edge">
<title>Node3&#45;&gt;Node2</title>
<g id="a_edge2_Node000002_Node000003"><a xlink:title=" ">
<path fill="none" stroke="#63b8ff" d="M135.5,-327.74C135.5,-318.41 135.5,-309.33 135.5,-301.09"/>
<polygon fill="none" stroke="#63b8ff" points="132,-327.94 135.5,-337.94 139,-327.94 132,-327.94"/>
</a>
</g>
</g>
</g>
</svg>
