<?xml version="1.0" encoding="UTF-8" standalone="no"?>
<!DOCTYPE svg PUBLIC "-//W3C//DTD SVG 1.1//EN"
 "http://www.w3.org/Graphics/SVG/1.1/DTD/svg11.dtd">
<!-- Generated by graphviz version 2.43.0 (0)
 -->
<!-- Title: L4::Semaphore Pages: 1 -->
<svg width="316pt" height="547pt"
 viewBox="0.00 0.00 315.50 547.00" xmlns="http://www.w3.org/2000/svg" xmlns:xlink="http://www.w3.org/1999/xlink">
<g id="graph0" class="graph" transform="scale(1 1) rotate(0) translate(4 543)">
<title>L4::Semaphore</title>
<!-- Node1 -->
<g id="Node000001" class="node">
<title>Node1</title>
<g id="a_Node000001"><a xlink:title="C++ Kernel&#45;provided semaphore interface, see Kernel&#45;provided semaphore for the C interface.">
<polygon fill="#999999" stroke="transparent" points="196,-64 113,-64 113,0 196,0 196,-64"/>
<text text-anchor="start" x="118.5" y="-52" font-family="Helvetica,sans-Serif" font-size="10.00">L4::Semaphore</text>
<text text-anchor="start" x="153" y="-37" font-family="Helvetica,sans-Serif" font-size="10.00"> </text>
<text text-anchor="start" x="124.5" y="-22" font-family="Helvetica,sans-Serif" font-size="10.00">+</text>
<text text-anchor="start" x="144.5" y="-22" font-family="Helvetica,sans-Serif" font-size="10.00">up()</text>
<text text-anchor="start" x="124.5" y="-7" font-family="Helvetica,sans-Serif" font-size="10.00">+</text>
<text text-anchor="start" x="144.5" y="-7" font-family="Helvetica,sans-Serif" font-size="10.00">down()</text>
<polygon fill="#666666" stroke="#666666" points="113.5,-47 113.5,-47 196.5,-47 196.5,-47 113.5,-47"/>
<polygon fill="#666666" stroke="#666666" points="113.5,-32 113.5,-32 196.5,-32 196.5,-32 113.5,-32"/>
<polygon fill="none" stroke="#666666" points="113,0 113,-64 196,-64 196,0 113,0"/>
</a>
</g>
</g>
<!-- Node2 -->
<g id="Node000002" class="node">
<title>Node2</title>
<g id="a_Node000002"><a xlink:href="classL4_1_1Kobject__t.html" target="_top" xlink:title=" ">
<polygon fill="white" stroke="transparent" points="226,-187 83,-187 83,-101 226,-101 226,-187"/>
<text text-anchor="start" x="88.5" y="-175" font-family="Helvetica,sans-Serif" font-size="10.00">L4::Kobject_t&lt; Semaphore,</text>
<text text-anchor="start" x="88.5" y="-164" font-family="Helvetica,sans-Serif" font-size="10.00"> Triggerable, L4_PROTO</text>
<text text-anchor="start" x="115.5" y="-153" font-family="Helvetica,sans-Serif" font-size="10.00">_SEMAPHORE &gt;</text>
<text text-anchor="start" x="153" y="-138" font-family="Helvetica,sans-Serif" font-size="10.00"> </text>
<text text-anchor="start" x="91" y="-123" font-family="Helvetica,sans-Serif" font-size="10.00">#</text>
<text text-anchor="start" x="107.5" y="-123" font-family="Helvetica,sans-Serif" font-size="10.00">c()</text>
<text text-anchor="start" x="91" y="-108" font-family="Helvetica,sans-Serif" font-size="10.00">#</text>
<text text-anchor="start" x="107.5" y="-108" font-family="Helvetica,sans-Serif" font-size="10.00">__check_protocols__()</text>
<polygon fill="#666666" stroke="#666666" points="83.5,-148 83.5,-148 226.5,-148 226.5,-148 83.5,-148"/>
<polygon fill="#666666" stroke="#666666" points="83.5,-133 83.5,-133 226.5,-133 226.5,-133 83.5,-133"/>
<polygon fill="none" stroke="#666666" points="83,-101 83,-187 226,-187 226,-101 83,-101"/>
</a>
</g>
</g>
<!-- Node2&#45;&gt;Node1 -->
<g id="edge1_Node000001_Node000002" class="edge">
<title>Node2&#45;&gt;Node1</title>
<g id="a_edge1_Node000001_Node000002"><a xlink:title=" ">
<path fill="none" stroke="#63b8ff" d="M154.5,-90.7C154.5,-81.69 154.5,-72.57 154.5,-64.34"/>
<polygon fill="none" stroke="#63b8ff" points="151,-90.79 154.5,-100.79 158,-90.79 151,-90.79"/>
</a>
</g>
</g>
<!-- Node3 -->
<g id="Node000003" class="node">
<title>Node3</title>
<g id="a_Node000003"><a xlink:href="structL4_1_1Triggerable.html" target="_top" xlink:title="Interface that allows an object to be triggered by some source.">
<polygon fill="white" stroke="transparent" points="154.5,-273 72.5,-273 72.5,-224 154.5,-224 154.5,-273"/>
<text text-anchor="start" x="77.5" y="-260.5" font-family="Helvetica,sans-Serif" font-size="10.00">L4::Triggerable</text>
<text text-anchor="start" x="111.5" y="-245.5" font-family="Helvetica,sans-Serif" font-size="10.00"> </text>
<text text-anchor="start" x="81.5" y="-230.5" font-family="Helvetica,sans-Serif" font-size="10.00">+</text>
<text text-anchor="start" x="99.5" y="-230.5" font-family="Helvetica,sans-Serif" font-size="10.00">trigger()</text>
<polygon fill="#666666" stroke="#666666" points="72.5,-255.5 72.5,-255.5 154.5,-255.5 154.5,-255.5 72.5,-255.5"/>
<polygon fill="#666666" stroke="#666666" points="72.5,-240.5 72.5,-240.5 154.5,-240.5 154.5,-240.5 72.5,-240.5"/>
<polygon fill="none" stroke="#666666" points="72.5,-224 72.5,-273 154.5,-273 154.5,-224 72.5,-224"/>
</a>
</g>
</g>
<!-- Node3&#45;&gt;Node2 -->
<g id="edge2_Node000002_Node000003" class="edge">
<title>Node3&#45;&gt;Node2</title>
<g id="a_edge2_Node000002_Node000003"><a xlink:title=" ">
<path fill="none" stroke="#63b8ff" d="M126.66,-214.59C130.13,-205.91 133.93,-196.42 137.57,-187.32"/>
<polygon fill="none" stroke="#63b8ff" points="123.37,-213.4 122.91,-223.98 129.87,-216 123.37,-213.4"/>
</a>
</g>
</g>
<!-- Node4 -->
<g id="Node000004" class="node">
<title>Node4</title>
<g id="a_Node000004"><a xlink:href="classL4_1_1Kobject__t.html" target="_top" xlink:title=" ">
<polygon fill="white" stroke="transparent" points="141,-406 0,-406 0,-331 141,-331 141,-406"/>
<text text-anchor="start" x="5.5" y="-393.5" font-family="Helvetica,sans-Serif" font-size="10.00">L4::Kobject_t&lt; Triggerable,</text>
<text text-anchor="start" x="7.5" y="-382.5" font-family="Helvetica,sans-Serif" font-size="10.00"> Irq_eoi, L4_PROTO_IRQ &gt;</text>
<text text-anchor="start" x="69" y="-367.5" font-family="Helvetica,sans-Serif" font-size="10.00"> </text>
<text text-anchor="start" x="7.5" y="-352.5" font-family="Helvetica,sans-Serif" font-size="10.00">#</text>
<text text-anchor="start" x="23.5" y="-352.5" font-family="Helvetica,sans-Serif" font-size="10.00">c()</text>
<text text-anchor="start" x="7.5" y="-337.5" font-family="Helvetica,sans-Serif" font-size="10.00">#</text>
<text text-anchor="start" x="23.5" y="-337.5" font-family="Helvetica,sans-Serif" font-size="10.00">__check_protocols__()</text>
<polygon fill="#666666" stroke="#666666" points="0.5,-377.5 0.5,-377.5 141.5,-377.5 141.5,-377.5 0.5,-377.5"/>
<polygon fill="#666666" stroke="#666666" points="0.5,-362.5 0.5,-362.5 141.5,-362.5 141.5,-362.5 0.5,-362.5"/>
<polygon fill="none" stroke="#666666" points="0,-331 0,-406 141,-406 141,-331 0,-331"/>
</a>
</g>
</g>
<!-- Node4&#45;&gt;Node3 -->
<g id="edge3_Node000003_Node000004" class="edge">
<title>Node4&#45;&gt;Node3</title>
<g id="a_edge3_Node000003_Node000004"><a xlink:title=" ">
<path fill="none" stroke="#63b8ff" d="M87.33,-321.31C93.34,-304.83 99.86,-286.94 104.88,-273.14"/>
<polygon fill="none" stroke="#63b8ff" points="84.01,-320.22 83.87,-330.81 90.58,-322.61 84.01,-320.22"/>
</a>
</g>
</g>
<!-- Node5 -->
<g id="Node000005" class="node">
<title>Node5</title>
<g id="a_Node000005"><a xlink:href="classL4_1_1Irq__eoi.html" target="_top" xlink:title="Interface for sending an unmask message to an object.">
<polygon fill="white" stroke="transparent" points="71.5,-526 3.5,-526 3.5,-477 71.5,-477 71.5,-526"/>
<text text-anchor="start" x="12" y="-513.5" font-family="Helvetica,sans-Serif" font-size="10.00">L4::Irq_eoi</text>
<text text-anchor="start" x="35.5" y="-498.5" font-family="Helvetica,sans-Serif" font-size="10.00"> </text>
<text text-anchor="start" x="7.5" y="-483.5" font-family="Helvetica,sans-Serif" font-size="10.00">+</text>
<text text-anchor="start" x="20.5" y="-483.5" font-family="Helvetica,sans-Serif" font-size="10.00">unmask()</text>
<polygon fill="#666666" stroke="#666666" points="3.5,-508.5 3.5,-508.5 71.5,-508.5 71.5,-508.5 3.5,-508.5"/>
<polygon fill="#666666" stroke="#666666" points="3.5,-493.5 3.5,-493.5 71.5,-493.5 71.5,-493.5 3.5,-493.5"/>
<polygon fill="none" stroke="#666666" points="3.5,-477 3.5,-526 71.5,-526 71.5,-477 3.5,-477"/>
</a>
</g>
</g>
<!-- Node5&#45;&gt;Node4 -->
<g id="edge4_Node000004_Node000005" class="edge">
<title>Node5&#45;&gt;Node4</title>
<g id="a_edge4_Node000004_Node000005"><a xlink:title=" ">
<path fill="none" stroke="#63b8ff" d="M42.54,-466.64C44.83,-453.25 47.85,-437.8 51.5,-424 53.04,-418.19 54.89,-412.11 56.84,-406.2"/>
<polygon fill="none" stroke="#63b8ff" points="39.03,-466.42 40.86,-476.86 45.94,-467.56 39.03,-466.42"/>
</a>
</g>
</g>
<!-- Node6 -->
<g id="Node000006" class="node">
<title>Node6</title>
<g id="a_Node000006"><a xlink:href="classL4_1_1Kobject__t.html" target="_top" xlink:title="Helper class to create an L4Re interface class that is derived from a single base class.">
<polygon fill="white" stroke="transparent" points="255.5,-539 105.5,-539 105.5,-464 255.5,-464 255.5,-539"/>
<text text-anchor="start" x="110.5" y="-526.5" font-family="Helvetica,sans-Serif" font-size="10.00">L4::Kobject_t&lt; Derived,</text>
<text text-anchor="start" x="110.5" y="-515.5" font-family="Helvetica,sans-Serif" font-size="10.00"> Base, PROTO, S_DEMAND &gt;</text>
<text text-anchor="start" x="178.5" y="-500.5" font-family="Helvetica,sans-Serif" font-size="10.00"> </text>
<text text-anchor="start" x="114.5" y="-485.5" font-family="Helvetica,sans-Serif" font-size="10.00">#</text>
<text text-anchor="start" x="132.5" y="-485.5" font-family="Helvetica,sans-Serif" font-size="10.00">c()</text>
<text text-anchor="start" x="114.5" y="-470.5" font-family="Helvetica,sans-Serif" font-size="10.00">#</text>
<text text-anchor="start" x="132.5" y="-470.5" font-family="Helvetica,sans-Serif" font-size="10.00">__check_protocols__()</text>
<polygon fill="#666666" stroke="#666666" points="105.5,-510.5 105.5,-510.5 255.5,-510.5 255.5,-510.5 105.5,-510.5"/>
<polygon fill="#666666" stroke="#666666" points="105.5,-495.5 105.5,-495.5 255.5,-495.5 255.5,-495.5 105.5,-495.5"/>
<polygon fill="none" stroke="#666666" points="105.5,-464 105.5,-539 255.5,-539 255.5,-464 105.5,-464"/>
</a>
</g>
</g>
<!-- Node6&#45;&gt;Node2 -->
<g id="edge6_Node000002_Node000006" class="edge">
<title>Node6&#45;&gt;Node2</title>
<g id="a_edge6_Node000002_Node000006"><a xlink:title=" ">
<path fill="none" stroke="orange" d="M182.81,-453.86C182.99,-444 182.96,-433.65 182.5,-424 178.51,-339.88 167.13,-242.04 160.16,-187.44"/>
<polygon fill="orange" stroke="orange" points="179.31,-453.82 182.55,-463.91 186.31,-454.01 179.31,-453.82"/>
</a>
</g>
<text text-anchor="start" x="174.5" y="-305" font-family="Helvetica,sans-Serif" font-size="10.00" fill="grey"> &lt; Semaphore, Triggerable,</text>
<text text-anchor="middle" x="241" y="-294" font-family="Helvetica,sans-Serif" font-size="10.00" fill="grey"> L4_PROTO_SEMAPHORE &gt;</text>
</g>
<!-- Node6&#45;&gt;Node4 -->
<g id="edge5_Node000004_Node000006" class="edge">
<title>Node6&#45;&gt;Node4</title>
<g id="a_edge5_Node000004_Node000006"><a xlink:title=" ">
<path fill="none" stroke="orange" d="M96.73,-471.29C86.75,-464.48 77.87,-456.15 71.5,-446 64.16,-434.3 62.62,-419.48 63.38,-406"/>
<polygon fill="orange" stroke="orange" points="95,-474.34 105.34,-476.67 98.71,-468.4 95,-474.34"/>
</a>
</g>
<text text-anchor="start" x="71.5" y="-438" font-family="Helvetica,sans-Serif" font-size="10.00" fill="grey"> &lt; Triggerable, Irq</text>
<text text-anchor="middle" x="127" y="-427" font-family="Helvetica,sans-Serif" font-size="10.00" fill="grey">_eoi, L4_PROTO_IRQ &gt;</text>
</g>
</g>
</svg>
