<?xml version="1.0" encoding="UTF-8" standalone="no"?>
<!DOCTYPE svg PUBLIC "-//W3C//DTD SVG 1.1//EN"
 "http://www.w3.org/Graphics/SVG/1.1/DTD/svg11.dtd">
<!-- Generated by graphviz version 2.42.4 (0)
 -->
<!-- Title: L4::Epiface_t&lt; Derived, IFACE, BASE, bool &gt; Pages: 1 -->
<svg width="133pt" height="369pt"
 viewBox="0.00 0.00 133.00 369.00" xmlns="http://www.w3.org/2000/svg" xmlns:xlink="http://www.w3.org/1999/xlink">
<g id="graph0" class="graph" transform="scale(1 1) rotate(0) translate(4 365)">
<title>L4::Epiface_t&lt; Derived, IFACE, BASE, bool &gt;</title>
<!-- Node1 -->
<g id="Node000001" class="node">
<title>Node1</title>
<g id="a_Node000001"><a xlink:title="Epiface implementation for Kobject&#45;based interface implementations.">
<polygon fill="#999999" stroke="transparent" points="125,-60 0,-60 0,0 125,0 125,-60"/>
<text text-anchor="start" x="5.5" y="-48" font-family="Helvetica,sans-Serif" font-size="10.00">L4::Epiface_t&lt; Derived,</text>
<text text-anchor="start" x="13" y="-37" font-family="Helvetica,sans-Serif" font-size="10.00"> IFACE, BASE, bool &gt;</text>
<text text-anchor="start" x="61" y="-22" font-family="Helvetica,sans-Serif" font-size="10.00"> </text>
<text text-anchor="start" x="18" y="-7" font-family="Helvetica,sans-Serif" font-size="10.00">+</text>
<text text-anchor="start" x="44.5" y="-7" font-family="Helvetica,sans-Serif" font-size="10.00">dispatch()</text>
<polygon fill="#666666" stroke="#666666" points="0.5,-32 0.5,-32 125.5,-32 125.5,-32 0.5,-32"/>
<polygon fill="#666666" stroke="#666666" points="0.5,-17 0.5,-17 125.5,-17 125.5,-17 0.5,-17"/>
<polygon fill="none" stroke="#666666" points="0,0 0,-60 125,-60 125,0 0,0"/>
</a>
</g>
</g>
<!-- Node2 -->
<g id="Node000002" class="node">
<title>Node2</title>
<g id="a_Node000002"><a xlink:href="structL4_1_1Epiface__t0.html" target="_top" xlink:title="Epiface mixin for generic Kobject&#45;based interfaces.">
<polygon fill="white" stroke="transparent" points="124.5,-171 0.5,-171 0.5,-96 124.5,-96 124.5,-171"/>
<text text-anchor="start" x="12.5" y="-158.5" font-family="Helvetica,sans-Serif" font-size="10.00">L4::Epiface_t0&lt; RPC</text>
<text text-anchor="start" x="24.5" y="-147.5" font-family="Helvetica,sans-Serif" font-size="10.00">_IFACE, BASE &gt;</text>
<text text-anchor="start" x="60.5" y="-132.5" font-family="Helvetica,sans-Serif" font-size="10.00"> </text>
<text text-anchor="start" x="4.5" y="-117.5" font-family="Helvetica,sans-Serif" font-size="10.00">+</text>
<text text-anchor="start" x="17.5" y="-117.5" font-family="Helvetica,sans-Serif" font-size="10.00">get_buffer_demand()</text>
<text text-anchor="start" x="4.5" y="-102.5" font-family="Helvetica,sans-Serif" font-size="10.00">+</text>
<text text-anchor="start" x="17.5" y="-102.5" font-family="Helvetica,sans-Serif" font-size="10.00">obj_cap()</text>
<polygon fill="#666666" stroke="#666666" points="0.5,-142.5 0.5,-142.5 124.5,-142.5 124.5,-142.5 0.5,-142.5"/>
<polygon fill="#666666" stroke="#666666" points="0.5,-127.5 0.5,-127.5 124.5,-127.5 124.5,-127.5 0.5,-127.5"/>
<polygon fill="none" stroke="#666666" points="0.5,-96 0.5,-171 124.5,-171 124.5,-96 0.5,-96"/>
</a>
</g>
</g>
<!-- Node2&#45;&gt;Node1 -->
<g id="edge1_Node000001_Node000002" class="edge">
<title>Node2&#45;&gt;Node1</title>
<g id="a_edge1_Node000001_Node000002"><a xlink:title=" ">
<path fill="none" stroke="#63b8ff" d="M62.5,-85.79C62.5,-77.1 62.5,-68.25 62.5,-60.27"/>
<polygon fill="none" stroke="#63b8ff" points="59,-85.86 62.5,-95.86 66,-85.86 59,-85.86"/>
</a>
</g>
</g>
<!-- Node3 -->
<g id="Node000003" class="node">
<title>Node3</title>
<g id="a_Node000003"><a xlink:href="structL4_1_1Epiface.html" target="_top" xlink:title="Base class for interface implementations.">
<polygon fill="white" stroke="transparent" points="124.5,-361 0.5,-361 0.5,-207 124.5,-207 124.5,-361"/>
<text text-anchor="start" x="35.5" y="-349" font-family="Helvetica,sans-Serif" font-size="10.00">L4::Epiface</text>
<text text-anchor="start" x="60.5" y="-334" font-family="Helvetica,sans-Serif" font-size="10.00"> </text>
<text text-anchor="start" x="4.5" y="-319" font-family="Helvetica,sans-Serif" font-size="10.00">+</text>
<text text-anchor="start" x="17.5" y="-319" font-family="Helvetica,sans-Serif" font-size="10.00">Epiface()</text>
<text text-anchor="start" x="4.5" y="-304" font-family="Helvetica,sans-Serif" font-size="10.00">+</text>
<text text-anchor="start" x="17.5" y="-304" font-family="Helvetica,sans-Serif" font-size="10.00">dispatch()</text>
<text text-anchor="start" x="4.5" y="-289" font-family="Helvetica,sans-Serif" font-size="10.00">+</text>
<text text-anchor="start" x="17.5" y="-289" font-family="Helvetica,sans-Serif" font-size="10.00">get_buffer_demand()</text>
<text text-anchor="start" x="4.5" y="-274" font-family="Helvetica,sans-Serif" font-size="10.00">+</text>
<text text-anchor="start" x="17.5" y="-274" font-family="Helvetica,sans-Serif" font-size="10.00">~Epiface()</text>
<text text-anchor="start" x="4.5" y="-259" font-family="Helvetica,sans-Serif" font-size="10.00">+</text>
<text text-anchor="start" x="17.5" y="-259" font-family="Helvetica,sans-Serif" font-size="10.00">obj_cap()</text>
<text text-anchor="start" x="4.5" y="-244" font-family="Helvetica,sans-Serif" font-size="10.00">+</text>
<text text-anchor="start" x="17.5" y="-244" font-family="Helvetica,sans-Serif" font-size="10.00">server_iface()</text>
<text text-anchor="start" x="4.5" y="-229" font-family="Helvetica,sans-Serif" font-size="10.00">+</text>
<text text-anchor="start" x="17.5" y="-229" font-family="Helvetica,sans-Serif" font-size="10.00">set_server()</text>
<text text-anchor="start" x="4.5" y="-214" font-family="Helvetica,sans-Serif" font-size="10.00">+</text>
<text text-anchor="start" x="17.5" y="-214" font-family="Helvetica,sans-Serif" font-size="10.00">set_obj_cap()</text>
<polygon fill="#666666" stroke="#666666" points="0.5,-344 0.5,-344 124.5,-344 124.5,-344 0.5,-344"/>
<polygon fill="#666666" stroke="#666666" points="0.5,-329 0.5,-329 124.5,-329 124.5,-329 0.5,-329"/>
<polygon fill="none" stroke="#666666" points="0.5,-207 0.5,-361 124.5,-361 124.5,-207 0.5,-207"/>
</a>
</g>
</g>
<!-- Node3&#45;&gt;Node2 -->
<g id="edge2_Node000002_Node000003" class="edge">
<title>Node3&#45;&gt;Node2</title>
<g id="a_edge2_Node000002_Node000003"><a xlink:title=" ">
<path fill="none" stroke="#63b8ff" d="M62.5,-196.48C62.5,-187.6 62.5,-178.96 62.5,-171.09"/>
<polygon fill="none" stroke="#63b8ff" points="59,-196.57 62.5,-206.57 66,-196.58 59,-196.57"/>
</a>
</g>
</g>
</g>
</svg>
