<?xml version="1.0" encoding="UTF-8" standalone="no"?>
<!DOCTYPE svg PUBLIC "-//W3C//DTD SVG 1.1//EN"
 "http://www.w3.org/Graphics/SVG/1.1/DTD/svg11.dtd">
<!-- Generated by graphviz version 2.43.0 (0)
 -->
<!-- Title: l4_sched_cpu_set_t Pages: 1 -->
<svg width="113pt" height="102pt"
 viewBox="0.00 0.00 113.00 102.00" xmlns="http://www.w3.org/2000/svg" xmlns:xlink="http://www.w3.org/1999/xlink">
<g id="graph0" class="graph" transform="scale(1 1) rotate(0) translate(4 98)">
<title>l4_sched_cpu_set_t</title>
<!-- Node1 -->
<g id="Node000001" class="node">
<title>Node1</title>
<g id="a_Node000001"><a xlink:title="CPU sets.">
<polygon fill="#999999" stroke="transparent" points="105,-94 0,-94 0,0 105,0 105,-94"/>
<text text-anchor="start" x="5.5" y="-82" font-family="Helvetica,sans-Serif" font-size="10.00">l4_sched_cpu_set_t</text>
<text text-anchor="start" x="10" y="-67" font-family="Helvetica,sans-Serif" font-size="10.00">+</text>
<text text-anchor="start" x="28.5" y="-67" font-family="Helvetica,sans-Serif" font-size="10.00">gran_offset</text>
<text text-anchor="start" x="10" y="-52" font-family="Helvetica,sans-Serif" font-size="10.00">+</text>
<text text-anchor="start" x="28.5" y="-52" font-family="Helvetica,sans-Serif" font-size="10.00">map</text>
<text text-anchor="start" x="10" y="-37" font-family="Helvetica,sans-Serif" font-size="10.00">+</text>
<text text-anchor="start" x="28.5" y="-37" font-family="Helvetica,sans-Serif" font-size="10.00">granularity()</text>
<text text-anchor="start" x="10" y="-22" font-family="Helvetica,sans-Serif" font-size="10.00">+</text>
<text text-anchor="start" x="28.5" y="-22" font-family="Helvetica,sans-Serif" font-size="10.00">offset()</text>
<text text-anchor="start" x="10" y="-7" font-family="Helvetica,sans-Serif" font-size="10.00">+</text>
<text text-anchor="start" x="28.5" y="-7" font-family="Helvetica,sans-Serif" font-size="10.00">set()</text>
<polygon fill="#666666" stroke="#666666" points="0.5,-77 0.5,-77 105.5,-77 105.5,-77 0.5,-77"/>
<polygon fill="#666666" stroke="#666666" points="0.5,-47 0.5,-47 26.5,-47 26.5,-47 0.5,-47"/>
<polygon fill="#666666" stroke="#666666" points="26.5,-47 26.5,-47 105.5,-47 105.5,-47 26.5,-47"/>
<polygon fill="none" stroke="#666666" points="0,0 0,-94 105,-94 105,0 0,0"/>
</a>
</g>
</g>
</g>
</svg>
