<?xml version="1.0" encoding="UTF-8" standalone="no"?>
<!DOCTYPE svg PUBLIC "-//W3C//DTD SVG 1.1//EN"
 "http://www.w3.org/Graphics/SVG/1.1/DTD/svg11.dtd">
<!-- Generated by graphviz version 2.43.0 (0)
 -->
<!-- Title: l4_snd_fpage_t Pages: 1 -->
<svg width="92pt" height="168pt"
 viewBox="0.00 0.00 92.00 168.00" xmlns="http://www.w3.org/2000/svg" xmlns:xlink="http://www.w3.org/1999/xlink">
<g id="graph0" class="graph" transform="scale(1 1) rotate(0) translate(4 164)">
<title>l4_snd_fpage_t</title>
<!-- Node1 -->
<g id="Node000001" class="node">
<title>Node1</title>
<g id="a_Node000001"><a xlink:title="Send&#45;flex&#45;page types.">
<polygon fill="#999999" stroke="transparent" points="84,-49 0,-49 0,0 84,0 84,-49"/>
<text text-anchor="start" x="5" y="-36.5" font-family="Helvetica,sans-Serif" font-size="10.00">l4_snd_fpage_t</text>
<text text-anchor="start" x="8" y="-21.5" font-family="Helvetica,sans-Serif" font-size="10.00">+</text>
<text text-anchor="start" x="25" y="-21.5" font-family="Helvetica,sans-Serif" font-size="10.00">snd_base</text>
<text text-anchor="start" x="40" y="-6.5" font-family="Helvetica,sans-Serif" font-size="10.00"> </text>
<polygon fill="#666666" stroke="#666666" points="0,-31.5 0,-31.5 84,-31.5 84,-31.5 0,-31.5"/>
<polygon fill="#666666" stroke="#666666" points="0,-16.5 0,-16.5 23,-16.5 23,-16.5 0,-16.5"/>
<polygon fill="#666666" stroke="#666666" points="23,-16.5 23,-16.5 84,-16.5 84,-16.5 23,-16.5"/>
<polygon fill="none" stroke="#666666" points="0,0 0,-49 84,-49 84,0 0,0"/>
</a>
</g>
</g>
<!-- Node2 -->
<g id="Node000002" class="node">
<title>Node2</title>
<g id="a_Node000002"><a xlink:href="unionl4__fpage__t.html" target="_top" xlink:title="L4 flexpage type.">
<polygon fill="white" stroke="transparent" points="73,-160 11,-160 11,-96 73,-96 73,-160"/>
<text text-anchor="start" x="16" y="-148" font-family="Helvetica,sans-Serif" font-size="10.00">l4_fpage_t</text>
<text text-anchor="start" x="18" y="-133" font-family="Helvetica,sans-Serif" font-size="10.00">+</text>
<text text-anchor="start" x="34" y="-133" font-family="Helvetica,sans-Serif" font-size="10.00">fpage</text>
<text text-anchor="start" x="18" y="-118" font-family="Helvetica,sans-Serif" font-size="10.00">+</text>
<text text-anchor="start" x="34" y="-118" font-family="Helvetica,sans-Serif" font-size="10.00">raw</text>
<text text-anchor="start" x="40" y="-103" font-family="Helvetica,sans-Serif" font-size="10.00"> </text>
<polygon fill="#666666" stroke="#666666" points="11,-143 11,-143 73,-143 73,-143 11,-143"/>
<polygon fill="#666666" stroke="#666666" points="11,-113 11,-113 32,-113 32,-113 11,-113"/>
<polygon fill="#666666" stroke="#666666" points="32,-113 32,-113 73,-113 73,-113 32,-113"/>
<polygon fill="none" stroke="#666666" points="11,-96 11,-160 73,-160 73,-96 11,-96"/>
</a>
</g>
</g>
<!-- Node2&#45;&gt;Node1 -->
<g id="edge1_Node000001_Node000002" class="edge">
<title>Node2&#45;&gt;Node1</title>
<g id="a_edge1_Node000001_Node000002"><a xlink:title=" ">
<path fill="none" stroke="#63b8ff" d="M42,-96C42,-85.07 42,-72.69 42,-61.39"/>
<polygon fill="none" stroke="#63b8ff" points="42,-61.23 38,-55.23 42,-49.23 46,-55.23 42,-61.23"/>
</a>
</g>
<text text-anchor="middle" x="62" y="-70" font-family="Helvetica,sans-Serif" font-size="10.00" fill="grey"> +fpage</text>
</g>
</g>
</svg>
