<?xml version="1.0" encoding="UTF-8" standalone="no"?>
<!DOCTYPE svg PUBLIC "-//W3C//DTD SVG 1.1//EN"
 "http://www.w3.org/Graphics/SVG/1.1/DTD/svg11.dtd">
<!-- Generated by graphviz version 2.42.4 (0)
 -->
<!-- Title: cxx::Weak_ref_base::List Pages: 1 -->
<svg width="356pt" height="1155pt"
 viewBox="0.00 0.00 356.00 1155.00" xmlns="http://www.w3.org/2000/svg" xmlns:xlink="http://www.w3.org/1999/xlink">
<g id="graph0" class="graph" transform="scale(1 1) rotate(0) translate(4 1151)">
<title>cxx::Weak_ref_base::List</title>
<!-- Node1 -->
<g id="Node000001" class="node">
<title>Node1</title>
<g id="a_Node000001"><a xlink:title="The list type for keeping all weak references to an object.">
<polygon fill="#999999" stroke="transparent" points="135.5,-60 27.5,-60 27.5,0 135.5,0 135.5,-60"/>
<text text-anchor="start" x="32.5" y="-48" font-family="Helvetica,sans-Serif" font-size="10.00">cxx::Weak_ref_base</text>
<text text-anchor="start" x="69.5" y="-37" font-family="Helvetica,sans-Serif" font-size="10.00">::List</text>
<text text-anchor="start" x="79.5" y="-22" font-family="Helvetica,sans-Serif" font-size="10.00"> </text>
<text text-anchor="start" x="79.5" y="-7" font-family="Helvetica,sans-Serif" font-size="10.00"> </text>
<polygon fill="#666666" stroke="#666666" points="27.5,-32 27.5,-32 135.5,-32 135.5,-32 27.5,-32"/>
<polygon fill="#666666" stroke="#666666" points="27.5,-17 27.5,-17 135.5,-17 135.5,-17 27.5,-17"/>
<polygon fill="none" stroke="#666666" points="27.5,0 27.5,-60 135.5,-60 135.5,0 27.5,0"/>
</a>
</g>
</g>
<!-- Node2 -->
<g id="Node000002" class="node">
<title>Node2</title>
<g id="a_Node000002"><a xlink:href="structcxx_1_1H__list__t.html" target="_top" xlink:title=" ">
<polygon fill="white" stroke="transparent" points="136,-157 27,-157 27,-97 136,-97 136,-157"/>
<text text-anchor="start" x="32.5" y="-145" font-family="Helvetica,sans-Serif" font-size="10.00">cxx::H_list_t&lt; Weak</text>
<text text-anchor="start" x="52.5" y="-134" font-family="Helvetica,sans-Serif" font-size="10.00">_ref_base &gt;</text>
<text text-anchor="start" x="80" y="-119" font-family="Helvetica,sans-Serif" font-size="10.00"> </text>
<text text-anchor="start" x="80" y="-104" font-family="Helvetica,sans-Serif" font-size="10.00"> </text>
<polygon fill="#666666" stroke="#666666" points="27.5,-129 27.5,-129 136.5,-129 136.5,-129 27.5,-129"/>
<polygon fill="#666666" stroke="#666666" points="27.5,-114 27.5,-114 136.5,-114 136.5,-114 27.5,-114"/>
<polygon fill="none" stroke="#666666" points="27,-97 27,-157 136,-157 136,-97 27,-97"/>
</a>
</g>
</g>
<!-- Node2&#45;&gt;Node1 -->
<g id="edge1_Node000001_Node000002" class="edge">
<title>Node2&#45;&gt;Node1</title>
<g id="a_edge1_Node000001_Node000002"><a xlink:title=" ">
<path fill="none" stroke="#63b8ff" d="M81.5,-86.79C81.5,-77.88 81.5,-68.57 81.5,-60.17"/>
<polygon fill="none" stroke="#63b8ff" points="78,-86.98 81.5,-96.98 85,-86.98 78,-86.98"/>
</a>
</g>
</g>
<!-- Node3 -->
<g id="Node000003" class="node">
<title>Node3</title>
<g id="a_Node000003"><a xlink:href="classcxx_1_1H__list.html" target="_top" xlink:title="General double&#45;linked list of unspecified cxx::H_list_item elements.">
<polygon fill="white" stroke="transparent" points="131,-728 0,-728 0,-529 131,-529 131,-728"/>
<text text-anchor="start" x="5.5" y="-715.5" font-family="Helvetica,sans-Serif" font-size="10.00">cxx::H_list&lt; T, POLICY &gt;</text>
<text text-anchor="start" x="64" y="-700.5" font-family="Helvetica,sans-Serif" font-size="10.00"> </text>
<text text-anchor="start" x="13.5" y="-685.5" font-family="Helvetica,sans-Serif" font-size="10.00">+</text>
<text text-anchor="start" x="35.5" y="-685.5" font-family="Helvetica,sans-Serif" font-size="10.00">add()</text>
<text text-anchor="start" x="13.5" y="-670.5" font-family="Helvetica,sans-Serif" font-size="10.00">+</text>
<text text-anchor="start" x="35.5" y="-670.5" font-family="Helvetica,sans-Serif" font-size="10.00">push_front()</text>
<text text-anchor="start" x="13.5" y="-655.5" font-family="Helvetica,sans-Serif" font-size="10.00">+</text>
<text text-anchor="start" x="35.5" y="-655.5" font-family="Helvetica,sans-Serif" font-size="10.00">pop_front()</text>
<text text-anchor="start" x="13.5" y="-640.5" font-family="Helvetica,sans-Serif" font-size="10.00">+</text>
<text text-anchor="start" x="35.5" y="-640.5" font-family="Helvetica,sans-Serif" font-size="10.00">insert()</text>
<text text-anchor="start" x="13.5" y="-625.5" font-family="Helvetica,sans-Serif" font-size="10.00">+</text>
<text text-anchor="start" x="35.5" y="-625.5" font-family="Helvetica,sans-Serif" font-size="10.00">iter()</text>
<text text-anchor="start" x="13.5" y="-610.5" font-family="Helvetica,sans-Serif" font-size="10.00">+</text>
<text text-anchor="start" x="35.5" y="-610.5" font-family="Helvetica,sans-Serif" font-size="10.00">in_list()</text>
<text text-anchor="start" x="13.5" y="-595.5" font-family="Helvetica,sans-Serif" font-size="10.00">+</text>
<text text-anchor="start" x="35.5" y="-595.5" font-family="Helvetica,sans-Serif" font-size="10.00">insert_after()</text>
<text text-anchor="start" x="13.5" y="-580.5" font-family="Helvetica,sans-Serif" font-size="10.00">+</text>
<text text-anchor="start" x="35.5" y="-580.5" font-family="Helvetica,sans-Serif" font-size="10.00">insert_before()</text>
<text text-anchor="start" x="13.5" y="-565.5" font-family="Helvetica,sans-Serif" font-size="10.00">+</text>
<text text-anchor="start" x="35.5" y="-565.5" font-family="Helvetica,sans-Serif" font-size="10.00">replace()</text>
<text text-anchor="start" x="13.5" y="-550.5" font-family="Helvetica,sans-Serif" font-size="10.00">+</text>
<text text-anchor="start" x="35.5" y="-550.5" font-family="Helvetica,sans-Serif" font-size="10.00">remove()</text>
<text text-anchor="start" x="13.5" y="-535.5" font-family="Helvetica,sans-Serif" font-size="10.00">+</text>
<text text-anchor="start" x="35.5" y="-535.5" font-family="Helvetica,sans-Serif" font-size="10.00">erase()</text>
<polygon fill="#666666" stroke="#666666" points="0.5,-710.5 0.5,-710.5 131.5,-710.5 131.5,-710.5 0.5,-710.5"/>
<polygon fill="#666666" stroke="#666666" points="0.5,-695.5 0.5,-695.5 131.5,-695.5 131.5,-695.5 0.5,-695.5"/>
<polygon fill="none" stroke="#666666" points="0,-529 0,-728 131,-728 131,-529 0,-529"/>
</a>
</g>
</g>
<!-- Node3&#45;&gt;Node2 -->
<g id="edge2_Node000002_Node000003" class="edge">
<title>Node3&#45;&gt;Node2</title>
<g id="a_edge2_Node000002_Node000003"><a xlink:title=" ">
<path fill="none" stroke="#63b8ff" d="M68.99,-518.47C72.71,-402.36 78.36,-226 80.57,-157.06"/>
<polygon fill="none" stroke="#63b8ff" points="65.48,-518.71 68.66,-528.81 72.48,-518.93 65.48,-518.71"/>
</a>
</g>
</g>
<!-- Node4 -->
<g id="Node000004" class="node">
<title>Node4</title>
<g id="a_Node000004"><a xlink:href="classcxx_1_1Bits_1_1Basic__list.html" target="_top" xlink:title="Internal: Common functions for all head&#45;based list implementations.">
<polygon fill="white" stroke="transparent" points="130,-1147 25,-1147 25,-982 130,-982 130,-1147"/>
<text text-anchor="start" x="30.5" y="-1134.5" font-family="Helvetica,sans-Serif" font-size="10.00">cxx::Bits::Basic_list</text>
<text text-anchor="start" x="49" y="-1123.5" font-family="Helvetica,sans-Serif" font-size="10.00">&lt; POLICY &gt;</text>
<text text-anchor="start" x="40.5" y="-1108.5" font-family="Helvetica,sans-Serif" font-size="10.00">#</text>
<text text-anchor="start" x="64.5" y="-1108.5" font-family="Helvetica,sans-Serif" font-size="10.00">_f</text>
<text text-anchor="start" x="40.5" y="-1093.5" font-family="Helvetica,sans-Serif" font-size="10.00">+</text>
<text text-anchor="start" x="64.5" y="-1093.5" font-family="Helvetica,sans-Serif" font-size="10.00">empty()</text>
<text text-anchor="start" x="40.5" y="-1078.5" font-family="Helvetica,sans-Serif" font-size="10.00">+</text>
<text text-anchor="start" x="64.5" y="-1078.5" font-family="Helvetica,sans-Serif" font-size="10.00">front()</text>
<text text-anchor="start" x="40.5" y="-1063.5" font-family="Helvetica,sans-Serif" font-size="10.00">+</text>
<text text-anchor="start" x="64.5" y="-1063.5" font-family="Helvetica,sans-Serif" font-size="10.00">clear()</text>
<text text-anchor="start" x="40.5" y="-1048.5" font-family="Helvetica,sans-Serif" font-size="10.00">+</text>
<text text-anchor="start" x="64.5" y="-1048.5" font-family="Helvetica,sans-Serif" font-size="10.00">begin()</text>
<text text-anchor="start" x="40.5" y="-1033.5" font-family="Helvetica,sans-Serif" font-size="10.00">+</text>
<text text-anchor="start" x="64.5" y="-1033.5" font-family="Helvetica,sans-Serif" font-size="10.00">begin()</text>
<text text-anchor="start" x="40.5" y="-1018.5" font-family="Helvetica,sans-Serif" font-size="10.00">+</text>
<text text-anchor="start" x="64.5" y="-1018.5" font-family="Helvetica,sans-Serif" font-size="10.00">end()</text>
<text text-anchor="start" x="40.5" y="-1003.5" font-family="Helvetica,sans-Serif" font-size="10.00">+</text>
<text text-anchor="start" x="64.5" y="-1003.5" font-family="Helvetica,sans-Serif" font-size="10.00">end()</text>
<text text-anchor="start" x="40.5" y="-988.5" font-family="Helvetica,sans-Serif" font-size="10.00">+</text>
<text text-anchor="start" x="64.5" y="-988.5" font-family="Helvetica,sans-Serif" font-size="10.00">iter()</text>
<polygon fill="#666666" stroke="#666666" points="25.5,-1118.5 25.5,-1118.5 130.5,-1118.5 130.5,-1118.5 25.5,-1118.5"/>
<polygon fill="#666666" stroke="#666666" points="25.5,-1103.5 25.5,-1103.5 62.5,-1103.5 62.5,-1103.5 25.5,-1103.5"/>
<polygon fill="#666666" stroke="#666666" points="62.5,-1103.5 62.5,-1103.5 130.5,-1103.5 130.5,-1103.5 62.5,-1103.5"/>
<polygon fill="none" stroke="#666666" points="25,-982 25,-1147 130,-1147 130,-982 25,-982"/>
</a>
</g>
</g>
<!-- Node4&#45;&gt;Node3 -->
<g id="edge3_Node000003_Node000004" class="edge">
<title>Node4&#45;&gt;Node3</title>
<g id="a_edge3_Node000003_Node000004"><a xlink:title=" ">
<path fill="none" stroke="#63b8ff" d="M74.96,-971.54C72.98,-900.14 70.25,-801.33 68.23,-728.27"/>
<polygon fill="none" stroke="#63b8ff" points="71.47,-971.97 75.24,-981.87 78.47,-971.77 71.47,-971.97"/>
</a>
</g>
</g>
<!-- Node8 -->
<g id="Node000008" class="node">
<title>Node8</title>
<g id="a_Node000008"><a xlink:href="classcxx_1_1H__list.html" target="_top" xlink:title="General double&#45;linked list of unspecified cxx::H_list_item elements.">
<polygon fill="white" stroke="transparent" points="225,-945 94,-945 94,-746 225,-746 225,-945"/>
<text text-anchor="start" x="99.5" y="-932.5" font-family="Helvetica,sans-Serif" font-size="10.00">cxx::H_list&lt; T, POLICY &gt;</text>
<text text-anchor="start" x="158" y="-917.5" font-family="Helvetica,sans-Serif" font-size="10.00"> </text>
<text text-anchor="start" x="107.5" y="-902.5" font-family="Helvetica,sans-Serif" font-size="10.00">+</text>
<text text-anchor="start" x="129.5" y="-902.5" font-family="Helvetica,sans-Serif" font-size="10.00">add()</text>
<text text-anchor="start" x="107.5" y="-887.5" font-family="Helvetica,sans-Serif" font-size="10.00">+</text>
<text text-anchor="start" x="129.5" y="-887.5" font-family="Helvetica,sans-Serif" font-size="10.00">push_front()</text>
<text text-anchor="start" x="107.5" y="-872.5" font-family="Helvetica,sans-Serif" font-size="10.00">+</text>
<text text-anchor="start" x="129.5" y="-872.5" font-family="Helvetica,sans-Serif" font-size="10.00">pop_front()</text>
<text text-anchor="start" x="107.5" y="-857.5" font-family="Helvetica,sans-Serif" font-size="10.00">+</text>
<text text-anchor="start" x="129.5" y="-857.5" font-family="Helvetica,sans-Serif" font-size="10.00">insert()</text>
<text text-anchor="start" x="107.5" y="-842.5" font-family="Helvetica,sans-Serif" font-size="10.00">+</text>
<text text-anchor="start" x="129.5" y="-842.5" font-family="Helvetica,sans-Serif" font-size="10.00">iter()</text>
<text text-anchor="start" x="107.5" y="-827.5" font-family="Helvetica,sans-Serif" font-size="10.00">+</text>
<text text-anchor="start" x="129.5" y="-827.5" font-family="Helvetica,sans-Serif" font-size="10.00">in_list()</text>
<text text-anchor="start" x="107.5" y="-812.5" font-family="Helvetica,sans-Serif" font-size="10.00">+</text>
<text text-anchor="start" x="129.5" y="-812.5" font-family="Helvetica,sans-Serif" font-size="10.00">insert_after()</text>
<text text-anchor="start" x="107.5" y="-797.5" font-family="Helvetica,sans-Serif" font-size="10.00">+</text>
<text text-anchor="start" x="129.5" y="-797.5" font-family="Helvetica,sans-Serif" font-size="10.00">insert_before()</text>
<text text-anchor="start" x="107.5" y="-782.5" font-family="Helvetica,sans-Serif" font-size="10.00">+</text>
<text text-anchor="start" x="129.5" y="-782.5" font-family="Helvetica,sans-Serif" font-size="10.00">replace()</text>
<text text-anchor="start" x="107.5" y="-767.5" font-family="Helvetica,sans-Serif" font-size="10.00">+</text>
<text text-anchor="start" x="129.5" y="-767.5" font-family="Helvetica,sans-Serif" font-size="10.00">remove()</text>
<text text-anchor="start" x="107.5" y="-752.5" font-family="Helvetica,sans-Serif" font-size="10.00">+</text>
<text text-anchor="start" x="129.5" y="-752.5" font-family="Helvetica,sans-Serif" font-size="10.00">erase()</text>
<polygon fill="#666666" stroke="#666666" points="94.5,-927.5 94.5,-927.5 225.5,-927.5 225.5,-927.5 94.5,-927.5"/>
<polygon fill="#666666" stroke="#666666" points="94.5,-912.5 94.5,-912.5 225.5,-912.5 225.5,-912.5 94.5,-912.5"/>
<polygon fill="none" stroke="#666666" points="94,-746 94,-945 225,-945 225,-746 94,-746"/>
</a>
</g>
</g>
<!-- Node4&#45;&gt;Node8 -->
<g id="edge8_Node000008_Node000004" class="edge">
<title>Node4&#45;&gt;Node8</title>
<g id="a_edge8_Node000008_Node000004"><a xlink:title=" ">
<path fill="none" stroke="#63b8ff" d="M112,-972.21C115.35,-963.33 118.77,-954.29 122.15,-945.34"/>
<polygon fill="none" stroke="#63b8ff" points="108.64,-971.18 108.38,-981.77 115.19,-973.65 108.64,-971.18"/>
</a>
</g>
</g>
<!-- Node5 -->
<g id="Node000005" class="node">
<title>Node5</title>
<g id="a_Node000005"><a xlink:href="structcxx_1_1H__list__t.html" target="_top" xlink:title="Double&#45;linked list of typed H_list_item_t elements.">
<polygon fill="white" stroke="transparent" points="203,-253 104,-253 104,-204 203,-204 203,-253"/>
<text text-anchor="start" x="109.5" y="-240.5" font-family="Helvetica,sans-Serif" font-size="10.00">cxx::H_list_t&lt; T &gt;</text>
<text text-anchor="start" x="152" y="-225.5" font-family="Helvetica,sans-Serif" font-size="10.00"> </text>
<text text-anchor="start" x="152" y="-210.5" font-family="Helvetica,sans-Serif" font-size="10.00"> </text>
<polygon fill="#666666" stroke="#666666" points="104.5,-235.5 104.5,-235.5 203.5,-235.5 203.5,-235.5 104.5,-235.5"/>
<polygon fill="#666666" stroke="#666666" points="104.5,-220.5 104.5,-220.5 203.5,-220.5 203.5,-220.5 104.5,-220.5"/>
<polygon fill="none" stroke="#666666" points="104,-204 104,-253 203,-253 203,-204 104,-204"/>
</a>
</g>
</g>
<!-- Node5&#45;&gt;Node2 -->
<g id="edge4_Node000002_Node000005" class="edge">
<title>Node5&#45;&gt;Node2</title>
<g id="a_edge4_Node000002_Node000005"><a xlink:title=" ">
<path fill="none" stroke="orange" d="M130.47,-195.67C121.51,-183.29 111.32,-169.21 102.56,-157.1"/>
<polygon fill="orange" stroke="orange" points="127.74,-197.87 136.44,-203.92 133.41,-193.77 127.74,-197.87"/>
</a>
</g>
<text text-anchor="middle" x="172.5" y="-178" font-family="Helvetica,sans-Serif" font-size="10.00" fill="grey"> &lt; Weak_ref_base &gt;</text>
</g>
<!-- Node6 -->
<g id="Node000006" class="node">
<title>Node6</title>
<g id="a_Node000006"><a xlink:href="classcxx_1_1H__list.html" target="_top" xlink:title=" ">
<polygon fill="white" stroke="transparent" points="235,-511 94,-511 94,-290 235,-290 235,-511"/>
<text text-anchor="start" x="99.5" y="-498.5" font-family="Helvetica,sans-Serif" font-size="10.00">cxx::H_list&lt; T, Bits</text>
<text text-anchor="start" x="99.5" y="-487.5" font-family="Helvetica,sans-Serif" font-size="10.00">::Basic_list_policy&lt;</text>
<text text-anchor="start" x="99.5" y="-476.5" font-family="Helvetica,sans-Serif" font-size="10.00"> T, H_list_item_t&lt; T &gt; &gt; &gt;</text>
<text text-anchor="start" x="163" y="-461.5" font-family="Helvetica,sans-Serif" font-size="10.00"> </text>
<text text-anchor="start" x="110" y="-446.5" font-family="Helvetica,sans-Serif" font-size="10.00">+</text>
<text text-anchor="start" x="134.5" y="-446.5" font-family="Helvetica,sans-Serif" font-size="10.00">add()</text>
<text text-anchor="start" x="110" y="-431.5" font-family="Helvetica,sans-Serif" font-size="10.00">+</text>
<text text-anchor="start" x="134.5" y="-431.5" font-family="Helvetica,sans-Serif" font-size="10.00">push_front()</text>
<text text-anchor="start" x="110" y="-416.5" font-family="Helvetica,sans-Serif" font-size="10.00">+</text>
<text text-anchor="start" x="134.5" y="-416.5" font-family="Helvetica,sans-Serif" font-size="10.00">pop_front()</text>
<text text-anchor="start" x="110" y="-401.5" font-family="Helvetica,sans-Serif" font-size="10.00">+</text>
<text text-anchor="start" x="134.5" y="-401.5" font-family="Helvetica,sans-Serif" font-size="10.00">insert()</text>
<text text-anchor="start" x="110" y="-386.5" font-family="Helvetica,sans-Serif" font-size="10.00">+</text>
<text text-anchor="start" x="134.5" y="-386.5" font-family="Helvetica,sans-Serif" font-size="10.00">iter()</text>
<text text-anchor="start" x="110" y="-371.5" font-family="Helvetica,sans-Serif" font-size="10.00">+</text>
<text text-anchor="start" x="134.5" y="-371.5" font-family="Helvetica,sans-Serif" font-size="10.00">in_list()</text>
<text text-anchor="start" x="110" y="-356.5" font-family="Helvetica,sans-Serif" font-size="10.00">+</text>
<text text-anchor="start" x="134.5" y="-356.5" font-family="Helvetica,sans-Serif" font-size="10.00">insert_after()</text>
<text text-anchor="start" x="110" y="-341.5" font-family="Helvetica,sans-Serif" font-size="10.00">+</text>
<text text-anchor="start" x="134.5" y="-341.5" font-family="Helvetica,sans-Serif" font-size="10.00">insert_before()</text>
<text text-anchor="start" x="110" y="-326.5" font-family="Helvetica,sans-Serif" font-size="10.00">+</text>
<text text-anchor="start" x="134.5" y="-326.5" font-family="Helvetica,sans-Serif" font-size="10.00">replace()</text>
<text text-anchor="start" x="110" y="-311.5" font-family="Helvetica,sans-Serif" font-size="10.00">+</text>
<text text-anchor="start" x="134.5" y="-311.5" font-family="Helvetica,sans-Serif" font-size="10.00">remove()</text>
<text text-anchor="start" x="110" y="-296.5" font-family="Helvetica,sans-Serif" font-size="10.00">+</text>
<text text-anchor="start" x="134.5" y="-296.5" font-family="Helvetica,sans-Serif" font-size="10.00">erase()</text>
<polygon fill="#666666" stroke="#666666" points="94.5,-471.5 94.5,-471.5 235.5,-471.5 235.5,-471.5 94.5,-471.5"/>
<polygon fill="#666666" stroke="#666666" points="94.5,-456.5 94.5,-456.5 235.5,-456.5 235.5,-456.5 94.5,-456.5"/>
<polygon fill="none" stroke="#666666" points="94,-290 94,-511 235,-511 235,-290 94,-290"/>
</a>
</g>
</g>
<!-- Node6&#45;&gt;Node5 -->
<g id="edge5_Node000005_Node000006" class="edge">
<title>Node6&#45;&gt;Node5</title>
<g id="a_edge5_Node000005_Node000006"><a xlink:title=" ">
<path fill="none" stroke="#63b8ff" d="M156.75,-279.8C156.12,-269.92 155.52,-260.79 155.03,-253.1"/>
<polygon fill="none" stroke="#63b8ff" points="153.27,-280.16 157.41,-289.91 160.26,-279.71 153.27,-280.16"/>
</a>
</g>
</g>
<!-- Node7 -->
<g id="Node000007" class="node">
<title>Node7</title>
<g id="a_Node000007"><a xlink:href="classcxx_1_1Bits_1_1Basic__list.html" target="_top" xlink:title="Internal: Common functions for all head&#45;based list implementations.">
<polygon fill="white" stroke="transparent" points="348,-928 243,-928 243,-763 348,-763 348,-928"/>
<text text-anchor="start" x="248.5" y="-915.5" font-family="Helvetica,sans-Serif" font-size="10.00">cxx::Bits::Basic_list</text>
<text text-anchor="start" x="267" y="-904.5" font-family="Helvetica,sans-Serif" font-size="10.00">&lt; POLICY &gt;</text>
<text text-anchor="start" x="258.5" y="-889.5" font-family="Helvetica,sans-Serif" font-size="10.00">#</text>
<text text-anchor="start" x="282.5" y="-889.5" font-family="Helvetica,sans-Serif" font-size="10.00">_f</text>
<text text-anchor="start" x="258.5" y="-874.5" font-family="Helvetica,sans-Serif" font-size="10.00">+</text>
<text text-anchor="start" x="282.5" y="-874.5" font-family="Helvetica,sans-Serif" font-size="10.00">empty()</text>
<text text-anchor="start" x="258.5" y="-859.5" font-family="Helvetica,sans-Serif" font-size="10.00">+</text>
<text text-anchor="start" x="282.5" y="-859.5" font-family="Helvetica,sans-Serif" font-size="10.00">front()</text>
<text text-anchor="start" x="258.5" y="-844.5" font-family="Helvetica,sans-Serif" font-size="10.00">+</text>
<text text-anchor="start" x="282.5" y="-844.5" font-family="Helvetica,sans-Serif" font-size="10.00">clear()</text>
<text text-anchor="start" x="258.5" y="-829.5" font-family="Helvetica,sans-Serif" font-size="10.00">+</text>
<text text-anchor="start" x="282.5" y="-829.5" font-family="Helvetica,sans-Serif" font-size="10.00">begin()</text>
<text text-anchor="start" x="258.5" y="-814.5" font-family="Helvetica,sans-Serif" font-size="10.00">+</text>
<text text-anchor="start" x="282.5" y="-814.5" font-family="Helvetica,sans-Serif" font-size="10.00">begin()</text>
<text text-anchor="start" x="258.5" y="-799.5" font-family="Helvetica,sans-Serif" font-size="10.00">+</text>
<text text-anchor="start" x="282.5" y="-799.5" font-family="Helvetica,sans-Serif" font-size="10.00">end()</text>
<text text-anchor="start" x="258.5" y="-784.5" font-family="Helvetica,sans-Serif" font-size="10.00">+</text>
<text text-anchor="start" x="282.5" y="-784.5" font-family="Helvetica,sans-Serif" font-size="10.00">end()</text>
<text text-anchor="start" x="258.5" y="-769.5" font-family="Helvetica,sans-Serif" font-size="10.00">+</text>
<text text-anchor="start" x="282.5" y="-769.5" font-family="Helvetica,sans-Serif" font-size="10.00">iter()</text>
<polygon fill="#666666" stroke="#666666" points="243.5,-899.5 243.5,-899.5 348.5,-899.5 348.5,-899.5 243.5,-899.5"/>
<polygon fill="#666666" stroke="#666666" points="243.5,-884.5 243.5,-884.5 280.5,-884.5 280.5,-884.5 243.5,-884.5"/>
<polygon fill="#666666" stroke="#666666" points="280.5,-884.5 280.5,-884.5 348.5,-884.5 348.5,-884.5 280.5,-884.5"/>
<polygon fill="none" stroke="#666666" points="243,-763 243,-928 348,-928 348,-763 243,-763"/>
</a>
</g>
</g>
<!-- Node7&#45;&gt;Node6 -->
<g id="edge6_Node000006_Node000007" class="edge">
<title>Node7&#45;&gt;Node6</title>
<g id="a_edge6_Node000006_Node000007"><a xlink:title=" ">
<path fill="none" stroke="#63b8ff" d="M307.61,-752.55C312.35,-687.62 310.93,-599.9 281.5,-529 271.13,-504.03 253.6,-480.85 235.21,-461.3"/>
<polygon fill="none" stroke="#63b8ff" points="304.1,-752.53 306.79,-762.77 311.07,-753.08 304.1,-752.53"/>
</a>
</g>
</g>
<!-- Node8&#45;&gt;Node6 -->
<g id="edge7_Node000006_Node000008" class="edge">
<title>Node8&#45;&gt;Node6</title>
<g id="a_edge7_Node000006_Node000008"><a xlink:title=" ">
<path fill="none" stroke="orange" d="M160.73,-735.55C161.5,-667.25 162.49,-579.5 163.26,-511.08"/>
<polygon fill="orange" stroke="orange" points="157.23,-735.87 160.61,-745.91 164.23,-735.95 157.23,-735.87"/>
</a>
</g>
<text text-anchor="start" x="163.5" y="-637" font-family="Helvetica,sans-Serif" font-size="10.00" fill="grey"> &lt; T, Bits::Basic_list</text>
<text text-anchor="start" x="163.5" y="-626" font-family="Helvetica,sans-Serif" font-size="10.00" fill="grey">_policy&lt; T, H_list_item</text>
<text text-anchor="middle" x="220.5" y="-615" font-family="Helvetica,sans-Serif" font-size="10.00" fill="grey">_t&lt; T &gt; &gt; &gt;</text>
</g>
</g>
</svg>
