<?xml version="1.0" encoding="UTF-8" standalone="no"?>
<!DOCTYPE svg PUBLIC "-//W3C//DTD SVG 1.1//EN"
 "http://www.w3.org/Graphics/SVG/1.1/DTD/svg11.dtd">
<!-- Generated by graphviz version 2.43.0 (0)
 -->
<!-- Title: L4Re::Util::Br_manager_timeout_hooks Pages: 1 -->
<svg width="290pt" height="814pt"
 viewBox="0.00 0.00 290.00 814.00" xmlns="http://www.w3.org/2000/svg" xmlns:xlink="http://www.w3.org/1999/xlink">
<g id="graph0" class="graph" transform="scale(1 1) rotate(0) translate(4 810)">
<title>L4Re::Util::Br_manager_timeout_hooks</title>
<!-- Node1 -->
<g id="Node000001" class="node">
<title>Node1</title>
<g id="a_Node000001"><a xlink:title="Predefined server&#45;loop hooks for a server with using the Br_manager and a timeout queue.">
<polygon fill="#999999" stroke="transparent" points="219,-60 96,-60 96,0 219,0 219,-60"/>
<text text-anchor="start" x="101.5" y="-48" font-family="Helvetica,sans-Serif" font-size="10.00">L4Re::Util::Br_manager</text>
<text text-anchor="start" x="118.5" y="-37" font-family="Helvetica,sans-Serif" font-size="10.00">_timeout_hooks</text>
<text text-anchor="start" x="156" y="-22" font-family="Helvetica,sans-Serif" font-size="10.00"> </text>
<text text-anchor="start" x="156" y="-7" font-family="Helvetica,sans-Serif" font-size="10.00"> </text>
<polygon fill="#666666" stroke="#666666" points="96.5,-32 96.5,-32 219.5,-32 219.5,-32 96.5,-32"/>
<polygon fill="#666666" stroke="#666666" points="96.5,-17 96.5,-17 219.5,-17 219.5,-17 96.5,-17"/>
<polygon fill="none" stroke="#666666" points="96,0 96,-60 219,-60 219,0 96,0"/>
</a>
</g>
</g>
<!-- Node2 -->
<g id="Node000002" class="node">
<title>Node2</title>
<g id="a_Node000002"><a xlink:href="classL4_1_1Ipc__svr_1_1Timeout__queue__hooks.html" target="_top" xlink:title=" ">
<polygon fill="white" stroke="transparent" points="165,-228 0,-228 0,-97 165,-97 165,-228"/>
<text text-anchor="start" x="5.5" y="-215.5" font-family="Helvetica,sans-Serif" font-size="10.00">L4::Ipc_svr::Timeout</text>
<text text-anchor="start" x="5.5" y="-204.5" font-family="Helvetica,sans-Serif" font-size="10.00">_queue_hooks&lt; Br_manager</text>
<text text-anchor="start" x="5.5" y="-193.5" font-family="Helvetica,sans-Serif" font-size="10.00">_timeout_hooks, Br_manager &gt;</text>
<text text-anchor="start" x="18" y="-178.5" font-family="Helvetica,sans-Serif" font-size="10.00">+</text>
<text text-anchor="start" x="44.5" y="-178.5" font-family="Helvetica,sans-Serif" font-size="10.00">queue</text>
<text text-anchor="start" x="18" y="-163.5" font-family="Helvetica,sans-Serif" font-size="10.00">+</text>
<text text-anchor="start" x="44.5" y="-163.5" font-family="Helvetica,sans-Serif" font-size="10.00">timeout()</text>
<text text-anchor="start" x="18" y="-148.5" font-family="Helvetica,sans-Serif" font-size="10.00">+</text>
<text text-anchor="start" x="44.5" y="-148.5" font-family="Helvetica,sans-Serif" font-size="10.00">setup_wait()</text>
<text text-anchor="start" x="18" y="-133.5" font-family="Helvetica,sans-Serif" font-size="10.00">+</text>
<text text-anchor="start" x="44.5" y="-133.5" font-family="Helvetica,sans-Serif" font-size="10.00">before_reply()</text>
<text text-anchor="start" x="18" y="-118.5" font-family="Helvetica,sans-Serif" font-size="10.00">+</text>
<text text-anchor="start" x="44.5" y="-118.5" font-family="Helvetica,sans-Serif" font-size="10.00">add_timeout()</text>
<text text-anchor="start" x="18" y="-103.5" font-family="Helvetica,sans-Serif" font-size="10.00">+</text>
<text text-anchor="start" x="44.5" y="-103.5" font-family="Helvetica,sans-Serif" font-size="10.00">remove_timeout()</text>
<polygon fill="#666666" stroke="#666666" points="0.5,-188.5 0.5,-188.5 165.5,-188.5 165.5,-188.5 0.5,-188.5"/>
<polygon fill="#666666" stroke="#666666" points="0.5,-173.5 0.5,-173.5 42.5,-173.5 42.5,-173.5 0.5,-173.5"/>
<polygon fill="#666666" stroke="#666666" points="42.5,-173.5 42.5,-173.5 165.5,-173.5 165.5,-173.5 42.5,-173.5"/>
<polygon fill="none" stroke="#666666" points="0,-97 0,-228 165,-228 165,-97 0,-97"/>
</a>
</g>
</g>
<!-- Node2&#45;&gt;Node1 -->
<g id="edge1_Node000001_Node000002" class="edge">
<title>Node2&#45;&gt;Node1</title>
<g id="a_edge1_Node000001_Node000002"><a xlink:title=" ">
<path fill="none" stroke="#63b8ff" d="M124.77,-87.96C130.41,-78.13 135.91,-68.56 140.74,-60.16"/>
<polygon fill="none" stroke="#63b8ff" points="121.73,-86.22 119.78,-96.63 127.8,-89.71 121.73,-86.22"/>
</a>
</g>
</g>
<!-- Node3 -->
<g id="Node000003" class="node">
<title>Node3</title>
<g id="a_Node000003"><a xlink:href="classL4_1_1Ipc__svr_1_1Server__iface.html" target="_top" xlink:title="Interface for server&#45;loop related functions.">
<polygon fill="white" stroke="transparent" points="170,-806 39,-806 39,-641 170,-641 170,-806"/>
<text text-anchor="start" x="60" y="-793.5" font-family="Helvetica,sans-Serif" font-size="10.00">L4::Ipc_svr::Server</text>
<text text-anchor="start" x="90" y="-782.5" font-family="Helvetica,sans-Serif" font-size="10.00">_iface</text>
<text text-anchor="start" x="103" y="-767.5" font-family="Helvetica,sans-Serif" font-size="10.00"> </text>
<text text-anchor="start" x="43.5" y="-752.5" font-family="Helvetica,sans-Serif" font-size="10.00">+</text>
<text text-anchor="start" x="56.5" y="-752.5" font-family="Helvetica,sans-Serif" font-size="10.00">Server_iface()</text>
<text text-anchor="start" x="43.5" y="-737.5" font-family="Helvetica,sans-Serif" font-size="10.00">+</text>
<text text-anchor="start" x="56.5" y="-737.5" font-family="Helvetica,sans-Serif" font-size="10.00">alloc_buffer_demand()</text>
<text text-anchor="start" x="43.5" y="-722.5" font-family="Helvetica,sans-Serif" font-size="10.00">+</text>
<text text-anchor="start" x="56.5" y="-722.5" font-family="Helvetica,sans-Serif" font-size="10.00">get_rcv_cap()</text>
<text text-anchor="start" x="43.5" y="-707.5" font-family="Helvetica,sans-Serif" font-size="10.00">+</text>
<text text-anchor="start" x="56.5" y="-707.5" font-family="Helvetica,sans-Serif" font-size="10.00">realloc_rcv_cap()</text>
<text text-anchor="start" x="43.5" y="-692.5" font-family="Helvetica,sans-Serif" font-size="10.00">+</text>
<text text-anchor="start" x="56.5" y="-692.5" font-family="Helvetica,sans-Serif" font-size="10.00">add_timeout()</text>
<text text-anchor="start" x="43.5" y="-677.5" font-family="Helvetica,sans-Serif" font-size="10.00">+</text>
<text text-anchor="start" x="56.5" y="-677.5" font-family="Helvetica,sans-Serif" font-size="10.00">remove_timeout()</text>
<text text-anchor="start" x="43.5" y="-662.5" font-family="Helvetica,sans-Serif" font-size="10.00">+</text>
<text text-anchor="start" x="56.5" y="-662.5" font-family="Helvetica,sans-Serif" font-size="10.00">rcv_cap()</text>
<text text-anchor="start" x="43.5" y="-647.5" font-family="Helvetica,sans-Serif" font-size="10.00">+</text>
<text text-anchor="start" x="56.5" y="-647.5" font-family="Helvetica,sans-Serif" font-size="10.00">rcv_cap()</text>
<polygon fill="#666666" stroke="#666666" points="39.5,-777.5 39.5,-777.5 170.5,-777.5 170.5,-777.5 39.5,-777.5"/>
<polygon fill="#666666" stroke="#666666" points="39.5,-762.5 39.5,-762.5 170.5,-762.5 170.5,-762.5 39.5,-762.5"/>
<polygon fill="none" stroke="#666666" points="39,-641 39,-806 170,-806 170,-641 39,-641"/>
</a>
</g>
</g>
<!-- Node3&#45;&gt;Node2 -->
<g id="edge2_Node000002_Node000003" class="edge">
<title>Node3&#45;&gt;Node2</title>
<g id="a_edge2_Node000002_Node000003"><a xlink:title=" ">
<path fill="none" stroke="#63b8ff" d="M97.57,-630.56C93.3,-569.94 88.16,-488.79 85.5,-417 83.12,-352.78 82.48,-279.36 82.37,-228.12"/>
<polygon fill="none" stroke="#63b8ff" points="94.11,-631.14 98.3,-640.87 101.09,-630.64 94.11,-631.14"/>
</a>
</g>
</g>
<!-- Node4 -->
<g id="Node000004" class="node">
<title>Node4</title>
<g id="a_Node000004"><a xlink:href="classL4_1_1Ipc__svr_1_1Timeout__queue__hooks.html" target="_top" xlink:title="Loop hooks mixin for integrating a timeout queue into the server loop.">
<polygon fill="white" stroke="transparent" points="224.5,-417 94.5,-417 94.5,-286 224.5,-286 224.5,-417"/>
<text text-anchor="start" x="99.5" y="-404.5" font-family="Helvetica,sans-Serif" font-size="10.00">L4::Ipc_svr::Timeout</text>
<text text-anchor="start" x="99.5" y="-393.5" font-family="Helvetica,sans-Serif" font-size="10.00">_queue_hooks&lt; HOOKS,</text>
<text text-anchor="start" x="131" y="-382.5" font-family="Helvetica,sans-Serif" font-size="10.00"> BR_MAN &gt;</text>
<text text-anchor="start" x="103.5" y="-367.5" font-family="Helvetica,sans-Serif" font-size="10.00">+</text>
<text text-anchor="start" x="121.5" y="-367.5" font-family="Helvetica,sans-Serif" font-size="10.00">queue</text>
<text text-anchor="start" x="103.5" y="-352.5" font-family="Helvetica,sans-Serif" font-size="10.00">+</text>
<text text-anchor="start" x="121.5" y="-352.5" font-family="Helvetica,sans-Serif" font-size="10.00">timeout()</text>
<text text-anchor="start" x="103.5" y="-337.5" font-family="Helvetica,sans-Serif" font-size="10.00">+</text>
<text text-anchor="start" x="121.5" y="-337.5" font-family="Helvetica,sans-Serif" font-size="10.00">setup_wait()</text>
<text text-anchor="start" x="103.5" y="-322.5" font-family="Helvetica,sans-Serif" font-size="10.00">+</text>
<text text-anchor="start" x="121.5" y="-322.5" font-family="Helvetica,sans-Serif" font-size="10.00">before_reply()</text>
<text text-anchor="start" x="103.5" y="-307.5" font-family="Helvetica,sans-Serif" font-size="10.00">+</text>
<text text-anchor="start" x="121.5" y="-307.5" font-family="Helvetica,sans-Serif" font-size="10.00">add_timeout()</text>
<text text-anchor="start" x="103.5" y="-292.5" font-family="Helvetica,sans-Serif" font-size="10.00">+</text>
<text text-anchor="start" x="121.5" y="-292.5" font-family="Helvetica,sans-Serif" font-size="10.00">remove_timeout()</text>
<polygon fill="#666666" stroke="#666666" points="94.5,-377.5 94.5,-377.5 224.5,-377.5 224.5,-377.5 94.5,-377.5"/>
<polygon fill="#666666" stroke="#666666" points="94.5,-362.5 94.5,-362.5 119.5,-362.5 119.5,-362.5 94.5,-362.5"/>
<polygon fill="#666666" stroke="#666666" points="119.5,-362.5 119.5,-362.5 224.5,-362.5 224.5,-362.5 119.5,-362.5"/>
<polygon fill="none" stroke="#666666" points="94.5,-286 94.5,-417 224.5,-417 224.5,-286 94.5,-286"/>
</a>
</g>
</g>
<!-- Node3&#45;&gt;Node4 -->
<g id="edge4_Node000004_Node000003" class="edge">
<title>Node3&#45;&gt;Node4</title>
<g id="a_edge4_Node000004_Node000003"><a xlink:title=" ">
<path fill="none" stroke="#63b8ff" d="M104.88,-630.68C106.62,-578.42 111.39,-512 123.5,-454 126.04,-441.83 129.69,-429.13 133.7,-417"/>
<polygon fill="none" stroke="#63b8ff" points="101.38,-630.84 104.58,-640.94 108.37,-631.05 101.38,-630.84"/>
</a>
</g>
</g>
<!-- Node5 -->
<g id="Node000005" class="node">
<title>Node5</title>
<g id="a_Node000005"><a xlink:href="classL4_1_1Ipc__svr_1_1Br__manager__no__buffers.html" target="_top" xlink:title="Empty implementation of Server_iface.">
<polygon fill="white" stroke="transparent" points="264,-604 133,-604 133,-454 264,-454 264,-604"/>
<text text-anchor="start" x="140" y="-592" font-family="Helvetica,sans-Serif" font-size="10.00">L4::Ipc_svr::Br_manager</text>
<text text-anchor="start" x="170.5" y="-581" font-family="Helvetica,sans-Serif" font-size="10.00">_no_buffers</text>
<text text-anchor="start" x="197" y="-566" font-family="Helvetica,sans-Serif" font-size="10.00"> </text>
<text text-anchor="start" x="137.5" y="-551" font-family="Helvetica,sans-Serif" font-size="10.00">+</text>
<text text-anchor="start" x="150.5" y="-551" font-family="Helvetica,sans-Serif" font-size="10.00">alloc_buffer_demand()</text>
<text text-anchor="start" x="137.5" y="-536" font-family="Helvetica,sans-Serif" font-size="10.00">+</text>
<text text-anchor="start" x="150.5" y="-536" font-family="Helvetica,sans-Serif" font-size="10.00">get_rcv_cap()</text>
<text text-anchor="start" x="137.5" y="-521" font-family="Helvetica,sans-Serif" font-size="10.00">+</text>
<text text-anchor="start" x="150.5" y="-521" font-family="Helvetica,sans-Serif" font-size="10.00">realloc_rcv_cap()</text>
<text text-anchor="start" x="137.5" y="-506" font-family="Helvetica,sans-Serif" font-size="10.00">+</text>
<text text-anchor="start" x="150.5" y="-506" font-family="Helvetica,sans-Serif" font-size="10.00">add_timeout()</text>
<text text-anchor="start" x="137.5" y="-491" font-family="Helvetica,sans-Serif" font-size="10.00">+</text>
<text text-anchor="start" x="150.5" y="-491" font-family="Helvetica,sans-Serif" font-size="10.00">remove_timeout()</text>
<text text-anchor="start" x="137.5" y="-476" font-family="Helvetica,sans-Serif" font-size="10.00">#</text>
<text text-anchor="start" x="150.5" y="-476" font-family="Helvetica,sans-Serif" font-size="10.00">first_free_br()</text>
<text text-anchor="start" x="137.5" y="-461" font-family="Helvetica,sans-Serif" font-size="10.00">#</text>
<text text-anchor="start" x="150.5" y="-461" font-family="Helvetica,sans-Serif" font-size="10.00">setup_wait()</text>
<polygon fill="#666666" stroke="#666666" points="133.5,-576 133.5,-576 264.5,-576 264.5,-576 133.5,-576"/>
<polygon fill="#666666" stroke="#666666" points="133.5,-561 133.5,-561 264.5,-561 264.5,-561 133.5,-561"/>
<polygon fill="none" stroke="#666666" points="133,-454 133,-604 264,-604 264,-454 133,-454"/>
</a>
</g>
</g>
<!-- Node3&#45;&gt;Node5 -->
<g id="edge6_Node000005_Node000003" class="edge">
<title>Node3&#45;&gt;Node5</title>
<g id="a_edge6_Node000005_Node000003"><a xlink:title=" ">
<path fill="none" stroke="#63b8ff" d="M148.85,-631.67C153.36,-622.44 157.9,-613.15 162.3,-604.13"/>
<polygon fill="none" stroke="#63b8ff" points="145.61,-630.34 144.36,-640.86 151.9,-633.41 145.61,-630.34"/>
</a>
</g>
</g>
<!-- Node4&#45;&gt;Node2 -->
<g id="edge3_Node000002_Node000004" class="edge">
<title>Node4&#45;&gt;Node2</title>
<g id="a_edge3_Node000002_Node000004"><a xlink:title=" ">
<path fill="none" stroke="orange" d="M129.06,-276.56C122.46,-260.55 115.54,-243.74 109.11,-228.12"/>
<polygon fill="orange" stroke="orange" points="125.85,-277.97 132.89,-285.88 132.32,-275.3 125.85,-277.97"/>
</a>
</g>
<text text-anchor="start" x="123.5" y="-260" font-family="Helvetica,sans-Serif" font-size="10.00" fill="grey"> &lt; Br_manager_timeout</text>
<text text-anchor="middle" x="182.5" y="-249" font-family="Helvetica,sans-Serif" font-size="10.00" fill="grey">_hooks, Br_manager &gt;</text>
</g>
<!-- Node5&#45;&gt;Node4 -->
<g id="edge5_Node000004_Node000005" class="edge">
<title>Node5&#45;&gt;Node4</title>
<g id="a_edge5_Node000004_Node000005"><a xlink:title=" ">
<path fill="none" stroke="#63b8ff" d="M179.79,-443.79C177.8,-434.86 175.81,-425.89 173.89,-417.24"/>
<polygon fill="none" stroke="#63b8ff" points="176.43,-444.82 182.02,-453.83 183.26,-443.31 176.43,-444.82"/>
</a>
</g>
</g>
<!-- Node6 -->
<g id="Node000006" class="node">
<title>Node6</title>
<g id="a_Node000006"><a xlink:href="structL4_1_1Ipc__svr_1_1Ignore__errors.html" target="_top" xlink:title="Mix in for LOOP_HOOKS to ignore IPC errors.">
<polygon fill="white" stroke="transparent" points="282,-192.5 183,-192.5 183,-132.5 282,-132.5 282,-192.5"/>
<text text-anchor="start" x="188.5" y="-180.5" font-family="Helvetica,sans-Serif" font-size="10.00">L4::Ipc_svr::Ignore</text>
<text text-anchor="start" x="216" y="-169.5" font-family="Helvetica,sans-Serif" font-size="10.00">_errors</text>
<text text-anchor="start" x="231" y="-154.5" font-family="Helvetica,sans-Serif" font-size="10.00"> </text>
<text text-anchor="start" x="231" y="-139.5" font-family="Helvetica,sans-Serif" font-size="10.00"> </text>
<polygon fill="#666666" stroke="#666666" points="183.5,-164.5 183.5,-164.5 282.5,-164.5 282.5,-164.5 183.5,-164.5"/>
<polygon fill="#666666" stroke="#666666" points="183.5,-149.5 183.5,-149.5 282.5,-149.5 282.5,-149.5 183.5,-149.5"/>
<polygon fill="none" stroke="#666666" points="183,-132.5 183,-192.5 282,-192.5 282,-132.5 183,-132.5"/>
</a>
</g>
</g>
<!-- Node6&#45;&gt;Node1 -->
<g id="edge7_Node000001_Node000006" class="edge">
<title>Node6&#45;&gt;Node1</title>
<g id="a_edge7_Node000001_Node000006"><a xlink:title=" ">
<path fill="none" stroke="#63b8ff" d="M210.54,-123.28C198.96,-103.14 184.98,-78.81 174.28,-60.19"/>
<polygon fill="none" stroke="#63b8ff" points="207.65,-125.29 215.67,-132.21 213.72,-121.8 207.65,-125.29"/>
</a>
</g>
</g>
</g>
</svg>
