<?xml version="1.0" encoding="UTF-8" standalone="no"?>
<!DOCTYPE svg PUBLIC "-//W3C//DTD SVG 1.1//EN"
 "http://www.w3.org/Graphics/SVG/1.1/DTD/svg11.dtd">
<!-- Generated by graphviz version 2.42.4 (0)
 -->
<!-- Title: L4virtio::Svr::Scmi::Proto&lt; OBSERV &gt; Pages: 1 -->
<svg width="226pt" height="272pt"
 viewBox="0.00 0.00 226.00 272.00" xmlns="http://www.w3.org/2000/svg" xmlns:xlink="http://www.w3.org/1999/xlink">
<g id="graph0" class="graph" transform="scale(1 1) rotate(0) translate(4 268)">
<title>L4virtio::Svr::Scmi::Proto&lt; OBSERV &gt;</title>
<!-- Node1 -->
<g id="Node000001" class="node">
<title>Node1</title>
<g id="a_Node000001"><a xlink:title="Base class for all protocols.">
<polygon fill="#999999" stroke="transparent" points="160.5,-264 56.5,-264 56.5,-204 160.5,-204 160.5,-264"/>
<text text-anchor="start" x="61.5" y="-252" font-family="Helvetica,sans-Serif" font-size="10.00">L4virtio::Svr::Scmi</text>
<text text-anchor="start" x="61.5" y="-241" font-family="Helvetica,sans-Serif" font-size="10.00">::Proto&lt; OBSERV &gt;</text>
<text text-anchor="start" x="106.5" y="-226" font-family="Helvetica,sans-Serif" font-size="10.00"> </text>
<text text-anchor="start" x="106.5" y="-211" font-family="Helvetica,sans-Serif" font-size="10.00"> </text>
<polygon fill="#666666" stroke="#666666" points="56.5,-236 56.5,-236 160.5,-236 160.5,-236 56.5,-236"/>
<polygon fill="#666666" stroke="#666666" points="56.5,-221 56.5,-221 160.5,-221 160.5,-221 56.5,-221"/>
<polygon fill="none" stroke="#666666" points="56.5,-204 56.5,-264 160.5,-264 160.5,-204 56.5,-204"/>
</a>
</g>
</g>
<!-- Node2 -->
<g id="Node000002" class="node">
<title>Node2</title>
<g id="a_Node000002"><a xlink:href="structL4virtio_1_1Svr_1_1Scmi_1_1Proto.html" target="_top" xlink:title=" ">
<polygon fill="white" stroke="transparent" points="164.5,-157 52.5,-157 52.5,-97 164.5,-97 164.5,-157"/>
<text text-anchor="start" x="57.5" y="-145" font-family="Helvetica,sans-Serif" font-size="10.00">L4virtio::Svr::Scmi</text>
<text text-anchor="start" x="57.5" y="-134" font-family="Helvetica,sans-Serif" font-size="10.00">::Proto&lt; Scmi_dev &gt;</text>
<text text-anchor="start" x="106.5" y="-119" font-family="Helvetica,sans-Serif" font-size="10.00"> </text>
<text text-anchor="start" x="106.5" y="-104" font-family="Helvetica,sans-Serif" font-size="10.00"> </text>
<polygon fill="#666666" stroke="#666666" points="52.5,-129 52.5,-129 164.5,-129 164.5,-129 52.5,-129"/>
<polygon fill="#666666" stroke="#666666" points="52.5,-114 52.5,-114 164.5,-114 164.5,-114 52.5,-114"/>
<polygon fill="none" stroke="#666666" points="52.5,-97 52.5,-157 164.5,-157 164.5,-97 52.5,-97"/>
</a>
</g>
</g>
<!-- Node1&#45;&gt;Node2 -->
<g id="edge1_Node000001_Node000002" class="edge">
<title>Node1&#45;&gt;Node2</title>
<g id="a_edge1_Node000001_Node000002"><a xlink:title=" ">
<path fill="none" stroke="orange" d="M108.5,-193.46C108.5,-181.39 108.5,-168.34 108.5,-157.09"/>
<polygon fill="orange" stroke="orange" points="105,-193.75 108.5,-203.75 112,-193.75 105,-193.75"/>
</a>
</g>
<text text-anchor="middle" x="145" y="-178" font-family="Helvetica,sans-Serif" font-size="10.00" fill="grey"> &lt; Scmi_dev &gt;</text>
</g>
<!-- Node3 -->
<g id="Node000003" class="node">
<title>Node3</title>
<g id="a_Node000003"><a xlink:href="classL4virtio_1_1Svr_1_1Scmi_1_1Base__proto.html" target="_top" xlink:title="Base class for the SCMI base protocol.">
<polygon fill="white" stroke="transparent" points="99,-60 0,-60 0,0 99,0 99,-60"/>
<text text-anchor="start" x="5.5" y="-48" font-family="Helvetica,sans-Serif" font-size="10.00">L4virtio::Svr::Scmi</text>
<text text-anchor="start" x="19.5" y="-37" font-family="Helvetica,sans-Serif" font-size="10.00">::Base_proto</text>
<text text-anchor="start" x="48" y="-22" font-family="Helvetica,sans-Serif" font-size="10.00"> </text>
<text text-anchor="start" x="48" y="-7" font-family="Helvetica,sans-Serif" font-size="10.00"> </text>
<polygon fill="#666666" stroke="#666666" points="0.5,-32 0.5,-32 99.5,-32 99.5,-32 0.5,-32"/>
<polygon fill="#666666" stroke="#666666" points="0.5,-17 0.5,-17 99.5,-17 99.5,-17 0.5,-17"/>
<polygon fill="none" stroke="#666666" points="0,0 0,-60 99,-60 99,0 0,0"/>
</a>
</g>
</g>
<!-- Node2&#45;&gt;Node3 -->
<g id="edge2_Node000002_Node000003" class="edge">
<title>Node2&#45;&gt;Node3</title>
<g id="a_edge2_Node000002_Node000003"><a xlink:title=" ">
<path fill="none" stroke="#63b8ff" d="M85.05,-88.24C79.25,-78.9 73.12,-69.03 67.62,-60.17"/>
<polygon fill="none" stroke="#63b8ff" points="82.23,-90.33 90.48,-96.98 88.17,-86.64 82.23,-90.33"/>
</a>
</g>
</g>
<!-- Node4 -->
<g id="Node000004" class="node">
<title>Node4</title>
<g id="a_Node000004"><a xlink:href="classL4virtio_1_1Svr_1_1Scmi_1_1Perf__proto.html" target="_top" xlink:title="Base class for the SCMI performance protocol.">
<polygon fill="white" stroke="transparent" points="218,-60 117,-60 117,0 218,0 218,-60"/>
<text text-anchor="start" x="123.5" y="-48" font-family="Helvetica,sans-Serif" font-size="10.00">L4virtio::Svr::Scmi</text>
<text text-anchor="start" x="139.5" y="-37" font-family="Helvetica,sans-Serif" font-size="10.00">::Perf_proto</text>
<text text-anchor="start" x="166" y="-22" font-family="Helvetica,sans-Serif" font-size="10.00"> </text>
<text text-anchor="start" x="121.5" y="-7" font-family="Helvetica,sans-Serif" font-size="10.00">*</text>
<text text-anchor="start" x="131.5" y="-7" font-family="Helvetica,sans-Serif" font-size="10.00">handle_request()</text>
<polygon fill="#666666" stroke="#666666" points="117.5,-32 117.5,-32 218.5,-32 218.5,-32 117.5,-32"/>
<polygon fill="#666666" stroke="#666666" points="117.5,-17 117.5,-17 218.5,-17 218.5,-17 117.5,-17"/>
<polygon fill="none" stroke="#666666" points="117,0 117,-60 218,-60 218,0 117,0"/>
</a>
</g>
</g>
<!-- Node2&#45;&gt;Node4 -->
<g id="edge3_Node000002_Node000004" class="edge">
<title>Node2&#45;&gt;Node4</title>
<g id="a_edge3_Node000002_Node000004"><a xlink:title=" ">
<path fill="none" stroke="#63b8ff" d="M131.95,-88.24C137.75,-78.9 143.88,-69.03 149.38,-60.17"/>
<polygon fill="none" stroke="#63b8ff" points="128.83,-86.64 126.52,-96.98 134.77,-90.33 128.83,-86.64"/>
</a>
</g>
</g>
</g>
</svg>
