<?xml version="1.0" encoding="UTF-8" standalone="no"?>
<!DOCTYPE svg PUBLIC "-//W3C//DTD SVG 1.1//EN"
 "http://www.w3.org/Graphics/SVG/1.1/DTD/svg11.dtd">
<!-- Generated by graphviz version 2.43.0 (0)
 -->
<!-- Title: l4/sys/assert.h Pages: 1 -->
<svg width="578pt" height="412pt"
 viewBox="0.00 0.00 578.38 412.00" xmlns="http://www.w3.org/2000/svg" xmlns:xlink="http://www.w3.org/1999/xlink">
<g id="graph0" class="graph" transform="scale(1 1) rotate(0) translate(4 408)">
<title>l4/sys/assert.h</title>
<!-- Node1 -->
<g id="Node000001" class="node">
<title>Node1</title>
<g id="a_Node000001"><a xlink:title="Low&#45;level assert implementation.">
<polygon fill="#999999" stroke="#666666" points="545.88,-404 458.88,-404 458.88,-385 545.88,-385 545.88,-404"/>
<text text-anchor="middle" x="502.38" y="-392" font-family="Helvetica,sans-Serif" font-size="10.00">l4/sys/assert.h</text>
</a>
</g>
</g>
<!-- Node2 -->
<g id="Node000002" class="node">
<title>Node2</title>
<g id="a_Node000002"><a xlink:href="compiler_8h.html" target="_top" xlink:title="L4 compiler related defines.">
<polygon fill="white" stroke="#666666" points="490.88,-74 391.88,-74 391.88,-55 490.88,-55 490.88,-74"/>
<text text-anchor="middle" x="441.38" y="-62" font-family="Helvetica,sans-Serif" font-size="10.00">l4/sys/compiler.h</text>
</a>
</g>
</g>
<!-- Node1&#45;&gt;Node2 -->
<g id="edge1_Node000001_Node000002" class="edge">
<title>Node1&#45;&gt;Node2</title>
<g id="a_edge1_Node000001_Node000002"><a xlink:title=" ">
<path fill="none" stroke="#63b8ff" d="M515.46,-384.75C526.54,-376.7 542.07,-363.78 551.38,-349 567.08,-324.07 570.38,-314.96 570.38,-285.5 570.38,-285.5 570.38,-285.5 570.38,-173.5 570.38,-124.7 515.44,-93.6 477.26,-77.88"/>
<polygon fill="#63b8ff" stroke="#63b8ff" points="478.07,-74.43 467.48,-74.03 475.51,-80.95 478.07,-74.43"/>
</a>
</g>
</g>
<!-- Node4 -->
<g id="Node000004" class="node">
<title>Node4</title>
<g id="a_Node000004"><a xlink:href="l4_2sys_2thread_8h.html" target="_top" xlink:title="Common thread related definitions.">
<polygon fill="white" stroke="#666666" points="443.88,-349 354.88,-349 354.88,-330 443.88,-330 443.88,-349"/>
<text text-anchor="middle" x="399.38" y="-337" font-family="Helvetica,sans-Serif" font-size="10.00">l4/sys/thread.h</text>
</a>
</g>
</g>
<!-- Node1&#45;&gt;Node4 -->
<g id="edge3_Node000001_Node000004" class="edge">
<title>Node1&#45;&gt;Node4</title>
<g id="a_edge3_Node000001_Node000004"><a xlink:title=" ">
<path fill="none" stroke="#63b8ff" d="M485.83,-384.98C469.48,-376.57 444.24,-363.59 425.25,-353.81"/>
<polygon fill="#63b8ff" stroke="#63b8ff" points="426.72,-350.63 416.23,-349.17 423.52,-356.86 426.72,-350.63"/>
</a>
</g>
</g>
<!-- Node13 -->
<g id="Node000013" class="node">
<title>Node13</title>
<g id="a_Node000013"><a xlink:href="vcon_8h.html" target="_top" xlink:title="Virtual console interface.">
<polygon fill="white" stroke="#666666" points="542.38,-349 462.38,-349 462.38,-330 542.38,-330 542.38,-349"/>
<text text-anchor="middle" x="502.38" y="-337" font-family="Helvetica,sans-Serif" font-size="10.00">l4/sys/vcon.h</text>
</a>
</g>
</g>
<!-- Node1&#45;&gt;Node13 -->
<g id="edge23_Node000001_Node000013" class="edge">
<title>Node1&#45;&gt;Node13</title>
<g id="a_edge23_Node000001_Node000013"><a xlink:title=" ">
<path fill="none" stroke="#63b8ff" d="M502.38,-384.75C502.38,-377.8 502.38,-367.85 502.38,-359.13"/>
<polygon fill="#63b8ff" stroke="#63b8ff" points="505.88,-359.09 502.38,-349.09 498.88,-359.09 505.88,-359.09"/>
</a>
</g>
</g>
<!-- Node3 -->
<g id="Node000003" class="node">
<title>Node3</title>
<g id="a_Node000003"><a xlink:title=" ">
<polygon fill="#e0e0e0" stroke="#999999" points="487.38,-19 395.38,-19 395.38,0 487.38,0 487.38,-19"/>
<text text-anchor="middle" x="441.38" y="-7" font-family="Helvetica,sans-Serif" font-size="10.00">l4/sys/linkage.h</text>
</a>
</g>
</g>
<!-- Node2&#45;&gt;Node3 -->
<g id="edge2_Node000002_Node000003" class="edge">
<title>Node2&#45;&gt;Node3</title>
<g id="a_edge2_Node000002_Node000003"><a xlink:title=" ">
<path fill="none" stroke="#63b8ff" d="M441.38,-54.75C441.38,-47.8 441.38,-37.85 441.38,-29.13"/>
<polygon fill="#63b8ff" stroke="#63b8ff" points="444.88,-29.09 441.38,-19.09 437.88,-29.09 444.88,-29.09"/>
</a>
</g>
</g>
<!-- Node5 -->
<g id="Node000005" class="node">
<title>Node5</title>
<g id="a_Node000005"><a xlink:href="l4_2sys_2types_8h.html" target="_top" xlink:title="Common L4 ABI Data Types.">
<polygon fill="white" stroke="#666666" points="378.38,-184 294.38,-184 294.38,-165 378.38,-165 378.38,-184"/>
<text text-anchor="middle" x="336.38" y="-172" font-family="Helvetica,sans-Serif" font-size="10.00">l4/sys/types.h</text>
</a>
</g>
</g>
<!-- Node4&#45;&gt;Node5 -->
<g id="edge4_Node000004_Node000005" class="edge">
<title>Node4&#45;&gt;Node5</title>
<g id="a_edge4_Node000004_Node000005"><a xlink:title=" ">
<path fill="none" stroke="#63b8ff" d="M394.8,-329.93C385.88,-312.96 365.95,-273.72 353.38,-239 348.03,-224.23 343.52,-206.98 340.49,-194.19"/>
<polygon fill="#63b8ff" stroke="#63b8ff" points="343.86,-193.24 338.23,-184.27 337.04,-194.8 343.86,-193.24"/>
</a>
</g>
</g>
<!-- Node10 -->
<g id="Node000010" class="node">
<title>Node10</title>
<g id="a_Node000010"><a xlink:href="l4_2sys_2utcb_8h.html" target="_top" xlink:title="UTCB definitions.">
<polygon fill="white" stroke="#666666" points="440.38,-239 362.38,-239 362.38,-220 440.38,-220 440.38,-239"/>
<text text-anchor="middle" x="401.38" y="-227" font-family="Helvetica,sans-Serif" font-size="10.00">l4/sys/utcb.h</text>
</a>
</g>
</g>
<!-- Node4&#45;&gt;Node10 -->
<g id="edge14_Node000004_Node000010" class="edge">
<title>Node4&#45;&gt;Node10</title>
<g id="a_edge14_Node000004_Node000010"><a xlink:title=" ">
<path fill="none" stroke="#63b8ff" d="M399.54,-329.66C399.87,-312.17 400.59,-272.8 401.03,-249.27"/>
<polygon fill="#63b8ff" stroke="#63b8ff" points="404.53,-249.22 401.22,-239.16 397.53,-249.09 404.53,-249.22"/>
</a>
</g>
</g>
<!-- Node11 -->
<g id="Node000011" class="node">
<title>Node11</title>
<g id="a_Node000011"><a xlink:href="l4_2sys_2ipc_8h.html" target="_top" xlink:title="Common IPC interface.">
<polygon fill="white" stroke="#666666" points="503.88,-294 432.88,-294 432.88,-275 503.88,-275 503.88,-294"/>
<text text-anchor="middle" x="468.38" y="-282" font-family="Helvetica,sans-Serif" font-size="10.00">l4/sys/ipc.h</text>
</a>
</g>
</g>
<!-- Node4&#45;&gt;Node11 -->
<g id="edge18_Node000004_Node000011" class="edge">
<title>Node4&#45;&gt;Node11</title>
<g id="a_edge18_Node000004_Node000011"><a xlink:title=" ">
<path fill="none" stroke="#63b8ff" d="M410.46,-329.98C420.86,-322 436.64,-309.88 449.1,-300.31"/>
<polygon fill="#63b8ff" stroke="#63b8ff" points="451.29,-303.04 457.09,-294.17 447.03,-297.49 451.29,-303.04"/>
</a>
</g>
</g>
<!-- Node5&#45;&gt;Node2 -->
<g id="edge6_Node000005_Node000002" class="edge">
<title>Node5&#45;&gt;Node2</title>
<g id="a_edge6_Node000005_Node000002"><a xlink:title=" ">
<path fill="none" stroke="#63b8ff" d="M353.6,-164.88C368.13,-157 388.82,-144.26 403.38,-129 416.24,-115.52 426.73,-96.93 433.4,-83.35"/>
<polygon fill="#63b8ff" stroke="#63b8ff" points="436.66,-84.65 437.73,-74.11 430.32,-81.68 436.66,-84.65"/>
</a>
</g>
</g>
<!-- Node6 -->
<g id="Node000006" class="node">
<title>Node6</title>
<g id="a_Node000006"><a xlink:href="l4_2sys_2l4int_8h.html" target="_top" xlink:title="Fixed sized integer types, generic version.">
<polygon fill="white" stroke="#666666" points="147.88,-74 68.88,-74 68.88,-55 147.88,-55 147.88,-74"/>
<text text-anchor="middle" x="108.38" y="-62" font-family="Helvetica,sans-Serif" font-size="10.00">l4/sys/l4int.h</text>
</a>
</g>
</g>
<!-- Node5&#45;&gt;Node6 -->
<g id="edge5_Node000005_Node000006" class="edge">
<title>Node5&#45;&gt;Node6</title>
<g id="a_edge5_Node000005_Node000006"><a xlink:title=" ">
<path fill="none" stroke="#63b8ff" d="M294.24,-169.07C258.41,-163.8 206.68,-152.55 167.38,-129 147.89,-117.33 130.88,-97.34 120.19,-82.91"/>
<polygon fill="#63b8ff" stroke="#63b8ff" points="122.76,-80.49 114.12,-74.37 117.06,-84.55 122.76,-80.49"/>
</a>
</g>
</g>
<!-- Node7 -->
<g id="Node000007" class="node">
<title>Node7</title>
<g id="a_Node000007"><a xlink:href="l4_2sys_2consts_8h.html" target="_top" xlink:title="Common constants.">
<polygon fill="white" stroke="#666666" points="265.88,-129 176.88,-129 176.88,-110 265.88,-110 265.88,-129"/>
<text text-anchor="middle" x="221.38" y="-117" font-family="Helvetica,sans-Serif" font-size="10.00">l4/sys/consts.h</text>
</a>
</g>
</g>
<!-- Node5&#45;&gt;Node7 -->
<g id="edge7_Node000005_Node000007" class="edge">
<title>Node5&#45;&gt;Node7</title>
<g id="a_edge7_Node000005_Node000007"><a xlink:title=" ">
<path fill="none" stroke="#63b8ff" d="M317.9,-164.98C299.4,-156.46 270.7,-143.23 249.39,-133.41"/>
<polygon fill="#63b8ff" stroke="#63b8ff" points="250.74,-130.18 240.19,-129.17 247.81,-136.53 250.74,-130.18"/>
</a>
</g>
</g>
<!-- Node8 -->
<g id="Node000008" class="node">
<title>Node8</title>
<g id="a_Node000008"><a xlink:href="____l4__fpage_8h_source.html" target="_top" xlink:title=" ">
<polygon fill="white" stroke="#666666" points="394.38,-129 284.38,-129 284.38,-110 394.38,-110 394.38,-129"/>
<text text-anchor="middle" x="339.38" y="-117" font-family="Helvetica,sans-Serif" font-size="10.00">l4/sys/__l4_fpage.h</text>
</a>
</g>
</g>
<!-- Node5&#45;&gt;Node8 -->
<g id="edge10_Node000005_Node000008" class="edge">
<title>Node5&#45;&gt;Node8</title>
<g id="a_edge10_Node000005_Node000008"><a xlink:title=" ">
<path fill="none" stroke="#63b8ff" d="M336.87,-164.75C337.27,-157.8 337.83,-147.85 338.32,-139.13"/>
<polygon fill="#63b8ff" stroke="#63b8ff" points="341.82,-139.27 338.89,-129.09 334.83,-138.88 341.82,-139.27"/>
</a>
</g>
</g>
<!-- Node9 -->
<g id="Node000009" class="node">
<title>Node9</title>
<g id="a_Node000009"><a xlink:href="____timeout_8h_source.html" target="_top" xlink:title=" ">
<polygon fill="white" stroke="#666666" points="120.38,-129 14.38,-129 14.38,-110 120.38,-110 120.38,-129"/>
<text text-anchor="middle" x="67.38" y="-117" font-family="Helvetica,sans-Serif" font-size="10.00">l4/sys/__timeout.h</text>
</a>
</g>
</g>
<!-- Node5&#45;&gt;Node9 -->
<g id="edge12_Node000005_Node000009" class="edge">
<title>Node5&#45;&gt;Node9</title>
<g id="a_edge12_Node000005_Node000009"><a xlink:title=" ">
<path fill="none" stroke="#63b8ff" d="M294.35,-165.22C247.52,-155.99 171.72,-141.06 120.75,-131.01"/>
<polygon fill="#63b8ff" stroke="#63b8ff" points="121.38,-127.57 110.9,-129.07 120.03,-134.44 121.38,-127.57"/>
</a>
</g>
</g>
<!-- Node7&#45;&gt;Node2 -->
<g id="edge8_Node000007_Node000002" class="edge">
<title>Node7&#45;&gt;Node2</title>
<g id="a_edge8_Node000007_Node000002"><a xlink:title=" ">
<path fill="none" stroke="#63b8ff" d="M256.73,-109.98C294.54,-100.87 354.64,-86.4 395.94,-76.45"/>
<polygon fill="#63b8ff" stroke="#63b8ff" points="396.85,-79.83 405.75,-74.08 395.21,-73.02 396.85,-79.83"/>
</a>
</g>
</g>
<!-- Node7&#45;&gt;Node6 -->
<g id="edge9_Node000007_Node000006" class="edge">
<title>Node7&#45;&gt;Node6</title>
<g id="a_edge9_Node000007_Node000006"><a xlink:title=" ">
<path fill="none" stroke="#63b8ff" d="M203.22,-109.98C185.13,-101.5 157.09,-88.35 136.19,-78.54"/>
<polygon fill="#63b8ff" stroke="#63b8ff" points="137.4,-75.25 126.86,-74.17 134.43,-81.59 137.4,-75.25"/>
</a>
</g>
</g>
<!-- Node8&#45;&gt;Node2 -->
<g id="edge11_Node000008_Node000002" class="edge">
<title>Node8&#45;&gt;Node2</title>
<g id="a_edge11_Node000008_Node000002"><a xlink:title=" ">
<path fill="none" stroke="#63b8ff" d="M355.77,-109.98C371.95,-101.57 396.95,-88.59 415.76,-78.81"/>
<polygon fill="#63b8ff" stroke="#63b8ff" points="417.43,-81.89 424.69,-74.17 414.2,-75.68 417.43,-81.89"/>
</a>
</g>
</g>
<!-- Node9&#45;&gt;Node6 -->
<g id="edge13_Node000009_Node000006" class="edge">
<title>Node9&#45;&gt;Node6</title>
<g id="a_edge13_Node000009_Node000006"><a xlink:title=" ">
<path fill="none" stroke="#63b8ff" d="M74.15,-109.75C79.94,-102.26 88.44,-91.28 95.52,-82.13"/>
<polygon fill="#63b8ff" stroke="#63b8ff" points="98.38,-84.14 101.73,-74.09 92.85,-79.86 98.38,-84.14"/>
</a>
</g>
</g>
<!-- Node10&#45;&gt;Node2 -->
<g id="edge16_Node000010_Node000002" class="edge">
<title>Node10&#45;&gt;Node2</title>
<g id="a_edge16_Node000010_Node000002"><a xlink:title=" ">
<path fill="none" stroke="#63b8ff" d="M403.53,-219.74C409.8,-194.2 428.14,-119.43 436.78,-84.23"/>
<polygon fill="#63b8ff" stroke="#63b8ff" points="440.23,-84.85 439.22,-74.31 433.43,-83.18 440.23,-84.85"/>
</a>
</g>
</g>
<!-- Node10&#45;&gt;Node5 -->
<g id="edge15_Node000010_Node000005" class="edge">
<title>Node10&#45;&gt;Node5</title>
<g id="a_edge15_Node000010_Node000005"><a xlink:title=" ">
<path fill="none" stroke="#63b8ff" d="M390.93,-219.98C381.23,-212.07 366.56,-200.11 354.88,-190.58"/>
<polygon fill="#63b8ff" stroke="#63b8ff" points="356.97,-187.78 347.01,-184.17 352.55,-193.2 356.97,-187.78"/>
</a>
</g>
</g>
<!-- Node10&#45;&gt;Node6 -->
<g id="edge17_Node000010_Node000006" class="edge">
<title>Node10&#45;&gt;Node6</title>
<g id="a_edge17_Node000010_Node000006"><a xlink:title=" ">
<path fill="none" stroke="#63b8ff" d="M362.17,-224.66C271.06,-214.84 49.46,-185.53 5.38,-129 -13.81,-104.39 23.94,-86.96 59.02,-76.67"/>
<polygon fill="#63b8ff" stroke="#63b8ff" points="60.1,-80 68.79,-73.95 58.22,-73.26 60.1,-80"/>
</a>
</g>
</g>
<!-- Node11&#45;&gt;Node5 -->
<g id="edge19_Node000011_Node000005" class="edge">
<title>Node11&#45;&gt;Node5</title>
<g id="a_edge19_Node000011_Node000005"><a xlink:title=" ">
<path fill="none" stroke="#63b8ff" d="M468.11,-274.96C467.25,-261.57 463.71,-235.59 449.38,-220 433.42,-202.63 409.83,-191.95 388.33,-185.42"/>
<polygon fill="#63b8ff" stroke="#63b8ff" points="389.2,-182.03 378.63,-182.7 387.31,-188.77 389.2,-182.03"/>
</a>
</g>
</g>
<!-- Node11&#45;&gt;Node10 -->
<g id="edge20_Node000011_Node000010" class="edge">
<title>Node11&#45;&gt;Node10</title>
<g id="a_edge20_Node000011_Node000010"><a xlink:title=" ">
<path fill="none" stroke="#63b8ff" d="M457.61,-274.98C447.61,-267.07 432.49,-255.11 420.45,-245.58"/>
<polygon fill="#63b8ff" stroke="#63b8ff" points="422.35,-242.63 412.34,-239.17 418.01,-248.12 422.35,-242.63"/>
</a>
</g>
</g>
<!-- Node12 -->
<g id="Node000012" class="node">
<title>Node12</title>
<g id="a_Node000012"><a xlink:href="err_8h.html" target="_top" xlink:title="Error codes.">
<polygon fill="white" stroke="#666666" points="542.38,-184 472.38,-184 472.38,-165 542.38,-165 542.38,-184"/>
<text text-anchor="middle" x="507.38" y="-172" font-family="Helvetica,sans-Serif" font-size="10.00">l4/sys/err.h</text>
</a>
</g>
</g>
<!-- Node11&#45;&gt;Node12 -->
<g id="edge21_Node000011_Node000012" class="edge">
<title>Node11&#45;&gt;Node12</title>
<g id="a_edge21_Node000011_Node000012"><a xlink:title=" ">
<path fill="none" stroke="#63b8ff" d="M471.57,-274.66C477.94,-257.01 492.36,-217.09 500.83,-193.64"/>
<polygon fill="#63b8ff" stroke="#63b8ff" points="504.15,-194.75 504.25,-184.16 497.56,-192.38 504.15,-194.75"/>
</a>
</g>
</g>
<!-- Node12&#45;&gt;Node2 -->
<g id="edge22_Node000012_Node000002" class="edge">
<title>Node12&#45;&gt;Node2</title>
<g id="a_edge22_Node000012_Node000002"><a xlink:title=" ">
<path fill="none" stroke="#63b8ff" d="M503.32,-164.63C497.48,-152.13 486.1,-128.75 474.38,-110 468.39,-100.42 460.94,-90.26 454.64,-82.07"/>
<polygon fill="#63b8ff" stroke="#63b8ff" points="457.3,-79.79 448.38,-74.07 451.79,-84.1 457.3,-79.79"/>
</a>
</g>
</g>
<!-- Node13&#45;&gt;Node11 -->
<g id="edge24_Node000013_Node000011" class="edge">
<title>Node13&#45;&gt;Node11</title>
<g id="a_edge24_Node000013_Node000011"><a xlink:title=" ">
<path fill="none" stroke="#63b8ff" d="M496.76,-329.75C492.06,-322.42 485.2,-311.73 479.41,-302.7"/>
<polygon fill="#63b8ff" stroke="#63b8ff" points="482.23,-300.62 473.89,-294.09 476.34,-304.4 482.23,-300.62"/>
</a>
</g>
</g>
</g>
</svg>
