<?xml version="1.0" encoding="UTF-8" standalone="no"?>
<!DOCTYPE svg PUBLIC "-//W3C//DTD SVG 1.1//EN"
 "http://www.w3.org/Graphics/SVG/1.1/DTD/svg11.dtd">
<!-- Generated by graphviz version 2.42.4 (0)
 -->
<!-- Title: l4/cxx/unique_ptr_list Pages: 1 -->
<svg width="242pt" height="247pt"
 viewBox="0.00 0.00 241.50 247.00" xmlns="http://www.w3.org/2000/svg" xmlns:xlink="http://www.w3.org/1999/xlink">
<g id="graph0" class="graph" transform="scale(1 1) rotate(0) translate(4 243)">
<title>l4/cxx/unique_ptr_list</title>
<!-- Node1 -->
<g id="Node000001" class="node">
<title>Node1</title>
<g id="a_Node000001"><a xlink:title="Implementation of a list of unique&#45;ptr&#45;managed objects.">
<polygon fill="#999999" stroke="#666666" points="174,-239 53,-239 53,-220 174,-220 174,-239"/>
<text text-anchor="middle" x="113.5" y="-227" font-family="Helvetica,sans-Serif" font-size="10.00">l4/cxx/unique_ptr_list</text>
</a>
</g>
</g>
<!-- Node2 -->
<g id="Node000002" class="node">
<title>Node2</title>
<g id="a_Node000002"><a xlink:href="unique__ptr_source.html" target="_top" xlink:title=" ">
<polygon fill="white" stroke="#666666" points="101,-184 0,-184 0,-165 101,-165 101,-184"/>
<text text-anchor="middle" x="50.5" y="-172" font-family="Helvetica,sans-Serif" font-size="10.00">l4/cxx/unique_ptr</text>
</a>
</g>
</g>
<!-- Node1&#45;&gt;Node2 -->
<g id="edge1_Node000001_Node000002" class="edge">
<title>Node1&#45;&gt;Node2</title>
<g id="a_edge1_Node000001_Node000002"><a xlink:title=" ">
<path fill="none" stroke="#63b8ff" d="M103.38,-219.98C94.06,-212.15 80.03,-200.34 68.76,-190.86"/>
<polygon fill="#63b8ff" stroke="#63b8ff" points="70.71,-187.93 60.81,-184.17 66.21,-193.29 70.71,-187.93"/>
</a>
</g>
</g>
<!-- Node7 -->
<g id="Node000007" class="node">
<title>Node7</title>
<g id="a_Node000007"><a xlink:href="smart__ptr__list_8h.html" target="_top" xlink:title="Implementation of a list of smart&#45;pointer&#45;managed objects.">
<polygon fill="white" stroke="#666666" points="233.5,-184 119.5,-184 119.5,-165 233.5,-165 233.5,-184"/>
<text text-anchor="middle" x="176.5" y="-172" font-family="Helvetica,sans-Serif" font-size="10.00">bits/smart_ptr_list.h</text>
</a>
</g>
</g>
<!-- Node1&#45;&gt;Node7 -->
<g id="edge6_Node000001_Node000007" class="edge">
<title>Node1&#45;&gt;Node7</title>
<g id="a_edge6_Node000001_Node000007"><a xlink:title=" ">
<path fill="none" stroke="#63b8ff" d="M123.62,-219.98C132.94,-212.15 146.97,-200.34 158.24,-190.86"/>
<polygon fill="#63b8ff" stroke="#63b8ff" points="160.79,-193.29 166.19,-184.17 156.29,-187.93 160.79,-193.29"/>
</a>
</g>
</g>
<!-- Node3 -->
<g id="Node000003" class="node">
<title>Node3</title>
<g id="a_Node000003"><a xlink:href="type__traits_source.html" target="_top" xlink:title=" ">
<polygon fill="white" stroke="#666666" points="148,-129 79,-129 79,-110 148,-110 148,-129"/>
<text text-anchor="middle" x="113.5" y="-117" font-family="Helvetica,sans-Serif" font-size="10.00">type_traits</text>
</a>
</g>
</g>
<!-- Node2&#45;&gt;Node3 -->
<g id="edge2_Node000002_Node000003" class="edge">
<title>Node2&#45;&gt;Node3</title>
<g id="a_edge2_Node000002_Node000003"><a xlink:title=" ">
<path fill="none" stroke="#63b8ff" d="M60.62,-164.98C69.94,-157.15 83.97,-145.34 95.24,-135.86"/>
<polygon fill="#63b8ff" stroke="#63b8ff" points="97.79,-138.29 103.19,-129.17 93.29,-132.93 97.79,-138.29"/>
</a>
</g>
</g>
<!-- Node4 -->
<g id="Node000004" class="node">
<title>Node4</title>
<g id="a_Node000004"><a xlink:href="compiler_8h.html" target="_top" xlink:title="L4 compiler related defines.">
<polygon fill="white" stroke="#666666" points="105,-74 6,-74 6,-55 105,-55 105,-74"/>
<text text-anchor="middle" x="55.5" y="-62" font-family="Helvetica,sans-Serif" font-size="10.00">l4/sys/compiler.h</text>
</a>
</g>
</g>
<!-- Node3&#45;&gt;Node4 -->
<g id="edge3_Node000003_Node000004" class="edge">
<title>Node3&#45;&gt;Node4</title>
<g id="a_edge3_Node000003_Node000004"><a xlink:title=" ">
<path fill="none" stroke="#63b8ff" d="M104.18,-109.98C95.69,-102.23 82.94,-90.58 72.62,-81.14"/>
<polygon fill="#63b8ff" stroke="#63b8ff" points="74.73,-78.33 64.99,-74.17 70.01,-83.5 74.73,-78.33"/>
</a>
</g>
</g>
<!-- Node6 -->
<g id="Node000006" class="node">
<title>Node6</title>
<g id="a_Node000006"><a xlink:href="type__traits_8h_source.html" target="_top" xlink:title=" ">
<polygon fill="white" stroke="#666666" points="222,-74 123,-74 123,-55 222,-55 222,-74"/>
<text text-anchor="middle" x="172.5" y="-62" font-family="Helvetica,sans-Serif" font-size="10.00">bits/type_traits.h</text>
</a>
</g>
</g>
<!-- Node3&#45;&gt;Node6 -->
<g id="edge5_Node000003_Node000006" class="edge">
<title>Node3&#45;&gt;Node6</title>
<g id="a_edge5_Node000003_Node000006"><a xlink:title=" ">
<path fill="none" stroke="#63b8ff" d="M122.98,-109.98C131.7,-102.15 144.84,-90.34 155.4,-80.86"/>
<polygon fill="#63b8ff" stroke="#63b8ff" points="157.75,-83.46 162.85,-74.17 153.07,-78.25 157.75,-83.46"/>
</a>
</g>
</g>
<!-- Node5 -->
<g id="Node000005" class="node">
<title>Node5</title>
<g id="a_Node000005"><a xlink:title=" ">
<polygon fill="#e0e0e0" stroke="#999999" points="101.5,-19 9.5,-19 9.5,0 101.5,0 101.5,-19"/>
<text text-anchor="middle" x="55.5" y="-7" font-family="Helvetica,sans-Serif" font-size="10.00">l4/sys/linkage.h</text>
</a>
</g>
</g>
<!-- Node4&#45;&gt;Node5 -->
<g id="edge4_Node000004_Node000005" class="edge">
<title>Node4&#45;&gt;Node5</title>
<g id="a_edge4_Node000004_Node000005"><a xlink:title=" ">
<path fill="none" stroke="#63b8ff" d="M55.5,-54.75C55.5,-47.8 55.5,-37.85 55.5,-29.13"/>
<polygon fill="#63b8ff" stroke="#63b8ff" points="59,-29.09 55.5,-19.09 52,-29.09 59,-29.09"/>
</a>
</g>
</g>
<!-- Node7&#45;&gt;Node3 -->
<g id="edge7_Node000007_Node000003" class="edge">
<title>Node7&#45;&gt;Node3</title>
<g id="a_edge7_Node000007_Node000003"><a xlink:title=" ">
<path fill="none" stroke="#63b8ff" d="M166.38,-164.98C157.06,-157.15 143.03,-145.34 131.76,-135.86"/>
<polygon fill="#63b8ff" stroke="#63b8ff" points="133.71,-132.93 123.81,-129.17 129.21,-138.29 133.71,-132.93"/>
</a>
</g>
</g>
</g>
</svg>
