<?xml version="1.0" encoding="UTF-8" standalone="no"?>
<!DOCTYPE svg PUBLIC "-//W3C//DTD SVG 1.1//EN"
 "http://www.w3.org/Graphics/SVG/1.1/DTD/svg11.dtd">
<!-- Generated by graphviz version 2.43.0 (0)
 -->
<!-- Title: l4/cxx/unique_ptr_list Pages: 1 -->
<svg width="242pt" height="192pt"
 viewBox="0.00 0.00 241.50 192.00" xmlns="http://www.w3.org/2000/svg" xmlns:xlink="http://www.w3.org/1999/xlink">
<g id="graph0" class="graph" transform="scale(1 1) rotate(0) translate(4 188)">
<title>l4/cxx/unique_ptr_list</title>
<!-- Node1 -->
<g id="Node000001" class="node">
<title>Node1</title>
<g id="a_Node000001"><a xlink:title="Implementation of a list of unique&#45;ptr&#45;managed objects.">
<polygon fill="#999999" stroke="#666666" points="174,-184 53,-184 53,-165 174,-165 174,-184"/>
<text text-anchor="middle" x="113.5" y="-172" font-family="Helvetica,sans-Serif" font-size="10.00">l4/cxx/unique_ptr_list</text>
</a>
</g>
</g>
<!-- Node2 -->
<g id="Node000002" class="node">
<title>Node2</title>
<g id="a_Node000002"><a xlink:href="unique__ptr_source.html" target="_top" xlink:title=" ">
<polygon fill="white" stroke="#666666" points="101,-129 0,-129 0,-110 101,-110 101,-129"/>
<text text-anchor="middle" x="50.5" y="-117" font-family="Helvetica,sans-Serif" font-size="10.00">l4/cxx/unique_ptr</text>
</a>
</g>
</g>
<!-- Node1&#45;&gt;Node2 -->
<g id="edge1_Node000001_Node000002" class="edge">
<title>Node1&#45;&gt;Node2</title>
<g id="a_edge1_Node000001_Node000002"><a xlink:title=" ">
<path fill="none" stroke="#63b8ff" d="M103.38,-164.98C94.06,-157.15 80.03,-145.34 68.76,-135.86"/>
<polygon fill="#63b8ff" stroke="#63b8ff" points="70.71,-132.93 60.81,-129.17 66.21,-138.29 70.71,-132.93"/>
</a>
</g>
</g>
<!-- Node5 -->
<g id="Node000005" class="node">
<title>Node5</title>
<g id="a_Node000005"><a xlink:href="smart__ptr__list_8h.html" target="_top" xlink:title="Implementation of a list of smart&#45;pointer&#45;managed objects.">
<polygon fill="white" stroke="#666666" points="233.5,-129 119.5,-129 119.5,-110 233.5,-110 233.5,-129"/>
<text text-anchor="middle" x="176.5" y="-117" font-family="Helvetica,sans-Serif" font-size="10.00">bits/smart_ptr_list.h</text>
</a>
</g>
</g>
<!-- Node1&#45;&gt;Node5 -->
<g id="edge4_Node000001_Node000005" class="edge">
<title>Node1&#45;&gt;Node5</title>
<g id="a_edge4_Node000001_Node000005"><a xlink:title=" ">
<path fill="none" stroke="#63b8ff" d="M123.62,-164.98C132.94,-157.15 146.97,-145.34 158.24,-135.86"/>
<polygon fill="#63b8ff" stroke="#63b8ff" points="160.79,-138.29 166.19,-129.17 156.29,-132.93 160.79,-138.29"/>
</a>
</g>
</g>
<!-- Node3 -->
<g id="Node000003" class="node">
<title>Node3</title>
<g id="a_Node000003"><a xlink:href="type__traits_source.html" target="_top" xlink:title=" ">
<polygon fill="white" stroke="#666666" points="148,-74 79,-74 79,-55 148,-55 148,-74"/>
<text text-anchor="middle" x="113.5" y="-62" font-family="Helvetica,sans-Serif" font-size="10.00">type_traits</text>
</a>
</g>
</g>
<!-- Node2&#45;&gt;Node3 -->
<g id="edge2_Node000002_Node000003" class="edge">
<title>Node2&#45;&gt;Node3</title>
<g id="a_edge2_Node000002_Node000003"><a xlink:title=" ">
<path fill="none" stroke="#63b8ff" d="M60.62,-109.98C69.94,-102.15 83.97,-90.34 95.24,-80.86"/>
<polygon fill="#63b8ff" stroke="#63b8ff" points="97.79,-83.29 103.19,-74.17 93.29,-77.93 97.79,-83.29"/>
</a>
</g>
</g>
<!-- Node4 -->
<g id="Node000004" class="node">
<title>Node4</title>
<g id="a_Node000004"><a xlink:href="type__traits_8h_source.html" target="_top" xlink:title=" ">
<polygon fill="white" stroke="#666666" points="163,-19 64,-19 64,0 163,0 163,-19"/>
<text text-anchor="middle" x="113.5" y="-7" font-family="Helvetica,sans-Serif" font-size="10.00">bits/type_traits.h</text>
</a>
</g>
</g>
<!-- Node3&#45;&gt;Node4 -->
<g id="edge3_Node000003_Node000004" class="edge">
<title>Node3&#45;&gt;Node4</title>
<g id="a_edge3_Node000003_Node000004"><a xlink:title=" ">
<path fill="none" stroke="#63b8ff" d="M113.5,-54.75C113.5,-47.8 113.5,-37.85 113.5,-29.13"/>
<polygon fill="#63b8ff" stroke="#63b8ff" points="117,-29.09 113.5,-19.09 110,-29.09 117,-29.09"/>
</a>
</g>
</g>
<!-- Node5&#45;&gt;Node3 -->
<g id="edge5_Node000005_Node000003" class="edge">
<title>Node5&#45;&gt;Node3</title>
<g id="a_edge5_Node000005_Node000003"><a xlink:title=" ">
<path fill="none" stroke="#63b8ff" d="M166.38,-109.98C157.06,-102.15 143.03,-90.34 131.76,-80.86"/>
<polygon fill="#63b8ff" stroke="#63b8ff" points="133.71,-77.93 123.81,-74.17 129.21,-83.29 133.71,-77.93"/>
</a>
</g>
</g>
</g>
</svg>
