<?xml version="1.0" encoding="UTF-8" standalone="no"?>
<!DOCTYPE svg PUBLIC "-//W3C//DTD SVG 1.1//EN"
 "http://www.w3.org/Graphics/SVG/1.1/DTD/svg11.dtd">
<!-- Generated by graphviz version 2.42.4 (0)
 -->
<!-- Title: l4/re/util/shared_cap Pages: 1 -->
<svg width="385pt" height="225pt"
 viewBox="0.00 0.00 384.50 225.00" xmlns="http://www.w3.org/2000/svg" xmlns:xlink="http://www.w3.org/1999/xlink">
<g id="graph0" class="graph" transform="scale(1 1) rotate(0) translate(4 221)">
<title>l4/re/util/shared_cap</title>
<!-- Node1 -->
<g id="Node000001" class="node">
<title>Node1</title>
<g id="a_Node000001"><a xlink:title="Shared_cap / Shared_del_cap.">
<polygon fill="#999999" stroke="#666666" points="259.5,-217 143.5,-217 143.5,-198 259.5,-198 259.5,-217"/>
<text text-anchor="middle" x="201.5" y="-205" font-family="Helvetica,sans-Serif" font-size="10.00">l4/re/util/shared_cap</text>
</a>
</g>
</g>
<!-- Node2 -->
<g id="Node000002" class="node">
<title>Node2</title>
<g id="a_Node000002"><a xlink:href="server_2l4virtio_source.html" target="_top" xlink:title=" ">
<polygon fill="white" stroke="#666666" points="250,-162 153,-162 153,-132 250,-132 250,-162"/>
<text text-anchor="start" x="161" y="-150" font-family="Helvetica,sans-Serif" font-size="10.00">l4/l4virtio/server</text>
<text text-anchor="middle" x="201.5" y="-139" font-family="Helvetica,sans-Serif" font-size="10.00">/l4virtio</text>
</a>
</g>
</g>
<!-- Node1&#45;&gt;Node2 -->
<g id="edge1_Node000001_Node000002" class="edge">
<title>Node1&#45;&gt;Node2</title>
<g id="a_edge1_Node000001_Node000002"><a xlink:title=" ">
<path fill="none" stroke="#63b8ff" d="M201.5,-187.65C201.5,-179.36 201.5,-169.78 201.5,-162.11"/>
<polygon fill="#63b8ff" stroke="#63b8ff" points="198,-187.87 201.5,-197.87 205,-187.87 198,-187.87"/>
</a>
</g>
</g>
<!-- Node3 -->
<g id="Node000003" class="node">
<title>Node3</title>
<g id="a_Node000003"><a xlink:href="server_2virtio-block_source.html" target="_top" xlink:title=" ">
<polygon fill="white" stroke="#666666" points="97,-96 0,-96 0,-66 97,-66 97,-96"/>
<text text-anchor="start" x="8" y="-84" font-family="Helvetica,sans-Serif" font-size="10.00">l4/l4virtio/server</text>
<text text-anchor="middle" x="48.5" y="-73" font-family="Helvetica,sans-Serif" font-size="10.00">/virtio&#45;block</text>
</a>
</g>
</g>
<!-- Node2&#45;&gt;Node3 -->
<g id="edge2_Node000002_Node000003" class="edge">
<title>Node2&#45;&gt;Node3</title>
<g id="a_edge2_Node000002_Node000003"><a xlink:title=" ">
<path fill="none" stroke="#63b8ff" d="M158.6,-128.05C134.36,-117.91 104.5,-105.43 82,-96.01"/>
<polygon fill="#63b8ff" stroke="#63b8ff" points="157.35,-131.32 167.92,-131.95 160.05,-124.87 157.35,-131.32"/>
</a>
</g>
</g>
<!-- Node4 -->
<g id="Node000004" class="node">
<title>Node4</title>
<g id="a_Node000004"><a xlink:href="virtio-console_source.html" target="_top" xlink:title=" ">
<polygon fill="white" stroke="#666666" points="212,-96 115,-96 115,-66 212,-66 212,-96"/>
<text text-anchor="start" x="123" y="-84" font-family="Helvetica,sans-Serif" font-size="10.00">l4/l4virtio/server</text>
<text text-anchor="middle" x="163.5" y="-73" font-family="Helvetica,sans-Serif" font-size="10.00">/virtio&#45;console</text>
</a>
</g>
</g>
<!-- Node2&#45;&gt;Node4 -->
<g id="edge3_Node000002_Node000004" class="edge">
<title>Node2&#45;&gt;Node4</title>
<g id="a_edge3_Node000002_Node000004"><a xlink:title=" ">
<path fill="none" stroke="#63b8ff" d="M187.82,-122.96C182.5,-114 176.58,-104.03 171.91,-96.16"/>
<polygon fill="#63b8ff" stroke="#63b8ff" points="184.95,-124.98 193.07,-131.8 190.97,-121.41 184.95,-124.98"/>
</a>
</g>
</g>
<!-- Node5 -->
<g id="Node000005" class="node">
<title>Node5</title>
<g id="a_Node000005"><a xlink:href="virtio-console-device_source.html" target="_top" xlink:title=" ">
<polygon fill="white" stroke="#666666" points="262.5,-30 140.5,-30 140.5,0 262.5,0 262.5,-30"/>
<text text-anchor="start" x="148.5" y="-18" font-family="Helvetica,sans-Serif" font-size="10.00">l4/l4virtio/server</text>
<text text-anchor="middle" x="201.5" y="-7" font-family="Helvetica,sans-Serif" font-size="10.00">/virtio&#45;console&#45;device</text>
</a>
</g>
</g>
<!-- Node2&#45;&gt;Node5 -->
<g id="edge5_Node000002_Node000005" class="edge">
<title>Node2&#45;&gt;Node5</title>
<g id="a_edge5_Node000002_Node000005"><a xlink:title=" ">
<path fill="none" stroke="#63b8ff" d="M212.96,-122.68C216.42,-114.45 219.77,-105.01 221.5,-96 224.02,-82.91 224.02,-79.09 221.5,-66 219.06,-53.33 213.44,-39.79 208.78,-30"/>
<polygon fill="#63b8ff" stroke="#63b8ff" points="209.68,-121.44 208.78,-132 216.06,-124.31 209.68,-121.44"/>
</a>
</g>
</g>
<!-- Node6 -->
<g id="Node000006" class="node">
<title>Node6</title>
<g id="a_Node000006"><a xlink:href="virtio-scmi-device_source.html" target="_top" xlink:title=" ">
<polygon fill="white" stroke="#666666" points="376.5,-96 268.5,-96 268.5,-66 376.5,-66 376.5,-96"/>
<text text-anchor="start" x="276.5" y="-84" font-family="Helvetica,sans-Serif" font-size="10.00">l4/l4virtio/server</text>
<text text-anchor="middle" x="322.5" y="-73" font-family="Helvetica,sans-Serif" font-size="10.00">/virtio&#45;scmi&#45;device</text>
</a>
</g>
</g>
<!-- Node2&#45;&gt;Node6 -->
<g id="edge6_Node000002_Node000006" class="edge">
<title>Node2&#45;&gt;Node6</title>
<g id="a_edge6_Node000002_Node000006"><a xlink:title=" ">
<path fill="none" stroke="#63b8ff" d="M236.97,-127.24C255.85,-117.25 278.68,-105.18 296.01,-96.01"/>
<polygon fill="#63b8ff" stroke="#63b8ff" points="235.26,-124.19 228.05,-131.95 238.53,-130.37 235.26,-124.19"/>
</a>
</g>
</g>
<!-- Node4&#45;&gt;Node5 -->
<g id="edge4_Node000004_Node000005" class="edge">
<title>Node4&#45;&gt;Node5</title>
<g id="a_edge4_Node000004_Node000005"><a xlink:title=" ">
<path fill="none" stroke="#63b8ff" d="M177.18,-56.96C182.5,-48 188.42,-38.03 193.09,-30.16"/>
<polygon fill="#63b8ff" stroke="#63b8ff" points="174.03,-55.41 171.93,-65.8 180.05,-58.98 174.03,-55.41"/>
</a>
</g>
</g>
</g>
</svg>
