<?xml version="1.0" encoding="UTF-8" standalone="no"?>
<!DOCTYPE svg PUBLIC "-//W3C//DTD SVG 1.1//EN"
 "http://www.w3.org/Graphics/SVG/1.1/DTD/svg11.dtd">
<!-- Generated by graphviz version 2.42.4 (0)
 -->
<!-- Title: l4/re/util/unique_cap Pages: 1 -->
<svg width="655pt" height="225pt"
 viewBox="0.00 0.00 654.50 225.00" xmlns="http://www.w3.org/2000/svg" xmlns:xlink="http://www.w3.org/1999/xlink">
<g id="graph0" class="graph" transform="scale(1 1) rotate(0) translate(4 221)">
<title>l4/re/util/unique_cap</title>
<!-- Node1 -->
<g id="Node000001" class="node">
<title>Node1</title>
<g id="a_Node000001"><a xlink:title="Unique_cap / Unique_del_cap.">
<polygon fill="#999999" stroke="#666666" points="328.5,-217 212.5,-217 212.5,-198 328.5,-198 328.5,-217"/>
<text text-anchor="middle" x="270.5" y="-205" font-family="Helvetica,sans-Serif" font-size="10.00">l4/re/util/unique_cap</text>
</a>
</g>
</g>
<!-- Node2 -->
<g id="Node000002" class="node">
<title>Node2</title>
<g id="a_Node000002"><a xlink:href="client_2l4virtio_source.html" target="_top" xlink:title=" ">
<polygon fill="white" stroke="#666666" points="148,-96 55,-96 55,-66 148,-66 148,-96"/>
<text text-anchor="start" x="63" y="-84" font-family="Helvetica,sans-Serif" font-size="10.00">l4/l4virtio/client</text>
<text text-anchor="middle" x="101.5" y="-73" font-family="Helvetica,sans-Serif" font-size="10.00">/l4virtio</text>
</a>
</g>
</g>
<!-- Node1&#45;&gt;Node2 -->
<g id="edge1_Node000001_Node000002" class="edge">
<title>Node1&#45;&gt;Node2</title>
<g id="a_edge1_Node000001_Node000002"><a xlink:title=" ">
<path fill="none" stroke="#63b8ff" d="M227.33,-194.86C206.08,-187.7 180.91,-176.99 161.5,-162 137.86,-143.75 118.9,-113.91 109.01,-96.29"/>
<polygon fill="#63b8ff" stroke="#63b8ff" points="226.51,-198.27 237.1,-197.99 228.65,-191.6 226.51,-198.27"/>
</a>
</g>
</g>
<!-- Node3 -->
<g id="Node000003" class="node">
<title>Node3</title>
<g id="a_Node000003"><a xlink:href="client_2virtio-block_source.html" target="_top" xlink:title=" ">
<polygon fill="white" stroke="#666666" points="223,-30 130,-30 130,0 223,0 223,-30"/>
<text text-anchor="start" x="138" y="-18" font-family="Helvetica,sans-Serif" font-size="10.00">l4/l4virtio/client</text>
<text text-anchor="middle" x="176.5" y="-7" font-family="Helvetica,sans-Serif" font-size="10.00">/virtio&#45;block</text>
</a>
</g>
</g>
<!-- Node1&#45;&gt;Node3 -->
<g id="edge4_Node000001_Node000003" class="edge">
<title>Node1&#45;&gt;Node3</title>
<g id="a_edge4_Node000001_Node000003"><a xlink:title=" ">
<path fill="none" stroke="#63b8ff" d="M234.5,-193.75C219.74,-186.68 203.94,-176.36 194.5,-162 167.27,-120.61 170.97,-58.11 174.36,-30.26"/>
<polygon fill="#63b8ff" stroke="#63b8ff" points="233.4,-197.1 243.96,-197.94 236.23,-190.69 233.4,-197.1"/>
</a>
</g>
</g>
<!-- Node4 -->
<g id="Node000004" class="node">
<title>Node4</title>
<g id="a_Node000004"><a xlink:href="virtio-net_source.html" target="_top" xlink:title=" ">
<polygon fill="white" stroke="#666666" points="93,-30 0,-30 0,0 93,0 93,-30"/>
<text text-anchor="start" x="8" y="-18" font-family="Helvetica,sans-Serif" font-size="10.00">l4/l4virtio/client</text>
<text text-anchor="middle" x="46.5" y="-7" font-family="Helvetica,sans-Serif" font-size="10.00">/virtio&#45;net</text>
</a>
</g>
</g>
<!-- Node1&#45;&gt;Node4 -->
<g id="edge5_Node000001_Node000004" class="edge">
<title>Node1&#45;&gt;Node4</title>
<g id="a_edge5_Node000001_Node000004"><a xlink:title=" ">
<path fill="none" stroke="#63b8ff" d="M202.34,-195.77C147.21,-182.88 74.2,-155.05 45.5,-96 35.24,-74.89 38.96,-46.79 42.68,-30.12"/>
<polygon fill="#63b8ff" stroke="#63b8ff" points="201.89,-199.26 212.41,-198.01 203.41,-192.43 201.89,-199.26"/>
</a>
</g>
</g>
<!-- Node5 -->
<g id="Node000005" class="node">
<title>Node5</title>
<g id="a_Node000005"><a xlink:href="server_2l4virtio_source.html" target="_top" xlink:title=" ">
<polygon fill="white" stroke="#666666" points="596,-162 499,-162 499,-132 596,-132 596,-162"/>
<text text-anchor="start" x="507" y="-150" font-family="Helvetica,sans-Serif" font-size="10.00">l4/l4virtio/server</text>
<text text-anchor="middle" x="547.5" y="-139" font-family="Helvetica,sans-Serif" font-size="10.00">/l4virtio</text>
</a>
</g>
</g>
<!-- Node1&#45;&gt;Node5 -->
<g id="edge6_Node000001_Node000005" class="edge">
<title>Node1&#45;&gt;Node5</title>
<g id="a_edge6_Node000001_Node000005"><a xlink:title=" ">
<path fill="none" stroke="#63b8ff" d="M325.74,-195.98C370.32,-187.34 434.58,-174.52 490.5,-162 493.18,-161.4 495.94,-160.77 498.71,-160.12"/>
<polygon fill="#63b8ff" stroke="#63b8ff" points="324.85,-192.59 315.7,-197.92 326.18,-199.46 324.85,-192.59"/>
</a>
</g>
</g>
<!-- Node6 -->
<g id="Node000006" class="node">
<title>Node6</title>
<g id="a_Node000006"><a xlink:href="server_2virtio-block_source.html" target="_top" xlink:title=" ">
<polygon fill="white" stroke="#666666" points="480,-96 383,-96 383,-66 480,-66 480,-96"/>
<text text-anchor="start" x="391" y="-84" font-family="Helvetica,sans-Serif" font-size="10.00">l4/l4virtio/server</text>
<text text-anchor="middle" x="431.5" y="-73" font-family="Helvetica,sans-Serif" font-size="10.00">/virtio&#45;block</text>
</a>
</g>
</g>
<!-- Node1&#45;&gt;Node6 -->
<g id="edge12_Node000001_Node000006" class="edge">
<title>Node1&#45;&gt;Node6</title>
<g id="a_edge12_Node000001_Node000006"><a xlink:title=" ">
<path fill="none" stroke="#63b8ff" d="M296.33,-193.27C311.48,-185.06 330.68,-173.83 346.5,-162 374.08,-141.36 402.52,-112.85 418.51,-96.03"/>
<polygon fill="#63b8ff" stroke="#63b8ff" points="294.67,-190.19 287.49,-197.98 297.96,-196.37 294.67,-190.19"/>
</a>
</g>
</g>
<!-- Node10 -->
<g id="Node000010" class="node">
<title>Node10</title>
<g id="a_Node000010"><a xlink:href="util_2event.html" target="_top" xlink:title=" ">
<polygon fill="white" stroke="#666666" points="481.5,-156.5 393.5,-156.5 393.5,-137.5 481.5,-137.5 481.5,-156.5"/>
<text text-anchor="middle" x="437.5" y="-144.5" font-family="Helvetica,sans-Serif" font-size="10.00">l4/re/util/event</text>
</a>
</g>
</g>
<!-- Node1&#45;&gt;Node10 -->
<g id="edge13_Node000001_Node000010" class="edge">
<title>Node1&#45;&gt;Node10</title>
<g id="a_edge13_Node000001_Node000010"><a xlink:title=" ">
<path fill="none" stroke="#63b8ff" d="M304.27,-194.67C336.56,-183.36 384.48,-166.57 413.19,-156.52"/>
<polygon fill="#63b8ff" stroke="#63b8ff" points="303.06,-191.38 294.78,-197.99 305.38,-197.99 303.06,-191.38"/>
</a>
</g>
</g>
<!-- Node11 -->
<g id="Node000011" class="node">
<title>Node11</title>
<g id="a_Node000011"><a xlink:href="object__registry_source.html" target="_top" xlink:title=" ">
<polygon fill="white" stroke="#666666" points="337,-156.5 204,-156.5 204,-137.5 337,-137.5 337,-156.5"/>
<text text-anchor="middle" x="270.5" y="-144.5" font-family="Helvetica,sans-Serif" font-size="10.00">l4/re/util/object_registry</text>
</a>
</g>
</g>
<!-- Node1&#45;&gt;Node11 -->
<g id="edge14_Node000001_Node000011" class="edge">
<title>Node1&#45;&gt;Node11</title>
<g id="a_edge14_Node000001_Node000011"><a xlink:title=" ">
<path fill="none" stroke="#63b8ff" d="M270.5,-187.66C270.5,-177.24 270.5,-164.8 270.5,-156.67"/>
<polygon fill="#63b8ff" stroke="#63b8ff" points="267,-187.87 270.5,-197.87 274,-187.87 267,-187.87"/>
</a>
</g>
</g>
<!-- Node2&#45;&gt;Node3 -->
<g id="edge2_Node000002_Node000003" class="edge">
<title>Node2&#45;&gt;Node3</title>
<g id="a_edge2_Node000002_Node000003"><a xlink:title=" ">
<path fill="none" stroke="#63b8ff" d="M125.87,-59.2C137.01,-49.7 149.91,-38.69 159.9,-30.16"/>
<polygon fill="#63b8ff" stroke="#63b8ff" points="123.48,-56.64 118.14,-65.8 128.02,-61.97 123.48,-56.64"/>
</a>
</g>
</g>
<!-- Node2&#45;&gt;Node4 -->
<g id="edge3_Node000002_Node000004" class="edge">
<title>Node2&#45;&gt;Node4</title>
<g id="a_edge3_Node000002_Node000004"><a xlink:title=" ">
<path fill="none" stroke="#63b8ff" d="M82.67,-58.09C74.73,-48.85 65.72,-38.36 58.67,-30.16"/>
<polygon fill="#63b8ff" stroke="#63b8ff" points="80.12,-60.49 89.29,-65.8 85.43,-55.93 80.12,-60.49"/>
</a>
</g>
</g>
<!-- Node5&#45;&gt;Node6 -->
<g id="edge7_Node000005_Node000006" class="edge">
<title>Node5&#45;&gt;Node6</title>
<g id="a_edge7_Node000005_Node000006"><a xlink:title=" ">
<path fill="none" stroke="#63b8ff" d="M513.01,-126.97C495,-117.03 473.35,-105.09 456.9,-96.01"/>
<polygon fill="#63b8ff" stroke="#63b8ff" points="511.6,-130.19 522.04,-131.95 514.98,-124.06 511.6,-130.19"/>
</a>
</g>
</g>
<!-- Node7 -->
<g id="Node000007" class="node">
<title>Node7</title>
<g id="a_Node000007"><a xlink:href="virtio-console_source.html" target="_top" xlink:title=" ">
<polygon fill="white" stroke="#666666" points="596,-96 499,-96 499,-66 596,-66 596,-96"/>
<text text-anchor="start" x="507" y="-84" font-family="Helvetica,sans-Serif" font-size="10.00">l4/l4virtio/server</text>
<text text-anchor="middle" x="547.5" y="-73" font-family="Helvetica,sans-Serif" font-size="10.00">/virtio&#45;console</text>
</a>
</g>
</g>
<!-- Node5&#45;&gt;Node7 -->
<g id="edge8_Node000005_Node000007" class="edge">
<title>Node5&#45;&gt;Node7</title>
<g id="a_edge8_Node000005_Node000007"><a xlink:title=" ">
<path fill="none" stroke="#63b8ff" d="M547.5,-121.54C547.5,-112.96 547.5,-103.61 547.5,-96.16"/>
<polygon fill="#63b8ff" stroke="#63b8ff" points="544,-121.8 547.5,-131.8 551,-121.8 544,-121.8"/>
</a>
</g>
</g>
<!-- Node8 -->
<g id="Node000008" class="node">
<title>Node8</title>
<g id="a_Node000008"><a xlink:href="virtio-console-device_source.html" target="_top" xlink:title=" ">
<polygon fill="white" stroke="#666666" points="646.5,-30 524.5,-30 524.5,0 646.5,0 646.5,-30"/>
<text text-anchor="start" x="532.5" y="-18" font-family="Helvetica,sans-Serif" font-size="10.00">l4/l4virtio/server</text>
<text text-anchor="middle" x="585.5" y="-7" font-family="Helvetica,sans-Serif" font-size="10.00">/virtio&#45;console&#45;device</text>
</a>
</g>
</g>
<!-- Node5&#45;&gt;Node8 -->
<g id="edge10_Node000005_Node000008" class="edge">
<title>Node5&#45;&gt;Node8</title>
<g id="a_edge10_Node000005_Node000008"><a xlink:title=" ">
<path fill="none" stroke="#63b8ff" d="M580.41,-125.82C590.37,-117.88 600.09,-107.8 605.5,-96 615.52,-74.13 603.77,-46.51 594.52,-30.11"/>
<polygon fill="#63b8ff" stroke="#63b8ff" points="578.04,-123.23 572.08,-131.99 582.2,-128.85 578.04,-123.23"/>
</a>
</g>
</g>
<!-- Node9 -->
<g id="Node000009" class="node">
<title>Node9</title>
<g id="a_Node000009"><a xlink:href="virtio-scmi-device_source.html" target="_top" xlink:title=" ">
<polygon fill="white" stroke="#666666" points="362.5,-96 254.5,-96 254.5,-66 362.5,-66 362.5,-96"/>
<text text-anchor="start" x="262.5" y="-84" font-family="Helvetica,sans-Serif" font-size="10.00">l4/l4virtio/server</text>
<text text-anchor="middle" x="308.5" y="-73" font-family="Helvetica,sans-Serif" font-size="10.00">/virtio&#45;scmi&#45;device</text>
</a>
</g>
</g>
<!-- Node5&#45;&gt;Node9 -->
<g id="edge11_Node000005_Node000009" class="edge">
<title>Node5&#45;&gt;Node9</title>
<g id="a_edge11_Node000005_Node000009"><a xlink:title=" ">
<path fill="none" stroke="#63b8ff" d="M489.15,-130.38C449.94,-119.88 398.7,-106.15 360.81,-96.01"/>
<polygon fill="#63b8ff" stroke="#63b8ff" points="488.28,-133.77 498.85,-132.97 490.09,-127 488.28,-133.77"/>
</a>
</g>
</g>
<!-- Node7&#45;&gt;Node8 -->
<g id="edge9_Node000007_Node000008" class="edge">
<title>Node7&#45;&gt;Node8</title>
<g id="a_edge9_Node000007_Node000008"><a xlink:title=" ">
<path fill="none" stroke="#63b8ff" d="M561.18,-56.96C566.5,-48 572.42,-38.03 577.09,-30.16"/>
<polygon fill="#63b8ff" stroke="#63b8ff" points="558.03,-55.41 555.93,-65.8 564.05,-58.98 558.03,-55.41"/>
</a>
</g>
</g>
<!-- Node11&#45;&gt;Node2 -->
<g id="edge15_Node000011_Node000002" class="edge">
<title>Node11&#45;&gt;Node2</title>
<g id="a_edge15_Node000011_Node000002"><a xlink:title=" ">
<path fill="none" stroke="#63b8ff" d="M238.25,-133.79C209.87,-123.04 168.56,-107.4 138.77,-96.12"/>
<polygon fill="#63b8ff" stroke="#63b8ff" points="237.12,-137.1 247.71,-137.37 239.6,-130.55 237.12,-137.1"/>
</a>
</g>
</g>
<!-- Node11&#45;&gt;Node3 -->
<g id="edge16_Node000011_Node000003" class="edge">
<title>Node11&#45;&gt;Node3</title>
<g id="a_edge16_Node000011_Node000003"><a xlink:title=" ">
<path fill="none" stroke="#63b8ff" d="M258.25,-129.06C239.51,-103.14 204.08,-54.14 186.67,-30.07"/>
<polygon fill="#63b8ff" stroke="#63b8ff" points="255.64,-131.42 264.33,-137.47 261.31,-127.32 255.64,-131.42"/>
</a>
</g>
</g>
<!-- Node11&#45;&gt;Node9 -->
<g id="edge17_Node000011_Node000009" class="edge">
<title>Node11&#45;&gt;Node9</title>
<g id="a_edge17_Node000011_Node000009"><a xlink:title=" ">
<path fill="none" stroke="#63b8ff" d="M280.82,-128.61C286.83,-118.5 294.31,-105.91 299.97,-96.36"/>
<polygon fill="#63b8ff" stroke="#63b8ff" points="277.72,-126.98 275.62,-137.37 283.74,-130.56 277.72,-126.98"/>
</a>
</g>
</g>
</g>
</svg>
