<?xml version="1.0" encoding="UTF-8" standalone="no"?>
<!DOCTYPE svg PUBLIC "-//W3C//DTD SVG 1.1//EN"
 "http://www.w3.org/Graphics/SVG/1.1/DTD/svg11.dtd">
<!-- Generated by graphviz version 2.43.0 (0)
 -->
<!-- Title: l4/util/kip.h Pages: 1 -->
<svg width="481pt" height="357pt"
 viewBox="0.00 0.00 480.50 357.00" xmlns="http://www.w3.org/2000/svg" xmlns:xlink="http://www.w3.org/1999/xlink">
<g id="graph0" class="graph" transform="scale(1 1) rotate(0) translate(4 353)">
<title>l4/util/kip.h</title>
<!-- Node1 -->
<g id="Node000001" class="node">
<title>Node1</title>
<g id="a_Node000001"><a xlink:title=" ">
<polygon fill="#999999" stroke="#666666" points="406,-349 335,-349 335,-330 406,-330 406,-349"/>
<text text-anchor="middle" x="370.5" y="-337" font-family="Helvetica,sans-Serif" font-size="10.00">l4/util/kip.h</text>
</a>
</g>
</g>
<!-- Node2 -->
<g id="Node000002" class="node">
<title>Node2</title>
<g id="a_Node000002"><a xlink:href="sys_2kip_8h.html" target="_top" xlink:title="Kernel Info Page access functions.">
<polygon fill="white" stroke="#666666" points="345.5,-294 273.5,-294 273.5,-275 345.5,-275 345.5,-294"/>
<text text-anchor="middle" x="309.5" y="-282" font-family="Helvetica,sans-Serif" font-size="10.00">l4/sys/kip.h</text>
</a>
</g>
</g>
<!-- Node1&#45;&gt;Node2 -->
<g id="edge1_Node000001_Node000002" class="edge">
<title>Node1&#45;&gt;Node2</title>
<g id="a_edge1_Node000001_Node000002"><a xlink:title=" ">
<path fill="none" stroke="#63b8ff" d="M360.7,-329.98C351.68,-322.15 338.09,-310.34 327.18,-300.86"/>
<polygon fill="#63b8ff" stroke="#63b8ff" points="329.32,-298.09 319.48,-294.17 324.73,-303.37 329.32,-298.09"/>
</a>
</g>
</g>
<!-- Node3 -->
<g id="Node000003" class="node">
<title>Node3</title>
<g id="a_Node000003"><a xlink:href="compiler_8h.html" target="_top" xlink:title="L4 compiler related defines.">
<polygon fill="white" stroke="#666666" points="401,-74 302,-74 302,-55 401,-55 401,-74"/>
<text text-anchor="middle" x="351.5" y="-62" font-family="Helvetica,sans-Serif" font-size="10.00">l4/sys/compiler.h</text>
</a>
</g>
</g>
<!-- Node1&#45;&gt;Node3 -->
<g id="edge17_Node000001_Node000003" class="edge">
<title>Node1&#45;&gt;Node3</title>
<g id="a_edge17_Node000001_Node000003"><a xlink:title=" ">
<path fill="none" stroke="#63b8ff" d="M388.27,-329.95C417.49,-314.5 472.5,-278.99 472.5,-230.5 472.5,-230.5 472.5,-230.5 472.5,-173.5 472.5,-126.14 420.27,-94.4 384.44,-78.19"/>
<polygon fill="#63b8ff" stroke="#63b8ff" points="385.4,-74.79 374.83,-74.03 382.62,-81.21 385.4,-74.79"/>
</a>
</g>
</g>
<!-- Node2&#45;&gt;Node3 -->
<g id="edge2_Node000002_Node000003" class="edge">
<title>Node2&#45;&gt;Node3</title>
<g id="a_edge2_Node000002_Node000003"><a xlink:title=" ">
<path fill="none" stroke="#63b8ff" d="M327.79,-274.94C342.26,-267.33 362.03,-254.94 374.5,-239 406.64,-197.9 406.24,-180.35 415.5,-129 417,-120.69 419.41,-117.48 415.5,-110 408.39,-96.39 395.01,-86.1 382.31,-78.87"/>
<polygon fill="#63b8ff" stroke="#63b8ff" points="383.77,-75.68 373.29,-74.13 380.52,-81.88 383.77,-75.68"/>
</a>
</g>
</g>
<!-- Node5 -->
<g id="Node000005" class="node">
<title>Node5</title>
<g id="a_Node000005"><a xlink:href="l4_2sys_2l4int_8h.html" target="_top" xlink:title="Fixed sized integer types, generic version.">
<polygon fill="white" stroke="#666666" points="79,-74 0,-74 0,-55 79,-55 79,-74"/>
<text text-anchor="middle" x="39.5" y="-62" font-family="Helvetica,sans-Serif" font-size="10.00">l4/sys/l4int.h</text>
</a>
</g>
</g>
<!-- Node2&#45;&gt;Node5 -->
<g id="edge4_Node000002_Node000005" class="edge">
<title>Node2&#45;&gt;Node5</title>
<g id="a_edge4_Node000002_Node000005"><a xlink:title=" ">
<path fill="none" stroke="#63b8ff" d="M273.42,-280.97C233.55,-276.87 168.5,-266.26 119.5,-239 59.08,-205.38 35.96,-192.88 9.5,-129 2.69,-112.55 13.41,-94.21 23.87,-81.48"/>
<polygon fill="#63b8ff" stroke="#63b8ff" points="26.49,-83.8 30.53,-74.01 21.26,-79.15 26.49,-83.8"/>
</a>
</g>
</g>
<!-- Node6 -->
<g id="Node000006" class="node">
<title>Node6</title>
<g id="a_Node000006"><a xlink:title=" ">
<polygon fill="#e0e0e0" stroke="#999999" points="236,-239 129,-239 129,-220 236,-220 236,-239"/>
<text text-anchor="middle" x="182.5" y="-227" font-family="Helvetica,sans-Serif" font-size="10.00">l4/sys/__kip&#45;arch.h</text>
</a>
</g>
</g>
<!-- Node2&#45;&gt;Node6 -->
<g id="edge5_Node000002_Node000006" class="edge">
<title>Node2&#45;&gt;Node6</title>
<g id="a_edge5_Node000002_Node000006"><a xlink:title=" ">
<path fill="none" stroke="#63b8ff" d="M289.1,-274.98C268.48,-266.38 236.39,-252.99 212.81,-243.15"/>
<polygon fill="#63b8ff" stroke="#63b8ff" points="213.85,-239.79 203.28,-239.17 211.16,-246.25 213.85,-239.79"/>
</a>
</g>
</g>
<!-- Node7 -->
<g id="Node000007" class="node">
<title>Node7</title>
<g id="a_Node000007"><a xlink:href="____kip-64bit_8h_source.html" target="_top" xlink:title=" ">
<polygon fill="white" stroke="#666666" points="365,-239 254,-239 254,-220 365,-220 365,-239"/>
<text text-anchor="middle" x="309.5" y="-227" font-family="Helvetica,sans-Serif" font-size="10.00">l4/sys/__kip&#45;64bit.h</text>
</a>
</g>
</g>
<!-- Node2&#45;&gt;Node7 -->
<g id="edge6_Node000002_Node000007" class="edge">
<title>Node2&#45;&gt;Node7</title>
<g id="a_edge6_Node000002_Node000007"><a xlink:title=" ">
<path fill="none" stroke="#63b8ff" d="M309.5,-274.75C309.5,-267.8 309.5,-257.85 309.5,-249.13"/>
<polygon fill="#63b8ff" stroke="#63b8ff" points="313,-249.09 309.5,-239.09 306,-249.09 313,-249.09"/>
</a>
</g>
</g>
<!-- Node4 -->
<g id="Node000004" class="node">
<title>Node4</title>
<g id="a_Node000004"><a xlink:title=" ">
<polygon fill="#e0e0e0" stroke="#999999" points="397.5,-19 305.5,-19 305.5,0 397.5,0 397.5,-19"/>
<text text-anchor="middle" x="351.5" y="-7" font-family="Helvetica,sans-Serif" font-size="10.00">l4/sys/linkage.h</text>
</a>
</g>
</g>
<!-- Node3&#45;&gt;Node4 -->
<g id="edge3_Node000003_Node000004" class="edge">
<title>Node3&#45;&gt;Node4</title>
<g id="a_edge3_Node000003_Node000004"><a xlink:title=" ">
<path fill="none" stroke="#63b8ff" d="M351.5,-54.75C351.5,-47.8 351.5,-37.85 351.5,-29.13"/>
<polygon fill="#63b8ff" stroke="#63b8ff" points="355,-29.09 351.5,-19.09 348,-29.09 355,-29.09"/>
</a>
</g>
</g>
<!-- Node8 -->
<g id="Node000008" class="node">
<title>Node8</title>
<g id="a_Node000008"><a xlink:href="l4_2sys_2types_8h.html" target="_top" xlink:title="Common L4 ABI Data Types.">
<polygon fill="white" stroke="#666666" points="274.5,-184 190.5,-184 190.5,-165 274.5,-165 274.5,-184"/>
<text text-anchor="middle" x="232.5" y="-172" font-family="Helvetica,sans-Serif" font-size="10.00">l4/sys/types.h</text>
</a>
</g>
</g>
<!-- Node7&#45;&gt;Node8 -->
<g id="edge7_Node000007_Node000008" class="edge">
<title>Node7&#45;&gt;Node8</title>
<g id="a_edge7_Node000007_Node000008"><a xlink:title=" ">
<path fill="none" stroke="#63b8ff" d="M297.13,-219.98C285.41,-211.92 267.58,-199.65 253.61,-190.03"/>
<polygon fill="#63b8ff" stroke="#63b8ff" points="255.32,-186.96 245.1,-184.17 251.35,-192.72 255.32,-186.96"/>
</a>
</g>
</g>
<!-- Node8&#45;&gt;Node3 -->
<g id="edge9_Node000008_Node000003" class="edge">
<title>Node8&#45;&gt;Node3</title>
<g id="a_edge9_Node000008_Node000003"><a xlink:title=" ">
<path fill="none" stroke="#63b8ff" d="M239,-164.67C248.72,-151.81 267.98,-127.55 287.5,-110 300.13,-98.64 315.77,-87.72 328.42,-79.54"/>
<polygon fill="#63b8ff" stroke="#63b8ff" points="330.44,-82.41 337.02,-74.1 326.7,-76.49 330.44,-82.41"/>
</a>
</g>
</g>
<!-- Node8&#45;&gt;Node5 -->
<g id="edge8_Node000008_Node000005" class="edge">
<title>Node8&#45;&gt;Node5</title>
<g id="a_edge8_Node000008_Node000005"><a xlink:title=" ">
<path fill="none" stroke="#63b8ff" d="M190.28,-170.91C133.96,-166.48 38.86,-155.23 17.5,-129 6.5,-115.49 15.81,-96.14 25.49,-82.36"/>
<polygon fill="#63b8ff" stroke="#63b8ff" points="28.41,-84.3 31.69,-74.22 22.84,-80.06 28.41,-84.3"/>
</a>
</g>
</g>
<!-- Node9 -->
<g id="Node000009" class="node">
<title>Node9</title>
<g id="a_Node000009"><a xlink:href="l4_2sys_2consts_8h.html" target="_top" xlink:title="Common constants.">
<polygon fill="white" stroke="#666666" points="240,-129 151,-129 151,-110 240,-110 240,-129"/>
<text text-anchor="middle" x="195.5" y="-117" font-family="Helvetica,sans-Serif" font-size="10.00">l4/sys/consts.h</text>
</a>
</g>
</g>
<!-- Node8&#45;&gt;Node9 -->
<g id="edge10_Node000008_Node000009" class="edge">
<title>Node8&#45;&gt;Node9</title>
<g id="a_edge10_Node000008_Node000009"><a xlink:title=" ">
<path fill="none" stroke="#63b8ff" d="M226.39,-164.75C221.22,-157.34 213.65,-146.5 207.31,-137.41"/>
<polygon fill="#63b8ff" stroke="#63b8ff" points="210.09,-135.29 201.5,-129.09 204.35,-139.29 210.09,-135.29"/>
</a>
</g>
</g>
<!-- Node10 -->
<g id="Node000010" class="node">
<title>Node10</title>
<g id="a_Node000010"><a xlink:href="____l4__fpage_8h_source.html" target="_top" xlink:title=" ">
<polygon fill="white" stroke="#666666" points="406.5,-129 296.5,-129 296.5,-110 406.5,-110 406.5,-129"/>
<text text-anchor="middle" x="351.5" y="-117" font-family="Helvetica,sans-Serif" font-size="10.00">l4/sys/__l4_fpage.h</text>
</a>
</g>
</g>
<!-- Node8&#45;&gt;Node10 -->
<g id="edge13_Node000008_Node000010" class="edge">
<title>Node8&#45;&gt;Node10</title>
<g id="a_edge13_Node000008_Node000010"><a xlink:title=" ">
<path fill="none" stroke="#63b8ff" d="M251.62,-164.98C270.85,-156.42 300.73,-143.11 322.81,-133.28"/>
<polygon fill="#63b8ff" stroke="#63b8ff" points="324.32,-136.44 332.03,-129.17 321.47,-130.04 324.32,-136.44"/>
</a>
</g>
</g>
<!-- Node11 -->
<g id="Node000011" class="node">
<title>Node11</title>
<g id="a_Node000011"><a xlink:href="____timeout_8h_source.html" target="_top" xlink:title=" ">
<polygon fill="white" stroke="#666666" points="132.5,-129 26.5,-129 26.5,-110 132.5,-110 132.5,-129"/>
<text text-anchor="middle" x="79.5" y="-117" font-family="Helvetica,sans-Serif" font-size="10.00">l4/sys/__timeout.h</text>
</a>
</g>
</g>
<!-- Node8&#45;&gt;Node11 -->
<g id="edge15_Node000008_Node000011" class="edge">
<title>Node8&#45;&gt;Node11</title>
<g id="a_edge15_Node000008_Node000011"><a xlink:title=" ">
<path fill="none" stroke="#63b8ff" d="M207.92,-164.98C182.45,-156.16 142.46,-142.31 113.87,-132.41"/>
<polygon fill="#63b8ff" stroke="#63b8ff" points="114.87,-129.05 104.27,-129.08 112.58,-135.66 114.87,-129.05"/>
</a>
</g>
</g>
<!-- Node9&#45;&gt;Node3 -->
<g id="edge11_Node000009_Node000003" class="edge">
<title>Node9&#45;&gt;Node3</title>
<g id="a_edge11_Node000009_Node000003"><a xlink:title=" ">
<path fill="none" stroke="#63b8ff" d="M220.56,-109.98C246.53,-101.16 287.31,-87.31 316.46,-77.41"/>
<polygon fill="#63b8ff" stroke="#63b8ff" points="317.9,-80.61 326.24,-74.08 315.65,-73.99 317.9,-80.61"/>
</a>
</g>
</g>
<!-- Node9&#45;&gt;Node5 -->
<g id="edge12_Node000009_Node000005" class="edge">
<title>Node9&#45;&gt;Node5</title>
<g id="a_edge12_Node000009_Node000005"><a xlink:title=" ">
<path fill="none" stroke="#63b8ff" d="M170.44,-109.98C144.47,-101.16 103.69,-87.31 74.54,-77.41"/>
<polygon fill="#63b8ff" stroke="#63b8ff" points="75.35,-73.99 64.76,-74.08 73.1,-80.61 75.35,-73.99"/>
</a>
</g>
</g>
<!-- Node10&#45;&gt;Node3 -->
<g id="edge14_Node000010_Node000003" class="edge">
<title>Node10&#45;&gt;Node3</title>
<g id="a_edge14_Node000010_Node000003"><a xlink:title=" ">
<path fill="none" stroke="#63b8ff" d="M351.5,-109.75C351.5,-102.8 351.5,-92.85 351.5,-84.13"/>
<polygon fill="#63b8ff" stroke="#63b8ff" points="355,-84.09 351.5,-74.09 348,-84.09 355,-84.09"/>
</a>
</g>
</g>
<!-- Node11&#45;&gt;Node5 -->
<g id="edge16_Node000011_Node000005" class="edge">
<title>Node11&#45;&gt;Node5</title>
<g id="a_edge16_Node000011_Node000005"><a xlink:title=" ">
<path fill="none" stroke="#63b8ff" d="M72.89,-109.75C67.24,-102.26 58.96,-91.28 52.05,-82.13"/>
<polygon fill="#63b8ff" stroke="#63b8ff" points="54.8,-79.96 45.98,-74.09 49.21,-84.18 54.8,-79.96"/>
</a>
</g>
</g>
</g>
</svg>
