<?xml version="1.0" encoding="UTF-8" standalone="no"?>
<!DOCTYPE svg PUBLIC "-//W3C//DTD SVG 1.1//EN"
 "http://www.w3.org/Graphics/SVG/1.1/DTD/svg11.dtd">
<!-- Generated by graphviz version 2.42.4 (0)
 -->
<!-- Title: l4/re/util/cap_alloc Pages: 1 -->
<svg width="1030pt" height="280pt"
 viewBox="0.00 0.00 1030.00 280.00" xmlns="http://www.w3.org/2000/svg" xmlns:xlink="http://www.w3.org/1999/xlink">
<g id="graph0" class="graph" transform="scale(1 1) rotate(0) translate(4 276)">
<title>l4/re/util/cap_alloc</title>
<!-- Node1 -->
<g id="Node000001" class="node">
<title>Node1</title>
<g id="a_Node000001"><a xlink:title="Capability allocator.">
<polygon fill="#999999" stroke="#666666" points="513,-272 407,-272 407,-253 513,-253 513,-272"/>
<text text-anchor="middle" x="460" y="-260" font-family="Helvetica,sans-Serif" font-size="10.00">l4/re/util/cap_alloc</text>
</a>
</g>
</g>
<!-- Node2 -->
<g id="Node000002" class="node">
<title>Node2</title>
<g id="a_Node000002"><a xlink:href="server_2l4virtio_source.html" target="_top" xlink:title=" ">
<polygon fill="white" stroke="#666666" points="186.5,-162 89.5,-162 89.5,-132 186.5,-132 186.5,-162"/>
<text text-anchor="start" x="97.5" y="-150" font-family="Helvetica,sans-Serif" font-size="10.00">l4/l4virtio/server</text>
<text text-anchor="middle" x="138" y="-139" font-family="Helvetica,sans-Serif" font-size="10.00">/l4virtio</text>
</a>
</g>
</g>
<!-- Node1&#45;&gt;Node2 -->
<g id="edge1_Node000001_Node000002" class="edge">
<title>Node1&#45;&gt;Node2</title>
<g id="a_edge1_Node000001_Node000002"><a xlink:title=" ">
<path fill="none" stroke="#63b8ff" d="M401.1,-250.95C364.24,-243.46 316.11,-232.07 275,-217 233.74,-201.88 188.76,-177.59 161.99,-162.23"/>
<polygon fill="#63b8ff" stroke="#63b8ff" points="400.69,-254.43 411.19,-252.95 402.06,-247.57 400.69,-254.43"/>
</a>
</g>
</g>
<!-- Node7 -->
<g id="Node000007" class="node">
<title>Node7</title>
<g id="a_Node000007"><a xlink:href="br__manager_source.html" target="_top" xlink:title=" ">
<polygon fill="white" stroke="#666666" points="607.5,-217 488.5,-217 488.5,-198 607.5,-198 607.5,-217"/>
<text text-anchor="middle" x="548" y="-205" font-family="Helvetica,sans-Serif" font-size="10.00">l4/re/util/br_manager</text>
</a>
</g>
</g>
<!-- Node1&#45;&gt;Node7 -->
<g id="edge7_Node000001_Node000007" class="edge">
<title>Node1&#45;&gt;Node7</title>
<g id="a_edge7_Node000001_Node000007"><a xlink:title=" ">
<path fill="none" stroke="#63b8ff" d="M482.92,-247.7C498.95,-238.04 519.87,-225.44 533.6,-217.17"/>
<polygon fill="#63b8ff" stroke="#63b8ff" points="480.9,-244.83 474.14,-252.98 484.51,-250.82 480.9,-244.83"/>
</a>
</g>
</g>
<!-- Node8 -->
<g id="Node000008" class="node">
<title>Node8</title>
<g id="a_Node000008"><a xlink:href="env__ns_source.html" target="_top" xlink:title=" ">
<polygon fill="white" stroke="#666666" points="725.5,-217 630.5,-217 630.5,-198 725.5,-198 725.5,-217"/>
<text text-anchor="middle" x="678" y="-205" font-family="Helvetica,sans-Serif" font-size="10.00">l4/re/util/env_ns</text>
</a>
</g>
</g>
<!-- Node1&#45;&gt;Node8 -->
<g id="edge8_Node000001_Node000008" class="edge">
<title>Node1&#45;&gt;Node8</title>
<g id="a_edge8_Node000001_Node000008"><a xlink:title=" ">
<path fill="none" stroke="#63b8ff" d="M504.98,-250.56C545.81,-240.64 605.2,-226.2 642.7,-217.08"/>
<polygon fill="#63b8ff" stroke="#63b8ff" points="503.92,-247.22 495.03,-252.98 505.57,-254.02 503.92,-247.22"/>
</a>
</g>
</g>
<!-- Node10 -->
<g id="Node000010" class="node">
<title>Node10</title>
<g id="a_Node000010"><a xlink:href="goos__fb_source.html" target="_top" xlink:title=" ">
<polygon fill="white" stroke="#666666" points="878,-156.5 750,-156.5 750,-137.5 878,-137.5 878,-156.5"/>
<text text-anchor="middle" x="814" y="-144.5" font-family="Helvetica,sans-Serif" font-size="10.00">l4/re/util/video/goos_fb</text>
</a>
</g>
</g>
<!-- Node1&#45;&gt;Node10 -->
<g id="edge31_Node000001_Node000010" class="edge">
<title>Node1&#45;&gt;Node10</title>
<g id="a_edge31_Node000001_Node000010"><a xlink:title=" ">
<path fill="none" stroke="#63b8ff" d="M523.27,-260.9C580.72,-258.16 666.53,-248.46 734,-217 765.25,-202.43 793.75,-172.05 806.68,-156.93"/>
<polygon fill="#63b8ff" stroke="#63b8ff" points="523.08,-257.4 513.24,-261.32 523.37,-264.4 523.08,-257.4"/>
</a>
</g>
</g>
<!-- Node11 -->
<g id="Node000011" class="node">
<title>Node11</title>
<g id="a_Node000011"><a xlink:href="util_2event.html" target="_top" xlink:title=" ">
<polygon fill="white" stroke="#666666" points="293,-156.5 205,-156.5 205,-137.5 293,-137.5 293,-156.5"/>
<text text-anchor="middle" x="249" y="-144.5" font-family="Helvetica,sans-Serif" font-size="10.00">l4/re/util/event</text>
</a>
</g>
</g>
<!-- Node1&#45;&gt;Node11 -->
<g id="edge12_Node000001_Node000011" class="edge">
<title>Node1&#45;&gt;Node11</title>
<g id="a_edge12_Node000001_Node000011"><a xlink:title=" ">
<path fill="none" stroke="#63b8ff" d="M396.89,-254.1C365.32,-248.03 327.81,-236.99 299,-217 276.15,-201.14 259.9,-171.36 252.87,-156.66"/>
<polygon fill="#63b8ff" stroke="#63b8ff" points="396.45,-257.58 406.91,-255.91 397.69,-250.69 396.45,-257.58"/>
</a>
</g>
</g>
<!-- Node12 -->
<g id="Node000012" class="node">
<title>Node12</title>
<g id="a_Node000012"><a xlink:href="icu__svr_source.html" target="_top" xlink:title=" ">
<polygon fill="white" stroke="#666666" points="961.5,-217 866.5,-217 866.5,-198 961.5,-198 961.5,-217"/>
<text text-anchor="middle" x="914" y="-205" font-family="Helvetica,sans-Serif" font-size="10.00">l4/re/util/icu_svr</text>
</a>
</g>
</g>
<!-- Node1&#45;&gt;Node12 -->
<g id="edge13_Node000001_Node000012" class="edge">
<title>Node1&#45;&gt;Node12</title>
<g id="a_edge13_Node000001_Node000012"><a xlink:title=" ">
<path fill="none" stroke="#63b8ff" d="M523.43,-254.09C615.48,-243.35 784.02,-223.67 866.29,-214.07"/>
<polygon fill="#63b8ff" stroke="#63b8ff" points="522.94,-250.63 513.41,-255.26 523.75,-257.58 522.94,-250.63"/>
</a>
</g>
</g>
<!-- Node14 -->
<g id="Node000014" class="node">
<title>Node14</title>
<g id="a_Node000014"><a xlink:href="object__registry_source.html" target="_top" xlink:title=" ">
<polygon fill="white" stroke="#666666" points="558.5,-156.5 425.5,-156.5 425.5,-137.5 558.5,-137.5 558.5,-156.5"/>
<text text-anchor="middle" x="492" y="-144.5" font-family="Helvetica,sans-Serif" font-size="10.00">l4/re/util/object_registry</text>
</a>
</g>
</g>
<!-- Node1&#45;&gt;Node14 -->
<g id="edge15_Node000001_Node000014" class="edge">
<title>Node1&#45;&gt;Node14</title>
<g id="a_edge15_Node000001_Node000014"><a xlink:title=" ">
<path fill="none" stroke="#63b8ff" d="M465.12,-243.32C472.12,-218.52 484.38,-175.04 489.57,-156.63"/>
<polygon fill="#63b8ff" stroke="#63b8ff" points="461.75,-242.39 462.41,-252.97 468.49,-244.29 461.75,-242.39"/>
</a>
</g>
</g>
<!-- Node18 -->
<g id="Node000018" class="node">
<title>Node18</title>
<g id="a_Node000018"><a xlink:href="util_2shared__cap.html" target="_top" xlink:title="Shared_cap / Shared_del_cap.">
<polygon fill="white" stroke="#666666" points="205,-217 89,-217 89,-198 205,-198 205,-217"/>
<text text-anchor="middle" x="147" y="-205" font-family="Helvetica,sans-Serif" font-size="10.00">l4/re/util/shared_cap</text>
</a>
</g>
</g>
<!-- Node1&#45;&gt;Node18 -->
<g id="edge21_Node000001_Node000018" class="edge">
<title>Node1&#45;&gt;Node18</title>
<g id="a_edge21_Node000001_Node000018"><a xlink:title=" ">
<path fill="none" stroke="#63b8ff" d="M399.82,-251.31C341.04,-241.36 252.61,-226.38 197.42,-217.04"/>
<polygon fill="#63b8ff" stroke="#63b8ff" points="399.27,-254.77 409.71,-252.98 400.44,-247.86 399.27,-254.77"/>
</a>
</g>
</g>
<!-- Node19 -->
<g id="Node000019" class="node">
<title>Node19</title>
<g id="a_Node000019"><a xlink:href="util_2unique__cap.html" target="_top" xlink:title="Unique_cap / Unique_del_cap.">
<polygon fill="white" stroke="#666666" points="424,-217 308,-217 308,-198 424,-198 424,-217"/>
<text text-anchor="middle" x="366" y="-205" font-family="Helvetica,sans-Serif" font-size="10.00">l4/re/util/unique_cap</text>
</a>
</g>
</g>
<!-- Node1&#45;&gt;Node19 -->
<g id="edge23_Node000001_Node000019" class="edge">
<title>Node1&#45;&gt;Node19</title>
<g id="a_edge23_Node000001_Node000019"><a xlink:title=" ">
<path fill="none" stroke="#63b8ff" d="M436,-247.97C418.81,-238.28 396.19,-225.52 381.38,-217.17"/>
<polygon fill="#63b8ff" stroke="#63b8ff" points="434.47,-251.12 444.9,-252.98 437.91,-245.02 434.47,-251.12"/>
</a>
</g>
</g>
<!-- Node3 -->
<g id="Node000003" class="node">
<title>Node3</title>
<g id="a_Node000003"><a xlink:href="server_2virtio-block_source.html" target="_top" xlink:title=" ">
<polygon fill="white" stroke="#666666" points="262.5,-96 165.5,-96 165.5,-66 262.5,-66 262.5,-96"/>
<text text-anchor="start" x="173.5" y="-84" font-family="Helvetica,sans-Serif" font-size="10.00">l4/l4virtio/server</text>
<text text-anchor="middle" x="214" y="-73" font-family="Helvetica,sans-Serif" font-size="10.00">/virtio&#45;block</text>
</a>
</g>
</g>
<!-- Node2&#45;&gt;Node3 -->
<g id="edge2_Node000002_Node000003" class="edge">
<title>Node2&#45;&gt;Node3</title>
<g id="a_edge2_Node000002_Node000003"><a xlink:title=" ">
<path fill="none" stroke="#63b8ff" d="M162.7,-125.2C173.98,-115.7 187.05,-104.69 197.18,-96.16"/>
<polygon fill="#63b8ff" stroke="#63b8ff" points="160.26,-122.68 154.87,-131.8 164.77,-128.03 160.26,-122.68"/>
</a>
</g>
</g>
<!-- Node4 -->
<g id="Node000004" class="node">
<title>Node4</title>
<g id="a_Node000004"><a xlink:href="virtio-console_source.html" target="_top" xlink:title=" ">
<polygon fill="white" stroke="#666666" points="147.5,-96 50.5,-96 50.5,-66 147.5,-66 147.5,-96"/>
<text text-anchor="start" x="58.5" y="-84" font-family="Helvetica,sans-Serif" font-size="10.00">l4/l4virtio/server</text>
<text text-anchor="middle" x="99" y="-73" font-family="Helvetica,sans-Serif" font-size="10.00">/virtio&#45;console</text>
</a>
</g>
</g>
<!-- Node2&#45;&gt;Node4 -->
<g id="edge3_Node000002_Node000004" class="edge">
<title>Node2&#45;&gt;Node4</title>
<g id="a_edge3_Node000002_Node000004"><a xlink:title=" ">
<path fill="none" stroke="#63b8ff" d="M124.13,-123.24C118.63,-114.21 112.47,-104.11 107.63,-96.16"/>
<polygon fill="#63b8ff" stroke="#63b8ff" points="121.15,-125.08 129.34,-131.8 127.13,-121.44 121.15,-125.08"/>
</a>
</g>
</g>
<!-- Node5 -->
<g id="Node000005" class="node">
<title>Node5</title>
<g id="a_Node000005"><a xlink:href="virtio-console-device_source.html" target="_top" xlink:title=" ">
<polygon fill="white" stroke="#666666" points="122,-30 0,-30 0,0 122,0 122,-30"/>
<text text-anchor="start" x="8" y="-18" font-family="Helvetica,sans-Serif" font-size="10.00">l4/l4virtio/server</text>
<text text-anchor="middle" x="61" y="-7" font-family="Helvetica,sans-Serif" font-size="10.00">/virtio&#45;console&#45;device</text>
</a>
</g>
</g>
<!-- Node2&#45;&gt;Node5 -->
<g id="edge5_Node000002_Node000005" class="edge">
<title>Node2&#45;&gt;Node5</title>
<g id="a_edge5_Node000002_Node000005"><a xlink:title=" ">
<path fill="none" stroke="#63b8ff" d="M79.87,-128.63C64.59,-121.12 49.9,-110.6 41,-96 28.41,-75.34 41.16,-47.09 51.28,-30.28"/>
<polygon fill="#63b8ff" stroke="#63b8ff" points="78.86,-132.01 89.41,-132.92 81.73,-125.62 78.86,-132.01"/>
</a>
</g>
</g>
<!-- Node6 -->
<g id="Node000006" class="node">
<title>Node6</title>
<g id="a_Node000006"><a xlink:href="virtio-scmi-device_source.html" target="_top" xlink:title=" ">
<polygon fill="white" stroke="#666666" points="427,-96 319,-96 319,-66 427,-66 427,-96"/>
<text text-anchor="start" x="327" y="-84" font-family="Helvetica,sans-Serif" font-size="10.00">l4/l4virtio/server</text>
<text text-anchor="middle" x="373" y="-73" font-family="Helvetica,sans-Serif" font-size="10.00">/virtio&#45;scmi&#45;device</text>
</a>
</g>
</g>
<!-- Node2&#45;&gt;Node6 -->
<g id="edge6_Node000002_Node000006" class="edge">
<title>Node2&#45;&gt;Node6</title>
<g id="a_edge6_Node000002_Node000006"><a xlink:title=" ">
<path fill="none" stroke="#63b8ff" d="M196.69,-130.02C235.06,-119.57 284.69,-106.05 321.52,-96.02"/>
<polygon fill="#63b8ff" stroke="#63b8ff" points="195.42,-126.73 186.69,-132.74 197.26,-133.49 195.42,-126.73"/>
</a>
</g>
</g>
<!-- Node4&#45;&gt;Node5 -->
<g id="edge4_Node000004_Node000005" class="edge">
<title>Node4&#45;&gt;Node5</title>
<g id="a_edge4_Node000004_Node000005"><a xlink:title=" ">
<path fill="none" stroke="#63b8ff" d="M85.32,-56.96C80,-48 74.08,-38.03 69.41,-30.16"/>
<polygon fill="#63b8ff" stroke="#63b8ff" points="82.45,-58.98 90.57,-65.8 88.47,-55.41 82.45,-58.98"/>
</a>
</g>
</g>
<!-- Node9 -->
<g id="Node000009" class="node">
<title>Node9</title>
<g id="a_Node000009"><a xlink:href="ns__fs__impl_8h_source.html" target="_top" xlink:title=" ">
<polygon fill="white" stroke="#666666" points="731.5,-162 624.5,-162 624.5,-132 731.5,-132 731.5,-162"/>
<text text-anchor="start" x="632.5" y="-150" font-family="Helvetica,sans-Serif" font-size="10.00">l4/l4re_vfs/impl/ns</text>
<text text-anchor="middle" x="678" y="-139" font-family="Helvetica,sans-Serif" font-size="10.00">_fs_impl.h</text>
</a>
</g>
</g>
<!-- Node8&#45;&gt;Node9 -->
<g id="edge9_Node000008_Node000009" class="edge">
<title>Node8&#45;&gt;Node9</title>
<g id="a_edge9_Node000008_Node000009"><a xlink:title=" ">
<path fill="none" stroke="#63b8ff" d="M678,-187.65C678,-179.36 678,-169.78 678,-162.11"/>
<polygon fill="#63b8ff" stroke="#63b8ff" points="674.5,-187.87 678,-197.87 681.5,-187.87 674.5,-187.87"/>
</a>
</g>
</g>
<!-- Node8&#45;&gt;Node10 -->
<g id="edge10_Node000008_Node000010" class="edge">
<title>Node8&#45;&gt;Node10</title>
<g id="a_edge10_Node000008_Node000010"><a xlink:title=" ">
<path fill="none" stroke="#63b8ff" d="M707.22,-193.93C733.48,-182.64 771.33,-166.36 794.2,-156.52"/>
<polygon fill="#63b8ff" stroke="#63b8ff" points="705.58,-190.83 697.78,-197.99 708.34,-197.26 705.58,-190.83"/>
</a>
</g>
</g>
<!-- Node10&#45;&gt;Node10 -->
<g id="edge11_Node000010_Node000010" class="edge">
<title>Node10&#45;&gt;Node10</title>
<g id="a_edge11_Node000010_Node000010"><a xlink:title=" ">
<path fill="none" stroke="#63b8ff" d="M854.35,-157.77C876.12,-159.64 896,-156.04 896,-147 896,-136.57 869.57,-133.39 844.28,-137.47"/>
<polygon fill="#63b8ff" stroke="#63b8ff" points="854.63,-154.28 844.28,-156.53 853.78,-161.23 854.63,-154.28"/>
</a>
</g>
</g>
<!-- Node13 -->
<g id="Node000013" class="node">
<title>Node13</title>
<g id="a_Node000013"><a xlink:href="event__svr_source.html" target="_top" xlink:title=" ">
<polygon fill="white" stroke="#666666" points="1022,-156.5 914,-156.5 914,-137.5 1022,-137.5 1022,-156.5"/>
<text text-anchor="middle" x="968" y="-144.5" font-family="Helvetica,sans-Serif" font-size="10.00">l4/re/util/event_svr</text>
</a>
</g>
</g>
<!-- Node12&#45;&gt;Node13 -->
<g id="edge14_Node000012_Node000013" class="edge">
<title>Node12&#45;&gt;Node13</title>
<g id="a_edge14_Node000012_Node000013"><a xlink:title=" ">
<path fill="none" stroke="#63b8ff" d="M928.98,-190.27C939.02,-179.39 951.85,-165.49 960,-156.67"/>
<polygon fill="#63b8ff" stroke="#63b8ff" points="926.18,-188.15 921.97,-197.87 931.32,-192.89 926.18,-188.15"/>
</a>
</g>
</g>
<!-- Node14&#45;&gt;Node6 -->
<g id="edge20_Node000014_Node000006" class="edge">
<title>Node14&#45;&gt;Node6</title>
<g id="a_edge20_Node000014_Node000006"><a xlink:title=" ">
<path fill="none" stroke="#63b8ff" d="M466.89,-132.5C447.04,-121.82 419.39,-106.95 399.25,-96.12"/>
<polygon fill="#63b8ff" stroke="#63b8ff" points="465.49,-135.71 475.95,-137.37 468.8,-129.55 465.49,-135.71"/>
</a>
</g>
</g>
<!-- Node15 -->
<g id="Node000015" class="node">
<title>Node15</title>
<g id="a_Node000015"><a xlink:href="client_2l4virtio_source.html" target="_top" xlink:title=" ">
<polygon fill="white" stroke="#666666" points="538.5,-96 445.5,-96 445.5,-66 538.5,-66 538.5,-96"/>
<text text-anchor="start" x="453.5" y="-84" font-family="Helvetica,sans-Serif" font-size="10.00">l4/l4virtio/client</text>
<text text-anchor="middle" x="492" y="-73" font-family="Helvetica,sans-Serif" font-size="10.00">/l4virtio</text>
</a>
</g>
</g>
<!-- Node14&#45;&gt;Node15 -->
<g id="edge16_Node000014_Node000015" class="edge">
<title>Node14&#45;&gt;Node15</title>
<g id="a_edge16_Node000014_Node000015"><a xlink:title=" ">
<path fill="none" stroke="#63b8ff" d="M492,-127.35C492,-117.47 492,-105.51 492,-96.36"/>
<polygon fill="#63b8ff" stroke="#63b8ff" points="488.5,-127.37 492,-137.37 495.5,-127.37 488.5,-127.37"/>
</a>
</g>
</g>
<!-- Node16 -->
<g id="Node000016" class="node">
<title>Node16</title>
<g id="a_Node000016"><a xlink:href="client_2virtio-block_source.html" target="_top" xlink:title=" ">
<polygon fill="white" stroke="#666666" points="613.5,-30 520.5,-30 520.5,0 613.5,0 613.5,-30"/>
<text text-anchor="start" x="528.5" y="-18" font-family="Helvetica,sans-Serif" font-size="10.00">l4/l4virtio/client</text>
<text text-anchor="middle" x="567" y="-7" font-family="Helvetica,sans-Serif" font-size="10.00">/virtio&#45;block</text>
</a>
</g>
</g>
<!-- Node14&#45;&gt;Node16 -->
<g id="edge19_Node000014_Node000016" class="edge">
<title>Node14&#45;&gt;Node16</title>
<g id="a_edge19_Node000014_Node000016"><a xlink:title=" ">
<path fill="none" stroke="#63b8ff" d="M513.71,-131.19C525.22,-122.27 538.66,-109.94 547,-96 559.42,-75.24 564.16,-47.02 565.94,-30.24"/>
<polygon fill="#63b8ff" stroke="#63b8ff" points="511.37,-128.57 505.41,-137.32 515.53,-134.2 511.37,-128.57"/>
</a>
</g>
</g>
<!-- Node15&#45;&gt;Node16 -->
<g id="edge17_Node000015_Node000016" class="edge">
<title>Node15&#45;&gt;Node16</title>
<g id="a_edge17_Node000015_Node000016"><a xlink:title=" ">
<path fill="none" stroke="#63b8ff" d="M516.37,-59.2C527.51,-49.7 540.41,-38.69 550.4,-30.16"/>
<polygon fill="#63b8ff" stroke="#63b8ff" points="513.98,-56.64 508.64,-65.8 518.52,-61.97 513.98,-56.64"/>
</a>
</g>
</g>
<!-- Node17 -->
<g id="Node000017" class="node">
<title>Node17</title>
<g id="a_Node000017"><a xlink:href="virtio-net_source.html" target="_top" xlink:title=" ">
<polygon fill="white" stroke="#666666" points="419.5,-30 326.5,-30 326.5,0 419.5,0 419.5,-30"/>
<text text-anchor="start" x="334.5" y="-18" font-family="Helvetica,sans-Serif" font-size="10.00">l4/l4virtio/client</text>
<text text-anchor="middle" x="373" y="-7" font-family="Helvetica,sans-Serif" font-size="10.00">/virtio&#45;net</text>
</a>
</g>
</g>
<!-- Node15&#45;&gt;Node17 -->
<g id="edge18_Node000015_Node000017" class="edge">
<title>Node15&#45;&gt;Node17</title>
<g id="a_edge18_Node000015_Node000017"><a xlink:title=" ">
<path fill="none" stroke="#63b8ff" d="M456.87,-61.11C438.35,-51.14 416.01,-39.13 399.05,-30.01"/>
<polygon fill="#63b8ff" stroke="#63b8ff" points="455.42,-64.3 465.88,-65.95 458.74,-58.14 455.42,-64.3"/>
</a>
</g>
</g>
<!-- Node18&#45;&gt;Node2 -->
<g id="edge22_Node000018_Node000002" class="edge">
<title>Node18&#45;&gt;Node2</title>
<g id="a_edge22_Node000018_Node000002"><a xlink:title=" ">
<path fill="none" stroke="#63b8ff" d="M144.14,-187.93C142.86,-179.58 141.36,-169.87 140.17,-162.11"/>
<polygon fill="#63b8ff" stroke="#63b8ff" points="140.69,-188.52 145.67,-197.87 147.61,-187.45 140.69,-188.52"/>
</a>
</g>
</g>
<!-- Node19&#45;&gt;Node2 -->
<g id="edge27_Node000019_Node000002" class="edge">
<title>Node19&#45;&gt;Node2</title>
<g id="a_edge27_Node000019_Node000002"><a xlink:title=" ">
<path fill="none" stroke="#63b8ff" d="M322.91,-195.44C284.13,-185.49 227.18,-170.88 186.75,-160.51"/>
<polygon fill="#63b8ff" stroke="#63b8ff" points="322.29,-198.9 332.85,-197.99 324.03,-192.12 322.29,-198.9"/>
</a>
</g>
</g>
<!-- Node19&#45;&gt;Node3 -->
<g id="edge28_Node000019_Node000003" class="edge">
<title>Node19&#45;&gt;Node3</title>
<g id="a_edge28_Node000019_Node000003"><a xlink:title=" ">
<path fill="none" stroke="#63b8ff" d="M354,-189.38C342.09,-173.23 322.69,-149.03 302,-132 284.5,-117.59 262.29,-105.01 244.56,-96.07"/>
<polygon fill="#63b8ff" stroke="#63b8ff" points="351.41,-191.77 360.09,-197.84 357.09,-187.68 351.41,-191.77"/>
</a>
</g>
</g>
<!-- Node19&#45;&gt;Node11 -->
<g id="edge29_Node000019_Node000011" class="edge">
<title>Node19&#45;&gt;Node11</title>
<g id="a_edge29_Node000019_Node000011"><a xlink:title=" ">
<path fill="none" stroke="#63b8ff" d="M339.96,-193.48C317.42,-182.21 285.45,-166.23 266.03,-156.52"/>
<polygon fill="#63b8ff" stroke="#63b8ff" points="338.48,-196.65 348.99,-197.99 341.61,-190.39 338.48,-196.65"/>
</a>
</g>
</g>
<!-- Node19&#45;&gt;Node14 -->
<g id="edge30_Node000019_Node000014" class="edge">
<title>Node19&#45;&gt;Node14</title>
<g id="a_edge30_Node000019_Node000014"><a xlink:title=" ">
<path fill="none" stroke="#63b8ff" d="M393.71,-193.63C418.01,-182.35 452.65,-166.27 473.66,-156.52"/>
<polygon fill="#63b8ff" stroke="#63b8ff" points="391.92,-190.61 384.32,-197.99 394.87,-196.96 391.92,-190.61"/>
</a>
</g>
</g>
<!-- Node19&#45;&gt;Node15 -->
<g id="edge24_Node000019_Node000015" class="edge">
<title>Node19&#45;&gt;Node15</title>
<g id="a_edge24_Node000019_Node000015"><a xlink:title=" ">
<path fill="none" stroke="#63b8ff" d="M375.08,-189.01C384.01,-172.93 398.77,-149.07 416,-132 430.47,-117.66 449.66,-105.08 465.13,-96.12"/>
<polygon fill="#63b8ff" stroke="#63b8ff" points="371.96,-187.42 370.31,-197.89 378.13,-190.74 371.96,-187.42"/>
</a>
</g>
</g>
<!-- Node19&#45;&gt;Node16 -->
<g id="edge25_Node000019_Node000016" class="edge">
<title>Node19&#45;&gt;Node16</title>
<g id="a_edge25_Node000019_Node000016"><a xlink:title=" ">
<path fill="none" stroke="#63b8ff" d="M434.33,-200.35C485.81,-194.15 550.3,-182.48 567,-162 598.23,-123.69 581.89,-59.03 572.32,-30.39"/>
<polygon fill="#63b8ff" stroke="#63b8ff" points="433.75,-196.9 424.22,-201.52 434.56,-203.85 433.75,-196.9"/>
</a>
</g>
</g>
<!-- Node19&#45;&gt;Node17 -->
<g id="edge26_Node000019_Node000017" class="edge">
<title>Node19&#45;&gt;Node17</title>
<g id="a_edge26_Node000019_Node000017"><a xlink:title=" ">
<path fill="none" stroke="#63b8ff" d="M358.03,-188.37C351.2,-173.14 340.93,-150.91 331,-132 322.39,-115.6 314.83,-113.88 310,-96 306.52,-83.13 304.2,-78.01 310,-66 317.41,-50.66 332.06,-38.59 345.38,-30.15"/>
<polygon fill="#63b8ff" stroke="#63b8ff" points="354.9,-189.94 362.15,-197.66 361.29,-187.1 354.9,-189.94"/>
</a>
</g>
</g>
</g>
</svg>
