<?xml version="1.0" encoding="UTF-8" standalone="no"?>
<!DOCTYPE svg PUBLIC "-//W3C//DTD SVG 1.1//EN"
 "http://www.w3.org/Graphics/SVG/1.1/DTD/svg11.dtd">
<!-- Generated by graphviz version 2.42.4 (0)
 -->
<!-- Title: l4/vbus/vbus_interfaces.h Pages: 1 -->
<svg width="577pt" height="82pt"
 viewBox="0.00 0.00 576.50 82.00" xmlns="http://www.w3.org/2000/svg" xmlns:xlink="http://www.w3.org/1999/xlink">
<g id="graph0" class="graph" transform="scale(1 1) rotate(0) translate(4 78)">
<title>l4/vbus/vbus_interfaces.h</title>
<!-- Node1 -->
<g id="Node000001" class="node">
<title>Node1</title>
<g id="a_Node000001"><a xlink:title="This header contains the definition of VBUS sub&#45;interfaces and convenience functions to work with the...">
<polygon fill="#999999" stroke="#666666" points="359.5,-74 218.5,-74 218.5,-55 359.5,-55 359.5,-74"/>
<text text-anchor="middle" x="289" y="-62" font-family="Helvetica,sans-Serif" font-size="10.00">l4/vbus/vbus_interfaces.h</text>
</a>
</g>
</g>
<!-- Node2 -->
<g id="Node000002" class="node">
<title>Node2</title>
<g id="a_Node000002"><a xlink:href="vbus__gpio-ops_8h_source.html" target="_top" xlink:title=" ">
<polygon fill="white" stroke="#666666" points="134,-19 0,-19 0,0 134,0 134,-19"/>
<text text-anchor="middle" x="67" y="-7" font-family="Helvetica,sans-Serif" font-size="10.00">l4/vbus/vbus_gpio&#45;ops.h</text>
</a>
</g>
</g>
<!-- Node1&#45;&gt;Node2 -->
<g id="edge1_Node000001_Node000002" class="edge">
<title>Node1&#45;&gt;Node2</title>
<g id="a_edge1_Node000001_Node000002"><a xlink:title=" ">
<path fill="none" stroke="#63b8ff" d="M243.46,-52.63C201.87,-42.7 141.22,-28.22 102.95,-19.08"/>
<polygon fill="#63b8ff" stroke="#63b8ff" points="242.79,-56.07 253.33,-54.98 244.42,-49.26 242.79,-56.07"/>
</a>
</g>
</g>
<!-- Node3 -->
<g id="Node000003" class="node">
<title>Node3</title>
<g id="a_Node000003"><a xlink:href="vbus__pci-ops_8h_source.html" target="_top" xlink:title=" ">
<polygon fill="white" stroke="#666666" points="280,-19 152,-19 152,0 280,0 280,-19"/>
<text text-anchor="middle" x="216" y="-7" font-family="Helvetica,sans-Serif" font-size="10.00">l4/vbus/vbus_pci&#45;ops.h</text>
</a>
</g>
</g>
<!-- Node1&#45;&gt;Node3 -->
<g id="edge2_Node000001_Node000003" class="edge">
<title>Node1&#45;&gt;Node3</title>
<g id="a_edge2_Node000001_Node000003"><a xlink:title=" ">
<path fill="none" stroke="#63b8ff" d="M268.86,-48.88C255.72,-39.34 239.02,-27.21 227.94,-19.17"/>
<polygon fill="#63b8ff" stroke="#63b8ff" points="267.12,-51.94 277.27,-54.98 271.24,-46.28 267.12,-51.94"/>
</a>
</g>
</g>
<!-- Node4 -->
<g id="Node000004" class="node">
<title>Node4</title>
<g id="a_Node000004"><a xlink:href="vbus__pm-ops_8h_source.html" target="_top" xlink:title=" ">
<polygon fill="white" stroke="#666666" points="427.5,-19 298.5,-19 298.5,0 427.5,0 427.5,-19"/>
<text text-anchor="middle" x="363" y="-7" font-family="Helvetica,sans-Serif" font-size="10.00">l4/vbus/vbus_pm&#45;ops.h</text>
</a>
</g>
</g>
<!-- Node1&#45;&gt;Node4 -->
<g id="edge3_Node000001_Node000004" class="edge">
<title>Node1&#45;&gt;Node4</title>
<g id="a_edge3_Node000001_Node000004"><a xlink:title=" ">
<path fill="none" stroke="#63b8ff" d="M309.03,-49.15C322.41,-39.57 339.56,-27.29 350.89,-19.17"/>
<polygon fill="#63b8ff" stroke="#63b8ff" points="306.98,-46.32 300.89,-54.98 311.06,-52.01 306.98,-46.32"/>
</a>
</g>
</g>
<!-- Node5 -->
<g id="Node000005" class="node">
<title>Node5</title>
<g id="a_Node000005"><a xlink:href="vdevice-ops_8h_source.html" target="_top" xlink:title=" ">
<polygon fill="white" stroke="#666666" points="568.5,-19 445.5,-19 445.5,0 568.5,0 568.5,-19"/>
<text text-anchor="middle" x="507" y="-7" font-family="Helvetica,sans-Serif" font-size="10.00">l4/vbus/vdevice&#45;ops.h</text>
</a>
</g>
</g>
<!-- Node1&#45;&gt;Node5 -->
<g id="edge4_Node000001_Node000005" class="edge">
<title>Node1&#45;&gt;Node5</title>
<g id="a_edge4_Node000001_Node000005"><a xlink:title=" ">
<path fill="none" stroke="#63b8ff" d="M333.98,-52.56C374.81,-42.64 434.2,-28.2 471.7,-19.08"/>
<polygon fill="#63b8ff" stroke="#63b8ff" points="332.92,-49.22 324.03,-54.98 334.57,-56.02 332.92,-49.22"/>
</a>
</g>
</g>
</g>
</svg>
