<?xml version="1.0" encoding="UTF-8" standalone="no"?>
<!DOCTYPE svg PUBLIC "-//W3C//DTD SVG 1.1//EN"
 "http://www.w3.org/Graphics/SVG/1.1/DTD/svg11.dtd">
<!-- Generated by graphviz version 2.42.4 (0)
 -->
<!-- Title: l4/vbus/vbus_types.h Pages: 1 -->
<svg width="721pt" height="214pt"
 viewBox="0.00 0.00 720.50 214.00" xmlns="http://www.w3.org/2000/svg" xmlns:xlink="http://www.w3.org/1999/xlink">
<g id="graph0" class="graph" transform="scale(1 1) rotate(0) translate(4 210)">
<title>l4/vbus/vbus_types.h</title>
<!-- Node1 -->
<g id="Node000001" class="node">
<title>Node1</title>
<g id="a_Node000001"><a xlink:title="This header file contains descriptions of vbus related data types and constants.">
<polygon fill="#999999" stroke="#666666" points="366,-206 247,-206 247,-187 366,-187 366,-206"/>
<text text-anchor="middle" x="306.5" y="-194" font-family="Helvetica,sans-Serif" font-size="10.00">l4/vbus/vbus_types.h</text>
</a>
</g>
</g>
<!-- Node2 -->
<g id="Node000002" class="node">
<title>Node2</title>
<g id="a_Node000002"><a xlink:href="contrib_2libio-io_2l4_2io_2types_8h_source.html" target="_top" xlink:title=" ">
<polygon fill="white" stroke="#666666" points="99,-151 0,-151 0,-121 99,-121 99,-151"/>
<text text-anchor="start" x="8" y="-139" font-family="Helvetica,sans-Serif" font-size="10.00">contrib/libio&#45;io/l4</text>
<text text-anchor="middle" x="49.5" y="-128" font-family="Helvetica,sans-Serif" font-size="10.00">/io/types.h</text>
</a>
</g>
</g>
<!-- Node1&#45;&gt;Node2 -->
<g id="edge1_Node000001_Node000002" class="edge">
<title>Node1&#45;&gt;Node2</title>
<g id="a_edge1_Node000001_Node000002"><a xlink:title=" ">
<path fill="none" stroke="#63b8ff" d="M259.24,-184.74C213.84,-174.41 145.49,-158.85 99.27,-148.33"/>
<polygon fill="#63b8ff" stroke="#63b8ff" points="258.6,-188.19 269.13,-186.99 260.16,-181.36 258.6,-188.19"/>
</a>
</g>
</g>
<!-- Node4 -->
<g id="Node000004" class="node">
<title>Node4</title>
<g id="a_Node000004"><a xlink:href="vbus_8h.html" target="_top" xlink:title="Description of the vbus C API.">
<polygon fill="white" stroke="#666666" points="408,-145.5 321,-145.5 321,-126.5 408,-126.5 408,-145.5"/>
<text text-anchor="middle" x="364.5" y="-133.5" font-family="Helvetica,sans-Serif" font-size="10.00">l4/vbus/vbus.h</text>
</a>
</g>
</g>
<!-- Node1&#45;&gt;Node4 -->
<g id="edge3_Node000001_Node000004" class="edge">
<title>Node1&#45;&gt;Node4</title>
<g id="a_edge3_Node000001_Node000004"><a xlink:title=" ">
<path fill="none" stroke="#63b8ff" d="M322.27,-179.59C333.1,-168.67 347.07,-154.58 355.91,-145.67"/>
<polygon fill="#63b8ff" stroke="#63b8ff" points="319.61,-177.3 315.06,-186.87 324.58,-182.23 319.61,-177.3"/>
</a>
</g>
</g>
<!-- Node6 -->
<g id="Node000006" class="node">
<title>Node6</title>
<g id="a_Node000006"><a xlink:href="vbus__generic_source.html" target="_top" xlink:title=" ">
<polygon fill="white" stroke="#666666" points="217,-19 98,-19 98,0 217,0 217,-19"/>
<text text-anchor="middle" x="157.5" y="-7" font-family="Helvetica,sans-Serif" font-size="10.00">l4/vbus/vbus_generic</text>
</a>
</g>
</g>
<!-- Node1&#45;&gt;Node6 -->
<g id="edge8_Node000001_Node000006" class="edge">
<title>Node1&#45;&gt;Node6</title>
<g id="a_edge8_Node000001_Node000006"><a xlink:title=" ">
<path fill="none" stroke="#63b8ff" d="M241.47,-184.3C218.78,-177.72 194.5,-167.34 176.5,-151 143.4,-120.96 141.1,-99.37 146.5,-55 148.04,-42.36 151.95,-28.14 154.67,-19.25"/>
<polygon fill="#63b8ff" stroke="#63b8ff" points="240.86,-187.76 251.42,-186.98 242.67,-181 240.86,-187.76"/>
</a>
</g>
</g>
<!-- Node9 -->
<g id="Node000009" class="node">
<title>Node9</title>
<g id="a_Node000009"><a xlink:href="vbus__gpio_8h_source.html" target="_top" xlink:title=" ">
<polygon fill="white" stroke="#666666" points="269,-79.5 156,-79.5 156,-60.5 269,-60.5 269,-79.5"/>
<text text-anchor="middle" x="212.5" y="-67.5" font-family="Helvetica,sans-Serif" font-size="10.00">l4/vbus/vbus_gpio.h</text>
</a>
</g>
</g>
<!-- Node1&#45;&gt;Node9 -->
<g id="edge9_Node000001_Node000009" class="edge">
<title>Node1&#45;&gt;Node9</title>
<g id="a_edge9_Node000001_Node000009"><a xlink:title=" ">
<path fill="none" stroke="#63b8ff" d="M236.99,-185.34C217.09,-178.86 197.55,-168.27 185.5,-151 169.56,-128.16 192.16,-95.16 204.86,-79.66"/>
<polygon fill="#63b8ff" stroke="#63b8ff" points="236.17,-188.75 246.75,-188.21 238.14,-182.03 236.17,-188.75"/>
</a>
</g>
</g>
<!-- Node10 -->
<g id="Node000010" class="node">
<title>Node10</title>
<g id="a_Node000010"><a xlink:href="vbus__i2c_8h_source.html" target="_top" xlink:title=" ">
<polygon fill="white" stroke="#666666" points="572,-145.5 465,-145.5 465,-126.5 572,-126.5 572,-145.5"/>
<text text-anchor="middle" x="518.5" y="-133.5" font-family="Helvetica,sans-Serif" font-size="10.00">l4/vbus/vbus_i2c.h</text>
</a>
</g>
</g>
<!-- Node1&#45;&gt;Node10 -->
<g id="edge11_Node000001_Node000010" class="edge">
<title>Node1&#45;&gt;Node10</title>
<g id="a_edge11_Node000001_Node000010"><a xlink:title=" ">
<path fill="none" stroke="#63b8ff" d="M347,-184.32C388,-173.01 450.49,-155.77 487.64,-145.52"/>
<polygon fill="#63b8ff" stroke="#63b8ff" points="346.04,-180.96 337.33,-186.99 347.9,-187.71 346.04,-180.96"/>
</a>
</g>
</g>
<!-- Node11 -->
<g id="Node000011" class="node">
<title>Node11</title>
<g id="a_Node000011"><a xlink:href="vbus__mcspi_8h_source.html" target="_top" xlink:title=" ">
<polygon fill="white" stroke="#666666" points="712.5,-145.5 590.5,-145.5 590.5,-126.5 712.5,-126.5 712.5,-145.5"/>
<text text-anchor="middle" x="651.5" y="-133.5" font-family="Helvetica,sans-Serif" font-size="10.00">l4/vbus/vbus_mcspi.h</text>
</a>
</g>
</g>
<!-- Node1&#45;&gt;Node11 -->
<g id="edge12_Node000001_Node000011" class="edge">
<title>Node1&#45;&gt;Node11</title>
<g id="a_edge12_Node000001_Node000011"><a xlink:title=" ">
<path fill="none" stroke="#63b8ff" d="M373.06,-185.43C428.83,-176.83 510.49,-163.84 581.5,-151 590.77,-149.32 600.7,-147.41 610.09,-145.54"/>
<polygon fill="#63b8ff" stroke="#63b8ff" points="372.31,-182.01 362.96,-186.99 373.37,-188.93 372.31,-182.01"/>
</a>
</g>
</g>
<!-- Node12 -->
<g id="Node000012" class="node">
<title>Node12</title>
<g id="a_Node000012"><a xlink:href="vbus__pci_8h_source.html" target="_top" xlink:title=" ">
<polygon fill="white" stroke="#666666" points="491,-79.5 384,-79.5 384,-60.5 491,-60.5 491,-79.5"/>
<text text-anchor="middle" x="437.5" y="-67.5" font-family="Helvetica,sans-Serif" font-size="10.00">l4/vbus/vbus_pci.h</text>
</a>
</g>
</g>
<!-- Node1&#45;&gt;Node12 -->
<g id="edge13_Node000001_Node000012" class="edge">
<title>Node1&#45;&gt;Node12</title>
<g id="a_edge13_Node000001_Node000012"><a xlink:title=" ">
<path fill="none" stroke="#63b8ff" d="M362.34,-183.9C381.91,-177.26 402.47,-166.94 416.5,-151 434.71,-130.3 437.42,-95.65 437.63,-79.62"/>
<polygon fill="#63b8ff" stroke="#63b8ff" points="361.05,-180.64 352.55,-186.96 363.14,-187.32 361.05,-180.64"/>
</a>
</g>
</g>
<!-- Node13 -->
<g id="Node000013" class="node">
<title>Node13</title>
<g id="a_Node000013"><a xlink:href="vbus__pm_8h_source.html" target="_top" xlink:title=" ">
<polygon fill="white" stroke="#666666" points="302.5,-145.5 194.5,-145.5 194.5,-126.5 302.5,-126.5 302.5,-145.5"/>
<text text-anchor="middle" x="248.5" y="-133.5" font-family="Helvetica,sans-Serif" font-size="10.00">l4/vbus/vbus_pm.h</text>
</a>
</g>
</g>
<!-- Node1&#45;&gt;Node13 -->
<g id="edge15_Node000001_Node000013" class="edge">
<title>Node1&#45;&gt;Node13</title>
<g id="a_edge15_Node000001_Node000013"><a xlink:title=" ">
<path fill="none" stroke="#63b8ff" d="M290.73,-179.59C279.9,-168.67 265.93,-154.58 257.09,-145.67"/>
<polygon fill="#63b8ff" stroke="#63b8ff" points="288.42,-182.23 297.94,-186.87 293.39,-177.3 288.42,-182.23"/>
</a>
</g>
</g>
<!-- Node3 -->
<g id="Node000003" class="node">
<title>Node3</title>
<g id="a_Node000003"><a xlink:href="io_8h.html" target="_top" xlink:title=" ">
<polygon fill="white" stroke="#666666" points="99,-85 0,-85 0,-55 99,-55 99,-85"/>
<text text-anchor="start" x="8" y="-73" font-family="Helvetica,sans-Serif" font-size="10.00">contrib/libio&#45;io/l4</text>
<text text-anchor="middle" x="49.5" y="-62" font-family="Helvetica,sans-Serif" font-size="10.00">/io/io.h</text>
</a>
</g>
</g>
<!-- Node2&#45;&gt;Node3 -->
<g id="edge2_Node000002_Node000003" class="edge">
<title>Node2&#45;&gt;Node3</title>
<g id="a_edge2_Node000002_Node000003"><a xlink:title=" ">
<path fill="none" stroke="#63b8ff" d="M49.5,-110.54C49.5,-101.96 49.5,-92.61 49.5,-85.16"/>
<polygon fill="#63b8ff" stroke="#63b8ff" points="46,-110.8 49.5,-120.8 53,-110.8 46,-110.8"/>
</a>
</g>
</g>
<!-- Node5 -->
<g id="Node000005" class="node">
<title>Node5</title>
<g id="a_Node000005"><a xlink:href="vbus_source.html" target="_top" xlink:title=" ">
<polygon fill="white" stroke="#666666" points="365.5,-79.5 287.5,-79.5 287.5,-60.5 365.5,-60.5 365.5,-79.5"/>
<text text-anchor="middle" x="326.5" y="-67.5" font-family="Helvetica,sans-Serif" font-size="10.00">l4/vbus/vbus</text>
</a>
</g>
</g>
<!-- Node4&#45;&gt;Node5 -->
<g id="edge4_Node000004_Node000005" class="edge">
<title>Node4&#45;&gt;Node5</title>
<g id="a_edge4_Node000004_Node000005"><a xlink:title=" ">
<path fill="none" stroke="#63b8ff" d="M354.14,-117.55C346.9,-105.36 337.55,-89.61 331.79,-79.91"/>
<polygon fill="#63b8ff" stroke="#63b8ff" points="351.26,-119.56 359.38,-126.37 357.28,-115.98 351.26,-119.56"/>
</a>
</g>
</g>
<!-- Node5&#45;&gt;Node6 -->
<g id="edge5_Node000005_Node000006" class="edge">
<title>Node5&#45;&gt;Node6</title>
<g id="a_edge5_Node000005_Node000006"><a xlink:title=" ">
<path fill="none" stroke="#63b8ff" d="M292.33,-57.17C259.64,-45.86 211.15,-29.07 182.1,-19.02"/>
<polygon fill="#63b8ff" stroke="#63b8ff" points="291.33,-60.53 301.93,-60.49 293.62,-53.91 291.33,-60.53"/>
</a>
</g>
</g>
<!-- Node7 -->
<g id="Node000007" class="node">
<title>Node7</title>
<g id="a_Node000007"><a xlink:href="vbus__gpio_source.html" target="_top" xlink:title=" ">
<polygon fill="white" stroke="#666666" points="354.5,-19 250.5,-19 250.5,0 354.5,0 354.5,-19"/>
<text text-anchor="middle" x="302.5" y="-7" font-family="Helvetica,sans-Serif" font-size="10.00">l4/vbus/vbus_gpio</text>
</a>
</g>
</g>
<!-- Node5&#45;&gt;Node7 -->
<g id="edge6_Node000005_Node000007" class="edge">
<title>Node5&#45;&gt;Node7</title>
<g id="a_edge6_Node000005_Node000007"><a xlink:title=" ">
<path fill="none" stroke="#63b8ff" d="M319.04,-50.82C314.72,-40.28 309.46,-27.48 306.06,-19.17"/>
<polygon fill="#63b8ff" stroke="#63b8ff" points="315.93,-52.44 322.96,-60.37 322.4,-49.79 315.93,-52.44"/>
</a>
</g>
</g>
<!-- Node8 -->
<g id="Node000008" class="node">
<title>Node8</title>
<g id="a_Node000008"><a xlink:href="vbus__pci_source.html" target="_top" xlink:title=" ">
<polygon fill="white" stroke="#666666" points="478.5,-19 380.5,-19 380.5,0 478.5,0 478.5,-19"/>
<text text-anchor="middle" x="429.5" y="-7" font-family="Helvetica,sans-Serif" font-size="10.00">l4/vbus/vbus_pci</text>
</a>
</g>
</g>
<!-- Node5&#45;&gt;Node8 -->
<g id="edge7_Node000005_Node000008" class="edge">
<title>Node5&#45;&gt;Node8</title>
<g id="a_edge7_Node000005_Node000008"><a xlink:title=" ">
<path fill="none" stroke="#63b8ff" d="M350.4,-55.42C370.09,-44.24 397.4,-28.73 414.24,-19.17"/>
<polygon fill="#63b8ff" stroke="#63b8ff" points="348.66,-52.39 341.7,-60.37 352.12,-58.47 348.66,-52.39"/>
</a>
</g>
</g>
<!-- Node9&#45;&gt;Node7 -->
<g id="edge10_Node000009_Node000007" class="edge">
<title>Node9&#45;&gt;Node7</title>
<g id="a_edge10_Node000009_Node000007"><a xlink:title=" ">
<path fill="none" stroke="#63b8ff" d="M234.56,-54.66C251.66,-43.55 274.79,-28.51 289.17,-19.17"/>
<polygon fill="#63b8ff" stroke="#63b8ff" points="232.26,-51.98 225.78,-60.37 236.07,-57.85 232.26,-51.98"/>
</a>
</g>
</g>
<!-- Node12&#45;&gt;Node8 -->
<g id="edge14_Node000012_Node000008" class="edge">
<title>Node12&#45;&gt;Node8</title>
<g id="a_edge14_Node000012_Node000008"><a xlink:title=" ">
<path fill="none" stroke="#63b8ff" d="M434.92,-50.16C433.5,-39.74 431.8,-27.3 430.69,-19.17"/>
<polygon fill="#63b8ff" stroke="#63b8ff" points="431.5,-50.93 436.32,-60.37 438.43,-49.99 431.5,-50.93"/>
</a>
</g>
</g>
<!-- Node13&#45;&gt;Node5 -->
<g id="edge16_Node000013_Node000005" class="edge">
<title>Node13&#45;&gt;Node5</title>
<g id="a_edge16_Node000013_Node000005"><a xlink:title=" ">
<path fill="none" stroke="#63b8ff" d="M266.8,-119.99C282.07,-107.46 303.3,-90.04 315.9,-79.7"/>
<polygon fill="#63b8ff" stroke="#63b8ff" points="264.53,-117.32 259.02,-126.37 268.97,-122.73 264.53,-117.32"/>
</a>
</g>
</g>
</g>
</svg>
