<?xml version="1.0" encoding="UTF-8" standalone="no"?>
<!DOCTYPE svg PUBLIC "-//W3C//DTD SVG 1.1//EN"
 "http://www.w3.org/Graphics/SVG/1.1/DTD/svg11.dtd">
<!-- Generated by graphviz version 2.42.4 (0)
 -->
<!-- Title: l4/sys/vcon Pages: 1 -->
<svg width="1126pt" height="918pt"
 viewBox="0.00 0.00 1126.00 918.00" xmlns="http://www.w3.org/2000/svg" xmlns:xlink="http://www.w3.org/1999/xlink">
<g id="graph0" class="graph" transform="scale(1 1) rotate(0) translate(4 914)">
<title>l4/sys/vcon</title>
<!-- Node1 -->
<g id="Node000001" class="node">
<title>Node1</title>
<g id="a_Node000001"><a xlink:title="C++ Virtual console interface.">
<polygon fill="#999999" stroke="#666666" points="572.5,-910 501.5,-910 501.5,-891 572.5,-891 572.5,-910"/>
<text text-anchor="middle" x="537" y="-898" font-family="Helvetica,sans-Serif" font-size="10.00">l4/sys/vcon</text>
</a>
</g>
</g>
<!-- Node2 -->
<g id="Node000002" class="node">
<title>Node2</title>
<g id="a_Node000002"><a xlink:href="icu.html" target="_top" xlink:title="Interrupt controller.">
<polygon fill="white" stroke="#666666" points="568,-855 506,-855 506,-836 568,-836 568,-855"/>
<text text-anchor="middle" x="537" y="-843" font-family="Helvetica,sans-Serif" font-size="10.00">l4/sys/icu</text>
</a>
</g>
</g>
<!-- Node1&#45;&gt;Node2 -->
<g id="edge1_Node000001_Node000002" class="edge">
<title>Node1&#45;&gt;Node2</title>
<g id="a_edge1_Node000001_Node000002"><a xlink:title=" ">
<path fill="none" stroke="#63b8ff" d="M537,-890.75C537,-883.8 537,-873.85 537,-865.13"/>
<polygon fill="#63b8ff" stroke="#63b8ff" points="540.5,-865.09 537,-855.09 533.5,-865.09 540.5,-865.09"/>
</a>
</g>
</g>
<!-- Node19 -->
<g id="Node000019" class="node">
<title>Node19</title>
<g id="a_Node000019"><a xlink:href="capability.html" target="_top" xlink:title="L4::Cap related definitions.">
<polygon fill="white" stroke="#666666" points="467,-690 371,-690 371,-671 467,-671 467,-690"/>
<text text-anchor="middle" x="419" y="-678" font-family="Helvetica,sans-Serif" font-size="10.00">l4/sys/capability</text>
</a>
</g>
</g>
<!-- Node1&#45;&gt;Node19 -->
<g id="edge82_Node000001_Node000019" class="edge">
<title>Node1&#45;&gt;Node19</title>
<g id="a_edge82_Node000001_Node000019"><a xlink:title=" ">
<path fill="none" stroke="#63b8ff" d="M527.84,-890.98C519.1,-882.48 505.96,-868.75 497,-855 462.83,-802.54 436.49,-732.64 425.13,-699.89"/>
<polygon fill="#63b8ff" stroke="#63b8ff" points="428.39,-698.62 421.86,-690.29 421.77,-700.88 428.39,-698.62"/>
</a>
</g>
</g>
<!-- Node32 -->
<g id="Node000032" class="node">
<title>Node32</title>
<g id="a_Node000032"><a xlink:href="vcon_8h.html" target="_top" xlink:title="Virtual console interface.">
<polygon fill="white" stroke="#666666" points="923,-800 843,-800 843,-781 923,-781 923,-800"/>
<text text-anchor="middle" x="883" y="-788" font-family="Helvetica,sans-Serif" font-size="10.00">l4/sys/vcon.h</text>
</a>
</g>
</g>
<!-- Node1&#45;&gt;Node32 -->
<g id="edge80_Node000001_Node000032" class="edge">
<title>Node1&#45;&gt;Node32</title>
<g id="a_edge80_Node000001_Node000032"><a xlink:title=" ">
<path fill="none" stroke="#63b8ff" d="M564.44,-890.94C626.14,-871.68 775.88,-824.94 845.84,-803.1"/>
<polygon fill="#63b8ff" stroke="#63b8ff" points="847.06,-806.39 855.56,-800.07 844.97,-799.7 847.06,-806.39"/>
</a>
</g>
</g>
<!-- Node3 -->
<g id="Node000003" class="node">
<title>Node3</title>
<g id="a_Node000003"><a xlink:href="irq.html" target="_top" xlink:title="C++ Irq interface.">
<polygon fill="white" stroke="#666666" points="567.5,-800 506.5,-800 506.5,-781 567.5,-781 567.5,-800"/>
<text text-anchor="middle" x="537" y="-788" font-family="Helvetica,sans-Serif" font-size="10.00">l4/sys/irq</text>
</a>
</g>
</g>
<!-- Node2&#45;&gt;Node3 -->
<g id="edge2_Node000002_Node000003" class="edge">
<title>Node2&#45;&gt;Node3</title>
<g id="a_edge2_Node000002_Node000003"><a xlink:title=" ">
<path fill="none" stroke="#63b8ff" d="M537,-835.75C537,-828.8 537,-818.85 537,-810.13"/>
<polygon fill="#63b8ff" stroke="#63b8ff" points="540.5,-810.09 537,-800.09 533.5,-810.09 540.5,-810.09"/>
</a>
</g>
</g>
<!-- Node4 -->
<g id="Node000004" class="node">
<title>Node4</title>
<g id="a_Node000004"><a xlink:href="icu_8h.html" target="_top" xlink:title="Interrupt controller.">
<polygon fill="white" stroke="#666666" points="911.5,-470 840.5,-470 840.5,-451 911.5,-451 911.5,-470"/>
<text text-anchor="middle" x="876" y="-458" font-family="Helvetica,sans-Serif" font-size="10.00">l4/sys/icu.h</text>
</a>
</g>
</g>
<!-- Node3&#45;&gt;Node4 -->
<g id="edge3_Node000003_Node000004" class="edge">
<title>Node3&#45;&gt;Node4</title>
<g id="a_edge3_Node000003_Node000004"><a xlink:title=" ">
<path fill="none" stroke="#63b8ff" d="M567.55,-784.53C640.73,-771.78 820,-735.07 820,-681.5 820,-681.5 820,-681.5 820,-569.5 820,-533.65 844.62,-497.86 861.21,-477.81"/>
<polygon fill="#63b8ff" stroke="#63b8ff" points="863.87,-480.09 867.74,-470.23 858.56,-475.52 863.87,-480.09"/>
</a>
</g>
</g>
<!-- Node17 -->
<g id="Node000017" class="node">
<title>Node17</title>
<g id="a_Node000017"><a xlink:href="l4_2sys_2irq_8h.html" target="_top" xlink:title="C Irq interface.">
<polygon fill="white" stroke="#666666" points="772,-470 702,-470 702,-451 772,-451 772,-470"/>
<text text-anchor="middle" x="737" y="-458" font-family="Helvetica,sans-Serif" font-size="10.00">l4/sys/irq.h</text>
</a>
</g>
</g>
<!-- Node3&#45;&gt;Node17 -->
<g id="edge30_Node000003_Node000017" class="edge">
<title>Node3&#45;&gt;Node17</title>
<g id="a_edge30_Node000003_Node000017"><a xlink:title=" ">
<path fill="none" stroke="#63b8ff" d="M567.79,-786.05C621.34,-778.14 726,-753.49 726,-681.5 726,-681.5 726,-681.5 726,-569.5 726,-538.03 730.68,-501.66 733.94,-480.18"/>
<polygon fill="#63b8ff" stroke="#63b8ff" points="737.42,-480.57 735.52,-470.15 730.5,-479.48 737.42,-480.57"/>
</a>
</g>
</g>
<!-- Node3&#45;&gt;Node19 -->
<g id="edge37_Node000003_Node000019" class="edge">
<title>Node3&#45;&gt;Node19</title>
<g id="a_edge37_Node000003_Node000019"><a xlink:title=" ">
<path fill="none" stroke="#63b8ff" d="M525.07,-780.71C513.48,-772.02 495.56,-758.15 481,-745 463.95,-729.61 445.74,-710.61 433.49,-697.43"/>
<polygon fill="#63b8ff" stroke="#63b8ff" points="436.05,-695.04 426.71,-690.05 430.9,-699.78 436.05,-695.04"/>
</a>
</g>
</g>
<!-- Node27 -->
<g id="Node000027" class="node">
<title>Node27</title>
<g id="a_Node000027"><a xlink:href="ipc__iface.html" target="_top" xlink:title="Interface Definition Language.">
<polygon fill="white" stroke="#666666" points="429,-580 349,-580 349,-561 429,-561 429,-580"/>
<text text-anchor="middle" x="389" y="-568" font-family="Helvetica,sans-Serif" font-size="10.00">cxx/ipc_iface</text>
</a>
</g>
</g>
<!-- Node3&#45;&gt;Node27 -->
<g id="edge78_Node000003_Node000027" class="edge">
<title>Node3&#45;&gt;Node27</title>
<g id="a_edge78_Node000003_Node000027"><a xlink:title=" ">
<path fill="none" stroke="#63b8ff" d="M532.58,-780.97C527.95,-772.02 520.45,-757.52 514,-745 483.32,-685.44 480.22,-666.34 436,-616 427.03,-605.79 416.04,-595.29 406.95,-587.06"/>
<polygon fill="#63b8ff" stroke="#63b8ff" points="409.04,-584.23 399.24,-580.21 404.39,-589.47 409.04,-584.23"/>
</a>
</g>
</g>
<!-- Node28 -->
<g id="Node000028" class="node">
<title>Node28</title>
<g id="a_Node000028"><a xlink:href="ipc__types.html" target="_top" xlink:title=" ">
<polygon fill="white" stroke="#666666" points="333.5,-470 218.5,-470 218.5,-451 333.5,-451 333.5,-470"/>
<text text-anchor="middle" x="276" y="-458" font-family="Helvetica,sans-Serif" font-size="10.00">l4/sys/cxx/ipc_types</text>
</a>
</g>
</g>
<!-- Node3&#45;&gt;Node28 -->
<g id="edge79_Node000003_Node000028" class="edge">
<title>Node3&#45;&gt;Node28</title>
<g id="a_edge79_Node000003_Node000028"><a xlink:title=" ">
<path fill="none" stroke="#63b8ff" d="M510.35,-780.95C472.34,-767.47 402.67,-737.77 362,-690 307,-625.39 285.43,-522.11 278.64,-480.14"/>
<polygon fill="#63b8ff" stroke="#63b8ff" points="282.06,-479.37 277.1,-470.01 275.14,-480.42 282.06,-479.37"/>
</a>
</g>
</g>
<!-- Node31 -->
<g id="Node000031" class="node">
<title>Node31</title>
<g id="a_Node000031"><a xlink:href="rcv__endpoint.html" target="_top" xlink:title="The C++ Receive endpoint interface.">
<polygon fill="white" stroke="#666666" points="634.5,-745 523.5,-745 523.5,-726 634.5,-726 634.5,-745"/>
<text text-anchor="middle" x="579" y="-733" font-family="Helvetica,sans-Serif" font-size="10.00">l4/sys/rcv_endpoint</text>
</a>
</g>
</g>
<!-- Node3&#45;&gt;Node31 -->
<g id="edge73_Node000003_Node000031" class="edge">
<title>Node3&#45;&gt;Node31</title>
<g id="a_edge73_Node000003_Node000031"><a xlink:title=" ">
<path fill="none" stroke="#63b8ff" d="M543.94,-780.75C549.87,-773.26 558.57,-762.28 565.82,-753.13"/>
<polygon fill="#63b8ff" stroke="#63b8ff" points="568.73,-755.1 572.19,-745.09 563.24,-750.75 568.73,-755.1"/>
</a>
</g>
</g>
<!-- Node5 -->
<g id="Node000005" class="node">
<title>Node5</title>
<g id="a_Node000005"><a xlink:href="kernel__object_8h.html" target="_top" xlink:title="Kernel object system calls.">
<polygon fill="white" stroke="#666666" points="937,-415 815,-415 815,-396 937,-396 937,-415"/>
<text text-anchor="middle" x="876" y="-403" font-family="Helvetica,sans-Serif" font-size="10.00">l4/sys/kernel_object.h</text>
</a>
</g>
</g>
<!-- Node4&#45;&gt;Node5 -->
<g id="edge4_Node000004_Node000005" class="edge">
<title>Node4&#45;&gt;Node5</title>
<g id="a_edge4_Node000004_Node000005"><a xlink:title=" ">
<path fill="none" stroke="#63b8ff" d="M876,-450.75C876,-443.8 876,-433.85 876,-425.13"/>
<polygon fill="#63b8ff" stroke="#63b8ff" points="879.5,-425.09 876,-415.09 872.5,-425.09 879.5,-425.09"/>
</a>
</g>
</g>
<!-- Node15 -->
<g id="Node000015" class="node">
<title>Node15</title>
<g id="a_Node000015"><a xlink:href="l4_2sys_2ipc_8h.html" target="_top" xlink:title="Common IPC interface.">
<polygon fill="white" stroke="#666666" points="885.5,-294 814.5,-294 814.5,-275 885.5,-275 885.5,-294"/>
<text text-anchor="middle" x="850" y="-282" font-family="Helvetica,sans-Serif" font-size="10.00">l4/sys/ipc.h</text>
</a>
</g>
</g>
<!-- Node4&#45;&gt;Node15 -->
<g id="edge29_Node000004_Node000015" class="edge">
<title>Node4&#45;&gt;Node15</title>
<g id="a_edge29_Node000004_Node000015"><a xlink:title=" ">
<path fill="none" stroke="#63b8ff" d="M897.25,-450.86C912.84,-443.5 933.41,-431.48 946,-415 969.38,-384.38 984.68,-361.84 963,-330 947.88,-307.79 919.81,-296.66 895.43,-291.09"/>
<polygon fill="#63b8ff" stroke="#63b8ff" points="896.1,-287.66 885.61,-289.09 894.7,-294.52 896.1,-287.66"/>
</a>
</g>
</g>
<!-- Node6 -->
<g id="Node000006" class="node">
<title>Node6</title>
<g id="a_Node000006"><a xlink:href="l4_2sys_2types_8h.html" target="_top" xlink:title="Common L4 ABI Data Types.">
<polygon fill="white" stroke="#666666" points="576,-184 492,-184 492,-165 576,-165 576,-184"/>
<text text-anchor="middle" x="534" y="-172" font-family="Helvetica,sans-Serif" font-size="10.00">l4/sys/types.h</text>
</a>
</g>
</g>
<!-- Node5&#45;&gt;Node6 -->
<g id="edge5_Node000005_Node000006" class="edge">
<title>Node5&#45;&gt;Node6</title>
<g id="a_edge5_Node000005_Node000006"><a xlink:title=" ">
<path fill="none" stroke="#63b8ff" d="M911.44,-395.99C930.26,-389.48 951.76,-378.38 963,-360 969.96,-348.63 968.74,-342.03 963,-330 946.26,-294.92 928.47,-294.77 895,-275 795.36,-216.15 659.76,-191.04 586.37,-181.19"/>
<polygon fill="#63b8ff" stroke="#63b8ff" points="586.38,-177.66 576.01,-179.85 585.48,-184.61 586.38,-177.66"/>
</a>
</g>
</g>
<!-- Node8 -->
<g id="Node000008" class="node">
<title>Node8</title>
<g id="a_Node000008"><a xlink:href="compiler_8h.html" target="_top" xlink:title="L4 compiler related defines.">
<polygon fill="white" stroke="#666666" points="715.5,-74 616.5,-74 616.5,-55 715.5,-55 715.5,-74"/>
<text text-anchor="middle" x="666" y="-62" font-family="Helvetica,sans-Serif" font-size="10.00">l4/sys/compiler.h</text>
</a>
</g>
</g>
<!-- Node5&#45;&gt;Node8 -->
<g id="edge17_Node000005_Node000008" class="edge">
<title>Node5&#45;&gt;Node8</title>
<g id="a_edge17_Node000005_Node000008"><a xlink:title=" ">
<path fill="none" stroke="#63b8ff" d="M937.07,-400.48C1008.76,-392.07 1118,-366.03 1118,-285.5 1118,-285.5 1118,-285.5 1118,-173.5 1118,-93.75 848.45,-72.77 725.66,-67.34"/>
<polygon fill="#63b8ff" stroke="#63b8ff" points="725.8,-63.85 715.66,-66.92 725.51,-70.84 725.8,-63.85"/>
</a>
</g>
</g>
<!-- Node13 -->
<g id="Node000013" class="node">
<title>Node13</title>
<g id="a_Node000013"><a xlink:href="l4_2sys_2utcb_8h.html" target="_top" xlink:title="UTCB definitions.">
<polygon fill="white" stroke="#666666" points="716,-239 638,-239 638,-220 716,-220 716,-239"/>
<text text-anchor="middle" x="677" y="-227" font-family="Helvetica,sans-Serif" font-size="10.00">l4/sys/utcb.h</text>
</a>
</g>
</g>
<!-- Node5&#45;&gt;Node13 -->
<g id="edge18_Node000005_Node000013" class="edge">
<title>Node5&#45;&gt;Node13</title>
<g id="a_edge18_Node000005_Node000013"><a xlink:title=" ">
<path fill="none" stroke="#63b8ff" d="M860.07,-395.93C845.2,-387.61 822.71,-374.19 805,-360 759.57,-323.59 713.25,-272.54 690.84,-246.76"/>
<polygon fill="#63b8ff" stroke="#63b8ff" points="693.37,-244.34 684.19,-239.05 688.07,-248.91 693.37,-244.34"/>
</a>
</g>
</g>
<!-- Node14 -->
<g id="Node000014" class="node">
<title>Node14</title>
<g id="a_Node000014"><a xlink:href="____kernel__object__impl_8h.html" target="_top" xlink:title="Low&#45;level kernel debugger functions.">
<polygon fill="white" stroke="#666666" points="938,-360 814,-360 814,-330 938,-330 938,-360"/>
<text text-anchor="start" x="822" y="-348" font-family="Helvetica,sans-Serif" font-size="10.00">l4/sys/__kernel_object</text>
<text text-anchor="middle" x="876" y="-337" font-family="Helvetica,sans-Serif" font-size="10.00">_impl.h</text>
</a>
</g>
</g>
<!-- Node5&#45;&gt;Node14 -->
<g id="edge22_Node000005_Node000014" class="edge">
<title>Node5&#45;&gt;Node14</title>
<g id="a_edge22_Node000005_Node000014"><a xlink:title=" ">
<path fill="none" stroke="#63b8ff" d="M876,-395.87C876,-389.11 876,-379.35 876,-370.26"/>
<polygon fill="#63b8ff" stroke="#63b8ff" points="879.5,-370.11 876,-360.11 872.5,-370.11 879.5,-370.11"/>
</a>
</g>
</g>
<!-- Node5&#45;&gt;Node15 -->
<g id="edge28_Node000005_Node000015" class="edge">
<title>Node5&#45;&gt;Node15</title>
<g id="a_edge28_Node000005_Node000015"><a xlink:title=" ">
<path fill="none" stroke="#63b8ff" d="M901.51,-395.9C917.69,-388.96 937.35,-377.44 947,-360 953.46,-348.33 954.2,-341.22 947,-330 935.53,-312.12 914.89,-301.33 895.58,-294.87"/>
<polygon fill="#63b8ff" stroke="#63b8ff" points="896.54,-291.5 885.96,-291.95 894.51,-298.2 896.54,-291.5"/>
</a>
</g>
</g>
<!-- Node7 -->
<g id="Node000007" class="node">
<title>Node7</title>
<g id="a_Node000007"><a xlink:href="l4_2sys_2l4int_8h.html" target="_top" xlink:title="Fixed sized integer types, generic version.">
<polygon fill="white" stroke="#666666" points="441.5,-74 362.5,-74 362.5,-55 441.5,-55 441.5,-74"/>
<text text-anchor="middle" x="402" y="-62" font-family="Helvetica,sans-Serif" font-size="10.00">l4/sys/l4int.h</text>
</a>
</g>
</g>
<!-- Node6&#45;&gt;Node7 -->
<g id="edge6_Node000006_Node000007" class="edge">
<title>Node6&#45;&gt;Node7</title>
<g id="a_edge6_Node000006_Node000007"><a xlink:title=" ">
<path fill="none" stroke="#63b8ff" d="M491.7,-170.33C463.07,-165.79 426.95,-154.92 407,-129 397.41,-116.54 396.93,-98.33 398.4,-84.61"/>
<polygon fill="#63b8ff" stroke="#63b8ff" points="401.91,-84.76 399.93,-74.35 394.99,-83.72 401.91,-84.76"/>
</a>
</g>
</g>
<!-- Node6&#45;&gt;Node8 -->
<g id="edge7_Node000006_Node000008" class="edge">
<title>Node6&#45;&gt;Node8</title>
<g id="a_edge7_Node000006_Node000008"><a xlink:title=" ">
<path fill="none" stroke="#63b8ff" d="M576.06,-169.98C627.8,-164.69 711.11,-152.66 730,-129 745.09,-110.1 718.66,-90.89 695.32,-78.62"/>
<polygon fill="#63b8ff" stroke="#63b8ff" points="696.81,-75.45 686.3,-74.12 693.69,-81.72 696.81,-75.45"/>
</a>
</g>
</g>
<!-- Node10 -->
<g id="Node000010" class="node">
<title>Node10</title>
<g id="a_Node000010"><a xlink:href="l4_2sys_2consts_8h.html" target="_top" xlink:title="Common constants.">
<polygon fill="white" stroke="#666666" points="354.5,-129 265.5,-129 265.5,-110 354.5,-110 354.5,-129"/>
<text text-anchor="middle" x="310" y="-117" font-family="Helvetica,sans-Serif" font-size="10.00">l4/sys/consts.h</text>
</a>
</g>
</g>
<!-- Node6&#45;&gt;Node10 -->
<g id="edge9_Node000006_Node000010" class="edge">
<title>Node6&#45;&gt;Node10</title>
<g id="a_edge9_Node000006_Node000010"><a xlink:title=" ">
<path fill="none" stroke="#63b8ff" d="M498.01,-164.98C459.51,-155.87 398.31,-141.4 356.26,-131.45"/>
<polygon fill="#63b8ff" stroke="#63b8ff" points="356.81,-127.98 346.27,-129.08 355.2,-134.79 356.81,-127.98"/>
</a>
</g>
</g>
<!-- Node11 -->
<g id="Node000011" class="node">
<title>Node11</title>
<g id="a_Node000011"><a xlink:href="____l4__fpage_8h_source.html" target="_top" xlink:title=" ">
<polygon fill="white" stroke="#666666" points="721,-129 611,-129 611,-110 721,-110 721,-129"/>
<text text-anchor="middle" x="666" y="-117" font-family="Helvetica,sans-Serif" font-size="10.00">l4/sys/__l4_fpage.h</text>
</a>
</g>
</g>
<!-- Node6&#45;&gt;Node11 -->
<g id="edge12_Node000006_Node000011" class="edge">
<title>Node6&#45;&gt;Node11</title>
<g id="a_edge12_Node000006_Node000011"><a xlink:title=" ">
<path fill="none" stroke="#63b8ff" d="M555.21,-164.98C576.73,-156.34 610.28,-142.87 634.83,-133.02"/>
<polygon fill="#63b8ff" stroke="#63b8ff" points="636.43,-136.14 644.41,-129.17 633.82,-129.65 636.43,-136.14"/>
</a>
</g>
</g>
<!-- Node12 -->
<g id="Node000012" class="node">
<title>Node12</title>
<g id="a_Node000012"><a xlink:href="____timeout_8h_source.html" target="_top" xlink:title=" ">
<polygon fill="white" stroke="#666666" points="593,-129 487,-129 487,-110 593,-110 593,-129"/>
<text text-anchor="middle" x="540" y="-117" font-family="Helvetica,sans-Serif" font-size="10.00">l4/sys/__timeout.h</text>
</a>
</g>
</g>
<!-- Node6&#45;&gt;Node12 -->
<g id="edge14_Node000006_Node000012" class="edge">
<title>Node6&#45;&gt;Node12</title>
<g id="a_edge14_Node000006_Node000012"><a xlink:title=" ">
<path fill="none" stroke="#63b8ff" d="M534.99,-164.75C535.78,-157.8 536.9,-147.85 537.89,-139.13"/>
<polygon fill="#63b8ff" stroke="#63b8ff" points="541.38,-139.42 539.03,-129.09 534.42,-138.63 541.38,-139.42"/>
</a>
</g>
</g>
<!-- Node9 -->
<g id="Node000009" class="node">
<title>Node9</title>
<g id="a_Node000009"><a xlink:title=" ">
<polygon fill="#e0e0e0" stroke="#999999" points="712,-19 620,-19 620,0 712,0 712,-19"/>
<text text-anchor="middle" x="666" y="-7" font-family="Helvetica,sans-Serif" font-size="10.00">l4/sys/linkage.h</text>
</a>
</g>
</g>
<!-- Node8&#45;&gt;Node9 -->
<g id="edge8_Node000008_Node000009" class="edge">
<title>Node8&#45;&gt;Node9</title>
<g id="a_edge8_Node000008_Node000009"><a xlink:title=" ">
<path fill="none" stroke="#63b8ff" d="M666,-54.75C666,-47.8 666,-37.85 666,-29.13"/>
<polygon fill="#63b8ff" stroke="#63b8ff" points="669.5,-29.09 666,-19.09 662.5,-29.09 669.5,-29.09"/>
</a>
</g>
</g>
<!-- Node10&#45;&gt;Node7 -->
<g id="edge11_Node000010_Node000007" class="edge">
<title>Node10&#45;&gt;Node7</title>
<g id="a_edge11_Node000010_Node000007"><a xlink:title=" ">
<path fill="none" stroke="#63b8ff" d="M324.78,-109.98C339.18,-101.69 361.31,-88.94 378.19,-79.22"/>
<polygon fill="#63b8ff" stroke="#63b8ff" points="380.03,-82.19 386.95,-74.17 376.54,-76.13 380.03,-82.19"/>
</a>
</g>
</g>
<!-- Node10&#45;&gt;Node8 -->
<g id="edge10_Node000010_Node000008" class="edge">
<title>Node10&#45;&gt;Node8</title>
<g id="a_edge10_Node000010_Node000008"><a xlink:title=" ">
<path fill="none" stroke="#63b8ff" d="M354.73,-111.84C418.36,-102.37 535.16,-84.98 606.18,-74.41"/>
<polygon fill="#63b8ff" stroke="#63b8ff" points="606.94,-77.83 616.31,-72.9 605.91,-70.91 606.94,-77.83"/>
</a>
</g>
</g>
<!-- Node11&#45;&gt;Node8 -->
<g id="edge13_Node000011_Node000008" class="edge">
<title>Node11&#45;&gt;Node8</title>
<g id="a_edge13_Node000011_Node000008"><a xlink:title=" ">
<path fill="none" stroke="#63b8ff" d="M666,-109.75C666,-102.8 666,-92.85 666,-84.13"/>
<polygon fill="#63b8ff" stroke="#63b8ff" points="669.5,-84.09 666,-74.09 662.5,-84.09 669.5,-84.09"/>
</a>
</g>
</g>
<!-- Node12&#45;&gt;Node7 -->
<g id="edge15_Node000012_Node000007" class="edge">
<title>Node12&#45;&gt;Node7</title>
<g id="a_edge15_Node000012_Node000007"><a xlink:title=" ">
<path fill="none" stroke="#63b8ff" d="M517.83,-109.98C495.23,-101.3 459.94,-87.75 434.25,-77.88"/>
<polygon fill="#63b8ff" stroke="#63b8ff" points="435.17,-74.49 424.58,-74.17 432.66,-81.02 435.17,-74.49"/>
</a>
</g>
</g>
<!-- Node12&#45;&gt;Node8 -->
<g id="edge16_Node000012_Node000008" class="edge">
<title>Node12&#45;&gt;Node8</title>
<g id="a_edge16_Node000012_Node000008"><a xlink:title=" ">
<path fill="none" stroke="#63b8ff" d="M560.24,-109.98C580.7,-101.38 612.53,-87.99 635.93,-78.15"/>
<polygon fill="#63b8ff" stroke="#63b8ff" points="637.53,-81.27 645.39,-74.17 634.81,-74.82 637.53,-81.27"/>
</a>
</g>
</g>
<!-- Node13&#45;&gt;Node6 -->
<g id="edge19_Node000013_Node000006" class="edge">
<title>Node13&#45;&gt;Node6</title>
<g id="a_edge19_Node000013_Node000006"><a xlink:title=" ">
<path fill="none" stroke="#63b8ff" d="M654.02,-219.98C630.5,-211.27 593.71,-197.63 567.06,-187.75"/>
<polygon fill="#63b8ff" stroke="#63b8ff" points="567.99,-184.36 557.39,-184.17 565.55,-190.93 567.99,-184.36"/>
</a>
</g>
</g>
<!-- Node13&#45;&gt;Node7 -->
<g id="edge21_Node000013_Node000007" class="edge">
<title>Node13&#45;&gt;Node7</title>
<g id="a_edge21_Node000013_Node000007"><a xlink:title=" ">
<path fill="none" stroke="#63b8ff" d="M666.57,-219.83C650.12,-206.52 616.76,-180.91 585,-165 540.14,-142.53 521.78,-153.51 478,-129 454.71,-115.96 431.72,-95.38 417.23,-81.21"/>
<polygon fill="#63b8ff" stroke="#63b8ff" points="419.65,-78.68 410.1,-74.08 414.69,-83.62 419.65,-78.68"/>
</a>
</g>
</g>
<!-- Node13&#45;&gt;Node8 -->
<g id="edge20_Node000013_Node000008" class="edge">
<title>Node13&#45;&gt;Node8</title>
<g id="a_edge20_Node000013_Node000008"><a xlink:title=" ">
<path fill="none" stroke="#63b8ff" d="M688.93,-219.86C714.44,-200.28 770.13,-151.04 746,-110 737.26,-95.14 721.56,-84.88 706.37,-77.99"/>
<polygon fill="#63b8ff" stroke="#63b8ff" points="707.62,-74.72 697.05,-74.13 704.94,-81.19 707.62,-74.72"/>
</a>
</g>
</g>
<!-- Node14&#45;&gt;Node15 -->
<g id="edge23_Node000014_Node000015" class="edge">
<title>Node14&#45;&gt;Node15</title>
<g id="a_edge23_Node000014_Node000015"><a xlink:title=" ">
<path fill="none" stroke="#63b8ff" d="M869.71,-329.84C866.2,-321.95 861.8,-312.05 858.05,-303.61"/>
<polygon fill="#63b8ff" stroke="#63b8ff" points="861.16,-301.98 853.9,-294.27 854.76,-304.83 861.16,-301.98"/>
</a>
</g>
</g>
<!-- Node15&#45;&gt;Node6 -->
<g id="edge24_Node000015_Node000006" class="edge">
<title>Node15&#45;&gt;Node6</title>
<g id="a_edge24_Node000015_Node000006"><a xlink:title=" ">
<path fill="none" stroke="#63b8ff" d="M835.88,-274.9C813.25,-261.43 767.08,-235.33 725,-220 679.34,-203.36 625.21,-191.44 586.26,-184.15"/>
<polygon fill="#63b8ff" stroke="#63b8ff" points="586.66,-180.67 576.2,-182.31 585.4,-187.55 586.66,-180.67"/>
</a>
</g>
</g>
<!-- Node15&#45;&gt;Node13 -->
<g id="edge25_Node000015_Node000013" class="edge">
<title>Node15&#45;&gt;Node13</title>
<g id="a_edge25_Node000015_Node000013"><a xlink:title=" ">
<path fill="none" stroke="#63b8ff" d="M822.2,-274.98C793.03,-266.05 747,-251.94 714.6,-242.02"/>
<polygon fill="#63b8ff" stroke="#63b8ff" points="715.6,-238.66 705.01,-239.08 713.55,-245.36 715.6,-238.66"/>
</a>
</g>
</g>
<!-- Node16 -->
<g id="Node000016" class="node">
<title>Node16</title>
<g id="a_Node000016"><a xlink:href="err_8h.html" target="_top" xlink:title="Error codes.">
<polygon fill="white" stroke="#666666" points="354,-239 284,-239 284,-220 354,-220 354,-239"/>
<text text-anchor="middle" x="319" y="-227" font-family="Helvetica,sans-Serif" font-size="10.00">l4/sys/err.h</text>
</a>
</g>
</g>
<!-- Node15&#45;&gt;Node16 -->
<g id="edge26_Node000015_Node000016" class="edge">
<title>Node15&#45;&gt;Node16</title>
<g id="a_edge26_Node000015_Node000016"><a xlink:title=" ">
<path fill="none" stroke="#63b8ff" d="M814.34,-279.94C720.7,-270.59 467.97,-245.37 364.3,-235.02"/>
<polygon fill="#63b8ff" stroke="#63b8ff" points="364.46,-231.52 354.16,-234.01 363.77,-238.49 364.46,-231.52"/>
</a>
</g>
</g>
<!-- Node16&#45;&gt;Node8 -->
<g id="edge27_Node000016_Node000008" class="edge">
<title>Node16&#45;&gt;Node8</title>
<g id="a_edge27_Node000016_Node000008"><a xlink:title=" ">
<path fill="none" stroke="#63b8ff" d="M327.8,-219.82C350.56,-197.88 414.04,-139.83 478,-110 518.74,-91 568.35,-79.7 606.38,-73.24"/>
<polygon fill="#63b8ff" stroke="#63b8ff" points="606.97,-76.69 616.28,-71.62 605.85,-69.78 606.97,-76.69"/>
</a>
</g>
</g>
<!-- Node17&#45;&gt;Node5 -->
<g id="edge31_Node000017_Node000005" class="edge">
<title>Node17&#45;&gt;Node5</title>
<g id="a_edge31_Node000017_Node000005"><a xlink:title=" ">
<path fill="none" stroke="#63b8ff" d="M759.33,-450.98C782.2,-442.27 817.96,-428.63 843.86,-418.75"/>
<polygon fill="#63b8ff" stroke="#63b8ff" points="845.16,-422 853.26,-415.17 842.67,-415.46 845.16,-422"/>
</a>
</g>
</g>
<!-- Node17&#45;&gt;Node15 -->
<g id="edge32_Node000017_Node000015" class="edge">
<title>Node17&#45;&gt;Node15</title>
<g id="a_edge32_Node000017_Node000015"><a xlink:title=" ">
<path fill="none" stroke="#63b8ff" d="M740.46,-450.79C749.3,-429.15 774.18,-371.64 805,-330 812.81,-319.45 823.13,-309.06 831.91,-300.97"/>
<polygon fill="#63b8ff" stroke="#63b8ff" points="834.3,-303.53 839.43,-294.26 829.64,-298.31 834.3,-303.53"/>
</a>
</g>
</g>
<!-- Node18 -->
<g id="Node000018" class="node">
<title>Node18</title>
<g id="a_Node000018"><a xlink:href="rcv__endpoint_8h.html" target="_top" xlink:title="Receive endpoint C interface.">
<polygon fill="white" stroke="#666666" points="720,-354.5 600,-354.5 600,-335.5 720,-335.5 720,-354.5"/>
<text text-anchor="middle" x="660" y="-342.5" font-family="Helvetica,sans-Serif" font-size="10.00">l4/sys/rcv_endpoint.h</text>
</a>
</g>
</g>
<!-- Node17&#45;&gt;Node18 -->
<g id="edge33_Node000017_Node000018" class="edge">
<title>Node17&#45;&gt;Node18</title>
<g id="a_edge33_Node000017_Node000018"><a xlink:title=" ">
<path fill="none" stroke="#63b8ff" d="M731.21,-450.97C718.56,-432.32 688.23,-387.61 671.53,-362.99"/>
<polygon fill="#63b8ff" stroke="#63b8ff" points="674.37,-360.94 665.85,-354.63 668.57,-364.87 674.37,-360.94"/>
</a>
</g>
</g>
<!-- Node18&#45;&gt;Node6 -->
<g id="edge35_Node000018_Node000006" class="edge">
<title>Node18&#45;&gt;Node6</title>
<g id="a_edge35_Node000018_Node000006"><a xlink:title=" ">
<path fill="none" stroke="#63b8ff" d="M656.02,-335.26C646.11,-314.08 618.8,-258.91 586,-220 576.67,-208.93 564.43,-198.31 554.18,-190.23"/>
<polygon fill="#63b8ff" stroke="#63b8ff" points="556.2,-187.37 546.14,-184.08 551.95,-192.93 556.2,-187.37"/>
</a>
</g>
</g>
<!-- Node18&#45;&gt;Node13 -->
<g id="edge34_Node000018_Node000013" class="edge">
<title>Node18&#45;&gt;Node13</title>
<g id="a_edge34_Node000018_Node000013"><a xlink:title=" ">
<path fill="none" stroke="#63b8ff" d="M661.28,-335.47C664.01,-317.23 670.47,-274.07 674.21,-249.14"/>
<polygon fill="#63b8ff" stroke="#63b8ff" points="677.69,-249.54 675.71,-239.13 670.76,-248.5 677.69,-249.54"/>
</a>
</g>
</g>
<!-- Node18&#45;&gt;Node15 -->
<g id="edge36_Node000018_Node000015" class="edge">
<title>Node18&#45;&gt;Node15</title>
<g id="a_edge36_Node000018_Node000015"><a xlink:title=" ">
<path fill="none" stroke="#63b8ff" d="M687.63,-335.49C720.55,-325.36 775.73,-308.37 812.49,-297.05"/>
<polygon fill="#63b8ff" stroke="#63b8ff" points="813.81,-300.3 822.34,-294.02 811.75,-293.61 813.81,-300.3"/>
</a>
</g>
</g>
<!-- Node19&#45;&gt;Node6 -->
<g id="edge39_Node000019_Node000006" class="edge">
<title>Node19&#45;&gt;Node6</title>
<g id="a_edge39_Node000019_Node000006"><a xlink:title=" ">
<path fill="none" stroke="#63b8ff" d="M370.75,-676C268.22,-667.22 38,-639.91 38,-571.5 38,-571.5 38,-571.5 38,-283.5 38,-193.5 353.76,-178.36 481.4,-175.92"/>
<polygon fill="#63b8ff" stroke="#63b8ff" points="481.77,-179.42 491.71,-175.74 481.65,-172.42 481.77,-179.42"/>
</a>
</g>
</g>
<!-- Node19&#45;&gt;Node10 -->
<g id="edge38_Node000019_Node000010" class="edge">
<title>Node19&#45;&gt;Node10</title>
<g id="a_edge38_Node000019_Node000010"><a xlink:title=" ">
<path fill="none" stroke="#63b8ff" d="M370.86,-676.7C288.91,-671.37 126.07,-658.17 74,-635 34.41,-617.38 0,-614.84 0,-571.5 0,-571.5 0,-571.5 0,-228.5 0,-175.06 166.34,-141.96 255.32,-128.08"/>
<polygon fill="#63b8ff" stroke="#63b8ff" points="255.9,-131.53 265.25,-126.56 254.84,-124.61 255.9,-131.53"/>
</a>
</g>
</g>
<!-- Node20 -->
<g id="Node000020" class="node">
<title>Node20</title>
<g id="a_Node000020"><a xlink:href="kobject_source.html" target="_top" xlink:title=" ">
<polygon fill="white" stroke="#666666" points="568.5,-525 485.5,-525 485.5,-506 568.5,-506 568.5,-525"/>
<text text-anchor="middle" x="527" y="-513" font-family="Helvetica,sans-Serif" font-size="10.00">l4/sys/kobject</text>
</a>
</g>
</g>
<!-- Node19&#45;&gt;Node20 -->
<g id="edge40_Node000019_Node000020" class="edge">
<title>Node19&#45;&gt;Node20</title>
<g id="a_edge40_Node000019_Node000020"><a xlink:title=" ">
<path fill="none" stroke="#63b8ff" d="M431.9,-670.86C443.33,-662.69 459.89,-649.54 471,-635 495.19,-603.32 512.5,-559.51 521.01,-535.01"/>
<polygon fill="#63b8ff" stroke="#63b8ff" points="524.43,-535.81 524.3,-525.22 517.8,-533.58 524.43,-535.81"/>
</a>
</g>
</g>
<!-- Node25 -->
<g id="Node000025" class="node">
<title>Node25</title>
<g id="a_Node000025"><a xlink:href="l4_2sys_2task_8h.html" target="_top" xlink:title="Common task related definitions.">
<polygon fill="white" stroke="#666666" points="506,-354.5 428,-354.5 428,-335.5 506,-335.5 506,-354.5"/>
<text text-anchor="middle" x="467" y="-342.5" font-family="Helvetica,sans-Serif" font-size="10.00">l4/sys/task.h</text>
</a>
</g>
</g>
<!-- Node19&#45;&gt;Node25 -->
<g id="edge56_Node000019_Node000025" class="edge">
<title>Node19&#45;&gt;Node25</title>
<g id="a_edge56_Node000019_Node000025"><a xlink:title=" ">
<path fill="none" stroke="#63b8ff" d="M423.02,-670.97C436.6,-641.25 479.77,-539.23 476,-451 474.71,-420.77 471.33,-385.78 469.1,-364.79"/>
<polygon fill="#63b8ff" stroke="#63b8ff" points="472.56,-364.26 468,-354.7 465.6,-365.02 472.56,-364.26"/>
</a>
</g>
</g>
<!-- Node26 -->
<g id="Node000026" class="node">
<title>Node26</title>
<g id="a_Node000026"><a xlink:href="sys_2meta.html" target="_top" xlink:title="Meta interface for getting dynamic type information about objects behind capabilities.">
<polygon fill="white" stroke="#666666" points="427,-635 353,-635 353,-616 427,-616 427,-635"/>
<text text-anchor="middle" x="390" y="-623" font-family="Helvetica,sans-Serif" font-size="10.00">l4/sys/meta</text>
</a>
</g>
</g>
<!-- Node19&#45;&gt;Node26 -->
<g id="edge57_Node000019_Node000026" class="edge">
<title>Node19&#45;&gt;Node26</title>
<g id="a_edge57_Node000019_Node000026"><a xlink:title=" ">
<path fill="none" stroke="#63b8ff" d="M414.21,-670.75C410.24,-663.49 404.47,-652.95 399.57,-643.98"/>
<polygon fill="#63b8ff" stroke="#63b8ff" points="402.57,-642.18 394.7,-635.09 396.43,-645.54 402.57,-642.18"/>
</a>
</g>
</g>
<!-- Node20&#45;&gt;Node5 -->
<g id="edge41_Node000020_Node000005" class="edge">
<title>Node20&#45;&gt;Node5</title>
<g id="a_edge41_Node000020_Node000005"><a xlink:title=" ">
<path fill="none" stroke="#63b8ff" d="M568.91,-512.46C620.48,-508.77 709.94,-498.49 781,-470 810.43,-458.2 840.15,-436.38 858.32,-421.65"/>
<polygon fill="#63b8ff" stroke="#63b8ff" points="860.79,-424.14 866.26,-415.07 856.33,-418.76 860.79,-424.14"/>
</a>
</g>
</g>
<!-- Node20&#45;&gt;Node6 -->
<g id="edge42_Node000020_Node000006" class="edge">
<title>Node20&#45;&gt;Node6</title>
<g id="a_edge42_Node000020_Node000006"><a xlink:title=" ">
<path fill="none" stroke="#63b8ff" d="M527.94,-505.83C529.85,-487.52 534,-443.52 534,-406.5 534,-406.5 534,-406.5 534,-283.5 534,-252.19 534,-215.77 534,-194.23"/>
<polygon fill="#63b8ff" stroke="#63b8ff" points="537.5,-194.18 534,-184.18 530.5,-194.18 537.5,-194.18"/>
</a>
</g>
</g>
<!-- Node21 -->
<g id="Node000021" class="node">
<title>Node21</title>
<g id="a_Node000021"><a xlink:href="____typeinfo_8h.html" target="_top" xlink:title="Type information handling.">
<polygon fill="white" stroke="#666666" points="467.5,-470 390.5,-470 390.5,-451 467.5,-451 467.5,-470"/>
<text text-anchor="middle" x="429" y="-458" font-family="Helvetica,sans-Serif" font-size="10.00">__typeinfo.h</text>
</a>
</g>
</g>
<!-- Node20&#45;&gt;Node21 -->
<g id="edge43_Node000020_Node000021" class="edge">
<title>Node20&#45;&gt;Node21</title>
<g id="a_edge43_Node000020_Node000021"><a xlink:title=" ">
<path fill="none" stroke="#63b8ff" d="M511.25,-505.98C495.77,-497.61 471.91,-484.7 453.86,-474.95"/>
<polygon fill="#63b8ff" stroke="#63b8ff" points="455.49,-471.85 445.03,-470.17 452.16,-478.01 455.49,-471.85"/>
</a>
</g>
</g>
<!-- Node22 -->
<g id="Node000022" class="node">
<title>Node22</title>
<g id="a_Node000022"><a xlink:href="types.html" target="_top" xlink:title=" ">
<polygon fill="white" stroke="#666666" points="187,-354.5 123,-354.5 123,-335.5 187,-335.5 187,-354.5"/>
<text text-anchor="middle" x="155" y="-342.5" font-family="Helvetica,sans-Serif" font-size="10.00">cxx/types</text>
</a>
</g>
</g>
<!-- Node21&#45;&gt;Node22 -->
<g id="edge44_Node000021_Node000022" class="edge">
<title>Node21&#45;&gt;Node22</title>
<g id="a_edge44_Node000021_Node000022"><a xlink:title=" ">
<path fill="none" stroke="#63b8ff" d="M406.27,-450.94C383.69,-442.31 348.18,-428.38 318,-415 300.37,-407.19 296.62,-403.83 279,-396 248.1,-382.27 212.22,-367.97 187.03,-358.2"/>
<polygon fill="#63b8ff" stroke="#63b8ff" points="188.19,-354.9 177.6,-354.56 185.67,-361.43 188.19,-354.9"/>
</a>
</g>
</g>
<!-- Node23 -->
<g id="Node000023" class="node">
<title>Node23</title>
<g id="a_Node000023"><a xlink:href="ipc__basics_source.html" target="_top" xlink:title=" ">
<polygon fill="white" stroke="#666666" points="270.5,-415 183.5,-415 183.5,-396 270.5,-396 270.5,-415"/>
<text text-anchor="middle" x="227" y="-403" font-family="Helvetica,sans-Serif" font-size="10.00">cxx/ipc_basics</text>
</a>
</g>
</g>
<!-- Node21&#45;&gt;Node23 -->
<g id="edge45_Node000021_Node000023" class="edge">
<title>Node21&#45;&gt;Node23</title>
<g id="a_edge45_Node000021_Node000023"><a xlink:title=" ">
<path fill="none" stroke="#63b8ff" d="M396.55,-450.98C362.04,-441.93 307.34,-427.58 269.44,-417.64"/>
<polygon fill="#63b8ff" stroke="#63b8ff" points="270.27,-414.23 259.71,-415.08 268.49,-421.01 270.27,-414.23"/>
</a>
</g>
</g>
<!-- Node24 -->
<g id="Node000024" class="node">
<title>Node24</title>
<g id="a_Node000024"><a xlink:href="capability_8h_source.html" target="_top" xlink:title=" ">
<polygon fill="white" stroke="#666666" points="419,-415 327,-415 327,-396 419,-396 419,-415"/>
<text text-anchor="middle" x="373" y="-403" font-family="Helvetica,sans-Serif" font-size="10.00">cxx/capability.h</text>
</a>
</g>
</g>
<!-- Node21&#45;&gt;Node24 -->
<g id="edge49_Node000021_Node000024" class="edge">
<title>Node21&#45;&gt;Node24</title>
<g id="a_edge49_Node000021_Node000024"><a xlink:title=" ">
<path fill="none" stroke="#63b8ff" d="M420,-450.98C411.81,-443.23 399.49,-431.58 389.53,-422.14"/>
<polygon fill="#63b8ff" stroke="#63b8ff" points="391.83,-419.5 382.16,-415.17 387.02,-424.59 391.83,-419.5"/>
</a>
</g>
</g>
<!-- Node23&#45;&gt;Node13 -->
<g id="edge47_Node000023_Node000013" class="edge">
<title>Node23&#45;&gt;Node13</title>
<g id="a_edge47_Node000023_Node000013"><a xlink:title=" ">
<path fill="none" stroke="#63b8ff" d="M248.88,-395.99C284.51,-382.14 357.31,-353.86 419,-330 500.68,-298.4 596.97,-261.31 645.56,-242.6"/>
<polygon fill="#63b8ff" stroke="#63b8ff" points="646.83,-245.86 654.91,-239 644.32,-239.33 646.83,-245.86"/>
</a>
</g>
</g>
<!-- Node23&#45;&gt;Node16 -->
<g id="edge48_Node000023_Node000016" class="edge">
<title>Node23&#45;&gt;Node16</title>
<g id="a_edge48_Node000023_Node000016"><a xlink:title=" ">
<path fill="none" stroke="#63b8ff" d="M231.69,-395.63C246.15,-368.29 290.24,-284.9 309.65,-248.18"/>
<polygon fill="#63b8ff" stroke="#63b8ff" points="312.85,-249.62 314.43,-239.14 306.66,-246.35 312.85,-249.62"/>
</a>
</g>
</g>
<!-- Node23&#45;&gt;Node22 -->
<g id="edge46_Node000023_Node000022" class="edge">
<title>Node23&#45;&gt;Node22</title>
<g id="a_edge46_Node000023_Node000022"><a xlink:title=" ">
<path fill="none" stroke="#63b8ff" d="M216.38,-395.87C205.1,-386.71 187.08,-372.06 173.47,-361.01"/>
<polygon fill="#63b8ff" stroke="#63b8ff" points="175.64,-358.26 165.67,-354.67 171.22,-363.69 175.64,-358.26"/>
</a>
</g>
</g>
<!-- Node24&#45;&gt;Node6 -->
<g id="edge51_Node000024_Node000006" class="edge">
<title>Node24&#45;&gt;Node6</title>
<g id="a_edge51_Node000024_Node000006"><a xlink:title=" ">
<path fill="none" stroke="#63b8ff" d="M378.14,-395.63C386.4,-381.5 403.29,-353.14 419,-330 454.09,-278.33 499.19,-219.81 521.02,-191.94"/>
<polygon fill="#63b8ff" stroke="#63b8ff" points="523.82,-194.05 527.25,-184.02 518.32,-189.72 523.82,-194.05"/>
</a>
</g>
</g>
<!-- Node24&#45;&gt;Node10 -->
<g id="edge50_Node000024_Node000010" class="edge">
<title>Node24&#45;&gt;Node10</title>
<g id="a_edge50_Node000024_Node000010"><a xlink:title=" ">
<path fill="none" stroke="#63b8ff" d="M353.94,-395.96C320.79,-379.64 256,-340.69 256,-285.5 256,-285.5 256,-285.5 256,-228.5 256,-192.89 279.77,-156.99 295.77,-136.86"/>
<polygon fill="#63b8ff" stroke="#63b8ff" points="298.59,-138.95 302.26,-129.01 293.19,-134.49 298.59,-138.95"/>
</a>
</g>
</g>
<!-- Node24&#45;&gt;Node25 -->
<g id="edge52_Node000024_Node000025" class="edge">
<title>Node24&#45;&gt;Node25</title>
<g id="a_edge52_Node000024_Node000025"><a xlink:title=" ">
<path fill="none" stroke="#63b8ff" d="M386.87,-395.87C402,-386.45 426.46,-371.23 444.38,-360.08"/>
<polygon fill="#63b8ff" stroke="#63b8ff" points="446.43,-362.92 453.07,-354.67 442.73,-356.98 446.43,-362.92"/>
</a>
</g>
</g>
<!-- Node25&#45;&gt;Node6 -->
<g id="edge53_Node000025_Node000006" class="edge">
<title>Node25&#45;&gt;Node6</title>
<g id="a_edge53_Node000025_Node000006"><a xlink:title=" ">
<path fill="none" stroke="#63b8ff" d="M470.41,-335.41C480.85,-309.17 512.48,-229.61 526.81,-193.58"/>
<polygon fill="#63b8ff" stroke="#63b8ff" points="530.07,-194.86 530.51,-184.27 523.56,-192.27 530.07,-194.86"/>
</a>
</g>
</g>
<!-- Node25&#45;&gt;Node13 -->
<g id="edge54_Node000025_Node000013" class="edge">
<title>Node25&#45;&gt;Node13</title>
<g id="a_edge54_Node000025_Node000013"><a xlink:title=" ">
<path fill="none" stroke="#63b8ff" d="M482.78,-335.47C519.04,-315.87 608.51,-267.52 652.19,-243.91"/>
<polygon fill="#63b8ff" stroke="#63b8ff" points="653.9,-246.96 661.03,-239.13 650.57,-240.81 653.9,-246.96"/>
</a>
</g>
</g>
<!-- Node25&#45;&gt;Node15 -->
<g id="edge55_Node000025_Node000015" class="edge">
<title>Node25&#45;&gt;Node15</title>
<g id="a_edge55_Node000025_Node000015"><a xlink:title=" ">
<path fill="none" stroke="#63b8ff" d="M506.19,-338.01C577.48,-327.13 728.01,-304.13 804.02,-292.52"/>
<polygon fill="#63b8ff" stroke="#63b8ff" points="804.88,-295.93 814.24,-290.96 803.82,-289.01 804.88,-295.93"/>
</a>
</g>
</g>
<!-- Node26&#45;&gt;Node20 -->
<g id="edge58_Node000026_Node000020" class="edge">
<title>Node26&#45;&gt;Node20</title>
<g id="a_edge58_Node000026_Node000020"><a xlink:title=" ">
<path fill="none" stroke="#63b8ff" d="M401.21,-615.66C424.61,-597.22 478.87,-554.45 507.88,-531.57"/>
<polygon fill="#63b8ff" stroke="#63b8ff" points="510.33,-534.1 516.02,-525.16 506,-528.6 510.33,-534.1"/>
</a>
</g>
</g>
<!-- Node26&#45;&gt;Node27 -->
<g id="edge59_Node000026_Node000027" class="edge">
<title>Node26&#45;&gt;Node27</title>
<g id="a_edge59_Node000026_Node000027"><a xlink:title=" ">
<path fill="none" stroke="#63b8ff" d="M389.83,-615.75C389.7,-608.8 389.52,-598.85 389.35,-590.13"/>
<polygon fill="#63b8ff" stroke="#63b8ff" points="392.85,-590.02 389.16,-580.09 385.85,-590.15 392.85,-590.02"/>
</a>
</g>
</g>
<!-- Node29 -->
<g id="Node000029" class="node">
<title>Node29</title>
<g id="a_Node000029"><a xlink:href="ipc__string_source.html" target="_top" xlink:title=" ">
<polygon fill="white" stroke="#666666" points="184,-580 100,-580 100,-561 184,-561 184,-580"/>
<text text-anchor="middle" x="142" y="-568" font-family="Helvetica,sans-Serif" font-size="10.00">cxx/ipc_string</text>
</a>
</g>
</g>
<!-- Node26&#45;&gt;Node29 -->
<g id="edge66_Node000026_Node000029" class="edge">
<title>Node26&#45;&gt;Node29</title>
<g id="a_edge66_Node000026_Node000029"><a xlink:title=" ">
<path fill="none" stroke="#63b8ff" d="M352.87,-616.57C309.98,-607.4 239.22,-592.28 191.63,-582.11"/>
<polygon fill="#63b8ff" stroke="#63b8ff" points="192.36,-578.68 181.85,-580.02 190.9,-585.53 192.36,-578.68"/>
</a>
</g>
</g>
<!-- Node27&#45;&gt;Node21 -->
<g id="edge65_Node000027_Node000021" class="edge">
<title>Node27&#45;&gt;Node21</title>
<g id="a_edge65_Node000027_Node000021"><a xlink:title=" ">
<path fill="none" stroke="#63b8ff" d="M392.27,-560.66C398.81,-543.01 413.6,-503.09 422.28,-479.64"/>
<polygon fill="#63b8ff" stroke="#63b8ff" points="425.6,-480.75 425.79,-470.16 419.04,-478.32 425.6,-480.75"/>
</a>
</g>
</g>
<!-- Node27&#45;&gt;Node23 -->
<g id="edge60_Node000027_Node000023" class="edge">
<title>Node27&#45;&gt;Node23</title>
<g id="a_edge60_Node000027_Node000023"><a xlink:title=" ">
<path fill="none" stroke="#63b8ff" d="M387.94,-560.75C384.87,-539.16 374.06,-482.79 342,-451 325.32,-434.46 301.82,-423.93 280.41,-417.29"/>
<polygon fill="#63b8ff" stroke="#63b8ff" points="281.33,-413.91 270.75,-414.5 279.39,-420.64 281.33,-413.91"/>
</a>
</g>
</g>
<!-- Node27&#45;&gt;Node28 -->
<g id="edge61_Node000027_Node000028" class="edge">
<title>Node27&#45;&gt;Node28</title>
<g id="a_edge61_Node000027_Node000028"><a xlink:title=" ">
<path fill="none" stroke="#63b8ff" d="M379.75,-560.66C360.62,-542.38 316.47,-500.18 292.39,-477.17"/>
<polygon fill="#63b8ff" stroke="#63b8ff" points="294.71,-474.54 285.06,-470.16 289.87,-479.6 294.71,-474.54"/>
</a>
</g>
</g>
<!-- Node28&#45;&gt;Node22 -->
<g id="edge63_Node000028_Node000022" class="edge">
<title>Node28&#45;&gt;Node22</title>
<g id="a_edge63_Node000028_Node000022"><a xlink:title=" ">
<path fill="none" stroke="#63b8ff" d="M236.14,-450.96C214.9,-444.46 189.94,-433.4 174,-415 161.94,-401.08 157.48,-380.15 155.85,-364.99"/>
<polygon fill="#63b8ff" stroke="#63b8ff" points="159.32,-364.45 155.09,-354.74 152.34,-364.97 159.32,-364.45"/>
</a>
</g>
</g>
<!-- Node28&#45;&gt;Node23 -->
<g id="edge64_Node000028_Node000023" class="edge">
<title>Node28&#45;&gt;Node23</title>
<g id="a_edge64_Node000028_Node000023"><a xlink:title=" ">
<path fill="none" stroke="#63b8ff" d="M267.91,-450.75C260.84,-443.11 250.41,-431.82 241.85,-422.56"/>
<polygon fill="#63b8ff" stroke="#63b8ff" points="244.3,-420.06 234.94,-415.09 239.16,-424.81 244.3,-420.06"/>
</a>
</g>
</g>
<!-- Node28&#45;&gt;Node24 -->
<g id="edge62_Node000028_Node000024" class="edge">
<title>Node28&#45;&gt;Node24</title>
<g id="a_edge62_Node000028_Node000024"><a xlink:title=" ">
<path fill="none" stroke="#63b8ff" d="M291.58,-450.98C306.77,-442.69 330.1,-429.94 347.9,-420.22"/>
<polygon fill="#63b8ff" stroke="#63b8ff" points="350.03,-423.04 357.13,-415.17 346.68,-416.89 350.03,-423.04"/>
</a>
</g>
</g>
<!-- Node29&#45;&gt;Node22 -->
<g id="edge67_Node000029_Node000022" class="edge">
<title>Node29&#45;&gt;Node22</title>
<g id="a_edge67_Node000029_Node000022"><a xlink:title=" ">
<path fill="none" stroke="#63b8ff" d="M127.93,-560.89C116.65,-553.1 101.66,-540.48 95,-525 91.66,-517.24 93.49,-514.31 95,-506 104.76,-452.18 131.58,-392.9 145.83,-363.93"/>
<polygon fill="#63b8ff" stroke="#63b8ff" points="149.1,-365.21 150.45,-354.7 142.84,-362.07 149.1,-365.21"/>
</a>
</g>
</g>
<!-- Node29&#45;&gt;Node23 -->
<g id="edge68_Node000029_Node000023" class="edge">
<title>Node29&#45;&gt;Node23</title>
<g id="a_edge68_Node000029_Node000023"><a xlink:title=" ">
<path fill="none" stroke="#63b8ff" d="M149.45,-560.71C156.59,-552.01 167.37,-538.14 175,-525 185.4,-507.08 207.8,-453.47 219.52,-424.9"/>
<polygon fill="#63b8ff" stroke="#63b8ff" points="222.9,-425.89 223.44,-415.3 216.42,-423.24 222.9,-425.89"/>
</a>
</g>
</g>
<!-- Node30 -->
<g id="Node000030" class="node">
<title>Node30</title>
<g id="a_Node000030"><a xlink:href="ipc__array_source.html" target="_top" xlink:title=" ">
<polygon fill="white" stroke="#666666" points="166,-525 104,-525 104,-506 166,-506 166,-525"/>
<text text-anchor="middle" x="135" y="-513" font-family="Helvetica,sans-Serif" font-size="10.00">ipc_array</text>
</a>
</g>
</g>
<!-- Node29&#45;&gt;Node30 -->
<g id="edge69_Node000029_Node000030" class="edge">
<title>Node29&#45;&gt;Node30</title>
<g id="a_edge69_Node000029_Node000030"><a xlink:title=" ">
<path fill="none" stroke="#63b8ff" d="M140.84,-560.75C139.93,-553.8 138.61,-543.85 137.46,-535.13"/>
<polygon fill="#63b8ff" stroke="#63b8ff" points="140.91,-534.54 136.13,-525.09 133.97,-535.46 140.91,-534.54"/>
</a>
</g>
</g>
<!-- Node30&#45;&gt;Node22 -->
<g id="edge70_Node000030_Node000022" class="edge">
<title>Node30&#45;&gt;Node22</title>
<g id="a_edge70_Node000030_Node000022"><a xlink:title=" ">
<path fill="none" stroke="#63b8ff" d="M136.02,-505.91C139.11,-479.89 148.42,-401.47 152.74,-365.01"/>
<polygon fill="#63b8ff" stroke="#63b8ff" points="156.26,-365.12 153.96,-354.77 149.3,-364.29 156.26,-365.12"/>
</a>
</g>
</g>
<!-- Node30&#45;&gt;Node23 -->
<g id="edge71_Node000030_Node000023" class="edge">
<title>Node30&#45;&gt;Node23</title>
<g id="a_edge71_Node000030_Node000023"><a xlink:title=" ">
<path fill="none" stroke="#63b8ff" d="M139.61,-505.76C146.55,-493 160.54,-468.86 176,-451 185.28,-440.28 197.14,-429.78 207.09,-421.67"/>
<polygon fill="#63b8ff" stroke="#63b8ff" points="209.56,-424.18 215.22,-415.22 205.21,-418.69 209.56,-424.18"/>
</a>
</g>
</g>
<!-- Node30&#45;&gt;Node28 -->
<g id="edge72_Node000030_Node000028" class="edge">
<title>Node30&#45;&gt;Node28</title>
<g id="a_edge72_Node000030_Node000028"><a xlink:title=" ">
<path fill="none" stroke="#63b8ff" d="M157.65,-505.98C180.85,-497.27 217.12,-483.63 243.4,-473.75"/>
<polygon fill="#63b8ff" stroke="#63b8ff" points="244.8,-476.97 252.93,-470.17 242.34,-470.41 244.8,-476.97"/>
</a>
</g>
</g>
<!-- Node31&#45;&gt;Node6 -->
<g id="edge75_Node000031_Node000006" class="edge">
<title>Node31&#45;&gt;Node6</title>
<g id="a_edge75_Node000031_Node000006"><a xlink:title=" ">
<path fill="none" stroke="#63b8ff" d="M585.89,-725.93C592.27,-717.4 601.31,-703.65 605,-690 607.21,-681.85 605.53,-679.43 605,-671 592.31,-469.36 591.16,-417.38 548,-220 546.1,-211.3 543.24,-201.86 540.61,-193.92"/>
<polygon fill="#63b8ff" stroke="#63b8ff" points="543.84,-192.55 537.26,-184.24 537.22,-194.83 543.84,-192.55"/>
</a>
</g>
</g>
<!-- Node31&#45;&gt;Node18 -->
<g id="edge74_Node000031_Node000018" class="edge">
<title>Node31&#45;&gt;Node18</title>
<g id="a_edge74_Node000031_Node000018"><a xlink:title=" ">
<path fill="none" stroke="#63b8ff" d="M580.84,-725.66C591.15,-676.23 641.67,-433.92 656.13,-364.57"/>
<polygon fill="#63b8ff" stroke="#63b8ff" points="659.58,-365.17 658.19,-354.66 652.73,-363.74 659.58,-365.17"/>
</a>
</g>
</g>
<!-- Node31&#45;&gt;Node19 -->
<g id="edge76_Node000031_Node000019" class="edge">
<title>Node31&#45;&gt;Node19</title>
<g id="a_edge76_Node000031_Node000019"><a xlink:title=" ">
<path fill="none" stroke="#63b8ff" d="M553.29,-725.98C526.55,-717.13 484.47,-703.19 454.55,-693.28"/>
<polygon fill="#63b8ff" stroke="#63b8ff" points="455.5,-689.9 444.91,-690.08 453.3,-696.55 455.5,-689.9"/>
</a>
</g>
</g>
<!-- Node31&#45;&gt;Node27 -->
<g id="edge77_Node000031_Node000027" class="edge">
<title>Node31&#45;&gt;Node27</title>
<g id="a_edge77_Node000031_Node000027"><a xlink:title=" ">
<path fill="none" stroke="#63b8ff" d="M576.14,-725.69C568.65,-703.95 546.4,-647.26 509,-616 489.01,-599.29 462.16,-588.55 438.92,-581.82"/>
<polygon fill="#63b8ff" stroke="#63b8ff" points="439.79,-578.43 429.22,-579.18 437.95,-585.18 439.79,-578.43"/>
</a>
</g>
</g>
<!-- Node32&#45;&gt;Node15 -->
<g id="edge81_Node000032_Node000015" class="edge">
<title>Node32&#45;&gt;Node15</title>
<g id="a_edge81_Node000032_Node000015"><a xlink:title=" ">
<path fill="none" stroke="#63b8ff" d="M923.34,-785.37C980.98,-776.99 1080,-752.29 1080,-681.5 1080,-681.5 1080,-681.5 1080,-404.5 1080,-322.46 963.13,-296.91 896.01,-289.01"/>
<polygon fill="#63b8ff" stroke="#63b8ff" points="896.01,-285.49 885.69,-287.88 895.25,-292.44 896.01,-285.49"/>
</a>
</g>
</g>
</g>
</svg>
