<?xml version="1.0" encoding="UTF-8" standalone="no"?>
<!DOCTYPE svg PUBLIC "-//W3C//DTD SVG 1.1//EN"
 "http://www.w3.org/Graphics/SVG/1.1/DTD/svg11.dtd">
<!-- Generated by graphviz version 2.43.0 (0)
 -->
<!-- Title: l4/sys/vcon Pages: 1 -->
<svg width="1332pt" height="346pt"
 viewBox="0.00 0.00 1332.00 346.00" xmlns="http://www.w3.org/2000/svg" xmlns:xlink="http://www.w3.org/1999/xlink">
<g id="graph0" class="graph" transform="scale(1 1) rotate(0) translate(4 342)">
<title>l4/sys/vcon</title>
<!-- Node1 -->
<g id="Node000001" class="node">
<title>Node1</title>
<g id="a_Node000001"><a xlink:title="C++ Virtual console interface.">
<polygon fill="#999999" stroke="#666666" points="536,-338 465,-338 465,-319 536,-319 536,-338"/>
<text text-anchor="middle" x="500.5" y="-326" font-family="Helvetica,sans-Serif" font-size="10.00">l4/sys/vcon</text>
</a>
</g>
</g>
<!-- Node2 -->
<g id="Node000002" class="node">
<title>Node2</title>
<g id="a_Node000002"><a xlink:href="vcon__stream_8h_source.html" target="_top" xlink:title=" ">
<polygon fill="white" stroke="#666666" points="252,-228 133,-228 133,-198 252,-198 252,-228"/>
<text text-anchor="start" x="141" y="-216" font-family="Helvetica,sans-Serif" font-size="10.00">l4/l4re_vfs/impl/vcon</text>
<text text-anchor="middle" x="192.5" y="-205" font-family="Helvetica,sans-Serif" font-size="10.00">_stream.h</text>
</a>
</g>
</g>
<!-- Node1&#45;&gt;Node2 -->
<g id="edge1_Node000001_Node000002" class="edge">
<title>Node1&#45;&gt;Node2</title>
<g id="a_edge1_Node000001_Node000002"><a xlink:title=" ">
<path fill="none" stroke="#63b8ff" d="M467.69,-315.41C410.24,-294.24 291.77,-250.58 230.72,-228.09"/>
<polygon fill="#63b8ff" stroke="#63b8ff" points="466.76,-318.8 477.35,-318.97 469.18,-312.23 466.76,-318.8"/>
</a>
</g>
</g>
<!-- Node5 -->
<g id="Node000005" class="node">
<title>Node5</title>
<g id="a_Node000005"><a xlink:href="log.html" target="_top" xlink:title="Log interface.">
<polygon fill="white" stroke="#666666" points="528.5,-283 472.5,-283 472.5,-264 528.5,-264 528.5,-283"/>
<text text-anchor="middle" x="500.5" y="-271" font-family="Helvetica,sans-Serif" font-size="10.00">l4/re/log</text>
</a>
</g>
</g>
<!-- Node1&#45;&gt;Node5 -->
<g id="edge4_Node000001_Node000005" class="edge">
<title>Node1&#45;&gt;Node5</title>
<g id="a_edge4_Node000001_Node000005"><a xlink:title=" ">
<path fill="none" stroke="#63b8ff" d="M500.5,-308.66C500.5,-299.93 500.5,-289.99 500.5,-283.09"/>
<polygon fill="#63b8ff" stroke="#63b8ff" points="497,-308.75 500.5,-318.75 504,-308.75 497,-308.75"/>
</a>
</g>
</g>
<!-- Node21 -->
<g id="Node000021" class="node">
<title>Node21</title>
<g id="a_Node000021"><a xlink:href="vcon__svr_source.html" target="_top" xlink:title=" ">
<polygon fill="white" stroke="#666666" points="650.5,-283 546.5,-283 546.5,-264 650.5,-264 650.5,-283"/>
<text text-anchor="middle" x="598.5" y="-271" font-family="Helvetica,sans-Serif" font-size="10.00">l4/re/util/vcon_svr</text>
</a>
</g>
</g>
<!-- Node1&#45;&gt;Node21 -->
<g id="edge26_Node000001_Node000021" class="edge">
<title>Node1&#45;&gt;Node21</title>
<g id="a_edge26_Node000001_Node000021"><a xlink:title=" ">
<path fill="none" stroke="#63b8ff" d="M525.53,-313.97C543.44,-304.28 567.03,-291.52 582.47,-283.17"/>
<polygon fill="#63b8ff" stroke="#63b8ff" points="523.38,-311.15 516.25,-318.98 526.71,-317.31 523.38,-311.15"/>
</a>
</g>
</g>
<!-- Node3 -->
<g id="Node000003" class="node">
<title>Node3</title>
<g id="a_Node000003"><a xlink:href="vcon__stream__impl_8h_source.html" target="_top" xlink:title=" ">
<polygon fill="white" stroke="#666666" points="119,-162 0,-162 0,-132 119,-132 119,-162"/>
<text text-anchor="start" x="8" y="-150" font-family="Helvetica,sans-Serif" font-size="10.00">l4/l4re_vfs/impl/vcon</text>
<text text-anchor="middle" x="59.5" y="-139" font-family="Helvetica,sans-Serif" font-size="10.00">_stream_impl.h</text>
</a>
</g>
</g>
<!-- Node2&#45;&gt;Node3 -->
<g id="edge2_Node000002_Node000003" class="edge">
<title>Node2&#45;&gt;Node3</title>
<g id="a_edge2_Node000002_Node000003"><a xlink:title=" ">
<path fill="none" stroke="#63b8ff" d="M154.08,-193.51C133.22,-183.47 107.83,-171.26 88.62,-162.01"/>
<polygon fill="#63b8ff" stroke="#63b8ff" points="152.78,-196.77 163.31,-197.95 155.82,-190.46 152.78,-196.77"/>
</a>
</g>
</g>
<!-- Node4 -->
<g id="Node000004" class="node">
<title>Node4</title>
<g id="a_Node000004"><a xlink:href="vfs__impl_8h_source.html" target="_top" xlink:title=" ">
<polygon fill="white" stroke="#666666" points="247.5,-162 137.5,-162 137.5,-132 247.5,-132 247.5,-162"/>
<text text-anchor="start" x="145.5" y="-150" font-family="Helvetica,sans-Serif" font-size="10.00">l4/l4re_vfs/impl/vfs</text>
<text text-anchor="middle" x="192.5" y="-139" font-family="Helvetica,sans-Serif" font-size="10.00">_impl.h</text>
</a>
</g>
</g>
<!-- Node2&#45;&gt;Node4 -->
<g id="edge3_Node000002_Node000004" class="edge">
<title>Node2&#45;&gt;Node4</title>
<g id="a_edge3_Node000002_Node000004"><a xlink:title=" ">
<path fill="none" stroke="#63b8ff" d="M192.5,-187.54C192.5,-178.96 192.5,-169.61 192.5,-162.16"/>
<polygon fill="#63b8ff" stroke="#63b8ff" points="189,-187.8 192.5,-197.8 196,-187.8 189,-187.8"/>
</a>
</g>
</g>
<!-- Node6 -->
<g id="Node000006" class="node">
<title>Node6</title>
<g id="a_Node000006"><a xlink:href="env.html" target="_top" xlink:title="Environment interface.">
<polygon fill="white" stroke="#666666" points="675,-222.5 616,-222.5 616,-203.5 675,-203.5 675,-222.5"/>
<text text-anchor="middle" x="645.5" y="-210.5" font-family="Helvetica,sans-Serif" font-size="10.00">l4/re/env</text>
</a>
</g>
</g>
<!-- Node5&#45;&gt;Node6 -->
<g id="edge5_Node000005_Node000006" class="edge">
<title>Node5&#45;&gt;Node6</title>
<g id="a_edge5_Node000005_Node000006"><a xlink:title=" ">
<path fill="none" stroke="#63b8ff" d="M530.91,-260.23C558.93,-248.92 599.79,-232.44 624.39,-222.52"/>
<polygon fill="#63b8ff" stroke="#63b8ff" points="529.55,-257.01 521.58,-263.99 532.17,-263.5 529.55,-257.01"/>
</a>
</g>
</g>
<!-- Node6&#45;&gt;Node3 -->
<g id="edge7_Node000006_Node000003" class="edge">
<title>Node6&#45;&gt;Node3</title>
<g id="a_edge7_Node000006_Node000003"><a xlink:title=" ">
<path fill="none" stroke="#63b8ff" d="M605.73,-209.57C518.8,-203.94 305.51,-188.44 128.5,-162 125.48,-161.55 122.39,-161.05 119.27,-160.52"/>
<polygon fill="#63b8ff" stroke="#63b8ff" points="605.73,-213.07 615.93,-210.22 606.18,-206.09 605.73,-213.07"/>
</a>
</g>
</g>
<!-- Node6&#45;&gt;Node4 -->
<g id="edge8_Node000006_Node000004" class="edge">
<title>Node6&#45;&gt;Node4</title>
<g id="a_edge8_Node000006_Node000004"><a xlink:title=" ">
<path fill="none" stroke="#63b8ff" d="M605.37,-207.72C535.35,-200.04 386.4,-182.78 261.5,-162 257.04,-161.26 252.43,-160.44 247.8,-159.58"/>
<polygon fill="#63b8ff" stroke="#63b8ff" points="605.2,-211.22 615.52,-208.83 605.96,-204.26 605.2,-211.22"/>
</a>
</g>
</g>
<!-- Node7 -->
<g id="Node000007" class="node">
<title>Node7</title>
<g id="a_Node000007"><a xlink:href="ro__file__impl_8h_source.html" target="_top" xlink:title=" ">
<polygon fill="white" stroke="#666666" points="868,-162 763,-162 763,-132 868,-132 868,-162"/>
<text text-anchor="start" x="771" y="-150" font-family="Helvetica,sans-Serif" font-size="10.00">l4/l4re_vfs/impl/ro</text>
<text text-anchor="middle" x="815.5" y="-139" font-family="Helvetica,sans-Serif" font-size="10.00">_file_impl.h</text>
</a>
</g>
</g>
<!-- Node6&#45;&gt;Node7 -->
<g id="edge6_Node000006_Node000007" class="edge">
<title>Node6&#45;&gt;Node7</title>
<g id="a_edge6_Node000006_Node000007"><a xlink:title=" ">
<path fill="none" stroke="#63b8ff" d="M677.94,-199.79C706.48,-189.04 748.04,-173.4 778.01,-162.12"/>
<polygon fill="#63b8ff" stroke="#63b8ff" points="676.55,-196.57 668.43,-203.37 679.02,-203.12 676.55,-196.57"/>
</a>
</g>
</g>
<!-- Node8 -->
<g id="Node000008" class="node">
<title>Node8</title>
<g id="a_Node000008"><a xlink:href="client_2l4virtio_source.html" target="_top" xlink:title=" ">
<polygon fill="white" stroke="#666666" points="1170,-96 1077,-96 1077,-66 1170,-66 1170,-96"/>
<text text-anchor="start" x="1085" y="-84" font-family="Helvetica,sans-Serif" font-size="10.00">l4/l4virtio/client</text>
<text text-anchor="middle" x="1123.5" y="-73" font-family="Helvetica,sans-Serif" font-size="10.00">/l4virtio</text>
</a>
</g>
</g>
<!-- Node6&#45;&gt;Node8 -->
<g id="edge9_Node000006_Node000008" class="edge">
<title>Node6&#45;&gt;Node8</title>
<g id="a_edge9_Node000006_Node000008"><a xlink:title=" ">
<path fill="none" stroke="#63b8ff" d="M685.26,-210.99C797.58,-207.73 1111.06,-195.66 1141.5,-162 1158.02,-143.73 1143.99,-113.62 1133.16,-96.01"/>
<polygon fill="#63b8ff" stroke="#63b8ff" points="684.93,-207.5 675.04,-211.28 685.13,-214.49 684.93,-207.5"/>
</a>
</g>
</g>
<!-- Node9 -->
<g id="Node000009" class="node">
<title>Node9</title>
<g id="a_Node000009"><a xlink:href="client_2virtio-block_source.html" target="_top" xlink:title=" ">
<polygon fill="white" stroke="#666666" points="1095,-30 1002,-30 1002,0 1095,0 1095,-30"/>
<text text-anchor="start" x="1010" y="-18" font-family="Helvetica,sans-Serif" font-size="10.00">l4/l4virtio/client</text>
<text text-anchor="middle" x="1048.5" y="-7" font-family="Helvetica,sans-Serif" font-size="10.00">/virtio&#45;block</text>
</a>
</g>
</g>
<!-- Node6&#45;&gt;Node9 -->
<g id="edge12_Node000006_Node000009" class="edge">
<title>Node6&#45;&gt;Node9</title>
<g id="a_edge12_Node000006_Node000009"><a xlink:title=" ">
<path fill="none" stroke="#63b8ff" d="M605.8,-212.55C522.62,-212.77 334.44,-208.03 294.5,-162 285.76,-151.93 288.18,-143.74 294.5,-132 319.74,-85.11 344.12,-83.25 394.5,-66 507.08,-27.46 871.74,-18.52 1001.85,-16.54"/>
<polygon fill="#63b8ff" stroke="#63b8ff" points="605.9,-216.05 615.88,-212.5 605.86,-209.05 605.9,-216.05"/>
</a>
</g>
</g>
<!-- Node10 -->
<g id="Node000010" class="node">
<title>Node10</title>
<g id="a_Node000010"><a xlink:href="virtio-net_source.html" target="_top" xlink:title=" ">
<polygon fill="white" stroke="#666666" points="1225,-30 1132,-30 1132,0 1225,0 1225,-30"/>
<text text-anchor="start" x="1140" y="-18" font-family="Helvetica,sans-Serif" font-size="10.00">l4/l4virtio/client</text>
<text text-anchor="middle" x="1178.5" y="-7" font-family="Helvetica,sans-Serif" font-size="10.00">/virtio&#45;net</text>
</a>
</g>
</g>
<!-- Node6&#45;&gt;Node10 -->
<g id="edge13_Node000006_Node000010" class="edge">
<title>Node6&#45;&gt;Node10</title>
<g id="a_edge13_Node000006_Node000010"><a xlink:title=" ">
<path fill="none" stroke="#63b8ff" d="M685.39,-210.61C799.59,-206.29 1121.94,-191.57 1158.5,-162 1197.89,-130.15 1188.31,-60.23 1181.95,-30.18"/>
<polygon fill="#63b8ff" stroke="#63b8ff" points="685.18,-207.12 675.32,-210.98 685.44,-214.11 685.18,-207.12"/>
</a>
</g>
</g>
<!-- Node11 -->
<g id="Node000011" class="node">
<title>Node11</title>
<g id="a_Node000011"><a xlink:href="server_2l4virtio_source.html" target="_top" xlink:title=" ">
<polygon fill="white" stroke="#666666" points="1324,-162 1227,-162 1227,-132 1324,-132 1324,-162"/>
<text text-anchor="start" x="1235" y="-150" font-family="Helvetica,sans-Serif" font-size="10.00">l4/l4virtio/server</text>
<text text-anchor="middle" x="1275.5" y="-139" font-family="Helvetica,sans-Serif" font-size="10.00">/l4virtio</text>
</a>
</g>
</g>
<!-- Node6&#45;&gt;Node11 -->
<g id="edge14_Node000006_Node000011" class="edge">
<title>Node6&#45;&gt;Node11</title>
<g id="a_edge14_Node000006_Node000011"><a xlink:title=" ">
<path fill="none" stroke="#63b8ff" d="M685.25,-210.28C778.04,-205.89 1015.96,-192.37 1212.5,-162 1217.15,-161.28 1221.97,-160.42 1226.78,-159.49"/>
<polygon fill="#63b8ff" stroke="#63b8ff" points="685,-206.79 675.18,-210.75 685.33,-213.78 685,-206.79"/>
</a>
</g>
</g>
<!-- Node13 -->
<g id="Node000013" class="node">
<title>Node13</title>
<g id="a_Node000013"><a xlink:href="env__ns_source.html" target="_top" xlink:title=" ">
<polygon fill="white" stroke="#666666" points="505,-156.5 410,-156.5 410,-137.5 505,-137.5 505,-156.5"/>
<text text-anchor="middle" x="457.5" y="-144.5" font-family="Helvetica,sans-Serif" font-size="10.00">l4/re/util/env_ns</text>
</a>
</g>
</g>
<!-- Node6&#45;&gt;Node13 -->
<g id="edge16_Node000006_Node000013" class="edge">
<title>Node6&#45;&gt;Node13</title>
<g id="a_edge16_Node000006_Node000013"><a xlink:title=" ">
<path fill="none" stroke="#63b8ff" d="M610.25,-200C573.13,-187.36 515.59,-167.78 482.75,-156.6"/>
<polygon fill="#63b8ff" stroke="#63b8ff" points="609.55,-203.46 620.15,-203.37 611.81,-196.83 609.55,-203.46"/>
</a>
</g>
</g>
<!-- Node15 -->
<g id="Node000015" class="node">
<title>Node15</title>
<g id="a_Node000015"><a xlink:href="util_2event.html" target="_top" xlink:title=" ">
<polygon fill="white" stroke="#666666" points="391.5,-156.5 303.5,-156.5 303.5,-137.5 391.5,-137.5 391.5,-156.5"/>
<text text-anchor="middle" x="347.5" y="-144.5" font-family="Helvetica,sans-Serif" font-size="10.00">l4/re/util/event</text>
</a>
</g>
</g>
<!-- Node6&#45;&gt;Node15 -->
<g id="edge18_Node000006_Node000015" class="edge">
<title>Node6&#45;&gt;Node15</title>
<g id="a_edge18_Node000006_Node000015"><a xlink:title=" ">
<path fill="none" stroke="#63b8ff" d="M605.88,-204.63C557.31,-195.44 472.57,-178.86 400.5,-162 393.36,-160.33 385.73,-158.4 378.53,-156.51"/>
<polygon fill="#63b8ff" stroke="#63b8ff" points="605.49,-208.12 615.97,-206.54 606.79,-201.24 605.49,-208.12"/>
</a>
</g>
</g>
<!-- Node16 -->
<g id="Node000016" class="node">
<title>Node16</title>
<g id="a_Node000016"><a xlink:href="icu__svr_source.html" target="_top" xlink:title=" ">
<polygon fill="white" stroke="#666666" points="981,-156.5 886,-156.5 886,-137.5 981,-137.5 981,-156.5"/>
<text text-anchor="middle" x="933.5" y="-144.5" font-family="Helvetica,sans-Serif" font-size="10.00">l4/re/util/icu_svr</text>
</a>
</g>
</g>
<!-- Node6&#45;&gt;Node16 -->
<g id="edge19_Node000006_Node000016" class="edge">
<title>Node6&#45;&gt;Node16</title>
<g id="a_edge19_Node000006_Node000016"><a xlink:title=" ">
<path fill="none" stroke="#63b8ff" d="M685.15,-203.87C731.41,-194.28 810.16,-177.67 877.5,-162 884.82,-160.3 892.66,-158.39 900.08,-156.54"/>
<polygon fill="#63b8ff" stroke="#63b8ff" points="684.32,-200.46 675.23,-205.92 685.74,-207.32 684.32,-200.46"/>
</a>
</g>
</g>
<!-- Node18 -->
<g id="Node000018" class="node">
<title>Node18</title>
<g id="a_Node000018"><a xlink:href="kumem__alloc.html" target="_top" xlink:title="Kumem allocator helper.">
<polygon fill="white" stroke="#666666" points="648,-156.5 523,-156.5 523,-137.5 648,-137.5 648,-156.5"/>
<text text-anchor="middle" x="585.5" y="-144.5" font-family="Helvetica,sans-Serif" font-size="10.00">l4/re/util/kumem_alloc</text>
</a>
</g>
</g>
<!-- Node6&#45;&gt;Node18 -->
<g id="edge21_Node000006_Node000018" class="edge">
<title>Node6&#45;&gt;Node18</title>
<g id="a_edge21_Node000006_Node000018"><a xlink:title=" ">
<path fill="none" stroke="#63b8ff" d="M630.48,-195.98C618.9,-183.62 603.3,-166.99 593.85,-156.91"/>
<polygon fill="#63b8ff" stroke="#63b8ff" points="628.02,-198.47 637.41,-203.37 633.12,-193.68 628.02,-198.47"/>
</a>
</g>
</g>
<!-- Node19 -->
<g id="Node000019" class="node">
<title>Node19</title>
<g id="a_Node000019"><a xlink:href="object__registry_source.html" target="_top" xlink:title=" ">
<polygon fill="white" stroke="#666666" points="1132,-156.5 999,-156.5 999,-137.5 1132,-137.5 1132,-156.5"/>
<text text-anchor="middle" x="1065.5" y="-144.5" font-family="Helvetica,sans-Serif" font-size="10.00">l4/re/util/object_registry</text>
</a>
</g>
</g>
<!-- Node6&#45;&gt;Node19 -->
<g id="edge22_Node000006_Node000019" class="edge">
<title>Node6&#45;&gt;Node19</title>
<g id="a_edge22_Node000006_Node000019"><a xlink:title=" ">
<path fill="none" stroke="#63b8ff" d="M685.2,-206.78C749.46,-198.21 880.21,-180.28 990.5,-162 1000.56,-160.33 1011.36,-158.4 1021.53,-156.52"/>
<polygon fill="#63b8ff" stroke="#63b8ff" points="684.55,-203.34 675.1,-208.12 685.47,-210.27 684.55,-203.34"/>
</a>
</g>
</g>
<!-- Node20 -->
<g id="Node000020" class="node">
<title>Node20</title>
<g id="a_Node000020"><a xlink:href="vcpu.html" target="_top" xlink:title="vCPU support library (C++ interface).">
<polygon fill="white" stroke="#666666" points="744.5,-156.5 666.5,-156.5 666.5,-137.5 744.5,-137.5 744.5,-156.5"/>
<text text-anchor="middle" x="705.5" y="-144.5" font-family="Helvetica,sans-Serif" font-size="10.00">l4/vcpu/vcpu</text>
</a>
</g>
</g>
<!-- Node6&#45;&gt;Node20 -->
<g id="edge25_Node000006_Node000020" class="edge">
<title>Node6&#45;&gt;Node20</title>
<g id="a_edge25_Node000006_Node000020"><a xlink:title=" ">
<path fill="none" stroke="#63b8ff" d="M660.52,-195.98C672.1,-183.62 687.7,-166.99 697.15,-156.91"/>
<polygon fill="#63b8ff" stroke="#63b8ff" points="657.88,-193.68 653.59,-203.37 662.98,-198.47 657.88,-193.68"/>
</a>
</g>
</g>
<!-- Node8&#45;&gt;Node9 -->
<g id="edge10_Node000008_Node000009" class="edge">
<title>Node8&#45;&gt;Node9</title>
<g id="a_edge10_Node000008_Node000009"><a xlink:title=" ">
<path fill="none" stroke="#63b8ff" d="M1099.13,-59.2C1087.99,-49.7 1075.09,-38.69 1065.1,-30.16"/>
<polygon fill="#63b8ff" stroke="#63b8ff" points="1096.98,-61.97 1106.86,-65.8 1101.52,-56.64 1096.98,-61.97"/>
</a>
</g>
</g>
<!-- Node8&#45;&gt;Node10 -->
<g id="edge11_Node000008_Node000010" class="edge">
<title>Node8&#45;&gt;Node10</title>
<g id="a_edge11_Node000008_Node000010"><a xlink:title=" ">
<path fill="none" stroke="#63b8ff" d="M1142.33,-58.09C1150.27,-48.85 1159.28,-38.36 1166.33,-30.16"/>
<polygon fill="#63b8ff" stroke="#63b8ff" points="1139.57,-55.93 1135.71,-65.8 1144.88,-60.49 1139.57,-55.93"/>
</a>
</g>
</g>
<!-- Node12 -->
<g id="Node000012" class="node">
<title>Node12</title>
<g id="a_Node000012"><a xlink:href="server_2virtio-block_source.html" target="_top" xlink:title=" ">
<polygon fill="white" stroke="#666666" points="1324,-96 1227,-96 1227,-66 1324,-66 1324,-96"/>
<text text-anchor="start" x="1235" y="-84" font-family="Helvetica,sans-Serif" font-size="10.00">l4/l4virtio/server</text>
<text text-anchor="middle" x="1275.5" y="-73" font-family="Helvetica,sans-Serif" font-size="10.00">/virtio&#45;block</text>
</a>
</g>
</g>
<!-- Node11&#45;&gt;Node12 -->
<g id="edge15_Node000011_Node000012" class="edge">
<title>Node11&#45;&gt;Node12</title>
<g id="a_edge15_Node000011_Node000012"><a xlink:title=" ">
<path fill="none" stroke="#63b8ff" d="M1275.5,-121.54C1275.5,-112.96 1275.5,-103.61 1275.5,-96.16"/>
<polygon fill="#63b8ff" stroke="#63b8ff" points="1272,-121.8 1275.5,-131.8 1279,-121.8 1272,-121.8"/>
</a>
</g>
</g>
<!-- Node14 -->
<g id="Node000014" class="node">
<title>Node14</title>
<g id="a_Node000014"><a xlink:href="ns__fs__impl_8h_source.html" target="_top" xlink:title=" ">
<polygon fill="white" stroke="#666666" points="511,-96 404,-96 404,-66 511,-66 511,-96"/>
<text text-anchor="start" x="412" y="-84" font-family="Helvetica,sans-Serif" font-size="10.00">l4/l4re_vfs/impl/ns</text>
<text text-anchor="middle" x="457.5" y="-73" font-family="Helvetica,sans-Serif" font-size="10.00">_fs_impl.h</text>
</a>
</g>
</g>
<!-- Node13&#45;&gt;Node14 -->
<g id="edge17_Node000013_Node000014" class="edge">
<title>Node13&#45;&gt;Node14</title>
<g id="a_edge17_Node000013_Node000014"><a xlink:title=" ">
<path fill="none" stroke="#63b8ff" d="M457.5,-127.35C457.5,-117.47 457.5,-105.51 457.5,-96.36"/>
<polygon fill="#63b8ff" stroke="#63b8ff" points="454,-127.37 457.5,-137.37 461,-127.37 454,-127.37"/>
</a>
</g>
</g>
<!-- Node17 -->
<g id="Node000017" class="node">
<title>Node17</title>
<g id="a_Node000017"><a xlink:href="event__svr_source.html" target="_top" xlink:title=" ">
<polygon fill="white" stroke="#666666" points="987.5,-90.5 879.5,-90.5 879.5,-71.5 987.5,-71.5 987.5,-90.5"/>
<text text-anchor="middle" x="933.5" y="-78.5" font-family="Helvetica,sans-Serif" font-size="10.00">l4/re/util/event_svr</text>
</a>
</g>
</g>
<!-- Node16&#45;&gt;Node17 -->
<g id="edge20_Node000016_Node000017" class="edge">
<title>Node16&#45;&gt;Node17</title>
<g id="a_edge20_Node000016_Node000017"><a xlink:title=" ">
<path fill="none" stroke="#63b8ff" d="M933.5,-127.08C933.5,-115.13 933.5,-100.22 933.5,-90.91"/>
<polygon fill="#63b8ff" stroke="#63b8ff" points="930,-127.37 933.5,-137.37 937,-127.37 930,-127.37"/>
</a>
</g>
</g>
<!-- Node19&#45;&gt;Node8 -->
<g id="edge23_Node000019_Node000008" class="edge">
<title>Node19&#45;&gt;Node8</title>
<g id="a_edge23_Node000019_Node000008"><a xlink:title=" ">
<path fill="none" stroke="#63b8ff" d="M1080.14,-129.85C1089.48,-119.54 1101.48,-106.3 1110.49,-96.36"/>
<polygon fill="#63b8ff" stroke="#63b8ff" points="1077.44,-127.61 1073.32,-137.37 1082.63,-132.31 1077.44,-127.61"/>
</a>
</g>
</g>
<!-- Node19&#45;&gt;Node9 -->
<g id="edge24_Node000019_Node000009" class="edge">
<title>Node19&#45;&gt;Node9</title>
<g id="a_edge24_Node000019_Node000009"><a xlink:title=" ">
<path fill="none" stroke="#63b8ff" d="M1063.06,-127.32C1059.62,-101 1053.42,-53.61 1050.34,-30.07"/>
<polygon fill="#63b8ff" stroke="#63b8ff" points="1059.62,-128.01 1064.38,-137.47 1066.56,-127.1 1059.62,-128.01"/>
</a>
</g>
</g>
</g>
</svg>
