<?xml version="1.0" encoding="UTF-8" standalone="no"?>
<!DOCTYPE svg PUBLIC "-//W3C//DTD SVG 1.1//EN"
 "http://www.w3.org/Graphics/SVG/1.1/DTD/svg11.dtd">
<!-- Generated by graphviz version 2.42.4 (0)
 -->
<!-- Title: l4/sys/vcon Pages: 1 -->
<svg width="1446pt" height="346pt"
 viewBox="0.00 0.00 1445.50 346.00" xmlns="http://www.w3.org/2000/svg" xmlns:xlink="http://www.w3.org/1999/xlink">
<g id="graph0" class="graph" transform="scale(1 1) rotate(0) translate(4 342)">
<title>l4/sys/vcon</title>
<!-- Node1 -->
<g id="Node000001" class="node">
<title>Node1</title>
<g id="a_Node000001"><a xlink:title="C++ Virtual console interface.">
<polygon fill="#999999" stroke="#666666" points="597,-338 526,-338 526,-319 597,-319 597,-338"/>
<text text-anchor="middle" x="561.5" y="-326" font-family="Helvetica,sans-Serif" font-size="10.00">l4/sys/vcon</text>
</a>
</g>
</g>
<!-- Node2 -->
<g id="Node000002" class="node">
<title>Node2</title>
<g id="a_Node000002"><a xlink:href="vcon__stream_8h_source.html" target="_top" xlink:title=" ">
<polygon fill="white" stroke="#666666" points="252,-228 133,-228 133,-198 252,-198 252,-228"/>
<text text-anchor="start" x="141" y="-216" font-family="Helvetica,sans-Serif" font-size="10.00">l4/l4re_vfs/impl/vcon</text>
<text text-anchor="middle" x="192.5" y="-205" font-family="Helvetica,sans-Serif" font-size="10.00">_stream.h</text>
</a>
</g>
</g>
<!-- Node1&#45;&gt;Node2 -->
<g id="edge1_Node000001_Node000002" class="edge">
<title>Node1&#45;&gt;Node2</title>
<g id="a_edge1_Node000001_Node000002"><a xlink:title=" ">
<path fill="none" stroke="#63b8ff" d="M523.88,-315.93C455.72,-294.96 312.04,-250.77 238.29,-228.09"/>
<polygon fill="#63b8ff" stroke="#63b8ff" points="523.18,-319.37 533.77,-318.97 525.24,-312.68 523.18,-319.37"/>
</a>
</g>
</g>
<!-- Node5 -->
<g id="Node000005" class="node">
<title>Node5</title>
<g id="a_Node000005"><a xlink:href="log.html" target="_top" xlink:title="Log interface.">
<polygon fill="white" stroke="#666666" points="589.5,-283 533.5,-283 533.5,-264 589.5,-264 589.5,-283"/>
<text text-anchor="middle" x="561.5" y="-271" font-family="Helvetica,sans-Serif" font-size="10.00">l4/re/log</text>
</a>
</g>
</g>
<!-- Node1&#45;&gt;Node5 -->
<g id="edge4_Node000001_Node000005" class="edge">
<title>Node1&#45;&gt;Node5</title>
<g id="a_edge4_Node000001_Node000005"><a xlink:title=" ">
<path fill="none" stroke="#63b8ff" d="M561.5,-308.66C561.5,-299.93 561.5,-289.99 561.5,-283.09"/>
<polygon fill="#63b8ff" stroke="#63b8ff" points="558,-308.75 561.5,-318.75 565,-308.75 558,-308.75"/>
</a>
</g>
</g>
<!-- Node25 -->
<g id="Node000025" class="node">
<title>Node25</title>
<g id="a_Node000025"><a xlink:href="vcon__svr_source.html" target="_top" xlink:title=" ">
<polygon fill="white" stroke="#666666" points="711.5,-283 607.5,-283 607.5,-264 711.5,-264 711.5,-283"/>
<text text-anchor="middle" x="659.5" y="-271" font-family="Helvetica,sans-Serif" font-size="10.00">l4/re/util/vcon_svr</text>
</a>
</g>
</g>
<!-- Node1&#45;&gt;Node25 -->
<g id="edge34_Node000001_Node000025" class="edge">
<title>Node1&#45;&gt;Node25</title>
<g id="a_edge34_Node000001_Node000025"><a xlink:title=" ">
<path fill="none" stroke="#63b8ff" d="M586.53,-313.97C604.44,-304.28 628.03,-291.52 643.47,-283.17"/>
<polygon fill="#63b8ff" stroke="#63b8ff" points="584.38,-311.15 577.25,-318.98 587.71,-317.31 584.38,-311.15"/>
</a>
</g>
</g>
<!-- Node3 -->
<g id="Node000003" class="node">
<title>Node3</title>
<g id="a_Node000003"><a xlink:href="vcon__stream__impl_8h_source.html" target="_top" xlink:title=" ">
<polygon fill="white" stroke="#666666" points="119,-162 0,-162 0,-132 119,-132 119,-162"/>
<text text-anchor="start" x="8" y="-150" font-family="Helvetica,sans-Serif" font-size="10.00">l4/l4re_vfs/impl/vcon</text>
<text text-anchor="middle" x="59.5" y="-139" font-family="Helvetica,sans-Serif" font-size="10.00">_stream_impl.h</text>
</a>
</g>
</g>
<!-- Node2&#45;&gt;Node3 -->
<g id="edge2_Node000002_Node000003" class="edge">
<title>Node2&#45;&gt;Node3</title>
<g id="a_edge2_Node000002_Node000003"><a xlink:title=" ">
<path fill="none" stroke="#63b8ff" d="M154.08,-193.51C133.22,-183.47 107.83,-171.26 88.62,-162.01"/>
<polygon fill="#63b8ff" stroke="#63b8ff" points="152.78,-196.77 163.31,-197.95 155.82,-190.46 152.78,-196.77"/>
</a>
</g>
</g>
<!-- Node4 -->
<g id="Node000004" class="node">
<title>Node4</title>
<g id="a_Node000004"><a xlink:href="vfs__impl_8h_source.html" target="_top" xlink:title=" ">
<polygon fill="white" stroke="#666666" points="247.5,-162 137.5,-162 137.5,-132 247.5,-132 247.5,-162"/>
<text text-anchor="start" x="145.5" y="-150" font-family="Helvetica,sans-Serif" font-size="10.00">l4/l4re_vfs/impl/vfs</text>
<text text-anchor="middle" x="192.5" y="-139" font-family="Helvetica,sans-Serif" font-size="10.00">_impl.h</text>
</a>
</g>
</g>
<!-- Node2&#45;&gt;Node4 -->
<g id="edge3_Node000002_Node000004" class="edge">
<title>Node2&#45;&gt;Node4</title>
<g id="a_edge3_Node000002_Node000004"><a xlink:title=" ">
<path fill="none" stroke="#63b8ff" d="M192.5,-187.54C192.5,-178.96 192.5,-169.61 192.5,-162.16"/>
<polygon fill="#63b8ff" stroke="#63b8ff" points="189,-187.8 192.5,-197.8 196,-187.8 189,-187.8"/>
</a>
</g>
</g>
<!-- Node6 -->
<g id="Node000006" class="node">
<title>Node6</title>
<g id="a_Node000006"><a xlink:href="env.html" target="_top" xlink:title="Environment interface.">
<polygon fill="white" stroke="#666666" points="678,-222.5 619,-222.5 619,-203.5 678,-203.5 678,-222.5"/>
<text text-anchor="middle" x="648.5" y="-210.5" font-family="Helvetica,sans-Serif" font-size="10.00">l4/re/env</text>
</a>
</g>
</g>
<!-- Node5&#45;&gt;Node6 -->
<g id="edge5_Node000005_Node000006" class="edge">
<title>Node5&#45;&gt;Node6</title>
<g id="a_edge5_Node000005_Node000006"><a xlink:title=" ">
<path fill="none" stroke="#63b8ff" d="M582.83,-258.16C599.36,-247.05 621.71,-232.01 635.61,-222.67"/>
<polygon fill="#63b8ff" stroke="#63b8ff" points="580.68,-255.38 574.34,-263.87 584.59,-261.19 580.68,-255.38"/>
</a>
</g>
</g>
<!-- Node6&#45;&gt;Node3 -->
<g id="edge7_Node000006_Node000003" class="edge">
<title>Node6&#45;&gt;Node3</title>
<g id="a_edge7_Node000006_Node000003"><a xlink:title=" ">
<path fill="none" stroke="#63b8ff" d="M608.76,-209.6C521.5,-204.02 306.72,-188.57 128.5,-162 125.48,-161.55 122.39,-161.05 119.27,-160.52"/>
<polygon fill="#63b8ff" stroke="#63b8ff" points="608.56,-213.09 618.76,-210.23 609,-206.11 608.56,-213.09"/>
</a>
</g>
</g>
<!-- Node6&#45;&gt;Node4 -->
<g id="edge8_Node000006_Node000004" class="edge">
<title>Node6&#45;&gt;Node4</title>
<g id="a_edge8_Node000006_Node000004"><a xlink:title=" ">
<path fill="none" stroke="#63b8ff" d="M608.59,-207.8C538.25,-200.18 387.69,-182.93 261.5,-162 257.04,-161.26 252.42,-160.44 247.8,-159.58"/>
<polygon fill="#63b8ff" stroke="#63b8ff" points="608.46,-211.31 618.78,-208.9 609.21,-204.35 608.46,-211.31"/>
</a>
</g>
</g>
<!-- Node7 -->
<g id="Node000007" class="node">
<title>Node7</title>
<g id="a_Node000007"><a xlink:href="ro__file__impl_8h_source.html" target="_top" xlink:title=" ">
<polygon fill="white" stroke="#666666" points="1318,-162 1213,-162 1213,-132 1318,-132 1318,-162"/>
<text text-anchor="start" x="1221" y="-150" font-family="Helvetica,sans-Serif" font-size="10.00">l4/l4re_vfs/impl/ro</text>
<text text-anchor="middle" x="1265.5" y="-139" font-family="Helvetica,sans-Serif" font-size="10.00">_file_impl.h</text>
</a>
</g>
</g>
<!-- Node6&#45;&gt;Node7 -->
<g id="edge6_Node000006_Node000007" class="edge">
<title>Node6&#45;&gt;Node7</title>
<g id="a_edge6_Node000006_Node000007"><a xlink:title=" ">
<path fill="none" stroke="#63b8ff" d="M688.35,-210.22C779.84,-205.74 1011.83,-192.14 1203.5,-162 1206.55,-161.52 1209.68,-160.98 1212.83,-160.39"/>
<polygon fill="#63b8ff" stroke="#63b8ff" points="687.97,-206.74 678.15,-210.71 688.31,-213.73 687.97,-206.74"/>
</a>
</g>
</g>
<!-- Node8 -->
<g id="Node000008" class="node">
<title>Node8</title>
<g id="a_Node000008"><a xlink:href="client_2l4virtio_source.html" target="_top" xlink:title=" ">
<polygon fill="white" stroke="#666666" points="379,-96 286,-96 286,-66 379,-66 379,-96"/>
<text text-anchor="start" x="294" y="-84" font-family="Helvetica,sans-Serif" font-size="10.00">l4/l4virtio/client</text>
<text text-anchor="middle" x="332.5" y="-73" font-family="Helvetica,sans-Serif" font-size="10.00">/l4virtio</text>
</a>
</g>
</g>
<!-- Node6&#45;&gt;Node8 -->
<g id="edge9_Node000006_Node000008" class="edge">
<title>Node6&#45;&gt;Node8</title>
<g id="a_edge9_Node000006_Node000008"><a xlink:title=" ">
<path fill="none" stroke="#63b8ff" d="M608.81,-208.87C542.56,-202.98 413.09,-188.39 376.5,-162 354,-145.77 341.7,-114.35 336.17,-96.09"/>
<polygon fill="#63b8ff" stroke="#63b8ff" points="608.61,-212.37 618.88,-209.75 609.22,-205.4 608.61,-212.37"/>
</a>
</g>
</g>
<!-- Node9 -->
<g id="Node000009" class="node">
<title>Node9</title>
<g id="a_Node000009"><a xlink:href="client_2virtio-block_source.html" target="_top" xlink:title=" ">
<polygon fill="white" stroke="#666666" points="454,-30 361,-30 361,0 454,0 454,-30"/>
<text text-anchor="start" x="369" y="-18" font-family="Helvetica,sans-Serif" font-size="10.00">l4/l4virtio/client</text>
<text text-anchor="middle" x="407.5" y="-7" font-family="Helvetica,sans-Serif" font-size="10.00">/virtio&#45;block</text>
</a>
</g>
</g>
<!-- Node6&#45;&gt;Node9 -->
<g id="edge12_Node000006_Node000009" class="edge">
<title>Node6&#45;&gt;Node9</title>
<g id="a_edge12_Node000006_Node000009"><a xlink:title=" ">
<path fill="none" stroke="#63b8ff" d="M627.11,-197.56C615.03,-188.51 600.42,-175.95 590.5,-162 563.91,-124.6 585.67,-97.71 552.5,-66 525.84,-40.51 485.59,-27.97 454.25,-21.82"/>
<polygon fill="#63b8ff" stroke="#63b8ff" points="625.19,-200.49 635.35,-203.49 629.28,-194.81 625.19,-200.49"/>
</a>
</g>
</g>
<!-- Node10 -->
<g id="Node000010" class="node">
<title>Node10</title>
<g id="a_Node000010"><a xlink:href="virtio-net_source.html" target="_top" xlink:title=" ">
<polygon fill="white" stroke="#666666" points="324,-30 231,-30 231,0 324,0 324,-30"/>
<text text-anchor="start" x="239" y="-18" font-family="Helvetica,sans-Serif" font-size="10.00">l4/l4virtio/client</text>
<text text-anchor="middle" x="277.5" y="-7" font-family="Helvetica,sans-Serif" font-size="10.00">/virtio&#45;net</text>
</a>
</g>
</g>
<!-- Node6&#45;&gt;Node10 -->
<g id="edge13_Node000006_Node000010" class="edge">
<title>Node6&#45;&gt;Node10</title>
<g id="a_edge13_Node000006_Node000010"><a xlink:title=" ">
<path fill="none" stroke="#63b8ff" d="M608.41,-212.53C548.55,-211.78 433.61,-204.32 347.5,-162 308.83,-143 293.71,-135.5 276.5,-96 267.18,-74.61 270.52,-46.84 273.92,-30.28"/>
<polygon fill="#63b8ff" stroke="#63b8ff" points="608.56,-216.03 618.58,-212.6 608.61,-209.03 608.56,-216.03"/>
</a>
</g>
</g>
<!-- Node11 -->
<g id="Node000011" class="node">
<title>Node11</title>
<g id="a_Node000011"><a xlink:href="server_2l4virtio_source.html" target="_top" xlink:title=" ">
<polygon fill="white" stroke="#666666" points="697,-162 600,-162 600,-132 697,-132 697,-162"/>
<text text-anchor="start" x="608" y="-150" font-family="Helvetica,sans-Serif" font-size="10.00">l4/l4virtio/server</text>
<text text-anchor="middle" x="648.5" y="-139" font-family="Helvetica,sans-Serif" font-size="10.00">/l4virtio</text>
</a>
</g>
</g>
<!-- Node6&#45;&gt;Node11 -->
<g id="edge14_Node000006_Node000011" class="edge">
<title>Node6&#45;&gt;Node11</title>
<g id="a_edge14_Node000006_Node000011"><a xlink:title=" ">
<path fill="none" stroke="#63b8ff" d="M648.5,-193.35C648.5,-183.47 648.5,-171.51 648.5,-162.36"/>
<polygon fill="#63b8ff" stroke="#63b8ff" points="645,-193.37 648.5,-203.37 652,-193.37 645,-193.37"/>
</a>
</g>
</g>
<!-- Node16 -->
<g id="Node000016" class="node">
<title>Node16</title>
<g id="a_Node000016"><a xlink:href="env__ns_source.html" target="_top" xlink:title=" ">
<polygon fill="white" stroke="#666666" points="810,-156.5 715,-156.5 715,-137.5 810,-137.5 810,-156.5"/>
<text text-anchor="middle" x="762.5" y="-144.5" font-family="Helvetica,sans-Serif" font-size="10.00">l4/re/util/env_ns</text>
</a>
</g>
</g>
<!-- Node6&#45;&gt;Node16 -->
<g id="edge20_Node000006_Node000016" class="edge">
<title>Node6&#45;&gt;Node16</title>
<g id="a_edge20_Node000006_Node000016"><a xlink:title=" ">
<path fill="none" stroke="#63b8ff" d="M672.8,-198.36C695.24,-185.76 727.91,-167.42 747,-156.7"/>
<polygon fill="#63b8ff" stroke="#63b8ff" points="670.88,-195.42 663.87,-203.37 674.31,-201.53 670.88,-195.42"/>
</a>
</g>
</g>
<!-- Node18 -->
<g id="Node000018" class="node">
<title>Node18</title>
<g id="a_Node000018"><a xlink:href="goos__fb_source.html" target="_top" xlink:title=" ">
<polygon fill="white" stroke="#666666" points="1122.5,-90.5 994.5,-90.5 994.5,-71.5 1122.5,-71.5 1122.5,-90.5"/>
<text text-anchor="middle" x="1058.5" y="-78.5" font-family="Helvetica,sans-Serif" font-size="10.00">l4/re/util/video/goos_fb</text>
</a>
</g>
</g>
<!-- Node6&#45;&gt;Node18 -->
<g id="edge32_Node000006_Node000018" class="edge">
<title>Node6&#45;&gt;Node18</title>
<g id="a_edge32_Node000006_Node000018"><a xlink:title=" ">
<path fill="none" stroke="#63b8ff" d="M688.3,-210.84C743.77,-207.9 846.4,-197.65 925.5,-162 945.12,-153.16 945.46,-143.73 963.5,-132 988.82,-115.54 1020.13,-99.89 1039.72,-90.62"/>
<polygon fill="#63b8ff" stroke="#63b8ff" points="688.01,-207.35 678.19,-211.32 688.34,-214.34 688.01,-207.35"/>
</a>
</g>
</g>
<!-- Node19 -->
<g id="Node000019" class="node">
<title>Node19</title>
<g id="a_Node000019"><a xlink:href="util_2event.html" target="_top" xlink:title=" ">
<polygon fill="white" stroke="#666666" points="916.5,-156.5 828.5,-156.5 828.5,-137.5 916.5,-137.5 916.5,-156.5"/>
<text text-anchor="middle" x="872.5" y="-144.5" font-family="Helvetica,sans-Serif" font-size="10.00">l4/re/util/event</text>
</a>
</g>
</g>
<!-- Node6&#45;&gt;Node19 -->
<g id="edge24_Node000006_Node000019" class="edge">
<title>Node6&#45;&gt;Node19</title>
<g id="a_edge24_Node000006_Node000019"><a xlink:title=" ">
<path fill="none" stroke="#63b8ff" d="M688.07,-200.7C732.27,-188.07 802.82,-167.91 842.63,-156.53"/>
<polygon fill="#63b8ff" stroke="#63b8ff" points="686.9,-197.39 678.25,-203.5 688.82,-204.12 686.9,-197.39"/>
</a>
</g>
</g>
<!-- Node20 -->
<g id="Node000020" class="node">
<title>Node20</title>
<g id="a_Node000020"><a xlink:href="icu__svr_source.html" target="_top" xlink:title=" ">
<polygon fill="white" stroke="#666666" points="1431,-156.5 1336,-156.5 1336,-137.5 1431,-137.5 1431,-156.5"/>
<text text-anchor="middle" x="1383.5" y="-144.5" font-family="Helvetica,sans-Serif" font-size="10.00">l4/re/util/icu_svr</text>
</a>
</g>
</g>
<!-- Node6&#45;&gt;Node20 -->
<g id="edge25_Node000006_Node000020" class="edge">
<title>Node6&#45;&gt;Node20</title>
<g id="a_edge25_Node000006_Node000020"><a xlink:title=" ">
<path fill="none" stroke="#63b8ff" d="M688.25,-211.39C793.19,-209.26 1086.16,-200.1 1326.5,-162 1335.16,-160.63 1344.43,-158.6 1352.93,-156.51"/>
<polygon fill="#63b8ff" stroke="#63b8ff" points="688.04,-207.89 678.11,-211.58 688.17,-214.89 688.04,-207.89"/>
</a>
</g>
</g>
<!-- Node22 -->
<g id="Node000022" class="node">
<title>Node22</title>
<g id="a_Node000022"><a xlink:href="kumem__alloc.html" target="_top" xlink:title="Kumem allocator helper.">
<polygon fill="white" stroke="#666666" points="1098,-156.5 973,-156.5 973,-137.5 1098,-137.5 1098,-156.5"/>
<text text-anchor="middle" x="1035.5" y="-144.5" font-family="Helvetica,sans-Serif" font-size="10.00">l4/re/util/kumem_alloc</text>
</a>
</g>
</g>
<!-- Node6&#45;&gt;Node22 -->
<g id="edge27_Node000006_Node000022" class="edge">
<title>Node6&#45;&gt;Node22</title>
<g id="a_edge27_Node000006_Node000022"><a xlink:title=" ">
<path fill="none" stroke="#63b8ff" d="M688.03,-205.88C746.99,-196.7 861.43,-178.65 958.5,-162 968.54,-160.28 979.31,-158.36 989.52,-156.52"/>
<polygon fill="#63b8ff" stroke="#63b8ff" points="687.37,-202.44 678.03,-207.44 688.44,-209.36 687.37,-202.44"/>
</a>
</g>
</g>
<!-- Node23 -->
<g id="Node000023" class="node">
<title>Node23</title>
<g id="a_Node000023"><a xlink:href="object__registry_source.html" target="_top" xlink:title=" ">
<polygon fill="white" stroke="#666666" points="519,-156.5 386,-156.5 386,-137.5 519,-137.5 519,-156.5"/>
<text text-anchor="middle" x="452.5" y="-144.5" font-family="Helvetica,sans-Serif" font-size="10.00">l4/re/util/object_registry</text>
</a>
</g>
</g>
<!-- Node6&#45;&gt;Node23 -->
<g id="edge28_Node000006_Node000023" class="edge">
<title>Node6&#45;&gt;Node23</title>
<g id="a_edge28_Node000006_Node000023"><a xlink:title=" ">
<path fill="none" stroke="#63b8ff" d="M612.25,-200.16C573.56,-187.53 513.21,-167.82 478.83,-156.6"/>
<polygon fill="#63b8ff" stroke="#63b8ff" points="611.47,-203.59 622.07,-203.37 613.65,-196.94 611.47,-203.59"/>
</a>
</g>
</g>
<!-- Node24 -->
<g id="Node000024" class="node">
<title>Node24</title>
<g id="a_Node000024"><a xlink:href="vcpu.html" target="_top" xlink:title="vCPU support library (C++ interface).">
<polygon fill="white" stroke="#666666" points="1194.5,-156.5 1116.5,-156.5 1116.5,-137.5 1194.5,-137.5 1194.5,-156.5"/>
<text text-anchor="middle" x="1155.5" y="-144.5" font-family="Helvetica,sans-Serif" font-size="10.00">l4/vcpu/vcpu</text>
</a>
</g>
</g>
<!-- Node6&#45;&gt;Node24 -->
<g id="edge33_Node000006_Node000024" class="edge">
<title>Node6&#45;&gt;Node24</title>
<g id="a_edge33_Node000006_Node000024"><a xlink:title=" ">
<path fill="none" stroke="#63b8ff" d="M688.35,-209.93C768.28,-205.27 953.63,-191.96 1106.5,-162 1113.79,-160.57 1121.58,-158.57 1128.74,-156.53"/>
<polygon fill="#63b8ff" stroke="#63b8ff" points="688.02,-206.44 678.23,-210.5 688.41,-213.43 688.02,-206.44"/>
</a>
</g>
</g>
<!-- Node8&#45;&gt;Node9 -->
<g id="edge10_Node000008_Node000009" class="edge">
<title>Node8&#45;&gt;Node9</title>
<g id="a_edge10_Node000008_Node000009"><a xlink:title=" ">
<path fill="none" stroke="#63b8ff" d="M356.87,-59.2C368.01,-49.7 380.91,-38.69 390.9,-30.16"/>
<polygon fill="#63b8ff" stroke="#63b8ff" points="354.48,-56.64 349.14,-65.8 359.02,-61.97 354.48,-56.64"/>
</a>
</g>
</g>
<!-- Node8&#45;&gt;Node10 -->
<g id="edge11_Node000008_Node000010" class="edge">
<title>Node8&#45;&gt;Node10</title>
<g id="a_edge11_Node000008_Node000010"><a xlink:title=" ">
<path fill="none" stroke="#63b8ff" d="M313.67,-58.09C305.73,-48.85 296.72,-38.36 289.67,-30.16"/>
<polygon fill="#63b8ff" stroke="#63b8ff" points="311.12,-60.49 320.29,-65.8 316.43,-55.93 311.12,-60.49"/>
</a>
</g>
</g>
<!-- Node12 -->
<g id="Node000012" class="node">
<title>Node12</title>
<g id="a_Node000012"><a xlink:href="server_2virtio-block_source.html" target="_top" xlink:title=" ">
<polygon fill="white" stroke="#666666" points="697,-96 600,-96 600,-66 697,-66 697,-96"/>
<text text-anchor="start" x="608" y="-84" font-family="Helvetica,sans-Serif" font-size="10.00">l4/l4virtio/server</text>
<text text-anchor="middle" x="648.5" y="-73" font-family="Helvetica,sans-Serif" font-size="10.00">/virtio&#45;block</text>
</a>
</g>
</g>
<!-- Node11&#45;&gt;Node12 -->
<g id="edge15_Node000011_Node000012" class="edge">
<title>Node11&#45;&gt;Node12</title>
<g id="a_edge15_Node000011_Node000012"><a xlink:title=" ">
<path fill="none" stroke="#63b8ff" d="M648.5,-121.54C648.5,-112.96 648.5,-103.61 648.5,-96.16"/>
<polygon fill="#63b8ff" stroke="#63b8ff" points="645,-121.8 648.5,-131.8 652,-121.8 645,-121.8"/>
</a>
</g>
</g>
<!-- Node13 -->
<g id="Node000013" class="node">
<title>Node13</title>
<g id="a_Node000013"><a xlink:href="virtio-console_source.html" target="_top" xlink:title=" ">
<polygon fill="white" stroke="#666666" points="812,-96 715,-96 715,-66 812,-66 812,-96"/>
<text text-anchor="start" x="723" y="-84" font-family="Helvetica,sans-Serif" font-size="10.00">l4/l4virtio/server</text>
<text text-anchor="middle" x="763.5" y="-73" font-family="Helvetica,sans-Serif" font-size="10.00">/virtio&#45;console</text>
</a>
</g>
</g>
<!-- Node11&#45;&gt;Node13 -->
<g id="edge16_Node000011_Node000013" class="edge">
<title>Node11&#45;&gt;Node13</title>
<g id="a_edge16_Node000011_Node000013"><a xlink:title=" ">
<path fill="none" stroke="#63b8ff" d="M682.7,-126.97C700.55,-117.03 722.01,-105.09 738.32,-96.01"/>
<polygon fill="#63b8ff" stroke="#63b8ff" points="680.77,-124.03 673.74,-131.95 684.18,-130.15 680.77,-124.03"/>
</a>
</g>
</g>
<!-- Node14 -->
<g id="Node000014" class="node">
<title>Node14</title>
<g id="a_Node000014"><a xlink:href="virtio-console-device_source.html" target="_top" xlink:title=" ">
<polygon fill="white" stroke="#666666" points="862.5,-30 740.5,-30 740.5,0 862.5,0 862.5,-30"/>
<text text-anchor="start" x="748.5" y="-18" font-family="Helvetica,sans-Serif" font-size="10.00">l4/l4virtio/server</text>
<text text-anchor="middle" x="801.5" y="-7" font-family="Helvetica,sans-Serif" font-size="10.00">/virtio&#45;console&#45;device</text>
</a>
</g>
</g>
<!-- Node11&#45;&gt;Node14 -->
<g id="edge18_Node000011_Node000014" class="edge">
<title>Node11&#45;&gt;Node14</title>
<g id="a_edge18_Node000011_Node000014"><a xlink:title=" ">
<path fill="none" stroke="#63b8ff" d="M707.04,-130.77C755.48,-117.89 816.91,-100.78 820.5,-96 835.16,-76.48 821.75,-47.34 811.24,-30.15"/>
<polygon fill="#63b8ff" stroke="#63b8ff" points="706.01,-127.42 697.24,-133.36 707.8,-134.19 706.01,-127.42"/>
</a>
</g>
</g>
<!-- Node15 -->
<g id="Node000015" class="node">
<title>Node15</title>
<g id="a_Node000015"><a xlink:href="virtio-scmi-device_source.html" target="_top" xlink:title=" ">
<polygon fill="white" stroke="#666666" points="543.5,-96 435.5,-96 435.5,-66 543.5,-66 543.5,-96"/>
<text text-anchor="start" x="443.5" y="-84" font-family="Helvetica,sans-Serif" font-size="10.00">l4/l4virtio/server</text>
<text text-anchor="middle" x="489.5" y="-73" font-family="Helvetica,sans-Serif" font-size="10.00">/virtio&#45;scmi&#45;device</text>
</a>
</g>
</g>
<!-- Node11&#45;&gt;Node15 -->
<g id="edge19_Node000011_Node000015" class="edge">
<title>Node11&#45;&gt;Node15</title>
<g id="a_edge19_Node000011_Node000015"><a xlink:title=" ">
<path fill="none" stroke="#63b8ff" d="M604.25,-128.19C579,-118.02 547.8,-105.47 524.31,-96.01"/>
<polygon fill="#63b8ff" stroke="#63b8ff" points="603.02,-131.47 613.61,-131.95 605.64,-124.97 603.02,-131.47"/>
</a>
</g>
</g>
<!-- Node13&#45;&gt;Node14 -->
<g id="edge17_Node000013_Node000014" class="edge">
<title>Node13&#45;&gt;Node14</title>
<g id="a_edge17_Node000013_Node000014"><a xlink:title=" ">
<path fill="none" stroke="#63b8ff" d="M777.18,-56.96C782.5,-48 788.42,-38.03 793.09,-30.16"/>
<polygon fill="#63b8ff" stroke="#63b8ff" points="774.03,-55.41 771.93,-65.8 780.05,-58.98 774.03,-55.41"/>
</a>
</g>
</g>
<!-- Node17 -->
<g id="Node000017" class="node">
<title>Node17</title>
<g id="a_Node000017"><a xlink:href="ns__fs__impl_8h_source.html" target="_top" xlink:title=" ">
<polygon fill="white" stroke="#666666" points="976,-96 869,-96 869,-66 976,-66 976,-96"/>
<text text-anchor="start" x="877" y="-84" font-family="Helvetica,sans-Serif" font-size="10.00">l4/l4re_vfs/impl/ns</text>
<text text-anchor="middle" x="922.5" y="-73" font-family="Helvetica,sans-Serif" font-size="10.00">_fs_impl.h</text>
</a>
</g>
</g>
<!-- Node16&#45;&gt;Node17 -->
<g id="edge21_Node000016_Node000017" class="edge">
<title>Node16&#45;&gt;Node17</title>
<g id="a_edge21_Node000016_Node000017"><a xlink:title=" ">
<path fill="none" stroke="#63b8ff" d="M793.38,-133.65C820.24,-122.9 859.14,-107.35 887.21,-96.12"/>
<polygon fill="#63b8ff" stroke="#63b8ff" points="792.06,-130.41 784.08,-137.37 794.66,-136.9 792.06,-130.41"/>
</a>
</g>
</g>
<!-- Node16&#45;&gt;Node18 -->
<g id="edge22_Node000016_Node000018" class="edge">
<title>Node16&#45;&gt;Node18</title>
<g id="a_edge22_Node000016_Node000018"><a xlink:title=" ">
<path fill="none" stroke="#63b8ff" d="M806.59,-135.01C810.95,-133.97 815.31,-132.95 819.5,-132 887.71,-116.49 967.28,-100.21 1015.23,-90.58"/>
<polygon fill="#63b8ff" stroke="#63b8ff" points="805.41,-131.69 796.51,-137.44 807.06,-138.5 805.41,-131.69"/>
</a>
</g>
</g>
<!-- Node18&#45;&gt;Node18 -->
<g id="edge23_Node000018_Node000018" class="edge">
<title>Node18&#45;&gt;Node18</title>
<g id="a_edge23_Node000018_Node000018"><a xlink:title=" ">
<path fill="none" stroke="#63b8ff" d="M1094.17,-92.32C1117.69,-95.43 1140.5,-91.66 1140.5,-81 1140.5,-68.82 1110.7,-65.63 1084.11,-71.44"/>
<polygon fill="#63b8ff" stroke="#63b8ff" points="1094.56,-88.84 1084.11,-90.56 1093.36,-95.73 1094.56,-88.84"/>
</a>
</g>
</g>
<!-- Node21 -->
<g id="Node000021" class="node">
<title>Node21</title>
<g id="a_Node000021"><a xlink:href="event__svr_source.html" target="_top" xlink:title=" ">
<polygon fill="white" stroke="#666666" points="1437.5,-90.5 1329.5,-90.5 1329.5,-71.5 1437.5,-71.5 1437.5,-90.5"/>
<text text-anchor="middle" x="1383.5" y="-78.5" font-family="Helvetica,sans-Serif" font-size="10.00">l4/re/util/event_svr</text>
</a>
</g>
</g>
<!-- Node20&#45;&gt;Node21 -->
<g id="edge26_Node000020_Node000021" class="edge">
<title>Node20&#45;&gt;Node21</title>
<g id="a_edge26_Node000020_Node000021"><a xlink:title=" ">
<path fill="none" stroke="#63b8ff" d="M1383.5,-127.08C1383.5,-115.13 1383.5,-100.22 1383.5,-90.91"/>
<polygon fill="#63b8ff" stroke="#63b8ff" points="1380,-127.37 1383.5,-137.37 1387,-127.37 1380,-127.37"/>
</a>
</g>
</g>
<!-- Node23&#45;&gt;Node8 -->
<g id="edge29_Node000023_Node000008" class="edge">
<title>Node23&#45;&gt;Node8</title>
<g id="a_edge29_Node000023_Node000008"><a xlink:title=" ">
<path fill="none" stroke="#63b8ff" d="M427.46,-132.64C407.41,-121.95 379.38,-107 358.97,-96.12"/>
<polygon fill="#63b8ff" stroke="#63b8ff" points="425.85,-135.75 436.32,-137.37 429.14,-129.57 425.85,-135.75"/>
</a>
</g>
</g>
<!-- Node23&#45;&gt;Node9 -->
<g id="edge30_Node000023_Node000009" class="edge">
<title>Node23&#45;&gt;Node9</title>
<g id="a_edge30_Node000023_Node000009"><a xlink:title=" ">
<path fill="none" stroke="#63b8ff" d="M442.16,-128.71C436.88,-119.3 430.71,-107.3 426.5,-96 418.18,-73.66 412.63,-46.42 409.78,-30.18"/>
<polygon fill="#63b8ff" stroke="#63b8ff" points="439.18,-130.55 447.22,-137.45 445.24,-127.04 439.18,-130.55"/>
</a>
</g>
</g>
<!-- Node23&#45;&gt;Node15 -->
<g id="edge31_Node000023_Node000015" class="edge">
<title>Node23&#45;&gt;Node15</title>
<g id="a_edge31_Node000023_Node000015"><a xlink:title=" ">
<path fill="none" stroke="#63b8ff" d="M462.55,-128.61C468.4,-118.5 475.68,-105.91 481.2,-96.36"/>
<polygon fill="#63b8ff" stroke="#63b8ff" points="459.46,-126.96 457.49,-137.37 465.53,-130.46 459.46,-126.96"/>
</a>
</g>
</g>
</g>
</svg>
