<?xml version="1.0" encoding="UTF-8" standalone="no"?>
<!DOCTYPE svg PUBLIC "-//W3C//DTD SVG 1.1//EN"
 "http://www.w3.org/Graphics/SVG/1.1/DTD/svg11.dtd">
<!-- Generated by graphviz version 2.43.0 (0)
 -->
<!-- Title: x86/l4/util/idt.h Pages: 1 -->
<svg width="204pt" height="137pt"
 viewBox="0.00 0.00 204.00 137.00" xmlns="http://www.w3.org/2000/svg" xmlns:xlink="http://www.w3.org/1999/xlink">
<g id="graph0" class="graph" transform="scale(1 1) rotate(0) translate(4 133)">
<title>x86/l4/util/idt.h</title>
<!-- Node1 -->
<g id="Node000001" class="node">
<title>Node1</title>
<g id="a_Node000001"><a xlink:title="IDT related functions.">
<polygon fill="#999999" stroke="#666666" points="137.5,-129 47.5,-129 47.5,-110 137.5,-110 137.5,-129"/>
<text text-anchor="middle" x="92.5" y="-117" font-family="Helvetica,sans-Serif" font-size="10.00">x86/l4/util/idt.h</text>
</a>
</g>
</g>
<!-- Node2 -->
<g id="Node000002" class="node">
<title>Node2</title>
<g id="a_Node000002"><a xlink:href="l4_2sys_2l4int_8h.html" target="_top" xlink:title="Fixed sized integer types, generic version.">
<polygon fill="white" stroke="#666666" points="79,-74 0,-74 0,-55 79,-55 79,-74"/>
<text text-anchor="middle" x="39.5" y="-62" font-family="Helvetica,sans-Serif" font-size="10.00">l4/sys/l4int.h</text>
</a>
</g>
</g>
<!-- Node1&#45;&gt;Node2 -->
<g id="edge1_Node000001_Node000002" class="edge">
<title>Node1&#45;&gt;Node2</title>
<g id="a_edge1_Node000001_Node000002"><a xlink:title=" ">
<path fill="none" stroke="#63b8ff" d="M83.75,-109.75C76.03,-102.03 64.6,-90.6 55.28,-81.28"/>
<polygon fill="#63b8ff" stroke="#63b8ff" points="57.64,-78.69 48.09,-74.09 52.69,-83.64 57.64,-78.69"/>
</a>
</g>
</g>
<!-- Node3 -->
<g id="Node000003" class="node">
<title>Node3</title>
<g id="a_Node000003"><a xlink:href="compiler_8h.html" target="_top" xlink:title="L4 compiler related defines.">
<polygon fill="white" stroke="#666666" points="196,-74 97,-74 97,-55 196,-55 196,-74"/>
<text text-anchor="middle" x="146.5" y="-62" font-family="Helvetica,sans-Serif" font-size="10.00">l4/sys/compiler.h</text>
</a>
</g>
</g>
<!-- Node1&#45;&gt;Node3 -->
<g id="edge2_Node000001_Node000003" class="edge">
<title>Node1&#45;&gt;Node3</title>
<g id="a_edge2_Node000001_Node000003"><a xlink:title=" ">
<path fill="none" stroke="#63b8ff" d="M101.42,-109.75C109.28,-102.03 120.93,-90.6 130.42,-81.28"/>
<polygon fill="#63b8ff" stroke="#63b8ff" points="133.06,-83.59 137.75,-74.09 128.16,-78.6 133.06,-83.59"/>
</a>
</g>
</g>
<!-- Node4 -->
<g id="Node000004" class="node">
<title>Node4</title>
<g id="a_Node000004"><a xlink:title=" ">
<polygon fill="#e0e0e0" stroke="#999999" points="192.5,-19 100.5,-19 100.5,0 192.5,0 192.5,-19"/>
<text text-anchor="middle" x="146.5" y="-7" font-family="Helvetica,sans-Serif" font-size="10.00">l4/sys/linkage.h</text>
</a>
</g>
</g>
<!-- Node3&#45;&gt;Node4 -->
<g id="edge3_Node000003_Node000004" class="edge">
<title>Node3&#45;&gt;Node4</title>
<g id="a_edge3_Node000003_Node000004"><a xlink:title=" ">
<path fill="none" stroke="#63b8ff" d="M146.5,-54.75C146.5,-47.8 146.5,-37.85 146.5,-29.13"/>
<polygon fill="#63b8ff" stroke="#63b8ff" points="150,-29.09 146.5,-19.09 143,-29.09 150,-29.09"/>
</a>
</g>
</g>
</g>
</svg>
