<?xml version="1.0" encoding="UTF-8" standalone="no"?>
<!DOCTYPE svg PUBLIC "-//W3C//DTD SVG 1.1//EN"
 "http://www.w3.org/Graphics/SVG/1.1/DTD/svg11.dtd">
<!-- Generated by graphviz version 2.43.0 (0)
 -->
<!-- Title: x86/l4/util/port_io.h Pages: 1 -->
<svg width="288pt" height="137pt"
 viewBox="0.00 0.00 288.00 137.00" xmlns="http://www.w3.org/2000/svg" xmlns:xlink="http://www.w3.org/1999/xlink">
<g id="graph0" class="graph" transform="scale(1 1) rotate(0) translate(4 133)">
<title>x86/l4/util/port_io.h</title>
<!-- Node1 -->
<g id="Node000001" class="node">
<title>Node1</title>
<g id="a_Node000001"><a xlink:title="x86 port I/O">
<polygon fill="#999999" stroke="#666666" points="191,-129 80,-129 80,-110 191,-110 191,-129"/>
<text text-anchor="middle" x="135.5" y="-117" font-family="Helvetica,sans-Serif" font-size="10.00">x86/l4/util/port_io.h</text>
</a>
</g>
</g>
<!-- Node2 -->
<g id="Node000002" class="node">
<title>Node2</title>
<g id="a_Node000002"><a xlink:href="amd64_2l4_2util_2port__io_8h.html" target="_top" xlink:title="Port I/O functions.">
<polygon fill="white" stroke="#666666" points="127,-74 0,-74 0,-55 127,-55 127,-74"/>
<text text-anchor="middle" x="63.5" y="-62" font-family="Helvetica,sans-Serif" font-size="10.00">amd64/l4/util/port_io.h</text>
</a>
</g>
</g>
<!-- Node1&#45;&gt;Node2 -->
<g id="edge1_Node000001_Node000002" class="edge">
<title>Node1&#45;&gt;Node2</title>
<g id="a_edge1_Node000001_Node000002"><a xlink:title=" ">
<path fill="none" stroke="#63b8ff" d="M115.63,-103.88C102.68,-94.34 86.2,-82.21 75.28,-74.17"/>
<polygon fill="#63b8ff" stroke="#63b8ff" points="113.8,-106.88 123.93,-109.98 117.95,-101.24 113.8,-106.88"/>
</a>
</g>
</g>
<!-- Node3 -->
<g id="Node000003" class="node">
<title>Node3</title>
<g id="a_Node000003"><a xlink:href="x86_2l4f_2l4_2util_2port__io_8h.html" target="_top" xlink:title="port I/O functions">
<polygon fill="white" stroke="#666666" points="272,-74 145,-74 145,-55 272,-55 272,-74"/>
<text text-anchor="middle" x="208.5" y="-62" font-family="Helvetica,sans-Serif" font-size="10.00">x86/l4f/l4/util/port_io.h</text>
</a>
</g>
</g>
<!-- Node1&#45;&gt;Node3 -->
<g id="edge2_Node000001_Node000003" class="edge">
<title>Node1&#45;&gt;Node3</title>
<g id="a_edge2_Node000001_Node000003"><a xlink:title=" ">
<path fill="none" stroke="#63b8ff" d="M155.64,-103.88C168.78,-94.34 185.48,-82.21 196.56,-74.17"/>
<polygon fill="#63b8ff" stroke="#63b8ff" points="153.26,-101.28 147.23,-109.98 157.38,-106.94 153.26,-101.28"/>
</a>
</g>
</g>
<!-- Node4 -->
<g id="Node000004" class="node">
<title>Node4</title>
<g id="a_Node000004"><a xlink:href="amd64_2l4f_2l4_2util_2port__io_8h.html" target="_top" xlink:title="Port I/O functions.">
<polygon fill="white" stroke="#666666" points="280,-19 137,-19 137,0 280,0 280,-19"/>
<text text-anchor="middle" x="208.5" y="-7" font-family="Helvetica,sans-Serif" font-size="10.00">amd64/l4f/l4/util/port_io.h</text>
</a>
</g>
</g>
<!-- Node3&#45;&gt;Node4 -->
<g id="edge3_Node000003_Node000004" class="edge">
<title>Node3&#45;&gt;Node4</title>
<g id="a_edge3_Node000003_Node000004"><a xlink:title=" ">
<path fill="none" stroke="#63b8ff" d="M208.5,-44.66C208.5,-35.93 208.5,-25.99 208.5,-19.09"/>
<polygon fill="#63b8ff" stroke="#63b8ff" points="205,-44.75 208.5,-54.75 212,-44.75 205,-44.75"/>
</a>
</g>
</g>
</g>
</svg>
