<?xml version="1.0" encoding="UTF-8" standalone="no"?>
<!DOCTYPE svg PUBLIC "-//W3C//DTD SVG 1.1//EN"
 "http://www.w3.org/Graphics/SVG/1.1/DTD/svg11.dtd">
<!-- Generated by graphviz version 2.42.4 (0)
 -->
<!-- Title: x86/l4f/l4/sys/ipc.h Pages: 1 -->
<svg width="402pt" height="247pt"
 viewBox="0.00 0.00 402.33 247.00" xmlns="http://www.w3.org/2000/svg" xmlns:xlink="http://www.w3.org/1999/xlink">
<g id="graph0" class="graph" transform="scale(1 1) rotate(0) translate(4 243)">
<title>x86/l4f/l4/sys/ipc.h</title>
<!-- Node1 -->
<g id="Node000001" class="node">
<title>Node1</title>
<g id="a_Node000001"><a xlink:title="L4 IPC System Calls, x86.">
<polygon fill="#999999" stroke="#666666" points="243.5,-239 135.5,-239 135.5,-220 243.5,-220 243.5,-239"/>
<text text-anchor="middle" x="189.5" y="-227" font-family="Helvetica,sans-Serif" font-size="10.00">x86/l4f/l4/sys/ipc.h</text>
</a>
</g>
</g>
<!-- Node2 -->
<g id="Node000002" class="node">
<title>Node2</title>
<g id="a_Node000002"><a xlink:href="l4_2sys_2types_8h.html" target="_top" xlink:title="Common L4 ABI Data Types.">
<polygon fill="white" stroke="#666666" points="231.5,-184 147.5,-184 147.5,-165 231.5,-165 231.5,-184"/>
<text text-anchor="middle" x="189.5" y="-172" font-family="Helvetica,sans-Serif" font-size="10.00">l4/sys/types.h</text>
</a>
</g>
</g>
<!-- Node1&#45;&gt;Node2 -->
<g id="edge1_Node000001_Node000002" class="edge">
<title>Node1&#45;&gt;Node2</title>
<g id="a_edge1_Node000001_Node000002"><a xlink:title=" ">
<path fill="none" stroke="#63b8ff" d="M189.5,-219.75C189.5,-212.8 189.5,-202.85 189.5,-194.13"/>
<polygon fill="#63b8ff" stroke="#63b8ff" points="193,-194.09 189.5,-184.09 186,-194.09 193,-194.09"/>
</a>
</g>
</g>
<!-- Node9 -->
<g id="Node000009" class="node">
<title>Node9</title>
<g id="a_Node000009"><a xlink:href="ipc-invoke_8h_source.html" target="_top" xlink:title=" ">
<polygon fill="white" stroke="#666666" points="356,-184 249,-184 249,-165 356,-165 356,-184"/>
<text text-anchor="middle" x="302.5" y="-172" font-family="Helvetica,sans-Serif" font-size="10.00">l4/sys/ipc&#45;invoke.h</text>
</a>
</g>
</g>
<!-- Node1&#45;&gt;Node9 -->
<g id="edge13_Node000001_Node000009" class="edge">
<title>Node1&#45;&gt;Node9</title>
<g id="a_edge13_Node000001_Node000009"><a xlink:title=" ">
<path fill="none" stroke="#63b8ff" d="M207.66,-219.98C225.75,-211.5 253.78,-198.35 274.69,-188.54"/>
<polygon fill="#63b8ff" stroke="#63b8ff" points="276.45,-191.59 284.01,-184.17 273.47,-185.25 276.45,-191.59"/>
</a>
</g>
</g>
<!-- Node10 -->
<g id="Node000010" class="node">
<title>Node10</title>
<g id="a_Node000010"><a xlink:href="ipc-l42-gcc3-nopic_8h_source.html" target="_top" xlink:title=" ">
<polygon fill="white" stroke="#666666" points="120,-184 5,-184 5,-165 120,-165 120,-184"/>
<text text-anchor="middle" x="62.5" y="-172" font-family="Helvetica,sans-Serif" font-size="10.00">ipc&#45;l42&#45;gcc3&#45;nopic.h</text>
</a>
</g>
</g>
<!-- Node1&#45;&gt;Node10 -->
<g id="edge14_Node000001_Node000010" class="edge">
<title>Node1&#45;&gt;Node10</title>
<g id="a_edge14_Node000001_Node000010"><a xlink:title=" ">
<path fill="none" stroke="#63b8ff" d="M169.1,-219.98C148.48,-211.38 116.39,-197.99 92.81,-188.15"/>
<polygon fill="#63b8ff" stroke="#63b8ff" points="93.85,-184.79 83.28,-184.17 91.16,-191.25 93.85,-184.79"/>
</a>
</g>
</g>
<!-- Node3 -->
<g id="Node000003" class="node">
<title>Node3</title>
<g id="a_Node000003"><a xlink:href="l4_2sys_2l4int_8h.html" target="_top" xlink:title="Fixed sized integer types, generic version.">
<polygon fill="white" stroke="#666666" points="157,-74 78,-74 78,-55 157,-55 157,-74"/>
<text text-anchor="middle" x="117.5" y="-62" font-family="Helvetica,sans-Serif" font-size="10.00">l4/sys/l4int.h</text>
</a>
</g>
</g>
<!-- Node2&#45;&gt;Node3 -->
<g id="edge2_Node000002_Node000003" class="edge">
<title>Node2&#45;&gt;Node3</title>
<g id="a_edge2_Node000002_Node000003"><a xlink:title=" ">
<path fill="none" stroke="#63b8ff" d="M175.33,-164.99C163.34,-157.09 146.53,-144.26 136.5,-129 127.61,-115.48 122.75,-97.65 120.18,-84.33"/>
<polygon fill="#63b8ff" stroke="#63b8ff" points="123.62,-83.68 118.52,-74.39 116.72,-84.83 123.62,-83.68"/>
</a>
</g>
</g>
<!-- Node4 -->
<g id="Node000004" class="node">
<title>Node4</title>
<g id="a_Node000004"><a xlink:href="compiler_8h.html" target="_top" xlink:title="L4 compiler related defines.">
<polygon fill="white" stroke="#666666" points="324,-74 225,-74 225,-55 324,-55 324,-74"/>
<text text-anchor="middle" x="274.5" y="-62" font-family="Helvetica,sans-Serif" font-size="10.00">l4/sys/compiler.h</text>
</a>
</g>
</g>
<!-- Node2&#45;&gt;Node4 -->
<g id="edge3_Node000002_Node000004" class="edge">
<title>Node2&#45;&gt;Node4</title>
<g id="a_edge3_Node000002_Node000004"><a xlink:title=" ">
<path fill="none" stroke="#63b8ff" d="M231.81,-165.43C288.76,-154.37 383.56,-135.16 388.5,-129 409.04,-103.36 369.72,-86.39 331.76,-76.49"/>
<polygon fill="#63b8ff" stroke="#63b8ff" points="332.21,-73 321.67,-74.01 330.54,-79.8 332.21,-73"/>
</a>
</g>
</g>
<!-- Node6 -->
<g id="Node000006" class="node">
<title>Node6</title>
<g id="a_Node000006"><a xlink:href="l4_2sys_2consts_8h.html" target="_top" xlink:title="Common constants.">
<polygon fill="white" stroke="#666666" points="89,-129 0,-129 0,-110 89,-110 89,-129"/>
<text text-anchor="middle" x="44.5" y="-117" font-family="Helvetica,sans-Serif" font-size="10.00">l4/sys/consts.h</text>
</a>
</g>
</g>
<!-- Node2&#45;&gt;Node6 -->
<g id="edge5_Node000002_Node000006" class="edge">
<title>Node2&#45;&gt;Node6</title>
<g id="a_edge5_Node000002_Node000006"><a xlink:title=" ">
<path fill="none" stroke="#63b8ff" d="M166.2,-164.98C142.25,-156.23 104.72,-142.51 77.67,-132.62"/>
<polygon fill="#63b8ff" stroke="#63b8ff" points="78.81,-129.32 68.22,-129.17 76.41,-135.89 78.81,-129.32"/>
</a>
</g>
</g>
<!-- Node7 -->
<g id="Node000007" class="node">
<title>Node7</title>
<g id="a_Node000007"><a xlink:href="____l4__fpage_8h_source.html" target="_top" xlink:title=" ">
<polygon fill="white" stroke="#666666" points="379.5,-129 269.5,-129 269.5,-110 379.5,-110 379.5,-129"/>
<text text-anchor="middle" x="324.5" y="-117" font-family="Helvetica,sans-Serif" font-size="10.00">l4/sys/__l4_fpage.h</text>
</a>
</g>
</g>
<!-- Node2&#45;&gt;Node7 -->
<g id="edge8_Node000002_Node000007" class="edge">
<title>Node2&#45;&gt;Node7</title>
<g id="a_edge8_Node000002_Node000007"><a xlink:title=" ">
<path fill="none" stroke="#63b8ff" d="M211.19,-164.98C233.3,-156.3 267.82,-142.75 292.95,-132.88"/>
<polygon fill="#63b8ff" stroke="#63b8ff" points="294.39,-136.08 302.42,-129.17 291.83,-129.57 294.39,-136.08"/>
</a>
</g>
</g>
<!-- Node8 -->
<g id="Node000008" class="node">
<title>Node8</title>
<g id="a_Node000008"><a xlink:href="____timeout_8h_source.html" target="_top" xlink:title=" ">
<polygon fill="white" stroke="#666666" points="251.5,-129 145.5,-129 145.5,-110 251.5,-110 251.5,-129"/>
<text text-anchor="middle" x="198.5" y="-117" font-family="Helvetica,sans-Serif" font-size="10.00">l4/sys/__timeout.h</text>
</a>
</g>
</g>
<!-- Node2&#45;&gt;Node8 -->
<g id="edge10_Node000002_Node000008" class="edge">
<title>Node2&#45;&gt;Node8</title>
<g id="a_edge10_Node000002_Node000008"><a xlink:title=" ">
<path fill="none" stroke="#63b8ff" d="M190.99,-164.75C192.17,-157.8 193.86,-147.85 195.34,-139.13"/>
<polygon fill="#63b8ff" stroke="#63b8ff" points="198.82,-139.53 197.04,-129.09 191.92,-138.36 198.82,-139.53"/>
</a>
</g>
</g>
<!-- Node5 -->
<g id="Node000005" class="node">
<title>Node5</title>
<g id="a_Node000005"><a xlink:title=" ">
<polygon fill="#e0e0e0" stroke="#999999" points="320.5,-19 228.5,-19 228.5,0 320.5,0 320.5,-19"/>
<text text-anchor="middle" x="274.5" y="-7" font-family="Helvetica,sans-Serif" font-size="10.00">l4/sys/linkage.h</text>
</a>
</g>
</g>
<!-- Node4&#45;&gt;Node5 -->
<g id="edge4_Node000004_Node000005" class="edge">
<title>Node4&#45;&gt;Node5</title>
<g id="a_edge4_Node000004_Node000005"><a xlink:title=" ">
<path fill="none" stroke="#63b8ff" d="M274.5,-54.75C274.5,-47.8 274.5,-37.85 274.5,-29.13"/>
<polygon fill="#63b8ff" stroke="#63b8ff" points="278,-29.09 274.5,-19.09 271,-29.09 278,-29.09"/>
</a>
</g>
</g>
<!-- Node6&#45;&gt;Node3 -->
<g id="edge7_Node000006_Node000003" class="edge">
<title>Node6&#45;&gt;Node3</title>
<g id="a_edge7_Node000006_Node000003"><a xlink:title=" ">
<path fill="none" stroke="#63b8ff" d="M56.23,-109.98C67.23,-102 83.92,-89.88 97.1,-80.31"/>
<polygon fill="#63b8ff" stroke="#63b8ff" points="99.52,-82.88 105.56,-74.17 95.41,-77.21 99.52,-82.88"/>
</a>
</g>
</g>
<!-- Node6&#45;&gt;Node4 -->
<g id="edge6_Node000006_Node000004" class="edge">
<title>Node6&#45;&gt;Node4</title>
<g id="a_edge6_Node000006_Node000004"><a xlink:title=" ">
<path fill="none" stroke="#63b8ff" d="M81.45,-109.98C121.07,-100.86 184.09,-86.33 227.27,-76.38"/>
<polygon fill="#63b8ff" stroke="#63b8ff" points="228.3,-79.74 237.26,-74.08 226.73,-72.92 228.3,-79.74"/>
</a>
</g>
</g>
<!-- Node7&#45;&gt;Node4 -->
<g id="edge9_Node000007_Node000004" class="edge">
<title>Node7&#45;&gt;Node4</title>
<g id="a_edge9_Node000007_Node000004"><a xlink:title=" ">
<path fill="none" stroke="#63b8ff" d="M316.24,-109.75C309.04,-102.11 298.39,-90.82 289.65,-81.56"/>
<polygon fill="#63b8ff" stroke="#63b8ff" points="292.01,-78.96 282.6,-74.09 286.92,-83.76 292.01,-78.96"/>
</a>
</g>
</g>
<!-- Node8&#45;&gt;Node3 -->
<g id="edge11_Node000008_Node000003" class="edge">
<title>Node8&#45;&gt;Node3</title>
<g id="a_edge11_Node000008_Node000003"><a xlink:title=" ">
<path fill="none" stroke="#63b8ff" d="M185.49,-109.98C173.04,-101.84 154.04,-89.41 139.29,-79.76"/>
<polygon fill="#63b8ff" stroke="#63b8ff" points="141.04,-76.72 130.75,-74.17 137.2,-82.57 141.04,-76.72"/>
</a>
</g>
</g>
<!-- Node8&#45;&gt;Node4 -->
<g id="edge12_Node000008_Node000004" class="edge">
<title>Node8&#45;&gt;Node4</title>
<g id="a_edge12_Node000008_Node000004"><a xlink:title=" ">
<path fill="none" stroke="#63b8ff" d="M210.71,-109.98C222.28,-101.92 239.88,-89.65 253.66,-80.03"/>
<polygon fill="#63b8ff" stroke="#63b8ff" points="255.87,-82.76 262.07,-74.17 251.86,-77.02 255.87,-82.76"/>
</a>
</g>
</g>
<!-- Node10&#45;&gt;Node6 -->
<g id="edge15_Node000010_Node000006" class="edge">
<title>Node10&#45;&gt;Node6</title>
<g id="a_edge15_Node000010_Node000006"><a xlink:title=" ">
<path fill="none" stroke="#63b8ff" d="M59.53,-164.75C57.14,-157.72 53.71,-147.62 50.73,-138.84"/>
<polygon fill="#63b8ff" stroke="#63b8ff" points="53.95,-137.43 47.42,-129.09 47.32,-139.68 53.95,-137.43"/>
</a>
</g>
</g>
</g>
</svg>
