<?xml version="1.0" encoding="UTF-8" standalone="no"?>
<!DOCTYPE svg PUBLIC "-//W3C//DTD SVG 1.1//EN"
 "http://www.w3.org/Graphics/SVG/1.1/DTD/svg11.dtd">
<!-- Generated by graphviz version 2.43.0 (0)
 -->
<!-- Title: x86/l4/sys/utcb.h Pages: 1 -->
<svg width="401pt" height="247pt"
 viewBox="0.00 0.00 401.46 247.00" xmlns="http://www.w3.org/2000/svg" xmlns:xlink="http://www.w3.org/1999/xlink">
<g id="graph0" class="graph" transform="scale(1 1) rotate(0) translate(4 243)">
<title>x86/l4/sys/utcb.h</title>
<!-- Node1 -->
<g id="Node000001" class="node">
<title>Node1</title>
<g id="a_Node000001"><a xlink:title="UTCB definitions for X86.">
<polygon fill="#999999" stroke="#666666" points="231.96,-239 132.96,-239 132.96,-220 231.96,-220 231.96,-239"/>
<text text-anchor="middle" x="182.46" y="-227" font-family="Helvetica,sans-Serif" font-size="10.00">x86/l4/sys/utcb.h</text>
</a>
</g>
</g>
<!-- Node2 -->
<g id="Node000002" class="node">
<title>Node2</title>
<g id="a_Node000002"><a xlink:href="l4_2sys_2types_8h.html" target="_top" xlink:title="Common L4 ABI Data Types.">
<polygon fill="white" stroke="#666666" points="224.46,-184 140.46,-184 140.46,-165 224.46,-165 224.46,-184"/>
<text text-anchor="middle" x="182.46" y="-172" font-family="Helvetica,sans-Serif" font-size="10.00">l4/sys/types.h</text>
</a>
</g>
</g>
<!-- Node1&#45;&gt;Node2 -->
<g id="edge1_Node000001_Node000002" class="edge">
<title>Node1&#45;&gt;Node2</title>
<g id="a_edge1_Node000001_Node000002"><a xlink:title=" ">
<path fill="none" stroke="#63b8ff" d="M182.46,-219.75C182.46,-212.8 182.46,-202.85 182.46,-194.13"/>
<polygon fill="#63b8ff" stroke="#63b8ff" points="185.96,-194.09 182.46,-184.09 178.96,-194.09 185.96,-194.09"/>
</a>
</g>
</g>
<!-- Node3 -->
<g id="Node000003" class="node">
<title>Node3</title>
<g id="a_Node000003"><a xlink:href="l4_2sys_2l4int_8h.html" target="_top" xlink:title="Fixed sized integer types, generic version.">
<polygon fill="white" stroke="#666666" points="105.96,-74 26.96,-74 26.96,-55 105.96,-55 105.96,-74"/>
<text text-anchor="middle" x="66.46" y="-62" font-family="Helvetica,sans-Serif" font-size="10.00">l4/sys/l4int.h</text>
</a>
</g>
</g>
<!-- Node2&#45;&gt;Node3 -->
<g id="edge2_Node000002_Node000003" class="edge">
<title>Node2&#45;&gt;Node3</title>
<g id="a_edge2_Node000002_Node000003"><a xlink:title=" ">
<path fill="none" stroke="#63b8ff" d="M140.08,-168.87C92.87,-162.74 20.98,-150.15 4.46,-129 -10.12,-110.32 15.2,-91.16 37.74,-78.85"/>
<polygon fill="#63b8ff" stroke="#63b8ff" points="39.51,-81.87 46.78,-74.17 36.29,-75.65 39.51,-81.87"/>
</a>
</g>
</g>
<!-- Node4 -->
<g id="Node000004" class="node">
<title>Node4</title>
<g id="a_Node000004"><a xlink:href="compiler_8h.html" target="_top" xlink:title="L4 compiler related defines.">
<polygon fill="white" stroke="#666666" points="304.96,-74 205.96,-74 205.96,-55 304.96,-55 304.96,-74"/>
<text text-anchor="middle" x="255.46" y="-62" font-family="Helvetica,sans-Serif" font-size="10.00">l4/sys/compiler.h</text>
</a>
</g>
</g>
<!-- Node2&#45;&gt;Node4 -->
<g id="edge3_Node000002_Node000004" class="edge">
<title>Node2&#45;&gt;Node4</title>
<g id="a_edge3_Node000002_Node000004"><a xlink:title=" ">
<path fill="none" stroke="#63b8ff" d="M196.57,-164.95C208.54,-157.03 225.32,-144.19 235.46,-129 244.49,-115.48 249.63,-97.65 252.44,-84.33"/>
<polygon fill="#63b8ff" stroke="#63b8ff" points="255.9,-84.86 254.27,-74.39 249.01,-83.59 255.9,-84.86"/>
</a>
</g>
</g>
<!-- Node6 -->
<g id="Node000006" class="node">
<title>Node6</title>
<g id="a_Node000006"><a xlink:href="l4_2sys_2consts_8h.html" target="_top" xlink:title="Common constants.">
<polygon fill="white" stroke="#666666" points="226.96,-129 137.96,-129 137.96,-110 226.96,-110 226.96,-129"/>
<text text-anchor="middle" x="182.46" y="-117" font-family="Helvetica,sans-Serif" font-size="10.00">l4/sys/consts.h</text>
</a>
</g>
</g>
<!-- Node2&#45;&gt;Node6 -->
<g id="edge5_Node000002_Node000006" class="edge">
<title>Node2&#45;&gt;Node6</title>
<g id="a_edge5_Node000002_Node000006"><a xlink:title=" ">
<path fill="none" stroke="#63b8ff" d="M182.46,-164.75C182.46,-157.8 182.46,-147.85 182.46,-139.13"/>
<polygon fill="#63b8ff" stroke="#63b8ff" points="185.96,-139.09 182.46,-129.09 178.96,-139.09 185.96,-139.09"/>
</a>
</g>
</g>
<!-- Node7 -->
<g id="Node000007" class="node">
<title>Node7</title>
<g id="a_Node000007"><a xlink:href="____l4__fpage_8h_source.html" target="_top" xlink:title=" ">
<polygon fill="white" stroke="#666666" points="393.46,-129 283.46,-129 283.46,-110 393.46,-110 393.46,-129"/>
<text text-anchor="middle" x="338.46" y="-117" font-family="Helvetica,sans-Serif" font-size="10.00">l4/sys/__l4_fpage.h</text>
</a>
</g>
</g>
<!-- Node2&#45;&gt;Node7 -->
<g id="edge8_Node000002_Node000007" class="edge">
<title>Node2&#45;&gt;Node7</title>
<g id="a_edge8_Node000002_Node000007"><a xlink:title=" ">
<path fill="none" stroke="#63b8ff" d="M207.52,-164.98C233.49,-156.16 274.27,-142.31 303.42,-132.41"/>
<polygon fill="#63b8ff" stroke="#63b8ff" points="304.86,-135.61 313.2,-129.08 302.61,-128.99 304.86,-135.61"/>
</a>
</g>
</g>
<!-- Node8 -->
<g id="Node000008" class="node">
<title>Node8</title>
<g id="a_Node000008"><a xlink:href="____timeout_8h_source.html" target="_top" xlink:title=" ">
<polygon fill="white" stroke="#666666" points="119.46,-129 13.46,-129 13.46,-110 119.46,-110 119.46,-129"/>
<text text-anchor="middle" x="66.46" y="-117" font-family="Helvetica,sans-Serif" font-size="10.00">l4/sys/__timeout.h</text>
</a>
</g>
</g>
<!-- Node2&#45;&gt;Node8 -->
<g id="edge10_Node000002_Node000008" class="edge">
<title>Node2&#45;&gt;Node8</title>
<g id="a_edge10_Node000002_Node000008"><a xlink:title=" ">
<path fill="none" stroke="#63b8ff" d="M163.82,-164.98C145.16,-156.46 116.21,-143.23 94.72,-133.41"/>
<polygon fill="#63b8ff" stroke="#63b8ff" points="95.99,-130.14 85.44,-129.17 93.08,-136.51 95.99,-130.14"/>
</a>
</g>
</g>
<!-- Node5 -->
<g id="Node000005" class="node">
<title>Node5</title>
<g id="a_Node000005"><a xlink:title=" ">
<polygon fill="#e0e0e0" stroke="#999999" points="301.46,-19 209.46,-19 209.46,0 301.46,0 301.46,-19"/>
<text text-anchor="middle" x="255.46" y="-7" font-family="Helvetica,sans-Serif" font-size="10.00">l4/sys/linkage.h</text>
</a>
</g>
</g>
<!-- Node4&#45;&gt;Node5 -->
<g id="edge4_Node000004_Node000005" class="edge">
<title>Node4&#45;&gt;Node5</title>
<g id="a_edge4_Node000004_Node000005"><a xlink:title=" ">
<path fill="none" stroke="#63b8ff" d="M255.46,-54.75C255.46,-47.8 255.46,-37.85 255.46,-29.13"/>
<polygon fill="#63b8ff" stroke="#63b8ff" points="258.96,-29.09 255.46,-19.09 251.96,-29.09 258.96,-29.09"/>
</a>
</g>
</g>
<!-- Node6&#45;&gt;Node3 -->
<g id="edge7_Node000006_Node000003" class="edge">
<title>Node6&#45;&gt;Node3</title>
<g id="a_edge7_Node000006_Node000003"><a xlink:title=" ">
<path fill="none" stroke="#63b8ff" d="M163.82,-109.98C145.16,-101.46 116.21,-88.23 94.72,-78.41"/>
<polygon fill="#63b8ff" stroke="#63b8ff" points="95.99,-75.14 85.44,-74.17 93.08,-81.51 95.99,-75.14"/>
</a>
</g>
</g>
<!-- Node6&#45;&gt;Node4 -->
<g id="edge6_Node000006_Node000004" class="edge">
<title>Node6&#45;&gt;Node4</title>
<g id="a_edge6_Node000006_Node000004"><a xlink:title=" ">
<path fill="none" stroke="#63b8ff" d="M194.19,-109.98C205.19,-102 221.88,-89.88 235.06,-80.31"/>
<polygon fill="#63b8ff" stroke="#63b8ff" points="237.48,-82.88 243.52,-74.17 233.37,-77.21 237.48,-82.88"/>
</a>
</g>
</g>
<!-- Node7&#45;&gt;Node4 -->
<g id="edge9_Node000007_Node000004" class="edge">
<title>Node7&#45;&gt;Node4</title>
<g id="a_edge9_Node000007_Node000004"><a xlink:title=" ">
<path fill="none" stroke="#63b8ff" d="M325.13,-109.98C312.37,-101.84 292.91,-89.41 277.79,-79.76"/>
<polygon fill="#63b8ff" stroke="#63b8ff" points="279.35,-76.6 269.04,-74.17 275.58,-82.5 279.35,-76.6"/>
</a>
</g>
</g>
<!-- Node8&#45;&gt;Node3 -->
<g id="edge11_Node000008_Node000003" class="edge">
<title>Node8&#45;&gt;Node3</title>
<g id="a_edge11_Node000008_Node000003"><a xlink:title=" ">
<path fill="none" stroke="#63b8ff" d="M66.46,-109.75C66.46,-102.8 66.46,-92.85 66.46,-84.13"/>
<polygon fill="#63b8ff" stroke="#63b8ff" points="69.96,-84.09 66.46,-74.09 62.96,-84.09 69.96,-84.09"/>
</a>
</g>
</g>
</g>
</svg>
