<?xml version="1.0" encoding="UTF-8" standalone="no"?>
<!DOCTYPE svg PUBLIC "-//W3C//DTD SVG 1.1//EN"
 "http://www.w3.org/Graphics/SVG/1.1/DTD/svg11.dtd">
<!-- Generated by graphviz version 2.43.0 (0)
 -->
<!-- Title: l4util_irq_acknowledge Pages: 1 -->
<svg width="241pt" height="64pt"
 viewBox="0.00 0.00 241.00 64.00" xmlns="http://www.w3.org/2000/svg" xmlns:xlink="http://www.w3.org/1999/xlink">
<g id="graph0" class="graph" transform="scale(1 1) rotate(0) translate(4 60)">
<title>l4util_irq_acknowledge</title>
<!-- Node1 -->
<g id="Node000001" class="node">
<title>Node1</title>
<g id="a_Node000001"><a xlink:title="Acknowledge IRQ at PIC in fully special nested mode.">
<polygon fill="#999999" stroke="#666666" points="129,-37 0,-37 0,-18 129,-18 129,-37"/>
<text text-anchor="middle" x="64.5" y="-25" font-family="Helvetica,sans-Serif" font-size="10.00">l4util_irq_acknowledge</text>
</a>
</g>
</g>
<!-- Node2 -->
<g id="Node000002" class="node">
<title>Node2</title>
<g id="a_Node000002"><a xlink:href="group__l4util__portio.html#ga6fd63a09b8ead7241fd90d4e6c7fa85b" target="_top" xlink:title="Read byte from I/O port.">
<polygon fill="white" stroke="#666666" points="230,-56 168,-56 168,-37 230,-37 230,-56"/>
<text text-anchor="middle" x="199" y="-44" font-family="Helvetica,sans-Serif" font-size="10.00">l4util_in8</text>
</a>
</g>
</g>
<!-- Node1&#45;&gt;Node2 -->
<g id="edge1_Node000001_Node000002" class="edge">
<title>Node1&#45;&gt;Node2</title>
<g id="a_edge1_Node000001_Node000002"><a xlink:title=" ">
<path fill="none" stroke="#63b8ff" d="M129.03,-36.61C138.88,-38.02 148.8,-39.45 157.93,-40.75"/>
<polygon fill="#63b8ff" stroke="#63b8ff" points="157.47,-44.22 167.86,-42.18 158.46,-37.29 157.47,-44.22"/>
</a>
</g>
</g>
<!-- Node3 -->
<g id="Node000003" class="node">
<title>Node3</title>
<g id="a_Node000003"><a xlink:href="group__l4util__portio.html#ga4b19e212f042fea17016186862da1ed2" target="_top" xlink:title="Write byte to I/O port.">
<polygon fill="white" stroke="#666666" points="233,-19 165,-19 165,0 233,0 233,-19"/>
<text text-anchor="middle" x="199" y="-7" font-family="Helvetica,sans-Serif" font-size="10.00">l4util_out8</text>
</a>
</g>
</g>
<!-- Node1&#45;&gt;Node3 -->
<g id="edge2_Node000001_Node000003" class="edge">
<title>Node1&#45;&gt;Node3</title>
<g id="a_edge2_Node000001_Node000003"><a xlink:title=" ">
<path fill="none" stroke="#63b8ff" d="M129.03,-18.87C137.72,-17.69 146.47,-16.5 154.68,-15.38"/>
<polygon fill="#63b8ff" stroke="#63b8ff" points="155.31,-18.83 164.75,-14.02 154.37,-11.89 155.31,-18.83"/>
</a>
</g>
</g>
</g>
</svg>
