<?xml version="1.0" encoding="UTF-8" standalone="no"?>
<!DOCTYPE svg PUBLIC "-//W3C//DTD SVG 1.1//EN"
 "http://www.w3.org/Graphics/SVG/1.1/DTD/svg11.dtd">
<!-- Generated by graphviz version 2.42.4 (0)
 -->
<!-- Title: x86/l4/sys/segment.h Pages: 1 -->
<svg width="544pt" height="412pt"
 viewBox="0.00 0.00 543.50 412.00" xmlns="http://www.w3.org/2000/svg" xmlns:xlink="http://www.w3.org/1999/xlink">
<g id="graph0" class="graph" transform="scale(1 1) rotate(0) translate(4 408)">
<title>x86/l4/sys/segment.h</title>
<!-- Node1 -->
<g id="Node000001" class="node">
<title>Node1</title>
<g id="a_Node000001"><a xlink:title="Segment handling.">
<polygon fill="#999999" stroke="#666666" points="359,-404 238,-404 238,-385 359,-385 359,-404"/>
<text text-anchor="middle" x="298.5" y="-392" font-family="Helvetica,sans-Serif" font-size="10.00">x86/l4/sys/segment.h</text>
</a>
</g>
</g>
<!-- Node2 -->
<g id="Node000002" class="node">
<title>Node2</title>
<g id="a_Node000002"><a xlink:href="l4_2sys_2ipc_8h.html" target="_top" xlink:title="Common IPC interface.">
<polygon fill="white" stroke="#666666" points="334,-294 263,-294 263,-275 334,-275 334,-294"/>
<text text-anchor="middle" x="298.5" y="-282" font-family="Helvetica,sans-Serif" font-size="10.00">l4/sys/ipc.h</text>
</a>
</g>
</g>
<!-- Node1&#45;&gt;Node2 -->
<g id="edge1_Node000001_Node000002" class="edge">
<title>Node1&#45;&gt;Node2</title>
<g id="a_edge1_Node000001_Node000002"><a xlink:title=" ">
<path fill="none" stroke="#63b8ff" d="M298.5,-384.66C298.5,-367.17 298.5,-327.8 298.5,-304.27"/>
<polygon fill="#63b8ff" stroke="#63b8ff" points="302,-304.16 298.5,-294.16 295,-304.16 302,-304.16"/>
</a>
</g>
</g>
<!-- Node12 -->
<g id="Node000012" class="node">
<title>Node12</title>
<g id="a_Node000012"><a xlink:href="l4_2sys_2task_8h.html" target="_top" xlink:title="Common task related definitions.">
<polygon fill="white" stroke="#666666" points="270.5,-349 192.5,-349 192.5,-330 270.5,-330 270.5,-349"/>
<text text-anchor="middle" x="231.5" y="-337" font-family="Helvetica,sans-Serif" font-size="10.00">l4/sys/task.h</text>
</a>
</g>
</g>
<!-- Node1&#45;&gt;Node12 -->
<g id="edge20_Node000001_Node000012" class="edge">
<title>Node1&#45;&gt;Node12</title>
<g id="a_edge20_Node000001_Node000012"><a xlink:title=" ">
<path fill="none" stroke="#63b8ff" d="M287.74,-384.98C277.73,-377.07 262.61,-365.11 250.57,-355.58"/>
<polygon fill="#63b8ff" stroke="#63b8ff" points="252.47,-352.63 242.46,-349.17 248.13,-358.12 252.47,-352.63"/>
</a>
</g>
</g>
<!-- Node13 -->
<g id="Node000013" class="node">
<title>Node13</title>
<g id="a_Node000013"><a xlink:href="l4_2sys_2thread_8h.html" target="_top" xlink:title="Common thread related definitions.">
<polygon fill="white" stroke="#666666" points="416,-349 327,-349 327,-330 416,-330 416,-349"/>
<text text-anchor="middle" x="371.5" y="-337" font-family="Helvetica,sans-Serif" font-size="10.00">l4/sys/thread.h</text>
</a>
</g>
</g>
<!-- Node1&#45;&gt;Node13 -->
<g id="edge24_Node000001_Node000013" class="edge">
<title>Node1&#45;&gt;Node13</title>
<g id="a_edge24_Node000001_Node000013"><a xlink:title=" ">
<path fill="none" stroke="#63b8ff" d="M310.23,-384.98C321.23,-377 337.92,-364.88 351.1,-355.31"/>
<polygon fill="#63b8ff" stroke="#63b8ff" points="353.52,-357.88 359.56,-349.17 349.41,-352.21 353.52,-357.88"/>
</a>
</g>
</g>
<!-- Node3 -->
<g id="Node000003" class="node">
<title>Node3</title>
<g id="a_Node000003"><a xlink:href="l4_2sys_2types_8h.html" target="_top" xlink:title="Common L4 ABI Data Types.">
<polygon fill="white" stroke="#666666" points="273.5,-184 189.5,-184 189.5,-165 273.5,-165 273.5,-184"/>
<text text-anchor="middle" x="231.5" y="-172" font-family="Helvetica,sans-Serif" font-size="10.00">l4/sys/types.h</text>
</a>
</g>
</g>
<!-- Node2&#45;&gt;Node3 -->
<g id="edge2_Node000002_Node000003" class="edge">
<title>Node2&#45;&gt;Node3</title>
<g id="a_edge2_Node000002_Node000003"><a xlink:title=" ">
<path fill="none" stroke="#63b8ff" d="M285.69,-274.69C274.84,-266.6 259.63,-253.66 250.5,-239 241.95,-225.26 237.06,-207.46 234.39,-194.2"/>
<polygon fill="#63b8ff" stroke="#63b8ff" points="237.83,-193.55 232.63,-184.32 230.93,-194.78 237.83,-193.55"/>
</a>
</g>
</g>
<!-- Node10 -->
<g id="Node000010" class="node">
<title>Node10</title>
<g id="a_Node000010"><a xlink:href="l4_2sys_2utcb_8h.html" target="_top" xlink:title="UTCB definitions.">
<polygon fill="white" stroke="#666666" points="337.5,-239 259.5,-239 259.5,-220 337.5,-220 337.5,-239"/>
<text text-anchor="middle" x="298.5" y="-227" font-family="Helvetica,sans-Serif" font-size="10.00">l4/sys/utcb.h</text>
</a>
</g>
</g>
<!-- Node2&#45;&gt;Node10 -->
<g id="edge14_Node000002_Node000010" class="edge">
<title>Node2&#45;&gt;Node10</title>
<g id="a_edge14_Node000002_Node000010"><a xlink:title=" ">
<path fill="none" stroke="#63b8ff" d="M298.5,-274.75C298.5,-267.8 298.5,-257.85 298.5,-249.13"/>
<polygon fill="#63b8ff" stroke="#63b8ff" points="302,-249.09 298.5,-239.09 295,-249.09 302,-249.09"/>
</a>
</g>
</g>
<!-- Node11 -->
<g id="Node000011" class="node">
<title>Node11</title>
<g id="a_Node000011"><a xlink:href="err_8h.html" target="_top" xlink:title="Error codes.">
<polygon fill="white" stroke="#666666" points="535.5,-184 465.5,-184 465.5,-165 535.5,-165 535.5,-184"/>
<text text-anchor="middle" x="500.5" y="-172" font-family="Helvetica,sans-Serif" font-size="10.00">l4/sys/err.h</text>
</a>
</g>
</g>
<!-- Node2&#45;&gt;Node11 -->
<g id="edge18_Node000002_Node000011" class="edge">
<title>Node2&#45;&gt;Node11</title>
<g id="a_edge18_Node000002_Node000011"><a xlink:title=" ">
<path fill="none" stroke="#63b8ff" d="M314.69,-274.84C349.87,-256.04 433.48,-211.33 475.5,-188.87"/>
<polygon fill="#63b8ff" stroke="#63b8ff" points="477.35,-191.85 484.51,-184.05 474.05,-185.68 477.35,-191.85"/>
</a>
</g>
</g>
<!-- Node4 -->
<g id="Node000004" class="node">
<title>Node4</title>
<g id="a_Node000004"><a xlink:href="l4_2sys_2l4int_8h.html" target="_top" xlink:title="Fixed sized integer types, generic version.">
<polygon fill="white" stroke="#666666" points="79,-74 0,-74 0,-55 79,-55 79,-74"/>
<text text-anchor="middle" x="39.5" y="-62" font-family="Helvetica,sans-Serif" font-size="10.00">l4/sys/l4int.h</text>
</a>
</g>
</g>
<!-- Node3&#45;&gt;Node4 -->
<g id="edge3_Node000003_Node000004" class="edge">
<title>Node3&#45;&gt;Node4</title>
<g id="a_edge3_Node000003_Node000004"><a xlink:title=" ">
<path fill="none" stroke="#63b8ff" d="M189.31,-170.68C134.18,-166.02 42.21,-154.55 21.5,-129 10.83,-115.83 18.49,-96.69 26.87,-82.87"/>
<polygon fill="#63b8ff" stroke="#63b8ff" points="29.95,-84.56 32.57,-74.29 24.12,-80.68 29.95,-84.56"/>
</a>
</g>
</g>
<!-- Node5 -->
<g id="Node000005" class="node">
<title>Node5</title>
<g id="a_Node000005"><a xlink:href="compiler_8h.html" target="_top" xlink:title="L4 compiler related defines.">
<polygon fill="white" stroke="#666666" points="362,-74 263,-74 263,-55 362,-55 362,-74"/>
<text text-anchor="middle" x="312.5" y="-62" font-family="Helvetica,sans-Serif" font-size="10.00">l4/sys/compiler.h</text>
</a>
</g>
</g>
<!-- Node3&#45;&gt;Node5 -->
<g id="edge4_Node000003_Node000005" class="edge">
<title>Node3&#45;&gt;Node5</title>
<g id="a_edge4_Node000003_Node000005"><a xlink:title=" ">
<path fill="none" stroke="#63b8ff" d="M238.13,-164.66C251.6,-146.69 282.39,-105.64 299.84,-82.38"/>
<polygon fill="#63b8ff" stroke="#63b8ff" points="302.81,-84.26 306.01,-74.16 297.21,-80.06 302.81,-84.26"/>
</a>
</g>
</g>
<!-- Node7 -->
<g id="Node000007" class="node">
<title>Node7</title>
<g id="a_Node000007"><a xlink:href="l4_2sys_2consts_8h.html" target="_top" xlink:title="Common constants.">
<polygon fill="white" stroke="#666666" points="120,-129 31,-129 31,-110 120,-110 120,-129"/>
<text text-anchor="middle" x="75.5" y="-117" font-family="Helvetica,sans-Serif" font-size="10.00">l4/sys/consts.h</text>
</a>
</g>
</g>
<!-- Node3&#45;&gt;Node7 -->
<g id="edge6_Node000003_Node000007" class="edge">
<title>Node3&#45;&gt;Node7</title>
<g id="a_edge6_Node000003_Node000007"><a xlink:title=" ">
<path fill="none" stroke="#63b8ff" d="M206.44,-164.98C180.47,-156.16 139.69,-142.31 110.54,-132.41"/>
<polygon fill="#63b8ff" stroke="#63b8ff" points="111.35,-128.99 100.76,-129.08 109.1,-135.61 111.35,-128.99"/>
</a>
</g>
</g>
<!-- Node8 -->
<g id="Node000008" class="node">
<title>Node8</title>
<g id="a_Node000008"><a xlink:href="____l4__fpage_8h_source.html" target="_top" xlink:title=" ">
<polygon fill="white" stroke="#666666" points="409.5,-129 299.5,-129 299.5,-110 409.5,-110 409.5,-129"/>
<text text-anchor="middle" x="354.5" y="-117" font-family="Helvetica,sans-Serif" font-size="10.00">l4/sys/__l4_fpage.h</text>
</a>
</g>
</g>
<!-- Node3&#45;&gt;Node8 -->
<g id="edge9_Node000003_Node000008" class="edge">
<title>Node3&#45;&gt;Node8</title>
<g id="a_edge9_Node000003_Node000008"><a xlink:title=" ">
<path fill="none" stroke="#63b8ff" d="M251.26,-164.98C271.23,-156.38 302.3,-142.99 325.15,-133.15"/>
<polygon fill="#63b8ff" stroke="#63b8ff" points="326.58,-136.34 334.38,-129.17 323.81,-129.91 326.58,-136.34"/>
</a>
</g>
</g>
<!-- Node9 -->
<g id="Node000009" class="node">
<title>Node9</title>
<g id="a_Node000009"><a xlink:href="____timeout_8h_source.html" target="_top" xlink:title=" ">
<polygon fill="white" stroke="#666666" points="243.5,-129 137.5,-129 137.5,-110 243.5,-110 243.5,-129"/>
<text text-anchor="middle" x="190.5" y="-117" font-family="Helvetica,sans-Serif" font-size="10.00">l4/sys/__timeout.h</text>
</a>
</g>
</g>
<!-- Node3&#45;&gt;Node9 -->
<g id="edge11_Node000003_Node000009" class="edge">
<title>Node3&#45;&gt;Node9</title>
<g id="a_edge11_Node000003_Node000009"><a xlink:title=" ">
<path fill="none" stroke="#63b8ff" d="M224.73,-164.75C218.94,-157.26 210.44,-146.28 203.36,-137.13"/>
<polygon fill="#63b8ff" stroke="#63b8ff" points="206.03,-134.86 197.14,-129.09 200.49,-139.14 206.03,-134.86"/>
</a>
</g>
</g>
<!-- Node6 -->
<g id="Node000006" class="node">
<title>Node6</title>
<g id="a_Node000006"><a xlink:title=" ">
<polygon fill="#e0e0e0" stroke="#999999" points="358.5,-19 266.5,-19 266.5,0 358.5,0 358.5,-19"/>
<text text-anchor="middle" x="312.5" y="-7" font-family="Helvetica,sans-Serif" font-size="10.00">l4/sys/linkage.h</text>
</a>
</g>
</g>
<!-- Node5&#45;&gt;Node6 -->
<g id="edge5_Node000005_Node000006" class="edge">
<title>Node5&#45;&gt;Node6</title>
<g id="a_edge5_Node000005_Node000006"><a xlink:title=" ">
<path fill="none" stroke="#63b8ff" d="M312.5,-54.75C312.5,-47.8 312.5,-37.85 312.5,-29.13"/>
<polygon fill="#63b8ff" stroke="#63b8ff" points="316,-29.09 312.5,-19.09 309,-29.09 316,-29.09"/>
</a>
</g>
</g>
<!-- Node7&#45;&gt;Node4 -->
<g id="edge8_Node000007_Node000004" class="edge">
<title>Node7&#45;&gt;Node4</title>
<g id="a_edge8_Node000007_Node000004"><a xlink:title=" ">
<path fill="none" stroke="#63b8ff" d="M69.56,-109.75C64.52,-102.34 57.16,-91.5 50.99,-82.41"/>
<polygon fill="#63b8ff" stroke="#63b8ff" points="53.85,-80.39 45.33,-74.09 48.06,-84.33 53.85,-80.39"/>
</a>
</g>
</g>
<!-- Node7&#45;&gt;Node5 -->
<g id="edge7_Node000007_Node000005" class="edge">
<title>Node7&#45;&gt;Node5</title>
<g id="a_edge7_Node000007_Node000005"><a xlink:title=" ">
<path fill="none" stroke="#63b8ff" d="M113.58,-109.98C154.49,-100.84 219.61,-86.27 264.12,-76.32"/>
<polygon fill="#63b8ff" stroke="#63b8ff" points="265.13,-79.68 274.12,-74.08 263.6,-72.85 265.13,-79.68"/>
</a>
</g>
</g>
<!-- Node8&#45;&gt;Node5 -->
<g id="edge10_Node000008_Node000005" class="edge">
<title>Node8&#45;&gt;Node5</title>
<g id="a_edge10_Node000008_Node000005"><a xlink:title=" ">
<path fill="none" stroke="#63b8ff" d="M347.56,-109.75C341.63,-102.26 332.93,-91.28 325.68,-82.13"/>
<polygon fill="#63b8ff" stroke="#63b8ff" points="328.26,-79.75 319.31,-74.09 322.77,-84.1 328.26,-79.75"/>
</a>
</g>
</g>
<!-- Node9&#45;&gt;Node4 -->
<g id="edge12_Node000009_Node000004" class="edge">
<title>Node9&#45;&gt;Node4</title>
<g id="a_edge12_Node000009_Node000004"><a xlink:title=" ">
<path fill="none" stroke="#63b8ff" d="M166.24,-109.98C141.18,-101.19 101.87,-87.39 73.67,-77.49"/>
<polygon fill="#63b8ff" stroke="#63b8ff" points="74.8,-74.18 64.2,-74.17 72.48,-80.78 74.8,-74.18"/>
</a>
</g>
</g>
<!-- Node9&#45;&gt;Node5 -->
<g id="edge13_Node000009_Node000005" class="edge">
<title>Node9&#45;&gt;Node5</title>
<g id="a_edge13_Node000009_Node000005"><a xlink:title=" ">
<path fill="none" stroke="#63b8ff" d="M210.1,-109.98C229.82,-101.42 260.45,-88.11 283.08,-78.28"/>
<polygon fill="#63b8ff" stroke="#63b8ff" points="284.76,-81.37 292.54,-74.17 281.98,-74.94 284.76,-81.37"/>
</a>
</g>
</g>
<!-- Node10&#45;&gt;Node3 -->
<g id="edge15_Node000010_Node000003" class="edge">
<title>Node10&#45;&gt;Node3</title>
<g id="a_edge15_Node000010_Node000003"><a xlink:title=" ">
<path fill="none" stroke="#63b8ff" d="M287.74,-219.98C277.73,-212.07 262.61,-200.11 250.57,-190.58"/>
<polygon fill="#63b8ff" stroke="#63b8ff" points="252.47,-187.63 242.46,-184.17 248.13,-193.12 252.47,-187.63"/>
</a>
</g>
</g>
<!-- Node10&#45;&gt;Node4 -->
<g id="edge17_Node000010_Node000004" class="edge">
<title>Node10&#45;&gt;Node4</title>
<g id="a_edge17_Node000010_Node000004"><a xlink:title=" ">
<path fill="none" stroke="#63b8ff" d="M259.27,-228.15C195.14,-225.2 69.31,-208.91 12.5,-129 2.15,-114.45 13.01,-95.31 23.89,-81.87"/>
<polygon fill="#63b8ff" stroke="#63b8ff" points="26.53,-84.16 30.47,-74.32 21.26,-79.55 26.53,-84.16"/>
</a>
</g>
</g>
<!-- Node10&#45;&gt;Node5 -->
<g id="edge16_Node000010_Node000005" class="edge">
<title>Node10&#45;&gt;Node5</title>
<g id="a_edge16_Node000010_Node000005"><a xlink:title=" ">
<path fill="none" stroke="#63b8ff" d="M317.07,-219.78C345.17,-205.41 397.44,-173.82 418.5,-129 430.94,-102.52 400.04,-86.23 368.44,-76.79"/>
<polygon fill="#63b8ff" stroke="#63b8ff" points="369.24,-73.38 358.66,-74.08 367.37,-80.12 369.24,-73.38"/>
</a>
</g>
</g>
<!-- Node11&#45;&gt;Node5 -->
<g id="edge19_Node000011_Node000005" class="edge">
<title>Node11&#45;&gt;Node5</title>
<g id="a_edge19_Node000011_Node000005"><a xlink:title=" ">
<path fill="none" stroke="#63b8ff" d="M496.03,-164.75C488.61,-151.08 472.48,-124.71 451.5,-110 427.96,-93.48 397.97,-82.87 371.87,-76.16"/>
<polygon fill="#63b8ff" stroke="#63b8ff" points="372.63,-72.74 362.09,-73.78 370.97,-79.55 372.63,-72.74"/>
</a>
</g>
</g>
<!-- Node12&#45;&gt;Node2 -->
<g id="edge23_Node000012_Node000002" class="edge">
<title>Node12&#45;&gt;Node2</title>
<g id="a_edge23_Node000012_Node000002"><a xlink:title=" ">
<path fill="none" stroke="#63b8ff" d="M242.26,-329.98C252.27,-322.07 267.39,-310.11 279.43,-300.58"/>
<polygon fill="#63b8ff" stroke="#63b8ff" points="281.87,-303.12 287.54,-294.17 277.53,-297.63 281.87,-303.12"/>
</a>
</g>
</g>
<!-- Node12&#45;&gt;Node3 -->
<g id="edge21_Node000012_Node000003" class="edge">
<title>Node12&#45;&gt;Node3</title>
<g id="a_edge21_Node000012_Node000003"><a xlink:title=" ">
<path fill="none" stroke="#63b8ff" d="M231.5,-329.74C231.5,-304.31 231.5,-230.08 231.5,-194.69"/>
<polygon fill="#63b8ff" stroke="#63b8ff" points="235,-194.31 231.5,-184.31 228,-194.31 235,-194.31"/>
</a>
</g>
</g>
<!-- Node12&#45;&gt;Node10 -->
<g id="edge22_Node000012_Node000010" class="edge">
<title>Node12&#45;&gt;Node10</title>
<g id="a_edge22_Node000012_Node000010"><a xlink:title=" ">
<path fill="none" stroke="#63b8ff" d="M233.21,-329.73C235.98,-316.94 242.3,-292.77 253.5,-275 260.41,-264.04 270.5,-253.74 279.37,-245.81"/>
<polygon fill="#63b8ff" stroke="#63b8ff" points="281.73,-248.4 287.06,-239.25 277.18,-243.08 281.73,-248.4"/>
</a>
</g>
</g>
<!-- Node13&#45;&gt;Node2 -->
<g id="edge27_Node000013_Node000002" class="edge">
<title>Node13&#45;&gt;Node2</title>
<g id="a_edge27_Node000013_Node000002"><a xlink:title=" ">
<path fill="none" stroke="#63b8ff" d="M359.77,-329.98C348.77,-322 332.08,-309.88 318.9,-300.31"/>
<polygon fill="#63b8ff" stroke="#63b8ff" points="320.59,-297.21 310.44,-294.17 316.48,-302.88 320.59,-297.21"/>
</a>
</g>
</g>
<!-- Node13&#45;&gt;Node3 -->
<g id="edge25_Node000013_Node000003" class="edge">
<title>Node13&#45;&gt;Node3</title>
<g id="a_edge25_Node000013_Node000003"><a xlink:title=" ">
<path fill="none" stroke="#63b8ff" d="M372.41,-329.73C374.15,-308.09 375.5,-251.61 346.5,-220 330.12,-202.15 305.75,-191.38 283.65,-184.93"/>
<polygon fill="#63b8ff" stroke="#63b8ff" points="284.26,-181.47 273.7,-182.26 282.45,-188.23 284.26,-181.47"/>
</a>
</g>
</g>
<!-- Node13&#45;&gt;Node10 -->
<g id="edge26_Node000013_Node000010" class="edge">
<title>Node13&#45;&gt;Node10</title>
<g id="a_edge26_Node000013_Node000010"><a xlink:title=" ">
<path fill="none" stroke="#63b8ff" d="M368.63,-329.78C364.19,-317.05 354.89,-292.95 342.5,-275 335.2,-264.43 325.26,-254.13 316.68,-246.11"/>
<polygon fill="#63b8ff" stroke="#63b8ff" points="318.76,-243.28 308.99,-239.18 314.07,-248.48 318.76,-243.28"/>
</a>
</g>
</g>
</g>
</svg>
