<?xml version="1.0" encoding="UTF-8" standalone="no"?>
<!DOCTYPE svg PUBLIC "-//W3C//DTD SVG 1.1//EN"
 "http://www.w3.org/Graphics/SVG/1.1/DTD/svg11.dtd">
<!-- Generated by graphviz version 2.43.0 (0)
 -->
<!-- Title: l4util_ioport_map Pages: 1 -->
<svg width="402pt" height="288pt"
 viewBox="0.00 0.00 402.00 288.00" xmlns="http://www.w3.org/2000/svg" xmlns:xlink="http://www.w3.org/1999/xlink">
<g id="graph0" class="graph" transform="scale(1 1) rotate(0) translate(4 284)">
<title>l4util_ioport_map</title>
<!-- Node1 -->
<g id="Node000001" class="node">
<title>Node1</title>
<g id="a_Node000001"><a xlink:title="Map a range of I/O ports.">
<polygon fill="#999999" stroke="#666666" points="102,-150 0,-150 0,-131 102,-131 102,-150"/>
<text text-anchor="middle" x="51" y="-138" font-family="Helvetica,sans-Serif" font-size="10.00">l4util_ioport_map</text>
</a>
</g>
</g>
<!-- Node2 -->
<g id="Node000002" class="node">
<title>Node2</title>
<g id="a_Node000002"><a xlink:href="group__l4__fpage__api.html#gac623c94001223760fe0d734828c1956a" target="_top" xlink:title="Create an IO&#45;port flex page.">
<polygon fill="white" stroke="#666666" points="222.5,-280 154.5,-280 154.5,-261 222.5,-261 222.5,-280"/>
<text text-anchor="middle" x="188.5" y="-268" font-family="Helvetica,sans-Serif" font-size="10.00">l4_iofpage</text>
</a>
</g>
</g>
<!-- Node1&#45;&gt;Node2 -->
<g id="edge1_Node000001_Node000002" class="edge">
<title>Node1&#45;&gt;Node2</title>
<g id="a_edge1_Node000001_Node000002"><a xlink:title=" ">
<path fill="none" stroke="#63b8ff" d="M56.87,-150.07C68.21,-171.46 98.45,-223.52 138,-252.5 140.32,-254.2 142.81,-255.75 145.4,-257.17"/>
<polygon fill="#63b8ff" stroke="#63b8ff" points="143.94,-260.35 154.48,-261.47 146.95,-254.02 143.94,-260.35"/>
</a>
</g>
</g>
<!-- Node3 -->
<g id="Node000003" class="node">
<title>Node3</title>
<g id="a_Node000003"><a xlink:href="group__l4__ipc__api.html#gab96d1669dcd54657237ee27b7f6862c6" target="_top" xlink:title="Object call (usual invocation).">
<polygon fill="white" stroke="#666666" points="222.5,-243 154.5,-243 154.5,-224 222.5,-224 222.5,-243"/>
<text text-anchor="middle" x="188.5" y="-231" font-family="Helvetica,sans-Serif" font-size="10.00">l4_ipc_call</text>
</a>
</g>
</g>
<!-- Node1&#45;&gt;Node3 -->
<g id="edge2_Node000001_Node000003" class="edge">
<title>Node1&#45;&gt;Node3</title>
<g id="a_edge2_Node000001_Node000003"><a xlink:title=" ">
<path fill="none" stroke="#63b8ff" d="M60.65,-150.06C75.25,-165.67 106.26,-196.78 138,-215.5 140.67,-217.08 143.5,-218.55 146.4,-219.92"/>
<polygon fill="#63b8ff" stroke="#63b8ff" points="145.24,-223.23 155.81,-223.95 148,-216.8 145.24,-223.23"/>
</a>
</g>
</g>
<!-- Node5 -->
<g id="Node000005" class="node">
<title>Node5</title>
<g id="a_Node000005"><a xlink:href="group__l4__ipc__err__api.html#gad40f404217497793e95a10d77a47db39" target="_top" xlink:title="Get the IPC error code for an IPC operation.">
<polygon fill="white" stroke="#666666" points="225.5,-206 151.5,-206 151.5,-187 225.5,-187 225.5,-206"/>
<text text-anchor="middle" x="188.5" y="-194" font-family="Helvetica,sans-Serif" font-size="10.00">l4_ipc_error</text>
</a>
</g>
</g>
<!-- Node1&#45;&gt;Node5 -->
<g id="edge4_Node000001_Node000005" class="edge">
<title>Node1&#45;&gt;Node5</title>
<g id="a_edge4_Node000001_Node000005"><a xlink:title=" ">
<path fill="none" stroke="#63b8ff" d="M72.69,-150.11C90,-158.04 115.44,-169.42 138,-178.5 142.01,-180.11 146.22,-181.74 150.43,-183.33"/>
<polygon fill="#63b8ff" stroke="#63b8ff" points="149.55,-186.73 160.14,-186.92 151.98,-180.17 149.55,-186.73"/>
</a>
</g>
</g>
<!-- Node7 -->
<g id="Node000007" class="node">
<title>Node7</title>
<g id="a_Node000007"><a xlink:href="group__l4__msgtag__api.html#ga661d71acad9d096fa990f7c94943bc78" target="_top" xlink:title="Create a message tag from the specified values.">
<polygon fill="white" stroke="#666666" points="222.5,-169 154.5,-169 154.5,-150 222.5,-150 222.5,-169"/>
<text text-anchor="middle" x="188.5" y="-157" font-family="Helvetica,sans-Serif" font-size="10.00">l4_msgtag</text>
</a>
</g>
</g>
<!-- Node1&#45;&gt;Node7 -->
<g id="edge6_Node000001_Node000007" class="edge">
<title>Node1&#45;&gt;Node7</title>
<g id="a_edge6_Node000001_Node000007"><a xlink:title=" ">
<path fill="none" stroke="#63b8ff" d="M102.07,-147.52C116.01,-149.48 131.02,-151.58 144.51,-153.47"/>
<polygon fill="#63b8ff" stroke="#63b8ff" points="144.1,-156.95 154.49,-154.87 145.07,-150.02 144.1,-156.95"/>
</a>
</g>
</g>
<!-- Node8 -->
<g id="Node000008" class="node">
<title>Node8</title>
<g id="a_Node000008"><a xlink:href="group__l4__msgtag__api.html#ga2f57b9cb540e4cbb6a77363828b9a671" target="_top" xlink:title="Get the number of typed items.">
<polygon fill="white" stroke="#666666" points="239,-132 138,-132 138,-113 239,-113 239,-132"/>
<text text-anchor="middle" x="188.5" y="-120" font-family="Helvetica,sans-Serif" font-size="10.00">l4_msgtag_items</text>
</a>
</g>
</g>
<!-- Node1&#45;&gt;Node8 -->
<g id="edge7_Node000001_Node000008" class="edge">
<title>Node1&#45;&gt;Node8</title>
<g id="a_edge7_Node000001_Node000008"><a xlink:title=" ">
<path fill="none" stroke="#63b8ff" d="M102.07,-133.85C110.41,-132.74 119.14,-131.58 127.7,-130.44"/>
<polygon fill="#63b8ff" stroke="#63b8ff" points="128.18,-133.91 137.64,-129.12 127.26,-126.97 128.18,-133.91"/>
</a>
</g>
</g>
<!-- Node9 -->
<g id="Node000009" class="node">
<title>Node9</title>
<g id="a_Node000009"><a xlink:href="group__l4__utcb__api.html#gadc099b4a59e1d99638c72c11a8c8b644" target="_top" xlink:title="Get the UTCB address.">
<polygon fill="white" stroke="#666666" points="360.5,-56 308.5,-56 308.5,-37 360.5,-37 360.5,-56"/>
<text text-anchor="middle" x="334.5" y="-44" font-family="Helvetica,sans-Serif" font-size="10.00">l4_utcb</text>
</a>
</g>
</g>
<!-- Node1&#45;&gt;Node9 -->
<g id="edge8_Node000001_Node000009" class="edge">
<title>Node1&#45;&gt;Node9</title>
<g id="a_edge8_Node000001_Node000009"><a xlink:title=" ">
<path fill="none" stroke="#63b8ff" d="M72.96,-130.98C90.22,-123.32 115.44,-112.54 138,-104.5 193.37,-84.76 259.16,-66.23 298.56,-55.64"/>
<polygon fill="#63b8ff" stroke="#63b8ff" points="299.46,-59.02 308.22,-53.06 297.66,-52.26 299.46,-59.02"/>
</a>
</g>
</g>
<!-- Node10 -->
<g id="Node000010" class="node">
<title>Node10</title>
<g id="a_Node000010"><a xlink:href="group__l4__utcb__api.html#gae35044c9bae188ccffb2fd90781c60a5" target="_top" xlink:title="Get the buffer&#45;register block of a UTCB.">
<polygon fill="white" stroke="#666666" points="222,-56 155,-56 155,-37 222,-37 222,-56"/>
<text text-anchor="middle" x="188.5" y="-44" font-family="Helvetica,sans-Serif" font-size="10.00">l4_utcb_br</text>
</a>
</g>
</g>
<!-- Node1&#45;&gt;Node10 -->
<g id="edge9_Node000001_Node000010" class="edge">
<title>Node1&#45;&gt;Node10</title>
<g id="a_edge9_Node000001_Node000010"><a xlink:title=" ">
<path fill="none" stroke="#63b8ff" d="M62.25,-130.82C77.79,-116.46 108.61,-89.22 138,-70.5 143.5,-67 149.58,-63.66 155.55,-60.64"/>
<polygon fill="#63b8ff" stroke="#63b8ff" points="157.26,-63.7 164.73,-56.19 154.2,-57.4 157.26,-63.7"/>
</a>
</g>
</g>
<!-- Node11 -->
<g id="Node000011" class="node">
<title>Node11</title>
<g id="a_Node000011"><a xlink:href="group__l4__utcb__api.html#ga090bdcc433d5ce568b22ec9ab4f3357b" target="_top" xlink:title="Get the message&#45;register block of a UTCB.">
<polygon fill="white" stroke="#666666" points="224,-19 153,-19 153,0 224,0 224,-19"/>
<text text-anchor="middle" x="188.5" y="-7" font-family="Helvetica,sans-Serif" font-size="10.00">l4_utcb_mr</text>
</a>
</g>
</g>
<!-- Node1&#45;&gt;Node11 -->
<g id="edge11_Node000001_Node000011" class="edge">
<title>Node1&#45;&gt;Node11</title>
<g id="a_edge11_Node000001_Node000011"><a xlink:title=" ">
<path fill="none" stroke="#63b8ff" d="M56.84,-130.84C68.14,-109.26 98.29,-56.73 138,-27.5 139.85,-26.13 141.82,-24.86 143.87,-23.68"/>
<polygon fill="#63b8ff" stroke="#63b8ff" points="145.78,-26.64 153.17,-19.05 142.66,-20.37 145.78,-26.64"/>
</a>
</g>
</g>
<!-- Node4 -->
<g id="Node000004" class="node">
<title>Node4</title>
<g id="a_Node000004"><a xlink:href="group__l4__ipc__api.html#ga1caa56d45e0453b3002e7f5cfdb0dec7" target="_top" xlink:title="Generic L4 object invocation.">
<polygon fill="white" stroke="#666666" points="357,-243 312,-243 312,-224 357,-224 357,-243"/>
<text text-anchor="middle" x="334.5" y="-231" font-family="Helvetica,sans-Serif" font-size="10.00">l4_ipc</text>
</a>
</g>
</g>
<!-- Node3&#45;&gt;Node4 -->
<g id="edge3_Node000003_Node000004" class="edge">
<title>Node3&#45;&gt;Node4</title>
<g id="a_edge3_Node000003_Node000004"><a xlink:title=" ">
<path fill="none" stroke="#63b8ff" d="M222.54,-233.5C246.3,-233.5 278.16,-233.5 301.65,-233.5"/>
<polygon fill="#63b8ff" stroke="#63b8ff" points="301.79,-237 311.79,-233.5 301.79,-230 301.79,-237"/>
</a>
</g>
</g>
<!-- Node6 -->
<g id="Node000006" class="node">
<title>Node6</title>
<g id="a_Node000006"><a xlink:href="group__l4__msgtag__api.html#ga52e71bb66855f4d78fa5c82b5f0c5a87" target="_top" xlink:title="Test for error indicator flag.">
<polygon fill="white" stroke="#666666" points="394,-206 275,-206 275,-187 394,-187 394,-206"/>
<text text-anchor="middle" x="334.5" y="-194" font-family="Helvetica,sans-Serif" font-size="10.00">l4_msgtag_has_error</text>
</a>
</g>
</g>
<!-- Node5&#45;&gt;Node6 -->
<g id="edge5_Node000005_Node000006" class="edge">
<title>Node5&#45;&gt;Node6</title>
<g id="a_edge5_Node000005_Node000006"><a xlink:title=" ">
<path fill="none" stroke="#63b8ff" d="M225.84,-196.5C237.66,-196.5 251.19,-196.5 264.58,-196.5"/>
<polygon fill="#63b8ff" stroke="#63b8ff" points="264.76,-200 274.76,-196.5 264.76,-193 264.76,-200"/>
</a>
</g>
</g>
<!-- Node10&#45;&gt;Node9 -->
<g id="edge10_Node000010_Node000009" class="edge">
<title>Node10&#45;&gt;Node9</title>
<g id="a_edge10_Node000010_Node000009"><a xlink:title=" ">
<path fill="none" stroke="#63b8ff" d="M222.18,-46.5C244.77,-46.5 274.82,-46.5 298,-46.5"/>
<polygon fill="#63b8ff" stroke="#63b8ff" points="298.12,-50 308.12,-46.5 298.12,-43 298.12,-50"/>
</a>
</g>
</g>
<!-- Node11&#45;&gt;Node9 -->
<g id="edge12_Node000011_Node000009" class="edge">
<title>Node11&#45;&gt;Node9</title>
<g id="a_edge12_Node000011_Node000009"><a xlink:title=" ">
<path fill="none" stroke="#63b8ff" d="M224.36,-18.46C246.88,-24.24 276.08,-31.75 298.6,-37.53"/>
<polygon fill="#63b8ff" stroke="#63b8ff" points="297.88,-40.96 308.44,-40.06 299.62,-34.18 297.88,-40.96"/>
</a>
</g>
</g>
</g>
</svg>
